<?xml version="1.0" encoding="UTF-8" standalone="no"?>
<!DOCTYPE svg PUBLIC "-//W3C//DTD SVG 1.1//EN"
 "http://www.w3.org/Graphics/SVG/1.1/DTD/svg11.dtd">
<!-- Generated by graphviz version 7.0.0 (20221023.0053)
 -->
<!-- Title: /Users/jonathan/Works/Tools/Triton/src/libtriton/includes/triton/aarch64Semantics.hpp Pages: 1 -->
<svg width="346pt" height="126pt"
 viewBox="0.00 0.00 346.00 126.00" xmlns="http://www.w3.org/2000/svg" xmlns:xlink="http://www.w3.org/1999/xlink">
<g id="graph0" class="graph" transform="scale(1 1) rotate(0) translate(4 122)">
<title>/Users/jonathan/Works/Tools/Triton/src/libtriton/includes/triton/aarch64Semantics.hpp</title>
<!-- Node1 -->
<g id="node1" class="node">
<title>Node1</title>
<g id="a_node1"><a xlink:title=" ">
<polygon fill="#999999" stroke="#666666" points="279.5,-118 96.5,-118 96.5,-77 279.5,-77 279.5,-118"/>
<text text-anchor="start" x="104.5" y="-106" font-family="Helvetica,sans-Serif" font-size="10.00">/Users/jonathan/Works</text>
<text text-anchor="start" x="104.5" y="-95" font-family="Helvetica,sans-Serif" font-size="10.00">/Tools/Triton/src/libtriton</text>
<text text-anchor="middle" x="188" y="-84" font-family="Helvetica,sans-Serif" font-size="10.00">/includes/triton/aarch64Semantics.hpp</text>
</a>
</g>
</g>
<!-- Node2 -->
<g id="node2" class="node">
<title>Node2</title>
<g id="a_node2"><a xlink:href="aarch64Semantics_8cpp.html" target="_top" xlink:title=" ">
<polygon fill="white" stroke="#666666" points="198,-41 0,-41 0,0 198,0 198,-41"/>
<text text-anchor="start" x="8" y="-29" font-family="Helvetica,sans-Serif" font-size="10.00">/Users/jonathan/Works</text>
<text text-anchor="start" x="8" y="-18" font-family="Helvetica,sans-Serif" font-size="10.00">/Tools/Triton/src/libtriton</text>
<text text-anchor="middle" x="99" y="-7" font-family="Helvetica,sans-Serif" font-size="10.00">/arch/arm/aarch64/aarch64Semantics.cpp</text>
</a>
</g>
</g>
<!-- Node1&#45;&gt;Node2 -->
<g id="edge1" class="edge">
<title>Node1&#45;&gt;Node2</title>
<path fill="none" stroke="#63b8ff" d="M156.05,-69.57C144.98,-60.25 132.8,-49.98 122.54,-41.33"/>
<polygon fill="#63b8ff" stroke="#63b8ff" points="153.56,-72.05 163.46,-75.82 158.07,-66.7 153.56,-72.05"/>
</g>
<!-- Node3 -->
<g id="node3" class="node">
<title>Node3</title>
<g id="a_node3"><a xlink:href="irBuilder_8cpp.html" target="_top" xlink:title=" ">
<polygon fill="white" stroke="#666666" points="338,-41 216,-41 216,0 338,0 338,-41"/>
<text text-anchor="start" x="224" y="-29" font-family="Helvetica,sans-Serif" font-size="10.00">/Users/jonathan/Works</text>
<text text-anchor="start" x="224" y="-18" font-family="Helvetica,sans-Serif" font-size="10.00">/Tools/Triton/src/libtriton</text>
<text text-anchor="middle" x="277" y="-7" font-family="Helvetica,sans-Serif" font-size="10.00">/arch/irBuilder.cpp</text>
</a>
</g>
</g>
<!-- Node1&#45;&gt;Node3 -->
<g id="edge2" class="edge">
<title>Node1&#45;&gt;Node3</title>
<path fill="none" stroke="#63b8ff" d="M219.95,-69.57C231.02,-60.25 243.2,-49.98 253.46,-41.33"/>
<polygon fill="#63b8ff" stroke="#63b8ff" points="217.93,-66.7 212.54,-75.82 222.44,-72.05 217.93,-66.7"/>
</g>
</g>
</svg>
