<?xml version="1.0" encoding="UTF-8" standalone="no"?>
<!DOCTYPE svg PUBLIC "-//W3C//DTD SVG 1.1//EN"
 "http://www.w3.org/Graphics/SVG/1.1/DTD/svg11.dtd">
<!-- Generated by graphviz version 7.0.0 (20221023.0053)
 -->
<!-- Title: /Users/jonathan/Works/Tools/Triton/src/libtriton/includes/triton/aarch64Cpu.hpp Pages: 1 -->
<svg width="458pt" height="126pt"
 viewBox="0.00 0.00 458.00 126.00" xmlns="http://www.w3.org/2000/svg" xmlns:xlink="http://www.w3.org/1999/xlink">
<g id="graph0" class="graph" transform="scale(1 1) rotate(0) translate(4 122)">
<title>/Users/jonathan/Works/Tools/Triton/src/libtriton/includes/triton/aarch64Cpu.hpp</title>
<!-- Node1 -->
<g id="node1" class="node">
<title>Node1</title>
<g id="a_node1"><a xlink:title=" ">
<polygon fill="#999999" stroke="#666666" points="302.5,-118 147.5,-118 147.5,-77 302.5,-77 302.5,-118"/>
<text text-anchor="start" x="155.5" y="-106" font-family="Helvetica,sans-Serif" font-size="10.00">/Users/jonathan/Works</text>
<text text-anchor="start" x="155.5" y="-95" font-family="Helvetica,sans-Serif" font-size="10.00">/Tools/Triton/src/libtriton</text>
<text text-anchor="middle" x="225" y="-84" font-family="Helvetica,sans-Serif" font-size="10.00">/includes/triton/aarch64Cpu.hpp</text>
</a>
</g>
</g>
<!-- Node2 -->
<g id="node2" class="node">
<title>Node2</title>
<g id="a_node2"><a xlink:href="architecture_8cpp.html" target="_top" xlink:title=" ">
<polygon fill="white" stroke="#666666" points="122,-41 0,-41 0,0 122,0 122,-41"/>
<text text-anchor="start" x="8" y="-29" font-family="Helvetica,sans-Serif" font-size="10.00">/Users/jonathan/Works</text>
<text text-anchor="start" x="8" y="-18" font-family="Helvetica,sans-Serif" font-size="10.00">/Tools/Triton/src/libtriton</text>
<text text-anchor="middle" x="61" y="-7" font-family="Helvetica,sans-Serif" font-size="10.00">/arch/architecture.cpp</text>
</a>
</g>
</g>
<!-- Node1&#45;&gt;Node2 -->
<g id="edge1" class="edge">
<title>Node1&#45;&gt;Node2</title>
<path fill="none" stroke="#63b8ff" d="M171.17,-71.88C149.63,-62.03 125.14,-50.83 104.72,-41.49"/>
<polygon fill="#63b8ff" stroke="#63b8ff" points="169.56,-74.99 180.11,-75.97 172.47,-68.63 169.56,-74.99"/>
</g>
<!-- Node3 -->
<g id="node3" class="node">
<title>Node3</title>
<g id="a_node3"><a xlink:href="aarch64Cpu_8cpp.html" target="_top" xlink:title=" ">
<polygon fill="white" stroke="#666666" points="310,-41 140,-41 140,0 310,0 310,-41"/>
<text text-anchor="start" x="148" y="-29" font-family="Helvetica,sans-Serif" font-size="10.00">/Users/jonathan/Works</text>
<text text-anchor="start" x="148" y="-18" font-family="Helvetica,sans-Serif" font-size="10.00">/Tools/Triton/src/libtriton</text>
<text text-anchor="middle" x="225" y="-7" font-family="Helvetica,sans-Serif" font-size="10.00">/arch/arm/aarch64/aarch64Cpu.cpp</text>
</a>
</g>
</g>
<!-- Node1&#45;&gt;Node3 -->
<g id="edge2" class="edge">
<title>Node1&#45;&gt;Node3</title>
<path fill="none" stroke="#63b8ff" d="M225,-65.36C225,-57.24 225,-48.7 225,-41.33"/>
<polygon fill="#63b8ff" stroke="#63b8ff" points="221.5,-65.28 225,-75.28 228.5,-65.28 221.5,-65.28"/>
</g>
<!-- Node4 -->
<g id="node4" class="node">
<title>Node4</title>
<g id="a_node4"><a xlink:href="context_8cpp.html" target="_top" xlink:title=" ">
<polygon fill="white" stroke="#666666" points="450,-41 328,-41 328,0 450,0 450,-41"/>
<text text-anchor="start" x="336" y="-29" font-family="Helvetica,sans-Serif" font-size="10.00">/Users/jonathan/Works</text>
<text text-anchor="start" x="336" y="-18" font-family="Helvetica,sans-Serif" font-size="10.00">/Tools/Triton/src/libtriton</text>
<text text-anchor="middle" x="389" y="-7" font-family="Helvetica,sans-Serif" font-size="10.00">/context/context.cpp</text>
</a>
</g>
</g>
<!-- Node1&#45;&gt;Node4 -->
<g id="edge3" class="edge">
<title>Node1&#45;&gt;Node4</title>
<path fill="none" stroke="#63b8ff" d="M278.83,-71.88C300.37,-62.03 324.86,-50.83 345.28,-41.49"/>
<polygon fill="#63b8ff" stroke="#63b8ff" points="277.53,-68.63 269.89,-75.97 280.44,-74.99 277.53,-68.63"/>
</g>
</g>
</svg>
