<?xml version="1.0" encoding="UTF-8" standalone="no"?>
<!DOCTYPE svg PUBLIC "-//W3C//DTD SVG 1.1//EN"
 "http://www.w3.org/Graphics/SVG/1.1/DTD/svg11.dtd">
<!-- Generated by graphviz version 7.0.0 (20221023.0053)
 -->
<!-- Title: /Users/jonathan/Works/Tools/Triton/src/libtriton/includes/triton/aarch64Specifications.hpp Pages: 1 -->
<svg width="1034pt" height="214pt"
 viewBox="0.00 0.00 1034.33 214.00" xmlns="http://www.w3.org/2000/svg" xmlns:xlink="http://www.w3.org/1999/xlink">
<g id="graph0" class="graph" transform="scale(1 1) rotate(0) translate(4 210)">
<title>/Users/jonathan/Works/Tools/Triton/src/libtriton/includes/triton/aarch64Specifications.hpp</title>
<!-- Node1 -->
<g id="node1" class="node">
<title>Node1</title>
<g id="a_node1"><a xlink:title=" ">
<polygon fill="#999999" stroke="#666666" points="547.33,-206 349.33,-206 349.33,-165 547.33,-165 547.33,-206"/>
<text text-anchor="start" x="357.33" y="-194" font-family="Helvetica,sans-Serif" font-size="10.00">/Users/jonathan/Works</text>
<text text-anchor="start" x="357.33" y="-183" font-family="Helvetica,sans-Serif" font-size="10.00">/Tools/Triton/src/libtriton</text>
<text text-anchor="middle" x="448.33" y="-172" font-family="Helvetica,sans-Serif" font-size="10.00">/includes/triton/aarch64Specifications.hpp</text>
</a>
</g>
</g>
<!-- Node2 -->
<g id="node2" class="node">
<title>Node2</title>
<g id="a_node2"><a xlink:href="architecture_8cpp.html" target="_top" xlink:title=" ">
<polygon fill="white" stroke="#666666" points="419.33,-41 297.33,-41 297.33,0 419.33,0 419.33,-41"/>
<text text-anchor="start" x="305.33" y="-29" font-family="Helvetica,sans-Serif" font-size="10.00">/Users/jonathan/Works</text>
<text text-anchor="start" x="305.33" y="-18" font-family="Helvetica,sans-Serif" font-size="10.00">/Tools/Triton/src/libtriton</text>
<text text-anchor="middle" x="358.33" y="-7" font-family="Helvetica,sans-Serif" font-size="10.00">/arch/architecture.cpp</text>
</a>
</g>
</g>
<!-- Node1&#45;&gt;Node2 -->
<g id="edge1" class="edge">
<title>Node1&#45;&gt;Node2</title>
<path fill="none" stroke="#63b8ff" d="M337.73,-177.79C216.81,-169.3 37.31,-152.85 16.33,-129 -64.15,-37.53 178.41,-23.09 297.04,-21.36"/>
<polygon fill="#63b8ff" stroke="#63b8ff" points="337.15,-181.26 347.37,-178.46 337.63,-174.27 337.15,-181.26"/>
</g>
<!-- Node3 -->
<g id="node3" class="node">
<title>Node3</title>
<g id="a_node3"><a xlink:href="aarch64Semantics_8cpp.html" target="_top" xlink:title=" ">
<polygon fill="white" stroke="#666666" points="223.33,-123.5 25.33,-123.5 25.33,-82.5 223.33,-82.5 223.33,-123.5"/>
<text text-anchor="start" x="33.33" y="-111.5" font-family="Helvetica,sans-Serif" font-size="10.00">/Users/jonathan/Works</text>
<text text-anchor="start" x="33.33" y="-100.5" font-family="Helvetica,sans-Serif" font-size="10.00">/Tools/Triton/src/libtriton</text>
<text text-anchor="middle" x="124.33" y="-89.5" font-family="Helvetica,sans-Serif" font-size="10.00">/arch/arm/aarch64/aarch64Semantics.cpp</text>
</a>
</g>
</g>
<!-- Node1&#45;&gt;Node3 -->
<g id="edge2" class="edge">
<title>Node1&#45;&gt;Node3</title>
<path fill="none" stroke="#63b8ff" d="M357.22,-161.86C309.23,-149.94 250.9,-135.45 204.62,-123.95"/>
<polygon fill="#63b8ff" stroke="#63b8ff" points="356.22,-165.22 366.77,-164.24 357.91,-158.43 356.22,-165.22"/>
</g>
<!-- Node4 -->
<g id="node4" class="node">
<title>Node4</title>
<g id="a_node4"><a xlink:href="aarch64Specifications_8cpp.html" target="_top" xlink:title=" ">
<polygon fill="white" stroke="#666666" points="454.83,-123.5 241.83,-123.5 241.83,-82.5 454.83,-82.5 454.83,-123.5"/>
<text text-anchor="start" x="249.83" y="-111.5" font-family="Helvetica,sans-Serif" font-size="10.00">/Users/jonathan/Works</text>
<text text-anchor="start" x="249.83" y="-100.5" font-family="Helvetica,sans-Serif" font-size="10.00">/Tools/Triton/src/libtriton</text>
<text text-anchor="middle" x="348.33" y="-89.5" font-family="Helvetica,sans-Serif" font-size="10.00">/arch/arm/aarch64/aarch64Specifications.cpp</text>
</a>
</g>
</g>
<!-- Node1&#45;&gt;Node4 -->
<g id="edge3" class="edge">
<title>Node1&#45;&gt;Node4</title>
<path fill="none" stroke="#63b8ff" d="M414.95,-157.63C401.28,-146.62 385.74,-134.12 373.11,-123.95"/>
<polygon fill="#63b8ff" stroke="#63b8ff" points="412.44,-160.11 422.43,-163.65 416.83,-154.65 412.44,-160.11"/>
</g>
<!-- Node5 -->
<g id="node5" class="node">
<title>Node5</title>
<g id="a_node5"><a xlink:href="initConditionsNamespace_8cpp.html" target="_top" xlink:title=" ">
<polygon fill="white" stroke="#666666" points="623.33,-129 473.33,-129 473.33,-77 623.33,-77 623.33,-129"/>
<text text-anchor="start" x="481.33" y="-117" font-family="Helvetica,sans-Serif" font-size="10.00">/Users/jonathan/Works</text>
<text text-anchor="start" x="481.33" y="-106" font-family="Helvetica,sans-Serif" font-size="10.00">/Tools/Triton/src/libtriton</text>
<text text-anchor="start" x="481.33" y="-95" font-family="Helvetica,sans-Serif" font-size="10.00">/bindings/python/namespaces</text>
<text text-anchor="middle" x="548.33" y="-84" font-family="Helvetica,sans-Serif" font-size="10.00">/initConditionsNamespace.cpp</text>
</a>
</g>
</g>
<!-- Node1&#45;&gt;Node5 -->
<g id="edge4" class="edge">
<title>Node1&#45;&gt;Node5</title>
<path fill="none" stroke="#63b8ff" d="M481.76,-157.58C493.04,-148.51 505.58,-138.41 516.71,-129.45"/>
<polygon fill="#63b8ff" stroke="#63b8ff" points="479.82,-154.65 474.23,-163.65 484.21,-160.11 479.82,-154.65"/>
</g>
<!-- Node6 -->
<g id="node6" class="node">
<title>Node6</title>
<g id="a_node6"><a xlink:href="initOpcodesNamespace_8cpp.html" target="_top" xlink:title=" ">
<polygon fill="white" stroke="#666666" points="787.33,-129 641.33,-129 641.33,-77 787.33,-77 787.33,-129"/>
<text text-anchor="start" x="649.33" y="-117" font-family="Helvetica,sans-Serif" font-size="10.00">/Users/jonathan/Works</text>
<text text-anchor="start" x="649.33" y="-106" font-family="Helvetica,sans-Serif" font-size="10.00">/Tools/Triton/src/libtriton</text>
<text text-anchor="start" x="649.33" y="-95" font-family="Helvetica,sans-Serif" font-size="10.00">/bindings/python/namespaces</text>
<text text-anchor="middle" x="714.33" y="-84" font-family="Helvetica,sans-Serif" font-size="10.00">/initOpcodesNamespace.cpp</text>
</a>
</g>
</g>
<!-- Node1&#45;&gt;Node6 -->
<g id="edge5" class="edge">
<title>Node1&#45;&gt;Node6</title>
<path fill="none" stroke="#63b8ff" d="M525.68,-161.22C558.57,-151.31 597.33,-139.61 632.33,-129 635.18,-128.14 638.08,-127.25 641.01,-126.36"/>
<polygon fill="#63b8ff" stroke="#63b8ff" points="524.79,-157.84 516.22,-164.07 526.81,-164.54 524.79,-157.84"/>
</g>
<!-- Node7 -->
<g id="node7" class="node">
<title>Node7</title>
<g id="a_node7"><a xlink:href="aarch64Cpu_8hpp.html" target="_top" xlink:title=" ">
<polygon fill="white" stroke="#666666" points="960.83,-123.5 805.83,-123.5 805.83,-82.5 960.83,-82.5 960.83,-123.5"/>
<text text-anchor="start" x="813.83" y="-111.5" font-family="Helvetica,sans-Serif" font-size="10.00">/Users/jonathan/Works</text>
<text text-anchor="start" x="813.83" y="-100.5" font-family="Helvetica,sans-Serif" font-size="10.00">/Tools/Triton/src/libtriton</text>
<text text-anchor="middle" x="883.33" y="-89.5" font-family="Helvetica,sans-Serif" font-size="10.00">/includes/triton/aarch64Cpu.hpp</text>
</a>
</g>
</g>
<!-- Node1&#45;&gt;Node7 -->
<g id="edge6" class="edge">
<title>Node1&#45;&gt;Node7</title>
<path fill="none" stroke="#63b8ff" d="M558.83,-170.38C627.57,-160.73 717.55,-146.53 796.33,-129 803.08,-127.5 810.08,-125.77 817.04,-123.95"/>
<polygon fill="#63b8ff" stroke="#63b8ff" points="558.48,-166.89 549.06,-171.74 559.45,-173.83 558.48,-166.89"/>
</g>
<!-- Node7&#45;&gt;Node2 -->
<g id="edge7" class="edge">
<title>Node7&#45;&gt;Node2</title>
<path fill="none" stroke="#63b8ff" d="M807.11,-79.38C803.47,-78.53 799.87,-77.73 796.33,-77 663.44,-49.66 504.93,-33.59 419.75,-26.28"/>
<polygon fill="#63b8ff" stroke="#63b8ff" points="806.02,-82.72 816.57,-81.71 807.7,-75.92 806.02,-82.72"/>
</g>
<!-- Node8 -->
<g id="node8" class="node">
<title>Node8</title>
<g id="a_node8"><a xlink:href="aarch64Cpu_8cpp.html" target="_top" xlink:title=" ">
<polygon fill="white" stroke="#666666" points="886.33,-41 716.33,-41 716.33,0 886.33,0 886.33,-41"/>
<text text-anchor="start" x="724.33" y="-29" font-family="Helvetica,sans-Serif" font-size="10.00">/Users/jonathan/Works</text>
<text text-anchor="start" x="724.33" y="-18" font-family="Helvetica,sans-Serif" font-size="10.00">/Tools/Triton/src/libtriton</text>
<text text-anchor="middle" x="801.33" y="-7" font-family="Helvetica,sans-Serif" font-size="10.00">/arch/arm/aarch64/aarch64Cpu.cpp</text>
</a>
</g>
</g>
<!-- Node7&#45;&gt;Node8 -->
<g id="edge8" class="edge">
<title>Node7&#45;&gt;Node8</title>
<path fill="none" stroke="#63b8ff" d="M854.99,-74.18C844.02,-63.41 831.71,-51.33 821.65,-41.45"/>
<polygon fill="#63b8ff" stroke="#63b8ff" points="852.39,-76.53 861.98,-81.04 857.29,-71.54 852.39,-76.53"/>
</g>
<!-- Node9 -->
<g id="node9" class="node">
<title>Node9</title>
<g id="a_node9"><a xlink:href="context_8cpp.html" target="_top" xlink:title=" ">
<polygon fill="white" stroke="#666666" points="1026.33,-41 904.33,-41 904.33,0 1026.33,0 1026.33,-41"/>
<text text-anchor="start" x="912.33" y="-29" font-family="Helvetica,sans-Serif" font-size="10.00">/Users/jonathan/Works</text>
<text text-anchor="start" x="912.33" y="-18" font-family="Helvetica,sans-Serif" font-size="10.00">/Tools/Triton/src/libtriton</text>
<text text-anchor="middle" x="965.33" y="-7" font-family="Helvetica,sans-Serif" font-size="10.00">/context/context.cpp</text>
</a>
</g>
</g>
<!-- Node7&#45;&gt;Node9 -->
<g id="edge9" class="edge">
<title>Node7&#45;&gt;Node9</title>
<path fill="none" stroke="#63b8ff" d="M911.66,-74.18C922.63,-63.41 934.95,-51.33 945.01,-41.45"/>
<polygon fill="#63b8ff" stroke="#63b8ff" points="909.36,-71.54 904.68,-81.04 914.26,-76.53 909.36,-71.54"/>
</g>
</g>
</svg>
