<?xml version="1.0" encoding="UTF-8" standalone="no"?>
<!DOCTYPE svg PUBLIC "-//W3C//DTD SVG 1.1//EN"
 "http://www.w3.org/Graphics/SVG/1.1/DTD/svg11.dtd">
<!-- Generated by graphviz version 2.50.0 (20211204.2007)
 -->
<!-- Title: /home/jonathan/Works/Tools/Triton/src/libtriton/includes/triton/aarch64Specifications.hpp Pages: 1 -->
<svg width="1061pt" height="217pt"
 viewBox="0.00 0.00 1060.65 217.00" xmlns="http://www.w3.org/2000/svg" xmlns:xlink="http://www.w3.org/1999/xlink">
<g id="graph0" class="graph" transform="scale(1 1) rotate(0) translate(4 213)">
<title>/home/jonathan/Works/Tools/Triton/src/libtriton/includes/triton/aarch64Specifications.hpp</title>
<polygon fill="white" stroke="transparent" points="-4,4 -4,-213 1056.65,-213 1056.65,4 -4,4"/>
<!-- Node1 -->
<g id="node1" class="node">
<title>Node1</title>
<g id="a_node1"><a xlink:title=" ">
<polygon fill="#bfbfbf" stroke="black" points="373.65,-167.5 373.65,-208.5 593.65,-208.5 593.65,-167.5 373.65,-167.5"/>
<text text-anchor="start" x="381.65" y="-196.5" font-family="Helvetica,sans-Serif" font-size="10.00">/home/jonathan/Works</text>
<text text-anchor="start" x="381.65" y="-185.5" font-family="Helvetica,sans-Serif" font-size="10.00">/Tools/Triton/src/libtriton</text>
<text text-anchor="middle" x="483.65" y="-174.5" font-family="Helvetica,sans-Serif" font-size="10.00">/includes/triton/aarch64Specifications.hpp</text>
</a>
</g>
</g>
<!-- Node2 -->
<g id="node2" class="node">
<title>Node2</title>
<g id="a_node2"><a xlink:href="architecture_8cpp.html" target="_top" xlink:title=" ">
<polygon fill="white" stroke="black" points="321.15,-0.5 321.15,-41.5 454.15,-41.5 454.15,-0.5 321.15,-0.5"/>
<text text-anchor="start" x="329.15" y="-29.5" font-family="Helvetica,sans-Serif" font-size="10.00">/home/jonathan/Works</text>
<text text-anchor="start" x="329.15" y="-18.5" font-family="Helvetica,sans-Serif" font-size="10.00">/Tools/Triton/src/libtriton</text>
<text text-anchor="middle" x="387.65" y="-7.5" font-family="Helvetica,sans-Serif" font-size="10.00">/arch/architecture.cpp</text>
</a>
</g>
</g>
<!-- Node1&#45;&gt;Node2 -->
<g id="edge1" class="edge">
<title>Node1&#45;&gt;Node2</title>
<path fill="none" stroke="midnightblue" d="M363.4,-180.92C231.31,-172.98 34.7,-156.95 11.65,-131 -3.99,-113.39 -3.73,-95.84 11.65,-78 50.81,-32.57 223.89,-23.42 320.99,-21.94"/>
<polygon fill="midnightblue" stroke="midnightblue" points="363.4,-184.42 373.59,-181.52 363.82,-177.44 363.4,-184.42"/>
</g>
<!-- Node3 -->
<g id="node3" class="node">
<title>Node3</title>
<g id="a_node3"><a xlink:href="aarch64Semantics_8cpp.html" target="_top" xlink:title=" ">
<polygon fill="white" stroke="black" points="20.65,-84 20.65,-125 238.65,-125 238.65,-84 20.65,-84"/>
<text text-anchor="start" x="28.65" y="-113" font-family="Helvetica,sans-Serif" font-size="10.00">/home/jonathan/Works</text>
<text text-anchor="start" x="28.65" y="-102" font-family="Helvetica,sans-Serif" font-size="10.00">/Tools/Triton/src/libtriton</text>
<text text-anchor="middle" x="129.65" y="-91" font-family="Helvetica,sans-Serif" font-size="10.00">/arch/arm/aarch64/aarch64Semantics.cpp</text>
</a>
</g>
</g>
<!-- Node1&#45;&gt;Node3 -->
<g id="edge2" class="edge">
<title>Node1&#45;&gt;Node3</title>
<path fill="none" stroke="midnightblue" d="M388.88,-165.18C334.54,-152.67 266.92,-137.1 214.36,-125"/>
<polygon fill="midnightblue" stroke="midnightblue" points="388.33,-168.65 398.86,-167.48 389.9,-161.82 388.33,-168.65"/>
</g>
<!-- Node4 -->
<g id="node4" class="node">
<title>Node4</title>
<g id="a_node4"><a xlink:href="aarch64Specifications_8cpp.html" target="_top" xlink:title=" ">
<polygon fill="white" stroke="black" points="257.15,-84 257.15,-125 492.15,-125 492.15,-84 257.15,-84"/>
<text text-anchor="start" x="265.15" y="-113" font-family="Helvetica,sans-Serif" font-size="10.00">/home/jonathan/Works</text>
<text text-anchor="start" x="265.15" y="-102" font-family="Helvetica,sans-Serif" font-size="10.00">/Tools/Triton/src/libtriton</text>
<text text-anchor="middle" x="374.65" y="-91" font-family="Helvetica,sans-Serif" font-size="10.00">/arch/arm/aarch64/aarch64Specifications.cpp</text>
</a>
</g>
</g>
<!-- Node1&#45;&gt;Node4 -->
<g id="edge3" class="edge">
<title>Node1&#45;&gt;Node4</title>
<path fill="none" stroke="midnightblue" d="M449.17,-161.22C433.56,-149.55 415.41,-135.97 400.92,-125.14"/>
<polygon fill="midnightblue" stroke="midnightblue" points="447.44,-164.29 457.54,-167.48 451.63,-158.69 447.44,-164.29"/>
</g>
<!-- Node5 -->
<g id="node5" class="node">
<title>Node5</title>
<g id="a_node5"><a xlink:href="initConditionsNamespace_8cpp.html" target="_top" xlink:title=" ">
<polygon fill="white" stroke="black" points="510.15,-78.5 510.15,-130.5 675.15,-130.5 675.15,-78.5 510.15,-78.5"/>
<text text-anchor="start" x="518.15" y="-118.5" font-family="Helvetica,sans-Serif" font-size="10.00">/home/jonathan/Works</text>
<text text-anchor="start" x="518.15" y="-107.5" font-family="Helvetica,sans-Serif" font-size="10.00">/Tools/Triton/src/libtriton</text>
<text text-anchor="start" x="518.15" y="-96.5" font-family="Helvetica,sans-Serif" font-size="10.00">/bindings/python/namespaces</text>
<text text-anchor="middle" x="592.65" y="-85.5" font-family="Helvetica,sans-Serif" font-size="10.00">/initConditionsNamespace.cpp</text>
</a>
</g>
</g>
<!-- Node1&#45;&gt;Node5 -->
<g id="edge4" class="edge">
<title>Node1&#45;&gt;Node5</title>
<path fill="none" stroke="midnightblue" d="M518.04,-161.29C531.09,-151.53 545.92,-140.44 558.91,-130.73"/>
<polygon fill="midnightblue" stroke="midnightblue" points="515.67,-158.69 509.76,-167.48 519.86,-164.29 515.67,-158.69"/>
</g>
<!-- Node6 -->
<g id="node6" class="node">
<title>Node6</title>
<g id="a_node6"><a xlink:href="initOpcodesNamespace_8cpp.html" target="_top" xlink:title=" ">
<polygon fill="white" stroke="black" points="693.65,-78.5 693.65,-130.5 855.65,-130.5 855.65,-78.5 693.65,-78.5"/>
<text text-anchor="start" x="701.65" y="-118.5" font-family="Helvetica,sans-Serif" font-size="10.00">/home/jonathan/Works</text>
<text text-anchor="start" x="701.65" y="-107.5" font-family="Helvetica,sans-Serif" font-size="10.00">/Tools/Triton/src/libtriton</text>
<text text-anchor="start" x="701.65" y="-96.5" font-family="Helvetica,sans-Serif" font-size="10.00">/bindings/python/namespaces</text>
<text text-anchor="middle" x="774.65" y="-85.5" font-family="Helvetica,sans-Serif" font-size="10.00">/initOpcodesNamespace.cpp</text>
</a>
</g>
</g>
<!-- Node1&#45;&gt;Node6 -->
<g id="edge5" class="edge">
<title>Node1&#45;&gt;Node6</title>
<path fill="none" stroke="midnightblue" d="M563.18,-164.74C599.86,-154.47 643.97,-142.12 683.65,-131 686.81,-130.11 690.03,-129.21 693.29,-128.3"/>
<polygon fill="midnightblue" stroke="midnightblue" points="562.22,-161.37 553.53,-167.44 564.11,-168.11 562.22,-161.37"/>
</g>
<!-- Node7 -->
<g id="node7" class="node">
<title>Node7</title>
<g id="a_node7"><a xlink:href="aarch64Cpu_8hpp.html" target="_top" xlink:title=" ">
<polygon fill="white" stroke="black" points="874.15,-84 874.15,-125 1045.15,-125 1045.15,-84 874.15,-84"/>
<text text-anchor="start" x="882.15" y="-113" font-family="Helvetica,sans-Serif" font-size="10.00">/home/jonathan/Works</text>
<text text-anchor="start" x="882.15" y="-102" font-family="Helvetica,sans-Serif" font-size="10.00">/Tools/Triton/src/libtriton</text>
<text text-anchor="middle" x="959.65" y="-91" font-family="Helvetica,sans-Serif" font-size="10.00">/includes/triton/aarch64Cpu.hpp</text>
</a>
</g>
</g>
<!-- Node1&#45;&gt;Node7 -->
<g id="edge6" class="edge">
<title>Node1&#45;&gt;Node7</title>
<path fill="none" stroke="midnightblue" d="M603.87,-172.97C679.17,-163.28 778.03,-148.93 864.65,-131 873.1,-129.25 881.91,-127.2 890.61,-125.04"/>
<polygon fill="midnightblue" stroke="midnightblue" points="603.35,-169.51 593.87,-174.25 604.23,-176.45 603.35,-169.51"/>
</g>
<!-- Node7&#45;&gt;Node2 -->
<g id="edge7" class="edge">
<title>Node7&#45;&gt;Node2</title>
<path fill="none" stroke="midnightblue" d="M881.91,-81.65C876.09,-80.32 870.29,-79.08 864.65,-78 719.71,-50.19 547.17,-34.07 454.48,-26.76"/>
<polygon fill="midnightblue" stroke="midnightblue" points="881.15,-85.07 891.69,-83.98 882.77,-78.26 881.15,-85.07"/>
</g>
<!-- Node8 -->
<g id="node8" class="node">
<title>Node8</title>
<g id="a_node8"><a xlink:href="aarch64Cpu_8cpp.html" target="_top" xlink:title=" ">
<polygon fill="white" stroke="black" points="866.65,-0.5 866.65,-41.5 1052.65,-41.5 1052.65,-0.5 866.65,-0.5"/>
<text text-anchor="start" x="874.65" y="-29.5" font-family="Helvetica,sans-Serif" font-size="10.00">/home/jonathan/Works</text>
<text text-anchor="start" x="874.65" y="-18.5" font-family="Helvetica,sans-Serif" font-size="10.00">/Tools/Triton/src/libtriton</text>
<text text-anchor="middle" x="959.65" y="-7.5" font-family="Helvetica,sans-Serif" font-size="10.00">/arch/arm/aarch64/aarch64Cpu.cpp</text>
</a>
</g>
</g>
<!-- Node7&#45;&gt;Node8 -->
<g id="edge8" class="edge">
<title>Node7&#45;&gt;Node8</title>
<path fill="none" stroke="midnightblue" d="M959.65,-73.56C959.65,-62.88 959.65,-51.13 959.65,-41.55"/>
<polygon fill="midnightblue" stroke="midnightblue" points="956.15,-73.77 959.65,-83.77 963.15,-73.77 956.15,-73.77"/>
</g>
</g>
</svg>
