<?xml version="1.0" encoding="UTF-8" standalone="no"?>
<!DOCTYPE svg PUBLIC "-//W3C//DTD SVG 1.1//EN"
 "http://www.w3.org/Graphics/SVG/1.1/DTD/svg11.dtd">
<!-- Generated by graphviz version 2.49.0 (20210828.1703)
 -->
<!-- Title: /home/jonathan/Works/Tools/Triton/src/libtriton/includes/triton/aarch64Specifications.hpp Pages: 1 -->
<svg width="1129pt" height="217pt"
 viewBox="0.00 0.00 1129.00 217.00" xmlns="http://www.w3.org/2000/svg" xmlns:xlink="http://www.w3.org/1999/xlink">
<g id="graph0" class="graph" transform="scale(1 1) rotate(0) translate(4 213)">
<title>/home/jonathan/Works/Tools/Triton/src/libtriton/includes/triton/aarch64Specifications.hpp</title>
<polygon fill="white" stroke="transparent" points="-4,4 -4,-213 1125,-213 1125,4 -4,4"/>
<!-- Node1 -->
<g id="node1" class="node">
<title>Node1</title>
<g id="a_node1"><a xlink:title=" ">
<polygon fill="#bfbfbf" stroke="black" points="462,-167.5 462,-208.5 682,-208.5 682,-167.5 462,-167.5"/>
<text text-anchor="start" x="470" y="-196.5" font-family="Helvetica,sans-Serif" font-size="10.00">/home/jonathan/Works</text>
<text text-anchor="start" x="470" y="-185.5" font-family="Helvetica,sans-Serif" font-size="10.00">/Tools/Triton/src/libtriton</text>
<text text-anchor="middle" x="572" y="-174.5" font-family="Helvetica,sans-Serif" font-size="10.00">/includes/triton/aarch64Specifications.hpp</text>
</a>
</g>
</g>
<!-- Node2 -->
<g id="node2" class="node">
<title>Node2</title>
<g id="a_node2"><a xlink:href="aarch64Semantics_8cpp.html" target="_top" xlink:title=" ">
<polygon fill="white" stroke="black" points="0,-84 0,-125 218,-125 218,-84 0,-84"/>
<text text-anchor="start" x="8" y="-113" font-family="Helvetica,sans-Serif" font-size="10.00">/home/jonathan/Works</text>
<text text-anchor="start" x="8" y="-102" font-family="Helvetica,sans-Serif" font-size="10.00">/Tools/Triton/src/libtriton</text>
<text text-anchor="middle" x="109" y="-91" font-family="Helvetica,sans-Serif" font-size="10.00">/arch/arm/aarch64/aarch64Semantics.cpp</text>
</a>
</g>
</g>
<!-- Node1&#45;&gt;Node2 -->
<g id="edge1" class="edge">
<title>Node1&#45;&gt;Node2</title>
<path fill="none" stroke="midnightblue" d="M451.73,-169.05C385.32,-158.74 301.43,-145.07 227,-131 217.22,-129.15 207,-127.11 196.85,-125.01"/>
<polygon fill="midnightblue" stroke="midnightblue" points="451.4,-172.54 461.82,-170.61 452.47,-165.62 451.4,-172.54"/>
</g>
<!-- Node3 -->
<g id="node3" class="node">
<title>Node3</title>
<g id="a_node3"><a xlink:href="aarch64Specifications_8cpp.html" target="_top" xlink:title=" ">
<polygon fill="white" stroke="black" points="236.5,-84 236.5,-125 471.5,-125 471.5,-84 236.5,-84"/>
<text text-anchor="start" x="244.5" y="-113" font-family="Helvetica,sans-Serif" font-size="10.00">/home/jonathan/Works</text>
<text text-anchor="start" x="244.5" y="-102" font-family="Helvetica,sans-Serif" font-size="10.00">/Tools/Triton/src/libtriton</text>
<text text-anchor="middle" x="354" y="-91" font-family="Helvetica,sans-Serif" font-size="10.00">/arch/arm/aarch64/aarch64Specifications.cpp</text>
</a>
</g>
</g>
<!-- Node1&#45;&gt;Node3 -->
<g id="edge2" class="edge">
<title>Node1&#45;&gt;Node3</title>
<path fill="none" stroke="midnightblue" d="M510.28,-163.92C477.42,-151.64 437.46,-136.7 406.17,-125"/>
<polygon fill="midnightblue" stroke="midnightblue" points="509.19,-167.26 519.78,-167.48 511.64,-160.7 509.19,-167.26"/>
</g>
<!-- Node4 -->
<g id="node4" class="node">
<title>Node4</title>
<g id="a_node4"><a xlink:href="initConditionsNamespace_8cpp.html" target="_top" xlink:title=" ">
<polygon fill="white" stroke="black" points="489.5,-78.5 489.5,-130.5 654.5,-130.5 654.5,-78.5 489.5,-78.5"/>
<text text-anchor="start" x="497.5" y="-118.5" font-family="Helvetica,sans-Serif" font-size="10.00">/home/jonathan/Works</text>
<text text-anchor="start" x="497.5" y="-107.5" font-family="Helvetica,sans-Serif" font-size="10.00">/Tools/Triton/src/libtriton</text>
<text text-anchor="start" x="497.5" y="-96.5" font-family="Helvetica,sans-Serif" font-size="10.00">/bindings/python/namespaces</text>
<text text-anchor="middle" x="572" y="-85.5" font-family="Helvetica,sans-Serif" font-size="10.00">/initConditionsNamespace.cpp</text>
</a>
</g>
</g>
<!-- Node1&#45;&gt;Node4 -->
<g id="edge3" class="edge">
<title>Node1&#45;&gt;Node4</title>
<path fill="none" stroke="midnightblue" d="M572,-157.12C572,-148.41 572,-138.99 572,-130.61"/>
<polygon fill="midnightblue" stroke="midnightblue" points="568.5,-157.27 572,-167.27 575.5,-157.27 568.5,-157.27"/>
</g>
<!-- Node5 -->
<g id="node5" class="node">
<title>Node5</title>
<g id="a_node5"><a xlink:href="initOpcodesNamespace_8cpp.html" target="_top" xlink:title=" ">
<polygon fill="white" stroke="black" points="673,-78.5 673,-130.5 835,-130.5 835,-78.5 673,-78.5"/>
<text text-anchor="start" x="681" y="-118.5" font-family="Helvetica,sans-Serif" font-size="10.00">/home/jonathan/Works</text>
<text text-anchor="start" x="681" y="-107.5" font-family="Helvetica,sans-Serif" font-size="10.00">/Tools/Triton/src/libtriton</text>
<text text-anchor="start" x="681" y="-96.5" font-family="Helvetica,sans-Serif" font-size="10.00">/bindings/python/namespaces</text>
<text text-anchor="middle" x="754" y="-85.5" font-family="Helvetica,sans-Serif" font-size="10.00">/initOpcodesNamespace.cpp</text>
</a>
</g>
</g>
<!-- Node1&#45;&gt;Node5 -->
<g id="edge4" class="edge">
<title>Node1&#45;&gt;Node5</title>
<path fill="none" stroke="midnightblue" d="M624.84,-163.34C647.79,-153.06 674.7,-141.01 698,-130.58"/>
<polygon fill="midnightblue" stroke="midnightblue" points="623.29,-160.2 615.59,-167.48 626.15,-166.59 623.29,-160.2"/>
</g>
<!-- Node6 -->
<g id="node6" class="node">
<title>Node6</title>
<g id="a_node6"><a xlink:href="aarch64Cpu_8hpp.html" target="_top" xlink:title=" ">
<polygon fill="white" stroke="black" points="853.5,-84 853.5,-125 1024.5,-125 1024.5,-84 853.5,-84"/>
<text text-anchor="start" x="861.5" y="-113" font-family="Helvetica,sans-Serif" font-size="10.00">/home/jonathan/Works</text>
<text text-anchor="start" x="861.5" y="-102" font-family="Helvetica,sans-Serif" font-size="10.00">/Tools/Triton/src/libtriton</text>
<text text-anchor="middle" x="939" y="-91" font-family="Helvetica,sans-Serif" font-size="10.00">/includes/triton/aarch64Cpu.hpp</text>
</a>
</g>
</g>
<!-- Node1&#45;&gt;Node6 -->
<g id="edge5" class="edge">
<title>Node1&#45;&gt;Node6</title>
<path fill="none" stroke="midnightblue" d="M684.07,-165.48C733.28,-155.63 791.66,-143.4 844,-131 851.81,-129.15 859.95,-127.12 868.05,-125.04"/>
<polygon fill="midnightblue" stroke="midnightblue" points="683.15,-162.09 674.03,-167.48 684.52,-168.96 683.15,-162.09"/>
</g>
<!-- Node7 -->
<g id="node7" class="node">
<title>Node7</title>
<g id="a_node7"><a xlink:href="architecture_8cpp.html" target="_top" xlink:title=" ">
<polygon fill="white" stroke="black" points="783.5,-0.5 783.5,-41.5 916.5,-41.5 916.5,-0.5 783.5,-0.5"/>
<text text-anchor="start" x="791.5" y="-29.5" font-family="Helvetica,sans-Serif" font-size="10.00">/home/jonathan/Works</text>
<text text-anchor="start" x="791.5" y="-18.5" font-family="Helvetica,sans-Serif" font-size="10.00">/Tools/Triton/src/libtriton</text>
<text text-anchor="middle" x="850" y="-7.5" font-family="Helvetica,sans-Serif" font-size="10.00">/arch/architecture.cpp</text>
</a>
</g>
</g>
<!-- Node6&#45;&gt;Node7 -->
<g id="edge6" class="edge">
<title>Node6&#45;&gt;Node7</title>
<path fill="none" stroke="midnightblue" d="M909.91,-76.86C897.34,-65.35 882.9,-52.13 871.35,-41.55"/>
<polygon fill="midnightblue" stroke="midnightblue" points="907.72,-79.6 917.46,-83.77 912.44,-74.44 907.72,-79.6"/>
</g>
<!-- Node8 -->
<g id="node8" class="node">
<title>Node8</title>
<g id="a_node8"><a xlink:href="aarch64Cpu_8cpp.html" target="_top" xlink:title=" ">
<polygon fill="white" stroke="black" points="935,-0.5 935,-41.5 1121,-41.5 1121,-0.5 935,-0.5"/>
<text text-anchor="start" x="943" y="-29.5" font-family="Helvetica,sans-Serif" font-size="10.00">/home/jonathan/Works</text>
<text text-anchor="start" x="943" y="-18.5" font-family="Helvetica,sans-Serif" font-size="10.00">/Tools/Triton/src/libtriton</text>
<text text-anchor="middle" x="1028" y="-7.5" font-family="Helvetica,sans-Serif" font-size="10.00">/arch/arm/aarch64/aarch64Cpu.cpp</text>
</a>
</g>
</g>
<!-- Node6&#45;&gt;Node8 -->
<g id="edge7" class="edge">
<title>Node6&#45;&gt;Node8</title>
<path fill="none" stroke="midnightblue" d="M968.09,-76.86C980.66,-65.35 995.1,-52.13 1006.65,-41.55"/>
<polygon fill="midnightblue" stroke="midnightblue" points="965.56,-74.44 960.54,-83.77 970.28,-79.6 965.56,-74.44"/>
</g>
</g>
</svg>
