<?xml version="1.0" encoding="UTF-8" standalone="no"?>
<!DOCTYPE svg PUBLIC "-//W3C//DTD SVG 1.1//EN"
 "http://www.w3.org/Graphics/SVG/1.1/DTD/svg11.dtd">
<!-- Generated by graphviz version 12.1.0 (20240811.2233)
 -->
<!-- Title: /Users/jonathan/Works/Tools/Triton/src/libtriton/includes/triton/aarch64Specifications.hpp Pages: 1 -->
<svg width="1030pt" height="217pt"
 viewBox="0.00 0.00 1029.79 216.50" xmlns="http://www.w3.org/2000/svg" xmlns:xlink="http://www.w3.org/1999/xlink">
<g id="graph0" class="graph" transform="scale(1 1) rotate(0) translate(4 212.5)">
<title>/Users/jonathan/Works/Tools/Triton/src/libtriton/includes/triton/aarch64Specifications.hpp</title>
<!-- Node1 -->
<g id="Node000001" class="node">
<title>Node1</title>
<g id="a_Node000001"><a xlink:title=" ">
<polygon fill="#999999" stroke="#666666" points="545.04,-208.5 347.54,-208.5 347.54,-166.75 545.04,-166.75 545.04,-208.5"/>
<text text-anchor="start" x="355.54" y="-195" font-family="Helvetica,sans-Serif" font-size="10.00">/Users/jonathan/Works</text>
<text text-anchor="start" x="355.54" y="-183.75" font-family="Helvetica,sans-Serif" font-size="10.00">/Tools/Triton/src/libtriton</text>
<text text-anchor="middle" x="446.29" y="-172.5" font-family="Helvetica,sans-Serif" font-size="10.00">/includes/triton/aarch64Specifications.hpp</text>
</a>
</g>
</g>
<!-- Node2 -->
<g id="Node000002" class="node">
<title>Node2</title>
<g id="a_Node000002"><a xlink:href="architecture_8cpp.html" target="_top" xlink:title=" ">
<polygon fill="white" stroke="#666666" points="417.79,-41.75 296.79,-41.75 296.79,0 417.79,0 417.79,-41.75"/>
<text text-anchor="start" x="304.79" y="-28.25" font-family="Helvetica,sans-Serif" font-size="10.00">/Users/jonathan/Works</text>
<text text-anchor="start" x="304.79" y="-17" font-family="Helvetica,sans-Serif" font-size="10.00">/Tools/Triton/src/libtriton</text>
<text text-anchor="middle" x="357.29" y="-5.75" font-family="Helvetica,sans-Serif" font-size="10.00">/arch/architecture.cpp</text>
</a>
</g>
</g>
<!-- Node1&#45;&gt;Node2 -->
<g id="edge1_Node000001_Node000002" class="edge">
<title>Node1&#45;&gt;Node2</title>
<g id="a_edge1_Node000001_Node000002"><a xlink:title=" ">
<path fill="none" stroke="#63b8ff" d="M335.84,-179.75C215.48,-171.11 37.14,-154.48 16.29,-130.75 -64.09,-39.24 178.5,-24.03 296.63,-21.93"/>
<polygon fill="#63b8ff" stroke="#63b8ff" points="335.57,-183.24 345.79,-180.46 336.06,-176.26 335.57,-183.24"/>
</a>
</g>
</g>
<!-- Node3 -->
<g id="Node000003" class="node">
<title>Node3</title>
<g id="a_Node000003"><a xlink:href="aarch64Semantics_8cpp.html" target="_top" xlink:title=" ">
<polygon fill="white" stroke="#666666" points="223.04,-125.12 25.54,-125.12 25.54,-83.38 223.04,-83.38 223.04,-125.12"/>
<text text-anchor="start" x="33.54" y="-111.62" font-family="Helvetica,sans-Serif" font-size="10.00">/Users/jonathan/Works</text>
<text text-anchor="start" x="33.54" y="-100.38" font-family="Helvetica,sans-Serif" font-size="10.00">/Tools/Triton/src/libtriton</text>
<text text-anchor="middle" x="124.29" y="-89.12" font-family="Helvetica,sans-Serif" font-size="10.00">/arch/arm/aarch64/aarch64Semantics.cpp</text>
</a>
</g>
</g>
<!-- Node1&#45;&gt;Node3 -->
<g id="edge2_Node000001_Node000003" class="edge">
<title>Node1&#45;&gt;Node3</title>
<g id="a_edge2_Node000001_Node000003"><a xlink:title=" ">
<path fill="none" stroke="#63b8ff" d="M354.71,-163.48C307.46,-151.54 250.35,-137.11 204.81,-125.6"/>
<polygon fill="#63b8ff" stroke="#63b8ff" points="353.85,-166.87 364.4,-165.93 355.57,-160.09 353.85,-166.87"/>
</a>
</g>
</g>
<!-- Node4 -->
<g id="Node000004" class="node">
<title>Node4</title>
<g id="a_Node000004"><a xlink:href="aarch64Specifications_8cpp.html" target="_top" xlink:title=" ">
<polygon fill="white" stroke="#666666" points="453.54,-125.12 241.04,-125.12 241.04,-83.38 453.54,-83.38 453.54,-125.12"/>
<text text-anchor="start" x="249.04" y="-111.62" font-family="Helvetica,sans-Serif" font-size="10.00">/Users/jonathan/Works</text>
<text text-anchor="start" x="249.04" y="-100.38" font-family="Helvetica,sans-Serif" font-size="10.00">/Tools/Triton/src/libtriton</text>
<text text-anchor="middle" x="347.29" y="-89.12" font-family="Helvetica,sans-Serif" font-size="10.00">/arch/arm/aarch64/aarch64Specifications.cpp</text>
</a>
</g>
</g>
<!-- Node1&#45;&gt;Node4 -->
<g id="edge3_Node000001_Node000004" class="edge">
<title>Node1&#45;&gt;Node4</title>
<g id="a_edge3_Node000001_Node000004"><a xlink:title=" ">
<path fill="none" stroke="#63b8ff" d="M412.68,-158.99C399.37,-148.05 384.34,-135.7 372.05,-125.6"/>
<polygon fill="#63b8ff" stroke="#63b8ff" points="410.45,-161.69 420.4,-165.34 414.9,-156.29 410.45,-161.69"/>
</a>
</g>
</g>
<!-- Node5 -->
<g id="Node000005" class="node">
<title>Node5</title>
<g id="a_Node000005"><a xlink:href="initConditionsNamespace_8cpp.html" target="_top" xlink:title=" ">
<polygon fill="white" stroke="#666666" points="621.04,-130.75 471.54,-130.75 471.54,-77.75 621.04,-77.75 621.04,-130.75"/>
<text text-anchor="start" x="479.54" y="-117.25" font-family="Helvetica,sans-Serif" font-size="10.00">/Users/jonathan/Works</text>
<text text-anchor="start" x="479.54" y="-106" font-family="Helvetica,sans-Serif" font-size="10.00">/Tools/Triton/src/libtriton</text>
<text text-anchor="start" x="479.54" y="-94.75" font-family="Helvetica,sans-Serif" font-size="10.00">/bindings/python/namespaces</text>
<text text-anchor="middle" x="546.29" y="-83.5" font-family="Helvetica,sans-Serif" font-size="10.00">/initConditionsNamespace.cpp</text>
</a>
</g>
</g>
<!-- Node1&#45;&gt;Node5 -->
<g id="edge4_Node000001_Node000005" class="edge">
<title>Node1&#45;&gt;Node5</title>
<g id="a_edge4_Node000001_Node000005"><a xlink:title=" ">
<path fill="none" stroke="#63b8ff" d="M479.91,-159.27C491.06,-150.2 503.44,-140.12 514.46,-131.16"/>
<polygon fill="#63b8ff" stroke="#63b8ff" points="477.99,-156.32 472.44,-165.35 482.41,-161.75 477.99,-156.32"/>
</a>
</g>
</g>
<!-- Node6 -->
<g id="Node000006" class="node">
<title>Node6</title>
<g id="a_Node000006"><a xlink:href="initOpcodesNamespace_8cpp.html" target="_top" xlink:title=" ">
<polygon fill="white" stroke="#666666" points="785.17,-130.75 639.42,-130.75 639.42,-77.75 785.17,-77.75 785.17,-130.75"/>
<text text-anchor="start" x="647.42" y="-117.25" font-family="Helvetica,sans-Serif" font-size="10.00">/Users/jonathan/Works</text>
<text text-anchor="start" x="647.42" y="-106" font-family="Helvetica,sans-Serif" font-size="10.00">/Tools/Triton/src/libtriton</text>
<text text-anchor="start" x="647.42" y="-94.75" font-family="Helvetica,sans-Serif" font-size="10.00">/bindings/python/namespaces</text>
<text text-anchor="middle" x="712.29" y="-83.5" font-family="Helvetica,sans-Serif" font-size="10.00">/initOpcodesNamespace.cpp</text>
</a>
</g>
</g>
<!-- Node1&#45;&gt;Node6 -->
<g id="edge5_Node000001_Node000006" class="edge">
<title>Node1&#45;&gt;Node6</title>
<g id="a_edge5_Node000001_Node000006"><a xlink:title=" ">
<path fill="none" stroke="#63b8ff" d="M524.48,-163.01C557.19,-153.09 595.6,-141.41 630.29,-130.75 633.14,-129.87 636.05,-128.98 638.98,-128.07"/>
<polygon fill="#63b8ff" stroke="#63b8ff" points="523.62,-159.61 515.07,-165.86 525.65,-166.31 523.62,-159.61"/>
</a>
</g>
</g>
<!-- Node7 -->
<g id="Node000007" class="node">
<title>Node7</title>
<g id="a_Node000007"><a xlink:href="aarch64Cpu_8hpp.html" target="_top" xlink:title=" ">
<polygon fill="white" stroke="#666666" points="957.29,-125.12 803.29,-125.12 803.29,-83.38 957.29,-83.38 957.29,-125.12"/>
<text text-anchor="start" x="811.29" y="-111.62" font-family="Helvetica,sans-Serif" font-size="10.00">/Users/jonathan/Works</text>
<text text-anchor="start" x="811.29" y="-100.38" font-family="Helvetica,sans-Serif" font-size="10.00">/Tools/Triton/src/libtriton</text>
<text text-anchor="middle" x="880.29" y="-89.12" font-family="Helvetica,sans-Serif" font-size="10.00">/includes/triton/aarch64Cpu.hpp</text>
</a>
</g>
</g>
<!-- Node1&#45;&gt;Node7 -->
<g id="edge6_Node000001_Node000007" class="edge">
<title>Node1&#45;&gt;Node7</title>
<g id="a_edge6_Node000001_Node000007"><a xlink:title=" ">
<path fill="none" stroke="#63b8ff" d="M556.48,-172.64C625.28,-163 715.45,-148.69 794.29,-130.75 800.98,-129.23 807.9,-127.48 814.79,-125.62"/>
<polygon fill="#63b8ff" stroke="#63b8ff" points="556.12,-169.16 546.7,-174 557.08,-176.09 556.12,-169.16"/>
</a>
</g>
</g>
<!-- Node7&#45;&gt;Node2 -->
<g id="edge7_Node000007_Node000002" class="edge">
<title>Node7&#45;&gt;Node2</title>
<g id="a_edge7_Node000007_Node000002"><a xlink:title=" ">
<path fill="none" stroke="#63b8ff" d="M804.63,-80.09C801.15,-79.25 797.69,-78.47 794.29,-77.75 661.64,-49.79 503.18,-33.76 418.25,-26.55"/>
<polygon fill="#63b8ff" stroke="#63b8ff" points="803.76,-83.48 814.31,-82.54 805.47,-76.69 803.76,-83.48"/>
</a>
</g>
</g>
<!-- Node8 -->
<g id="Node000008" class="node">
<title>Node8</title>
<g id="a_Node000008"><a xlink:href="aarch64Cpu_8cpp.html" target="_top" xlink:title=" ">
<polygon fill="white" stroke="#666666" points="882.79,-41.75 713.79,-41.75 713.79,0 882.79,0 882.79,-41.75"/>
<text text-anchor="start" x="721.79" y="-28.25" font-family="Helvetica,sans-Serif" font-size="10.00">/Users/jonathan/Works</text>
<text text-anchor="start" x="721.79" y="-17" font-family="Helvetica,sans-Serif" font-size="10.00">/Tools/Triton/src/libtriton</text>
<text text-anchor="middle" x="798.29" y="-5.75" font-family="Helvetica,sans-Serif" font-size="10.00">/arch/arm/aarch64/aarch64Cpu.cpp</text>
</a>
</g>
</g>
<!-- Node7&#45;&gt;Node8 -->
<g id="edge8_Node000007_Node000008" class="edge">
<title>Node7&#45;&gt;Node8</title>
<g id="a_edge8_Node000007_Node000008"><a xlink:title=" ">
<path fill="none" stroke="#63b8ff" d="M851.96,-75.13C840.99,-64.24 828.68,-52.02 818.62,-42.04"/>
<polygon fill="#63b8ff" stroke="#63b8ff" points="849.39,-77.51 858.95,-82.07 854.32,-72.54 849.39,-77.51"/>
</a>
</g>
</g>
<!-- Node9 -->
<g id="Node000009" class="node">
<title>Node9</title>
<g id="a_Node000009"><a xlink:href="context_8cpp.html" target="_top" xlink:title=" ">
<polygon fill="white" stroke="#666666" points="1021.79,-41.75 900.79,-41.75 900.79,0 1021.79,0 1021.79,-41.75"/>
<text text-anchor="start" x="908.79" y="-28.25" font-family="Helvetica,sans-Serif" font-size="10.00">/Users/jonathan/Works</text>
<text text-anchor="start" x="908.79" y="-17" font-family="Helvetica,sans-Serif" font-size="10.00">/Tools/Triton/src/libtriton</text>
<text text-anchor="middle" x="961.29" y="-5.75" font-family="Helvetica,sans-Serif" font-size="10.00">/context/context.cpp</text>
</a>
</g>
</g>
<!-- Node7&#45;&gt;Node9 -->
<g id="edge9_Node000007_Node000009" class="edge">
<title>Node7&#45;&gt;Node9</title>
<g id="a_edge9_Node000007_Node000009"><a xlink:title=" ">
<path fill="none" stroke="#63b8ff" d="M908.29,-75.13C919.12,-64.24 931.28,-52.02 941.22,-42.04"/>
<polygon fill="#63b8ff" stroke="#63b8ff" points="905.96,-72.51 901.38,-82.06 910.92,-77.44 905.96,-72.51"/>
</a>
</g>
</g>
</g>
</svg>
