<?xml version="1.0" encoding="UTF-8" standalone="no"?>
<!DOCTYPE svg PUBLIC "-//W3C//DTD SVG 1.1//EN"
 "http://www.w3.org/Graphics/SVG/1.1/DTD/svg11.dtd">
<!-- Generated by graphviz version 7.0.0 (20221023.0053)
 -->
<!-- Title: /Users/jonathan/Works/Tools/Triton/src/libtriton/includes/triton/arm32Cpu.hpp Pages: 1 -->
<svg width="785pt" height="137pt"
 viewBox="0.00 0.00 785.00 137.00" xmlns="http://www.w3.org/2000/svg" xmlns:xlink="http://www.w3.org/1999/xlink">
<g id="graph0" class="graph" transform="scale(1 1) rotate(0) translate(4 133)">
<title>/Users/jonathan/Works/Tools/Triton/src/libtriton/includes/triton/arm32Cpu.hpp</title>
<!-- Node1 -->
<g id="node1" class="node">
<title>Node1</title>
<g id="a_node1"><a xlink:title=" ">
<polygon fill="#999999" stroke="#666666" points="478.5,-129 331.5,-129 331.5,-88 478.5,-88 478.5,-129"/>
<text text-anchor="start" x="339.5" y="-117" font-family="Helvetica,sans-Serif" font-size="10.00">/Users/jonathan/Works</text>
<text text-anchor="start" x="339.5" y="-106" font-family="Helvetica,sans-Serif" font-size="10.00">/Tools/Triton/src/libtriton</text>
<text text-anchor="middle" x="405" y="-95" font-family="Helvetica,sans-Serif" font-size="10.00">/includes/triton/arm32Cpu.hpp</text>
</a>
</g>
</g>
<!-- Node2 -->
<g id="node2" class="node">
<title>Node2</title>
<g id="a_node2"><a xlink:href="architecture_8cpp.html" target="_top" xlink:title=" ">
<polygon fill="white" stroke="#666666" points="122,-46.5 0,-46.5 0,-5.5 122,-5.5 122,-46.5"/>
<text text-anchor="start" x="8" y="-34.5" font-family="Helvetica,sans-Serif" font-size="10.00">/Users/jonathan/Works</text>
<text text-anchor="start" x="8" y="-23.5" font-family="Helvetica,sans-Serif" font-size="10.00">/Tools/Triton/src/libtriton</text>
<text text-anchor="middle" x="61" y="-12.5" font-family="Helvetica,sans-Serif" font-size="10.00">/arch/architecture.cpp</text>
</a>
</g>
</g>
<!-- Node1&#45;&gt;Node2 -->
<g id="edge1" class="edge">
<title>Node1&#45;&gt;Node2</title>
<path fill="none" stroke="#63b8ff" d="M320.05,-93.53C265.56,-83.78 193.55,-69.41 131,-52 125.53,-50.48 119.87,-48.74 114.25,-46.91"/>
<polygon fill="#63b8ff" stroke="#63b8ff" points="319.11,-96.92 329.57,-95.22 320.33,-90.03 319.11,-96.92"/>
</g>
<!-- Node3 -->
<g id="node3" class="node">
<title>Node3</title>
<g id="a_node3"><a xlink:href="arm32Cpu_8cpp.html" target="_top" xlink:title=" ">
<polygon fill="white" stroke="#666666" points="295.5,-46.5 140.5,-46.5 140.5,-5.5 295.5,-5.5 295.5,-46.5"/>
<text text-anchor="start" x="148.5" y="-34.5" font-family="Helvetica,sans-Serif" font-size="10.00">/Users/jonathan/Works</text>
<text text-anchor="start" x="148.5" y="-23.5" font-family="Helvetica,sans-Serif" font-size="10.00">/Tools/Triton/src/libtriton</text>
<text text-anchor="middle" x="218" y="-12.5" font-family="Helvetica,sans-Serif" font-size="10.00">/arch/arm/arm32/arm32Cpu.cpp</text>
</a>
</g>
</g>
<!-- Node1&#45;&gt;Node3 -->
<g id="edge2" class="edge">
<title>Node1&#45;&gt;Node3</title>
<path fill="none" stroke="#63b8ff" d="M348.35,-83.11C321.47,-71.54 289.76,-57.89 264.34,-46.95"/>
<polygon fill="#63b8ff" stroke="#63b8ff" points="346.82,-86.26 357.39,-87 349.58,-79.83 346.82,-86.26"/>
</g>
<!-- Node4 -->
<g id="node4" class="node">
<title>Node4</title>
<g id="a_node4"><a xlink:href="arm32Semantics_8cpp.html" target="_top" xlink:title=" ">
<polygon fill="white" stroke="#666666" points="496.5,-46.5 313.5,-46.5 313.5,-5.5 496.5,-5.5 496.5,-46.5"/>
<text text-anchor="start" x="321.5" y="-34.5" font-family="Helvetica,sans-Serif" font-size="10.00">/Users/jonathan/Works</text>
<text text-anchor="start" x="321.5" y="-23.5" font-family="Helvetica,sans-Serif" font-size="10.00">/Tools/Triton/src/libtriton</text>
<text text-anchor="middle" x="405" y="-12.5" font-family="Helvetica,sans-Serif" font-size="10.00">/arch/arm/arm32/arm32Semantics.cpp</text>
</a>
</g>
</g>
<!-- Node1&#45;&gt;Node4 -->
<g id="edge3" class="edge">
<title>Node1&#45;&gt;Node4</title>
<path fill="none" stroke="#63b8ff" d="M405,-76.16C405,-66.33 405,-55.76 405,-46.95"/>
<polygon fill="#63b8ff" stroke="#63b8ff" points="401.5,-76.09 405,-86.09 408.5,-76.09 401.5,-76.09"/>
</g>
<!-- Node5 -->
<g id="node5" class="node">
<title>Node5</title>
<g id="a_node5"><a xlink:href="pyTritonContext_8cpp.html" target="_top" xlink:title=" ">
<polygon fill="white" stroke="#666666" points="637,-52 515,-52 515,0 637,0 637,-52"/>
<text text-anchor="start" x="523" y="-40" font-family="Helvetica,sans-Serif" font-size="10.00">/Users/jonathan/Works</text>
<text text-anchor="start" x="523" y="-29" font-family="Helvetica,sans-Serif" font-size="10.00">/Tools/Triton/src/libtriton</text>
<text text-anchor="start" x="523" y="-18" font-family="Helvetica,sans-Serif" font-size="10.00">/bindings/python/objects</text>
<text text-anchor="middle" x="576" y="-7" font-family="Helvetica,sans-Serif" font-size="10.00">/pyTritonContext.cpp</text>
</a>
</g>
</g>
<!-- Node1&#45;&gt;Node5 -->
<g id="edge4" class="edge">
<title>Node1&#45;&gt;Node5</title>
<path fill="none" stroke="#63b8ff" d="M457.64,-82.72C478.04,-73.11 501.39,-62.12 521.93,-52.45"/>
<polygon fill="#63b8ff" stroke="#63b8ff" points="456.2,-79.53 448.64,-86.96 459.18,-85.86 456.2,-79.53"/>
</g>
<!-- Node6 -->
<g id="node6" class="node">
<title>Node6</title>
<g id="a_node6"><a xlink:href="context_8cpp.html" target="_top" xlink:title=" ">
<polygon fill="white" stroke="#666666" points="777,-46.5 655,-46.5 655,-5.5 777,-5.5 777,-46.5"/>
<text text-anchor="start" x="663" y="-34.5" font-family="Helvetica,sans-Serif" font-size="10.00">/Users/jonathan/Works</text>
<text text-anchor="start" x="663" y="-23.5" font-family="Helvetica,sans-Serif" font-size="10.00">/Tools/Triton/src/libtriton</text>
<text text-anchor="middle" x="716" y="-12.5" font-family="Helvetica,sans-Serif" font-size="10.00">/context/context.cpp</text>
</a>
</g>
</g>
<!-- Node1&#45;&gt;Node6 -->
<g id="edge5" class="edge">
<title>Node1&#45;&gt;Node6</title>
<path fill="none" stroke="#63b8ff" d="M490.11,-90.44C536.52,-80.5 594.8,-66.98 646,-52 651.33,-50.44 656.84,-48.7 662.32,-46.88"/>
<polygon fill="#63b8ff" stroke="#63b8ff" points="489.41,-87.01 480.36,-92.51 490.87,-93.85 489.41,-87.01"/>
</g>
</g>
</svg>
