<?xml version="1.0" encoding="UTF-8" standalone="no"?>
<!DOCTYPE svg PUBLIC "-//W3C//DTD SVG 1.1//EN"
 "http://www.w3.org/Graphics/SVG/1.1/DTD/svg11.dtd">
<!-- Generated by graphviz version 2.50.0 (20211204.2007)
 -->
<!-- Title: /home/jonathan/Works/Tools/Triton/src/libtriton/includes/triton/arm32Specifications.hpp Pages: 1 -->
<svg width="816pt" height="228pt"
 viewBox="0.00 0.00 815.50 228.00" xmlns="http://www.w3.org/2000/svg" xmlns:xlink="http://www.w3.org/1999/xlink">
<g id="graph0" class="graph" transform="scale(1 1) rotate(0) translate(4 224)">
<title>/home/jonathan/Works/Tools/Triton/src/libtriton/includes/triton/arm32Specifications.hpp</title>
<polygon fill="white" stroke="transparent" points="-4,4 -4,-224 811.5,-224 811.5,4 -4,4"/>
<!-- Node1 -->
<g id="node1" class="node">
<title>Node1</title>
<g id="a_node1"><a xlink:title=" ">
<polygon fill="#bfbfbf" stroke="black" points="201.5,-178.5 201.5,-219.5 413.5,-219.5 413.5,-178.5 201.5,-178.5"/>
<text text-anchor="start" x="209.5" y="-207.5" font-family="Helvetica,sans-Serif" font-size="10.00">/home/jonathan/Works</text>
<text text-anchor="start" x="209.5" y="-196.5" font-family="Helvetica,sans-Serif" font-size="10.00">/Tools/Triton/src/libtriton</text>
<text text-anchor="middle" x="307.5" y="-185.5" font-family="Helvetica,sans-Serif" font-size="10.00">/includes/triton/arm32Specifications.hpp</text>
</a>
</g>
</g>
<!-- Node2 -->
<g id="node2" class="node">
<title>Node2</title>
<g id="a_node2"><a xlink:href="architecture_8cpp.html" target="_top" xlink:title=" ">
<polygon fill="white" stroke="black" points="0,-6 0,-47 133,-47 133,-6 0,-6"/>
<text text-anchor="start" x="8" y="-35" font-family="Helvetica,sans-Serif" font-size="10.00">/home/jonathan/Works</text>
<text text-anchor="start" x="8" y="-24" font-family="Helvetica,sans-Serif" font-size="10.00">/Tools/Triton/src/libtriton</text>
<text text-anchor="middle" x="66.5" y="-13" font-family="Helvetica,sans-Serif" font-size="10.00">/arch/architecture.cpp</text>
</a>
</g>
</g>
<!-- Node1&#45;&gt;Node2 -->
<g id="edge1" class="edge">
<title>Node1&#45;&gt;Node2</title>
<path fill="none" stroke="midnightblue" d="M258.96,-173.37C241.97,-164.16 223.02,-153.2 206.5,-142 162.06,-111.86 114.52,-70.9 87.86,-47.02"/>
<polygon fill="midnightblue" stroke="midnightblue" points="257.7,-176.67 268.16,-178.3 261,-170.5 257.7,-176.67"/>
</g>
<!-- Node3 -->
<g id="node3" class="node">
<title>Node3</title>
<g id="a_node3"><a xlink:href="arm32Semantics_8cpp.html" target="_top" xlink:title=" ">
<polygon fill="white" stroke="black" points="151,-6 151,-47 354,-47 354,-6 151,-6"/>
<text text-anchor="start" x="159" y="-35" font-family="Helvetica,sans-Serif" font-size="10.00">/home/jonathan/Works</text>
<text text-anchor="start" x="159" y="-24" font-family="Helvetica,sans-Serif" font-size="10.00">/Tools/Triton/src/libtriton</text>
<text text-anchor="middle" x="252.5" y="-13" font-family="Helvetica,sans-Serif" font-size="10.00">/arch/arm/arm32/arm32Semantics.cpp</text>
</a>
</g>
</g>
<!-- Node1&#45;&gt;Node3 -->
<g id="edge2" class="edge">
<title>Node1&#45;&gt;Node3</title>
<path fill="none" stroke="midnightblue" d="M247.69,-173.24C235.23,-165.18 223.71,-154.89 216.5,-142 199.22,-111.08 220.77,-70.73 237.19,-47.11"/>
<polygon fill="midnightblue" stroke="midnightblue" points="246.05,-176.34 256.43,-178.47 249.65,-170.33 246.05,-176.34"/>
</g>
<!-- Node4 -->
<g id="node4" class="node">
<title>Node4</title>
<g id="a_node4"><a xlink:href="arm32Specifications_8cpp.html" target="_top" xlink:title=" ">
<polygon fill="white" stroke="black" points="407.5,-95 407.5,-136 627.5,-136 627.5,-95 407.5,-95"/>
<text text-anchor="start" x="415.5" y="-124" font-family="Helvetica,sans-Serif" font-size="10.00">/home/jonathan/Works</text>
<text text-anchor="start" x="415.5" y="-113" font-family="Helvetica,sans-Serif" font-size="10.00">/Tools/Triton/src/libtriton</text>
<text text-anchor="middle" x="517.5" y="-102" font-family="Helvetica,sans-Serif" font-size="10.00">/arch/arm/arm32/arm32Specifications.cpp</text>
</a>
</g>
</g>
<!-- Node1&#45;&gt;Node4 -->
<g id="edge3" class="edge">
<title>Node1&#45;&gt;Node4</title>
<path fill="none" stroke="midnightblue" d="M367.37,-174.77C398.94,-162.51 437.23,-147.65 467.25,-136"/>
<polygon fill="midnightblue" stroke="midnightblue" points="365.86,-171.6 357.8,-178.48 368.39,-178.12 365.86,-171.6"/>
</g>
<!-- Node5 -->
<g id="node5" class="node">
<title>Node5</title>
<g id="a_node5"><a xlink:href="initOpcodesNamespace_8cpp.html" target="_top" xlink:title=" ">
<polygon fill="white" stroke="black" points="645.5,-89.5 645.5,-141.5 807.5,-141.5 807.5,-89.5 645.5,-89.5"/>
<text text-anchor="start" x="653.5" y="-129.5" font-family="Helvetica,sans-Serif" font-size="10.00">/home/jonathan/Works</text>
<text text-anchor="start" x="653.5" y="-118.5" font-family="Helvetica,sans-Serif" font-size="10.00">/Tools/Triton/src/libtriton</text>
<text text-anchor="start" x="653.5" y="-107.5" font-family="Helvetica,sans-Serif" font-size="10.00">/bindings/python/namespaces</text>
<text text-anchor="middle" x="726.5" y="-96.5" font-family="Helvetica,sans-Serif" font-size="10.00">/initOpcodesNamespace.cpp</text>
</a>
</g>
</g>
<!-- Node1&#45;&gt;Node5 -->
<g id="edge4" class="edge">
<title>Node1&#45;&gt;Node5</title>
<path fill="none" stroke="midnightblue" d="M423.65,-181.35C486.9,-171.5 566.36,-157.86 636.5,-142 639.35,-141.36 642.25,-140.68 645.17,-139.97"/>
<polygon fill="midnightblue" stroke="midnightblue" points="422.98,-177.91 413.64,-182.9 424.05,-184.83 422.98,-177.91"/>
</g>
<!-- Node6 -->
<g id="node6" class="node">
<title>Node6</title>
<g id="a_node6"><a xlink:href="arm32Cpu_8hpp.html" target="_top" xlink:title=" ">
<polygon fill="white" stroke="black" points="225.5,-95 225.5,-136 389.5,-136 389.5,-95 225.5,-95"/>
<text text-anchor="start" x="233.5" y="-124" font-family="Helvetica,sans-Serif" font-size="10.00">/home/jonathan/Works</text>
<text text-anchor="start" x="233.5" y="-113" font-family="Helvetica,sans-Serif" font-size="10.00">/Tools/Triton/src/libtriton</text>
<text text-anchor="middle" x="307.5" y="-102" font-family="Helvetica,sans-Serif" font-size="10.00">/includes/triton/arm32Cpu.hpp</text>
</a>
</g>
</g>
<!-- Node1&#45;&gt;Node6 -->
<g id="edge5" class="edge">
<title>Node1&#45;&gt;Node6</title>
<path fill="none" stroke="midnightblue" d="M307.5,-168.06C307.5,-157.38 307.5,-145.63 307.5,-136.05"/>
<polygon fill="midnightblue" stroke="midnightblue" points="304,-168.27 307.5,-178.27 311,-168.27 304,-168.27"/>
</g>
<!-- Node6&#45;&gt;Node2 -->
<g id="edge6" class="edge">
<title>Node6&#45;&gt;Node2</title>
<path fill="none" stroke="midnightblue" d="M243.9,-91.54C205.6,-77.71 157.33,-60.29 120.82,-47.11"/>
<polygon fill="midnightblue" stroke="midnightblue" points="242.82,-94.87 253.41,-94.98 245.2,-88.29 242.82,-94.87"/>
</g>
<!-- Node6&#45;&gt;Node3 -->
<g id="edge8" class="edge">
<title>Node6&#45;&gt;Node3</title>
<path fill="none" stroke="midnightblue" d="M289.67,-86.3C281.59,-73.52 272.24,-58.72 264.93,-47.16"/>
<polygon fill="midnightblue" stroke="midnightblue" points="286.72,-88.18 295.02,-94.76 292.63,-84.44 286.72,-88.18"/>
</g>
<!-- Node7 -->
<g id="node7" class="node">
<title>Node7</title>
<g id="a_node7"><a xlink:href="arm32Cpu_8cpp.html" target="_top" xlink:title=" ">
<polygon fill="white" stroke="black" points="372,-6 372,-47 543,-47 543,-6 372,-6"/>
<text text-anchor="start" x="380" y="-35" font-family="Helvetica,sans-Serif" font-size="10.00">/home/jonathan/Works</text>
<text text-anchor="start" x="380" y="-24" font-family="Helvetica,sans-Serif" font-size="10.00">/Tools/Triton/src/libtriton</text>
<text text-anchor="middle" x="457.5" y="-13" font-family="Helvetica,sans-Serif" font-size="10.00">/arch/arm/arm32/arm32Cpu.cpp</text>
</a>
</g>
</g>
<!-- Node6&#45;&gt;Node7 -->
<g id="edge7" class="edge">
<title>Node6&#45;&gt;Node7</title>
<path fill="none" stroke="midnightblue" d="M349.84,-89.94C373.2,-76.39 401.83,-59.79 423.69,-47.11"/>
<polygon fill="midnightblue" stroke="midnightblue" points="348.06,-86.93 341.16,-94.98 351.57,-92.99 348.06,-86.93"/>
</g>
<!-- Node8 -->
<g id="node8" class="node">
<title>Node8</title>
<g id="a_node8"><a xlink:href="pyTritonContext_8cpp.html" target="_top" xlink:title=" ">
<polygon fill="white" stroke="black" points="561.5,-0.5 561.5,-52.5 697.5,-52.5 697.5,-0.5 561.5,-0.5"/>
<text text-anchor="start" x="569.5" y="-40.5" font-family="Helvetica,sans-Serif" font-size="10.00">/home/jonathan/Works</text>
<text text-anchor="start" x="569.5" y="-29.5" font-family="Helvetica,sans-Serif" font-size="10.00">/Tools/Triton/src/libtriton</text>
<text text-anchor="start" x="569.5" y="-18.5" font-family="Helvetica,sans-Serif" font-size="10.00">/bindings/python/objects</text>
<text text-anchor="middle" x="629.5" y="-7.5" font-family="Helvetica,sans-Serif" font-size="10.00">/pyTritonContext.cpp</text>
</a>
</g>
</g>
<!-- Node6&#45;&gt;Node8 -->
<g id="edge9" class="edge">
<title>Node6&#45;&gt;Node8</title>
<path fill="none" stroke="midnightblue" d="M385.93,-92.29C390.18,-91.16 394.39,-90.06 398.5,-89 466.58,-71.51 484.85,-72.07 552.5,-53 555.35,-52.2 558.24,-51.36 561.16,-50.49"/>
<polygon fill="midnightblue" stroke="midnightblue" points="384.73,-88.99 375.98,-94.96 386.55,-95.75 384.73,-88.99"/>
</g>
</g>
</svg>
