<?xml version="1.0" encoding="UTF-8" standalone="no"?>
<!DOCTYPE svg PUBLIC "-//W3C//DTD SVG 1.1//EN"
 "http://www.w3.org/Graphics/SVG/1.1/DTD/svg11.dtd">
<!-- Generated by graphviz version 2.49.0 (20210828.1703)
 -->
<!-- Title: /home/jonathan/Works/Tools/Triton/src/libtriton/includes/triton/arm32Specifications.hpp Pages: 1 -->
<svg width="792pt" height="228pt"
 viewBox="0.00 0.00 791.50 228.00" xmlns="http://www.w3.org/2000/svg" xmlns:xlink="http://www.w3.org/1999/xlink">
<g id="graph0" class="graph" transform="scale(1 1) rotate(0) translate(4 224)">
<title>/home/jonathan/Works/Tools/Triton/src/libtriton/includes/triton/arm32Specifications.hpp</title>
<polygon fill="white" stroke="transparent" points="-4,4 -4,-224 787.5,-224 787.5,4 -4,4"/>
<!-- Node1 -->
<g id="node1" class="node">
<title>Node1</title>
<g id="a_node1"><a xlink:title=" ">
<polygon fill="#bfbfbf" stroke="black" points="151.5,-178.5 151.5,-219.5 363.5,-219.5 363.5,-178.5 151.5,-178.5"/>
<text text-anchor="start" x="159.5" y="-207.5" font-family="Helvetica,sans-Serif" font-size="10.00">/home/jonathan/Works</text>
<text text-anchor="start" x="159.5" y="-196.5" font-family="Helvetica,sans-Serif" font-size="10.00">/Tools/Triton/src/libtriton</text>
<text text-anchor="middle" x="257.5" y="-185.5" font-family="Helvetica,sans-Serif" font-size="10.00">/includes/triton/arm32Specifications.hpp</text>
</a>
</g>
</g>
<!-- Node2 -->
<g id="node2" class="node">
<title>Node2</title>
<g id="a_node2"><a xlink:href="arm32Semantics_8cpp.html" target="_top" xlink:title=" ">
<polygon fill="white" stroke="black" points="0,-6 0,-47 203,-47 203,-6 0,-6"/>
<text text-anchor="start" x="8" y="-35" font-family="Helvetica,sans-Serif" font-size="10.00">/home/jonathan/Works</text>
<text text-anchor="start" x="8" y="-24" font-family="Helvetica,sans-Serif" font-size="10.00">/Tools/Triton/src/libtriton</text>
<text text-anchor="middle" x="101.5" y="-13" font-family="Helvetica,sans-Serif" font-size="10.00">/arch/arm/arm32/arm32Semantics.cpp</text>
</a>
</g>
</g>
<!-- Node1&#45;&gt;Node2 -->
<g id="edge1" class="edge">
<title>Node1&#45;&gt;Node2</title>
<path fill="none" stroke="midnightblue" d="M141.43,-182.13C94.73,-173.15 48.57,-160.04 34.5,-142 20.01,-123.43 25.02,-110.56 34.5,-89 41.93,-72.09 56.57,-57.79 70.27,-47.25"/>
<polygon fill="midnightblue" stroke="midnightblue" points="140.92,-185.59 151.39,-183.98 142.2,-178.71 140.92,-185.59"/>
</g>
<!-- Node3 -->
<g id="node3" class="node">
<title>Node3</title>
<g id="a_node3"><a xlink:href="arm32Specifications_8cpp.html" target="_top" xlink:title=" ">
<polygon fill="white" stroke="black" points="43.5,-95 43.5,-136 263.5,-136 263.5,-95 43.5,-95"/>
<text text-anchor="start" x="51.5" y="-124" font-family="Helvetica,sans-Serif" font-size="10.00">/home/jonathan/Works</text>
<text text-anchor="start" x="51.5" y="-113" font-family="Helvetica,sans-Serif" font-size="10.00">/Tools/Triton/src/libtriton</text>
<text text-anchor="middle" x="153.5" y="-102" font-family="Helvetica,sans-Serif" font-size="10.00">/arch/arm/arm32/arm32Specifications.cpp</text>
</a>
</g>
</g>
<!-- Node1&#45;&gt;Node3 -->
<g id="edge2" class="edge">
<title>Node1&#45;&gt;Node3</title>
<path fill="none" stroke="midnightblue" d="M224.6,-172.22C209.71,-160.55 192.39,-146.97 178.57,-136.14"/>
<polygon fill="midnightblue" stroke="midnightblue" points="222.56,-175.07 232.59,-178.48 226.88,-169.56 222.56,-175.07"/>
</g>
<!-- Node4 -->
<g id="node4" class="node">
<title>Node4</title>
<g id="a_node4"><a xlink:href="initOpcodesNamespace_8cpp.html" target="_top" xlink:title=" ">
<polygon fill="white" stroke="black" points="281.5,-89.5 281.5,-141.5 443.5,-141.5 443.5,-89.5 281.5,-89.5"/>
<text text-anchor="start" x="289.5" y="-129.5" font-family="Helvetica,sans-Serif" font-size="10.00">/home/jonathan/Works</text>
<text text-anchor="start" x="289.5" y="-118.5" font-family="Helvetica,sans-Serif" font-size="10.00">/Tools/Triton/src/libtriton</text>
<text text-anchor="start" x="289.5" y="-107.5" font-family="Helvetica,sans-Serif" font-size="10.00">/bindings/python/namespaces</text>
<text text-anchor="middle" x="362.5" y="-96.5" font-family="Helvetica,sans-Serif" font-size="10.00">/initOpcodesNamespace.cpp</text>
</a>
</g>
</g>
<!-- Node1&#45;&gt;Node4 -->
<g id="edge3" class="edge">
<title>Node1&#45;&gt;Node4</title>
<path fill="none" stroke="midnightblue" d="M290.62,-172.29C303.19,-162.53 317.49,-151.44 330,-141.73"/>
<polygon fill="midnightblue" stroke="midnightblue" points="288.4,-169.58 282.65,-178.48 292.7,-175.11 288.4,-169.58"/>
</g>
<!-- Node5 -->
<g id="node5" class="node">
<title>Node5</title>
<g id="a_node5"><a xlink:href="arm32Cpu_8hpp.html" target="_top" xlink:title=" ">
<polygon fill="white" stroke="black" points="461.5,-95 461.5,-136 625.5,-136 625.5,-95 461.5,-95"/>
<text text-anchor="start" x="469.5" y="-124" font-family="Helvetica,sans-Serif" font-size="10.00">/home/jonathan/Works</text>
<text text-anchor="start" x="469.5" y="-113" font-family="Helvetica,sans-Serif" font-size="10.00">/Tools/Triton/src/libtriton</text>
<text text-anchor="middle" x="543.5" y="-102" font-family="Helvetica,sans-Serif" font-size="10.00">/includes/triton/arm32Cpu.hpp</text>
</a>
</g>
</g>
<!-- Node1&#45;&gt;Node5 -->
<g id="edge4" class="edge">
<title>Node1&#45;&gt;Node5</title>
<path fill="none" stroke="midnightblue" d="M335.71,-175.71C379.33,-163.28 433.13,-147.95 475.06,-136"/>
<polygon fill="midnightblue" stroke="midnightblue" points="334.66,-172.37 326,-178.48 336.58,-179.1 334.66,-172.37"/>
</g>
<!-- Node5&#45;&gt;Node2 -->
<g id="edge7" class="edge">
<title>Node5&#45;&gt;Node2</title>
<path fill="none" stroke="midnightblue" d="M466.73,-92.4C461.93,-91.2 457.15,-90.06 452.5,-89 369.09,-70.06 273.41,-53.64 203.03,-42.54"/>
<polygon fill="midnightblue" stroke="midnightblue" points="466.05,-95.84 476.6,-94.94 467.79,-89.06 466.05,-95.84"/>
</g>
<!-- Node6 -->
<g id="node6" class="node">
<title>Node6</title>
<g id="a_node6"><a xlink:href="architecture_8cpp.html" target="_top" xlink:title=" ">
<polygon fill="white" stroke="black" points="307,-6 307,-47 440,-47 440,-6 307,-6"/>
<text text-anchor="start" x="315" y="-35" font-family="Helvetica,sans-Serif" font-size="10.00">/home/jonathan/Works</text>
<text text-anchor="start" x="315" y="-24" font-family="Helvetica,sans-Serif" font-size="10.00">/Tools/Triton/src/libtriton</text>
<text text-anchor="middle" x="373.5" y="-13" font-family="Helvetica,sans-Serif" font-size="10.00">/arch/architecture.cpp</text>
</a>
</g>
</g>
<!-- Node5&#45;&gt;Node6 -->
<g id="edge5" class="edge">
<title>Node5&#45;&gt;Node6</title>
<path fill="none" stroke="midnightblue" d="M496.22,-90.3C469.61,-76.68 436.81,-59.9 411.82,-47.11"/>
<polygon fill="midnightblue" stroke="midnightblue" points="494.85,-93.54 505.35,-94.98 498.04,-87.3 494.85,-93.54"/>
</g>
<!-- Node7 -->
<g id="node7" class="node">
<title>Node7</title>
<g id="a_node7"><a xlink:href="arm32Cpu_8cpp.html" target="_top" xlink:title=" ">
<polygon fill="white" stroke="black" points="458,-6 458,-47 629,-47 629,-6 458,-6"/>
<text text-anchor="start" x="466" y="-35" font-family="Helvetica,sans-Serif" font-size="10.00">/home/jonathan/Works</text>
<text text-anchor="start" x="466" y="-24" font-family="Helvetica,sans-Serif" font-size="10.00">/Tools/Triton/src/libtriton</text>
<text text-anchor="middle" x="543.5" y="-13" font-family="Helvetica,sans-Serif" font-size="10.00">/arch/arm/arm32/arm32Cpu.cpp</text>
</a>
</g>
</g>
<!-- Node5&#45;&gt;Node7 -->
<g id="edge6" class="edge">
<title>Node5&#45;&gt;Node7</title>
<path fill="none" stroke="midnightblue" d="M543.5,-84.44C543.5,-72.1 543.5,-58.16 543.5,-47.16"/>
<polygon fill="midnightblue" stroke="midnightblue" points="540,-84.76 543.5,-94.76 547,-84.76 540,-84.76"/>
</g>
<!-- Node8 -->
<g id="node8" class="node">
<title>Node8</title>
<g id="a_node8"><a xlink:href="pyTritonContext_8cpp.html" target="_top" xlink:title=" ">
<polygon fill="white" stroke="black" points="647.5,-0.5 647.5,-52.5 783.5,-52.5 783.5,-0.5 647.5,-0.5"/>
<text text-anchor="start" x="655.5" y="-40.5" font-family="Helvetica,sans-Serif" font-size="10.00">/home/jonathan/Works</text>
<text text-anchor="start" x="655.5" y="-29.5" font-family="Helvetica,sans-Serif" font-size="10.00">/Tools/Triton/src/libtriton</text>
<text text-anchor="start" x="655.5" y="-18.5" font-family="Helvetica,sans-Serif" font-size="10.00">/bindings/python/objects</text>
<text text-anchor="middle" x="715.5" y="-7.5" font-family="Helvetica,sans-Serif" font-size="10.00">/pyTritonContext.cpp</text>
</a>
</g>
</g>
<!-- Node5&#45;&gt;Node8 -->
<g id="edge8" class="edge">
<title>Node5&#45;&gt;Node8</title>
<path fill="none" stroke="midnightblue" d="M591.1,-90.42C614.37,-78.65 642.37,-64.49 665.91,-52.58"/>
<polygon fill="midnightblue" stroke="midnightblue" points="589.44,-87.34 582.1,-94.98 592.6,-93.59 589.44,-87.34"/>
</g>
</g>
</svg>
