<?xml version="1.0" encoding="UTF-8" standalone="no"?>
<!DOCTYPE svg PUBLIC "-//W3C//DTD SVG 1.1//EN"
 "http://www.w3.org/Graphics/SVG/1.1/DTD/svg11.dtd">
<!-- Generated by graphviz version 2.50.0 (20211204.2007)
 -->
<!-- Title: /home/jonathan/Works/Tools/Triton/src/libtriton/includes/triton/arm32Specifications.hpp Pages: 1 -->
<svg width="871pt" height="228pt"
 viewBox="0.00 0.00 870.50 228.00" xmlns="http://www.w3.org/2000/svg" xmlns:xlink="http://www.w3.org/1999/xlink">
<g id="graph0" class="graph" transform="scale(1 1) rotate(0) translate(4 224)">
<title>/home/jonathan/Works/Tools/Triton/src/libtriton/includes/triton/arm32Specifications.hpp</title>
<polygon fill="white" stroke="transparent" points="-4,4 -4,-224 866.5,-224 866.5,4 -4,4"/>
<!-- Node1 -->
<g id="node1" class="node">
<title>Node1</title>
<g id="a_node1"><a xlink:title=" ">
<polygon fill="#bfbfbf" stroke="black" points="256.5,-178.5 256.5,-219.5 468.5,-219.5 468.5,-178.5 256.5,-178.5"/>
<text text-anchor="start" x="264.5" y="-207.5" font-family="Helvetica,sans-Serif" font-size="10.00">/home/jonathan/Works</text>
<text text-anchor="start" x="264.5" y="-196.5" font-family="Helvetica,sans-Serif" font-size="10.00">/Tools/Triton/src/libtriton</text>
<text text-anchor="middle" x="362.5" y="-185.5" font-family="Helvetica,sans-Serif" font-size="10.00">/includes/triton/arm32Specifications.hpp</text>
</a>
</g>
</g>
<!-- Node2 -->
<g id="node2" class="node">
<title>Node2</title>
<g id="a_node2"><a xlink:href="architecture_8cpp.html" target="_top" xlink:title=" ">
<polygon fill="white" stroke="black" points="0,-6 0,-47 133,-47 133,-6 0,-6"/>
<text text-anchor="start" x="8" y="-35" font-family="Helvetica,sans-Serif" font-size="10.00">/home/jonathan/Works</text>
<text text-anchor="start" x="8" y="-24" font-family="Helvetica,sans-Serif" font-size="10.00">/Tools/Triton/src/libtriton</text>
<text text-anchor="middle" x="66.5" y="-13" font-family="Helvetica,sans-Serif" font-size="10.00">/arch/architecture.cpp</text>
</a>
</g>
</g>
<!-- Node1&#45;&gt;Node2 -->
<g id="edge1" class="edge">
<title>Node1&#45;&gt;Node2</title>
<path fill="none" stroke="midnightblue" d="M311.58,-174.09C291.95,-164.53 269.46,-153.16 249.5,-142 193.88,-110.92 131.43,-70.63 95.75,-47.06"/>
<polygon fill="midnightblue" stroke="midnightblue" points="310.14,-177.28 320.66,-178.49 313.19,-170.98 310.14,-177.28"/>
</g>
<!-- Node3 -->
<g id="node3" class="node">
<title>Node3</title>
<g id="a_node3"><a xlink:href="arm32Semantics_8cpp.html" target="_top" xlink:title=" ">
<polygon fill="white" stroke="black" points="151,-6 151,-47 354,-47 354,-6 151,-6"/>
<text text-anchor="start" x="159" y="-35" font-family="Helvetica,sans-Serif" font-size="10.00">/home/jonathan/Works</text>
<text text-anchor="start" x="159" y="-24" font-family="Helvetica,sans-Serif" font-size="10.00">/Tools/Triton/src/libtriton</text>
<text text-anchor="middle" x="252.5" y="-13" font-family="Helvetica,sans-Serif" font-size="10.00">/arch/arm/arm32/arm32Semantics.cpp</text>
</a>
</g>
</g>
<!-- Node1&#45;&gt;Node3 -->
<g id="edge2" class="edge">
<title>Node1&#45;&gt;Node3</title>
<path fill="none" stroke="midnightblue" d="M305.32,-173.07C292.39,-164.92 279.99,-154.63 271.5,-142 252.17,-113.24 250.24,-71.44 251.05,-47.1"/>
<polygon fill="midnightblue" stroke="midnightblue" points="303.92,-176.31 314.31,-178.37 307.47,-170.28 303.92,-176.31"/>
</g>
<!-- Node4 -->
<g id="node4" class="node">
<title>Node4</title>
<g id="a_node4"><a xlink:href="arm32Specifications_8cpp.html" target="_top" xlink:title=" ">
<polygon fill="white" stroke="black" points="462.5,-95 462.5,-136 682.5,-136 682.5,-95 462.5,-95"/>
<text text-anchor="start" x="470.5" y="-124" font-family="Helvetica,sans-Serif" font-size="10.00">/home/jonathan/Works</text>
<text text-anchor="start" x="470.5" y="-113" font-family="Helvetica,sans-Serif" font-size="10.00">/Tools/Triton/src/libtriton</text>
<text text-anchor="middle" x="572.5" y="-102" font-family="Helvetica,sans-Serif" font-size="10.00">/arch/arm/arm32/arm32Specifications.cpp</text>
</a>
</g>
</g>
<!-- Node1&#45;&gt;Node4 -->
<g id="edge3" class="edge">
<title>Node1&#45;&gt;Node4</title>
<path fill="none" stroke="midnightblue" d="M422.37,-174.77C453.94,-162.51 492.23,-147.65 522.25,-136"/>
<polygon fill="midnightblue" stroke="midnightblue" points="420.86,-171.6 412.8,-178.48 423.39,-178.12 420.86,-171.6"/>
</g>
<!-- Node5 -->
<g id="node5" class="node">
<title>Node5</title>
<g id="a_node5"><a xlink:href="initOpcodesNamespace_8cpp.html" target="_top" xlink:title=" ">
<polygon fill="white" stroke="black" points="700.5,-89.5 700.5,-141.5 862.5,-141.5 862.5,-89.5 700.5,-89.5"/>
<text text-anchor="start" x="708.5" y="-129.5" font-family="Helvetica,sans-Serif" font-size="10.00">/home/jonathan/Works</text>
<text text-anchor="start" x="708.5" y="-118.5" font-family="Helvetica,sans-Serif" font-size="10.00">/Tools/Triton/src/libtriton</text>
<text text-anchor="start" x="708.5" y="-107.5" font-family="Helvetica,sans-Serif" font-size="10.00">/bindings/python/namespaces</text>
<text text-anchor="middle" x="781.5" y="-96.5" font-family="Helvetica,sans-Serif" font-size="10.00">/initOpcodesNamespace.cpp</text>
</a>
</g>
</g>
<!-- Node1&#45;&gt;Node5 -->
<g id="edge4" class="edge">
<title>Node1&#45;&gt;Node5</title>
<path fill="none" stroke="midnightblue" d="M478.65,-181.35C541.9,-171.5 621.36,-157.86 691.5,-142 694.35,-141.36 697.25,-140.68 700.17,-139.97"/>
<polygon fill="midnightblue" stroke="midnightblue" points="477.98,-177.91 468.64,-182.9 479.05,-184.83 477.98,-177.91"/>
</g>
<!-- Node6 -->
<g id="node6" class="node">
<title>Node6</title>
<g id="a_node6"><a xlink:href="arm32Cpu_8hpp.html" target="_top" xlink:title=" ">
<polygon fill="white" stroke="black" points="280.5,-95 280.5,-136 444.5,-136 444.5,-95 280.5,-95"/>
<text text-anchor="start" x="288.5" y="-124" font-family="Helvetica,sans-Serif" font-size="10.00">/home/jonathan/Works</text>
<text text-anchor="start" x="288.5" y="-113" font-family="Helvetica,sans-Serif" font-size="10.00">/Tools/Triton/src/libtriton</text>
<text text-anchor="middle" x="362.5" y="-102" font-family="Helvetica,sans-Serif" font-size="10.00">/includes/triton/arm32Cpu.hpp</text>
</a>
</g>
</g>
<!-- Node1&#45;&gt;Node6 -->
<g id="edge5" class="edge">
<title>Node1&#45;&gt;Node6</title>
<path fill="none" stroke="midnightblue" d="M362.5,-168.06C362.5,-157.38 362.5,-145.63 362.5,-136.05"/>
<polygon fill="midnightblue" stroke="midnightblue" points="359,-168.27 362.5,-178.27 366,-168.27 359,-168.27"/>
</g>
<!-- Node6&#45;&gt;Node2 -->
<g id="edge6" class="edge">
<title>Node6&#45;&gt;Node2</title>
<path fill="none" stroke="midnightblue" d="M278.5,-92.32C237.09,-81.08 186.5,-66.9 141.5,-53 135.46,-51.13 129.16,-49.11 122.9,-47.06"/>
<polygon fill="midnightblue" stroke="midnightblue" points="277.71,-95.73 288.28,-94.97 279.54,-88.98 277.71,-95.73"/>
</g>
<!-- Node6&#45;&gt;Node3 -->
<g id="edge8" class="edge">
<title>Node6&#45;&gt;Node3</title>
<path fill="none" stroke="midnightblue" d="M329.89,-88.71C313.12,-75.44 293,-59.53 277.48,-47.26"/>
<polygon fill="midnightblue" stroke="midnightblue" points="327.8,-91.52 337.81,-94.98 332.14,-86.03 327.8,-91.52"/>
</g>
<!-- Node7 -->
<g id="node7" class="node">
<title>Node7</title>
<g id="a_node7"><a xlink:href="arm32Cpu_8cpp.html" target="_top" xlink:title=" ">
<polygon fill="white" stroke="black" points="372,-6 372,-47 543,-47 543,-6 372,-6"/>
<text text-anchor="start" x="380" y="-35" font-family="Helvetica,sans-Serif" font-size="10.00">/home/jonathan/Works</text>
<text text-anchor="start" x="380" y="-24" font-family="Helvetica,sans-Serif" font-size="10.00">/Tools/Triton/src/libtriton</text>
<text text-anchor="middle" x="457.5" y="-13" font-family="Helvetica,sans-Serif" font-size="10.00">/arch/arm/arm32/arm32Cpu.cpp</text>
</a>
</g>
</g>
<!-- Node6&#45;&gt;Node7 -->
<g id="edge7" class="edge">
<title>Node6&#45;&gt;Node7</title>
<path fill="none" stroke="midnightblue" d="M391.7,-87.76C406,-74.66 422.93,-59.16 436.03,-47.16"/>
<polygon fill="midnightblue" stroke="midnightblue" points="389.07,-85.42 384.06,-94.76 393.8,-90.59 389.07,-85.42"/>
</g>
<!-- Node8 -->
<g id="node8" class="node">
<title>Node8</title>
<g id="a_node8"><a xlink:href="pyTritonContext_8cpp.html" target="_top" xlink:title=" ">
<polygon fill="white" stroke="black" points="561.5,-0.5 561.5,-52.5 697.5,-52.5 697.5,-0.5 561.5,-0.5"/>
<text text-anchor="start" x="569.5" y="-40.5" font-family="Helvetica,sans-Serif" font-size="10.00">/home/jonathan/Works</text>
<text text-anchor="start" x="569.5" y="-29.5" font-family="Helvetica,sans-Serif" font-size="10.00">/Tools/Triton/src/libtriton</text>
<text text-anchor="start" x="569.5" y="-18.5" font-family="Helvetica,sans-Serif" font-size="10.00">/bindings/python/objects</text>
<text text-anchor="middle" x="629.5" y="-7.5" font-family="Helvetica,sans-Serif" font-size="10.00">/pyTritonContext.cpp</text>
</a>
</g>
</g>
<!-- Node6&#45;&gt;Node8 -->
<g id="edge9" class="edge">
<title>Node6&#45;&gt;Node8</title>
<path fill="none" stroke="midnightblue" d="M433.15,-91.76C468.93,-80.21 513.05,-65.92 552.5,-53 555.44,-52.04 558.45,-51.05 561.49,-50.05"/>
<polygon fill="midnightblue" stroke="midnightblue" points="431.73,-88.54 423.29,-94.94 433.88,-95.2 431.73,-88.54"/>
</g>
<!-- Node9 -->
<g id="node9" class="node">
<title>Node9</title>
<g id="a_node9"><a xlink:href="context_8cpp.html" target="_top" xlink:title=" ">
<polygon fill="white" stroke="black" points="716,-6 716,-47 849,-47 849,-6 716,-6"/>
<text text-anchor="start" x="724" y="-35" font-family="Helvetica,sans-Serif" font-size="10.00">/home/jonathan/Works</text>
<text text-anchor="start" x="724" y="-24" font-family="Helvetica,sans-Serif" font-size="10.00">/Tools/Triton/src/libtriton</text>
<text text-anchor="middle" x="782.5" y="-13" font-family="Helvetica,sans-Serif" font-size="10.00">/context/context.cpp</text>
</a>
</g>
</g>
<!-- Node6&#45;&gt;Node9 -->
<g id="edge10" class="edge">
<title>Node6&#45;&gt;Node9</title>
<path fill="none" stroke="midnightblue" d="M438.25,-92.47C443.39,-91.22 448.51,-90.05 453.5,-89 564.65,-65.63 595.98,-79.17 706.5,-53 713.54,-51.33 720.86,-49.29 728.05,-47.09"/>
<polygon fill="midnightblue" stroke="midnightblue" points="437.2,-89.12 428.35,-94.95 438.9,-95.91 437.2,-89.12"/>
</g>
</g>
</svg>
