<?xml version="1.0" encoding="UTF-8" standalone="no"?>
<!DOCTYPE svg PUBLIC "-//W3C//DTD SVG 1.1//EN"
 "http://www.w3.org/Graphics/SVG/1.1/DTD/svg11.dtd">
<!-- Generated by graphviz version 7.0.0 (20221023.0053)
 -->
<!-- Title: /Users/jonathan/Works/Tools/Triton/src/libtriton/includes/triton/arm32Specifications.hpp Pages: 1 -->
<svg width="796pt" height="225pt"
 viewBox="0.00 0.00 796.00 225.00" xmlns="http://www.w3.org/2000/svg" xmlns:xlink="http://www.w3.org/1999/xlink">
<g id="graph0" class="graph" transform="scale(1 1) rotate(0) translate(4 221)">
<title>/Users/jonathan/Works/Tools/Triton/src/libtriton/includes/triton/arm32Specifications.hpp</title>
<!-- Node1 -->
<g id="node1" class="node">
<title>Node1</title>
<g id="a_node1"><a xlink:title=" ">
<polygon fill="#999999" stroke="#666666" points="429.5,-217 238.5,-217 238.5,-176 429.5,-176 429.5,-217"/>
<text text-anchor="start" x="246.5" y="-205" font-family="Helvetica,sans-Serif" font-size="10.00">/Users/jonathan/Works</text>
<text text-anchor="start" x="246.5" y="-194" font-family="Helvetica,sans-Serif" font-size="10.00">/Tools/Triton/src/libtriton</text>
<text text-anchor="middle" x="334" y="-183" font-family="Helvetica,sans-Serif" font-size="10.00">/includes/triton/arm32Specifications.hpp</text>
</a>
</g>
</g>
<!-- Node2 -->
<g id="node2" class="node">
<title>Node2</title>
<g id="a_node2"><a xlink:href="architecture_8cpp.html" target="_top" xlink:title=" ">
<polygon fill="white" stroke="#666666" points="122,-46.5 0,-46.5 0,-5.5 122,-5.5 122,-46.5"/>
<text text-anchor="start" x="8" y="-34.5" font-family="Helvetica,sans-Serif" font-size="10.00">/Users/jonathan/Works</text>
<text text-anchor="start" x="8" y="-23.5" font-family="Helvetica,sans-Serif" font-size="10.00">/Tools/Triton/src/libtriton</text>
<text text-anchor="middle" x="61" y="-12.5" font-family="Helvetica,sans-Serif" font-size="10.00">/arch/architecture.cpp</text>
</a>
</g>
</g>
<!-- Node1&#45;&gt;Node2 -->
<g id="edge1" class="edge">
<title>Node1&#45;&gt;Node2</title>
<path fill="none" stroke="#63b8ff" d="M284.49,-170.36C267.06,-161.18 247.46,-150.46 230,-140 178.98,-109.43 121.91,-70.15 88.85,-46.87"/>
<polygon fill="#63b8ff" stroke="#63b8ff" points="282.65,-173.35 293.13,-174.88 285.89,-167.15 282.65,-173.35"/>
</g>
<!-- Node3 -->
<g id="node3" class="node">
<title>Node3</title>
<g id="a_node3"><a xlink:href="arm32Semantics_8cpp.html" target="_top" xlink:title=" ">
<polygon fill="white" stroke="#666666" points="323.5,-46.5 140.5,-46.5 140.5,-5.5 323.5,-5.5 323.5,-46.5"/>
<text text-anchor="start" x="148.5" y="-34.5" font-family="Helvetica,sans-Serif" font-size="10.00">/Users/jonathan/Works</text>
<text text-anchor="start" x="148.5" y="-23.5" font-family="Helvetica,sans-Serif" font-size="10.00">/Tools/Triton/src/libtriton</text>
<text text-anchor="middle" x="232" y="-12.5" font-family="Helvetica,sans-Serif" font-size="10.00">/arch/arm/arm32/arm32Semantics.cpp</text>
</a>
</g>
</g>
<!-- Node1&#45;&gt;Node3 -->
<g id="edge2" class="edge">
<title>Node1&#45;&gt;Node3</title>
<path fill="none" stroke="#63b8ff" d="M280.79,-169.29C269.37,-161.36 258.5,-151.6 251,-140 232.53,-111.43 230.26,-70.61 230.78,-46.65"/>
<polygon fill="#63b8ff" stroke="#63b8ff" points="278.88,-172.22 289.18,-174.71 282.68,-166.34 278.88,-172.22"/>
</g>
<!-- Node4 -->
<g id="node4" class="node">
<title>Node4</title>
<g id="a_node4"><a xlink:href="arm32Specifications_8cpp.html" target="_top" xlink:title=" ">
<polygon fill="white" stroke="#666666" points="624,-134.5 426,-134.5 426,-93.5 624,-93.5 624,-134.5"/>
<text text-anchor="start" x="434" y="-122.5" font-family="Helvetica,sans-Serif" font-size="10.00">/Users/jonathan/Works</text>
<text text-anchor="start" x="434" y="-111.5" font-family="Helvetica,sans-Serif" font-size="10.00">/Tools/Triton/src/libtriton</text>
<text text-anchor="middle" x="525" y="-100.5" font-family="Helvetica,sans-Serif" font-size="10.00">/arch/arm/arm32/arm32Specifications.cpp</text>
</a>
</g>
</g>
<!-- Node1&#45;&gt;Node4 -->
<g id="edge3" class="edge">
<title>Node1&#45;&gt;Node4</title>
<path fill="none" stroke="#63b8ff" d="M391.49,-171.27C419.03,-159.66 451.59,-145.94 477.67,-134.95"/>
<polygon fill="#63b8ff" stroke="#63b8ff" points="390.46,-167.9 382.61,-175.01 393.18,-174.35 390.46,-167.9"/>
</g>
<!-- Node5 -->
<g id="node5" class="node">
<title>Node5</title>
<g id="a_node5"><a xlink:href="initOpcodesNamespace_8cpp.html" target="_top" xlink:title=" ">
<polygon fill="white" stroke="#666666" points="788,-140 642,-140 642,-88 788,-88 788,-140"/>
<text text-anchor="start" x="650" y="-128" font-family="Helvetica,sans-Serif" font-size="10.00">/Users/jonathan/Works</text>
<text text-anchor="start" x="650" y="-117" font-family="Helvetica,sans-Serif" font-size="10.00">/Tools/Triton/src/libtriton</text>
<text text-anchor="start" x="650" y="-106" font-family="Helvetica,sans-Serif" font-size="10.00">/bindings/python/namespaces</text>
<text text-anchor="middle" x="715" y="-95" font-family="Helvetica,sans-Serif" font-size="10.00">/initOpcodesNamespace.cpp</text>
</a>
</g>
</g>
<!-- Node1&#45;&gt;Node5 -->
<g id="edge4" class="edge">
<title>Node1&#45;&gt;Node5</title>
<path fill="none" stroke="#63b8ff" d="M441.11,-178.62C498.37,-168.84 569.89,-155.43 633,-140 635.89,-139.29 638.83,-138.54 641.8,-137.76"/>
<polygon fill="#63b8ff" stroke="#63b8ff" points="440.62,-175.15 431.35,-180.28 441.79,-182.06 440.62,-175.15"/>
</g>
<!-- Node6 -->
<g id="node6" class="node">
<title>Node6</title>
<g id="a_node6"><a xlink:href="arm32Cpu_8hpp.html" target="_top" xlink:title=" ">
<polygon fill="white" stroke="#666666" points="407.5,-134.5 260.5,-134.5 260.5,-93.5 407.5,-93.5 407.5,-134.5"/>
<text text-anchor="start" x="268.5" y="-122.5" font-family="Helvetica,sans-Serif" font-size="10.00">/Users/jonathan/Works</text>
<text text-anchor="start" x="268.5" y="-111.5" font-family="Helvetica,sans-Serif" font-size="10.00">/Tools/Triton/src/libtriton</text>
<text text-anchor="middle" x="334" y="-100.5" font-family="Helvetica,sans-Serif" font-size="10.00">/includes/triton/arm32Cpu.hpp</text>
</a>
</g>
</g>
<!-- Node1&#45;&gt;Node6 -->
<g id="edge5" class="edge">
<title>Node1&#45;&gt;Node6</title>
<path fill="none" stroke="#63b8ff" d="M334,-164.16C334,-154.33 334,-143.76 334,-134.95"/>
<polygon fill="#63b8ff" stroke="#63b8ff" points="330.5,-164.09 334,-174.09 337.5,-164.09 330.5,-164.09"/>
</g>
<!-- Node6&#45;&gt;Node2 -->
<g id="edge6" class="edge">
<title>Node6&#45;&gt;Node2</title>
<path fill="none" stroke="#63b8ff" d="M253.81,-89.93C216.36,-78.89 171.25,-65.23 131,-52 126.1,-50.39 121.02,-48.67 115.93,-46.92"/>
<polygon fill="#63b8ff" stroke="#63b8ff" points="252.63,-93.23 263.21,-92.69 254.61,-86.52 252.63,-93.23"/>
</g>
<!-- Node6&#45;&gt;Node3 -->
<g id="edge8" class="edge">
<title>Node6&#45;&gt;Node3</title>
<path fill="none" stroke="#63b8ff" d="M301.84,-85.89C286.83,-73.23 269.28,-58.43 255.53,-46.84"/>
<polygon fill="#63b8ff" stroke="#63b8ff" points="299.28,-88.31 309.19,-92.08 303.8,-82.96 299.28,-88.31"/>
</g>
<!-- Node7 -->
<g id="node7" class="node">
<title>Node7</title>
<g id="a_node7"><a xlink:href="arm32Cpu_8cpp.html" target="_top" xlink:title=" ">
<polygon fill="white" stroke="#666666" points="496.5,-46.5 341.5,-46.5 341.5,-5.5 496.5,-5.5 496.5,-46.5"/>
<text text-anchor="start" x="349.5" y="-34.5" font-family="Helvetica,sans-Serif" font-size="10.00">/Users/jonathan/Works</text>
<text text-anchor="start" x="349.5" y="-23.5" font-family="Helvetica,sans-Serif" font-size="10.00">/Tools/Triton/src/libtriton</text>
<text text-anchor="middle" x="419" y="-12.5" font-family="Helvetica,sans-Serif" font-size="10.00">/arch/arm/arm32/arm32Cpu.cpp</text>
</a>
</g>
</g>
<!-- Node6&#45;&gt;Node7 -->
<g id="edge7" class="edge">
<title>Node6&#45;&gt;Node7</title>
<path fill="none" stroke="#63b8ff" d="M361.5,-85.18C373.85,-72.68 388.15,-58.22 399.39,-46.84"/>
<polygon fill="#63b8ff" stroke="#63b8ff" points="359.32,-82.4 354.78,-91.98 364.3,-87.33 359.32,-82.4"/>
</g>
<!-- Node8 -->
<g id="node8" class="node">
<title>Node8</title>
<g id="a_node8"><a xlink:href="pyTritonContext_8cpp.html" target="_top" xlink:title=" ">
<polygon fill="white" stroke="#666666" points="637,-52 515,-52 515,0 637,0 637,-52"/>
<text text-anchor="start" x="523" y="-40" font-family="Helvetica,sans-Serif" font-size="10.00">/Users/jonathan/Works</text>
<text text-anchor="start" x="523" y="-29" font-family="Helvetica,sans-Serif" font-size="10.00">/Tools/Triton/src/libtriton</text>
<text text-anchor="start" x="523" y="-18" font-family="Helvetica,sans-Serif" font-size="10.00">/bindings/python/objects</text>
<text text-anchor="middle" x="576" y="-7" font-family="Helvetica,sans-Serif" font-size="10.00">/pyTritonContext.cpp</text>
</a>
</g>
</g>
<!-- Node6&#45;&gt;Node8 -->
<g id="edge9" class="edge">
<title>Node6&#45;&gt;Node8</title>
<path fill="none" stroke="#63b8ff" d="M400.71,-89.38C432.58,-78.08 471.27,-64.36 506,-52 508.8,-51 511.66,-49.99 514.54,-48.96"/>
<polygon fill="#63b8ff" stroke="#63b8ff" points="399.86,-85.97 391.6,-92.61 402.19,-92.57 399.86,-85.97"/>
</g>
<!-- Node9 -->
<g id="node9" class="node">
<title>Node9</title>
<g id="a_node9"><a xlink:href="context_8cpp.html" target="_top" xlink:title=" ">
<polygon fill="white" stroke="#666666" points="777,-46.5 655,-46.5 655,-5.5 777,-5.5 777,-46.5"/>
<text text-anchor="start" x="663" y="-34.5" font-family="Helvetica,sans-Serif" font-size="10.00">/Users/jonathan/Works</text>
<text text-anchor="start" x="663" y="-23.5" font-family="Helvetica,sans-Serif" font-size="10.00">/Tools/Triton/src/libtriton</text>
<text text-anchor="middle" x="716" y="-12.5" font-family="Helvetica,sans-Serif" font-size="10.00">/context/context.cpp</text>
</a>
</g>
</g>
<!-- Node6&#45;&gt;Node9 -->
<g id="edge10" class="edge">
<title>Node6&#45;&gt;Node9</title>
<path fill="none" stroke="#63b8ff" d="M407.58,-90.26C410.76,-89.47 413.91,-88.71 417,-88 517.45,-65.09 546.16,-77.44 646,-52 651.75,-50.53 657.7,-48.79 663.58,-46.91"/>
<polygon fill="#63b8ff" stroke="#63b8ff" points="407,-86.8 398.22,-92.73 408.78,-93.57 407,-86.8"/>
</g>
</g>
</svg>
