<?xml version="1.0" encoding="UTF-8" standalone="no"?>
<!DOCTYPE svg PUBLIC "-//W3C//DTD SVG 1.1//EN"
 "http://www.w3.org/Graphics/SVG/1.1/DTD/svg11.dtd">
<!-- Generated by graphviz version 12.1.0 (20240811.2233)
 -->
<!-- Title: /Users/jonathan/Works/Tools/Triton/src/libtriton/includes/triton/arm32Specifications.hpp Pages: 1 -->
<svg width="792pt" height="228pt"
 viewBox="0.00 0.00 792.38 227.75" xmlns="http://www.w3.org/2000/svg" xmlns:xlink="http://www.w3.org/1999/xlink">
<g id="graph0" class="graph" transform="scale(1 1) rotate(0) translate(4 223.75)">
<title>/Users/jonathan/Works/Tools/Triton/src/libtriton/includes/triton/arm32Specifications.hpp</title>
<!-- Node1 -->
<g id="Node000001" class="node">
<title>Node1</title>
<g id="a_Node000001"><a xlink:title=" ">
<polygon fill="#999999" stroke="#666666" points="426.5,-219.75 236.5,-219.75 236.5,-178 426.5,-178 426.5,-219.75"/>
<text text-anchor="start" x="244.5" y="-206.25" font-family="Helvetica,sans-Serif" font-size="10.00">/Users/jonathan/Works</text>
<text text-anchor="start" x="244.5" y="-195" font-family="Helvetica,sans-Serif" font-size="10.00">/Tools/Triton/src/libtriton</text>
<text text-anchor="middle" x="331.5" y="-183.75" font-family="Helvetica,sans-Serif" font-size="10.00">/includes/triton/arm32Specifications.hpp</text>
</a>
</g>
</g>
<!-- Node2 -->
<g id="Node000002" class="node">
<title>Node2</title>
<g id="a_Node000002"><a xlink:href="architecture_8cpp.html" target="_top" xlink:title=" ">
<polygon fill="white" stroke="#666666" points="121,-47.38 0,-47.38 0,-5.62 121,-5.62 121,-47.38"/>
<text text-anchor="start" x="8" y="-33.88" font-family="Helvetica,sans-Serif" font-size="10.00">/Users/jonathan/Works</text>
<text text-anchor="start" x="8" y="-22.62" font-family="Helvetica,sans-Serif" font-size="10.00">/Tools/Triton/src/libtriton</text>
<text text-anchor="middle" x="60.5" y="-11.38" font-family="Helvetica,sans-Serif" font-size="10.00">/arch/architecture.cpp</text>
</a>
</g>
</g>
<!-- Node1&#45;&gt;Node2 -->
<g id="edge1_Node000001_Node000002" class="edge">
<title>Node1&#45;&gt;Node2</title>
<g id="a_edge1_Node000001_Node000002"><a xlink:title=" ">
<path fill="none" stroke="#63b8ff" d="M282.01,-172.34C264.85,-163.14 245.63,-152.45 228.5,-142 177.87,-111.12 121.34,-71.46 88.46,-47.84"/>
<polygon fill="#63b8ff" stroke="#63b8ff" points="280.03,-175.25 290.51,-176.86 283.32,-169.07 280.03,-175.25"/>
</a>
</g>
</g>
<!-- Node3 -->
<g id="Node000003" class="node">
<title>Node3</title>
<g id="a_Node000003"><a xlink:href="arm32Semantics_8cpp.html" target="_top" xlink:title=" ">
<polygon fill="white" stroke="#666666" points="321.75,-47.38 139.25,-47.38 139.25,-5.62 321.75,-5.62 321.75,-47.38"/>
<text text-anchor="start" x="147.25" y="-33.88" font-family="Helvetica,sans-Serif" font-size="10.00">/Users/jonathan/Works</text>
<text text-anchor="start" x="147.25" y="-22.62" font-family="Helvetica,sans-Serif" font-size="10.00">/Tools/Triton/src/libtriton</text>
<text text-anchor="middle" x="230.5" y="-11.38" font-family="Helvetica,sans-Serif" font-size="10.00">/arch/arm/arm32/arm32Semantics.cpp</text>
</a>
</g>
</g>
<!-- Node1&#45;&gt;Node3 -->
<g id="edge2_Node000001_Node000003" class="edge">
<title>Node1&#45;&gt;Node3</title>
<g id="a_edge2_Node000001_Node000003"><a xlink:title=" ">
<path fill="none" stroke="#63b8ff" d="M278.91,-171.33C267.63,-163.35 256.89,-153.57 249.5,-142 231.06,-113.13 228.73,-72.11 229.25,-47.81"/>
<polygon fill="#63b8ff" stroke="#63b8ff" points="276.91,-174.21 287.19,-176.79 280.76,-168.36 276.91,-174.21"/>
</a>
</g>
</g>
<!-- Node4 -->
<g id="Node000004" class="node">
<title>Node4</title>
<g id="a_Node000004"><a xlink:href="arm32Specifications_8cpp.html" target="_top" xlink:title=" ">
<polygon fill="white" stroke="#666666" points="620.25,-136.38 422.75,-136.38 422.75,-94.62 620.25,-94.62 620.25,-136.38"/>
<text text-anchor="start" x="430.75" y="-122.88" font-family="Helvetica,sans-Serif" font-size="10.00">/Users/jonathan/Works</text>
<text text-anchor="start" x="430.75" y="-111.62" font-family="Helvetica,sans-Serif" font-size="10.00">/Tools/Triton/src/libtriton</text>
<text text-anchor="middle" x="521.5" y="-100.38" font-family="Helvetica,sans-Serif" font-size="10.00">/arch/arm/arm32/arm32Specifications.cpp</text>
</a>
</g>
</g>
<!-- Node1&#45;&gt;Node4 -->
<g id="edge3_Node000001_Node000004" class="edge">
<title>Node1&#45;&gt;Node4</title>
<g id="a_edge3_Node000001_Node000004"><a xlink:title=" ">
<path fill="none" stroke="#63b8ff" d="M389.46,-173.05C416.53,-161.46 448.37,-147.82 473.99,-136.85"/>
<polygon fill="#63b8ff" stroke="#63b8ff" points="388.16,-169.8 380.35,-176.95 390.92,-176.23 388.16,-169.8"/>
</a>
</g>
</g>
<!-- Node5 -->
<g id="Node000005" class="node">
<title>Node5</title>
<g id="a_Node000005"><a xlink:href="initOpcodesNamespace_8cpp.html" target="_top" xlink:title=" ">
<polygon fill="white" stroke="#666666" points="784.38,-142 638.62,-142 638.62,-89 784.38,-89 784.38,-142"/>
<text text-anchor="start" x="646.62" y="-128.5" font-family="Helvetica,sans-Serif" font-size="10.00">/Users/jonathan/Works</text>
<text text-anchor="start" x="646.62" y="-117.25" font-family="Helvetica,sans-Serif" font-size="10.00">/Tools/Triton/src/libtriton</text>
<text text-anchor="start" x="646.62" y="-106" font-family="Helvetica,sans-Serif" font-size="10.00">/bindings/python/namespaces</text>
<text text-anchor="middle" x="711.5" y="-94.75" font-family="Helvetica,sans-Serif" font-size="10.00">/initOpcodesNamespace.cpp</text>
</a>
</g>
</g>
<!-- Node1&#45;&gt;Node5 -->
<g id="edge4_Node000001_Node000005" class="edge">
<title>Node1&#45;&gt;Node5</title>
<g id="a_edge4_Node000001_Node000005"><a xlink:title=" ">
<path fill="none" stroke="#63b8ff" d="M437.95,-181C495.09,-171.18 566.52,-157.64 629.5,-142 632.39,-141.28 635.34,-140.52 638.3,-139.73"/>
<polygon fill="#63b8ff" stroke="#63b8ff" points="437.49,-177.53 428.22,-182.67 438.66,-184.43 437.49,-177.53"/>
</a>
</g>
</g>
<!-- Node6 -->
<g id="Node000006" class="node">
<title>Node6</title>
<g id="a_Node000006"><a xlink:href="arm32Cpu_8hpp.html" target="_top" xlink:title=" ">
<polygon fill="white" stroke="#666666" points="404.75,-136.38 258.25,-136.38 258.25,-94.62 404.75,-94.62 404.75,-136.38"/>
<text text-anchor="start" x="266.25" y="-122.88" font-family="Helvetica,sans-Serif" font-size="10.00">/Users/jonathan/Works</text>
<text text-anchor="start" x="266.25" y="-111.62" font-family="Helvetica,sans-Serif" font-size="10.00">/Tools/Triton/src/libtriton</text>
<text text-anchor="middle" x="331.5" y="-100.38" font-family="Helvetica,sans-Serif" font-size="10.00">/includes/triton/arm32Cpu.hpp</text>
</a>
</g>
</g>
<!-- Node1&#45;&gt;Node6 -->
<g id="edge5_Node000001_Node000006" class="edge">
<title>Node1&#45;&gt;Node6</title>
<g id="a_edge5_Node000001_Node000006"><a xlink:title=" ">
<path fill="none" stroke="#63b8ff" d="M331.5,-166.52C331.5,-156.49 331.5,-145.67 331.5,-136.67"/>
<polygon fill="#63b8ff" stroke="#63b8ff" points="328,-166.25 331.5,-176.25 335,-166.25 328,-166.25"/>
</a>
</g>
</g>
<!-- Node6&#45;&gt;Node2 -->
<g id="edge6_Node000006_Node000002" class="edge">
<title>Node6&#45;&gt;Node2</title>
<g id="a_edge6_Node000006_Node000002"><a xlink:title=" ">
<path fill="none" stroke="#63b8ff" d="M251.21,-90.98C214.3,-79.9 170.03,-66.24 130.5,-53 125.59,-51.36 120.51,-49.61 115.43,-47.82"/>
<polygon fill="#63b8ff" stroke="#63b8ff" points="249.88,-94.24 260.46,-93.75 251.88,-87.53 249.88,-94.24"/>
</a>
</g>
</g>
<!-- Node6&#45;&gt;Node3 -->
<g id="edge8_Node000006_Node000003" class="edge">
<title>Node6&#45;&gt;Node3</title>
<g id="a_edge8_Node000006_Node000003"><a xlink:title=" ">
<path fill="none" stroke="#63b8ff" d="M299.72,-87.13C284.97,-74.42 267.73,-59.57 254.15,-47.87"/>
<polygon fill="#63b8ff" stroke="#63b8ff" points="297.07,-89.46 306.93,-93.33 301.64,-84.16 297.07,-89.46"/>
</a>
</g>
</g>
<!-- Node7 -->
<g id="Node000007" class="node">
<title>Node7</title>
<g id="a_Node000007"><a xlink:href="arm32Cpu_8cpp.html" target="_top" xlink:title=" ">
<polygon fill="white" stroke="#666666" points="493.5,-47.38 339.5,-47.38 339.5,-5.62 493.5,-5.62 493.5,-47.38"/>
<text text-anchor="start" x="347.5" y="-33.88" font-family="Helvetica,sans-Serif" font-size="10.00">/Users/jonathan/Works</text>
<text text-anchor="start" x="347.5" y="-22.62" font-family="Helvetica,sans-Serif" font-size="10.00">/Tools/Triton/src/libtriton</text>
<text text-anchor="middle" x="416.5" y="-11.38" font-family="Helvetica,sans-Serif" font-size="10.00">/arch/arm/arm32/arm32Cpu.cpp</text>
</a>
</g>
</g>
<!-- Node6&#45;&gt;Node7 -->
<g id="edge7_Node000006_Node000007" class="edge">
<title>Node6&#45;&gt;Node7</title>
<g id="a_edge7_Node000006_Node000007"><a xlink:title=" ">
<path fill="none" stroke="#63b8ff" d="M358.94,-86.41C371.2,-73.86 385.38,-59.35 396.6,-47.87"/>
<polygon fill="#63b8ff" stroke="#63b8ff" points="356.76,-83.64 352.27,-93.24 361.76,-88.53 356.76,-83.64"/>
</a>
</g>
</g>
<!-- Node8 -->
<g id="Node000008" class="node">
<title>Node8</title>
<g id="a_Node000008"><a xlink:href="pyTritonContext_8cpp.html" target="_top" xlink:title=" ">
<polygon fill="white" stroke="#666666" points="633.38,-53 511.62,-53 511.62,0 633.38,0 633.38,-53"/>
<text text-anchor="start" x="519.62" y="-39.5" font-family="Helvetica,sans-Serif" font-size="10.00">/Users/jonathan/Works</text>
<text text-anchor="start" x="519.62" y="-28.25" font-family="Helvetica,sans-Serif" font-size="10.00">/Tools/Triton/src/libtriton</text>
<text text-anchor="start" x="519.62" y="-17" font-family="Helvetica,sans-Serif" font-size="10.00">/bindings/python/objects</text>
<text text-anchor="middle" x="572.5" y="-5.75" font-family="Helvetica,sans-Serif" font-size="10.00">/pyTritonContext.cpp</text>
</a>
</g>
</g>
<!-- Node6&#45;&gt;Node8 -->
<g id="edge9_Node000006_Node000008" class="edge">
<title>Node6&#45;&gt;Node8</title>
<g id="a_edge9_Node000006_Node000008"><a xlink:title=" ">
<path fill="none" stroke="#63b8ff" d="M398.56,-90.45C430.12,-79.12 468.25,-65.4 502.5,-53 505.42,-51.94 508.41,-50.86 511.42,-49.77"/>
<polygon fill="#63b8ff" stroke="#63b8ff" points="397.79,-87.01 389.56,-93.69 400.15,-93.6 397.79,-87.01"/>
</a>
</g>
</g>
<!-- Node9 -->
<g id="Node000009" class="node">
<title>Node9</title>
<g id="a_Node000009"><a xlink:href="context_8cpp.html" target="_top" xlink:title=" ">
<polygon fill="white" stroke="#666666" points="772,-47.38 651,-47.38 651,-5.62 772,-5.62 772,-47.38"/>
<text text-anchor="start" x="659" y="-33.88" font-family="Helvetica,sans-Serif" font-size="10.00">/Users/jonathan/Works</text>
<text text-anchor="start" x="659" y="-22.62" font-family="Helvetica,sans-Serif" font-size="10.00">/Tools/Triton/src/libtriton</text>
<text text-anchor="middle" x="711.5" y="-11.38" font-family="Helvetica,sans-Serif" font-size="10.00">/context/context.cpp</text>
</a>
</g>
</g>
<!-- Node6&#45;&gt;Node9 -->
<g id="edge10_Node000006_Node000009" class="edge">
<title>Node6&#45;&gt;Node9</title>
<g id="a_edge10_Node000006_Node000009"><a xlink:title=" ">
<path fill="none" stroke="#63b8ff" d="M404.5,-91.21C407.53,-90.43 410.54,-89.69 413.5,-89 513.84,-65.64 542.8,-78.98 642.5,-53 648.18,-51.52 654.05,-49.75 659.86,-47.83"/>
<polygon fill="#63b8ff" stroke="#63b8ff" points="403.68,-87.81 394.93,-93.79 405.5,-94.57 403.68,-87.81"/>
</a>
</g>
</g>
</g>
</svg>
