<?xml version="1.0" encoding="UTF-8" standalone="no"?>
<!DOCTYPE svg PUBLIC "-//W3C//DTD SVG 1.1//EN"
 "http://www.w3.org/Graphics/SVG/1.1/DTD/svg11.dtd">
<!-- Generated by graphviz version 11.0.0 (20240428.1522)
 -->
<!-- Title: /Users/jonathan/Works/Tools/Triton/src/libtriton/includes/triton/arm32Cpu.hpp Pages: 1 -->
<svg width="780pt" height="139pt"
 viewBox="0.00 0.00 780.00 138.75" xmlns="http://www.w3.org/2000/svg" xmlns:xlink="http://www.w3.org/1999/xlink">
<g id="graph0" class="graph" transform="scale(1 1) rotate(0) translate(4 134.75)">
<title>/Users/jonathan/Works/Tools/Triton/src/libtriton/includes/triton/arm32Cpu.hpp</title>
<!-- Node1 -->
<g id="Node000001" class="node">
<title>Node1</title>
<g id="a_Node000001"><a xlink:title=" ">
<polygon fill="#999999" stroke="#666666" points="475.75,-130.75 329.25,-130.75 329.25,-89 475.75,-89 475.75,-130.75"/>
<text text-anchor="start" x="337.25" y="-117.25" font-family="Helvetica,sans-Serif" font-size="10.00">/Users/jonathan/Works</text>
<text text-anchor="start" x="337.25" y="-106" font-family="Helvetica,sans-Serif" font-size="10.00">/Tools/Triton/src/libtriton</text>
<text text-anchor="middle" x="402.5" y="-94.75" font-family="Helvetica,sans-Serif" font-size="10.00">/includes/triton/arm32Cpu.hpp</text>
</a>
</g>
</g>
<!-- Node2 -->
<g id="Node000002" class="node">
<title>Node2</title>
<g id="a_Node000002"><a xlink:href="$architecture_8cpp.html" xlink:title=" ">
<polygon fill="white" stroke="#666666" points="121,-47.38 0,-47.38 0,-5.62 121,-5.62 121,-47.38"/>
<text text-anchor="start" x="8" y="-33.88" font-family="Helvetica,sans-Serif" font-size="10.00">/Users/jonathan/Works</text>
<text text-anchor="start" x="8" y="-22.62" font-family="Helvetica,sans-Serif" font-size="10.00">/Tools/Triton/src/libtriton</text>
<text text-anchor="middle" x="60.5" y="-11.38" font-family="Helvetica,sans-Serif" font-size="10.00">/arch/architecture.cpp</text>
</a>
</g>
</g>
<!-- Node1&#45;&gt;Node2 -->
<g id="edge1_Node000001_Node000002" class="edge">
<title>Node1&#45;&gt;Node2</title>
<g id="a_edge1_Node000001_Node000002"><a xlink:title=" ">
<path fill="none" stroke="#63b8ff" d="M317.52,-94.73C263.49,-84.93 192.32,-70.51 130.5,-53 125.02,-51.45 119.36,-49.68 113.74,-47.81"/>
<polygon fill="#63b8ff" stroke="#63b8ff" points="316.83,-98.16 327.29,-96.49 318.06,-91.27 316.83,-98.16"/>
</a>
</g>
</g>
<!-- Node3 -->
<g id="Node000003" class="node">
<title>Node3</title>
<g id="a_Node000003"><a xlink:href="$arm32Cpu_8cpp.html" xlink:title=" ">
<polygon fill="white" stroke="#666666" points="293.5,-47.38 139.5,-47.38 139.5,-5.62 293.5,-5.62 293.5,-47.38"/>
<text text-anchor="start" x="147.5" y="-33.88" font-family="Helvetica,sans-Serif" font-size="10.00">/Users/jonathan/Works</text>
<text text-anchor="start" x="147.5" y="-22.62" font-family="Helvetica,sans-Serif" font-size="10.00">/Tools/Triton/src/libtriton</text>
<text text-anchor="middle" x="216.5" y="-11.38" font-family="Helvetica,sans-Serif" font-size="10.00">/arch/arm/arm32/arm32Cpu.cpp</text>
</a>
</g>
</g>
<!-- Node1&#45;&gt;Node3 -->
<g id="edge2_Node000001_Node000003" class="edge">
<title>Node1&#45;&gt;Node3</title>
<g id="a_edge2_Node000001_Node000003"><a xlink:title=" ">
<path fill="none" stroke="#63b8ff" d="M345.76,-84.05C319.26,-72.46 288.09,-58.82 263.01,-47.85"/>
<polygon fill="#63b8ff" stroke="#63b8ff" points="344.09,-87.14 354.66,-87.94 346.9,-80.73 344.09,-87.14"/>
</a>
</g>
</g>
<!-- Node4 -->
<g id="Node000004" class="node">
<title>Node4</title>
<g id="a_Node000004"><a xlink:href="$arm32Semantics_8cpp.html" xlink:title=" ">
<polygon fill="white" stroke="#666666" points="493.75,-47.38 311.25,-47.38 311.25,-5.62 493.75,-5.62 493.75,-47.38"/>
<text text-anchor="start" x="319.25" y="-33.88" font-family="Helvetica,sans-Serif" font-size="10.00">/Users/jonathan/Works</text>
<text text-anchor="start" x="319.25" y="-22.62" font-family="Helvetica,sans-Serif" font-size="10.00">/Tools/Triton/src/libtriton</text>
<text text-anchor="middle" x="402.5" y="-11.38" font-family="Helvetica,sans-Serif" font-size="10.00">/arch/arm/arm32/arm32Semantics.cpp</text>
</a>
</g>
</g>
<!-- Node1&#45;&gt;Node4 -->
<g id="edge3_Node000001_Node000004" class="edge">
<title>Node1&#45;&gt;Node4</title>
<g id="a_edge3_Node000001_Node000004"><a xlink:title=" ">
<path fill="none" stroke="#63b8ff" d="M402.5,-77.52C402.5,-67.49 402.5,-56.67 402.5,-47.67"/>
<polygon fill="#63b8ff" stroke="#63b8ff" points="399,-77.25 402.5,-87.25 406,-77.25 399,-77.25"/>
</a>
</g>
</g>
<!-- Node5 -->
<g id="Node000005" class="node">
<title>Node5</title>
<g id="a_Node000005"><a xlink:href="$pyTritonContext_8cpp.html" xlink:title=" ">
<polygon fill="white" stroke="#666666" points="633.38,-53 511.62,-53 511.62,0 633.38,0 633.38,-53"/>
<text text-anchor="start" x="519.62" y="-39.5" font-family="Helvetica,sans-Serif" font-size="10.00">/Users/jonathan/Works</text>
<text text-anchor="start" x="519.62" y="-28.25" font-family="Helvetica,sans-Serif" font-size="10.00">/Tools/Triton/src/libtriton</text>
<text text-anchor="start" x="519.62" y="-17" font-family="Helvetica,sans-Serif" font-size="10.00">/bindings/python/objects</text>
<text text-anchor="middle" x="572.5" y="-5.75" font-family="Helvetica,sans-Serif" font-size="10.00">/pyTritonContext.cpp</text>
</a>
</g>
</g>
<!-- Node1&#45;&gt;Node5 -->
<g id="edge4_Node000001_Node000005" class="edge">
<title>Node1&#45;&gt;Node5</title>
<g id="a_edge4_Node000001_Node000005"><a xlink:title=" ">
<path fill="none" stroke="#63b8ff" d="M455.17,-83.66C475.25,-74.05 498.16,-63.08 518.38,-53.41"/>
<polygon fill="#63b8ff" stroke="#63b8ff" points="453.83,-80.42 446.32,-87.9 456.86,-86.74 453.83,-80.42"/>
</a>
</g>
</g>
<!-- Node6 -->
<g id="Node000006" class="node">
<title>Node6</title>
<g id="a_Node000006"><a xlink:href="$context_8cpp.html" xlink:title=" ">
<polygon fill="white" stroke="#666666" points="772,-47.38 651,-47.38 651,-5.62 772,-5.62 772,-47.38"/>
<text text-anchor="start" x="659" y="-33.88" font-family="Helvetica,sans-Serif" font-size="10.00">/Users/jonathan/Works</text>
<text text-anchor="start" x="659" y="-22.62" font-family="Helvetica,sans-Serif" font-size="10.00">/Tools/Triton/src/libtriton</text>
<text text-anchor="middle" x="711.5" y="-11.38" font-family="Helvetica,sans-Serif" font-size="10.00">/context/context.cpp</text>
</a>
</g>
</g>
<!-- Node1&#45;&gt;Node6 -->
<g id="edge5_Node000001_Node000006" class="edge">
<title>Node1&#45;&gt;Node6</title>
<g id="a_edge5_Node000001_Node000006"><a xlink:title=" ">
<path fill="none" stroke="#63b8ff" d="M487.31,-91.84C533.55,-81.88 591.58,-68.27 642.5,-53 647.76,-51.42 653.2,-49.66 658.61,-47.81"/>
<polygon fill="#63b8ff" stroke="#63b8ff" points="486.65,-88.41 477.6,-93.92 488.11,-95.25 486.65,-88.41"/>
</a>
</g>
</g>
</g>
</svg>
