<?xml version="1.0" encoding="UTF-8" standalone="no"?>
<!DOCTYPE svg PUBLIC "-//W3C//DTD SVG 1.1//EN"
 "http://www.w3.org/Graphics/SVG/1.1/DTD/svg11.dtd">
<!-- Generated by graphviz version 2.49.0 (20210828.1703)
 -->
<!-- Title: /home/jonathan/Works/Tools/Triton/src/libtriton/includes/triton/astContext.hpp Pages: 1 -->
<svg width="3204pt" height="462pt"
 viewBox="0.00 0.00 3203.70 462.00" xmlns="http://www.w3.org/2000/svg" xmlns:xlink="http://www.w3.org/1999/xlink">
<g id="graph0" class="graph" transform="scale(1 1) rotate(0) translate(4 458)">
<title>/home/jonathan/Works/Tools/Triton/src/libtriton/includes/triton/astContext.hpp</title>
<polygon fill="white" stroke="transparent" points="-4,4 -4,-458 3199.7,-458 3199.7,4 -4,4"/>
<!-- Node1 -->
<g id="node1" class="node">
<title>Node1</title>
<g id="a_node1"><a xlink:title=" ">
<polygon fill="#bfbfbf" stroke="black" points="1252.5,-412.5 1252.5,-453.5 1419.5,-453.5 1419.5,-412.5 1252.5,-412.5"/>
<text text-anchor="start" x="1260.5" y="-441.5" font-family="Helvetica,sans-Serif" font-size="10.00">/home/jonathan/Works</text>
<text text-anchor="start" x="1260.5" y="-430.5" font-family="Helvetica,sans-Serif" font-size="10.00">/Tools/Triton/src/libtriton</text>
<text text-anchor="middle" x="1336" y="-419.5" font-family="Helvetica,sans-Serif" font-size="10.00">/includes/triton/astContext.hpp</text>
</a>
</g>
</g>
<!-- Node2 -->
<g id="node2" class="node">
<title>Node2</title>
<g id="a_node2"><a xlink:href="aarch64Semantics_8cpp.html" target="_top" xlink:title=" ">
<polygon fill="white" stroke="black" points="0,-89.5 0,-130.5 218,-130.5 218,-89.5 0,-89.5"/>
<text text-anchor="start" x="8" y="-118.5" font-family="Helvetica,sans-Serif" font-size="10.00">/home/jonathan/Works</text>
<text text-anchor="start" x="8" y="-107.5" font-family="Helvetica,sans-Serif" font-size="10.00">/Tools/Triton/src/libtriton</text>
<text text-anchor="middle" x="109" y="-96.5" font-family="Helvetica,sans-Serif" font-size="10.00">/arch/arm/aarch64/aarch64Semantics.cpp</text>
</a>
</g>
</g>
<!-- Node1&#45;&gt;Node2 -->
<g id="edge1" class="edge">
<title>Node1&#45;&gt;Node2</title>
<path fill="none" stroke="midnightblue" d="M1242.1,-431.36C951.32,-428.92 82.67,-418.12 40,-376 -29.19,-307.7 56.19,-179.42 93.35,-130.57"/>
<polygon fill="midnightblue" stroke="midnightblue" points="1242.17,-434.86 1252.2,-431.44 1242.22,-427.86 1242.17,-434.86"/>
</g>
<!-- Node3 -->
<g id="node3" class="node">
<title>Node3</title>
<g id="a_node3"><a xlink:href="arm32Semantics_8cpp.html" target="_top" xlink:title=" ">
<polygon fill="white" stroke="black" points="662.5,-89.5 662.5,-130.5 865.5,-130.5 865.5,-89.5 662.5,-89.5"/>
<text text-anchor="start" x="670.5" y="-118.5" font-family="Helvetica,sans-Serif" font-size="10.00">/home/jonathan/Works</text>
<text text-anchor="start" x="670.5" y="-107.5" font-family="Helvetica,sans-Serif" font-size="10.00">/Tools/Triton/src/libtriton</text>
<text text-anchor="middle" x="764" y="-96.5" font-family="Helvetica,sans-Serif" font-size="10.00">/arch/arm/arm32/arm32Semantics.cpp</text>
</a>
</g>
</g>
<!-- Node1&#45;&gt;Node3 -->
<g id="edge2" class="edge">
<title>Node1&#45;&gt;Node3</title>
<path fill="none" stroke="midnightblue" d="M1241.78,-430.78C958.18,-426.73 129.17,-411.84 84,-376 37.57,-339.15 21.2,-290.66 59,-245 134.42,-153.89 485.8,-124.22 662.28,-114.97"/>
<polygon fill="midnightblue" stroke="midnightblue" points="1241.99,-434.29 1252.04,-430.93 1242.09,-427.29 1241.99,-434.29"/>
</g>
<!-- Node4 -->
<g id="node4" class="node">
<title>Node4</title>
<g id="a_node4"><a xlink:href="irBuilder_8cpp.html" target="_top" xlink:title=" ">
<polygon fill="white" stroke="black" points="1376.5,-89.5 1376.5,-130.5 1509.5,-130.5 1509.5,-89.5 1376.5,-89.5"/>
<text text-anchor="start" x="1384.5" y="-118.5" font-family="Helvetica,sans-Serif" font-size="10.00">/home/jonathan/Works</text>
<text text-anchor="start" x="1384.5" y="-107.5" font-family="Helvetica,sans-Serif" font-size="10.00">/Tools/Triton/src/libtriton</text>
<text text-anchor="middle" x="1443" y="-96.5" font-family="Helvetica,sans-Serif" font-size="10.00">/arch/irBuilder.cpp</text>
</a>
</g>
</g>
<!-- Node1&#45;&gt;Node4 -->
<g id="edge3" class="edge">
<title>Node1&#45;&gt;Node4</title>
<path fill="none" stroke="midnightblue" d="M1429.71,-429.81C1586.85,-425.17 1889.59,-411.66 1922,-376 1937.84,-358.57 1936.81,-341.32 1922,-323 1873.99,-263.62 1818.78,-327.43 1754,-287 1733.86,-274.43 1742.03,-256.01 1721,-245 1661.34,-213.78 1162.18,-258.01 1116,-209 1103.2,-195.41 1103.97,-181.27 1116,-167 1132.59,-147.32 1285.44,-127.82 1376.18,-117.85"/>
<polygon fill="midnightblue" stroke="midnightblue" points="1429.47,-426.32 1419.57,-430.11 1429.67,-433.32 1429.47,-426.32"/>
</g>
<!-- Node5 -->
<g id="node5" class="node">
<title>Node5</title>
<g id="a_node5"><a xlink:href="x86Semantics_8cpp.html" target="_top" xlink:title=" ">
<polygon fill="white" stroke="black" points="1097,-89.5 1097,-130.5 1251,-130.5 1251,-89.5 1097,-89.5"/>
<text text-anchor="start" x="1105" y="-118.5" font-family="Helvetica,sans-Serif" font-size="10.00">/home/jonathan/Works</text>
<text text-anchor="start" x="1105" y="-107.5" font-family="Helvetica,sans-Serif" font-size="10.00">/Tools/Triton/src/libtriton</text>
<text text-anchor="middle" x="1174" y="-96.5" font-family="Helvetica,sans-Serif" font-size="10.00">/arch/x86/x86Semantics.cpp</text>
</a>
</g>
</g>
<!-- Node1&#45;&gt;Node5 -->
<g id="edge4" class="edge">
<title>Node1&#45;&gt;Node5</title>
<path fill="none" stroke="midnightblue" d="M1242.22,-422.82C1180.72,-414.63 1108.27,-400.12 1089,-376 1065.14,-346.12 1050.81,-261.49 1102,-167 1110.07,-152.1 1123.97,-139.87 1137.42,-130.69"/>
<polygon fill="midnightblue" stroke="midnightblue" points="1242.01,-426.32 1252.37,-424.12 1242.9,-419.38 1242.01,-426.32"/>
</g>
<!-- Node6 -->
<g id="node6" class="node">
<title>Node6</title>
<g id="a_node6"><a xlink:href="ast_8cpp.html" target="_top" xlink:title=" ">
<polygon fill="white" stroke="black" points="297.5,-329 297.5,-370 430.5,-370 430.5,-329 297.5,-329"/>
<text text-anchor="start" x="305.5" y="-358" font-family="Helvetica,sans-Serif" font-size="10.00">/home/jonathan/Works</text>
<text text-anchor="start" x="305.5" y="-347" font-family="Helvetica,sans-Serif" font-size="10.00">/Tools/Triton/src/libtriton</text>
<text text-anchor="middle" x="364" y="-336" font-family="Helvetica,sans-Serif" font-size="10.00">/ast/ast.cpp</text>
</a>
</g>
</g>
<!-- Node1&#45;&gt;Node6 -->
<g id="edge5" class="edge">
<title>Node1&#45;&gt;Node6</title>
<path fill="none" stroke="midnightblue" d="M1242.35,-429.24C1044.87,-422.92 591.48,-405.61 440,-376 432.21,-374.48 424.13,-372.37 416.26,-370.01"/>
<polygon fill="midnightblue" stroke="midnightblue" points="1242.31,-432.74 1252.42,-429.56 1242.53,-425.75 1242.31,-432.74"/>
</g>
<!-- Node7 -->
<g id="node7" class="node">
<title>Node7</title>
<g id="a_node7"><a xlink:href="astContext_8cpp.html" target="_top" xlink:title=" ">
<polygon fill="white" stroke="black" points="448.5,-329 448.5,-370 581.5,-370 581.5,-329 448.5,-329"/>
<text text-anchor="start" x="456.5" y="-358" font-family="Helvetica,sans-Serif" font-size="10.00">/home/jonathan/Works</text>
<text text-anchor="start" x="456.5" y="-347" font-family="Helvetica,sans-Serif" font-size="10.00">/Tools/Triton/src/libtriton</text>
<text text-anchor="middle" x="515" y="-336" font-family="Helvetica,sans-Serif" font-size="10.00">/ast/astContext.cpp</text>
</a>
</g>
</g>
<!-- Node1&#45;&gt;Node7 -->
<g id="edge6" class="edge">
<title>Node1&#45;&gt;Node7</title>
<path fill="none" stroke="midnightblue" d="M1241.97,-432.38C1099.66,-431.28 821.7,-422.61 591,-376 583.36,-374.46 575.43,-372.37 567.69,-370.05"/>
<polygon fill="midnightblue" stroke="midnightblue" points="1242.37,-435.88 1252.4,-432.45 1242.42,-428.88 1242.37,-435.88"/>
</g>
<!-- Node8 -->
<g id="node8" class="node">
<title>Node8</title>
<g id="a_node8"><a xlink:href="z3ToTriton_8cpp.html" target="_top" xlink:title=" ">
<polygon fill="white" stroke="black" points="599.5,-329 599.5,-370 732.5,-370 732.5,-329 599.5,-329"/>
<text text-anchor="start" x="607.5" y="-358" font-family="Helvetica,sans-Serif" font-size="10.00">/home/jonathan/Works</text>
<text text-anchor="start" x="607.5" y="-347" font-family="Helvetica,sans-Serif" font-size="10.00">/Tools/Triton/src/libtriton</text>
<text text-anchor="middle" x="666" y="-336" font-family="Helvetica,sans-Serif" font-size="10.00">/ast/z3/z3ToTriton.cpp</text>
</a>
</g>
</g>
<!-- Node1&#45;&gt;Node8 -->
<g id="edge7" class="edge">
<title>Node1&#45;&gt;Node8</title>
<path fill="none" stroke="midnightblue" d="M1242.38,-429.8C1124.49,-425.52 916.28,-412.94 742,-376 734.51,-374.41 726.73,-372.33 719.13,-370.04"/>
<polygon fill="midnightblue" stroke="midnightblue" points="1242.34,-433.3 1252.45,-430.15 1242.58,-426.3 1242.34,-433.3"/>
</g>
<!-- Node9 -->
<g id="node9" class="node">
<title>Node9</title>
<g id="a_node9"><a xlink:href="pyAstContext_8cpp.html" target="_top" xlink:title=" ">
<polygon fill="white" stroke="black" points="751,-323.5 751,-375.5 887,-375.5 887,-323.5 751,-323.5"/>
<text text-anchor="start" x="759" y="-363.5" font-family="Helvetica,sans-Serif" font-size="10.00">/home/jonathan/Works</text>
<text text-anchor="start" x="759" y="-352.5" font-family="Helvetica,sans-Serif" font-size="10.00">/Tools/Triton/src/libtriton</text>
<text text-anchor="start" x="759" y="-341.5" font-family="Helvetica,sans-Serif" font-size="10.00">/bindings/python/objects</text>
<text text-anchor="middle" x="819" y="-330.5" font-family="Helvetica,sans-Serif" font-size="10.00">/pyAstContext.cpp</text>
</a>
</g>
</g>
<!-- Node1&#45;&gt;Node9 -->
<g id="edge8" class="edge">
<title>Node1&#45;&gt;Node9</title>
<path fill="none" stroke="midnightblue" d="M1242.3,-425.35C1152.59,-417.75 1013.86,-402.75 896,-376 893.12,-375.35 890.19,-374.63 887.24,-373.86"/>
<polygon fill="midnightblue" stroke="midnightblue" points="1242.19,-428.86 1252.45,-426.2 1242.77,-421.88 1242.19,-428.86"/>
</g>
<!-- Node10 -->
<g id="node10" class="node">
<title>Node10</title>
<g id="a_node10"><a xlink:href="pyAstNode_8cpp.html" target="_top" xlink:title=" ">
<polygon fill="white" stroke="black" points="905,-323.5 905,-375.5 1041,-375.5 1041,-323.5 905,-323.5"/>
<text text-anchor="start" x="913" y="-363.5" font-family="Helvetica,sans-Serif" font-size="10.00">/home/jonathan/Works</text>
<text text-anchor="start" x="913" y="-352.5" font-family="Helvetica,sans-Serif" font-size="10.00">/Tools/Triton/src/libtriton</text>
<text text-anchor="start" x="913" y="-341.5" font-family="Helvetica,sans-Serif" font-size="10.00">/bindings/python/objects</text>
<text text-anchor="middle" x="973" y="-330.5" font-family="Helvetica,sans-Serif" font-size="10.00">/pyAstNode.cpp</text>
</a>
</g>
</g>
<!-- Node1&#45;&gt;Node10 -->
<g id="edge9" class="edge">
<title>Node1&#45;&gt;Node10</title>
<path fill="none" stroke="midnightblue" d="M1242.42,-415.89C1187.51,-405.81 1116.95,-391.76 1055,-376 1050.52,-374.86 1045.92,-373.62 1041.3,-372.33"/>
<polygon fill="midnightblue" stroke="midnightblue" points="1242.03,-419.38 1252.49,-417.73 1243.28,-412.49 1242.03,-419.38"/>
</g>
<!-- Node11 -->
<g id="node11" class="node">
<title>Node11</title>
<g id="a_node11"><a xlink:href="liftingToLLVM_8cpp.html" target="_top" xlink:title=" ">
<polygon fill="white" stroke="black" points="68,-245.5 68,-286.5 244,-286.5 244,-245.5 68,-245.5"/>
<text text-anchor="start" x="76" y="-274.5" font-family="Helvetica,sans-Serif" font-size="10.00">/home/jonathan/Works</text>
<text text-anchor="start" x="76" y="-263.5" font-family="Helvetica,sans-Serif" font-size="10.00">/Tools/Triton/src/libtriton</text>
<text text-anchor="middle" x="156" y="-252.5" font-family="Helvetica,sans-Serif" font-size="10.00">/engines/lifters/liftingToLLVM.cpp</text>
</a>
</g>
</g>
<!-- Node1&#45;&gt;Node11 -->
<g id="edge10" class="edge">
<title>Node1&#45;&gt;Node11</title>
<path fill="none" stroke="midnightblue" d="M1242.29,-431.26C960.29,-428.58 136.43,-417.25 97,-376 80.72,-358.97 87.7,-344.64 97,-323 103.19,-308.6 115.1,-296.16 126.61,-286.68"/>
<polygon fill="midnightblue" stroke="midnightblue" points="1242.46,-434.76 1252.5,-431.36 1242.53,-427.76 1242.46,-434.76"/>
</g>
<!-- Node12 -->
<g id="node12" class="node">
<title>Node12</title>
<g id="a_node12"><a xlink:href="bitwuzlaSolver_8cpp.html" target="_top" xlink:title=" ">
<polygon fill="white" stroke="black" points="1097.5,-323.5 1097.5,-375.5 1232.5,-375.5 1232.5,-323.5 1097.5,-323.5"/>
<text text-anchor="start" x="1105.5" y="-363.5" font-family="Helvetica,sans-Serif" font-size="10.00">/home/jonathan/Works</text>
<text text-anchor="start" x="1105.5" y="-352.5" font-family="Helvetica,sans-Serif" font-size="10.00">/Tools/Triton/src/libtriton</text>
<text text-anchor="start" x="1105.5" y="-341.5" font-family="Helvetica,sans-Serif" font-size="10.00">/engines/solver/bitwuzla</text>
<text text-anchor="middle" x="1165" y="-330.5" font-family="Helvetica,sans-Serif" font-size="10.00">/bitwuzlaSolver.cpp</text>
</a>
</g>
</g>
<!-- Node1&#45;&gt;Node12 -->
<g id="edge11" class="edge">
<title>Node1&#45;&gt;Node12</title>
<path fill="none" stroke="midnightblue" d="M1285.78,-408.07C1264.34,-397.85 1239.31,-385.92 1217.61,-375.58"/>
<polygon fill="midnightblue" stroke="midnightblue" points="1284.51,-411.34 1295.04,-412.48 1287.52,-405.02 1284.51,-411.34"/>
</g>
<!-- Node13 -->
<g id="node13" class="node">
<title>Node13</title>
<g id="a_node13"><a xlink:href="z3Solver_8cpp.html" target="_top" xlink:title=" ">
<polygon fill="white" stroke="black" points="1251,-329 1251,-370 1421,-370 1421,-329 1251,-329"/>
<text text-anchor="start" x="1259" y="-358" font-family="Helvetica,sans-Serif" font-size="10.00">/home/jonathan/Works</text>
<text text-anchor="start" x="1259" y="-347" font-family="Helvetica,sans-Serif" font-size="10.00">/Tools/Triton/src/libtriton</text>
<text text-anchor="middle" x="1336" y="-336" font-family="Helvetica,sans-Serif" font-size="10.00">/engines/solver/z3/z3Solver.cpp</text>
</a>
</g>
</g>
<!-- Node1&#45;&gt;Node13 -->
<g id="edge12" class="edge">
<title>Node1&#45;&gt;Node13</title>
<path fill="none" stroke="midnightblue" d="M1336,-402.06C1336,-391.38 1336,-379.63 1336,-370.05"/>
<polygon fill="midnightblue" stroke="midnightblue" points="1332.5,-402.27 1336,-412.27 1339.5,-402.27 1332.5,-402.27"/>
</g>
<!-- Node14 -->
<g id="node14" class="node">
<title>Node14</title>
<g id="a_node14"><a xlink:href="pathManager_8cpp.html" target="_top" xlink:title=" ">
<polygon fill="white" stroke="black" points="1439,-329 1439,-370 1631,-370 1631,-329 1439,-329"/>
<text text-anchor="start" x="1447" y="-358" font-family="Helvetica,sans-Serif" font-size="10.00">/home/jonathan/Works</text>
<text text-anchor="start" x="1447" y="-347" font-family="Helvetica,sans-Serif" font-size="10.00">/Tools/Triton/src/libtriton</text>
<text text-anchor="middle" x="1535" y="-336" font-family="Helvetica,sans-Serif" font-size="10.00">/engines/symbolic/pathManager.cpp</text>
</a>
</g>
</g>
<!-- Node1&#45;&gt;Node14 -->
<g id="edge13" class="edge">
<title>Node1&#45;&gt;Node14</title>
<path fill="none" stroke="midnightblue" d="M1393.12,-408.61C1422.96,-396.39 1459.06,-381.6 1487.38,-370"/>
<polygon fill="midnightblue" stroke="midnightblue" points="1391.59,-405.45 1383.67,-412.48 1394.25,-411.93 1391.59,-405.45"/>
</g>
<!-- Node15 -->
<g id="node15" class="node">
<title>Node15</title>
<g id="a_node15"><a xlink:href="symbolicEngine_8cpp.html" target="_top" xlink:title=" ">
<polygon fill="white" stroke="black" points="1506,-245.5 1506,-286.5 1712,-286.5 1712,-245.5 1506,-245.5"/>
<text text-anchor="start" x="1514" y="-274.5" font-family="Helvetica,sans-Serif" font-size="10.00">/home/jonathan/Works</text>
<text text-anchor="start" x="1514" y="-263.5" font-family="Helvetica,sans-Serif" font-size="10.00">/Tools/Triton/src/libtriton</text>
<text text-anchor="middle" x="1609" y="-252.5" font-family="Helvetica,sans-Serif" font-size="10.00">/engines/symbolic/symbolicEngine.cpp</text>
</a>
</g>
</g>
<!-- Node1&#45;&gt;Node15 -->
<g id="edge14" class="edge">
<title>Node1&#45;&gt;Node15</title>
<path fill="none" stroke="midnightblue" d="M1429.86,-427.53C1509.03,-421.56 1613.57,-407.74 1640,-376 1661.53,-350.15 1640.46,-310.2 1624.1,-286.52"/>
<polygon fill="midnightblue" stroke="midnightblue" points="1429.57,-424.04 1419.85,-428.25 1430.08,-431.02 1429.57,-424.04"/>
</g>
<!-- Node16 -->
<g id="node16" class="node">
<title>Node16</title>
<g id="a_node16"><a xlink:href="symbolicExpression_8cpp.html" target="_top" xlink:title=" ">
<polygon fill="white" stroke="black" points="1687,-329 1687,-370 1913,-370 1913,-329 1687,-329"/>
<text text-anchor="start" x="1695" y="-358" font-family="Helvetica,sans-Serif" font-size="10.00">/home/jonathan/Works</text>
<text text-anchor="start" x="1695" y="-347" font-family="Helvetica,sans-Serif" font-size="10.00">/Tools/Triton/src/libtriton</text>
<text text-anchor="middle" x="1800" y="-336" font-family="Helvetica,sans-Serif" font-size="10.00">/engines/symbolic/symbolicExpression.cpp</text>
</a>
</g>
</g>
<!-- Node1&#45;&gt;Node16 -->
<g id="edge15" class="edge">
<title>Node1&#45;&gt;Node16</title>
<path fill="none" stroke="midnightblue" d="M1429.79,-417.28C1497.49,-406.44 1591.02,-391.04 1673,-376 1683.18,-374.13 1693.79,-372.11 1704.37,-370.06"/>
<polygon fill="midnightblue" stroke="midnightblue" points="1428.9,-413.88 1419.58,-418.91 1430,-420.79 1428.9,-413.88"/>
</g>
<!-- Node17 -->
<g id="node17" class="node">
<title>Node17</title>
<g id="a_node17"><a xlink:href="api_8hpp.html" target="_top" xlink:title=" ">
<polygon fill="white" stroke="black" points="2343.5,-89.5 2343.5,-130.5 2476.5,-130.5 2476.5,-89.5 2343.5,-89.5"/>
<text text-anchor="start" x="2351.5" y="-118.5" font-family="Helvetica,sans-Serif" font-size="10.00">/home/jonathan/Works</text>
<text text-anchor="start" x="2351.5" y="-107.5" font-family="Helvetica,sans-Serif" font-size="10.00">/Tools/Triton/src/libtriton</text>
<text text-anchor="middle" x="2410" y="-96.5" font-family="Helvetica,sans-Serif" font-size="10.00">/includes/triton/api.hpp</text>
</a>
</g>
</g>
<!-- Node1&#45;&gt;Node17 -->
<g id="edge16" class="edge">
<title>Node1&#45;&gt;Node17</title>
<path fill="none" stroke="midnightblue" d="M1429.7,-431.44C1700.75,-429.3 2482.31,-419.43 2734,-376 2945.45,-339.51 3071.76,-390.01 3187,-209 3197.02,-193.25 3199.72,-180.67 3187,-167 3139.09,-115.51 2656.09,-110.72 2476.65,-110.74"/>
<polygon fill="midnightblue" stroke="midnightblue" points="1429.47,-427.94 1419.5,-431.51 1429.53,-434.94 1429.47,-427.94"/>
</g>
<!-- Node21 -->
<g id="node21" class="node">
<title>Node21</title>
<g id="a_node21"><a xlink:href="liftingEngine_8hpp.html" target="_top" xlink:title=" ">
<polygon fill="white" stroke="black" points="2574,-167.5 2574,-208.5 2748,-208.5 2748,-167.5 2574,-167.5"/>
<text text-anchor="start" x="2582" y="-196.5" font-family="Helvetica,sans-Serif" font-size="10.00">/home/jonathan/Works</text>
<text text-anchor="start" x="2582" y="-185.5" font-family="Helvetica,sans-Serif" font-size="10.00">/Tools/Triton/src/libtriton</text>
<text text-anchor="middle" x="2661" y="-174.5" font-family="Helvetica,sans-Serif" font-size="10.00">/includes/triton/liftingEngine.hpp</text>
</a>
</g>
</g>
<!-- Node1&#45;&gt;Node21 -->
<g id="edge20" class="edge">
<title>Node1&#45;&gt;Node21</title>
<path fill="none" stroke="midnightblue" d="M1429.9,-429.79C1639.18,-424.33 2138.49,-408.28 2304,-376 2424.7,-352.46 2463.68,-355.22 2566,-287 2586.7,-273.2 2585.82,-262.99 2603,-245 2614.89,-232.55 2628.75,-219.14 2639.93,-208.56"/>
<polygon fill="midnightblue" stroke="midnightblue" points="1429.76,-426.29 1419.85,-430.05 1429.94,-433.29 1429.76,-426.29"/>
</g>
<!-- Node22 -->
<g id="node22" class="node">
<title>Node22</title>
<g id="a_node22"><a xlink:href="liftingToDot_8hpp.html" target="_top" xlink:title=" ">
<polygon fill="white" stroke="black" points="2184.5,-245.5 2184.5,-286.5 2353.5,-286.5 2353.5,-245.5 2184.5,-245.5"/>
<text text-anchor="start" x="2192.5" y="-274.5" font-family="Helvetica,sans-Serif" font-size="10.00">/home/jonathan/Works</text>
<text text-anchor="start" x="2192.5" y="-263.5" font-family="Helvetica,sans-Serif" font-size="10.00">/Tools/Triton/src/libtriton</text>
<text text-anchor="middle" x="2269" y="-252.5" font-family="Helvetica,sans-Serif" font-size="10.00">/includes/triton/liftingToDot.hpp</text>
</a>
</g>
</g>
<!-- Node1&#45;&gt;Node22 -->
<g id="edge22" class="edge">
<title>Node1&#45;&gt;Node22</title>
<path fill="none" stroke="midnightblue" d="M1429.74,-430.08C1636.33,-425.23 2117.71,-410.36 2183,-376 2220.33,-356.36 2246.81,-312.63 2259.83,-286.93"/>
<polygon fill="midnightblue" stroke="midnightblue" points="1429.43,-426.58 1419.52,-430.31 1429.59,-433.58 1429.43,-426.58"/>
</g>
<!-- Node24 -->
<g id="node24" class="node">
<title>Node24</title>
<g id="a_node24"><a xlink:href="liftingToPython_8hpp.html" target="_top" xlink:title=" ">
<polygon fill="white" stroke="black" points="2371.5,-245.5 2371.5,-286.5 2556.5,-286.5 2556.5,-245.5 2371.5,-245.5"/>
<text text-anchor="start" x="2379.5" y="-274.5" font-family="Helvetica,sans-Serif" font-size="10.00">/home/jonathan/Works</text>
<text text-anchor="start" x="2379.5" y="-263.5" font-family="Helvetica,sans-Serif" font-size="10.00">/Tools/Triton/src/libtriton</text>
<text text-anchor="middle" x="2464" y="-252.5" font-family="Helvetica,sans-Serif" font-size="10.00">/includes/triton/liftingToPython.hpp</text>
</a>
</g>
</g>
<!-- Node1&#45;&gt;Node24 -->
<g id="edge25" class="edge">
<title>Node1&#45;&gt;Node24</title>
<path fill="none" stroke="midnightblue" d="M1429.7,-430.35C1626.08,-426.19 2074.91,-412.85 2223,-376 2301.43,-356.48 2385.93,-312.28 2431.08,-286.56"/>
<polygon fill="midnightblue" stroke="midnightblue" points="1429.61,-426.85 1419.68,-430.56 1429.75,-433.85 1429.61,-426.85"/>
</g>
<!-- Node26 -->
<g id="node26" class="node">
<title>Node26</title>
<g id="a_node26"><a xlink:href="liftingToSMT_8hpp.html" target="_top" xlink:title=" ">
<polygon fill="white" stroke="black" points="2612,-245.5 2612,-286.5 2784,-286.5 2784,-245.5 2612,-245.5"/>
<text text-anchor="start" x="2620" y="-274.5" font-family="Helvetica,sans-Serif" font-size="10.00">/home/jonathan/Works</text>
<text text-anchor="start" x="2620" y="-263.5" font-family="Helvetica,sans-Serif" font-size="10.00">/Tools/Triton/src/libtriton</text>
<text text-anchor="middle" x="2698" y="-252.5" font-family="Helvetica,sans-Serif" font-size="10.00">/includes/triton/liftingToSMT.hpp</text>
</a>
</g>
</g>
<!-- Node1&#45;&gt;Node26 -->
<g id="edge28" class="edge">
<title>Node1&#45;&gt;Node26</title>
<path fill="none" stroke="midnightblue" d="M1429.9,-431.95C1704.47,-431.23 2493.2,-424.88 2598,-376 2638.96,-356.9 2670.87,-312.54 2686.81,-286.68"/>
<polygon fill="midnightblue" stroke="midnightblue" points="1429.55,-428.45 1419.56,-431.97 1429.57,-435.45 1429.55,-428.45"/>
</g>
<!-- Node28 -->
<g id="node28" class="node">
<title>Node28</title>
<g id="a_node28"><a xlink:href="llvmToTriton_8hpp.html" target="_top" xlink:title=" ">
<polygon fill="white" stroke="black" points="106.5,-329 106.5,-370 279.5,-370 279.5,-329 106.5,-329"/>
<text text-anchor="start" x="114.5" y="-358" font-family="Helvetica,sans-Serif" font-size="10.00">/home/jonathan/Works</text>
<text text-anchor="start" x="114.5" y="-347" font-family="Helvetica,sans-Serif" font-size="10.00">/Tools/Triton/src/libtriton</text>
<text text-anchor="middle" x="193" y="-336" font-family="Helvetica,sans-Serif" font-size="10.00">/includes/triton/llvmToTriton.hpp</text>
</a>
</g>
</g>
<!-- Node1&#45;&gt;Node28 -->
<g id="edge31" class="edge">
<title>Node1&#45;&gt;Node28</title>
<path fill="none" stroke="midnightblue" d="M1241.9,-429.45C1020.4,-423.06 471.08,-404.74 289,-376 279.38,-374.48 269.32,-372.39 259.5,-370.05"/>
<polygon fill="midnightblue" stroke="midnightblue" points="1242.1,-432.96 1252.2,-429.75 1242.3,-425.96 1242.1,-432.96"/>
</g>
<!-- Node30 -->
<g id="node30" class="node">
<title>Node30</title>
<g id="a_node30"><a xlink:href="symbolicEngine_8hpp.html" target="_top" xlink:title=" ">
<polygon fill="white" stroke="black" points="1982.5,-329 1982.5,-370 2173.5,-370 2173.5,-329 1982.5,-329"/>
<text text-anchor="start" x="1990.5" y="-358" font-family="Helvetica,sans-Serif" font-size="10.00">/home/jonathan/Works</text>
<text text-anchor="start" x="1990.5" y="-347" font-family="Helvetica,sans-Serif" font-size="10.00">/Tools/Triton/src/libtriton</text>
<text text-anchor="middle" x="2078" y="-336" font-family="Helvetica,sans-Serif" font-size="10.00">/includes/triton/symbolicEngine.hpp</text>
</a>
</g>
</g>
<!-- Node1&#45;&gt;Node30 -->
<g id="edge34" class="edge">
<title>Node1&#45;&gt;Node30</title>
<path fill="none" stroke="midnightblue" d="M1429.73,-426.86C1551.33,-419.43 1769.82,-403.48 1955,-376 1966.33,-374.32 1978.18,-372.26 1989.87,-370.04"/>
<polygon fill="midnightblue" stroke="midnightblue" points="1429.48,-423.37 1419.71,-427.47 1429.9,-430.36 1429.48,-423.37"/>
</g>
<!-- Node34 -->
<g id="node34" class="node">
<title>Node34</title>
<g id="a_node34"><a xlink:href="synthesizer_8hpp.html" target="_top" xlink:title=" ">
<polygon fill="white" stroke="black" points="2841.5,-245.5 2841.5,-286.5 3010.5,-286.5 3010.5,-245.5 2841.5,-245.5"/>
<text text-anchor="start" x="2849.5" y="-274.5" font-family="Helvetica,sans-Serif" font-size="10.00">/home/jonathan/Works</text>
<text text-anchor="start" x="2849.5" y="-263.5" font-family="Helvetica,sans-Serif" font-size="10.00">/Tools/Triton/src/libtriton</text>
<text text-anchor="middle" x="2926" y="-252.5" font-family="Helvetica,sans-Serif" font-size="10.00">/includes/triton/synthesizer.hpp</text>
</a>
</g>
</g>
<!-- Node1&#45;&gt;Node34 -->
<g id="edge63" class="edge">
<title>Node1&#45;&gt;Node34</title>
<path fill="none" stroke="midnightblue" d="M1429.95,-431.9C1689.11,-431 2410.25,-424.1 2642,-376 2733.27,-357.06 2833.68,-312.42 2887.25,-286.53"/>
<polygon fill="midnightblue" stroke="midnightblue" points="1429.8,-428.4 1419.81,-431.93 1429.82,-435.4 1429.8,-428.4"/>
</g>
<!-- Node18 -->
<g id="node18" class="node">
<title>Node18</title>
<g id="a_node18"><a xlink:href="api_8cpp.html" target="_top" xlink:title=" ">
<polygon fill="white" stroke="black" points="2190.5,-6 2190.5,-47 2323.5,-47 2323.5,-6 2190.5,-6"/>
<text text-anchor="start" x="2198.5" y="-35" font-family="Helvetica,sans-Serif" font-size="10.00">/home/jonathan/Works</text>
<text text-anchor="start" x="2198.5" y="-24" font-family="Helvetica,sans-Serif" font-size="10.00">/Tools/Triton/src/libtriton</text>
<text text-anchor="middle" x="2257" y="-13" font-family="Helvetica,sans-Serif" font-size="10.00">/api/api.cpp</text>
</a>
</g>
</g>
<!-- Node17&#45;&gt;Node18 -->
<g id="edge17" class="edge">
<title>Node17&#45;&gt;Node18</title>
<path fill="none" stroke="midnightblue" d="M2364.29,-84.65C2341.7,-72.62 2314.82,-58.3 2293.61,-47"/>
<polygon fill="midnightblue" stroke="midnightblue" points="2362.88,-87.87 2373.35,-89.48 2366.17,-81.69 2362.88,-87.87"/>
</g>
<!-- Node19 -->
<g id="node19" class="node">
<title>Node19</title>
<g id="a_node19"><a xlink:href="pyTritonContext_8cpp.html" target="_top" xlink:title=" ">
<polygon fill="white" stroke="black" points="2342,-0.5 2342,-52.5 2478,-52.5 2478,-0.5 2342,-0.5"/>
<text text-anchor="start" x="2350" y="-40.5" font-family="Helvetica,sans-Serif" font-size="10.00">/home/jonathan/Works</text>
<text text-anchor="start" x="2350" y="-29.5" font-family="Helvetica,sans-Serif" font-size="10.00">/Tools/Triton/src/libtriton</text>
<text text-anchor="start" x="2350" y="-18.5" font-family="Helvetica,sans-Serif" font-size="10.00">/bindings/python/objects</text>
<text text-anchor="middle" x="2410" y="-7.5" font-family="Helvetica,sans-Serif" font-size="10.00">/pyTritonContext.cpp</text>
</a>
</g>
</g>
<!-- Node17&#45;&gt;Node19 -->
<g id="edge18" class="edge">
<title>Node17&#45;&gt;Node19</title>
<path fill="none" stroke="midnightblue" d="M2410,-79.12C2410,-70.41 2410,-60.99 2410,-52.61"/>
<polygon fill="midnightblue" stroke="midnightblue" points="2406.5,-79.27 2410,-89.27 2413.5,-79.27 2406.5,-79.27"/>
</g>
<!-- Node20 -->
<g id="node20" class="node">
<title>Node20</title>
<g id="a_node20"><a xlink:href="callbacks_8cpp.html" target="_top" xlink:title=" ">
<polygon fill="white" stroke="black" points="2496,-6 2496,-47 2630,-47 2630,-6 2496,-6"/>
<text text-anchor="start" x="2504" y="-35" font-family="Helvetica,sans-Serif" font-size="10.00">/home/jonathan/Works</text>
<text text-anchor="start" x="2504" y="-24" font-family="Helvetica,sans-Serif" font-size="10.00">/Tools/Triton/src/libtriton</text>
<text text-anchor="middle" x="2563" y="-13" font-family="Helvetica,sans-Serif" font-size="10.00">/callbacks/callbacks.cpp</text>
</a>
</g>
</g>
<!-- Node17&#45;&gt;Node20 -->
<g id="edge19" class="edge">
<title>Node17&#45;&gt;Node20</title>
<path fill="none" stroke="midnightblue" d="M2455.71,-84.65C2478.3,-72.62 2505.18,-58.3 2526.39,-47"/>
<polygon fill="midnightblue" stroke="midnightblue" points="2453.83,-81.69 2446.65,-89.48 2457.12,-87.87 2453.83,-81.69"/>
</g>
<!-- Node21&#45;&gt;Node17 -->
<g id="edge21" class="edge">
<title>Node21&#45;&gt;Node17</title>
<path fill="none" stroke="midnightblue" d="M2586.5,-164.44C2550.87,-153.66 2508.64,-140.87 2474.42,-130.51"/>
<polygon fill="midnightblue" stroke="midnightblue" points="2585.78,-167.88 2596.36,-167.43 2587.8,-161.18 2585.78,-167.88"/>
</g>
<!-- Node22&#45;&gt;Node21 -->
<g id="edge24" class="edge">
<title>Node22&#45;&gt;Node21</title>
<path fill="none" stroke="midnightblue" d="M2363.41,-244.95C2454.15,-227.41 2478.52,-225.71 2565,-209 2567.93,-208.43 2570.9,-207.85 2573.9,-207.26"/>
<polygon fill="midnightblue" stroke="midnightblue" points="2362.67,-241.53 2353.52,-246.88 2364.01,-248.4 2362.67,-241.53"/>
</g>
<!-- Node23 -->
<g id="node23" class="node">
<title>Node23</title>
<g id="a_node23"><a xlink:href="liftingToDot_8cpp.html" target="_top" xlink:title=" ">
<polygon fill="white" stroke="black" points="2186.5,-167.5 2186.5,-208.5 2353.5,-208.5 2353.5,-167.5 2186.5,-167.5"/>
<text text-anchor="start" x="2194.5" y="-196.5" font-family="Helvetica,sans-Serif" font-size="10.00">/home/jonathan/Works</text>
<text text-anchor="start" x="2194.5" y="-185.5" font-family="Helvetica,sans-Serif" font-size="10.00">/Tools/Triton/src/libtriton</text>
<text text-anchor="middle" x="2270" y="-174.5" font-family="Helvetica,sans-Serif" font-size="10.00">/engines/lifters/liftingToDot.cpp</text>
</a>
</g>
</g>
<!-- Node22&#45;&gt;Node23 -->
<g id="edge23" class="edge">
<title>Node22&#45;&gt;Node23</title>
<path fill="none" stroke="midnightblue" d="M2269.39,-235.3C2269.51,-226.3 2269.64,-216.65 2269.74,-208.51"/>
<polygon fill="midnightblue" stroke="midnightblue" points="2265.89,-235.38 2269.26,-245.43 2272.89,-235.48 2265.89,-235.38"/>
</g>
<!-- Node24&#45;&gt;Node21 -->
<g id="edge27" class="edge">
<title>Node24&#45;&gt;Node21</title>
<path fill="none" stroke="midnightblue" d="M2524.27,-241.75C2551.85,-231.11 2584.16,-218.65 2610.44,-208.51"/>
<polygon fill="midnightblue" stroke="midnightblue" points="2522.8,-238.56 2514.73,-245.43 2525.32,-245.09 2522.8,-238.56"/>
</g>
<!-- Node25 -->
<g id="node25" class="node">
<title>Node25</title>
<g id="a_node25"><a xlink:href="liftingToPython_8cpp.html" target="_top" xlink:title=" ">
<polygon fill="white" stroke="black" points="2372,-167.5 2372,-208.5 2556,-208.5 2556,-167.5 2372,-167.5"/>
<text text-anchor="start" x="2380" y="-196.5" font-family="Helvetica,sans-Serif" font-size="10.00">/home/jonathan/Works</text>
<text text-anchor="start" x="2380" y="-185.5" font-family="Helvetica,sans-Serif" font-size="10.00">/Tools/Triton/src/libtriton</text>
<text text-anchor="middle" x="2464" y="-174.5" font-family="Helvetica,sans-Serif" font-size="10.00">/engines/lifters/liftingToPython.cpp</text>
</a>
</g>
</g>
<!-- Node24&#45;&gt;Node25 -->
<g id="edge26" class="edge">
<title>Node24&#45;&gt;Node25</title>
<path fill="none" stroke="midnightblue" d="M2464,-235.3C2464,-226.3 2464,-216.65 2464,-208.51"/>
<polygon fill="midnightblue" stroke="midnightblue" points="2460.5,-235.43 2464,-245.43 2467.5,-235.43 2460.5,-235.43"/>
</g>
<!-- Node26&#45;&gt;Node21 -->
<g id="edge30" class="edge">
<title>Node26&#45;&gt;Node21</title>
<path fill="none" stroke="midnightblue" d="M2683.97,-236.17C2679.47,-226.93 2674.59,-216.92 2670.5,-208.51"/>
<polygon fill="midnightblue" stroke="midnightblue" points="2680.95,-237.97 2688.47,-245.43 2687.24,-234.9 2680.95,-237.97"/>
</g>
<!-- Node27 -->
<g id="node27" class="node">
<title>Node27</title>
<g id="a_node27"><a xlink:href="liftingToSMT_8cpp.html" target="_top" xlink:title=" ">
<polygon fill="white" stroke="black" points="2766,-167.5 2766,-208.5 2936,-208.5 2936,-167.5 2766,-167.5"/>
<text text-anchor="start" x="2774" y="-196.5" font-family="Helvetica,sans-Serif" font-size="10.00">/home/jonathan/Works</text>
<text text-anchor="start" x="2774" y="-185.5" font-family="Helvetica,sans-Serif" font-size="10.00">/Tools/Triton/src/libtriton</text>
<text text-anchor="middle" x="2851" y="-174.5" font-family="Helvetica,sans-Serif" font-size="10.00">/engines/lifters/liftingToSMT.cpp</text>
</a>
</g>
</g>
<!-- Node26&#45;&gt;Node27 -->
<g id="edge29" class="edge">
<title>Node26&#45;&gt;Node27</title>
<path fill="none" stroke="midnightblue" d="M2746.5,-240.91C2767.54,-230.46 2791.85,-218.38 2811.73,-208.51"/>
<polygon fill="midnightblue" stroke="midnightblue" points="2744.8,-237.84 2737.4,-245.43 2747.91,-244.11 2744.8,-237.84"/>
</g>
<!-- Node28&#45;&gt;Node11 -->
<g id="edge33" class="edge">
<title>Node28&#45;&gt;Node11</title>
<path fill="none" stroke="midnightblue" d="M179.86,-319.56C174.89,-308.62 169.36,-296.43 164.87,-286.55"/>
<polygon fill="midnightblue" stroke="midnightblue" points="176.72,-321.11 184.04,-328.77 183.1,-318.22 176.72,-321.11"/>
</g>
<!-- Node29 -->
<g id="node29" class="node">
<title>Node29</title>
<g id="a_node29"><a xlink:href="llvmToTriton_8cpp.html" target="_top" xlink:title=" ">
<polygon fill="white" stroke="black" points="262,-245.5 262,-286.5 404,-286.5 404,-245.5 262,-245.5"/>
<text text-anchor="start" x="270" y="-274.5" font-family="Helvetica,sans-Serif" font-size="10.00">/home/jonathan/Works</text>
<text text-anchor="start" x="270" y="-263.5" font-family="Helvetica,sans-Serif" font-size="10.00">/Tools/Triton/src/libtriton</text>
<text text-anchor="middle" x="333" y="-252.5" font-family="Helvetica,sans-Serif" font-size="10.00">/ast/llvm/llvmToTriton.cpp</text>
</a>
</g>
</g>
<!-- Node28&#45;&gt;Node29 -->
<g id="edge32" class="edge">
<title>Node28&#45;&gt;Node29</title>
<path fill="none" stroke="midnightblue" d="M235.35,-323.85C255.82,-311.93 280.05,-297.82 299.25,-286.64"/>
<polygon fill="midnightblue" stroke="midnightblue" points="233.41,-320.92 226.53,-328.98 236.94,-326.97 233.41,-320.92"/>
</g>
<!-- Node30&#45;&gt;Node15 -->
<g id="edge35" class="edge">
<title>Node30&#45;&gt;Node15</title>
<path fill="none" stroke="midnightblue" d="M1971.95,-330.07C1894.27,-316.57 1789.4,-298.35 1712.36,-284.96"/>
<polygon fill="midnightblue" stroke="midnightblue" points="1971.79,-333.6 1982.24,-331.86 1972.99,-326.7 1971.79,-333.6"/>
</g>
<!-- Node30&#45;&gt;Node17 -->
<g id="edge39" class="edge">
<title>Node30&#45;&gt;Node17</title>
<path fill="none" stroke="midnightblue" d="M2085.83,-319.16C2098.28,-278.43 2126.61,-205.44 2178,-167 2225.86,-131.2 2293.45,-117.97 2343.33,-113.23"/>
<polygon fill="midnightblue" stroke="midnightblue" points="2082.47,-318.2 2083,-328.78 2089.18,-320.18 2082.47,-318.2"/>
</g>
<!-- Node30&#45;&gt;Node21 -->
<g id="edge46" class="edge">
<title>Node30&#45;&gt;Node21</title>
<path fill="none" stroke="midnightblue" d="M2103.13,-321.02C2130.59,-291.13 2171.33,-247.27 2176,-245 2254.08,-207.04 2479.15,-221.87 2565,-209 2567.95,-208.56 2570.94,-208.08 2573.96,-207.58"/>
<polygon fill="midnightblue" stroke="midnightblue" points="2100.3,-318.92 2096.12,-328.66 2105.46,-323.65 2100.3,-318.92"/>
</g>
<!-- Node30&#45;&gt;Node22 -->
<g id="edge47" class="edge">
<title>Node30&#45;&gt;Node22</title>
<path fill="none" stroke="midnightblue" d="M2133.19,-324.95C2161.77,-312.76 2196.23,-298.05 2223.29,-286.5"/>
<polygon fill="midnightblue" stroke="midnightblue" points="2131.57,-321.83 2123.75,-328.98 2134.32,-328.27 2131.57,-321.83"/>
</g>
<!-- Node30&#45;&gt;Node24 -->
<g id="edge48" class="edge">
<title>Node30&#45;&gt;Node24</title>
<path fill="none" stroke="midnightblue" d="M2180.61,-326.84C2239.98,-314.3 2314.09,-298.65 2371.63,-286.5"/>
<polygon fill="midnightblue" stroke="midnightblue" points="2179.52,-323.49 2170.46,-328.98 2180.96,-330.34 2179.52,-323.49"/>
</g>
<!-- Node30&#45;&gt;Node26 -->
<g id="edge49" class="edge">
<title>Node30&#45;&gt;Node26</title>
<path fill="none" stroke="midnightblue" d="M2183.93,-335.92C2282.85,-324 2434.55,-305.24 2566,-287 2580.81,-284.95 2596.53,-282.66 2611.77,-280.38"/>
<polygon fill="midnightblue" stroke="midnightblue" points="2183.44,-332.46 2173.93,-337.13 2184.28,-339.41 2183.44,-332.46"/>
</g>
<!-- Node31 -->
<g id="node31" class="node">
<title>Node31</title>
<g id="a_node31"><a xlink:href="aarch64Semantics_8hpp.html" target="_top" xlink:title=" ">
<polygon fill="white" stroke="black" points="1124.5,-167.5 1124.5,-208.5 1327.5,-208.5 1327.5,-167.5 1124.5,-167.5"/>
<text text-anchor="start" x="1132.5" y="-196.5" font-family="Helvetica,sans-Serif" font-size="10.00">/home/jonathan/Works</text>
<text text-anchor="start" x="1132.5" y="-185.5" font-family="Helvetica,sans-Serif" font-size="10.00">/Tools/Triton/src/libtriton</text>
<text text-anchor="middle" x="1226" y="-174.5" font-family="Helvetica,sans-Serif" font-size="10.00">/includes/triton/aarch64Semantics.hpp</text>
</a>
</g>
</g>
<!-- Node30&#45;&gt;Node31 -->
<g id="edge36" class="edge">
<title>Node30&#45;&gt;Node31</title>
<path fill="none" stroke="midnightblue" d="M1973.75,-326.85C1893.71,-310.11 1796.13,-289.38 1792,-287 1770.2,-274.41 1776.55,-256.19 1754,-245 1670.48,-203.56 1428.41,-221.35 1336,-209 1333.21,-208.63 1330.38,-208.23 1327.53,-207.82"/>
<polygon fill="midnightblue" stroke="midnightblue" points="1973.42,-330.36 1983.92,-328.98 1974.85,-323.5 1973.42,-330.36"/>
</g>
<!-- Node32 -->
<g id="node32" class="node">
<title>Node32</title>
<g id="a_node32"><a xlink:href="arm32Semantics_8hpp.html" target="_top" xlink:title=" ">
<polygon fill="white" stroke="black" points="1345,-167.5 1345,-208.5 1541,-208.5 1541,-167.5 1345,-167.5"/>
<text text-anchor="start" x="1353" y="-196.5" font-family="Helvetica,sans-Serif" font-size="10.00">/home/jonathan/Works</text>
<text text-anchor="start" x="1353" y="-185.5" font-family="Helvetica,sans-Serif" font-size="10.00">/Tools/Triton/src/libtriton</text>
<text text-anchor="middle" x="1443" y="-174.5" font-family="Helvetica,sans-Serif" font-size="10.00">/includes/triton/arm32Semantics.hpp</text>
</a>
</g>
</g>
<!-- Node30&#45;&gt;Node32 -->
<g id="edge40" class="edge">
<title>Node30&#45;&gt;Node32</title>
<path fill="none" stroke="midnightblue" d="M1978.32,-326.68C1915.27,-312.38 1843.23,-294.92 1830,-287 1808.4,-274.07 1814.19,-256.88 1792,-245 1696.13,-193.68 1657.24,-226.99 1550,-209 1547.11,-208.52 1544.18,-208.02 1541.22,-207.51"/>
<polygon fill="midnightblue" stroke="midnightblue" points="1977.82,-330.16 1988.35,-328.95 1979.36,-323.33 1977.82,-330.16"/>
</g>
<!-- Node33 -->
<g id="node33" class="node">
<title>Node33</title>
<g id="a_node33"><a xlink:href="irBuilder_8hpp.html" target="_top" xlink:title=" ">
<polygon fill="white" stroke="black" points="1939,-167.5 1939,-208.5 2093,-208.5 2093,-167.5 1939,-167.5"/>
<text text-anchor="start" x="1947" y="-196.5" font-family="Helvetica,sans-Serif" font-size="10.00">/home/jonathan/Works</text>
<text text-anchor="start" x="1947" y="-185.5" font-family="Helvetica,sans-Serif" font-size="10.00">/Tools/Triton/src/libtriton</text>
<text text-anchor="middle" x="2016" y="-174.5" font-family="Helvetica,sans-Serif" font-size="10.00">/includes/triton/irBuilder.hpp</text>
</a>
</g>
</g>
<!-- Node30&#45;&gt;Node33 -->
<g id="edge43" class="edge">
<title>Node30&#45;&gt;Node33</title>
<path fill="none" stroke="midnightblue" d="M2076.71,-318.9C2074.87,-297.57 2070.48,-268.52 2060,-245 2054.06,-231.67 2044.25,-218.73 2035.4,-208.66"/>
<polygon fill="midnightblue" stroke="midnightblue" points="2073.22,-319.26 2077.44,-328.98 2080.21,-318.76 2073.22,-319.26"/>
</g>
<!-- Node30&#45;&gt;Node34 -->
<g id="edge50" class="edge">
<title>Node30&#45;&gt;Node34</title>
<path fill="none" stroke="midnightblue" d="M2183.89,-341.5C2323.64,-331.78 2577.23,-312.48 2793,-287 2808.65,-285.15 2825.3,-282.89 2841.32,-280.56"/>
<polygon fill="midnightblue" stroke="midnightblue" points="2183.34,-338.03 2173.61,-342.21 2183.83,-345.01 2183.34,-338.03"/>
</g>
<!-- Node36 -->
<g id="node36" class="node">
<title>Node36</title>
<g id="a_node36"><a xlink:href="taintEngine_8hpp.html" target="_top" xlink:title=" ">
<polygon fill="white" stroke="black" points="1881.5,-245.5 1881.5,-286.5 2050.5,-286.5 2050.5,-245.5 1881.5,-245.5"/>
<text text-anchor="start" x="1889.5" y="-274.5" font-family="Helvetica,sans-Serif" font-size="10.00">/home/jonathan/Works</text>
<text text-anchor="start" x="1889.5" y="-263.5" font-family="Helvetica,sans-Serif" font-size="10.00">/Tools/Triton/src/libtriton</text>
<text text-anchor="middle" x="1966" y="-252.5" font-family="Helvetica,sans-Serif" font-size="10.00">/includes/triton/taintEngine.hpp</text>
</a>
</g>
</g>
<!-- Node30&#45;&gt;Node36 -->
<g id="edge53" class="edge">
<title>Node30&#45;&gt;Node36</title>
<path fill="none" stroke="midnightblue" d="M2043.02,-323.04C2026.88,-311.3 2008.01,-297.57 1993,-286.64"/>
<polygon fill="midnightblue" stroke="midnightblue" points="2041.03,-325.92 2051.17,-328.98 2045.15,-320.26 2041.03,-325.92"/>
</g>
<!-- Node38 -->
<g id="node38" class="node">
<title>Node38</title>
<g id="a_node38"><a xlink:href="x86Semantics_8hpp.html" target="_top" xlink:title=" ">
<polygon fill="white" stroke="black" points="1559,-167.5 1559,-208.5 1741,-208.5 1741,-167.5 1559,-167.5"/>
<text text-anchor="start" x="1567" y="-196.5" font-family="Helvetica,sans-Serif" font-size="10.00">/home/jonathan/Works</text>
<text text-anchor="start" x="1567" y="-185.5" font-family="Helvetica,sans-Serif" font-size="10.00">/Tools/Triton/src/libtriton</text>
<text text-anchor="middle" x="1650" y="-174.5" font-family="Helvetica,sans-Serif" font-size="10.00">/includes/triton/x86Semantics.hpp</text>
</a>
</g>
</g>
<!-- Node30&#45;&gt;Node38 -->
<g id="edge62" class="edge">
<title>Node30&#45;&gt;Node38</title>
<path fill="none" stroke="midnightblue" d="M1972.7,-327.35C1939.39,-317.98 1903.37,-304.9 1873,-287 1849.98,-273.44 1852.95,-258.68 1830,-245 1803.01,-228.91 1770.95,-217.01 1741.42,-208.43"/>
<polygon fill="midnightblue" stroke="midnightblue" points="1971.91,-330.77 1982.48,-330.02 1973.75,-324.01 1971.91,-330.77"/>
</g>
<!-- Node31&#45;&gt;Node2 -->
<g id="edge37" class="edge">
<title>Node31&#45;&gt;Node2</title>
<path fill="none" stroke="midnightblue" d="M1114.37,-179.41C899.6,-164.79 431.3,-132.93 218.34,-118.44"/>
<polygon fill="midnightblue" stroke="midnightblue" points="1114.19,-182.9 1124.41,-180.09 1114.67,-175.92 1114.19,-182.9"/>
</g>
<!-- Node31&#45;&gt;Node4 -->
<g id="edge38" class="edge">
<title>Node31&#45;&gt;Node4</title>
<path fill="none" stroke="midnightblue" d="M1291.6,-164.03C1322.14,-153.33 1358.1,-140.73 1387.31,-130.51"/>
<polygon fill="midnightblue" stroke="midnightblue" points="1290.16,-160.82 1281.88,-167.43 1292.48,-167.43 1290.16,-160.82"/>
</g>
<!-- Node32&#45;&gt;Node3 -->
<g id="edge41" class="edge">
<title>Node32&#45;&gt;Node3</title>
<path fill="none" stroke="midnightblue" d="M1334.76,-166.73C1165.14,-142.86 978.05,-126.75 865.5,-118.17"/>
<polygon fill="midnightblue" stroke="midnightblue" points="1334.48,-170.23 1344.87,-168.17 1335.47,-163.3 1334.48,-170.23"/>
</g>
<!-- Node32&#45;&gt;Node4 -->
<g id="edge42" class="edge">
<title>Node32&#45;&gt;Node4</title>
<path fill="none" stroke="midnightblue" d="M1443,-157.3C1443,-148.3 1443,-138.65 1443,-130.51"/>
<polygon fill="midnightblue" stroke="midnightblue" points="1439.5,-157.43 1443,-167.43 1446.5,-157.43 1439.5,-157.43"/>
</g>
<!-- Node33&#45;&gt;Node4 -->
<g id="edge44" class="edge">
<title>Node33&#45;&gt;Node4</title>
<path fill="none" stroke="midnightblue" d="M1928.52,-166.84C1773.16,-140.42 1601.57,-124 1509.51,-116.23"/>
<polygon fill="midnightblue" stroke="midnightblue" points="1928.28,-170.35 1938.73,-168.59 1929.47,-163.45 1928.28,-170.35"/>
</g>
<!-- Node33&#45;&gt;Node17 -->
<g id="edge45" class="edge">
<title>Node33&#45;&gt;Node17</title>
<path fill="none" stroke="midnightblue" d="M2103.23,-167.77C2104.49,-167.51 2105.75,-167.25 2107,-167 2188.14,-150.59 2281.9,-133.56 2343.38,-122.65"/>
<polygon fill="midnightblue" stroke="midnightblue" points="2102.49,-164.35 2093.41,-169.8 2103.91,-171.2 2102.49,-164.35"/>
</g>
<!-- Node34&#45;&gt;Node17 -->
<g id="edge52" class="edge">
<title>Node34&#45;&gt;Node17</title>
<path fill="none" stroke="midnightblue" d="M2943,-236.45C2953.44,-214.82 2961.87,-185.73 2945,-167 2914.18,-132.78 2613.23,-118.05 2476.73,-113.09"/>
<polygon fill="midnightblue" stroke="midnightblue" points="2939.81,-235.01 2938.32,-245.5 2946.02,-238.23 2939.81,-235.01"/>
</g>
<!-- Node35 -->
<g id="node35" class="node">
<title>Node35</title>
<g id="a_node35"><a xlink:href="synthesizer_8cpp.html" target="_top" xlink:title=" ">
<polygon fill="white" stroke="black" points="2992,-167.5 2992,-208.5 3178,-208.5 3178,-167.5 2992,-167.5"/>
<text text-anchor="start" x="3000" y="-196.5" font-family="Helvetica,sans-Serif" font-size="10.00">/home/jonathan/Works</text>
<text text-anchor="start" x="3000" y="-185.5" font-family="Helvetica,sans-Serif" font-size="10.00">/Tools/Triton/src/libtriton</text>
<text text-anchor="middle" x="3085" y="-174.5" font-family="Helvetica,sans-Serif" font-size="10.00">/engines/synthesis/synthesizer.cpp</text>
</a>
</g>
</g>
<!-- Node34&#45;&gt;Node35 -->
<g id="edge51" class="edge">
<title>Node34&#45;&gt;Node35</title>
<path fill="none" stroke="midnightblue" d="M2976.11,-241.05C2998.04,-230.57 3023.44,-218.42 3044.19,-208.51"/>
<polygon fill="midnightblue" stroke="midnightblue" points="2974.46,-237.96 2966.95,-245.43 2977.48,-244.27 2974.46,-237.96"/>
</g>
<!-- Node36&#45;&gt;Node17 -->
<g id="edge56" class="edge">
<title>Node36&#45;&gt;Node17</title>
<path fill="none" stroke="midnightblue" d="M2036.93,-241.74C2058.69,-233.07 2082.12,-222.09 2102,-209 2124.31,-194.31 2121.44,-179.59 2145,-167 2207.2,-133.75 2287.49,-120.24 2343.32,-114.75"/>
<polygon fill="midnightblue" stroke="midnightblue" points="2035.45,-238.56 2027.39,-245.44 2037.98,-245.08 2035.45,-238.56"/>
</g>
<!-- Node36&#45;&gt;Node31 -->
<g id="edge55" class="edge">
<title>Node36&#45;&gt;Node31</title>
<path fill="none" stroke="midnightblue" d="M1871.02,-253.46C1845.39,-250.52 1817.65,-247.49 1792,-245 1589.65,-225.39 1537.6,-235.22 1336,-209 1333.21,-208.64 1330.38,-208.25 1327.53,-207.85"/>
<polygon fill="midnightblue" stroke="midnightblue" points="1870.77,-256.96 1881.1,-254.63 1871.57,-250 1870.77,-256.96"/>
</g>
<!-- Node36&#45;&gt;Node32 -->
<g id="edge57" class="edge">
<title>Node36&#45;&gt;Node32</title>
<path fill="none" stroke="midnightblue" d="M1871.16,-250.83C1857.36,-248.83 1843.32,-246.84 1830,-245 1705.71,-227.87 1673.94,-228.53 1550,-209 1547.11,-208.54 1544.17,-208.07 1541.21,-207.58"/>
<polygon fill="midnightblue" stroke="midnightblue" points="1870.75,-254.31 1881.15,-252.28 1871.76,-247.38 1870.75,-254.31"/>
</g>
<!-- Node36&#45;&gt;Node33 -->
<g id="edge58" class="edge">
<title>Node36&#45;&gt;Node33</title>
<path fill="none" stroke="midnightblue" d="M1984.39,-237.05C1990.63,-227.57 1997.46,-217.18 2003.17,-208.51"/>
<polygon fill="midnightblue" stroke="midnightblue" points="1981.45,-235.15 1978.88,-245.43 1987.3,-239 1981.45,-235.15"/>
</g>
<!-- Node37 -->
<g id="node37" class="node">
<title>Node37</title>
<g id="a_node37"><a xlink:href="taintEngine_8cpp.html" target="_top" xlink:title=" ">
<polygon fill="white" stroke="black" points="1759,-167.5 1759,-208.5 1921,-208.5 1921,-167.5 1759,-167.5"/>
<text text-anchor="start" x="1767" y="-196.5" font-family="Helvetica,sans-Serif" font-size="10.00">/home/jonathan/Works</text>
<text text-anchor="start" x="1767" y="-185.5" font-family="Helvetica,sans-Serif" font-size="10.00">/Tools/Triton/src/libtriton</text>
<text text-anchor="middle" x="1840" y="-174.5" font-family="Helvetica,sans-Serif" font-size="10.00">/engines/taint/taintEngine.cpp</text>
</a>
</g>
</g>
<!-- Node36&#45;&gt;Node37 -->
<g id="edge54" class="edge">
<title>Node36&#45;&gt;Node37</title>
<path fill="none" stroke="midnightblue" d="M1924.89,-240.2C1907.84,-229.92 1888.34,-218.16 1872.34,-208.51"/>
<polygon fill="midnightblue" stroke="midnightblue" points="1923.18,-243.26 1933.55,-245.43 1926.8,-237.27 1923.18,-243.26"/>
</g>
<!-- Node36&#45;&gt;Node38 -->
<g id="edge59" class="edge">
<title>Node36&#45;&gt;Node38</title>
<path fill="none" stroke="midnightblue" d="M1874.79,-243.06C1829.4,-232.15 1775.01,-219.07 1731.1,-208.51"/>
<polygon fill="midnightblue" stroke="midnightblue" points="1874.08,-246.49 1884.62,-245.43 1875.72,-239.69 1874.08,-246.49"/>
</g>
<!-- Node38&#45;&gt;Node4 -->
<g id="edge60" class="edge">
<title>Node38&#45;&gt;Node4</title>
<path fill="none" stroke="midnightblue" d="M1587.05,-163.89C1557.99,-153.22 1523.87,-140.69 1496.13,-130.51"/>
<polygon fill="midnightblue" stroke="midnightblue" points="1586.1,-167.27 1596.69,-167.43 1588.51,-160.7 1586.1,-167.27"/>
</g>
<!-- Node38&#45;&gt;Node5 -->
<g id="edge61" class="edge">
<title>Node38&#45;&gt;Node5</title>
<path fill="none" stroke="midnightblue" d="M1548.58,-166.79C1439.75,-148 1325.06,-131.53 1251.23,-121.36"/>
<polygon fill="midnightblue" stroke="midnightblue" points="1548.3,-170.29 1558.75,-168.56 1549.5,-163.4 1548.3,-170.29"/>
</g>
</g>
</svg>
