<?xml version="1.0" encoding="UTF-8" standalone="no"?>
<!DOCTYPE svg PUBLIC "-//W3C//DTD SVG 1.1//EN"
 "http://www.w3.org/Graphics/SVG/1.1/DTD/svg11.dtd">
<!-- Generated by graphviz version 2.49.0 (20210828.1703)
 -->
<!-- Title: /home/jonathan/Works/Tools/Triton/src/libtriton/includes/triton/astContext.hpp Pages: 1 -->
<svg width="2682pt" height="462pt"
 viewBox="0.00 0.00 2682.05 462.00" xmlns="http://www.w3.org/2000/svg" xmlns:xlink="http://www.w3.org/1999/xlink">
<g id="graph0" class="graph" transform="scale(1 1) rotate(0) translate(4 458)">
<title>/home/jonathan/Works/Tools/Triton/src/libtriton/includes/triton/astContext.hpp</title>
<polygon fill="white" stroke="transparent" points="-4,4 -4,-458 2678.05,-458 2678.05,4 -4,4"/>
<!-- Node1 -->
<g id="node1" class="node">
<title>Node1</title>
<g id="a_node1"><a xlink:title=" ">
<polygon fill="#bfbfbf" stroke="black" points="1020,-412.5 1020,-453.5 1187,-453.5 1187,-412.5 1020,-412.5"/>
<text text-anchor="start" x="1028" y="-441.5" font-family="Helvetica,sans-Serif" font-size="10.00">/home/jonathan/Works</text>
<text text-anchor="start" x="1028" y="-430.5" font-family="Helvetica,sans-Serif" font-size="10.00">/Tools/Triton/src/libtriton</text>
<text text-anchor="middle" x="1103.5" y="-419.5" font-family="Helvetica,sans-Serif" font-size="10.00">/includes/triton/astContext.hpp</text>
</a>
</g>
</g>
<!-- Node2 -->
<g id="node2" class="node">
<title>Node2</title>
<g id="a_node2"><a xlink:href="aarch64Semantics_8cpp.html" target="_top" xlink:title=" ">
<polygon fill="white" stroke="black" points="453.5,-89.5 453.5,-130.5 671.5,-130.5 671.5,-89.5 453.5,-89.5"/>
<text text-anchor="start" x="461.5" y="-118.5" font-family="Helvetica,sans-Serif" font-size="10.00">/home/jonathan/Works</text>
<text text-anchor="start" x="461.5" y="-107.5" font-family="Helvetica,sans-Serif" font-size="10.00">/Tools/Triton/src/libtriton</text>
<text text-anchor="middle" x="562.5" y="-96.5" font-family="Helvetica,sans-Serif" font-size="10.00">/arch/arm/aarch64/aarch64Semantics.cpp</text>
</a>
</g>
</g>
<!-- Node1&#45;&gt;Node2 -->
<g id="edge1" class="edge">
<title>Node1&#45;&gt;Node2</title>
<path fill="none" stroke="midnightblue" d="M1009.51,-429.96C773.74,-424.37 173.89,-407.16 144.5,-376 31.96,-256.7 319.62,-167.98 473.26,-130.56"/>
<polygon fill="midnightblue" stroke="midnightblue" points="1009.7,-433.46 1019.78,-430.2 1009.87,-426.46 1009.7,-433.46"/>
</g>
<!-- Node3 -->
<g id="node3" class="node">
<title>Node3</title>
<g id="a_node3"><a xlink:href="arm32Semantics_8cpp.html" target="_top" xlink:title=" ">
<polygon fill="white" stroke="black" points="0,-89.5 0,-130.5 203,-130.5 203,-89.5 0,-89.5"/>
<text text-anchor="start" x="8" y="-118.5" font-family="Helvetica,sans-Serif" font-size="10.00">/home/jonathan/Works</text>
<text text-anchor="start" x="8" y="-107.5" font-family="Helvetica,sans-Serif" font-size="10.00">/Tools/Triton/src/libtriton</text>
<text text-anchor="middle" x="101.5" y="-96.5" font-family="Helvetica,sans-Serif" font-size="10.00">/arch/arm/arm32/arm32Semantics.cpp</text>
</a>
</g>
</g>
<!-- Node1&#45;&gt;Node3 -->
<g id="edge2" class="edge">
<title>Node1&#45;&gt;Node3</title>
<path fill="none" stroke="midnightblue" d="M1009.73,-430.04C769.18,-424.55 146.77,-407.39 115.5,-376 49.01,-309.25 79.81,-180.04 94.9,-130.75"/>
<polygon fill="midnightblue" stroke="midnightblue" points="1009.78,-433.54 1019.86,-430.26 1009.94,-426.54 1009.78,-433.54"/>
</g>
<!-- Node4 -->
<g id="node4" class="node">
<title>Node4</title>
<g id="a_node4"><a xlink:href="irBuilder_8cpp.html" target="_top" xlink:title=" ">
<polygon fill="white" stroke="black" points="1036,-89.5 1036,-130.5 1169,-130.5 1169,-89.5 1036,-89.5"/>
<text text-anchor="start" x="1044" y="-118.5" font-family="Helvetica,sans-Serif" font-size="10.00">/home/jonathan/Works</text>
<text text-anchor="start" x="1044" y="-107.5" font-family="Helvetica,sans-Serif" font-size="10.00">/Tools/Triton/src/libtriton</text>
<text text-anchor="middle" x="1102.5" y="-96.5" font-family="Helvetica,sans-Serif" font-size="10.00">/arch/irBuilder.cpp</text>
</a>
</g>
</g>
<!-- Node1&#45;&gt;Node4 -->
<g id="edge3" class="edge">
<title>Node1&#45;&gt;Node4</title>
<path fill="none" stroke="midnightblue" d="M1197.34,-432.08C1300.29,-429.93 1455.94,-419.33 1493.5,-376 1508.93,-358.2 1509.66,-340.13 1493.5,-323 1446.3,-272.97 939.68,-311.73 875.5,-287 823.88,-267.11 802.4,-258.89 778.5,-209 770.43,-192.17 766.48,-181.28 778.5,-167 782.65,-162.07 942.02,-136.25 1035.66,-121.45"/>
<polygon fill="midnightblue" stroke="midnightblue" points="1197.17,-428.58 1187.24,-432.26 1197.3,-435.58 1197.17,-428.58"/>
</g>
<!-- Node5 -->
<g id="node5" class="node">
<title>Node5</title>
<g id="a_node5"><a xlink:href="x86Semantics_8cpp.html" target="_top" xlink:title=" ">
<polygon fill="white" stroke="black" points="805.5,-89.5 805.5,-130.5 959.5,-130.5 959.5,-89.5 805.5,-89.5"/>
<text text-anchor="start" x="813.5" y="-118.5" font-family="Helvetica,sans-Serif" font-size="10.00">/home/jonathan/Works</text>
<text text-anchor="start" x="813.5" y="-107.5" font-family="Helvetica,sans-Serif" font-size="10.00">/Tools/Triton/src/libtriton</text>
<text text-anchor="middle" x="882.5" y="-96.5" font-family="Helvetica,sans-Serif" font-size="10.00">/arch/x86/x86Semantics.cpp</text>
</a>
</g>
</g>
<!-- Node1&#45;&gt;Node5 -->
<g id="edge4" class="edge">
<title>Node1&#45;&gt;Node5</title>
<path fill="none" stroke="midnightblue" d="M1009.73,-429.87C776.77,-424.12 188.36,-406.63 159.5,-376 143.34,-358.86 145.38,-341.85 159.5,-323 237.96,-218.23 635.58,-147.71 805.42,-121.92"/>
<polygon fill="midnightblue" stroke="midnightblue" points="1009.79,-433.37 1019.88,-430.12 1009.97,-426.37 1009.79,-433.37"/>
</g>
<!-- Node6 -->
<g id="node6" class="node">
<title>Node6</title>
<g id="a_node6"><a xlink:href="ast_8cpp.html" target="_top" xlink:title=" ">
<polygon fill="white" stroke="black" points="185,-329 185,-370 318,-370 318,-329 185,-329"/>
<text text-anchor="start" x="193" y="-358" font-family="Helvetica,sans-Serif" font-size="10.00">/home/jonathan/Works</text>
<text text-anchor="start" x="193" y="-347" font-family="Helvetica,sans-Serif" font-size="10.00">/Tools/Triton/src/libtriton</text>
<text text-anchor="middle" x="251.5" y="-336" font-family="Helvetica,sans-Serif" font-size="10.00">/ast/ast.cpp</text>
</a>
</g>
</g>
<!-- Node1&#45;&gt;Node6 -->
<g id="edge5" class="edge">
<title>Node1&#45;&gt;Node6</title>
<path fill="none" stroke="midnightblue" d="M1009.42,-432.92C862.23,-432.65 569.21,-425.16 326.5,-376 318.95,-374.47 311.12,-372.39 303.48,-370.07"/>
<polygon fill="midnightblue" stroke="midnightblue" points="1009.76,-436.42 1019.76,-432.93 1009.76,-429.42 1009.76,-436.42"/>
</g>
<!-- Node7 -->
<g id="node7" class="node">
<title>Node7</title>
<g id="a_node7"><a xlink:href="astContext_8cpp.html" target="_top" xlink:title=" ">
<polygon fill="white" stroke="black" points="336,-329 336,-370 469,-370 469,-329 336,-329"/>
<text text-anchor="start" x="344" y="-358" font-family="Helvetica,sans-Serif" font-size="10.00">/home/jonathan/Works</text>
<text text-anchor="start" x="344" y="-347" font-family="Helvetica,sans-Serif" font-size="10.00">/Tools/Triton/src/libtriton</text>
<text text-anchor="middle" x="402.5" y="-336" font-family="Helvetica,sans-Serif" font-size="10.00">/ast/astContext.cpp</text>
</a>
</g>
</g>
<!-- Node1&#45;&gt;Node7 -->
<g id="edge6" class="edge">
<title>Node1&#45;&gt;Node7</title>
<path fill="none" stroke="midnightblue" d="M1009.62,-430.55C886.27,-427.07 663.49,-415.35 477.5,-376 470.1,-374.43 462.42,-372.36 454.92,-370.08"/>
<polygon fill="midnightblue" stroke="midnightblue" points="1009.69,-434.06 1019.78,-430.83 1009.88,-427.06 1009.69,-434.06"/>
</g>
<!-- Node8 -->
<g id="node8" class="node">
<title>Node8</title>
<g id="a_node8"><a xlink:href="z3ToTritonAst_8cpp.html" target="_top" xlink:title=" ">
<polygon fill="white" stroke="black" points="487,-329 487,-370 624,-370 624,-329 487,-329"/>
<text text-anchor="start" x="495" y="-358" font-family="Helvetica,sans-Serif" font-size="10.00">/home/jonathan/Works</text>
<text text-anchor="start" x="495" y="-347" font-family="Helvetica,sans-Serif" font-size="10.00">/Tools/Triton/src/libtriton</text>
<text text-anchor="middle" x="555.5" y="-336" font-family="Helvetica,sans-Serif" font-size="10.00">/ast/z3/z3ToTritonAst.cpp</text>
</a>
</g>
</g>
<!-- Node1&#45;&gt;Node8 -->
<g id="edge7" class="edge">
<title>Node1&#45;&gt;Node8</title>
<path fill="none" stroke="midnightblue" d="M1009.68,-426.29C914.15,-419.21 762.21,-404.42 633.5,-376 626.13,-374.37 618.46,-372.33 610.95,-370.1"/>
<polygon fill="midnightblue" stroke="midnightblue" points="1009.66,-429.8 1019.89,-427.04 1010.17,-422.82 1009.66,-429.8"/>
</g>
<!-- Node9 -->
<g id="node9" class="node">
<title>Node9</title>
<g id="a_node9"><a xlink:href="pyAstContext_8cpp.html" target="_top" xlink:title=" ">
<polygon fill="white" stroke="black" points="642.5,-323.5 642.5,-375.5 778.5,-375.5 778.5,-323.5 642.5,-323.5"/>
<text text-anchor="start" x="650.5" y="-363.5" font-family="Helvetica,sans-Serif" font-size="10.00">/home/jonathan/Works</text>
<text text-anchor="start" x="650.5" y="-352.5" font-family="Helvetica,sans-Serif" font-size="10.00">/Tools/Triton/src/libtriton</text>
<text text-anchor="start" x="650.5" y="-341.5" font-family="Helvetica,sans-Serif" font-size="10.00">/bindings/python/objects</text>
<text text-anchor="middle" x="710.5" y="-330.5" font-family="Helvetica,sans-Serif" font-size="10.00">/pyAstContext.cpp</text>
</a>
</g>
</g>
<!-- Node1&#45;&gt;Node9 -->
<g id="edge8" class="edge">
<title>Node1&#45;&gt;Node9</title>
<path fill="none" stroke="midnightblue" d="M1010,-419.06C946.71,-409.41 861.46,-394.7 787.5,-376 784.63,-375.28 781.72,-374.5 778.78,-373.68"/>
<polygon fill="midnightblue" stroke="midnightblue" points="1009.56,-422.53 1019.97,-420.56 1010.6,-415.61 1009.56,-422.53"/>
</g>
<!-- Node10 -->
<g id="node10" class="node">
<title>Node10</title>
<g id="a_node10"><a xlink:href="pyAstNode_8cpp.html" target="_top" xlink:title=" ">
<polygon fill="white" stroke="black" points="796.5,-323.5 796.5,-375.5 932.5,-375.5 932.5,-323.5 796.5,-323.5"/>
<text text-anchor="start" x="804.5" y="-363.5" font-family="Helvetica,sans-Serif" font-size="10.00">/home/jonathan/Works</text>
<text text-anchor="start" x="804.5" y="-352.5" font-family="Helvetica,sans-Serif" font-size="10.00">/Tools/Triton/src/libtriton</text>
<text text-anchor="start" x="804.5" y="-341.5" font-family="Helvetica,sans-Serif" font-size="10.00">/bindings/python/objects</text>
<text text-anchor="middle" x="864.5" y="-330.5" font-family="Helvetica,sans-Serif" font-size="10.00">/pyAstNode.cpp</text>
</a>
</g>
</g>
<!-- Node1&#45;&gt;Node10 -->
<g id="edge9" class="edge">
<title>Node1&#45;&gt;Node10</title>
<path fill="none" stroke="midnightblue" d="M1036.43,-409.13C1004.05,-398.09 965.28,-384.87 932.75,-373.77"/>
<polygon fill="midnightblue" stroke="midnightblue" points="1035.66,-412.56 1046.25,-412.48 1037.92,-405.94 1035.66,-412.56"/>
</g>
<!-- Node11 -->
<g id="node11" class="node">
<title>Node11</title>
<g id="a_node11"><a xlink:href="bitwuzlaSolver_8cpp.html" target="_top" xlink:title=" ">
<polygon fill="white" stroke="black" points="951,-323.5 951,-375.5 1086,-375.5 1086,-323.5 951,-323.5"/>
<text text-anchor="start" x="959" y="-363.5" font-family="Helvetica,sans-Serif" font-size="10.00">/home/jonathan/Works</text>
<text text-anchor="start" x="959" y="-352.5" font-family="Helvetica,sans-Serif" font-size="10.00">/Tools/Triton/src/libtriton</text>
<text text-anchor="start" x="959" y="-341.5" font-family="Helvetica,sans-Serif" font-size="10.00">/engines/solver/bitwuzla</text>
<text text-anchor="middle" x="1018.5" y="-330.5" font-family="Helvetica,sans-Serif" font-size="10.00">/bitwuzlaSolver.cpp</text>
</a>
</g>
</g>
<!-- Node1&#45;&gt;Node11 -->
<g id="edge10" class="edge">
<title>Node1&#45;&gt;Node11</title>
<path fill="none" stroke="midnightblue" d="M1075.6,-405.24C1065.65,-395.71 1054.48,-385 1044.69,-375.61"/>
<polygon fill="midnightblue" stroke="midnightblue" points="1073.28,-407.88 1082.92,-412.27 1078.13,-402.82 1073.28,-407.88"/>
</g>
<!-- Node12 -->
<g id="node12" class="node">
<title>Node12</title>
<g id="a_node12"><a xlink:href="z3Solver_8cpp.html" target="_top" xlink:title=" ">
<polygon fill="white" stroke="black" points="1104.5,-329 1104.5,-370 1274.5,-370 1274.5,-329 1104.5,-329"/>
<text text-anchor="start" x="1112.5" y="-358" font-family="Helvetica,sans-Serif" font-size="10.00">/home/jonathan/Works</text>
<text text-anchor="start" x="1112.5" y="-347" font-family="Helvetica,sans-Serif" font-size="10.00">/Tools/Triton/src/libtriton</text>
<text text-anchor="middle" x="1189.5" y="-336" font-family="Helvetica,sans-Serif" font-size="10.00">/engines/solver/z3/z3Solver.cpp</text>
</a>
</g>
</g>
<!-- Node1&#45;&gt;Node12 -->
<g id="edge11" class="edge">
<title>Node1&#45;&gt;Node12</title>
<path fill="none" stroke="midnightblue" d="M1131.61,-405.36C1143.75,-393.85 1157.71,-380.63 1168.87,-370.05"/>
<polygon fill="midnightblue" stroke="midnightblue" points="1129.17,-402.85 1124.32,-412.27 1133.98,-407.93 1129.17,-402.85"/>
</g>
<!-- Node13 -->
<g id="node13" class="node">
<title>Node13</title>
<g id="a_node13"><a xlink:href="pathManager_8cpp.html" target="_top" xlink:title=" ">
<polygon fill="white" stroke="black" points="1292.5,-329 1292.5,-370 1484.5,-370 1484.5,-329 1292.5,-329"/>
<text text-anchor="start" x="1300.5" y="-358" font-family="Helvetica,sans-Serif" font-size="10.00">/home/jonathan/Works</text>
<text text-anchor="start" x="1300.5" y="-347" font-family="Helvetica,sans-Serif" font-size="10.00">/Tools/Triton/src/libtriton</text>
<text text-anchor="middle" x="1388.5" y="-336" font-family="Helvetica,sans-Serif" font-size="10.00">/engines/symbolic/pathManager.cpp</text>
</a>
</g>
</g>
<!-- Node1&#45;&gt;Node13 -->
<g id="edge12" class="edge">
<title>Node1&#45;&gt;Node13</title>
<path fill="none" stroke="midnightblue" d="M1181.44,-409.71C1224.9,-397.28 1278.52,-381.95 1320.3,-370"/>
<polygon fill="midnightblue" stroke="midnightblue" points="1180.42,-406.36 1171.76,-412.48 1182.34,-413.09 1180.42,-406.36"/>
</g>
<!-- Node14 -->
<g id="node14" class="node">
<title>Node14</title>
<g id="a_node14"><a xlink:href="symbolicEngine_8cpp.html" target="_top" xlink:title=" ">
<polygon fill="white" stroke="black" points="884.5,-245.5 884.5,-286.5 1090.5,-286.5 1090.5,-245.5 884.5,-245.5"/>
<text text-anchor="start" x="892.5" y="-274.5" font-family="Helvetica,sans-Serif" font-size="10.00">/home/jonathan/Works</text>
<text text-anchor="start" x="892.5" y="-263.5" font-family="Helvetica,sans-Serif" font-size="10.00">/Tools/Triton/src/libtriton</text>
<text text-anchor="middle" x="987.5" y="-252.5" font-family="Helvetica,sans-Serif" font-size="10.00">/engines/symbolic/symbolicEngine.cpp</text>
</a>
</g>
</g>
<!-- Node1&#45;&gt;Node14 -->
<g id="edge13" class="edge">
<title>Node1&#45;&gt;Node14</title>
<path fill="none" stroke="midnightblue" d="M1009.66,-429.77C779.53,-423.84 203.79,-406.05 175.5,-376 159.35,-358.85 159.43,-340.22 175.5,-323 222.9,-272.22 676.51,-266.41 884.37,-266.45"/>
<polygon fill="midnightblue" stroke="midnightblue" points="1009.6,-433.27 1019.69,-430.02 1009.78,-426.27 1009.6,-433.27"/>
</g>
<!-- Node15 -->
<g id="node15" class="node">
<title>Node15</title>
<g id="a_node15"><a xlink:href="symbolicExpression_8cpp.html" target="_top" xlink:title=" ">
<polygon fill="white" stroke="black" points="1540.5,-329 1540.5,-370 1766.5,-370 1766.5,-329 1540.5,-329"/>
<text text-anchor="start" x="1548.5" y="-358" font-family="Helvetica,sans-Serif" font-size="10.00">/home/jonathan/Works</text>
<text text-anchor="start" x="1548.5" y="-347" font-family="Helvetica,sans-Serif" font-size="10.00">/Tools/Triton/src/libtriton</text>
<text text-anchor="middle" x="1653.5" y="-336" font-family="Helvetica,sans-Serif" font-size="10.00">/engines/symbolic/symbolicExpression.cpp</text>
</a>
</g>
</g>
<!-- Node1&#45;&gt;Node15 -->
<g id="edge14" class="edge">
<title>Node1&#45;&gt;Node15</title>
<path fill="none" stroke="midnightblue" d="M1197.2,-421.41C1283.1,-411.27 1413.68,-394.77 1526.5,-376 1537.37,-374.19 1548.73,-372.14 1560,-370.01"/>
<polygon fill="midnightblue" stroke="midnightblue" points="1196.74,-417.94 1187.21,-422.58 1197.55,-424.89 1196.74,-417.94"/>
</g>
<!-- Node16 -->
<g id="node16" class="node">
<title>Node16</title>
<g id="a_node16"><a xlink:href="api_8hpp.html" target="_top" xlink:title=" ">
<polygon fill="white" stroke="black" points="1914,-89.5 1914,-130.5 2047,-130.5 2047,-89.5 1914,-89.5"/>
<text text-anchor="start" x="1922" y="-118.5" font-family="Helvetica,sans-Serif" font-size="10.00">/home/jonathan/Works</text>
<text text-anchor="start" x="1922" y="-107.5" font-family="Helvetica,sans-Serif" font-size="10.00">/Tools/Triton/src/libtriton</text>
<text text-anchor="middle" x="1980.5" y="-96.5" font-family="Helvetica,sans-Serif" font-size="10.00">/includes/triton/api.hpp</text>
</a>
</g>
</g>
<!-- Node1&#45;&gt;Node16 -->
<g id="edge15" class="edge">
<title>Node1&#45;&gt;Node16</title>
<path fill="none" stroke="midnightblue" d="M1197.33,-430.62C1433.02,-426.64 2045.34,-412.96 2245.5,-376 2443.04,-339.52 2561.72,-381 2665.5,-209 2675.14,-193.02 2678.15,-180.73 2665.5,-167 2624.13,-122.11 2211.25,-113.21 2047.19,-111.44"/>
<polygon fill="midnightblue" stroke="midnightblue" points="1197.01,-427.13 1187.07,-430.79 1197.12,-434.13 1197.01,-427.13"/>
</g>
<!-- Node20 -->
<g id="node20" class="node">
<title>Node20</title>
<g id="a_node20"><a xlink:href="liftingEngine_8hpp.html" target="_top" xlink:title=" ">
<polygon fill="white" stroke="black" points="2052.5,-167.5 2052.5,-208.5 2226.5,-208.5 2226.5,-167.5 2052.5,-167.5"/>
<text text-anchor="start" x="2060.5" y="-196.5" font-family="Helvetica,sans-Serif" font-size="10.00">/home/jonathan/Works</text>
<text text-anchor="start" x="2060.5" y="-185.5" font-family="Helvetica,sans-Serif" font-size="10.00">/Tools/Triton/src/libtriton</text>
<text text-anchor="middle" x="2139.5" y="-174.5" font-family="Helvetica,sans-Serif" font-size="10.00">/includes/triton/liftingEngine.hpp</text>
</a>
</g>
</g>
<!-- Node1&#45;&gt;Node20 -->
<g id="edge19" class="edge">
<title>Node1&#45;&gt;Node20</title>
<path fill="none" stroke="midnightblue" d="M1197.18,-430.32C1413.13,-425.87 1932.87,-411.55 2003.5,-376 2074.14,-340.44 2116.6,-248.87 2132.41,-208.55"/>
<polygon fill="midnightblue" stroke="midnightblue" points="1197.05,-426.83 1187.13,-430.53 1197.2,-433.82 1197.05,-426.83"/>
</g>
<!-- Node21 -->
<g id="node21" class="node">
<title>Node21</title>
<g id="a_node21"><a xlink:href="liftingToPython_8hpp.html" target="_top" xlink:title=" ">
<polygon fill="white" stroke="black" points="1850,-245.5 1850,-286.5 2035,-286.5 2035,-245.5 1850,-245.5"/>
<text text-anchor="start" x="1858" y="-274.5" font-family="Helvetica,sans-Serif" font-size="10.00">/home/jonathan/Works</text>
<text text-anchor="start" x="1858" y="-263.5" font-family="Helvetica,sans-Serif" font-size="10.00">/Tools/Triton/src/libtriton</text>
<text text-anchor="middle" x="1942.5" y="-252.5" font-family="Helvetica,sans-Serif" font-size="10.00">/includes/triton/liftingToPython.hpp</text>
</a>
</g>
</g>
<!-- Node1&#45;&gt;Node21 -->
<g id="edge21" class="edge">
<title>Node1&#45;&gt;Node21</title>
<path fill="none" stroke="midnightblue" d="M1197.34,-429.46C1419.07,-423 1958.84,-404.41 1985.5,-376 2009.31,-350.63 1982.12,-310.52 1961.45,-286.68"/>
<polygon fill="midnightblue" stroke="midnightblue" points="1196.92,-425.97 1187.03,-429.76 1197.12,-432.97 1196.92,-425.97"/>
</g>
<!-- Node23 -->
<g id="node23" class="node">
<title>Node23</title>
<g id="a_node23"><a xlink:href="liftingToSMT_8hpp.html" target="_top" xlink:title=" ">
<polygon fill="white" stroke="black" points="2128.5,-245.5 2128.5,-286.5 2300.5,-286.5 2300.5,-245.5 2128.5,-245.5"/>
<text text-anchor="start" x="2136.5" y="-274.5" font-family="Helvetica,sans-Serif" font-size="10.00">/home/jonathan/Works</text>
<text text-anchor="start" x="2136.5" y="-263.5" font-family="Helvetica,sans-Serif" font-size="10.00">/Tools/Triton/src/libtriton</text>
<text text-anchor="middle" x="2214.5" y="-252.5" font-family="Helvetica,sans-Serif" font-size="10.00">/includes/triton/liftingToSMT.hpp</text>
</a>
</g>
</g>
<!-- Node1&#45;&gt;Node23 -->
<g id="edge24" class="edge">
<title>Node1&#45;&gt;Node23</title>
<path fill="none" stroke="midnightblue" d="M1197.5,-430.82C1432.58,-427.29 2032.98,-414.56 2114.5,-376 2155.36,-356.67 2187.3,-312.4 2203.28,-286.62"/>
<polygon fill="midnightblue" stroke="midnightblue" points="1197.21,-427.32 1187.26,-430.97 1197.32,-434.32 1197.21,-427.32"/>
</g>
<!-- Node25 -->
<g id="node25" class="node">
<title>Node25</title>
<g id="a_node25"><a xlink:href="symbolicEngine_8hpp.html" target="_top" xlink:title=" ">
<polygon fill="white" stroke="black" points="1785,-329 1785,-370 1976,-370 1976,-329 1785,-329"/>
<text text-anchor="start" x="1793" y="-358" font-family="Helvetica,sans-Serif" font-size="10.00">/home/jonathan/Works</text>
<text text-anchor="start" x="1793" y="-347" font-family="Helvetica,sans-Serif" font-size="10.00">/Tools/Triton/src/libtriton</text>
<text text-anchor="middle" x="1880.5" y="-336" font-family="Helvetica,sans-Serif" font-size="10.00">/includes/triton/symbolicEngine.hpp</text>
</a>
</g>
</g>
<!-- Node1&#45;&gt;Node25 -->
<g id="edge27" class="edge">
<title>Node1&#45;&gt;Node25</title>
<path fill="none" stroke="midnightblue" d="M1197.37,-428.77C1327.79,-423.25 1570.86,-409.17 1775.5,-376 1785.5,-374.38 1795.95,-372.31 1806.22,-370.05"/>
<polygon fill="midnightblue" stroke="midnightblue" points="1196.88,-425.29 1187.03,-429.2 1197.17,-432.28 1196.88,-425.29"/>
</g>
<!-- Node29 -->
<g id="node29" class="node">
<title>Node29</title>
<g id="a_node29"><a xlink:href="synthesizer_8hpp.html" target="_top" xlink:title=" ">
<polygon fill="white" stroke="black" points="2339,-245.5 2339,-286.5 2508,-286.5 2508,-245.5 2339,-245.5"/>
<text text-anchor="start" x="2347" y="-274.5" font-family="Helvetica,sans-Serif" font-size="10.00">/home/jonathan/Works</text>
<text text-anchor="start" x="2347" y="-263.5" font-family="Helvetica,sans-Serif" font-size="10.00">/Tools/Triton/src/libtriton</text>
<text text-anchor="middle" x="2423.5" y="-252.5" font-family="Helvetica,sans-Serif" font-size="10.00">/includes/triton/synthesizer.hpp</text>
</a>
</g>
</g>
<!-- Node1&#45;&gt;Node29 -->
<g id="edge55" class="edge">
<title>Node1&#45;&gt;Node29</title>
<path fill="none" stroke="midnightblue" d="M1197.06,-431.06C1419.89,-428.16 1976.88,-416.92 2158.5,-376 2243.91,-356.75 2337.14,-312.45 2387.06,-286.64"/>
<polygon fill="midnightblue" stroke="midnightblue" points="1196.98,-427.56 1187.03,-431.18 1197.07,-434.56 1196.98,-427.56"/>
</g>
<!-- Node17 -->
<g id="node17" class="node">
<title>Node17</title>
<g id="a_node17"><a xlink:href="api_8cpp.html" target="_top" xlink:title=" ">
<polygon fill="white" stroke="black" points="1761,-6 1761,-47 1894,-47 1894,-6 1761,-6"/>
<text text-anchor="start" x="1769" y="-35" font-family="Helvetica,sans-Serif" font-size="10.00">/home/jonathan/Works</text>
<text text-anchor="start" x="1769" y="-24" font-family="Helvetica,sans-Serif" font-size="10.00">/Tools/Triton/src/libtriton</text>
<text text-anchor="middle" x="1827.5" y="-13" font-family="Helvetica,sans-Serif" font-size="10.00">/api/api.cpp</text>
</a>
</g>
</g>
<!-- Node16&#45;&gt;Node17 -->
<g id="edge16" class="edge">
<title>Node16&#45;&gt;Node17</title>
<path fill="none" stroke="midnightblue" d="M1934.79,-84.65C1912.2,-72.62 1885.32,-58.3 1864.11,-47"/>
<polygon fill="midnightblue" stroke="midnightblue" points="1933.38,-87.87 1943.85,-89.48 1936.67,-81.69 1933.38,-87.87"/>
</g>
<!-- Node18 -->
<g id="node18" class="node">
<title>Node18</title>
<g id="a_node18"><a xlink:href="pyTritonContext_8cpp.html" target="_top" xlink:title=" ">
<polygon fill="white" stroke="black" points="1912.5,-0.5 1912.5,-52.5 2048.5,-52.5 2048.5,-0.5 1912.5,-0.5"/>
<text text-anchor="start" x="1920.5" y="-40.5" font-family="Helvetica,sans-Serif" font-size="10.00">/home/jonathan/Works</text>
<text text-anchor="start" x="1920.5" y="-29.5" font-family="Helvetica,sans-Serif" font-size="10.00">/Tools/Triton/src/libtriton</text>
<text text-anchor="start" x="1920.5" y="-18.5" font-family="Helvetica,sans-Serif" font-size="10.00">/bindings/python/objects</text>
<text text-anchor="middle" x="1980.5" y="-7.5" font-family="Helvetica,sans-Serif" font-size="10.00">/pyTritonContext.cpp</text>
</a>
</g>
</g>
<!-- Node16&#45;&gt;Node18 -->
<g id="edge17" class="edge">
<title>Node16&#45;&gt;Node18</title>
<path fill="none" stroke="midnightblue" d="M1980.5,-79.12C1980.5,-70.41 1980.5,-60.99 1980.5,-52.61"/>
<polygon fill="midnightblue" stroke="midnightblue" points="1977,-79.27 1980.5,-89.27 1984,-79.27 1977,-79.27"/>
</g>
<!-- Node19 -->
<g id="node19" class="node">
<title>Node19</title>
<g id="a_node19"><a xlink:href="callbacks_8cpp.html" target="_top" xlink:title=" ">
<polygon fill="white" stroke="black" points="2066.5,-6 2066.5,-47 2200.5,-47 2200.5,-6 2066.5,-6"/>
<text text-anchor="start" x="2074.5" y="-35" font-family="Helvetica,sans-Serif" font-size="10.00">/home/jonathan/Works</text>
<text text-anchor="start" x="2074.5" y="-24" font-family="Helvetica,sans-Serif" font-size="10.00">/Tools/Triton/src/libtriton</text>
<text text-anchor="middle" x="2133.5" y="-13" font-family="Helvetica,sans-Serif" font-size="10.00">/callbacks/callbacks.cpp</text>
</a>
</g>
</g>
<!-- Node16&#45;&gt;Node19 -->
<g id="edge18" class="edge">
<title>Node16&#45;&gt;Node19</title>
<path fill="none" stroke="midnightblue" d="M2026.21,-84.65C2048.8,-72.62 2075.68,-58.3 2096.89,-47"/>
<polygon fill="midnightblue" stroke="midnightblue" points="2024.33,-81.69 2017.15,-89.48 2027.62,-87.87 2024.33,-81.69"/>
</g>
<!-- Node20&#45;&gt;Node16 -->
<g id="edge20" class="edge">
<title>Node20&#45;&gt;Node16</title>
<path fill="none" stroke="midnightblue" d="M2089.39,-163.05C2067.46,-152.57 2042.06,-140.42 2021.31,-130.51"/>
<polygon fill="midnightblue" stroke="midnightblue" points="2088.02,-166.27 2098.55,-167.43 2091.04,-159.96 2088.02,-166.27"/>
</g>
<!-- Node21&#45;&gt;Node20 -->
<g id="edge23" class="edge">
<title>Node21&#45;&gt;Node20</title>
<path fill="none" stroke="midnightblue" d="M2002.77,-241.75C2030.35,-231.11 2062.66,-218.65 2088.94,-208.51"/>
<polygon fill="midnightblue" stroke="midnightblue" points="2001.3,-238.56 1993.23,-245.43 2003.82,-245.09 2001.3,-238.56"/>
</g>
<!-- Node22 -->
<g id="node22" class="node">
<title>Node22</title>
<g id="a_node22"><a xlink:href="liftingToPython_8cpp.html" target="_top" xlink:title=" ">
<polygon fill="white" stroke="black" points="1850.5,-167.5 1850.5,-208.5 2034.5,-208.5 2034.5,-167.5 1850.5,-167.5"/>
<text text-anchor="start" x="1858.5" y="-196.5" font-family="Helvetica,sans-Serif" font-size="10.00">/home/jonathan/Works</text>
<text text-anchor="start" x="1858.5" y="-185.5" font-family="Helvetica,sans-Serif" font-size="10.00">/Tools/Triton/src/libtriton</text>
<text text-anchor="middle" x="1942.5" y="-174.5" font-family="Helvetica,sans-Serif" font-size="10.00">/engines/lifters/liftingToPython.cpp</text>
</a>
</g>
</g>
<!-- Node21&#45;&gt;Node22 -->
<g id="edge22" class="edge">
<title>Node21&#45;&gt;Node22</title>
<path fill="none" stroke="midnightblue" d="M1942.5,-235.3C1942.5,-226.3 1942.5,-216.65 1942.5,-208.51"/>
<polygon fill="midnightblue" stroke="midnightblue" points="1939,-235.43 1942.5,-245.43 1946,-235.43 1939,-235.43"/>
</g>
<!-- Node23&#45;&gt;Node20 -->
<g id="edge26" class="edge">
<title>Node23&#45;&gt;Node20</title>
<path fill="none" stroke="midnightblue" d="M2188.06,-238.2C2178.4,-228.42 2167.66,-217.54 2158.75,-208.51"/>
<polygon fill="midnightblue" stroke="midnightblue" points="2185.67,-240.77 2195.19,-245.43 2190.65,-235.85 2185.67,-240.77"/>
</g>
<!-- Node24 -->
<g id="node24" class="node">
<title>Node24</title>
<g id="a_node24"><a xlink:href="liftingToSMT_8cpp.html" target="_top" xlink:title=" ">
<polygon fill="white" stroke="black" points="2244.5,-167.5 2244.5,-208.5 2414.5,-208.5 2414.5,-167.5 2244.5,-167.5"/>
<text text-anchor="start" x="2252.5" y="-196.5" font-family="Helvetica,sans-Serif" font-size="10.00">/home/jonathan/Works</text>
<text text-anchor="start" x="2252.5" y="-185.5" font-family="Helvetica,sans-Serif" font-size="10.00">/Tools/Triton/src/libtriton</text>
<text text-anchor="middle" x="2329.5" y="-174.5" font-family="Helvetica,sans-Serif" font-size="10.00">/engines/lifters/liftingToSMT.cpp</text>
</a>
</g>
</g>
<!-- Node23&#45;&gt;Node24 -->
<g id="edge25" class="edge">
<title>Node23&#45;&gt;Node24</title>
<path fill="none" stroke="midnightblue" d="M2252.88,-239.64C2268.24,-229.49 2285.65,-217.98 2299.99,-208.51"/>
<polygon fill="midnightblue" stroke="midnightblue" points="2250.53,-236.99 2244.12,-245.43 2254.39,-242.83 2250.53,-236.99"/>
</g>
<!-- Node25&#45;&gt;Node14 -->
<g id="edge28" class="edge">
<title>Node25&#45;&gt;Node14</title>
<path fill="none" stroke="midnightblue" d="M1797.38,-326.84C1790.01,-325.37 1782.64,-324.06 1775.5,-323 1489.28,-280.68 1413.4,-315.78 1125.5,-287 1114.18,-285.87 1102.36,-284.48 1090.62,-282.96"/>
<polygon fill="midnightblue" stroke="midnightblue" points="1796.9,-330.32 1807.4,-328.94 1798.33,-323.47 1796.9,-330.32"/>
</g>
<!-- Node25&#45;&gt;Node16 -->
<g id="edge32" class="edge">
<title>Node25&#45;&gt;Node16</title>
<path fill="none" stroke="midnightblue" d="M1857.54,-320.64C1850.67,-310.65 1844.03,-298.9 1840.5,-287 1835.15,-268.96 1833.13,-179.22 1841.5,-167 1857.96,-142.96 1886.62,-129.23 1913.66,-121.4"/>
<polygon fill="midnightblue" stroke="midnightblue" points="1854.85,-322.9 1863.56,-328.93 1860.51,-318.79 1854.85,-322.9"/>
</g>
<!-- Node25&#45;&gt;Node20 -->
<g id="edge39" class="edge">
<title>Node25&#45;&gt;Node20</title>
<path fill="none" stroke="midnightblue" d="M1961.8,-325.64C1989,-316 2018.69,-303.19 2043.5,-287 2048.01,-284.05 2094.13,-236.28 2120.77,-208.55"/>
<polygon fill="midnightblue" stroke="midnightblue" points="1960.61,-322.35 1952.3,-328.91 1962.89,-328.96 1960.61,-322.35"/>
</g>
<!-- Node25&#45;&gt;Node21 -->
<g id="edge40" class="edge">
<title>Node25&#45;&gt;Node21</title>
<path fill="none" stroke="midnightblue" d="M1901.76,-320.55C1910.28,-309.36 1919.88,-296.73 1927.63,-286.55"/>
<polygon fill="midnightblue" stroke="midnightblue" points="1898.78,-318.69 1895.51,-328.77 1904.35,-322.93 1898.78,-318.69"/>
</g>
<!-- Node25&#45;&gt;Node23 -->
<g id="edge41" class="edge">
<title>Node25&#45;&gt;Node23</title>
<path fill="none" stroke="midnightblue" d="M1970.24,-326.6C2021.45,-314.11 2085.09,-298.58 2134.57,-286.5"/>
<polygon fill="midnightblue" stroke="midnightblue" points="1969.39,-323.21 1960.5,-328.98 1971.05,-330.01 1969.39,-323.21"/>
</g>
<!-- Node26 -->
<g id="node26" class="node">
<title>Node26</title>
<g id="a_node26"><a xlink:href="aarch64Semantics_8hpp.html" target="_top" xlink:title=" ">
<polygon fill="white" stroke="black" points="1001,-167.5 1001,-208.5 1204,-208.5 1204,-167.5 1001,-167.5"/>
<text text-anchor="start" x="1009" y="-196.5" font-family="Helvetica,sans-Serif" font-size="10.00">/home/jonathan/Works</text>
<text text-anchor="start" x="1009" y="-185.5" font-family="Helvetica,sans-Serif" font-size="10.00">/Tools/Triton/src/libtriton</text>
<text text-anchor="middle" x="1102.5" y="-174.5" font-family="Helvetica,sans-Serif" font-size="10.00">/includes/triton/aarch64Semantics.hpp</text>
</a>
</g>
</g>
<!-- Node25&#45;&gt;Node26 -->
<g id="edge29" class="edge">
<title>Node25&#45;&gt;Node26</title>
<path fill="none" stroke="midnightblue" d="M1796.07,-326.81C1789.14,-325.39 1782.22,-324.1 1775.5,-323 1589.72,-292.7 1536.84,-329.67 1353.5,-287 1276.04,-268.97 1190.77,-231.67 1142.22,-208.65"/>
<polygon fill="midnightblue" stroke="midnightblue" points="1795.71,-330.31 1806.22,-328.97 1797.17,-323.47 1795.71,-330.31"/>
</g>
<!-- Node27 -->
<g id="node27" class="node">
<title>Node27</title>
<g id="a_node27"><a xlink:href="arm32Semantics_8hpp.html" target="_top" xlink:title=" ">
<polygon fill="white" stroke="black" points="787.5,-167.5 787.5,-208.5 983.5,-208.5 983.5,-167.5 787.5,-167.5"/>
<text text-anchor="start" x="795.5" y="-196.5" font-family="Helvetica,sans-Serif" font-size="10.00">/home/jonathan/Works</text>
<text text-anchor="start" x="795.5" y="-185.5" font-family="Helvetica,sans-Serif" font-size="10.00">/Tools/Triton/src/libtriton</text>
<text text-anchor="middle" x="885.5" y="-174.5" font-family="Helvetica,sans-Serif" font-size="10.00">/includes/triton/arm32Semantics.hpp</text>
</a>
</g>
</g>
<!-- Node25&#45;&gt;Node27 -->
<g id="edge33" class="edge">
<title>Node25&#45;&gt;Node27</title>
<path fill="none" stroke="midnightblue" d="M1797.17,-326.88C1789.87,-325.41 1782.58,-324.08 1775.5,-323 1532.91,-285.9 1465.27,-334.48 1224.5,-287 1167,-275.66 1155.66,-261.76 1099.5,-245 1055.43,-231.85 1005.77,-218.75 965.38,-208.53"/>
<polygon fill="midnightblue" stroke="midnightblue" points="1796.6,-330.34 1807.1,-328.97 1798.04,-323.49 1796.6,-330.34"/>
</g>
<!-- Node28 -->
<g id="node28" class="node">
<title>Node28</title>
<g id="a_node28"><a xlink:href="irBuilder_8hpp.html" target="_top" xlink:title=" ">
<polygon fill="white" stroke="black" points="1602.5,-167.5 1602.5,-208.5 1756.5,-208.5 1756.5,-167.5 1602.5,-167.5"/>
<text text-anchor="start" x="1610.5" y="-196.5" font-family="Helvetica,sans-Serif" font-size="10.00">/home/jonathan/Works</text>
<text text-anchor="start" x="1610.5" y="-185.5" font-family="Helvetica,sans-Serif" font-size="10.00">/Tools/Triton/src/libtriton</text>
<text text-anchor="middle" x="1679.5" y="-174.5" font-family="Helvetica,sans-Serif" font-size="10.00">/includes/triton/irBuilder.hpp</text>
</a>
</g>
</g>
<!-- Node25&#45;&gt;Node28 -->
<g id="edge36" class="edge">
<title>Node25&#45;&gt;Node28</title>
<path fill="none" stroke="midnightblue" d="M1847.97,-322.69C1807.86,-290.85 1740.55,-237.45 1704.35,-208.72"/>
<polygon fill="midnightblue" stroke="midnightblue" points="1845.84,-325.47 1855.85,-328.94 1850.2,-319.98 1845.84,-325.47"/>
</g>
<!-- Node25&#45;&gt;Node29 -->
<g id="edge42" class="edge">
<title>Node25&#45;&gt;Node29</title>
<path fill="none" stroke="midnightblue" d="M1986.18,-334.29C2073.1,-322.37 2199.43,-304.54 2309.5,-287 2319.02,-285.48 2328.99,-283.83 2338.88,-282.15"/>
<polygon fill="midnightblue" stroke="midnightblue" points="1985.48,-330.85 1976.05,-335.67 1986.43,-337.79 1985.48,-330.85"/>
</g>
<!-- Node31 -->
<g id="node31" class="node">
<title>Node31</title>
<g id="a_node31"><a xlink:href="taintEngine_8hpp.html" target="_top" xlink:title=" ">
<polygon fill="white" stroke="black" points="1419,-245.5 1419,-286.5 1588,-286.5 1588,-245.5 1419,-245.5"/>
<text text-anchor="start" x="1427" y="-274.5" font-family="Helvetica,sans-Serif" font-size="10.00">/home/jonathan/Works</text>
<text text-anchor="start" x="1427" y="-263.5" font-family="Helvetica,sans-Serif" font-size="10.00">/Tools/Triton/src/libtriton</text>
<text text-anchor="middle" x="1503.5" y="-252.5" font-family="Helvetica,sans-Serif" font-size="10.00">/includes/triton/taintEngine.hpp</text>
</a>
</g>
</g>
<!-- Node25&#45;&gt;Node31 -->
<g id="edge45" class="edge">
<title>Node25&#45;&gt;Node31</title>
<path fill="none" stroke="midnightblue" d="M1791.62,-326.68C1786.17,-325.42 1780.76,-324.18 1775.5,-323 1712.93,-308.97 1641.96,-294.4 1588.2,-283.64"/>
<polygon fill="midnightblue" stroke="midnightblue" points="1790.92,-330.11 1801.45,-328.99 1792.51,-323.3 1790.92,-330.11"/>
</g>
<!-- Node33 -->
<g id="node33" class="node">
<title>Node33</title>
<g id="a_node33"><a xlink:href="x86Semantics_8hpp.html" target="_top" xlink:title=" ">
<polygon fill="white" stroke="black" points="1222.5,-167.5 1222.5,-208.5 1404.5,-208.5 1404.5,-167.5 1222.5,-167.5"/>
<text text-anchor="start" x="1230.5" y="-196.5" font-family="Helvetica,sans-Serif" font-size="10.00">/home/jonathan/Works</text>
<text text-anchor="start" x="1230.5" y="-185.5" font-family="Helvetica,sans-Serif" font-size="10.00">/Tools/Triton/src/libtriton</text>
<text text-anchor="middle" x="1313.5" y="-174.5" font-family="Helvetica,sans-Serif" font-size="10.00">/includes/triton/x86Semantics.hpp</text>
</a>
</g>
</g>
<!-- Node25&#45;&gt;Node33 -->
<g id="edge54" class="edge">
<title>Node25&#45;&gt;Node33</title>
<path fill="none" stroke="midnightblue" d="M1795.67,-326.83C1788.87,-325.42 1782.09,-324.12 1775.5,-323 1614.35,-295.65 1556.9,-357.64 1409.5,-287 1372.99,-269.5 1342.63,-232.03 1326.36,-208.82"/>
<polygon fill="midnightblue" stroke="midnightblue" points="1795.12,-330.29 1805.63,-328.97 1796.59,-323.44 1795.12,-330.29"/>
</g>
<!-- Node26&#45;&gt;Node2 -->
<g id="edge30" class="edge">
<title>Node26&#45;&gt;Node2</title>
<path fill="none" stroke="midnightblue" d="M990.97,-166.79C876.67,-149.14 756.42,-133.88 671.85,-123.7"/>
<polygon fill="midnightblue" stroke="midnightblue" points="990.52,-170.27 1000.94,-168.34 991.6,-163.35 990.52,-170.27"/>
</g>
<!-- Node26&#45;&gt;Node4 -->
<g id="edge31" class="edge">
<title>Node26&#45;&gt;Node4</title>
<path fill="none" stroke="midnightblue" d="M1102.5,-157.3C1102.5,-148.3 1102.5,-138.65 1102.5,-130.51"/>
<polygon fill="midnightblue" stroke="midnightblue" points="1099,-157.43 1102.5,-167.43 1106,-157.43 1099,-157.43"/>
</g>
<!-- Node27&#45;&gt;Node3 -->
<g id="edge34" class="edge">
<title>Node27&#45;&gt;Node3</title>
<path fill="none" stroke="midnightblue" d="M777.13,-176.49C625.28,-161.77 351.25,-135.21 203.12,-120.85"/>
<polygon fill="midnightblue" stroke="midnightblue" points="777.1,-180.01 787.4,-177.49 777.78,-173.04 777.1,-180.01"/>
</g>
<!-- Node27&#45;&gt;Node4 -->
<g id="edge35" class="edge">
<title>Node27&#45;&gt;Node4</title>
<path fill="none" stroke="midnightblue" d="M951.1,-164.03C981.64,-153.33 1017.6,-140.73 1046.81,-130.51"/>
<polygon fill="midnightblue" stroke="midnightblue" points="949.66,-160.82 941.38,-167.43 951.98,-167.43 949.66,-160.82"/>
</g>
<!-- Node28&#45;&gt;Node4 -->
<g id="edge37" class="edge">
<title>Node28&#45;&gt;Node4</title>
<path fill="none" stroke="midnightblue" d="M1591.93,-166.82C1435.15,-140.25 1261.88,-123.87 1169.16,-116.16"/>
<polygon fill="midnightblue" stroke="midnightblue" points="1591.78,-170.35 1602.23,-168.59 1592.97,-163.45 1591.78,-170.35"/>
</g>
<!-- Node28&#45;&gt;Node16 -->
<g id="edge38" class="edge">
<title>Node28&#45;&gt;Node16</title>
<path fill="none" stroke="midnightblue" d="M1766.48,-165.04C1813.4,-153.19 1870.42,-138.79 1913.8,-127.84"/>
<polygon fill="midnightblue" stroke="midnightblue" points="1765.46,-161.69 1756.62,-167.53 1767.18,-168.47 1765.46,-161.69"/>
</g>
<!-- Node29&#45;&gt;Node16 -->
<g id="edge44" class="edge">
<title>Node29&#45;&gt;Node16</title>
<path fill="none" stroke="midnightblue" d="M2432.85,-235.47C2437.69,-213.9 2439.65,-185.32 2423.5,-167 2399.05,-139.27 2165.08,-121.77 2047.4,-114.65"/>
<polygon fill="midnightblue" stroke="midnightblue" points="2429.39,-234.87 2430.31,-245.43 2436.18,-236.61 2429.39,-234.87"/>
</g>
<!-- Node30 -->
<g id="node30" class="node">
<title>Node30</title>
<g id="a_node30"><a xlink:href="synthesizer_8cpp.html" target="_top" xlink:title=" ">
<polygon fill="white" stroke="black" points="2470.5,-167.5 2470.5,-208.5 2656.5,-208.5 2656.5,-167.5 2470.5,-167.5"/>
<text text-anchor="start" x="2478.5" y="-196.5" font-family="Helvetica,sans-Serif" font-size="10.00">/home/jonathan/Works</text>
<text text-anchor="start" x="2478.5" y="-185.5" font-family="Helvetica,sans-Serif" font-size="10.00">/Tools/Triton/src/libtriton</text>
<text text-anchor="middle" x="2563.5" y="-174.5" font-family="Helvetica,sans-Serif" font-size="10.00">/engines/synthesis/synthesizer.cpp</text>
</a>
</g>
</g>
<!-- Node29&#45;&gt;Node30 -->
<g id="edge43" class="edge">
<title>Node29&#45;&gt;Node30</title>
<path fill="none" stroke="midnightblue" d="M2468.4,-240.63C2487.53,-230.24 2509.54,-218.29 2527.57,-208.51"/>
<polygon fill="midnightblue" stroke="midnightblue" points="2466.67,-237.58 2459.55,-245.43 2470.01,-243.73 2466.67,-237.58"/>
</g>
<!-- Node31&#45;&gt;Node16 -->
<g id="edge48" class="edge">
<title>Node31&#45;&gt;Node16</title>
<path fill="none" stroke="midnightblue" d="M1598.37,-257.66C1650.19,-250.55 1714.1,-236.56 1765.5,-209 1789.04,-196.38 1785.64,-180.83 1808.5,-167 1840.74,-147.49 1880.55,-133.97 1913.75,-125.1"/>
<polygon fill="midnightblue" stroke="midnightblue" points="1597.63,-254.23 1588.17,-258.99 1598.54,-261.17 1597.63,-254.23"/>
</g>
<!-- Node31&#45;&gt;Node26 -->
<g id="edge47" class="edge">
<title>Node31&#45;&gt;Node26</title>
<path fill="none" stroke="midnightblue" d="M1408.86,-247.06C1347.36,-235.41 1267.23,-220.22 1204.34,-208.3"/>
<polygon fill="midnightblue" stroke="midnightblue" points="1408.47,-250.55 1418.95,-248.98 1409.77,-243.67 1408.47,-250.55"/>
</g>
<!-- Node31&#45;&gt;Node27 -->
<g id="edge49" class="edge">
<title>Node31&#45;&gt;Node27</title>
<path fill="none" stroke="midnightblue" d="M1408.92,-256.87C1305.96,-247.5 1136.58,-230.59 991.5,-209 988.91,-208.61 986.28,-208.21 983.63,-207.79"/>
<polygon fill="midnightblue" stroke="midnightblue" points="1408.71,-260.36 1418.98,-257.78 1409.34,-253.39 1408.71,-260.36"/>
</g>
<!-- Node31&#45;&gt;Node28 -->
<g id="edge50" class="edge">
<title>Node31&#45;&gt;Node28</title>
<path fill="none" stroke="midnightblue" d="M1558.32,-241.33C1582.74,-230.78 1611.15,-218.51 1634.33,-208.51"/>
<polygon fill="midnightblue" stroke="midnightblue" points="1556.62,-238.25 1548.82,-245.43 1559.39,-244.68 1556.62,-238.25"/>
</g>
<!-- Node32 -->
<g id="node32" class="node">
<title>Node32</title>
<g id="a_node32"><a xlink:href="taintEngine_8cpp.html" target="_top" xlink:title=" ">
<polygon fill="white" stroke="black" points="1422.5,-167.5 1422.5,-208.5 1584.5,-208.5 1584.5,-167.5 1422.5,-167.5"/>
<text text-anchor="start" x="1430.5" y="-196.5" font-family="Helvetica,sans-Serif" font-size="10.00">/home/jonathan/Works</text>
<text text-anchor="start" x="1430.5" y="-185.5" font-family="Helvetica,sans-Serif" font-size="10.00">/Tools/Triton/src/libtriton</text>
<text text-anchor="middle" x="1503.5" y="-174.5" font-family="Helvetica,sans-Serif" font-size="10.00">/engines/taint/taintEngine.cpp</text>
</a>
</g>
</g>
<!-- Node31&#45;&gt;Node32 -->
<g id="edge46" class="edge">
<title>Node31&#45;&gt;Node32</title>
<path fill="none" stroke="midnightblue" d="M1503.5,-235.3C1503.5,-226.3 1503.5,-216.65 1503.5,-208.51"/>
<polygon fill="midnightblue" stroke="midnightblue" points="1500,-235.43 1503.5,-245.43 1507,-235.43 1500,-235.43"/>
</g>
<!-- Node31&#45;&gt;Node33 -->
<g id="edge51" class="edge">
<title>Node31&#45;&gt;Node33</title>
<path fill="none" stroke="midnightblue" d="M1445.02,-241.61C1418.5,-231 1387.5,-218.6 1362.26,-208.51"/>
<polygon fill="midnightblue" stroke="midnightblue" points="1443.99,-244.96 1454.57,-245.43 1446.59,-238.46 1443.99,-244.96"/>
</g>
<!-- Node33&#45;&gt;Node4 -->
<g id="edge52" class="edge">
<title>Node33&#45;&gt;Node4</title>
<path fill="none" stroke="midnightblue" d="M1249.72,-164.03C1220.01,-153.33 1185.05,-140.73 1156.65,-130.51"/>
<polygon fill="midnightblue" stroke="midnightblue" points="1248.57,-167.33 1259.16,-167.43 1250.94,-160.75 1248.57,-167.33"/>
</g>
<!-- Node33&#45;&gt;Node5 -->
<g id="edge53" class="edge">
<title>Node33&#45;&gt;Node5</title>
<path fill="none" stroke="midnightblue" d="M1212.81,-167.06C1212.7,-167.04 1212.6,-167.02 1212.5,-167 1126.06,-151.11 1026.57,-134.45 959.62,-123.47"/>
<polygon fill="midnightblue" stroke="midnightblue" points="1211.93,-170.45 1222.4,-168.84 1213.21,-163.57 1211.93,-170.45"/>
</g>
</g>
</svg>
