<?xml version="1.0" encoding="UTF-8" standalone="no"?>
<!DOCTYPE svg PUBLIC "-//W3C//DTD SVG 1.1//EN"
 "http://www.w3.org/Graphics/SVG/1.1/DTD/svg11.dtd">
<!-- Generated by graphviz version 2.49.0 (20210828.1703)
 -->
<!-- Title: /home/jonathan/Works/Tools/Triton/src/libtriton/includes/triton/astContext.hpp Pages: 1 -->
<svg width="2856pt" height="306pt"
 viewBox="0.00 0.00 2856.00 306.00" xmlns="http://www.w3.org/2000/svg" xmlns:xlink="http://www.w3.org/1999/xlink">
<g id="graph0" class="graph" transform="scale(1 1) rotate(0) translate(4 302)">
<title>/home/jonathan/Works/Tools/Triton/src/libtriton/includes/triton/astContext.hpp</title>
<polygon fill="white" stroke="transparent" points="-4,4 -4,-302 2852,-302 2852,4 -4,4"/>
<!-- Node1 -->
<g id="node1" class="node">
<title>Node1</title>
<g id="a_node1"><a xlink:title=" ">
<polygon fill="#bfbfbf" stroke="black" points="1300.5,-256.5 1300.5,-297.5 1467.5,-297.5 1467.5,-256.5 1300.5,-256.5"/>
<text text-anchor="start" x="1308.5" y="-285.5" font-family="Helvetica,sans-Serif" font-size="10.00">/home/jonathan/Works</text>
<text text-anchor="start" x="1308.5" y="-274.5" font-family="Helvetica,sans-Serif" font-size="10.00">/Tools/Triton/src/libtriton</text>
<text text-anchor="middle" x="1384" y="-263.5" font-family="Helvetica,sans-Serif" font-size="10.00">/includes/triton/astContext.hpp</text>
</a>
</g>
</g>
<!-- Node2 -->
<g id="node2" class="node">
<title>Node2</title>
<g id="a_node2"><a xlink:href="aarch64Semantics_8cpp.html" target="_top" xlink:title=" ">
<polygon fill="white" stroke="black" points="0,-173 0,-214 218,-214 218,-173 0,-173"/>
<text text-anchor="start" x="8" y="-202" font-family="Helvetica,sans-Serif" font-size="10.00">/home/jonathan/Works</text>
<text text-anchor="start" x="8" y="-191" font-family="Helvetica,sans-Serif" font-size="10.00">/Tools/Triton/src/libtriton</text>
<text text-anchor="middle" x="109" y="-180" font-family="Helvetica,sans-Serif" font-size="10.00">/arch/arm/aarch64/aarch64Semantics.cpp</text>
</a>
</g>
</g>
<!-- Node1&#45;&gt;Node2 -->
<g id="edge1" class="edge">
<title>Node1&#45;&gt;Node2</title>
<path fill="none" stroke="midnightblue" d="M1290.41,-276.67C1092.97,-276.94 619.7,-271.58 227,-220 215.26,-218.46 202.95,-216.35 190.9,-214.01"/>
<polygon fill="midnightblue" stroke="midnightblue" points="1290.46,-280.17 1300.45,-276.65 1290.44,-273.17 1290.46,-280.17"/>
</g>
<!-- Node3 -->
<g id="node3" class="node">
<title>Node3</title>
<g id="a_node3"><a xlink:href="arm32Semantics_8cpp.html" target="_top" xlink:title=" ">
<polygon fill="white" stroke="black" points="236.5,-173 236.5,-214 439.5,-214 439.5,-173 236.5,-173"/>
<text text-anchor="start" x="244.5" y="-202" font-family="Helvetica,sans-Serif" font-size="10.00">/home/jonathan/Works</text>
<text text-anchor="start" x="244.5" y="-191" font-family="Helvetica,sans-Serif" font-size="10.00">/Tools/Triton/src/libtriton</text>
<text text-anchor="middle" x="338" y="-180" font-family="Helvetica,sans-Serif" font-size="10.00">/arch/arm/arm32/arm32Semantics.cpp</text>
</a>
</g>
</g>
<!-- Node1&#45;&gt;Node3 -->
<g id="edge2" class="edge">
<title>Node1&#45;&gt;Node3</title>
<path fill="none" stroke="midnightblue" d="M1290.13,-275.59C1120.93,-273.69 753.9,-264.29 448,-220 437.23,-218.44 425.96,-216.36 414.92,-214.06"/>
<polygon fill="midnightblue" stroke="midnightblue" points="1290.22,-279.09 1300.25,-275.69 1290.29,-272.09 1290.22,-279.09"/>
</g>
<!-- Node4 -->
<g id="node4" class="node">
<title>Node4</title>
<g id="a_node4"><a xlink:href="irBuilder_8cpp.html" target="_top" xlink:title=" ">
<polygon fill="white" stroke="black" points="457.5,-173 457.5,-214 590.5,-214 590.5,-173 457.5,-173"/>
<text text-anchor="start" x="465.5" y="-202" font-family="Helvetica,sans-Serif" font-size="10.00">/home/jonathan/Works</text>
<text text-anchor="start" x="465.5" y="-191" font-family="Helvetica,sans-Serif" font-size="10.00">/Tools/Triton/src/libtriton</text>
<text text-anchor="middle" x="524" y="-180" font-family="Helvetica,sans-Serif" font-size="10.00">/arch/irBuilder.cpp</text>
</a>
</g>
</g>
<!-- Node1&#45;&gt;Node4 -->
<g id="edge3" class="edge">
<title>Node1&#45;&gt;Node4</title>
<path fill="none" stroke="midnightblue" d="M1289.99,-276.89C1141.8,-276.6 845.49,-269.13 600,-220 592.36,-218.47 584.42,-216.39 576.69,-214.07"/>
<polygon fill="midnightblue" stroke="midnightblue" points="1290.39,-280.39 1300.4,-276.9 1290.4,-273.39 1290.39,-280.39"/>
</g>
<!-- Node5 -->
<g id="node5" class="node">
<title>Node5</title>
<g id="a_node5"><a xlink:href="x86Semantics_8cpp.html" target="_top" xlink:title=" ">
<polygon fill="white" stroke="black" points="609,-173 609,-214 763,-214 763,-173 609,-173"/>
<text text-anchor="start" x="617" y="-202" font-family="Helvetica,sans-Serif" font-size="10.00">/home/jonathan/Works</text>
<text text-anchor="start" x="617" y="-191" font-family="Helvetica,sans-Serif" font-size="10.00">/Tools/Triton/src/libtriton</text>
<text text-anchor="middle" x="686" y="-180" font-family="Helvetica,sans-Serif" font-size="10.00">/arch/x86/x86Semantics.cpp</text>
</a>
</g>
</g>
<!-- Node1&#45;&gt;Node5 -->
<g id="edge4" class="edge">
<title>Node1&#45;&gt;Node5</title>
<path fill="none" stroke="midnightblue" d="M1289.8,-273.13C1168.93,-268.14 953.22,-254.81 772,-220 763.74,-218.41 755.14,-216.36 746.71,-214.11"/>
<polygon fill="midnightblue" stroke="midnightblue" points="1289.99,-276.64 1300.12,-273.55 1290.27,-269.65 1289.99,-276.64"/>
</g>
<!-- Node6 -->
<g id="node6" class="node">
<title>Node6</title>
<g id="a_node6"><a xlink:href="ast_8cpp.html" target="_top" xlink:title=" ">
<polygon fill="white" stroke="black" points="781.5,-173 781.5,-214 914.5,-214 914.5,-173 781.5,-173"/>
<text text-anchor="start" x="789.5" y="-202" font-family="Helvetica,sans-Serif" font-size="10.00">/home/jonathan/Works</text>
<text text-anchor="start" x="789.5" y="-191" font-family="Helvetica,sans-Serif" font-size="10.00">/Tools/Triton/src/libtriton</text>
<text text-anchor="middle" x="848" y="-180" font-family="Helvetica,sans-Serif" font-size="10.00">/ast/ast.cpp</text>
</a>
</g>
</g>
<!-- Node1&#45;&gt;Node6 -->
<g id="edge5" class="edge">
<title>Node1&#45;&gt;Node6</title>
<path fill="none" stroke="midnightblue" d="M1290.21,-270.31C1196.36,-263.29 1048.33,-248.59 923,-220 915.89,-218.38 908.52,-216.34 901.28,-214.12"/>
<polygon fill="midnightblue" stroke="midnightblue" points="1290.02,-273.81 1300.25,-271.05 1290.53,-266.83 1290.02,-273.81"/>
</g>
<!-- Node7 -->
<g id="node7" class="node">
<title>Node7</title>
<g id="a_node7"><a xlink:href="astContext_8cpp.html" target="_top" xlink:title=" ">
<polygon fill="white" stroke="black" points="932.5,-173 932.5,-214 1065.5,-214 1065.5,-173 932.5,-173"/>
<text text-anchor="start" x="940.5" y="-202" font-family="Helvetica,sans-Serif" font-size="10.00">/home/jonathan/Works</text>
<text text-anchor="start" x="940.5" y="-191" font-family="Helvetica,sans-Serif" font-size="10.00">/Tools/Triton/src/libtriton</text>
<text text-anchor="middle" x="999" y="-180" font-family="Helvetica,sans-Serif" font-size="10.00">/ast/astContext.cpp</text>
</a>
</g>
</g>
<!-- Node1&#45;&gt;Node7 -->
<g id="edge6" class="edge">
<title>Node1&#45;&gt;Node7</title>
<path fill="none" stroke="midnightblue" d="M1290.24,-262.79C1228.34,-253.16 1145.72,-238.56 1074,-220 1067.34,-218.28 1060.43,-216.25 1053.6,-214.12"/>
<polygon fill="midnightblue" stroke="midnightblue" points="1289.96,-266.29 1300.38,-264.35 1291.03,-259.37 1289.96,-266.29"/>
</g>
<!-- Node8 -->
<g id="node8" class="node">
<title>Node8</title>
<g id="a_node8"><a xlink:href="z3ToTritonAst_8cpp.html" target="_top" xlink:title=" ">
<polygon fill="white" stroke="black" points="1083.5,-173 1083.5,-214 1220.5,-214 1220.5,-173 1083.5,-173"/>
<text text-anchor="start" x="1091.5" y="-202" font-family="Helvetica,sans-Serif" font-size="10.00">/home/jonathan/Works</text>
<text text-anchor="start" x="1091.5" y="-191" font-family="Helvetica,sans-Serif" font-size="10.00">/Tools/Triton/src/libtriton</text>
<text text-anchor="middle" x="1152" y="-180" font-family="Helvetica,sans-Serif" font-size="10.00">/ast/z3/z3ToTritonAst.cpp</text>
</a>
</g>
</g>
<!-- Node1&#45;&gt;Node8 -->
<g id="edge7" class="edge">
<title>Node1&#45;&gt;Node8</title>
<path fill="none" stroke="midnightblue" d="M1318.76,-253.08C1283.71,-240.77 1240.96,-225.75 1207.52,-214"/>
<polygon fill="midnightblue" stroke="midnightblue" points="1317.84,-256.47 1328.43,-256.48 1320.16,-249.86 1317.84,-256.47"/>
</g>
<!-- Node9 -->
<g id="node9" class="node">
<title>Node9</title>
<g id="a_node9"><a xlink:href="pyAstContext_8cpp.html" target="_top" xlink:title=" ">
<polygon fill="white" stroke="black" points="1239,-167.5 1239,-219.5 1375,-219.5 1375,-167.5 1239,-167.5"/>
<text text-anchor="start" x="1247" y="-207.5" font-family="Helvetica,sans-Serif" font-size="10.00">/home/jonathan/Works</text>
<text text-anchor="start" x="1247" y="-196.5" font-family="Helvetica,sans-Serif" font-size="10.00">/Tools/Triton/src/libtriton</text>
<text text-anchor="start" x="1247" y="-185.5" font-family="Helvetica,sans-Serif" font-size="10.00">/bindings/python/objects</text>
<text text-anchor="middle" x="1307" y="-174.5" font-family="Helvetica,sans-Serif" font-size="10.00">/pyAstContext.cpp</text>
</a>
</g>
</g>
<!-- Node1&#45;&gt;Node9 -->
<g id="edge8" class="edge">
<title>Node1&#45;&gt;Node9</title>
<path fill="none" stroke="midnightblue" d="M1358.46,-248.96C1349.51,-239.5 1339.51,-228.91 1330.72,-219.61"/>
<polygon fill="midnightblue" stroke="midnightblue" points="1355.95,-251.41 1365.36,-256.27 1361.04,-246.6 1355.95,-251.41"/>
</g>
<!-- Node10 -->
<g id="node10" class="node">
<title>Node10</title>
<g id="a_node10"><a xlink:href="pyAstNode_8cpp.html" target="_top" xlink:title=" ">
<polygon fill="white" stroke="black" points="1393,-167.5 1393,-219.5 1529,-219.5 1529,-167.5 1393,-167.5"/>
<text text-anchor="start" x="1401" y="-207.5" font-family="Helvetica,sans-Serif" font-size="10.00">/home/jonathan/Works</text>
<text text-anchor="start" x="1401" y="-196.5" font-family="Helvetica,sans-Serif" font-size="10.00">/Tools/Triton/src/libtriton</text>
<text text-anchor="start" x="1401" y="-185.5" font-family="Helvetica,sans-Serif" font-size="10.00">/bindings/python/objects</text>
<text text-anchor="middle" x="1461" y="-174.5" font-family="Helvetica,sans-Serif" font-size="10.00">/pyAstNode.cpp</text>
</a>
</g>
</g>
<!-- Node1&#45;&gt;Node10 -->
<g id="edge9" class="edge">
<title>Node1&#45;&gt;Node10</title>
<path fill="none" stroke="midnightblue" d="M1409.54,-248.96C1418.49,-239.5 1428.49,-228.91 1437.28,-219.61"/>
<polygon fill="midnightblue" stroke="midnightblue" points="1406.96,-246.6 1402.64,-256.27 1412.05,-251.41 1406.96,-246.6"/>
</g>
<!-- Node11 -->
<g id="node11" class="node">
<title>Node11</title>
<g id="a_node11"><a xlink:href="bitwuzlaSolver_8cpp.html" target="_top" xlink:title=" ">
<polygon fill="white" stroke="black" points="1547.5,-167.5 1547.5,-219.5 1682.5,-219.5 1682.5,-167.5 1547.5,-167.5"/>
<text text-anchor="start" x="1555.5" y="-207.5" font-family="Helvetica,sans-Serif" font-size="10.00">/home/jonathan/Works</text>
<text text-anchor="start" x="1555.5" y="-196.5" font-family="Helvetica,sans-Serif" font-size="10.00">/Tools/Triton/src/libtriton</text>
<text text-anchor="start" x="1555.5" y="-185.5" font-family="Helvetica,sans-Serif" font-size="10.00">/engines/solver/bitwuzla</text>
<text text-anchor="middle" x="1615" y="-174.5" font-family="Helvetica,sans-Serif" font-size="10.00">/bitwuzlaSolver.cpp</text>
</a>
</g>
</g>
<!-- Node1&#45;&gt;Node11 -->
<g id="edge10" class="edge">
<title>Node1&#45;&gt;Node11</title>
<path fill="none" stroke="midnightblue" d="M1449.07,-253.04C1479.75,-242.22 1516.34,-229.31 1547.34,-218.37"/>
<polygon fill="midnightblue" stroke="midnightblue" points="1447.6,-249.85 1439.33,-256.48 1449.93,-256.45 1447.6,-249.85"/>
</g>
<!-- Node12 -->
<g id="node12" class="node">
<title>Node12</title>
<g id="a_node12"><a xlink:href="z3Solver_8cpp.html" target="_top" xlink:title=" ">
<polygon fill="white" stroke="black" points="1701,-173 1701,-214 1871,-214 1871,-173 1701,-173"/>
<text text-anchor="start" x="1709" y="-202" font-family="Helvetica,sans-Serif" font-size="10.00">/home/jonathan/Works</text>
<text text-anchor="start" x="1709" y="-191" font-family="Helvetica,sans-Serif" font-size="10.00">/Tools/Triton/src/libtriton</text>
<text text-anchor="middle" x="1786" y="-180" font-family="Helvetica,sans-Serif" font-size="10.00">/engines/solver/z3/z3Solver.cpp</text>
</a>
</g>
</g>
<!-- Node1&#45;&gt;Node12 -->
<g id="edge11" class="edge">
<title>Node1&#45;&gt;Node12</title>
<path fill="none" stroke="midnightblue" d="M1477.76,-260.94C1538.76,-250.65 1619.9,-236 1691,-220 1699.08,-218.18 1707.51,-216.14 1715.86,-214.02"/>
<polygon fill="midnightblue" stroke="midnightblue" points="1477.05,-257.51 1467.77,-262.62 1478.21,-264.42 1477.05,-257.51"/>
</g>
<!-- Node13 -->
<g id="node13" class="node">
<title>Node13</title>
<g id="a_node13"><a xlink:href="pathManager_8cpp.html" target="_top" xlink:title=" ">
<polygon fill="white" stroke="black" points="1889,-173 1889,-214 2081,-214 2081,-173 1889,-173"/>
<text text-anchor="start" x="1897" y="-202" font-family="Helvetica,sans-Serif" font-size="10.00">/home/jonathan/Works</text>
<text text-anchor="start" x="1897" y="-191" font-family="Helvetica,sans-Serif" font-size="10.00">/Tools/Triton/src/libtriton</text>
<text text-anchor="middle" x="1985" y="-180" font-family="Helvetica,sans-Serif" font-size="10.00">/engines/symbolic/pathManager.cpp</text>
</a>
</g>
</g>
<!-- Node1&#45;&gt;Node13 -->
<g id="edge12" class="edge">
<title>Node1&#45;&gt;Node13</title>
<path fill="none" stroke="midnightblue" d="M1477.92,-268.94C1578.05,-260.59 1740.99,-244.63 1880,-220 1889.61,-218.3 1899.64,-216.24 1909.53,-214.03"/>
<polygon fill="midnightblue" stroke="midnightblue" points="1477.51,-265.46 1467.83,-269.77 1478.09,-272.44 1477.51,-265.46"/>
</g>
<!-- Node14 -->
<g id="node14" class="node">
<title>Node14</title>
<g id="a_node14"><a xlink:href="symbolicEngine_8cpp.html" target="_top" xlink:title=" ">
<polygon fill="white" stroke="black" points="2099,-173 2099,-214 2305,-214 2305,-173 2099,-173"/>
<text text-anchor="start" x="2107" y="-202" font-family="Helvetica,sans-Serif" font-size="10.00">/home/jonathan/Works</text>
<text text-anchor="start" x="2107" y="-191" font-family="Helvetica,sans-Serif" font-size="10.00">/Tools/Triton/src/libtriton</text>
<text text-anchor="middle" x="2202" y="-180" font-family="Helvetica,sans-Serif" font-size="10.00">/engines/symbolic/symbolicEngine.cpp</text>
</a>
</g>
</g>
<!-- Node1&#45;&gt;Node14 -->
<g id="edge13" class="edge">
<title>Node1&#45;&gt;Node14</title>
<path fill="none" stroke="midnightblue" d="M1477.95,-272.87C1613.71,-267.37 1872.33,-253.23 2090,-220 2100.65,-218.37 2111.78,-216.3 2122.73,-214.04"/>
<polygon fill="midnightblue" stroke="midnightblue" points="1477.45,-269.39 1467.59,-273.28 1477.72,-276.38 1477.45,-269.39"/>
</g>
<!-- Node15 -->
<g id="node15" class="node">
<title>Node15</title>
<g id="a_node15"><a xlink:href="symbolicExpression_8cpp.html" target="_top" xlink:title=" ">
<polygon fill="white" stroke="black" points="2323,-173 2323,-214 2549,-214 2549,-173 2323,-173"/>
<text text-anchor="start" x="2331" y="-202" font-family="Helvetica,sans-Serif" font-size="10.00">/home/jonathan/Works</text>
<text text-anchor="start" x="2331" y="-191" font-family="Helvetica,sans-Serif" font-size="10.00">/Tools/Triton/src/libtriton</text>
<text text-anchor="middle" x="2436" y="-180" font-family="Helvetica,sans-Serif" font-size="10.00">/engines/symbolic/symbolicExpression.cpp</text>
</a>
</g>
</g>
<!-- Node1&#45;&gt;Node15 -->
<g id="edge14" class="edge">
<title>Node1&#45;&gt;Node15</title>
<path fill="none" stroke="midnightblue" d="M1477.82,-274.87C1646.09,-271.83 2009.99,-260.7 2314,-220 2325.8,-218.42 2338.15,-216.34 2350.29,-214.05"/>
<polygon fill="midnightblue" stroke="midnightblue" points="1477.7,-271.37 1467.76,-275.04 1477.82,-278.37 1477.7,-271.37"/>
</g>
<!-- Node16 -->
<g id="node16" class="node">
<title>Node16</title>
<g id="a_node16"><a xlink:href="api_8hpp.html" target="_top" xlink:title=" ">
<polygon fill="white" stroke="black" points="2510.5,-89.5 2510.5,-130.5 2643.5,-130.5 2643.5,-89.5 2510.5,-89.5"/>
<text text-anchor="start" x="2518.5" y="-118.5" font-family="Helvetica,sans-Serif" font-size="10.00">/home/jonathan/Works</text>
<text text-anchor="start" x="2518.5" y="-107.5" font-family="Helvetica,sans-Serif" font-size="10.00">/Tools/Triton/src/libtriton</text>
<text text-anchor="middle" x="2577" y="-96.5" font-family="Helvetica,sans-Serif" font-size="10.00">/includes/triton/api.hpp</text>
</a>
</g>
</g>
<!-- Node1&#45;&gt;Node16 -->
<g id="edge15" class="edge">
<title>Node1&#45;&gt;Node16</title>
<path fill="none" stroke="midnightblue" d="M1478.09,-274.69C1749.61,-270.5 2517.73,-255.53 2558,-220 2583.06,-197.89 2582.83,-155.48 2580.12,-130.58"/>
<polygon fill="midnightblue" stroke="midnightblue" points="1477.81,-271.19 1467.87,-274.85 1477.92,-278.19 1477.81,-271.19"/>
</g>
<!-- Node20 -->
<g id="node20" class="node">
<title>Node20</title>
<g id="a_node20"><a xlink:href="synthesizer_8hpp.html" target="_top" xlink:title=" ">
<polygon fill="white" stroke="black" points="2604.5,-173 2604.5,-214 2773.5,-214 2773.5,-173 2604.5,-173"/>
<text text-anchor="start" x="2612.5" y="-202" font-family="Helvetica,sans-Serif" font-size="10.00">/home/jonathan/Works</text>
<text text-anchor="start" x="2612.5" y="-191" font-family="Helvetica,sans-Serif" font-size="10.00">/Tools/Triton/src/libtriton</text>
<text text-anchor="middle" x="2689" y="-180" font-family="Helvetica,sans-Serif" font-size="10.00">/includes/triton/synthesizer.hpp</text>
</a>
</g>
</g>
<!-- Node1&#45;&gt;Node20 -->
<g id="edge19" class="edge">
<title>Node1&#45;&gt;Node20</title>
<path fill="none" stroke="midnightblue" d="M1478.23,-274.16C1723.4,-268.98 2376.95,-252.45 2591,-220 2600.91,-218.5 2611.26,-216.4 2621.37,-214.05"/>
<polygon fill="midnightblue" stroke="midnightblue" points="1477.85,-270.67 1467.92,-274.38 1477.99,-277.67 1477.85,-270.67"/>
</g>
<!-- Node17 -->
<g id="node17" class="node">
<title>Node17</title>
<g id="a_node17"><a xlink:href="api_8cpp.html" target="_top" xlink:title=" ">
<polygon fill="white" stroke="black" points="2357.5,-6 2357.5,-47 2490.5,-47 2490.5,-6 2357.5,-6"/>
<text text-anchor="start" x="2365.5" y="-35" font-family="Helvetica,sans-Serif" font-size="10.00">/home/jonathan/Works</text>
<text text-anchor="start" x="2365.5" y="-24" font-family="Helvetica,sans-Serif" font-size="10.00">/Tools/Triton/src/libtriton</text>
<text text-anchor="middle" x="2424" y="-13" font-family="Helvetica,sans-Serif" font-size="10.00">/api/api.cpp</text>
</a>
</g>
</g>
<!-- Node16&#45;&gt;Node17 -->
<g id="edge16" class="edge">
<title>Node16&#45;&gt;Node17</title>
<path fill="none" stroke="midnightblue" d="M2531.29,-84.65C2508.7,-72.62 2481.82,-58.3 2460.61,-47"/>
<polygon fill="midnightblue" stroke="midnightblue" points="2529.88,-87.87 2540.35,-89.48 2533.17,-81.69 2529.88,-87.87"/>
</g>
<!-- Node18 -->
<g id="node18" class="node">
<title>Node18</title>
<g id="a_node18"><a xlink:href="pyTritonContext_8cpp.html" target="_top" xlink:title=" ">
<polygon fill="white" stroke="black" points="2509,-0.5 2509,-52.5 2645,-52.5 2645,-0.5 2509,-0.5"/>
<text text-anchor="start" x="2517" y="-40.5" font-family="Helvetica,sans-Serif" font-size="10.00">/home/jonathan/Works</text>
<text text-anchor="start" x="2517" y="-29.5" font-family="Helvetica,sans-Serif" font-size="10.00">/Tools/Triton/src/libtriton</text>
<text text-anchor="start" x="2517" y="-18.5" font-family="Helvetica,sans-Serif" font-size="10.00">/bindings/python/objects</text>
<text text-anchor="middle" x="2577" y="-7.5" font-family="Helvetica,sans-Serif" font-size="10.00">/pyTritonContext.cpp</text>
</a>
</g>
</g>
<!-- Node16&#45;&gt;Node18 -->
<g id="edge17" class="edge">
<title>Node16&#45;&gt;Node18</title>
<path fill="none" stroke="midnightblue" d="M2577,-79.12C2577,-70.41 2577,-60.99 2577,-52.61"/>
<polygon fill="midnightblue" stroke="midnightblue" points="2573.5,-79.27 2577,-89.27 2580.5,-79.27 2573.5,-79.27"/>
</g>
<!-- Node19 -->
<g id="node19" class="node">
<title>Node19</title>
<g id="a_node19"><a xlink:href="callbacks_8cpp.html" target="_top" xlink:title=" ">
<polygon fill="white" stroke="black" points="2663,-6 2663,-47 2797,-47 2797,-6 2663,-6"/>
<text text-anchor="start" x="2671" y="-35" font-family="Helvetica,sans-Serif" font-size="10.00">/home/jonathan/Works</text>
<text text-anchor="start" x="2671" y="-24" font-family="Helvetica,sans-Serif" font-size="10.00">/Tools/Triton/src/libtriton</text>
<text text-anchor="middle" x="2730" y="-13" font-family="Helvetica,sans-Serif" font-size="10.00">/callbacks/callbacks.cpp</text>
</a>
</g>
</g>
<!-- Node16&#45;&gt;Node19 -->
<g id="edge18" class="edge">
<title>Node16&#45;&gt;Node19</title>
<path fill="none" stroke="midnightblue" d="M2622.71,-84.65C2645.3,-72.62 2672.18,-58.3 2693.39,-47"/>
<polygon fill="midnightblue" stroke="midnightblue" points="2620.83,-81.69 2613.65,-89.48 2624.12,-87.87 2620.83,-81.69"/>
</g>
<!-- Node20&#45;&gt;Node16 -->
<g id="edge21" class="edge">
<title>Node20&#45;&gt;Node16</title>
<path fill="none" stroke="midnightblue" d="M2654.02,-167.04C2637.88,-155.3 2619.01,-141.57 2604,-130.64"/>
<polygon fill="midnightblue" stroke="midnightblue" points="2652.03,-169.92 2662.17,-172.98 2656.15,-164.26 2652.03,-169.92"/>
</g>
<!-- Node21 -->
<g id="node21" class="node">
<title>Node21</title>
<g id="a_node21"><a xlink:href="synthesizer_8cpp.html" target="_top" xlink:title=" ">
<polygon fill="white" stroke="black" points="2662,-89.5 2662,-130.5 2848,-130.5 2848,-89.5 2662,-89.5"/>
<text text-anchor="start" x="2670" y="-118.5" font-family="Helvetica,sans-Serif" font-size="10.00">/home/jonathan/Works</text>
<text text-anchor="start" x="2670" y="-107.5" font-family="Helvetica,sans-Serif" font-size="10.00">/Tools/Triton/src/libtriton</text>
<text text-anchor="middle" x="2755" y="-96.5" font-family="Helvetica,sans-Serif" font-size="10.00">/engines/synthesis/synthesizer.cpp</text>
</a>
</g>
</g>
<!-- Node20&#45;&gt;Node21 -->
<g id="edge20" class="edge">
<title>Node20&#45;&gt;Node21</title>
<path fill="none" stroke="midnightblue" d="M2711.36,-164.88C2720.5,-153.61 2730.84,-140.83 2739.17,-130.55"/>
<polygon fill="midnightblue" stroke="midnightblue" points="2708.55,-162.8 2704.98,-172.77 2713.99,-167.2 2708.55,-162.8"/>
</g>
</g>
</svg>
