<?xml version="1.0" encoding="UTF-8" standalone="no"?>
<!DOCTYPE svg PUBLIC "-//W3C//DTD SVG 1.1//EN"
 "http://www.w3.org/Graphics/SVG/1.1/DTD/svg11.dtd">
<!-- Generated by graphviz version 2.49.0 (20210828.1703)
 -->
<!-- Title: /home/jonathan/Works/Tools/Triton/src/libtriton/includes/triton/astContext.hpp Pages: 1 -->
<svg width="2955pt" height="540pt"
 viewBox="0.00 0.00 2954.76 540.00" xmlns="http://www.w3.org/2000/svg" xmlns:xlink="http://www.w3.org/1999/xlink">
<g id="graph0" class="graph" transform="scale(1 1) rotate(0) translate(4 536)">
<title>/home/jonathan/Works/Tools/Triton/src/libtriton/includes/triton/astContext.hpp</title>
<polygon fill="white" stroke="transparent" points="-4,4 -4,-536 2950.76,-536 2950.76,4 -4,4"/>
<!-- Node1 -->
<g id="node1" class="node">
<title>Node1</title>
<g id="a_node1"><a xlink:title=" ">
<polygon fill="#bfbfbf" stroke="black" points="1011.5,-490.5 1011.5,-531.5 1178.5,-531.5 1178.5,-490.5 1011.5,-490.5"/>
<text text-anchor="start" x="1019.5" y="-519.5" font-family="Helvetica,sans-Serif" font-size="10.00">/home/jonathan/Works</text>
<text text-anchor="start" x="1019.5" y="-508.5" font-family="Helvetica,sans-Serif" font-size="10.00">/Tools/Triton/src/libtriton</text>
<text text-anchor="middle" x="1095" y="-497.5" font-family="Helvetica,sans-Serif" font-size="10.00">/includes/triton/astContext.hpp</text>
</a>
</g>
</g>
<!-- Node2 -->
<g id="node2" class="node">
<title>Node2</title>
<g id="a_node2"><a xlink:href="aarch64Semantics_8cpp.html" target="_top" xlink:title=" ">
<polygon fill="white" stroke="black" points="92,-167.5 92,-208.5 310,-208.5 310,-167.5 92,-167.5"/>
<text text-anchor="start" x="100" y="-196.5" font-family="Helvetica,sans-Serif" font-size="10.00">/home/jonathan/Works</text>
<text text-anchor="start" x="100" y="-185.5" font-family="Helvetica,sans-Serif" font-size="10.00">/Tools/Triton/src/libtriton</text>
<text text-anchor="middle" x="201" y="-174.5" font-family="Helvetica,sans-Serif" font-size="10.00">/arch/arm/aarch64/aarch64Semantics.cpp</text>
</a>
</g>
</g>
<!-- Node1&#45;&gt;Node2 -->
<g id="edge1" class="edge">
<title>Node1&#45;&gt;Node2</title>
<path fill="none" stroke="midnightblue" d="M1000.81,-508.24C755.95,-503.22 116.2,-486.97 85,-454 14.93,-379.94 128.93,-256.7 179.13,-208.85"/>
<polygon fill="midnightblue" stroke="midnightblue" points="1001.04,-511.75 1011.11,-508.45 1001.19,-504.75 1001.04,-511.75"/>
</g>
<!-- Node3 -->
<g id="node3" class="node">
<title>Node3</title>
<g id="a_node3"><a xlink:href="arm32Semantics_8cpp.html" target="_top" xlink:title=" ">
<polygon fill="white" stroke="black" points="842.5,-167.5 842.5,-208.5 1045.5,-208.5 1045.5,-167.5 842.5,-167.5"/>
<text text-anchor="start" x="850.5" y="-196.5" font-family="Helvetica,sans-Serif" font-size="10.00">/home/jonathan/Works</text>
<text text-anchor="start" x="850.5" y="-185.5" font-family="Helvetica,sans-Serif" font-size="10.00">/Tools/Triton/src/libtriton</text>
<text text-anchor="middle" x="944" y="-174.5" font-family="Helvetica,sans-Serif" font-size="10.00">/arch/arm/arm32/arm32Semantics.cpp</text>
</a>
</g>
</g>
<!-- Node1&#45;&gt;Node3 -->
<g id="edge2" class="edge">
<title>Node1&#45;&gt;Node3</title>
<path fill="none" stroke="midnightblue" d="M1001.69,-491.47C977.25,-483.15 952.35,-471.18 933,-454 902.15,-426.62 861.23,-327.2 852,-287 847.82,-268.81 842.85,-261.27 852,-245 860.89,-229.19 876.25,-217.32 891.9,-208.67"/>
<polygon fill="midnightblue" stroke="midnightblue" points="1000.79,-494.85 1011.38,-494.59 1002.94,-488.19 1000.79,-494.85"/>
</g>
<!-- Node4 -->
<g id="node4" class="node">
<title>Node4</title>
<g id="a_node4"><a xlink:href="irBuilder_8cpp.html" target="_top" xlink:title=" ">
<polygon fill="white" stroke="black" points="1120.5,-167.5 1120.5,-208.5 1253.5,-208.5 1253.5,-167.5 1120.5,-167.5"/>
<text text-anchor="start" x="1128.5" y="-196.5" font-family="Helvetica,sans-Serif" font-size="10.00">/home/jonathan/Works</text>
<text text-anchor="start" x="1128.5" y="-185.5" font-family="Helvetica,sans-Serif" font-size="10.00">/Tools/Triton/src/libtriton</text>
<text text-anchor="middle" x="1187" y="-174.5" font-family="Helvetica,sans-Serif" font-size="10.00">/arch/irBuilder.cpp</text>
</a>
</g>
</g>
<!-- Node1&#45;&gt;Node4 -->
<g id="edge3" class="edge">
<title>Node1&#45;&gt;Node4</title>
<path fill="none" stroke="midnightblue" d="M1188.84,-510.08C1291.79,-507.93 1447.44,-497.33 1485,-454 1500.43,-436.2 1500.52,-418.72 1485,-401 1445.13,-355.46 1270.72,-388.65 1215,-365 1187.33,-353.26 1189.74,-334.58 1162,-323 1100.65,-297.39 909.09,-336.76 865,-287 852.62,-273.03 852.98,-259.29 865,-245 869.11,-240.11 1027.07,-214.34 1120.19,-199.52"/>
<polygon fill="midnightblue" stroke="midnightblue" points="1188.67,-506.58 1178.74,-510.26 1188.8,-513.58 1188.67,-506.58"/>
</g>
<!-- Node5 -->
<g id="node5" class="node">
<title>Node5</title>
<g id="a_node5"><a xlink:href="x86Semantics_8cpp.html" target="_top" xlink:title=" ">
<polygon fill="white" stroke="black" points="556,-167.5 556,-208.5 710,-208.5 710,-167.5 556,-167.5"/>
<text text-anchor="start" x="564" y="-196.5" font-family="Helvetica,sans-Serif" font-size="10.00">/home/jonathan/Works</text>
<text text-anchor="start" x="564" y="-185.5" font-family="Helvetica,sans-Serif" font-size="10.00">/Tools/Triton/src/libtriton</text>
<text text-anchor="middle" x="633" y="-174.5" font-family="Helvetica,sans-Serif" font-size="10.00">/arch/x86/x86Semantics.cpp</text>
</a>
</g>
</g>
<!-- Node1&#45;&gt;Node5 -->
<g id="edge4" class="edge">
<title>Node1&#45;&gt;Node5</title>
<path fill="none" stroke="midnightblue" d="M1001.23,-508.07C762.26,-502.71 147.07,-485.85 117,-454 -22.85,-305.92 380.34,-226.41 555.82,-199.56"/>
<polygon fill="midnightblue" stroke="midnightblue" points="1001.22,-511.57 1011.29,-508.3 1001.37,-504.57 1001.22,-511.57"/>
</g>
<!-- Node6 -->
<g id="node6" class="node">
<title>Node6</title>
<g id="a_node6"><a xlink:href="ast_8cpp.html" target="_top" xlink:title=" ">
<polygon fill="white" stroke="black" points="142.5,-407 142.5,-448 275.5,-448 275.5,-407 142.5,-407"/>
<text text-anchor="start" x="150.5" y="-436" font-family="Helvetica,sans-Serif" font-size="10.00">/home/jonathan/Works</text>
<text text-anchor="start" x="150.5" y="-425" font-family="Helvetica,sans-Serif" font-size="10.00">/Tools/Triton/src/libtriton</text>
<text text-anchor="middle" x="209" y="-414" font-family="Helvetica,sans-Serif" font-size="10.00">/ast/ast.cpp</text>
</a>
</g>
</g>
<!-- Node1&#45;&gt;Node6 -->
<g id="edge5" class="edge">
<title>Node1&#45;&gt;Node6</title>
<path fill="none" stroke="midnightblue" d="M1001.27,-506.57C818.1,-499.38 418.78,-481.09 284,-454 276.45,-452.48 268.61,-450.41 260.98,-448.09"/>
<polygon fill="midnightblue" stroke="midnightblue" points="1001.29,-510.08 1011.42,-506.97 1001.56,-503.08 1001.29,-510.08"/>
</g>
<!-- Node7 -->
<g id="node7" class="node">
<title>Node7</title>
<g id="a_node7"><a xlink:href="astContext_8cpp.html" target="_top" xlink:title=" ">
<polygon fill="white" stroke="black" points="293.5,-407 293.5,-448 426.5,-448 426.5,-407 293.5,-407"/>
<text text-anchor="start" x="301.5" y="-436" font-family="Helvetica,sans-Serif" font-size="10.00">/home/jonathan/Works</text>
<text text-anchor="start" x="301.5" y="-425" font-family="Helvetica,sans-Serif" font-size="10.00">/Tools/Triton/src/libtriton</text>
<text text-anchor="middle" x="360" y="-414" font-family="Helvetica,sans-Serif" font-size="10.00">/ast/astContext.cpp</text>
</a>
</g>
</g>
<!-- Node1&#45;&gt;Node7 -->
<g id="edge6" class="edge">
<title>Node1&#45;&gt;Node7</title>
<path fill="none" stroke="midnightblue" d="M1001.26,-509.18C872.37,-506.44 633.77,-495.58 435,-454 427.6,-452.45 419.91,-450.39 412.41,-448.11"/>
<polygon fill="midnightblue" stroke="midnightblue" points="1001.42,-512.68 1011.49,-509.38 1001.56,-505.68 1001.42,-512.68"/>
</g>
<!-- Node8 -->
<g id="node8" class="node">
<title>Node8</title>
<g id="a_node8"><a xlink:href="z3ToTriton_8cpp.html" target="_top" xlink:title=" ">
<polygon fill="white" stroke="black" points="444.5,-407 444.5,-448 577.5,-448 577.5,-407 444.5,-407"/>
<text text-anchor="start" x="452.5" y="-436" font-family="Helvetica,sans-Serif" font-size="10.00">/home/jonathan/Works</text>
<text text-anchor="start" x="452.5" y="-425" font-family="Helvetica,sans-Serif" font-size="10.00">/Tools/Triton/src/libtriton</text>
<text text-anchor="middle" x="511" y="-414" font-family="Helvetica,sans-Serif" font-size="10.00">/ast/z3/z3ToTriton.cpp</text>
</a>
</g>
</g>
<!-- Node1&#45;&gt;Node8 -->
<g id="edge7" class="edge">
<title>Node1&#45;&gt;Node8</title>
<path fill="none" stroke="midnightblue" d="M1001.37,-505.68C898.7,-499.57 729.56,-485.39 587,-454 579.66,-452.38 572.04,-450.31 564.57,-448.06"/>
<polygon fill="midnightblue" stroke="midnightblue" points="1001.22,-509.18 1011.4,-506.27 1001.62,-502.19 1001.22,-509.18"/>
</g>
<!-- Node9 -->
<g id="node9" class="node">
<title>Node9</title>
<g id="a_node9"><a xlink:href="pyAstContext_8cpp.html" target="_top" xlink:title=" ">
<polygon fill="white" stroke="black" points="596,-401.5 596,-453.5 732,-453.5 732,-401.5 596,-401.5"/>
<text text-anchor="start" x="604" y="-441.5" font-family="Helvetica,sans-Serif" font-size="10.00">/home/jonathan/Works</text>
<text text-anchor="start" x="604" y="-430.5" font-family="Helvetica,sans-Serif" font-size="10.00">/Tools/Triton/src/libtriton</text>
<text text-anchor="start" x="604" y="-419.5" font-family="Helvetica,sans-Serif" font-size="10.00">/bindings/python/objects</text>
<text text-anchor="middle" x="664" y="-408.5" font-family="Helvetica,sans-Serif" font-size="10.00">/pyAstContext.cpp</text>
</a>
</g>
</g>
<!-- Node1&#45;&gt;Node9 -->
<g id="edge8" class="edge">
<title>Node1&#45;&gt;Node9</title>
<path fill="none" stroke="midnightblue" d="M1001.33,-499.41C929.5,-490.27 828.2,-475.19 741,-454 738.13,-453.3 735.21,-452.55 732.27,-451.75"/>
<polygon fill="midnightblue" stroke="midnightblue" points="1000.91,-502.89 1011.27,-500.66 1001.79,-495.94 1000.91,-502.89"/>
</g>
<!-- Node10 -->
<g id="node10" class="node">
<title>Node10</title>
<g id="a_node10"><a xlink:href="pyAstNode_8cpp.html" target="_top" xlink:title=" ">
<polygon fill="white" stroke="black" points="750,-401.5 750,-453.5 886,-453.5 886,-401.5 750,-401.5"/>
<text text-anchor="start" x="758" y="-441.5" font-family="Helvetica,sans-Serif" font-size="10.00">/home/jonathan/Works</text>
<text text-anchor="start" x="758" y="-430.5" font-family="Helvetica,sans-Serif" font-size="10.00">/Tools/Triton/src/libtriton</text>
<text text-anchor="start" x="758" y="-419.5" font-family="Helvetica,sans-Serif" font-size="10.00">/bindings/python/objects</text>
<text text-anchor="middle" x="818" y="-408.5" font-family="Helvetica,sans-Serif" font-size="10.00">/pyAstNode.cpp</text>
</a>
</g>
</g>
<!-- Node1&#45;&gt;Node10 -->
<g id="edge9" class="edge">
<title>Node1&#45;&gt;Node10</title>
<path fill="none" stroke="midnightblue" d="M1015.6,-487.62C980.17,-477.53 937.94,-465.35 900,-454 895.57,-452.68 891.01,-451.3 886.42,-449.9"/>
<polygon fill="midnightblue" stroke="midnightblue" points="1014.82,-491.04 1025.4,-490.41 1016.74,-484.31 1014.82,-491.04"/>
</g>
<!-- Node11 -->
<g id="node11" class="node">
<title>Node11</title>
<g id="a_node11"><a xlink:href="liftingToLLVM_8cpp.html" target="_top" xlink:title=" ">
<polygon fill="white" stroke="black" points="782,-0.5 782,-41.5 958,-41.5 958,-0.5 782,-0.5"/>
<text text-anchor="start" x="790" y="-29.5" font-family="Helvetica,sans-Serif" font-size="10.00">/home/jonathan/Works</text>
<text text-anchor="start" x="790" y="-18.5" font-family="Helvetica,sans-Serif" font-size="10.00">/Tools/Triton/src/libtriton</text>
<text text-anchor="middle" x="870" y="-7.5" font-family="Helvetica,sans-Serif" font-size="10.00">/engines/lifters/liftingToLLVM.cpp</text>
</a>
</g>
</g>
<!-- Node1&#45;&gt;Node11 -->
<g id="edge10" class="edge">
<title>Node1&#45;&gt;Node11</title>
<path fill="none" stroke="midnightblue" d="M1000.99,-510.1C760.7,-509.64 137.4,-503.62 59,-454 12.46,-424.54 0,-400.09 0,-345 0,-345 0,-345 0,-187 0,-108.02 560.61,-49.52 781.79,-29.51"/>
<polygon fill="midnightblue" stroke="midnightblue" points="1001.1,-513.6 1011.1,-510.12 1001.11,-506.6 1001.1,-513.6"/>
</g>
<!-- Node12 -->
<g id="node12" class="node">
<title>Node12</title>
<g id="a_node12"><a xlink:href="bitwuzlaSolver_8cpp.html" target="_top" xlink:title=" ">
<polygon fill="white" stroke="black" points="942.5,-401.5 942.5,-453.5 1077.5,-453.5 1077.5,-401.5 942.5,-401.5"/>
<text text-anchor="start" x="950.5" y="-441.5" font-family="Helvetica,sans-Serif" font-size="10.00">/home/jonathan/Works</text>
<text text-anchor="start" x="950.5" y="-430.5" font-family="Helvetica,sans-Serif" font-size="10.00">/Tools/Triton/src/libtriton</text>
<text text-anchor="start" x="950.5" y="-419.5" font-family="Helvetica,sans-Serif" font-size="10.00">/engines/solver/bitwuzla</text>
<text text-anchor="middle" x="1010" y="-408.5" font-family="Helvetica,sans-Serif" font-size="10.00">/bitwuzlaSolver.cpp</text>
</a>
</g>
</g>
<!-- Node1&#45;&gt;Node12 -->
<g id="edge11" class="edge">
<title>Node1&#45;&gt;Node12</title>
<path fill="none" stroke="midnightblue" d="M1067.1,-483.24C1057.15,-473.71 1045.98,-463 1036.19,-453.61"/>
<polygon fill="midnightblue" stroke="midnightblue" points="1064.78,-485.88 1074.42,-490.27 1069.63,-480.82 1064.78,-485.88"/>
</g>
<!-- Node13 -->
<g id="node13" class="node">
<title>Node13</title>
<g id="a_node13"><a xlink:href="z3Solver_8cpp.html" target="_top" xlink:title=" ">
<polygon fill="white" stroke="black" points="1096,-407 1096,-448 1266,-448 1266,-407 1096,-407"/>
<text text-anchor="start" x="1104" y="-436" font-family="Helvetica,sans-Serif" font-size="10.00">/home/jonathan/Works</text>
<text text-anchor="start" x="1104" y="-425" font-family="Helvetica,sans-Serif" font-size="10.00">/Tools/Triton/src/libtriton</text>
<text text-anchor="middle" x="1181" y="-414" font-family="Helvetica,sans-Serif" font-size="10.00">/engines/solver/z3/z3Solver.cpp</text>
</a>
</g>
</g>
<!-- Node1&#45;&gt;Node13 -->
<g id="edge12" class="edge">
<title>Node1&#45;&gt;Node13</title>
<path fill="none" stroke="midnightblue" d="M1123.11,-483.36C1135.25,-471.85 1149.21,-458.63 1160.37,-448.05"/>
<polygon fill="midnightblue" stroke="midnightblue" points="1120.67,-480.85 1115.82,-490.27 1125.48,-485.93 1120.67,-480.85"/>
</g>
<!-- Node14 -->
<g id="node14" class="node">
<title>Node14</title>
<g id="a_node14"><a xlink:href="pathManager_8cpp.html" target="_top" xlink:title=" ">
<polygon fill="white" stroke="black" points="1284,-407 1284,-448 1476,-448 1476,-407 1284,-407"/>
<text text-anchor="start" x="1292" y="-436" font-family="Helvetica,sans-Serif" font-size="10.00">/home/jonathan/Works</text>
<text text-anchor="start" x="1292" y="-425" font-family="Helvetica,sans-Serif" font-size="10.00">/Tools/Triton/src/libtriton</text>
<text text-anchor="middle" x="1380" y="-414" font-family="Helvetica,sans-Serif" font-size="10.00">/engines/symbolic/pathManager.cpp</text>
</a>
</g>
</g>
<!-- Node1&#45;&gt;Node14 -->
<g id="edge13" class="edge">
<title>Node1&#45;&gt;Node14</title>
<path fill="none" stroke="midnightblue" d="M1172.94,-487.71C1216.4,-475.28 1270.02,-459.95 1311.8,-448"/>
<polygon fill="midnightblue" stroke="midnightblue" points="1171.92,-484.36 1163.26,-490.48 1173.84,-491.09 1171.92,-484.36"/>
</g>
<!-- Node15 -->
<g id="node15" class="node">
<title>Node15</title>
<g id="a_node15"><a xlink:href="symbolicEngine_8cpp.html" target="_top" xlink:title=" ">
<polygon fill="white" stroke="black" points="947,-323.5 947,-364.5 1153,-364.5 1153,-323.5 947,-323.5"/>
<text text-anchor="start" x="955" y="-352.5" font-family="Helvetica,sans-Serif" font-size="10.00">/home/jonathan/Works</text>
<text text-anchor="start" x="955" y="-341.5" font-family="Helvetica,sans-Serif" font-size="10.00">/Tools/Triton/src/libtriton</text>
<text text-anchor="middle" x="1050" y="-330.5" font-family="Helvetica,sans-Serif" font-size="10.00">/engines/symbolic/symbolicEngine.cpp</text>
</a>
</g>
</g>
<!-- Node1&#45;&gt;Node15 -->
<g id="edge14" class="edge">
<title>Node1&#45;&gt;Node15</title>
<path fill="none" stroke="midnightblue" d="M1001.14,-507.98C764.94,-502.43 162.5,-485.27 133,-454 116.83,-436.87 116.86,-418.16 133,-401 160.53,-371.74 712.84,-353.85 946.76,-347.56"/>
<polygon fill="midnightblue" stroke="midnightblue" points="1001.35,-511.48 1011.43,-508.22 1001.52,-504.48 1001.35,-511.48"/>
</g>
<!-- Node16 -->
<g id="node16" class="node">
<title>Node16</title>
<g id="a_node16"><a xlink:href="symbolicExpression_8cpp.html" target="_top" xlink:title=" ">
<polygon fill="white" stroke="black" points="1532,-407 1532,-448 1758,-448 1758,-407 1532,-407"/>
<text text-anchor="start" x="1540" y="-436" font-family="Helvetica,sans-Serif" font-size="10.00">/home/jonathan/Works</text>
<text text-anchor="start" x="1540" y="-425" font-family="Helvetica,sans-Serif" font-size="10.00">/Tools/Triton/src/libtriton</text>
<text text-anchor="middle" x="1645" y="-414" font-family="Helvetica,sans-Serif" font-size="10.00">/engines/symbolic/symbolicExpression.cpp</text>
</a>
</g>
</g>
<!-- Node1&#45;&gt;Node16 -->
<g id="edge15" class="edge">
<title>Node1&#45;&gt;Node16</title>
<path fill="none" stroke="midnightblue" d="M1188.7,-499.41C1274.6,-489.27 1405.18,-472.77 1518,-454 1528.87,-452.19 1540.23,-450.14 1551.5,-448.01"/>
<polygon fill="midnightblue" stroke="midnightblue" points="1188.24,-495.94 1178.71,-500.58 1189.05,-502.89 1188.24,-495.94"/>
</g>
<!-- Node17 -->
<g id="node17" class="node">
<title>Node17</title>
<g id="a_node17"><a xlink:href="api_8hpp.html" target="_top" xlink:title=" ">
<polygon fill="white" stroke="black" points="1843.5,-167.5 1843.5,-208.5 1976.5,-208.5 1976.5,-167.5 1843.5,-167.5"/>
<text text-anchor="start" x="1851.5" y="-196.5" font-family="Helvetica,sans-Serif" font-size="10.00">/home/jonathan/Works</text>
<text text-anchor="start" x="1851.5" y="-185.5" font-family="Helvetica,sans-Serif" font-size="10.00">/Tools/Triton/src/libtriton</text>
<text text-anchor="middle" x="1910" y="-174.5" font-family="Helvetica,sans-Serif" font-size="10.00">/includes/triton/api.hpp</text>
</a>
</g>
</g>
<!-- Node1&#45;&gt;Node17 -->
<g id="edge16" class="edge">
<title>Node1&#45;&gt;Node17</title>
<path fill="none" stroke="midnightblue" d="M1188.84,-509.38C1458.43,-507.11 2231.75,-496.92 2481,-454 2694.11,-417.3 2821.25,-469.02 2938,-287 2948.08,-271.29 2950.84,-258.55 2938,-245 2904.89,-210.04 2199.06,-194.26 1976.56,-190.14"/>
<polygon fill="midnightblue" stroke="midnightblue" points="1188.67,-505.89 1178.7,-509.47 1188.72,-512.88 1188.67,-505.89"/>
</g>
<!-- Node23 -->
<g id="node23" class="node">
<title>Node23</title>
<g id="a_node23"><a xlink:href="liftingEngine_8hpp.html" target="_top" xlink:title=" ">
<polygon fill="white" stroke="black" points="2123,-245.5 2123,-286.5 2297,-286.5 2297,-245.5 2123,-245.5"/>
<text text-anchor="start" x="2131" y="-274.5" font-family="Helvetica,sans-Serif" font-size="10.00">/home/jonathan/Works</text>
<text text-anchor="start" x="2131" y="-263.5" font-family="Helvetica,sans-Serif" font-size="10.00">/Tools/Triton/src/libtriton</text>
<text text-anchor="middle" x="2210" y="-252.5" font-family="Helvetica,sans-Serif" font-size="10.00">/includes/triton/liftingEngine.hpp</text>
</a>
</g>
</g>
<!-- Node1&#45;&gt;Node23 -->
<g id="edge23" class="edge">
<title>Node1&#45;&gt;Node23</title>
<path fill="none" stroke="midnightblue" d="M1188.88,-508.33C1400.66,-503.95 1910.15,-489.93 2078,-454 2186.4,-430.8 2248.14,-456.31 2311,-365 2321.59,-349.63 2320.47,-339.08 2311,-323 2301.49,-306.85 2285.45,-295.02 2268.92,-286.52"/>
<polygon fill="midnightblue" stroke="midnightblue" points="1188.64,-504.83 1178.72,-508.53 1188.79,-511.83 1188.64,-504.83"/>
</g>
<!-- Node24 -->
<g id="node24" class="node">
<title>Node24</title>
<g id="a_node24"><a xlink:href="liftingToDot_8hpp.html" target="_top" xlink:title=" ">
<polygon fill="white" stroke="black" points="1930.5,-323.5 1930.5,-364.5 2099.5,-364.5 2099.5,-323.5 1930.5,-323.5"/>
<text text-anchor="start" x="1938.5" y="-352.5" font-family="Helvetica,sans-Serif" font-size="10.00">/home/jonathan/Works</text>
<text text-anchor="start" x="1938.5" y="-341.5" font-family="Helvetica,sans-Serif" font-size="10.00">/Tools/Triton/src/libtriton</text>
<text text-anchor="middle" x="2015" y="-330.5" font-family="Helvetica,sans-Serif" font-size="10.00">/includes/triton/liftingToDot.hpp</text>
</a>
</g>
</g>
<!-- Node1&#45;&gt;Node24 -->
<g id="edge25" class="edge">
<title>Node1&#45;&gt;Node24</title>
<path fill="none" stroke="midnightblue" d="M1189.16,-509.78C1403.55,-508.47 1914.3,-500.45 1976,-454 2003.94,-432.97 2011.92,-390.17 2014.16,-364.91"/>
<polygon fill="midnightblue" stroke="midnightblue" points="1188.85,-506.28 1178.87,-509.84 1188.89,-513.28 1188.85,-506.28"/>
</g>
<!-- Node26 -->
<g id="node26" class="node">
<title>Node26</title>
<g id="a_node26"><a xlink:href="liftingToPython_8hpp.html" target="_top" xlink:title=" ">
<polygon fill="white" stroke="black" points="2117.5,-323.5 2117.5,-364.5 2302.5,-364.5 2302.5,-323.5 2117.5,-323.5"/>
<text text-anchor="start" x="2125.5" y="-352.5" font-family="Helvetica,sans-Serif" font-size="10.00">/home/jonathan/Works</text>
<text text-anchor="start" x="2125.5" y="-341.5" font-family="Helvetica,sans-Serif" font-size="10.00">/Tools/Triton/src/libtriton</text>
<text text-anchor="middle" x="2210" y="-330.5" font-family="Helvetica,sans-Serif" font-size="10.00">/includes/triton/liftingToPython.hpp</text>
</a>
</g>
</g>
<!-- Node1&#45;&gt;Node26 -->
<g id="edge28" class="edge">
<title>Node1&#45;&gt;Node26</title>
<path fill="none" stroke="midnightblue" d="M1188.81,-509.29C1389.51,-506.94 1854.55,-496.9 2006,-454 2074,-434.74 2144.92,-390.44 2182.61,-364.64"/>
<polygon fill="midnightblue" stroke="midnightblue" points="1188.55,-505.79 1178.59,-509.4 1188.63,-512.79 1188.55,-505.79"/>
</g>
<!-- Node28 -->
<g id="node28" class="node">
<title>Node28</title>
<g id="a_node28"><a xlink:href="liftingToSMT_8hpp.html" target="_top" xlink:title=" ">
<polygon fill="white" stroke="black" points="2358,-323.5 2358,-364.5 2530,-364.5 2530,-323.5 2358,-323.5"/>
<text text-anchor="start" x="2366" y="-352.5" font-family="Helvetica,sans-Serif" font-size="10.00">/home/jonathan/Works</text>
<text text-anchor="start" x="2366" y="-341.5" font-family="Helvetica,sans-Serif" font-size="10.00">/Tools/Triton/src/libtriton</text>
<text text-anchor="middle" x="2444" y="-330.5" font-family="Helvetica,sans-Serif" font-size="10.00">/includes/triton/liftingToSMT.hpp</text>
</a>
</g>
</g>
<!-- Node1&#45;&gt;Node28 -->
<g id="edge31" class="edge">
<title>Node1&#45;&gt;Node28</title>
<path fill="none" stroke="midnightblue" d="M1188.89,-509.9C1461.5,-509.04 2240.41,-502.34 2344,-454 2384.96,-434.89 2416.86,-390.53 2432.81,-364.68"/>
<polygon fill="midnightblue" stroke="midnightblue" points="1188.61,-506.4 1178.62,-509.93 1188.63,-513.4 1188.61,-506.4"/>
</g>
<!-- Node30 -->
<g id="node30" class="node">
<title>Node30</title>
<g id="a_node30"><a xlink:href="symbolicEngine_8hpp.html" target="_top" xlink:title=" ">
<polygon fill="white" stroke="black" points="1776.5,-407 1776.5,-448 1967.5,-448 1967.5,-407 1776.5,-407"/>
<text text-anchor="start" x="1784.5" y="-436" font-family="Helvetica,sans-Serif" font-size="10.00">/home/jonathan/Works</text>
<text text-anchor="start" x="1784.5" y="-425" font-family="Helvetica,sans-Serif" font-size="10.00">/Tools/Triton/src/libtriton</text>
<text text-anchor="middle" x="1872" y="-414" font-family="Helvetica,sans-Serif" font-size="10.00">/includes/triton/symbolicEngine.hpp</text>
</a>
</g>
</g>
<!-- Node1&#45;&gt;Node30 -->
<g id="edge34" class="edge">
<title>Node1&#45;&gt;Node30</title>
<path fill="none" stroke="midnightblue" d="M1188.87,-506.77C1319.29,-501.25 1562.36,-487.17 1767,-454 1777,-452.38 1787.45,-450.31 1797.72,-448.05"/>
<polygon fill="midnightblue" stroke="midnightblue" points="1188.38,-503.29 1178.53,-507.2 1188.67,-510.28 1188.38,-503.29"/>
</g>
<!-- Node34 -->
<g id="node34" class="node">
<title>Node34</title>
<g id="a_node34"><a xlink:href="synthesizer_8hpp.html" target="_top" xlink:title=" ">
<polygon fill="white" stroke="black" points="2589.5,-323.5 2589.5,-364.5 2758.5,-364.5 2758.5,-323.5 2589.5,-323.5"/>
<text text-anchor="start" x="2597.5" y="-352.5" font-family="Helvetica,sans-Serif" font-size="10.00">/home/jonathan/Works</text>
<text text-anchor="start" x="2597.5" y="-341.5" font-family="Helvetica,sans-Serif" font-size="10.00">/Tools/Triton/src/libtriton</text>
<text text-anchor="middle" x="2674" y="-330.5" font-family="Helvetica,sans-Serif" font-size="10.00">/includes/triton/synthesizer.hpp</text>
</a>
</g>
</g>
<!-- Node1&#45;&gt;Node34 -->
<g id="edge63" class="edge">
<title>Node1&#45;&gt;Node34</title>
<path fill="none" stroke="midnightblue" d="M1188.92,-509.82C1446.27,-508.72 2158.78,-501.35 2388,-454 2479.85,-435.03 2580.99,-390.4 2634.96,-364.52"/>
<polygon fill="midnightblue" stroke="midnightblue" points="1188.84,-506.32 1178.85,-509.86 1188.86,-513.32 1188.84,-506.32"/>
</g>
<!-- Node18 -->
<g id="node18" class="node">
<title>Node18</title>
<g id="a_node18"><a xlink:href="api_8cpp.html" target="_top" xlink:title=" ">
<polygon fill="white" stroke="black" points="2014.5,-84 2014.5,-125 2147.5,-125 2147.5,-84 2014.5,-84"/>
<text text-anchor="start" x="2022.5" y="-113" font-family="Helvetica,sans-Serif" font-size="10.00">/home/jonathan/Works</text>
<text text-anchor="start" x="2022.5" y="-102" font-family="Helvetica,sans-Serif" font-size="10.00">/Tools/Triton/src/libtriton</text>
<text text-anchor="middle" x="2081" y="-91" font-family="Helvetica,sans-Serif" font-size="10.00">/api/api.cpp</text>
</a>
</g>
</g>
<!-- Node17&#45;&gt;Node18 -->
<g id="edge17" class="edge">
<title>Node17&#45;&gt;Node18</title>
<path fill="none" stroke="midnightblue" d="M1960.08,-163.13C1985.53,-151 2016.06,-136.45 2040.08,-125"/>
<polygon fill="midnightblue" stroke="midnightblue" points="1958.48,-160.02 1950.96,-167.48 1961.49,-166.34 1958.48,-160.02"/>
</g>
<!-- Node19 -->
<g id="node19" class="node">
<title>Node19</title>
<g id="a_node19"><a xlink:href="pyTritonContext_8cpp.html" target="_top" xlink:title=" ">
<polygon fill="white" stroke="black" points="1517,-78.5 1517,-130.5 1653,-130.5 1653,-78.5 1517,-78.5"/>
<text text-anchor="start" x="1525" y="-118.5" font-family="Helvetica,sans-Serif" font-size="10.00">/home/jonathan/Works</text>
<text text-anchor="start" x="1525" y="-107.5" font-family="Helvetica,sans-Serif" font-size="10.00">/Tools/Triton/src/libtriton</text>
<text text-anchor="start" x="1525" y="-96.5" font-family="Helvetica,sans-Serif" font-size="10.00">/bindings/python/objects</text>
<text text-anchor="middle" x="1585" y="-85.5" font-family="Helvetica,sans-Serif" font-size="10.00">/pyTritonContext.cpp</text>
</a>
</g>
</g>
<!-- Node17&#45;&gt;Node19 -->
<g id="edge18" class="edge">
<title>Node17&#45;&gt;Node19</title>
<path fill="none" stroke="midnightblue" d="M1833.3,-171.7C1784.06,-161.38 1718.9,-146.8 1662,-131 1659.15,-130.21 1656.25,-129.38 1653.33,-128.51"/>
<polygon fill="midnightblue" stroke="midnightblue" points="1832.74,-175.16 1843.25,-173.77 1834.17,-168.31 1832.74,-175.16"/>
</g>
<!-- Node20 -->
<g id="node20" class="node">
<title>Node20</title>
<g id="a_node20"><a xlink:href="callbacks_8cpp.html" target="_top" xlink:title=" ">
<polygon fill="white" stroke="black" points="1671,-84 1671,-125 1805,-125 1805,-84 1671,-84"/>
<text text-anchor="start" x="1679" y="-113" font-family="Helvetica,sans-Serif" font-size="10.00">/home/jonathan/Works</text>
<text text-anchor="start" x="1679" y="-102" font-family="Helvetica,sans-Serif" font-size="10.00">/Tools/Triton/src/libtriton</text>
<text text-anchor="middle" x="1738" y="-91" font-family="Helvetica,sans-Serif" font-size="10.00">/callbacks/callbacks.cpp</text>
</a>
</g>
</g>
<!-- Node17&#45;&gt;Node20 -->
<g id="edge19" class="edge">
<title>Node17&#45;&gt;Node20</title>
<path fill="none" stroke="midnightblue" d="M1859.62,-163.13C1834.03,-151 1803.32,-136.45 1779.16,-125"/>
<polygon fill="midnightblue" stroke="midnightblue" points="1858.27,-166.36 1868.8,-167.48 1861.26,-160.03 1858.27,-166.36"/>
</g>
<!-- Node21 -->
<g id="node21" class="node">
<title>Node21</title>
<g id="a_node21"><a xlink:href="llvmToTriton_8hpp.html" target="_top" xlink:title=" ">
<polygon fill="white" stroke="black" points="1823.5,-84 1823.5,-125 1996.5,-125 1996.5,-84 1823.5,-84"/>
<text text-anchor="start" x="1831.5" y="-113" font-family="Helvetica,sans-Serif" font-size="10.00">/home/jonathan/Works</text>
<text text-anchor="start" x="1831.5" y="-102" font-family="Helvetica,sans-Serif" font-size="10.00">/Tools/Triton/src/libtriton</text>
<text text-anchor="middle" x="1910" y="-91" font-family="Helvetica,sans-Serif" font-size="10.00">/includes/triton/llvmToTriton.hpp</text>
</a>
</g>
</g>
<!-- Node17&#45;&gt;Node21 -->
<g id="edge20" class="edge">
<title>Node17&#45;&gt;Node21</title>
<path fill="none" stroke="midnightblue" d="M1910,-157.06C1910,-146.38 1910,-134.63 1910,-125.05"/>
<polygon fill="midnightblue" stroke="midnightblue" points="1906.5,-157.27 1910,-167.27 1913.5,-157.27 1906.5,-157.27"/>
</g>
<!-- Node21&#45;&gt;Node11 -->
<g id="edge22" class="edge">
<title>Node21&#45;&gt;Node11</title>
<path fill="none" stroke="midnightblue" d="M1833.31,-81.68C1826.81,-80.27 1820.31,-79.02 1814,-78 1502.17,-27.86 1125.92,-21.45 958.16,-21.37"/>
<polygon fill="midnightblue" stroke="midnightblue" points="1832.96,-85.19 1843.49,-84 1834.52,-78.36 1832.96,-85.19"/>
</g>
<!-- Node22 -->
<g id="node22" class="node">
<title>Node22</title>
<g id="a_node22"><a xlink:href="llvmToTriton_8cpp.html" target="_top" xlink:title=" ">
<polygon fill="white" stroke="black" points="1839,-0.5 1839,-41.5 1981,-41.5 1981,-0.5 1839,-0.5"/>
<text text-anchor="start" x="1847" y="-29.5" font-family="Helvetica,sans-Serif" font-size="10.00">/home/jonathan/Works</text>
<text text-anchor="start" x="1847" y="-18.5" font-family="Helvetica,sans-Serif" font-size="10.00">/Tools/Triton/src/libtriton</text>
<text text-anchor="middle" x="1910" y="-7.5" font-family="Helvetica,sans-Serif" font-size="10.00">/ast/llvm/llvmToTriton.cpp</text>
</a>
</g>
</g>
<!-- Node21&#45;&gt;Node22 -->
<g id="edge21" class="edge">
<title>Node21&#45;&gt;Node22</title>
<path fill="none" stroke="midnightblue" d="M1910,-73.56C1910,-62.88 1910,-51.13 1910,-41.55"/>
<polygon fill="midnightblue" stroke="midnightblue" points="1906.5,-73.77 1910,-83.77 1913.5,-73.77 1906.5,-73.77"/>
</g>
<!-- Node23&#45;&gt;Node17 -->
<g id="edge24" class="edge">
<title>Node23&#45;&gt;Node17</title>
<path fill="none" stroke="midnightblue" d="M2122.96,-242.95C2076.38,-231.15 2019.89,-216.84 1976.81,-205.92"/>
<polygon fill="midnightblue" stroke="midnightblue" points="2122.19,-246.37 2132.74,-245.43 2123.91,-239.58 2122.19,-246.37"/>
</g>
<!-- Node24&#45;&gt;Node23 -->
<g id="edge27" class="edge">
<title>Node24&#45;&gt;Node23</title>
<path fill="none" stroke="midnightblue" d="M2074.66,-319.75C2101.96,-309.11 2133.94,-296.65 2159.95,-286.51"/>
<polygon fill="midnightblue" stroke="midnightblue" points="2073.26,-316.54 2065.22,-323.43 2075.81,-323.06 2073.26,-316.54"/>
</g>
<!-- Node25 -->
<g id="node25" class="node">
<title>Node25</title>
<g id="a_node25"><a xlink:href="liftingToDot_8cpp.html" target="_top" xlink:title=" ">
<polygon fill="white" stroke="black" points="1937.5,-245.5 1937.5,-286.5 2104.5,-286.5 2104.5,-245.5 1937.5,-245.5"/>
<text text-anchor="start" x="1945.5" y="-274.5" font-family="Helvetica,sans-Serif" font-size="10.00">/home/jonathan/Works</text>
<text text-anchor="start" x="1945.5" y="-263.5" font-family="Helvetica,sans-Serif" font-size="10.00">/Tools/Triton/src/libtriton</text>
<text text-anchor="middle" x="2021" y="-252.5" font-family="Helvetica,sans-Serif" font-size="10.00">/engines/lifters/liftingToDot.cpp</text>
</a>
</g>
</g>
<!-- Node24&#45;&gt;Node25 -->
<g id="edge26" class="edge">
<title>Node24&#45;&gt;Node25</title>
<path fill="none" stroke="midnightblue" d="M2017.35,-313.3C2018.06,-304.3 2018.82,-294.65 2019.46,-286.51"/>
<polygon fill="midnightblue" stroke="midnightblue" points="2013.84,-313.18 2016.55,-323.43 2020.82,-313.73 2013.84,-313.18"/>
</g>
<!-- Node26&#45;&gt;Node23 -->
<g id="edge30" class="edge">
<title>Node26&#45;&gt;Node23</title>
<path fill="none" stroke="midnightblue" d="M2210,-313.3C2210,-304.3 2210,-294.65 2210,-286.51"/>
<polygon fill="midnightblue" stroke="midnightblue" points="2206.5,-313.43 2210,-323.43 2213.5,-313.43 2206.5,-313.43"/>
</g>
<!-- Node27 -->
<g id="node27" class="node">
<title>Node27</title>
<g id="a_node27"><a xlink:href="liftingToPython_8cpp.html" target="_top" xlink:title=" ">
<polygon fill="white" stroke="black" points="2315,-245.5 2315,-286.5 2499,-286.5 2499,-245.5 2315,-245.5"/>
<text text-anchor="start" x="2323" y="-274.5" font-family="Helvetica,sans-Serif" font-size="10.00">/home/jonathan/Works</text>
<text text-anchor="start" x="2323" y="-263.5" font-family="Helvetica,sans-Serif" font-size="10.00">/Tools/Triton/src/libtriton</text>
<text text-anchor="middle" x="2407" y="-252.5" font-family="Helvetica,sans-Serif" font-size="10.00">/engines/lifters/liftingToPython.cpp</text>
</a>
</g>
</g>
<!-- Node26&#45;&gt;Node27 -->
<g id="edge29" class="edge">
<title>Node26&#45;&gt;Node27</title>
<path fill="none" stroke="midnightblue" d="M2270.27,-319.75C2297.85,-309.11 2330.16,-296.65 2356.44,-286.51"/>
<polygon fill="midnightblue" stroke="midnightblue" points="2268.8,-316.56 2260.73,-323.43 2271.32,-323.09 2268.8,-316.56"/>
</g>
<!-- Node28&#45;&gt;Node23 -->
<g id="edge33" class="edge">
<title>Node28&#45;&gt;Node23</title>
<path fill="none" stroke="midnightblue" d="M2374.12,-320.3C2341,-309.55 2301.82,-296.82 2270.06,-286.51"/>
<polygon fill="midnightblue" stroke="midnightblue" points="2373.15,-323.67 2383.74,-323.43 2375.31,-317.01 2373.15,-323.67"/>
</g>
<!-- Node29 -->
<g id="node29" class="node">
<title>Node29</title>
<g id="a_node29"><a xlink:href="liftingToSMT_8cpp.html" target="_top" xlink:title=" ">
<polygon fill="white" stroke="black" points="2517,-245.5 2517,-286.5 2687,-286.5 2687,-245.5 2517,-245.5"/>
<text text-anchor="start" x="2525" y="-274.5" font-family="Helvetica,sans-Serif" font-size="10.00">/home/jonathan/Works</text>
<text text-anchor="start" x="2525" y="-263.5" font-family="Helvetica,sans-Serif" font-size="10.00">/Tools/Triton/src/libtriton</text>
<text text-anchor="middle" x="2602" y="-252.5" font-family="Helvetica,sans-Serif" font-size="10.00">/engines/lifters/liftingToSMT.cpp</text>
</a>
</g>
</g>
<!-- Node28&#45;&gt;Node29 -->
<g id="edge32" class="edge">
<title>Node28&#45;&gt;Node29</title>
<path fill="none" stroke="midnightblue" d="M2493.79,-319.05C2515.59,-308.57 2540.83,-296.42 2561.45,-286.51"/>
<polygon fill="midnightblue" stroke="midnightblue" points="2492.18,-315.94 2484.69,-323.43 2495.22,-322.25 2492.18,-315.94"/>
</g>
<!-- Node30&#45;&gt;Node15 -->
<g id="edge35" class="edge">
<title>Node30&#45;&gt;Node15</title>
<path fill="none" stroke="midnightblue" d="M1788.67,-404.9C1781.37,-403.42 1774.07,-402.09 1767,-401 1532.78,-364.9 1471.08,-385.74 1235,-365 1208.45,-362.67 1179.8,-359.76 1153.16,-356.89"/>
<polygon fill="midnightblue" stroke="midnightblue" points="1788.09,-408.35 1798.6,-406.99 1789.54,-401.51 1788.09,-408.35"/>
</g>
<!-- Node30&#45;&gt;Node17 -->
<g id="edge39" class="edge">
<title>Node30&#45;&gt;Node17</title>
<path fill="none" stroke="midnightblue" d="M1875.71,-396.54C1878.35,-375.85 1882.12,-347.71 1886,-323 1892.38,-282.38 1901.18,-235.07 1906.15,-208.93"/>
<polygon fill="midnightblue" stroke="midnightblue" points="1872.22,-396.26 1874.43,-406.62 1879.16,-397.14 1872.22,-396.26"/>
</g>
<!-- Node30&#45;&gt;Node23 -->
<g id="edge46" class="edge">
<title>Node30&#45;&gt;Node23</title>
<path fill="none" stroke="midnightblue" d="M1878.24,-396.83C1884.8,-373.17 1897.55,-341.09 1921,-323 1989.75,-269.98 2027.81,-303.77 2113,-287 2116.21,-286.37 2119.47,-285.72 2122.77,-285.06"/>
<polygon fill="midnightblue" stroke="midnightblue" points="1874.8,-396.16 1875.72,-406.71 1881.58,-397.89 1874.8,-396.16"/>
</g>
<!-- Node30&#45;&gt;Node24 -->
<g id="edge47" class="edge">
<title>Node30&#45;&gt;Node24</title>
<path fill="none" stroke="midnightblue" d="M1914.97,-402.01C1935.94,-390.06 1960.83,-375.87 1980.53,-364.64"/>
<polygon fill="midnightblue" stroke="midnightblue" points="1913.21,-398.99 1906.25,-406.98 1916.67,-405.07 1913.21,-398.99"/>
</g>
<!-- Node30&#45;&gt;Node26 -->
<g id="edge48" class="edge">
<title>Node30&#45;&gt;Node26</title>
<path fill="none" stroke="midnightblue" d="M1962.82,-404.6C2014.64,-392.11 2079.04,-376.58 2129.12,-364.5"/>
<polygon fill="midnightblue" stroke="midnightblue" points="1961.86,-401.23 1952.96,-406.98 1963.5,-408.04 1961.86,-401.23"/>
</g>
<!-- Node30&#45;&gt;Node28 -->
<g id="edge49" class="edge">
<title>Node30&#45;&gt;Node28</title>
<path fill="none" stroke="midnightblue" d="M1977.62,-412.01C2066.57,-399.73 2197.15,-381.53 2311,-365 2326.14,-362.8 2342.23,-360.42 2357.81,-358.09"/>
<polygon fill="midnightblue" stroke="midnightblue" points="1976.95,-408.57 1967.52,-413.4 1977.91,-415.5 1976.95,-408.57"/>
</g>
<!-- Node31 -->
<g id="node31" class="node">
<title>Node31</title>
<g id="a_node31"><a xlink:href="aarch64Semantics_8hpp.html" target="_top" xlink:title=" ">
<polygon fill="white" stroke="black" points="874.5,-245.5 874.5,-286.5 1077.5,-286.5 1077.5,-245.5 874.5,-245.5"/>
<text text-anchor="start" x="882.5" y="-274.5" font-family="Helvetica,sans-Serif" font-size="10.00">/home/jonathan/Works</text>
<text text-anchor="start" x="882.5" y="-263.5" font-family="Helvetica,sans-Serif" font-size="10.00">/Tools/Triton/src/libtriton</text>
<text text-anchor="middle" x="976" y="-252.5" font-family="Helvetica,sans-Serif" font-size="10.00">/includes/triton/aarch64Semantics.hpp</text>
</a>
</g>
</g>
<!-- Node30&#45;&gt;Node31 -->
<g id="edge36" class="edge">
<title>Node30&#45;&gt;Node31</title>
<path fill="none" stroke="midnightblue" d="M1787.77,-404.8C1780.77,-403.38 1773.78,-402.08 1767,-401 1565.37,-368.8 1506.87,-415.38 1309,-365 1264.66,-353.71 1258.36,-337.62 1215,-323 1170.78,-308.09 1120.66,-295.69 1077.78,-286.38"/>
<polygon fill="midnightblue" stroke="midnightblue" points="1787.51,-408.32 1798.01,-406.97 1788.96,-401.47 1787.51,-408.32"/>
</g>
<!-- Node32 -->
<g id="node32" class="node">
<title>Node32</title>
<g id="a_node32"><a xlink:href="arm32Semantics_8hpp.html" target="_top" xlink:title=" ">
<polygon fill="white" stroke="black" points="1296,-245.5 1296,-286.5 1492,-286.5 1492,-245.5 1296,-245.5"/>
<text text-anchor="start" x="1304" y="-274.5" font-family="Helvetica,sans-Serif" font-size="10.00">/home/jonathan/Works</text>
<text text-anchor="start" x="1304" y="-263.5" font-family="Helvetica,sans-Serif" font-size="10.00">/Tools/Triton/src/libtriton</text>
<text text-anchor="middle" x="1394" y="-252.5" font-family="Helvetica,sans-Serif" font-size="10.00">/includes/triton/arm32Semantics.hpp</text>
</a>
</g>
</g>
<!-- Node30&#45;&gt;Node32 -->
<g id="edge40" class="edge">
<title>Node30&#45;&gt;Node32</title>
<path fill="none" stroke="midnightblue" d="M1785.72,-404.78C1779.4,-403.42 1773.11,-402.15 1767,-401 1648.01,-378.68 1606.19,-417.28 1497,-365 1459.15,-346.88 1426.15,-309.61 1408.25,-286.61"/>
<polygon fill="midnightblue" stroke="midnightblue" points="1785.13,-408.23 1795.65,-406.96 1786.63,-401.39 1785.13,-408.23"/>
</g>
<!-- Node33 -->
<g id="node33" class="node">
<title>Node33</title>
<g id="a_node33"><a xlink:href="irBuilder_8hpp.html" target="_top" xlink:title=" ">
<polygon fill="white" stroke="black" points="1690,-245.5 1690,-286.5 1844,-286.5 1844,-245.5 1690,-245.5"/>
<text text-anchor="start" x="1698" y="-274.5" font-family="Helvetica,sans-Serif" font-size="10.00">/home/jonathan/Works</text>
<text text-anchor="start" x="1698" y="-263.5" font-family="Helvetica,sans-Serif" font-size="10.00">/Tools/Triton/src/libtriton</text>
<text text-anchor="middle" x="1767" y="-252.5" font-family="Helvetica,sans-Serif" font-size="10.00">/includes/triton/irBuilder.hpp</text>
</a>
</g>
</g>
<!-- Node30&#45;&gt;Node33 -->
<g id="edge43" class="edge">
<title>Node30&#45;&gt;Node33</title>
<path fill="none" stroke="midnightblue" d="M1853.54,-398.46C1832.45,-366.41 1798.46,-314.79 1779.98,-286.72"/>
<polygon fill="midnightblue" stroke="midnightblue" points="1850.7,-400.51 1859.12,-406.94 1856.55,-396.67 1850.7,-400.51"/>
</g>
<!-- Node30&#45;&gt;Node34 -->
<g id="edge50" class="edge">
<title>Node30&#45;&gt;Node34</title>
<path fill="none" stroke="midnightblue" d="M1977.81,-418.56C2109.51,-408.25 2341.23,-388.75 2539,-365 2555.35,-363.04 2572.77,-360.67 2589.48,-358.25"/>
<polygon fill="midnightblue" stroke="midnightblue" points="1977.42,-415.08 1967.72,-419.34 1977.96,-422.05 1977.42,-415.08"/>
</g>
<!-- Node36 -->
<g id="node36" class="node">
<title>Node36</title>
<g id="a_node36"><a xlink:href="taintEngine_8hpp.html" target="_top" xlink:title=" ">
<polygon fill="white" stroke="black" points="1506.5,-323.5 1506.5,-364.5 1675.5,-364.5 1675.5,-323.5 1506.5,-323.5"/>
<text text-anchor="start" x="1514.5" y="-352.5" font-family="Helvetica,sans-Serif" font-size="10.00">/home/jonathan/Works</text>
<text text-anchor="start" x="1514.5" y="-341.5" font-family="Helvetica,sans-Serif" font-size="10.00">/Tools/Triton/src/libtriton</text>
<text text-anchor="middle" x="1591" y="-330.5" font-family="Helvetica,sans-Serif" font-size="10.00">/includes/triton/taintEngine.hpp</text>
</a>
</g>
</g>
<!-- Node30&#45;&gt;Node36 -->
<g id="edge53" class="edge">
<title>Node30&#45;&gt;Node36</title>
<path fill="none" stroke="midnightblue" d="M1794.88,-404.13C1752.08,-391.72 1699.35,-376.43 1658.24,-364.5"/>
<polygon fill="midnightblue" stroke="midnightblue" points="1794.11,-407.55 1804.69,-406.98 1796.06,-400.83 1794.11,-407.55"/>
</g>
<!-- Node38 -->
<g id="node38" class="node">
<title>Node38</title>
<g id="a_node38"><a xlink:href="x86Semantics_8hpp.html" target="_top" xlink:title=" ">
<polygon fill="white" stroke="black" points="1096,-245.5 1096,-286.5 1278,-286.5 1278,-245.5 1096,-245.5"/>
<text text-anchor="start" x="1104" y="-274.5" font-family="Helvetica,sans-Serif" font-size="10.00">/home/jonathan/Works</text>
<text text-anchor="start" x="1104" y="-263.5" font-family="Helvetica,sans-Serif" font-size="10.00">/Tools/Triton/src/libtriton</text>
<text text-anchor="middle" x="1187" y="-252.5" font-family="Helvetica,sans-Serif" font-size="10.00">/includes/triton/x86Semantics.hpp</text>
</a>
</g>
</g>
<!-- Node30&#45;&gt;Node38 -->
<g id="edge62" class="edge">
<title>Node30&#45;&gt;Node38</title>
<path fill="none" stroke="midnightblue" d="M1786.31,-404.73C1779.8,-403.37 1773.31,-402.11 1767,-401 1622.12,-375.59 1580.86,-400.05 1438,-365 1360.99,-346.1 1275.92,-309.27 1227.23,-286.53"/>
<polygon fill="midnightblue" stroke="midnightblue" points="1786.03,-408.25 1796.54,-406.94 1787.5,-401.41 1786.03,-408.25"/>
</g>
<!-- Node31&#45;&gt;Node2 -->
<g id="edge37" class="edge">
<title>Node31&#45;&gt;Node2</title>
<path fill="none" stroke="midnightblue" d="M864.26,-254.04C716.21,-239.52 456.7,-214.07 310.02,-199.69"/>
<polygon fill="midnightblue" stroke="midnightblue" points="863.99,-257.53 874.28,-255.03 864.67,-250.57 863.99,-257.53"/>
</g>
<!-- Node31&#45;&gt;Node4 -->
<g id="edge38" class="edge">
<title>Node31&#45;&gt;Node4</title>
<path fill="none" stroke="midnightblue" d="M1039.78,-242.03C1069.49,-231.33 1104.45,-218.73 1132.85,-208.51"/>
<polygon fill="midnightblue" stroke="midnightblue" points="1038.56,-238.75 1030.34,-245.43 1040.93,-245.33 1038.56,-238.75"/>
</g>
<!-- Node32&#45;&gt;Node3 -->
<g id="edge41" class="edge">
<title>Node32&#45;&gt;Node3</title>
<path fill="none" stroke="midnightblue" d="M1285.77,-244.8C1199.23,-229.72 1111.55,-215.47 1045.79,-204.99"/>
<polygon fill="midnightblue" stroke="midnightblue" points="1285.32,-248.27 1295.77,-246.55 1286.52,-241.38 1285.32,-248.27"/>
</g>
<!-- Node32&#45;&gt;Node4 -->
<g id="edge42" class="edge">
<title>Node32&#45;&gt;Node4</title>
<path fill="none" stroke="midnightblue" d="M1331.05,-241.89C1301.99,-231.22 1267.87,-218.69 1240.13,-208.51"/>
<polygon fill="midnightblue" stroke="midnightblue" points="1330.1,-245.27 1340.69,-245.43 1332.51,-238.7 1330.1,-245.27"/>
</g>
<!-- Node33&#45;&gt;Node4 -->
<g id="edge44" class="edge">
<title>Node33&#45;&gt;Node4</title>
<path fill="none" stroke="midnightblue" d="M1679.83,-244.89C1521.81,-218.14 1346.95,-201.77 1253.67,-194.09"/>
<polygon fill="midnightblue" stroke="midnightblue" points="1679.28,-248.35 1689.73,-246.59 1680.46,-241.45 1679.28,-248.35"/>
</g>
<!-- Node33&#45;&gt;Node17 -->
<g id="edge45" class="edge">
<title>Node33&#45;&gt;Node17</title>
<path fill="none" stroke="midnightblue" d="M1812.86,-240.63C1832.4,-230.24 1854.89,-218.29 1873.3,-208.51"/>
<polygon fill="midnightblue" stroke="midnightblue" points="1811.01,-237.64 1803.83,-245.43 1814.3,-243.83 1811.01,-237.64"/>
</g>
<!-- Node34&#45;&gt;Node17 -->
<g id="edge52" class="edge">
<title>Node34&#45;&gt;Node17</title>
<path fill="none" stroke="midnightblue" d="M2692.28,-314.64C2703.74,-292.94 2713.37,-263.65 2696,-245 2647.46,-192.88 2157.76,-188.5 1976.77,-188.68"/>
<polygon fill="midnightblue" stroke="midnightblue" points="2689.19,-313 2687.32,-323.43 2695.28,-316.44 2689.19,-313"/>
</g>
<!-- Node35 -->
<g id="node35" class="node">
<title>Node35</title>
<g id="a_node35"><a xlink:href="synthesizer_8cpp.html" target="_top" xlink:title=" ">
<polygon fill="white" stroke="black" points="2743,-245.5 2743,-286.5 2929,-286.5 2929,-245.5 2743,-245.5"/>
<text text-anchor="start" x="2751" y="-274.5" font-family="Helvetica,sans-Serif" font-size="10.00">/home/jonathan/Works</text>
<text text-anchor="start" x="2751" y="-263.5" font-family="Helvetica,sans-Serif" font-size="10.00">/Tools/Triton/src/libtriton</text>
<text text-anchor="middle" x="2836" y="-252.5" font-family="Helvetica,sans-Serif" font-size="10.00">/engines/synthesis/synthesizer.cpp</text>
</a>
</g>
</g>
<!-- Node34&#45;&gt;Node35 -->
<g id="edge51" class="edge">
<title>Node34&#45;&gt;Node35</title>
<path fill="none" stroke="midnightblue" d="M2725.05,-319.05C2747.4,-308.57 2773.28,-296.42 2794.42,-286.51"/>
<polygon fill="midnightblue" stroke="midnightblue" points="2723.29,-316.01 2715.72,-323.43 2726.26,-322.35 2723.29,-316.01"/>
</g>
<!-- Node36&#45;&gt;Node17 -->
<g id="edge56" class="edge">
<title>Node36&#45;&gt;Node17</title>
<path fill="none" stroke="midnightblue" d="M1685.77,-330.94C1749.45,-321.32 1826.41,-306.27 1853,-287 1879.77,-267.59 1895.95,-231.45 1903.91,-208.9"/>
<polygon fill="midnightblue" stroke="midnightblue" points="1685.06,-327.51 1675.68,-332.44 1686.08,-334.44 1685.06,-327.51"/>
</g>
<!-- Node36&#45;&gt;Node31 -->
<g id="edge55" class="edge">
<title>Node36&#45;&gt;Node31</title>
<path fill="none" stroke="midnightblue" d="M1495.83,-334.36C1394.31,-324.69 1228.93,-307.65 1087,-287 1083.9,-286.55 1080.75,-286.08 1077.58,-285.59"/>
<polygon fill="midnightblue" stroke="midnightblue" points="1495.77,-337.87 1506.06,-335.33 1496.43,-330.9 1495.77,-337.87"/>
</g>
<!-- Node36&#45;&gt;Node32 -->
<g id="edge57" class="edge">
<title>Node36&#45;&gt;Node32</title>
<path fill="none" stroke="midnightblue" d="M1530.73,-319.75C1503.15,-309.11 1470.84,-296.65 1444.56,-286.51"/>
<polygon fill="midnightblue" stroke="midnightblue" points="1529.68,-323.09 1540.27,-323.43 1532.2,-316.56 1529.68,-323.09"/>
</g>
<!-- Node36&#45;&gt;Node33 -->
<g id="edge58" class="edge">
<title>Node36&#45;&gt;Node33</title>
<path fill="none" stroke="midnightblue" d="M1645.82,-319.33C1670.24,-308.78 1698.65,-296.51 1721.83,-286.51"/>
<polygon fill="midnightblue" stroke="midnightblue" points="1644.12,-316.25 1636.32,-323.43 1646.89,-322.68 1644.12,-316.25"/>
</g>
<!-- Node37 -->
<g id="node37" class="node">
<title>Node37</title>
<g id="a_node37"><a xlink:href="taintEngine_8cpp.html" target="_top" xlink:title=" ">
<polygon fill="white" stroke="black" points="1510,-245.5 1510,-286.5 1672,-286.5 1672,-245.5 1510,-245.5"/>
<text text-anchor="start" x="1518" y="-274.5" font-family="Helvetica,sans-Serif" font-size="10.00">/home/jonathan/Works</text>
<text text-anchor="start" x="1518" y="-263.5" font-family="Helvetica,sans-Serif" font-size="10.00">/Tools/Triton/src/libtriton</text>
<text text-anchor="middle" x="1591" y="-252.5" font-family="Helvetica,sans-Serif" font-size="10.00">/engines/taint/taintEngine.cpp</text>
</a>
</g>
</g>
<!-- Node36&#45;&gt;Node37 -->
<g id="edge54" class="edge">
<title>Node36&#45;&gt;Node37</title>
<path fill="none" stroke="midnightblue" d="M1591,-313.3C1591,-304.3 1591,-294.65 1591,-286.51"/>
<polygon fill="midnightblue" stroke="midnightblue" points="1587.5,-313.43 1591,-323.43 1594.5,-313.43 1587.5,-313.43"/>
</g>
<!-- Node36&#45;&gt;Node38 -->
<g id="edge59" class="edge">
<title>Node36&#45;&gt;Node38</title>
<path fill="none" stroke="midnightblue" d="M1496.57,-325.99C1436.52,-315.07 1357.14,-300.47 1287,-287 1284.04,-286.43 1281.04,-285.85 1278.01,-285.26"/>
<polygon fill="midnightblue" stroke="midnightblue" points="1495.95,-329.43 1506.41,-327.77 1497.2,-322.54 1495.95,-329.43"/>
</g>
<!-- Node38&#45;&gt;Node4 -->
<g id="edge60" class="edge">
<title>Node38&#45;&gt;Node4</title>
<path fill="none" stroke="midnightblue" d="M1187,-235.3C1187,-226.3 1187,-216.65 1187,-208.51"/>
<polygon fill="midnightblue" stroke="midnightblue" points="1183.5,-235.43 1187,-245.43 1190.5,-235.43 1183.5,-235.43"/>
</g>
<!-- Node38&#45;&gt;Node5 -->
<g id="edge61" class="edge">
<title>Node38&#45;&gt;Node5</title>
<path fill="none" stroke="midnightblue" d="M1086.31,-245.05C1086.2,-245.03 1086.1,-245.02 1086,-245 954.55,-223.89 800.54,-206.37 710.19,-196.82"/>
<polygon fill="midnightblue" stroke="midnightblue" points="1085.5,-248.46 1095.94,-246.65 1086.65,-241.56 1085.5,-248.46"/>
</g>
</g>
</svg>
