<?xml version="1.0" encoding="UTF-8" standalone="no"?>
<!DOCTYPE svg PUBLIC "-//W3C//DTD SVG 1.1//EN"
 "http://www.w3.org/Graphics/SVG/1.1/DTD/svg11.dtd">
<!-- Generated by graphviz version 2.49.0 (20210828.1703)
 -->
<!-- Title: /home/jonathan/Works/Tools/Triton/src/libtriton/includes/triton/astContext.hpp Pages: 1 -->
<svg width="2955pt" height="462pt"
 viewBox="0.00 0.00 2954.63 462.00" xmlns="http://www.w3.org/2000/svg" xmlns:xlink="http://www.w3.org/1999/xlink">
<g id="graph0" class="graph" transform="scale(1 1) rotate(0) translate(4 458)">
<title>/home/jonathan/Works/Tools/Triton/src/libtriton/includes/triton/astContext.hpp</title>
<polygon fill="white" stroke="transparent" points="-4,4 -4,-458 2950.63,-458 2950.63,4 -4,4"/>
<!-- Node1 -->
<g id="node1" class="node">
<title>Node1</title>
<g id="a_node1"><a xlink:title=" ">
<polygon fill="#bfbfbf" stroke="black" points="1167.5,-412.5 1167.5,-453.5 1334.5,-453.5 1334.5,-412.5 1167.5,-412.5"/>
<text text-anchor="start" x="1175.5" y="-441.5" font-family="Helvetica,sans-Serif" font-size="10.00">/home/jonathan/Works</text>
<text text-anchor="start" x="1175.5" y="-430.5" font-family="Helvetica,sans-Serif" font-size="10.00">/Tools/Triton/src/libtriton</text>
<text text-anchor="middle" x="1251" y="-419.5" font-family="Helvetica,sans-Serif" font-size="10.00">/includes/triton/astContext.hpp</text>
</a>
</g>
</g>
<!-- Node2 -->
<g id="node2" class="node">
<title>Node2</title>
<g id="a_node2"><a xlink:href="aarch64Semantics_8cpp.html" target="_top" xlink:title=" ">
<polygon fill="white" stroke="black" points="0,-89.5 0,-130.5 218,-130.5 218,-89.5 0,-89.5"/>
<text text-anchor="start" x="8" y="-118.5" font-family="Helvetica,sans-Serif" font-size="10.00">/home/jonathan/Works</text>
<text text-anchor="start" x="8" y="-107.5" font-family="Helvetica,sans-Serif" font-size="10.00">/Tools/Triton/src/libtriton</text>
<text text-anchor="middle" x="109" y="-96.5" font-family="Helvetica,sans-Serif" font-size="10.00">/arch/arm/aarch64/aarch64Semantics.cpp</text>
</a>
</g>
</g>
<!-- Node1&#45;&gt;Node2 -->
<g id="edge1" class="edge">
<title>Node1&#45;&gt;Node2</title>
<path fill="none" stroke="midnightblue" d="M1156.85,-431.07C882.31,-427.9 99.61,-415.42 62,-376 -3.8,-307.03 65.12,-179.7 95.83,-130.82"/>
<polygon fill="midnightblue" stroke="midnightblue" points="1157.14,-434.57 1167.18,-431.19 1157.22,-427.57 1157.14,-434.57"/>
</g>
<!-- Node3 -->
<g id="node3" class="node">
<title>Node3</title>
<g id="a_node3"><a xlink:href="arm32Semantics_8cpp.html" target="_top" xlink:title=" ">
<polygon fill="white" stroke="black" points="626.5,-89.5 626.5,-130.5 829.5,-130.5 829.5,-89.5 626.5,-89.5"/>
<text text-anchor="start" x="634.5" y="-118.5" font-family="Helvetica,sans-Serif" font-size="10.00">/home/jonathan/Works</text>
<text text-anchor="start" x="634.5" y="-107.5" font-family="Helvetica,sans-Serif" font-size="10.00">/Tools/Triton/src/libtriton</text>
<text text-anchor="middle" x="728" y="-96.5" font-family="Helvetica,sans-Serif" font-size="10.00">/arch/arm/arm32/arm32Semantics.cpp</text>
</a>
</g>
</g>
<!-- Node1&#45;&gt;Node3 -->
<g id="edge2" class="edge">
<title>Node1&#45;&gt;Node3</title>
<path fill="none" stroke="midnightblue" d="M1157.18,-430.94C888.4,-427.43 132.4,-414.21 96,-376 -67.93,-203.93 408.74,-139.04 626.13,-118.84"/>
<polygon fill="midnightblue" stroke="midnightblue" points="1157.26,-434.44 1167.31,-431.07 1157.35,-427.44 1157.26,-434.44"/>
</g>
<!-- Node4 -->
<g id="node4" class="node">
<title>Node4</title>
<g id="a_node4"><a xlink:href="irBuilder_8cpp.html" target="_top" xlink:title=" ">
<polygon fill="white" stroke="black" points="1312.5,-89.5 1312.5,-130.5 1445.5,-130.5 1445.5,-89.5 1312.5,-89.5"/>
<text text-anchor="start" x="1320.5" y="-118.5" font-family="Helvetica,sans-Serif" font-size="10.00">/home/jonathan/Works</text>
<text text-anchor="start" x="1320.5" y="-107.5" font-family="Helvetica,sans-Serif" font-size="10.00">/Tools/Triton/src/libtriton</text>
<text text-anchor="middle" x="1379" y="-96.5" font-family="Helvetica,sans-Serif" font-size="10.00">/arch/irBuilder.cpp</text>
</a>
</g>
</g>
<!-- Node1&#45;&gt;Node4 -->
<g id="edge3" class="edge">
<title>Node1&#45;&gt;Node4</title>
<path fill="none" stroke="midnightblue" d="M1344.77,-431.07C1520.37,-428.34 1884.65,-417.67 1923,-376 1938.95,-358.67 1938.42,-340.8 1923,-323 1849.5,-238.15 1770.2,-343.16 1673,-287 1652.44,-275.12 1661.02,-256.03 1640,-245 1582.03,-214.6 1096.85,-256.68 1052,-209 1039.21,-195.4 1039.97,-181.27 1052,-167 1060.37,-157.08 1219.06,-133.37 1312.25,-120.2"/>
<polygon fill="midnightblue" stroke="midnightblue" points="1344.7,-427.57 1334.76,-431.22 1344.81,-434.57 1344.7,-427.57"/>
</g>
<!-- Node5 -->
<g id="node5" class="node">
<title>Node5</title>
<g id="a_node5"><a xlink:href="x86Semantics_8cpp.html" target="_top" xlink:title=" ">
<polygon fill="white" stroke="black" points="1043,-89.5 1043,-130.5 1197,-130.5 1197,-89.5 1043,-89.5"/>
<text text-anchor="start" x="1051" y="-118.5" font-family="Helvetica,sans-Serif" font-size="10.00">/home/jonathan/Works</text>
<text text-anchor="start" x="1051" y="-107.5" font-family="Helvetica,sans-Serif" font-size="10.00">/Tools/Triton/src/libtriton</text>
<text text-anchor="middle" x="1120" y="-96.5" font-family="Helvetica,sans-Serif" font-size="10.00">/arch/x86/x86Semantics.cpp</text>
</a>
</g>
</g>
<!-- Node1&#45;&gt;Node5 -->
<g id="edge4" class="edge">
<title>Node1&#45;&gt;Node5</title>
<path fill="none" stroke="midnightblue" d="M1157.24,-430.86C891.43,-427.18 149.76,-413.56 114,-376 -20.26,-234.97 785.35,-143.51 1042.8,-118.17"/>
<polygon fill="midnightblue" stroke="midnightblue" points="1157.21,-434.36 1167.26,-431 1157.31,-427.36 1157.21,-434.36"/>
</g>
<!-- Node6 -->
<g id="node6" class="node">
<title>Node6</title>
<g id="a_node6"><a xlink:href="ast_8cpp.html" target="_top" xlink:title=" ">
<polygon fill="white" stroke="black" points="145.5,-329 145.5,-370 278.5,-370 278.5,-329 145.5,-329"/>
<text text-anchor="start" x="153.5" y="-358" font-family="Helvetica,sans-Serif" font-size="10.00">/home/jonathan/Works</text>
<text text-anchor="start" x="153.5" y="-347" font-family="Helvetica,sans-Serif" font-size="10.00">/Tools/Triton/src/libtriton</text>
<text text-anchor="middle" x="212" y="-336" font-family="Helvetica,sans-Serif" font-size="10.00">/ast/ast.cpp</text>
</a>
</g>
</g>
<!-- Node1&#45;&gt;Node6 -->
<g id="edge5" class="edge">
<title>Node1&#45;&gt;Node6</title>
<path fill="none" stroke="midnightblue" d="M1157.49,-429.77C949.07,-424.29 451.82,-408.19 287,-376 279.31,-374.5 271.32,-372.4 263.55,-370.05"/>
<polygon fill="midnightblue" stroke="midnightblue" points="1157.41,-433.27 1167.5,-430.04 1157.59,-426.28 1157.41,-433.27"/>
</g>
<!-- Node7 -->
<g id="node7" class="node">
<title>Node7</title>
<g id="a_node7"><a xlink:href="astContext_8cpp.html" target="_top" xlink:title=" ">
<polygon fill="white" stroke="black" points="296.5,-329 296.5,-370 429.5,-370 429.5,-329 296.5,-329"/>
<text text-anchor="start" x="304.5" y="-358" font-family="Helvetica,sans-Serif" font-size="10.00">/home/jonathan/Works</text>
<text text-anchor="start" x="304.5" y="-347" font-family="Helvetica,sans-Serif" font-size="10.00">/Tools/Triton/src/libtriton</text>
<text text-anchor="middle" x="363" y="-336" font-family="Helvetica,sans-Serif" font-size="10.00">/ast/astContext.cpp</text>
</a>
</g>
</g>
<!-- Node1&#45;&gt;Node7 -->
<g id="edge6" class="edge">
<title>Node1&#45;&gt;Node7</title>
<path fill="none" stroke="midnightblue" d="M1157.04,-428.58C973.41,-421.41 573.11,-403.14 438,-376 430.45,-374.48 422.61,-372.41 414.98,-370.1"/>
<polygon fill="midnightblue" stroke="midnightblue" points="1157.09,-432.09 1167.21,-428.98 1157.36,-425.09 1157.09,-432.09"/>
</g>
<!-- Node8 -->
<g id="node8" class="node">
<title>Node8</title>
<g id="a_node8"><a xlink:href="z3ToTriton_8cpp.html" target="_top" xlink:title=" ">
<polygon fill="white" stroke="black" points="447.5,-329 447.5,-370 580.5,-370 580.5,-329 447.5,-329"/>
<text text-anchor="start" x="455.5" y="-358" font-family="Helvetica,sans-Serif" font-size="10.00">/home/jonathan/Works</text>
<text text-anchor="start" x="455.5" y="-347" font-family="Helvetica,sans-Serif" font-size="10.00">/Tools/Triton/src/libtriton</text>
<text text-anchor="middle" x="514" y="-336" font-family="Helvetica,sans-Serif" font-size="10.00">/ast/z3/z3ToTriton.cpp</text>
</a>
</g>
</g>
<!-- Node1&#45;&gt;Node8 -->
<g id="edge7" class="edge">
<title>Node1&#45;&gt;Node8</title>
<path fill="none" stroke="midnightblue" d="M1157.15,-431.08C1028.08,-428.22 789.16,-417.23 590,-376 582.5,-374.45 574.72,-372.39 567.12,-370.11"/>
<polygon fill="midnightblue" stroke="midnightblue" points="1157.32,-434.58 1167.39,-431.29 1157.46,-427.58 1157.32,-434.58"/>
</g>
<!-- Node9 -->
<g id="node9" class="node">
<title>Node9</title>
<g id="a_node9"><a xlink:href="pyAstContext_8cpp.html" target="_top" xlink:title=" ">
<polygon fill="white" stroke="black" points="599,-323.5 599,-375.5 735,-375.5 735,-323.5 599,-323.5"/>
<text text-anchor="start" x="607" y="-363.5" font-family="Helvetica,sans-Serif" font-size="10.00">/home/jonathan/Works</text>
<text text-anchor="start" x="607" y="-352.5" font-family="Helvetica,sans-Serif" font-size="10.00">/Tools/Triton/src/libtriton</text>
<text text-anchor="start" x="607" y="-341.5" font-family="Helvetica,sans-Serif" font-size="10.00">/bindings/python/objects</text>
<text text-anchor="middle" x="667" y="-330.5" font-family="Helvetica,sans-Serif" font-size="10.00">/pyAstContext.cpp</text>
</a>
</g>
</g>
<!-- Node1&#45;&gt;Node9 -->
<g id="edge8" class="edge">
<title>Node1&#45;&gt;Node9</title>
<path fill="none" stroke="midnightblue" d="M1157.13,-427.53C1054.63,-421.29 886.13,-407.02 744,-376 741.11,-375.37 738.18,-374.67 735.23,-373.92"/>
<polygon fill="midnightblue" stroke="midnightblue" points="1156.95,-431.03 1167.14,-428.13 1157.37,-424.04 1156.95,-431.03"/>
</g>
<!-- Node10 -->
<g id="node10" class="node">
<title>Node10</title>
<g id="a_node10"><a xlink:href="pyAstNode_8cpp.html" target="_top" xlink:title=" ">
<polygon fill="white" stroke="black" points="753,-323.5 753,-375.5 889,-375.5 889,-323.5 753,-323.5"/>
<text text-anchor="start" x="761" y="-363.5" font-family="Helvetica,sans-Serif" font-size="10.00">/home/jonathan/Works</text>
<text text-anchor="start" x="761" y="-352.5" font-family="Helvetica,sans-Serif" font-size="10.00">/Tools/Triton/src/libtriton</text>
<text text-anchor="start" x="761" y="-341.5" font-family="Helvetica,sans-Serif" font-size="10.00">/bindings/python/objects</text>
<text text-anchor="middle" x="821" y="-330.5" font-family="Helvetica,sans-Serif" font-size="10.00">/pyAstNode.cpp</text>
</a>
</g>
</g>
<!-- Node1&#45;&gt;Node10 -->
<g id="edge9" class="edge">
<title>Node1&#45;&gt;Node10</title>
<path fill="none" stroke="midnightblue" d="M1157.1,-421.17C1085.72,-411.95 985.43,-396.86 899,-376 895.81,-375.23 892.57,-374.39 889.31,-373.51"/>
<polygon fill="midnightblue" stroke="midnightblue" points="1157.05,-424.69 1167.41,-422.49 1157.93,-417.75 1157.05,-424.69"/>
</g>
<!-- Node11 -->
<g id="node11" class="node">
<title>Node11</title>
<g id="a_node11"><a xlink:href="liftingToLLVM_8cpp.html" target="_top" xlink:title=" ">
<polygon fill="white" stroke="black" points="418,-245.5 418,-286.5 594,-286.5 594,-245.5 418,-245.5"/>
<text text-anchor="start" x="426" y="-274.5" font-family="Helvetica,sans-Serif" font-size="10.00">/home/jonathan/Works</text>
<text text-anchor="start" x="426" y="-263.5" font-family="Helvetica,sans-Serif" font-size="10.00">/Tools/Triton/src/libtriton</text>
<text text-anchor="middle" x="506" y="-252.5" font-family="Helvetica,sans-Serif" font-size="10.00">/engines/lifters/liftingToLLVM.cpp</text>
</a>
</g>
</g>
<!-- Node1&#45;&gt;Node11 -->
<g id="edge10" class="edge">
<title>Node1&#45;&gt;Node11</title>
<path fill="none" stroke="midnightblue" d="M1156.82,-430.76C894.25,-426.84 170.95,-412.75 136,-376 50.39,-285.99 283.12,-269.19 417.8,-266.77"/>
<polygon fill="midnightblue" stroke="midnightblue" points="1157.04,-434.26 1167.09,-430.91 1157.15,-427.26 1157.04,-434.26"/>
</g>
<!-- Node12 -->
<g id="node12" class="node">
<title>Node12</title>
<g id="a_node12"><a xlink:href="bitwuzlaSolver_8cpp.html" target="_top" xlink:title=" ">
<polygon fill="white" stroke="black" points="1098.5,-323.5 1098.5,-375.5 1233.5,-375.5 1233.5,-323.5 1098.5,-323.5"/>
<text text-anchor="start" x="1106.5" y="-363.5" font-family="Helvetica,sans-Serif" font-size="10.00">/home/jonathan/Works</text>
<text text-anchor="start" x="1106.5" y="-352.5" font-family="Helvetica,sans-Serif" font-size="10.00">/Tools/Triton/src/libtriton</text>
<text text-anchor="start" x="1106.5" y="-341.5" font-family="Helvetica,sans-Serif" font-size="10.00">/engines/solver/bitwuzla</text>
<text text-anchor="middle" x="1166" y="-330.5" font-family="Helvetica,sans-Serif" font-size="10.00">/bitwuzlaSolver.cpp</text>
</a>
</g>
</g>
<!-- Node1&#45;&gt;Node12 -->
<g id="edge11" class="edge">
<title>Node1&#45;&gt;Node12</title>
<path fill="none" stroke="midnightblue" d="M1223.1,-405.24C1213.15,-395.71 1201.98,-385 1192.19,-375.61"/>
<polygon fill="midnightblue" stroke="midnightblue" points="1220.78,-407.88 1230.42,-412.27 1225.63,-402.82 1220.78,-407.88"/>
</g>
<!-- Node13 -->
<g id="node13" class="node">
<title>Node13</title>
<g id="a_node13"><a xlink:href="z3Solver_8cpp.html" target="_top" xlink:title=" ">
<polygon fill="white" stroke="black" points="1252,-329 1252,-370 1422,-370 1422,-329 1252,-329"/>
<text text-anchor="start" x="1260" y="-358" font-family="Helvetica,sans-Serif" font-size="10.00">/home/jonathan/Works</text>
<text text-anchor="start" x="1260" y="-347" font-family="Helvetica,sans-Serif" font-size="10.00">/Tools/Triton/src/libtriton</text>
<text text-anchor="middle" x="1337" y="-336" font-family="Helvetica,sans-Serif" font-size="10.00">/engines/solver/z3/z3Solver.cpp</text>
</a>
</g>
</g>
<!-- Node1&#45;&gt;Node13 -->
<g id="edge12" class="edge">
<title>Node1&#45;&gt;Node13</title>
<path fill="none" stroke="midnightblue" d="M1279.11,-405.36C1291.25,-393.85 1305.21,-380.63 1316.37,-370.05"/>
<polygon fill="midnightblue" stroke="midnightblue" points="1276.67,-402.85 1271.82,-412.27 1281.48,-407.93 1276.67,-402.85"/>
</g>
<!-- Node14 -->
<g id="node14" class="node">
<title>Node14</title>
<g id="a_node14"><a xlink:href="pathManager_8cpp.html" target="_top" xlink:title=" ">
<polygon fill="white" stroke="black" points="1440,-329 1440,-370 1632,-370 1632,-329 1440,-329"/>
<text text-anchor="start" x="1448" y="-358" font-family="Helvetica,sans-Serif" font-size="10.00">/home/jonathan/Works</text>
<text text-anchor="start" x="1448" y="-347" font-family="Helvetica,sans-Serif" font-size="10.00">/Tools/Triton/src/libtriton</text>
<text text-anchor="middle" x="1536" y="-336" font-family="Helvetica,sans-Serif" font-size="10.00">/engines/symbolic/pathManager.cpp</text>
</a>
</g>
</g>
<!-- Node1&#45;&gt;Node14 -->
<g id="edge13" class="edge">
<title>Node1&#45;&gt;Node14</title>
<path fill="none" stroke="midnightblue" d="M1328.94,-409.71C1372.4,-397.28 1426.02,-381.95 1467.8,-370"/>
<polygon fill="midnightblue" stroke="midnightblue" points="1327.92,-406.36 1319.26,-412.48 1329.84,-413.09 1327.92,-406.36"/>
</g>
<!-- Node15 -->
<g id="node15" class="node">
<title>Node15</title>
<g id="a_node15"><a xlink:href="symbolicEngine_8cpp.html" target="_top" xlink:title=" ">
<polygon fill="white" stroke="black" points="1425,-245.5 1425,-286.5 1631,-286.5 1631,-245.5 1425,-245.5"/>
<text text-anchor="start" x="1433" y="-274.5" font-family="Helvetica,sans-Serif" font-size="10.00">/home/jonathan/Works</text>
<text text-anchor="start" x="1433" y="-263.5" font-family="Helvetica,sans-Serif" font-size="10.00">/Tools/Triton/src/libtriton</text>
<text text-anchor="middle" x="1528" y="-252.5" font-family="Helvetica,sans-Serif" font-size="10.00">/engines/symbolic/symbolicEngine.cpp</text>
</a>
</g>
</g>
<!-- Node1&#45;&gt;Node15 -->
<g id="edge14" class="edge">
<title>Node1&#45;&gt;Node15</title>
<path fill="none" stroke="midnightblue" d="M1344.84,-432.08C1447.79,-429.93 1603.44,-419.33 1641,-376 1656.43,-358.2 1653.42,-343.02 1641,-323 1630.84,-306.63 1614.31,-294.89 1597,-286.55"/>
<polygon fill="midnightblue" stroke="midnightblue" points="1344.67,-428.58 1334.74,-432.26 1344.8,-435.58 1344.67,-428.58"/>
</g>
<!-- Node16 -->
<g id="node16" class="node">
<title>Node16</title>
<g id="a_node16"><a xlink:href="symbolicExpression_8cpp.html" target="_top" xlink:title=" ">
<polygon fill="white" stroke="black" points="1688,-329 1688,-370 1914,-370 1914,-329 1688,-329"/>
<text text-anchor="start" x="1696" y="-358" font-family="Helvetica,sans-Serif" font-size="10.00">/home/jonathan/Works</text>
<text text-anchor="start" x="1696" y="-347" font-family="Helvetica,sans-Serif" font-size="10.00">/Tools/Triton/src/libtriton</text>
<text text-anchor="middle" x="1801" y="-336" font-family="Helvetica,sans-Serif" font-size="10.00">/engines/symbolic/symbolicExpression.cpp</text>
</a>
</g>
</g>
<!-- Node1&#45;&gt;Node16 -->
<g id="edge15" class="edge">
<title>Node1&#45;&gt;Node16</title>
<path fill="none" stroke="midnightblue" d="M1344.7,-421.41C1430.6,-411.27 1561.18,-394.77 1674,-376 1684.87,-374.19 1696.23,-372.14 1707.5,-370.01"/>
<polygon fill="midnightblue" stroke="midnightblue" points="1344.24,-417.94 1334.71,-422.58 1345.05,-424.89 1344.24,-417.94"/>
</g>
<!-- Node17 -->
<g id="node17" class="node">
<title>Node17</title>
<g id="a_node17"><a xlink:href="api_8hpp.html" target="_top" xlink:title=" ">
<polygon fill="white" stroke="black" points="2186.5,-89.5 2186.5,-130.5 2319.5,-130.5 2319.5,-89.5 2186.5,-89.5"/>
<text text-anchor="start" x="2194.5" y="-118.5" font-family="Helvetica,sans-Serif" font-size="10.00">/home/jonathan/Works</text>
<text text-anchor="start" x="2194.5" y="-107.5" font-family="Helvetica,sans-Serif" font-size="10.00">/Tools/Triton/src/libtriton</text>
<text text-anchor="middle" x="2253" y="-96.5" font-family="Helvetica,sans-Serif" font-size="10.00">/includes/triton/api.hpp</text>
</a>
</g>
</g>
<!-- Node1&#45;&gt;Node17 -->
<g id="edge16" class="edge">
<title>Node1&#45;&gt;Node17</title>
<path fill="none" stroke="midnightblue" d="M1345.16,-430.29C1630.45,-424.78 2473.07,-406.15 2593,-376 2758.21,-334.47 2847.51,-353.33 2938,-209 2947.92,-193.18 2950.65,-180.73 2938,-167 2896.63,-122.11 2483.75,-113.21 2319.69,-111.44"/>
<polygon fill="midnightblue" stroke="midnightblue" points="1344.78,-426.79 1334.84,-430.48 1344.91,-433.79 1344.78,-426.79"/>
</g>
<!-- Node21 -->
<g id="node21" class="node">
<title>Node21</title>
<g id="a_node21"><a xlink:href="liftingEngine_8hpp.html" target="_top" xlink:title=" ">
<polygon fill="white" stroke="black" points="2325,-167.5 2325,-208.5 2499,-208.5 2499,-167.5 2325,-167.5"/>
<text text-anchor="start" x="2333" y="-196.5" font-family="Helvetica,sans-Serif" font-size="10.00">/home/jonathan/Works</text>
<text text-anchor="start" x="2333" y="-185.5" font-family="Helvetica,sans-Serif" font-size="10.00">/Tools/Triton/src/libtriton</text>
<text text-anchor="middle" x="2412" y="-174.5" font-family="Helvetica,sans-Serif" font-size="10.00">/includes/triton/liftingEngine.hpp</text>
</a>
</g>
</g>
<!-- Node1&#45;&gt;Node21 -->
<g id="edge20" class="edge">
<title>Node1&#45;&gt;Node21</title>
<path fill="none" stroke="midnightblue" d="M1344.76,-430.57C1562.7,-426.65 2098.25,-413.42 2274,-376 2382.42,-352.92 2444.14,-378.31 2507,-287 2517.59,-271.63 2516.26,-261.21 2507,-245 2497.88,-229.04 2482.24,-217.18 2466.26,-208.58"/>
<polygon fill="midnightblue" stroke="midnightblue" points="1344.56,-427.08 1334.62,-430.75 1344.68,-434.07 1344.56,-427.08"/>
</g>
<!-- Node22 -->
<g id="node22" class="node">
<title>Node22</title>
<g id="a_node22"><a xlink:href="liftingToPython_8hpp.html" target="_top" xlink:title=" ">
<polygon fill="white" stroke="black" points="2122.5,-245.5 2122.5,-286.5 2307.5,-286.5 2307.5,-245.5 2122.5,-245.5"/>
<text text-anchor="start" x="2130.5" y="-274.5" font-family="Helvetica,sans-Serif" font-size="10.00">/home/jonathan/Works</text>
<text text-anchor="start" x="2130.5" y="-263.5" font-family="Helvetica,sans-Serif" font-size="10.00">/Tools/Triton/src/libtriton</text>
<text text-anchor="middle" x="2215" y="-252.5" font-family="Helvetica,sans-Serif" font-size="10.00">/includes/triton/liftingToPython.hpp</text>
</a>
</g>
</g>
<!-- Node1&#45;&gt;Node22 -->
<g id="edge22" class="edge">
<title>Node1&#45;&gt;Node22</title>
<path fill="none" stroke="midnightblue" d="M1344.81,-431.89C1565.72,-430.85 2105.12,-423.42 2171,-376 2199.98,-355.13 2209.9,-311.86 2213.28,-286.56"/>
<polygon fill="midnightblue" stroke="midnightblue" points="1344.52,-428.39 1334.53,-431.94 1344.55,-435.39 1344.52,-428.39"/>
</g>
<!-- Node24 -->
<g id="node24" class="node">
<title>Node24</title>
<g id="a_node24"><a xlink:href="liftingToSMT_8hpp.html" target="_top" xlink:title=" ">
<polygon fill="white" stroke="black" points="2326,-245.5 2326,-286.5 2498,-286.5 2498,-245.5 2326,-245.5"/>
<text text-anchor="start" x="2334" y="-274.5" font-family="Helvetica,sans-Serif" font-size="10.00">/home/jonathan/Works</text>
<text text-anchor="start" x="2334" y="-263.5" font-family="Helvetica,sans-Serif" font-size="10.00">/Tools/Triton/src/libtriton</text>
<text text-anchor="middle" x="2412" y="-252.5" font-family="Helvetica,sans-Serif" font-size="10.00">/includes/triton/liftingToSMT.hpp</text>
</a>
</g>
</g>
<!-- Node1&#45;&gt;Node24 -->
<g id="edge25" class="edge">
<title>Node1&#45;&gt;Node24</title>
<path fill="none" stroke="midnightblue" d="M1345,-431.41C1552.07,-429.3 2041.77,-419.7 2201,-376 2270.98,-356.79 2344.47,-312.48 2383.56,-286.65"/>
<polygon fill="midnightblue" stroke="midnightblue" points="1344.73,-427.91 1334.76,-431.51 1344.79,-434.91 1344.73,-427.91"/>
</g>
<!-- Node26 -->
<g id="node26" class="node">
<title>Node26</title>
<g id="a_node26"><a xlink:href="llvmToTriton_8hpp.html" target="_top" xlink:title=" ">
<polygon fill="white" stroke="black" points="907.5,-329 907.5,-370 1080.5,-370 1080.5,-329 907.5,-329"/>
<text text-anchor="start" x="915.5" y="-358" font-family="Helvetica,sans-Serif" font-size="10.00">/home/jonathan/Works</text>
<text text-anchor="start" x="915.5" y="-347" font-family="Helvetica,sans-Serif" font-size="10.00">/Tools/Triton/src/libtriton</text>
<text text-anchor="middle" x="994" y="-336" font-family="Helvetica,sans-Serif" font-size="10.00">/includes/triton/llvmToTriton.hpp</text>
</a>
</g>
</g>
<!-- Node1&#45;&gt;Node26 -->
<g id="edge28" class="edge">
<title>Node1&#45;&gt;Node26</title>
<path fill="none" stroke="midnightblue" d="M1179.73,-409.4C1140.72,-397.03 1092.86,-381.85 1055.5,-370"/>
<polygon fill="midnightblue" stroke="midnightblue" points="1178.85,-412.79 1189.44,-412.48 1180.97,-406.12 1178.85,-412.79"/>
</g>
<!-- Node28 -->
<g id="node28" class="node">
<title>Node28</title>
<g id="a_node28"><a xlink:href="symbolicEngine_8hpp.html" target="_top" xlink:title=" ">
<polygon fill="white" stroke="black" points="1970.5,-329 1970.5,-370 2161.5,-370 2161.5,-329 1970.5,-329"/>
<text text-anchor="start" x="1978.5" y="-358" font-family="Helvetica,sans-Serif" font-size="10.00">/home/jonathan/Works</text>
<text text-anchor="start" x="1978.5" y="-347" font-family="Helvetica,sans-Serif" font-size="10.00">/Tools/Triton/src/libtriton</text>
<text text-anchor="middle" x="2066" y="-336" font-family="Helvetica,sans-Serif" font-size="10.00">/includes/triton/symbolicEngine.hpp</text>
</a>
</g>
</g>
<!-- Node1&#45;&gt;Node28 -->
<g id="edge31" class="edge">
<title>Node1&#45;&gt;Node28</title>
<path fill="none" stroke="midnightblue" d="M1345.11,-428.97C1480.77,-423.59 1738.85,-409.6 1956,-376 1966.46,-374.38 1977.4,-372.31 1988.16,-370.05"/>
<polygon fill="midnightblue" stroke="midnightblue" points="1344.62,-425.48 1334.76,-429.37 1344.89,-432.48 1344.62,-425.48"/>
</g>
<!-- Node32 -->
<g id="node32" class="node">
<title>Node32</title>
<g id="a_node32"><a xlink:href="synthesizer_8hpp.html" target="_top" xlink:title=" ">
<polygon fill="white" stroke="black" points="2592.5,-245.5 2592.5,-286.5 2761.5,-286.5 2761.5,-245.5 2592.5,-245.5"/>
<text text-anchor="start" x="2600.5" y="-274.5" font-family="Helvetica,sans-Serif" font-size="10.00">/home/jonathan/Works</text>
<text text-anchor="start" x="2600.5" y="-263.5" font-family="Helvetica,sans-Serif" font-size="10.00">/Tools/Triton/src/libtriton</text>
<text text-anchor="middle" x="2677" y="-252.5" font-family="Helvetica,sans-Serif" font-size="10.00">/includes/triton/synthesizer.hpp</text>
</a>
</g>
</g>
<!-- Node1&#45;&gt;Node32 -->
<g id="edge59" class="edge">
<title>Node1&#45;&gt;Node32</title>
<path fill="none" stroke="midnightblue" d="M1344.69,-431.27C1622.47,-428.63 2429.12,-417.45 2540,-376 2590.11,-357.27 2636.07,-312.77 2659.9,-286.79"/>
<polygon fill="midnightblue" stroke="midnightblue" points="1344.6,-427.77 1334.64,-431.36 1344.67,-434.77 1344.6,-427.77"/>
</g>
<!-- Node18 -->
<g id="node18" class="node">
<title>Node18</title>
<g id="a_node18"><a xlink:href="api_8cpp.html" target="_top" xlink:title=" ">
<polygon fill="white" stroke="black" points="2033.5,-6 2033.5,-47 2166.5,-47 2166.5,-6 2033.5,-6"/>
<text text-anchor="start" x="2041.5" y="-35" font-family="Helvetica,sans-Serif" font-size="10.00">/home/jonathan/Works</text>
<text text-anchor="start" x="2041.5" y="-24" font-family="Helvetica,sans-Serif" font-size="10.00">/Tools/Triton/src/libtriton</text>
<text text-anchor="middle" x="2100" y="-13" font-family="Helvetica,sans-Serif" font-size="10.00">/api/api.cpp</text>
</a>
</g>
</g>
<!-- Node17&#45;&gt;Node18 -->
<g id="edge17" class="edge">
<title>Node17&#45;&gt;Node18</title>
<path fill="none" stroke="midnightblue" d="M2207.29,-84.65C2184.7,-72.62 2157.82,-58.3 2136.61,-47"/>
<polygon fill="midnightblue" stroke="midnightblue" points="2205.88,-87.87 2216.35,-89.48 2209.17,-81.69 2205.88,-87.87"/>
</g>
<!-- Node19 -->
<g id="node19" class="node">
<title>Node19</title>
<g id="a_node19"><a xlink:href="pyTritonContext_8cpp.html" target="_top" xlink:title=" ">
<polygon fill="white" stroke="black" points="2185,-0.5 2185,-52.5 2321,-52.5 2321,-0.5 2185,-0.5"/>
<text text-anchor="start" x="2193" y="-40.5" font-family="Helvetica,sans-Serif" font-size="10.00">/home/jonathan/Works</text>
<text text-anchor="start" x="2193" y="-29.5" font-family="Helvetica,sans-Serif" font-size="10.00">/Tools/Triton/src/libtriton</text>
<text text-anchor="start" x="2193" y="-18.5" font-family="Helvetica,sans-Serif" font-size="10.00">/bindings/python/objects</text>
<text text-anchor="middle" x="2253" y="-7.5" font-family="Helvetica,sans-Serif" font-size="10.00">/pyTritonContext.cpp</text>
</a>
</g>
</g>
<!-- Node17&#45;&gt;Node19 -->
<g id="edge18" class="edge">
<title>Node17&#45;&gt;Node19</title>
<path fill="none" stroke="midnightblue" d="M2253,-79.12C2253,-70.41 2253,-60.99 2253,-52.61"/>
<polygon fill="midnightblue" stroke="midnightblue" points="2249.5,-79.27 2253,-89.27 2256.5,-79.27 2249.5,-79.27"/>
</g>
<!-- Node20 -->
<g id="node20" class="node">
<title>Node20</title>
<g id="a_node20"><a xlink:href="callbacks_8cpp.html" target="_top" xlink:title=" ">
<polygon fill="white" stroke="black" points="2339,-6 2339,-47 2473,-47 2473,-6 2339,-6"/>
<text text-anchor="start" x="2347" y="-35" font-family="Helvetica,sans-Serif" font-size="10.00">/home/jonathan/Works</text>
<text text-anchor="start" x="2347" y="-24" font-family="Helvetica,sans-Serif" font-size="10.00">/Tools/Triton/src/libtriton</text>
<text text-anchor="middle" x="2406" y="-13" font-family="Helvetica,sans-Serif" font-size="10.00">/callbacks/callbacks.cpp</text>
</a>
</g>
</g>
<!-- Node17&#45;&gt;Node20 -->
<g id="edge19" class="edge">
<title>Node17&#45;&gt;Node20</title>
<path fill="none" stroke="midnightblue" d="M2298.71,-84.65C2321.3,-72.62 2348.18,-58.3 2369.39,-47"/>
<polygon fill="midnightblue" stroke="midnightblue" points="2296.83,-81.69 2289.65,-89.48 2300.12,-87.87 2296.83,-81.69"/>
</g>
<!-- Node21&#45;&gt;Node17 -->
<g id="edge21" class="edge">
<title>Node21&#45;&gt;Node17</title>
<path fill="none" stroke="midnightblue" d="M2361.89,-163.05C2339.96,-152.57 2314.56,-140.42 2293.81,-130.51"/>
<polygon fill="midnightblue" stroke="midnightblue" points="2360.52,-166.27 2371.05,-167.43 2363.54,-159.96 2360.52,-166.27"/>
</g>
<!-- Node22&#45;&gt;Node21 -->
<g id="edge24" class="edge">
<title>Node22&#45;&gt;Node21</title>
<path fill="none" stroke="midnightblue" d="M2275.27,-241.75C2302.85,-231.11 2335.16,-218.65 2361.44,-208.51"/>
<polygon fill="midnightblue" stroke="midnightblue" points="2273.8,-238.56 2265.73,-245.43 2276.32,-245.09 2273.8,-238.56"/>
</g>
<!-- Node23 -->
<g id="node23" class="node">
<title>Node23</title>
<g id="a_node23"><a xlink:href="liftingToPython_8cpp.html" target="_top" xlink:title=" ">
<polygon fill="white" stroke="black" points="2123,-167.5 2123,-208.5 2307,-208.5 2307,-167.5 2123,-167.5"/>
<text text-anchor="start" x="2131" y="-196.5" font-family="Helvetica,sans-Serif" font-size="10.00">/home/jonathan/Works</text>
<text text-anchor="start" x="2131" y="-185.5" font-family="Helvetica,sans-Serif" font-size="10.00">/Tools/Triton/src/libtriton</text>
<text text-anchor="middle" x="2215" y="-174.5" font-family="Helvetica,sans-Serif" font-size="10.00">/engines/lifters/liftingToPython.cpp</text>
</a>
</g>
</g>
<!-- Node22&#45;&gt;Node23 -->
<g id="edge23" class="edge">
<title>Node22&#45;&gt;Node23</title>
<path fill="none" stroke="midnightblue" d="M2215,-235.3C2215,-226.3 2215,-216.65 2215,-208.51"/>
<polygon fill="midnightblue" stroke="midnightblue" points="2211.5,-235.43 2215,-245.43 2218.5,-235.43 2211.5,-235.43"/>
</g>
<!-- Node24&#45;&gt;Node21 -->
<g id="edge27" class="edge">
<title>Node24&#45;&gt;Node21</title>
<path fill="none" stroke="midnightblue" d="M2412,-235.3C2412,-226.3 2412,-216.65 2412,-208.51"/>
<polygon fill="midnightblue" stroke="midnightblue" points="2408.5,-235.43 2412,-245.43 2415.5,-235.43 2408.5,-235.43"/>
</g>
<!-- Node25 -->
<g id="node25" class="node">
<title>Node25</title>
<g id="a_node25"><a xlink:href="liftingToSMT_8cpp.html" target="_top" xlink:title=" ">
<polygon fill="white" stroke="black" points="2517,-167.5 2517,-208.5 2687,-208.5 2687,-167.5 2517,-167.5"/>
<text text-anchor="start" x="2525" y="-196.5" font-family="Helvetica,sans-Serif" font-size="10.00">/home/jonathan/Works</text>
<text text-anchor="start" x="2525" y="-185.5" font-family="Helvetica,sans-Serif" font-size="10.00">/Tools/Triton/src/libtriton</text>
<text text-anchor="middle" x="2602" y="-174.5" font-family="Helvetica,sans-Serif" font-size="10.00">/engines/lifters/liftingToSMT.cpp</text>
</a>
</g>
</g>
<!-- Node24&#45;&gt;Node25 -->
<g id="edge26" class="edge">
<title>Node24&#45;&gt;Node25</title>
<path fill="none" stroke="midnightblue" d="M2470.48,-241.61C2497,-231 2528,-218.6 2553.24,-208.51"/>
<polygon fill="midnightblue" stroke="midnightblue" points="2468.91,-238.46 2460.93,-245.43 2471.51,-244.96 2468.91,-238.46"/>
</g>
<!-- Node26&#45;&gt;Node11 -->
<g id="edge30" class="edge">
<title>Node26&#45;&gt;Node11</title>
<path fill="none" stroke="midnightblue" d="M914.32,-326.57C908.81,-325.29 903.33,-324.09 898,-323 794.43,-301.92 673.87,-285.96 594.08,-276.58"/>
<polygon fill="midnightblue" stroke="midnightblue" points="913.69,-330.02 924.23,-328.94 915.32,-323.21 913.69,-330.02"/>
</g>
<!-- Node27 -->
<g id="node27" class="node">
<title>Node27</title>
<g id="a_node27"><a xlink:href="llvmToTriton_8cpp.html" target="_top" xlink:title=" ">
<polygon fill="white" stroke="black" points="923,-245.5 923,-286.5 1065,-286.5 1065,-245.5 923,-245.5"/>
<text text-anchor="start" x="931" y="-274.5" font-family="Helvetica,sans-Serif" font-size="10.00">/home/jonathan/Works</text>
<text text-anchor="start" x="931" y="-263.5" font-family="Helvetica,sans-Serif" font-size="10.00">/Tools/Triton/src/libtriton</text>
<text text-anchor="middle" x="994" y="-252.5" font-family="Helvetica,sans-Serif" font-size="10.00">/ast/llvm/llvmToTriton.cpp</text>
</a>
</g>
</g>
<!-- Node26&#45;&gt;Node27 -->
<g id="edge29" class="edge">
<title>Node26&#45;&gt;Node27</title>
<path fill="none" stroke="midnightblue" d="M994,-318.56C994,-307.88 994,-296.13 994,-286.55"/>
<polygon fill="midnightblue" stroke="midnightblue" points="990.5,-318.77 994,-328.77 997.5,-318.77 990.5,-318.77"/>
</g>
<!-- Node28&#45;&gt;Node15 -->
<g id="edge32" class="edge">
<title>Node28&#45;&gt;Node15</title>
<path fill="none" stroke="midnightblue" d="M1960.28,-329.21C1947.73,-327.05 1935.08,-324.93 1923,-323 1824.17,-307.19 1711.06,-291.38 1631.28,-280.62"/>
<polygon fill="midnightblue" stroke="midnightblue" points="1959.86,-332.69 1970.31,-330.95 1961.06,-325.79 1959.86,-332.69"/>
</g>
<!-- Node28&#45;&gt;Node17 -->
<g id="edge36" class="edge">
<title>Node28&#45;&gt;Node17</title>
<path fill="none" stroke="midnightblue" d="M2065.01,-318.86C2065.38,-278.58 2072.38,-207.03 2114,-167 2133.88,-147.88 2161.12,-134.99 2186.23,-126.46"/>
<polygon fill="midnightblue" stroke="midnightblue" points="2061.51,-318.87 2065.05,-328.86 2068.51,-318.84 2061.51,-318.87"/>
</g>
<!-- Node28&#45;&gt;Node21 -->
<g id="edge43" class="edge">
<title>Node28&#45;&gt;Node21</title>
<path fill="none" stroke="midnightblue" d="M2071.9,-318.79C2078.2,-295.1 2090.63,-263.01 2114,-245 2186.24,-189.34 2226.46,-226.3 2316,-209 2318.93,-208.43 2321.9,-207.85 2324.9,-207.26"/>
<polygon fill="midnightblue" stroke="midnightblue" points="2068.46,-318.14 2069.49,-328.68 2075.26,-319.8 2068.46,-318.14"/>
</g>
<!-- Node28&#45;&gt;Node22 -->
<g id="edge44" class="edge">
<title>Node28&#45;&gt;Node22</title>
<path fill="none" stroke="midnightblue" d="M2110.52,-324.15C2132.51,-312.12 2158.69,-297.8 2179.34,-286.5"/>
<polygon fill="midnightblue" stroke="midnightblue" points="2108.78,-321.11 2101.69,-328.98 2112.14,-327.25 2108.78,-321.11"/>
</g>
<!-- Node28&#45;&gt;Node24 -->
<g id="edge45" class="edge">
<title>Node28&#45;&gt;Node24</title>
<path fill="none" stroke="midnightblue" d="M2158.63,-326.68C2211.74,-314.17 2277.84,-298.6 2329.2,-286.5"/>
<polygon fill="midnightblue" stroke="midnightblue" points="2157.81,-323.28 2148.88,-328.98 2159.41,-330.09 2157.81,-323.28"/>
</g>
<!-- Node29 -->
<g id="node29" class="node">
<title>Node29</title>
<g id="a_node29"><a xlink:href="aarch64Semantics_8hpp.html" target="_top" xlink:title=" ">
<polygon fill="white" stroke="black" points="1060.5,-167.5 1060.5,-208.5 1263.5,-208.5 1263.5,-167.5 1060.5,-167.5"/>
<text text-anchor="start" x="1068.5" y="-196.5" font-family="Helvetica,sans-Serif" font-size="10.00">/home/jonathan/Works</text>
<text text-anchor="start" x="1068.5" y="-185.5" font-family="Helvetica,sans-Serif" font-size="10.00">/Tools/Triton/src/libtriton</text>
<text text-anchor="middle" x="1162" y="-174.5" font-family="Helvetica,sans-Serif" font-size="10.00">/includes/triton/aarch64Semantics.hpp</text>
</a>
</g>
</g>
<!-- Node28&#45;&gt;Node29 -->
<g id="edge33" class="edge">
<title>Node28&#45;&gt;Node29</title>
<path fill="none" stroke="midnightblue" d="M1974.98,-326.79C1968.57,-325.45 1962.19,-324.17 1956,-323 1847.86,-302.56 1808.08,-338.86 1711,-287 1688.8,-275.14 1695.53,-256.23 1673,-245 1592.93,-205.08 1360.66,-221.01 1272,-209 1269.21,-208.62 1266.39,-208.22 1263.54,-207.81"/>
<polygon fill="midnightblue" stroke="midnightblue" points="1974.55,-330.28 1985.06,-328.95 1976.01,-323.43 1974.55,-330.28"/>
</g>
<!-- Node30 -->
<g id="node30" class="node">
<title>Node30</title>
<g id="a_node30"><a xlink:href="arm32Semantics_8hpp.html" target="_top" xlink:title=" ">
<polygon fill="white" stroke="black" points="1281,-167.5 1281,-208.5 1477,-208.5 1477,-167.5 1281,-167.5"/>
<text text-anchor="start" x="1289" y="-196.5" font-family="Helvetica,sans-Serif" font-size="10.00">/home/jonathan/Works</text>
<text text-anchor="start" x="1289" y="-185.5" font-family="Helvetica,sans-Serif" font-size="10.00">/Tools/Triton/src/libtriton</text>
<text text-anchor="middle" x="1379" y="-174.5" font-family="Helvetica,sans-Serif" font-size="10.00">/includes/triton/arm32Semantics.hpp</text>
</a>
</g>
</g>
<!-- Node28&#45;&gt;Node30 -->
<g id="edge37" class="edge">
<title>Node28&#45;&gt;Node30</title>
<path fill="none" stroke="midnightblue" d="M1973.91,-326.76C1967.86,-325.45 1961.85,-324.19 1956,-323 1864.48,-304.45 1830.78,-332.08 1749,-287 1726.95,-274.85 1733.13,-257 1711,-245 1621.98,-196.71 1585.78,-226.31 1486,-209 1483.11,-208.5 1480.18,-207.99 1477.23,-207.46"/>
<polygon fill="midnightblue" stroke="midnightblue" points="1973.6,-330.27 1984.12,-328.99 1975.1,-323.43 1973.6,-330.27"/>
</g>
<!-- Node31 -->
<g id="node31" class="node">
<title>Node31</title>
<g id="a_node31"><a xlink:href="irBuilder_8hpp.html" target="_top" xlink:title=" ">
<polygon fill="white" stroke="black" points="1913,-167.5 1913,-208.5 2067,-208.5 2067,-167.5 1913,-167.5"/>
<text text-anchor="start" x="1921" y="-196.5" font-family="Helvetica,sans-Serif" font-size="10.00">/home/jonathan/Works</text>
<text text-anchor="start" x="1921" y="-185.5" font-family="Helvetica,sans-Serif" font-size="10.00">/Tools/Triton/src/libtriton</text>
<text text-anchor="middle" x="1990" y="-174.5" font-family="Helvetica,sans-Serif" font-size="10.00">/includes/triton/irBuilder.hpp</text>
</a>
</g>
</g>
<!-- Node28&#45;&gt;Node31 -->
<g id="edge40" class="edge">
<title>Node28&#45;&gt;Node31</title>
<path fill="none" stroke="midnightblue" d="M2052.25,-319.63C2036.95,-287.53 2012.66,-236.55 1999.4,-208.72"/>
<polygon fill="midnightblue" stroke="midnightblue" points="2049.22,-321.42 2056.68,-328.94 2055.54,-318.41 2049.22,-321.42"/>
</g>
<!-- Node28&#45;&gt;Node32 -->
<g id="edge46" class="edge">
<title>Node28&#45;&gt;Node32</title>
<path fill="none" stroke="midnightblue" d="M2172.04,-334.36C2291.24,-318.46 2482.4,-292.96 2592.14,-278.32"/>
<polygon fill="midnightblue" stroke="midnightblue" points="2171.25,-330.93 2161.8,-335.72 2172.18,-337.87 2171.25,-330.93"/>
</g>
<!-- Node34 -->
<g id="node34" class="node">
<title>Node34</title>
<g id="a_node34"><a xlink:href="taintEngine_8hpp.html" target="_top" xlink:title=" ">
<polygon fill="white" stroke="black" points="1800.5,-245.5 1800.5,-286.5 1969.5,-286.5 1969.5,-245.5 1800.5,-245.5"/>
<text text-anchor="start" x="1808.5" y="-274.5" font-family="Helvetica,sans-Serif" font-size="10.00">/home/jonathan/Works</text>
<text text-anchor="start" x="1808.5" y="-263.5" font-family="Helvetica,sans-Serif" font-size="10.00">/Tools/Triton/src/libtriton</text>
<text text-anchor="middle" x="1885" y="-252.5" font-family="Helvetica,sans-Serif" font-size="10.00">/includes/triton/taintEngine.hpp</text>
</a>
</g>
</g>
<!-- Node28&#45;&gt;Node34 -->
<g id="edge49" class="edge">
<title>Node28&#45;&gt;Node34</title>
<path fill="none" stroke="midnightblue" d="M2013.34,-324.79C1986.34,-312.63 1953.85,-298 1928.31,-286.5"/>
<polygon fill="midnightblue" stroke="midnightblue" points="2012.09,-328.06 2022.65,-328.98 2014.96,-321.68 2012.09,-328.06"/>
</g>
<!-- Node36 -->
<g id="node36" class="node">
<title>Node36</title>
<g id="a_node36"><a xlink:href="x86Semantics_8hpp.html" target="_top" xlink:title=" ">
<polygon fill="white" stroke="black" points="1495,-167.5 1495,-208.5 1677,-208.5 1677,-167.5 1495,-167.5"/>
<text text-anchor="start" x="1503" y="-196.5" font-family="Helvetica,sans-Serif" font-size="10.00">/home/jonathan/Works</text>
<text text-anchor="start" x="1503" y="-185.5" font-family="Helvetica,sans-Serif" font-size="10.00">/Tools/Triton/src/libtriton</text>
<text text-anchor="middle" x="1586" y="-174.5" font-family="Helvetica,sans-Serif" font-size="10.00">/includes/triton/x86Semantics.hpp</text>
</a>
</g>
</g>
<!-- Node28&#45;&gt;Node36 -->
<g id="edge58" class="edge">
<title>Node28&#45;&gt;Node36</title>
<path fill="none" stroke="midnightblue" d="M1972.29,-326.7C1966.78,-325.44 1961.32,-324.2 1956,-323 1883.21,-306.57 1857.67,-322.44 1792,-287 1768.49,-274.31 1771.74,-259.02 1749,-245 1723.53,-229.3 1693.08,-217.32 1665.44,-208.55"/>
<polygon fill="midnightblue" stroke="midnightblue" points="1971.71,-330.16 1982.24,-328.98 1973.27,-323.33 1971.71,-330.16"/>
</g>
<!-- Node29&#45;&gt;Node2 -->
<g id="edge34" class="edge">
<title>Node29&#45;&gt;Node2</title>
<path fill="none" stroke="midnightblue" d="M1049.97,-178.91C846.61,-164.24 419.19,-133.39 218.05,-118.87"/>
<polygon fill="midnightblue" stroke="midnightblue" points="1049.85,-182.41 1060.08,-179.64 1050.36,-175.43 1049.85,-182.41"/>
</g>
<!-- Node29&#45;&gt;Node4 -->
<g id="edge35" class="edge">
<title>Node29&#45;&gt;Node4</title>
<path fill="none" stroke="midnightblue" d="M1227.6,-164.03C1258.14,-153.33 1294.1,-140.73 1323.31,-130.51"/>
<polygon fill="midnightblue" stroke="midnightblue" points="1226.16,-160.82 1217.88,-167.43 1228.48,-167.43 1226.16,-160.82"/>
</g>
<!-- Node30&#45;&gt;Node3 -->
<g id="edge38" class="edge">
<title>Node30&#45;&gt;Node3</title>
<path fill="none" stroke="midnightblue" d="M1270.89,-166.74C1111.64,-143.92 936.96,-127.77 829.51,-118.86"/>
<polygon fill="midnightblue" stroke="midnightblue" points="1270.47,-170.22 1280.87,-168.18 1271.48,-163.29 1270.47,-170.22"/>
</g>
<!-- Node30&#45;&gt;Node4 -->
<g id="edge39" class="edge">
<title>Node30&#45;&gt;Node4</title>
<path fill="none" stroke="midnightblue" d="M1379,-157.3C1379,-148.3 1379,-138.65 1379,-130.51"/>
<polygon fill="midnightblue" stroke="midnightblue" points="1375.5,-157.43 1379,-167.43 1382.5,-157.43 1375.5,-157.43"/>
</g>
<!-- Node31&#45;&gt;Node4 -->
<g id="edge41" class="edge">
<title>Node31&#45;&gt;Node4</title>
<path fill="none" stroke="midnightblue" d="M1902.47,-172.37C1890.24,-170.48 1877.81,-168.63 1866,-167 1716.15,-146.31 1539.61,-127.35 1445.68,-117.7"/>
<polygon fill="midnightblue" stroke="midnightblue" points="1902.27,-175.88 1912.69,-173.97 1903.35,-168.97 1902.27,-175.88"/>
</g>
<!-- Node31&#45;&gt;Node17 -->
<g id="edge42" class="edge">
<title>Node31&#45;&gt;Node17</title>
<path fill="none" stroke="midnightblue" d="M2067.66,-164.56C2105.39,-153.66 2150.27,-140.69 2186.41,-130.24"/>
<polygon fill="midnightblue" stroke="midnightblue" points="2066.36,-161.29 2057.73,-167.43 2068.31,-168.01 2066.36,-161.29"/>
</g>
<!-- Node32&#45;&gt;Node17 -->
<g id="edge48" class="edge">
<title>Node32&#45;&gt;Node17</title>
<path fill="none" stroke="midnightblue" d="M2694.08,-236.16C2704.36,-214.63 2712.57,-185.8 2696,-167 2671.55,-139.27 2437.58,-121.77 2319.9,-114.65"/>
<polygon fill="midnightblue" stroke="midnightblue" points="2690.9,-234.69 2689.45,-245.18 2697.13,-237.88 2690.9,-234.69"/>
</g>
<!-- Node33 -->
<g id="node33" class="node">
<title>Node33</title>
<g id="a_node33"><a xlink:href="synthesizer_8cpp.html" target="_top" xlink:title=" ">
<polygon fill="white" stroke="black" points="2743,-167.5 2743,-208.5 2929,-208.5 2929,-167.5 2743,-167.5"/>
<text text-anchor="start" x="2751" y="-196.5" font-family="Helvetica,sans-Serif" font-size="10.00">/home/jonathan/Works</text>
<text text-anchor="start" x="2751" y="-185.5" font-family="Helvetica,sans-Serif" font-size="10.00">/Tools/Triton/src/libtriton</text>
<text text-anchor="middle" x="2836" y="-174.5" font-family="Helvetica,sans-Serif" font-size="10.00">/engines/synthesis/synthesizer.cpp</text>
</a>
</g>
</g>
<!-- Node32&#45;&gt;Node33 -->
<g id="edge47" class="edge">
<title>Node32&#45;&gt;Node33</title>
<path fill="none" stroke="midnightblue" d="M2727.11,-241.05C2749.04,-230.57 2774.44,-218.42 2795.19,-208.51"/>
<polygon fill="midnightblue" stroke="midnightblue" points="2725.46,-237.96 2717.95,-245.43 2728.48,-244.27 2725.46,-237.96"/>
</g>
<!-- Node34&#45;&gt;Node17 -->
<g id="edge52" class="edge">
<title>Node34&#45;&gt;Node17</title>
<path fill="none" stroke="midnightblue" d="M1882.43,-235.28C1882.28,-213.35 1886.02,-184.4 1904,-167 1943.24,-129.01 2096.64,-116.78 2186.47,-112.85"/>
<polygon fill="midnightblue" stroke="midnightblue" points="1878.94,-235.52 1882.78,-245.4 1885.94,-235.29 1878.94,-235.52"/>
</g>
<!-- Node34&#45;&gt;Node29 -->
<g id="edge51" class="edge">
<title>Node34&#45;&gt;Node29</title>
<path fill="none" stroke="midnightblue" d="M1790.01,-253.51C1764.38,-250.57 1736.65,-247.52 1711,-245 1516.18,-225.82 1466.09,-234.54 1272,-209 1269.21,-208.63 1266.38,-208.24 1263.53,-207.83"/>
<polygon fill="midnightblue" stroke="midnightblue" points="1789.76,-257.01 1800.1,-254.68 1790.57,-250.05 1789.76,-257.01"/>
</g>
<!-- Node34&#45;&gt;Node30 -->
<g id="edge53" class="edge">
<title>Node34&#45;&gt;Node30</title>
<path fill="none" stroke="midnightblue" d="M1790.15,-250.93C1776.35,-248.92 1762.31,-246.89 1749,-245 1632.19,-228.42 1602.46,-227.84 1486,-209 1483.11,-208.53 1480.17,-208.05 1477.21,-207.55"/>
<polygon fill="midnightblue" stroke="midnightblue" points="1789.74,-254.4 1800.14,-252.39 1790.75,-247.48 1789.74,-254.4"/>
</g>
<!-- Node34&#45;&gt;Node31 -->
<g id="edge54" class="edge">
<title>Node34&#45;&gt;Node31</title>
<path fill="none" stroke="midnightblue" d="M1920.44,-239.35C1934.36,-229.27 1950.08,-217.89 1963.05,-208.51"/>
<polygon fill="midnightblue" stroke="midnightblue" points="1918.09,-236.73 1912.04,-245.43 1922.19,-242.4 1918.09,-236.73"/>
</g>
<!-- Node35 -->
<g id="node35" class="node">
<title>Node35</title>
<g id="a_node35"><a xlink:href="taintEngine_8cpp.html" target="_top" xlink:title=" ">
<polygon fill="white" stroke="black" points="1695,-167.5 1695,-208.5 1857,-208.5 1857,-167.5 1695,-167.5"/>
<text text-anchor="start" x="1703" y="-196.5" font-family="Helvetica,sans-Serif" font-size="10.00">/home/jonathan/Works</text>
<text text-anchor="start" x="1703" y="-185.5" font-family="Helvetica,sans-Serif" font-size="10.00">/Tools/Triton/src/libtriton</text>
<text text-anchor="middle" x="1776" y="-174.5" font-family="Helvetica,sans-Serif" font-size="10.00">/engines/taint/taintEngine.cpp</text>
</a>
</g>
</g>
<!-- Node34&#45;&gt;Node35 -->
<g id="edge50" class="edge">
<title>Node34&#45;&gt;Node35</title>
<path fill="none" stroke="midnightblue" d="M1848.62,-239.64C1834.07,-229.49 1817.57,-217.98 1803.98,-208.51"/>
<polygon fill="midnightblue" stroke="midnightblue" points="1846.73,-242.58 1856.93,-245.43 1850.73,-236.84 1846.73,-242.58"/>
</g>
<!-- Node34&#45;&gt;Node36 -->
<g id="edge55" class="edge">
<title>Node34&#45;&gt;Node36</title>
<path fill="none" stroke="midnightblue" d="M1798.15,-242.92C1755.32,-232.04 1704.11,-219.02 1662.74,-208.51"/>
<polygon fill="midnightblue" stroke="midnightblue" points="1797.45,-246.36 1808,-245.43 1799.17,-239.57 1797.45,-246.36"/>
</g>
<!-- Node36&#45;&gt;Node4 -->
<g id="edge56" class="edge">
<title>Node36&#45;&gt;Node4</title>
<path fill="none" stroke="midnightblue" d="M1523.05,-163.89C1493.99,-153.22 1459.87,-140.69 1432.13,-130.51"/>
<polygon fill="midnightblue" stroke="midnightblue" points="1522.1,-167.27 1532.69,-167.43 1524.51,-160.7 1522.1,-167.27"/>
</g>
<!-- Node36&#45;&gt;Node5 -->
<g id="edge57" class="edge">
<title>Node36&#45;&gt;Node5</title>
<path fill="none" stroke="midnightblue" d="M1484.59,-166.79C1379.46,-148.41 1269.15,-132.05 1197.28,-121.78"/>
<polygon fill="midnightblue" stroke="midnightblue" points="1484.29,-170.29 1494.75,-168.57 1485.5,-163.39 1484.29,-170.29"/>
</g>
</g>
</svg>
