<?xml version="1.0" encoding="UTF-8" standalone="no"?>
<!DOCTYPE svg PUBLIC "-//W3C//DTD SVG 1.1//EN"
 "http://www.w3.org/Graphics/SVG/1.1/DTD/svg11.dtd">
<!-- Generated by graphviz version 7.0.0 (20221023.0053)
 -->
<!-- Title: /Users/jonathan/Works/Tools/Triton/src/libtriton/includes/triton/astContext.hpp Pages: 1 -->
<svg width="2732pt" height="533pt"
 viewBox="0.00 0.00 2732.49 533.00" xmlns="http://www.w3.org/2000/svg" xmlns:xlink="http://www.w3.org/1999/xlink">
<g id="graph0" class="graph" transform="scale(1 1) rotate(0) translate(4 529)">
<title>/Users/jonathan/Works/Tools/Triton/src/libtriton/includes/triton/astContext.hpp</title>
<!-- Node1 -->
<g id="node1" class="node">
<title>Node1</title>
<g id="a_node1"><a xlink:title=" ">
<polygon fill="#999999" stroke="#666666" points="1094,-525 944,-525 944,-484 1094,-484 1094,-525"/>
<text text-anchor="start" x="952" y="-513" font-family="Helvetica,sans-Serif" font-size="10.00">/Users/jonathan/Works</text>
<text text-anchor="start" x="952" y="-502" font-family="Helvetica,sans-Serif" font-size="10.00">/Tools/Triton/src/libtriton</text>
<text text-anchor="middle" x="1019" y="-491" font-family="Helvetica,sans-Serif" font-size="10.00">/includes/triton/astContext.hpp</text>
</a>
</g>
</g>
<!-- Node2 -->
<g id="node2" class="node">
<title>Node2</title>
<g id="a_node2"><a xlink:href="aarch64Semantics_8cpp.html" target="_top" xlink:title=" ">
<polygon fill="white" stroke="#666666" points="288,-206 90,-206 90,-165 288,-165 288,-206"/>
<text text-anchor="start" x="98" y="-194" font-family="Helvetica,sans-Serif" font-size="10.00">/Users/jonathan/Works</text>
<text text-anchor="start" x="98" y="-183" font-family="Helvetica,sans-Serif" font-size="10.00">/Tools/Triton/src/libtriton</text>
<text text-anchor="middle" x="189" y="-172" font-family="Helvetica,sans-Serif" font-size="10.00">/arch/arm/aarch64/aarch64Semantics.cpp</text>
</a>
</g>
</g>
<!-- Node1&#45;&gt;Node2 -->
<g id="edge1" class="edge">
<title>Node1&#45;&gt;Node2</title>
<path fill="none" stroke="#63b8ff" d="M932.17,-501.51C706.45,-495.92 116.7,-478.46 88,-448 20.25,-376.09 123.46,-253.79 169.09,-206.24"/>
<polygon fill="#63b8ff" stroke="#63b8ff" points="932.01,-505.01 942.09,-501.76 932.18,-498.01 932.01,-505.01"/>
</g>
<!-- Node3 -->
<g id="node3" class="node">
<title>Node3</title>
<g id="a_node3"><a xlink:href="arm32Semantics_8cpp.html" target="_top" xlink:title=" ">
<polygon fill="white" stroke="#666666" points="973.5,-206 790.5,-206 790.5,-165 973.5,-165 973.5,-206"/>
<text text-anchor="start" x="798.5" y="-194" font-family="Helvetica,sans-Serif" font-size="10.00">/Users/jonathan/Works</text>
<text text-anchor="start" x="798.5" y="-183" font-family="Helvetica,sans-Serif" font-size="10.00">/Tools/Triton/src/libtriton</text>
<text text-anchor="middle" x="882" y="-172" font-family="Helvetica,sans-Serif" font-size="10.00">/arch/arm/arm32/arm32Semantics.cpp</text>
</a>
</g>
</g>
<!-- Node1&#45;&gt;Node3 -->
<g id="edge2" class="edge">
<title>Node1&#45;&gt;Node3</title>
<path fill="none" stroke="#63b8ff" d="M932.76,-480.7C911.29,-472.55 889.23,-461.84 871,-448 848.2,-430.69 853.11,-416.37 833,-396 814.26,-377.03 796.93,-383.85 785,-360 761.3,-312.61 772.49,-286 802,-242 811.89,-227.26 827.12,-215.27 841.65,-206.26"/>
<polygon fill="#63b8ff" stroke="#63b8ff" points="931.54,-483.99 942.14,-484.11 933.93,-477.41 931.54,-483.99"/>
</g>
<!-- Node4 -->
<g id="node4" class="node">
<title>Node4</title>
<g id="a_node4"><a xlink:href="irBuilder_8cpp.html" target="_top" xlink:title=" ">
<polygon fill="white" stroke="#666666" points="1168,-206 1046,-206 1046,-165 1168,-165 1168,-206"/>
<text text-anchor="start" x="1054" y="-194" font-family="Helvetica,sans-Serif" font-size="10.00">/Users/jonathan/Works</text>
<text text-anchor="start" x="1054" y="-183" font-family="Helvetica,sans-Serif" font-size="10.00">/Tools/Triton/src/libtriton</text>
<text text-anchor="middle" x="1107" y="-172" font-family="Helvetica,sans-Serif" font-size="10.00">/arch/irBuilder.cpp</text>
</a>
</g>
</g>
<!-- Node1&#45;&gt;Node4 -->
<g id="edge3" class="edge">
<title>Node1&#45;&gt;Node4</title>
<path fill="none" stroke="#63b8ff" d="M1105.51,-502.44C1199.54,-499.23 1340.99,-487.72 1375,-448 1390.03,-430.44 1390,-413.59 1375,-396 1342.14,-357.47 1199.59,-370.26 1150,-360 1077.69,-345.04 1060.96,-335.55 989,-319 911.61,-301.2 864.17,-344.55 814,-283 802.49,-268.88 802.38,-256.03 814,-242 821.4,-233.07 962.09,-209.43 1045.78,-196.07"/>
<polygon fill="#63b8ff" stroke="#63b8ff" points="1105.68,-498.93 1095.8,-502.74 1105.9,-505.93 1105.68,-498.93"/>
</g>
<!-- Node5 -->
<g id="node5" class="node">
<title>Node5</title>
<g id="a_node5"><a xlink:href="x86Semantics_8cpp.html" target="_top" xlink:title=" ">
<polygon fill="white" stroke="#666666" points="664.5,-206 523.5,-206 523.5,-165 664.5,-165 664.5,-206"/>
<text text-anchor="start" x="531.5" y="-194" font-family="Helvetica,sans-Serif" font-size="10.00">/Users/jonathan/Works</text>
<text text-anchor="start" x="531.5" y="-183" font-family="Helvetica,sans-Serif" font-size="10.00">/Tools/Triton/src/libtriton</text>
<text text-anchor="middle" x="594" y="-172" font-family="Helvetica,sans-Serif" font-size="10.00">/arch/x86/x86Semantics.cpp</text>
</a>
</g>
</g>
<!-- Node1&#45;&gt;Node5 -->
<g id="edge4" class="edge">
<title>Node1&#45;&gt;Node5</title>
<path fill="none" stroke="#63b8ff" d="M932.29,-501.33C711.89,-495.41 145.64,-477.39 118,-448 -12.79,-308.9 361.17,-226.24 523.18,-197.76"/>
<polygon fill="#63b8ff" stroke="#63b8ff" points="932.18,-504.83 942.27,-501.6 932.36,-497.84 932.18,-504.83"/>
</g>
<!-- Node6 -->
<g id="node6" class="node">
<title>Node6</title>
<g id="a_node6"><a xlink:href="ast_8cpp.html" target="_top" xlink:title=" ">
<polygon fill="white" stroke="#666666" points="264,-442.5 142,-442.5 142,-401.5 264,-401.5 264,-442.5"/>
<text text-anchor="start" x="150" y="-430.5" font-family="Helvetica,sans-Serif" font-size="10.00">/Users/jonathan/Works</text>
<text text-anchor="start" x="150" y="-419.5" font-family="Helvetica,sans-Serif" font-size="10.00">/Tools/Triton/src/libtriton</text>
<text text-anchor="middle" x="203" y="-408.5" font-family="Helvetica,sans-Serif" font-size="10.00">/ast/ast.cpp</text>
</a>
</g>
</g>
<!-- Node1&#45;&gt;Node6 -->
<g id="edge5" class="edge">
<title>Node1&#45;&gt;Node6</title>
<path fill="none" stroke="#63b8ff" d="M932.32,-499.98C763.57,-492.64 396.66,-474.18 273,-448 266.69,-446.66 260.17,-444.9 253.77,-442.92"/>
<polygon fill="#63b8ff" stroke="#63b8ff" points="931.97,-503.46 942.12,-500.4 932.28,-496.47 931.97,-503.46"/>
</g>
<!-- Node7 -->
<g id="node7" class="node">
<title>Node7</title>
<g id="a_node7"><a xlink:href="astContext_8cpp.html" target="_top" xlink:title=" ">
<polygon fill="white" stroke="#666666" points="404,-442.5 282,-442.5 282,-401.5 404,-401.5 404,-442.5"/>
<text text-anchor="start" x="290" y="-430.5" font-family="Helvetica,sans-Serif" font-size="10.00">/Users/jonathan/Works</text>
<text text-anchor="start" x="290" y="-419.5" font-family="Helvetica,sans-Serif" font-size="10.00">/Tools/Triton/src/libtriton</text>
<text text-anchor="middle" x="343" y="-408.5" font-family="Helvetica,sans-Serif" font-size="10.00">/ast/astContext.cpp</text>
</a>
</g>
</g>
<!-- Node1&#45;&gt;Node7 -->
<g id="edge6" class="edge">
<title>Node1&#45;&gt;Node7</title>
<path fill="none" stroke="#63b8ff" d="M932.4,-502.39C813.85,-499.32 594.96,-488.15 413,-448 406.83,-446.64 400.45,-444.88 394.18,-442.93"/>
<polygon fill="#63b8ff" stroke="#63b8ff" points="932.31,-505.88 942.4,-502.63 932.48,-498.89 932.31,-505.88"/>
</g>
<!-- Node8 -->
<g id="node8" class="node">
<title>Node8</title>
<g id="a_node8"><a xlink:href="z3ToTriton_8cpp.html" target="_top" xlink:title=" ">
<polygon fill="white" stroke="#666666" points="544,-442.5 422,-442.5 422,-401.5 544,-401.5 544,-442.5"/>
<text text-anchor="start" x="430" y="-430.5" font-family="Helvetica,sans-Serif" font-size="10.00">/Users/jonathan/Works</text>
<text text-anchor="start" x="430" y="-419.5" font-family="Helvetica,sans-Serif" font-size="10.00">/Tools/Triton/src/libtriton</text>
<text text-anchor="middle" x="483" y="-408.5" font-family="Helvetica,sans-Serif" font-size="10.00">/ast/z3/z3ToTriton.cpp</text>
</a>
</g>
</g>
<!-- Node1&#45;&gt;Node8 -->
<g id="edge7" class="edge">
<title>Node1&#45;&gt;Node8</title>
<path fill="none" stroke="#63b8ff" d="M932.37,-499.01C838.03,-492.77 683.2,-478.59 553,-448 546.97,-446.58 540.74,-444.82 534.6,-442.89"/>
<polygon fill="#63b8ff" stroke="#63b8ff" points="932.14,-502.5 942.34,-499.65 932.59,-495.51 932.14,-502.5"/>
</g>
<!-- Node9 -->
<g id="node9" class="node">
<title>Node9</title>
<g id="a_node9"><a xlink:href="pyAstContext_8cpp.html" target="_top" xlink:title=" ">
<polygon fill="white" stroke="#666666" points="684,-448 562,-448 562,-396 684,-396 684,-448"/>
<text text-anchor="start" x="570" y="-436" font-family="Helvetica,sans-Serif" font-size="10.00">/Users/jonathan/Works</text>
<text text-anchor="start" x="570" y="-425" font-family="Helvetica,sans-Serif" font-size="10.00">/Tools/Triton/src/libtriton</text>
<text text-anchor="start" x="570" y="-414" font-family="Helvetica,sans-Serif" font-size="10.00">/bindings/python/objects</text>
<text text-anchor="middle" x="623" y="-403" font-family="Helvetica,sans-Serif" font-size="10.00">/pyAstContext.cpp</text>
</a>
</g>
</g>
<!-- Node1&#45;&gt;Node9 -->
<g id="edge8" class="edge">
<title>Node1&#45;&gt;Node9</title>
<path fill="none" stroke="#63b8ff" d="M932.55,-492.97C866.34,-483.9 773.07,-468.94 693,-448 690.13,-447.25 687.21,-446.43 684.27,-445.56"/>
<polygon fill="#63b8ff" stroke="#63b8ff" points="931.88,-496.41 942.26,-494.28 932.82,-489.47 931.88,-496.41"/>
</g>
<!-- Node10 -->
<g id="node10" class="node">
<title>Node10</title>
<g id="a_node10"><a xlink:href="pyAstNode_8cpp.html" target="_top" xlink:title=" ">
<polygon fill="white" stroke="#666666" points="824,-448 702,-448 702,-396 824,-396 824,-448"/>
<text text-anchor="start" x="710" y="-436" font-family="Helvetica,sans-Serif" font-size="10.00">/Users/jonathan/Works</text>
<text text-anchor="start" x="710" y="-425" font-family="Helvetica,sans-Serif" font-size="10.00">/Tools/Triton/src/libtriton</text>
<text text-anchor="start" x="710" y="-414" font-family="Helvetica,sans-Serif" font-size="10.00">/bindings/python/objects</text>
<text text-anchor="middle" x="763" y="-403" font-family="Helvetica,sans-Serif" font-size="10.00">/pyAstNode.cpp</text>
</a>
</g>
</g>
<!-- Node1&#45;&gt;Node10 -->
<g id="edge9" class="edge">
<title>Node1&#45;&gt;Node10</title>
<path fill="none" stroke="#63b8ff" d="M941.99,-480.34C909.8,-470.54 872.03,-458.89 838,-448 833.56,-446.58 828.97,-445.09 824.36,-443.59"/>
<polygon fill="#63b8ff" stroke="#63b8ff" points="940.65,-483.59 951.24,-483.15 942.69,-476.89 940.65,-483.59"/>
</g>
<!-- Node11 -->
<g id="node11" class="node">
<title>Node11</title>
<g id="a_node11"><a xlink:href="liftingToLLVM_8cpp.html" target="_top" xlink:title=" ">
<polygon fill="white" stroke="#666666" points="988.5,-41 827.5,-41 827.5,0 988.5,0 988.5,-41"/>
<text text-anchor="start" x="835.5" y="-29" font-family="Helvetica,sans-Serif" font-size="10.00">/Users/jonathan/Works</text>
<text text-anchor="start" x="835.5" y="-18" font-family="Helvetica,sans-Serif" font-size="10.00">/Tools/Triton/src/libtriton</text>
<text text-anchor="middle" x="908" y="-7" font-family="Helvetica,sans-Serif" font-size="10.00">/engines/lifters/liftingToLLVM.cpp</text>
</a>
</g>
</g>
<!-- Node1&#45;&gt;Node11 -->
<g id="edge10" class="edge">
<title>Node1&#45;&gt;Node11</title>
<path fill="none" stroke="#63b8ff" d="M932.62,-503.13C711.1,-501.53 135,-493.04 62,-448 15.06,-419.04 0,-395.65 0,-340.5 0,-340.5 0,-340.5 0,-184.5 0,-100.87 604.48,-45.2 827.02,-27.53"/>
<polygon fill="#63b8ff" stroke="#63b8ff" points="932.31,-506.63 942.34,-503.2 932.36,-499.63 932.31,-506.63"/>
</g>
<!-- Node12 -->
<g id="node12" class="node">
<title>Node12</title>
<g id="a_node12"><a xlink:href="bitwuzlaSolver_8cpp.html" target="_top" xlink:title=" ">
<polygon fill="white" stroke="#666666" points="1002,-448 880,-448 880,-396 1002,-396 1002,-448"/>
<text text-anchor="start" x="888" y="-436" font-family="Helvetica,sans-Serif" font-size="10.00">/Users/jonathan/Works</text>
<text text-anchor="start" x="888" y="-425" font-family="Helvetica,sans-Serif" font-size="10.00">/Tools/Triton/src/libtriton</text>
<text text-anchor="start" x="888" y="-414" font-family="Helvetica,sans-Serif" font-size="10.00">/engines/solver/bitwuzla</text>
<text text-anchor="middle" x="941" y="-403" font-family="Helvetica,sans-Serif" font-size="10.00">/bitwuzlaSolver.cpp</text>
</a>
</g>
</g>
<!-- Node1&#45;&gt;Node12 -->
<g id="edge11" class="edge">
<title>Node1&#45;&gt;Node12</title>
<path fill="none" stroke="#63b8ff" d="M991.87,-475.5C983.35,-466.71 974,-457.06 965.66,-448.45"/>
<polygon fill="#63b8ff" stroke="#63b8ff" points="989.19,-477.77 998.67,-482.51 994.22,-472.9 989.19,-477.77"/>
</g>
<!-- Node13 -->
<g id="node13" class="node">
<title>Node13</title>
<g id="a_node13"><a xlink:href="z3Solver_8cpp.html" target="_top" xlink:title=" ">
<polygon fill="white" stroke="#666666" points="1175.5,-442.5 1020.5,-442.5 1020.5,-401.5 1175.5,-401.5 1175.5,-442.5"/>
<text text-anchor="start" x="1028.5" y="-430.5" font-family="Helvetica,sans-Serif" font-size="10.00">/Users/jonathan/Works</text>
<text text-anchor="start" x="1028.5" y="-419.5" font-family="Helvetica,sans-Serif" font-size="10.00">/Tools/Triton/src/libtriton</text>
<text text-anchor="middle" x="1098" y="-408.5" font-family="Helvetica,sans-Serif" font-size="10.00">/engines/solver/z3/z3Solver.cpp</text>
</a>
</g>
</g>
<!-- Node1&#45;&gt;Node13 -->
<g id="edge12" class="edge">
<title>Node1&#45;&gt;Node13</title>
<path fill="none" stroke="#63b8ff" d="M1046.3,-475.68C1056.87,-464.91 1068.73,-452.83 1078.42,-442.95"/>
<polygon fill="#63b8ff" stroke="#63b8ff" points="1044.09,-472.93 1039.59,-482.52 1049.09,-477.84 1044.09,-472.93"/>
</g>
<!-- Node14 -->
<g id="node14" class="node">
<title>Node14</title>
<g id="a_node14"><a xlink:href="pathManager_8cpp.html" target="_top" xlink:title=" ">
<polygon fill="white" stroke="#666666" points="1366.5,-442.5 1193.5,-442.5 1193.5,-401.5 1366.5,-401.5 1366.5,-442.5"/>
<text text-anchor="start" x="1201.5" y="-430.5" font-family="Helvetica,sans-Serif" font-size="10.00">/Users/jonathan/Works</text>
<text text-anchor="start" x="1201.5" y="-419.5" font-family="Helvetica,sans-Serif" font-size="10.00">/Tools/Triton/src/libtriton</text>
<text text-anchor="middle" x="1280" y="-408.5" font-family="Helvetica,sans-Serif" font-size="10.00">/engines/symbolic/pathManager.cpp</text>
</a>
</g>
</g>
<!-- Node1&#45;&gt;Node14 -->
<g id="edge13" class="edge">
<title>Node1&#45;&gt;Node14</title>
<path fill="none" stroke="#63b8ff" d="M1094.11,-480.34C1132.43,-468.51 1178.59,-454.28 1215.32,-442.95"/>
<polygon fill="#63b8ff" stroke="#63b8ff" points="1093.49,-476.86 1084.96,-483.16 1095.55,-483.55 1093.49,-476.86"/>
</g>
<!-- Node15 -->
<g id="node15" class="node">
<title>Node15</title>
<g id="a_node15"><a xlink:href="symbolicEngine_8cpp.html" target="_top" xlink:title=" ">
<polygon fill="white" stroke="#666666" points="980,-360 794,-360 794,-319 980,-319 980,-360"/>
<text text-anchor="start" x="802" y="-348" font-family="Helvetica,sans-Serif" font-size="10.00">/Users/jonathan/Works</text>
<text text-anchor="start" x="802" y="-337" font-family="Helvetica,sans-Serif" font-size="10.00">/Tools/Triton/src/libtriton</text>
<text text-anchor="middle" x="887" y="-326" font-family="Helvetica,sans-Serif" font-size="10.00">/engines/symbolic/symbolicEngine.cpp</text>
</a>
</g>
</g>
<!-- Node1&#45;&gt;Node15 -->
<g id="edge14" class="edge">
<title>Node1&#45;&gt;Node15</title>
<path fill="none" stroke="#63b8ff" d="M932.17,-501.24C714.34,-495.14 160.1,-476.85 133,-448 117.18,-431.15 117.27,-412.93 133,-396 177.11,-348.52 601.93,-341.27 793.79,-340.43"/>
<polygon fill="#63b8ff" stroke="#63b8ff" points="931.93,-504.73 942.02,-501.51 932.12,-497.73 931.93,-504.73"/>
</g>
<!-- Node16 -->
<g id="node16" class="node">
<title>Node16</title>
<g id="a_node16"><a xlink:href="symbolicExpression_8cpp.html" target="_top" xlink:title=" ">
<polygon fill="white" stroke="#666666" points="1628.5,-442.5 1423.5,-442.5 1423.5,-401.5 1628.5,-401.5 1628.5,-442.5"/>
<text text-anchor="start" x="1431.5" y="-430.5" font-family="Helvetica,sans-Serif" font-size="10.00">/Users/jonathan/Works</text>
<text text-anchor="start" x="1431.5" y="-419.5" font-family="Helvetica,sans-Serif" font-size="10.00">/Tools/Triton/src/libtriton</text>
<text text-anchor="middle" x="1526" y="-408.5" font-family="Helvetica,sans-Serif" font-size="10.00">/engines/symbolic/symbolicExpression.cpp</text>
</a>
</g>
</g>
<!-- Node1&#45;&gt;Node16 -->
<g id="edge15" class="edge">
<title>Node1&#45;&gt;Node16</title>
<path fill="none" stroke="#63b8ff" d="M1105.76,-492.9C1184.97,-482.81 1305.19,-466.45 1409,-448 1417.69,-446.45 1426.72,-444.73 1435.74,-442.94"/>
<polygon fill="#63b8ff" stroke="#63b8ff" points="1105.36,-489.42 1095.88,-494.15 1106.24,-496.37 1105.36,-489.42"/>
</g>
<!-- Node17 -->
<g id="node17" class="node">
<title>Node17</title>
<g id="a_node17"><a xlink:href="context_8hpp.html" target="_top" xlink:title=" ">
<polygon fill="white" stroke="#666666" points="1836,-206 1702,-206 1702,-165 1836,-165 1836,-206"/>
<text text-anchor="start" x="1710" y="-194" font-family="Helvetica,sans-Serif" font-size="10.00">/Users/jonathan/Works</text>
<text text-anchor="start" x="1710" y="-183" font-family="Helvetica,sans-Serif" font-size="10.00">/Tools/Triton/src/libtriton</text>
<text text-anchor="middle" x="1769" y="-172" font-family="Helvetica,sans-Serif" font-size="10.00">/includes/triton/context.hpp</text>
</a>
</g>
</g>
<!-- Node1&#45;&gt;Node17 -->
<g id="edge16" class="edge">
<title>Node1&#45;&gt;Node17</title>
<path fill="none" stroke="#63b8ff" d="M1105.68,-502.94C1354.64,-500.81 2068.59,-491.04 2298,-448 2494.3,-411.17 2609.92,-452.23 2716,-283 2725.68,-267.56 2728.5,-255.26 2716,-242 2685.84,-210.02 2047.32,-192.78 1836.14,-187.94"/>
<polygon fill="#63b8ff" stroke="#63b8ff" points="1105.67,-499.44 1095.7,-503.02 1105.73,-506.44 1105.67,-499.44"/>
</g>
<!-- Node24 -->
<g id="node24" class="node">
<title>Node24</title>
<g id="a_node24"><a xlink:href="liftingEngine_8hpp.html" target="_top" xlink:title=" ">
<polygon fill="white" stroke="#666666" points="2122.5,-283 1967.5,-283 1967.5,-242 2122.5,-242 2122.5,-283"/>
<text text-anchor="start" x="1975.5" y="-271" font-family="Helvetica,sans-Serif" font-size="10.00">/Users/jonathan/Works</text>
<text text-anchor="start" x="1975.5" y="-260" font-family="Helvetica,sans-Serif" font-size="10.00">/Tools/Triton/src/libtriton</text>
<text text-anchor="middle" x="2045" y="-249" font-family="Helvetica,sans-Serif" font-size="10.00">/includes/triton/liftingEngine.hpp</text>
</a>
</g>
</g>
<!-- Node1&#45;&gt;Node24 -->
<g id="edge24" class="edge">
<title>Node1&#45;&gt;Node24</title>
<path fill="none" stroke="#63b8ff" d="M1105.74,-501.8C1301.01,-497.39 1770,-483.36 1924,-448 2024.23,-424.99 2080.76,-445.43 2138,-360 2148.14,-344.86 2147,-334.85 2138,-319 2129.18,-303.47 2114.1,-291.82 2098.62,-283.31"/>
<polygon fill="#63b8ff" stroke="#63b8ff" points="1105.84,-498.3 1095.92,-502.02 1105.99,-505.3 1105.84,-498.3"/>
</g>
<!-- Node25 -->
<g id="node25" class="node">
<title>Node25</title>
<g id="a_node25"><a xlink:href="liftingToDot_8hpp.html" target="_top" xlink:title=" ">
<polygon fill="white" stroke="#666666" points="1943,-360 1791,-360 1791,-319 1943,-319 1943,-360"/>
<text text-anchor="start" x="1799" y="-348" font-family="Helvetica,sans-Serif" font-size="10.00">/Users/jonathan/Works</text>
<text text-anchor="start" x="1799" y="-337" font-family="Helvetica,sans-Serif" font-size="10.00">/Tools/Triton/src/libtriton</text>
<text text-anchor="middle" x="1867" y="-326" font-family="Helvetica,sans-Serif" font-size="10.00">/includes/triton/liftingToDot.hpp</text>
</a>
</g>
</g>
<!-- Node1&#45;&gt;Node25 -->
<g id="edge26" class="edge">
<title>Node1&#45;&gt;Node25</title>
<path fill="none" stroke="#63b8ff" d="M1105.82,-502.75C1302.46,-500.3 1769.19,-490.08 1826,-448 1853.93,-427.31 1862.83,-385.08 1865.67,-360.16"/>
<polygon fill="#63b8ff" stroke="#63b8ff" points="1105.87,-499.24 1095.91,-502.86 1105.95,-506.24 1105.87,-499.24"/>
</g>
<!-- Node27 -->
<g id="node27" class="node">
<title>Node27</title>
<g id="a_node27"><a xlink:href="liftingToPython_8hpp.html" target="_top" xlink:title=" ">
<polygon fill="white" stroke="#666666" points="2128.5,-360 1961.5,-360 1961.5,-319 2128.5,-319 2128.5,-360"/>
<text text-anchor="start" x="1969.5" y="-348" font-family="Helvetica,sans-Serif" font-size="10.00">/Users/jonathan/Works</text>
<text text-anchor="start" x="1969.5" y="-337" font-family="Helvetica,sans-Serif" font-size="10.00">/Tools/Triton/src/libtriton</text>
<text text-anchor="middle" x="2045" y="-326" font-family="Helvetica,sans-Serif" font-size="10.00">/includes/triton/liftingToPython.hpp</text>
</a>
</g>
</g>
<!-- Node1&#45;&gt;Node27 -->
<g id="edge29" class="edge">
<title>Node1&#45;&gt;Node27</title>
<path fill="none" stroke="#63b8ff" d="M1105.61,-502.68C1290.53,-500.14 1718.38,-489.79 1857,-448 1919.82,-429.06 1984.35,-386 2019.07,-360.49"/>
<polygon fill="#63b8ff" stroke="#63b8ff" points="1105.79,-499.18 1095.83,-502.81 1105.88,-506.18 1105.79,-499.18"/>
</g>
<!-- Node29 -->
<g id="node29" class="node">
<title>Node29</title>
<g id="a_node29"><a xlink:href="liftingToSMT_8hpp.html" target="_top" xlink:title=" ">
<polygon fill="white" stroke="#666666" points="2340.5,-360 2185.5,-360 2185.5,-319 2340.5,-319 2340.5,-360"/>
<text text-anchor="start" x="2193.5" y="-348" font-family="Helvetica,sans-Serif" font-size="10.00">/Users/jonathan/Works</text>
<text text-anchor="start" x="2193.5" y="-337" font-family="Helvetica,sans-Serif" font-size="10.00">/Tools/Triton/src/libtriton</text>
<text text-anchor="middle" x="2263" y="-326" font-family="Helvetica,sans-Serif" font-size="10.00">/includes/triton/liftingToSMT.hpp</text>
</a>
</g>
</g>
<!-- Node1&#45;&gt;Node29 -->
<g id="edge32" class="edge">
<title>Node1&#45;&gt;Node29</title>
<path fill="none" stroke="#63b8ff" d="M1105.33,-503.26C1356.69,-502.02 2076.26,-494.42 2171,-448 2209.6,-429.09 2238.42,-385.8 2252.79,-360.3"/>
<polygon fill="#63b8ff" stroke="#63b8ff" points="1105.58,-499.76 1095.59,-503.31 1105.61,-506.76 1105.58,-499.76"/>
</g>
<!-- Node31 -->
<g id="node31" class="node">
<title>Node31</title>
<g id="a_node31"><a xlink:href="symbolicEngine_8hpp.html" target="_top" xlink:title=" ">
<polygon fill="white" stroke="#666666" points="1817.5,-442.5 1646.5,-442.5 1646.5,-401.5 1817.5,-401.5 1817.5,-442.5"/>
<text text-anchor="start" x="1654.5" y="-430.5" font-family="Helvetica,sans-Serif" font-size="10.00">/Users/jonathan/Works</text>
<text text-anchor="start" x="1654.5" y="-419.5" font-family="Helvetica,sans-Serif" font-size="10.00">/Tools/Triton/src/libtriton</text>
<text text-anchor="middle" x="1732" y="-408.5" font-family="Helvetica,sans-Serif" font-size="10.00">/includes/triton/symbolicEngine.hpp</text>
</a>
</g>
</g>
<!-- Node1&#45;&gt;Node31 -->
<g id="edge35" class="edge">
<title>Node1&#45;&gt;Node31</title>
<path fill="none" stroke="#63b8ff" d="M1105.5,-500.31C1225.56,-494.85 1449.15,-480.91 1637,-448 1644.98,-446.6 1653.27,-444.86 1661.48,-442.96"/>
<polygon fill="#63b8ff" stroke="#63b8ff" points="1105.55,-496.8 1095.72,-500.75 1105.87,-503.8 1105.55,-496.8"/>
</g>
<!-- Node35 -->
<g id="node35" class="node">
<title>Node35</title>
<g id="a_node35"><a xlink:href="synthesizer_8hpp.html" target="_top" xlink:title=" ">
<polygon fill="white" stroke="#666666" points="2548,-360 2396,-360 2396,-319 2548,-319 2548,-360"/>
<text text-anchor="start" x="2404" y="-348" font-family="Helvetica,sans-Serif" font-size="10.00">/Users/jonathan/Works</text>
<text text-anchor="start" x="2404" y="-337" font-family="Helvetica,sans-Serif" font-size="10.00">/Tools/Triton/src/libtriton</text>
<text text-anchor="middle" x="2472" y="-326" font-family="Helvetica,sans-Serif" font-size="10.00">/includes/triton/synthesizer.hpp</text>
</a>
</g>
</g>
<!-- Node1&#45;&gt;Node35 -->
<g id="edge64" class="edge">
<title>Node1&#45;&gt;Node35</title>
<path fill="none" stroke="#63b8ff" d="M1105.81,-503.35C1343.66,-502.32 2002.04,-495.16 2213,-448 2296.15,-429.41 2386.65,-386 2435.59,-360.39"/>
<polygon fill="#63b8ff" stroke="#63b8ff" points="1105.97,-499.85 1095.98,-503.39 1106,-506.85 1105.97,-499.85"/>
</g>
<!-- Node18 -->
<g id="node18" class="node">
<title>Node18</title>
<g id="a_node18"><a xlink:href="pyTritonContext_8cpp.html" target="_top" xlink:title=" ">
<polygon fill="white" stroke="#666666" points="2088,-129 1966,-129 1966,-77 2088,-77 2088,-129"/>
<text text-anchor="start" x="1974" y="-117" font-family="Helvetica,sans-Serif" font-size="10.00">/Users/jonathan/Works</text>
<text text-anchor="start" x="1974" y="-106" font-family="Helvetica,sans-Serif" font-size="10.00">/Tools/Triton/src/libtriton</text>
<text text-anchor="start" x="1974" y="-95" font-family="Helvetica,sans-Serif" font-size="10.00">/bindings/python/objects</text>
<text text-anchor="middle" x="2027" y="-84" font-family="Helvetica,sans-Serif" font-size="10.00">/pyTritonContext.cpp</text>
</a>
</g>
</g>
<!-- Node17&#45;&gt;Node18 -->
<g id="edge17" class="edge">
<title>Node17&#45;&gt;Node18</title>
<path fill="none" stroke="#63b8ff" d="M1847.02,-162.29C1880.67,-152.47 1920.39,-140.55 1956,-129 1959.23,-127.95 1962.54,-126.86 1965.88,-125.74"/>
<polygon fill="#63b8ff" stroke="#63b8ff" points="1846.41,-158.82 1837.78,-164.98 1848.36,-165.55 1846.41,-158.82"/>
</g>
<!-- Node19 -->
<g id="node19" class="node">
<title>Node19</title>
<g id="a_node19"><a xlink:href="callbacks_8cpp.html" target="_top" xlink:title=" ">
<polygon fill="white" stroke="#666666" points="1401,-123.5 1277,-123.5 1277,-82.5 1401,-82.5 1401,-123.5"/>
<text text-anchor="start" x="1285" y="-111.5" font-family="Helvetica,sans-Serif" font-size="10.00">/Users/jonathan/Works</text>
<text text-anchor="start" x="1285" y="-100.5" font-family="Helvetica,sans-Serif" font-size="10.00">/Tools/Triton/src/libtriton</text>
<text text-anchor="middle" x="1339" y="-89.5" font-family="Helvetica,sans-Serif" font-size="10.00">/callbacks/callbacks.cpp</text>
</a>
</g>
</g>
<!-- Node17&#45;&gt;Node19 -->
<g id="edge18" class="edge">
<title>Node17&#45;&gt;Node19</title>
<path fill="none" stroke="#63b8ff" d="M1690.34,-176.59C1617.04,-168.21 1505.08,-152.87 1410,-129 1404.17,-127.54 1398.14,-125.79 1392.18,-123.91"/>
<polygon fill="#63b8ff" stroke="#63b8ff" points="1689.93,-180.06 1700.26,-177.7 1690.71,-173.11 1689.93,-180.06"/>
</g>
<!-- Node20 -->
<g id="node20" class="node">
<title>Node20</title>
<g id="a_node20"><a xlink:href="context_8cpp.html" target="_top" xlink:title=" ">
<polygon fill="white" stroke="#666666" points="1541,-123.5 1419,-123.5 1419,-82.5 1541,-82.5 1541,-123.5"/>
<text text-anchor="start" x="1427" y="-111.5" font-family="Helvetica,sans-Serif" font-size="10.00">/Users/jonathan/Works</text>
<text text-anchor="start" x="1427" y="-100.5" font-family="Helvetica,sans-Serif" font-size="10.00">/Tools/Triton/src/libtriton</text>
<text text-anchor="middle" x="1480" y="-89.5" font-family="Helvetica,sans-Serif" font-size="10.00">/context/context.cpp</text>
</a>
</g>
</g>
<!-- Node17&#45;&gt;Node20 -->
<g id="edge19" class="edge">
<title>Node17&#45;&gt;Node20</title>
<path fill="none" stroke="#63b8ff" d="M1690.93,-166.62C1648.91,-156.52 1596.33,-143.11 1550,-129 1544.82,-127.42 1539.45,-125.69 1534.1,-123.89"/>
<polygon fill="#63b8ff" stroke="#63b8ff" points="1689.93,-169.98 1700.46,-168.9 1691.55,-163.17 1689.93,-169.98"/>
</g>
<!-- Node21 -->
<g id="node21" class="node">
<title>Node21</title>
<g id="a_node21"><a xlink:href="symbolicSimplification_8cpp.html" target="_top" xlink:title=" ">
<polygon fill="white" stroke="#666666" points="1774.5,-123.5 1559.5,-123.5 1559.5,-82.5 1774.5,-82.5 1774.5,-123.5"/>
<text text-anchor="start" x="1567.5" y="-111.5" font-family="Helvetica,sans-Serif" font-size="10.00">/Users/jonathan/Works</text>
<text text-anchor="start" x="1567.5" y="-100.5" font-family="Helvetica,sans-Serif" font-size="10.00">/Tools/Triton/src/libtriton</text>
<text text-anchor="middle" x="1667" y="-89.5" font-family="Helvetica,sans-Serif" font-size="10.00">/engines/symbolic/symbolicSimplification.cpp</text>
</a>
</g>
</g>
<!-- Node17&#45;&gt;Node21 -->
<g id="edge20" class="edge">
<title>Node17&#45;&gt;Node21</title>
<path fill="none" stroke="#63b8ff" d="M1734.95,-157.63C1721.01,-146.62 1705.16,-134.12 1692.28,-123.95"/>
<polygon fill="#63b8ff" stroke="#63b8ff" points="1732.58,-160.22 1742.6,-163.66 1736.92,-154.72 1732.58,-160.22"/>
</g>
<!-- Node22 -->
<g id="node22" class="node">
<title>Node22</title>
<g id="a_node22"><a xlink:href="llvmToTriton_8hpp.html" target="_top" xlink:title=" ">
<polygon fill="white" stroke="#666666" points="1947.5,-123.5 1792.5,-123.5 1792.5,-82.5 1947.5,-82.5 1947.5,-123.5"/>
<text text-anchor="start" x="1800.5" y="-111.5" font-family="Helvetica,sans-Serif" font-size="10.00">/Users/jonathan/Works</text>
<text text-anchor="start" x="1800.5" y="-100.5" font-family="Helvetica,sans-Serif" font-size="10.00">/Tools/Triton/src/libtriton</text>
<text text-anchor="middle" x="1870" y="-89.5" font-family="Helvetica,sans-Serif" font-size="10.00">/includes/triton/llvmToTriton.hpp</text>
</a>
</g>
</g>
<!-- Node17&#45;&gt;Node22 -->
<g id="edge21" class="edge">
<title>Node17&#45;&gt;Node22</title>
<path fill="none" stroke="#63b8ff" d="M1802.72,-157.63C1816.52,-146.62 1832.21,-134.12 1844.97,-123.95"/>
<polygon fill="#63b8ff" stroke="#63b8ff" points="1800.79,-154.69 1795.15,-163.66 1805.15,-160.16 1800.79,-154.69"/>
</g>
<!-- Node22&#45;&gt;Node11 -->
<g id="edge23" class="edge">
<title>Node22&#45;&gt;Node11</title>
<path fill="none" stroke="#63b8ff" d="M1795.53,-79.47C1791.31,-78.55 1787.11,-77.71 1783,-77 1493.91,-26.91 1144.11,-20.78 988.91,-20.82"/>
<polygon fill="#63b8ff" stroke="#63b8ff" points="1794.69,-82.87 1805.23,-81.75 1796.29,-76.05 1794.69,-82.87"/>
</g>
<!-- Node23 -->
<g id="node23" class="node">
<title>Node23</title>
<g id="a_node23"><a xlink:href="llvmToTriton_8cpp.html" target="_top" xlink:title=" ">
<polygon fill="white" stroke="#666666" points="1934.5,-41 1805.5,-41 1805.5,0 1934.5,0 1934.5,-41"/>
<text text-anchor="start" x="1813.5" y="-29" font-family="Helvetica,sans-Serif" font-size="10.00">/Users/jonathan/Works</text>
<text text-anchor="start" x="1813.5" y="-18" font-family="Helvetica,sans-Serif" font-size="10.00">/Tools/Triton/src/libtriton</text>
<text text-anchor="middle" x="1870" y="-7" font-family="Helvetica,sans-Serif" font-size="10.00">/ast/llvm/llvmToTriton.cpp</text>
</a>
</g>
</g>
<!-- Node22&#45;&gt;Node23 -->
<g id="edge22" class="edge">
<title>Node22&#45;&gt;Node23</title>
<path fill="none" stroke="#63b8ff" d="M1870,-70.66C1870,-60.83 1870,-50.26 1870,-41.45"/>
<polygon fill="#63b8ff" stroke="#63b8ff" points="1866.5,-70.59 1870,-80.59 1873.5,-70.59 1866.5,-70.59"/>
</g>
<!-- Node24&#45;&gt;Node17 -->
<g id="edge25" class="edge">
<title>Node24&#45;&gt;Node17</title>
<path fill="none" stroke="#63b8ff" d="M1960.72,-238.6C1920.85,-227.76 1873.89,-215 1836.42,-204.82"/>
<polygon fill="#63b8ff" stroke="#63b8ff" points="1959.73,-241.96 1970.3,-241.2 1961.57,-235.2 1959.73,-241.96"/>
</g>
<!-- Node25&#45;&gt;Node24 -->
<g id="edge28" class="edge">
<title>Node25&#45;&gt;Node24</title>
<path fill="none" stroke="#63b8ff" d="M1924.78,-314.15C1948.32,-304.24 1975.19,-292.92 1997.55,-283.49"/>
<polygon fill="#63b8ff" stroke="#63b8ff" points="1923.48,-310.9 1915.63,-318.01 1926.2,-317.35 1923.48,-310.9"/>
</g>
<!-- Node26 -->
<g id="node26" class="node">
<title>Node26</title>
<g id="a_node26"><a xlink:href="liftingToDot_8cpp.html" target="_top" xlink:title=" ">
<polygon fill="white" stroke="#666666" points="1949,-283 1797,-283 1797,-242 1949,-242 1949,-283"/>
<text text-anchor="start" x="1805" y="-271" font-family="Helvetica,sans-Serif" font-size="10.00">/Users/jonathan/Works</text>
<text text-anchor="start" x="1805" y="-260" font-family="Helvetica,sans-Serif" font-size="10.00">/Tools/Triton/src/libtriton</text>
<text text-anchor="middle" x="1873" y="-249" font-family="Helvetica,sans-Serif" font-size="10.00">/engines/lifters/liftingToDot.cpp</text>
</a>
</g>
</g>
<!-- Node25&#45;&gt;Node26 -->
<g id="edge27" class="edge">
<title>Node25&#45;&gt;Node26</title>
<path fill="none" stroke="#63b8ff" d="M1869.49,-307.36C1870.14,-299.24 1870.82,-290.7 1871.41,-283.33"/>
<polygon fill="#63b8ff" stroke="#63b8ff" points="1866.01,-307.04 1868.7,-317.29 1872.98,-307.6 1866.01,-307.04"/>
</g>
<!-- Node27&#45;&gt;Node24 -->
<g id="edge31" class="edge">
<title>Node27&#45;&gt;Node24</title>
<path fill="none" stroke="#63b8ff" d="M2045,-307.36C2045,-299.24 2045,-290.7 2045,-283.33"/>
<polygon fill="#63b8ff" stroke="#63b8ff" points="2041.5,-307.28 2045,-317.28 2048.5,-307.28 2041.5,-307.28"/>
</g>
<!-- Node28 -->
<g id="node28" class="node">
<title>Node28</title>
<g id="a_node28"><a xlink:href="liftingToPython_8cpp.html" target="_top" xlink:title=" ">
<polygon fill="white" stroke="#666666" points="2307.5,-283 2140.5,-283 2140.5,-242 2307.5,-242 2307.5,-283"/>
<text text-anchor="start" x="2148.5" y="-271" font-family="Helvetica,sans-Serif" font-size="10.00">/Users/jonathan/Works</text>
<text text-anchor="start" x="2148.5" y="-260" font-family="Helvetica,sans-Serif" font-size="10.00">/Tools/Triton/src/libtriton</text>
<text text-anchor="middle" x="2224" y="-249" font-family="Helvetica,sans-Serif" font-size="10.00">/engines/lifters/liftingToPython.cpp</text>
</a>
</g>
</g>
<!-- Node27&#45;&gt;Node28 -->
<g id="edge30" class="edge">
<title>Node27&#45;&gt;Node28</title>
<path fill="none" stroke="#63b8ff" d="M2103.11,-314.15C2126.77,-304.24 2153.79,-292.92 2176.28,-283.49"/>
<polygon fill="#63b8ff" stroke="#63b8ff" points="2101.77,-310.92 2093.89,-318.01 2104.47,-317.38 2101.77,-310.92"/>
</g>
<!-- Node29&#45;&gt;Node24 -->
<g id="edge34" class="edge">
<title>Node29&#45;&gt;Node24</title>
<path fill="none" stroke="#63b8ff" d="M2194.56,-314.95C2165.19,-304.85 2131.24,-293.17 2103.12,-283.49"/>
<polygon fill="#63b8ff" stroke="#63b8ff" points="2193.13,-318.16 2203.72,-318.11 2195.4,-311.54 2193.13,-318.16"/>
</g>
<!-- Node30 -->
<g id="node30" class="node">
<title>Node30</title>
<g id="a_node30"><a xlink:href="liftingToSMT_8cpp.html" target="_top" xlink:title=" ">
<polygon fill="white" stroke="#666666" points="2480.5,-283 2325.5,-283 2325.5,-242 2480.5,-242 2480.5,-283"/>
<text text-anchor="start" x="2333.5" y="-271" font-family="Helvetica,sans-Serif" font-size="10.00">/Users/jonathan/Works</text>
<text text-anchor="start" x="2333.5" y="-260" font-family="Helvetica,sans-Serif" font-size="10.00">/Tools/Triton/src/libtriton</text>
<text text-anchor="middle" x="2403" y="-249" font-family="Helvetica,sans-Serif" font-size="10.00">/engines/lifters/liftingToSMT.cpp</text>
</a>
</g>
</g>
<!-- Node29&#45;&gt;Node30 -->
<g id="edge33" class="edge">
<title>Node29&#45;&gt;Node30</title>
<path fill="none" stroke="#63b8ff" d="M2310.21,-313.21C2328.29,-303.52 2348.65,-292.62 2365.68,-283.49"/>
<polygon fill="#63b8ff" stroke="#63b8ff" points="2308.65,-310.08 2301.48,-317.88 2311.95,-316.25 2308.65,-310.08"/>
</g>
<!-- Node31&#45;&gt;Node15 -->
<g id="edge36" class="edge">
<title>Node31&#45;&gt;Node15</title>
<path fill="none" stroke="#63b8ff" d="M1651,-398.63C1646.28,-397.65 1641.59,-396.77 1637,-396 1573.82,-385.44 1166.75,-358.45 980.17,-346.43"/>
<polygon fill="#63b8ff" stroke="#63b8ff" points="1650.02,-402 1660.54,-400.72 1651.52,-395.16 1650.02,-402"/>
</g>
<!-- Node31&#45;&gt;Node17 -->
<g id="edge43" class="edge">
<title>Node31&#45;&gt;Node17</title>
<path fill="none" stroke="#63b8ff" d="M1736.91,-389.86C1744.64,-340.91 1759.4,-247.33 1765.85,-206.44"/>
<polygon fill="#63b8ff" stroke="#63b8ff" points="1733.49,-389.09 1735.39,-399.51 1740.41,-390.18 1733.49,-389.09"/>
</g>
<!-- Node31&#45;&gt;Node24 -->
<g id="edge47" class="edge">
<title>Node31&#45;&gt;Node24</title>
<path fill="none" stroke="#63b8ff" d="M1739.23,-390.17C1746.27,-367.08 1759.31,-336.55 1782,-319 1845.15,-270.15 1879.93,-299.73 1958,-283 1961.03,-282.35 1964.11,-281.68 1967.23,-281.01"/>
<polygon fill="#63b8ff" stroke="#63b8ff" points="1735.89,-389.11 1736.57,-399.69 1742.63,-391 1735.89,-389.11"/>
</g>
<!-- Node31&#45;&gt;Node25 -->
<g id="edge48" class="edge">
<title>Node31&#45;&gt;Node25</title>
<path fill="none" stroke="#63b8ff" d="M1775.23,-395.22C1794.12,-383.96 1815.93,-370.95 1833.55,-360.45"/>
<polygon fill="#63b8ff" stroke="#63b8ff" points="1773.47,-392.2 1766.67,-400.33 1777.05,-398.21 1773.47,-392.2"/>
</g>
<!-- Node31&#45;&gt;Node27 -->
<g id="edge49" class="edge">
<title>Node31&#45;&gt;Node27</title>
<path fill="none" stroke="#63b8ff" d="M1820.31,-398.29C1866.61,-386.38 1922.82,-371.92 1967.43,-360.45"/>
<polygon fill="#63b8ff" stroke="#63b8ff" points="1819.65,-394.84 1810.84,-400.72 1821.39,-401.62 1819.65,-394.84"/>
</g>
<!-- Node31&#45;&gt;Node29 -->
<g id="edge50" class="edge">
<title>Node31&#45;&gt;Node29</title>
<path fill="none" stroke="#63b8ff" d="M1829.3,-406.54C1911.56,-394.27 2032.52,-376.15 2138,-360 2153.31,-357.66 2169.66,-355.12 2185.33,-352.69"/>
<polygon fill="#63b8ff" stroke="#63b8ff" points="1828.83,-403.07 1819.45,-408.01 1829.86,-409.99 1828.83,-403.07"/>
</g>
<!-- Node32 -->
<g id="node32" class="node">
<title>Node32</title>
<g id="a_node32"><a xlink:href="aarch64Semantics_8hpp.html" target="_top" xlink:title=" ">
<polygon fill="white" stroke="#666666" points="1006.5,-283 823.5,-283 823.5,-242 1006.5,-242 1006.5,-283"/>
<text text-anchor="start" x="831.5" y="-271" font-family="Helvetica,sans-Serif" font-size="10.00">/Users/jonathan/Works</text>
<text text-anchor="start" x="831.5" y="-260" font-family="Helvetica,sans-Serif" font-size="10.00">/Tools/Triton/src/libtriton</text>
<text text-anchor="middle" x="915" y="-249" font-family="Helvetica,sans-Serif" font-size="10.00">/includes/triton/aarch64Semantics.hpp</text>
</a>
</g>
</g>
<!-- Node31&#45;&gt;Node32 -->
<g id="edge37" class="edge">
<title>Node31&#45;&gt;Node32</title>
<path fill="none" stroke="#63b8ff" d="M1650.16,-398.56C1645.72,-397.63 1641.32,-396.76 1637,-396 1467.78,-366.03 1419.02,-400.47 1252,-360 1204.52,-348.49 1196.57,-333.77 1150,-319 1103.45,-304.24 1050.6,-291.42 1006.82,-281.83"/>
<polygon fill="#63b8ff" stroke="#63b8ff" points="1649.21,-401.94 1659.74,-400.69 1650.73,-395.1 1649.21,-401.94"/>
</g>
<!-- Node33 -->
<g id="node33" class="node">
<title>Node33</title>
<g id="a_node33"><a xlink:href="arm32Semantics_8hpp.html" target="_top" xlink:title=" ">
<polygon fill="white" stroke="#666666" points="1383,-283 1207,-283 1207,-242 1383,-242 1383,-283"/>
<text text-anchor="start" x="1215" y="-271" font-family="Helvetica,sans-Serif" font-size="10.00">/Users/jonathan/Works</text>
<text text-anchor="start" x="1215" y="-260" font-family="Helvetica,sans-Serif" font-size="10.00">/Tools/Triton/src/libtriton</text>
<text text-anchor="middle" x="1295" y="-249" font-family="Helvetica,sans-Serif" font-size="10.00">/includes/triton/arm32Semantics.hpp</text>
</a>
</g>
</g>
<!-- Node31&#45;&gt;Node33 -->
<g id="edge40" class="edge">
<title>Node31&#45;&gt;Node33</title>
<path fill="none" stroke="#63b8ff" d="M1648.55,-398.48C1644.66,-397.6 1640.79,-396.77 1637,-396 1527.86,-373.79 1488.23,-410.57 1389,-360 1353.78,-342.05 1324.1,-305.75 1307.99,-283.14"/>
<polygon fill="#63b8ff" stroke="#63b8ff" points="1647.58,-401.84 1658.11,-400.7 1649.16,-395.02 1647.58,-401.84"/>
</g>
<!-- Node34 -->
<g id="node34" class="node">
<title>Node34</title>
<g id="a_node34"><a xlink:href="irBuilder_8hpp.html" target="_top" xlink:title=" ">
<polygon fill="white" stroke="#666666" points="1702.5,-283 1565.5,-283 1565.5,-242 1702.5,-242 1702.5,-283"/>
<text text-anchor="start" x="1573.5" y="-271" font-family="Helvetica,sans-Serif" font-size="10.00">/Users/jonathan/Works</text>
<text text-anchor="start" x="1573.5" y="-260" font-family="Helvetica,sans-Serif" font-size="10.00">/Tools/Triton/src/libtriton</text>
<text text-anchor="middle" x="1634" y="-249" font-family="Helvetica,sans-Serif" font-size="10.00">/includes/triton/irBuilder.hpp</text>
</a>
</g>
</g>
<!-- Node31&#45;&gt;Node34 -->
<g id="edge44" class="edge">
<title>Node31&#45;&gt;Node34</title>
<path fill="none" stroke="#63b8ff" d="M1713.62,-391.46C1693.94,-359.83 1663.27,-310.54 1646.31,-283.29"/>
<polygon fill="#63b8ff" stroke="#63b8ff" points="1710.53,-393.13 1718.79,-399.77 1716.48,-389.43 1710.53,-393.13"/>
</g>
<!-- Node31&#45;&gt;Node35 -->
<g id="edge51" class="edge">
<title>Node31&#45;&gt;Node35</title>
<path fill="none" stroke="#63b8ff" d="M1829.05,-413.24C1950.93,-403.07 2166.34,-383.72 2350,-360 2364.78,-358.09 2380.53,-355.78 2395.63,-353.43"/>
<polygon fill="#63b8ff" stroke="#63b8ff" points="1829.1,-409.72 1819.42,-414.04 1829.68,-416.7 1829.1,-409.72"/>
</g>
<!-- Node37 -->
<g id="node37" class="node">
<title>Node37</title>
<g id="a_node37"><a xlink:href="taintEngine_8hpp.html" target="_top" xlink:title=" ">
<polygon fill="white" stroke="#666666" points="1549.5,-360 1398.5,-360 1398.5,-319 1549.5,-319 1549.5,-360"/>
<text text-anchor="start" x="1406.5" y="-348" font-family="Helvetica,sans-Serif" font-size="10.00">/Users/jonathan/Works</text>
<text text-anchor="start" x="1406.5" y="-337" font-family="Helvetica,sans-Serif" font-size="10.00">/Tools/Triton/src/libtriton</text>
<text text-anchor="middle" x="1474" y="-326" font-family="Helvetica,sans-Serif" font-size="10.00">/includes/triton/taintEngine.hpp</text>
</a>
</g>
</g>
<!-- Node31&#45;&gt;Node37 -->
<g id="edge54" class="edge">
<title>Node31&#45;&gt;Node37</title>
<path fill="none" stroke="#63b8ff" d="M1657.27,-397.68C1619.48,-385.89 1574.09,-371.73 1537.94,-360.45"/>
<polygon fill="#63b8ff" stroke="#63b8ff" points="1656.19,-401.01 1666.78,-400.65 1658.28,-394.33 1656.19,-401.01"/>
</g>
<!-- Node39 -->
<g id="node39" class="node">
<title>Node39</title>
<g id="a_node39"><a xlink:href="x86Semantics_8hpp.html" target="_top" xlink:title=" ">
<polygon fill="white" stroke="#666666" points="1189,-283 1025,-283 1025,-242 1189,-242 1189,-283"/>
<text text-anchor="start" x="1033" y="-271" font-family="Helvetica,sans-Serif" font-size="10.00">/Users/jonathan/Works</text>
<text text-anchor="start" x="1033" y="-260" font-family="Helvetica,sans-Serif" font-size="10.00">/Tools/Triton/src/libtriton</text>
<text text-anchor="middle" x="1107" y="-249" font-family="Helvetica,sans-Serif" font-size="10.00">/includes/triton/x86Semantics.hpp</text>
</a>
</g>
</g>
<!-- Node31&#45;&gt;Node39 -->
<g id="edge63" class="edge">
<title>Node31&#45;&gt;Node39</title>
<path fill="none" stroke="#63b8ff" d="M1649.34,-398.52C1645.18,-397.62 1641.05,-396.77 1637,-396 1503.77,-370.68 1463.91,-398.9 1334,-360 1294.97,-348.31 1289.29,-335.41 1252,-319 1223.01,-306.24 1190.09,-293.5 1162.95,-283.45"/>
<polygon fill="#63b8ff" stroke="#63b8ff" points="1648.4,-401.89 1658.92,-400.69 1649.94,-395.07 1648.4,-401.89"/>
</g>
<!-- Node32&#45;&gt;Node2 -->
<g id="edge38" class="edge">
<title>Node32&#45;&gt;Node2</title>
<path fill="none" stroke="#63b8ff" d="M811.97,-250.86C672.62,-236.46 425.74,-210.96 288.32,-196.76"/>
<polygon fill="#63b8ff" stroke="#63b8ff" points="811.24,-254.3 821.55,-251.85 811.96,-247.34 811.24,-254.3"/>
</g>
<!-- Node32&#45;&gt;Node4 -->
<g id="edge39" class="edge">
<title>Node32&#45;&gt;Node4</title>
<path fill="none" stroke="#63b8ff" d="M976.64,-237.42C1002.19,-227.44 1031.48,-216 1055.81,-206.49"/>
<polygon fill="#63b8ff" stroke="#63b8ff" points="975.4,-234.15 967.36,-241.05 977.95,-240.67 975.4,-234.15"/>
</g>
<!-- Node33&#45;&gt;Node3 -->
<g id="edge41" class="edge">
<title>Node33&#45;&gt;Node3</title>
<path fill="none" stroke="#63b8ff" d="M1195.88,-241.62C1115.27,-226.52 1034.13,-212.35 973.72,-202"/>
<polygon fill="#63b8ff" stroke="#63b8ff" points="1194.77,-244.97 1205.24,-243.38 1196.06,-238.09 1194.77,-244.97"/>
</g>
<!-- Node33&#45;&gt;Node4 -->
<g id="edge42" class="edge">
<title>Node33&#45;&gt;Node4</title>
<path fill="none" stroke="#63b8ff" d="M1234.64,-237.42C1209.63,-227.44 1180.95,-216 1157.12,-206.49"/>
<polygon fill="#63b8ff" stroke="#63b8ff" points="1233.12,-240.58 1243.71,-241.04 1235.72,-234.08 1233.12,-240.58"/>
</g>
<!-- Node34&#45;&gt;Node4 -->
<g id="edge45" class="edge">
<title>Node34&#45;&gt;Node4</title>
<path fill="none" stroke="#63b8ff" d="M1554,-241.75C1410.3,-215.57 1252.96,-199.38 1168.37,-191.69"/>
<polygon fill="#63b8ff" stroke="#63b8ff" points="1553.24,-245.17 1563.71,-243.54 1554.51,-238.28 1553.24,-245.17"/>
</g>
<!-- Node34&#45;&gt;Node17 -->
<g id="edge46" class="edge">
<title>Node34&#45;&gt;Node17</title>
<path fill="none" stroke="#63b8ff" d="M1679.76,-236.08C1697.14,-226.42 1716.66,-215.58 1733.01,-206.49"/>
<polygon fill="#63b8ff" stroke="#63b8ff" points="1678.19,-232.95 1671.15,-240.86 1681.59,-239.07 1678.19,-232.95"/>
</g>
<!-- Node35&#45;&gt;Node17 -->
<g id="edge53" class="edge">
<title>Node35&#45;&gt;Node17</title>
<path fill="none" stroke="#63b8ff" d="M2489.31,-308.7C2499.1,-287.51 2506.44,-259.76 2490,-242 2446.12,-194.62 2007.04,-187.55 1836.36,-186.6"/>
<polygon fill="#63b8ff" stroke="#63b8ff" points="2486.28,-306.94 2484.92,-317.45 2492.53,-310.08 2486.28,-306.94"/>
</g>
<!-- Node36 -->
<g id="node36" class="node">
<title>Node36</title>
<g id="a_node36"><a xlink:href="synthesizer_8cpp.html" target="_top" xlink:title=" ">
<polygon fill="white" stroke="#666666" points="2707,-283 2537,-283 2537,-242 2707,-242 2707,-283"/>
<text text-anchor="start" x="2545" y="-271" font-family="Helvetica,sans-Serif" font-size="10.00">/Users/jonathan/Works</text>
<text text-anchor="start" x="2545" y="-260" font-family="Helvetica,sans-Serif" font-size="10.00">/Tools/Triton/src/libtriton</text>
<text text-anchor="middle" x="2622" y="-249" font-family="Helvetica,sans-Serif" font-size="10.00">/engines/synthesis/synthesizer.cpp</text>
</a>
</g>
</g>
<!-- Node35&#45;&gt;Node36 -->
<g id="edge52" class="edge">
<title>Node35&#45;&gt;Node36</title>
<path fill="none" stroke="#63b8ff" d="M2522.04,-313.48C2541.54,-303.73 2563.59,-292.7 2582.01,-283.49"/>
<polygon fill="#63b8ff" stroke="#63b8ff" points="2520.54,-310.32 2513.16,-317.92 2523.67,-316.58 2520.54,-310.32"/>
</g>
<!-- Node37&#45;&gt;Node17 -->
<g id="edge58" class="edge">
<title>Node37&#45;&gt;Node17</title>
<path fill="none" stroke="#63b8ff" d="M1561.3,-334.45C1609.33,-328.43 1667.76,-314.51 1711,-283 1737.38,-263.77 1754.02,-228.57 1762.41,-206.41"/>
<polygon fill="#63b8ff" stroke="#63b8ff" points="1561.01,-330.96 1551.47,-335.58 1561.8,-337.91 1561.01,-330.96"/>
</g>
<!-- Node37&#45;&gt;Node32 -->
<g id="edge56" class="edge">
<title>Node37&#45;&gt;Node32</title>
<path fill="none" stroke="#63b8ff" d="M1386.75,-329.77C1294.42,-320.1 1144.56,-303.17 1016,-283 1013,-282.53 1009.95,-282.04 1006.88,-281.52"/>
<polygon fill="#63b8ff" stroke="#63b8ff" points="1386.19,-333.23 1396.5,-330.78 1386.91,-326.27 1386.19,-333.23"/>
</g>
<!-- Node37&#45;&gt;Node33 -->
<g id="edge57" class="edge">
<title>Node37&#45;&gt;Node33</title>
<path fill="none" stroke="#63b8ff" d="M1415.89,-314.15C1392.23,-304.24 1365.21,-292.92 1342.72,-283.49"/>
<polygon fill="#63b8ff" stroke="#63b8ff" points="1414.53,-317.38 1425.11,-318.01 1417.23,-310.92 1414.53,-317.38"/>
</g>
<!-- Node37&#45;&gt;Node34 -->
<g id="edge59" class="edge">
<title>Node37&#45;&gt;Node34</title>
<path fill="none" stroke="#63b8ff" d="M1526.8,-313.75C1547.75,-303.93 1571.52,-292.79 1591.34,-283.49"/>
<polygon fill="#63b8ff" stroke="#63b8ff" points="1525.4,-310.54 1517.83,-317.96 1528.37,-316.88 1525.4,-310.54"/>
</g>
<!-- Node38 -->
<g id="node38" class="node">
<title>Node38</title>
<g id="a_node38"><a xlink:href="taintEngine_8cpp.html" target="_top" xlink:title=" ">
<polygon fill="white" stroke="#666666" points="1547,-283 1401,-283 1401,-242 1547,-242 1547,-283"/>
<text text-anchor="start" x="1409" y="-271" font-family="Helvetica,sans-Serif" font-size="10.00">/Users/jonathan/Works</text>
<text text-anchor="start" x="1409" y="-260" font-family="Helvetica,sans-Serif" font-size="10.00">/Tools/Triton/src/libtriton</text>
<text text-anchor="middle" x="1474" y="-249" font-family="Helvetica,sans-Serif" font-size="10.00">/engines/taint/taintEngine.cpp</text>
</a>
</g>
</g>
<!-- Node37&#45;&gt;Node38 -->
<g id="edge55" class="edge">
<title>Node37&#45;&gt;Node38</title>
<path fill="none" stroke="#63b8ff" d="M1474,-307.36C1474,-299.24 1474,-290.7 1474,-283.33"/>
<polygon fill="#63b8ff" stroke="#63b8ff" points="1470.5,-307.28 1474,-317.28 1477.5,-307.28 1470.5,-307.28"/>
</g>
<!-- Node37&#45;&gt;Node39 -->
<g id="edge60" class="edge">
<title>Node37&#45;&gt;Node39</title>
<path fill="none" stroke="#63b8ff" d="M1387.11,-321.32C1332.73,-310.5 1261.24,-296.13 1198,-283 1195.15,-282.41 1192.26,-281.8 1189.33,-281.19"/>
<polygon fill="#63b8ff" stroke="#63b8ff" points="1386.12,-324.69 1396.61,-323.21 1387.49,-317.83 1386.12,-324.69"/>
</g>
<!-- Node39&#45;&gt;Node4 -->
<g id="edge61" class="edge">
<title>Node39&#45;&gt;Node4</title>
<path fill="none" stroke="#63b8ff" d="M1107,-230.36C1107,-222.24 1107,-213.7 1107,-206.33"/>
<polygon fill="#63b8ff" stroke="#63b8ff" points="1103.5,-230.28 1107,-240.28 1110.5,-230.28 1103.5,-230.28"/>
</g>
<!-- Node39&#45;&gt;Node5 -->
<g id="edge62" class="edge">
<title>Node39&#45;&gt;Node5</title>
<path fill="none" stroke="#63b8ff" d="M1013.53,-241.82C884.28,-219.98 746.11,-203.27 664.65,-194.11"/>
<polygon fill="#63b8ff" stroke="#63b8ff" points="1012.86,-245.26 1023.31,-243.49 1014.04,-238.36 1012.86,-245.26"/>
</g>
</g>
</svg>
