<?xml version="1.0" encoding="UTF-8" standalone="no"?>
<!DOCTYPE svg PUBLIC "-//W3C//DTD SVG 1.1//EN"
 "http://www.w3.org/Graphics/SVG/1.1/DTD/svg11.dtd">
<!-- Generated by graphviz version 2.49.0 (20210828.1703)
 -->
<!-- Title: /home/jonathan/Works/Tools/Triton/src/libtriton/includes/triton/astContext.hpp Pages: 1 -->
<svg width="2903pt" height="462pt"
 viewBox="0.00 0.00 2902.55 462.00" xmlns="http://www.w3.org/2000/svg" xmlns:xlink="http://www.w3.org/1999/xlink">
<g id="graph0" class="graph" transform="scale(1 1) rotate(0) translate(4 458)">
<title>/home/jonathan/Works/Tools/Triton/src/libtriton/includes/triton/astContext.hpp</title>
<polygon fill="white" stroke="transparent" points="-4,4 -4,-458 2898.55,-458 2898.55,4 -4,4"/>
<!-- Node1 -->
<g id="node1" class="node">
<title>Node1</title>
<g id="a_node1"><a xlink:title=" ">
<polygon fill="#bfbfbf" stroke="black" points="1228.5,-412.5 1228.5,-453.5 1395.5,-453.5 1395.5,-412.5 1228.5,-412.5"/>
<text text-anchor="start" x="1236.5" y="-441.5" font-family="Helvetica,sans-Serif" font-size="10.00">/home/jonathan/Works</text>
<text text-anchor="start" x="1236.5" y="-430.5" font-family="Helvetica,sans-Serif" font-size="10.00">/Tools/Triton/src/libtriton</text>
<text text-anchor="middle" x="1312" y="-419.5" font-family="Helvetica,sans-Serif" font-size="10.00">/includes/triton/astContext.hpp</text>
</a>
</g>
</g>
<!-- Node2 -->
<g id="node2" class="node">
<title>Node2</title>
<g id="a_node2"><a xlink:href="aarch64Semantics_8cpp.html" target="_top" xlink:title=" ">
<polygon fill="white" stroke="black" points="0,-89.5 0,-130.5 218,-130.5 218,-89.5 0,-89.5"/>
<text text-anchor="start" x="8" y="-118.5" font-family="Helvetica,sans-Serif" font-size="10.00">/home/jonathan/Works</text>
<text text-anchor="start" x="8" y="-107.5" font-family="Helvetica,sans-Serif" font-size="10.00">/Tools/Triton/src/libtriton</text>
<text text-anchor="middle" x="109" y="-96.5" font-family="Helvetica,sans-Serif" font-size="10.00">/arch/arm/aarch64/aarch64Semantics.cpp</text>
</a>
</g>
</g>
<!-- Node1&#45;&gt;Node2 -->
<g id="edge1" class="edge">
<title>Node1&#45;&gt;Node2</title>
<path fill="none" stroke="midnightblue" d="M1218.29,-431.26C936.29,-428.58 112.43,-417.25 73,-376 7.39,-307.36 69.58,-179.28 97.25,-130.53"/>
<polygon fill="midnightblue" stroke="midnightblue" points="1218.46,-434.76 1228.5,-431.36 1218.53,-427.76 1218.46,-434.76"/>
</g>
<!-- Node3 -->
<g id="node3" class="node">
<title>Node3</title>
<g id="a_node3"><a xlink:href="arm32Semantics_8cpp.html" target="_top" xlink:title=" ">
<polygon fill="white" stroke="black" points="596.5,-89.5 596.5,-130.5 799.5,-130.5 799.5,-89.5 596.5,-89.5"/>
<text text-anchor="start" x="604.5" y="-118.5" font-family="Helvetica,sans-Serif" font-size="10.00">/home/jonathan/Works</text>
<text text-anchor="start" x="604.5" y="-107.5" font-family="Helvetica,sans-Serif" font-size="10.00">/Tools/Triton/src/libtriton</text>
<text text-anchor="middle" x="698" y="-96.5" font-family="Helvetica,sans-Serif" font-size="10.00">/arch/arm/arm32/arm32Semantics.cpp</text>
</a>
</g>
</g>
<!-- Node1&#45;&gt;Node3 -->
<g id="edge2" class="edge">
<title>Node1&#45;&gt;Node3</title>
<path fill="none" stroke="midnightblue" d="M1218.06,-431.15C940.39,-428.19 140.37,-416.19 102,-376 26.62,-297.05 128.38,-204.21 231,-167 296.06,-143.41 479.69,-126.51 596.36,-117.78"/>
<polygon fill="midnightblue" stroke="midnightblue" points="1218.08,-434.65 1228.12,-431.26 1218.15,-427.65 1218.08,-434.65"/>
</g>
<!-- Node4 -->
<g id="node4" class="node">
<title>Node4</title>
<g id="a_node4"><a xlink:href="irBuilder_8cpp.html" target="_top" xlink:title=" ">
<polygon fill="white" stroke="black" points="1260.5,-89.5 1260.5,-130.5 1393.5,-130.5 1393.5,-89.5 1260.5,-89.5"/>
<text text-anchor="start" x="1268.5" y="-118.5" font-family="Helvetica,sans-Serif" font-size="10.00">/home/jonathan/Works</text>
<text text-anchor="start" x="1268.5" y="-107.5" font-family="Helvetica,sans-Serif" font-size="10.00">/Tools/Triton/src/libtriton</text>
<text text-anchor="middle" x="1327" y="-96.5" font-family="Helvetica,sans-Serif" font-size="10.00">/arch/irBuilder.cpp</text>
</a>
</g>
</g>
<!-- Node1&#45;&gt;Node4 -->
<g id="edge3" class="edge">
<title>Node1&#45;&gt;Node4</title>
<path fill="none" stroke="midnightblue" d="M1405.71,-429.81C1562.85,-425.17 1865.59,-411.66 1898,-376 1913.84,-358.57 1913.96,-340.33 1898,-323 1865.07,-287.24 1510.23,-293.05 1462,-287 1255.38,-261.08 1134.43,-368.03 1000,-209 987.95,-194.74 987.97,-181.27 1000,-167 1008.37,-157.08 1167.06,-133.37 1260.25,-120.2"/>
<polygon fill="midnightblue" stroke="midnightblue" points="1405.47,-426.32 1395.57,-430.11 1405.67,-433.32 1405.47,-426.32"/>
</g>
<!-- Node5 -->
<g id="node5" class="node">
<title>Node5</title>
<g id="a_node5"><a xlink:href="x86Semantics_8cpp.html" target="_top" xlink:title=" ">
<polygon fill="white" stroke="black" points="998,-89.5 998,-130.5 1152,-130.5 1152,-89.5 998,-89.5"/>
<text text-anchor="start" x="1006" y="-118.5" font-family="Helvetica,sans-Serif" font-size="10.00">/home/jonathan/Works</text>
<text text-anchor="start" x="1006" y="-107.5" font-family="Helvetica,sans-Serif" font-size="10.00">/Tools/Triton/src/libtriton</text>
<text text-anchor="middle" x="1075" y="-96.5" font-family="Helvetica,sans-Serif" font-size="10.00">/arch/x86/x86Semantics.cpp</text>
</a>
</g>
</g>
<!-- Node1&#45;&gt;Node5 -->
<g id="edge4" class="edge">
<title>Node1&#45;&gt;Node5</title>
<path fill="none" stroke="midnightblue" d="M1217.87,-431.12C941.45,-428.06 149.04,-415.86 111,-376 91.99,-356.09 124.51,-247.34 127,-245 190.32,-185.48 782.8,-133.78 997.66,-116.85"/>
<polygon fill="midnightblue" stroke="midnightblue" points="1218.24,-434.62 1228.27,-431.23 1218.31,-427.62 1218.24,-434.62"/>
</g>
<!-- Node6 -->
<g id="node6" class="node">
<title>Node6</title>
<g id="a_node6"><a xlink:href="ast_8cpp.html" target="_top" xlink:title=" ">
<polygon fill="white" stroke="black" points="311.5,-329 311.5,-370 444.5,-370 444.5,-329 311.5,-329"/>
<text text-anchor="start" x="319.5" y="-358" font-family="Helvetica,sans-Serif" font-size="10.00">/home/jonathan/Works</text>
<text text-anchor="start" x="319.5" y="-347" font-family="Helvetica,sans-Serif" font-size="10.00">/Tools/Triton/src/libtriton</text>
<text text-anchor="middle" x="378" y="-336" font-family="Helvetica,sans-Serif" font-size="10.00">/ast/ast.cpp</text>
</a>
</g>
</g>
<!-- Node1&#45;&gt;Node6 -->
<g id="edge5" class="edge">
<title>Node1&#45;&gt;Node6</title>
<path fill="none" stroke="midnightblue" d="M1218.13,-428.93C1026.87,-422.19 597.98,-404.35 454,-376 446.35,-374.49 438.42,-372.43 430.68,-370.12"/>
<polygon fill="midnightblue" stroke="midnightblue" points="1218.05,-432.43 1228.17,-429.29 1218.29,-425.44 1218.05,-432.43"/>
</g>
<!-- Node7 -->
<g id="node7" class="node">
<title>Node7</title>
<g id="a_node7"><a xlink:href="astContext_8cpp.html" target="_top" xlink:title=" ">
<polygon fill="white" stroke="black" points="462.5,-329 462.5,-370 595.5,-370 595.5,-329 462.5,-329"/>
<text text-anchor="start" x="470.5" y="-358" font-family="Helvetica,sans-Serif" font-size="10.00">/home/jonathan/Works</text>
<text text-anchor="start" x="470.5" y="-347" font-family="Helvetica,sans-Serif" font-size="10.00">/Tools/Triton/src/libtriton</text>
<text text-anchor="middle" x="529" y="-336" font-family="Helvetica,sans-Serif" font-size="10.00">/ast/astContext.cpp</text>
</a>
</g>
</g>
<!-- Node1&#45;&gt;Node7 -->
<g id="edge6" class="edge">
<title>Node1&#45;&gt;Node7</title>
<path fill="none" stroke="midnightblue" d="M1217.95,-431.82C1081.51,-429.93 821.34,-420.17 605,-376 597.36,-374.44 589.43,-372.34 581.7,-370.02"/>
<polygon fill="midnightblue" stroke="midnightblue" points="1218.32,-435.33 1228.36,-431.96 1218.4,-428.33 1218.32,-435.33"/>
</g>
<!-- Node8 -->
<g id="node8" class="node">
<title>Node8</title>
<g id="a_node8"><a xlink:href="z3ToTriton_8cpp.html" target="_top" xlink:title=" ">
<polygon fill="white" stroke="black" points="613.5,-329 613.5,-370 746.5,-370 746.5,-329 613.5,-329"/>
<text text-anchor="start" x="621.5" y="-358" font-family="Helvetica,sans-Serif" font-size="10.00">/home/jonathan/Works</text>
<text text-anchor="start" x="621.5" y="-347" font-family="Helvetica,sans-Serif" font-size="10.00">/Tools/Triton/src/libtriton</text>
<text text-anchor="middle" x="680" y="-336" font-family="Helvetica,sans-Serif" font-size="10.00">/ast/z3/z3ToTriton.cpp</text>
</a>
</g>
</g>
<!-- Node1&#45;&gt;Node8 -->
<g id="edge7" class="edge">
<title>Node1&#45;&gt;Node8</title>
<path fill="none" stroke="midnightblue" d="M1218.01,-428.92C1106.65,-423.82 916.03,-410.45 756,-376 748.65,-374.42 741.02,-372.37 733.56,-370.12"/>
<polygon fill="midnightblue" stroke="midnightblue" points="1218.06,-432.43 1228.2,-429.38 1218.37,-425.44 1218.06,-432.43"/>
</g>
<!-- Node9 -->
<g id="node9" class="node">
<title>Node9</title>
<g id="a_node9"><a xlink:href="pyAstContext_8cpp.html" target="_top" xlink:title=" ">
<polygon fill="white" stroke="black" points="765,-323.5 765,-375.5 901,-375.5 901,-323.5 765,-323.5"/>
<text text-anchor="start" x="773" y="-363.5" font-family="Helvetica,sans-Serif" font-size="10.00">/home/jonathan/Works</text>
<text text-anchor="start" x="773" y="-352.5" font-family="Helvetica,sans-Serif" font-size="10.00">/Tools/Triton/src/libtriton</text>
<text text-anchor="start" x="773" y="-341.5" font-family="Helvetica,sans-Serif" font-size="10.00">/bindings/python/objects</text>
<text text-anchor="middle" x="833" y="-330.5" font-family="Helvetica,sans-Serif" font-size="10.00">/pyAstContext.cpp</text>
</a>
</g>
</g>
<!-- Node1&#45;&gt;Node9 -->
<g id="edge8" class="edge">
<title>Node1&#45;&gt;Node9</title>
<path fill="none" stroke="midnightblue" d="M1218.37,-423.81C1136.33,-415.49 1014.25,-400.31 910,-376 907.12,-375.33 904.19,-374.6 901.25,-373.82"/>
<polygon fill="midnightblue" stroke="midnightblue" points="1218.13,-427.31 1228.43,-424.82 1218.82,-420.34 1218.13,-427.31"/>
</g>
<!-- Node10 -->
<g id="node10" class="node">
<title>Node10</title>
<g id="a_node10"><a xlink:href="pyAstNode_8cpp.html" target="_top" xlink:title=" ">
<polygon fill="white" stroke="black" points="919,-323.5 919,-375.5 1055,-375.5 1055,-323.5 919,-323.5"/>
<text text-anchor="start" x="927" y="-363.5" font-family="Helvetica,sans-Serif" font-size="10.00">/home/jonathan/Works</text>
<text text-anchor="start" x="927" y="-352.5" font-family="Helvetica,sans-Serif" font-size="10.00">/Tools/Triton/src/libtriton</text>
<text text-anchor="start" x="927" y="-341.5" font-family="Helvetica,sans-Serif" font-size="10.00">/bindings/python/objects</text>
<text text-anchor="middle" x="987" y="-330.5" font-family="Helvetica,sans-Serif" font-size="10.00">/pyAstNode.cpp</text>
</a>
</g>
</g>
<!-- Node1&#45;&gt;Node10 -->
<g id="edge9" class="edge">
<title>Node1&#45;&gt;Node10</title>
<path fill="none" stroke="midnightblue" d="M1218.3,-412.91C1171.93,-402.91 1115.25,-389.88 1065,-376 1061.84,-375.13 1058.62,-374.21 1055.37,-373.25"/>
<polygon fill="midnightblue" stroke="midnightblue" points="1217.83,-416.38 1228.34,-415.06 1219.3,-409.54 1217.83,-416.38"/>
</g>
<!-- Node11 -->
<g id="node11" class="node">
<title>Node11</title>
<g id="a_node11"><a xlink:href="bitwuzlaSolver_8cpp.html" target="_top" xlink:title=" ">
<polygon fill="white" stroke="black" points="1073.5,-323.5 1073.5,-375.5 1208.5,-375.5 1208.5,-323.5 1073.5,-323.5"/>
<text text-anchor="start" x="1081.5" y="-363.5" font-family="Helvetica,sans-Serif" font-size="10.00">/home/jonathan/Works</text>
<text text-anchor="start" x="1081.5" y="-352.5" font-family="Helvetica,sans-Serif" font-size="10.00">/Tools/Triton/src/libtriton</text>
<text text-anchor="start" x="1081.5" y="-341.5" font-family="Helvetica,sans-Serif" font-size="10.00">/engines/solver/bitwuzla</text>
<text text-anchor="middle" x="1141" y="-330.5" font-family="Helvetica,sans-Serif" font-size="10.00">/bitwuzlaSolver.cpp</text>
</a>
</g>
</g>
<!-- Node1&#45;&gt;Node11 -->
<g id="edge10" class="edge">
<title>Node1&#45;&gt;Node11</title>
<path fill="none" stroke="midnightblue" d="M1261.78,-408.07C1240.34,-397.85 1215.31,-385.92 1193.61,-375.58"/>
<polygon fill="midnightblue" stroke="midnightblue" points="1260.51,-411.34 1271.04,-412.48 1263.52,-405.02 1260.51,-411.34"/>
</g>
<!-- Node12 -->
<g id="node12" class="node">
<title>Node12</title>
<g id="a_node12"><a xlink:href="z3Solver_8cpp.html" target="_top" xlink:title=" ">
<polygon fill="white" stroke="black" points="1227,-329 1227,-370 1397,-370 1397,-329 1227,-329"/>
<text text-anchor="start" x="1235" y="-358" font-family="Helvetica,sans-Serif" font-size="10.00">/home/jonathan/Works</text>
<text text-anchor="start" x="1235" y="-347" font-family="Helvetica,sans-Serif" font-size="10.00">/Tools/Triton/src/libtriton</text>
<text text-anchor="middle" x="1312" y="-336" font-family="Helvetica,sans-Serif" font-size="10.00">/engines/solver/z3/z3Solver.cpp</text>
</a>
</g>
</g>
<!-- Node1&#45;&gt;Node12 -->
<g id="edge11" class="edge">
<title>Node1&#45;&gt;Node12</title>
<path fill="none" stroke="midnightblue" d="M1312,-402.06C1312,-391.38 1312,-379.63 1312,-370.05"/>
<polygon fill="midnightblue" stroke="midnightblue" points="1308.5,-402.27 1312,-412.27 1315.5,-402.27 1308.5,-402.27"/>
</g>
<!-- Node13 -->
<g id="node13" class="node">
<title>Node13</title>
<g id="a_node13"><a xlink:href="pathManager_8cpp.html" target="_top" xlink:title=" ">
<polygon fill="white" stroke="black" points="1415,-329 1415,-370 1607,-370 1607,-329 1415,-329"/>
<text text-anchor="start" x="1423" y="-358" font-family="Helvetica,sans-Serif" font-size="10.00">/home/jonathan/Works</text>
<text text-anchor="start" x="1423" y="-347" font-family="Helvetica,sans-Serif" font-size="10.00">/Tools/Triton/src/libtriton</text>
<text text-anchor="middle" x="1511" y="-336" font-family="Helvetica,sans-Serif" font-size="10.00">/engines/symbolic/pathManager.cpp</text>
</a>
</g>
</g>
<!-- Node1&#45;&gt;Node13 -->
<g id="edge12" class="edge">
<title>Node1&#45;&gt;Node13</title>
<path fill="none" stroke="midnightblue" d="M1369.12,-408.61C1398.96,-396.39 1435.06,-381.6 1463.38,-370"/>
<polygon fill="midnightblue" stroke="midnightblue" points="1367.59,-405.45 1359.67,-412.48 1370.25,-411.93 1367.59,-405.45"/>
</g>
<!-- Node14 -->
<g id="node14" class="node">
<title>Node14</title>
<g id="a_node14"><a xlink:href="symbolicEngine_8cpp.html" target="_top" xlink:title=" ">
<polygon fill="white" stroke="black" points="1471,-245.5 1471,-286.5 1677,-286.5 1677,-245.5 1471,-245.5"/>
<text text-anchor="start" x="1479" y="-274.5" font-family="Helvetica,sans-Serif" font-size="10.00">/home/jonathan/Works</text>
<text text-anchor="start" x="1479" y="-263.5" font-family="Helvetica,sans-Serif" font-size="10.00">/Tools/Triton/src/libtriton</text>
<text text-anchor="middle" x="1574" y="-252.5" font-family="Helvetica,sans-Serif" font-size="10.00">/engines/symbolic/symbolicEngine.cpp</text>
</a>
</g>
</g>
<!-- Node1&#45;&gt;Node14 -->
<g id="edge13" class="edge">
<title>Node1&#45;&gt;Node14</title>
<path fill="none" stroke="midnightblue" d="M1405.86,-427.53C1485.03,-421.56 1589.57,-407.74 1616,-376 1638.06,-349.51 1612.3,-310.13 1592.5,-286.67"/>
<polygon fill="midnightblue" stroke="midnightblue" points="1405.57,-424.04 1395.85,-428.25 1406.08,-431.02 1405.57,-424.04"/>
</g>
<!-- Node15 -->
<g id="node15" class="node">
<title>Node15</title>
<g id="a_node15"><a xlink:href="symbolicExpression_8cpp.html" target="_top" xlink:title=" ">
<polygon fill="white" stroke="black" points="1663,-329 1663,-370 1889,-370 1889,-329 1663,-329"/>
<text text-anchor="start" x="1671" y="-358" font-family="Helvetica,sans-Serif" font-size="10.00">/home/jonathan/Works</text>
<text text-anchor="start" x="1671" y="-347" font-family="Helvetica,sans-Serif" font-size="10.00">/Tools/Triton/src/libtriton</text>
<text text-anchor="middle" x="1776" y="-336" font-family="Helvetica,sans-Serif" font-size="10.00">/engines/symbolic/symbolicExpression.cpp</text>
</a>
</g>
</g>
<!-- Node1&#45;&gt;Node15 -->
<g id="edge14" class="edge">
<title>Node1&#45;&gt;Node15</title>
<path fill="none" stroke="midnightblue" d="M1405.79,-417.28C1473.49,-406.44 1567.02,-391.04 1649,-376 1659.18,-374.13 1669.79,-372.11 1680.37,-370.06"/>
<polygon fill="midnightblue" stroke="midnightblue" points="1404.9,-413.88 1395.58,-418.91 1406,-420.79 1404.9,-413.88"/>
</g>
<!-- Node16 -->
<g id="node16" class="node">
<title>Node16</title>
<g id="a_node16"><a xlink:href="api_8hpp.html" target="_top" xlink:title=" ">
<polygon fill="white" stroke="black" points="2134.5,-89.5 2134.5,-130.5 2267.5,-130.5 2267.5,-89.5 2134.5,-89.5"/>
<text text-anchor="start" x="2142.5" y="-118.5" font-family="Helvetica,sans-Serif" font-size="10.00">/home/jonathan/Works</text>
<text text-anchor="start" x="2142.5" y="-107.5" font-family="Helvetica,sans-Serif" font-size="10.00">/Tools/Triton/src/libtriton</text>
<text text-anchor="middle" x="2201" y="-96.5" font-family="Helvetica,sans-Serif" font-size="10.00">/includes/triton/api.hpp</text>
</a>
</g>
</g>
<!-- Node1&#45;&gt;Node16 -->
<g id="edge15" class="edge">
<title>Node1&#45;&gt;Node16</title>
<path fill="none" stroke="midnightblue" d="M1405.96,-430.68C1643.49,-426.81 2263.49,-413.34 2466,-376 2663.55,-339.57 2782.22,-381 2886,-209 2895.64,-193.02 2898.65,-180.73 2886,-167 2844.63,-122.11 2431.75,-113.21 2267.69,-111.44"/>
<polygon fill="midnightblue" stroke="midnightblue" points="1405.56,-427.18 1395.62,-430.84 1405.67,-434.18 1405.56,-427.18"/>
</g>
<!-- Node20 -->
<g id="node20" class="node">
<title>Node20</title>
<g id="a_node20"><a xlink:href="liftingEngine_8hpp.html" target="_top" xlink:title=" ">
<polygon fill="white" stroke="black" points="2273,-167.5 2273,-208.5 2447,-208.5 2447,-167.5 2273,-167.5"/>
<text text-anchor="start" x="2281" y="-196.5" font-family="Helvetica,sans-Serif" font-size="10.00">/home/jonathan/Works</text>
<text text-anchor="start" x="2281" y="-185.5" font-family="Helvetica,sans-Serif" font-size="10.00">/Tools/Triton/src/libtriton</text>
<text text-anchor="middle" x="2360" y="-174.5" font-family="Helvetica,sans-Serif" font-size="10.00">/includes/triton/liftingEngine.hpp</text>
</a>
</g>
</g>
<!-- Node1&#45;&gt;Node20 -->
<g id="edge19" class="edge">
<title>Node1&#45;&gt;Node20</title>
<path fill="none" stroke="midnightblue" d="M1405.65,-432.14C1598,-431.41 2031.13,-424.27 2170,-376 2235.79,-353.13 2250.92,-337.4 2299,-287 2321.69,-263.22 2340.34,-229.69 2350.82,-208.66"/>
<polygon fill="midnightblue" stroke="midnightblue" points="1405.55,-428.64 1395.56,-432.17 1405.58,-435.64 1405.55,-428.64"/>
</g>
<!-- Node21 -->
<g id="node21" class="node">
<title>Node21</title>
<g id="a_node21"><a xlink:href="liftingToPython_8hpp.html" target="_top" xlink:title=" ">
<polygon fill="white" stroke="black" points="2070.5,-245.5 2070.5,-286.5 2255.5,-286.5 2255.5,-245.5 2070.5,-245.5"/>
<text text-anchor="start" x="2078.5" y="-274.5" font-family="Helvetica,sans-Serif" font-size="10.00">/home/jonathan/Works</text>
<text text-anchor="start" x="2078.5" y="-263.5" font-family="Helvetica,sans-Serif" font-size="10.00">/Tools/Triton/src/libtriton</text>
<text text-anchor="middle" x="2163" y="-252.5" font-family="Helvetica,sans-Serif" font-size="10.00">/includes/triton/liftingToPython.hpp</text>
</a>
</g>
</g>
<!-- Node1&#45;&gt;Node21 -->
<g id="edge21" class="edge">
<title>Node1&#45;&gt;Node21</title>
<path fill="none" stroke="midnightblue" d="M1405.83,-432.17C1612.39,-431.64 2092.43,-425.07 2146,-376 2170.43,-353.62 2169.61,-311.71 2166.5,-286.89"/>
<polygon fill="midnightblue" stroke="midnightblue" points="1405.59,-428.67 1395.6,-432.19 1405.61,-435.67 1405.59,-428.67"/>
</g>
<!-- Node23 -->
<g id="node23" class="node">
<title>Node23</title>
<g id="a_node23"><a xlink:href="liftingToSMT_8hpp.html" target="_top" xlink:title=" ">
<polygon fill="white" stroke="black" points="2349,-245.5 2349,-286.5 2521,-286.5 2521,-245.5 2349,-245.5"/>
<text text-anchor="start" x="2357" y="-274.5" font-family="Helvetica,sans-Serif" font-size="10.00">/home/jonathan/Works</text>
<text text-anchor="start" x="2357" y="-263.5" font-family="Helvetica,sans-Serif" font-size="10.00">/Tools/Triton/src/libtriton</text>
<text text-anchor="middle" x="2435" y="-252.5" font-family="Helvetica,sans-Serif" font-size="10.00">/includes/triton/liftingToSMT.hpp</text>
</a>
</g>
</g>
<!-- Node1&#45;&gt;Node23 -->
<g id="edge24" class="edge">
<title>Node1&#45;&gt;Node23</title>
<path fill="none" stroke="midnightblue" d="M1405.84,-430.88C1642.79,-427.5 2252.36,-415.06 2335,-376 2375.86,-356.68 2407.81,-312.41 2423.78,-286.62"/>
<polygon fill="midnightblue" stroke="midnightblue" points="1405.47,-427.39 1395.52,-431.03 1405.57,-434.39 1405.47,-427.39"/>
</g>
<!-- Node25 -->
<g id="node25" class="node">
<title>Node25</title>
<g id="a_node25"><a xlink:href="llvmToTriton_8hpp.html" target="_top" xlink:title=" ">
<polygon fill="white" stroke="black" points="120.5,-329 120.5,-370 293.5,-370 293.5,-329 120.5,-329"/>
<text text-anchor="start" x="128.5" y="-358" font-family="Helvetica,sans-Serif" font-size="10.00">/home/jonathan/Works</text>
<text text-anchor="start" x="128.5" y="-347" font-family="Helvetica,sans-Serif" font-size="10.00">/Tools/Triton/src/libtriton</text>
<text text-anchor="middle" x="207" y="-336" font-family="Helvetica,sans-Serif" font-size="10.00">/includes/triton/llvmToTriton.hpp</text>
</a>
</g>
</g>
<!-- Node1&#45;&gt;Node25 -->
<g id="edge27" class="edge">
<title>Node1&#45;&gt;Node25</title>
<path fill="none" stroke="midnightblue" d="M1218.18,-429.24C1002.71,-422.51 477.61,-403.74 303,-376 293.38,-374.47 283.33,-372.38 273.5,-370.04"/>
<polygon fill="midnightblue" stroke="midnightblue" points="1218.1,-432.74 1228.2,-429.55 1218.32,-425.74 1218.1,-432.74"/>
</g>
<!-- Node27 -->
<g id="node27" class="node">
<title>Node27</title>
<g id="a_node27"><a xlink:href="symbolicEngine_8hpp.html" target="_top" xlink:title=" ">
<polygon fill="white" stroke="black" points="1945.5,-329 1945.5,-370 2136.5,-370 2136.5,-329 1945.5,-329"/>
<text text-anchor="start" x="1953.5" y="-358" font-family="Helvetica,sans-Serif" font-size="10.00">/home/jonathan/Works</text>
<text text-anchor="start" x="1953.5" y="-347" font-family="Helvetica,sans-Serif" font-size="10.00">/Tools/Triton/src/libtriton</text>
<text text-anchor="middle" x="2041" y="-336" font-family="Helvetica,sans-Serif" font-size="10.00">/includes/triton/symbolicEngine.hpp</text>
</a>
</g>
</g>
<!-- Node1&#45;&gt;Node27 -->
<g id="edge29" class="edge">
<title>Node1&#45;&gt;Node27</title>
<path fill="none" stroke="midnightblue" d="M1405.58,-427.55C1527.24,-420.85 1746.02,-405.66 1931,-376 1941.36,-374.34 1952.19,-372.26 1962.84,-370.01"/>
<polygon fill="midnightblue" stroke="midnightblue" points="1405.35,-424.06 1395.55,-428.1 1405.73,-431.05 1405.35,-424.06"/>
</g>
<!-- Node31 -->
<g id="node31" class="node">
<title>Node31</title>
<g id="a_node31"><a xlink:href="synthesizer_8hpp.html" target="_top" xlink:title=" ">
<polygon fill="white" stroke="black" points="2559.5,-245.5 2559.5,-286.5 2728.5,-286.5 2728.5,-245.5 2559.5,-245.5"/>
<text text-anchor="start" x="2567.5" y="-274.5" font-family="Helvetica,sans-Serif" font-size="10.00">/home/jonathan/Works</text>
<text text-anchor="start" x="2567.5" y="-263.5" font-family="Helvetica,sans-Serif" font-size="10.00">/Tools/Triton/src/libtriton</text>
<text text-anchor="middle" x="2644" y="-252.5" font-family="Helvetica,sans-Serif" font-size="10.00">/includes/triton/synthesizer.hpp</text>
</a>
</g>
</g>
<!-- Node1&#45;&gt;Node31 -->
<g id="edge57" class="edge">
<title>Node1&#45;&gt;Node31</title>
<path fill="none" stroke="midnightblue" d="M1405.81,-431.12C1630.62,-428.35 2195.09,-417.38 2379,-376 2464.42,-356.78 2557.64,-312.47 2607.56,-286.65"/>
<polygon fill="midnightblue" stroke="midnightblue" points="1405.64,-427.62 1395.69,-431.24 1405.73,-434.62 1405.64,-427.62"/>
</g>
<!-- Node17 -->
<g id="node17" class="node">
<title>Node17</title>
<g id="a_node17"><a xlink:href="api_8cpp.html" target="_top" xlink:title=" ">
<polygon fill="white" stroke="black" points="1981.5,-6 1981.5,-47 2114.5,-47 2114.5,-6 1981.5,-6"/>
<text text-anchor="start" x="1989.5" y="-35" font-family="Helvetica,sans-Serif" font-size="10.00">/home/jonathan/Works</text>
<text text-anchor="start" x="1989.5" y="-24" font-family="Helvetica,sans-Serif" font-size="10.00">/Tools/Triton/src/libtriton</text>
<text text-anchor="middle" x="2048" y="-13" font-family="Helvetica,sans-Serif" font-size="10.00">/api/api.cpp</text>
</a>
</g>
</g>
<!-- Node16&#45;&gt;Node17 -->
<g id="edge16" class="edge">
<title>Node16&#45;&gt;Node17</title>
<path fill="none" stroke="midnightblue" d="M2155.29,-84.65C2132.7,-72.62 2105.82,-58.3 2084.61,-47"/>
<polygon fill="midnightblue" stroke="midnightblue" points="2153.88,-87.87 2164.35,-89.48 2157.17,-81.69 2153.88,-87.87"/>
</g>
<!-- Node18 -->
<g id="node18" class="node">
<title>Node18</title>
<g id="a_node18"><a xlink:href="pyTritonContext_8cpp.html" target="_top" xlink:title=" ">
<polygon fill="white" stroke="black" points="2133,-0.5 2133,-52.5 2269,-52.5 2269,-0.5 2133,-0.5"/>
<text text-anchor="start" x="2141" y="-40.5" font-family="Helvetica,sans-Serif" font-size="10.00">/home/jonathan/Works</text>
<text text-anchor="start" x="2141" y="-29.5" font-family="Helvetica,sans-Serif" font-size="10.00">/Tools/Triton/src/libtriton</text>
<text text-anchor="start" x="2141" y="-18.5" font-family="Helvetica,sans-Serif" font-size="10.00">/bindings/python/objects</text>
<text text-anchor="middle" x="2201" y="-7.5" font-family="Helvetica,sans-Serif" font-size="10.00">/pyTritonContext.cpp</text>
</a>
</g>
</g>
<!-- Node16&#45;&gt;Node18 -->
<g id="edge17" class="edge">
<title>Node16&#45;&gt;Node18</title>
<path fill="none" stroke="midnightblue" d="M2201,-79.12C2201,-70.41 2201,-60.99 2201,-52.61"/>
<polygon fill="midnightblue" stroke="midnightblue" points="2197.5,-79.27 2201,-89.27 2204.5,-79.27 2197.5,-79.27"/>
</g>
<!-- Node19 -->
<g id="node19" class="node">
<title>Node19</title>
<g id="a_node19"><a xlink:href="callbacks_8cpp.html" target="_top" xlink:title=" ">
<polygon fill="white" stroke="black" points="2287,-6 2287,-47 2421,-47 2421,-6 2287,-6"/>
<text text-anchor="start" x="2295" y="-35" font-family="Helvetica,sans-Serif" font-size="10.00">/home/jonathan/Works</text>
<text text-anchor="start" x="2295" y="-24" font-family="Helvetica,sans-Serif" font-size="10.00">/Tools/Triton/src/libtriton</text>
<text text-anchor="middle" x="2354" y="-13" font-family="Helvetica,sans-Serif" font-size="10.00">/callbacks/callbacks.cpp</text>
</a>
</g>
</g>
<!-- Node16&#45;&gt;Node19 -->
<g id="edge18" class="edge">
<title>Node16&#45;&gt;Node19</title>
<path fill="none" stroke="midnightblue" d="M2246.71,-84.65C2269.3,-72.62 2296.18,-58.3 2317.39,-47"/>
<polygon fill="midnightblue" stroke="midnightblue" points="2244.83,-81.69 2237.65,-89.48 2248.12,-87.87 2244.83,-81.69"/>
</g>
<!-- Node20&#45;&gt;Node16 -->
<g id="edge20" class="edge">
<title>Node20&#45;&gt;Node16</title>
<path fill="none" stroke="midnightblue" d="M2309.89,-163.05C2287.96,-152.57 2262.56,-140.42 2241.81,-130.51"/>
<polygon fill="midnightblue" stroke="midnightblue" points="2308.52,-166.27 2319.05,-167.43 2311.54,-159.96 2308.52,-166.27"/>
</g>
<!-- Node21&#45;&gt;Node20 -->
<g id="edge23" class="edge">
<title>Node21&#45;&gt;Node20</title>
<path fill="none" stroke="midnightblue" d="M2223.27,-241.75C2250.85,-231.11 2283.16,-218.65 2309.44,-208.51"/>
<polygon fill="midnightblue" stroke="midnightblue" points="2221.8,-238.56 2213.73,-245.43 2224.32,-245.09 2221.8,-238.56"/>
</g>
<!-- Node22 -->
<g id="node22" class="node">
<title>Node22</title>
<g id="a_node22"><a xlink:href="liftingToPython_8cpp.html" target="_top" xlink:title=" ">
<polygon fill="white" stroke="black" points="2071,-167.5 2071,-208.5 2255,-208.5 2255,-167.5 2071,-167.5"/>
<text text-anchor="start" x="2079" y="-196.5" font-family="Helvetica,sans-Serif" font-size="10.00">/home/jonathan/Works</text>
<text text-anchor="start" x="2079" y="-185.5" font-family="Helvetica,sans-Serif" font-size="10.00">/Tools/Triton/src/libtriton</text>
<text text-anchor="middle" x="2163" y="-174.5" font-family="Helvetica,sans-Serif" font-size="10.00">/engines/lifters/liftingToPython.cpp</text>
</a>
</g>
</g>
<!-- Node21&#45;&gt;Node22 -->
<g id="edge22" class="edge">
<title>Node21&#45;&gt;Node22</title>
<path fill="none" stroke="midnightblue" d="M2163,-235.3C2163,-226.3 2163,-216.65 2163,-208.51"/>
<polygon fill="midnightblue" stroke="midnightblue" points="2159.5,-235.43 2163,-245.43 2166.5,-235.43 2159.5,-235.43"/>
</g>
<!-- Node23&#45;&gt;Node20 -->
<g id="edge26" class="edge">
<title>Node23&#45;&gt;Node20</title>
<path fill="none" stroke="midnightblue" d="M2408.56,-238.2C2398.9,-228.42 2388.16,-217.54 2379.25,-208.51"/>
<polygon fill="midnightblue" stroke="midnightblue" points="2406.17,-240.77 2415.69,-245.43 2411.15,-235.85 2406.17,-240.77"/>
</g>
<!-- Node24 -->
<g id="node24" class="node">
<title>Node24</title>
<g id="a_node24"><a xlink:href="liftingToSMT_8cpp.html" target="_top" xlink:title=" ">
<polygon fill="white" stroke="black" points="2465,-167.5 2465,-208.5 2635,-208.5 2635,-167.5 2465,-167.5"/>
<text text-anchor="start" x="2473" y="-196.5" font-family="Helvetica,sans-Serif" font-size="10.00">/home/jonathan/Works</text>
<text text-anchor="start" x="2473" y="-185.5" font-family="Helvetica,sans-Serif" font-size="10.00">/Tools/Triton/src/libtriton</text>
<text text-anchor="middle" x="2550" y="-174.5" font-family="Helvetica,sans-Serif" font-size="10.00">/engines/lifters/liftingToSMT.cpp</text>
</a>
</g>
</g>
<!-- Node23&#45;&gt;Node24 -->
<g id="edge25" class="edge">
<title>Node23&#45;&gt;Node24</title>
<path fill="none" stroke="midnightblue" d="M2473.38,-239.64C2488.74,-229.49 2506.15,-217.98 2520.49,-208.51"/>
<polygon fill="midnightblue" stroke="midnightblue" points="2471.03,-236.99 2464.62,-245.43 2474.89,-242.83 2471.03,-236.99"/>
</g>
<!-- Node26 -->
<g id="node26" class="node">
<title>Node26</title>
<g id="a_node26"><a xlink:href="llvmToTriton_8cpp.html" target="_top" xlink:title=" ">
<polygon fill="white" stroke="black" points="136,-245.5 136,-286.5 278,-286.5 278,-245.5 136,-245.5"/>
<text text-anchor="start" x="144" y="-274.5" font-family="Helvetica,sans-Serif" font-size="10.00">/home/jonathan/Works</text>
<text text-anchor="start" x="144" y="-263.5" font-family="Helvetica,sans-Serif" font-size="10.00">/Tools/Triton/src/libtriton</text>
<text text-anchor="middle" x="207" y="-252.5" font-family="Helvetica,sans-Serif" font-size="10.00">/ast/llvm/llvmToTriton.cpp</text>
</a>
</g>
</g>
<!-- Node25&#45;&gt;Node26 -->
<g id="edge28" class="edge">
<title>Node25&#45;&gt;Node26</title>
<path fill="none" stroke="midnightblue" d="M207,-318.56C207,-307.88 207,-296.13 207,-286.55"/>
<polygon fill="midnightblue" stroke="midnightblue" points="203.5,-318.77 207,-328.77 210.5,-318.77 203.5,-318.77"/>
</g>
<!-- Node27&#45;&gt;Node14 -->
<g id="edge30" class="edge">
<title>Node27&#45;&gt;Node14</title>
<path fill="none" stroke="midnightblue" d="M1949.97,-326.81C1943.56,-325.47 1937.19,-324.18 1931,-323 1825.05,-302.81 1797.5,-304.09 1691,-287 1686.42,-286.27 1681.74,-285.51 1677.02,-284.73"/>
<polygon fill="midnightblue" stroke="midnightblue" points="1949.54,-330.3 1960.06,-328.97 1951.01,-323.46 1949.54,-330.3"/>
</g>
<!-- Node27&#45;&gt;Node16 -->
<g id="edge34" class="edge">
<title>Node27&#45;&gt;Node16</title>
<path fill="none" stroke="midnightblue" d="M2035.87,-318.77C2030.89,-279.78 2028.33,-211.15 2062,-167 2079.43,-144.14 2107.71,-130.58 2134.23,-122.55"/>
<polygon fill="midnightblue" stroke="midnightblue" points="2032.44,-319.53 2037.31,-328.94 2039.37,-318.55 2032.44,-319.53"/>
</g>
<!-- Node27&#45;&gt;Node20 -->
<g id="edge41" class="edge">
<title>Node27&#45;&gt;Node20</title>
<path fill="none" stroke="midnightblue" d="M2146.55,-331.66C2185.61,-322.38 2229.09,-308.26 2265,-287 2269.61,-284.27 2315.19,-236.41 2341.5,-208.6"/>
<polygon fill="midnightblue" stroke="midnightblue" points="2145.68,-328.27 2136.72,-333.91 2147.25,-335.09 2145.68,-328.27"/>
</g>
<!-- Node27&#45;&gt;Node21 -->
<g id="edge42" class="edge">
<title>Node27&#45;&gt;Node21</title>
<path fill="none" stroke="midnightblue" d="M2078.62,-323.37C2096.31,-311.55 2117.08,-297.67 2133.59,-286.64"/>
<polygon fill="midnightblue" stroke="midnightblue" points="2076.59,-320.51 2070.22,-328.98 2080.48,-326.33 2076.59,-320.51"/>
</g>
<!-- Node27&#45;&gt;Node23 -->
<g id="edge43" class="edge">
<title>Node27&#45;&gt;Node23</title>
<path fill="none" stroke="midnightblue" d="M2145.41,-326.9C2208.88,-313.77 2288.95,-297.21 2348.8,-284.83"/>
<polygon fill="midnightblue" stroke="midnightblue" points="2144.46,-323.53 2135.37,-328.98 2145.87,-330.38 2144.46,-323.53"/>
</g>
<!-- Node28 -->
<g id="node28" class="node">
<title>Node28</title>
<g id="a_node28"><a xlink:href="aarch64Semantics_8hpp.html" target="_top" xlink:title=" ">
<polygon fill="white" stroke="black" points="1008.5,-167.5 1008.5,-208.5 1211.5,-208.5 1211.5,-167.5 1008.5,-167.5"/>
<text text-anchor="start" x="1016.5" y="-196.5" font-family="Helvetica,sans-Serif" font-size="10.00">/home/jonathan/Works</text>
<text text-anchor="start" x="1016.5" y="-185.5" font-family="Helvetica,sans-Serif" font-size="10.00">/Tools/Triton/src/libtriton</text>
<text text-anchor="middle" x="1110" y="-174.5" font-family="Helvetica,sans-Serif" font-size="10.00">/includes/triton/aarch64Semantics.hpp</text>
</a>
</g>
</g>
<!-- Node27&#45;&gt;Node28 -->
<g id="edge31" class="edge">
<title>Node27&#45;&gt;Node28</title>
<path fill="none" stroke="midnightblue" d="M1948.92,-326.73C1942.86,-325.43 1936.85,-324.17 1931,-323 1837.3,-304.2 1801.14,-335.85 1719,-287 1698.6,-274.87 1706.94,-256.19 1686,-245 1594.4,-196.03 1323.01,-222.31 1220,-209 1217.21,-208.64 1214.38,-208.26 1211.53,-207.85"/>
<polygon fill="midnightblue" stroke="midnightblue" points="1948.61,-330.24 1959.12,-328.95 1950.1,-323.4 1948.61,-330.24"/>
</g>
<!-- Node29 -->
<g id="node29" class="node">
<title>Node29</title>
<g id="a_node29"><a xlink:href="arm32Semantics_8hpp.html" target="_top" xlink:title=" ">
<polygon fill="white" stroke="black" points="1229,-167.5 1229,-208.5 1425,-208.5 1425,-167.5 1229,-167.5"/>
<text text-anchor="start" x="1237" y="-196.5" font-family="Helvetica,sans-Serif" font-size="10.00">/home/jonathan/Works</text>
<text text-anchor="start" x="1237" y="-185.5" font-family="Helvetica,sans-Serif" font-size="10.00">/Tools/Triton/src/libtriton</text>
<text text-anchor="middle" x="1327" y="-174.5" font-family="Helvetica,sans-Serif" font-size="10.00">/includes/triton/arm32Semantics.hpp</text>
</a>
</g>
</g>
<!-- Node27&#45;&gt;Node29 -->
<g id="edge35" class="edge">
<title>Node27&#45;&gt;Node29</title>
<path fill="none" stroke="midnightblue" d="M1947.49,-326.66C1941.92,-325.41 1936.39,-324.18 1931,-323 1853.86,-306.08 1825.54,-326.22 1757,-287 1735.15,-274.5 1741.32,-256.64 1719,-245 1605.78,-185.99 1560.14,-228.74 1434,-209 1431.11,-208.55 1428.17,-208.08 1425.21,-207.59"/>
<polygon fill="midnightblue" stroke="midnightblue" points="1947.04,-330.15 1957.56,-328.94 1948.58,-323.32 1947.04,-330.15"/>
</g>
<!-- Node30 -->
<g id="node30" class="node">
<title>Node30</title>
<g id="a_node30"><a xlink:href="irBuilder_8hpp.html" target="_top" xlink:title=" ">
<polygon fill="white" stroke="black" points="1823,-167.5 1823,-208.5 1977,-208.5 1977,-167.5 1823,-167.5"/>
<text text-anchor="start" x="1831" y="-196.5" font-family="Helvetica,sans-Serif" font-size="10.00">/home/jonathan/Works</text>
<text text-anchor="start" x="1831" y="-185.5" font-family="Helvetica,sans-Serif" font-size="10.00">/Tools/Triton/src/libtriton</text>
<text text-anchor="middle" x="1900" y="-174.5" font-family="Helvetica,sans-Serif" font-size="10.00">/includes/triton/irBuilder.hpp</text>
</a>
</g>
</g>
<!-- Node27&#45;&gt;Node30 -->
<g id="edge38" class="edge">
<title>Node27&#45;&gt;Node30</title>
<path fill="none" stroke="midnightblue" d="M2030.49,-319.16C2021.47,-296.95 2006.79,-266.68 1987,-245 1973.68,-230.41 1955.74,-218.02 1939.62,-208.63"/>
<polygon fill="midnightblue" stroke="midnightblue" points="2027.33,-320.69 2034.23,-328.73 2033.85,-318.15 2027.33,-320.69"/>
</g>
<!-- Node27&#45;&gt;Node31 -->
<g id="edge44" class="edge">
<title>Node27&#45;&gt;Node31</title>
<path fill="none" stroke="midnightblue" d="M2146.79,-336.7C2245.97,-325.28 2398.3,-306.82 2530,-287 2539.54,-285.56 2549.51,-283.96 2559.41,-282.31"/>
<polygon fill="midnightblue" stroke="midnightblue" points="2146.3,-333.23 2136.76,-337.85 2147.1,-340.18 2146.3,-333.23"/>
</g>
<!-- Node33 -->
<g id="node33" class="node">
<title>Node33</title>
<g id="a_node33"><a xlink:href="taintEngine_8hpp.html" target="_top" xlink:title=" ">
<polygon fill="white" stroke="black" points="1808.5,-245.5 1808.5,-286.5 1977.5,-286.5 1977.5,-245.5 1808.5,-245.5"/>
<text text-anchor="start" x="1816.5" y="-274.5" font-family="Helvetica,sans-Serif" font-size="10.00">/home/jonathan/Works</text>
<text text-anchor="start" x="1816.5" y="-263.5" font-family="Helvetica,sans-Serif" font-size="10.00">/Tools/Triton/src/libtriton</text>
<text text-anchor="middle" x="1893" y="-252.5" font-family="Helvetica,sans-Serif" font-size="10.00">/includes/triton/taintEngine.hpp</text>
</a>
</g>
</g>
<!-- Node27&#45;&gt;Node33 -->
<g id="edge47" class="edge">
<title>Node27&#45;&gt;Node33</title>
<path fill="none" stroke="midnightblue" d="M1996.78,-324.15C1974.93,-312.12 1948.93,-297.8 1928.42,-286.5"/>
<polygon fill="midnightblue" stroke="midnightblue" points="1995.1,-327.22 2005.55,-328.98 1998.48,-321.09 1995.1,-327.22"/>
</g>
<!-- Node35 -->
<g id="node35" class="node">
<title>Node35</title>
<g id="a_node35"><a xlink:href="x86Semantics_8hpp.html" target="_top" xlink:title=" ">
<polygon fill="white" stroke="black" points="1443,-167.5 1443,-208.5 1625,-208.5 1625,-167.5 1443,-167.5"/>
<text text-anchor="start" x="1451" y="-196.5" font-family="Helvetica,sans-Serif" font-size="10.00">/home/jonathan/Works</text>
<text text-anchor="start" x="1451" y="-185.5" font-family="Helvetica,sans-Serif" font-size="10.00">/Tools/Triton/src/libtriton</text>
<text text-anchor="middle" x="1534" y="-174.5" font-family="Helvetica,sans-Serif" font-size="10.00">/includes/triton/x86Semantics.hpp</text>
</a>
</g>
</g>
<!-- Node27&#45;&gt;Node35 -->
<g id="edge56" class="edge">
<title>Node27&#45;&gt;Node35</title>
<path fill="none" stroke="midnightblue" d="M1950.2,-326.49C1884.8,-310.45 1806.89,-290.87 1800,-287 1776.71,-273.92 1780.32,-258.04 1757,-245 1744.7,-238.12 1678.08,-221.78 1620.83,-208.52"/>
<polygon fill="midnightblue" stroke="midnightblue" points="1949.62,-329.95 1960.16,-328.93 1951.28,-323.15 1949.62,-329.95"/>
</g>
<!-- Node28&#45;&gt;Node2 -->
<g id="edge32" class="edge">
<title>Node28&#45;&gt;Node2</title>
<path fill="none" stroke="midnightblue" d="M997.85,-178.49C804.25,-163.79 409.75,-133.83 218.21,-119.29"/>
<polygon fill="midnightblue" stroke="midnightblue" points="997.81,-181.99 1008.05,-179.26 998.34,-175.01 997.81,-181.99"/>
</g>
<!-- Node28&#45;&gt;Node4 -->
<g id="edge33" class="edge">
<title>Node28&#45;&gt;Node4</title>
<path fill="none" stroke="midnightblue" d="M1175.6,-164.03C1206.14,-153.33 1242.1,-140.73 1271.31,-130.51"/>
<polygon fill="midnightblue" stroke="midnightblue" points="1174.16,-160.82 1165.88,-167.43 1176.48,-167.43 1174.16,-160.82"/>
</g>
<!-- Node29&#45;&gt;Node3 -->
<g id="edge36" class="edge">
<title>Node29&#45;&gt;Node3</title>
<path fill="none" stroke="midnightblue" d="M1218.94,-166.74C1067.83,-144.75 902.87,-128.61 799.54,-119.45"/>
<polygon fill="midnightblue" stroke="midnightblue" points="1218.47,-170.21 1228.87,-168.2 1219.48,-163.28 1218.47,-170.21"/>
</g>
<!-- Node29&#45;&gt;Node4 -->
<g id="edge37" class="edge">
<title>Node29&#45;&gt;Node4</title>
<path fill="none" stroke="midnightblue" d="M1327,-157.3C1327,-148.3 1327,-138.65 1327,-130.51"/>
<polygon fill="midnightblue" stroke="midnightblue" points="1323.5,-157.43 1327,-167.43 1330.5,-157.43 1323.5,-157.43"/>
</g>
<!-- Node30&#45;&gt;Node4 -->
<g id="edge39" class="edge">
<title>Node30&#45;&gt;Node4</title>
<path fill="none" stroke="midnightblue" d="M1812.52,-166.84C1657.16,-140.42 1485.57,-124 1393.51,-116.23"/>
<polygon fill="midnightblue" stroke="midnightblue" points="1812.28,-170.35 1822.73,-168.59 1813.47,-163.45 1812.28,-170.35"/>
</g>
<!-- Node30&#45;&gt;Node16 -->
<g id="edge40" class="edge">
<title>Node30&#45;&gt;Node16</title>
<path fill="none" stroke="midnightblue" d="M1986.98,-165.04C2033.9,-153.19 2090.92,-138.79 2134.3,-127.84"/>
<polygon fill="midnightblue" stroke="midnightblue" points="1985.96,-161.69 1977.12,-167.53 1987.68,-168.47 1985.96,-161.69"/>
</g>
<!-- Node31&#45;&gt;Node16 -->
<g id="edge46" class="edge">
<title>Node31&#45;&gt;Node16</title>
<path fill="none" stroke="midnightblue" d="M2653.35,-235.47C2658.19,-213.9 2660.15,-185.32 2644,-167 2619.55,-139.27 2385.58,-121.77 2267.9,-114.65"/>
<polygon fill="midnightblue" stroke="midnightblue" points="2649.89,-234.87 2650.81,-245.43 2656.68,-236.61 2649.89,-234.87"/>
</g>
<!-- Node32 -->
<g id="node32" class="node">
<title>Node32</title>
<g id="a_node32"><a xlink:href="synthesizer_8cpp.html" target="_top" xlink:title=" ">
<polygon fill="white" stroke="black" points="2691,-167.5 2691,-208.5 2877,-208.5 2877,-167.5 2691,-167.5"/>
<text text-anchor="start" x="2699" y="-196.5" font-family="Helvetica,sans-Serif" font-size="10.00">/home/jonathan/Works</text>
<text text-anchor="start" x="2699" y="-185.5" font-family="Helvetica,sans-Serif" font-size="10.00">/Tools/Triton/src/libtriton</text>
<text text-anchor="middle" x="2784" y="-174.5" font-family="Helvetica,sans-Serif" font-size="10.00">/engines/synthesis/synthesizer.cpp</text>
</a>
</g>
</g>
<!-- Node31&#45;&gt;Node32 -->
<g id="edge45" class="edge">
<title>Node31&#45;&gt;Node32</title>
<path fill="none" stroke="midnightblue" d="M2688.9,-240.63C2708.03,-230.24 2730.04,-218.29 2748.07,-208.51"/>
<polygon fill="midnightblue" stroke="midnightblue" points="2687.17,-237.58 2680.05,-245.43 2690.51,-243.73 2687.17,-237.58"/>
</g>
<!-- Node33&#45;&gt;Node16 -->
<g id="edge50" class="edge">
<title>Node33&#45;&gt;Node16</title>
<path fill="none" stroke="midnightblue" d="M1938.94,-240.19C1954.4,-231.1 1971.41,-220.27 1986,-209 2007.14,-192.67 2006.14,-180.83 2029,-167 2061.24,-147.49 2101.05,-133.97 2134.25,-125.1"/>
<polygon fill="midnightblue" stroke="midnightblue" points="1936.95,-237.29 1930.05,-245.32 1940.46,-243.35 1936.95,-237.29"/>
</g>
<!-- Node33&#45;&gt;Node28 -->
<g id="edge49" class="edge">
<title>Node33&#45;&gt;Node28</title>
<path fill="none" stroke="midnightblue" d="M1798.03,-253.35C1772.4,-250.4 1744.66,-247.4 1719,-245 1497.61,-224.3 1440.59,-236.93 1220,-209 1217.21,-208.65 1214.38,-208.27 1211.53,-207.87"/>
<polygon fill="midnightblue" stroke="midnightblue" points="1797.78,-256.84 1808.11,-254.51 1798.58,-249.89 1797.78,-256.84"/>
</g>
<!-- Node33&#45;&gt;Node29 -->
<g id="edge51" class="edge">
<title>Node33&#45;&gt;Node29</title>
<path fill="none" stroke="midnightblue" d="M1798.19,-250.62C1784.38,-248.66 1770.33,-246.72 1757,-245 1613.75,-226.49 1576.87,-230.28 1434,-209 1431.1,-208.57 1428.16,-208.12 1425.2,-207.65"/>
<polygon fill="midnightblue" stroke="midnightblue" points="1797.79,-254.1 1808.18,-252.06 1798.78,-247.17 1797.79,-254.1"/>
</g>
<!-- Node33&#45;&gt;Node30 -->
<g id="edge52" class="edge">
<title>Node33&#45;&gt;Node30</title>
<path fill="none" stroke="midnightblue" d="M1895.74,-235.3C1896.56,-226.3 1897.45,-216.65 1898.2,-208.51"/>
<polygon fill="midnightblue" stroke="midnightblue" points="1892.23,-235.15 1894.8,-245.43 1899.21,-235.79 1892.23,-235.15"/>
</g>
<!-- Node34 -->
<g id="node34" class="node">
<title>Node34</title>
<g id="a_node34"><a xlink:href="taintEngine_8cpp.html" target="_top" xlink:title=" ">
<polygon fill="white" stroke="black" points="1643,-167.5 1643,-208.5 1805,-208.5 1805,-167.5 1643,-167.5"/>
<text text-anchor="start" x="1651" y="-196.5" font-family="Helvetica,sans-Serif" font-size="10.00">/home/jonathan/Works</text>
<text text-anchor="start" x="1651" y="-185.5" font-family="Helvetica,sans-Serif" font-size="10.00">/Tools/Triton/src/libtriton</text>
<text text-anchor="middle" x="1724" y="-174.5" font-family="Helvetica,sans-Serif" font-size="10.00">/engines/taint/taintEngine.cpp</text>
</a>
</g>
</g>
<!-- Node33&#45;&gt;Node34 -->
<g id="edge48" class="edge">
<title>Node33&#45;&gt;Node34</title>
<path fill="none" stroke="midnightblue" d="M1840.05,-241.19C1816.67,-230.67 1789.53,-218.47 1767.37,-208.51"/>
<polygon fill="midnightblue" stroke="midnightblue" points="1838.92,-244.52 1849.48,-245.43 1841.79,-238.13 1838.92,-244.52"/>
</g>
<!-- Node33&#45;&gt;Node35 -->
<g id="edge53" class="edge">
<title>Node33&#45;&gt;Node35</title>
<path fill="none" stroke="midnightblue" d="M1798.54,-245C1744.99,-233.67 1678.3,-219.55 1625.28,-208.32"/>
<polygon fill="midnightblue" stroke="midnightblue" points="1797.87,-248.44 1808.38,-247.09 1799.32,-241.59 1797.87,-248.44"/>
</g>
<!-- Node35&#45;&gt;Node4 -->
<g id="edge54" class="edge">
<title>Node35&#45;&gt;Node4</title>
<path fill="none" stroke="midnightblue" d="M1471.05,-163.89C1441.99,-153.22 1407.87,-140.69 1380.13,-130.51"/>
<polygon fill="midnightblue" stroke="midnightblue" points="1470.1,-167.27 1480.69,-167.43 1472.51,-160.7 1470.1,-167.27"/>
</g>
<!-- Node35&#45;&gt;Node5 -->
<g id="edge55" class="edge">
<title>Node35&#45;&gt;Node5</title>
<path fill="none" stroke="midnightblue" d="M1432.82,-166.82C1330.15,-148.71 1222.72,-132.41 1152.19,-122.07"/>
<polygon fill="midnightblue" stroke="midnightblue" points="1432.29,-170.28 1442.74,-168.58 1433.51,-163.39 1432.29,-170.28"/>
</g>
</g>
</svg>
