<?xml version="1.0" encoding="UTF-8" standalone="no"?>
<!DOCTYPE svg PUBLIC "-//W3C//DTD SVG 1.1//EN"
 "http://www.w3.org/Graphics/SVG/1.1/DTD/svg11.dtd">
<!-- Generated by graphviz version 2.49.0 (20210828.1703)
 -->
<!-- Title: /home/jonathan/Works/Tools/Triton/src/libtriton/includes/triton/astRepresentation.hpp Pages: 1 -->
<svg width="2404pt" height="551pt"
 viewBox="0.00 0.00 2404.00 551.00" xmlns="http://www.w3.org/2000/svg" xmlns:xlink="http://www.w3.org/1999/xlink">
<g id="graph0" class="graph" transform="scale(1 1) rotate(0) translate(4 547)">
<title>/home/jonathan/Works/Tools/Triton/src/libtriton/includes/triton/astRepresentation.hpp</title>
<polygon fill="white" stroke="transparent" points="-4,4 -4,-547 2400,-547 2400,4 -4,4"/>
<!-- Node1 -->
<g id="node1" class="node">
<title>Node1</title>
<g id="a_node1"><a xlink:title=" ">
<polygon fill="#bfbfbf" stroke="black" points="596.5,-501.5 596.5,-542.5 799.5,-542.5 799.5,-501.5 596.5,-501.5"/>
<text text-anchor="start" x="604.5" y="-530.5" font-family="Helvetica,sans-Serif" font-size="10.00">/home/jonathan/Works</text>
<text text-anchor="start" x="604.5" y="-519.5" font-family="Helvetica,sans-Serif" font-size="10.00">/Tools/Triton/src/libtriton</text>
<text text-anchor="middle" x="698" y="-508.5" font-family="Helvetica,sans-Serif" font-size="10.00">/includes/triton/astRepresentation.hpp</text>
</a>
</g>
</g>
<!-- Node2 -->
<g id="node2" class="node">
<title>Node2</title>
<g id="a_node2"><a xlink:href="ast_8cpp.html" target="_top" xlink:title=" ">
<polygon fill="white" stroke="black" points="28.5,-329 28.5,-370 161.5,-370 161.5,-329 28.5,-329"/>
<text text-anchor="start" x="36.5" y="-358" font-family="Helvetica,sans-Serif" font-size="10.00">/home/jonathan/Works</text>
<text text-anchor="start" x="36.5" y="-347" font-family="Helvetica,sans-Serif" font-size="10.00">/Tools/Triton/src/libtriton</text>
<text text-anchor="middle" x="95" y="-336" font-family="Helvetica,sans-Serif" font-size="10.00">/ast/ast.cpp</text>
</a>
</g>
</g>
<!-- Node1&#45;&gt;Node2 -->
<g id="edge1" class="edge">
<title>Node1&#45;&gt;Node2</title>
<path fill="none" stroke="midnightblue" d="M588.3,-499.42C543.06,-489.87 490.26,-477.89 443,-465 320.28,-431.54 291.74,-416.01 171,-376 165.19,-374.07 159.13,-372.06 153.08,-370.04"/>
<polygon fill="midnightblue" stroke="midnightblue" points="587.63,-502.86 598.14,-501.48 589.07,-496.01 587.63,-502.86"/>
</g>
<!-- Node3 -->
<g id="node3" class="node">
<title>Node3</title>
<g id="a_node3"><a xlink:href="astRepresentation_8cpp.html" target="_top" xlink:title=" ">
<polygon fill="white" stroke="black" points="935.5,-418 935.5,-459 1162.5,-459 1162.5,-418 935.5,-418"/>
<text text-anchor="start" x="943.5" y="-447" font-family="Helvetica,sans-Serif" font-size="10.00">/home/jonathan/Works</text>
<text text-anchor="start" x="943.5" y="-436" font-family="Helvetica,sans-Serif" font-size="10.00">/Tools/Triton/src/libtriton</text>
<text text-anchor="middle" x="1049" y="-425" font-family="Helvetica,sans-Serif" font-size="10.00">/ast/representations/astRepresentation.cpp</text>
</a>
</g>
</g>
<!-- Node1&#45;&gt;Node3 -->
<g id="edge2" class="edge">
<title>Node1&#45;&gt;Node3</title>
<path fill="none" stroke="midnightblue" d="M791.97,-499.18C845.85,-486.67 912.9,-471.1 965.01,-459"/>
<polygon fill="midnightblue" stroke="midnightblue" points="791.02,-495.81 782.07,-501.48 792.61,-502.63 791.02,-495.81"/>
</g>
<!-- Node4 -->
<g id="node4" class="node">
<title>Node4</title>
<g id="a_node4"><a xlink:href="initAstRepresentationNamespace_8cpp.html" target="_top" xlink:title=" ">
<polygon fill="white" stroke="black" points="1180.5,-412.5 1180.5,-464.5 1383.5,-464.5 1383.5,-412.5 1180.5,-412.5"/>
<text text-anchor="start" x="1188.5" y="-452.5" font-family="Helvetica,sans-Serif" font-size="10.00">/home/jonathan/Works</text>
<text text-anchor="start" x="1188.5" y="-441.5" font-family="Helvetica,sans-Serif" font-size="10.00">/Tools/Triton/src/libtriton</text>
<text text-anchor="start" x="1188.5" y="-430.5" font-family="Helvetica,sans-Serif" font-size="10.00">/bindings/python/namespaces</text>
<text text-anchor="middle" x="1282" y="-419.5" font-family="Helvetica,sans-Serif" font-size="10.00">/initAstRepresentationNamespace.cpp</text>
</a>
</g>
</g>
<!-- Node1&#45;&gt;Node4 -->
<g id="edge3" class="edge">
<title>Node1&#45;&gt;Node4</title>
<path fill="none" stroke="midnightblue" d="M809.77,-511.3C906.14,-502.1 1048.81,-486.49 1172,-465 1174.8,-464.51 1177.64,-464 1180.49,-463.46"/>
<polygon fill="midnightblue" stroke="midnightblue" points="809.34,-507.83 799.72,-512.25 810,-514.79 809.34,-507.83"/>
</g>
<!-- Node5 -->
<g id="node5" class="node">
<title>Node5</title>
<g id="a_node5"><a xlink:href="symbolicExpression_8cpp.html" target="_top" xlink:title=" ">
<polygon fill="white" stroke="black" points="180,-329 180,-370 406,-370 406,-329 180,-329"/>
<text text-anchor="start" x="188" y="-358" font-family="Helvetica,sans-Serif" font-size="10.00">/home/jonathan/Works</text>
<text text-anchor="start" x="188" y="-347" font-family="Helvetica,sans-Serif" font-size="10.00">/Tools/Triton/src/libtriton</text>
<text text-anchor="middle" x="293" y="-336" font-family="Helvetica,sans-Serif" font-size="10.00">/engines/symbolic/symbolicExpression.cpp</text>
</a>
</g>
</g>
<!-- Node1&#45;&gt;Node5 -->
<g id="edge4" class="edge">
<title>Node1&#45;&gt;Node5</title>
<path fill="none" stroke="midnightblue" d="M642.06,-497.45C561.55,-463.56 414.46,-401.63 339.54,-370.09"/>
<polygon fill="midnightblue" stroke="midnightblue" points="640.97,-500.79 651.54,-501.44 643.68,-494.34 640.97,-500.79"/>
</g>
<!-- Node6 -->
<g id="node6" class="node">
<title>Node6</title>
<g id="a_node6"><a xlink:href="api_8hpp.html" target="_top" xlink:title=" ">
<polygon fill="white" stroke="black" points="772.5,-89.5 772.5,-130.5 905.5,-130.5 905.5,-89.5 772.5,-89.5"/>
<text text-anchor="start" x="780.5" y="-118.5" font-family="Helvetica,sans-Serif" font-size="10.00">/home/jonathan/Works</text>
<text text-anchor="start" x="780.5" y="-107.5" font-family="Helvetica,sans-Serif" font-size="10.00">/Tools/Triton/src/libtriton</text>
<text text-anchor="middle" x="839" y="-96.5" font-family="Helvetica,sans-Serif" font-size="10.00">/includes/triton/api.hpp</text>
</a>
</g>
</g>
<!-- Node1&#45;&gt;Node6 -->
<g id="edge5" class="edge">
<title>Node1&#45;&gt;Node6</title>
<path fill="none" stroke="midnightblue" d="M586.02,-516.66C388.76,-505.93 0,-469.66 0,-350.5 0,-350.5 0,-350.5 0,-265 0,-136.09 147.24,-195.34 273,-167 450.49,-127.01 665.68,-115.57 772.37,-112.31"/>
<polygon fill="midnightblue" stroke="midnightblue" points="585.96,-520.16 596.13,-517.19 586.33,-513.17 585.96,-520.16"/>
</g>
<!-- Node10 -->
<g id="node10" class="node">
<title>Node10</title>
<g id="a_node10"><a xlink:href="astContext_8hpp.html" target="_top" xlink:title=" ">
<polygon fill="white" stroke="black" points="750.5,-418 750.5,-459 917.5,-459 917.5,-418 750.5,-418"/>
<text text-anchor="start" x="758.5" y="-447" font-family="Helvetica,sans-Serif" font-size="10.00">/home/jonathan/Works</text>
<text text-anchor="start" x="758.5" y="-436" font-family="Helvetica,sans-Serif" font-size="10.00">/Tools/Triton/src/libtriton</text>
<text text-anchor="middle" x="834" y="-425" font-family="Helvetica,sans-Serif" font-size="10.00">/includes/triton/astContext.hpp</text>
</a>
</g>
</g>
<!-- Node1&#45;&gt;Node10 -->
<g id="edge9" class="edge">
<title>Node1&#45;&gt;Node10</title>
<path fill="none" stroke="midnightblue" d="M739.4,-496.19C759.23,-484.3 782.65,-470.27 801.22,-459.14"/>
<polygon fill="midnightblue" stroke="midnightblue" points="737.35,-493.34 730.58,-501.48 740.95,-499.34 737.35,-493.34"/>
</g>
<!-- Node7 -->
<g id="node7" class="node">
<title>Node7</title>
<g id="a_node7"><a xlink:href="api_8cpp.html" target="_top" xlink:title=" ">
<polygon fill="white" stroke="black" points="619.5,-6 619.5,-47 752.5,-47 752.5,-6 619.5,-6"/>
<text text-anchor="start" x="627.5" y="-35" font-family="Helvetica,sans-Serif" font-size="10.00">/home/jonathan/Works</text>
<text text-anchor="start" x="627.5" y="-24" font-family="Helvetica,sans-Serif" font-size="10.00">/Tools/Triton/src/libtriton</text>
<text text-anchor="middle" x="686" y="-13" font-family="Helvetica,sans-Serif" font-size="10.00">/api/api.cpp</text>
</a>
</g>
</g>
<!-- Node6&#45;&gt;Node7 -->
<g id="edge6" class="edge">
<title>Node6&#45;&gt;Node7</title>
<path fill="none" stroke="midnightblue" d="M793.29,-84.65C770.7,-72.62 743.82,-58.3 722.61,-47"/>
<polygon fill="midnightblue" stroke="midnightblue" points="791.88,-87.87 802.35,-89.48 795.17,-81.69 791.88,-87.87"/>
</g>
<!-- Node8 -->
<g id="node8" class="node">
<title>Node8</title>
<g id="a_node8"><a xlink:href="pyTritonContext_8cpp.html" target="_top" xlink:title=" ">
<polygon fill="white" stroke="black" points="771,-0.5 771,-52.5 907,-52.5 907,-0.5 771,-0.5"/>
<text text-anchor="start" x="779" y="-40.5" font-family="Helvetica,sans-Serif" font-size="10.00">/home/jonathan/Works</text>
<text text-anchor="start" x="779" y="-29.5" font-family="Helvetica,sans-Serif" font-size="10.00">/Tools/Triton/src/libtriton</text>
<text text-anchor="start" x="779" y="-18.5" font-family="Helvetica,sans-Serif" font-size="10.00">/bindings/python/objects</text>
<text text-anchor="middle" x="839" y="-7.5" font-family="Helvetica,sans-Serif" font-size="10.00">/pyTritonContext.cpp</text>
</a>
</g>
</g>
<!-- Node6&#45;&gt;Node8 -->
<g id="edge7" class="edge">
<title>Node6&#45;&gt;Node8</title>
<path fill="none" stroke="midnightblue" d="M839,-79.12C839,-70.41 839,-60.99 839,-52.61"/>
<polygon fill="midnightblue" stroke="midnightblue" points="835.5,-79.27 839,-89.27 842.5,-79.27 835.5,-79.27"/>
</g>
<!-- Node9 -->
<g id="node9" class="node">
<title>Node9</title>
<g id="a_node9"><a xlink:href="callbacks_8cpp.html" target="_top" xlink:title=" ">
<polygon fill="white" stroke="black" points="925,-6 925,-47 1059,-47 1059,-6 925,-6"/>
<text text-anchor="start" x="933" y="-35" font-family="Helvetica,sans-Serif" font-size="10.00">/home/jonathan/Works</text>
<text text-anchor="start" x="933" y="-24" font-family="Helvetica,sans-Serif" font-size="10.00">/Tools/Triton/src/libtriton</text>
<text text-anchor="middle" x="992" y="-13" font-family="Helvetica,sans-Serif" font-size="10.00">/callbacks/callbacks.cpp</text>
</a>
</g>
</g>
<!-- Node6&#45;&gt;Node9 -->
<g id="edge8" class="edge">
<title>Node6&#45;&gt;Node9</title>
<path fill="none" stroke="midnightblue" d="M884.71,-84.65C907.3,-72.62 934.18,-58.3 955.39,-47"/>
<polygon fill="midnightblue" stroke="midnightblue" points="882.83,-81.69 875.65,-89.48 886.12,-87.87 882.83,-81.69"/>
</g>
<!-- Node10&#45;&gt;Node2 -->
<g id="edge14" class="edge">
<title>Node10&#45;&gt;Node2</title>
<path fill="none" stroke="midnightblue" d="M740.12,-435.6C610.72,-431.45 370.87,-418.21 171,-376 163.51,-374.42 155.73,-372.34 148.13,-370.05"/>
<polygon fill="midnightblue" stroke="midnightblue" points="740.29,-439.11 750.39,-435.92 740.5,-432.11 740.29,-439.11"/>
</g>
<!-- Node10&#45;&gt;Node5 -->
<g id="edge23" class="edge">
<title>Node10&#45;&gt;Node5</title>
<path fill="none" stroke="midnightblue" d="M740.11,-424.93C656.06,-413.36 529.54,-395.12 420,-376 409.48,-374.16 398.49,-372.13 387.56,-370.04"/>
<polygon fill="midnightblue" stroke="midnightblue" points="739.76,-428.42 750.14,-426.31 740.71,-421.49 739.76,-428.42"/>
</g>
<!-- Node10&#45;&gt;Node6 -->
<g id="edge24" class="edge">
<title>Node10&#45;&gt;Node6</title>
<path fill="none" stroke="midnightblue" d="M740.2,-431.29C642,-423.27 495.7,-406.56 449,-376 425.58,-360.68 437.09,-340.18 415,-323 375.06,-291.94 338.64,-326.48 307,-287 273.57,-245.29 263.21,-206.7 299,-167 330.18,-132.42 635.03,-117.85 772.44,-113.01"/>
<polygon fill="midnightblue" stroke="midnightblue" points="740.19,-434.8 750.44,-432.11 740.75,-427.82 740.19,-434.8"/>
</g>
<!-- Node11 -->
<g id="node11" class="node">
<title>Node11</title>
<g id="a_node11"><a xlink:href="aarch64Semantics_8cpp.html" target="_top" xlink:title=" ">
<polygon fill="white" stroke="black" points="2006,-89.5 2006,-130.5 2224,-130.5 2224,-89.5 2006,-89.5"/>
<text text-anchor="start" x="2014" y="-118.5" font-family="Helvetica,sans-Serif" font-size="10.00">/home/jonathan/Works</text>
<text text-anchor="start" x="2014" y="-107.5" font-family="Helvetica,sans-Serif" font-size="10.00">/Tools/Triton/src/libtriton</text>
<text text-anchor="middle" x="2115" y="-96.5" font-family="Helvetica,sans-Serif" font-size="10.00">/arch/arm/aarch64/aarch64Semantics.cpp</text>
</a>
</g>
</g>
<!-- Node10&#45;&gt;Node11 -->
<g id="edge10" class="edge">
<title>Node10&#45;&gt;Node11</title>
<path fill="none" stroke="midnightblue" d="M907.11,-415.71C913.79,-414.25 920.49,-412.98 927,-412 1059.47,-392.15 2007.66,-425.82 2132,-376 2227.41,-337.77 2285.64,-254.06 2231,-167 2220.72,-150.62 2204.14,-138.91 2186.69,-130.59"/>
<polygon fill="midnightblue" stroke="midnightblue" points="906.31,-412.31 897.36,-417.98 907.89,-419.13 906.31,-412.31"/>
</g>
<!-- Node12 -->
<g id="node12" class="node">
<title>Node12</title>
<g id="a_node12"><a xlink:href="arm32Semantics_8cpp.html" target="_top" xlink:title=" ">
<polygon fill="white" stroke="black" points="1784.5,-89.5 1784.5,-130.5 1987.5,-130.5 1987.5,-89.5 1784.5,-89.5"/>
<text text-anchor="start" x="1792.5" y="-118.5" font-family="Helvetica,sans-Serif" font-size="10.00">/home/jonathan/Works</text>
<text text-anchor="start" x="1792.5" y="-107.5" font-family="Helvetica,sans-Serif" font-size="10.00">/Tools/Triton/src/libtriton</text>
<text text-anchor="middle" x="1886" y="-96.5" font-family="Helvetica,sans-Serif" font-size="10.00">/arch/arm/arm32/arm32Semantics.cpp</text>
</a>
</g>
</g>
<!-- Node10&#45;&gt;Node12 -->
<g id="edge11" class="edge">
<title>Node10&#45;&gt;Node12</title>
<path fill="none" stroke="midnightblue" d="M907.11,-415.73C913.79,-414.26 920.49,-412.98 927,-412 1052.86,-393.04 1953.76,-423.14 2072,-376 2174.72,-335.05 2278.28,-251.54 2207,-167 2176.48,-130.8 2043.63,-139.2 1997,-131 1993.91,-130.46 1990.78,-129.9 1987.62,-129.35"/>
<polygon fill="midnightblue" stroke="midnightblue" points="906.31,-412.32 897.36,-417.99 907.89,-419.14 906.31,-412.32"/>
</g>
<!-- Node13 -->
<g id="node13" class="node">
<title>Node13</title>
<g id="a_node13"><a xlink:href="irBuilder_8cpp.html" target="_top" xlink:title=" ">
<polygon fill="white" stroke="black" points="1633.5,-89.5 1633.5,-130.5 1766.5,-130.5 1766.5,-89.5 1633.5,-89.5"/>
<text text-anchor="start" x="1641.5" y="-118.5" font-family="Helvetica,sans-Serif" font-size="10.00">/home/jonathan/Works</text>
<text text-anchor="start" x="1641.5" y="-107.5" font-family="Helvetica,sans-Serif" font-size="10.00">/Tools/Triton/src/libtriton</text>
<text text-anchor="middle" x="1700" y="-96.5" font-family="Helvetica,sans-Serif" font-size="10.00">/arch/irBuilder.cpp</text>
</a>
</g>
</g>
<!-- Node10&#45;&gt;Node13 -->
<g id="edge12" class="edge">
<title>Node10&#45;&gt;Node13</title>
<path fill="none" stroke="midnightblue" d="M907.75,-415.6C914.22,-414.19 920.7,-412.95 927,-412 1165.74,-375.83 1784.1,-452.89 2013,-376 2077.99,-354.17 2092.31,-337.21 2139,-287 2178,-245.05 2224.69,-209.24 2186,-167 2155.11,-133.28 1821.05,-138.85 1776,-131 1772.91,-130.46 1769.76,-129.86 1766.59,-129.21"/>
<polygon fill="midnightblue" stroke="midnightblue" points="906.57,-412.28 897.61,-417.94 908.14,-419.1 906.57,-412.28"/>
</g>
<!-- Node14 -->
<g id="node14" class="node">
<title>Node14</title>
<g id="a_node14"><a xlink:href="x86Semantics_8cpp.html" target="_top" xlink:title=" ">
<polygon fill="white" stroke="black" points="2242,-89.5 2242,-130.5 2396,-130.5 2396,-89.5 2242,-89.5"/>
<text text-anchor="start" x="2250" y="-118.5" font-family="Helvetica,sans-Serif" font-size="10.00">/home/jonathan/Works</text>
<text text-anchor="start" x="2250" y="-107.5" font-family="Helvetica,sans-Serif" font-size="10.00">/Tools/Triton/src/libtriton</text>
<text text-anchor="middle" x="2319" y="-96.5" font-family="Helvetica,sans-Serif" font-size="10.00">/arch/x86/x86Semantics.cpp</text>
</a>
</g>
</g>
<!-- Node10&#45;&gt;Node14 -->
<g id="edge13" class="edge">
<title>Node10&#45;&gt;Node14</title>
<path fill="none" stroke="midnightblue" d="M907.11,-415.71C913.79,-414.24 920.49,-412.97 927,-412 1065.41,-391.35 2060.37,-437.65 2186,-376 2281.89,-328.94 2309.71,-184.07 2316.81,-130.86"/>
<polygon fill="midnightblue" stroke="midnightblue" points="906.31,-412.3 897.35,-417.97 907.89,-419.12 906.31,-412.3"/>
</g>
<!-- Node15 -->
<g id="node15" class="node">
<title>Node15</title>
<g id="a_node15"><a xlink:href="astContext_8cpp.html" target="_top" xlink:title=" ">
<polygon fill="white" stroke="black" points="614.5,-329 614.5,-370 747.5,-370 747.5,-329 614.5,-329"/>
<text text-anchor="start" x="622.5" y="-358" font-family="Helvetica,sans-Serif" font-size="10.00">/home/jonathan/Works</text>
<text text-anchor="start" x="622.5" y="-347" font-family="Helvetica,sans-Serif" font-size="10.00">/Tools/Triton/src/libtriton</text>
<text text-anchor="middle" x="681" y="-336" font-family="Helvetica,sans-Serif" font-size="10.00">/ast/astContext.cpp</text>
</a>
</g>
</g>
<!-- Node10&#45;&gt;Node15 -->
<g id="edge15" class="edge">
<title>Node10&#45;&gt;Node15</title>
<path fill="none" stroke="midnightblue" d="M790.82,-412.94C766.98,-399.39 737.78,-382.79 715.49,-370.11"/>
<polygon fill="midnightblue" stroke="midnightblue" points="789.24,-416.07 799.66,-417.98 792.7,-409.99 789.24,-416.07"/>
</g>
<!-- Node16 -->
<g id="node16" class="node">
<title>Node16</title>
<g id="a_node16"><a xlink:href="z3ToTritonAst_8cpp.html" target="_top" xlink:title=" ">
<polygon fill="white" stroke="black" points="765.5,-329 765.5,-370 902.5,-370 902.5,-329 765.5,-329"/>
<text text-anchor="start" x="773.5" y="-358" font-family="Helvetica,sans-Serif" font-size="10.00">/home/jonathan/Works</text>
<text text-anchor="start" x="773.5" y="-347" font-family="Helvetica,sans-Serif" font-size="10.00">/Tools/Triton/src/libtriton</text>
<text text-anchor="middle" x="834" y="-336" font-family="Helvetica,sans-Serif" font-size="10.00">/ast/z3/z3ToTritonAst.cpp</text>
</a>
</g>
</g>
<!-- Node10&#45;&gt;Node16 -->
<g id="edge16" class="edge">
<title>Node10&#45;&gt;Node16</title>
<path fill="none" stroke="midnightblue" d="M834,-407.44C834,-395.1 834,-381.16 834,-370.16"/>
<polygon fill="midnightblue" stroke="midnightblue" points="830.5,-407.76 834,-417.76 837.5,-407.76 830.5,-407.76"/>
</g>
<!-- Node17 -->
<g id="node17" class="node">
<title>Node17</title>
<g id="a_node17"><a xlink:href="pyAstContext_8cpp.html" target="_top" xlink:title=" ">
<polygon fill="white" stroke="black" points="921,-323.5 921,-375.5 1057,-375.5 1057,-323.5 921,-323.5"/>
<text text-anchor="start" x="929" y="-363.5" font-family="Helvetica,sans-Serif" font-size="10.00">/home/jonathan/Works</text>
<text text-anchor="start" x="929" y="-352.5" font-family="Helvetica,sans-Serif" font-size="10.00">/Tools/Triton/src/libtriton</text>
<text text-anchor="start" x="929" y="-341.5" font-family="Helvetica,sans-Serif" font-size="10.00">/bindings/python/objects</text>
<text text-anchor="middle" x="989" y="-330.5" font-family="Helvetica,sans-Serif" font-size="10.00">/pyAstContext.cpp</text>
</a>
</g>
</g>
<!-- Node10&#45;&gt;Node17 -->
<g id="edge17" class="edge">
<title>Node10&#45;&gt;Node17</title>
<path fill="none" stroke="midnightblue" d="M877.73,-412.95C898.54,-401.28 923.38,-387.33 944.31,-375.58"/>
<polygon fill="midnightblue" stroke="midnightblue" points="875.79,-410.03 868.79,-417.98 879.22,-416.13 875.79,-410.03"/>
</g>
<!-- Node18 -->
<g id="node18" class="node">
<title>Node18</title>
<g id="a_node18"><a xlink:href="pyAstNode_8cpp.html" target="_top" xlink:title=" ">
<polygon fill="white" stroke="black" points="1075,-323.5 1075,-375.5 1211,-375.5 1211,-323.5 1075,-323.5"/>
<text text-anchor="start" x="1083" y="-363.5" font-family="Helvetica,sans-Serif" font-size="10.00">/home/jonathan/Works</text>
<text text-anchor="start" x="1083" y="-352.5" font-family="Helvetica,sans-Serif" font-size="10.00">/Tools/Triton/src/libtriton</text>
<text text-anchor="start" x="1083" y="-341.5" font-family="Helvetica,sans-Serif" font-size="10.00">/bindings/python/objects</text>
<text text-anchor="middle" x="1143" y="-330.5" font-family="Helvetica,sans-Serif" font-size="10.00">/pyAstNode.cpp</text>
</a>
</g>
</g>
<!-- Node10&#45;&gt;Node18 -->
<g id="edge18" class="edge">
<title>Node10&#45;&gt;Node18</title>
<path fill="none" stroke="midnightblue" d="M914.62,-415.32C918.8,-414.19 922.95,-413.08 927,-412 988.66,-395.56 1004.79,-394.04 1066,-376 1068.84,-375.16 1071.73,-374.29 1074.64,-373.4"/>
<polygon fill="midnightblue" stroke="midnightblue" points="913.55,-411.98 904.81,-417.97 915.37,-418.74 913.55,-411.98"/>
</g>
<!-- Node19 -->
<g id="node19" class="node">
<title>Node19</title>
<g id="a_node19"><a xlink:href="bitwuzlaSolver_8cpp.html" target="_top" xlink:title=" ">
<polygon fill="white" stroke="black" points="1229.5,-323.5 1229.5,-375.5 1364.5,-375.5 1364.5,-323.5 1229.5,-323.5"/>
<text text-anchor="start" x="1237.5" y="-363.5" font-family="Helvetica,sans-Serif" font-size="10.00">/home/jonathan/Works</text>
<text text-anchor="start" x="1237.5" y="-352.5" font-family="Helvetica,sans-Serif" font-size="10.00">/Tools/Triton/src/libtriton</text>
<text text-anchor="start" x="1237.5" y="-341.5" font-family="Helvetica,sans-Serif" font-size="10.00">/engines/solver/bitwuzla</text>
<text text-anchor="middle" x="1297" y="-330.5" font-family="Helvetica,sans-Serif" font-size="10.00">/bitwuzlaSolver.cpp</text>
</a>
</g>
</g>
<!-- Node10&#45;&gt;Node19 -->
<g id="edge19" class="edge">
<title>Node10&#45;&gt;Node19</title>
<path fill="none" stroke="midnightblue" d="M910.68,-415.54C916.18,-414.25 921.66,-413.05 927,-412 1055.72,-386.59 1091.99,-404.76 1220,-376 1223.02,-375.32 1226.09,-374.57 1229.18,-373.76"/>
<polygon fill="midnightblue" stroke="midnightblue" points="909.67,-412.18 900.78,-417.94 911.32,-418.98 909.67,-412.18"/>
</g>
<!-- Node20 -->
<g id="node20" class="node">
<title>Node20</title>
<g id="a_node20"><a xlink:href="z3Solver_8cpp.html" target="_top" xlink:title=" ">
<polygon fill="white" stroke="black" points="1383,-329 1383,-370 1553,-370 1553,-329 1383,-329"/>
<text text-anchor="start" x="1391" y="-358" font-family="Helvetica,sans-Serif" font-size="10.00">/home/jonathan/Works</text>
<text text-anchor="start" x="1391" y="-347" font-family="Helvetica,sans-Serif" font-size="10.00">/Tools/Triton/src/libtriton</text>
<text text-anchor="middle" x="1468" y="-336" font-family="Helvetica,sans-Serif" font-size="10.00">/engines/solver/z3/z3Solver.cpp</text>
</a>
</g>
</g>
<!-- Node10&#45;&gt;Node20 -->
<g id="edge20" class="edge">
<title>Node10&#45;&gt;Node20</title>
<path fill="none" stroke="midnightblue" d="M909.24,-415.59C915.22,-414.24 921.19,-413.02 927,-412 1123.3,-377.5 1177.65,-410.24 1374,-376 1383.16,-374.4 1392.73,-372.31 1402.1,-370.02"/>
<polygon fill="midnightblue" stroke="midnightblue" points="908.12,-412.26 899.19,-417.97 909.73,-419.07 908.12,-412.26"/>
</g>
<!-- Node21 -->
<g id="node21" class="node">
<title>Node21</title>
<g id="a_node21"><a xlink:href="pathManager_8cpp.html" target="_top" xlink:title=" ">
<polygon fill="white" stroke="black" points="1571,-329 1571,-370 1763,-370 1763,-329 1571,-329"/>
<text text-anchor="start" x="1579" y="-358" font-family="Helvetica,sans-Serif" font-size="10.00">/home/jonathan/Works</text>
<text text-anchor="start" x="1579" y="-347" font-family="Helvetica,sans-Serif" font-size="10.00">/Tools/Triton/src/libtriton</text>
<text text-anchor="middle" x="1667" y="-336" font-family="Helvetica,sans-Serif" font-size="10.00">/engines/symbolic/pathManager.cpp</text>
</a>
</g>
</g>
<!-- Node10&#45;&gt;Node21 -->
<g id="edge21" class="edge">
<title>Node10&#45;&gt;Node21</title>
<path fill="none" stroke="midnightblue" d="M908.27,-415.65C914.57,-414.25 920.87,-413 927,-412 1205.97,-366.37 1282.39,-417.53 1562,-376 1572.39,-374.46 1583.26,-372.37 1593.9,-370.05"/>
<polygon fill="midnightblue" stroke="midnightblue" points="907.34,-412.27 898.4,-417.96 908.94,-419.09 907.34,-412.27"/>
</g>
<!-- Node22 -->
<g id="node22" class="node">
<title>Node22</title>
<g id="a_node22"><a xlink:href="symbolicEngine_8cpp.html" target="_top" xlink:title=" ">
<polygon fill="white" stroke="black" points="1924,-245.5 1924,-286.5 2130,-286.5 2130,-245.5 1924,-245.5"/>
<text text-anchor="start" x="1932" y="-274.5" font-family="Helvetica,sans-Serif" font-size="10.00">/home/jonathan/Works</text>
<text text-anchor="start" x="1932" y="-263.5" font-family="Helvetica,sans-Serif" font-size="10.00">/Tools/Triton/src/libtriton</text>
<text text-anchor="middle" x="2027" y="-252.5" font-family="Helvetica,sans-Serif" font-size="10.00">/engines/symbolic/symbolicEngine.cpp</text>
</a>
</g>
</g>
<!-- Node10&#45;&gt;Node22 -->
<g id="edge22" class="edge">
<title>Node10&#45;&gt;Node22</title>
<path fill="none" stroke="midnightblue" d="M907.75,-415.61C914.22,-414.19 920.7,-412.96 927,-412 984.98,-403.19 1933.82,-409.44 1982,-376 2011.43,-355.57 2021.65,-312.14 2025.18,-286.7"/>
<polygon fill="midnightblue" stroke="midnightblue" points="906.57,-412.29 897.61,-417.95 908.15,-419.11 906.57,-412.29"/>
</g>
<!-- Node23 -->
<g id="node23" class="node">
<title>Node23</title>
<g id="a_node23"><a xlink:href="liftingEngine_8hpp.html" target="_top" xlink:title=" ">
<polygon fill="white" stroke="black" points="752,-167.5 752,-208.5 926,-208.5 926,-167.5 752,-167.5"/>
<text text-anchor="start" x="760" y="-196.5" font-family="Helvetica,sans-Serif" font-size="10.00">/home/jonathan/Works</text>
<text text-anchor="start" x="760" y="-185.5" font-family="Helvetica,sans-Serif" font-size="10.00">/Tools/Triton/src/libtriton</text>
<text text-anchor="middle" x="839" y="-174.5" font-family="Helvetica,sans-Serif" font-size="10.00">/includes/triton/liftingEngine.hpp</text>
</a>
</g>
</g>
<!-- Node10&#45;&gt;Node23 -->
<g id="edge25" class="edge">
<title>Node10&#45;&gt;Node23</title>
<path fill="none" stroke="midnightblue" d="M740.32,-425.86C679.72,-416.19 608.76,-400.07 590,-376 575.52,-357.42 576.25,-342.13 590,-323 619.28,-282.25 652.14,-309.47 697,-287 741.46,-264.73 787.97,-230.14 815.17,-208.56"/>
<polygon fill="midnightblue" stroke="midnightblue" points="739.92,-429.34 750.33,-427.42 740.99,-422.42 739.92,-429.34"/>
</g>
<!-- Node24 -->
<g id="node24" class="node">
<title>Node24</title>
<g id="a_node24"><a xlink:href="liftingToPython_8hpp.html" target="_top" xlink:title=" ">
<polygon fill="white" stroke="black" points="315.5,-245.5 315.5,-286.5 500.5,-286.5 500.5,-245.5 315.5,-245.5"/>
<text text-anchor="start" x="323.5" y="-274.5" font-family="Helvetica,sans-Serif" font-size="10.00">/home/jonathan/Works</text>
<text text-anchor="start" x="323.5" y="-263.5" font-family="Helvetica,sans-Serif" font-size="10.00">/Tools/Triton/src/libtriton</text>
<text text-anchor="middle" x="408" y="-252.5" font-family="Helvetica,sans-Serif" font-size="10.00">/includes/triton/liftingToPython.hpp</text>
</a>
</g>
</g>
<!-- Node10&#45;&gt;Node24 -->
<g id="edge27" class="edge">
<title>Node10&#45;&gt;Node24</title>
<path fill="none" stroke="midnightblue" d="M740.13,-433.17C675.16,-426.9 588.42,-411.85 520,-376 478.18,-354.09 441.47,-311.61 422.24,-286.64"/>
<polygon fill="midnightblue" stroke="midnightblue" points="740.09,-436.68 750.37,-434.1 740.72,-429.71 740.09,-436.68"/>
</g>
<!-- Node26 -->
<g id="node26" class="node">
<title>Node26</title>
<g id="a_node26"><a xlink:href="liftingToSMT_8hpp.html" target="_top" xlink:title=" ">
<polygon fill="white" stroke="black" points="923,-245.5 923,-286.5 1095,-286.5 1095,-245.5 923,-245.5"/>
<text text-anchor="start" x="931" y="-274.5" font-family="Helvetica,sans-Serif" font-size="10.00">/home/jonathan/Works</text>
<text text-anchor="start" x="931" y="-263.5" font-family="Helvetica,sans-Serif" font-size="10.00">/Tools/Triton/src/libtriton</text>
<text text-anchor="middle" x="1009" y="-252.5" font-family="Helvetica,sans-Serif" font-size="10.00">/includes/triton/liftingToSMT.hpp</text>
</a>
</g>
</g>
<!-- Node10&#45;&gt;Node26 -->
<g id="edge30" class="edge">
<title>Node10&#45;&gt;Node26</title>
<path fill="none" stroke="midnightblue" d="M740.5,-423.97C685.22,-413.85 622.82,-397.95 606,-376 591.68,-357.3 590.53,-340.77 606,-323 626.5,-299.46 810.8,-281.73 922.94,-273.01"/>
<polygon fill="midnightblue" stroke="midnightblue" points="739.91,-427.42 750.37,-425.73 741.14,-420.53 739.91,-427.42"/>
</g>
<!-- Node28 -->
<g id="node28" class="node">
<title>Node28</title>
<g id="a_node28"><a xlink:href="symbolicEngine_8hpp.html" target="_top" xlink:title=" ">
<polygon fill="white" stroke="black" points="1781.5,-329 1781.5,-370 1972.5,-370 1972.5,-329 1781.5,-329"/>
<text text-anchor="start" x="1789.5" y="-358" font-family="Helvetica,sans-Serif" font-size="10.00">/home/jonathan/Works</text>
<text text-anchor="start" x="1789.5" y="-347" font-family="Helvetica,sans-Serif" font-size="10.00">/Tools/Triton/src/libtriton</text>
<text text-anchor="middle" x="1877" y="-336" font-family="Helvetica,sans-Serif" font-size="10.00">/includes/triton/symbolicEngine.hpp</text>
</a>
</g>
</g>
<!-- Node10&#45;&gt;Node28 -->
<g id="edge33" class="edge">
<title>Node10&#45;&gt;Node28</title>
<path fill="none" stroke="midnightblue" d="M907.92,-415.63C914.34,-414.22 920.76,-412.98 927,-412 1298.38,-353.93 1399.8,-428.61 1772,-376 1782.59,-374.5 1793.67,-372.41 1804.49,-370.06"/>
<polygon fill="midnightblue" stroke="midnightblue" points="906.82,-412.29 897.88,-417.96 908.41,-419.11 906.82,-412.29"/>
</g>
<!-- Node32 -->
<g id="node32" class="node">
<title>Node32</title>
<g id="a_node32"><a xlink:href="synthesizer_8hpp.html" target="_top" xlink:title=" ">
<polygon fill="white" stroke="black" points="518.5,-245.5 518.5,-286.5 687.5,-286.5 687.5,-245.5 518.5,-245.5"/>
<text text-anchor="start" x="526.5" y="-274.5" font-family="Helvetica,sans-Serif" font-size="10.00">/home/jonathan/Works</text>
<text text-anchor="start" x="526.5" y="-263.5" font-family="Helvetica,sans-Serif" font-size="10.00">/Tools/Triton/src/libtriton</text>
<text text-anchor="middle" x="603" y="-252.5" font-family="Helvetica,sans-Serif" font-size="10.00">/includes/triton/synthesizer.hpp</text>
</a>
</g>
</g>
<!-- Node10&#45;&gt;Node32 -->
<g id="edge61" class="edge">
<title>Node10&#45;&gt;Node32</title>
<path fill="none" stroke="midnightblue" d="M740.06,-430.97C662.01,-423.35 559.73,-407.54 534,-376 519.11,-357.75 523.87,-344.27 534,-323 541.1,-308.1 554.32,-295.87 567.3,-286.68"/>
<polygon fill="midnightblue" stroke="midnightblue" points="740.14,-434.49 750.42,-431.94 740.79,-427.52 740.14,-434.49"/>
</g>
<!-- Node23&#45;&gt;Node6 -->
<g id="edge26" class="edge">
<title>Node23&#45;&gt;Node6</title>
<path fill="none" stroke="midnightblue" d="M839,-157.3C839,-148.3 839,-138.65 839,-130.51"/>
<polygon fill="midnightblue" stroke="midnightblue" points="835.5,-157.43 839,-167.43 842.5,-157.43 835.5,-157.43"/>
</g>
<!-- Node24&#45;&gt;Node23 -->
<g id="edge29" class="edge">
<title>Node24&#45;&gt;Node23</title>
<path fill="none" stroke="midnightblue" d="M510.46,-244.94C598.66,-228.86 687.98,-213.79 751.96,-203.21"/>
<polygon fill="midnightblue" stroke="midnightblue" points="509.75,-241.51 500.55,-246.75 511.01,-248.39 509.75,-241.51"/>
</g>
<!-- Node25 -->
<g id="node25" class="node">
<title>Node25</title>
<g id="a_node25"><a xlink:href="liftingToPython_8cpp.html" target="_top" xlink:title=" ">
<polygon fill="white" stroke="black" points="308,-167.5 308,-208.5 492,-208.5 492,-167.5 308,-167.5"/>
<text text-anchor="start" x="316" y="-196.5" font-family="Helvetica,sans-Serif" font-size="10.00">/home/jonathan/Works</text>
<text text-anchor="start" x="316" y="-185.5" font-family="Helvetica,sans-Serif" font-size="10.00">/Tools/Triton/src/libtriton</text>
<text text-anchor="middle" x="400" y="-174.5" font-family="Helvetica,sans-Serif" font-size="10.00">/engines/lifters/liftingToPython.cpp</text>
</a>
</g>
</g>
<!-- Node24&#45;&gt;Node25 -->
<g id="edge28" class="edge">
<title>Node24&#45;&gt;Node25</title>
<path fill="none" stroke="midnightblue" d="M404.87,-235.3C403.93,-226.3 402.91,-216.65 402.05,-208.51"/>
<polygon fill="midnightblue" stroke="midnightblue" points="401.41,-235.85 405.94,-245.43 408.37,-235.12 401.41,-235.85"/>
</g>
<!-- Node26&#45;&gt;Node23 -->
<g id="edge32" class="edge">
<title>Node26&#45;&gt;Node23</title>
<path fill="none" stroke="midnightblue" d="M956.05,-241.33C932.46,-230.78 905.02,-218.51 882.63,-208.51"/>
<polygon fill="midnightblue" stroke="midnightblue" points="954.66,-244.54 965.22,-245.43 957.52,-238.15 954.66,-244.54"/>
</g>
<!-- Node27 -->
<g id="node27" class="node">
<title>Node27</title>
<g id="a_node27"><a xlink:href="liftingToSMT_8cpp.html" target="_top" xlink:title=" ">
<polygon fill="white" stroke="black" points="944,-167.5 944,-208.5 1114,-208.5 1114,-167.5 944,-167.5"/>
<text text-anchor="start" x="952" y="-196.5" font-family="Helvetica,sans-Serif" font-size="10.00">/home/jonathan/Works</text>
<text text-anchor="start" x="952" y="-185.5" font-family="Helvetica,sans-Serif" font-size="10.00">/Tools/Triton/src/libtriton</text>
<text text-anchor="middle" x="1029" y="-174.5" font-family="Helvetica,sans-Serif" font-size="10.00">/engines/lifters/liftingToSMT.cpp</text>
</a>
</g>
</g>
<!-- Node26&#45;&gt;Node27 -->
<g id="edge31" class="edge">
<title>Node26&#45;&gt;Node27</title>
<path fill="none" stroke="midnightblue" d="M1016.74,-235.59C1019.13,-226.51 1021.7,-216.74 1023.87,-208.51"/>
<polygon fill="midnightblue" stroke="midnightblue" points="1013.31,-234.87 1014.15,-245.43 1020.08,-236.65 1013.31,-234.87"/>
</g>
<!-- Node28&#45;&gt;Node6 -->
<g id="edge38" class="edge">
<title>Node28&#45;&gt;Node6</title>
<path fill="none" stroke="midnightblue" d="M1791.97,-326.84C1785.24,-325.43 1778.52,-324.13 1772,-323 1620.96,-296.85 1579.48,-316.16 1429,-287 1305.12,-262.99 1260.75,-279.37 1156,-209 1136.29,-195.76 1143.24,-179.4 1123,-167 1056.58,-126.3 966.48,-114.36 905.72,-111.27"/>
<polygon fill="midnightblue" stroke="midnightblue" points="1791.32,-330.28 1801.83,-328.96 1792.8,-323.43 1791.32,-330.28"/>
</g>
<!-- Node28&#45;&gt;Node22 -->
<g id="edge34" class="edge">
<title>Node28&#45;&gt;Node22</title>
<path fill="none" stroke="midnightblue" d="M1921.82,-324.15C1943.96,-312.12 1970.31,-297.8 1991.1,-286.5"/>
<polygon fill="midnightblue" stroke="midnightblue" points="1920.04,-321.13 1912.93,-328.98 1923.39,-327.28 1920.04,-321.13"/>
</g>
<!-- Node28&#45;&gt;Node23 -->
<g id="edge45" class="edge">
<title>Node28&#45;&gt;Node23</title>
<path fill="none" stroke="midnightblue" d="M1794.75,-326.91C1787.09,-325.39 1779.43,-324.05 1772,-323 1677.52,-309.68 998.65,-331.04 914,-287 881.5,-270.09 858.95,-232.05 847.57,-208.64"/>
<polygon fill="midnightblue" stroke="midnightblue" points="1794.27,-330.38 1804.78,-329 1795.7,-323.53 1794.27,-330.38"/>
</g>
<!-- Node28&#45;&gt;Node24 -->
<g id="edge46" class="edge">
<title>Node28&#45;&gt;Node24</title>
<path fill="none" stroke="midnightblue" d="M1795.42,-326.93C1787.55,-325.38 1779.65,-324.03 1772,-323 1215.87,-248.38 1067.66,-349.2 510,-287 506.95,-286.66 503.86,-286.28 500.74,-285.86"/>
<polygon fill="midnightblue" stroke="midnightblue" points="1794.86,-330.39 1805.36,-328.99 1796.28,-323.54 1794.86,-330.39"/>
</g>
<!-- Node28&#45;&gt;Node26 -->
<g id="edge47" class="edge">
<title>Node28&#45;&gt;Node26</title>
<path fill="none" stroke="midnightblue" d="M1793.88,-326.85C1786.51,-325.37 1779.14,-324.06 1772,-323 1488.42,-281 1412.9,-318.81 1128,-287 1117.38,-285.81 1106.27,-284.31 1095.29,-282.65"/>
<polygon fill="midnightblue" stroke="midnightblue" points="1793.4,-330.32 1803.9,-328.95 1794.83,-323.47 1793.4,-330.32"/>
</g>
<!-- Node29 -->
<g id="node29" class="node">
<title>Node29</title>
<g id="a_node29"><a xlink:href="aarch64Semantics_8hpp.html" target="_top" xlink:title=" ">
<polygon fill="white" stroke="black" points="1773.5,-167.5 1773.5,-208.5 1976.5,-208.5 1976.5,-167.5 1773.5,-167.5"/>
<text text-anchor="start" x="1781.5" y="-196.5" font-family="Helvetica,sans-Serif" font-size="10.00">/home/jonathan/Works</text>
<text text-anchor="start" x="1781.5" y="-185.5" font-family="Helvetica,sans-Serif" font-size="10.00">/Tools/Triton/src/libtriton</text>
<text text-anchor="middle" x="1875" y="-174.5" font-family="Helvetica,sans-Serif" font-size="10.00">/includes/triton/aarch64Semantics.hpp</text>
</a>
</g>
</g>
<!-- Node28&#45;&gt;Node29 -->
<g id="edge35" class="edge">
<title>Node28&#45;&gt;Node29</title>
<path fill="none" stroke="midnightblue" d="M1876.63,-318.8C1876.22,-286.66 1875.59,-236.31 1875.25,-208.72"/>
<polygon fill="midnightblue" stroke="midnightblue" points="1873.13,-318.99 1876.75,-328.94 1880.13,-318.9 1873.13,-318.99"/>
</g>
<!-- Node30 -->
<g id="node30" class="node">
<title>Node30</title>
<g id="a_node30"><a xlink:href="arm32Semantics_8hpp.html" target="_top" xlink:title=" ">
<polygon fill="white" stroke="black" points="1560,-167.5 1560,-208.5 1756,-208.5 1756,-167.5 1560,-167.5"/>
<text text-anchor="start" x="1568" y="-196.5" font-family="Helvetica,sans-Serif" font-size="10.00">/home/jonathan/Works</text>
<text text-anchor="start" x="1568" y="-185.5" font-family="Helvetica,sans-Serif" font-size="10.00">/Tools/Triton/src/libtriton</text>
<text text-anchor="middle" x="1658" y="-174.5" font-family="Helvetica,sans-Serif" font-size="10.00">/includes/triton/arm32Semantics.hpp</text>
</a>
</g>
</g>
<!-- Node28&#45;&gt;Node30 -->
<g id="edge39" class="edge">
<title>Node28&#45;&gt;Node30</title>
<path fill="none" stroke="midnightblue" d="M1847.66,-322.01C1822.96,-300.25 1786.28,-269.18 1752,-245 1733.53,-231.97 1711.92,-218.95 1694.08,-208.75"/>
<polygon fill="midnightblue" stroke="midnightblue" points="1845.44,-324.71 1855.24,-328.72 1850.08,-319.47 1845.44,-324.71"/>
</g>
<!-- Node31 -->
<g id="node31" class="node">
<title>Node31</title>
<g id="a_node31"><a xlink:href="irBuilder_8hpp.html" target="_top" xlink:title=" ">
<polygon fill="white" stroke="black" points="1208,-167.5 1208,-208.5 1362,-208.5 1362,-167.5 1208,-167.5"/>
<text text-anchor="start" x="1216" y="-196.5" font-family="Helvetica,sans-Serif" font-size="10.00">/home/jonathan/Works</text>
<text text-anchor="start" x="1216" y="-185.5" font-family="Helvetica,sans-Serif" font-size="10.00">/Tools/Triton/src/libtriton</text>
<text text-anchor="middle" x="1285" y="-174.5" font-family="Helvetica,sans-Serif" font-size="10.00">/includes/triton/irBuilder.hpp</text>
</a>
</g>
</g>
<!-- Node28&#45;&gt;Node31 -->
<g id="edge42" class="edge">
<title>Node28&#45;&gt;Node31</title>
<path fill="none" stroke="midnightblue" d="M1789.3,-326.75C1783.45,-325.44 1777.65,-324.18 1772,-323 1680.58,-303.97 1655.37,-310.5 1565,-287 1482.01,-265.42 1388.53,-230.45 1333.31,-208.65"/>
<polygon fill="midnightblue" stroke="midnightblue" points="1788.62,-330.18 1799.15,-328.99 1790.17,-323.36 1788.62,-330.18"/>
</g>
<!-- Node28&#45;&gt;Node32 -->
<g id="edge48" class="edge">
<title>Node28&#45;&gt;Node32</title>
<path fill="none" stroke="midnightblue" d="M1794.75,-326.88C1787.1,-325.37 1779.43,-324.04 1772,-323 1363.2,-266.01 1255.99,-312.07 844,-287 792.04,-283.84 733.87,-279.05 687.7,-274.95"/>
<polygon fill="midnightblue" stroke="midnightblue" points="1794.28,-330.36 1804.78,-328.97 1795.7,-323.51 1794.28,-330.36"/>
</g>
<!-- Node34 -->
<g id="node34" class="node">
<title>Node34</title>
<g id="a_node34"><a xlink:href="taintEngine_8hpp.html" target="_top" xlink:title=" ">
<polygon fill="white" stroke="black" points="1573.5,-245.5 1573.5,-286.5 1742.5,-286.5 1742.5,-245.5 1573.5,-245.5"/>
<text text-anchor="start" x="1581.5" y="-274.5" font-family="Helvetica,sans-Serif" font-size="10.00">/home/jonathan/Works</text>
<text text-anchor="start" x="1581.5" y="-263.5" font-family="Helvetica,sans-Serif" font-size="10.00">/Tools/Triton/src/libtriton</text>
<text text-anchor="middle" x="1658" y="-252.5" font-family="Helvetica,sans-Serif" font-size="10.00">/includes/triton/taintEngine.hpp</text>
</a>
</g>
</g>
<!-- Node28&#45;&gt;Node34 -->
<g id="edge51" class="edge">
<title>Node28&#45;&gt;Node34</title>
<path fill="none" stroke="midnightblue" d="M1814.99,-325.42C1781.99,-313.14 1741.84,-298.2 1710.41,-286.5"/>
<polygon fill="midnightblue" stroke="midnightblue" points="1813.95,-328.77 1824.54,-328.98 1816.39,-322.21 1813.95,-328.77"/>
</g>
<!-- Node36 -->
<g id="node36" class="node">
<title>Node36</title>
<g id="a_node36"><a xlink:href="x86Semantics_8hpp.html" target="_top" xlink:title=" ">
<polygon fill="white" stroke="black" points="1995,-167.5 1995,-208.5 2177,-208.5 2177,-167.5 1995,-167.5"/>
<text text-anchor="start" x="2003" y="-196.5" font-family="Helvetica,sans-Serif" font-size="10.00">/home/jonathan/Works</text>
<text text-anchor="start" x="2003" y="-185.5" font-family="Helvetica,sans-Serif" font-size="10.00">/Tools/Triton/src/libtriton</text>
<text text-anchor="middle" x="2086" y="-174.5" font-family="Helvetica,sans-Serif" font-size="10.00">/includes/triton/x86Semantics.hpp</text>
</a>
</g>
</g>
<!-- Node28&#45;&gt;Node36 -->
<g id="edge60" class="edge">
<title>Node28&#45;&gt;Node36</title>
<path fill="none" stroke="midnightblue" d="M1880.75,-319.01C1885.18,-295.95 1894.7,-264.6 1915,-245 1928.49,-231.98 1966.9,-218.86 2003.91,-208.6"/>
<polygon fill="midnightblue" stroke="midnightblue" points="1877.29,-318.51 1879.06,-328.96 1884.19,-319.69 1877.29,-318.51"/>
</g>
<!-- Node29&#45;&gt;Node11 -->
<g id="edge36" class="edge">
<title>Node29&#45;&gt;Node11</title>
<path fill="none" stroke="midnightblue" d="M1946.67,-164.3C1980.64,-153.55 2020.82,-140.82 2053.4,-130.51"/>
<polygon fill="midnightblue" stroke="midnightblue" points="1945.28,-161.07 1936.81,-167.43 1947.4,-167.75 1945.28,-161.07"/>
</g>
<!-- Node29&#45;&gt;Node13 -->
<g id="edge37" class="edge">
<title>Node29&#45;&gt;Node13</title>
<path fill="none" stroke="midnightblue" d="M1820.49,-163.33C1796.21,-152.78 1767.96,-140.51 1744.91,-130.51"/>
<polygon fill="midnightblue" stroke="midnightblue" points="1819.37,-166.65 1829.93,-167.43 1822.15,-160.23 1819.37,-166.65"/>
</g>
<!-- Node30&#45;&gt;Node12 -->
<g id="edge40" class="edge">
<title>Node30&#45;&gt;Node12</title>
<path fill="none" stroke="midnightblue" d="M1726.5,-164.17C1758.69,-153.44 1796.66,-140.78 1827.48,-130.51"/>
<polygon fill="midnightblue" stroke="midnightblue" points="1725.1,-160.95 1716.72,-167.43 1727.31,-167.59 1725.1,-160.95"/>
</g>
<!-- Node30&#45;&gt;Node13 -->
<g id="edge41" class="edge">
<title>Node30&#45;&gt;Node13</title>
<path fill="none" stroke="midnightblue" d="M1673.77,-158.47C1678.92,-149.14 1684.52,-139.01 1689.22,-130.51"/>
<polygon fill="midnightblue" stroke="midnightblue" points="1670.59,-156.98 1668.82,-167.43 1676.72,-160.37 1670.59,-156.98"/>
</g>
<!-- Node31&#45;&gt;Node6 -->
<g id="edge44" class="edge">
<title>Node31&#45;&gt;Node6</title>
<path fill="none" stroke="midnightblue" d="M1197.78,-167.72C1196.51,-167.48 1195.25,-167.24 1194,-167 1093.91,-148.12 977.11,-130.55 905.61,-120.29"/>
<polygon fill="midnightblue" stroke="midnightblue" points="1197.13,-171.16 1207.62,-169.66 1198.49,-164.29 1197.13,-171.16"/>
</g>
<!-- Node31&#45;&gt;Node13 -->
<g id="edge43" class="edge">
<title>Node31&#45;&gt;Node13</title>
<path fill="none" stroke="midnightblue" d="M1372.2,-166.81C1468.4,-147.66 1568.9,-131.23 1633.3,-121.15"/>
<polygon fill="midnightblue" stroke="midnightblue" points="1371.43,-163.4 1362.31,-168.79 1372.8,-170.26 1371.43,-163.4"/>
</g>
<!-- Node32&#45;&gt;Node6 -->
<g id="edge50" class="edge">
<title>Node32&#45;&gt;Node6</title>
<path fill="none" stroke="midnightblue" d="M655.02,-240.74C671.72,-231.85 689.82,-220.99 705,-209 724.75,-193.39 723.45,-182.86 743,-167 760.23,-153.02 781.35,-140.3 799.39,-130.53"/>
<polygon fill="midnightblue" stroke="midnightblue" points="653.17,-237.76 645.91,-245.48 656.39,-243.97 653.17,-237.76"/>
</g>
<!-- Node33 -->
<g id="node33" class="node">
<title>Node33</title>
<g id="a_node33"><a xlink:href="synthesizer_8cpp.html" target="_top" xlink:title=" ">
<polygon fill="white" stroke="black" points="510,-167.5 510,-208.5 696,-208.5 696,-167.5 510,-167.5"/>
<text text-anchor="start" x="518" y="-196.5" font-family="Helvetica,sans-Serif" font-size="10.00">/home/jonathan/Works</text>
<text text-anchor="start" x="518" y="-185.5" font-family="Helvetica,sans-Serif" font-size="10.00">/Tools/Triton/src/libtriton</text>
<text text-anchor="middle" x="603" y="-174.5" font-family="Helvetica,sans-Serif" font-size="10.00">/engines/synthesis/synthesizer.cpp</text>
</a>
</g>
</g>
<!-- Node32&#45;&gt;Node33 -->
<g id="edge49" class="edge">
<title>Node32&#45;&gt;Node33</title>
<path fill="none" stroke="midnightblue" d="M603,-235.3C603,-226.3 603,-216.65 603,-208.51"/>
<polygon fill="midnightblue" stroke="midnightblue" points="599.5,-235.43 603,-245.43 606.5,-235.43 599.5,-235.43"/>
</g>
<!-- Node34&#45;&gt;Node6 -->
<g id="edge54" class="edge">
<title>Node34&#45;&gt;Node6</title>
<path fill="none" stroke="midnightblue" d="M1562.88,-260.55C1447.69,-253.94 1261.35,-238.93 1199,-209 1174.92,-197.44 1179.77,-179.2 1156,-167 1076.45,-126.17 972.51,-114.5 905.74,-111.49"/>
<polygon fill="midnightblue" stroke="midnightblue" points="1562.93,-264.06 1573.11,-261.13 1563.32,-257.07 1562.93,-264.06"/>
</g>
<!-- Node34&#45;&gt;Node29 -->
<g id="edge53" class="edge">
<title>Node34&#45;&gt;Node29</title>
<path fill="none" stroke="midnightblue" d="M1723.6,-242.03C1754.14,-231.33 1790.1,-218.73 1819.31,-208.51"/>
<polygon fill="midnightblue" stroke="midnightblue" points="1722.16,-238.82 1713.88,-245.43 1724.48,-245.43 1722.16,-238.82"/>
</g>
<!-- Node34&#45;&gt;Node30 -->
<g id="edge55" class="edge">
<title>Node34&#45;&gt;Node30</title>
<path fill="none" stroke="midnightblue" d="M1658,-235.3C1658,-226.3 1658,-216.65 1658,-208.51"/>
<polygon fill="midnightblue" stroke="midnightblue" points="1654.5,-235.43 1658,-245.43 1661.5,-235.43 1654.5,-235.43"/>
</g>
<!-- Node34&#45;&gt;Node31 -->
<g id="edge56" class="edge">
<title>Node34&#45;&gt;Node31</title>
<path fill="none" stroke="midnightblue" d="M1563.47,-247.44C1507.42,-236.8 1435.04,-222.69 1371,-209 1368.15,-208.39 1365.25,-207.76 1362.33,-207.12"/>
<polygon fill="midnightblue" stroke="midnightblue" points="1562.91,-250.89 1573.38,-249.31 1564.21,-244.01 1562.91,-250.89"/>
</g>
<!-- Node35 -->
<g id="node35" class="node">
<title>Node35</title>
<g id="a_node35"><a xlink:href="taintEngine_8cpp.html" target="_top" xlink:title=" ">
<polygon fill="white" stroke="black" points="1380,-167.5 1380,-208.5 1542,-208.5 1542,-167.5 1380,-167.5"/>
<text text-anchor="start" x="1388" y="-196.5" font-family="Helvetica,sans-Serif" font-size="10.00">/home/jonathan/Works</text>
<text text-anchor="start" x="1388" y="-185.5" font-family="Helvetica,sans-Serif" font-size="10.00">/Tools/Triton/src/libtriton</text>
<text text-anchor="middle" x="1461" y="-174.5" font-family="Helvetica,sans-Serif" font-size="10.00">/engines/taint/taintEngine.cpp</text>
</a>
</g>
</g>
<!-- Node34&#45;&gt;Node35 -->
<g id="edge52" class="edge">
<title>Node34&#45;&gt;Node35</title>
<path fill="none" stroke="midnightblue" d="M1597.73,-241.75C1570.15,-231.11 1537.84,-218.65 1511.56,-208.51"/>
<polygon fill="midnightblue" stroke="midnightblue" points="1596.68,-245.09 1607.27,-245.43 1599.2,-238.56 1596.68,-245.09"/>
</g>
<!-- Node34&#45;&gt;Node36 -->
<g id="edge57" class="edge">
<title>Node34&#45;&gt;Node36</title>
<path fill="none" stroke="midnightblue" d="M1752.63,-249.57C1818.22,-238.7 1907.52,-223.54 1986,-209 1988.87,-208.47 1991.79,-207.92 1994.73,-207.36"/>
<polygon fill="midnightblue" stroke="midnightblue" points="1752.02,-246.13 1742.72,-251.21 1753.16,-253.03 1752.02,-246.13"/>
</g>
<!-- Node36&#45;&gt;Node13 -->
<g id="edge58" class="edge">
<title>Node36&#45;&gt;Node13</title>
<path fill="none" stroke="midnightblue" d="M1984.84,-166.82C1891.2,-149.78 1865.47,-150.4 1776,-131 1772.93,-130.33 1769.8,-129.63 1766.65,-128.89"/>
<polygon fill="midnightblue" stroke="midnightblue" points="1984.27,-170.27 1994.73,-168.64 1985.53,-163.39 1984.27,-170.27"/>
</g>
<!-- Node36&#45;&gt;Node14 -->
<g id="edge59" class="edge">
<title>Node36&#45;&gt;Node14</title>
<path fill="none" stroke="midnightblue" d="M2155.58,-164.3C2188.56,-153.55 2227.57,-140.82 2259.2,-130.51"/>
<polygon fill="midnightblue" stroke="midnightblue" points="2154.42,-161 2146,-167.43 2156.6,-167.65 2154.42,-161"/>
</g>
</g>
</svg>
