<?xml version="1.0" encoding="UTF-8" standalone="no"?>
<!DOCTYPE svg PUBLIC "-//W3C//DTD SVG 1.1//EN"
 "http://www.w3.org/Graphics/SVG/1.1/DTD/svg11.dtd">
<!-- Generated by graphviz version 2.49.0 (20210828.1703)
 -->
<!-- Title: /home/jonathan/Works/Tools/Triton/src/libtriton/includes/triton/astRepresentationInterface.hpp Pages: 1 -->
<svg width="3288pt" height="562pt"
 viewBox="0.00 0.00 3288.00 562.00" xmlns="http://www.w3.org/2000/svg" xmlns:xlink="http://www.w3.org/1999/xlink">
<g id="graph0" class="graph" transform="scale(1 1) rotate(0) translate(4 558)">
<title>/home/jonathan/Works/Tools/Triton/src/libtriton/includes/triton/astRepresentationInterface.hpp</title>
<polygon fill="white" stroke="transparent" points="-4,4 -4,-558 3284,-558 3284,4 -4,4"/>
<!-- Node1 -->
<g id="node1" class="node">
<title>Node1</title>
<g id="a_node1"><a xlink:title=" ">
<polygon fill="#bfbfbf" stroke="black" points="2092.5,-501.5 2092.5,-553.5 2274.5,-553.5 2274.5,-501.5 2092.5,-501.5"/>
<text text-anchor="start" x="2100.5" y="-541.5" font-family="Helvetica,sans-Serif" font-size="10.00">/home/jonathan/Works</text>
<text text-anchor="start" x="2100.5" y="-530.5" font-family="Helvetica,sans-Serif" font-size="10.00">/Tools/Triton/src/libtriton</text>
<text text-anchor="start" x="2100.5" y="-519.5" font-family="Helvetica,sans-Serif" font-size="10.00">/includes/triton/astRepresentation</text>
<text text-anchor="middle" x="2183.5" y="-508.5" font-family="Helvetica,sans-Serif" font-size="10.00">Interface.hpp</text>
</a>
</g>
</g>
<!-- Node2 -->
<g id="node2" class="node">
<title>Node2</title>
<g id="a_node2"><a xlink:href="astPythonRepresentation_8hpp.html" target="_top" xlink:title=" ">
<polygon fill="white" stroke="black" points="1919.5,-423.5 1919.5,-464.5 2155.5,-464.5 2155.5,-423.5 1919.5,-423.5"/>
<text text-anchor="start" x="1927.5" y="-452.5" font-family="Helvetica,sans-Serif" font-size="10.00">/home/jonathan/Works</text>
<text text-anchor="start" x="1927.5" y="-441.5" font-family="Helvetica,sans-Serif" font-size="10.00">/Tools/Triton/src/libtriton</text>
<text text-anchor="middle" x="2037.5" y="-430.5" font-family="Helvetica,sans-Serif" font-size="10.00">/includes/triton/astPythonRepresentation.hpp</text>
</a>
</g>
</g>
<!-- Node1&#45;&gt;Node2 -->
<g id="edge1" class="edge">
<title>Node1&#45;&gt;Node2</title>
<path fill="none" stroke="midnightblue" d="M2129.66,-496.45C2110.7,-485.86 2089.89,-474.25 2072.85,-464.73"/>
<polygon fill="midnightblue" stroke="midnightblue" points="2128.07,-499.56 2138.5,-501.38 2131.48,-493.45 2128.07,-499.56"/>
</g>
<!-- Node4 -->
<g id="node4" class="node">
<title>Node4</title>
<g id="a_node4"><a xlink:href="astRepresentation_8hpp.html" target="_top" xlink:title=" ">
<polygon fill="white" stroke="black" points="2082,-345.5 2082,-386.5 2285,-386.5 2285,-345.5 2082,-345.5"/>
<text text-anchor="start" x="2090" y="-374.5" font-family="Helvetica,sans-Serif" font-size="10.00">/home/jonathan/Works</text>
<text text-anchor="start" x="2090" y="-363.5" font-family="Helvetica,sans-Serif" font-size="10.00">/Tools/Triton/src/libtriton</text>
<text text-anchor="middle" x="2183.5" y="-352.5" font-family="Helvetica,sans-Serif" font-size="10.00">/includes/triton/astRepresentation.hpp</text>
</a>
</g>
</g>
<!-- Node1&#45;&gt;Node4 -->
<g id="edge31" class="edge">
<title>Node1&#45;&gt;Node4</title>
<path fill="none" stroke="midnightblue" d="M2183.5,-490.9C2183.5,-458.73 2183.5,-412.56 2183.5,-386.62"/>
<polygon fill="midnightblue" stroke="midnightblue" points="2180,-491.23 2183.5,-501.23 2187,-491.23 2180,-491.23"/>
</g>
<!-- Node28 -->
<g id="node28" class="node">
<title>Node28</title>
<g id="a_node28"><a xlink:href="astSmtRepresentation_8hpp.html" target="_top" xlink:title=" ">
<polygon fill="white" stroke="black" points="2211.5,-423.5 2211.5,-464.5 2433.5,-464.5 2433.5,-423.5 2211.5,-423.5"/>
<text text-anchor="start" x="2219.5" y="-452.5" font-family="Helvetica,sans-Serif" font-size="10.00">/home/jonathan/Works</text>
<text text-anchor="start" x="2219.5" y="-441.5" font-family="Helvetica,sans-Serif" font-size="10.00">/Tools/Triton/src/libtriton</text>
<text text-anchor="middle" x="2322.5" y="-430.5" font-family="Helvetica,sans-Serif" font-size="10.00">/includes/triton/astSmtRepresentation.hpp</text>
</a>
</g>
</g>
<!-- Node1&#45;&gt;Node28 -->
<g id="edge32" class="edge">
<title>Node1&#45;&gt;Node28</title>
<path fill="none" stroke="midnightblue" d="M2235,-496.3C2252.99,-485.76 2272.69,-474.2 2288.84,-464.73"/>
<polygon fill="midnightblue" stroke="midnightblue" points="2233.19,-493.3 2226.34,-501.38 2236.74,-499.34 2233.19,-493.3"/>
</g>
<!-- Node3 -->
<g id="node3" class="node">
<title>Node3</title>
<g id="a_node3"><a xlink:href="astPythonRepresentation_8cpp.html" target="_top" xlink:title=" ">
<polygon fill="white" stroke="black" points="1803.5,-345.5 1803.5,-386.5 2063.5,-386.5 2063.5,-345.5 1803.5,-345.5"/>
<text text-anchor="start" x="1811.5" y="-374.5" font-family="Helvetica,sans-Serif" font-size="10.00">/home/jonathan/Works</text>
<text text-anchor="start" x="1811.5" y="-363.5" font-family="Helvetica,sans-Serif" font-size="10.00">/Tools/Triton/src/libtriton</text>
<text text-anchor="middle" x="1933.5" y="-352.5" font-family="Helvetica,sans-Serif" font-size="10.00">/ast/representations/astPythonRepresentation.cpp</text>
</a>
</g>
</g>
<!-- Node2&#45;&gt;Node3 -->
<g id="edge2" class="edge">
<title>Node2&#45;&gt;Node3</title>
<path fill="none" stroke="midnightblue" d="M2002.4,-417.35C1988.61,-407.27 1973.04,-395.89 1960.19,-386.51"/>
<polygon fill="midnightblue" stroke="midnightblue" points="2000.58,-420.35 2010.72,-423.43 2004.71,-414.7 2000.58,-420.35"/>
</g>
<!-- Node2&#45;&gt;Node4 -->
<g id="edge3" class="edge">
<title>Node2&#45;&gt;Node4</title>
<path fill="none" stroke="midnightblue" d="M2084.05,-418.77C2104.06,-408.35 2127.14,-396.34 2146.03,-386.51"/>
<polygon fill="midnightblue" stroke="midnightblue" points="2082.35,-415.71 2075.1,-423.43 2085.58,-421.92 2082.35,-415.71"/>
</g>
<!-- Node5 -->
<g id="node5" class="node">
<title>Node5</title>
<g id="a_node5"><a xlink:href="ast_8cpp.html" target="_top" xlink:title=" ">
<polygon fill="white" stroke="black" points="0,-173 0,-214 133,-214 133,-173 0,-173"/>
<text text-anchor="start" x="8" y="-202" font-family="Helvetica,sans-Serif" font-size="10.00">/home/jonathan/Works</text>
<text text-anchor="start" x="8" y="-191" font-family="Helvetica,sans-Serif" font-size="10.00">/Tools/Triton/src/libtriton</text>
<text text-anchor="middle" x="66.5" y="-180" font-family="Helvetica,sans-Serif" font-size="10.00">/ast/ast.cpp</text>
</a>
</g>
</g>
<!-- Node4&#45;&gt;Node5 -->
<g id="edge4" class="edge">
<title>Node4&#45;&gt;Node5</title>
<path fill="none" stroke="midnightblue" d="M2071.81,-345.03C1499.8,-286.77 1350.17,-356.38 781.5,-309 495.75,-285.19 421.62,-285.67 142.5,-220 135.46,-218.34 128.14,-216.31 120.95,-214.11"/>
<polygon fill="midnightblue" stroke="midnightblue" points="2071.66,-348.53 2081.96,-346.07 2072.37,-341.57 2071.66,-348.53"/>
</g>
<!-- Node6 -->
<g id="node6" class="node">
<title>Node6</title>
<g id="a_node6"><a xlink:href="astRepresentation_8cpp.html" target="_top" xlink:title=" ">
<polygon fill="white" stroke="black" points="2832,-262 2832,-303 3059,-303 3059,-262 2832,-262"/>
<text text-anchor="start" x="2840" y="-291" font-family="Helvetica,sans-Serif" font-size="10.00">/home/jonathan/Works</text>
<text text-anchor="start" x="2840" y="-280" font-family="Helvetica,sans-Serif" font-size="10.00">/Tools/Triton/src/libtriton</text>
<text text-anchor="middle" x="2945.5" y="-269" font-family="Helvetica,sans-Serif" font-size="10.00">/ast/representations/astRepresentation.cpp</text>
</a>
</g>
</g>
<!-- Node4&#45;&gt;Node6 -->
<g id="edge5" class="edge">
<title>Node4&#45;&gt;Node6</title>
<path fill="none" stroke="midnightblue" d="M2295.17,-345C2527.48,-316.95 2589.82,-339.39 2817.5,-309 2829.63,-307.38 2842.34,-305.31 2854.84,-303.05"/>
<polygon fill="midnightblue" stroke="midnightblue" points="2294.56,-341.55 2285.06,-346.24 2295.41,-348.5 2294.56,-341.55"/>
</g>
<!-- Node7 -->
<g id="node7" class="node">
<title>Node7</title>
<g id="a_node7"><a xlink:href="initAstRepresentationNamespace_8cpp.html" target="_top" xlink:title=" ">
<polygon fill="white" stroke="black" points="3077,-256.5 3077,-308.5 3280,-308.5 3280,-256.5 3077,-256.5"/>
<text text-anchor="start" x="3085" y="-296.5" font-family="Helvetica,sans-Serif" font-size="10.00">/home/jonathan/Works</text>
<text text-anchor="start" x="3085" y="-285.5" font-family="Helvetica,sans-Serif" font-size="10.00">/Tools/Triton/src/libtriton</text>
<text text-anchor="start" x="3085" y="-274.5" font-family="Helvetica,sans-Serif" font-size="10.00">/bindings/python/namespaces</text>
<text text-anchor="middle" x="3178.5" y="-263.5" font-family="Helvetica,sans-Serif" font-size="10.00">/initAstRepresentationNamespace.cpp</text>
</a>
</g>
</g>
<!-- Node4&#45;&gt;Node7 -->
<g id="edge6" class="edge">
<title>Node4&#45;&gt;Node7</title>
<path fill="none" stroke="midnightblue" d="M2295.02,-345.04C2638.45,-307.32 2730.61,-355.63 3068.5,-309 3071.22,-308.62 3073.97,-308.21 3076.74,-307.77"/>
<polygon fill="midnightblue" stroke="midnightblue" points="2294.6,-341.56 2285.04,-346.15 2295.37,-348.52 2294.6,-341.56"/>
</g>
<!-- Node8 -->
<g id="node8" class="node">
<title>Node8</title>
<g id="a_node8"><a xlink:href="symbolicExpression_8cpp.html" target="_top" xlink:title=" ">
<polygon fill="white" stroke="black" points="151.5,-173 151.5,-214 377.5,-214 377.5,-173 151.5,-173"/>
<text text-anchor="start" x="159.5" y="-202" font-family="Helvetica,sans-Serif" font-size="10.00">/home/jonathan/Works</text>
<text text-anchor="start" x="159.5" y="-191" font-family="Helvetica,sans-Serif" font-size="10.00">/Tools/Triton/src/libtriton</text>
<text text-anchor="middle" x="264.5" y="-180" font-family="Helvetica,sans-Serif" font-size="10.00">/engines/symbolic/symbolicExpression.cpp</text>
</a>
</g>
</g>
<!-- Node4&#45;&gt;Node8 -->
<g id="edge7" class="edge">
<title>Node4&#45;&gt;Node8</title>
<path fill="none" stroke="midnightblue" d="M2071.96,-345.02C1805.1,-313.57 1735.16,-327.71 1471.5,-309 1350.84,-300.44 506.21,-237.35 386.5,-220 375.04,-218.34 363.05,-216.26 351.24,-214.01"/>
<polygon fill="midnightblue" stroke="midnightblue" points="2071.61,-348.5 2081.95,-346.21 2072.43,-341.55 2071.61,-348.5"/>
</g>
<!-- Node9 -->
<g id="node9" class="node">
<title>Node9</title>
<g id="a_node9"><a xlink:href="api_8hpp.html" target="_top" xlink:title=" ">
<polygon fill="white" stroke="black" points="2699,-89.5 2699,-130.5 2832,-130.5 2832,-89.5 2699,-89.5"/>
<text text-anchor="start" x="2707" y="-118.5" font-family="Helvetica,sans-Serif" font-size="10.00">/home/jonathan/Works</text>
<text text-anchor="start" x="2707" y="-107.5" font-family="Helvetica,sans-Serif" font-size="10.00">/Tools/Triton/src/libtriton</text>
<text text-anchor="middle" x="2765.5" y="-96.5" font-family="Helvetica,sans-Serif" font-size="10.00">/includes/triton/api.hpp</text>
</a>
</g>
</g>
<!-- Node4&#45;&gt;Node9 -->
<g id="edge8" class="edge">
<title>Node4&#45;&gt;Node9</title>
<path fill="none" stroke="midnightblue" d="M2285.42,-343.27C2449.71,-307.77 2756.35,-239.34 2771.5,-220 2791.49,-194.49 2782.09,-154.42 2773.66,-130.63"/>
<polygon fill="midnightblue" stroke="midnightblue" points="2284.33,-339.93 2275.3,-345.46 2285.81,-346.77 2284.33,-339.93"/>
</g>
<!-- Node13 -->
<g id="node13" class="node">
<title>Node13</title>
<g id="a_node13"><a xlink:href="astContext_8hpp.html" target="_top" xlink:title=" ">
<polygon fill="white" stroke="black" points="1481,-262 1481,-303 1648,-303 1648,-262 1481,-262"/>
<text text-anchor="start" x="1489" y="-291" font-family="Helvetica,sans-Serif" font-size="10.00">/home/jonathan/Works</text>
<text text-anchor="start" x="1489" y="-280" font-family="Helvetica,sans-Serif" font-size="10.00">/Tools/Triton/src/libtriton</text>
<text text-anchor="middle" x="1564.5" y="-269" font-family="Helvetica,sans-Serif" font-size="10.00">/includes/triton/astContext.hpp</text>
</a>
</g>
</g>
<!-- Node4&#45;&gt;Node13 -->
<g id="edge12" class="edge">
<title>Node4&#45;&gt;Node13</title>
<path fill="none" stroke="midnightblue" d="M2071.69,-344.92C1916.13,-321.75 1747,-302.66 1648.3,-292.14"/>
<polygon fill="midnightblue" stroke="midnightblue" points="2071.51,-348.43 2081.92,-346.45 2072.54,-341.51 2071.51,-348.43"/>
</g>
<!-- Node10 -->
<g id="node10" class="node">
<title>Node10</title>
<g id="a_node10"><a xlink:href="api_8cpp.html" target="_top" xlink:title=" ">
<polygon fill="white" stroke="black" points="2546,-6 2546,-47 2679,-47 2679,-6 2546,-6"/>
<text text-anchor="start" x="2554" y="-35" font-family="Helvetica,sans-Serif" font-size="10.00">/home/jonathan/Works</text>
<text text-anchor="start" x="2554" y="-24" font-family="Helvetica,sans-Serif" font-size="10.00">/Tools/Triton/src/libtriton</text>
<text text-anchor="middle" x="2612.5" y="-13" font-family="Helvetica,sans-Serif" font-size="10.00">/api/api.cpp</text>
</a>
</g>
</g>
<!-- Node9&#45;&gt;Node10 -->
<g id="edge9" class="edge">
<title>Node9&#45;&gt;Node10</title>
<path fill="none" stroke="midnightblue" d="M2719.79,-84.65C2697.2,-72.62 2670.32,-58.3 2649.11,-47"/>
<polygon fill="midnightblue" stroke="midnightblue" points="2718.38,-87.87 2728.85,-89.48 2721.67,-81.69 2718.38,-87.87"/>
</g>
<!-- Node11 -->
<g id="node11" class="node">
<title>Node11</title>
<g id="a_node11"><a xlink:href="pyTritonContext_8cpp.html" target="_top" xlink:title=" ">
<polygon fill="white" stroke="black" points="2697.5,-0.5 2697.5,-52.5 2833.5,-52.5 2833.5,-0.5 2697.5,-0.5"/>
<text text-anchor="start" x="2705.5" y="-40.5" font-family="Helvetica,sans-Serif" font-size="10.00">/home/jonathan/Works</text>
<text text-anchor="start" x="2705.5" y="-29.5" font-family="Helvetica,sans-Serif" font-size="10.00">/Tools/Triton/src/libtriton</text>
<text text-anchor="start" x="2705.5" y="-18.5" font-family="Helvetica,sans-Serif" font-size="10.00">/bindings/python/objects</text>
<text text-anchor="middle" x="2765.5" y="-7.5" font-family="Helvetica,sans-Serif" font-size="10.00">/pyTritonContext.cpp</text>
</a>
</g>
</g>
<!-- Node9&#45;&gt;Node11 -->
<g id="edge10" class="edge">
<title>Node9&#45;&gt;Node11</title>
<path fill="none" stroke="midnightblue" d="M2765.5,-79.12C2765.5,-70.41 2765.5,-60.99 2765.5,-52.61"/>
<polygon fill="midnightblue" stroke="midnightblue" points="2762,-79.27 2765.5,-89.27 2769,-79.27 2762,-79.27"/>
</g>
<!-- Node12 -->
<g id="node12" class="node">
<title>Node12</title>
<g id="a_node12"><a xlink:href="callbacks_8cpp.html" target="_top" xlink:title=" ">
<polygon fill="white" stroke="black" points="2851.5,-6 2851.5,-47 2985.5,-47 2985.5,-6 2851.5,-6"/>
<text text-anchor="start" x="2859.5" y="-35" font-family="Helvetica,sans-Serif" font-size="10.00">/home/jonathan/Works</text>
<text text-anchor="start" x="2859.5" y="-24" font-family="Helvetica,sans-Serif" font-size="10.00">/Tools/Triton/src/libtriton</text>
<text text-anchor="middle" x="2918.5" y="-13" font-family="Helvetica,sans-Serif" font-size="10.00">/callbacks/callbacks.cpp</text>
</a>
</g>
</g>
<!-- Node9&#45;&gt;Node12 -->
<g id="edge11" class="edge">
<title>Node9&#45;&gt;Node12</title>
<path fill="none" stroke="midnightblue" d="M2811.21,-84.65C2833.8,-72.62 2860.68,-58.3 2881.89,-47"/>
<polygon fill="midnightblue" stroke="midnightblue" points="2809.33,-81.69 2802.15,-89.48 2812.62,-87.87 2809.33,-81.69"/>
</g>
<!-- Node13&#45;&gt;Node5 -->
<g id="edge17" class="edge">
<title>Node13&#45;&gt;Node5</title>
<path fill="none" stroke="midnightblue" d="M1470.53,-278.96C1174.34,-270.76 272.16,-244.06 142.5,-220 134.56,-218.53 126.32,-216.41 118.32,-214.02"/>
<polygon fill="midnightblue" stroke="midnightblue" points="1470.71,-282.47 1480.81,-279.25 1470.91,-275.47 1470.71,-282.47"/>
</g>
<!-- Node13&#45;&gt;Node8 -->
<g id="edge26" class="edge">
<title>Node13&#45;&gt;Node8</title>
<path fill="none" stroke="midnightblue" d="M1470.46,-278.46C1229.72,-270.38 595.47,-247.13 386.5,-220 374.48,-218.44 361.89,-216.34 349.54,-214.02"/>
<polygon fill="midnightblue" stroke="midnightblue" points="1470.48,-281.96 1480.59,-278.8 1470.71,-274.97 1470.48,-281.96"/>
</g>
<!-- Node13&#45;&gt;Node9 -->
<g id="edge27" class="edge">
<title>Node13&#45;&gt;Node9</title>
<path fill="none" stroke="midnightblue" d="M1658.28,-279.78C1930.81,-274.38 2705.98,-255.91 2746.5,-220 2771.52,-197.83 2771.3,-155.44 2768.6,-130.56"/>
<polygon fill="midnightblue" stroke="midnightblue" points="1657.95,-276.29 1648.02,-279.98 1658.09,-283.29 1657.95,-276.29"/>
</g>
<!-- Node14 -->
<g id="node14" class="node">
<title>Node14</title>
<g id="a_node14"><a xlink:href="aarch64Semantics_8cpp.html" target="_top" xlink:title=" ">
<polygon fill="white" stroke="black" points="1667.5,-173 1667.5,-214 1885.5,-214 1885.5,-173 1667.5,-173"/>
<text text-anchor="start" x="1675.5" y="-202" font-family="Helvetica,sans-Serif" font-size="10.00">/home/jonathan/Works</text>
<text text-anchor="start" x="1675.5" y="-191" font-family="Helvetica,sans-Serif" font-size="10.00">/Tools/Triton/src/libtriton</text>
<text text-anchor="middle" x="1776.5" y="-180" font-family="Helvetica,sans-Serif" font-size="10.00">/arch/arm/aarch64/aarch64Semantics.cpp</text>
</a>
</g>
</g>
<!-- Node13&#45;&gt;Node14 -->
<g id="edge13" class="edge">
<title>Node13&#45;&gt;Node14</title>
<path fill="none" stroke="midnightblue" d="M1621.73,-258.01C1655.22,-244.27 1697,-227.12 1728.72,-214.11"/>
<polygon fill="midnightblue" stroke="midnightblue" points="1620,-254.94 1612.08,-261.98 1622.66,-261.42 1620,-254.94"/>
</g>
<!-- Node15 -->
<g id="node15" class="node">
<title>Node15</title>
<g id="a_node15"><a xlink:href="arm32Semantics_8cpp.html" target="_top" xlink:title=" ">
<polygon fill="white" stroke="black" points="1904,-173 1904,-214 2107,-214 2107,-173 1904,-173"/>
<text text-anchor="start" x="1912" y="-202" font-family="Helvetica,sans-Serif" font-size="10.00">/home/jonathan/Works</text>
<text text-anchor="start" x="1912" y="-191" font-family="Helvetica,sans-Serif" font-size="10.00">/Tools/Triton/src/libtriton</text>
<text text-anchor="middle" x="2005.5" y="-180" font-family="Helvetica,sans-Serif" font-size="10.00">/arch/arm/arm32/arm32Semantics.cpp</text>
</a>
</g>
</g>
<!-- Node13&#45;&gt;Node15 -->
<g id="edge14" class="edge">
<title>Node13&#45;&gt;Node15</title>
<path fill="none" stroke="midnightblue" d="M1658.09,-265.13C1724.27,-253.29 1814.99,-236.53 1894.5,-220 1903.5,-218.13 1912.9,-216.09 1922.24,-214.02"/>
<polygon fill="midnightblue" stroke="midnightblue" points="1657.33,-261.71 1648.1,-266.91 1658.56,-268.6 1657.33,-261.71"/>
</g>
<!-- Node16 -->
<g id="node16" class="node">
<title>Node16</title>
<g id="a_node16"><a xlink:href="irBuilder_8cpp.html" target="_top" xlink:title=" ">
<polygon fill="white" stroke="black" points="2125,-173 2125,-214 2258,-214 2258,-173 2125,-173"/>
<text text-anchor="start" x="2133" y="-202" font-family="Helvetica,sans-Serif" font-size="10.00">/home/jonathan/Works</text>
<text text-anchor="start" x="2133" y="-191" font-family="Helvetica,sans-Serif" font-size="10.00">/Tools/Triton/src/libtriton</text>
<text text-anchor="middle" x="2191.5" y="-180" font-family="Helvetica,sans-Serif" font-size="10.00">/arch/irBuilder.cpp</text>
</a>
</g>
</g>
<!-- Node13&#45;&gt;Node16 -->
<g id="edge15" class="edge">
<title>Node13&#45;&gt;Node16</title>
<path fill="none" stroke="midnightblue" d="M1658.12,-277.12C1768.55,-270.56 1957.14,-254.99 2115.5,-220 2122.84,-218.38 2130.46,-216.31 2137.93,-214.05"/>
<polygon fill="midnightblue" stroke="midnightblue" points="1657.79,-273.63 1648.01,-277.71 1658.2,-280.62 1657.79,-273.63"/>
</g>
<!-- Node17 -->
<g id="node17" class="node">
<title>Node17</title>
<g id="a_node17"><a xlink:href="x86Semantics_8cpp.html" target="_top" xlink:title=" ">
<polygon fill="white" stroke="black" points="2276.5,-173 2276.5,-214 2430.5,-214 2430.5,-173 2276.5,-173"/>
<text text-anchor="start" x="2284.5" y="-202" font-family="Helvetica,sans-Serif" font-size="10.00">/home/jonathan/Works</text>
<text text-anchor="start" x="2284.5" y="-191" font-family="Helvetica,sans-Serif" font-size="10.00">/Tools/Triton/src/libtriton</text>
<text text-anchor="middle" x="2353.5" y="-180" font-family="Helvetica,sans-Serif" font-size="10.00">/arch/x86/x86Semantics.cpp</text>
</a>
</g>
</g>
<!-- Node13&#45;&gt;Node17 -->
<g id="edge16" class="edge">
<title>Node13&#45;&gt;Node17</title>
<path fill="none" stroke="midnightblue" d="M1658.5,-279.16C1793.94,-274.46 2051.34,-260.54 2266.5,-220 2275.01,-218.4 2283.87,-216.31 2292.55,-214.01"/>
<polygon fill="midnightblue" stroke="midnightblue" points="1658.04,-275.67 1648.17,-279.51 1658.28,-282.67 1658.04,-275.67"/>
</g>
<!-- Node18 -->
<g id="node18" class="node">
<title>Node18</title>
<g id="a_node18"><a xlink:href="astContext_8cpp.html" target="_top" xlink:title=" ">
<polygon fill="white" stroke="black" points="2449,-173 2449,-214 2582,-214 2582,-173 2449,-173"/>
<text text-anchor="start" x="2457" y="-202" font-family="Helvetica,sans-Serif" font-size="10.00">/home/jonathan/Works</text>
<text text-anchor="start" x="2457" y="-191" font-family="Helvetica,sans-Serif" font-size="10.00">/Tools/Triton/src/libtriton</text>
<text text-anchor="middle" x="2515.5" y="-180" font-family="Helvetica,sans-Serif" font-size="10.00">/ast/astContext.cpp</text>
</a>
</g>
</g>
<!-- Node13&#45;&gt;Node18 -->
<g id="edge18" class="edge">
<title>Node13&#45;&gt;Node18</title>
<path fill="none" stroke="midnightblue" d="M1658.41,-277.91C1852.55,-269.99 2292.23,-249.38 2439.5,-220 2447.14,-218.47 2455.08,-216.4 2462.81,-214.08"/>
<polygon fill="midnightblue" stroke="midnightblue" points="1658.08,-274.42 1648.23,-278.32 1658.36,-281.41 1658.08,-274.42"/>
</g>
<!-- Node19 -->
<g id="node19" class="node">
<title>Node19</title>
<g id="a_node19"><a xlink:href="z3ToTritonAst_8cpp.html" target="_top" xlink:title=" ">
<polygon fill="white" stroke="black" points="2600,-173 2600,-214 2737,-214 2737,-173 2600,-173"/>
<text text-anchor="start" x="2608" y="-202" font-family="Helvetica,sans-Serif" font-size="10.00">/home/jonathan/Works</text>
<text text-anchor="start" x="2608" y="-191" font-family="Helvetica,sans-Serif" font-size="10.00">/Tools/Triton/src/libtriton</text>
<text text-anchor="middle" x="2668.5" y="-180" font-family="Helvetica,sans-Serif" font-size="10.00">/ast/z3/z3ToTritonAst.cpp</text>
</a>
</g>
</g>
<!-- Node13&#45;&gt;Node19 -->
<g id="edge19" class="edge">
<title>Node13&#45;&gt;Node19</title>
<path fill="none" stroke="midnightblue" d="M1658.52,-278.99C1877.1,-272.66 2414.3,-254.04 2591.5,-220 2599.38,-218.49 2607.57,-216.38 2615.54,-214.03"/>
<polygon fill="midnightblue" stroke="midnightblue" points="1658.25,-275.5 1648.36,-279.28 1658.45,-282.5 1658.25,-275.5"/>
</g>
<!-- Node20 -->
<g id="node20" class="node">
<title>Node20</title>
<g id="a_node20"><a xlink:href="pyAstContext_8cpp.html" target="_top" xlink:title=" ">
<polygon fill="white" stroke="black" points="395.5,-167.5 395.5,-219.5 531.5,-219.5 531.5,-167.5 395.5,-167.5"/>
<text text-anchor="start" x="403.5" y="-207.5" font-family="Helvetica,sans-Serif" font-size="10.00">/home/jonathan/Works</text>
<text text-anchor="start" x="403.5" y="-196.5" font-family="Helvetica,sans-Serif" font-size="10.00">/Tools/Triton/src/libtriton</text>
<text text-anchor="start" x="403.5" y="-185.5" font-family="Helvetica,sans-Serif" font-size="10.00">/bindings/python/objects</text>
<text text-anchor="middle" x="463.5" y="-174.5" font-family="Helvetica,sans-Serif" font-size="10.00">/pyAstContext.cpp</text>
</a>
</g>
</g>
<!-- Node13&#45;&gt;Node20 -->
<g id="edge20" class="edge">
<title>Node13&#45;&gt;Node20</title>
<path fill="none" stroke="midnightblue" d="M1470.75,-278.98C1252.81,-272.62 717.18,-253.96 540.5,-220 537.6,-219.44 534.65,-218.8 531.69,-218.1"/>
<polygon fill="midnightblue" stroke="midnightblue" points="1470.79,-282.48 1480.89,-279.27 1470.99,-275.49 1470.79,-282.48"/>
</g>
<!-- Node21 -->
<g id="node21" class="node">
<title>Node21</title>
<g id="a_node21"><a xlink:href="pyAstNode_8cpp.html" target="_top" xlink:title=" ">
<polygon fill="white" stroke="black" points="549.5,-167.5 549.5,-219.5 685.5,-219.5 685.5,-167.5 549.5,-167.5"/>
<text text-anchor="start" x="557.5" y="-207.5" font-family="Helvetica,sans-Serif" font-size="10.00">/home/jonathan/Works</text>
<text text-anchor="start" x="557.5" y="-196.5" font-family="Helvetica,sans-Serif" font-size="10.00">/Tools/Triton/src/libtriton</text>
<text text-anchor="start" x="557.5" y="-185.5" font-family="Helvetica,sans-Serif" font-size="10.00">/bindings/python/objects</text>
<text text-anchor="middle" x="617.5" y="-174.5" font-family="Helvetica,sans-Serif" font-size="10.00">/pyAstNode.cpp</text>
</a>
</g>
</g>
<!-- Node13&#45;&gt;Node21 -->
<g id="edge21" class="edge">
<title>Node13&#45;&gt;Node21</title>
<path fill="none" stroke="midnightblue" d="M1470.49,-282.47C1309.84,-282.45 972.85,-275.03 694.5,-220 691.6,-219.43 688.66,-218.78 685.7,-218.06"/>
<polygon fill="midnightblue" stroke="midnightblue" points="1470.82,-285.97 1480.82,-282.47 1470.82,-278.97 1470.82,-285.97"/>
</g>
<!-- Node22 -->
<g id="node22" class="node">
<title>Node22</title>
<g id="a_node22"><a xlink:href="bitwuzlaSolver_8cpp.html" target="_top" xlink:title=" ">
<polygon fill="white" stroke="black" points="704,-167.5 704,-219.5 839,-219.5 839,-167.5 704,-167.5"/>
<text text-anchor="start" x="712" y="-207.5" font-family="Helvetica,sans-Serif" font-size="10.00">/home/jonathan/Works</text>
<text text-anchor="start" x="712" y="-196.5" font-family="Helvetica,sans-Serif" font-size="10.00">/Tools/Triton/src/libtriton</text>
<text text-anchor="start" x="712" y="-185.5" font-family="Helvetica,sans-Serif" font-size="10.00">/engines/solver/bitwuzla</text>
<text text-anchor="middle" x="771.5" y="-174.5" font-family="Helvetica,sans-Serif" font-size="10.00">/bitwuzlaSolver.cpp</text>
</a>
</g>
</g>
<!-- Node13&#45;&gt;Node22 -->
<g id="edge22" class="edge">
<title>Node13&#45;&gt;Node22</title>
<path fill="none" stroke="midnightblue" d="M1470.81,-280.41C1333.08,-277.25 1068.47,-265.22 848.5,-220 845.47,-219.38 842.38,-218.67 839.29,-217.9"/>
<polygon fill="midnightblue" stroke="midnightblue" points="1470.83,-283.91 1480.91,-280.63 1470.98,-276.92 1470.83,-283.91"/>
</g>
<!-- Node23 -->
<g id="node23" class="node">
<title>Node23</title>
<g id="a_node23"><a xlink:href="z3Solver_8cpp.html" target="_top" xlink:title=" ">
<polygon fill="white" stroke="black" points="857.5,-173 857.5,-214 1027.5,-214 1027.5,-173 857.5,-173"/>
<text text-anchor="start" x="865.5" y="-202" font-family="Helvetica,sans-Serif" font-size="10.00">/home/jonathan/Works</text>
<text text-anchor="start" x="865.5" y="-191" font-family="Helvetica,sans-Serif" font-size="10.00">/Tools/Triton/src/libtriton</text>
<text text-anchor="middle" x="942.5" y="-180" font-family="Helvetica,sans-Serif" font-size="10.00">/engines/solver/z3/z3Solver.cpp</text>
</a>
</g>
</g>
<!-- Node13&#45;&gt;Node23 -->
<g id="edge23" class="edge">
<title>Node13&#45;&gt;Node23</title>
<path fill="none" stroke="midnightblue" d="M1470.65,-274.81C1364.58,-266.28 1187.05,-249.02 1036.5,-220 1027.78,-218.32 1018.69,-216.26 1009.74,-214.04"/>
<polygon fill="midnightblue" stroke="midnightblue" points="1470.45,-278.31 1480.69,-275.61 1471,-271.33 1470.45,-278.31"/>
</g>
<!-- Node24 -->
<g id="node24" class="node">
<title>Node24</title>
<g id="a_node24"><a xlink:href="pathManager_8cpp.html" target="_top" xlink:title=" ">
<polygon fill="white" stroke="black" points="1045.5,-173 1045.5,-214 1237.5,-214 1237.5,-173 1045.5,-173"/>
<text text-anchor="start" x="1053.5" y="-202" font-family="Helvetica,sans-Serif" font-size="10.00">/home/jonathan/Works</text>
<text text-anchor="start" x="1053.5" y="-191" font-family="Helvetica,sans-Serif" font-size="10.00">/Tools/Triton/src/libtriton</text>
<text text-anchor="middle" x="1141.5" y="-180" font-family="Helvetica,sans-Serif" font-size="10.00">/engines/symbolic/pathManager.cpp</text>
</a>
</g>
</g>
<!-- Node13&#45;&gt;Node24 -->
<g id="edge24" class="edge">
<title>Node13&#45;&gt;Node24</title>
<path fill="none" stroke="midnightblue" d="M1470.93,-264.61C1407.46,-252.85 1321.73,-236.4 1246.5,-220 1237.98,-218.14 1229.09,-216.12 1220.24,-214.05"/>
<polygon fill="midnightblue" stroke="midnightblue" points="1470.45,-268.08 1480.92,-266.45 1471.72,-261.19 1470.45,-268.08"/>
</g>
<!-- Node25 -->
<g id="node25" class="node">
<title>Node25</title>
<g id="a_node25"><a xlink:href="symbolicEngine_8cpp.html" target="_top" xlink:title=" ">
<polygon fill="white" stroke="black" points="1255.5,-173 1255.5,-214 1461.5,-214 1461.5,-173 1255.5,-173"/>
<text text-anchor="start" x="1263.5" y="-202" font-family="Helvetica,sans-Serif" font-size="10.00">/home/jonathan/Works</text>
<text text-anchor="start" x="1263.5" y="-191" font-family="Helvetica,sans-Serif" font-size="10.00">/Tools/Triton/src/libtriton</text>
<text text-anchor="middle" x="1358.5" y="-180" font-family="Helvetica,sans-Serif" font-size="10.00">/engines/symbolic/symbolicEngine.cpp</text>
</a>
</g>
</g>
<!-- Node13&#45;&gt;Node25 -->
<g id="edge25" class="edge">
<title>Node13&#45;&gt;Node25</title>
<path fill="none" stroke="midnightblue" d="M1508.89,-258.01C1476.35,-244.27 1435.75,-227.12 1404.93,-214.11"/>
<polygon fill="midnightblue" stroke="midnightblue" points="1507.7,-261.31 1518.27,-261.98 1510.42,-254.86 1507.7,-261.31"/>
</g>
<!-- Node26 -->
<g id="node26" class="node">
<title>Node26</title>
<g id="a_node26"><a xlink:href="synthesizer_8hpp.html" target="_top" xlink:title=" ">
<polygon fill="white" stroke="black" points="1480,-173 1480,-214 1649,-214 1649,-173 1480,-173"/>
<text text-anchor="start" x="1488" y="-202" font-family="Helvetica,sans-Serif" font-size="10.00">/home/jonathan/Works</text>
<text text-anchor="start" x="1488" y="-191" font-family="Helvetica,sans-Serif" font-size="10.00">/Tools/Triton/src/libtriton</text>
<text text-anchor="middle" x="1564.5" y="-180" font-family="Helvetica,sans-Serif" font-size="10.00">/includes/triton/synthesizer.hpp</text>
</a>
</g>
</g>
<!-- Node13&#45;&gt;Node26 -->
<g id="edge28" class="edge">
<title>Node13&#45;&gt;Node26</title>
<path fill="none" stroke="midnightblue" d="M1564.5,-251.44C1564.5,-239.1 1564.5,-225.16 1564.5,-214.16"/>
<polygon fill="midnightblue" stroke="midnightblue" points="1561,-251.76 1564.5,-261.76 1568,-251.76 1561,-251.76"/>
</g>
<!-- Node26&#45;&gt;Node9 -->
<g id="edge30" class="edge">
<title>Node26&#45;&gt;Node9</title>
<path fill="none" stroke="midnightblue" d="M1639.4,-170.65C1645.83,-169.24 1652.25,-167.99 1658.5,-167 1860.66,-134.85 2491.36,-117.46 2698.7,-112.5"/>
<polygon fill="midnightblue" stroke="midnightblue" points="1638.29,-167.31 1629.34,-172.97 1639.87,-174.13 1638.29,-167.31"/>
</g>
<!-- Node27 -->
<g id="node27" class="node">
<title>Node27</title>
<g id="a_node27"><a xlink:href="synthesizer_8cpp.html" target="_top" xlink:title=" ">
<polygon fill="white" stroke="black" points="1471.5,-89.5 1471.5,-130.5 1657.5,-130.5 1657.5,-89.5 1471.5,-89.5"/>
<text text-anchor="start" x="1479.5" y="-118.5" font-family="Helvetica,sans-Serif" font-size="10.00">/home/jonathan/Works</text>
<text text-anchor="start" x="1479.5" y="-107.5" font-family="Helvetica,sans-Serif" font-size="10.00">/Tools/Triton/src/libtriton</text>
<text text-anchor="middle" x="1564.5" y="-96.5" font-family="Helvetica,sans-Serif" font-size="10.00">/engines/synthesis/synthesizer.cpp</text>
</a>
</g>
</g>
<!-- Node26&#45;&gt;Node27 -->
<g id="edge29" class="edge">
<title>Node26&#45;&gt;Node27</title>
<path fill="none" stroke="midnightblue" d="M1564.5,-162.56C1564.5,-151.88 1564.5,-140.13 1564.5,-130.55"/>
<polygon fill="midnightblue" stroke="midnightblue" points="1561,-162.77 1564.5,-172.77 1568,-162.77 1561,-162.77"/>
</g>
<!-- Node28&#45;&gt;Node4 -->
<g id="edge34" class="edge">
<title>Node28&#45;&gt;Node4</title>
<path fill="none" stroke="midnightblue" d="M2277.92,-418.63C2258.93,-408.24 2237.07,-396.29 2219.17,-386.51"/>
<polygon fill="midnightblue" stroke="midnightblue" points="2276.25,-421.7 2286.7,-423.43 2279.61,-415.56 2276.25,-421.7"/>
</g>
<!-- Node29 -->
<g id="node29" class="node">
<title>Node29</title>
<g id="a_node29"><a xlink:href="astSmtRepresentation_8cpp.html" target="_top" xlink:title=" ">
<polygon fill="white" stroke="black" points="2303.5,-345.5 2303.5,-386.5 2549.5,-386.5 2549.5,-345.5 2303.5,-345.5"/>
<text text-anchor="start" x="2311.5" y="-374.5" font-family="Helvetica,sans-Serif" font-size="10.00">/home/jonathan/Works</text>
<text text-anchor="start" x="2311.5" y="-363.5" font-family="Helvetica,sans-Serif" font-size="10.00">/Tools/Triton/src/libtriton</text>
<text text-anchor="middle" x="2426.5" y="-352.5" font-family="Helvetica,sans-Serif" font-size="10.00">/ast/representations/astSmtRepresentation.cpp</text>
</a>
</g>
</g>
<!-- Node28&#45;&gt;Node29 -->
<g id="edge33" class="edge">
<title>Node28&#45;&gt;Node29</title>
<path fill="none" stroke="midnightblue" d="M2357.6,-417.35C2371.39,-407.27 2386.96,-395.89 2399.81,-386.51"/>
<polygon fill="midnightblue" stroke="midnightblue" points="2355.29,-414.7 2349.28,-423.43 2359.42,-420.35 2355.29,-414.7"/>
</g>
</g>
</svg>
