<?xml version="1.0" encoding="UTF-8" standalone="no"?>
<!DOCTYPE svg PUBLIC "-//W3C//DTD SVG 1.1//EN"
 "http://www.w3.org/Graphics/SVG/1.1/DTD/svg11.dtd">
<!-- Generated by graphviz version 11.0.0 (20240428.1522)
 -->
<!-- Title: /Users/jonathan/Works/Tools/Triton/src/libtriton/includes/triton/astSmtRepresentation.hpp Pages: 1 -->
<svg width="452pt" height="128pt"
 viewBox="0.00 0.00 451.50 127.50" xmlns="http://www.w3.org/2000/svg" xmlns:xlink="http://www.w3.org/1999/xlink">
<g id="graph0" class="graph" transform="scale(1 1) rotate(0) translate(4 123.5)">
<title>/Users/jonathan/Works/Tools/Triton/src/libtriton/includes/triton/astSmtRepresentation.hpp</title>
<!-- Node1 -->
<g id="Node000001" class="node">
<title>Node1</title>
<g id="a_Node000001"><a xlink:title=" ">
<polygon fill="#999999" stroke="#666666" points="316.25,-119.5 117.25,-119.5 117.25,-77.75 316.25,-77.75 316.25,-119.5"/>
<text text-anchor="start" x="125.25" y="-106" font-family="Helvetica,sans-Serif" font-size="10.00">/Users/jonathan/Works</text>
<text text-anchor="start" x="125.25" y="-94.75" font-family="Helvetica,sans-Serif" font-size="10.00">/Tools/Triton/src/libtriton</text>
<text text-anchor="middle" x="216.75" y="-83.5" font-family="Helvetica,sans-Serif" font-size="10.00">/includes/triton/astSmtRepresentation.hpp</text>
</a>
</g>
</g>
<!-- Node2 -->
<g id="Node000002" class="node">
<title>Node2</title>
<g id="a_Node000002"><a xlink:href="$astRepresentation_8cpp.html" xlink:title=" ">
<polygon fill="white" stroke="#666666" points="203.5,-41.75 0,-41.75 0,0 203.5,0 203.5,-41.75"/>
<text text-anchor="start" x="8" y="-28.25" font-family="Helvetica,sans-Serif" font-size="10.00">/Users/jonathan/Works</text>
<text text-anchor="start" x="8" y="-17" font-family="Helvetica,sans-Serif" font-size="10.00">/Tools/Triton/src/libtriton</text>
<text text-anchor="middle" x="101.75" y="-5.75" font-family="Helvetica,sans-Serif" font-size="10.00">/ast/representations/astRepresentation.cpp</text>
</a>
</g>
</g>
<!-- Node1&#45;&gt;Node2 -->
<g id="edge1_Node000001_Node000002" class="edge">
<title>Node1&#45;&gt;Node2</title>
<g id="a_edge1_Node000001_Node000002"><a xlink:title=" ">
<path fill="none" stroke="#63b8ff" d="M176.72,-71.26C162.27,-61.74 146.2,-51.15 132.65,-42.23"/>
<polygon fill="#63b8ff" stroke="#63b8ff" points="174.39,-73.91 184.67,-76.49 178.24,-68.07 174.39,-73.91"/>
</a>
</g>
</g>
<!-- Node3 -->
<g id="Node000003" class="node">
<title>Node3</title>
<g id="a_Node000003"><a xlink:href="$astSmtRepresentation_8cpp.html" xlink:title=" ">
<polygon fill="white" stroke="#666666" points="443.5,-41.75 222,-41.75 222,0 443.5,0 443.5,-41.75"/>
<text text-anchor="start" x="230" y="-28.25" font-family="Helvetica,sans-Serif" font-size="10.00">/Users/jonathan/Works</text>
<text text-anchor="start" x="230" y="-17" font-family="Helvetica,sans-Serif" font-size="10.00">/Tools/Triton/src/libtriton</text>
<text text-anchor="middle" x="332.75" y="-5.75" font-family="Helvetica,sans-Serif" font-size="10.00">/ast/representations/astSmtRepresentation.cpp</text>
</a>
</g>
</g>
<!-- Node1&#45;&gt;Node3 -->
<g id="edge2_Node000001_Node000003" class="edge">
<title>Node1&#45;&gt;Node3</title>
<g id="a_edge2_Node000001_Node000003"><a xlink:title=" ">
<path fill="none" stroke="#63b8ff" d="M257.13,-71.26C271.7,-61.74 287.91,-51.15 301.58,-42.23"/>
<polygon fill="#63b8ff" stroke="#63b8ff" points="255.56,-68.1 249.1,-76.5 259.39,-73.96 255.56,-68.1"/>
</a>
</g>
</g>
</g>
</svg>
