<?xml version="1.0" encoding="UTF-8" standalone="no"?>
<!DOCTYPE svg PUBLIC "-//W3C//DTD SVG 1.1//EN"
 "http://www.w3.org/Graphics/SVG/1.1/DTD/svg11.dtd">
<!-- Generated by graphviz version 2.49.0 (20210828.1703)
 -->
<!-- Title: triton::exceptions::Architecture Pages: 1 -->
<svg width="698pt" height="519pt"
 viewBox="0.00 0.00 698.00 519.00" xmlns="http://www.w3.org/2000/svg" xmlns:xlink="http://www.w3.org/1999/xlink">
<g id="graph0" class="graph" transform="scale(1 1) rotate(0) translate(4 515)">
<title>triton::exceptions::Architecture</title>
<polygon fill="white" stroke="transparent" points="-4,4 -4,-515 694,-515 694,4 -4,4"/>
<!-- Node1 -->
<g id="node1" class="node">
<title>Node1</title>
<g id="a_node1"><a xlink:title="The exception class used by architectures.">
<polygon fill="#bfbfbf" stroke="black" points="260,-245.5 260,-275.5 362,-275.5 362,-245.5 260,-245.5"/>
<text text-anchor="start" x="268" y="-263.5" font-family="Helvetica,sans-Serif" font-size="10.00">triton::exceptions</text>
<text text-anchor="middle" x="311" y="-252.5" font-family="Helvetica,sans-Serif" font-size="10.00">::Architecture</text>
</a>
</g>
</g>
<!-- Node4 -->
<g id="node4" class="node">
<title>Node4</title>
<g id="a_node4"><a xlink:href="classtriton_1_1exceptions_1_1AArch64OperandProperties.html" target="_top" xlink:title="The exception class used by shift mode.">
<polygon fill="white" stroke="black" points="398,-480.5 398,-510.5 552,-510.5 552,-480.5 398,-480.5"/>
<text text-anchor="start" x="406" y="-498.5" font-family="Helvetica,sans-Serif" font-size="10.00">triton::exceptions</text>
<text text-anchor="middle" x="475" y="-487.5" font-family="Helvetica,sans-Serif" font-size="10.00">::AArch64OperandProperties</text>
</a>
</g>
</g>
<!-- Node1&#45;&gt;Node4 -->
<g id="edge3" class="edge">
<title>Node1&#45;&gt;Node4</title>
<path fill="none" stroke="midnightblue" d="M315.39,-285.71C322.61,-329.49 343.52,-419.75 398,-470.5 402.17,-474.38 406.95,-477.66 412.04,-480.43"/>
<polygon fill="midnightblue" stroke="midnightblue" points="318.82,-284.98 313.84,-275.63 311.91,-286.04 318.82,-284.98"/>
</g>
<!-- Node5 -->
<g id="node5" class="node">
<title>Node5</title>
<g id="a_node5"><a xlink:href="classtriton_1_1exceptions_1_1ArmOperandProperties.html" target="_top" xlink:title="The exception class used by shift mode.">
<polygon fill="white" stroke="black" points="408,-431.5 408,-461.5 542,-461.5 542,-431.5 408,-431.5"/>
<text text-anchor="start" x="416" y="-449.5" font-family="Helvetica,sans-Serif" font-size="10.00">triton::exceptions</text>
<text text-anchor="middle" x="475" y="-438.5" font-family="Helvetica,sans-Serif" font-size="10.00">::ArmOperandProperties</text>
</a>
</g>
</g>
<!-- Node1&#45;&gt;Node5 -->
<g id="edge4" class="edge">
<title>Node1&#45;&gt;Node5</title>
<path fill="none" stroke="midnightblue" d="M318.96,-285.81C329.96,-321.17 354.69,-385.1 398,-421.5 402.57,-425.34 407.75,-428.6 413.21,-431.36"/>
<polygon fill="midnightblue" stroke="midnightblue" points="322.19,-284.4 315.98,-275.81 315.49,-286.4 322.19,-284.4"/>
</g>
<!-- Node6 -->
<g id="node6" class="node">
<title>Node6</title>
<g id="a_node6"><a xlink:href="classtriton_1_1exceptions_1_1BasicBlock.html" target="_top" xlink:title="The exception class used by a basic block.">
<polygon fill="white" stroke="black" points="424,-382.5 424,-412.5 526,-412.5 526,-382.5 424,-382.5"/>
<text text-anchor="start" x="432" y="-400.5" font-family="Helvetica,sans-Serif" font-size="10.00">triton::exceptions</text>
<text text-anchor="middle" x="475" y="-389.5" font-family="Helvetica,sans-Serif" font-size="10.00">::BasicBlock</text>
</a>
</g>
</g>
<!-- Node1&#45;&gt;Node6 -->
<g id="edge5" class="edge">
<title>Node1&#45;&gt;Node6</title>
<path fill="none" stroke="midnightblue" d="M324.62,-284.47C339.12,-309.8 365.2,-349.24 398,-372.5 405.7,-377.96 414.68,-382.29 423.7,-385.69"/>
<polygon fill="midnightblue" stroke="midnightblue" points="327.56,-282.55 319.64,-275.51 321.44,-285.95 327.56,-282.55"/>
</g>
<!-- Node7 -->
<g id="node7" class="node">
<title>Node7</title>
<g id="a_node7"><a xlink:href="classtriton_1_1exceptions_1_1BitsVector.html" target="_top" xlink:title="The exception class used by bitvectors.">
<polygon fill="white" stroke="black" points="424,-333.5 424,-363.5 526,-363.5 526,-333.5 424,-333.5"/>
<text text-anchor="start" x="432" y="-351.5" font-family="Helvetica,sans-Serif" font-size="10.00">triton::exceptions</text>
<text text-anchor="middle" x="475" y="-340.5" font-family="Helvetica,sans-Serif" font-size="10.00">::BitsVector</text>
</a>
</g>
</g>
<!-- Node1&#45;&gt;Node7 -->
<g id="edge6" class="edge">
<title>Node1&#45;&gt;Node7</title>
<path fill="none" stroke="midnightblue" d="M337.06,-282.15C353.52,-295.5 376,-312.18 398,-323.5 406.03,-327.63 414.88,-331.27 423.62,-334.41"/>
<polygon fill="midnightblue" stroke="midnightblue" points="338.98,-279.19 329.04,-275.52 334.52,-284.59 338.98,-279.19"/>
</g>
<!-- Node8 -->
<g id="node8" class="node">
<title>Node8</title>
<g id="a_node8"><a xlink:href="classtriton_1_1exceptions_1_1Cpu.html" target="_top" xlink:title="The exception class used by all CPUs.">
<polygon fill="white" stroke="black" points="411.5,-295 411.5,-314 538.5,-314 538.5,-295 411.5,-295"/>
<text text-anchor="middle" x="475" y="-302" font-family="Helvetica,sans-Serif" font-size="10.00">triton::exceptions::Cpu</text>
</a>
</g>
</g>
<!-- Node1&#45;&gt;Node8 -->
<g id="edge7" class="edge">
<title>Node1&#45;&gt;Node8</title>
<path fill="none" stroke="midnightblue" d="M372.14,-277.41C380.81,-279.81 389.63,-282.23 398,-284.5 410.77,-287.96 424.78,-291.67 437.25,-294.95"/>
<polygon fill="midnightblue" stroke="midnightblue" points="373.01,-274.02 362.44,-274.71 371.14,-280.76 373.01,-274.02"/>
</g>
<!-- Node11 -->
<g id="node11" class="node">
<title>Node11</title>
<g id="a_node11"><a xlink:href="classtriton_1_1exceptions_1_1Immediate.html" target="_top" xlink:title="The exception class used by immediates.">
<polygon fill="white" stroke="black" points="424,-245.5 424,-275.5 526,-275.5 526,-245.5 424,-245.5"/>
<text text-anchor="start" x="432" y="-263.5" font-family="Helvetica,sans-Serif" font-size="10.00">triton::exceptions</text>
<text text-anchor="middle" x="475" y="-252.5" font-family="Helvetica,sans-Serif" font-size="10.00">::Immediate</text>
</a>
</g>
</g>
<!-- Node1&#45;&gt;Node11 -->
<g id="edge10" class="edge">
<title>Node1&#45;&gt;Node11</title>
<path fill="none" stroke="midnightblue" d="M372.7,-260.5C389.59,-260.5 407.73,-260.5 423.94,-260.5"/>
<polygon fill="midnightblue" stroke="midnightblue" points="372.37,-257 362.37,-260.5 372.37,-264 372.37,-257"/>
</g>
<!-- Node12 -->
<g id="node12" class="node">
<title>Node12</title>
<g id="a_node12"><a xlink:href="classtriton_1_1exceptions_1_1Instruction.html" target="_top" xlink:title="The exception class used by an instruction.">
<polygon fill="white" stroke="black" points="424,-196.5 424,-226.5 526,-226.5 526,-196.5 424,-196.5"/>
<text text-anchor="start" x="432" y="-214.5" font-family="Helvetica,sans-Serif" font-size="10.00">triton::exceptions</text>
<text text-anchor="middle" x="475" y="-203.5" font-family="Helvetica,sans-Serif" font-size="10.00">::Instruction</text>
</a>
</g>
</g>
<!-- Node1&#45;&gt;Node12 -->
<g id="edge11" class="edge">
<title>Node1&#45;&gt;Node12</title>
<path fill="none" stroke="midnightblue" d="M371.88,-242.39C389.11,-237.18 407.7,-231.55 424.24,-226.55"/>
<polygon fill="midnightblue" stroke="midnightblue" points="370.49,-239.15 361.93,-245.4 372.51,-245.85 370.49,-239.15"/>
</g>
<!-- Node13 -->
<g id="node13" class="node">
<title>Node13</title>
<g id="a_node13"><a xlink:href="classtriton_1_1exceptions_1_1IrBuilder.html" target="_top" xlink:title="The exception class used by the IR builder.">
<polygon fill="white" stroke="black" points="424,-147.5 424,-177.5 526,-177.5 526,-147.5 424,-147.5"/>
<text text-anchor="start" x="432" y="-165.5" font-family="Helvetica,sans-Serif" font-size="10.00">triton::exceptions</text>
<text text-anchor="middle" x="475" y="-154.5" font-family="Helvetica,sans-Serif" font-size="10.00">::IrBuilder</text>
</a>
</g>
</g>
<!-- Node1&#45;&gt;Node13 -->
<g id="edge12" class="edge">
<title>Node1&#45;&gt;Node13</title>
<path fill="none" stroke="midnightblue" d="M333.21,-237.87C349.56,-221.59 373.45,-200.17 398,-186.5 405.98,-182.06 414.89,-178.31 423.73,-175.19"/>
<polygon fill="midnightblue" stroke="midnightblue" points="330.33,-235.8 325.82,-245.39 335.33,-240.71 330.33,-235.8"/>
</g>
<!-- Node14 -->
<g id="node14" class="node">
<title>Node14</title>
<g id="a_node14"><a xlink:href="classtriton_1_1exceptions_1_1MemoryAccess.html" target="_top" xlink:title="The exception class used by memory access.">
<polygon fill="white" stroke="black" points="424,-98.5 424,-128.5 526,-128.5 526,-98.5 424,-98.5"/>
<text text-anchor="start" x="432" y="-116.5" font-family="Helvetica,sans-Serif" font-size="10.00">triton::exceptions</text>
<text text-anchor="middle" x="475" y="-105.5" font-family="Helvetica,sans-Serif" font-size="10.00">::MemoryAccess</text>
</a>
</g>
</g>
<!-- Node1&#45;&gt;Node14 -->
<g id="edge13" class="edge">
<title>Node1&#45;&gt;Node14</title>
<path fill="none" stroke="midnightblue" d="M322.95,-236.16C336.65,-208.37 362.68,-163.43 398,-137.5 405.7,-131.85 414.76,-127.5 423.91,-124.17"/>
<polygon fill="midnightblue" stroke="midnightblue" points="319.78,-234.68 318.62,-245.21 326.09,-237.7 319.78,-234.68"/>
</g>
<!-- Node15 -->
<g id="node15" class="node">
<title>Node15</title>
<g id="a_node15"><a xlink:href="classtriton_1_1exceptions_1_1OperandWrapper.html" target="_top" xlink:title="The exception class used by operand wrappers.">
<polygon fill="white" stroke="black" points="422.5,-49.5 422.5,-79.5 527.5,-79.5 527.5,-49.5 422.5,-49.5"/>
<text text-anchor="start" x="430.5" y="-67.5" font-family="Helvetica,sans-Serif" font-size="10.00">triton::exceptions</text>
<text text-anchor="middle" x="475" y="-56.5" font-family="Helvetica,sans-Serif" font-size="10.00">::OperandWrapper</text>
</a>
</g>
</g>
<!-- Node1&#45;&gt;Node15 -->
<g id="edge14" class="edge">
<title>Node1&#45;&gt;Node15</title>
<path fill="none" stroke="midnightblue" d="M317.89,-235.32C327.93,-197.91 351.89,-127.85 398,-88.5 405.05,-82.48 413.62,-77.97 422.42,-74.59"/>
<polygon fill="midnightblue" stroke="midnightblue" points="314.4,-234.83 315.31,-245.38 321.18,-236.56 314.4,-234.83"/>
</g>
<!-- Node16 -->
<g id="node16" class="node">
<title>Node16</title>
<g id="a_node16"><a xlink:href="classtriton_1_1exceptions_1_1Register.html" target="_top" xlink:title="The exception class used by register operands.">
<polygon fill="white" stroke="black" points="424,-0.5 424,-30.5 526,-30.5 526,-0.5 424,-0.5"/>
<text text-anchor="start" x="432" y="-18.5" font-family="Helvetica,sans-Serif" font-size="10.00">triton::exceptions</text>
<text text-anchor="middle" x="475" y="-7.5" font-family="Helvetica,sans-Serif" font-size="10.00">::Register</text>
</a>
</g>
</g>
<!-- Node1&#45;&gt;Node16 -->
<g id="edge15" class="edge">
<title>Node1&#45;&gt;Node16</title>
<path fill="none" stroke="midnightblue" d="M314.74,-235.23C321.03,-189.59 340.68,-93.2 398,-39.5 405.27,-32.69 414.46,-27.81 423.92,-24.32"/>
<polygon fill="midnightblue" stroke="midnightblue" points="311.23,-235.06 313.44,-245.43 318.18,-235.95 311.23,-235.06"/>
</g>
<!-- Node2 -->
<g id="node2" class="node">
<title>Node2</title>
<g id="a_node2"><a xlink:href="classtriton_1_1exceptions_1_1Exception.html" target="_top" xlink:title="The root class of all exceptions.">
<polygon fill="white" stroke="black" points="122,-245.5 122,-275.5 224,-275.5 224,-245.5 122,-245.5"/>
<text text-anchor="start" x="130" y="-263.5" font-family="Helvetica,sans-Serif" font-size="10.00">triton::exceptions</text>
<text text-anchor="middle" x="173" y="-252.5" font-family="Helvetica,sans-Serif" font-size="10.00">::Exception</text>
</a>
</g>
</g>
<!-- Node2&#45;&gt;Node1 -->
<g id="edge1" class="edge">
<title>Node2&#45;&gt;Node1</title>
<path fill="none" stroke="midnightblue" d="M234.51,-260.5C243.01,-260.5 251.67,-260.5 259.95,-260.5"/>
<polygon fill="midnightblue" stroke="midnightblue" points="234.26,-257 224.25,-260.5 234.25,-264 234.26,-257"/>
</g>
<!-- Node3 -->
<g id="node3" class="node">
<title>Node3</title>
<g id="a_node3"><a xlink:title=" ">
<polygon fill="white" stroke="#bfbfbf" points="0,-251 0,-270 86,-270 86,-251 0,-251"/>
<text text-anchor="middle" x="43" y="-258" font-family="Helvetica,sans-Serif" font-size="10.00">std::exception</text>
</a>
</g>
</g>
<!-- Node3&#45;&gt;Node2 -->
<g id="edge2" class="edge">
<title>Node3&#45;&gt;Node2</title>
<path fill="none" stroke="midnightblue" d="M96.34,-260.5C104.74,-260.5 113.42,-260.5 121.77,-260.5"/>
<polygon fill="midnightblue" stroke="midnightblue" points="96.27,-257 86.27,-260.5 96.27,-264 96.27,-257"/>
</g>
<!-- Node9 -->
<g id="node9" class="node">
<title>Node9</title>
<g id="a_node9"><a xlink:href="classtriton_1_1exceptions_1_1Disassembly.html" target="_top" xlink:title="The exception class used by the disassembler.">
<polygon fill="white" stroke="black" points="588,-313.5 588,-343.5 690,-343.5 690,-313.5 588,-313.5"/>
<text text-anchor="start" x="596" y="-331.5" font-family="Helvetica,sans-Serif" font-size="10.00">triton::exceptions</text>
<text text-anchor="middle" x="639" y="-320.5" font-family="Helvetica,sans-Serif" font-size="10.00">::Disassembly</text>
</a>
</g>
</g>
<!-- Node8&#45;&gt;Node9 -->
<g id="edge8" class="edge">
<title>Node8&#45;&gt;Node9</title>
<path fill="none" stroke="midnightblue" d="M548.67,-315.27C561.9,-317.23 575.43,-319.23 587.82,-321.07"/>
<polygon fill="midnightblue" stroke="midnightblue" points="549.04,-311.78 538.63,-313.78 548.01,-318.71 549.04,-311.78"/>
</g>
<!-- Node10 -->
<g id="node10" class="node">
<title>Node10</title>
<g id="a_node10"><a xlink:href="classtriton_1_1exceptions_1_1Semantics.html" target="_top" xlink:title="The exception class used by all semantics.">
<polygon fill="white" stroke="black" points="588,-264.5 588,-294.5 690,-294.5 690,-264.5 588,-264.5"/>
<text text-anchor="start" x="596" y="-282.5" font-family="Helvetica,sans-Serif" font-size="10.00">triton::exceptions</text>
<text text-anchor="middle" x="639" y="-271.5" font-family="Helvetica,sans-Serif" font-size="10.00">::Semantics</text>
</a>
</g>
</g>
<!-- Node8&#45;&gt;Node10 -->
<g id="edge9" class="edge">
<title>Node8&#45;&gt;Node10</title>
<path fill="none" stroke="midnightblue" d="M547.9,-293.4C561.36,-291.33 575.15,-289.2 587.77,-287.25"/>
<polygon fill="midnightblue" stroke="midnightblue" points="547.06,-289.99 537.71,-294.98 548.12,-296.91 547.06,-289.99"/>
</g>
</g>
</svg>
