<?xml version="1.0" encoding="UTF-8" standalone="no"?>
<!DOCTYPE svg PUBLIC "-//W3C//DTD SVG 1.1//EN"
 "http://www.w3.org/Graphics/SVG/1.1/DTD/svg11.dtd">
<!-- Generated by graphviz version 12.1.0 (20240811.2233)
 -->
<!-- Title: triton::exceptions::SymbolicEngine Pages: 1 -->
<svg width="625pt" height="235pt"
 viewBox="0.00 0.00 625.00 234.50" xmlns="http://www.w3.org/2000/svg" xmlns:xlink="http://www.w3.org/1999/xlink">
<g id="graph0" class="graph" transform="scale(1 1) rotate(0) translate(4 230.5)">
<title>triton::exceptions::SymbolicEngine</title>
<!-- Node1 -->
<g id="Node000001" class="node">
<title>Node1</title>
<g id="a_Node000001"><a xlink:title="The exception class used by the symbolic engine.">
<polygon fill="#999999" stroke="#666666" points="460,-128.5 367.5,-128.5 367.5,-98 460,-98 460,-128.5"/>
<text text-anchor="start" x="375.5" y="-115" font-family="Helvetica,sans-Serif" font-size="10.00">triton::exceptions</text>
<text text-anchor="middle" x="413.75" y="-103.75" font-family="Helvetica,sans-Serif" font-size="10.00">::SymbolicEngine</text>
</a>
</g>
</g>
<!-- Node5 -->
<g id="Node000005" class="node">
<title>Node5</title>
<g id="a_Node000005"><a xlink:href="classtriton_1_1exceptions_1_1PathConstraint.html" target="_top" xlink:title="The exception class used by path constraints.">
<polygon fill="white" stroke="#666666" points="602,-226.5 511,-226.5 511,-196 602,-196 602,-226.5"/>
<text text-anchor="start" x="519" y="-213" font-family="Helvetica,sans-Serif" font-size="10.00">triton::exceptions</text>
<text text-anchor="middle" x="556.5" y="-201.75" font-family="Helvetica,sans-Serif" font-size="10.00">::PathConstraint</text>
</a>
</g>
</g>
<!-- Node1&#45;&gt;Node5 -->
<g id="edge4_Node000001_Node000005" class="edge">
<title>Node1&#45;&gt;Node5</title>
<g id="a_edge4_Node000001_Node000005"><a xlink:title=" ">
<path fill="none" stroke="#63b8ff" d="M436.98,-137C452.43,-152.51 474.11,-172.37 496,-186.25 501.39,-189.67 507.34,-192.8 513.31,-195.61"/>
<polygon fill="#63b8ff" stroke="#63b8ff" points="439.62,-134.69 430.13,-129.98 434.61,-139.58 439.62,-134.69"/>
</a>
</g>
</g>
<!-- Node6 -->
<g id="Node000006" class="node">
<title>Node6</title>
<g id="a_Node000006"><a xlink:href="classtriton_1_1exceptions_1_1PathManager.html" target="_top" xlink:title="The exception class used by the path manager.">
<polygon fill="white" stroke="#666666" points="602,-177.5 511,-177.5 511,-147 602,-147 602,-177.5"/>
<text text-anchor="start" x="519" y="-164" font-family="Helvetica,sans-Serif" font-size="10.00">triton::exceptions</text>
<text text-anchor="middle" x="556.5" y="-152.75" font-family="Helvetica,sans-Serif" font-size="10.00">::PathManager</text>
</a>
</g>
</g>
<!-- Node1&#45;&gt;Node6 -->
<g id="edge5_Node000001_Node000006" class="edge">
<title>Node1&#45;&gt;Node6</title>
<g id="a_edge5_Node000001_Node000006"><a xlink:title=" ">
<path fill="none" stroke="#63b8ff" d="M470.2,-132.55C483.57,-137.21 497.7,-142.13 510.52,-146.59"/>
<polygon fill="#63b8ff" stroke="#63b8ff" points="471.7,-129.37 461.1,-129.39 469.39,-135.98 471.7,-129.37"/>
</a>
</g>
</g>
<!-- Node7 -->
<g id="Node000007" class="node">
<title>Node7</title>
<g id="a_Node000007"><a xlink:href="classtriton_1_1exceptions_1_1SymbolicExpression.html" target="_top" xlink:title="The exception class used by symbolic expressions.">
<polygon fill="white" stroke="#666666" points="612.12,-128.5 500.88,-128.5 500.88,-98 612.12,-98 612.12,-128.5"/>
<text text-anchor="start" x="508.88" y="-115" font-family="Helvetica,sans-Serif" font-size="10.00">triton::exceptions</text>
<text text-anchor="middle" x="556.5" y="-103.75" font-family="Helvetica,sans-Serif" font-size="10.00">::SymbolicExpression</text>
</a>
</g>
</g>
<!-- Node1&#45;&gt;Node7 -->
<g id="edge6_Node000001_Node000007" class="edge">
<title>Node1&#45;&gt;Node7</title>
<g id="a_edge6_Node000001_Node000007"><a xlink:title=" ">
<path fill="none" stroke="#63b8ff" d="M471.78,-113.25C481.24,-113.25 491.04,-113.25 500.45,-113.25"/>
<polygon fill="#63b8ff" stroke="#63b8ff" points="471.96,-109.75 461.96,-113.25 471.96,-116.75 471.96,-109.75"/>
</a>
</g>
</g>
<!-- Node8 -->
<g id="Node000008" class="node">
<title>Node8</title>
<g id="a_Node000008"><a xlink:href="classtriton_1_1exceptions_1_1SymbolicSimplification.html" target="_top" xlink:title="The exception class used by symbolic simplifications.">
<polygon fill="white" stroke="#666666" points="617,-79.5 496,-79.5 496,-49 617,-49 617,-79.5"/>
<text text-anchor="start" x="504" y="-66" font-family="Helvetica,sans-Serif" font-size="10.00">triton::exceptions</text>
<text text-anchor="middle" x="556.5" y="-54.75" font-family="Helvetica,sans-Serif" font-size="10.00">::SymbolicSimplification</text>
</a>
</g>
</g>
<!-- Node1&#45;&gt;Node8 -->
<g id="edge7_Node000001_Node000008" class="edge">
<title>Node1&#45;&gt;Node8</title>
<g id="a_edge7_Node000001_Node000008"><a xlink:title=" ">
<path fill="none" stroke="#63b8ff" d="M470.2,-93.95C483.57,-89.29 497.7,-84.37 510.52,-79.91"/>
<polygon fill="#63b8ff" stroke="#63b8ff" points="469.39,-90.52 461.1,-97.11 471.7,-97.13 469.39,-90.52"/>
</a>
</g>
</g>
<!-- Node9 -->
<g id="Node000009" class="node">
<title>Node9</title>
<g id="a_Node000009"><a xlink:href="classtriton_1_1exceptions_1_1SymbolicVariable.html" target="_top" xlink:title="The exception class used by symbolic variables.">
<polygon fill="white" stroke="#666666" points="605,-30.5 508,-30.5 508,0 605,0 605,-30.5"/>
<text text-anchor="start" x="516" y="-17" font-family="Helvetica,sans-Serif" font-size="10.00">triton::exceptions</text>
<text text-anchor="middle" x="556.5" y="-5.75" font-family="Helvetica,sans-Serif" font-size="10.00">::SymbolicVariable</text>
</a>
</g>
</g>
<!-- Node1&#45;&gt;Node9 -->
<g id="edge8_Node000001_Node000009" class="edge">
<title>Node1&#45;&gt;Node9</title>
<g id="a_edge8_Node000001_Node000009"><a xlink:title=" ">
<path fill="none" stroke="#63b8ff" d="M436.98,-89.5C452.43,-73.99 474.11,-54.13 496,-40.25 501.39,-36.83 507.34,-33.7 513.31,-30.89"/>
<polygon fill="#63b8ff" stroke="#63b8ff" points="434.61,-86.92 430.13,-96.52 439.62,-91.81 434.61,-86.92"/>
</a>
</g>
</g>
<!-- Node2 -->
<g id="Node000002" class="node">
<title>Node2</title>
<g id="a_Node000002"><a xlink:href="classtriton_1_1exceptions_1_1Engines.html" target="_top" xlink:title="The exception class used by all engines.">
<polygon fill="white" stroke="#666666" points="331.5,-128.5 240.5,-128.5 240.5,-98 331.5,-98 331.5,-128.5"/>
<text text-anchor="start" x="248.5" y="-115" font-family="Helvetica,sans-Serif" font-size="10.00">triton::exceptions</text>
<text text-anchor="middle" x="286" y="-103.75" font-family="Helvetica,sans-Serif" font-size="10.00">::Engines</text>
</a>
</g>
</g>
<!-- Node2&#45;&gt;Node1 -->
<g id="edge1_Node000001_Node000002" class="edge">
<title>Node2&#45;&gt;Node1</title>
<g id="a_edge1_Node000001_Node000002"><a xlink:title=" ">
<path fill="none" stroke="#63b8ff" d="M343.03,-113.25C351.17,-113.25 359.46,-113.25 367.36,-113.25"/>
<polygon fill="#63b8ff" stroke="#63b8ff" points="343.2,-109.75 333.2,-113.25 343.2,-116.75 343.2,-109.75"/>
</a>
</g>
</g>
<!-- Node3 -->
<g id="Node000003" class="node">
<title>Node3</title>
<g id="a_Node000003"><a xlink:href="classtriton_1_1exceptions_1_1Exception.html" target="_top" xlink:title="The root class of all exceptions.">
<polygon fill="white" stroke="#666666" points="204.5,-128.5 113.5,-128.5 113.5,-98 204.5,-98 204.5,-128.5"/>
<text text-anchor="start" x="121.5" y="-115" font-family="Helvetica,sans-Serif" font-size="10.00">triton::exceptions</text>
<text text-anchor="middle" x="159" y="-103.75" font-family="Helvetica,sans-Serif" font-size="10.00">::Exception</text>
</a>
</g>
</g>
<!-- Node3&#45;&gt;Node2 -->
<g id="edge2_Node000002_Node000003" class="edge">
<title>Node3&#45;&gt;Node2</title>
<g id="a_edge2_Node000002_Node000003"><a xlink:title=" ">
<path fill="none" stroke="#63b8ff" d="M216.03,-113.25C224.09,-113.25 232.31,-113.25 240.12,-113.25"/>
<polygon fill="#63b8ff" stroke="#63b8ff" points="216.29,-109.75 206.29,-113.25 216.29,-116.75 216.29,-109.75"/>
</a>
</g>
</g>
<!-- Node4 -->
<g id="Node000004" class="node">
<title>Node4</title>
<g id="a_Node000004"><a xlink:title=" ">
<polygon fill="white" stroke="#bfbfbf" points="77.5,-122.88 0,-122.88 0,-103.62 77.5,-103.62 77.5,-122.88"/>
<text text-anchor="middle" x="38.75" y="-109.38" font-family="Helvetica,sans-Serif" font-size="10.00">std::exception</text>
</a>
</g>
</g>
<!-- Node4&#45;&gt;Node3 -->
<g id="edge3_Node000003_Node000004" class="edge">
<title>Node4&#45;&gt;Node3</title>
<g id="a_edge3_Node000003_Node000004"><a xlink:title=" ">
<path fill="none" stroke="#63b8ff" d="M89.29,-113.25C97.3,-113.25 105.54,-113.25 113.41,-113.25"/>
<polygon fill="#63b8ff" stroke="#63b8ff" points="89.33,-109.75 79.33,-113.25 89.33,-116.75 89.33,-109.75"/>
</a>
</g>
</g>
</g>
</svg>
