<?xml version="1.0" encoding="UTF-8" standalone="no"?>
<!DOCTYPE svg PUBLIC "-//W3C//DTD SVG 1.1//EN"
 "http://www.w3.org/Graphics/SVG/1.1/DTD/svg11.dtd">
<!-- Generated by graphviz version 12.1.0 (20240811.2233)
 -->
<!-- Title: triton::arch::Register Pages: 1 -->
<svg width="256pt" height="94pt"
 viewBox="0.00 0.00 255.62 93.75" xmlns="http://www.w3.org/2000/svg" xmlns:xlink="http://www.w3.org/1999/xlink">
<g id="graph0" class="graph" transform="scale(1 1) rotate(0) translate(4 89.75)">
<title>triton::arch::Register</title>
<!-- Node1 -->
<g id="Node000001" class="node">
<title>Node1</title>
<g id="a_Node000001"><a xlink:title="This class is used when an instruction has a register operand.">
<polygon fill="#999999" stroke="#666666" points="175.75,-19.25 70.5,-19.25 70.5,0 175.75,0 175.75,-19.25"/>
<text text-anchor="middle" x="123.12" y="-5.75" font-family="Helvetica,sans-Serif" font-size="10.00">triton::arch::Register</text>
</a>
</g>
</g>
<!-- Node2 -->
<g id="Node000002" class="node">
<title>Node2</title>
<g id="a_Node000002"><a xlink:href="classtriton_1_1arch_1_1BitsVector.html" target="_top" xlink:title="This class is used to deal with registers and memory as bits vector.">
<polygon fill="white" stroke="#666666" points="114.25,-80.12 0,-80.12 0,-60.88 114.25,-60.88 114.25,-80.12"/>
<text text-anchor="middle" x="57.12" y="-66.62" font-family="Helvetica,sans-Serif" font-size="10.00">triton::arch::BitsVector</text>
</a>
</g>
</g>
<!-- Node2&#45;&gt;Node1 -->
<g id="edge1_Node000001_Node000002" class="edge">
<title>Node2&#45;&gt;Node1</title>
<g id="a_edge1_Node000001_Node000002"><a xlink:title=" ">
<path fill="none" stroke="#63b8ff" d="M75.63,-52.99C87.73,-42.2 103.09,-28.5 113.01,-19.65"/>
<polygon fill="#63b8ff" stroke="#63b8ff" points="73.41,-50.28 68.28,-59.55 78.07,-55.51 73.41,-50.28"/>
</a>
</g>
</g>
<!-- Node3 -->
<g id="Node000003" class="node">
<title>Node3</title>
<g id="a_Node000003"><a xlink:href="classtriton_1_1arch_1_1arm_1_1ArmOperandProperties.html" target="_top" xlink:title="This class is used to represent specific properties of an Arm operand.">
<polygon fill="white" stroke="#666666" points="247.62,-85.75 132.62,-85.75 132.62,-55.25 247.62,-55.25 247.62,-85.75"/>
<text text-anchor="start" x="140.62" y="-72.25" font-family="Helvetica,sans-Serif" font-size="10.00">triton::arch::arm::</text>
<text text-anchor="middle" x="190.12" y="-61" font-family="Helvetica,sans-Serif" font-size="10.00">ArmOperandProperties</text>
</a>
</g>
</g>
<!-- Node3&#45;&gt;Node1 -->
<g id="edge2_Node000001_Node000003" class="edge">
<title>Node3&#45;&gt;Node1</title>
<g id="a_edge2_Node000001_Node000003"><a xlink:title=" ">
<path fill="none" stroke="#63b8ff" d="M165.14,-47.55C154.17,-37.9 141.89,-27.11 133.45,-19.7"/>
<polygon fill="#63b8ff" stroke="#63b8ff" points="162.6,-49.98 172.43,-53.95 167.22,-44.72 162.6,-49.98"/>
</a>
</g>
</g>
</g>
</svg>
