<?xml version="1.0" encoding="UTF-8" standalone="no"?>
<!DOCTYPE svg PUBLIC "-//W3C//DTD SVG 1.1//EN"
 "http://www.w3.org/Graphics/SVG/1.1/DTD/svg11.dtd">
<!-- Generated by graphviz version 7.0.0 (20221023.0053)
 -->
<!-- Title: triton::arch::arm::ArmOperandProperties Pages: 1 -->
<svg width="248pt" height="93pt"
 viewBox="0.00 0.00 247.50 93.00" xmlns="http://www.w3.org/2000/svg" xmlns:xlink="http://www.w3.org/1999/xlink">
<g id="graph0" class="graph" transform="scale(1 1) rotate(0) translate(4 89)">
<title>triton::arch::arm::ArmOperandProperties</title>
<!-- Node1 -->
<g id="node1" class="node">
<title>Node1</title>
<g id="a_node1"><a xlink:title="This class is used to represent specific properties of an Arm operand.">
<polygon fill="#999999" stroke="#666666" points="179.5,-85 63.5,-85 63.5,-55 179.5,-55 179.5,-85"/>
<text text-anchor="start" x="71.5" y="-73" font-family="Helvetica,sans-Serif" font-size="10.00">triton::arch::arm::</text>
<text text-anchor="middle" x="121.5" y="-62" font-family="Helvetica,sans-Serif" font-size="10.00">ArmOperandProperties</text>
</a>
</g>
</g>
<!-- Node2 -->
<g id="node2" class="node">
<title>Node2</title>
<g id="a_node2"><a xlink:href="classtriton_1_1arch_1_1Immediate.html" target="_top" xlink:title="This class is used to represent an immediate.">
<polygon fill="white" stroke="#666666" points="115,-19 0,-19 0,0 115,0 115,-19"/>
<text text-anchor="middle" x="57.5" y="-7" font-family="Helvetica,sans-Serif" font-size="10.00">triton::arch::Immediate</text>
</a>
</g>
</g>
<!-- Node1&#45;&gt;Node2 -->
<g id="edge1" class="edge">
<title>Node1&#45;&gt;Node2</title>
<path fill="none" stroke="#63b8ff" d="M97.22,-46.8C86.68,-37.17 74.95,-26.45 66.99,-19.18"/>
<polygon fill="#63b8ff" stroke="#63b8ff" points="94.82,-49.35 104.56,-53.52 99.54,-44.19 94.82,-49.35"/>
</g>
<!-- Node3 -->
<g id="node3" class="node">
<title>Node3</title>
<g id="a_node3"><a xlink:href="classtriton_1_1arch_1_1Register.html" target="_top" xlink:title="This class is used when an instruction has a register operand.">
<polygon fill="white" stroke="#666666" points="239.5,-19 133.5,-19 133.5,0 239.5,0 239.5,-19"/>
<text text-anchor="middle" x="186.5" y="-7" font-family="Helvetica,sans-Serif" font-size="10.00">triton::arch::Register</text>
</a>
</g>
</g>
<!-- Node1&#45;&gt;Node3 -->
<g id="edge2" class="edge">
<title>Node1&#45;&gt;Node3</title>
<path fill="none" stroke="#63b8ff" d="M145.84,-47.09C156.63,-37.38 168.7,-26.52 176.86,-19.18"/>
<polygon fill="#63b8ff" stroke="#63b8ff" points="143.78,-44.24 138.69,-53.53 148.47,-49.44 143.78,-44.24"/>
</g>
</g>
</svg>
