<?xml version="1.0" encoding="UTF-8" standalone="no"?>
<!DOCTYPE svg PUBLIC "-//W3C//DTD SVG 1.1//EN"
 "http://www.w3.org/Graphics/SVG/1.1/DTD/svg11.dtd">
<!-- Generated by graphviz version 11.0.0 (20240428.1522)
 -->
<!-- Title: triton::arch::arm::aarch64::AArch64Cpu Pages: 1 -->
<svg width="306pt" height="105pt"
 viewBox="0.00 0.00 306.12 105.00" xmlns="http://www.w3.org/2000/svg" xmlns:xlink="http://www.w3.org/1999/xlink">
<g id="graph0" class="graph" transform="scale(1 1) rotate(0) translate(4 101)">
<title>triton::arch::arm::aarch64::AArch64Cpu</title>
<!-- Node1 -->
<g id="Node000001" class="node">
<title>Node1</title>
<g id="a_Node000001"><a xlink:title="This class is used to describe the ARM (64&#45;bits) spec.">
<polygon fill="#999999" stroke="#666666" points="197.38,-30.5 85.38,-30.5 85.38,0 197.38,0 197.38,-30.5"/>
<text text-anchor="start" x="93.38" y="-17" font-family="Helvetica,sans-Serif" font-size="10.00">triton::arch::arm::</text>
<text text-anchor="middle" x="141.38" y="-5.75" font-family="Helvetica,sans-Serif" font-size="10.00">aarch64::AArch64Cpu</text>
</a>
</g>
</g>
<!-- Node2 -->
<g id="Node000002" class="node">
<title>Node2</title>
<g id="a_Node000002"><a xlink:href="classtriton_1_1arch_1_1CpuInterface.html" target="_top" xlink:title="This interface is used as abstract CPU interface. All CPU must use this interface.">
<polygon fill="white" stroke="#666666" points="124.75,-91.38 0,-91.38 0,-72.12 124.75,-72.12 124.75,-91.38"/>
<text text-anchor="middle" x="62.38" y="-77.88" font-family="Helvetica,sans-Serif" font-size="10.00">triton::arch::CpuInterface</text>
</a>
</g>
</g>
<!-- Node2&#45;&gt;Node1 -->
<g id="edge1_Node000001_Node000002" class="edge">
<title>Node2&#45;&gt;Node1</title>
<g id="a_edge1_Node000001_Node000002"><a xlink:title=" ">
<path fill="none" stroke="#63b8ff" d="M82.23,-64.54C94.91,-54.19 111.22,-40.87 123.5,-30.84"/>
<polygon fill="#63b8ff" stroke="#63b8ff" points="80.06,-61.79 74.53,-70.82 84.49,-67.21 80.06,-61.79"/>
</a>
</g>
</g>
<!-- Node3 -->
<g id="Node000003" class="node">
<title>Node3</title>
<g id="a_Node000003"><a xlink:href="classtriton_1_1arch_1_1arm_1_1aarch64_1_1AArch64Specifications.html" target="_top" xlink:title="The AArch64Specifications class defines specifications about the AArch64 CPU.">
<polygon fill="white" stroke="#666666" points="298.12,-97 142.62,-97 142.62,-66.5 298.12,-66.5 298.12,-97"/>
<text text-anchor="start" x="150.62" y="-83.5" font-family="Helvetica,sans-Serif" font-size="10.00">triton::arch::arm::</text>
<text text-anchor="middle" x="220.38" y="-72.25" font-family="Helvetica,sans-Serif" font-size="10.00">aarch64::AArch64Specifications</text>
</a>
</g>
</g>
<!-- Node3&#45;&gt;Node1 -->
<g id="edge2_Node000001_Node000003" class="edge">
<title>Node3&#45;&gt;Node1</title>
<g id="a_edge2_Node000001_Node000003"><a xlink:title=" ">
<path fill="none" stroke="#63b8ff" d="M193.76,-59.02C182.39,-49.73 169.42,-39.15 159.23,-30.83"/>
<polygon fill="#63b8ff" stroke="#63b8ff" points="191.32,-61.54 201.28,-65.16 195.74,-56.12 191.32,-61.54"/>
</a>
</g>
</g>
</g>
</svg>
