<?xml version="1.0" encoding="UTF-8" standalone="no"?>
<!DOCTYPE svg PUBLIC "-//W3C//DTD SVG 1.1//EN"
 "http://www.w3.org/Graphics/SVG/1.1/DTD/svg11.dtd">
<!-- Generated by graphviz version 7.0.0 (20221023.0053)
 -->
<!-- Title: util::dynamic_array&lt; ValueType, AllocatorType, SizeType, DiffType &gt; Pages: 1 -->
<svg width="402pt" height="120pt"
 viewBox="0.00 0.00 402.00 119.50" xmlns="http://www.w3.org/2000/svg" xmlns:xlink="http://www.w3.org/1999/xlink">
<g id="graph0" class="graph" transform="scale(1 1) rotate(0) translate(4 115.5)">
<title>util::dynamic_array&lt; ValueType, AllocatorType, SizeType, DiffType &gt;</title>
<!-- Node1 -->
<g id="node1" class="node">
<title>Node1</title>
<g id="a_node1"><a xlink:title=" ">
<polygon fill="#999999" stroke="#666666" points="138,-73 0,-73 0,-32 138,-32 138,-73"/>
<text text-anchor="start" x="8" y="-61" font-family="Helvetica,sans-Serif" font-size="10.00">util::dynamic_array</text>
<text text-anchor="start" x="8" y="-50" font-family="Helvetica,sans-Serif" font-size="10.00">&lt; ValueType, AllocatorType,</text>
<text text-anchor="middle" x="69" y="-39" font-family="Helvetica,sans-Serif" font-size="10.00"> SizeType, DiffType &gt;</text>
</a>
</g>
</g>
<!-- Node2 -->
<g id="node2" class="node">
<title>Node2</title>
<g id="a_node2"><a xlink:href="classmath_1_1wide__integer_1_1detail_1_1fixed__dynamic__array.html" target="_top" xlink:title=" ">
<polygon fill="white" stroke="#bfbfbf" points="394,-111.5 265,-111.5 265,-59.5 394,-59.5 394,-111.5"/>
<text text-anchor="start" x="273" y="-99.5" font-family="Helvetica,sans-Serif" font-size="10.00">math::wide_integer</text>
<text text-anchor="start" x="273" y="-88.5" font-family="Helvetica,sans-Serif" font-size="10.00">::detail::fixed_dynamic</text>
<text text-anchor="start" x="273" y="-77.5" font-family="Helvetica,sans-Serif" font-size="10.00">_array&lt; MyType, MySize,</text>
<text text-anchor="middle" x="329.5" y="-66.5" font-family="Helvetica,sans-Serif" font-size="10.00"> MyAlloc &gt;</text>
</a>
</g>
</g>
<!-- Node1&#45;&gt;Node2 -->
<g id="edge1" class="edge">
<title>Node1&#45;&gt;Node2</title>
<path fill="none" stroke="#63b8ff" d="M149.78,-66.61C151.87,-66.92 153.95,-67.21 156,-67.5 191.94,-72.5 232.26,-76.78 264.88,-79.91"/>
<polygon fill="#63b8ff" stroke="#63b8ff" points="150.38,-63.16 139.96,-65.11 149.32,-70.08 150.38,-63.16"/>
</g>
<!-- Node3 -->
<g id="node3" class="node">
<title>Node3</title>
<g id="a_node3"><a xlink:href="classutil_1_1dynamic__array.html" target="_top" xlink:title=" ">
<polygon fill="white" stroke="#bfbfbf" points="392,-41 267,-41 267,0 392,0 392,-41"/>
<text text-anchor="start" x="275" y="-29" font-family="Helvetica,sans-Serif" font-size="10.00">util::dynamic_array</text>
<text text-anchor="start" x="275" y="-18" font-family="Helvetica,sans-Serif" font-size="10.00">&lt; MyType, MyAlloc, size</text>
<text text-anchor="middle" x="329.5" y="-7" font-family="Helvetica,sans-Serif" font-size="10.00">_t, ptrdiff_t &gt;</text>
</a>
</g>
</g>
<!-- Node1&#45;&gt;Node3 -->
<g id="edge2" class="edge">
<title>Node1&#45;&gt;Node3</title>
<path fill="none" stroke="orange" stroke-dasharray="5,2" d="M149.21,-42.69C186.9,-38.03 231.31,-32.53 266.5,-28.17"/>
<polygon fill="orange" stroke="orange" points="149.25,-39.16 139.76,-43.86 150.11,-46.11 149.25,-39.16"/>
<text text-anchor="start" x="156" y="-55.5" font-family="Helvetica,sans-Serif" font-size="10.00"> &lt; MyType, MyAlloc,</text>
<text text-anchor="middle" x="201.5" y="-44.5" font-family="Helvetica,sans-Serif" font-size="10.00"> size_t, ptrdiff_t &gt;</text>
</g>
</g>
</svg>
