<?xml version="1.0" encoding="UTF-8" standalone="no"?>
<!DOCTYPE svg PUBLIC "-//W3C//DTD SVG 1.1//EN"
 "http://www.w3.org/Graphics/SVG/1.1/DTD/svg11.dtd">
<!-- Generated by graphviz version 11.0.0 (20240428.1522)
 -->
<!-- Title: triton::arch::riscv::riscv64Cpu Pages: 1 -->
<svg width="256pt" height="105pt"
 viewBox="0.00 0.00 255.62 105.00" xmlns="http://www.w3.org/2000/svg" xmlns:xlink="http://www.w3.org/1999/xlink">
<g id="graph0" class="graph" transform="scale(1 1) rotate(0) translate(4 101)">
<title>triton::arch::riscv::riscv64Cpu</title>
<!-- Node1 -->
<g id="Node000001" class="node">
<title>Node1</title>
<g id="a_Node000001"><a xlink:title="This class is used to describe the RV64 spec.">
<polygon fill="#999999" stroke="#666666" points="173.12,-30.5 83.62,-30.5 83.62,0 173.12,0 173.12,-30.5"/>
<text text-anchor="start" x="91.62" y="-17" font-family="Helvetica,sans-Serif" font-size="10.00">triton::arch::riscv</text>
<text text-anchor="middle" x="128.38" y="-5.75" font-family="Helvetica,sans-Serif" font-size="10.00">::riscv64Cpu</text>
</a>
</g>
</g>
<!-- Node2 -->
<g id="Node000002" class="node">
<title>Node2</title>
<g id="a_Node000002"><a xlink:href="$classtriton_1_1arch_1_1CpuInterface.html" xlink:title="This interface is used as abstract CPU interface. All CPU must use this interface.">
<polygon fill="white" stroke="#666666" points="124.75,-91.38 0,-91.38 0,-72.12 124.75,-72.12 124.75,-91.38"/>
<text text-anchor="middle" x="62.38" y="-77.88" font-family="Helvetica,sans-Serif" font-size="10.00">triton::arch::CpuInterface</text>
</a>
</g>
</g>
<!-- Node2&#45;&gt;Node1 -->
<g id="edge1_Node000001_Node000002" class="edge">
<title>Node2&#45;&gt;Node1</title>
<g id="a_edge1_Node000001_Node000002"><a xlink:title=" ">
<path fill="none" stroke="#63b8ff" d="M79.64,-63.87C90.23,-53.53 103.63,-40.43 113.7,-30.59"/>
<polygon fill="#63b8ff" stroke="#63b8ff" points="77.34,-61.23 72.63,-70.72 82.23,-66.24 77.34,-61.23"/>
</a>
</g>
</g>
<!-- Node3 -->
<g id="Node000003" class="node">
<title>Node3</title>
<g id="a_Node000003"><a xlink:href="$classtriton_1_1arch_1_1riscv_1_1riscvSpecifications.html" xlink:title="The riscvSpecifications class defines specifications about the RV32 and RV64 CPU.">
<polygon fill="white" stroke="#666666" points="247.62,-97 143.12,-97 143.12,-66.5 247.62,-66.5 247.62,-97"/>
<text text-anchor="start" x="151.12" y="-83.5" font-family="Helvetica,sans-Serif" font-size="10.00">triton::arch::riscv</text>
<text text-anchor="middle" x="195.38" y="-72.25" font-family="Helvetica,sans-Serif" font-size="10.00">::riscvSpecifications</text>
</a>
</g>
</g>
<!-- Node3&#45;&gt;Node1 -->
<g id="edge2_Node000001_Node000003" class="edge">
<title>Node3&#45;&gt;Node1</title>
<g id="a_edge2_Node000001_Node000003"><a xlink:title=" ">
<path fill="none" stroke="#63b8ff" d="M171.94,-58.19C162.51,-49.11 151.9,-38.9 143.52,-30.83"/>
<polygon fill="#63b8ff" stroke="#63b8ff" points="169.45,-60.65 179.08,-65.06 174.3,-55.61 169.45,-60.65"/>
</a>
</g>
</g>
</g>
</svg>
