<?xml version="1.0" encoding="UTF-8" standalone="no"?>
<!DOCTYPE svg PUBLIC "-//W3C//DTD SVG 1.1//EN"
 "http://www.w3.org/Graphics/SVG/1.1/DTD/svg11.dtd">
<!-- Generated by graphviz version 2.49.0 (20210828.1703)
 -->
<!-- Title: triton::exceptions::Semantics Pages: 1 -->
<svg width="135pt" height="285pt"
 viewBox="0.00 0.00 135.00 285.00" xmlns="http://www.w3.org/2000/svg" xmlns:xlink="http://www.w3.org/1999/xlink">
<g id="graph0" class="graph" transform="scale(1 1) rotate(0) translate(4 281)">
<title>triton::exceptions::Semantics</title>
<polygon fill="white" stroke="transparent" points="-4,4 -4,-281 131,-281 131,4 -4,4"/>
<!-- Node1 -->
<g id="node1" class="node">
<title>Node1</title>
<g id="a_node1"><a xlink:title="The exception class used by all semantics.">
<polygon fill="#bfbfbf" stroke="black" points="12.5,-0.5 12.5,-30.5 114.5,-30.5 114.5,-0.5 12.5,-0.5"/>
<text text-anchor="start" x="20.5" y="-18.5" font-family="Helvetica,sans-Serif" font-size="10.00">triton::exceptions</text>
<text text-anchor="middle" x="63.5" y="-7.5" font-family="Helvetica,sans-Serif" font-size="10.00">::Semantics</text>
</a>
</g>
</g>
<!-- Node2 -->
<g id="node2" class="node">
<title>Node2</title>
<g id="a_node2"><a xlink:href="classtriton_1_1exceptions_1_1Cpu.html" target="_top" xlink:title="The exception class used by all CPUs.">
<polygon fill="white" stroke="black" points="0,-67.5 0,-86.5 127,-86.5 127,-67.5 0,-67.5"/>
<text text-anchor="middle" x="63.5" y="-74.5" font-family="Helvetica,sans-Serif" font-size="10.00">triton::exceptions::Cpu</text>
</a>
</g>
</g>
<!-- Node2&#45;&gt;Node1 -->
<g id="edge1" class="edge">
<title>Node2&#45;&gt;Node1</title>
<path fill="none" stroke="midnightblue" d="M63.5,-57.23C63.5,-48.59 63.5,-38.5 63.5,-30.52"/>
<polygon fill="midnightblue" stroke="midnightblue" points="60,-57.48 63.5,-67.48 67,-57.48 60,-57.48"/>
</g>
<!-- Node3 -->
<g id="node3" class="node">
<title>Node3</title>
<g id="a_node3"><a xlink:href="classtriton_1_1exceptions_1_1Architecture.html" target="_top" xlink:title="The exception class used by architectures.">
<polygon fill="white" stroke="black" points="12.5,-123.5 12.5,-153.5 114.5,-153.5 114.5,-123.5 12.5,-123.5"/>
<text text-anchor="start" x="20.5" y="-141.5" font-family="Helvetica,sans-Serif" font-size="10.00">triton::exceptions</text>
<text text-anchor="middle" x="63.5" y="-130.5" font-family="Helvetica,sans-Serif" font-size="10.00">::Architecture</text>
</a>
</g>
</g>
<!-- Node3&#45;&gt;Node2 -->
<g id="edge2" class="edge">
<title>Node3&#45;&gt;Node2</title>
<path fill="none" stroke="midnightblue" d="M63.5,-113.29C63.5,-103.86 63.5,-93.65 63.5,-86.66"/>
<polygon fill="midnightblue" stroke="midnightblue" points="60,-113.4 63.5,-123.4 67,-113.4 60,-113.4"/>
</g>
<!-- Node4 -->
<g id="node4" class="node">
<title>Node4</title>
<g id="a_node4"><a xlink:href="classtriton_1_1exceptions_1_1Exception.html" target="_top" xlink:title="The root class of all exceptions.">
<polygon fill="white" stroke="black" points="12.5,-190.5 12.5,-220.5 114.5,-220.5 114.5,-190.5 12.5,-190.5"/>
<text text-anchor="start" x="20.5" y="-208.5" font-family="Helvetica,sans-Serif" font-size="10.00">triton::exceptions</text>
<text text-anchor="middle" x="63.5" y="-197.5" font-family="Helvetica,sans-Serif" font-size="10.00">::Exception</text>
</a>
</g>
</g>
<!-- Node4&#45;&gt;Node3 -->
<g id="edge3" class="edge">
<title>Node4&#45;&gt;Node3</title>
<path fill="none" stroke="midnightblue" d="M63.5,-180.11C63.5,-171.15 63.5,-161.32 63.5,-153.58"/>
<polygon fill="midnightblue" stroke="midnightblue" points="60,-180.4 63.5,-190.4 67,-180.4 60,-180.4"/>
</g>
<!-- Node5 -->
<g id="node5" class="node">
<title>Node5</title>
<g id="a_node5"><a xlink:title=" ">
<polygon fill="white" stroke="#bfbfbf" points="20.5,-257.5 20.5,-276.5 106.5,-276.5 106.5,-257.5 20.5,-257.5"/>
<text text-anchor="middle" x="63.5" y="-264.5" font-family="Helvetica,sans-Serif" font-size="10.00">std::exception</text>
</a>
</g>
</g>
<!-- Node5&#45;&gt;Node4 -->
<g id="edge4" class="edge">
<title>Node5&#45;&gt;Node4</title>
<path fill="none" stroke="midnightblue" d="M63.5,-247.23C63.5,-238.59 63.5,-228.5 63.5,-220.52"/>
<polygon fill="midnightblue" stroke="midnightblue" points="60,-247.48 63.5,-257.48 67,-247.48 60,-247.48"/>
</g>
</g>
</svg>
