<?xml version="1.0" encoding="UTF-8" standalone="no"?>
<!DOCTYPE svg PUBLIC "-//W3C//DTD SVG 1.1//EN"
 "http://www.w3.org/Graphics/SVG/1.1/DTD/svg11.dtd">
<!-- Generated by graphviz version 12.1.0 (20240811.2233)
 -->
<!-- Title: triton::arch::SemanticsInterface Pages: 1 -->
<svg width="338pt" height="186pt"
 viewBox="0.00 0.00 337.75 185.50" xmlns="http://www.w3.org/2000/svg" xmlns:xlink="http://www.w3.org/1999/xlink">
<g id="graph0" class="graph" transform="scale(1 1) rotate(0) translate(4 181.5)">
<title>triton::arch::SemanticsInterface</title>
<!-- Node1 -->
<g id="Node000001" class="node">
<title>Node1</title>
<g id="a_Node000001"><a xlink:title="This interface is used as abstract semantics interface. All ISA semantics must use this interface.">
<polygon fill="#999999" stroke="#666666" points="153.25,-97.88 0,-97.88 0,-78.62 153.25,-78.62 153.25,-97.88"/>
<text text-anchor="middle" x="76.62" y="-84.38" font-family="Helvetica,sans-Serif" font-size="10.00">triton::arch::SemanticsInterface</text>
</a>
</g>
</g>
<!-- Node2 -->
<g id="Node000002" class="node">
<title>Node2</title>
<g id="a_Node000002"><a xlink:href="classtriton_1_1arch_1_1arm_1_1aarch64_1_1AArch64Semantics.html" target="_top" xlink:title="The AArch64 ISA semantics.">
<polygon fill="white" stroke="#666666" points="329.75,-177.5 189.25,-177.5 189.25,-147 329.75,-147 329.75,-177.5"/>
<text text-anchor="start" x="197.25" y="-164" font-family="Helvetica,sans-Serif" font-size="10.00">triton::arch::arm::</text>
<text text-anchor="middle" x="259.5" y="-152.75" font-family="Helvetica,sans-Serif" font-size="10.00">aarch64::AArch64Semantics</text>
</a>
</g>
</g>
<!-- Node1&#45;&gt;Node2 -->
<g id="edge1_Node000001_Node000002" class="edge">
<title>Node1&#45;&gt;Node2</title>
<g id="a_edge1_Node000001_Node000002"><a xlink:title=" ">
<path fill="none" stroke="#63b8ff" d="M109.45,-102.9C131.65,-112.95 162.06,-126.39 189.25,-137.25 197.08,-140.38 205.48,-143.56 213.63,-146.55"/>
<polygon fill="#63b8ff" stroke="#63b8ff" points="111.19,-99.85 100.64,-98.89 108.29,-106.22 111.19,-99.85"/>
</a>
</g>
</g>
<!-- Node3 -->
<g id="Node000003" class="node">
<title>Node3</title>
<g id="a_Node000003"><a xlink:href="classtriton_1_1arch_1_1arm_1_1arm32_1_1Arm32Semantics.html" target="_top" xlink:title="The Arm32 ISA semantics.">
<polygon fill="white" stroke="#666666" points="321.5,-128.5 197.5,-128.5 197.5,-98 321.5,-98 321.5,-128.5"/>
<text text-anchor="start" x="205.5" y="-115" font-family="Helvetica,sans-Serif" font-size="10.00">triton::arch::arm::</text>
<text text-anchor="middle" x="259.5" y="-103.75" font-family="Helvetica,sans-Serif" font-size="10.00">arm32::Arm32Semantics</text>
</a>
</g>
</g>
<!-- Node1&#45;&gt;Node3 -->
<g id="edge2_Node000001_Node000003" class="edge">
<title>Node1&#45;&gt;Node3</title>
<g id="a_edge2_Node000001_Node000003"><a xlink:title=" ">
<path fill="none" stroke="#63b8ff" d="M161.95,-99.91C173.79,-101.54 185.77,-103.2 197.07,-104.76"/>
<polygon fill="#63b8ff" stroke="#63b8ff" points="162.56,-96.46 152.17,-98.55 161.6,-103.39 162.56,-96.46"/>
</a>
</g>
</g>
<!-- Node4 -->
<g id="Node000004" class="node">
<title>Node4</title>
<g id="a_Node000004"><a xlink:href="classtriton_1_1arch_1_1riscv_1_1riscvSemantics.html" target="_top" xlink:title="The RISCV ISA semantics.">
<polygon fill="white" stroke="#666666" points="304.25,-79.5 214.75,-79.5 214.75,-49 304.25,-49 304.25,-79.5"/>
<text text-anchor="start" x="222.75" y="-66" font-family="Helvetica,sans-Serif" font-size="10.00">triton::arch::riscv</text>
<text text-anchor="middle" x="259.5" y="-54.75" font-family="Helvetica,sans-Serif" font-size="10.00">::riscvSemantics</text>
</a>
</g>
</g>
<!-- Node1&#45;&gt;Node4 -->
<g id="edge3_Node000001_Node000004" class="edge">
<title>Node1&#45;&gt;Node4</title>
<g id="a_edge3_Node000001_Node000004"><a xlink:title=" ">
<path fill="none" stroke="#63b8ff" d="M164.77,-76.69C181.93,-74.41 199.25,-72.11 214.25,-70.12"/>
<polygon fill="#63b8ff" stroke="#63b8ff" points="164.5,-73.19 155.05,-77.98 165.42,-80.13 164.5,-73.19"/>
</a>
</g>
</g>
<!-- Node5 -->
<g id="Node000005" class="node">
<title>Node5</title>
<g id="a_Node000005"><a xlink:href="classtriton_1_1arch_1_1x86_1_1x86Semantics.html" target="_top" xlink:title="The x86 ISA semantics.">
<polygon fill="white" stroke="#666666" points="304.62,-30.5 214.38,-30.5 214.38,0 304.62,0 304.62,-30.5"/>
<text text-anchor="start" x="222.38" y="-17" font-family="Helvetica,sans-Serif" font-size="10.00">triton::arch::x86::</text>
<text text-anchor="middle" x="259.5" y="-5.75" font-family="Helvetica,sans-Serif" font-size="10.00">x86Semantics</text>
</a>
</g>
</g>
<!-- Node1&#45;&gt;Node5 -->
<g id="edge4_Node000001_Node000005" class="edge">
<title>Node1&#45;&gt;Node5</title>
<g id="a_edge4_Node000001_Node000005"><a xlink:title=" ">
<path fill="none" stroke="#63b8ff" d="M110.2,-73.63C132.35,-63.85 162.4,-50.86 189.25,-40.25 197.21,-37.1 205.75,-33.89 214.02,-30.86"/>
<polygon fill="#63b8ff" stroke="#63b8ff" points="108.8,-70.42 101.08,-77.68 111.64,-76.82 108.8,-70.42"/>
</a>
</g>
</g>
</g>
</svg>
