<?xml version="1.0" encoding="UTF-8" standalone="no"?>
<!DOCTYPE svg PUBLIC "-//W3C//DTD SVG 1.1//EN"
 "http://www.w3.org/Graphics/SVG/1.1/DTD/svg11.dtd">
<!-- Generated by graphviz version 11.0.0 (20240428.1522)
 -->
<!-- Title: triton::arch::x86::x86Specifications Pages: 1 -->
<svg width="206pt" height="105pt"
 viewBox="0.00 0.00 206.25 105.00" xmlns="http://www.w3.org/2000/svg" xmlns:xlink="http://www.w3.org/1999/xlink">
<g id="graph0" class="graph" transform="scale(1 1) rotate(0) translate(4 101)">
<title>triton::arch::x86::x86Specifications</title>
<!-- Node1 -->
<g id="Node000001" class="node">
<title>Node1</title>
<g id="a_Node000001"><a xlink:title="The x86Specifications class defines specifications about the x86 and x86_64 CPU.">
<polygon fill="#999999" stroke="#666666" points="145.75,-97 52.5,-97 52.5,-66.5 145.75,-66.5 145.75,-97"/>
<text text-anchor="start" x="60.5" y="-83.5" font-family="Helvetica,sans-Serif" font-size="10.00">triton::arch::x86::</text>
<text text-anchor="middle" x="99.12" y="-72.25" font-family="Helvetica,sans-Serif" font-size="10.00">x86Specifications</text>
</a>
</g>
</g>
<!-- Node2 -->
<g id="Node000002" class="node">
<title>Node2</title>
<g id="a_Node000002"><a xlink:href="$classtriton_1_1arch_1_1x86_1_1x8664Cpu.html" xlink:title="This class is used to describe the x86 (64&#45;bits) spec.">
<polygon fill="white" stroke="#666666" points="90.25,-30.5 0,-30.5 0,0 90.25,0 90.25,-30.5"/>
<text text-anchor="start" x="8" y="-17" font-family="Helvetica,sans-Serif" font-size="10.00">triton::arch::x86::</text>
<text text-anchor="middle" x="45.12" y="-5.75" font-family="Helvetica,sans-Serif" font-size="10.00">x8664Cpu</text>
</a>
</g>
</g>
<!-- Node1&#45;&gt;Node2 -->
<g id="edge1_Node000001_Node000002" class="edge">
<title>Node1&#45;&gt;Node2</title>
<g id="a_edge1_Node000001_Node000002"><a xlink:title=" ">
<path fill="none" stroke="#63b8ff" d="M79.53,-57.35C72.11,-48.48 63.88,-38.65 57.33,-30.83"/>
<polygon fill="#63b8ff" stroke="#63b8ff" points="76.8,-59.53 85.9,-64.95 82.16,-55.04 76.8,-59.53"/>
</a>
</g>
</g>
<!-- Node3 -->
<g id="Node000003" class="node">
<title>Node3</title>
<g id="a_Node000003"><a xlink:href="$classtriton_1_1arch_1_1x86_1_1x86Cpu.html" xlink:title="This class is used to describe the x86 (32&#45;bits) spec.">
<polygon fill="white" stroke="#666666" points="198.25,-30.5 108,-30.5 108,0 198.25,0 198.25,-30.5"/>
<text text-anchor="start" x="116" y="-17" font-family="Helvetica,sans-Serif" font-size="10.00">triton::arch::x86::</text>
<text text-anchor="middle" x="153.12" y="-5.75" font-family="Helvetica,sans-Serif" font-size="10.00">x86Cpu</text>
</a>
</g>
</g>
<!-- Node1&#45;&gt;Node3 -->
<g id="edge2_Node000001_Node000003" class="edge">
<title>Node1&#45;&gt;Node3</title>
<g id="a_edge2_Node000001_Node000003"><a xlink:title=" ">
<path fill="none" stroke="#63b8ff" d="M118.72,-57.35C126.14,-48.48 134.37,-38.65 140.92,-30.83"/>
<polygon fill="#63b8ff" stroke="#63b8ff" points="116.09,-55.04 112.35,-64.95 121.45,-59.53 116.09,-55.04"/>
</a>
</g>
</g>
</g>
</svg>
