<?xml version="1.0" encoding="UTF-8" standalone="no"?>
<!DOCTYPE svg PUBLIC "-//W3C//DTD SVG 1.1//EN"
 "http://www.w3.org/Graphics/SVG/1.1/DTD/svg11.dtd">
<!-- Generated by graphviz version 2.50.0 (20211204.2007)
 -->
<!-- Title: triton::arch::SemanticsInterface Pages: 1 -->
<svg width="367pt" height="137pt"
 viewBox="0.00 0.00 367.00 137.00" xmlns="http://www.w3.org/2000/svg" xmlns:xlink="http://www.w3.org/1999/xlink">
<g id="graph0" class="graph" transform="scale(1 1) rotate(0) translate(4 133)">
<title>triton::arch::SemanticsInterface</title>
<polygon fill="white" stroke="transparent" points="-4,4 -4,-133 363,-133 363,4 -4,4"/>
<!-- Node1 -->
<g id="node1" class="node">
<title>Node1</title>
<g id="a_node1"><a xlink:title="This interface is used as abstract semantics interface. All ISA semantics must use this interface.">
<polygon fill="#bfbfbf" stroke="black" points="0,-55 0,-74 170,-74 170,-55 0,-55"/>
<text text-anchor="middle" x="85" y="-62" font-family="Helvetica,sans-Serif" font-size="10.00">triton::arch::SemanticsInterface</text>
</a>
</g>
</g>
<!-- Node2 -->
<g id="node2" class="node">
<title>Node2</title>
<g id="a_node2"><a xlink:href="classtriton_1_1arch_1_1arm_1_1aarch64_1_1AArch64Semantics.html" target="_top" xlink:title="The AArch64 ISA semantics.">
<polygon fill="white" stroke="black" points="206,-98.5 206,-128.5 359,-128.5 359,-98.5 206,-98.5"/>
<text text-anchor="start" x="214" y="-116.5" font-family="Helvetica,sans-Serif" font-size="10.00">triton::arch::arm::</text>
<text text-anchor="middle" x="282.5" y="-105.5" font-family="Helvetica,sans-Serif" font-size="10.00">aarch64::AArch64Semantics</text>
</a>
</g>
</g>
<!-- Node1&#45;&gt;Node2 -->
<g id="edge1" class="edge">
<title>Node1&#45;&gt;Node2</title>
<path fill="none" stroke="midnightblue" d="M133.93,-76.51C160.35,-83.14 193.39,-91.42 221.51,-98.46"/>
<polygon fill="midnightblue" stroke="midnightblue" points="134.71,-73.1 124.16,-74.06 133.01,-79.89 134.71,-73.1"/>
</g>
<!-- Node3 -->
<g id="node3" class="node">
<title>Node3</title>
<g id="a_node3"><a xlink:href="classtriton_1_1arch_1_1arm_1_1arm32_1_1Arm32Semantics.html" target="_top" xlink:title="The Arm32 ISA semantics.">
<polygon fill="white" stroke="black" points="214,-49.5 214,-79.5 351,-79.5 351,-49.5 214,-49.5"/>
<text text-anchor="start" x="222" y="-67.5" font-family="Helvetica,sans-Serif" font-size="10.00">triton::arch::arm::</text>
<text text-anchor="middle" x="282.5" y="-56.5" font-family="Helvetica,sans-Serif" font-size="10.00">arm32::Arm32Semantics</text>
</a>
</g>
</g>
<!-- Node1&#45;&gt;Node3 -->
<g id="edge2" class="edge">
<title>Node1&#45;&gt;Node3</title>
<path fill="none" stroke="midnightblue" d="M180.36,-64.5C191.62,-64.5 202.95,-64.5 213.73,-64.5"/>
<polygon fill="midnightblue" stroke="midnightblue" points="180.04,-61 170.04,-64.5 180.04,-68 180.04,-61"/>
</g>
<!-- Node4 -->
<g id="node4" class="node">
<title>Node4</title>
<g id="a_node4"><a xlink:href="classtriton_1_1arch_1_1x86_1_1x86Semantics.html" target="_top" xlink:title="The x86 ISA semantics.">
<polygon fill="white" stroke="black" points="232.5,-0.5 232.5,-30.5 332.5,-30.5 332.5,-0.5 232.5,-0.5"/>
<text text-anchor="start" x="240.5" y="-18.5" font-family="Helvetica,sans-Serif" font-size="10.00">triton::arch::x86::</text>
<text text-anchor="middle" x="282.5" y="-7.5" font-family="Helvetica,sans-Serif" font-size="10.00">x86Semantics</text>
</a>
</g>
</g>
<!-- Node1&#45;&gt;Node4 -->
<g id="edge3" class="edge">
<title>Node1&#45;&gt;Node4</title>
<path fill="none" stroke="midnightblue" d="M133.94,-52.48C163.83,-44.99 202.19,-35.38 232.3,-27.83"/>
<polygon fill="midnightblue" stroke="midnightblue" points="133.01,-49.11 124.16,-54.94 134.71,-55.9 133.01,-49.11"/>
</g>
</g>
</svg>
