<?xml version="1.0" encoding="UTF-8" standalone="no"?>
<!DOCTYPE svg PUBLIC "-//W3C//DTD SVG 1.1//EN"
 "http://www.w3.org/Graphics/SVG/1.1/DTD/svg11.dtd">
<!-- Generated by graphviz version 12.1.0 (20240811.2233)
 -->
<!-- Title: triton::arch::riscv::riscvSpecifications Pages: 1 -->
<svg width="206pt" height="105pt"
 viewBox="0.00 0.00 205.50 105.00" xmlns="http://www.w3.org/2000/svg" xmlns:xlink="http://www.w3.org/1999/xlink">
<g id="graph0" class="graph" transform="scale(1 1) rotate(0) translate(4 101)">
<title>triton::arch::riscv::riscvSpecifications</title>
<!-- Node1 -->
<g id="Node000001" class="node">
<title>Node1</title>
<g id="a_Node000001"><a xlink:title="The riscvSpecifications class defines specifications about the RV32 and RV64 CPU.">
<polygon fill="#999999" stroke="#666666" points="151,-97 46.5,-97 46.5,-66.5 151,-66.5 151,-97"/>
<text text-anchor="start" x="54.5" y="-83.5" font-family="Helvetica,sans-Serif" font-size="10.00">triton::arch::riscv</text>
<text text-anchor="middle" x="98.75" y="-72.25" font-family="Helvetica,sans-Serif" font-size="10.00">::riscvSpecifications</text>
</a>
</g>
</g>
<!-- Node2 -->
<g id="Node000002" class="node">
<title>Node2</title>
<g id="a_Node000002"><a xlink:href="classtriton_1_1arch_1_1riscv_1_1riscv32Cpu.html" target="_top" xlink:title="This class is used to describe the RV32 spec.">
<polygon fill="white" stroke="#666666" points="89.5,-30.5 0,-30.5 0,0 89.5,0 89.5,-30.5"/>
<text text-anchor="start" x="8" y="-17" font-family="Helvetica,sans-Serif" font-size="10.00">triton::arch::riscv</text>
<text text-anchor="middle" x="44.75" y="-5.75" font-family="Helvetica,sans-Serif" font-size="10.00">::riscv32Cpu</text>
</a>
</g>
</g>
<!-- Node1&#45;&gt;Node2 -->
<g id="edge1_Node000001_Node000002" class="edge">
<title>Node1&#45;&gt;Node2</title>
<g id="a_edge1_Node000001_Node000002"><a xlink:title=" ">
<path fill="none" stroke="#63b8ff" d="M79.16,-57.35C71.74,-48.48 63.51,-38.65 56.95,-30.83"/>
<polygon fill="#63b8ff" stroke="#63b8ff" points="76.42,-59.53 85.52,-64.95 81.79,-55.04 76.42,-59.53"/>
</a>
</g>
</g>
<!-- Node3 -->
<g id="Node000003" class="node">
<title>Node3</title>
<g id="a_Node000003"><a xlink:href="classtriton_1_1arch_1_1riscv_1_1riscv64Cpu.html" target="_top" xlink:title="This class is used to describe the RV64 spec.">
<polygon fill="white" stroke="#666666" points="197.5,-30.5 108,-30.5 108,0 197.5,0 197.5,-30.5"/>
<text text-anchor="start" x="116" y="-17" font-family="Helvetica,sans-Serif" font-size="10.00">triton::arch::riscv</text>
<text text-anchor="middle" x="152.75" y="-5.75" font-family="Helvetica,sans-Serif" font-size="10.00">::riscv64Cpu</text>
</a>
</g>
</g>
<!-- Node1&#45;&gt;Node3 -->
<g id="edge2_Node000001_Node000003" class="edge">
<title>Node1&#45;&gt;Node3</title>
<g id="a_edge2_Node000001_Node000003"><a xlink:title=" ">
<path fill="none" stroke="#63b8ff" d="M118.34,-57.35C125.76,-48.48 133.99,-38.65 140.55,-30.83"/>
<polygon fill="#63b8ff" stroke="#63b8ff" points="115.71,-55.04 111.98,-64.95 121.08,-59.53 115.71,-55.04"/>
</a>
</g>
</g>
</g>
</svg>
