<?xml version="1.0" encoding="UTF-8" standalone="no"?>
<!DOCTYPE svg PUBLIC "-//W3C//DTD SVG 1.1//EN"
 "http://www.w3.org/Graphics/SVG/1.1/DTD/svg11.dtd">
<!-- Generated by graphviz version 7.0.0 (20221023.0053)
 -->
<!-- Title: triton::arch::x86::x86Cpu Pages: 1 -->
<svg width="246pt" height="104pt"
 viewBox="0.00 0.00 245.50 104.00" xmlns="http://www.w3.org/2000/svg" xmlns:xlink="http://www.w3.org/1999/xlink">
<g id="graph0" class="graph" transform="scale(1 1) rotate(0) translate(4 100)">
<title>triton::arch::x86::x86Cpu</title>
<!-- Node1 -->
<g id="node1" class="node">
<title>Node1</title>
<g id="a_node1"><a xlink:title="This class is used to describe the x86 (32&#45;bits) spec.">
<polygon fill="#999999" stroke="#666666" points="172,-30 81,-30 81,0 172,0 172,-30"/>
<text text-anchor="start" x="89" y="-18" font-family="Helvetica,sans-Serif" font-size="10.00">triton::arch::x86::</text>
<text text-anchor="middle" x="126.5" y="-7" font-family="Helvetica,sans-Serif" font-size="10.00">x86Cpu</text>
</a>
</g>
</g>
<!-- Node2 -->
<g id="node2" class="node">
<title>Node2</title>
<g id="a_node2"><a xlink:href="classtriton_1_1arch_1_1CpuInterface.html" target="_top" xlink:title="This interface is used as abstract CPU interface. All CPU must use this interface.">
<polygon fill="white" stroke="#666666" points="125,-90.5 0,-90.5 0,-71.5 125,-71.5 125,-90.5"/>
<text text-anchor="middle" x="62.5" y="-78.5" font-family="Helvetica,sans-Serif" font-size="10.00">triton::arch::CpuInterface</text>
</a>
</g>
</g>
<!-- Node2&#45;&gt;Node1 -->
<g id="edge1" class="edge">
<title>Node2&#45;&gt;Node1</title>
<path fill="none" stroke="#63b8ff" d="M79.25,-63.25C89.51,-52.99 102.5,-40 112.27,-30.23"/>
<polygon fill="#63b8ff" stroke="#63b8ff" points="77.07,-60.48 72.47,-70.03 82.02,-65.43 77.07,-60.48"/>
</g>
<!-- Node3 -->
<g id="node3" class="node">
<title>Node3</title>
<g id="a_node3"><a xlink:href="classtriton_1_1arch_1_1x86_1_1x86Specifications.html" target="_top" xlink:title="The x86Specifications class defines specifications about the x86 and x86_64 CPU.">
<polygon fill="white" stroke="#666666" points="237.5,-96 143.5,-96 143.5,-66 237.5,-66 237.5,-96"/>
<text text-anchor="start" x="151.5" y="-84" font-family="Helvetica,sans-Serif" font-size="10.00">triton::arch::x86::</text>
<text text-anchor="middle" x="190.5" y="-73" font-family="Helvetica,sans-Serif" font-size="10.00">x86Specifications</text>
</a>
</g>
</g>
<!-- Node3&#45;&gt;Node1 -->
<g id="edge2" class="edge">
<title>Node3&#45;&gt;Node1</title>
<path fill="none" stroke="#63b8ff" d="M168.31,-57.81C159.14,-48.64 148.78,-38.28 140.66,-30.16"/>
<polygon fill="#63b8ff" stroke="#63b8ff" points="165.68,-60.13 175.23,-64.73 170.63,-55.18 165.68,-60.13"/>
</g>
</g>
</svg>
