<?xml version="1.0" encoding="UTF-8" standalone="no"?>
<!DOCTYPE svg PUBLIC "-//W3C//DTD SVG 1.1//EN"
 "http://www.w3.org/Graphics/SVG/1.1/DTD/svg11.dtd">
<!-- Generated by graphviz version 2.50.0 (20211204.2007)
 -->
<!-- Title: triton::engines::lifters::LiftingEngine Pages: 1 -->
<svg width="286pt" height="186pt"
 viewBox="0.00 0.00 286.00 186.00" xmlns="http://www.w3.org/2000/svg" xmlns:xlink="http://www.w3.org/1999/xlink">
<g id="graph0" class="graph" transform="scale(1 1) rotate(0) translate(4 182)">
<title>triton::engines::lifters::LiftingEngine</title>
<polygon fill="white" stroke="transparent" points="-4,4 -4,-182 282,-182 282,4 -4,4"/>
<!-- Node1 -->
<g id="node1" class="node">
<title>Node1</title>
<g id="a_node1"><a xlink:title="The lifting engine class.">
<polygon fill="#bfbfbf" stroke="black" points="157,-73.5 157,-103.5 278,-103.5 278,-73.5 157,-73.5"/>
<text text-anchor="start" x="165" y="-91.5" font-family="Helvetica,sans-Serif" font-size="10.00">triton::engines::lifters</text>
<text text-anchor="middle" x="217.5" y="-80.5" font-family="Helvetica,sans-Serif" font-size="10.00">::LiftingEngine</text>
</a>
</g>
</g>
<!-- Node2 -->
<g id="node2" class="node">
<title>Node2</title>
<g id="a_node2"><a xlink:href="classtriton_1_1engines_1_1lifters_1_1LiftingToSMT.html" target="_top" xlink:title="The lifting to SMT class.">
<polygon fill="white" stroke="black" points="0,-147.5 0,-177.5 121,-177.5 121,-147.5 0,-147.5"/>
<text text-anchor="start" x="8" y="-165.5" font-family="Helvetica,sans-Serif" font-size="10.00">triton::engines::lifters</text>
<text text-anchor="middle" x="60.5" y="-154.5" font-family="Helvetica,sans-Serif" font-size="10.00">::LiftingToSMT</text>
</a>
</g>
</g>
<!-- Node2&#45;&gt;Node1 -->
<g id="edge1" class="edge">
<title>Node2&#45;&gt;Node1</title>
<path fill="none" stroke="midnightblue" d="M109.88,-143.45C113.66,-141.82 117.41,-140.16 121,-138.5 144.44,-127.67 170.36,-113.98 189.28,-103.67"/>
<polygon fill="midnightblue" stroke="midnightblue" points="108.32,-140.32 100.46,-147.43 111.04,-146.76 108.32,-140.32"/>
</g>
<!-- Node3 -->
<g id="node3" class="node">
<title>Node3</title>
<g id="a_node3"><a xlink:href="classtriton_1_1engines_1_1lifters_1_1LiftingToDot.html" target="_top" xlink:title="The lifting to Dot class.">
<polygon fill="white" stroke="black" points="0,-98.5 0,-128.5 121,-128.5 121,-98.5 0,-98.5"/>
<text text-anchor="start" x="8" y="-116.5" font-family="Helvetica,sans-Serif" font-size="10.00">triton::engines::lifters</text>
<text text-anchor="middle" x="60.5" y="-105.5" font-family="Helvetica,sans-Serif" font-size="10.00">::LiftingToDot</text>
</a>
</g>
</g>
<!-- Node3&#45;&gt;Node1 -->
<g id="edge2" class="edge">
<title>Node3&#45;&gt;Node1</title>
<path fill="none" stroke="midnightblue" d="M131.38,-102.23C139.93,-100.85 148.61,-99.45 156.99,-98.1"/>
<polygon fill="midnightblue" stroke="midnightblue" points="130.74,-98.79 121.43,-103.83 131.86,-105.7 130.74,-98.79"/>
</g>
<!-- Node4 -->
<g id="node4" class="node">
<title>Node4</title>
<g id="a_node4"><a xlink:href="classtriton_1_1engines_1_1lifters_1_1LiftingToLLVM.html" target="_top" xlink:title="The lifting to LLVM class.">
<polygon fill="white" stroke="black" points="0,-49.5 0,-79.5 121,-79.5 121,-49.5 0,-49.5"/>
<text text-anchor="start" x="8" y="-67.5" font-family="Helvetica,sans-Serif" font-size="10.00">triton::engines::lifters</text>
<text text-anchor="middle" x="60.5" y="-56.5" font-family="Helvetica,sans-Serif" font-size="10.00">::LiftingToLLVM</text>
</a>
</g>
</g>
<!-- Node4&#45;&gt;Node1 -->
<g id="edge3" class="edge">
<title>Node4&#45;&gt;Node1</title>
<path fill="none" stroke="midnightblue" d="M131.38,-75.32C139.93,-76.64 148.61,-77.99 156.99,-79.29"/>
<polygon fill="midnightblue" stroke="midnightblue" points="131.84,-71.85 121.43,-73.78 130.77,-78.77 131.84,-71.85"/>
</g>
<!-- Node5 -->
<g id="node5" class="node">
<title>Node5</title>
<g id="a_node5"><a xlink:href="classtriton_1_1engines_1_1lifters_1_1LiftingToPython.html" target="_top" xlink:title="The lifting to Python class.">
<polygon fill="white" stroke="black" points="0,-0.5 0,-30.5 121,-30.5 121,-0.5 0,-0.5"/>
<text text-anchor="start" x="8" y="-18.5" font-family="Helvetica,sans-Serif" font-size="10.00">triton::engines::lifters</text>
<text text-anchor="middle" x="60.5" y="-7.5" font-family="Helvetica,sans-Serif" font-size="10.00">::LiftingToPython</text>
</a>
</g>
</g>
<!-- Node5&#45;&gt;Node1 -->
<g id="edge4" class="edge">
<title>Node5&#45;&gt;Node1</title>
<path fill="none" stroke="midnightblue" d="M107.71,-34.55C112.22,-36.52 116.71,-38.52 121,-40.5 143.75,-50.98 169.07,-63.76 187.91,-73.49"/>
<polygon fill="midnightblue" stroke="midnightblue" points="109.06,-31.32 98.49,-30.58 106.29,-37.75 109.06,-31.32"/>
</g>
</g>
</svg>
