<?xml version="1.0" encoding="UTF-8" standalone="no"?>
<!DOCTYPE svg PUBLIC "-//W3C//DTD SVG 1.1//EN"
 "http://www.w3.org/Graphics/SVG/1.1/DTD/svg11.dtd">
<!-- Generated by graphviz version 2.50.0 (20211204.2007)
 -->
<!-- Title: math::wide_integer::detail::fixed_dynamic_array&lt; MyType, MySize, MyAlloc &gt; Pages: 1 -->
<svg width="160pt" height="139pt"
 viewBox="0.00 0.00 160.00 139.00" xmlns="http://www.w3.org/2000/svg" xmlns:xlink="http://www.w3.org/1999/xlink">
<g id="graph0" class="graph" transform="scale(1 1) rotate(0) translate(4 135)">
<title>math::wide_integer::detail::fixed_dynamic_array&lt; MyType, MySize, MyAlloc &gt;</title>
<polygon fill="white" stroke="transparent" points="-4,4 -4,-135 156,-135 156,4 -4,4"/>
<!-- Node1 -->
<g id="node1" class="node">
<title>Node1</title>
<g id="a_node1"><a xlink:title=" ">
<polygon fill="#bfbfbf" stroke="black" points="6,-0.5 6,-52.5 146,-52.5 146,-0.5 6,-0.5"/>
<text text-anchor="start" x="14" y="-40.5" font-family="Helvetica,sans-Serif" font-size="10.00">math::wide_integer</text>
<text text-anchor="start" x="14" y="-29.5" font-family="Helvetica,sans-Serif" font-size="10.00">::detail::fixed_dynamic</text>
<text text-anchor="start" x="14" y="-18.5" font-family="Helvetica,sans-Serif" font-size="10.00">_array&lt; MyType, MySize,</text>
<text text-anchor="middle" x="76" y="-7.5" font-family="Helvetica,sans-Serif" font-size="10.00"> MyAlloc &gt;</text>
</a>
</g>
</g>
<!-- Node2 -->
<g id="node2" class="node">
<title>Node2</title>
<g id="a_node2"><a xlink:href="classutil_1_1dynamic__array.html" target="_top" xlink:title=" ">
<polygon fill="white" stroke="#bfbfbf" points="0,-89.5 0,-130.5 152,-130.5 152,-89.5 0,-89.5"/>
<text text-anchor="start" x="8" y="-118.5" font-family="Helvetica,sans-Serif" font-size="10.00">util::dynamic_array</text>
<text text-anchor="start" x="8" y="-107.5" font-family="Helvetica,sans-Serif" font-size="10.00">&lt; ValueType, AllocatorType,</text>
<text text-anchor="middle" x="76" y="-96.5" font-family="Helvetica,sans-Serif" font-size="10.00"> SizeType, DiffType &gt;</text>
</a>
</g>
</g>
<!-- Node2&#45;&gt;Node1 -->
<g id="edge1" class="edge">
<title>Node2&#45;&gt;Node1</title>
<path fill="none" stroke="midnightblue" d="M76,-79.12C76,-70.41 76,-60.99 76,-52.61"/>
<polygon fill="midnightblue" stroke="midnightblue" points="72.5,-79.27 76,-89.27 79.5,-79.27 72.5,-79.27"/>
</g>
</g>
</svg>
