<?xml version="1.0" encoding="UTF-8" standalone="no"?>
<!DOCTYPE svg PUBLIC "-//W3C//DTD SVG 1.1//EN"
 "http://www.w3.org/Graphics/SVG/1.1/DTD/svg11.dtd">
<!-- Generated by graphviz version 9.0.0 (20230911.1827)
 -->
<!-- Title: triton::exceptions::PathConstraint Pages: 1 -->
<svg width="101pt" height="293pt"
 viewBox="0.00 0.00 100.50 293.25" xmlns="http://www.w3.org/2000/svg" xmlns:xlink="http://www.w3.org/1999/xlink">
<g id="graph0" class="graph" transform="scale(1 1) rotate(0) translate(4 289.25)">
<title>triton::exceptions::PathConstraint</title>
<!-- Node1 -->
<g id="Node000001" class="node">
<title>Node1</title>
<g id="a_Node000001"><a xlink:title="The exception class used by path constraints.">
<polygon fill="#999999" stroke="#666666" points="91.75,-30.5 0.75,-30.5 0.75,0 91.75,0 91.75,-30.5"/>
<text text-anchor="start" x="8.75" y="-17" font-family="Helvetica,sans-Serif" font-size="10.00">triton::exceptions</text>
<text text-anchor="middle" x="46.25" y="-5.75" font-family="Helvetica,sans-Serif" font-size="10.00">::PathConstraint</text>
</a>
</g>
</g>
<!-- Node2 -->
<g id="Node000002" class="node">
<title>Node2</title>
<g id="a_Node000002"><a xlink:href="classtriton_1_1exceptions_1_1SymbolicEngine.html" target="_top" xlink:title="The exception class used by the symbolic engine.">
<polygon fill="white" stroke="#666666" points="92.5,-97 0,-97 0,-66.5 92.5,-66.5 92.5,-97"/>
<text text-anchor="start" x="8" y="-83.5" font-family="Helvetica,sans-Serif" font-size="10.00">triton::exceptions</text>
<text text-anchor="middle" x="46.25" y="-72.25" font-family="Helvetica,sans-Serif" font-size="10.00">::SymbolicEngine</text>
</a>
</g>
</g>
<!-- Node2&#45;&gt;Node1 -->
<g id="edge1_Node000001_Node000002" class="edge">
<title>Node2&#45;&gt;Node1</title>
<g id="a_edge1_Node000001_Node000002"><a xlink:title=" ">
<path fill="none" stroke="#63b8ff" d="M46.25,-54.81C46.25,-46.64 46.25,-37.91 46.25,-30.83"/>
<polygon fill="#63b8ff" stroke="#63b8ff" points="42.75,-54.6 46.25,-64.6 49.75,-54.6 42.75,-54.6"/>
</a>
</g>
</g>
<!-- Node3 -->
<g id="Node000003" class="node">
<title>Node3</title>
<g id="a_Node000003"><a xlink:href="classtriton_1_1exceptions_1_1Engines.html" target="_top" xlink:title="The exception class used by all engines.">
<polygon fill="white" stroke="#666666" points="91.75,-163.5 0.75,-163.5 0.75,-133 91.75,-133 91.75,-163.5"/>
<text text-anchor="start" x="8.75" y="-150" font-family="Helvetica,sans-Serif" font-size="10.00">triton::exceptions</text>
<text text-anchor="middle" x="46.25" y="-138.75" font-family="Helvetica,sans-Serif" font-size="10.00">::Engines</text>
</a>
</g>
</g>
<!-- Node3&#45;&gt;Node2 -->
<g id="edge2_Node000002_Node000003" class="edge">
<title>Node3&#45;&gt;Node2</title>
<g id="a_edge2_Node000002_Node000003"><a xlink:title=" ">
<path fill="none" stroke="#63b8ff" d="M46.25,-121.31C46.25,-113.14 46.25,-104.41 46.25,-97.33"/>
<polygon fill="#63b8ff" stroke="#63b8ff" points="42.75,-121.1 46.25,-131.1 49.75,-121.1 42.75,-121.1"/>
</a>
</g>
</g>
<!-- Node4 -->
<g id="Node000004" class="node">
<title>Node4</title>
<g id="a_Node000004"><a xlink:href="classtriton_1_1exceptions_1_1Exception.html" target="_top" xlink:title="The root class of all exceptions.">
<polygon fill="white" stroke="#666666" points="91.75,-230 0.75,-230 0.75,-199.5 91.75,-199.5 91.75,-230"/>
<text text-anchor="start" x="8.75" y="-216.5" font-family="Helvetica,sans-Serif" font-size="10.00">triton::exceptions</text>
<text text-anchor="middle" x="46.25" y="-205.25" font-family="Helvetica,sans-Serif" font-size="10.00">::Exception</text>
</a>
</g>
</g>
<!-- Node4&#45;&gt;Node3 -->
<g id="edge3_Node000003_Node000004" class="edge">
<title>Node4&#45;&gt;Node3</title>
<g id="a_edge3_Node000003_Node000004"><a xlink:title=" ">
<path fill="none" stroke="#63b8ff" d="M46.25,-187.81C46.25,-179.64 46.25,-170.91 46.25,-163.83"/>
<polygon fill="#63b8ff" stroke="#63b8ff" points="42.75,-187.6 46.25,-197.6 49.75,-187.6 42.75,-187.6"/>
</a>
</g>
</g>
<!-- Node5 -->
<g id="Node000005" class="node">
<title>Node5</title>
<g id="a_Node000005"><a xlink:title=" ">
<polygon fill="white" stroke="#bfbfbf" points="85,-285.25 7.5,-285.25 7.5,-266 85,-266 85,-285.25"/>
<text text-anchor="middle" x="46.25" y="-271.75" font-family="Helvetica,sans-Serif" font-size="10.00">std::exception</text>
</a>
</g>
</g>
<!-- Node5&#45;&gt;Node4 -->
<g id="edge4_Node000004_Node000005" class="edge">
<title>Node5&#45;&gt;Node4</title>
<g id="a_edge4_Node000004_Node000005"><a xlink:title=" ">
<path fill="none" stroke="#63b8ff" d="M46.25,-254.42C46.25,-246.49 46.25,-237.56 46.25,-230.28"/>
<polygon fill="#63b8ff" stroke="#63b8ff" points="42.75,-254.17 46.25,-264.17 49.75,-254.17 42.75,-254.17"/>
</a>
</g>
</g>
</g>
</svg>
