<?xml version="1.0" encoding="UTF-8" standalone="no"?>
<!DOCTYPE svg PUBLIC "-//W3C//DTD SVG 1.1//EN"
 "http://www.w3.org/Graphics/SVG/1.1/DTD/svg11.dtd">
<!-- Generated by graphviz version 7.0.0 (20221023.0053)
 -->
<!-- Title: triton::arch::arm::aarch64::AArch64Cpu Pages: 1 -->
<svg width="308pt" height="104pt"
 viewBox="0.00 0.00 307.50 104.00" xmlns="http://www.w3.org/2000/svg" xmlns:xlink="http://www.w3.org/1999/xlink">
<g id="graph0" class="graph" transform="scale(1 1) rotate(0) translate(4 100)">
<title>triton::arch::arm::aarch64::AArch64Cpu</title>
<!-- Node1 -->
<g id="node1" class="node">
<title>Node1</title>
<g id="a_node1"><a xlink:title="This class is used to describe the ARM (64&#45;bits) spec.">
<polygon fill="#999999" stroke="#666666" points="198,-30 85,-30 85,0 198,0 198,-30"/>
<text text-anchor="start" x="93" y="-18" font-family="Helvetica,sans-Serif" font-size="10.00">triton::arch::arm::</text>
<text text-anchor="middle" x="141.5" y="-7" font-family="Helvetica,sans-Serif" font-size="10.00">aarch64::AArch64Cpu</text>
</a>
</g>
</g>
<!-- Node2 -->
<g id="node2" class="node">
<title>Node2</title>
<g id="a_node2"><a xlink:href="classtriton_1_1arch_1_1CpuInterface.html" target="_top" xlink:title="This interface is used as abstract CPU interface. All CPU must use this interface.">
<polygon fill="white" stroke="#666666" points="125,-90.5 0,-90.5 0,-71.5 125,-71.5 125,-90.5"/>
<text text-anchor="middle" x="62.5" y="-78.5" font-family="Helvetica,sans-Serif" font-size="10.00">triton::arch::CpuInterface</text>
</a>
</g>
</g>
<!-- Node2&#45;&gt;Node1 -->
<g id="edge1" class="edge">
<title>Node2&#45;&gt;Node1</title>
<path fill="none" stroke="#63b8ff" d="M82.35,-63.92C95.04,-53.64 111.35,-40.43 123.63,-30.48"/>
<polygon fill="#63b8ff" stroke="#63b8ff" points="80.23,-61.13 74.66,-70.15 84.63,-66.57 80.23,-61.13"/>
</g>
<!-- Node3 -->
<g id="node3" class="node">
<title>Node3</title>
<g id="a_node3"><a xlink:href="classtriton_1_1arch_1_1arm_1_1aarch64_1_1AArch64Specifications.html" target="_top" xlink:title="The AArch64Specifications class defines specifications about the AArch64 CPU.">
<polygon fill="white" stroke="#666666" points="299.5,-96 143.5,-96 143.5,-66 299.5,-66 299.5,-96"/>
<text text-anchor="start" x="151.5" y="-84" font-family="Helvetica,sans-Serif" font-size="10.00">triton::arch::arm::</text>
<text text-anchor="middle" x="221.5" y="-73" font-family="Helvetica,sans-Serif" font-size="10.00">aarch64::AArch64Specifications</text>
</a>
</g>
</g>
<!-- Node3&#45;&gt;Node1 -->
<g id="edge2" class="edge">
<title>Node3&#45;&gt;Node1</title>
<path fill="none" stroke="#63b8ff" d="M194.87,-58.7C183.24,-49.4 169.91,-38.73 159.48,-30.39"/>
<polygon fill="#63b8ff" stroke="#63b8ff" points="192.57,-61.34 202.56,-64.85 196.94,-55.87 192.57,-61.34"/>
</g>
</g>
</svg>
