<?xml version="1.0" encoding="UTF-8" standalone="no"?>
<!DOCTYPE svg PUBLIC "-//W3C//DTD SVG 1.1//EN"
 "http://www.w3.org/Graphics/SVG/1.1/DTD/svg11.dtd">
<!-- Generated by graphviz version 2.49.0 (20210828.1703)
 -->
<!-- Title: triton::engines::lifters::LiftingEngine Pages: 1 -->
<svg width="268pt" height="106pt"
 viewBox="0.00 0.00 268.00 106.00" xmlns="http://www.w3.org/2000/svg" xmlns:xlink="http://www.w3.org/1999/xlink">
<g id="graph0" class="graph" transform="scale(1 1) rotate(0) translate(4 102)">
<title>triton::engines::lifters::LiftingEngine</title>
<polygon fill="white" stroke="transparent" points="-4,4 -4,-102 264,-102 264,4 -4,4"/>
<!-- Node1 -->
<g id="node1" class="node">
<title>Node1</title>
<g id="a_node1"><a xlink:title="The lifting engine class.">
<polygon fill="#bfbfbf" stroke="black" points="69,-0.5 69,-30.5 190,-30.5 190,-0.5 69,-0.5"/>
<text text-anchor="start" x="77" y="-18.5" font-family="Helvetica,sans-Serif" font-size="10.00">triton::engines::lifters</text>
<text text-anchor="middle" x="129.5" y="-7.5" font-family="Helvetica,sans-Serif" font-size="10.00">::LiftingEngine</text>
</a>
</g>
</g>
<!-- Node2 -->
<g id="node2" class="node">
<title>Node2</title>
<g id="a_node2"><a xlink:href="classtriton_1_1engines_1_1lifters_1_1LiftingToSMT.html" target="_top" xlink:title="The lifting to SMT class.">
<polygon fill="white" stroke="black" points="0,-67.5 0,-97.5 121,-97.5 121,-67.5 0,-67.5"/>
<text text-anchor="start" x="8" y="-85.5" font-family="Helvetica,sans-Serif" font-size="10.00">triton::engines::lifters</text>
<text text-anchor="middle" x="60.5" y="-74.5" font-family="Helvetica,sans-Serif" font-size="10.00">::LiftingToSMT</text>
</a>
</g>
</g>
<!-- Node2&#45;&gt;Node1 -->
<g id="edge1" class="edge">
<title>Node2&#45;&gt;Node1</title>
<path fill="none" stroke="midnightblue" d="M82.99,-60.31C93.34,-50.56 105.34,-39.26 114.56,-30.58"/>
<polygon fill="midnightblue" stroke="midnightblue" points="80.35,-57.99 75.47,-67.4 85.15,-63.09 80.35,-57.99"/>
</g>
<!-- Node3 -->
<g id="node3" class="node">
<title>Node3</title>
<g id="a_node3"><a xlink:href="classtriton_1_1engines_1_1lifters_1_1LiftingToPython.html" target="_top" xlink:title="The lifting to Python class.">
<polygon fill="white" stroke="black" points="139,-67.5 139,-97.5 260,-97.5 260,-67.5 139,-67.5"/>
<text text-anchor="start" x="147" y="-85.5" font-family="Helvetica,sans-Serif" font-size="10.00">triton::engines::lifters</text>
<text text-anchor="middle" x="199.5" y="-74.5" font-family="Helvetica,sans-Serif" font-size="10.00">::LiftingToPython</text>
</a>
</g>
</g>
<!-- Node3&#45;&gt;Node1 -->
<g id="edge2" class="edge">
<title>Node3&#45;&gt;Node1</title>
<path fill="none" stroke="midnightblue" d="M176.68,-60.31C166.18,-50.56 154.01,-39.26 144.66,-30.58"/>
<polygon fill="midnightblue" stroke="midnightblue" points="174.6,-63.16 184.31,-67.4 179.36,-58.03 174.6,-63.16"/>
</g>
</g>
</svg>
