<?xml version="1.0" encoding="UTF-8" standalone="no"?>
<!DOCTYPE svg PUBLIC "-//W3C//DTD SVG 1.1//EN"
 "http://www.w3.org/Graphics/SVG/1.1/DTD/svg11.dtd">
<!-- Generated by graphviz version 7.0.0 (20221023.0053)
 -->
<!-- Title: triton::exceptions::SymbolicEngine Pages: 1 -->
<svg width="629pt" height="230pt"
 viewBox="0.00 0.00 629.00 230.00" xmlns="http://www.w3.org/2000/svg" xmlns:xlink="http://www.w3.org/1999/xlink">
<g id="graph0" class="graph" transform="scale(1 1) rotate(0) translate(4 226)">
<title>triton::exceptions::SymbolicEngine</title>
<!-- Node1 -->
<g id="node1" class="node">
<title>Node1</title>
<g id="a_node1"><a xlink:title="The exception class used by the symbolic engine.">
<polygon fill="#999999" stroke="#666666" points="463,-126 370,-126 370,-96 463,-96 463,-126"/>
<text text-anchor="start" x="378" y="-114" font-family="Helvetica,sans-Serif" font-size="10.00">triton::exceptions</text>
<text text-anchor="middle" x="416.5" y="-103" font-family="Helvetica,sans-Serif" font-size="10.00">::SymbolicEngine</text>
</a>
</g>
</g>
<!-- Node5 -->
<g id="node5" class="node">
<title>Node5</title>
<g id="a_node5"><a xlink:href="classtriton_1_1exceptions_1_1PathConstraint.html" target="_top" xlink:title="The exception class used by path constraints.">
<polygon fill="white" stroke="#666666" points="606,-222 514,-222 514,-192 606,-192 606,-222"/>
<text text-anchor="start" x="522" y="-210" font-family="Helvetica,sans-Serif" font-size="10.00">triton::exceptions</text>
<text text-anchor="middle" x="560" y="-199" font-family="Helvetica,sans-Serif" font-size="10.00">::PathConstraint</text>
</a>
</g>
</g>
<!-- Node1&#45;&gt;Node5 -->
<g id="edge4" class="edge">
<title>Node1&#45;&gt;Node5</title>
<path fill="none" stroke="#63b8ff" d="M439.5,-134.24C455.02,-149.62 476.89,-169.38 499,-183 504.06,-186.12 509.6,-188.97 515.2,-191.54"/>
<polygon fill="#63b8ff" stroke="#63b8ff" points="442.16,-131.95 432.64,-127.29 437.18,-136.86 442.16,-131.95"/>
</g>
<!-- Node6 -->
<g id="node6" class="node">
<title>Node6</title>
<g id="a_node6"><a xlink:href="classtriton_1_1exceptions_1_1PathManager.html" target="_top" xlink:title="The exception class used by the path manager.">
<polygon fill="white" stroke="#666666" points="606,-174 514,-174 514,-144 606,-144 606,-174"/>
<text text-anchor="start" x="522" y="-162" font-family="Helvetica,sans-Serif" font-size="10.00">triton::exceptions</text>
<text text-anchor="middle" x="560" y="-151" font-family="Helvetica,sans-Serif" font-size="10.00">::PathManager</text>
</a>
</g>
</g>
<!-- Node1&#45;&gt;Node6 -->
<g id="edge5" class="edge">
<title>Node1&#45;&gt;Node6</title>
<path fill="none" stroke="#63b8ff" d="M473.9,-130.13C487.06,-134.6 500.92,-139.3 513.53,-143.58"/>
<polygon fill="#63b8ff" stroke="#63b8ff" points="475.08,-126.84 464.48,-126.94 472.83,-133.46 475.08,-126.84"/>
</g>
<!-- Node7 -->
<g id="node7" class="node">
<title>Node7</title>
<g id="a_node7"><a xlink:href="classtriton_1_1exceptions_1_1SymbolicExpression.html" target="_top" xlink:title="The exception class used by symbolic expressions.">
<polygon fill="white" stroke="#666666" points="616,-126 504,-126 504,-96 616,-96 616,-126"/>
<text text-anchor="start" x="512" y="-114" font-family="Helvetica,sans-Serif" font-size="10.00">triton::exceptions</text>
<text text-anchor="middle" x="560" y="-103" font-family="Helvetica,sans-Serif" font-size="10.00">::SymbolicExpression</text>
</a>
</g>
</g>
<!-- Node1&#45;&gt;Node7 -->
<g id="edge6" class="edge">
<title>Node1&#45;&gt;Node7</title>
<path fill="none" stroke="#63b8ff" d="M474.83,-111C484.35,-111 494.2,-111 503.66,-111"/>
<polygon fill="#63b8ff" stroke="#63b8ff" points="474.95,-107.5 464.95,-111 474.95,-114.5 474.95,-107.5"/>
</g>
<!-- Node8 -->
<g id="node8" class="node">
<title>Node8</title>
<g id="a_node8"><a xlink:href="classtriton_1_1exceptions_1_1SymbolicSimplification.html" target="_top" xlink:title="The exception class used by symbolic simplifications.">
<polygon fill="white" stroke="#666666" points="621,-78 499,-78 499,-48 621,-48 621,-78"/>
<text text-anchor="start" x="507" y="-66" font-family="Helvetica,sans-Serif" font-size="10.00">triton::exceptions</text>
<text text-anchor="middle" x="560" y="-55" font-family="Helvetica,sans-Serif" font-size="10.00">::SymbolicSimplification</text>
</a>
</g>
</g>
<!-- Node1&#45;&gt;Node8 -->
<g id="edge7" class="edge">
<title>Node1&#45;&gt;Node8</title>
<path fill="none" stroke="#63b8ff" d="M473.9,-91.87C487.06,-87.4 500.92,-82.7 513.53,-78.42"/>
<polygon fill="#63b8ff" stroke="#63b8ff" points="472.83,-88.54 464.48,-95.06 475.08,-95.16 472.83,-88.54"/>
</g>
<!-- Node9 -->
<g id="node9" class="node">
<title>Node9</title>
<g id="a_node9"><a xlink:href="classtriton_1_1exceptions_1_1SymbolicVariable.html" target="_top" xlink:title="The exception class used by symbolic variables.">
<polygon fill="white" stroke="#666666" points="609,-30 511,-30 511,0 609,0 609,-30"/>
<text text-anchor="start" x="519" y="-18" font-family="Helvetica,sans-Serif" font-size="10.00">triton::exceptions</text>
<text text-anchor="middle" x="560" y="-7" font-family="Helvetica,sans-Serif" font-size="10.00">::SymbolicVariable</text>
</a>
</g>
</g>
<!-- Node1&#45;&gt;Node9 -->
<g id="edge8" class="edge">
<title>Node1&#45;&gt;Node9</title>
<path fill="none" stroke="#63b8ff" d="M439.5,-87.76C455.02,-72.38 476.89,-52.62 499,-39 504.06,-35.88 509.6,-33.03 515.2,-30.46"/>
<polygon fill="#63b8ff" stroke="#63b8ff" points="437.18,-85.14 432.64,-94.71 442.16,-90.05 437.18,-85.14"/>
</g>
<!-- Node2 -->
<g id="node2" class="node">
<title>Node2</title>
<g id="a_node2"><a xlink:href="classtriton_1_1exceptions_1_1Engines.html" target="_top" xlink:title="The exception class used by all engines.">
<polygon fill="white" stroke="#666666" points="334,-126 242,-126 242,-96 334,-96 334,-126"/>
<text text-anchor="start" x="250" y="-114" font-family="Helvetica,sans-Serif" font-size="10.00">triton::exceptions</text>
<text text-anchor="middle" x="288" y="-103" font-family="Helvetica,sans-Serif" font-size="10.00">::Engines</text>
</a>
</g>
</g>
<!-- Node2&#45;&gt;Node1 -->
<g id="edge1" class="edge">
<title>Node2&#45;&gt;Node1</title>
<path fill="none" stroke="#63b8ff" d="M345.56,-111C353.62,-111 361.83,-111 369.65,-111"/>
<polygon fill="#63b8ff" stroke="#63b8ff" points="345.83,-107.5 335.83,-111 345.83,-114.5 345.83,-107.5"/>
</g>
<!-- Node3 -->
<g id="node3" class="node">
<title>Node3</title>
<g id="a_node3"><a xlink:href="classtriton_1_1exceptions_1_1Exception.html" target="_top" xlink:title="The root class of all exceptions.">
<polygon fill="white" stroke="#666666" points="206,-126 114,-126 114,-96 206,-96 206,-126"/>
<text text-anchor="start" x="122" y="-114" font-family="Helvetica,sans-Serif" font-size="10.00">triton::exceptions</text>
<text text-anchor="middle" x="160" y="-103" font-family="Helvetica,sans-Serif" font-size="10.00">::Exception</text>
</a>
</g>
</g>
<!-- Node3&#45;&gt;Node2 -->
<g id="edge2" class="edge">
<title>Node3&#45;&gt;Node2</title>
<path fill="none" stroke="#63b8ff" d="M217.94,-111C225.86,-111 233.91,-111 241.58,-111"/>
<polygon fill="#63b8ff" stroke="#63b8ff" points="218,-107.5 208,-111 218,-114.5 218,-107.5"/>
</g>
<!-- Node4 -->
<g id="node4" class="node">
<title>Node4</title>
<g id="a_node4"><a xlink:title=" ">
<polygon fill="white" stroke="#bfbfbf" points="78,-120.5 0,-120.5 0,-101.5 78,-101.5 78,-120.5"/>
<text text-anchor="middle" x="39" y="-108.5" font-family="Helvetica,sans-Serif" font-size="10.00">std::exception</text>
</a>
</g>
</g>
<!-- Node4&#45;&gt;Node3 -->
<g id="edge3" class="edge">
<title>Node4&#45;&gt;Node3</title>
<path fill="none" stroke="#63b8ff" d="M89.72,-111C97.67,-111 105.86,-111 113.71,-111"/>
<polygon fill="#63b8ff" stroke="#63b8ff" points="89.82,-107.5 79.82,-111 89.82,-114.5 89.82,-107.5"/>
</g>
</g>
</svg>
