<?xml version="1.0" encoding="UTF-8" standalone="no"?>
<!DOCTYPE svg PUBLIC "-//W3C//DTD SVG 1.1//EN"
 "http://www.w3.org/Graphics/SVG/1.1/DTD/svg11.dtd">
<!-- Generated by graphviz version 2.50.0 (20211204.2007)
 -->
<!-- Title: triton::arch::CpuInterface Pages: 1 -->
<svg width="303pt" height="186pt"
 viewBox="0.00 0.00 303.00 186.00" xmlns="http://www.w3.org/2000/svg" xmlns:xlink="http://www.w3.org/1999/xlink">
<g id="graph0" class="graph" transform="scale(1 1) rotate(0) translate(4 182)">
<title>triton::arch::CpuInterface</title>
<polygon fill="white" stroke="transparent" points="-4,4 -4,-182 299,-182 299,4 -4,4"/>
<!-- Node1 -->
<g id="node1" class="node">
<title>Node1</title>
<g id="a_node1"><a xlink:title="This interface is used as abstract CPU interface. All CPU must use this interface.">
<polygon fill="#bfbfbf" stroke="black" points="0,-79 0,-98 138,-98 138,-79 0,-79"/>
<text text-anchor="middle" x="69" y="-86" font-family="Helvetica,sans-Serif" font-size="10.00">triton::arch::CpuInterface</text>
</a>
</g>
</g>
<!-- Node2 -->
<g id="node2" class="node">
<title>Node2</title>
<g id="a_node2"><a xlink:href="classtriton_1_1arch_1_1arm_1_1aarch64_1_1AArch64Cpu.html" target="_top" xlink:title="This class is used to describe the ARM (64&#45;bits) spec.">
<polygon fill="white" stroke="black" points="174,-147.5 174,-177.5 295,-177.5 295,-147.5 174,-147.5"/>
<text text-anchor="start" x="182" y="-165.5" font-family="Helvetica,sans-Serif" font-size="10.00">triton::arch::arm::</text>
<text text-anchor="middle" x="234.5" y="-154.5" font-family="Helvetica,sans-Serif" font-size="10.00">aarch64::AArch64Cpu</text>
</a>
</g>
</g>
<!-- Node1&#45;&gt;Node2 -->
<g id="edge1" class="edge">
<title>Node1&#45;&gt;Node2</title>
<path fill="none" stroke="midnightblue" d="M98.21,-102.67C119,-112.97 148.05,-127.04 174,-138.5 180.73,-141.47 187.94,-144.5 194.94,-147.37"/>
<polygon fill="midnightblue" stroke="midnightblue" points="99.51,-99.41 89,-98.09 96.39,-105.68 99.51,-99.41"/>
</g>
<!-- Node3 -->
<g id="node3" class="node">
<title>Node3</title>
<g id="a_node3"><a xlink:href="classtriton_1_1arch_1_1arm_1_1arm32_1_1Arm32Cpu.html" target="_top" xlink:title="This class is used to describe the ARM (32&#45;bits) spec.">
<polygon fill="white" stroke="black" points="182,-98.5 182,-128.5 287,-128.5 287,-98.5 182,-98.5"/>
<text text-anchor="start" x="190" y="-116.5" font-family="Helvetica,sans-Serif" font-size="10.00">triton::arch::arm::</text>
<text text-anchor="middle" x="234.5" y="-105.5" font-family="Helvetica,sans-Serif" font-size="10.00">arm32::Arm32Cpu</text>
</a>
</g>
</g>
<!-- Node1&#45;&gt;Node3 -->
<g id="edge2" class="edge">
<title>Node1&#45;&gt;Node3</title>
<path fill="none" stroke="midnightblue" d="M142.35,-99.56C155.63,-101.59 169.24,-103.67 181.76,-105.59"/>
<polygon fill="midnightblue" stroke="midnightblue" points="142.69,-96.07 132.28,-98.02 141.63,-102.99 142.69,-96.07"/>
</g>
<!-- Node4 -->
<g id="node4" class="node">
<title>Node4</title>
<g id="a_node4"><a xlink:href="classtriton_1_1arch_1_1x86_1_1x8664Cpu.html" target="_top" xlink:title="This class is used to describe the x86 (64&#45;bits) spec.">
<polygon fill="white" stroke="black" points="184.5,-49.5 184.5,-79.5 284.5,-79.5 284.5,-49.5 184.5,-49.5"/>
<text text-anchor="start" x="192.5" y="-67.5" font-family="Helvetica,sans-Serif" font-size="10.00">triton::arch::x86::</text>
<text text-anchor="middle" x="234.5" y="-56.5" font-family="Helvetica,sans-Serif" font-size="10.00">x8664Cpu</text>
</a>
</g>
</g>
<!-- Node1&#45;&gt;Node4 -->
<g id="edge3" class="edge">
<title>Node1&#45;&gt;Node4</title>
<path fill="none" stroke="midnightblue" d="M145.17,-77.47C158.43,-75.52 171.93,-73.54 184.26,-71.73"/>
<polygon fill="midnightblue" stroke="midnightblue" points="144.47,-74.03 135.09,-78.95 145.49,-80.96 144.47,-74.03"/>
</g>
<!-- Node5 -->
<g id="node5" class="node">
<title>Node5</title>
<g id="a_node5"><a xlink:href="classtriton_1_1arch_1_1x86_1_1x86Cpu.html" target="_top" xlink:title="This class is used to describe the x86 (32&#45;bits) spec.">
<polygon fill="white" stroke="black" points="184.5,-0.5 184.5,-30.5 284.5,-30.5 284.5,-0.5 184.5,-0.5"/>
<text text-anchor="start" x="192.5" y="-18.5" font-family="Helvetica,sans-Serif" font-size="10.00">triton::arch::x86::</text>
<text text-anchor="middle" x="234.5" y="-7.5" font-family="Helvetica,sans-Serif" font-size="10.00">x86Cpu</text>
</a>
</g>
</g>
<!-- Node1&#45;&gt;Node5 -->
<g id="edge4" class="edge">
<title>Node1&#45;&gt;Node5</title>
<path fill="none" stroke="midnightblue" d="M99.47,-74.57C120.22,-64.84 148.71,-51.65 174,-40.5 181.48,-37.2 189.54,-33.75 197.23,-30.5"/>
<polygon fill="midnightblue" stroke="midnightblue" points="97.79,-71.49 90.23,-78.91 100.77,-77.82 97.79,-71.49"/>
</g>
</g>
</svg>
