<?xml version="1.0" encoding="UTF-8" standalone="no"?>
<!DOCTYPE svg PUBLIC "-//W3C//DTD SVG 1.1//EN"
 "http://www.w3.org/Graphics/SVG/1.1/DTD/svg11.dtd">
<!-- Generated by graphviz version 12.1.0 (20240811.2233)
 -->
<!-- Title: triton::exceptions::SymbolicExpression Pages: 1 -->
<svg width="119pt" height="293pt"
 viewBox="0.00 0.00 119.25 293.25" xmlns="http://www.w3.org/2000/svg" xmlns:xlink="http://www.w3.org/1999/xlink">
<g id="graph0" class="graph" transform="scale(1 1) rotate(0) translate(4 289.25)">
<title>triton::exceptions::SymbolicExpression</title>
<!-- Node1 -->
<g id="Node000001" class="node">
<title>Node1</title>
<g id="a_Node000001"><a xlink:title="The exception class used by symbolic expressions.">
<polygon fill="#999999" stroke="#666666" points="111.25,-30.5 0,-30.5 0,0 111.25,0 111.25,-30.5"/>
<text text-anchor="start" x="8" y="-17" font-family="Helvetica,sans-Serif" font-size="10.00">triton::exceptions</text>
<text text-anchor="middle" x="55.62" y="-5.75" font-family="Helvetica,sans-Serif" font-size="10.00">::SymbolicExpression</text>
</a>
</g>
</g>
<!-- Node2 -->
<g id="Node000002" class="node">
<title>Node2</title>
<g id="a_Node000002"><a xlink:href="classtriton_1_1exceptions_1_1SymbolicEngine.html" target="_top" xlink:title="The exception class used by the symbolic engine.">
<polygon fill="white" stroke="#666666" points="101.88,-97 9.38,-97 9.38,-66.5 101.88,-66.5 101.88,-97"/>
<text text-anchor="start" x="17.38" y="-83.5" font-family="Helvetica,sans-Serif" font-size="10.00">triton::exceptions</text>
<text text-anchor="middle" x="55.62" y="-72.25" font-family="Helvetica,sans-Serif" font-size="10.00">::SymbolicEngine</text>
</a>
</g>
</g>
<!-- Node2&#45;&gt;Node1 -->
<g id="edge1_Node000001_Node000002" class="edge">
<title>Node2&#45;&gt;Node1</title>
<g id="a_edge1_Node000001_Node000002"><a xlink:title=" ">
<path fill="none" stroke="#63b8ff" d="M55.62,-54.81C55.62,-46.64 55.62,-37.91 55.62,-30.83"/>
<polygon fill="#63b8ff" stroke="#63b8ff" points="52.13,-54.6 55.63,-64.6 59.13,-54.6 52.13,-54.6"/>
</a>
</g>
</g>
<!-- Node3 -->
<g id="Node000003" class="node">
<title>Node3</title>
<g id="a_Node000003"><a xlink:href="classtriton_1_1exceptions_1_1Engines.html" target="_top" xlink:title="The exception class used by all engines.">
<polygon fill="white" stroke="#666666" points="101.12,-163.5 10.12,-163.5 10.12,-133 101.12,-133 101.12,-163.5"/>
<text text-anchor="start" x="18.12" y="-150" font-family="Helvetica,sans-Serif" font-size="10.00">triton::exceptions</text>
<text text-anchor="middle" x="55.62" y="-138.75" font-family="Helvetica,sans-Serif" font-size="10.00">::Engines</text>
</a>
</g>
</g>
<!-- Node3&#45;&gt;Node2 -->
<g id="edge2_Node000002_Node000003" class="edge">
<title>Node3&#45;&gt;Node2</title>
<g id="a_edge2_Node000002_Node000003"><a xlink:title=" ">
<path fill="none" stroke="#63b8ff" d="M55.62,-121.31C55.62,-113.14 55.62,-104.41 55.62,-97.33"/>
<polygon fill="#63b8ff" stroke="#63b8ff" points="52.13,-121.1 55.63,-131.1 59.13,-121.1 52.13,-121.1"/>
</a>
</g>
</g>
<!-- Node4 -->
<g id="Node000004" class="node">
<title>Node4</title>
<g id="a_Node000004"><a xlink:href="classtriton_1_1exceptions_1_1Exception.html" target="_top" xlink:title="The root class of all exceptions.">
<polygon fill="white" stroke="#666666" points="101.12,-230 10.12,-230 10.12,-199.5 101.12,-199.5 101.12,-230"/>
<text text-anchor="start" x="18.12" y="-216.5" font-family="Helvetica,sans-Serif" font-size="10.00">triton::exceptions</text>
<text text-anchor="middle" x="55.62" y="-205.25" font-family="Helvetica,sans-Serif" font-size="10.00">::Exception</text>
</a>
</g>
</g>
<!-- Node4&#45;&gt;Node3 -->
<g id="edge3_Node000003_Node000004" class="edge">
<title>Node4&#45;&gt;Node3</title>
<g id="a_edge3_Node000003_Node000004"><a xlink:title=" ">
<path fill="none" stroke="#63b8ff" d="M55.62,-187.81C55.62,-179.64 55.62,-170.91 55.62,-163.83"/>
<polygon fill="#63b8ff" stroke="#63b8ff" points="52.13,-187.6 55.63,-197.6 59.13,-187.6 52.13,-187.6"/>
</a>
</g>
</g>
<!-- Node5 -->
<g id="Node000005" class="node">
<title>Node5</title>
<g id="a_Node000005"><a xlink:title=" ">
<polygon fill="white" stroke="#bfbfbf" points="94.38,-285.25 16.88,-285.25 16.88,-266 94.38,-266 94.38,-285.25"/>
<text text-anchor="middle" x="55.62" y="-271.75" font-family="Helvetica,sans-Serif" font-size="10.00">std::exception</text>
</a>
</g>
</g>
<!-- Node5&#45;&gt;Node4 -->
<g id="edge4_Node000004_Node000005" class="edge">
<title>Node5&#45;&gt;Node4</title>
<g id="a_edge4_Node000004_Node000005"><a xlink:title=" ">
<path fill="none" stroke="#63b8ff" d="M55.62,-254.42C55.62,-246.49 55.62,-237.56 55.62,-230.28"/>
<polygon fill="#63b8ff" stroke="#63b8ff" points="52.13,-254.17 55.63,-264.17 59.13,-254.17 52.13,-254.17"/>
</a>
</g>
</g>
</g>
</svg>
