<?xml version="1.0" encoding="UTF-8" standalone="no"?>
<!DOCTYPE svg PUBLIC "-//W3C//DTD SVG 1.1//EN"
 "http://www.w3.org/Graphics/SVG/1.1/DTD/svg11.dtd">
<!-- Generated by graphviz version 11.0.0 (20240428.1522)
 -->
<!-- Title: triton::arch::BitsVector Pages: 1 -->
<svg width="401pt" height="83pt"
 viewBox="0.00 0.00 400.75 82.50" xmlns="http://www.w3.org/2000/svg" xmlns:xlink="http://www.w3.org/1999/xlink">
<g id="graph0" class="graph" transform="scale(1 1) rotate(0) translate(4 78.5)">
<title>triton::arch::BitsVector</title>
<!-- Node1 -->
<g id="Node000001" class="node">
<title>Node1</title>
<g id="a_Node000001"><a xlink:title="This class is used to deal with registers and memory as bits vector.">
<polygon fill="#999999" stroke="#666666" points="258.25,-74.5 144,-74.5 144,-55.25 258.25,-55.25 258.25,-74.5"/>
<text text-anchor="middle" x="201.12" y="-61" font-family="Helvetica,sans-Serif" font-size="10.00">triton::arch::BitsVector</text>
</a>
</g>
</g>
<!-- Node2 -->
<g id="Node000002" class="node">
<title>Node2</title>
<g id="a_Node000002"><a xlink:href="$classtriton_1_1arch_1_1Immediate.html" xlink:title="This class is used to represent an immediate.">
<polygon fill="white" stroke="#666666" points="114.25,-19.25 0,-19.25 0,0 114.25,0 114.25,-19.25"/>
<text text-anchor="middle" x="57.12" y="-5.75" font-family="Helvetica,sans-Serif" font-size="10.00">triton::arch::Immediate</text>
</a>
</g>
</g>
<!-- Node1&#45;&gt;Node2 -->
<g id="edge1_Node000001_Node000002" class="edge">
<title>Node1&#45;&gt;Node2</title>
<g id="a_edge1_Node000001_Node000002"><a xlink:title=" ">
<path fill="none" stroke="#63b8ff" d="M166.1,-50.92C139.95,-41.25 104.88,-28.29 81.67,-19.7"/>
<polygon fill="#63b8ff" stroke="#63b8ff" points="164.68,-54.13 175.28,-54.32 167.11,-47.57 164.68,-54.13"/>
</a>
</g>
</g>
<!-- Node3 -->
<g id="Node000003" class="node">
<title>Node3</title>
<g id="a_Node000003"><a xlink:href="$classtriton_1_1arch_1_1MemoryAccess.html" xlink:title="This class is used to represent a memory access.">
<polygon fill="white" stroke="#666666" points="269.5,-19.25 132.75,-19.25 132.75,0 269.5,0 269.5,-19.25"/>
<text text-anchor="middle" x="201.12" y="-5.75" font-family="Helvetica,sans-Serif" font-size="10.00">triton::arch::MemoryAccess</text>
</a>
</g>
</g>
<!-- Node1&#45;&gt;Node3 -->
<g id="edge2_Node000001_Node000003" class="edge">
<title>Node1&#45;&gt;Node3</title>
<g id="a_edge2_Node000001_Node000003"><a xlink:title=" ">
<path fill="none" stroke="#63b8ff" d="M201.12,-43.63C201.12,-35.34 201.12,-26.17 201.12,-19.61"/>
<polygon fill="#63b8ff" stroke="#63b8ff" points="197.63,-43.57 201.13,-53.57 204.63,-43.57 197.63,-43.57"/>
</a>
</g>
</g>
<!-- Node4 -->
<g id="Node000004" class="node">
<title>Node4</title>
<g id="a_Node000004"><a xlink:href="$classtriton_1_1arch_1_1Register.html" xlink:title="This class is used when an instruction has a register operand.">
<polygon fill="white" stroke="#666666" points="392.75,-19.25 287.5,-19.25 287.5,0 392.75,0 392.75,-19.25"/>
<text text-anchor="middle" x="340.12" y="-5.75" font-family="Helvetica,sans-Serif" font-size="10.00">triton::arch::Register</text>
</a>
</g>
</g>
<!-- Node1&#45;&gt;Node4 -->
<g id="edge3_Node000001_Node000004" class="edge">
<title>Node1&#45;&gt;Node4</title>
<g id="a_edge3_Node000001_Node000004"><a xlink:title=" ">
<path fill="none" stroke="#63b8ff" d="M235.27,-50.79C260.47,-41.14 294.13,-28.25 316.43,-19.7"/>
<polygon fill="#63b8ff" stroke="#63b8ff" points="234.2,-47.45 226.12,-54.3 236.71,-53.99 234.2,-47.45"/>
</a>
</g>
</g>
</g>
</svg>
