<?xml version="1.0" encoding="UTF-8" standalone="no"?>
<!DOCTYPE svg PUBLIC "-//W3C//DTD SVG 1.1//EN"
 "http://www.w3.org/Graphics/SVG/1.1/DTD/svg11.dtd">
<!-- Generated by graphviz version 2.49.0 (20210828.1703)
 -->
<!-- Title: triton::ast::ForallNode Pages: 1 -->
<svg width="165pt" height="151pt"
 viewBox="0.00 0.00 165.00 151.00" xmlns="http://www.w3.org/2000/svg" xmlns:xlink="http://www.w3.org/1999/xlink">
<g id="graph0" class="graph" transform="scale(1 1) rotate(0) translate(4 147)">
<title>triton::ast::ForallNode</title>
<polygon fill="white" stroke="transparent" points="-4,4 -4,-147 161,-147 161,4 -4,4"/>
<!-- Node1 -->
<g id="node1" class="node">
<title>Node1</title>
<g id="a_node1"><a xlink:title="(forall ((x (_ BitVec &lt;size&gt;)), ...) body)">
<polygon fill="#bfbfbf" stroke="black" points="17.5,-0.5 17.5,-19.5 139.5,-19.5 139.5,-0.5 17.5,-0.5"/>
<text text-anchor="middle" x="78.5" y="-7.5" font-family="Helvetica,sans-Serif" font-size="10.00">triton::ast::ForallNode</text>
</a>
</g>
</g>
<!-- Node2 -->
<g id="node2" class="node">
<title>Node2</title>
<g id="a_node2"><a xlink:href="classtriton_1_1ast_1_1AbstractNode.html" target="_top" xlink:title="Abstract node.">
<polygon fill="white" stroke="black" points="10.5,-56.5 10.5,-75.5 146.5,-75.5 146.5,-56.5 10.5,-56.5"/>
<text text-anchor="middle" x="78.5" y="-63.5" font-family="Helvetica,sans-Serif" font-size="10.00">triton::ast::AbstractNode</text>
</a>
</g>
</g>
<!-- Node2&#45;&gt;Node1 -->
<g id="edge1" class="edge">
<title>Node2&#45;&gt;Node1</title>
<path fill="none" stroke="midnightblue" d="M78.5,-45.8C78.5,-36.91 78.5,-26.78 78.5,-19.75"/>
<polygon fill="midnightblue" stroke="midnightblue" points="75,-46.08 78.5,-56.08 82,-46.08 75,-46.08"/>
</g>
<!-- Node3 -->
<g id="node3" class="node">
<title>Node3</title>
<g id="a_node3"><a xlink:title=" ">
<polygon fill="white" stroke="#bfbfbf" points="0,-112.5 0,-142.5 157,-142.5 157,-112.5 0,-112.5"/>
<text text-anchor="start" x="8" y="-130.5" font-family="Helvetica,sans-Serif" font-size="10.00">std::enable_shared</text>
<text text-anchor="middle" x="78.5" y="-119.5" font-family="Helvetica,sans-Serif" font-size="10.00">_from_this&lt; AbstractNode &gt;</text>
</a>
</g>
</g>
<!-- Node3&#45;&gt;Node2 -->
<g id="edge2" class="edge">
<title>Node3&#45;&gt;Node2</title>
<path fill="none" stroke="midnightblue" d="M78.5,-102.29C78.5,-92.86 78.5,-82.65 78.5,-75.66"/>
<polygon fill="midnightblue" stroke="midnightblue" points="75,-102.4 78.5,-112.4 82,-102.4 75,-102.4"/>
</g>
</g>
</svg>
