<?xml version="1.0" encoding="UTF-8" standalone="no"?>
<!DOCTYPE svg PUBLIC "-//W3C//DTD SVG 1.1//EN"
 "http://www.w3.org/Graphics/SVG/1.1/DTD/svg11.dtd">
<!-- Generated by graphviz version 2.50.0 (20211204.2007)
 -->
<!-- Title: triton::exceptions::Ast Pages: 1 -->
<svg width="242pt" height="218pt"
 viewBox="0.00 0.00 241.50 218.00" xmlns="http://www.w3.org/2000/svg" xmlns:xlink="http://www.w3.org/1999/xlink">
<g id="graph0" class="graph" transform="scale(1 1) rotate(0) translate(4 214)">
<title>triton::exceptions::Ast</title>
<polygon fill="white" stroke="transparent" points="-4,4 -4,-214 237.5,-214 237.5,4 -4,4"/>
<!-- Node1 -->
<g id="node1" class="node">
<title>Node1</title>
<g id="a_node1"><a xlink:title="The exception class used by all AST nodes.">
<polygon fill="#bfbfbf" stroke="black" points="52,-67.5 52,-86.5 176,-86.5 176,-67.5 52,-67.5"/>
<text text-anchor="middle" x="114" y="-74.5" font-family="Helvetica,sans-Serif" font-size="10.00">triton::exceptions::Ast</text>
</a>
</g>
</g>
<!-- Node4 -->
<g id="node4" class="node">
<title>Node4</title>
<g id="a_node4"><a xlink:href="classtriton_1_1exceptions_1_1AstLifting.html" target="_top" xlink:title="The exception class used by all AST lifting (e.g z3 &lt;&#45;&gt; triton).">
<polygon fill="white" stroke="black" points="0,-0.5 0,-30.5 102,-30.5 102,-0.5 0,-0.5"/>
<text text-anchor="start" x="8" y="-18.5" font-family="Helvetica,sans-Serif" font-size="10.00">triton::exceptions</text>
<text text-anchor="middle" x="51" y="-7.5" font-family="Helvetica,sans-Serif" font-size="10.00">::AstLifting</text>
</a>
</g>
</g>
<!-- Node1&#45;&gt;Node4 -->
<g id="edge3" class="edge">
<title>Node1&#45;&gt;Node4</title>
<path fill="none" stroke="midnightblue" d="M97.45,-60.37C87.65,-51.11 75.33,-39.48 65.85,-30.52"/>
<polygon fill="midnightblue" stroke="midnightblue" points="95.3,-63.15 104.97,-67.48 100.11,-58.06 95.3,-63.15"/>
</g>
<!-- Node5 -->
<g id="node5" class="node">
<title>Node5</title>
<g id="a_node5"><a xlink:href="classtriton_1_1exceptions_1_1AstRepresentation.html" target="_top" xlink:title="The exception class used by all AST node representations.">
<polygon fill="white" stroke="black" points="120.5,-0.5 120.5,-30.5 233.5,-30.5 233.5,-0.5 120.5,-0.5"/>
<text text-anchor="start" x="128.5" y="-18.5" font-family="Helvetica,sans-Serif" font-size="10.00">triton::exceptions</text>
<text text-anchor="middle" x="177" y="-7.5" font-family="Helvetica,sans-Serif" font-size="10.00">::AstRepresentation</text>
</a>
</g>
</g>
<!-- Node1&#45;&gt;Node5 -->
<g id="edge4" class="edge">
<title>Node1&#45;&gt;Node5</title>
<path fill="none" stroke="midnightblue" d="M130.55,-60.37C140.35,-51.11 152.67,-39.48 162.15,-30.52"/>
<polygon fill="midnightblue" stroke="midnightblue" points="127.89,-58.06 123.03,-67.48 132.7,-63.15 127.89,-58.06"/>
</g>
<!-- Node2 -->
<g id="node2" class="node">
<title>Node2</title>
<g id="a_node2"><a xlink:href="classtriton_1_1exceptions_1_1Exception.html" target="_top" xlink:title="The root class of all exceptions.">
<polygon fill="white" stroke="black" points="63,-123.5 63,-153.5 165,-153.5 165,-123.5 63,-123.5"/>
<text text-anchor="start" x="71" y="-141.5" font-family="Helvetica,sans-Serif" font-size="10.00">triton::exceptions</text>
<text text-anchor="middle" x="114" y="-130.5" font-family="Helvetica,sans-Serif" font-size="10.00">::Exception</text>
</a>
</g>
</g>
<!-- Node2&#45;&gt;Node1 -->
<g id="edge1" class="edge">
<title>Node2&#45;&gt;Node1</title>
<path fill="none" stroke="midnightblue" d="M114,-113.29C114,-103.86 114,-93.65 114,-86.66"/>
<polygon fill="midnightblue" stroke="midnightblue" points="110.5,-113.4 114,-123.4 117.5,-113.4 110.5,-113.4"/>
</g>
<!-- Node3 -->
<g id="node3" class="node">
<title>Node3</title>
<g id="a_node3"><a xlink:title=" ">
<polygon fill="white" stroke="#bfbfbf" points="71,-190.5 71,-209.5 157,-209.5 157,-190.5 71,-190.5"/>
<text text-anchor="middle" x="114" y="-197.5" font-family="Helvetica,sans-Serif" font-size="10.00">std::exception</text>
</a>
</g>
</g>
<!-- Node3&#45;&gt;Node2 -->
<g id="edge2" class="edge">
<title>Node3&#45;&gt;Node2</title>
<path fill="none" stroke="midnightblue" d="M114,-180.23C114,-171.59 114,-161.5 114,-153.52"/>
<polygon fill="midnightblue" stroke="midnightblue" points="110.5,-180.48 114,-190.48 117.5,-180.48 110.5,-180.48"/>
</g>
</g>
</svg>
