<?xml version="1.0" encoding="UTF-8" standalone="no"?>
<!DOCTYPE svg PUBLIC "-//W3C//DTD SVG 1.1//EN"
 "http://www.w3.org/Graphics/SVG/1.1/DTD/svg11.dtd">
<!-- Generated by graphviz version 12.1.0 (20240811.2233)
 -->
<!-- Title: triton::exceptions::Architecture Pages: 1 -->
<svg width="643pt" height="517pt"
 viewBox="0.00 0.00 643.00 516.50" xmlns="http://www.w3.org/2000/svg" xmlns:xlink="http://www.w3.org/1999/xlink">
<g id="graph0" class="graph" transform="scale(1 1) rotate(0) translate(4 512.5)">
<title>triton::exceptions::Architecture</title>
<!-- Node1 -->
<g id="Node000001" class="node">
<title>Node1</title>
<g id="a_Node000001"><a xlink:title="The exception class used by architectures.">
<polygon fill="#999999" stroke="#666666" points="331.5,-275.5 240.5,-275.5 240.5,-245 331.5,-245 331.5,-275.5"/>
<text text-anchor="start" x="248.5" y="-262" font-family="Helvetica,sans-Serif" font-size="10.00">triton::exceptions</text>
<text text-anchor="middle" x="286" y="-250.75" font-family="Helvetica,sans-Serif" font-size="10.00">::Architecture</text>
</a>
</g>
</g>
<!-- Node4 -->
<g id="Node000004" class="node">
<title>Node4</title>
<g id="a_Node000004"><a xlink:href="classtriton_1_1exceptions_1_1AArch64OperandProperties.html" target="_top" xlink:title="The exception class used by shift mode.">
<polygon fill="white" stroke="#666666" points="508,-508.5 367.5,-508.5 367.5,-478 508,-478 508,-508.5"/>
<text text-anchor="start" x="375.5" y="-495" font-family="Helvetica,sans-Serif" font-size="10.00">triton::exceptions</text>
<text text-anchor="middle" x="437.75" y="-483.75" font-family="Helvetica,sans-Serif" font-size="10.00">::AArch64OperandProperties</text>
</a>
</g>
</g>
<!-- Node1&#45;&gt;Node4 -->
<g id="edge3_Node000001_Node000004" class="edge">
<title>Node1&#45;&gt;Node4</title>
<g id="a_edge3_Node000001_Node000004"><a xlink:title=" ">
<path fill="none" stroke="#63b8ff" d="M290.21,-287.1C296.84,-330.91 315.99,-417.9 367.5,-468.25 371.16,-471.82 375.36,-474.89 379.85,-477.52"/>
<polygon fill="#63b8ff" stroke="#63b8ff" points="293.71,-286.88 288.87,-277.46 286.78,-287.84 293.71,-286.88"/>
</a>
</g>
</g>
<!-- Node5 -->
<g id="Node000005" class="node">
<title>Node5</title>
<g id="a_Node000005"><a xlink:href="classtriton_1_1exceptions_1_1ArmOperandProperties.html" target="_top" xlink:title="The exception class used by shift mode.">
<polygon fill="white" stroke="#666666" points="498.25,-459.5 377.25,-459.5 377.25,-429 498.25,-429 498.25,-459.5"/>
<text text-anchor="start" x="385.25" y="-446" font-family="Helvetica,sans-Serif" font-size="10.00">triton::exceptions</text>
<text text-anchor="middle" x="437.75" y="-434.75" font-family="Helvetica,sans-Serif" font-size="10.00">::ArmOperandProperties</text>
</a>
</g>
</g>
<!-- Node1&#45;&gt;Node5 -->
<g id="edge4_Node000001_Node000005" class="edge">
<title>Node1&#45;&gt;Node5</title>
<g id="a_edge4_Node000001_Node000005"><a xlink:title=" ">
<path fill="none" stroke="#63b8ff" d="M293.71,-286.5C303.94,-321.48 326.69,-383.15 367.5,-419.25 371.52,-422.81 376.09,-425.87 380.91,-428.51"/>
<polygon fill="#63b8ff" stroke="#63b8ff" points="297.17,-285.89 291.11,-277.19 290.43,-287.77 297.17,-285.89"/>
</a>
</g>
</g>
<!-- Node6 -->
<g id="Node000006" class="node">
<title>Node6</title>
<g id="a_Node000006"><a xlink:href="classtriton_1_1exceptions_1_1BasicBlock.html" target="_top" xlink:title="The exception class used by a basic block.">
<polygon fill="white" stroke="#666666" points="483.25,-410.5 392.25,-410.5 392.25,-380 483.25,-380 483.25,-410.5"/>
<text text-anchor="start" x="400.25" y="-397" font-family="Helvetica,sans-Serif" font-size="10.00">triton::exceptions</text>
<text text-anchor="middle" x="437.75" y="-385.75" font-family="Helvetica,sans-Serif" font-size="10.00">::BasicBlock</text>
</a>
</g>
</g>
<!-- Node1&#45;&gt;Node6 -->
<g id="edge5_Node000001_Node000006" class="edge">
<title>Node1&#45;&gt;Node6</title>
<g id="a_edge5_Node000001_Node000006"><a xlink:title=" ">
<path fill="none" stroke="#63b8ff" d="M299.84,-285.75C313.5,-310.53 337.3,-347.64 367.5,-370.25 374.76,-375.69 383.33,-380.03 391.91,-383.47"/>
<polygon fill="#63b8ff" stroke="#63b8ff" points="302.95,-284.16 295.16,-276.99 296.78,-287.46 302.95,-284.16"/>
</a>
</g>
</g>
<!-- Node7 -->
<g id="Node000007" class="node">
<title>Node7</title>
<g id="a_Node000007"><a xlink:href="classtriton_1_1exceptions_1_1BitsVector.html" target="_top" xlink:title="The exception class used by bitvectors.">
<polygon fill="white" stroke="#666666" points="483.25,-361.5 392.25,-361.5 392.25,-331 483.25,-331 483.25,-361.5"/>
<text text-anchor="start" x="400.25" y="-348" font-family="Helvetica,sans-Serif" font-size="10.00">triton::exceptions</text>
<text text-anchor="middle" x="437.75" y="-336.75" font-family="Helvetica,sans-Serif" font-size="10.00">::BitsVector</text>
</a>
</g>
</g>
<!-- Node1&#45;&gt;Node7 -->
<g id="edge6_Node000001_Node000007" class="edge">
<title>Node1&#45;&gt;Node7</title>
<g id="a_edge6_Node000001_Node000007"><a xlink:title=" ">
<path fill="none" stroke="#63b8ff" d="M312.09,-282.99C327.27,-295.85 347.52,-311.46 367.5,-322.25 375.11,-326.36 383.57,-329.98 391.88,-333.08"/>
<polygon fill="#63b8ff" stroke="#63b8ff" points="314.77,-280.68 304.91,-276.78 310.19,-285.97 314.77,-280.68"/>
</a>
</g>
</g>
<!-- Node8 -->
<g id="Node000008" class="node">
<title>Node8</title>
<g id="a_Node000008"><a xlink:href="classtriton_1_1exceptions_1_1Cpu.html" target="_top" xlink:title="The exception class used by all CPUs.">
<polygon fill="white" stroke="#666666" points="495.25,-312.88 380.25,-312.88 380.25,-293.62 495.25,-293.62 495.25,-312.88"/>
<text text-anchor="middle" x="437.75" y="-299.38" font-family="Helvetica,sans-Serif" font-size="10.00">triton::exceptions::Cpu</text>
</a>
</g>
</g>
<!-- Node1&#45;&gt;Node8 -->
<g id="edge7_Node000001_Node000008" class="edge">
<title>Node1&#45;&gt;Node8</title>
<g id="a_edge7_Node000001_Node000008"><a xlink:title=" ">
<path fill="none" stroke="#63b8ff" d="M342.51,-276.97C350.87,-279.44 359.41,-281.93 367.5,-284.25 377.81,-287.2 389,-290.31 399.33,-293.14"/>
<polygon fill="#63b8ff" stroke="#63b8ff" points="343.69,-273.67 333.11,-274.18 341.7,-280.38 343.69,-273.67"/>
</a>
</g>
</g>
<!-- Node11 -->
<g id="Node000011" class="node">
<title>Node11</title>
<g id="a_Node000011"><a xlink:href="classtriton_1_1exceptions_1_1Immediate.html" target="_top" xlink:title="The exception class used by immediates.">
<polygon fill="white" stroke="#666666" points="483.25,-275.5 392.25,-275.5 392.25,-245 483.25,-245 483.25,-275.5"/>
<text text-anchor="start" x="400.25" y="-262" font-family="Helvetica,sans-Serif" font-size="10.00">triton::exceptions</text>
<text text-anchor="middle" x="437.75" y="-250.75" font-family="Helvetica,sans-Serif" font-size="10.00">::Immediate</text>
</a>
</g>
</g>
<!-- Node1&#45;&gt;Node11 -->
<g id="edge10_Node000001_Node000011" class="edge">
<title>Node1&#45;&gt;Node11</title>
<g id="a_edge10_Node000001_Node000011"><a xlink:title=" ">
<path fill="none" stroke="#63b8ff" d="M343.34,-260.25C359.37,-260.25 376.6,-260.25 391.85,-260.25"/>
<polygon fill="#63b8ff" stroke="#63b8ff" points="343.44,-256.75 333.44,-260.25 343.44,-263.75 343.44,-256.75"/>
</a>
</g>
</g>
<!-- Node12 -->
<g id="Node000012" class="node">
<title>Node12</title>
<g id="a_Node000012"><a xlink:href="classtriton_1_1exceptions_1_1Instruction.html" target="_top" xlink:title="The exception class used by an instruction.">
<polygon fill="white" stroke="#666666" points="483.25,-226.5 392.25,-226.5 392.25,-196 483.25,-196 483.25,-226.5"/>
<text text-anchor="start" x="400.25" y="-213" font-family="Helvetica,sans-Serif" font-size="10.00">triton::exceptions</text>
<text text-anchor="middle" x="437.75" y="-201.75" font-family="Helvetica,sans-Serif" font-size="10.00">::Instruction</text>
</a>
</g>
</g>
<!-- Node1&#45;&gt;Node12 -->
<g id="edge11_Node000001_Node000012" class="edge">
<title>Node1&#45;&gt;Node12</title>
<g id="a_edge11_Node000001_Node000012"><a xlink:title=" ">
<path fill="none" stroke="#63b8ff" d="M342.41,-242.12C358.7,-236.79 376.31,-231.03 391.85,-225.94"/>
<polygon fill="#63b8ff" stroke="#63b8ff" points="341.78,-238.64 333.37,-245.08 343.96,-245.29 341.78,-238.64"/>
</a>
</g>
</g>
<!-- Node13 -->
<g id="Node000013" class="node">
<title>Node13</title>
<g id="a_Node000013"><a xlink:href="classtriton_1_1exceptions_1_1IrBuilder.html" target="_top" xlink:title="The exception class used by the IR builder.">
<polygon fill="white" stroke="#666666" points="483.25,-177.5 392.25,-177.5 392.25,-147 483.25,-147 483.25,-177.5"/>
<text text-anchor="start" x="400.25" y="-164" font-family="Helvetica,sans-Serif" font-size="10.00">triton::exceptions</text>
<text text-anchor="middle" x="437.75" y="-152.75" font-family="Helvetica,sans-Serif" font-size="10.00">::IrBuilder</text>
</a>
</g>
</g>
<!-- Node1&#45;&gt;Node13 -->
<g id="edge12_Node000001_Node000013" class="edge">
<title>Node1&#45;&gt;Node13</title>
<g id="a_edge12_Node000001_Node000013"><a xlink:title=" ">
<path fill="none" stroke="#63b8ff" d="M308.48,-236.41C323.69,-220.7 345.27,-200.62 367.5,-187.25 375.06,-182.7 383.57,-178.79 391.98,-175.5"/>
<polygon fill="#63b8ff" stroke="#63b8ff" points="306.08,-233.85 301.76,-243.52 311.17,-238.66 306.08,-233.85"/>
</a>
</g>
</g>
<!-- Node14 -->
<g id="Node000014" class="node">
<title>Node14</title>
<g id="a_Node000014"><a xlink:href="classtriton_1_1exceptions_1_1MemoryAccess.html" target="_top" xlink:title="The exception class used by memory access.">
<polygon fill="white" stroke="#666666" points="483.25,-128.5 392.25,-128.5 392.25,-98 483.25,-98 483.25,-128.5"/>
<text text-anchor="start" x="400.25" y="-115" font-family="Helvetica,sans-Serif" font-size="10.00">triton::exceptions</text>
<text text-anchor="middle" x="437.75" y="-103.75" font-family="Helvetica,sans-Serif" font-size="10.00">::MemoryAccess</text>
</a>
</g>
</g>
<!-- Node1&#45;&gt;Node14 -->
<g id="edge13_Node000001_Node000014" class="edge">
<title>Node1&#45;&gt;Node14</title>
<g id="a_edge13_Node000001_Node000014"><a xlink:title=" ">
<path fill="none" stroke="#63b8ff" d="M297.96,-234.46C310.86,-207.01 334.73,-164.05 367.5,-138.25 374.73,-132.56 383.37,-128.09 392.06,-124.61"/>
<polygon fill="#63b8ff" stroke="#63b8ff" points="294.83,-232.9 293.89,-243.46 301.2,-235.79 294.83,-232.9"/>
</a>
</g>
</g>
<!-- Node15 -->
<g id="Node000015" class="node">
<title>Node15</title>
<g id="a_Node000015"><a xlink:href="classtriton_1_1exceptions_1_1OperandWrapper.html" target="_top" xlink:title="The exception class used by operand wrappers.">
<polygon fill="white" stroke="#666666" points="485.12,-79.5 390.38,-79.5 390.38,-49 485.12,-49 485.12,-79.5"/>
<text text-anchor="start" x="398.38" y="-66" font-family="Helvetica,sans-Serif" font-size="10.00">triton::exceptions</text>
<text text-anchor="middle" x="437.75" y="-54.75" font-family="Helvetica,sans-Serif" font-size="10.00">::OperandWrapper</text>
</a>
</g>
</g>
<!-- Node1&#45;&gt;Node15 -->
<g id="edge14_Node000001_Node000015" class="edge">
<title>Node1&#45;&gt;Node15</title>
<g id="a_edge14_Node000001_Node000015"><a xlink:title=" ">
<path fill="none" stroke="#63b8ff" d="M292.73,-233.67C302.1,-196.39 324.15,-128.72 367.5,-89.25 373.93,-83.4 381.83,-78.89 389.96,-75.43"/>
<polygon fill="#63b8ff" stroke="#63b8ff" points="289.39,-232.62 290.48,-243.16 296.2,-234.24 289.39,-232.62"/>
</a>
</g>
</g>
<!-- Node16 -->
<g id="Node000016" class="node">
<title>Node16</title>
<g id="a_Node000016"><a xlink:href="classtriton_1_1exceptions_1_1Register.html" target="_top" xlink:title="The exception class used by register operands.">
<polygon fill="white" stroke="#666666" points="483.25,-30.5 392.25,-30.5 392.25,0 483.25,0 483.25,-30.5"/>
<text text-anchor="start" x="400.25" y="-17" font-family="Helvetica,sans-Serif" font-size="10.00">triton::exceptions</text>
<text text-anchor="middle" x="437.75" y="-5.75" font-family="Helvetica,sans-Serif" font-size="10.00">::Register</text>
</a>
</g>
</g>
<!-- Node1&#45;&gt;Node16 -->
<g id="edge15_Node000001_Node000016" class="edge">
<title>Node1&#45;&gt;Node16</title>
<g id="a_edge15_Node000001_Node000016"><a xlink:title=" ">
<path fill="none" stroke="#63b8ff" d="M289.57,-233.19C295.34,-187.34 313.38,-94.14 367.5,-40.25 374.29,-33.49 383.05,-28.54 392.04,-24.93"/>
<polygon fill="#63b8ff" stroke="#63b8ff" points="286.11,-232.7 288.45,-243.04 293.06,-233.5 286.11,-232.7"/>
</a>
</g>
</g>
<!-- Node2 -->
<g id="Node000002" class="node">
<title>Node2</title>
<g id="a_Node000002"><a xlink:href="classtriton_1_1exceptions_1_1Exception.html" target="_top" xlink:title="The root class of all exceptions.">
<polygon fill="white" stroke="#666666" points="204.5,-275.5 113.5,-275.5 113.5,-245 204.5,-245 204.5,-275.5"/>
<text text-anchor="start" x="121.5" y="-262" font-family="Helvetica,sans-Serif" font-size="10.00">triton::exceptions</text>
<text text-anchor="middle" x="159" y="-250.75" font-family="Helvetica,sans-Serif" font-size="10.00">::Exception</text>
</a>
</g>
</g>
<!-- Node2&#45;&gt;Node1 -->
<g id="edge1_Node000001_Node000002" class="edge">
<title>Node2&#45;&gt;Node1</title>
<g id="a_edge1_Node000001_Node000002"><a xlink:title=" ">
<path fill="none" stroke="#63b8ff" d="M216.03,-260.25C224.09,-260.25 232.31,-260.25 240.12,-260.25"/>
<polygon fill="#63b8ff" stroke="#63b8ff" points="216.29,-256.75 206.29,-260.25 216.29,-263.75 216.29,-256.75"/>
</a>
</g>
</g>
<!-- Node3 -->
<g id="Node000003" class="node">
<title>Node3</title>
<g id="a_Node000003"><a xlink:title=" ">
<polygon fill="white" stroke="#bfbfbf" points="77.5,-269.88 0,-269.88 0,-250.62 77.5,-250.62 77.5,-269.88"/>
<text text-anchor="middle" x="38.75" y="-256.38" font-family="Helvetica,sans-Serif" font-size="10.00">std::exception</text>
</a>
</g>
</g>
<!-- Node3&#45;&gt;Node2 -->
<g id="edge2_Node000002_Node000003" class="edge">
<title>Node3&#45;&gt;Node2</title>
<g id="a_edge2_Node000002_Node000003"><a xlink:title=" ">
<path fill="none" stroke="#63b8ff" d="M89.29,-260.25C97.3,-260.25 105.54,-260.25 113.41,-260.25"/>
<polygon fill="#63b8ff" stroke="#63b8ff" points="89.33,-256.75 79.33,-260.25 89.33,-263.75 89.33,-256.75"/>
</a>
</g>
</g>
<!-- Node9 -->
<g id="Node000009" class="node">
<title>Node9</title>
<g id="a_Node000009"><a xlink:href="classtriton_1_1exceptions_1_1Disassembly.html" target="_top" xlink:title="The exception class used by the disassembler.">
<polygon fill="white" stroke="#666666" points="635,-342.5 544,-342.5 544,-312 635,-312 635,-342.5"/>
<text text-anchor="start" x="552" y="-329" font-family="Helvetica,sans-Serif" font-size="10.00">triton::exceptions</text>
<text text-anchor="middle" x="589.5" y="-317.75" font-family="Helvetica,sans-Serif" font-size="10.00">::Disassembly</text>
</a>
</g>
</g>
<!-- Node8&#45;&gt;Node9 -->
<g id="edge8_Node000008_Node000009" class="edge">
<title>Node8&#45;&gt;Node9</title>
<g id="a_edge8_Node000008_Node000009"><a xlink:title=" ">
<path fill="none" stroke="#63b8ff" d="M506.43,-314.1C519.15,-316.14 532.15,-318.22 543.94,-320.11"/>
<polygon fill="#63b8ff" stroke="#63b8ff" points="507.29,-310.69 496.86,-312.56 506.18,-317.6 507.29,-310.69"/>
</a>
</g>
</g>
<!-- Node10 -->
<g id="Node000010" class="node">
<title>Node10</title>
<g id="a_Node000010"><a xlink:href="classtriton_1_1exceptions_1_1Semantics.html" target="_top" xlink:title="The exception class used by all semantics.">
<polygon fill="white" stroke="#666666" points="635,-293.5 544,-293.5 544,-263 635,-263 635,-293.5"/>
<text text-anchor="start" x="552" y="-280" font-family="Helvetica,sans-Serif" font-size="10.00">triton::exceptions</text>
<text text-anchor="middle" x="589.5" y="-268.75" font-family="Helvetica,sans-Serif" font-size="10.00">::Semantics</text>
</a>
</g>
</g>
<!-- Node8&#45;&gt;Node10 -->
<g id="edge9_Node000008_Node000010" class="edge">
<title>Node8&#45;&gt;Node10</title>
<g id="a_edge9_Node000008_Node000010"><a xlink:title=" ">
<path fill="none" stroke="#63b8ff" d="M506.43,-291.95C519.15,-289.83 532.15,-287.66 543.94,-285.69"/>
<polygon fill="#63b8ff" stroke="#63b8ff" points="506.14,-288.45 496.86,-293.55 507.3,-295.35 506.14,-288.45"/>
</a>
</g>
</g>
</g>
</svg>
