<?xml version="1.0" encoding="UTF-8" standalone="no"?>
<!DOCTYPE svg PUBLIC "-//W3C//DTD SVG 1.1//EN"
 "http://www.w3.org/Graphics/SVG/1.1/DTD/svg11.dtd">
<!-- Generated by graphviz version 2.49.0 (20210828.1703)
 -->
<!-- Title: triton::exceptions::Exception Pages: 1 -->
<svg width="752pt" height="788pt"
 viewBox="0.00 0.00 752.00 788.00" xmlns="http://www.w3.org/2000/svg" xmlns:xlink="http://www.w3.org/1999/xlink">
<g id="graph0" class="graph" transform="scale(1 1) rotate(0) translate(4 784)">
<title>triton::exceptions::Exception</title>
<polygon fill="white" stroke="transparent" points="-4,4 -4,-784 748,-784 748,4 -4,4"/>
<!-- Node1 -->
<g id="node1" class="node">
<title>Node1</title>
<g id="a_node1"><a xlink:title="The root class of all exceptions.">
<polygon fill="#bfbfbf" stroke="black" points="122,-223.5 122,-253.5 224,-253.5 224,-223.5 122,-223.5"/>
<text text-anchor="start" x="130" y="-241.5" font-family="Helvetica,sans-Serif" font-size="10.00">triton::exceptions</text>
<text text-anchor="middle" x="173" y="-230.5" font-family="Helvetica,sans-Serif" font-size="10.00">::Exception</text>
</a>
</g>
</g>
<!-- Node3 -->
<g id="node3" class="node">
<title>Node3</title>
<g id="a_node3"><a xlink:href="classtriton_1_1exceptions_1_1API.html" target="_top" xlink:title="The exception class used by the Triton&#39;s API.">
<polygon fill="white" stroke="black" points="260,-539 260,-558 384,-558 384,-539 260,-539"/>
<text text-anchor="middle" x="322" y="-546" font-family="Helvetica,sans-Serif" font-size="10.00">triton::exceptions::API</text>
</a>
</g>
</g>
<!-- Node1&#45;&gt;Node3 -->
<g id="edge2" class="edge">
<title>Node1&#45;&gt;Node3</title>
<path fill="none" stroke="midnightblue" d="M173.93,-263.67C175.19,-319.48 186.16,-454.57 260,-529.5 263.82,-533.37 268.4,-536.46 273.33,-538.91"/>
<polygon fill="midnightblue" stroke="midnightblue" points="177.43,-263.56 173.8,-253.61 170.43,-263.65 177.43,-263.56"/>
</g>
<!-- Node4 -->
<g id="node4" class="node">
<title>Node4</title>
<g id="a_node4"><a xlink:href="classtriton_1_1exceptions_1_1Architecture.html" target="_top" xlink:title="The exception class used by architectures.">
<polygon fill="white" stroke="black" points="271,-489.5 271,-519.5 373,-519.5 373,-489.5 271,-489.5"/>
<text text-anchor="start" x="279" y="-507.5" font-family="Helvetica,sans-Serif" font-size="10.00">triton::exceptions</text>
<text text-anchor="middle" x="322" y="-496.5" font-family="Helvetica,sans-Serif" font-size="10.00">::Architecture</text>
</a>
</g>
</g>
<!-- Node1&#45;&gt;Node4 -->
<g id="edge3" class="edge">
<title>Node1&#45;&gt;Node4</title>
<path fill="none" stroke="midnightblue" d="M187.2,-262.38C216.86,-316.06 288.12,-445 312.58,-489.27"/>
<polygon fill="midnightblue" stroke="midnightblue" points="190.22,-260.62 182.32,-253.56 184.1,-264.01 190.22,-260.62"/>
</g>
<!-- Node17 -->
<g id="node17" class="node">
<title>Node17</title>
<g id="a_node17"><a xlink:href="classtriton_1_1exceptions_1_1Ast.html" target="_top" xlink:title="The exception class used by all AST nodes.">
<polygon fill="white" stroke="black" points="260,-273 260,-292 384,-292 384,-273 260,-273"/>
<text text-anchor="middle" x="322" y="-280" font-family="Helvetica,sans-Serif" font-size="10.00">triton::exceptions::Ast</text>
</a>
</g>
</g>
<!-- Node1&#45;&gt;Node17 -->
<g id="edge16" class="edge">
<title>Node1&#45;&gt;Node17</title>
<path fill="none" stroke="midnightblue" d="M233.9,-256.43C252.77,-262.08 272.87,-268.09 289,-272.92"/>
<polygon fill="midnightblue" stroke="midnightblue" points="234.76,-253.03 224.18,-253.52 232.75,-259.74 234.76,-253.03"/>
</g>
<!-- Node20 -->
<g id="node20" class="node">
<title>Node20</title>
<g id="a_node20"><a xlink:href="classtriton_1_1exceptions_1_1Bindings.html" target="_top" xlink:title="The exception class used by bindings.">
<polygon fill="white" stroke="black" points="271,-223.5 271,-253.5 373,-253.5 373,-223.5 271,-223.5"/>
<text text-anchor="start" x="279" y="-241.5" font-family="Helvetica,sans-Serif" font-size="10.00">triton::exceptions</text>
<text text-anchor="middle" x="322" y="-230.5" font-family="Helvetica,sans-Serif" font-size="10.00">::Bindings</text>
</a>
</g>
</g>
<!-- Node1&#45;&gt;Node20 -->
<g id="edge19" class="edge">
<title>Node1&#45;&gt;Node20</title>
<path fill="none" stroke="midnightblue" d="M234.18,-238.5C246.26,-238.5 258.84,-238.5 270.55,-238.5"/>
<polygon fill="midnightblue" stroke="midnightblue" points="234.18,-235 224.18,-238.5 234.18,-242 234.18,-235"/>
</g>
<!-- Node21 -->
<g id="node21" class="node">
<title>Node21</title>
<g id="a_node21"><a xlink:href="classtriton_1_1exceptions_1_1Callbacks.html" target="_top" xlink:title="The exception class used by callbacks.">
<polygon fill="white" stroke="black" points="271,-174.5 271,-204.5 373,-204.5 373,-174.5 271,-174.5"/>
<text text-anchor="start" x="279" y="-192.5" font-family="Helvetica,sans-Serif" font-size="10.00">triton::exceptions</text>
<text text-anchor="middle" x="322" y="-181.5" font-family="Helvetica,sans-Serif" font-size="10.00">::Callbacks</text>
</a>
</g>
</g>
<!-- Node1&#45;&gt;Node21 -->
<g id="edge20" class="edge">
<title>Node1&#45;&gt;Node21</title>
<path fill="none" stroke="midnightblue" d="M229.22,-220.09C244.6,-214.97 261.12,-209.46 275.85,-204.55"/>
<polygon fill="midnightblue" stroke="midnightblue" points="227.68,-216.92 219.3,-223.4 229.9,-223.56 227.68,-216.92"/>
</g>
<!-- Node22 -->
<g id="node22" class="node">
<title>Node22</title>
<g id="a_node22"><a xlink:href="classtriton_1_1exceptions_1_1Engines.html" target="_top" xlink:title="The exception class used by all engines.">
<polygon fill="white" stroke="black" points="271,-123.5 271,-153.5 373,-153.5 373,-123.5 271,-123.5"/>
<text text-anchor="start" x="279" y="-141.5" font-family="Helvetica,sans-Serif" font-size="10.00">triton::exceptions</text>
<text text-anchor="middle" x="322" y="-130.5" font-family="Helvetica,sans-Serif" font-size="10.00">::Engines</text>
</a>
</g>
</g>
<!-- Node1&#45;&gt;Node22 -->
<g id="edge21" class="edge">
<title>Node1&#45;&gt;Node22</title>
<path fill="none" stroke="midnightblue" d="M196.22,-215.98C212.75,-200.11 236.43,-179.17 260,-164.5 266.45,-160.49 273.63,-156.81 280.73,-153.57"/>
<polygon fill="midnightblue" stroke="midnightblue" points="193.42,-213.82 188.71,-223.31 198.31,-218.83 193.42,-213.82"/>
</g>
<!-- Node33 -->
<g id="node33" class="node">
<title>Node33</title>
<g id="a_node33"><a xlink:href="classtriton_1_1exceptions_1_1PyCallbacks.html" target="_top" xlink:title=" ">
<polygon fill="white" stroke="black" points="271,-74.5 271,-104.5 373,-104.5 373,-74.5 271,-74.5"/>
<text text-anchor="start" x="279" y="-92.5" font-family="Helvetica,sans-Serif" font-size="10.00">triton::exceptions</text>
<text text-anchor="middle" x="322" y="-81.5" font-family="Helvetica,sans-Serif" font-size="10.00">::PyCallbacks</text>
</a>
</g>
</g>
<!-- Node1&#45;&gt;Node33 -->
<g id="edge32" class="edge">
<title>Node1&#45;&gt;Node33</title>
<path fill="none" stroke="midnightblue" d="M185.18,-214.19C199.09,-186.35 225.32,-141.06 260,-113.5 264.28,-110.1 269.09,-107.13 274.1,-104.55"/>
<polygon fill="midnightblue" stroke="midnightblue" points="182,-212.72 180.77,-223.25 188.29,-215.78 182,-212.72"/>
</g>
<!-- Node2 -->
<g id="node2" class="node">
<title>Node2</title>
<g id="a_node2"><a xlink:title=" ">
<polygon fill="white" stroke="#bfbfbf" points="0,-229 0,-248 86,-248 86,-229 0,-229"/>
<text text-anchor="middle" x="43" y="-236" font-family="Helvetica,sans-Serif" font-size="10.00">std::exception</text>
</a>
</g>
</g>
<!-- Node2&#45;&gt;Node1 -->
<g id="edge1" class="edge">
<title>Node2&#45;&gt;Node1</title>
<path fill="none" stroke="midnightblue" d="M96.34,-238.5C104.74,-238.5 113.42,-238.5 121.77,-238.5"/>
<polygon fill="midnightblue" stroke="midnightblue" points="96.27,-235 86.27,-238.5 96.27,-242 96.27,-235"/>
</g>
<!-- Node5 -->
<g id="node5" class="node">
<title>Node5</title>
<g id="a_node5"><a xlink:href="classtriton_1_1exceptions_1_1AArch64OperandProperties.html" target="_top" xlink:title="The exception class used by shift mode.">
<polygon fill="white" stroke="black" points="420,-749.5 420,-779.5 574,-779.5 574,-749.5 420,-749.5"/>
<text text-anchor="start" x="428" y="-767.5" font-family="Helvetica,sans-Serif" font-size="10.00">triton::exceptions</text>
<text text-anchor="middle" x="497" y="-756.5" font-family="Helvetica,sans-Serif" font-size="10.00">::AArch64OperandProperties</text>
</a>
</g>
</g>
<!-- Node4&#45;&gt;Node5 -->
<g id="edge4" class="edge">
<title>Node4&#45;&gt;Node5</title>
<path fill="none" stroke="midnightblue" d="M380.92,-526.07C382.01,-527.16 383.04,-528.3 384,-529.5 443.48,-603.75 357.49,-668.79 420,-740.5 423,-743.94 426.49,-746.9 430.29,-749.43"/>
<polygon fill="midnightblue" stroke="midnightblue" points="382.99,-523.24 373.02,-519.64 378.57,-528.67 382.99,-523.24"/>
</g>
<!-- Node6 -->
<g id="node6" class="node">
<title>Node6</title>
<g id="a_node6"><a xlink:href="classtriton_1_1exceptions_1_1ArmOperandProperties.html" target="_top" xlink:title="The exception class used by shift mode.">
<polygon fill="white" stroke="black" points="430,-700.5 430,-730.5 564,-730.5 564,-700.5 430,-700.5"/>
<text text-anchor="start" x="438" y="-718.5" font-family="Helvetica,sans-Serif" font-size="10.00">triton::exceptions</text>
<text text-anchor="middle" x="497" y="-707.5" font-family="Helvetica,sans-Serif" font-size="10.00">::ArmOperandProperties</text>
</a>
</g>
</g>
<!-- Node4&#45;&gt;Node6 -->
<g id="edge5" class="edge">
<title>Node4&#45;&gt;Node6</title>
<path fill="none" stroke="midnightblue" d="M380.77,-526.06C381.9,-527.15 382.99,-528.3 384,-529.5 431.53,-585.9 370.17,-637.12 420,-691.5 423.18,-694.97 426.85,-697.94 430.84,-700.48"/>
<polygon fill="midnightblue" stroke="midnightblue" points="382.57,-523.02 372.54,-519.62 378.25,-528.54 382.57,-523.02"/>
</g>
<!-- Node7 -->
<g id="node7" class="node">
<title>Node7</title>
<g id="a_node7"><a xlink:href="classtriton_1_1exceptions_1_1BitsVector.html" target="_top" xlink:title="The exception class used by bitvectors.">
<polygon fill="white" stroke="black" points="446,-651.5 446,-681.5 548,-681.5 548,-651.5 446,-651.5"/>
<text text-anchor="start" x="454" y="-669.5" font-family="Helvetica,sans-Serif" font-size="10.00">triton::exceptions</text>
<text text-anchor="middle" x="497" y="-658.5" font-family="Helvetica,sans-Serif" font-size="10.00">::BitsVector</text>
</a>
</g>
</g>
<!-- Node4&#45;&gt;Node7 -->
<g id="edge6" class="edge">
<title>Node4&#45;&gt;Node7</title>
<path fill="none" stroke="midnightblue" d="M380.09,-525.72C381.46,-526.91 382.77,-528.17 384,-529.5 419.5,-567.88 383.15,-604.4 420,-641.5 427.15,-648.69 436.4,-653.82 445.97,-657.47"/>
<polygon fill="midnightblue" stroke="midnightblue" points="381.74,-522.59 371.58,-519.57 377.63,-528.26 381.74,-522.59"/>
</g>
<!-- Node8 -->
<g id="node8" class="node">
<title>Node8</title>
<g id="a_node8"><a xlink:href="classtriton_1_1exceptions_1_1Cpu.html" target="_top" xlink:title="The exception class used by all CPUs.">
<polygon fill="white" stroke="black" points="433.5,-613 433.5,-632 560.5,-632 560.5,-613 433.5,-613"/>
<text text-anchor="middle" x="497" y="-620" font-family="Helvetica,sans-Serif" font-size="10.00">triton::exceptions::Cpu</text>
</a>
</g>
</g>
<!-- Node4&#45;&gt;Node8 -->
<g id="edge7" class="edge">
<title>Node4&#45;&gt;Node8</title>
<path fill="none" stroke="midnightblue" d="M378.71,-525.09C380.57,-526.47 382.34,-527.94 384,-529.5 410.67,-554.52 391.6,-580.46 420,-603.5 424.75,-607.36 430.18,-610.44 435.91,-612.91"/>
<polygon fill="midnightblue" stroke="midnightblue" points="380.43,-522.04 370.13,-519.58 376.65,-527.93 380.43,-522.04"/>
</g>
<!-- Node11 -->
<g id="node11" class="node">
<title>Node11</title>
<g id="a_node11"><a xlink:href="classtriton_1_1exceptions_1_1Immediate.html" target="_top" xlink:title="The exception class used by immediates.">
<polygon fill="white" stroke="black" points="446,-563.5 446,-593.5 548,-593.5 548,-563.5 446,-563.5"/>
<text text-anchor="start" x="454" y="-581.5" font-family="Helvetica,sans-Serif" font-size="10.00">triton::exceptions</text>
<text text-anchor="middle" x="497" y="-570.5" font-family="Helvetica,sans-Serif" font-size="10.00">::Immediate</text>
</a>
</g>
</g>
<!-- Node4&#45;&gt;Node11 -->
<g id="edge10" class="edge">
<title>Node4&#45;&gt;Node11</title>
<path fill="none" stroke="midnightblue" d="M372.52,-523.71C376.45,-525.56 380.32,-527.5 384,-529.5 401.11,-538.8 402.51,-545.91 420,-554.5 428.07,-558.46 436.95,-561.96 445.69,-564.98"/>
<polygon fill="midnightblue" stroke="midnightblue" points="373.84,-520.47 363.28,-519.55 370.96,-526.85 373.84,-520.47"/>
</g>
<!-- Node12 -->
<g id="node12" class="node">
<title>Node12</title>
<g id="a_node12"><a xlink:href="classtriton_1_1exceptions_1_1Instruction.html" target="_top" xlink:title="The exception class used by an instruction.">
<polygon fill="white" stroke="black" points="446,-514.5 446,-544.5 548,-544.5 548,-514.5 446,-514.5"/>
<text text-anchor="start" x="454" y="-532.5" font-family="Helvetica,sans-Serif" font-size="10.00">triton::exceptions</text>
<text text-anchor="middle" x="497" y="-521.5" font-family="Helvetica,sans-Serif" font-size="10.00">::Instruction</text>
</a>
</g>
</g>
<!-- Node4&#45;&gt;Node12 -->
<g id="edge11" class="edge">
<title>Node4&#45;&gt;Node12</title>
<path fill="none" stroke="midnightblue" d="M383.18,-513.2C403.61,-516.15 426.21,-519.41 445.77,-522.24"/>
<polygon fill="midnightblue" stroke="midnightblue" points="383.44,-509.7 373.04,-511.73 382.44,-516.63 383.44,-509.7"/>
</g>
<!-- Node13 -->
<g id="node13" class="node">
<title>Node13</title>
<g id="a_node13"><a xlink:href="classtriton_1_1exceptions_1_1IrBuilder.html" target="_top" xlink:title="The exception class used by the IR builder.">
<polygon fill="white" stroke="black" points="446,-465.5 446,-495.5 548,-495.5 548,-465.5 446,-465.5"/>
<text text-anchor="start" x="454" y="-483.5" font-family="Helvetica,sans-Serif" font-size="10.00">triton::exceptions</text>
<text text-anchor="middle" x="497" y="-472.5" font-family="Helvetica,sans-Serif" font-size="10.00">::IrBuilder</text>
</a>
</g>
</g>
<!-- Node4&#45;&gt;Node13 -->
<g id="edge12" class="edge">
<title>Node4&#45;&gt;Node13</title>
<path fill="none" stroke="midnightblue" d="M383.18,-496.15C403.61,-493.32 426.21,-490.18 445.77,-487.47"/>
<polygon fill="midnightblue" stroke="midnightblue" points="382.46,-492.72 373.04,-497.56 383.42,-499.65 382.46,-492.72"/>
</g>
<!-- Node14 -->
<g id="node14" class="node">
<title>Node14</title>
<g id="a_node14"><a xlink:href="classtriton_1_1exceptions_1_1MemoryAccess.html" target="_top" xlink:title="The exception class used by memory access.">
<polygon fill="white" stroke="black" points="446,-416.5 446,-446.5 548,-446.5 548,-416.5 446,-416.5"/>
<text text-anchor="start" x="454" y="-434.5" font-family="Helvetica,sans-Serif" font-size="10.00">triton::exceptions</text>
<text text-anchor="middle" x="497" y="-423.5" font-family="Helvetica,sans-Serif" font-size="10.00">::MemoryAccess</text>
</a>
</g>
</g>
<!-- Node4&#45;&gt;Node14 -->
<g id="edge13" class="edge">
<title>Node4&#45;&gt;Node14</title>
<path fill="none" stroke="midnightblue" d="M359.9,-484.7C377.77,-475.51 399.71,-464.81 420,-456.5 428.48,-453.03 437.64,-449.68 446.57,-446.63"/>
<polygon fill="midnightblue" stroke="midnightblue" points="358.21,-481.63 350.95,-489.35 361.44,-487.85 358.21,-481.63"/>
</g>
<!-- Node15 -->
<g id="node15" class="node">
<title>Node15</title>
<g id="a_node15"><a xlink:href="classtriton_1_1exceptions_1_1OperandWrapper.html" target="_top" xlink:title="The exception class used by operand wrappers.">
<polygon fill="white" stroke="black" points="444.5,-367.5 444.5,-397.5 549.5,-397.5 549.5,-367.5 444.5,-367.5"/>
<text text-anchor="start" x="452.5" y="-385.5" font-family="Helvetica,sans-Serif" font-size="10.00">triton::exceptions</text>
<text text-anchor="middle" x="497" y="-374.5" font-family="Helvetica,sans-Serif" font-size="10.00">::OperandWrapper</text>
</a>
</g>
</g>
<!-- Node4&#45;&gt;Node15 -->
<g id="edge14" class="edge">
<title>Node4&#45;&gt;Node15</title>
<path fill="none" stroke="midnightblue" d="M340.73,-481.34C358.58,-459.48 387.99,-427.2 420,-407.5 427.45,-402.91 435.84,-399.07 444.25,-395.88"/>
<polygon fill="midnightblue" stroke="midnightblue" points="337.99,-479.16 334.47,-489.16 343.45,-483.54 337.99,-479.16"/>
</g>
<!-- Node16 -->
<g id="node16" class="node">
<title>Node16</title>
<g id="a_node16"><a xlink:href="classtriton_1_1exceptions_1_1Register.html" target="_top" xlink:title="The exception class used by register operands.">
<polygon fill="white" stroke="black" points="446,-318.5 446,-348.5 548,-348.5 548,-318.5 446,-318.5"/>
<text text-anchor="start" x="454" y="-336.5" font-family="Helvetica,sans-Serif" font-size="10.00">triton::exceptions</text>
<text text-anchor="middle" x="497" y="-325.5" font-family="Helvetica,sans-Serif" font-size="10.00">::Register</text>
</a>
</g>
</g>
<!-- Node4&#45;&gt;Node16 -->
<g id="edge15" class="edge">
<title>Node4&#45;&gt;Node16</title>
<path fill="none" stroke="midnightblue" d="M333.06,-480.04C347.59,-447.67 377.44,-390.93 420,-358.5 427.62,-352.69 436.66,-348.2 445.79,-344.73"/>
<polygon fill="midnightblue" stroke="midnightblue" points="329.84,-478.69 329.05,-489.25 336.25,-481.48 329.84,-478.69"/>
</g>
<!-- Node9 -->
<g id="node9" class="node">
<title>Node9</title>
<g id="a_node9"><a xlink:href="classtriton_1_1exceptions_1_1Disassembly.html" target="_top" xlink:title="The exception class used by the disassembler.">
<polygon fill="white" stroke="black" points="626,-631.5 626,-661.5 728,-661.5 728,-631.5 626,-631.5"/>
<text text-anchor="start" x="634" y="-649.5" font-family="Helvetica,sans-Serif" font-size="10.00">triton::exceptions</text>
<text text-anchor="middle" x="677" y="-638.5" font-family="Helvetica,sans-Serif" font-size="10.00">::Disassembly</text>
</a>
</g>
</g>
<!-- Node8&#45;&gt;Node9 -->
<g id="edge8" class="edge">
<title>Node8&#45;&gt;Node9</title>
<path fill="none" stroke="midnightblue" d="M570.44,-632.27C589.08,-634.78 608.73,-637.43 625.96,-639.75"/>
<polygon fill="midnightblue" stroke="midnightblue" points="570.88,-628.8 560.51,-630.93 569.95,-635.73 570.88,-628.8"/>
</g>
<!-- Node10 -->
<g id="node10" class="node">
<title>Node10</title>
<g id="a_node10"><a xlink:href="classtriton_1_1exceptions_1_1Semantics.html" target="_top" xlink:title="The exception class used by all semantics.">
<polygon fill="white" stroke="black" points="626,-582.5 626,-612.5 728,-612.5 728,-582.5 626,-582.5"/>
<text text-anchor="start" x="634" y="-600.5" font-family="Helvetica,sans-Serif" font-size="10.00">triton::exceptions</text>
<text text-anchor="middle" x="677" y="-589.5" font-family="Helvetica,sans-Serif" font-size="10.00">::Semantics</text>
</a>
</g>
</g>
<!-- Node8&#45;&gt;Node10 -->
<g id="edge9" class="edge">
<title>Node8&#45;&gt;Node10</title>
<path fill="none" stroke="midnightblue" d="M570.44,-612.33C589.08,-609.71 608.73,-606.95 625.96,-604.53"/>
<polygon fill="midnightblue" stroke="midnightblue" points="569.92,-608.86 560.51,-613.72 570.9,-615.8 569.92,-608.86"/>
</g>
<!-- Node18 -->
<g id="node18" class="node">
<title>Node18</title>
<g id="a_node18"><a xlink:href="classtriton_1_1exceptions_1_1AstRepresentation.html" target="_top" xlink:title="The exception class used by all AST node representations.">
<polygon fill="white" stroke="black" points="440.5,-269.5 440.5,-299.5 553.5,-299.5 553.5,-269.5 440.5,-269.5"/>
<text text-anchor="start" x="448.5" y="-287.5" font-family="Helvetica,sans-Serif" font-size="10.00">triton::exceptions</text>
<text text-anchor="middle" x="497" y="-276.5" font-family="Helvetica,sans-Serif" font-size="10.00">::AstRepresentation</text>
</a>
</g>
</g>
<!-- Node17&#45;&gt;Node18 -->
<g id="edge17" class="edge">
<title>Node17&#45;&gt;Node18</title>
<path fill="none" stroke="midnightblue" d="M394.9,-283.33C410.12,-283.51 425.97,-283.69 440.48,-283.86"/>
<polygon fill="midnightblue" stroke="midnightblue" points="394.52,-279.83 384.48,-283.21 394.44,-286.83 394.52,-279.83"/>
</g>
<!-- Node19 -->
<g id="node19" class="node">
<title>Node19</title>
<g id="a_node19"><a xlink:href="classtriton_1_1exceptions_1_1AstTranslations.html" target="_top" xlink:title="The exception class used by all AST translations (z3 &lt;&#45;&gt; triton).">
<polygon fill="white" stroke="black" points="446,-220.5 446,-250.5 548,-250.5 548,-220.5 446,-220.5"/>
<text text-anchor="start" x="454" y="-238.5" font-family="Helvetica,sans-Serif" font-size="10.00">triton::exceptions</text>
<text text-anchor="middle" x="497" y="-227.5" font-family="Helvetica,sans-Serif" font-size="10.00">::AstTranslations</text>
</a>
</g>
</g>
<!-- Node17&#45;&gt;Node19 -->
<g id="edge18" class="edge">
<title>Node17&#45;&gt;Node19</title>
<path fill="none" stroke="midnightblue" d="M367.89,-270.3C391.81,-263.81 421.3,-255.79 445.96,-249.09"/>
<polygon fill="midnightblue" stroke="midnightblue" points="366.74,-266.99 358.01,-272.99 368.58,-273.74 366.74,-266.99"/>
</g>
<!-- Node23 -->
<g id="node23" class="node">
<title>Node23</title>
<g id="a_node23"><a xlink:href="classtriton_1_1exceptions_1_1SolverEngine.html" target="_top" xlink:title="The exception class used by the solver engine.">
<polygon fill="white" stroke="black" points="446,-171.5 446,-201.5 548,-201.5 548,-171.5 446,-171.5"/>
<text text-anchor="start" x="454" y="-189.5" font-family="Helvetica,sans-Serif" font-size="10.00">triton::exceptions</text>
<text text-anchor="middle" x="497" y="-178.5" font-family="Helvetica,sans-Serif" font-size="10.00">::SolverEngine</text>
</a>
</g>
</g>
<!-- Node22&#45;&gt;Node23 -->
<g id="edge22" class="edge">
<title>Node22&#45;&gt;Node23</title>
<path fill="none" stroke="midnightblue" d="M382.9,-155.12C403.41,-160.81 426.12,-167.11 445.77,-172.56"/>
<polygon fill="midnightblue" stroke="midnightblue" points="383.61,-151.68 373.04,-152.38 381.74,-158.43 383.61,-151.68"/>
</g>
<!-- Node25 -->
<g id="node25" class="node">
<title>Node25</title>
<g id="a_node25"><a xlink:href="classtriton_1_1exceptions_1_1SymbolicEngine.html" target="_top" xlink:title="The exception class used by the symbolic engine.">
<polygon fill="white" stroke="black" points="446,-122.5 446,-152.5 548,-152.5 548,-122.5 446,-122.5"/>
<text text-anchor="start" x="454" y="-140.5" font-family="Helvetica,sans-Serif" font-size="10.00">triton::exceptions</text>
<text text-anchor="middle" x="497" y="-129.5" font-family="Helvetica,sans-Serif" font-size="10.00">::SymbolicEngine</text>
</a>
</g>
</g>
<!-- Node22&#45;&gt;Node25 -->
<g id="edge24" class="edge">
<title>Node22&#45;&gt;Node25</title>
<path fill="none" stroke="midnightblue" d="M383.18,-138.15C403.61,-138.03 426.21,-137.9 445.77,-137.79"/>
<polygon fill="midnightblue" stroke="midnightblue" points="383.02,-134.65 373.04,-138.21 383.06,-141.65 383.02,-134.65"/>
</g>
<!-- Node31 -->
<g id="node31" class="node">
<title>Node31</title>
<g id="a_node31"><a xlink:href="classtriton_1_1exceptions_1_1SynthesizerEngine.html" target="_top" xlink:title="The exception class used by the synthesizer engine.">
<polygon fill="white" stroke="black" points="440.5,-73.5 440.5,-103.5 553.5,-103.5 553.5,-73.5 440.5,-73.5"/>
<text text-anchor="start" x="448.5" y="-91.5" font-family="Helvetica,sans-Serif" font-size="10.00">triton::exceptions</text>
<text text-anchor="middle" x="497" y="-80.5" font-family="Helvetica,sans-Serif" font-size="10.00">::SynthesizerEngine</text>
</a>
</g>
</g>
<!-- Node22&#45;&gt;Node31 -->
<g id="edge30" class="edge">
<title>Node22&#45;&gt;Node31</title>
<path fill="none" stroke="midnightblue" d="M382.91,-121.18C402.79,-115.44 424.74,-109.1 443.97,-103.54"/>
<polygon fill="midnightblue" stroke="midnightblue" points="381.67,-117.9 373.04,-124.04 383.62,-124.62 381.67,-117.9"/>
</g>
<!-- Node32 -->
<g id="node32" class="node">
<title>Node32</title>
<g id="a_node32"><a xlink:href="classtriton_1_1exceptions_1_1TaintEngine.html" target="_top" xlink:title="The exception class used by the taint engine.">
<polygon fill="white" stroke="black" points="446,-24.5 446,-54.5 548,-54.5 548,-24.5 446,-24.5"/>
<text text-anchor="start" x="454" y="-42.5" font-family="Helvetica,sans-Serif" font-size="10.00">triton::exceptions</text>
<text text-anchor="middle" x="497" y="-31.5" font-family="Helvetica,sans-Serif" font-size="10.00">::TaintEngine</text>
</a>
</g>
</g>
<!-- Node22&#45;&gt;Node32 -->
<g id="edge31" class="edge">
<title>Node22&#45;&gt;Node32</title>
<path fill="none" stroke="midnightblue" d="M377.42,-118.16C379.71,-116.69 381.92,-115.14 384,-113.5 405.5,-96.54 397.81,-79.55 420,-63.5 427.74,-57.9 436.82,-53.58 445.97,-50.25"/>
<polygon fill="midnightblue" stroke="midnightblue" points="375.22,-115.38 368.25,-123.36 378.68,-121.47 375.22,-115.38"/>
</g>
<!-- Node24 -->
<g id="node24" class="node">
<title>Node24</title>
<g id="a_node24"><a xlink:href="classtriton_1_1exceptions_1_1SolverModel.html" target="_top" xlink:title="The exception class used by solver models.">
<polygon fill="white" stroke="black" points="626,-245.5 626,-275.5 728,-275.5 728,-245.5 626,-245.5"/>
<text text-anchor="start" x="634" y="-263.5" font-family="Helvetica,sans-Serif" font-size="10.00">triton::exceptions</text>
<text text-anchor="middle" x="677" y="-252.5" font-family="Helvetica,sans-Serif" font-size="10.00">::SolverModel</text>
</a>
</g>
</g>
<!-- Node23&#45;&gt;Node24 -->
<g id="edge23" class="edge">
<title>Node23&#45;&gt;Node24</title>
<path fill="none" stroke="midnightblue" d="M557.74,-203.46C563.33,-205.61 568.83,-207.96 574,-210.5 591.49,-219.09 592.76,-226.43 610,-235.5 616.83,-239.1 624.3,-242.44 631.67,-245.43"/>
<polygon fill="midnightblue" stroke="midnightblue" points="558.9,-200.16 548.31,-200.02 556.51,-206.73 558.9,-200.16"/>
</g>
<!-- Node26 -->
<g id="node26" class="node">
<title>Node26</title>
<g id="a_node26"><a xlink:href="classtriton_1_1exceptions_1_1PathConstraint.html" target="_top" xlink:title="The exception class used by path constraints.">
<polygon fill="white" stroke="black" points="626,-196.5 626,-226.5 728,-226.5 728,-196.5 626,-196.5"/>
<text text-anchor="start" x="634" y="-214.5" font-family="Helvetica,sans-Serif" font-size="10.00">triton::exceptions</text>
<text text-anchor="middle" x="677" y="-203.5" font-family="Helvetica,sans-Serif" font-size="10.00">::PathConstraint</text>
</a>
</g>
</g>
<!-- Node25&#45;&gt;Node26 -->
<g id="edge25" class="edge">
<title>Node25&#45;&gt;Node26</title>
<path fill="none" stroke="midnightblue" d="M557.74,-154.46C563.33,-156.61 568.83,-158.96 574,-161.5 591.49,-170.09 592.76,-177.43 610,-186.5 616.83,-190.1 624.3,-193.44 631.67,-196.43"/>
<polygon fill="midnightblue" stroke="midnightblue" points="558.9,-151.16 548.31,-151.02 556.51,-157.73 558.9,-151.16"/>
</g>
<!-- Node27 -->
<g id="node27" class="node">
<title>Node27</title>
<g id="a_node27"><a xlink:href="classtriton_1_1exceptions_1_1PathManager.html" target="_top" xlink:title="The exception class used by the path manager.">
<polygon fill="white" stroke="black" points="626,-147.5 626,-177.5 728,-177.5 728,-147.5 626,-147.5"/>
<text text-anchor="start" x="634" y="-165.5" font-family="Helvetica,sans-Serif" font-size="10.00">triton::exceptions</text>
<text text-anchor="middle" x="677" y="-154.5" font-family="Helvetica,sans-Serif" font-size="10.00">::PathManager</text>
</a>
</g>
</g>
<!-- Node25&#45;&gt;Node27 -->
<g id="edge26" class="edge">
<title>Node25&#45;&gt;Node27</title>
<path fill="none" stroke="midnightblue" d="M558.26,-145.96C580.19,-149.04 604.73,-152.49 625.7,-155.44"/>
<polygon fill="midnightblue" stroke="midnightblue" points="558.45,-142.46 548.06,-144.53 557.47,-149.39 558.45,-142.46"/>
</g>
<!-- Node28 -->
<g id="node28" class="node">
<title>Node28</title>
<g id="a_node28"><a xlink:href="classtriton_1_1exceptions_1_1SymbolicExpression.html" target="_top" xlink:title="The exception class used by symbolic expressions.">
<polygon fill="white" stroke="black" points="616.5,-98.5 616.5,-128.5 737.5,-128.5 737.5,-98.5 616.5,-98.5"/>
<text text-anchor="start" x="624.5" y="-116.5" font-family="Helvetica,sans-Serif" font-size="10.00">triton::exceptions</text>
<text text-anchor="middle" x="677" y="-105.5" font-family="Helvetica,sans-Serif" font-size="10.00">::SymbolicExpression</text>
</a>
</g>
</g>
<!-- Node25&#45;&gt;Node28 -->
<g id="edge27" class="edge">
<title>Node25&#45;&gt;Node28</title>
<path fill="none" stroke="midnightblue" d="M557.97,-129.41C576.75,-126.88 597.46,-124.09 616.22,-121.56"/>
<polygon fill="midnightblue" stroke="midnightblue" points="557.5,-125.95 548.06,-130.75 558.43,-132.88 557.5,-125.95"/>
</g>
<!-- Node29 -->
<g id="node29" class="node">
<title>Node29</title>
<g id="a_node29"><a xlink:href="classtriton_1_1exceptions_1_1SymbolicSimplification.html" target="_top" xlink:title="The exception class used by symbolic simplifications.">
<polygon fill="white" stroke="black" points="610,-49.5 610,-79.5 744,-79.5 744,-49.5 610,-49.5"/>
<text text-anchor="start" x="618" y="-67.5" font-family="Helvetica,sans-Serif" font-size="10.00">triton::exceptions</text>
<text text-anchor="middle" x="677" y="-56.5" font-family="Helvetica,sans-Serif" font-size="10.00">::SymbolicSimplification</text>
</a>
</g>
</g>
<!-- Node25&#45;&gt;Node29 -->
<g id="edge28" class="edge">
<title>Node25&#45;&gt;Node29</title>
<path fill="none" stroke="midnightblue" d="M557.68,-119.59C563.28,-117.4 568.8,-115.03 574,-112.5 591.29,-104.09 592.84,-97.18 610,-88.5 616.31,-85.31 623.15,-82.33 629.95,-79.63"/>
<polygon fill="midnightblue" stroke="midnightblue" points="556.38,-116.34 548.23,-123.11 558.82,-122.9 556.38,-116.34"/>
</g>
<!-- Node30 -->
<g id="node30" class="node">
<title>Node30</title>
<g id="a_node30"><a xlink:href="classtriton_1_1exceptions_1_1SymbolicVariable.html" target="_top" xlink:title="The exception class used by symbolic variables.">
<polygon fill="white" stroke="black" points="623.5,-0.5 623.5,-30.5 730.5,-30.5 730.5,-0.5 623.5,-0.5"/>
<text text-anchor="start" x="631.5" y="-18.5" font-family="Helvetica,sans-Serif" font-size="10.00">triton::exceptions</text>
<text text-anchor="middle" x="677" y="-7.5" font-family="Helvetica,sans-Serif" font-size="10.00">::SymbolicVariable</text>
</a>
</g>
</g>
<!-- Node25&#45;&gt;Node30 -->
<g id="edge29" class="edge">
<title>Node25&#45;&gt;Node30</title>
<path fill="none" stroke="midnightblue" d="M557.56,-123.2C563.49,-120.27 569.11,-116.74 574,-112.5 601.31,-88.78 583.06,-63.64 610,-39.5 614,-35.92 618.57,-32.86 623.4,-30.25"/>
<polygon fill="midnightblue" stroke="midnightblue" points="555.82,-120.14 548.04,-127.33 558.61,-126.56 555.82,-120.14"/>
</g>
</g>
</svg>
