<?xml version="1.0" encoding="UTF-8" standalone="no"?>
<!DOCTYPE svg PUBLIC "-//W3C//DTD SVG 1.1//EN"
 "http://www.w3.org/Graphics/SVG/1.1/DTD/svg11.dtd">
<!-- Generated by graphviz version 2.50.0 (20211204.2007)
 -->
<!-- Title: util::dynamic_array&lt; ValueType, AllocatorType, SizeType, DiffType &gt; Pages: 1 -->
<svg width="436pt" height="122pt"
 viewBox="0.00 0.00 436.00 121.50" xmlns="http://www.w3.org/2000/svg" xmlns:xlink="http://www.w3.org/1999/xlink">
<g id="graph0" class="graph" transform="scale(1 1) rotate(0) translate(4 117.5)">
<title>util::dynamic_array&lt; ValueType, AllocatorType, SizeType, DiffType &gt;</title>
<polygon fill="white" stroke="transparent" points="-4,4 -4,-117.5 432,-117.5 432,4 -4,4"/>
<!-- Node1 -->
<g id="node1" class="node">
<title>Node1</title>
<g id="a_node1"><a xlink:title=" ">
<polygon fill="#bfbfbf" stroke="black" points="0,-33.5 0,-74.5 152,-74.5 152,-33.5 0,-33.5"/>
<text text-anchor="start" x="8" y="-62.5" font-family="Helvetica,sans-Serif" font-size="10.00">util::dynamic_array</text>
<text text-anchor="start" x="8" y="-51.5" font-family="Helvetica,sans-Serif" font-size="10.00">&lt; ValueType, AllocatorType,</text>
<text text-anchor="middle" x="76" y="-40.5" font-family="Helvetica,sans-Serif" font-size="10.00"> SizeType, DiffType &gt;</text>
</a>
</g>
</g>
<!-- Node2 -->
<g id="node2" class="node">
<title>Node2</title>
<g id="a_node2"><a xlink:href="classmath_1_1wide__integer_1_1detail_1_1fixed__dynamic__array.html" target="_top" xlink:title=" ">
<polygon fill="white" stroke="#bfbfbf" points="288,-61 288,-113 428,-113 428,-61 288,-61"/>
<text text-anchor="start" x="296" y="-101" font-family="Helvetica,sans-Serif" font-size="10.00">math::wide_integer</text>
<text text-anchor="start" x="296" y="-90" font-family="Helvetica,sans-Serif" font-size="10.00">::detail::fixed_dynamic</text>
<text text-anchor="start" x="296" y="-79" font-family="Helvetica,sans-Serif" font-size="10.00">_array&lt; MyType, MySize,</text>
<text text-anchor="middle" x="358" y="-68" font-family="Helvetica,sans-Serif" font-size="10.00"> MyAlloc &gt;</text>
</a>
</g>
</g>
<!-- Node1&#45;&gt;Node2 -->
<g id="edge1" class="edge">
<title>Node1&#45;&gt;Node2</title>
<path fill="none" stroke="midnightblue" d="M162.08,-64.03C202.24,-68.76 249.57,-74.34 287.53,-78.81"/>
<polygon fill="midnightblue" stroke="midnightblue" points="162.38,-60.54 152.03,-62.84 161.56,-67.49 162.38,-60.54"/>
</g>
<!-- Node3 -->
<g id="node3" class="node">
<title>Node3</title>
<g id="a_node3"><a xlink:href="classutil_1_1dynamic__array.html" target="_top" xlink:title=" ">
<polygon fill="white" stroke="#bfbfbf" points="290,-0.5 290,-41.5 426,-41.5 426,-0.5 290,-0.5"/>
<text text-anchor="start" x="298" y="-29.5" font-family="Helvetica,sans-Serif" font-size="10.00">util::dynamic_array</text>
<text text-anchor="start" x="298" y="-18.5" font-family="Helvetica,sans-Serif" font-size="10.00">&lt; MyType, MyAlloc, size</text>
<text text-anchor="middle" x="358" y="-7.5" font-family="Helvetica,sans-Serif" font-size="10.00">_t, ptrdiff_t &gt;</text>
</a>
</g>
</g>
<!-- Node1&#45;&gt;Node3 -->
<g id="edge2" class="edge">
<title>Node1&#45;&gt;Node3</title>
<path fill="none" stroke="orange" stroke-dasharray="5,2" d="M162.24,-40.03C164.85,-39.67 167.45,-39.33 170,-39 209.63,-33.9 254.15,-29.56 289.81,-26.42"/>
<polygon fill="orange" stroke="orange" points="161.47,-36.6 152.06,-41.47 162.45,-43.54 161.47,-36.6"/>
<text text-anchor="start" x="170" y="-53" font-family="Helvetica,sans-Serif" font-size="10.00"> &lt; MyType, MyAlloc,</text>
<text text-anchor="middle" x="220" y="-42" font-family="Helvetica,sans-Serif" font-size="10.00"> size_t, ptrdiff_t &gt;</text>
</g>
</g>
</svg>
