<?xml version="1.0" encoding="UTF-8" standalone="no"?>
<!DOCTYPE svg PUBLIC "-//W3C//DTD SVG 1.1//EN"
 "http://www.w3.org/Graphics/SVG/1.1/DTD/svg11.dtd">
<!-- Generated by graphviz version 11.0.0 (20240428.1522)
 -->
<!-- Title: triton::arch::arm::ArmOperandProperties Pages: 1 -->
<svg width="246pt" height="94pt"
 viewBox="0.00 0.00 245.75 93.75" xmlns="http://www.w3.org/2000/svg" xmlns:xlink="http://www.w3.org/1999/xlink">
<g id="graph0" class="graph" transform="scale(1 1) rotate(0) translate(4 89.75)">
<title>triton::arch::arm::ArmOperandProperties</title>
<!-- Node1 -->
<g id="Node000001" class="node">
<title>Node1</title>
<g id="a_Node000001"><a xlink:title="This class is used to represent specific properties of an Arm operand.">
<polygon fill="#999999" stroke="#666666" points="178.62,-85.75 63.62,-85.75 63.62,-55.25 178.62,-55.25 178.62,-85.75"/>
<text text-anchor="start" x="71.62" y="-72.25" font-family="Helvetica,sans-Serif" font-size="10.00">triton::arch::arm::</text>
<text text-anchor="middle" x="121.12" y="-61" font-family="Helvetica,sans-Serif" font-size="10.00">ArmOperandProperties</text>
</a>
</g>
</g>
<!-- Node2 -->
<g id="Node000002" class="node">
<title>Node2</title>
<g id="a_Node000002"><a xlink:href="$classtriton_1_1arch_1_1Immediate.html" xlink:title="This class is used to represent an immediate.">
<polygon fill="white" stroke="#666666" points="114.25,-19.25 0,-19.25 0,0 114.25,0 114.25,-19.25"/>
<text text-anchor="middle" x="57.12" y="-5.75" font-family="Helvetica,sans-Serif" font-size="10.00">triton::arch::Immediate</text>
</a>
</g>
</g>
<!-- Node1&#45;&gt;Node2 -->
<g id="edge1_Node000001_Node000002" class="edge">
<title>Node1&#45;&gt;Node2</title>
<g id="a_edge1_Node000001_Node000002"><a xlink:title=" ">
<path fill="none" stroke="#63b8ff" d="M96.95,-47.26C86.55,-37.69 74.97,-27.04 66.99,-19.7"/>
<polygon fill="#63b8ff" stroke="#63b8ff" points="94.46,-49.73 104.19,-53.92 99.2,-44.58 94.46,-49.73"/>
</a>
</g>
</g>
<!-- Node3 -->
<g id="Node000003" class="node">
<title>Node3</title>
<g id="a_Node000003"><a xlink:href="$classtriton_1_1arch_1_1Register.html" xlink:title="This class is used when an instruction has a register operand.">
<polygon fill="white" stroke="#666666" points="237.75,-19.25 132.5,-19.25 132.5,0 237.75,0 237.75,-19.25"/>
<text text-anchor="middle" x="185.12" y="-5.75" font-family="Helvetica,sans-Serif" font-size="10.00">triton::arch::Register</text>
</a>
</g>
</g>
<!-- Node1&#45;&gt;Node3 -->
<g id="edge2_Node000001_Node000003" class="edge">
<title>Node1&#45;&gt;Node3</title>
<g id="a_edge2_Node000001_Node000003"><a xlink:title=" ">
<path fill="none" stroke="#63b8ff" d="M145.3,-47.26C155.7,-37.69 167.28,-27.04 175.26,-19.7"/>
<polygon fill="#63b8ff" stroke="#63b8ff" points="143.05,-44.58 138.06,-53.92 147.79,-49.73 143.05,-44.58"/>
</a>
</g>
</g>
</g>
</svg>
