<?xml version="1.0" encoding="UTF-8" standalone="no"?>
<!DOCTYPE svg PUBLIC "-//W3C//DTD SVG 1.1//EN"
 "http://www.w3.org/Graphics/SVG/1.1/DTD/svg11.dtd">
<!-- Generated by graphviz version 7.0.0 (20221023.0053)
 -->
<!-- Title: triton::exceptions::Engines Pages: 1 -->
<svg width="640pt" height="278pt"
 viewBox="0.00 0.00 640.00 278.00" xmlns="http://www.w3.org/2000/svg" xmlns:xlink="http://www.w3.org/1999/xlink">
<g id="graph0" class="graph" transform="scale(1 1) rotate(0) translate(4 274)">
<title>triton::exceptions::Engines</title>
<!-- Node1 -->
<g id="node1" class="node">
<title>Node1</title>
<g id="a_node1"><a xlink:title="The exception class used by all engines.">
<polygon fill="#999999" stroke="#666666" points="334,-150 242,-150 242,-120 334,-120 334,-150"/>
<text text-anchor="start" x="250" y="-138" font-family="Helvetica,sans-Serif" font-size="10.00">triton::exceptions</text>
<text text-anchor="middle" x="288" y="-127" font-family="Helvetica,sans-Serif" font-size="10.00">::Engines</text>
</a>
</g>
</g>
<!-- Node4 -->
<g id="node4" class="node">
<title>Node4</title>
<g id="a_node4"><a xlink:href="classtriton_1_1exceptions_1_1LiftingEngine.html" target="_top" xlink:title="The exception class used by the lifting engine.">
<polygon fill="white" stroke="#666666" points="468,-246 376,-246 376,-216 468,-216 468,-246"/>
<text text-anchor="start" x="384" y="-234" font-family="Helvetica,sans-Serif" font-size="10.00">triton::exceptions</text>
<text text-anchor="middle" x="422" y="-223" font-family="Helvetica,sans-Serif" font-size="10.00">::LiftingEngine</text>
</a>
</g>
</g>
<!-- Node1&#45;&gt;Node4 -->
<g id="edge3" class="edge">
<title>Node1&#45;&gt;Node4</title>
<path fill="none" stroke="#63b8ff" d="M311.68,-158.39C327.17,-173.51 348.67,-192.92 370,-207 374.66,-210.07 379.77,-212.97 384.9,-215.61"/>
<polygon fill="#63b8ff" stroke="#63b8ff" points="314.37,-156.13 304.81,-151.56 309.44,-161.09 314.37,-156.13"/>
</g>
<!-- Node5 -->
<g id="node5" class="node">
<title>Node5</title>
<g id="a_node5"><a xlink:href="classtriton_1_1exceptions_1_1SolverEngine.html" target="_top" xlink:title="The exception class used by the solver engine.">
<polygon fill="white" stroke="#666666" points="468,-198 376,-198 376,-168 468,-168 468,-198"/>
<text text-anchor="start" x="384" y="-186" font-family="Helvetica,sans-Serif" font-size="10.00">triton::exceptions</text>
<text text-anchor="middle" x="422" y="-175" font-family="Helvetica,sans-Serif" font-size="10.00">::SolverEngine</text>
</a>
</g>
</g>
<!-- Node1&#45;&gt;Node5 -->
<g id="edge4" class="edge">
<title>Node1&#45;&gt;Node5</title>
<path fill="none" stroke="#63b8ff" d="M341.98,-154.27C354.15,-158.69 366.93,-163.34 378.59,-167.58"/>
<polygon fill="#63b8ff" stroke="#63b8ff" points="343.51,-151.1 332.91,-150.97 341.12,-157.68 343.51,-151.1"/>
</g>
<!-- Node7 -->
<g id="node7" class="node">
<title>Node7</title>
<g id="a_node7"><a xlink:href="classtriton_1_1exceptions_1_1SymbolicEngine.html" target="_top" xlink:title="The exception class used by the symbolic engine.">
<polygon fill="white" stroke="#666666" points="468.5,-150 375.5,-150 375.5,-120 468.5,-120 468.5,-150"/>
<text text-anchor="start" x="383.5" y="-138" font-family="Helvetica,sans-Serif" font-size="10.00">triton::exceptions</text>
<text text-anchor="middle" x="422" y="-127" font-family="Helvetica,sans-Serif" font-size="10.00">::SymbolicEngine</text>
</a>
</g>
</g>
<!-- Node1&#45;&gt;Node7 -->
<g id="edge6" class="edge">
<title>Node1&#45;&gt;Node7</title>
<path fill="none" stroke="#63b8ff" d="M345.73,-135C355.52,-135 365.58,-135 375.04,-135"/>
<polygon fill="#63b8ff" stroke="#63b8ff" points="345.94,-131.5 335.94,-135 345.94,-138.5 345.94,-131.5"/>
</g>
<!-- Node13 -->
<g id="node13" class="node">
<title>Node13</title>
<g id="a_node13"><a xlink:href="classtriton_1_1exceptions_1_1SynthesizerEngine.html" target="_top" xlink:title="The exception class used by the synthesizer engine.">
<polygon fill="white" stroke="#666666" points="474,-102 370,-102 370,-72 474,-72 474,-102"/>
<text text-anchor="start" x="378" y="-90" font-family="Helvetica,sans-Serif" font-size="10.00">triton::exceptions</text>
<text text-anchor="middle" x="422" y="-79" font-family="Helvetica,sans-Serif" font-size="10.00">::SynthesizerEngine</text>
</a>
</g>
</g>
<!-- Node1&#45;&gt;Node13 -->
<g id="edge12" class="edge">
<title>Node1&#45;&gt;Node13</title>
<path fill="none" stroke="#63b8ff" d="M341.98,-115.73C354.15,-111.31 366.93,-106.66 378.59,-102.42"/>
<polygon fill="#63b8ff" stroke="#63b8ff" points="341.12,-112.32 332.91,-119.03 343.51,-118.9 341.12,-112.32"/>
</g>
<!-- Node14 -->
<g id="node14" class="node">
<title>Node14</title>
<g id="a_node14"><a xlink:href="classtriton_1_1exceptions_1_1TaintEngine.html" target="_top" xlink:title="The exception class used by the taint engine.">
<polygon fill="white" stroke="#666666" points="468,-54 376,-54 376,-24 468,-24 468,-54"/>
<text text-anchor="start" x="384" y="-42" font-family="Helvetica,sans-Serif" font-size="10.00">triton::exceptions</text>
<text text-anchor="middle" x="422" y="-31" font-family="Helvetica,sans-Serif" font-size="10.00">::TaintEngine</text>
</a>
</g>
</g>
<!-- Node1&#45;&gt;Node14 -->
<g id="edge13" class="edge">
<title>Node1&#45;&gt;Node14</title>
<path fill="none" stroke="#63b8ff" d="M311.68,-111.61C327.17,-96.49 348.67,-77.08 370,-63 374.66,-59.93 379.77,-57.03 384.9,-54.39"/>
<polygon fill="#63b8ff" stroke="#63b8ff" points="309.44,-108.91 304.81,-118.44 314.37,-113.87 309.44,-108.91"/>
</g>
<!-- Node2 -->
<g id="node2" class="node">
<title>Node2</title>
<g id="a_node2"><a xlink:href="classtriton_1_1exceptions_1_1Exception.html" target="_top" xlink:title="The root class of all exceptions.">
<polygon fill="white" stroke="#666666" points="206,-150 114,-150 114,-120 206,-120 206,-150"/>
<text text-anchor="start" x="122" y="-138" font-family="Helvetica,sans-Serif" font-size="10.00">triton::exceptions</text>
<text text-anchor="middle" x="160" y="-127" font-family="Helvetica,sans-Serif" font-size="10.00">::Exception</text>
</a>
</g>
</g>
<!-- Node2&#45;&gt;Node1 -->
<g id="edge1" class="edge">
<title>Node2&#45;&gt;Node1</title>
<path fill="none" stroke="#63b8ff" d="M217.94,-135C225.86,-135 233.91,-135 241.58,-135"/>
<polygon fill="#63b8ff" stroke="#63b8ff" points="218,-131.5 208,-135 218,-138.5 218,-131.5"/>
</g>
<!-- Node3 -->
<g id="node3" class="node">
<title>Node3</title>
<g id="a_node3"><a xlink:title=" ">
<polygon fill="white" stroke="#bfbfbf" points="78,-144.5 0,-144.5 0,-125.5 78,-125.5 78,-144.5"/>
<text text-anchor="middle" x="39" y="-132.5" font-family="Helvetica,sans-Serif" font-size="10.00">std::exception</text>
</a>
</g>
</g>
<!-- Node3&#45;&gt;Node2 -->
<g id="edge2" class="edge">
<title>Node3&#45;&gt;Node2</title>
<path fill="none" stroke="#63b8ff" d="M89.72,-135C97.67,-135 105.86,-135 113.71,-135"/>
<polygon fill="#63b8ff" stroke="#63b8ff" points="89.82,-131.5 79.82,-135 89.82,-138.5 89.82,-131.5"/>
</g>
<!-- Node6 -->
<g id="node6" class="node">
<title>Node6</title>
<g id="a_node6"><a xlink:href="classtriton_1_1exceptions_1_1SolverModel.html" target="_top" xlink:title="The exception class used by solver models.">
<polygon fill="white" stroke="#666666" points="617,-270 525,-270 525,-240 617,-240 617,-270"/>
<text text-anchor="start" x="533" y="-258" font-family="Helvetica,sans-Serif" font-size="10.00">triton::exceptions</text>
<text text-anchor="middle" x="571" y="-247" font-family="Helvetica,sans-Serif" font-size="10.00">::SolverModel</text>
</a>
</g>
</g>
<!-- Node5&#45;&gt;Node6 -->
<g id="edge5" class="edge">
<title>Node5&#45;&gt;Node6</title>
<path fill="none" stroke="#63b8ff" d="M467.75,-203.59C469.88,-204.71 471.97,-205.85 474,-207 490.75,-216.45 492.98,-222.05 510,-231 515.76,-234.03 521.99,-236.92 528.18,-239.57"/>
<polygon fill="#63b8ff" stroke="#63b8ff" points="469.49,-200.55 458.99,-199.14 466.32,-206.79 469.49,-200.55"/>
</g>
<!-- Node8 -->
<g id="node8" class="node">
<title>Node8</title>
<g id="a_node8"><a xlink:href="classtriton_1_1exceptions_1_1PathConstraint.html" target="_top" xlink:title="The exception class used by path constraints.">
<polygon fill="white" stroke="#666666" points="617,-222 525,-222 525,-192 617,-192 617,-222"/>
<text text-anchor="start" x="533" y="-210" font-family="Helvetica,sans-Serif" font-size="10.00">triton::exceptions</text>
<text text-anchor="middle" x="571" y="-199" font-family="Helvetica,sans-Serif" font-size="10.00">::PathConstraint</text>
</a>
</g>
</g>
<!-- Node7&#45;&gt;Node8 -->
<g id="edge7" class="edge">
<title>Node7&#45;&gt;Node8</title>
<path fill="none" stroke="#63b8ff" d="M467.75,-155.59C469.88,-156.71 471.97,-157.85 474,-159 490.75,-168.45 492.98,-174.05 510,-183 515.76,-186.03 521.99,-188.92 528.18,-191.57"/>
<polygon fill="#63b8ff" stroke="#63b8ff" points="469.49,-152.55 458.99,-151.14 466.32,-158.79 469.49,-152.55"/>
</g>
<!-- Node9 -->
<g id="node9" class="node">
<title>Node9</title>
<g id="a_node9"><a xlink:href="classtriton_1_1exceptions_1_1PathManager.html" target="_top" xlink:title="The exception class used by the path manager.">
<polygon fill="white" stroke="#666666" points="617,-174 525,-174 525,-144 617,-144 617,-174"/>
<text text-anchor="start" x="533" y="-162" font-family="Helvetica,sans-Serif" font-size="10.00">triton::exceptions</text>
<text text-anchor="middle" x="571" y="-151" font-family="Helvetica,sans-Serif" font-size="10.00">::PathManager</text>
</a>
</g>
</g>
<!-- Node7&#45;&gt;Node9 -->
<g id="edge8" class="edge">
<title>Node7&#45;&gt;Node9</title>
<path fill="none" stroke="#63b8ff" d="M479.81,-144.28C494.64,-146.7 510.43,-149.27 524.57,-151.58"/>
<polygon fill="#63b8ff" stroke="#63b8ff" points="480.63,-140.86 470.2,-142.71 479.51,-147.77 480.63,-140.86"/>
</g>
<!-- Node10 -->
<g id="node10" class="node">
<title>Node10</title>
<g id="a_node10"><a xlink:href="classtriton_1_1exceptions_1_1SymbolicExpression.html" target="_top" xlink:title="The exception class used by symbolic expressions.">
<polygon fill="white" stroke="#666666" points="627,-126 515,-126 515,-96 627,-96 627,-126"/>
<text text-anchor="start" x="523" y="-114" font-family="Helvetica,sans-Serif" font-size="10.00">triton::exceptions</text>
<text text-anchor="middle" x="571" y="-103" font-family="Helvetica,sans-Serif" font-size="10.00">::SymbolicExpression</text>
</a>
</g>
</g>
<!-- Node7&#45;&gt;Node10 -->
<g id="edge9" class="edge">
<title>Node7&#45;&gt;Node10</title>
<path fill="none" stroke="#63b8ff" d="M479.92,-125.71C491.36,-123.84 503.37,-121.88 514.76,-120.02"/>
<polygon fill="#63b8ff" stroke="#63b8ff" points="479.51,-122.23 470.2,-127.29 480.63,-129.14 479.51,-122.23"/>
</g>
<!-- Node11 -->
<g id="node11" class="node">
<title>Node11</title>
<g id="a_node11"><a xlink:href="classtriton_1_1exceptions_1_1SymbolicSimplification.html" target="_top" xlink:title="The exception class used by symbolic simplifications.">
<polygon fill="white" stroke="#666666" points="632,-78 510,-78 510,-48 632,-48 632,-78"/>
<text text-anchor="start" x="518" y="-66" font-family="Helvetica,sans-Serif" font-size="10.00">triton::exceptions</text>
<text text-anchor="middle" x="571" y="-55" font-family="Helvetica,sans-Serif" font-size="10.00">::SymbolicSimplification</text>
</a>
</g>
</g>
<!-- Node7&#45;&gt;Node11 -->
<g id="edge10" class="edge">
<title>Node7&#45;&gt;Node11</title>
<path fill="none" stroke="#63b8ff" d="M467.75,-114.41C469.88,-113.29 471.97,-112.15 474,-111 490.75,-101.55 492.98,-95.95 510,-87 515.76,-83.97 521.99,-81.08 528.18,-78.43"/>
<polygon fill="#63b8ff" stroke="#63b8ff" points="466.32,-111.21 458.99,-118.86 469.49,-117.45 466.32,-111.21"/>
</g>
<!-- Node12 -->
<g id="node12" class="node">
<title>Node12</title>
<g id="a_node12"><a xlink:href="classtriton_1_1exceptions_1_1SymbolicVariable.html" target="_top" xlink:title="The exception class used by symbolic variables.">
<polygon fill="white" stroke="#666666" points="620,-30 522,-30 522,0 620,0 620,-30"/>
<text text-anchor="start" x="530" y="-18" font-family="Helvetica,sans-Serif" font-size="10.00">triton::exceptions</text>
<text text-anchor="middle" x="571" y="-7" font-family="Helvetica,sans-Serif" font-size="10.00">::SymbolicVariable</text>
</a>
</g>
</g>
<!-- Node7&#45;&gt;Node12 -->
<g id="edge11" class="edge">
<title>Node7&#45;&gt;Node12</title>
<path fill="none" stroke="#63b8ff" d="M472.1,-112.77C472.75,-112.19 473.38,-111.6 474,-111 499.6,-86 483.67,-63.23 510,-39 513.55,-35.73 517.6,-32.89 521.88,-30.41"/>
<polygon fill="#63b8ff" stroke="#63b8ff" points="470.08,-109.9 464.11,-118.66 474.24,-115.54 470.08,-109.9"/>
</g>
</g>
</svg>
