<?xml version="1.0" encoding="UTF-8" standalone="no"?>
<!DOCTYPE svg PUBLIC "-//W3C//DTD SVG 1.1//EN"
 "http://www.w3.org/Graphics/SVG/1.1/DTD/svg11.dtd">
<!-- Generated by graphviz version 7.0.0 (20221023.0053)
 -->
<!-- Title: triton::exceptions::AstLifting Pages: 1 -->
<svg width="121pt" height="214pt"
 viewBox="0.00 0.00 121.00 214.00" xmlns="http://www.w3.org/2000/svg" xmlns:xlink="http://www.w3.org/1999/xlink">
<g id="graph0" class="graph" transform="scale(1 1) rotate(0) translate(4 210)">
<title>triton::exceptions::AstLifting</title>
<!-- Node1 -->
<g id="node1" class="node">
<title>Node1</title>
<g id="a_node1"><a xlink:title="The exception class used by all AST lifting (e.g z3 &lt;&#45;&gt; triton).">
<polygon fill="#999999" stroke="#666666" points="102.5,-30 10.5,-30 10.5,0 102.5,0 102.5,-30"/>
<text text-anchor="start" x="18.5" y="-18" font-family="Helvetica,sans-Serif" font-size="10.00">triton::exceptions</text>
<text text-anchor="middle" x="56.5" y="-7" font-family="Helvetica,sans-Serif" font-size="10.00">::AstLifting</text>
</a>
</g>
</g>
<!-- Node2 -->
<g id="node2" class="node">
<title>Node2</title>
<g id="a_node2"><a xlink:href="classtriton_1_1exceptions_1_1Ast.html" target="_top" xlink:title="The exception class used by all AST nodes.">
<polygon fill="white" stroke="#666666" points="113,-85 0,-85 0,-66 113,-66 113,-85"/>
<text text-anchor="middle" x="56.5" y="-73" font-family="Helvetica,sans-Serif" font-size="10.00">triton::exceptions::Ast</text>
</a>
</g>
</g>
<!-- Node2&#45;&gt;Node1 -->
<g id="edge1" class="edge">
<title>Node2&#45;&gt;Node1</title>
<path fill="none" stroke="#63b8ff" d="M56.5,-54.51C56.5,-46.49 56.5,-37.43 56.5,-30.11"/>
<polygon fill="#63b8ff" stroke="#63b8ff" points="53,-54.35 56.5,-64.35 60,-54.35 53,-54.35"/>
</g>
<!-- Node3 -->
<g id="node3" class="node">
<title>Node3</title>
<g id="a_node3"><a xlink:href="classtriton_1_1exceptions_1_1Exception.html" target="_top" xlink:title="The root class of all exceptions.">
<polygon fill="white" stroke="#666666" points="102.5,-151 10.5,-151 10.5,-121 102.5,-121 102.5,-151"/>
<text text-anchor="start" x="18.5" y="-139" font-family="Helvetica,sans-Serif" font-size="10.00">triton::exceptions</text>
<text text-anchor="middle" x="56.5" y="-128" font-family="Helvetica,sans-Serif" font-size="10.00">::Exception</text>
</a>
</g>
</g>
<!-- Node3&#45;&gt;Node2 -->
<g id="edge2" class="edge">
<title>Node3&#45;&gt;Node2</title>
<path fill="none" stroke="#63b8ff" d="M56.5,-109.3C56.5,-100.65 56.5,-91.58 56.5,-85.18"/>
<polygon fill="#63b8ff" stroke="#63b8ff" points="53,-109.03 56.5,-119.03 60,-109.03 53,-109.03"/>
</g>
<!-- Node4 -->
<g id="node4" class="node">
<title>Node4</title>
<g id="a_node4"><a xlink:title=" ">
<polygon fill="white" stroke="#bfbfbf" points="95.5,-206 17.5,-206 17.5,-187 95.5,-187 95.5,-206"/>
<text text-anchor="middle" x="56.5" y="-194" font-family="Helvetica,sans-Serif" font-size="10.00">std::exception</text>
</a>
</g>
</g>
<!-- Node4&#45;&gt;Node3 -->
<g id="edge3" class="edge">
<title>Node4&#45;&gt;Node3</title>
<path fill="none" stroke="#63b8ff" d="M56.5,-175.51C56.5,-167.49 56.5,-158.43 56.5,-151.11"/>
<polygon fill="#63b8ff" stroke="#63b8ff" points="53,-175.35 56.5,-185.35 60,-175.35 53,-175.35"/>
</g>
</g>
</svg>
