<?xml version="1.0" encoding="UTF-8" standalone="no"?>
<!DOCTYPE svg PUBLIC "-//W3C//DTD SVG 1.1//EN"
 "http://www.w3.org/Graphics/SVG/1.1/DTD/svg11.dtd">
<!-- Generated by graphviz version 7.0.0 (20221023.0053)
 -->
<!-- Title: triton::arch::Immediate Pages: 1 -->
<svg width="258pt" height="93pt"
 viewBox="0.00 0.00 257.50 93.00" xmlns="http://www.w3.org/2000/svg" xmlns:xlink="http://www.w3.org/1999/xlink">
<g id="graph0" class="graph" transform="scale(1 1) rotate(0) translate(4 89)">
<title>triton::arch::Immediate</title>
<!-- Node1 -->
<g id="node1" class="node">
<title>Node1</title>
<g id="a_node1"><a xlink:title="This class is used to represent an immediate.">
<polygon fill="#999999" stroke="#666666" points="182,-19 67,-19 67,0 182,0 182,-19"/>
<text text-anchor="middle" x="124.5" y="-7" font-family="Helvetica,sans-Serif" font-size="10.00">triton::arch::Immediate</text>
</a>
</g>
</g>
<!-- Node2 -->
<g id="node2" class="node">
<title>Node2</title>
<g id="a_node2"><a xlink:href="classtriton_1_1arch_1_1BitsVector.html" target="_top" xlink:title="This class is used to deal with registers and memory as bits vector.">
<polygon fill="white" stroke="#666666" points="115,-79.5 0,-79.5 0,-60.5 115,-60.5 115,-79.5"/>
<text text-anchor="middle" x="57.5" y="-67.5" font-family="Helvetica,sans-Serif" font-size="10.00">triton::arch::BitsVector</text>
</a>
</g>
</g>
<!-- Node2&#45;&gt;Node1 -->
<g id="edge1" class="edge">
<title>Node2&#45;&gt;Node1</title>
<path fill="none" stroke="#63b8ff" d="M76.28,-52.6C88.57,-41.87 104.16,-28.26 114.23,-19.47"/>
<polygon fill="#63b8ff" stroke="#63b8ff" points="74.05,-49.91 68.82,-59.12 78.65,-55.18 74.05,-49.91"/>
</g>
<!-- Node3 -->
<g id="node3" class="node">
<title>Node3</title>
<g id="a_node3"><a xlink:href="classtriton_1_1arch_1_1arm_1_1ArmOperandProperties.html" target="_top" xlink:title="This class is used to represent specific properties of an Arm operand.">
<polygon fill="white" stroke="#666666" points="249.5,-85 133.5,-85 133.5,-55 249.5,-55 249.5,-85"/>
<text text-anchor="start" x="141.5" y="-73" font-family="Helvetica,sans-Serif" font-size="10.00">triton::arch::arm::</text>
<text text-anchor="middle" x="191.5" y="-62" font-family="Helvetica,sans-Serif" font-size="10.00">ArmOperandProperties</text>
</a>
</g>
</g>
<!-- Node3&#45;&gt;Node1 -->
<g id="edge2" class="edge">
<title>Node3&#45;&gt;Node1</title>
<path fill="none" stroke="#63b8ff" d="M166.41,-47.09C155.29,-37.38 142.85,-26.52 134.44,-19.18"/>
<polygon fill="#63b8ff" stroke="#63b8ff" points="163.96,-49.6 173.8,-53.54 168.57,-44.33 163.96,-49.6"/>
</g>
</g>
</svg>
