<?xml version="1.0" encoding="UTF-8" standalone="no"?>
<!DOCTYPE svg PUBLIC "-//W3C//DTD SVG 1.1//EN"
 "http://www.w3.org/Graphics/SVG/1.1/DTD/svg11.dtd">
<!-- Generated by graphviz version 9.0.0 (20230911.1827)
 -->
<!-- Title: util::dynamic_array&lt; ValueType, AllocatorType, SizeType, DiffType &gt; Pages: 1 -->
<svg width="401pt" height="120pt"
 viewBox="0.00 0.00 400.75 120.38" xmlns="http://www.w3.org/2000/svg" xmlns:xlink="http://www.w3.org/1999/xlink">
<g id="graph0" class="graph" transform="scale(1 1) rotate(0) translate(4 116.38)">
<title>util::dynamic_array&lt; ValueType, AllocatorType, SizeType, DiffType &gt;</title>
<!-- Node1 -->
<g id="Node000001" class="node">
<title>Node1</title>
<g id="a_Node000001"><a xlink:title=" ">
<polygon fill="#999999" stroke="#666666" points="137.5,-73.75 0,-73.75 0,-32 137.5,-32 137.5,-73.75"/>
<text text-anchor="start" x="8" y="-60.25" font-family="Helvetica,sans-Serif" font-size="10.00">util::dynamic_array</text>
<text text-anchor="start" x="8" y="-49" font-family="Helvetica,sans-Serif" font-size="10.00">&lt; ValueType, AllocatorType,</text>
<text text-anchor="middle" x="68.75" y="-37.75" font-family="Helvetica,sans-Serif" font-size="10.00"> SizeType, DiffType &gt;</text>
</a>
</g>
</g>
<!-- Node2 -->
<g id="Node000002" class="node">
<title>Node2</title>
<g id="a_Node000002"><a xlink:href="classmath_1_1wide__integer_1_1detail_1_1fixed__dynamic__array.html" target="_top" xlink:title=" ">
<polygon fill="white" stroke="#bfbfbf" points="392.75,-112.38 264.25,-112.38 264.25,-59.38 392.75,-59.38 392.75,-112.38"/>
<text text-anchor="start" x="272.25" y="-98.88" font-family="Helvetica,sans-Serif" font-size="10.00">math::wide_integer</text>
<text text-anchor="start" x="272.25" y="-87.62" font-family="Helvetica,sans-Serif" font-size="10.00">::detail::fixed_dynamic</text>
<text text-anchor="start" x="272.25" y="-76.38" font-family="Helvetica,sans-Serif" font-size="10.00">_array&lt; MyType, MySize,</text>
<text text-anchor="middle" x="328.5" y="-65.12" font-family="Helvetica,sans-Serif" font-size="10.00"> MyAlloc &gt;</text>
</a>
</g>
</g>
<!-- Node1&#45;&gt;Node2 -->
<g id="edge1_Node000001_Node000002" class="edge">
<title>Node1&#45;&gt;Node2</title>
<g id="a_edge1_Node000001_Node000002"><a xlink:title=" ">
<path fill="none" stroke="#63b8ff" d="M149.29,-67.96C151.38,-68.28 153.45,-68.58 155.5,-68.88 191.3,-73.97 231.5,-78.04 264.04,-80.91"/>
<polygon fill="#63b8ff" stroke="#63b8ff" points="149.92,-64.52 139.49,-66.4 148.82,-71.43 149.92,-64.52"/>
</a>
</g>
</g>
<!-- Node3 -->
<g id="Node000003" class="node">
<title>Node3</title>
<g id="a_Node000003"><a xlink:href="classutil_1_1dynamic__array.html" target="_top" xlink:title=" ">
<polygon fill="white" stroke="#bfbfbf" points="390.88,-41.75 266.12,-41.75 266.12,0 390.88,0 390.88,-41.75"/>
<text text-anchor="start" x="274.12" y="-28.25" font-family="Helvetica,sans-Serif" font-size="10.00">util::dynamic_array</text>
<text text-anchor="start" x="274.12" y="-17" font-family="Helvetica,sans-Serif" font-size="10.00">&lt; MyType, MyAlloc, size</text>
<text text-anchor="middle" x="328.5" y="-5.75" font-family="Helvetica,sans-Serif" font-size="10.00">_t, ptrdiff_t &gt;</text>
</a>
</g>
</g>
<!-- Node1&#45;&gt;Node3 -->
<g id="edge2_Node000001_Node000003" class="edge">
<title>Node1&#45;&gt;Node3</title>
<g id="a_edge2_Node000001_Node000003"><a xlink:title=" ">
<path fill="none" stroke="orange" stroke-dasharray="5,2" d="M149.21,-43.01C186.69,-38.36 230.75,-32.89 265.68,-28.55"/>
<polygon fill="orange" stroke="orange" points="148.8,-39.53 139.31,-44.24 149.67,-46.48 148.8,-39.53"/>
</a>
</g>
<text text-anchor="start" x="155.5" y="-54.88" font-family="Helvetica,sans-Serif" font-size="10.00" fill="grey"> &lt; MyType, MyAlloc,</text>
<text text-anchor="middle" x="200.88" y="-43.62" font-family="Helvetica,sans-Serif" font-size="10.00" fill="grey"> size_t, ptrdiff_t &gt;</text>
</g>
</g>
</svg>
