<?xml version="1.0" encoding="UTF-8" standalone="no"?>
<!DOCTYPE svg PUBLIC "-//W3C//DTD SVG 1.1//EN"
 "http://www.w3.org/Graphics/SVG/1.1/DTD/svg11.dtd">
<!-- Generated by graphviz version 11.0.0 (20240428.1522)
 -->
<!-- Title: triton::arch::CpuInterface Pages: 1 -->
<svg width="281pt" height="284pt"
 viewBox="0.00 0.00 280.75 283.50" xmlns="http://www.w3.org/2000/svg" xmlns:xlink="http://www.w3.org/1999/xlink">
<g id="graph0" class="graph" transform="scale(1 1) rotate(0) translate(4 279.5)">
<title>triton::arch::CpuInterface</title>
<!-- Node1 -->
<g id="Node000001" class="node">
<title>Node1</title>
<g id="a_Node000001"><a xlink:title="This interface is used as abstract CPU interface. All CPU must use this interface.">
<polygon fill="#999999" stroke="#666666" points="124.75,-146.88 0,-146.88 0,-127.62 124.75,-127.62 124.75,-146.88"/>
<text text-anchor="middle" x="62.38" y="-133.38" font-family="Helvetica,sans-Serif" font-size="10.00">triton::arch::CpuInterface</text>
</a>
</g>
</g>
<!-- Node2 -->
<g id="Node000002" class="node">
<title>Node2</title>
<g id="a_Node000002"><a xlink:href="$classtriton_1_1arch_1_1arm_1_1aarch64_1_1AArch64Cpu.html" xlink:title="This class is used to describe the ARM (64&#45;bits) spec.">
<polygon fill="white" stroke="#666666" points="272.75,-275.5 160.75,-275.5 160.75,-245 272.75,-245 272.75,-275.5"/>
<text text-anchor="start" x="168.75" y="-262" font-family="Helvetica,sans-Serif" font-size="10.00">triton::arch::arm::</text>
<text text-anchor="middle" x="216.75" y="-250.75" font-family="Helvetica,sans-Serif" font-size="10.00">aarch64::AArch64Cpu</text>
</a>
</g>
</g>
<!-- Node1&#45;&gt;Node2 -->
<g id="edge1_Node000001_Node000002" class="edge">
<title>Node1&#45;&gt;Node2</title>
<g id="a_edge1_Node000001_Node000002"><a xlink:title=" ">
<path fill="none" stroke="#63b8ff" d="M78.46,-156.12C96.31,-177.49 127.79,-212.33 160.75,-235.25 165.66,-238.66 171.11,-241.8 176.61,-244.6"/>
<polygon fill="#63b8ff" stroke="#63b8ff" points="81.26,-154.02 72.22,-148.5 75.85,-158.46 81.26,-154.02"/>
</a>
</g>
</g>
<!-- Node3 -->
<g id="Node000003" class="node">
<title>Node3</title>
<g id="a_Node000003"><a xlink:href="$classtriton_1_1arch_1_1arm_1_1arm32_1_1Arm32Cpu.html" xlink:title="This class is used to describe the ARM (32&#45;bits) spec.">
<polygon fill="white" stroke="#666666" points="264.5,-226.5 169,-226.5 169,-196 264.5,-196 264.5,-226.5"/>
<text text-anchor="start" x="177" y="-213" font-family="Helvetica,sans-Serif" font-size="10.00">triton::arch::arm::</text>
<text text-anchor="middle" x="216.75" y="-201.75" font-family="Helvetica,sans-Serif" font-size="10.00">arm32::Arm32Cpu</text>
</a>
</g>
</g>
<!-- Node1&#45;&gt;Node3 -->
<g id="edge2_Node000001_Node000003" class="edge">
<title>Node1&#45;&gt;Node3</title>
<g id="a_edge2_Node000001_Node000003"><a xlink:title=" ">
<path fill="none" stroke="#63b8ff" d="M92.9,-152.49C112.13,-162.32 137.81,-175.27 160.75,-186.25 167.18,-189.33 174.08,-192.54 180.74,-195.59"/>
<polygon fill="#63b8ff" stroke="#63b8ff" points="94.5,-149.38 84.01,-147.93 91.31,-155.61 94.5,-149.38"/>
</a>
</g>
</g>
<!-- Node4 -->
<g id="Node000004" class="node">
<title>Node4</title>
<g id="a_Node000004"><a xlink:href="$classtriton_1_1arch_1_1riscv_1_1riscv32Cpu.html" xlink:title="This class is used to describe the RV32 spec.">
<polygon fill="white" stroke="#666666" points="261.5,-177.5 172,-177.5 172,-147 261.5,-147 261.5,-177.5"/>
<text text-anchor="start" x="180" y="-164" font-family="Helvetica,sans-Serif" font-size="10.00">triton::arch::riscv</text>
<text text-anchor="middle" x="216.75" y="-152.75" font-family="Helvetica,sans-Serif" font-size="10.00">::riscv32Cpu</text>
</a>
</g>
</g>
<!-- Node1&#45;&gt;Node4 -->
<g id="edge3_Node000001_Node000004" class="edge">
<title>Node1&#45;&gt;Node4</title>
<g id="a_edge3_Node000001_Node000004"><a xlink:title=" ">
<path fill="none" stroke="#63b8ff" d="M136.05,-149.17C148.26,-151.18 160.59,-153.2 171.78,-155.04"/>
<polygon fill="#63b8ff" stroke="#63b8ff" points="136.84,-145.76 126.41,-147.59 135.71,-152.66 136.84,-145.76"/>
</a>
</g>
</g>
<!-- Node5 -->
<g id="Node000005" class="node">
<title>Node5</title>
<g id="a_Node000005"><a xlink:href="$classtriton_1_1arch_1_1riscv_1_1riscv64Cpu.html" xlink:title="This class is used to describe the RV64 spec.">
<polygon fill="white" stroke="#666666" points="261.5,-128.5 172,-128.5 172,-98 261.5,-98 261.5,-128.5"/>
<text text-anchor="start" x="180" y="-115" font-family="Helvetica,sans-Serif" font-size="10.00">triton::arch::riscv</text>
<text text-anchor="middle" x="216.75" y="-103.75" font-family="Helvetica,sans-Serif" font-size="10.00">::riscv64Cpu</text>
</a>
</g>
</g>
<!-- Node1&#45;&gt;Node5 -->
<g id="edge4_Node000001_Node000005" class="edge">
<title>Node1&#45;&gt;Node5</title>
<g id="a_edge4_Node000001_Node000005"><a xlink:title=" ">
<path fill="none" stroke="#63b8ff" d="M136.05,-125.8C148.26,-123.88 160.59,-121.94 171.78,-120.18"/>
<polygon fill="#63b8ff" stroke="#63b8ff" points="135.74,-122.31 126.41,-127.32 136.83,-129.22 135.74,-122.31"/>
</a>
</g>
</g>
<!-- Node6 -->
<g id="Node000006" class="node">
<title>Node6</title>
<g id="a_Node000006"><a xlink:href="$classtriton_1_1arch_1_1x86_1_1x8664Cpu.html" xlink:title="This class is used to describe the x86 (64&#45;bits) spec.">
<polygon fill="white" stroke="#666666" points="261.88,-79.5 171.62,-79.5 171.62,-49 261.88,-49 261.88,-79.5"/>
<text text-anchor="start" x="179.62" y="-66" font-family="Helvetica,sans-Serif" font-size="10.00">triton::arch::x86::</text>
<text text-anchor="middle" x="216.75" y="-54.75" font-family="Helvetica,sans-Serif" font-size="10.00">x8664Cpu</text>
</a>
</g>
</g>
<!-- Node1&#45;&gt;Node6 -->
<g id="edge5_Node000001_Node000006" class="edge">
<title>Node1&#45;&gt;Node6</title>
<g id="a_edge5_Node000001_Node000006"><a xlink:title=" ">
<path fill="none" stroke="#63b8ff" d="M93.65,-122.02C112.81,-112.46 138.15,-99.95 160.75,-89.25 167.2,-86.2 174.1,-83 180.76,-79.96"/>
<polygon fill="#63b8ff" stroke="#63b8ff" points="92.16,-118.85 84.78,-126.46 95.29,-125.12 92.16,-118.85"/>
</a>
</g>
</g>
<!-- Node7 -->
<g id="Node000007" class="node">
<title>Node7</title>
<g id="a_Node000007"><a xlink:href="$classtriton_1_1arch_1_1x86_1_1x86Cpu.html" xlink:title="This class is used to describe the x86 (32&#45;bits) spec.">
<polygon fill="white" stroke="#666666" points="261.88,-30.5 171.62,-30.5 171.62,0 261.88,0 261.88,-30.5"/>
<text text-anchor="start" x="179.62" y="-17" font-family="Helvetica,sans-Serif" font-size="10.00">triton::arch::x86::</text>
<text text-anchor="middle" x="216.75" y="-5.75" font-family="Helvetica,sans-Serif" font-size="10.00">x86Cpu</text>
</a>
</g>
</g>
<!-- Node1&#45;&gt;Node7 -->
<g id="edge6_Node000001_Node000007" class="edge">
<title>Node1&#45;&gt;Node7</title>
<g id="a_edge6_Node000001_Node000007"><a xlink:title=" ">
<path fill="none" stroke="#63b8ff" d="M78.5,-118.59C96.38,-97.44 127.9,-62.97 160.75,-40.25 165.67,-36.85 171.12,-33.72 176.63,-30.92"/>
<polygon fill="#63b8ff" stroke="#63b8ff" points="75.94,-116.18 72.25,-126.11 81.33,-120.66 75.94,-116.18"/>
</a>
</g>
</g>
</g>
</svg>
