<?xml version="1.0" encoding="UTF-8" standalone="no"?>
<!DOCTYPE svg PUBLIC "-//W3C//DTD SVG 1.1//EN"
 "http://www.w3.org/Graphics/SVG/1.1/DTD/svg11.dtd">
<!-- Generated by graphviz version 7.0.0 (20221023.0053)
 -->
<!-- Title: triton::ast::representations::AstRepresentationInterface Pages: 1 -->
<svg width="320pt" height="134pt"
 viewBox="0.00 0.00 320.00 134.00" xmlns="http://www.w3.org/2000/svg" xmlns:xlink="http://www.w3.org/1999/xlink">
<g id="graph0" class="graph" transform="scale(1 1) rotate(0) translate(4 130)">
<title>triton::ast::representations::AstRepresentationInterface</title>
<!-- Node1 -->
<g id="node1" class="node">
<title>Node1</title>
<g id="a_node1"><a xlink:title="The AST representation interface.">
<polygon fill="#999999" stroke="#666666" points="142,-78 0,-78 0,-48 142,-48 142,-78"/>
<text text-anchor="start" x="8" y="-66" font-family="Helvetica,sans-Serif" font-size="10.00">triton::ast::representations</text>
<text text-anchor="middle" x="71" y="-55" font-family="Helvetica,sans-Serif" font-size="10.00">::AstRepresentationInterface</text>
</a>
</g>
</g>
<!-- Node2 -->
<g id="node2" class="node">
<title>Node2</title>
<g id="a_node2"><a xlink:href="classtriton_1_1ast_1_1representations_1_1AstPcodeRepresentation.html" target="_top" xlink:title="Pseudo Code representation.">
<polygon fill="white" stroke="#666666" points="310.5,-126 179.5,-126 179.5,-96 310.5,-96 310.5,-126"/>
<text text-anchor="start" x="187.5" y="-114" font-family="Helvetica,sans-Serif" font-size="10.00">triton::ast::representations</text>
<text text-anchor="middle" x="245" y="-103" font-family="Helvetica,sans-Serif" font-size="10.00">::AstPcodeRepresentation</text>
</a>
</g>
</g>
<!-- Node1&#45;&gt;Node2 -->
<g id="edge1" class="edge">
<title>Node1&#45;&gt;Node2</title>
<path fill="none" stroke="#63b8ff" d="M138.17,-81.46C154.87,-86.13 172.63,-91.08 188.74,-95.58"/>
<polygon fill="#63b8ff" stroke="#63b8ff" points="139.4,-78.18 128.83,-78.86 137.52,-84.92 139.4,-78.18"/>
</g>
<!-- Node3 -->
<g id="node3" class="node">
<title>Node3</title>
<g id="a_node3"><a xlink:href="classtriton_1_1ast_1_1representations_1_1AstPythonRepresentation.html" target="_top" xlink:title="Python representation.">
<polygon fill="white" stroke="#666666" points="312,-78 178,-78 178,-48 312,-48 312,-78"/>
<text text-anchor="start" x="186" y="-66" font-family="Helvetica,sans-Serif" font-size="10.00">triton::ast::representations</text>
<text text-anchor="middle" x="245" y="-55" font-family="Helvetica,sans-Serif" font-size="10.00">::AstPythonRepresentation</text>
</a>
</g>
</g>
<!-- Node1&#45;&gt;Node3 -->
<g id="edge2" class="edge">
<title>Node1&#45;&gt;Node3</title>
<path fill="none" stroke="#63b8ff" d="M153.97,-63C161.87,-63 169.81,-63 177.53,-63"/>
<polygon fill="#63b8ff" stroke="#63b8ff" points="153.97,-59.5 143.97,-63 153.97,-66.5 153.97,-59.5"/>
</g>
<!-- Node4 -->
<g id="node4" class="node">
<title>Node4</title>
<g id="a_node4"><a xlink:href="classtriton_1_1ast_1_1representations_1_1AstSmtRepresentation.html" target="_top" xlink:title="SMT representation.">
<polygon fill="white" stroke="#666666" points="310.5,-30 179.5,-30 179.5,0 310.5,0 310.5,-30"/>
<text text-anchor="start" x="187.5" y="-18" font-family="Helvetica,sans-Serif" font-size="10.00">triton::ast::representations</text>
<text text-anchor="middle" x="245" y="-7" font-family="Helvetica,sans-Serif" font-size="10.00">::AstSmtRepresentation</text>
</a>
</g>
</g>
<!-- Node1&#45;&gt;Node4 -->
<g id="edge3" class="edge">
<title>Node1&#45;&gt;Node4</title>
<path fill="none" stroke="#63b8ff" d="M138.17,-44.54C154.87,-39.87 172.63,-34.92 188.74,-30.42"/>
<polygon fill="#63b8ff" stroke="#63b8ff" points="137.52,-41.08 128.83,-47.14 139.4,-47.82 137.52,-41.08"/>
</g>
</g>
</svg>
