<?xml version="1.0" encoding="UTF-8" standalone="no"?>
<!DOCTYPE svg PUBLIC "-//W3C//DTD SVG 1.1//EN"
 "http://www.w3.org/Graphics/SVG/1.1/DTD/svg11.dtd">
<!-- Generated by graphviz version 7.0.0 (20221023.0053)
 -->
<!-- Title: triton::arch::SemanticsInterface Pages: 1 -->
<svg width="339pt" height="134pt"
 viewBox="0.00 0.00 339.00 134.00" xmlns="http://www.w3.org/2000/svg" xmlns:xlink="http://www.w3.org/1999/xlink">
<g id="graph0" class="graph" transform="scale(1 1) rotate(0) translate(4 130)">
<title>triton::arch::SemanticsInterface</title>
<!-- Node1 -->
<g id="node1" class="node">
<title>Node1</title>
<g id="a_node1"><a xlink:title="This interface is used as abstract semantics interface. All ISA semantics must use this interface.">
<polygon fill="#999999" stroke="#666666" points="154,-72.5 0,-72.5 0,-53.5 154,-53.5 154,-72.5"/>
<text text-anchor="middle" x="77" y="-60.5" font-family="Helvetica,sans-Serif" font-size="10.00">triton::arch::SemanticsInterface</text>
</a>
</g>
</g>
<!-- Node2 -->
<g id="node2" class="node">
<title>Node2</title>
<g id="a_node2"><a xlink:href="classtriton_1_1arch_1_1arm_1_1aarch64_1_1AArch64Semantics.html" target="_top" xlink:title="The AArch64 ISA semantics.">
<polygon fill="white" stroke="#666666" points="331,-126 190,-126 190,-96 331,-96 331,-126"/>
<text text-anchor="start" x="198" y="-114" font-family="Helvetica,sans-Serif" font-size="10.00">triton::arch::arm::</text>
<text text-anchor="middle" x="260.5" y="-103" font-family="Helvetica,sans-Serif" font-size="10.00">aarch64::AArch64Semantics</text>
</a>
</g>
</g>
<!-- Node1&#45;&gt;Node2 -->
<g id="edge1" class="edge">
<title>Node1&#45;&gt;Node2</title>
<path fill="none" stroke="#63b8ff" d="M126.48,-75.82C149.46,-81.9 177.1,-89.21 201.21,-95.58"/>
<polygon fill="#63b8ff" stroke="#63b8ff" points="127.63,-72.51 117.07,-73.33 125.84,-79.27 127.63,-72.51"/>
</g>
<!-- Node3 -->
<g id="node3" class="node">
<title>Node3</title>
<g id="a_node3"><a xlink:href="classtriton_1_1arch_1_1arm_1_1arm32_1_1Arm32Semantics.html" target="_top" xlink:title="The Arm32 ISA semantics.">
<polygon fill="white" stroke="#666666" points="323,-78 198,-78 198,-48 323,-48 323,-78"/>
<text text-anchor="start" x="206" y="-66" font-family="Helvetica,sans-Serif" font-size="10.00">triton::arch::arm::</text>
<text text-anchor="middle" x="260.5" y="-55" font-family="Helvetica,sans-Serif" font-size="10.00">arm32::Arm32Semantics</text>
</a>
</g>
</g>
<!-- Node1&#45;&gt;Node3 -->
<g id="edge2" class="edge">
<title>Node1&#45;&gt;Node3</title>
<path fill="none" stroke="#63b8ff" d="M165.68,-63C176.51,-63 187.4,-63 197.73,-63"/>
<polygon fill="#63b8ff" stroke="#63b8ff" points="165.96,-59.5 155.96,-63 165.96,-66.5 165.96,-59.5"/>
</g>
<!-- Node4 -->
<g id="node4" class="node">
<title>Node4</title>
<g id="a_node4"><a xlink:href="classtriton_1_1arch_1_1x86_1_1x86Semantics.html" target="_top" xlink:title="The x86 ISA semantics.">
<polygon fill="white" stroke="#666666" points="306,-30 215,-30 215,0 306,0 306,-30"/>
<text text-anchor="start" x="223" y="-18" font-family="Helvetica,sans-Serif" font-size="10.00">triton::arch::x86::</text>
<text text-anchor="middle" x="260.5" y="-7" font-family="Helvetica,sans-Serif" font-size="10.00">x86Semantics</text>
</a>
</g>
</g>
<!-- Node1&#45;&gt;Node4 -->
<g id="edge3" class="edge">
<title>Node1&#45;&gt;Node4</title>
<path fill="none" stroke="#63b8ff" d="M126.5,-50.17C153.86,-42.94 187.81,-33.96 214.56,-26.88"/>
<polygon fill="#63b8ff" stroke="#63b8ff" points="125.84,-46.73 117.07,-52.67 127.63,-53.49 125.84,-46.73"/>
</g>
</g>
</svg>
