<?xml version="1.0" encoding="UTF-8" standalone="no"?>
<!DOCTYPE svg PUBLIC "-//W3C//DTD SVG 1.1//EN"
 "http://www.w3.org/Graphics/SVG/1.1/DTD/svg11.dtd">
<!-- Generated by graphviz version 11.0.0 (20240428.1522)
 -->
<!-- Title: triton::engines::symbolic::SymbolicEngine Pages: 1 -->
<svg width="289pt" height="88pt"
 viewBox="0.00 0.00 289.00 87.50" xmlns="http://www.w3.org/2000/svg" xmlns:xlink="http://www.w3.org/1999/xlink">
<g id="graph0" class="graph" transform="scale(1 1) rotate(0) translate(4 83.5)">
<title>triton::engines::symbolic::SymbolicEngine</title>
<!-- Node1 -->
<g id="Node000001" class="node">
<title>Node1</title>
<g id="a_Node000001"><a xlink:title="The symbolic engine class.">
<polygon fill="#999999" stroke="#666666" points="281,-54.5 158.5,-54.5 158.5,-24 281,-24 281,-54.5"/>
<text text-anchor="start" x="166.5" y="-41" font-family="Helvetica,sans-Serif" font-size="10.00">triton::engines::symbolic</text>
<text text-anchor="middle" x="219.75" y="-29.75" font-family="Helvetica,sans-Serif" font-size="10.00">::SymbolicEngine</text>
</a>
</g>
</g>
<!-- Node2 -->
<g id="Node000002" class="node">
<title>Node2</title>
<g id="a_Node000002"><a xlink:href="$classtriton_1_1engines_1_1symbolic_1_1SymbolicSimplification.html" xlink:title="The symbolic simplification class.">
<polygon fill="white" stroke="#666666" points="122.5,-79.5 0,-79.5 0,-49 122.5,-49 122.5,-79.5"/>
<text text-anchor="start" x="8" y="-66" font-family="Helvetica,sans-Serif" font-size="10.00">triton::engines::symbolic</text>
<text text-anchor="middle" x="61.25" y="-54.75" font-family="Helvetica,sans-Serif" font-size="10.00">::SymbolicSimplification</text>
</a>
</g>
</g>
<!-- Node2&#45;&gt;Node1 -->
<g id="edge1_Node000001_Node000002" class="edge">
<title>Node2&#45;&gt;Node1</title>
<g id="a_edge1_Node000001_Node000002"><a xlink:title=" ">
<path fill="none" stroke="#63b8ff" d="M134.05,-52.78C142.1,-51.49 150.25,-50.19 158.15,-48.93"/>
<polygon fill="#63b8ff" stroke="#63b8ff" points="133.57,-49.31 124.25,-54.35 134.68,-56.22 133.57,-49.31"/>
</a>
</g>
</g>
<!-- Node3 -->
<g id="Node000003" class="node">
<title>Node3</title>
<g id="a_Node000003"><a xlink:href="$classtriton_1_1engines_1_1symbolic_1_1PathManager.html" xlink:title="The path manager class.">
<polygon fill="white" stroke="#666666" points="122.5,-30.5 0,-30.5 0,0 122.5,0 122.5,-30.5"/>
<text text-anchor="start" x="8" y="-17" font-family="Helvetica,sans-Serif" font-size="10.00">triton::engines::symbolic</text>
<text text-anchor="middle" x="61.25" y="-5.75" font-family="Helvetica,sans-Serif" font-size="10.00">::PathManager</text>
</a>
</g>
</g>
<!-- Node3&#45;&gt;Node1 -->
<g id="edge2_Node000001_Node000003" class="edge">
<title>Node3&#45;&gt;Node1</title>
<g id="a_edge2_Node000001_Node000003"><a xlink:title=" ">
<path fill="none" stroke="#63b8ff" d="M134.05,-26.26C142.1,-27.5 150.25,-28.75 158.15,-29.96"/>
<polygon fill="#63b8ff" stroke="#63b8ff" points="134.67,-22.81 124.25,-24.76 133.61,-29.73 134.67,-22.81"/>
</a>
</g>
</g>
</g>
</svg>
