<?xml version="1.0" encoding="UTF-8" standalone="no"?>
<!DOCTYPE svg PUBLIC "-//W3C//DTD SVG 1.1//EN"
 "http://www.w3.org/Graphics/SVG/1.1/DTD/svg11.dtd">
<!-- Generated by graphviz version 9.0.0 (20230911.1827)
 -->
<!-- Title: triton::engines::solver::SolverInterface Pages: 1 -->
<svg width="246pt" height="105pt"
 viewBox="0.00 0.00 245.75 105.00" xmlns="http://www.w3.org/2000/svg" xmlns:xlink="http://www.w3.org/1999/xlink">
<g id="graph0" class="graph" transform="scale(1 1) rotate(0) translate(4 101)">
<title>triton::engines::solver::SolverInterface</title>
<!-- Node1 -->
<g id="Node000001" class="node">
<title>Node1</title>
<g id="a_Node000001"><a xlink:title="This interface is used to interface with solvers.">
<polygon fill="#999999" stroke="#666666" points="173.75,-97 64,-97 64,-66.5 173.75,-66.5 173.75,-97"/>
<text text-anchor="start" x="72" y="-83.5" font-family="Helvetica,sans-Serif" font-size="10.00">triton::engines::solver</text>
<text text-anchor="middle" x="118.88" y="-72.25" font-family="Helvetica,sans-Serif" font-size="10.00">::SolverInterface</text>
</a>
</g>
</g>
<!-- Node2 -->
<g id="Node000002" class="node">
<title>Node2</title>
<g id="a_Node000002"><a xlink:href="classtriton_1_1engines_1_1solver_1_1BitwuzlaSolver.html" target="_top" xlink:title="Solver engine using Bitwuzla.">
<polygon fill="white" stroke="#666666" points="109.75,-30.5 0,-30.5 0,0 109.75,0 109.75,-30.5"/>
<text text-anchor="start" x="8" y="-17" font-family="Helvetica,sans-Serif" font-size="10.00">triton::engines::solver</text>
<text text-anchor="middle" x="54.88" y="-5.75" font-family="Helvetica,sans-Serif" font-size="10.00">::BitwuzlaSolver</text>
</a>
</g>
</g>
<!-- Node1&#45;&gt;Node2 -->
<g id="edge1_Node000001_Node000002" class="edge">
<title>Node1&#45;&gt;Node2</title>
<g id="a_edge1_Node000001_Node000002"><a xlink:title=" ">
<path fill="none" stroke="#63b8ff" d="M96.49,-58.19C87.48,-49.11 77.35,-38.9 69.34,-30.83"/>
<polygon fill="#63b8ff" stroke="#63b8ff" points="93.76,-60.41 103.29,-65.04 98.73,-55.48 93.76,-60.41"/>
</a>
</g>
</g>
<!-- Node3 -->
<g id="Node000003" class="node">
<title>Node3</title>
<g id="a_Node000003"><a xlink:href="classtriton_1_1engines_1_1solver_1_1Z3Solver.html" target="_top" xlink:title="Solver engine using z3.">
<polygon fill="white" stroke="#666666" points="237.75,-30.5 128,-30.5 128,0 237.75,0 237.75,-30.5"/>
<text text-anchor="start" x="136" y="-17" font-family="Helvetica,sans-Serif" font-size="10.00">triton::engines::solver</text>
<text text-anchor="middle" x="182.88" y="-5.75" font-family="Helvetica,sans-Serif" font-size="10.00">::Z3Solver</text>
</a>
</g>
</g>
<!-- Node1&#45;&gt;Node3 -->
<g id="edge2_Node000001_Node000003" class="edge">
<title>Node1&#45;&gt;Node3</title>
<g id="a_edge2_Node000001_Node000003"><a xlink:title=" ">
<path fill="none" stroke="#63b8ff" d="M141.26,-58.19C150.27,-49.11 160.4,-38.9 168.41,-30.83"/>
<polygon fill="#63b8ff" stroke="#63b8ff" points="139.02,-55.48 134.46,-65.04 143.99,-60.41 139.02,-55.48"/>
</a>
</g>
</g>
</g>
</svg>
