<?xml version="1.0" encoding="UTF-8" standalone="no"?>
<!DOCTYPE svg PUBLIC "-//W3C//DTD SVG 1.1//EN"
 "http://www.w3.org/Graphics/SVG/1.1/DTD/svg11.dtd">
<!-- Generated by graphviz version 7.0.0 (20221023.0053)
 -->
<!-- Title: triton::exceptions::Architecture Pages: 1 -->
<svg width="647pt" height="508pt"
 viewBox="0.00 0.00 647.00 508.00" xmlns="http://www.w3.org/2000/svg" xmlns:xlink="http://www.w3.org/1999/xlink">
<g id="graph0" class="graph" transform="scale(1 1) rotate(0) translate(4 504)">
<title>triton::exceptions::Architecture</title>
<!-- Node1 -->
<g id="node1" class="node">
<title>Node1</title>
<g id="a_node1"><a xlink:title="The exception class used by architectures.">
<polygon fill="#999999" stroke="#666666" points="334,-270 242,-270 242,-240 334,-240 334,-270"/>
<text text-anchor="start" x="250" y="-258" font-family="Helvetica,sans-Serif" font-size="10.00">triton::exceptions</text>
<text text-anchor="middle" x="288" y="-247" font-family="Helvetica,sans-Serif" font-size="10.00">::Architecture</text>
</a>
</g>
</g>
<!-- Node4 -->
<g id="node4" class="node">
<title>Node4</title>
<g id="a_node4"><a xlink:href="classtriton_1_1exceptions_1_1AArch64OperandProperties.html" target="_top" xlink:title="The exception class used by shift mode.">
<polygon fill="white" stroke="#666666" points="511,-500 370,-500 370,-470 511,-470 511,-500"/>
<text text-anchor="start" x="378" y="-488" font-family="Helvetica,sans-Serif" font-size="10.00">triton::exceptions</text>
<text text-anchor="middle" x="440.5" y="-477" font-family="Helvetica,sans-Serif" font-size="10.00">::AArch64OperandProperties</text>
</a>
</g>
</g>
<!-- Node1&#45;&gt;Node4 -->
<g id="edge3" class="edge">
<title>Node1&#45;&gt;Node4</title>
<path fill="none" stroke="#63b8ff" d="M292.28,-281.64C299.01,-325.14 318.38,-411.51 370,-461 373.41,-464.27 377.28,-467.09 381.42,-469.54"/>
<polygon fill="#63b8ff" stroke="#63b8ff" points="295.75,-281.23 290.88,-271.83 288.82,-282.22 295.75,-281.23"/>
</g>
<!-- Node5 -->
<g id="node5" class="node">
<title>Node5</title>
<g id="a_node5"><a xlink:href="classtriton_1_1exceptions_1_1ArmOperandProperties.html" target="_top" xlink:title="The exception class used by shift mode.">
<polygon fill="white" stroke="#666666" points="501.5,-452 379.5,-452 379.5,-422 501.5,-422 501.5,-452"/>
<text text-anchor="start" x="387.5" y="-440" font-family="Helvetica,sans-Serif" font-size="10.00">triton::exceptions</text>
<text text-anchor="middle" x="440.5" y="-429" font-family="Helvetica,sans-Serif" font-size="10.00">::ArmOperandProperties</text>
</a>
</g>
</g>
<!-- Node1&#45;&gt;Node5 -->
<g id="edge4" class="edge">
<title>Node1&#45;&gt;Node5</title>
<path fill="none" stroke="#63b8ff" d="M295.77,-281.17C306.08,-316.03 329.01,-377.42 370,-413 373.76,-416.26 377.99,-419.09 382.45,-421.54"/>
<polygon fill="#63b8ff" stroke="#63b8ff" points="299.23,-280.58 293.15,-271.9 292.5,-282.47 299.23,-280.58"/>
</g>
<!-- Node6 -->
<g id="node6" class="node">
<title>Node6</title>
<g id="a_node6"><a xlink:href="classtriton_1_1exceptions_1_1BasicBlock.html" target="_top" xlink:title="The exception class used by a basic block.">
<polygon fill="white" stroke="#666666" points="486.5,-404 394.5,-404 394.5,-374 486.5,-374 486.5,-404"/>
<text text-anchor="start" x="402.5" y="-392" font-family="Helvetica,sans-Serif" font-size="10.00">triton::exceptions</text>
<text text-anchor="middle" x="440.5" y="-381" font-family="Helvetica,sans-Serif" font-size="10.00">::BasicBlock</text>
</a>
</g>
</g>
<!-- Node1&#45;&gt;Node6 -->
<g id="edge5" class="edge">
<title>Node1&#45;&gt;Node6</title>
<path fill="none" stroke="#63b8ff" d="M301.89,-280.59C315.61,-305.44 339.55,-342.6 370,-365 377.2,-370.3 385.66,-374.49 394.15,-377.79"/>
<polygon fill="#63b8ff" stroke="#63b8ff" points="304.99,-278.97 297.19,-271.79 298.81,-282.26 304.99,-278.97"/>
</g>
<!-- Node7 -->
<g id="node7" class="node">
<title>Node7</title>
<g id="a_node7"><a xlink:href="classtriton_1_1exceptions_1_1BitsVector.html" target="_top" xlink:title="The exception class used by bitvectors.">
<polygon fill="white" stroke="#666666" points="486.5,-356 394.5,-356 394.5,-326 486.5,-326 486.5,-356"/>
<text text-anchor="start" x="402.5" y="-344" font-family="Helvetica,sans-Serif" font-size="10.00">triton::exceptions</text>
<text text-anchor="middle" x="440.5" y="-333" font-family="Helvetica,sans-Serif" font-size="10.00">::BitsVector</text>
</a>
</g>
</g>
<!-- Node1&#45;&gt;Node7 -->
<g id="edge6" class="edge">
<title>Node1&#45;&gt;Node7</title>
<path fill="none" stroke="#63b8ff" d="M315.1,-277.85C330.34,-290.35 350.38,-305.4 370,-316 377.56,-320.08 385.92,-323.74 394.15,-326.92"/>
<polygon fill="#63b8ff" stroke="#63b8ff" points="317.35,-275.17 307.44,-271.43 312.86,-280.54 317.35,-275.17"/>
</g>
<!-- Node8 -->
<g id="node8" class="node">
<title>Node8</title>
<g id="a_node8"><a xlink:href="classtriton_1_1exceptions_1_1Cpu.html" target="_top" xlink:title="The exception class used by all CPUs.">
<polygon fill="white" stroke="#666666" points="498.5,-307.5 382.5,-307.5 382.5,-288.5 498.5,-288.5 498.5,-307.5"/>
<text text-anchor="middle" x="440.5" y="-295.5" font-family="Helvetica,sans-Serif" font-size="10.00">triton::exceptions::Cpu</text>
</a>
</g>
</g>
<!-- Node1&#45;&gt;Node8 -->
<g id="edge7" class="edge">
<title>Node1&#45;&gt;Node8</title>
<path fill="none" stroke="#63b8ff" d="M345.16,-271.81C353.48,-274.25 361.96,-276.71 370,-279 380.59,-282.02 392.11,-285.2 402.67,-288.09"/>
<polygon fill="#63b8ff" stroke="#63b8ff" points="346.39,-268.52 335.81,-269.05 344.42,-275.24 346.39,-268.52"/>
</g>
<!-- Node11 -->
<g id="node11" class="node">
<title>Node11</title>
<g id="a_node11"><a xlink:href="classtriton_1_1exceptions_1_1Immediate.html" target="_top" xlink:title="The exception class used by immediates.">
<polygon fill="white" stroke="#666666" points="486.5,-270 394.5,-270 394.5,-240 486.5,-240 486.5,-270"/>
<text text-anchor="start" x="402.5" y="-258" font-family="Helvetica,sans-Serif" font-size="10.00">triton::exceptions</text>
<text text-anchor="middle" x="440.5" y="-247" font-family="Helvetica,sans-Serif" font-size="10.00">::Immediate</text>
</a>
</g>
</g>
<!-- Node1&#45;&gt;Node11 -->
<g id="edge10" class="edge">
<title>Node1&#45;&gt;Node11</title>
<path fill="none" stroke="#63b8ff" d="M345.57,-255C361.6,-255 378.84,-255 394.12,-255"/>
<polygon fill="#63b8ff" stroke="#63b8ff" points="345.67,-251.5 335.67,-255 345.67,-258.5 345.67,-251.5"/>
</g>
<!-- Node12 -->
<g id="node12" class="node">
<title>Node12</title>
<g id="a_node12"><a xlink:href="classtriton_1_1exceptions_1_1Instruction.html" target="_top" xlink:title="The exception class used by an instruction.">
<polygon fill="white" stroke="#666666" points="486.5,-222 394.5,-222 394.5,-192 486.5,-192 486.5,-222"/>
<text text-anchor="start" x="402.5" y="-210" font-family="Helvetica,sans-Serif" font-size="10.00">triton::exceptions</text>
<text text-anchor="middle" x="440.5" y="-199" font-family="Helvetica,sans-Serif" font-size="10.00">::Instruction</text>
</a>
</g>
</g>
<!-- Node1&#45;&gt;Node12 -->
<g id="edge11" class="edge">
<title>Node1&#45;&gt;Node12</title>
<path fill="none" stroke="#63b8ff" d="M345.1,-237.11C361.27,-231.95 378.69,-226.39 394.12,-221.47"/>
<polygon fill="#63b8ff" stroke="#63b8ff" points="344.06,-233.77 335.6,-240.14 346.19,-240.43 344.06,-233.77"/>
</g>
<!-- Node13 -->
<g id="node13" class="node">
<title>Node13</title>
<g id="a_node13"><a xlink:href="classtriton_1_1exceptions_1_1IrBuilder.html" target="_top" xlink:title="The exception class used by the IR builder.">
<polygon fill="white" stroke="#666666" points="486.5,-174 394.5,-174 394.5,-144 486.5,-144 486.5,-174"/>
<text text-anchor="start" x="402.5" y="-162" font-family="Helvetica,sans-Serif" font-size="10.00">triton::exceptions</text>
<text text-anchor="middle" x="440.5" y="-151" font-family="Helvetica,sans-Serif" font-size="10.00">::IrBuilder</text>
</a>
</g>
</g>
<!-- Node1&#45;&gt;Node13 -->
<g id="edge12" class="edge">
<title>Node1&#45;&gt;Node13</title>
<path fill="none" stroke="#63b8ff" d="M310.64,-231.41C325.95,-215.88 347.67,-196.07 370,-183 377.49,-178.62 385.91,-174.87 394.23,-171.72"/>
<polygon fill="#63b8ff" stroke="#63b8ff" points="308.29,-228.81 303.87,-238.44 313.33,-233.66 308.29,-228.81"/>
</g>
<!-- Node14 -->
<g id="node14" class="node">
<title>Node14</title>
<g id="a_node14"><a xlink:href="classtriton_1_1exceptions_1_1MemoryAccess.html" target="_top" xlink:title="The exception class used by memory access.">
<polygon fill="white" stroke="#666666" points="486.5,-126 394.5,-126 394.5,-96 486.5,-96 486.5,-126"/>
<text text-anchor="start" x="402.5" y="-114" font-family="Helvetica,sans-Serif" font-size="10.00">triton::exceptions</text>
<text text-anchor="middle" x="440.5" y="-103" font-family="Helvetica,sans-Serif" font-size="10.00">::MemoryAccess</text>
</a>
</g>
</g>
<!-- Node1&#45;&gt;Node14 -->
<g id="edge13" class="edge">
<title>Node1&#45;&gt;Node14</title>
<path fill="none" stroke="#63b8ff" d="M300.11,-229.55C313.15,-202.47 337.23,-160.16 370,-135 377.19,-129.48 385.74,-125.18 394.34,-121.84"/>
<polygon fill="#63b8ff" stroke="#63b8ff" points="297.03,-227.87 295.99,-238.41 303.38,-230.82 297.03,-227.87"/>
</g>
<!-- Node15 -->
<g id="node15" class="node">
<title>Node15</title>
<g id="a_node15"><a xlink:href="classtriton_1_1exceptions_1_1OperandWrapper.html" target="_top" xlink:title="The exception class used by operand wrappers.">
<polygon fill="white" stroke="#666666" points="488,-78 393,-78 393,-48 488,-48 488,-78"/>
<text text-anchor="start" x="401" y="-66" font-family="Helvetica,sans-Serif" font-size="10.00">triton::exceptions</text>
<text text-anchor="middle" x="440.5" y="-55" font-family="Helvetica,sans-Serif" font-size="10.00">::OperandWrapper</text>
</a>
</g>
</g>
<!-- Node1&#45;&gt;Node15 -->
<g id="edge14" class="edge">
<title>Node1&#45;&gt;Node15</title>
<path fill="none" stroke="#63b8ff" d="M294.88,-228.79C304.43,-192.06 326.78,-125.45 370,-87 376.49,-81.23 384.43,-76.83 392.6,-73.49"/>
<polygon fill="#63b8ff" stroke="#63b8ff" points="291.57,-227.58 292.58,-238.13 298.37,-229.26 291.57,-227.58"/>
</g>
<!-- Node16 -->
<g id="node16" class="node">
<title>Node16</title>
<g id="a_node16"><a xlink:href="classtriton_1_1exceptions_1_1Register.html" target="_top" xlink:title="The exception class used by register operands.">
<polygon fill="white" stroke="#666666" points="486.5,-30 394.5,-30 394.5,0 486.5,0 486.5,-30"/>
<text text-anchor="start" x="402.5" y="-18" font-family="Helvetica,sans-Serif" font-size="10.00">triton::exceptions</text>
<text text-anchor="middle" x="440.5" y="-7" font-family="Helvetica,sans-Serif" font-size="10.00">::Register</text>
</a>
</g>
</g>
<!-- Node1&#45;&gt;Node16 -->
<g id="edge15" class="edge">
<title>Node1&#45;&gt;Node16</title>
<path fill="none" stroke="#63b8ff" d="M291.71,-228.34C297.71,-183.19 316.13,-91.48 370,-39 376.77,-32.41 385.43,-27.62 394.32,-24.15"/>
<polygon fill="#63b8ff" stroke="#63b8ff" points="288.27,-227.67 290.54,-238.02 295.22,-228.51 288.27,-227.67"/>
</g>
<!-- Node2 -->
<g id="node2" class="node">
<title>Node2</title>
<g id="a_node2"><a xlink:href="classtriton_1_1exceptions_1_1Exception.html" target="_top" xlink:title="The root class of all exceptions.">
<polygon fill="white" stroke="#666666" points="206,-270 114,-270 114,-240 206,-240 206,-270"/>
<text text-anchor="start" x="122" y="-258" font-family="Helvetica,sans-Serif" font-size="10.00">triton::exceptions</text>
<text text-anchor="middle" x="160" y="-247" font-family="Helvetica,sans-Serif" font-size="10.00">::Exception</text>
</a>
</g>
</g>
<!-- Node2&#45;&gt;Node1 -->
<g id="edge1" class="edge">
<title>Node2&#45;&gt;Node1</title>
<path fill="none" stroke="#63b8ff" d="M217.94,-255C225.86,-255 233.91,-255 241.58,-255"/>
<polygon fill="#63b8ff" stroke="#63b8ff" points="218,-251.5 208,-255 218,-258.5 218,-251.5"/>
</g>
<!-- Node3 -->
<g id="node3" class="node">
<title>Node3</title>
<g id="a_node3"><a xlink:title=" ">
<polygon fill="white" stroke="#bfbfbf" points="78,-264.5 0,-264.5 0,-245.5 78,-245.5 78,-264.5"/>
<text text-anchor="middle" x="39" y="-252.5" font-family="Helvetica,sans-Serif" font-size="10.00">std::exception</text>
</a>
</g>
</g>
<!-- Node3&#45;&gt;Node2 -->
<g id="edge2" class="edge">
<title>Node3&#45;&gt;Node2</title>
<path fill="none" stroke="#63b8ff" d="M89.72,-255C97.67,-255 105.86,-255 113.71,-255"/>
<polygon fill="#63b8ff" stroke="#63b8ff" points="89.82,-251.5 79.82,-255 89.82,-258.5 89.82,-251.5"/>
</g>
<!-- Node9 -->
<g id="node9" class="node">
<title>Node9</title>
<g id="a_node9"><a xlink:href="classtriton_1_1exceptions_1_1Disassembly.html" target="_top" xlink:title="The exception class used by the disassembler.">
<polygon fill="white" stroke="#666666" points="639,-337 547,-337 547,-307 639,-307 639,-337"/>
<text text-anchor="start" x="555" y="-325" font-family="Helvetica,sans-Serif" font-size="10.00">triton::exceptions</text>
<text text-anchor="middle" x="593" y="-314" font-family="Helvetica,sans-Serif" font-size="10.00">::Disassembly</text>
</a>
</g>
</g>
<!-- Node8&#45;&gt;Node9 -->
<g id="edge8" class="edge">
<title>Node8&#45;&gt;Node9</title>
<path fill="none" stroke="#63b8ff" d="M510.07,-308.93C522.43,-310.91 535.03,-312.91 546.52,-314.75"/>
<polygon fill="#63b8ff" stroke="#63b8ff" points="510.75,-305.5 500.32,-307.38 509.65,-312.41 510.75,-305.5"/>
</g>
<!-- Node10 -->
<g id="node10" class="node">
<title>Node10</title>
<g id="a_node10"><a xlink:href="classtriton_1_1exceptions_1_1Semantics.html" target="_top" xlink:title="The exception class used by all semantics.">
<polygon fill="white" stroke="#666666" points="639,-289 547,-289 547,-259 639,-259 639,-289"/>
<text text-anchor="start" x="555" y="-277" font-family="Helvetica,sans-Serif" font-size="10.00">triton::exceptions</text>
<text text-anchor="middle" x="593" y="-266" font-family="Helvetica,sans-Serif" font-size="10.00">::Semantics</text>
</a>
</g>
</g>
<!-- Node8&#45;&gt;Node10 -->
<g id="edge9" class="edge">
<title>Node8&#45;&gt;Node10</title>
<path fill="none" stroke="#63b8ff" d="M510.07,-287.07C522.43,-285.09 535.03,-283.09 546.52,-281.25"/>
<polygon fill="#63b8ff" stroke="#63b8ff" points="509.65,-283.59 500.32,-288.62 510.75,-290.5 509.65,-283.59"/>
</g>
</g>
</svg>
