<?xml version="1.0" encoding="UTF-8" standalone="no"?>
<!DOCTYPE svg PUBLIC "-//W3C//DTD SVG 1.1//EN"
 "http://www.w3.org/Graphics/SVG/1.1/DTD/svg11.dtd">
<!-- Generated by graphviz version 7.0.0 (20221023.0053)
 -->
<!-- Title: triton::arch::CpuInterface Pages: 1 -->
<svg width="282pt" height="182pt"
 viewBox="0.00 0.00 282.00 182.00" xmlns="http://www.w3.org/2000/svg" xmlns:xlink="http://www.w3.org/1999/xlink">
<g id="graph0" class="graph" transform="scale(1 1) rotate(0) translate(4 178)">
<title>triton::arch::CpuInterface</title>
<!-- Node1 -->
<g id="node1" class="node">
<title>Node1</title>
<g id="a_node1"><a xlink:title="This interface is used as abstract CPU interface. All CPU must use this interface.">
<polygon fill="#999999" stroke="#666666" points="125,-96.5 0,-96.5 0,-77.5 125,-77.5 125,-96.5"/>
<text text-anchor="middle" x="62.5" y="-84.5" font-family="Helvetica,sans-Serif" font-size="10.00">triton::arch::CpuInterface</text>
</a>
</g>
</g>
<!-- Node2 -->
<g id="node2" class="node">
<title>Node2</title>
<g id="a_node2"><a xlink:href="classtriton_1_1arch_1_1arm_1_1aarch64_1_1AArch64Cpu.html" target="_top" xlink:title="This class is used to describe the ARM (64&#45;bits) spec.">
<polygon fill="white" stroke="#666666" points="274,-174 161,-174 161,-144 274,-144 274,-174"/>
<text text-anchor="start" x="169" y="-162" font-family="Helvetica,sans-Serif" font-size="10.00">triton::arch::arm::</text>
<text text-anchor="middle" x="217.5" y="-151" font-family="Helvetica,sans-Serif" font-size="10.00">aarch64::AArch64Cpu</text>
</a>
</g>
</g>
<!-- Node1&#45;&gt;Node2 -->
<g id="edge1" class="edge">
<title>Node1&#45;&gt;Node2</title>
<path fill="none" stroke="#63b8ff" d="M93.03,-102.01C112.27,-111.67 137.99,-124.37 161,-135 167.1,-137.82 173.62,-140.73 179.96,-143.51"/>
<polygon fill="#63b8ff" stroke="#63b8ff" points="94.65,-98.9 84.14,-97.53 91.49,-105.15 94.65,-98.9"/>
</g>
<!-- Node3 -->
<g id="node3" class="node">
<title>Node3</title>
<g id="a_node3"><a xlink:href="classtriton_1_1arch_1_1arm_1_1arm32_1_1Arm32Cpu.html" target="_top" xlink:title="This class is used to describe the ARM (32&#45;bits) spec.">
<polygon fill="white" stroke="#666666" points="265.5,-126 169.5,-126 169.5,-96 265.5,-96 265.5,-126"/>
<text text-anchor="start" x="177.5" y="-114" font-family="Helvetica,sans-Serif" font-size="10.00">triton::arch::arm::</text>
<text text-anchor="middle" x="217.5" y="-103" font-family="Helvetica,sans-Serif" font-size="10.00">arm32::Arm32Cpu</text>
</a>
</g>
</g>
<!-- Node1&#45;&gt;Node3 -->
<g id="edge2" class="edge">
<title>Node1&#45;&gt;Node3</title>
<path fill="none" stroke="#63b8ff" d="M136.34,-98.43C147.46,-100.17 158.69,-101.93 169.07,-103.56"/>
<polygon fill="#63b8ff" stroke="#63b8ff" points="137.21,-95.02 126.79,-96.93 136.12,-101.93 137.21,-95.02"/>
</g>
<!-- Node4 -->
<g id="node4" class="node">
<title>Node4</title>
<g id="a_node4"><a xlink:href="classtriton_1_1arch_1_1x86_1_1x8664Cpu.html" target="_top" xlink:title="This class is used to describe the x86 (64&#45;bits) spec.">
<polygon fill="white" stroke="#666666" points="263,-78 172,-78 172,-48 263,-48 263,-78"/>
<text text-anchor="start" x="180" y="-66" font-family="Helvetica,sans-Serif" font-size="10.00">triton::arch::x86::</text>
<text text-anchor="middle" x="217.5" y="-55" font-family="Helvetica,sans-Serif" font-size="10.00">x8664Cpu</text>
</a>
</g>
</g>
<!-- Node1&#45;&gt;Node4 -->
<g id="edge3" class="edge">
<title>Node1&#45;&gt;Node4</title>
<path fill="none" stroke="#63b8ff" d="M136.36,-75.57C148.48,-73.67 160.73,-71.75 171.88,-70"/>
<polygon fill="#63b8ff" stroke="#63b8ff" points="136.12,-72.07 126.79,-77.07 137.21,-78.98 136.12,-72.07"/>
</g>
<!-- Node5 -->
<g id="node5" class="node">
<title>Node5</title>
<g id="a_node5"><a xlink:href="classtriton_1_1arch_1_1x86_1_1x86Cpu.html" target="_top" xlink:title="This class is used to describe the x86 (32&#45;bits) spec.">
<polygon fill="white" stroke="#666666" points="263,-30 172,-30 172,0 263,0 263,-30"/>
<text text-anchor="start" x="180" y="-18" font-family="Helvetica,sans-Serif" font-size="10.00">triton::arch::x86::</text>
<text text-anchor="middle" x="217.5" y="-7" font-family="Helvetica,sans-Serif" font-size="10.00">x86Cpu</text>
</a>
</g>
</g>
<!-- Node1&#45;&gt;Node5 -->
<g id="edge4" class="edge">
<title>Node1&#45;&gt;Node5</title>
<path fill="none" stroke="#63b8ff" d="M93.03,-71.99C112.27,-62.33 137.99,-49.63 161,-39 167.1,-36.18 173.62,-33.27 179.96,-30.49"/>
<polygon fill="#63b8ff" stroke="#63b8ff" points="91.49,-68.85 84.14,-76.47 94.65,-75.1 91.49,-68.85"/>
</g>
</g>
</svg>
