<?xml version="1.0" encoding="UTF-8" standalone="no"?>
<!DOCTYPE svg PUBLIC "-//W3C//DTD SVG 1.1//EN"
 "http://www.w3.org/Graphics/SVG/1.1/DTD/svg11.dtd">
<!-- Generated by graphviz version 11.0.0 (20240428.1522)
 -->
<!-- Title: triton::exceptions::SynthesizerEngine Pages: 1 -->
<svg width="112pt" height="227pt"
 viewBox="0.00 0.00 111.75 226.75" xmlns="http://www.w3.org/2000/svg" xmlns:xlink="http://www.w3.org/1999/xlink">
<g id="graph0" class="graph" transform="scale(1 1) rotate(0) translate(4 222.75)">
<title>triton::exceptions::SynthesizerEngine</title>
<!-- Node1 -->
<g id="Node000001" class="node">
<title>Node1</title>
<g id="a_Node000001"><a xlink:title="The exception class used by the synthesizer engine.">
<polygon fill="#999999" stroke="#666666" points="103.75,-30.5 0,-30.5 0,0 103.75,0 103.75,-30.5"/>
<text text-anchor="start" x="8" y="-17" font-family="Helvetica,sans-Serif" font-size="10.00">triton::exceptions</text>
<text text-anchor="middle" x="51.88" y="-5.75" font-family="Helvetica,sans-Serif" font-size="10.00">::SynthesizerEngine</text>
</a>
</g>
</g>
<!-- Node2 -->
<g id="Node000002" class="node">
<title>Node2</title>
<g id="a_Node000002"><a xlink:href="$classtriton_1_1exceptions_1_1Engines.html" xlink:title="The exception class used by all engines.">
<polygon fill="white" stroke="#666666" points="97.38,-97 6.38,-97 6.38,-66.5 97.38,-66.5 97.38,-97"/>
<text text-anchor="start" x="14.38" y="-83.5" font-family="Helvetica,sans-Serif" font-size="10.00">triton::exceptions</text>
<text text-anchor="middle" x="51.88" y="-72.25" font-family="Helvetica,sans-Serif" font-size="10.00">::Engines</text>
</a>
</g>
</g>
<!-- Node2&#45;&gt;Node1 -->
<g id="edge1_Node000001_Node000002" class="edge">
<title>Node2&#45;&gt;Node1</title>
<g id="a_edge1_Node000001_Node000002"><a xlink:title=" ">
<path fill="none" stroke="#63b8ff" d="M51.88,-54.81C51.88,-46.64 51.88,-37.91 51.88,-30.83"/>
<polygon fill="#63b8ff" stroke="#63b8ff" points="48.38,-54.6 51.88,-64.6 55.38,-54.6 48.38,-54.6"/>
</a>
</g>
</g>
<!-- Node3 -->
<g id="Node000003" class="node">
<title>Node3</title>
<g id="a_Node000003"><a xlink:href="$classtriton_1_1exceptions_1_1Exception.html" xlink:title="The root class of all exceptions.">
<polygon fill="white" stroke="#666666" points="97.38,-163.5 6.38,-163.5 6.38,-133 97.38,-133 97.38,-163.5"/>
<text text-anchor="start" x="14.38" y="-150" font-family="Helvetica,sans-Serif" font-size="10.00">triton::exceptions</text>
<text text-anchor="middle" x="51.88" y="-138.75" font-family="Helvetica,sans-Serif" font-size="10.00">::Exception</text>
</a>
</g>
</g>
<!-- Node3&#45;&gt;Node2 -->
<g id="edge2_Node000002_Node000003" class="edge">
<title>Node3&#45;&gt;Node2</title>
<g id="a_edge2_Node000002_Node000003"><a xlink:title=" ">
<path fill="none" stroke="#63b8ff" d="M51.88,-121.31C51.88,-113.14 51.88,-104.41 51.88,-97.33"/>
<polygon fill="#63b8ff" stroke="#63b8ff" points="48.38,-121.1 51.88,-131.1 55.38,-121.1 48.38,-121.1"/>
</a>
</g>
</g>
<!-- Node4 -->
<g id="Node000004" class="node">
<title>Node4</title>
<g id="a_Node000004"><a xlink:title=" ">
<polygon fill="white" stroke="#bfbfbf" points="90.62,-218.75 13.12,-218.75 13.12,-199.5 90.62,-199.5 90.62,-218.75"/>
<text text-anchor="middle" x="51.88" y="-205.25" font-family="Helvetica,sans-Serif" font-size="10.00">std::exception</text>
</a>
</g>
</g>
<!-- Node4&#45;&gt;Node3 -->
<g id="edge3_Node000003_Node000004" class="edge">
<title>Node4&#45;&gt;Node3</title>
<g id="a_edge3_Node000003_Node000004"><a xlink:title=" ">
<path fill="none" stroke="#63b8ff" d="M51.88,-187.92C51.88,-179.99 51.88,-171.06 51.88,-163.78"/>
<polygon fill="#63b8ff" stroke="#63b8ff" points="48.38,-187.67 51.88,-197.67 55.38,-187.67 48.38,-187.67"/>
</a>
</g>
</g>
</g>
</svg>
