<?xml version="1.0" encoding="UTF-8" standalone="no"?>
<!DOCTYPE svg PUBLIC "-//W3C//DTD SVG 1.1//EN"
 "http://www.w3.org/Graphics/SVG/1.1/DTD/svg11.dtd">
<!-- Generated by graphviz version 7.0.0 (20221023.0053)
 -->
<!-- Title: triton::arch::arm::arm32::Arm32Cpu Pages: 1 -->
<svg width="292pt" height="104pt"
 viewBox="0.00 0.00 291.50 104.00" xmlns="http://www.w3.org/2000/svg" xmlns:xlink="http://www.w3.org/1999/xlink">
<g id="graph0" class="graph" transform="scale(1 1) rotate(0) translate(4 100)">
<title>triton::arch::arm::arm32::Arm32Cpu</title>
<!-- Node1 -->
<g id="node1" class="node">
<title>Node1</title>
<g id="a_node1"><a xlink:title="This class is used to describe the ARM (32&#45;bits) spec.">
<polygon fill="#999999" stroke="#666666" points="185.5,-30 89.5,-30 89.5,0 185.5,0 185.5,-30"/>
<text text-anchor="start" x="97.5" y="-18" font-family="Helvetica,sans-Serif" font-size="10.00">triton::arch::arm::</text>
<text text-anchor="middle" x="137.5" y="-7" font-family="Helvetica,sans-Serif" font-size="10.00">arm32::Arm32Cpu</text>
</a>
</g>
</g>
<!-- Node2 -->
<g id="node2" class="node">
<title>Node2</title>
<g id="a_node2"><a xlink:href="classtriton_1_1arch_1_1CpuInterface.html" target="_top" xlink:title="This interface is used as abstract CPU interface. All CPU must use this interface.">
<polygon fill="white" stroke="#666666" points="125,-90.5 0,-90.5 0,-71.5 125,-71.5 125,-90.5"/>
<text text-anchor="middle" x="62.5" y="-78.5" font-family="Helvetica,sans-Serif" font-size="10.00">triton::arch::CpuInterface</text>
</a>
</g>
</g>
<!-- Node2&#45;&gt;Node1 -->
<g id="edge1" class="edge">
<title>Node2&#45;&gt;Node1</title>
<path fill="none" stroke="#63b8ff" d="M81.35,-63.92C93.39,-53.64 108.88,-40.43 120.53,-30.48"/>
<polygon fill="#63b8ff" stroke="#63b8ff" points="79.41,-60.96 74.08,-70.12 83.96,-66.29 79.41,-60.96"/>
</g>
<!-- Node3 -->
<g id="node3" class="node">
<title>Node3</title>
<g id="a_node3"><a xlink:href="classtriton_1_1arch_1_1arm_1_1arm32_1_1Arm32Specifications.html" target="_top" xlink:title="The Arm32Specifications class defines specifications about the Arm32 CPU.">
<polygon fill="white" stroke="#666666" points="283.5,-96 143.5,-96 143.5,-66 283.5,-66 283.5,-96"/>
<text text-anchor="start" x="151.5" y="-84" font-family="Helvetica,sans-Serif" font-size="10.00">triton::arch::arm::</text>
<text text-anchor="middle" x="213.5" y="-73" font-family="Helvetica,sans-Serif" font-size="10.00">arm32::Arm32Specifications</text>
</a>
</g>
</g>
<!-- Node3&#45;&gt;Node1 -->
<g id="edge2" class="edge">
<title>Node3&#45;&gt;Node1</title>
<path fill="none" stroke="#63b8ff" d="M187.88,-58.42C176.91,-49.18 164.39,-38.65 154.58,-30.39"/>
<polygon fill="#63b8ff" stroke="#63b8ff" points="185.57,-61.06 195.48,-64.82 190.08,-55.7 185.57,-61.06"/>
</g>
</g>
</svg>
