<?xml version="1.0" encoding="UTF-8" standalone="no"?>
<!DOCTYPE svg PUBLIC "-//W3C//DTD SVG 1.1//EN"
 "http://www.w3.org/Graphics/SVG/1.1/DTD/svg11.dtd">
<!-- Generated by graphviz version 2.49.0 (20210828.1703)
 -->
<!-- Title: triton::exceptions::Architecture Pages: 1 -->
<svg width="698pt" height="470pt"
 viewBox="0.00 0.00 698.00 470.00" xmlns="http://www.w3.org/2000/svg" xmlns:xlink="http://www.w3.org/1999/xlink">
<g id="graph0" class="graph" transform="scale(1 1) rotate(0) translate(4 466)">
<title>triton::exceptions::Architecture</title>
<polygon fill="white" stroke="transparent" points="-4,4 -4,-466 694,-466 694,4 -4,4"/>
<!-- Node1 -->
<g id="node1" class="node">
<title>Node1</title>
<g id="a_node1"><a xlink:title="The exception class used by architectures.">
<polygon fill="#bfbfbf" stroke="black" points="260,-220.5 260,-250.5 362,-250.5 362,-220.5 260,-220.5"/>
<text text-anchor="start" x="268" y="-238.5" font-family="Helvetica,sans-Serif" font-size="10.00">triton::exceptions</text>
<text text-anchor="middle" x="311" y="-227.5" font-family="Helvetica,sans-Serif" font-size="10.00">::Architecture</text>
</a>
</g>
</g>
<!-- Node4 -->
<g id="node4" class="node">
<title>Node4</title>
<g id="a_node4"><a xlink:href="classtriton_1_1exceptions_1_1AArch64OperandProperties.html" target="_top" xlink:title="The exception class used by shift mode.">
<polygon fill="white" stroke="black" points="398,-431.5 398,-461.5 552,-461.5 552,-431.5 398,-431.5"/>
<text text-anchor="start" x="406" y="-449.5" font-family="Helvetica,sans-Serif" font-size="10.00">triton::exceptions</text>
<text text-anchor="middle" x="475" y="-438.5" font-family="Helvetica,sans-Serif" font-size="10.00">::AArch64OperandProperties</text>
</a>
</g>
</g>
<!-- Node1&#45;&gt;Node4 -->
<g id="edge3" class="edge">
<title>Node1&#45;&gt;Node4</title>
<path fill="none" stroke="midnightblue" d="M316.9,-260.66C325.93,-300.44 348.97,-377.82 398,-421.5 402.36,-425.38 407.33,-428.66 412.6,-431.43"/>
<polygon fill="midnightblue" stroke="midnightblue" points="320.28,-259.76 314.76,-250.72 313.44,-261.23 320.28,-259.76"/>
</g>
<!-- Node5 -->
<g id="node5" class="node">
<title>Node5</title>
<g id="a_node5"><a xlink:href="classtriton_1_1exceptions_1_1ArmOperandProperties.html" target="_top" xlink:title="The exception class used by shift mode.">
<polygon fill="white" stroke="black" points="408,-382.5 408,-412.5 542,-412.5 542,-382.5 408,-382.5"/>
<text text-anchor="start" x="416" y="-400.5" font-family="Helvetica,sans-Serif" font-size="10.00">triton::exceptions</text>
<text text-anchor="middle" x="475" y="-389.5" font-family="Helvetica,sans-Serif" font-size="10.00">::ArmOperandProperties</text>
</a>
</g>
</g>
<!-- Node1&#45;&gt;Node5 -->
<g id="edge4" class="edge">
<title>Node1&#45;&gt;Node5</title>
<path fill="none" stroke="midnightblue" d="M321.3,-260.19C334.07,-290.82 359.85,-342.65 398,-372.5 402.92,-376.35 408.46,-379.62 414.25,-382.4"/>
<polygon fill="midnightblue" stroke="midnightblue" points="324.46,-258.65 317.48,-250.68 317.96,-261.26 324.46,-258.65"/>
</g>
<!-- Node6 -->
<g id="node6" class="node">
<title>Node6</title>
<g id="a_node6"><a xlink:href="classtriton_1_1exceptions_1_1BitsVector.html" target="_top" xlink:title="The exception class used by bitvectors.">
<polygon fill="white" stroke="black" points="424,-333.5 424,-363.5 526,-363.5 526,-333.5 424,-333.5"/>
<text text-anchor="start" x="432" y="-351.5" font-family="Helvetica,sans-Serif" font-size="10.00">triton::exceptions</text>
<text text-anchor="middle" x="475" y="-340.5" font-family="Helvetica,sans-Serif" font-size="10.00">::BitsVector</text>
</a>
</g>
</g>
<!-- Node1&#45;&gt;Node6 -->
<g id="edge5" class="edge">
<title>Node1&#45;&gt;Node6</title>
<path fill="none" stroke="midnightblue" d="M329.33,-258.67C345.21,-278.43 370.4,-306.3 398,-323.5 405.9,-328.42 414.87,-332.48 423.81,-335.79"/>
<polygon fill="midnightblue" stroke="midnightblue" points="332.04,-256.45 323.11,-250.75 326.53,-260.78 332.04,-256.45"/>
</g>
<!-- Node7 -->
<g id="node7" class="node">
<title>Node7</title>
<g id="a_node7"><a xlink:href="classtriton_1_1exceptions_1_1Cpu.html" target="_top" xlink:title="The exception class used by all CPUs.">
<polygon fill="white" stroke="black" points="411.5,-295 411.5,-314 538.5,-314 538.5,-295 411.5,-295"/>
<text text-anchor="middle" x="475" y="-302" font-family="Helvetica,sans-Serif" font-size="10.00">triton::exceptions::Cpu</text>
</a>
</g>
</g>
<!-- Node1&#45;&gt;Node7 -->
<g id="edge6" class="edge">
<title>Node1&#45;&gt;Node7</title>
<path fill="none" stroke="midnightblue" d="M343.38,-256.01C359.25,-265.69 379.12,-276.79 398,-284.5 408.11,-288.63 419.32,-292.13 429.96,-294.99"/>
<polygon fill="midnightblue" stroke="midnightblue" points="344.87,-252.82 334.53,-250.51 341.18,-258.76 344.87,-252.82"/>
</g>
<!-- Node10 -->
<g id="node10" class="node">
<title>Node10</title>
<g id="a_node10"><a xlink:href="classtriton_1_1exceptions_1_1Immediate.html" target="_top" xlink:title="The exception class used by immediates.">
<polygon fill="white" stroke="black" points="424,-245.5 424,-275.5 526,-275.5 526,-245.5 424,-245.5"/>
<text text-anchor="start" x="432" y="-263.5" font-family="Helvetica,sans-Serif" font-size="10.00">triton::exceptions</text>
<text text-anchor="middle" x="475" y="-252.5" font-family="Helvetica,sans-Serif" font-size="10.00">::Immediate</text>
</a>
</g>
</g>
<!-- Node1&#45;&gt;Node10 -->
<g id="edge9" class="edge">
<title>Node1&#45;&gt;Node10</title>
<path fill="none" stroke="midnightblue" d="M372.7,-244.87C389.59,-247.47 407.73,-250.27 423.94,-252.77"/>
<polygon fill="midnightblue" stroke="midnightblue" points="372.79,-241.34 362.37,-243.27 371.72,-248.26 372.79,-241.34"/>
</g>
<!-- Node11 -->
<g id="node11" class="node">
<title>Node11</title>
<g id="a_node11"><a xlink:href="classtriton_1_1exceptions_1_1Instruction.html" target="_top" xlink:title="The exception class used by an instruction.">
<polygon fill="white" stroke="black" points="424,-196.5 424,-226.5 526,-226.5 526,-196.5 424,-196.5"/>
<text text-anchor="start" x="432" y="-214.5" font-family="Helvetica,sans-Serif" font-size="10.00">triton::exceptions</text>
<text text-anchor="middle" x="475" y="-203.5" font-family="Helvetica,sans-Serif" font-size="10.00">::Instruction</text>
</a>
</g>
</g>
<!-- Node1&#45;&gt;Node11 -->
<g id="edge10" class="edge">
<title>Node1&#45;&gt;Node11</title>
<path fill="none" stroke="midnightblue" d="M372.7,-226.51C389.59,-224.01 407.73,-221.32 423.94,-218.92"/>
<polygon fill="midnightblue" stroke="midnightblue" points="371.75,-223.11 362.37,-228.04 372.77,-230.03 371.75,-223.11"/>
</g>
<!-- Node12 -->
<g id="node12" class="node">
<title>Node12</title>
<g id="a_node12"><a xlink:href="classtriton_1_1exceptions_1_1IrBuilder.html" target="_top" xlink:title="The exception class used by the IR builder.">
<polygon fill="white" stroke="black" points="424,-147.5 424,-177.5 526,-177.5 526,-147.5 424,-147.5"/>
<text text-anchor="start" x="432" y="-165.5" font-family="Helvetica,sans-Serif" font-size="10.00">triton::exceptions</text>
<text text-anchor="middle" x="475" y="-154.5" font-family="Helvetica,sans-Serif" font-size="10.00">::IrBuilder</text>
</a>
</g>
</g>
<!-- Node1&#45;&gt;Node12 -->
<g id="edge11" class="edge">
<title>Node1&#45;&gt;Node12</title>
<path fill="none" stroke="midnightblue" d="M344.22,-214.98C360.02,-205.48 379.57,-194.55 398,-186.5 406.24,-182.9 415.2,-179.58 423.97,-176.63"/>
<polygon fill="midnightblue" stroke="midnightblue" points="342.1,-212.17 335.39,-220.37 345.75,-218.14 342.1,-212.17"/>
</g>
<!-- Node13 -->
<g id="node13" class="node">
<title>Node13</title>
<g id="a_node13"><a xlink:href="classtriton_1_1exceptions_1_1MemoryAccess.html" target="_top" xlink:title="The exception class used by memory access.">
<polygon fill="white" stroke="black" points="424,-98.5 424,-128.5 526,-128.5 526,-98.5 424,-98.5"/>
<text text-anchor="start" x="432" y="-116.5" font-family="Helvetica,sans-Serif" font-size="10.00">triton::exceptions</text>
<text text-anchor="middle" x="475" y="-105.5" font-family="Helvetica,sans-Serif" font-size="10.00">::MemoryAccess</text>
</a>
</g>
</g>
<!-- Node1&#45;&gt;Node13 -->
<g id="edge12" class="edge">
<title>Node1&#45;&gt;Node13</title>
<path fill="none" stroke="midnightblue" d="M327.19,-211.72C342.53,-189.52 368.18,-156.96 398,-137.5 405.88,-132.36 414.94,-128.25 423.99,-125"/>
<polygon fill="midnightblue" stroke="midnightblue" points="324.13,-210 321.45,-220.25 329.94,-213.9 324.13,-210"/>
</g>
<!-- Node14 -->
<g id="node14" class="node">
<title>Node14</title>
<g id="a_node14"><a xlink:href="classtriton_1_1exceptions_1_1OperandWrapper.html" target="_top" xlink:title="The exception class used by operand wrappers.">
<polygon fill="white" stroke="black" points="422.5,-49.5 422.5,-79.5 527.5,-79.5 527.5,-49.5 422.5,-49.5"/>
<text text-anchor="start" x="430.5" y="-67.5" font-family="Helvetica,sans-Serif" font-size="10.00">triton::exceptions</text>
<text text-anchor="middle" x="475" y="-56.5" font-family="Helvetica,sans-Serif" font-size="10.00">::OperandWrapper</text>
</a>
</g>
</g>
<!-- Node1&#45;&gt;Node14 -->
<g id="edge13" class="edge">
<title>Node1&#45;&gt;Node14</title>
<path fill="none" stroke="midnightblue" d="M320.22,-210.39C332.21,-177.66 357.55,-120.79 398,-88.5 405.14,-82.8 413.65,-78.45 422.34,-75.12"/>
<polygon fill="midnightblue" stroke="midnightblue" points="316.82,-209.51 316.8,-220.11 323.42,-211.84 316.82,-209.51"/>
</g>
<!-- Node15 -->
<g id="node15" class="node">
<title>Node15</title>
<g id="a_node15"><a xlink:href="classtriton_1_1exceptions_1_1Register.html" target="_top" xlink:title="The exception class used by register operands.">
<polygon fill="white" stroke="black" points="424,-0.5 424,-30.5 526,-30.5 526,-0.5 424,-0.5"/>
<text text-anchor="start" x="432" y="-18.5" font-family="Helvetica,sans-Serif" font-size="10.00">triton::exceptions</text>
<text text-anchor="middle" x="475" y="-7.5" font-family="Helvetica,sans-Serif" font-size="10.00">::Register</text>
</a>
</g>
</g>
<!-- Node1&#45;&gt;Node15 -->
<g id="edge14" class="edge">
<title>Node1&#45;&gt;Node15</title>
<path fill="none" stroke="midnightblue" d="M316.14,-210.41C324.3,-168.88 346.36,-85.86 398,-39.5 405.31,-32.94 414.41,-28.17 423.75,-24.7"/>
<polygon fill="midnightblue" stroke="midnightblue" points="312.7,-209.79 314.31,-220.26 319.58,-211.06 312.7,-209.79"/>
</g>
<!-- Node2 -->
<g id="node2" class="node">
<title>Node2</title>
<g id="a_node2"><a xlink:href="classtriton_1_1exceptions_1_1Exception.html" target="_top" xlink:title="The root class of all exceptions.">
<polygon fill="white" stroke="black" points="122,-220.5 122,-250.5 224,-250.5 224,-220.5 122,-220.5"/>
<text text-anchor="start" x="130" y="-238.5" font-family="Helvetica,sans-Serif" font-size="10.00">triton::exceptions</text>
<text text-anchor="middle" x="173" y="-227.5" font-family="Helvetica,sans-Serif" font-size="10.00">::Exception</text>
</a>
</g>
</g>
<!-- Node2&#45;&gt;Node1 -->
<g id="edge1" class="edge">
<title>Node2&#45;&gt;Node1</title>
<path fill="none" stroke="midnightblue" d="M234.51,-235.5C243.01,-235.5 251.67,-235.5 259.95,-235.5"/>
<polygon fill="midnightblue" stroke="midnightblue" points="234.26,-232 224.25,-235.5 234.25,-239 234.26,-232"/>
</g>
<!-- Node3 -->
<g id="node3" class="node">
<title>Node3</title>
<g id="a_node3"><a xlink:title=" ">
<polygon fill="white" stroke="#bfbfbf" points="0,-226 0,-245 86,-245 86,-226 0,-226"/>
<text text-anchor="middle" x="43" y="-233" font-family="Helvetica,sans-Serif" font-size="10.00">std::exception</text>
</a>
</g>
</g>
<!-- Node3&#45;&gt;Node2 -->
<g id="edge2" class="edge">
<title>Node3&#45;&gt;Node2</title>
<path fill="none" stroke="midnightblue" d="M96.34,-235.5C104.74,-235.5 113.42,-235.5 121.77,-235.5"/>
<polygon fill="midnightblue" stroke="midnightblue" points="96.27,-232 86.27,-235.5 96.27,-239 96.27,-232"/>
</g>
<!-- Node8 -->
<g id="node8" class="node">
<title>Node8</title>
<g id="a_node8"><a xlink:href="classtriton_1_1exceptions_1_1Disassembly.html" target="_top" xlink:title="The exception class used by the disassembler.">
<polygon fill="white" stroke="black" points="588,-313.5 588,-343.5 690,-343.5 690,-313.5 588,-313.5"/>
<text text-anchor="start" x="596" y="-331.5" font-family="Helvetica,sans-Serif" font-size="10.00">triton::exceptions</text>
<text text-anchor="middle" x="639" y="-320.5" font-family="Helvetica,sans-Serif" font-size="10.00">::Disassembly</text>
</a>
</g>
</g>
<!-- Node7&#45;&gt;Node8 -->
<g id="edge7" class="edge">
<title>Node7&#45;&gt;Node8</title>
<path fill="none" stroke="midnightblue" d="M548.67,-315.27C561.9,-317.23 575.43,-319.23 587.82,-321.07"/>
<polygon fill="midnightblue" stroke="midnightblue" points="549.04,-311.78 538.63,-313.78 548.01,-318.71 549.04,-311.78"/>
</g>
<!-- Node9 -->
<g id="node9" class="node">
<title>Node9</title>
<g id="a_node9"><a xlink:href="classtriton_1_1exceptions_1_1Semantics.html" target="_top" xlink:title="The exception class used by all semantics.">
<polygon fill="white" stroke="black" points="588,-264.5 588,-294.5 690,-294.5 690,-264.5 588,-264.5"/>
<text text-anchor="start" x="596" y="-282.5" font-family="Helvetica,sans-Serif" font-size="10.00">triton::exceptions</text>
<text text-anchor="middle" x="639" y="-271.5" font-family="Helvetica,sans-Serif" font-size="10.00">::Semantics</text>
</a>
</g>
</g>
<!-- Node7&#45;&gt;Node9 -->
<g id="edge8" class="edge">
<title>Node7&#45;&gt;Node9</title>
<path fill="none" stroke="midnightblue" d="M547.9,-293.4C561.36,-291.33 575.15,-289.2 587.77,-287.25"/>
<polygon fill="midnightblue" stroke="midnightblue" points="547.06,-289.99 537.71,-294.98 548.12,-296.91 547.06,-289.99"/>
</g>
</g>
</svg>
