<?xml version="1.0" encoding="UTF-8" standalone="no"?>
<!DOCTYPE svg PUBLIC "-//W3C//DTD SVG 1.1//EN"
 "http://www.w3.org/Graphics/SVG/1.1/DTD/svg11.dtd">
<!-- Generated by graphviz version 11.0.0 (20240428.1522)
 -->
<!-- Title: triton::arch::arm::arm32::Arm32Cpu Pages: 1 -->
<svg width="290pt" height="105pt"
 viewBox="0.00 0.00 289.88 105.00" xmlns="http://www.w3.org/2000/svg" xmlns:xlink="http://www.w3.org/1999/xlink">
<g id="graph0" class="graph" transform="scale(1 1) rotate(0) translate(4 101)">
<title>triton::arch::arm::arm32::Arm32Cpu</title>
<!-- Node1 -->
<g id="Node000001" class="node">
<title>Node1</title>
<g id="a_Node000001"><a xlink:title="This class is used to describe the ARM (32&#45;bits) spec.">
<polygon fill="#999999" stroke="#666666" points="185.12,-30.5 89.62,-30.5 89.62,0 185.12,0 185.12,-30.5"/>
<text text-anchor="start" x="97.62" y="-17" font-family="Helvetica,sans-Serif" font-size="10.00">triton::arch::arm::</text>
<text text-anchor="middle" x="137.38" y="-5.75" font-family="Helvetica,sans-Serif" font-size="10.00">arm32::Arm32Cpu</text>
</a>
</g>
</g>
<!-- Node2 -->
<g id="Node000002" class="node">
<title>Node2</title>
<g id="a_Node000002"><a xlink:href="$classtriton_1_1arch_1_1CpuInterface.html" xlink:title="This interface is used as abstract CPU interface. All CPU must use this interface.">
<polygon fill="white" stroke="#666666" points="124.75,-91.38 0,-91.38 0,-72.12 124.75,-72.12 124.75,-91.38"/>
<text text-anchor="middle" x="62.38" y="-77.88" font-family="Helvetica,sans-Serif" font-size="10.00">triton::arch::CpuInterface</text>
</a>
</g>
</g>
<!-- Node2&#45;&gt;Node1 -->
<g id="edge1_Node000001_Node000002" class="edge">
<title>Node2&#45;&gt;Node1</title>
<g id="a_edge1_Node000001_Node000002"><a xlink:title=" ">
<path fill="none" stroke="#63b8ff" d="M81.22,-64.54C93.26,-54.19 108.75,-40.87 120.41,-30.84"/>
<polygon fill="#63b8ff" stroke="#63b8ff" points="79.25,-61.62 73.95,-70.79 83.81,-66.93 79.25,-61.62"/>
</a>
</g>
</g>
<!-- Node3 -->
<g id="Node000003" class="node">
<title>Node3</title>
<g id="a_Node000003"><a xlink:href="$classtriton_1_1arch_1_1arm_1_1arm32_1_1Arm32Specifications.html" xlink:title="The Arm32Specifications class defines specifications about the Arm32 CPU.">
<polygon fill="white" stroke="#666666" points="281.88,-97 142.88,-97 142.88,-66.5 281.88,-66.5 281.88,-97"/>
<text text-anchor="start" x="150.88" y="-83.5" font-family="Helvetica,sans-Serif" font-size="10.00">triton::arch::arm::</text>
<text text-anchor="middle" x="212.38" y="-72.25" font-family="Helvetica,sans-Serif" font-size="10.00">arm32::Arm32Specifications</text>
</a>
</g>
</g>
<!-- Node3&#45;&gt;Node1 -->
<g id="edge2_Node000001_Node000003" class="edge">
<title>Node3&#45;&gt;Node1</title>
<g id="a_edge2_Node000001_Node000003"><a xlink:title=" ">
<path fill="none" stroke="#63b8ff" d="M186.78,-58.74C176.07,-49.53 163.9,-39.06 154.33,-30.83"/>
<polygon fill="#63b8ff" stroke="#63b8ff" points="184.34,-61.26 194.21,-65.13 188.91,-55.95 184.34,-61.26"/>
</a>
</g>
</g>
</g>
</svg>
