<?xml version="1.0" encoding="UTF-8" standalone="no"?>
<!DOCTYPE svg PUBLIC "-//W3C//DTD SVG 1.1//EN"
 "http://www.w3.org/Graphics/SVG/1.1/DTD/svg11.dtd">
<!-- Generated by graphviz version 11.0.0 (20240428.1522)
 -->
<!-- Title: triton::exceptions::IrBuilder Pages: 1 -->
<svg width="99pt" height="227pt"
 viewBox="0.00 0.00 99.00 226.75" xmlns="http://www.w3.org/2000/svg" xmlns:xlink="http://www.w3.org/1999/xlink">
<g id="graph0" class="graph" transform="scale(1 1) rotate(0) translate(4 222.75)">
<title>triton::exceptions::IrBuilder</title>
<!-- Node1 -->
<g id="Node000001" class="node">
<title>Node1</title>
<g id="a_Node000001"><a xlink:title="The exception class used by the IR builder.">
<polygon fill="#999999" stroke="#666666" points="91,-30.5 0,-30.5 0,0 91,0 91,-30.5"/>
<text text-anchor="start" x="8" y="-17" font-family="Helvetica,sans-Serif" font-size="10.00">triton::exceptions</text>
<text text-anchor="middle" x="45.5" y="-5.75" font-family="Helvetica,sans-Serif" font-size="10.00">::IrBuilder</text>
</a>
</g>
</g>
<!-- Node2 -->
<g id="Node000002" class="node">
<title>Node2</title>
<g id="a_Node000002"><a xlink:href="classtriton_1_1exceptions_1_1Architecture.html" target="_top" xlink:title="The exception class used by architectures.">
<polygon fill="white" stroke="#666666" points="91,-97 0,-97 0,-66.5 91,-66.5 91,-97"/>
<text text-anchor="start" x="8" y="-83.5" font-family="Helvetica,sans-Serif" font-size="10.00">triton::exceptions</text>
<text text-anchor="middle" x="45.5" y="-72.25" font-family="Helvetica,sans-Serif" font-size="10.00">::Architecture</text>
</a>
</g>
</g>
<!-- Node2&#45;&gt;Node1 -->
<g id="edge1_Node000001_Node000002" class="edge">
<title>Node2&#45;&gt;Node1</title>
<g id="a_edge1_Node000001_Node000002"><a xlink:title=" ">
<path fill="none" stroke="#63b8ff" d="M45.5,-54.81C45.5,-46.64 45.5,-37.91 45.5,-30.83"/>
<polygon fill="#63b8ff" stroke="#63b8ff" points="42,-54.6 45.5,-64.6 49,-54.6 42,-54.6"/>
</a>
</g>
</g>
<!-- Node3 -->
<g id="Node000003" class="node">
<title>Node3</title>
<g id="a_Node000003"><a xlink:href="classtriton_1_1exceptions_1_1Exception.html" target="_top" xlink:title="The root class of all exceptions.">
<polygon fill="white" stroke="#666666" points="91,-163.5 0,-163.5 0,-133 91,-133 91,-163.5"/>
<text text-anchor="start" x="8" y="-150" font-family="Helvetica,sans-Serif" font-size="10.00">triton::exceptions</text>
<text text-anchor="middle" x="45.5" y="-138.75" font-family="Helvetica,sans-Serif" font-size="10.00">::Exception</text>
</a>
</g>
</g>
<!-- Node3&#45;&gt;Node2 -->
<g id="edge2_Node000002_Node000003" class="edge">
<title>Node3&#45;&gt;Node2</title>
<g id="a_edge2_Node000002_Node000003"><a xlink:title=" ">
<path fill="none" stroke="#63b8ff" d="M45.5,-121.31C45.5,-113.14 45.5,-104.41 45.5,-97.33"/>
<polygon fill="#63b8ff" stroke="#63b8ff" points="42,-121.1 45.5,-131.1 49,-121.1 42,-121.1"/>
</a>
</g>
</g>
<!-- Node4 -->
<g id="Node000004" class="node">
<title>Node4</title>
<g id="a_Node000004"><a xlink:title=" ">
<polygon fill="white" stroke="#bfbfbf" points="84.25,-218.75 6.75,-218.75 6.75,-199.5 84.25,-199.5 84.25,-218.75"/>
<text text-anchor="middle" x="45.5" y="-205.25" font-family="Helvetica,sans-Serif" font-size="10.00">std::exception</text>
</a>
</g>
</g>
<!-- Node4&#45;&gt;Node3 -->
<g id="edge3_Node000003_Node000004" class="edge">
<title>Node4&#45;&gt;Node3</title>
<g id="a_edge3_Node000003_Node000004"><a xlink:title=" ">
<path fill="none" stroke="#63b8ff" d="M45.5,-187.92C45.5,-179.99 45.5,-171.06 45.5,-163.78"/>
<polygon fill="#63b8ff" stroke="#63b8ff" points="42,-187.67 45.5,-197.67 49,-187.67 42,-187.67"/>
</a>
</g>
</g>
</g>
</svg>
