<?xml version="1.0" encoding="UTF-8" standalone="no"?>
<!DOCTYPE svg PUBLIC "-//W3C//DTD SVG 1.1//EN"
 "http://www.w3.org/Graphics/SVG/1.1/DTD/svg11.dtd">
<!-- Generated by graphviz version 7.0.0 (20221023.0053)
 -->
<!-- Title: triton::exceptions::SolverModel Pages: 1 -->
<svg width="100pt" height="291pt"
 viewBox="0.00 0.00 100.00 291.00" xmlns="http://www.w3.org/2000/svg" xmlns:xlink="http://www.w3.org/1999/xlink">
<g id="graph0" class="graph" transform="scale(1 1) rotate(0) translate(4 287)">
<title>triton::exceptions::SolverModel</title>
<!-- Node1 -->
<g id="node1" class="node">
<title>Node1</title>
<g id="a_node1"><a xlink:title="The exception class used by solver models.">
<polygon fill="#999999" stroke="#666666" points="92,-30 0,-30 0,0 92,0 92,-30"/>
<text text-anchor="start" x="8" y="-18" font-family="Helvetica,sans-Serif" font-size="10.00">triton::exceptions</text>
<text text-anchor="middle" x="46" y="-7" font-family="Helvetica,sans-Serif" font-size="10.00">::SolverModel</text>
</a>
</g>
</g>
<!-- Node2 -->
<g id="node2" class="node">
<title>Node2</title>
<g id="a_node2"><a xlink:href="classtriton_1_1exceptions_1_1SolverEngine.html" target="_top" xlink:title="The exception class used by the solver engine.">
<polygon fill="white" stroke="#666666" points="92,-96 0,-96 0,-66 92,-66 92,-96"/>
<text text-anchor="start" x="8" y="-84" font-family="Helvetica,sans-Serif" font-size="10.00">triton::exceptions</text>
<text text-anchor="middle" x="46" y="-73" font-family="Helvetica,sans-Serif" font-size="10.00">::SolverEngine</text>
</a>
</g>
</g>
<!-- Node2&#45;&gt;Node1 -->
<g id="edge1" class="edge">
<title>Node2&#45;&gt;Node1</title>
<path fill="none" stroke="#63b8ff" d="M46,-54.39C46,-46.13 46,-37.28 46,-30.16"/>
<polygon fill="#63b8ff" stroke="#63b8ff" points="42.5,-54.28 46,-64.28 49.5,-54.28 42.5,-54.28"/>
</g>
<!-- Node3 -->
<g id="node3" class="node">
<title>Node3</title>
<g id="a_node3"><a xlink:href="classtriton_1_1exceptions_1_1Engines.html" target="_top" xlink:title="The exception class used by all engines.">
<polygon fill="white" stroke="#666666" points="92,-162 0,-162 0,-132 92,-132 92,-162"/>
<text text-anchor="start" x="8" y="-150" font-family="Helvetica,sans-Serif" font-size="10.00">triton::exceptions</text>
<text text-anchor="middle" x="46" y="-139" font-family="Helvetica,sans-Serif" font-size="10.00">::Engines</text>
</a>
</g>
</g>
<!-- Node3&#45;&gt;Node2 -->
<g id="edge2" class="edge">
<title>Node3&#45;&gt;Node2</title>
<path fill="none" stroke="#63b8ff" d="M46,-120.39C46,-112.13 46,-103.28 46,-96.16"/>
<polygon fill="#63b8ff" stroke="#63b8ff" points="42.5,-120.28 46,-130.28 49.5,-120.28 42.5,-120.28"/>
</g>
<!-- Node4 -->
<g id="node4" class="node">
<title>Node4</title>
<g id="a_node4"><a xlink:href="classtriton_1_1exceptions_1_1Exception.html" target="_top" xlink:title="The root class of all exceptions.">
<polygon fill="white" stroke="#666666" points="92,-228 0,-228 0,-198 92,-198 92,-228"/>
<text text-anchor="start" x="8" y="-216" font-family="Helvetica,sans-Serif" font-size="10.00">triton::exceptions</text>
<text text-anchor="middle" x="46" y="-205" font-family="Helvetica,sans-Serif" font-size="10.00">::Exception</text>
</a>
</g>
</g>
<!-- Node4&#45;&gt;Node3 -->
<g id="edge3" class="edge">
<title>Node4&#45;&gt;Node3</title>
<path fill="none" stroke="#63b8ff" d="M46,-186.39C46,-178.13 46,-169.28 46,-162.16"/>
<polygon fill="#63b8ff" stroke="#63b8ff" points="42.5,-186.28 46,-196.28 49.5,-186.28 42.5,-186.28"/>
</g>
<!-- Node5 -->
<g id="node5" class="node">
<title>Node5</title>
<g id="a_node5"><a xlink:title=" ">
<polygon fill="white" stroke="#bfbfbf" points="85,-283 7,-283 7,-264 85,-264 85,-283"/>
<text text-anchor="middle" x="46" y="-271" font-family="Helvetica,sans-Serif" font-size="10.00">std::exception</text>
</a>
</g>
</g>
<!-- Node5&#45;&gt;Node4 -->
<g id="edge4" class="edge">
<title>Node5&#45;&gt;Node4</title>
<path fill="none" stroke="#63b8ff" d="M46,-252.51C46,-244.49 46,-235.43 46,-228.11"/>
<polygon fill="#63b8ff" stroke="#63b8ff" points="42.5,-252.35 46,-262.35 49.5,-252.35 42.5,-252.35"/>
</g>
</g>
</svg>
