<?xml version="1.0" encoding="UTF-8" standalone="no"?>
<!DOCTYPE svg PUBLIC "-//W3C//DTD SVG 1.1//EN"
 "http://www.w3.org/Graphics/SVG/1.1/DTD/svg11.dtd">
<!-- Generated by graphviz version 11.0.0 (20240428.1522)
 -->
<!-- Title: triton::exceptions::Disassembly Pages: 1 -->
<svg width="123pt" height="282pt"
 viewBox="0.00 0.00 123.00 282.00" xmlns="http://www.w3.org/2000/svg" xmlns:xlink="http://www.w3.org/1999/xlink">
<g id="graph0" class="graph" transform="scale(1 1) rotate(0) translate(4 278)">
<title>triton::exceptions::Disassembly</title>
<!-- Node1 -->
<g id="Node000001" class="node">
<title>Node1</title>
<g id="a_Node000001"><a xlink:title="The exception class used by the disassembler.">
<polygon fill="#999999" stroke="#666666" points="103,-30.5 12,-30.5 12,0 103,0 103,-30.5"/>
<text text-anchor="start" x="20" y="-17" font-family="Helvetica,sans-Serif" font-size="10.00">triton::exceptions</text>
<text text-anchor="middle" x="57.5" y="-5.75" font-family="Helvetica,sans-Serif" font-size="10.00">::Disassembly</text>
</a>
</g>
</g>
<!-- Node2 -->
<g id="Node000002" class="node">
<title>Node2</title>
<g id="a_Node000002"><a xlink:href="classtriton_1_1exceptions_1_1Cpu.html" target="_top" xlink:title="The exception class used by all CPUs.">
<polygon fill="white" stroke="#666666" points="115,-85.75 0,-85.75 0,-66.5 115,-66.5 115,-85.75"/>
<text text-anchor="middle" x="57.5" y="-72.25" font-family="Helvetica,sans-Serif" font-size="10.00">triton::exceptions::Cpu</text>
</a>
</g>
</g>
<!-- Node2&#45;&gt;Node1 -->
<g id="edge1_Node000001_Node000002" class="edge">
<title>Node2&#45;&gt;Node1</title>
<g id="a_edge1_Node000001_Node000002"><a xlink:title=" ">
<path fill="none" stroke="#63b8ff" d="M57.5,-54.92C57.5,-46.99 57.5,-38.06 57.5,-30.78"/>
<polygon fill="#63b8ff" stroke="#63b8ff" points="54,-54.67 57.5,-64.67 61,-54.67 54,-54.67"/>
</a>
</g>
</g>
<!-- Node3 -->
<g id="Node000003" class="node">
<title>Node3</title>
<g id="a_Node000003"><a xlink:href="classtriton_1_1exceptions_1_1Architecture.html" target="_top" xlink:title="The exception class used by architectures.">
<polygon fill="white" stroke="#666666" points="103,-152.25 12,-152.25 12,-121.75 103,-121.75 103,-152.25"/>
<text text-anchor="start" x="20" y="-138.75" font-family="Helvetica,sans-Serif" font-size="10.00">triton::exceptions</text>
<text text-anchor="middle" x="57.5" y="-127.5" font-family="Helvetica,sans-Serif" font-size="10.00">::Architecture</text>
</a>
</g>
</g>
<!-- Node3&#45;&gt;Node2 -->
<g id="edge2_Node000002_Node000003" class="edge">
<title>Node3&#45;&gt;Node2</title>
<g id="a_edge2_Node000002_Node000003"><a xlink:title=" ">
<path fill="none" stroke="#63b8ff" d="M57.5,-109.98C57.5,-101.48 57.5,-92.59 57.5,-86.2"/>
<polygon fill="#63b8ff" stroke="#63b8ff" points="54,-109.93 57.5,-119.93 61,-109.93 54,-109.93"/>
</a>
</g>
</g>
<!-- Node4 -->
<g id="Node000004" class="node">
<title>Node4</title>
<g id="a_Node000004"><a xlink:href="classtriton_1_1exceptions_1_1Exception.html" target="_top" xlink:title="The root class of all exceptions.">
<polygon fill="white" stroke="#666666" points="103,-218.75 12,-218.75 12,-188.25 103,-188.25 103,-218.75"/>
<text text-anchor="start" x="20" y="-205.25" font-family="Helvetica,sans-Serif" font-size="10.00">triton::exceptions</text>
<text text-anchor="middle" x="57.5" y="-194" font-family="Helvetica,sans-Serif" font-size="10.00">::Exception</text>
</a>
</g>
</g>
<!-- Node4&#45;&gt;Node3 -->
<g id="edge3_Node000003_Node000004" class="edge">
<title>Node4&#45;&gt;Node3</title>
<g id="a_edge3_Node000003_Node000004"><a xlink:title=" ">
<path fill="none" stroke="#63b8ff" d="M57.5,-176.56C57.5,-168.39 57.5,-159.66 57.5,-152.58"/>
<polygon fill="#63b8ff" stroke="#63b8ff" points="54,-176.35 57.5,-186.35 61,-176.35 54,-176.35"/>
</a>
</g>
</g>
<!-- Node5 -->
<g id="Node000005" class="node">
<title>Node5</title>
<g id="a_Node000005"><a xlink:title=" ">
<polygon fill="white" stroke="#bfbfbf" points="96.25,-274 18.75,-274 18.75,-254.75 96.25,-254.75 96.25,-274"/>
<text text-anchor="middle" x="57.5" y="-260.5" font-family="Helvetica,sans-Serif" font-size="10.00">std::exception</text>
</a>
</g>
</g>
<!-- Node5&#45;&gt;Node4 -->
<g id="edge4_Node000004_Node000005" class="edge">
<title>Node5&#45;&gt;Node4</title>
<g id="a_edge4_Node000004_Node000005"><a xlink:title=" ">
<path fill="none" stroke="#63b8ff" d="M57.5,-243.17C57.5,-235.24 57.5,-226.31 57.5,-219.03"/>
<polygon fill="#63b8ff" stroke="#63b8ff" points="54,-242.92 57.5,-252.92 61,-242.92 54,-242.92"/>
</a>
</g>
</g>
</g>
</svg>
