<?xml version="1.0" encoding="UTF-8" standalone="no"?>
<!DOCTYPE svg PUBLIC "-//W3C//DTD SVG 1.1//EN"
 "http://www.w3.org/Graphics/SVG/1.1/DTD/svg11.dtd">
<!-- Generated by graphviz version 11.0.0 (20240428.1522)
 -->
<!-- Title: triton::exceptions::SymbolicSimplification Pages: 1 -->
<svg width="129pt" height="293pt"
 viewBox="0.00 0.00 129.00 293.25" xmlns="http://www.w3.org/2000/svg" xmlns:xlink="http://www.w3.org/1999/xlink">
<g id="graph0" class="graph" transform="scale(1 1) rotate(0) translate(4 289.25)">
<title>triton::exceptions::SymbolicSimplification</title>
<!-- Node1 -->
<g id="Node000001" class="node">
<title>Node1</title>
<g id="a_Node000001"><a xlink:title="The exception class used by symbolic simplifications.">
<polygon fill="#999999" stroke="#666666" points="121,-30.5 0,-30.5 0,0 121,0 121,-30.5"/>
<text text-anchor="start" x="8" y="-17" font-family="Helvetica,sans-Serif" font-size="10.00">triton::exceptions</text>
<text text-anchor="middle" x="60.5" y="-5.75" font-family="Helvetica,sans-Serif" font-size="10.00">::SymbolicSimplification</text>
</a>
</g>
</g>
<!-- Node2 -->
<g id="Node000002" class="node">
<title>Node2</title>
<g id="a_Node000002"><a xlink:href="$classtriton_1_1exceptions_1_1SymbolicEngine.html" xlink:title="The exception class used by the symbolic engine.">
<polygon fill="white" stroke="#666666" points="106.75,-97 14.25,-97 14.25,-66.5 106.75,-66.5 106.75,-97"/>
<text text-anchor="start" x="22.25" y="-83.5" font-family="Helvetica,sans-Serif" font-size="10.00">triton::exceptions</text>
<text text-anchor="middle" x="60.5" y="-72.25" font-family="Helvetica,sans-Serif" font-size="10.00">::SymbolicEngine</text>
</a>
</g>
</g>
<!-- Node2&#45;&gt;Node1 -->
<g id="edge1_Node000001_Node000002" class="edge">
<title>Node2&#45;&gt;Node1</title>
<g id="a_edge1_Node000001_Node000002"><a xlink:title=" ">
<path fill="none" stroke="#63b8ff" d="M60.5,-54.81C60.5,-46.64 60.5,-37.91 60.5,-30.83"/>
<polygon fill="#63b8ff" stroke="#63b8ff" points="57,-54.6 60.5,-64.6 64,-54.6 57,-54.6"/>
</a>
</g>
</g>
<!-- Node3 -->
<g id="Node000003" class="node">
<title>Node3</title>
<g id="a_Node000003"><a xlink:href="$classtriton_1_1exceptions_1_1Engines.html" xlink:title="The exception class used by all engines.">
<polygon fill="white" stroke="#666666" points="106,-163.5 15,-163.5 15,-133 106,-133 106,-163.5"/>
<text text-anchor="start" x="23" y="-150" font-family="Helvetica,sans-Serif" font-size="10.00">triton::exceptions</text>
<text text-anchor="middle" x="60.5" y="-138.75" font-family="Helvetica,sans-Serif" font-size="10.00">::Engines</text>
</a>
</g>
</g>
<!-- Node3&#45;&gt;Node2 -->
<g id="edge2_Node000002_Node000003" class="edge">
<title>Node3&#45;&gt;Node2</title>
<g id="a_edge2_Node000002_Node000003"><a xlink:title=" ">
<path fill="none" stroke="#63b8ff" d="M60.5,-121.31C60.5,-113.14 60.5,-104.41 60.5,-97.33"/>
<polygon fill="#63b8ff" stroke="#63b8ff" points="57,-121.1 60.5,-131.1 64,-121.1 57,-121.1"/>
</a>
</g>
</g>
<!-- Node4 -->
<g id="Node000004" class="node">
<title>Node4</title>
<g id="a_Node000004"><a xlink:href="$classtriton_1_1exceptions_1_1Exception.html" xlink:title="The root class of all exceptions.">
<polygon fill="white" stroke="#666666" points="106,-230 15,-230 15,-199.5 106,-199.5 106,-230"/>
<text text-anchor="start" x="23" y="-216.5" font-family="Helvetica,sans-Serif" font-size="10.00">triton::exceptions</text>
<text text-anchor="middle" x="60.5" y="-205.25" font-family="Helvetica,sans-Serif" font-size="10.00">::Exception</text>
</a>
</g>
</g>
<!-- Node4&#45;&gt;Node3 -->
<g id="edge3_Node000003_Node000004" class="edge">
<title>Node4&#45;&gt;Node3</title>
<g id="a_edge3_Node000003_Node000004"><a xlink:title=" ">
<path fill="none" stroke="#63b8ff" d="M60.5,-187.81C60.5,-179.64 60.5,-170.91 60.5,-163.83"/>
<polygon fill="#63b8ff" stroke="#63b8ff" points="57,-187.6 60.5,-197.6 64,-187.6 57,-187.6"/>
</a>
</g>
</g>
<!-- Node5 -->
<g id="Node000005" class="node">
<title>Node5</title>
<g id="a_Node000005"><a xlink:title=" ">
<polygon fill="white" stroke="#bfbfbf" points="99.25,-285.25 21.75,-285.25 21.75,-266 99.25,-266 99.25,-285.25"/>
<text text-anchor="middle" x="60.5" y="-271.75" font-family="Helvetica,sans-Serif" font-size="10.00">std::exception</text>
</a>
</g>
</g>
<!-- Node5&#45;&gt;Node4 -->
<g id="edge4_Node000004_Node000005" class="edge">
<title>Node5&#45;&gt;Node4</title>
<g id="a_edge4_Node000004_Node000005"><a xlink:title=" ">
<path fill="none" stroke="#63b8ff" d="M60.5,-254.42C60.5,-246.49 60.5,-237.56 60.5,-230.28"/>
<polygon fill="#63b8ff" stroke="#63b8ff" points="57,-254.17 60.5,-264.17 64,-254.17 57,-254.17"/>
</a>
</g>
</g>
</g>
</svg>
