<?xml version="1.0" encoding="UTF-8" standalone="no"?>
<!DOCTYPE svg PUBLIC "-//W3C//DTD SVG 1.1//EN"
 "http://www.w3.org/Graphics/SVG/1.1/DTD/svg11.dtd">
<!-- Generated by graphviz version 2.50.0 (20211204.2007)
 -->
<!-- Title: triton::arch::BitsVector Pages: 1 -->
<svg width="440pt" height="84pt"
 viewBox="0.00 0.00 439.50 84.00" xmlns="http://www.w3.org/2000/svg" xmlns:xlink="http://www.w3.org/1999/xlink">
<g id="graph0" class="graph" transform="scale(1 1) rotate(0) translate(4 80)">
<title>triton::arch::BitsVector</title>
<polygon fill="white" stroke="transparent" points="-4,4 -4,-80 435.5,-80 435.5,4 -4,4"/>
<!-- Node1 -->
<g id="node1" class="node">
<title>Node1</title>
<g id="a_node1"><a xlink:title="This class is used to deal with registers and memory as bits vector.">
<polygon fill="#bfbfbf" stroke="black" points="160,-56.5 160,-75.5 285,-75.5 285,-56.5 160,-56.5"/>
<text text-anchor="middle" x="222.5" y="-63.5" font-family="Helvetica,sans-Serif" font-size="10.00">triton::arch::BitsVector</text>
</a>
</g>
</g>
<!-- Node2 -->
<g id="node2" class="node">
<title>Node2</title>
<g id="a_node2"><a xlink:href="classtriton_1_1arch_1_1Immediate.html" target="_top" xlink:title="This class is used to represent an immediate.">
<polygon fill="white" stroke="black" points="0,-0.5 0,-19.5 129,-19.5 129,-0.5 0,-0.5"/>
<text text-anchor="middle" x="64.5" y="-7.5" font-family="Helvetica,sans-Serif" font-size="10.00">triton::arch::Immediate</text>
</a>
</g>
</g>
<!-- Node1&#45;&gt;Node2 -->
<g id="edge1" class="edge">
<title>Node1&#45;&gt;Node2</title>
<path fill="none" stroke="midnightblue" d="M187.89,-53.17C158.14,-43 115.95,-28.59 89.42,-19.52"/>
<polygon fill="midnightblue" stroke="midnightblue" points="186.87,-56.52 197.46,-56.44 189.13,-49.9 186.87,-56.52"/>
</g>
<!-- Node3 -->
<g id="node3" class="node">
<title>Node3</title>
<g id="a_node3"><a xlink:href="classtriton_1_1arch_1_1MemoryAccess.html" target="_top" xlink:title="This class is used to represent a memory access.">
<polygon fill="white" stroke="black" points="147.5,-0.5 147.5,-19.5 297.5,-19.5 297.5,-0.5 147.5,-0.5"/>
<text text-anchor="middle" x="222.5" y="-7.5" font-family="Helvetica,sans-Serif" font-size="10.00">triton::arch::MemoryAccess</text>
</a>
</g>
</g>
<!-- Node1&#45;&gt;Node3 -->
<g id="edge2" class="edge">
<title>Node1&#45;&gt;Node3</title>
<path fill="none" stroke="midnightblue" d="M222.5,-45.8C222.5,-36.91 222.5,-26.78 222.5,-19.75"/>
<polygon fill="midnightblue" stroke="midnightblue" points="219,-46.08 222.5,-56.08 226,-46.08 219,-46.08"/>
</g>
<!-- Node4 -->
<g id="node4" class="node">
<title>Node4</title>
<g id="a_node4"><a xlink:href="classtriton_1_1arch_1_1Register.html" target="_top" xlink:title="This class is used when an instruction has a register operand.">
<polygon fill="white" stroke="black" points="315.5,-0.5 315.5,-19.5 431.5,-19.5 431.5,-0.5 315.5,-0.5"/>
<text text-anchor="middle" x="373.5" y="-7.5" font-family="Helvetica,sans-Serif" font-size="10.00">triton::arch::Register</text>
</a>
</g>
</g>
<!-- Node1&#45;&gt;Node4 -->
<g id="edge3" class="edge">
<title>Node1&#45;&gt;Node4</title>
<path fill="none" stroke="midnightblue" d="M255.95,-53.04C284.36,-42.88 324.44,-28.55 349.69,-19.52"/>
<polygon fill="midnightblue" stroke="midnightblue" points="254.66,-49.78 246.43,-56.44 257.02,-56.37 254.66,-49.78"/>
</g>
</g>
</svg>
