<?xml version="1.0" encoding="UTF-8" standalone="no"?>
<!DOCTYPE svg PUBLIC "-//W3C//DTD SVG 1.1//EN"
 "http://www.w3.org/Graphics/SVG/1.1/DTD/svg11.dtd">
<!-- Generated by graphviz version 9.0.0 (20230911.1827)
 -->
<!-- Title: triton::arch::CpuInterface Pages: 1 -->
<svg width="281pt" height="186pt"
 viewBox="0.00 0.00 280.75 185.50" xmlns="http://www.w3.org/2000/svg" xmlns:xlink="http://www.w3.org/1999/xlink">
<g id="graph0" class="graph" transform="scale(1 1) rotate(0) translate(4 181.5)">
<title>triton::arch::CpuInterface</title>
<!-- Node1 -->
<g id="Node000001" class="node">
<title>Node1</title>
<g id="a_Node000001"><a xlink:title="This interface is used as abstract CPU interface. All CPU must use this interface.">
<polygon fill="#999999" stroke="#666666" points="124.75,-97.88 0,-97.88 0,-78.62 124.75,-78.62 124.75,-97.88"/>
<text text-anchor="middle" x="62.38" y="-84.38" font-family="Helvetica,sans-Serif" font-size="10.00">triton::arch::CpuInterface</text>
</a>
</g>
</g>
<!-- Node2 -->
<g id="Node000002" class="node">
<title>Node2</title>
<g id="a_Node000002"><a xlink:href="classtriton_1_1arch_1_1arm_1_1aarch64_1_1AArch64Cpu.html" target="_top" xlink:title="This class is used to describe the ARM (64&#45;bits) spec.">
<polygon fill="white" stroke="#666666" points="272.75,-177.5 160.75,-177.5 160.75,-147 272.75,-147 272.75,-177.5"/>
<text text-anchor="start" x="168.75" y="-164" font-family="Helvetica,sans-Serif" font-size="10.00">triton::arch::arm::</text>
<text text-anchor="middle" x="216.75" y="-152.75" font-family="Helvetica,sans-Serif" font-size="10.00">aarch64::AArch64Cpu</text>
</a>
</g>
</g>
<!-- Node1&#45;&gt;Node2 -->
<g id="edge1_Node000001_Node000002" class="edge">
<title>Node1&#45;&gt;Node2</title>
<g id="a_edge1_Node000001_Node000002"><a xlink:title=" ">
<path fill="none" stroke="#63b8ff" d="M92.9,-103.49C112.13,-113.32 137.81,-126.27 160.75,-137.25 167.18,-140.33 174.08,-143.54 180.74,-146.59"/>
<polygon fill="#63b8ff" stroke="#63b8ff" points="94.5,-100.38 84.01,-98.93 91.31,-106.61 94.5,-100.38"/>
</a>
</g>
</g>
<!-- Node3 -->
<g id="Node000003" class="node">
<title>Node3</title>
<g id="a_Node000003"><a xlink:href="classtriton_1_1arch_1_1arm_1_1arm32_1_1Arm32Cpu.html" target="_top" xlink:title="This class is used to describe the ARM (32&#45;bits) spec.">
<polygon fill="white" stroke="#666666" points="264.5,-128.5 169,-128.5 169,-98 264.5,-98 264.5,-128.5"/>
<text text-anchor="start" x="177" y="-115" font-family="Helvetica,sans-Serif" font-size="10.00">triton::arch::arm::</text>
<text text-anchor="middle" x="216.75" y="-103.75" font-family="Helvetica,sans-Serif" font-size="10.00">arm32::Arm32Cpu</text>
</a>
</g>
</g>
<!-- Node1&#45;&gt;Node3 -->
<g id="edge2_Node000001_Node000003" class="edge">
<title>Node1&#45;&gt;Node3</title>
<g id="a_edge2_Node000001_Node000003"><a xlink:title=" ">
<path fill="none" stroke="#63b8ff" d="M136.27,-100.21C147.23,-102.01 158.28,-103.82 168.52,-105.5"/>
<polygon fill="#63b8ff" stroke="#63b8ff" points="136.84,-96.76 126.41,-98.59 135.71,-103.66 136.84,-96.76"/>
</a>
</g>
</g>
<!-- Node4 -->
<g id="Node000004" class="node">
<title>Node4</title>
<g id="a_Node000004"><a xlink:href="classtriton_1_1arch_1_1x86_1_1x8664Cpu.html" target="_top" xlink:title="This class is used to describe the x86 (64&#45;bits) spec.">
<polygon fill="white" stroke="#666666" points="261.88,-79.5 171.62,-79.5 171.62,-49 261.88,-49 261.88,-79.5"/>
<text text-anchor="start" x="179.62" y="-66" font-family="Helvetica,sans-Serif" font-size="10.00">triton::arch::x86::</text>
<text text-anchor="middle" x="216.75" y="-54.75" font-family="Helvetica,sans-Serif" font-size="10.00">x8664Cpu</text>
</a>
</g>
</g>
<!-- Node1&#45;&gt;Node4 -->
<g id="edge3_Node000001_Node000004" class="edge">
<title>Node1&#45;&gt;Node4</title>
<g id="a_edge3_Node000001_Node000004"><a xlink:title=" ">
<path fill="none" stroke="#63b8ff" d="M135.93,-76.82C148.01,-74.92 160.21,-73 171.32,-71.25"/>
<polygon fill="#63b8ff" stroke="#63b8ff" points="135.74,-73.31 126.41,-78.32 136.83,-80.22 135.74,-73.31"/>
</a>
</g>
</g>
<!-- Node5 -->
<g id="Node000005" class="node">
<title>Node5</title>
<g id="a_Node000005"><a xlink:href="classtriton_1_1arch_1_1x86_1_1x86Cpu.html" target="_top" xlink:title="This class is used to describe the x86 (32&#45;bits) spec.">
<polygon fill="white" stroke="#666666" points="261.88,-30.5 171.62,-30.5 171.62,0 261.88,0 261.88,-30.5"/>
<text text-anchor="start" x="179.62" y="-17" font-family="Helvetica,sans-Serif" font-size="10.00">triton::arch::x86::</text>
<text text-anchor="middle" x="216.75" y="-5.75" font-family="Helvetica,sans-Serif" font-size="10.00">x86Cpu</text>
</a>
</g>
</g>
<!-- Node1&#45;&gt;Node5 -->
<g id="edge4_Node000001_Node000005" class="edge">
<title>Node1&#45;&gt;Node5</title>
<g id="a_edge4_Node000001_Node000005"><a xlink:title=" ">
<path fill="none" stroke="#63b8ff" d="M93.65,-73.02C112.81,-63.46 138.15,-50.95 160.75,-40.25 167.2,-37.2 174.1,-34 180.76,-30.96"/>
<polygon fill="#63b8ff" stroke="#63b8ff" points="92.16,-69.85 84.78,-77.46 95.29,-76.12 92.16,-69.85"/>
</a>
</g>
</g>
</g>
</svg>
