<?xml version="1.0" encoding="UTF-8" standalone="no"?>
<!DOCTYPE svg PUBLIC "-//W3C//DTD SVG 1.1//EN"
 "http://www.w3.org/Graphics/SVG/1.1/DTD/svg11.dtd">
<!-- Generated by graphviz version 11.0.0 (20240428.1522)
 -->
<!-- Title: triton::exceptions::Engines Pages: 1 -->
<svg width="636pt" height="284pt"
 viewBox="0.00 0.00 636.25 283.50" xmlns="http://www.w3.org/2000/svg" xmlns:xlink="http://www.w3.org/1999/xlink">
<g id="graph0" class="graph" transform="scale(1 1) rotate(0) translate(4 279.5)">
<title>triton::exceptions::Engines</title>
<!-- Node1 -->
<g id="Node000001" class="node">
<title>Node1</title>
<g id="a_Node000001"><a xlink:title="The exception class used by all engines.">
<polygon fill="#999999" stroke="#666666" points="331.5,-152.5 240.5,-152.5 240.5,-122 331.5,-122 331.5,-152.5"/>
<text text-anchor="start" x="248.5" y="-139" font-family="Helvetica,sans-Serif" font-size="10.00">triton::exceptions</text>
<text text-anchor="middle" x="286" y="-127.75" font-family="Helvetica,sans-Serif" font-size="10.00">::Engines</text>
</a>
</g>
</g>
<!-- Node4 -->
<g id="Node000004" class="node">
<title>Node4</title>
<g id="a_Node000004"><a xlink:href="$classtriton_1_1exceptions_1_1LiftingEngine.html" xlink:title="The exception class used by the lifting engine.">
<polygon fill="white" stroke="#666666" points="464.88,-250.5 373.88,-250.5 373.88,-220 464.88,-220 464.88,-250.5"/>
<text text-anchor="start" x="381.88" y="-237" font-family="Helvetica,sans-Serif" font-size="10.00">triton::exceptions</text>
<text text-anchor="middle" x="419.38" y="-225.75" font-family="Helvetica,sans-Serif" font-size="10.00">::LiftingEngine</text>
</a>
</g>
</g>
<!-- Node1&#45;&gt;Node4 -->
<g id="edge3_Node000001_Node000004" class="edge">
<title>Node1&#45;&gt;Node4</title>
<g id="a_edge3_Node000001_Node000004"><a xlink:title=" ">
<path fill="none" stroke="#63b8ff" d="M309.54,-160.88C324.93,-176.18 346.3,-195.85 367.5,-210.25 372.38,-213.57 377.77,-216.7 383.16,-219.56"/>
<polygon fill="#63b8ff" stroke="#63b8ff" points="312.23,-158.62 302.71,-153.97 307.25,-163.54 312.23,-158.62"/>
</a>
</g>
</g>
<!-- Node5 -->
<g id="Node000005" class="node">
<title>Node5</title>
<g id="a_Node000005"><a xlink:href="$classtriton_1_1exceptions_1_1SolverEngine.html" xlink:title="The exception class used by the solver engine.">
<polygon fill="white" stroke="#666666" points="464.88,-201.5 373.88,-201.5 373.88,-171 464.88,-171 464.88,-201.5"/>
<text text-anchor="start" x="381.88" y="-188" font-family="Helvetica,sans-Serif" font-size="10.00">triton::exceptions</text>
<text text-anchor="middle" x="419.38" y="-176.75" font-family="Helvetica,sans-Serif" font-size="10.00">::SolverEngine</text>
</a>
</g>
</g>
<!-- Node1&#45;&gt;Node5 -->
<g id="edge4_Node000001_Node000005" class="edge">
<title>Node1&#45;&gt;Node5</title>
<g id="a_edge4_Node000001_Node000005"><a xlink:title=" ">
<path fill="none" stroke="#63b8ff" d="M339.49,-156.83C351.76,-161.4 364.66,-166.21 376.39,-170.59"/>
<polygon fill="#63b8ff" stroke="#63b8ff" points="340.94,-153.63 330.35,-153.42 338.49,-160.19 340.94,-153.63"/>
</a>
</g>
</g>
<!-- Node7 -->
<g id="Node000007" class="node">
<title>Node7</title>
<g id="a_Node000007"><a xlink:href="$classtriton_1_1exceptions_1_1SymbolicEngine.html" xlink:title="The exception class used by the symbolic engine.">
<polygon fill="white" stroke="#666666" points="465.62,-152.5 373.12,-152.5 373.12,-122 465.62,-122 465.62,-152.5"/>
<text text-anchor="start" x="381.12" y="-139" font-family="Helvetica,sans-Serif" font-size="10.00">triton::exceptions</text>
<text text-anchor="middle" x="419.38" y="-127.75" font-family="Helvetica,sans-Serif" font-size="10.00">::SymbolicEngine</text>
</a>
</g>
</g>
<!-- Node1&#45;&gt;Node7 -->
<g id="edge6_Node000001_Node000007" class="edge">
<title>Node1&#45;&gt;Node7</title>
<g id="a_edge6_Node000001_Node000007"><a xlink:title=" ">
<path fill="none" stroke="#63b8ff" d="M343.25,-137.25C353.13,-137.25 363.3,-137.25 372.84,-137.25"/>
<polygon fill="#63b8ff" stroke="#63b8ff" points="343.36,-133.75 333.36,-137.25 343.36,-140.75 343.36,-133.75"/>
</a>
</g>
</g>
<!-- Node13 -->
<g id="Node000013" class="node">
<title>Node13</title>
<g id="a_Node000013"><a xlink:href="$classtriton_1_1exceptions_1_1SynthesizerEngine.html" xlink:title="The exception class used by the synthesizer engine.">
<polygon fill="white" stroke="#666666" points="471.25,-103.5 367.5,-103.5 367.5,-73 471.25,-73 471.25,-103.5"/>
<text text-anchor="start" x="375.5" y="-90" font-family="Helvetica,sans-Serif" font-size="10.00">triton::exceptions</text>
<text text-anchor="middle" x="419.38" y="-78.75" font-family="Helvetica,sans-Serif" font-size="10.00">::SynthesizerEngine</text>
</a>
</g>
</g>
<!-- Node1&#45;&gt;Node13 -->
<g id="edge12_Node000001_Node000013" class="edge">
<title>Node1&#45;&gt;Node13</title>
<g id="a_edge12_Node000001_Node000013"><a xlink:title=" ">
<path fill="none" stroke="#63b8ff" d="M339.49,-117.67C351.76,-113.1 364.66,-108.29 376.39,-103.91"/>
<polygon fill="#63b8ff" stroke="#63b8ff" points="338.49,-114.31 330.35,-121.08 340.94,-120.87 338.49,-114.31"/>
</a>
</g>
</g>
<!-- Node14 -->
<g id="Node000014" class="node">
<title>Node14</title>
<g id="a_Node000014"><a xlink:href="$classtriton_1_1exceptions_1_1TaintEngine.html" xlink:title="The exception class used by the taint engine.">
<polygon fill="white" stroke="#666666" points="464.88,-54.5 373.88,-54.5 373.88,-24 464.88,-24 464.88,-54.5"/>
<text text-anchor="start" x="381.88" y="-41" font-family="Helvetica,sans-Serif" font-size="10.00">triton::exceptions</text>
<text text-anchor="middle" x="419.38" y="-29.75" font-family="Helvetica,sans-Serif" font-size="10.00">::TaintEngine</text>
</a>
</g>
</g>
<!-- Node1&#45;&gt;Node14 -->
<g id="edge13_Node000001_Node000014" class="edge">
<title>Node1&#45;&gt;Node14</title>
<g id="a_edge13_Node000001_Node000014"><a xlink:title=" ">
<path fill="none" stroke="#63b8ff" d="M309.54,-113.62C324.93,-98.32 346.3,-78.65 367.5,-64.25 372.38,-60.93 377.77,-57.8 383.16,-54.94"/>
<polygon fill="#63b8ff" stroke="#63b8ff" points="307.25,-110.96 302.71,-120.53 312.23,-115.88 307.25,-110.96"/>
</a>
</g>
</g>
<!-- Node2 -->
<g id="Node000002" class="node">
<title>Node2</title>
<g id="a_Node000002"><a xlink:href="$classtriton_1_1exceptions_1_1Exception.html" xlink:title="The root class of all exceptions.">
<polygon fill="white" stroke="#666666" points="204.5,-152.5 113.5,-152.5 113.5,-122 204.5,-122 204.5,-152.5"/>
<text text-anchor="start" x="121.5" y="-139" font-family="Helvetica,sans-Serif" font-size="10.00">triton::exceptions</text>
<text text-anchor="middle" x="159" y="-127.75" font-family="Helvetica,sans-Serif" font-size="10.00">::Exception</text>
</a>
</g>
</g>
<!-- Node2&#45;&gt;Node1 -->
<g id="edge1_Node000001_Node000002" class="edge">
<title>Node2&#45;&gt;Node1</title>
<g id="a_edge1_Node000001_Node000002"><a xlink:title=" ">
<path fill="none" stroke="#63b8ff" d="M216.03,-137.25C224.09,-137.25 232.31,-137.25 240.12,-137.25"/>
<polygon fill="#63b8ff" stroke="#63b8ff" points="216.29,-133.75 206.29,-137.25 216.29,-140.75 216.29,-133.75"/>
</a>
</g>
</g>
<!-- Node3 -->
<g id="Node000003" class="node">
<title>Node3</title>
<g id="a_Node000003"><a xlink:title=" ">
<polygon fill="white" stroke="#bfbfbf" points="77.5,-146.88 0,-146.88 0,-127.62 77.5,-127.62 77.5,-146.88"/>
<text text-anchor="middle" x="38.75" y="-133.38" font-family="Helvetica,sans-Serif" font-size="10.00">std::exception</text>
</a>
</g>
</g>
<!-- Node3&#45;&gt;Node2 -->
<g id="edge2_Node000002_Node000003" class="edge">
<title>Node3&#45;&gt;Node2</title>
<g id="a_edge2_Node000002_Node000003"><a xlink:title=" ">
<path fill="none" stroke="#63b8ff" d="M89.29,-137.25C97.3,-137.25 105.54,-137.25 113.41,-137.25"/>
<polygon fill="#63b8ff" stroke="#63b8ff" points="89.33,-133.75 79.33,-137.25 89.33,-140.75 89.33,-133.75"/>
</a>
</g>
</g>
<!-- Node6 -->
<g id="Node000006" class="node">
<title>Node6</title>
<g id="a_Node000006"><a xlink:href="$classtriton_1_1exceptions_1_1SolverModel.html" xlink:title="The exception class used by solver models.">
<polygon fill="white" stroke="#666666" points="613.25,-275.5 522.25,-275.5 522.25,-245 613.25,-245 613.25,-275.5"/>
<text text-anchor="start" x="530.25" y="-262" font-family="Helvetica,sans-Serif" font-size="10.00">triton::exceptions</text>
<text text-anchor="middle" x="567.75" y="-250.75" font-family="Helvetica,sans-Serif" font-size="10.00">::SolverModel</text>
</a>
</g>
</g>
<!-- Node5&#45;&gt;Node6 -->
<g id="edge5_Node000005_Node000006" class="edge">
<title>Node5&#45;&gt;Node6</title>
<g id="a_edge5_Node000005_Node000006"><a xlink:title=" ">
<path fill="none" stroke="#63b8ff" d="M463.76,-207.08C466.31,-208.46 468.82,-209.85 471.25,-211.25 487.92,-220.84 490.31,-226.15 507.25,-235.25 513.37,-238.54 520.02,-241.7 526.57,-244.6"/>
<polygon fill="#63b8ff" stroke="#63b8ff" points="465.65,-204.12 455.16,-202.6 462.41,-210.33 465.65,-204.12"/>
</a>
</g>
</g>
<!-- Node8 -->
<g id="Node000008" class="node">
<title>Node8</title>
<g id="a_Node000008"><a xlink:href="$classtriton_1_1exceptions_1_1PathConstraint.html" xlink:title="The exception class used by path constraints.">
<polygon fill="white" stroke="#666666" points="613.25,-226.5 522.25,-226.5 522.25,-196 613.25,-196 613.25,-226.5"/>
<text text-anchor="start" x="530.25" y="-213" font-family="Helvetica,sans-Serif" font-size="10.00">triton::exceptions</text>
<text text-anchor="middle" x="567.75" y="-201.75" font-family="Helvetica,sans-Serif" font-size="10.00">::PathConstraint</text>
</a>
</g>
</g>
<!-- Node7&#45;&gt;Node8 -->
<g id="edge7_Node000007_Node000008" class="edge">
<title>Node7&#45;&gt;Node8</title>
<g id="a_edge7_Node000007_Node000008"><a xlink:title=" ">
<path fill="none" stroke="#63b8ff" d="M463.76,-158.08C466.31,-159.46 468.82,-160.85 471.25,-162.25 487.92,-171.84 490.31,-177.15 507.25,-186.25 513.37,-189.54 520.02,-192.7 526.57,-195.6"/>
<polygon fill="#63b8ff" stroke="#63b8ff" points="465.65,-155.12 455.16,-153.6 462.41,-161.33 465.65,-155.12"/>
</a>
</g>
</g>
<!-- Node9 -->
<g id="Node000009" class="node">
<title>Node9</title>
<g id="a_Node000009"><a xlink:href="$classtriton_1_1exceptions_1_1PathManager.html" xlink:title="The exception class used by the path manager.">
<polygon fill="white" stroke="#666666" points="613.25,-177.5 522.25,-177.5 522.25,-147 613.25,-147 613.25,-177.5"/>
<text text-anchor="start" x="530.25" y="-164" font-family="Helvetica,sans-Serif" font-size="10.00">triton::exceptions</text>
<text text-anchor="middle" x="567.75" y="-152.75" font-family="Helvetica,sans-Serif" font-size="10.00">::PathManager</text>
</a>
</g>
</g>
<!-- Node7&#45;&gt;Node9 -->
<g id="edge8_Node000007_Node000009" class="edge">
<title>Node7&#45;&gt;Node9</title>
<g id="a_edge8_Node000007_Node000009"><a xlink:title=" ">
<path fill="none" stroke="#63b8ff" d="M477,-146.92C491.84,-149.46 507.63,-152.15 521.77,-154.57"/>
<polygon fill="#63b8ff" stroke="#63b8ff" points="477.83,-143.51 467.38,-145.28 476.65,-150.41 477.83,-143.51"/>
</a>
</g>
</g>
<!-- Node10 -->
<g id="Node000010" class="node">
<title>Node10</title>
<g id="a_Node000010"><a xlink:href="$classtriton_1_1exceptions_1_1SymbolicExpression.html" xlink:title="The exception class used by symbolic expressions.">
<polygon fill="white" stroke="#666666" points="623.38,-128.5 512.12,-128.5 512.12,-98 623.38,-98 623.38,-128.5"/>
<text text-anchor="start" x="520.12" y="-115" font-family="Helvetica,sans-Serif" font-size="10.00">triton::exceptions</text>
<text text-anchor="middle" x="567.75" y="-103.75" font-family="Helvetica,sans-Serif" font-size="10.00">::SymbolicExpression</text>
</a>
</g>
</g>
<!-- Node7&#45;&gt;Node10 -->
<g id="edge9_Node000007_Node000010" class="edge">
<title>Node7&#45;&gt;Node10</title>
<g id="a_edge9_Node000007_Node000010"><a xlink:title=" ">
<path fill="none" stroke="#63b8ff" d="M477.05,-127.96C488.45,-126.09 500.41,-124.13 511.75,-122.27"/>
<polygon fill="#63b8ff" stroke="#63b8ff" points="476.68,-124.47 467.38,-129.54 477.81,-131.38 476.68,-124.47"/>
</a>
</g>
</g>
<!-- Node11 -->
<g id="Node000011" class="node">
<title>Node11</title>
<g id="a_Node000011"><a xlink:href="$classtriton_1_1exceptions_1_1SymbolicSimplification.html" xlink:title="The exception class used by symbolic simplifications.">
<polygon fill="white" stroke="#666666" points="628.25,-79.5 507.25,-79.5 507.25,-49 628.25,-49 628.25,-79.5"/>
<text text-anchor="start" x="515.25" y="-66" font-family="Helvetica,sans-Serif" font-size="10.00">triton::exceptions</text>
<text text-anchor="middle" x="567.75" y="-54.75" font-family="Helvetica,sans-Serif" font-size="10.00">::SymbolicSimplification</text>
</a>
</g>
</g>
<!-- Node7&#45;&gt;Node11 -->
<g id="edge10_Node000007_Node000011" class="edge">
<title>Node7&#45;&gt;Node11</title>
<g id="a_edge10_Node000007_Node000011"><a xlink:title=" ">
<path fill="none" stroke="#63b8ff" d="M463.72,-116.36C466.29,-115 468.81,-113.62 471.25,-112.25 487.8,-102.94 490.44,-98.07 507.25,-89.25 513.5,-85.97 520.28,-82.79 526.95,-79.86"/>
<polygon fill="#63b8ff" stroke="#63b8ff" points="462.39,-113.11 455.11,-120.81 465.6,-119.33 462.39,-113.11"/>
</a>
</g>
</g>
<!-- Node12 -->
<g id="Node000012" class="node">
<title>Node12</title>
<g id="a_Node000012"><a xlink:href="$classtriton_1_1exceptions_1_1SymbolicVariable.html" xlink:title="The exception class used by symbolic variables.">
<polygon fill="white" stroke="#666666" points="616.25,-30.5 519.25,-30.5 519.25,0 616.25,0 616.25,-30.5"/>
<text text-anchor="start" x="527.25" y="-17" font-family="Helvetica,sans-Serif" font-size="10.00">triton::exceptions</text>
<text text-anchor="middle" x="567.75" y="-5.75" font-family="Helvetica,sans-Serif" font-size="10.00">::SymbolicVariable</text>
</a>
</g>
</g>
<!-- Node7&#45;&gt;Node12 -->
<g id="edge11_Node000007_Node000012" class="edge">
<title>Node7&#45;&gt;Node12</title>
<g id="a_edge11_Node000007_Node000012"><a xlink:title=" ">
<path fill="none" stroke="#63b8ff" d="M468.11,-115.14C469.2,-114.21 470.25,-113.24 471.25,-112.25 496.64,-87.04 481.13,-64.7 507.25,-40.25 511.09,-36.65 515.53,-33.53 520.22,-30.83"/>
<polygon fill="#63b8ff" stroke="#63b8ff" points="466.41,-112.04 460.37,-120.75 470.52,-117.71 466.41,-112.04"/>
</a>
</g>
</g>
</g>
</svg>
