<?xml version="1.0" encoding="UTF-8" standalone="no"?>
<!DOCTYPE svg PUBLIC "-//W3C//DTD SVG 1.1//EN"
 "http://www.w3.org/Graphics/SVG/1.1/DTD/svg11.dtd">
<!-- Generated by graphviz version 11.0.0 (20240428.1522)
 -->
<!-- Title: triton::arch::x86::x8664Cpu Pages: 1 -->
<svg width="244pt" height="105pt"
 viewBox="0.00 0.00 244.00 105.00" xmlns="http://www.w3.org/2000/svg" xmlns:xlink="http://www.w3.org/1999/xlink">
<g id="graph0" class="graph" transform="scale(1 1) rotate(0) translate(4 101)">
<title>triton::arch::x86::x8664Cpu</title>
<!-- Node1 -->
<g id="Node000001" class="node">
<title>Node1</title>
<g id="a_Node000001"><a xlink:title="This class is used to describe the x86 (64&#45;bits) spec.">
<polygon fill="#999999" stroke="#666666" points="170.5,-30.5 80.25,-30.5 80.25,0 170.5,0 170.5,-30.5"/>
<text text-anchor="start" x="88.25" y="-17" font-family="Helvetica,sans-Serif" font-size="10.00">triton::arch::x86::</text>
<text text-anchor="middle" x="125.38" y="-5.75" font-family="Helvetica,sans-Serif" font-size="10.00">x8664Cpu</text>
</a>
</g>
</g>
<!-- Node2 -->
<g id="Node000002" class="node">
<title>Node2</title>
<g id="a_Node000002"><a xlink:href="classtriton_1_1arch_1_1CpuInterface.html" target="_top" xlink:title="This interface is used as abstract CPU interface. All CPU must use this interface.">
<polygon fill="white" stroke="#666666" points="124.75,-91.38 0,-91.38 0,-72.12 124.75,-72.12 124.75,-91.38"/>
<text text-anchor="middle" x="62.38" y="-77.88" font-family="Helvetica,sans-Serif" font-size="10.00">triton::arch::CpuInterface</text>
</a>
</g>
</g>
<!-- Node2&#45;&gt;Node1 -->
<g id="edge1_Node000001_Node000002" class="edge">
<title>Node2&#45;&gt;Node1</title>
<g id="a_edge1_Node000001_Node000002"><a xlink:title=" ">
<path fill="none" stroke="#63b8ff" d="M79.16,-63.56C89.22,-53.27 101.85,-40.34 111.36,-30.59"/>
<polygon fill="#63b8ff" stroke="#63b8ff" points="76.68,-61.1 72.19,-70.7 81.68,-65.99 76.68,-61.1"/>
</a>
</g>
</g>
<!-- Node3 -->
<g id="Node000003" class="node">
<title>Node3</title>
<g id="a_Node000003"><a xlink:href="classtriton_1_1arch_1_1x86_1_1x86Specifications.html" target="_top" xlink:title="The x86Specifications class defines specifications about the x86 and x86_64 CPU.">
<polygon fill="white" stroke="#666666" points="236,-97 142.75,-97 142.75,-66.5 236,-66.5 236,-97"/>
<text text-anchor="start" x="150.75" y="-83.5" font-family="Helvetica,sans-Serif" font-size="10.00">triton::arch::x86::</text>
<text text-anchor="middle" x="189.38" y="-72.25" font-family="Helvetica,sans-Serif" font-size="10.00">x86Specifications</text>
</a>
</g>
</g>
<!-- Node3&#45;&gt;Node1 -->
<g id="edge2_Node000001_Node000003" class="edge">
<title>Node3&#45;&gt;Node1</title>
<g id="a_edge2_Node000001_Node000003"><a xlink:title=" ">
<path fill="none" stroke="#63b8ff" d="M166.99,-58.19C157.98,-49.11 147.85,-38.9 139.84,-30.83"/>
<polygon fill="#63b8ff" stroke="#63b8ff" points="164.26,-60.41 173.79,-65.04 169.23,-55.48 164.26,-60.41"/>
</a>
</g>
</g>
</g>
</svg>
