<?xml version="1.0" encoding="UTF-8" standalone="no"?>
<!DOCTYPE svg PUBLIC "-//W3C//DTD SVG 1.1//EN"
 "http://www.w3.org/Graphics/SVG/1.1/DTD/svg11.dtd">
<!-- Generated by graphviz version 2.49.0 (20210828.1703)
 -->
<!-- Title: triton::arch::Register Pages: 1 -->
<svg width="280pt" height="95pt"
 viewBox="0.00 0.00 279.50 95.00" xmlns="http://www.w3.org/2000/svg" xmlns:xlink="http://www.w3.org/1999/xlink">
<g id="graph0" class="graph" transform="scale(1 1) rotate(0) translate(4 91)">
<title>triton::arch::Register</title>
<polygon fill="white" stroke="transparent" points="-4,4 -4,-91 275.5,-91 275.5,4 -4,4"/>
<!-- Node1 -->
<g id="node1" class="node">
<title>Node1</title>
<g id="a_node1"><a xlink:title="This class is used when an instruction has a register operand.">
<polygon fill="#bfbfbf" stroke="black" points="76.5,-0.5 76.5,-19.5 192.5,-19.5 192.5,-0.5 76.5,-0.5"/>
<text text-anchor="middle" x="134.5" y="-7.5" font-family="Helvetica,sans-Serif" font-size="10.00">triton::arch::Register</text>
</a>
</g>
</g>
<!-- Node2 -->
<g id="node2" class="node">
<title>Node2</title>
<g id="a_node2"><a xlink:href="classtriton_1_1arch_1_1BitsVector.html" target="_top" xlink:title="This class is used to deal with registers and memory as bits vector.">
<polygon fill="white" stroke="black" points="0,-62 0,-81 125,-81 125,-62 0,-62"/>
<text text-anchor="middle" x="62.5" y="-69" font-family="Helvetica,sans-Serif" font-size="10.00">triton::arch::BitsVector</text>
</a>
</g>
</g>
<!-- Node2&#45;&gt;Node1 -->
<g id="edge1" class="edge">
<title>Node2&#45;&gt;Node1</title>
<path fill="none" stroke="midnightblue" d="M80.68,-55.47C94.46,-44.09 112.88,-28.87 124.2,-19.51"/>
<polygon fill="midnightblue" stroke="midnightblue" points="78.29,-52.91 72.82,-61.98 82.75,-58.3 78.29,-52.91"/>
</g>
<!-- Node3 -->
<g id="node3" class="node">
<title>Node3</title>
<g id="a_node3"><a xlink:href="classtriton_1_1arch_1_1arm_1_1ArmOperandProperties.html" target="_top" xlink:title="This class is used to represent specific properties of an Arm operand.">
<polygon fill="white" stroke="black" points="143.5,-56.5 143.5,-86.5 271.5,-86.5 271.5,-56.5 143.5,-56.5"/>
<text text-anchor="start" x="151.5" y="-74.5" font-family="Helvetica,sans-Serif" font-size="10.00">triton::arch::arm::</text>
<text text-anchor="middle" x="207.5" y="-63.5" font-family="Helvetica,sans-Serif" font-size="10.00">ArmOperandProperties</text>
</a>
</g>
</g>
<!-- Node3&#45;&gt;Node1 -->
<g id="edge2" class="edge">
<title>Node3&#45;&gt;Node1</title>
<path fill="none" stroke="midnightblue" d="M182.22,-49.89C169.52,-39.54 154.81,-27.56 145.12,-19.66"/>
<polygon fill="midnightblue" stroke="midnightblue" points="180.24,-52.79 190.2,-56.4 184.66,-47.37 180.24,-52.79"/>
</g>
</g>
</svg>
