<?xml version="1.0" encoding="UTF-8" standalone="no"?>
<!DOCTYPE svg PUBLIC "-//W3C//DTD SVG 1.1//EN"
 "http://www.w3.org/Graphics/SVG/1.1/DTD/svg11.dtd">
<!-- Generated by graphviz version 2.50.0 (20211204.2007)
 -->
<!-- Title: triton::exceptions::Exception Pages: 1 -->
<svg width="752pt" height="886pt"
 viewBox="0.00 0.00 752.00 886.00" xmlns="http://www.w3.org/2000/svg" xmlns:xlink="http://www.w3.org/1999/xlink">
<g id="graph0" class="graph" transform="scale(1 1) rotate(0) translate(4 882)">
<title>triton::exceptions::Exception</title>
<polygon fill="white" stroke="transparent" points="-4,4 -4,-882 748,-882 748,4 -4,4"/>
<!-- Node1 -->
<g id="node1" class="node">
<title>Node1</title>
<g id="a_node1"><a xlink:title="The root class of all exceptions.">
<polygon fill="#bfbfbf" stroke="black" points="122,-222.5 122,-252.5 224,-252.5 224,-222.5 122,-222.5"/>
<text text-anchor="start" x="130" y="-240.5" font-family="Helvetica,sans-Serif" font-size="10.00">triton::exceptions</text>
<text text-anchor="middle" x="173" y="-229.5" font-family="Helvetica,sans-Serif" font-size="10.00">::Exception</text>
</a>
</g>
</g>
<!-- Node3 -->
<g id="node3" class="node">
<title>Node3</title>
<g id="a_node3"><a xlink:href="classtriton_1_1exceptions_1_1Architecture.html" target="_top" xlink:title="The exception class used by architectures.">
<polygon fill="white" stroke="black" points="271,-587.5 271,-617.5 373,-617.5 373,-587.5 271,-587.5"/>
<text text-anchor="start" x="279" y="-605.5" font-family="Helvetica,sans-Serif" font-size="10.00">triton::exceptions</text>
<text text-anchor="middle" x="322" y="-594.5" font-family="Helvetica,sans-Serif" font-size="10.00">::Architecture</text>
</a>
</g>
</g>
<!-- Node1&#45;&gt;Node3 -->
<g id="edge2" class="edge">
<title>Node1&#45;&gt;Node3</title>
<path fill="none" stroke="midnightblue" d="M183.89,-262.07C212.04,-331.96 292.01,-530.53 314.84,-587.22"/>
<polygon fill="midnightblue" stroke="midnightblue" points="187.11,-260.69 180.13,-252.72 180.62,-263.3 187.11,-260.69"/>
</g>
<!-- Node17 -->
<g id="node17" class="node">
<title>Node17</title>
<g id="a_node17"><a xlink:href="classtriton_1_1exceptions_1_1Ast.html" target="_top" xlink:title="The exception class used by all AST nodes.">
<polygon fill="white" stroke="black" points="260,-321 260,-340 384,-340 384,-321 260,-321"/>
<text text-anchor="middle" x="322" y="-328" font-family="Helvetica,sans-Serif" font-size="10.00">triton::exceptions::Ast</text>
</a>
</g>
</g>
<!-- Node1&#45;&gt;Node17 -->
<g id="edge16" class="edge">
<title>Node1&#45;&gt;Node17</title>
<path fill="none" stroke="midnightblue" d="M195.2,-260.16C211.53,-276.46 235.43,-297.87 260,-311.5 266.79,-315.26 274.43,-318.39 281.94,-320.95"/>
<polygon fill="midnightblue" stroke="midnightblue" points="197.31,-257.32 187.81,-252.63 192.31,-262.22 197.31,-257.32"/>
</g>
<!-- Node20 -->
<g id="node20" class="node">
<title>Node20</title>
<g id="a_node20"><a xlink:href="classtriton_1_1exceptions_1_1Bindings.html" target="_top" xlink:title="The exception class used by bindings.">
<polygon fill="white" stroke="black" points="271,-271.5 271,-301.5 373,-301.5 373,-271.5 271,-271.5"/>
<text text-anchor="start" x="279" y="-289.5" font-family="Helvetica,sans-Serif" font-size="10.00">triton::exceptions</text>
<text text-anchor="middle" x="322" y="-278.5" font-family="Helvetica,sans-Serif" font-size="10.00">::Bindings</text>
</a>
</g>
</g>
<!-- Node1&#45;&gt;Node20 -->
<g id="edge19" class="edge">
<title>Node1&#45;&gt;Node20</title>
<path fill="none" stroke="midnightblue" d="M229.22,-255.91C244.6,-261.03 261.12,-266.54 275.85,-271.45"/>
<polygon fill="midnightblue" stroke="midnightblue" points="229.9,-252.44 219.3,-252.6 227.68,-259.08 229.9,-252.44"/>
</g>
<!-- Node21 -->
<g id="node21" class="node">
<title>Node21</title>
<g id="a_node21"><a xlink:href="classtriton_1_1exceptions_1_1Callbacks.html" target="_top" xlink:title="The exception class used by callbacks.">
<polygon fill="white" stroke="black" points="271,-222.5 271,-252.5 373,-252.5 373,-222.5 271,-222.5"/>
<text text-anchor="start" x="279" y="-240.5" font-family="Helvetica,sans-Serif" font-size="10.00">triton::exceptions</text>
<text text-anchor="middle" x="322" y="-229.5" font-family="Helvetica,sans-Serif" font-size="10.00">::Callbacks</text>
</a>
</g>
</g>
<!-- Node1&#45;&gt;Node21 -->
<g id="edge20" class="edge">
<title>Node1&#45;&gt;Node21</title>
<path fill="none" stroke="midnightblue" d="M234.18,-237.5C246.26,-237.5 258.84,-237.5 270.55,-237.5"/>
<polygon fill="midnightblue" stroke="midnightblue" points="234.18,-234 224.18,-237.5 234.18,-241 234.18,-234"/>
</g>
<!-- Node22 -->
<g id="node22" class="node">
<title>Node22</title>
<g id="a_node22"><a xlink:href="classtriton_1_1exceptions_1_1Context.html" target="_top" xlink:title="The exception class used by the Triton&#39;s Context.">
<polygon fill="white" stroke="black" points="271,-173.5 271,-203.5 373,-203.5 373,-173.5 271,-173.5"/>
<text text-anchor="start" x="279" y="-191.5" font-family="Helvetica,sans-Serif" font-size="10.00">triton::exceptions</text>
<text text-anchor="middle" x="322" y="-180.5" font-family="Helvetica,sans-Serif" font-size="10.00">::Context</text>
</a>
</g>
</g>
<!-- Node1&#45;&gt;Node22 -->
<g id="edge21" class="edge">
<title>Node1&#45;&gt;Node22</title>
<path fill="none" stroke="midnightblue" d="M229.22,-219.09C244.6,-213.97 261.12,-208.46 275.85,-203.55"/>
<polygon fill="midnightblue" stroke="midnightblue" points="227.68,-215.92 219.3,-222.4 229.9,-222.56 227.68,-215.92"/>
</g>
<!-- Node23 -->
<g id="node23" class="node">
<title>Node23</title>
<g id="a_node23"><a xlink:href="classtriton_1_1exceptions_1_1Engines.html" target="_top" xlink:title="The exception class used by all engines.">
<polygon fill="white" stroke="black" points="271,-124.5 271,-154.5 373,-154.5 373,-124.5 271,-124.5"/>
<text text-anchor="start" x="279" y="-142.5" font-family="Helvetica,sans-Serif" font-size="10.00">triton::exceptions</text>
<text text-anchor="middle" x="322" y="-131.5" font-family="Helvetica,sans-Serif" font-size="10.00">::Engines</text>
</a>
</g>
</g>
<!-- Node1&#45;&gt;Node23 -->
<g id="edge22" class="edge">
<title>Node1&#45;&gt;Node23</title>
<path fill="none" stroke="midnightblue" d="M195.8,-215.07C212.28,-199.07 236.08,-177.92 260,-163.5 265.46,-160.21 271.45,-157.21 277.47,-154.53"/>
<polygon fill="midnightblue" stroke="midnightblue" points="192.97,-212.94 188.32,-222.46 197.9,-217.92 192.97,-212.94"/>
</g>
<!-- Node35 -->
<g id="node35" class="node">
<title>Node35</title>
<g id="a_node35"><a xlink:href="classtriton_1_1exceptions_1_1PyCallbacks.html" target="_top" xlink:title=" ">
<polygon fill="white" stroke="#bfbfbf" points="271,-75.5 271,-105.5 373,-105.5 373,-75.5 271,-75.5"/>
<text text-anchor="start" x="279" y="-93.5" font-family="Helvetica,sans-Serif" font-size="10.00">triton::exceptions</text>
<text text-anchor="middle" x="322" y="-82.5" font-family="Helvetica,sans-Serif" font-size="10.00">::PyCallbacks</text>
</a>
</g>
</g>
<!-- Node1&#45;&gt;Node35 -->
<g id="edge34" class="edge">
<title>Node1&#45;&gt;Node35</title>
<path fill="none" stroke="midnightblue" d="M185.46,-213.22C199.51,-185.81 225.74,-141.51 260,-114.5 264.29,-111.12 269.11,-108.16 274.12,-105.59"/>
<polygon fill="midnightblue" stroke="midnightblue" points="182.16,-211.98 180.84,-222.5 188.43,-215.1 182.16,-211.98"/>
</g>
<!-- Node2 -->
<g id="node2" class="node">
<title>Node2</title>
<g id="a_node2"><a xlink:title=" ">
<polygon fill="white" stroke="#bfbfbf" points="0,-228 0,-247 86,-247 86,-228 0,-228"/>
<text text-anchor="middle" x="43" y="-235" font-family="Helvetica,sans-Serif" font-size="10.00">std::exception</text>
</a>
</g>
</g>
<!-- Node2&#45;&gt;Node1 -->
<g id="edge1" class="edge">
<title>Node2&#45;&gt;Node1</title>
<path fill="none" stroke="midnightblue" d="M96.34,-237.5C104.74,-237.5 113.42,-237.5 121.77,-237.5"/>
<polygon fill="midnightblue" stroke="midnightblue" points="96.27,-234 86.27,-237.5 96.27,-241 96.27,-234"/>
</g>
<!-- Node4 -->
<g id="node4" class="node">
<title>Node4</title>
<g id="a_node4"><a xlink:href="classtriton_1_1exceptions_1_1AArch64OperandProperties.html" target="_top" xlink:title="The exception class used by shift mode.">
<polygon fill="white" stroke="black" points="420,-847.5 420,-877.5 574,-877.5 574,-847.5 420,-847.5"/>
<text text-anchor="start" x="428" y="-865.5" font-family="Helvetica,sans-Serif" font-size="10.00">triton::exceptions</text>
<text text-anchor="middle" x="497" y="-854.5" font-family="Helvetica,sans-Serif" font-size="10.00">::AArch64OperandProperties</text>
</a>
</g>
</g>
<!-- Node3&#45;&gt;Node4 -->
<g id="edge3" class="edge">
<title>Node3&#45;&gt;Node4</title>
<path fill="none" stroke="midnightblue" d="M326.3,-627.85C333.9,-675.92 357.07,-780.65 420,-838.5 423.77,-841.96 428.04,-844.93 432.58,-847.47"/>
<polygon fill="midnightblue" stroke="midnightblue" points="329.72,-627.08 324.8,-617.7 322.8,-628.11 329.72,-627.08"/>
</g>
<!-- Node5 -->
<g id="node5" class="node">
<title>Node5</title>
<g id="a_node5"><a xlink:href="classtriton_1_1exceptions_1_1ArmOperandProperties.html" target="_top" xlink:title="The exception class used by shift mode.">
<polygon fill="white" stroke="black" points="430,-798.5 430,-828.5 564,-828.5 564,-798.5 430,-798.5"/>
<text text-anchor="start" x="438" y="-816.5" font-family="Helvetica,sans-Serif" font-size="10.00">triton::exceptions</text>
<text text-anchor="middle" x="497" y="-805.5" font-family="Helvetica,sans-Serif" font-size="10.00">::ArmOperandProperties</text>
</a>
</g>
</g>
<!-- Node3&#45;&gt;Node5 -->
<g id="edge4" class="edge">
<title>Node3&#45;&gt;Node5</title>
<path fill="none" stroke="midnightblue" d="M329.22,-627.35C340.49,-667.33 368.09,-745.86 420,-789.5 424.13,-792.97 428.77,-795.94 433.66,-798.49"/>
<polygon fill="midnightblue" stroke="midnightblue" points="332.57,-626.34 326.58,-617.61 325.81,-628.17 332.57,-626.34"/>
</g>
<!-- Node6 -->
<g id="node6" class="node">
<title>Node6</title>
<g id="a_node6"><a xlink:href="classtriton_1_1exceptions_1_1BasicBlock.html" target="_top" xlink:title="The exception class used by a basic block.">
<polygon fill="white" stroke="black" points="446,-749.5 446,-779.5 548,-779.5 548,-749.5 446,-749.5"/>
<text text-anchor="start" x="454" y="-767.5" font-family="Helvetica,sans-Serif" font-size="10.00">triton::exceptions</text>
<text text-anchor="middle" x="497" y="-756.5" font-family="Helvetica,sans-Serif" font-size="10.00">::BasicBlock</text>
</a>
</g>
</g>
<!-- Node3&#45;&gt;Node6 -->
<g id="edge5" class="edge">
<title>Node3&#45;&gt;Node6</title>
<path fill="none" stroke="midnightblue" d="M334.02,-627.04C349.11,-657.92 379.06,-710.53 420,-740.5 427.7,-746.14 436.78,-750.48 445.92,-753.82"/>
<polygon fill="midnightblue" stroke="midnightblue" points="337.1,-625.37 329.65,-617.83 330.78,-628.37 337.1,-625.37"/>
</g>
<!-- Node7 -->
<g id="node7" class="node">
<title>Node7</title>
<g id="a_node7"><a xlink:href="classtriton_1_1exceptions_1_1BitsVector.html" target="_top" xlink:title="The exception class used by bitvectors.">
<polygon fill="white" stroke="black" points="446,-700.5 446,-730.5 548,-730.5 548,-700.5 446,-700.5"/>
<text text-anchor="start" x="454" y="-718.5" font-family="Helvetica,sans-Serif" font-size="10.00">triton::exceptions</text>
<text text-anchor="middle" x="497" y="-707.5" font-family="Helvetica,sans-Serif" font-size="10.00">::BitsVector</text>
</a>
</g>
</g>
<!-- Node3&#45;&gt;Node7 -->
<g id="edge6" class="edge">
<title>Node3&#45;&gt;Node7</title>
<path fill="none" stroke="midnightblue" d="M342.9,-625.3C361.19,-645.01 389.95,-673 420,-690.5 427.92,-695.11 436.81,-699.01 445.64,-702.25"/>
<polygon fill="midnightblue" stroke="midnightblue" points="345.28,-622.71 335.96,-617.67 340.1,-627.43 345.28,-622.71"/>
</g>
<!-- Node8 -->
<g id="node8" class="node">
<title>Node8</title>
<g id="a_node8"><a xlink:href="classtriton_1_1exceptions_1_1Cpu.html" target="_top" xlink:title="The exception class used by all CPUs.">
<polygon fill="white" stroke="black" points="433.5,-662 433.5,-681 560.5,-681 560.5,-662 433.5,-662"/>
<text text-anchor="middle" x="497" y="-669" font-family="Helvetica,sans-Serif" font-size="10.00">triton::exceptions::Cpu</text>
</a>
</g>
</g>
<!-- Node3&#45;&gt;Node8 -->
<g id="edge7" class="edge">
<title>Node3&#45;&gt;Node8</title>
<path fill="none" stroke="midnightblue" d="M357.23,-622.61C375.41,-632.65 398.41,-644.36 420,-652.5 429.67,-656.15 440.3,-659.3 450.46,-661.94"/>
<polygon fill="midnightblue" stroke="midnightblue" points="358.63,-619.38 348.2,-617.54 355.2,-625.49 358.63,-619.38"/>
</g>
<!-- Node11 -->
<g id="node11" class="node">
<title>Node11</title>
<g id="a_node11"><a xlink:href="classtriton_1_1exceptions_1_1Immediate.html" target="_top" xlink:title="The exception class used by immediates.">
<polygon fill="white" stroke="black" points="446,-612.5 446,-642.5 548,-642.5 548,-612.5 446,-612.5"/>
<text text-anchor="start" x="454" y="-630.5" font-family="Helvetica,sans-Serif" font-size="10.00">triton::exceptions</text>
<text text-anchor="middle" x="497" y="-619.5" font-family="Helvetica,sans-Serif" font-size="10.00">::Immediate</text>
</a>
</g>
</g>
<!-- Node3&#45;&gt;Node11 -->
<g id="edge10" class="edge">
<title>Node3&#45;&gt;Node11</title>
<path fill="none" stroke="midnightblue" d="M383.18,-611.2C403.61,-614.15 426.21,-617.41 445.77,-620.24"/>
<polygon fill="midnightblue" stroke="midnightblue" points="383.44,-607.7 373.04,-609.73 382.44,-614.63 383.44,-607.7"/>
</g>
<!-- Node12 -->
<g id="node12" class="node">
<title>Node12</title>
<g id="a_node12"><a xlink:href="classtriton_1_1exceptions_1_1Instruction.html" target="_top" xlink:title="The exception class used by an instruction.">
<polygon fill="white" stroke="black" points="446,-563.5 446,-593.5 548,-593.5 548,-563.5 446,-563.5"/>
<text text-anchor="start" x="454" y="-581.5" font-family="Helvetica,sans-Serif" font-size="10.00">triton::exceptions</text>
<text text-anchor="middle" x="497" y="-570.5" font-family="Helvetica,sans-Serif" font-size="10.00">::Instruction</text>
</a>
</g>
</g>
<!-- Node3&#45;&gt;Node12 -->
<g id="edge11" class="edge">
<title>Node3&#45;&gt;Node12</title>
<path fill="none" stroke="midnightblue" d="M383.18,-594.15C403.61,-591.32 426.21,-588.18 445.77,-585.47"/>
<polygon fill="midnightblue" stroke="midnightblue" points="382.46,-590.72 373.04,-595.56 383.42,-597.65 382.46,-590.72"/>
</g>
<!-- Node13 -->
<g id="node13" class="node">
<title>Node13</title>
<g id="a_node13"><a xlink:href="classtriton_1_1exceptions_1_1IrBuilder.html" target="_top" xlink:title="The exception class used by the IR builder.">
<polygon fill="white" stroke="black" points="446,-514.5 446,-544.5 548,-544.5 548,-514.5 446,-514.5"/>
<text text-anchor="start" x="454" y="-532.5" font-family="Helvetica,sans-Serif" font-size="10.00">triton::exceptions</text>
<text text-anchor="middle" x="497" y="-521.5" font-family="Helvetica,sans-Serif" font-size="10.00">::IrBuilder</text>
</a>
</g>
</g>
<!-- Node3&#45;&gt;Node13 -->
<g id="edge12" class="edge">
<title>Node3&#45;&gt;Node13</title>
<path fill="none" stroke="midnightblue" d="M359.9,-582.7C377.77,-573.51 399.71,-562.81 420,-554.5 428.48,-551.03 437.64,-547.68 446.57,-544.63"/>
<polygon fill="midnightblue" stroke="midnightblue" points="358.21,-579.63 350.95,-587.35 361.44,-585.85 358.21,-579.63"/>
</g>
<!-- Node14 -->
<g id="node14" class="node">
<title>Node14</title>
<g id="a_node14"><a xlink:href="classtriton_1_1exceptions_1_1MemoryAccess.html" target="_top" xlink:title="The exception class used by memory access.">
<polygon fill="white" stroke="black" points="446,-465.5 446,-495.5 548,-495.5 548,-465.5 446,-465.5"/>
<text text-anchor="start" x="454" y="-483.5" font-family="Helvetica,sans-Serif" font-size="10.00">triton::exceptions</text>
<text text-anchor="middle" x="497" y="-472.5" font-family="Helvetica,sans-Serif" font-size="10.00">::MemoryAccess</text>
</a>
</g>
</g>
<!-- Node3&#45;&gt;Node14 -->
<g id="edge13" class="edge">
<title>Node3&#45;&gt;Node14</title>
<path fill="none" stroke="midnightblue" d="M340.73,-579.34C358.58,-557.48 387.99,-525.2 420,-505.5 427.93,-500.62 436.91,-496.59 445.85,-493.28"/>
<polygon fill="midnightblue" stroke="midnightblue" points="337.99,-577.16 334.47,-587.16 343.45,-581.54 337.99,-577.16"/>
</g>
<!-- Node15 -->
<g id="node15" class="node">
<title>Node15</title>
<g id="a_node15"><a xlink:href="classtriton_1_1exceptions_1_1OperandWrapper.html" target="_top" xlink:title="The exception class used by operand wrappers.">
<polygon fill="white" stroke="black" points="444.5,-416.5 444.5,-446.5 549.5,-446.5 549.5,-416.5 444.5,-416.5"/>
<text text-anchor="start" x="452.5" y="-434.5" font-family="Helvetica,sans-Serif" font-size="10.00">triton::exceptions</text>
<text text-anchor="middle" x="497" y="-423.5" font-family="Helvetica,sans-Serif" font-size="10.00">::OperandWrapper</text>
</a>
</g>
</g>
<!-- Node3&#45;&gt;Node15 -->
<g id="edge14" class="edge">
<title>Node3&#45;&gt;Node15</title>
<path fill="none" stroke="midnightblue" d="M333.06,-578.04C347.59,-545.67 377.44,-488.93 420,-456.5 427.18,-451.03 435.62,-446.72 444.2,-443.35"/>
<polygon fill="midnightblue" stroke="midnightblue" points="329.84,-576.69 329.05,-587.25 336.25,-579.48 329.84,-576.69"/>
</g>
<!-- Node16 -->
<g id="node16" class="node">
<title>Node16</title>
<g id="a_node16"><a xlink:href="classtriton_1_1exceptions_1_1Register.html" target="_top" xlink:title="The exception class used by register operands.">
<polygon fill="white" stroke="black" points="446,-367.5 446,-397.5 548,-397.5 548,-367.5 446,-367.5"/>
<text text-anchor="start" x="454" y="-385.5" font-family="Helvetica,sans-Serif" font-size="10.00">triton::exceptions</text>
<text text-anchor="middle" x="497" y="-374.5" font-family="Helvetica,sans-Serif" font-size="10.00">::Register</text>
</a>
</g>
</g>
<!-- Node3&#45;&gt;Node16 -->
<g id="edge15" class="edge">
<title>Node3&#45;&gt;Node16</title>
<path fill="none" stroke="midnightblue" d="M328.73,-577.55C339.5,-536.27 366.61,-453.71 420,-407.5 427.46,-401.05 436.62,-396.25 445.98,-392.69"/>
<polygon fill="midnightblue" stroke="midnightblue" points="325.32,-576.8 326.29,-587.35 332.11,-578.49 325.32,-576.8"/>
</g>
<!-- Node9 -->
<g id="node9" class="node">
<title>Node9</title>
<g id="a_node9"><a xlink:href="classtriton_1_1exceptions_1_1Disassembly.html" target="_top" xlink:title="The exception class used by the disassembler.">
<polygon fill="white" stroke="black" points="626,-680.5 626,-710.5 728,-710.5 728,-680.5 626,-680.5"/>
<text text-anchor="start" x="634" y="-698.5" font-family="Helvetica,sans-Serif" font-size="10.00">triton::exceptions</text>
<text text-anchor="middle" x="677" y="-687.5" font-family="Helvetica,sans-Serif" font-size="10.00">::Disassembly</text>
</a>
</g>
</g>
<!-- Node8&#45;&gt;Node9 -->
<g id="edge8" class="edge">
<title>Node8&#45;&gt;Node9</title>
<path fill="none" stroke="midnightblue" d="M570.44,-681.27C589.08,-683.78 608.73,-686.43 625.96,-688.75"/>
<polygon fill="midnightblue" stroke="midnightblue" points="570.88,-677.8 560.51,-679.93 569.95,-684.73 570.88,-677.8"/>
</g>
<!-- Node10 -->
<g id="node10" class="node">
<title>Node10</title>
<g id="a_node10"><a xlink:href="classtriton_1_1exceptions_1_1Semantics.html" target="_top" xlink:title="The exception class used by all semantics.">
<polygon fill="white" stroke="black" points="626,-631.5 626,-661.5 728,-661.5 728,-631.5 626,-631.5"/>
<text text-anchor="start" x="634" y="-649.5" font-family="Helvetica,sans-Serif" font-size="10.00">triton::exceptions</text>
<text text-anchor="middle" x="677" y="-638.5" font-family="Helvetica,sans-Serif" font-size="10.00">::Semantics</text>
</a>
</g>
</g>
<!-- Node8&#45;&gt;Node10 -->
<g id="edge9" class="edge">
<title>Node8&#45;&gt;Node10</title>
<path fill="none" stroke="midnightblue" d="M570.44,-661.33C589.08,-658.71 608.73,-655.95 625.96,-653.53"/>
<polygon fill="midnightblue" stroke="midnightblue" points="569.92,-657.86 560.51,-662.72 570.9,-664.8 569.92,-657.86"/>
</g>
<!-- Node18 -->
<g id="node18" class="node">
<title>Node18</title>
<g id="a_node18"><a xlink:href="classtriton_1_1exceptions_1_1AstLifting.html" target="_top" xlink:title="The exception class used by all AST lifting (e.g z3 &lt;&#45;&gt; triton).">
<polygon fill="white" stroke="black" points="446,-318.5 446,-348.5 548,-348.5 548,-318.5 446,-318.5"/>
<text text-anchor="start" x="454" y="-336.5" font-family="Helvetica,sans-Serif" font-size="10.00">triton::exceptions</text>
<text text-anchor="middle" x="497" y="-325.5" font-family="Helvetica,sans-Serif" font-size="10.00">::AstLifting</text>
</a>
</g>
</g>
<!-- Node17&#45;&gt;Node18 -->
<g id="edge17" class="edge">
<title>Node17&#45;&gt;Node18</title>
<path fill="none" stroke="midnightblue" d="M394.51,-331.74C411.75,-332.04 429.81,-332.35 445.83,-332.63"/>
<polygon fill="midnightblue" stroke="midnightblue" points="394.54,-328.24 384.48,-331.57 394.42,-335.24 394.54,-328.24"/>
</g>
<!-- Node19 -->
<g id="node19" class="node">
<title>Node19</title>
<g id="a_node19"><a xlink:href="classtriton_1_1exceptions_1_1AstRepresentation.html" target="_top" xlink:title="The exception class used by all AST node representations.">
<polygon fill="white" stroke="black" points="440.5,-269.5 440.5,-299.5 553.5,-299.5 553.5,-269.5 440.5,-269.5"/>
<text text-anchor="start" x="448.5" y="-287.5" font-family="Helvetica,sans-Serif" font-size="10.00">triton::exceptions</text>
<text text-anchor="middle" x="497" y="-276.5" font-family="Helvetica,sans-Serif" font-size="10.00">::AstRepresentation</text>
</a>
</g>
</g>
<!-- Node17&#45;&gt;Node19 -->
<g id="edge18" class="edge">
<title>Node17&#45;&gt;Node19</title>
<path fill="none" stroke="midnightblue" d="M368.61,-318.37C390.63,-312.52 417.25,-305.44 440.44,-299.27"/>
<polygon fill="midnightblue" stroke="midnightblue" points="367.61,-315.02 358.85,-320.97 369.41,-321.78 367.61,-315.02"/>
</g>
<!-- Node24 -->
<g id="node24" class="node">
<title>Node24</title>
<g id="a_node24"><a xlink:href="classtriton_1_1exceptions_1_1LiftingEngine.html" target="_top" xlink:title="The exception class used by the lifting engine.">
<polygon fill="white" stroke="black" points="446,-220.5 446,-250.5 548,-250.5 548,-220.5 446,-220.5"/>
<text text-anchor="start" x="454" y="-238.5" font-family="Helvetica,sans-Serif" font-size="10.00">triton::exceptions</text>
<text text-anchor="middle" x="497" y="-227.5" font-family="Helvetica,sans-Serif" font-size="10.00">::LiftingEngine</text>
</a>
</g>
</g>
<!-- Node23&#45;&gt;Node24 -->
<g id="edge23" class="edge">
<title>Node23&#45;&gt;Node24</title>
<path fill="none" stroke="midnightblue" d="M378.34,-159.61C380.29,-160.84 382.19,-162.14 384,-163.5 405.01,-179.34 398.55,-195.27 420,-210.5 427.7,-215.97 436.67,-220.3 445.7,-223.7"/>
<polygon fill="midnightblue" stroke="midnightblue" points="379.85,-156.45 369.42,-154.61 376.43,-162.55 379.85,-156.45"/>
</g>
<!-- Node25 -->
<g id="node25" class="node">
<title>Node25</title>
<g id="a_node25"><a xlink:href="classtriton_1_1exceptions_1_1SolverEngine.html" target="_top" xlink:title="The exception class used by the solver engine.">
<polygon fill="white" stroke="black" points="446,-171.5 446,-201.5 548,-201.5 548,-171.5 446,-171.5"/>
<text text-anchor="start" x="454" y="-189.5" font-family="Helvetica,sans-Serif" font-size="10.00">triton::exceptions</text>
<text text-anchor="middle" x="497" y="-178.5" font-family="Helvetica,sans-Serif" font-size="10.00">::SolverEngine</text>
</a>
</g>
</g>
<!-- Node23&#45;&gt;Node25 -->
<g id="edge24" class="edge">
<title>Node23&#45;&gt;Node25</title>
<path fill="none" stroke="midnightblue" d="M382.9,-155.77C403.41,-161.34 426.12,-167.51 445.77,-172.85"/>
<polygon fill="midnightblue" stroke="midnightblue" points="383.61,-152.34 373.04,-153.09 381.77,-159.09 383.61,-152.34"/>
</g>
<!-- Node27 -->
<g id="node27" class="node">
<title>Node27</title>
<g id="a_node27"><a xlink:href="classtriton_1_1exceptions_1_1SymbolicEngine.html" target="_top" xlink:title="The exception class used by the symbolic engine.">
<polygon fill="white" stroke="black" points="446,-122.5 446,-152.5 548,-152.5 548,-122.5 446,-122.5"/>
<text text-anchor="start" x="454" y="-140.5" font-family="Helvetica,sans-Serif" font-size="10.00">triton::exceptions</text>
<text text-anchor="middle" x="497" y="-129.5" font-family="Helvetica,sans-Serif" font-size="10.00">::SymbolicEngine</text>
</a>
</g>
</g>
<!-- Node23&#45;&gt;Node27 -->
<g id="edge26" class="edge">
<title>Node23&#45;&gt;Node27</title>
<path fill="none" stroke="midnightblue" d="M383.18,-138.8C403.61,-138.57 426.21,-138.31 445.77,-138.08"/>
<polygon fill="midnightblue" stroke="midnightblue" points="383,-135.31 373.04,-138.92 383.08,-142.31 383,-135.31"/>
</g>
<!-- Node33 -->
<g id="node33" class="node">
<title>Node33</title>
<g id="a_node33"><a xlink:href="classtriton_1_1exceptions_1_1SynthesizerEngine.html" target="_top" xlink:title="The exception class used by the synthesizer engine.">
<polygon fill="white" stroke="black" points="440.5,-73.5 440.5,-103.5 553.5,-103.5 553.5,-73.5 440.5,-73.5"/>
<text text-anchor="start" x="448.5" y="-91.5" font-family="Helvetica,sans-Serif" font-size="10.00">triton::exceptions</text>
<text text-anchor="middle" x="497" y="-80.5" font-family="Helvetica,sans-Serif" font-size="10.00">::SynthesizerEngine</text>
</a>
</g>
</g>
<!-- Node23&#45;&gt;Node33 -->
<g id="edge32" class="edge">
<title>Node23&#45;&gt;Node33</title>
<path fill="none" stroke="midnightblue" d="M382.77,-121.88C403,-115.92 425.38,-109.32 444.87,-103.57"/>
<polygon fill="midnightblue" stroke="midnightblue" points="381.64,-118.56 373.04,-124.75 383.62,-125.28 381.64,-118.56"/>
</g>
<!-- Node34 -->
<g id="node34" class="node">
<title>Node34</title>
<g id="a_node34"><a xlink:href="classtriton_1_1exceptions_1_1TaintEngine.html" target="_top" xlink:title="The exception class used by the taint engine.">
<polygon fill="white" stroke="black" points="446,-24.5 446,-54.5 548,-54.5 548,-24.5 446,-24.5"/>
<text text-anchor="start" x="454" y="-42.5" font-family="Helvetica,sans-Serif" font-size="10.00">triton::exceptions</text>
<text text-anchor="middle" x="497" y="-31.5" font-family="Helvetica,sans-Serif" font-size="10.00">::TaintEngine</text>
</a>
</g>
</g>
<!-- Node23&#45;&gt;Node34 -->
<g id="edge33" class="edge">
<title>Node23&#45;&gt;Node34</title>
<path fill="none" stroke="midnightblue" d="M377.44,-119.18C379.72,-117.71 381.92,-116.15 384,-114.5 405.7,-97.22 397.6,-79.87 420,-63.5 427.71,-57.87 436.78,-53.53 445.93,-50.19"/>
<polygon fill="midnightblue" stroke="midnightblue" points="375.24,-116.4 368.29,-124.4 378.71,-122.49 375.24,-116.4"/>
</g>
<!-- Node26 -->
<g id="node26" class="node">
<title>Node26</title>
<g id="a_node26"><a xlink:href="classtriton_1_1exceptions_1_1SolverModel.html" target="_top" xlink:title="The exception class used by solver models.">
<polygon fill="white" stroke="black" points="626,-245.5 626,-275.5 728,-275.5 728,-245.5 626,-245.5"/>
<text text-anchor="start" x="634" y="-263.5" font-family="Helvetica,sans-Serif" font-size="10.00">triton::exceptions</text>
<text text-anchor="middle" x="677" y="-252.5" font-family="Helvetica,sans-Serif" font-size="10.00">::SolverModel</text>
</a>
</g>
</g>
<!-- Node25&#45;&gt;Node26 -->
<g id="edge25" class="edge">
<title>Node25&#45;&gt;Node26</title>
<path fill="none" stroke="midnightblue" d="M557.74,-203.46C563.33,-205.61 568.83,-207.96 574,-210.5 591.49,-219.09 592.76,-226.43 610,-235.5 616.83,-239.1 624.3,-242.44 631.67,-245.43"/>
<polygon fill="midnightblue" stroke="midnightblue" points="558.9,-200.16 548.31,-200.02 556.51,-206.73 558.9,-200.16"/>
</g>
<!-- Node28 -->
<g id="node28" class="node">
<title>Node28</title>
<g id="a_node28"><a xlink:href="classtriton_1_1exceptions_1_1PathConstraint.html" target="_top" xlink:title="The exception class used by path constraints.">
<polygon fill="white" stroke="black" points="626,-196.5 626,-226.5 728,-226.5 728,-196.5 626,-196.5"/>
<text text-anchor="start" x="634" y="-214.5" font-family="Helvetica,sans-Serif" font-size="10.00">triton::exceptions</text>
<text text-anchor="middle" x="677" y="-203.5" font-family="Helvetica,sans-Serif" font-size="10.00">::PathConstraint</text>
</a>
</g>
</g>
<!-- Node27&#45;&gt;Node28 -->
<g id="edge27" class="edge">
<title>Node27&#45;&gt;Node28</title>
<path fill="none" stroke="midnightblue" d="M557.74,-154.46C563.33,-156.61 568.83,-158.96 574,-161.5 591.49,-170.09 592.76,-177.43 610,-186.5 616.83,-190.1 624.3,-193.44 631.67,-196.43"/>
<polygon fill="midnightblue" stroke="midnightblue" points="558.9,-151.16 548.31,-151.02 556.51,-157.73 558.9,-151.16"/>
</g>
<!-- Node29 -->
<g id="node29" class="node">
<title>Node29</title>
<g id="a_node29"><a xlink:href="classtriton_1_1exceptions_1_1PathManager.html" target="_top" xlink:title="The exception class used by the path manager.">
<polygon fill="white" stroke="black" points="626,-147.5 626,-177.5 728,-177.5 728,-147.5 626,-147.5"/>
<text text-anchor="start" x="634" y="-165.5" font-family="Helvetica,sans-Serif" font-size="10.00">triton::exceptions</text>
<text text-anchor="middle" x="677" y="-154.5" font-family="Helvetica,sans-Serif" font-size="10.00">::PathManager</text>
</a>
</g>
</g>
<!-- Node27&#45;&gt;Node29 -->
<g id="edge28" class="edge">
<title>Node27&#45;&gt;Node29</title>
<path fill="none" stroke="midnightblue" d="M558.26,-145.96C580.19,-149.04 604.73,-152.49 625.7,-155.44"/>
<polygon fill="midnightblue" stroke="midnightblue" points="558.45,-142.46 548.06,-144.53 557.47,-149.39 558.45,-142.46"/>
</g>
<!-- Node30 -->
<g id="node30" class="node">
<title>Node30</title>
<g id="a_node30"><a xlink:href="classtriton_1_1exceptions_1_1SymbolicExpression.html" target="_top" xlink:title="The exception class used by symbolic expressions.">
<polygon fill="white" stroke="black" points="616.5,-98.5 616.5,-128.5 737.5,-128.5 737.5,-98.5 616.5,-98.5"/>
<text text-anchor="start" x="624.5" y="-116.5" font-family="Helvetica,sans-Serif" font-size="10.00">triton::exceptions</text>
<text text-anchor="middle" x="677" y="-105.5" font-family="Helvetica,sans-Serif" font-size="10.00">::SymbolicExpression</text>
</a>
</g>
</g>
<!-- Node27&#45;&gt;Node30 -->
<g id="edge29" class="edge">
<title>Node27&#45;&gt;Node30</title>
<path fill="none" stroke="midnightblue" d="M557.97,-129.41C576.75,-126.88 597.46,-124.09 616.22,-121.56"/>
<polygon fill="midnightblue" stroke="midnightblue" points="557.5,-125.95 548.06,-130.75 558.43,-132.88 557.5,-125.95"/>
</g>
<!-- Node31 -->
<g id="node31" class="node">
<title>Node31</title>
<g id="a_node31"><a xlink:href="classtriton_1_1exceptions_1_1SymbolicSimplification.html" target="_top" xlink:title="The exception class used by symbolic simplifications.">
<polygon fill="white" stroke="black" points="610,-49.5 610,-79.5 744,-79.5 744,-49.5 610,-49.5"/>
<text text-anchor="start" x="618" y="-67.5" font-family="Helvetica,sans-Serif" font-size="10.00">triton::exceptions</text>
<text text-anchor="middle" x="677" y="-56.5" font-family="Helvetica,sans-Serif" font-size="10.00">::SymbolicSimplification</text>
</a>
</g>
</g>
<!-- Node27&#45;&gt;Node31 -->
<g id="edge30" class="edge">
<title>Node27&#45;&gt;Node31</title>
<path fill="none" stroke="midnightblue" d="M557.68,-119.59C563.28,-117.4 568.8,-115.03 574,-112.5 591.29,-104.09 592.84,-97.18 610,-88.5 616.31,-85.31 623.15,-82.33 629.95,-79.63"/>
<polygon fill="midnightblue" stroke="midnightblue" points="556.38,-116.34 548.23,-123.11 558.82,-122.9 556.38,-116.34"/>
</g>
<!-- Node32 -->
<g id="node32" class="node">
<title>Node32</title>
<g id="a_node32"><a xlink:href="classtriton_1_1exceptions_1_1SymbolicVariable.html" target="_top" xlink:title="The exception class used by symbolic variables.">
<polygon fill="white" stroke="black" points="623.5,-0.5 623.5,-30.5 730.5,-30.5 730.5,-0.5 623.5,-0.5"/>
<text text-anchor="start" x="631.5" y="-18.5" font-family="Helvetica,sans-Serif" font-size="10.00">triton::exceptions</text>
<text text-anchor="middle" x="677" y="-7.5" font-family="Helvetica,sans-Serif" font-size="10.00">::SymbolicVariable</text>
</a>
</g>
</g>
<!-- Node27&#45;&gt;Node32 -->
<g id="edge31" class="edge">
<title>Node27&#45;&gt;Node32</title>
<path fill="none" stroke="midnightblue" d="M557.56,-123.2C563.49,-120.27 569.11,-116.74 574,-112.5 601.31,-88.78 583.06,-63.64 610,-39.5 614,-35.92 618.57,-32.86 623.4,-30.25"/>
<polygon fill="midnightblue" stroke="midnightblue" points="555.82,-120.14 548.04,-127.33 558.61,-126.56 555.82,-120.14"/>
</g>
</g>
</svg>
