<?xml version="1.0" encoding="UTF-8" standalone="no"?>
<!DOCTYPE svg PUBLIC "-//W3C//DTD SVG 1.1//EN"
 "http://www.w3.org/Graphics/SVG/1.1/DTD/svg11.dtd">
<!-- Generated by graphviz version 2.49.0 (20210828.1703)
 -->
<!-- Title: triton::exceptions::Ast Pages: 1 -->
<svg width="242pt" height="218pt"
 viewBox="0.00 0.00 241.50 218.00" xmlns="http://www.w3.org/2000/svg" xmlns:xlink="http://www.w3.org/1999/xlink">
<g id="graph0" class="graph" transform="scale(1 1) rotate(0) translate(4 214)">
<title>triton::exceptions::Ast</title>
<polygon fill="white" stroke="transparent" points="-4,4 -4,-214 237.5,-214 237.5,4 -4,4"/>
<!-- Node1 -->
<g id="node1" class="node">
<title>Node1</title>
<g id="a_node1"><a xlink:title="The exception class used by all AST nodes.">
<polygon fill="#bfbfbf" stroke="black" points="57.5,-67.5 57.5,-86.5 181.5,-86.5 181.5,-67.5 57.5,-67.5"/>
<text text-anchor="middle" x="119.5" y="-74.5" font-family="Helvetica,sans-Serif" font-size="10.00">triton::exceptions::Ast</text>
</a>
</g>
</g>
<!-- Node4 -->
<g id="node4" class="node">
<title>Node4</title>
<g id="a_node4"><a xlink:href="classtriton_1_1exceptions_1_1AstRepresentation.html" target="_top" xlink:title="The exception class used by all AST node representations.">
<polygon fill="white" stroke="black" points="0,-0.5 0,-30.5 113,-30.5 113,-0.5 0,-0.5"/>
<text text-anchor="start" x="8" y="-18.5" font-family="Helvetica,sans-Serif" font-size="10.00">triton::exceptions</text>
<text text-anchor="middle" x="56.5" y="-7.5" font-family="Helvetica,sans-Serif" font-size="10.00">::AstRepresentation</text>
</a>
</g>
</g>
<!-- Node1&#45;&gt;Node4 -->
<g id="edge3" class="edge">
<title>Node1&#45;&gt;Node4</title>
<path fill="none" stroke="midnightblue" d="M102.95,-60.37C93.15,-51.11 80.83,-39.48 71.35,-30.52"/>
<polygon fill="midnightblue" stroke="midnightblue" points="100.8,-63.15 110.47,-67.48 105.61,-58.06 100.8,-63.15"/>
</g>
<!-- Node5 -->
<g id="node5" class="node">
<title>Node5</title>
<g id="a_node5"><a xlink:href="classtriton_1_1exceptions_1_1AstTranslations.html" target="_top" xlink:title="The exception class used by all AST translations (z3 &lt;&#45;&gt; triton).">
<polygon fill="white" stroke="black" points="131.5,-0.5 131.5,-30.5 233.5,-30.5 233.5,-0.5 131.5,-0.5"/>
<text text-anchor="start" x="139.5" y="-18.5" font-family="Helvetica,sans-Serif" font-size="10.00">triton::exceptions</text>
<text text-anchor="middle" x="182.5" y="-7.5" font-family="Helvetica,sans-Serif" font-size="10.00">::AstTranslations</text>
</a>
</g>
</g>
<!-- Node1&#45;&gt;Node5 -->
<g id="edge4" class="edge">
<title>Node1&#45;&gt;Node5</title>
<path fill="none" stroke="midnightblue" d="M136.05,-60.37C145.85,-51.11 158.17,-39.48 167.65,-30.52"/>
<polygon fill="midnightblue" stroke="midnightblue" points="133.39,-58.06 128.53,-67.48 138.2,-63.15 133.39,-58.06"/>
</g>
<!-- Node2 -->
<g id="node2" class="node">
<title>Node2</title>
<g id="a_node2"><a xlink:href="classtriton_1_1exceptions_1_1Exception.html" target="_top" xlink:title="The root class of all exceptions.">
<polygon fill="white" stroke="black" points="68.5,-123.5 68.5,-153.5 170.5,-153.5 170.5,-123.5 68.5,-123.5"/>
<text text-anchor="start" x="76.5" y="-141.5" font-family="Helvetica,sans-Serif" font-size="10.00">triton::exceptions</text>
<text text-anchor="middle" x="119.5" y="-130.5" font-family="Helvetica,sans-Serif" font-size="10.00">::Exception</text>
</a>
</g>
</g>
<!-- Node2&#45;&gt;Node1 -->
<g id="edge1" class="edge">
<title>Node2&#45;&gt;Node1</title>
<path fill="none" stroke="midnightblue" d="M119.5,-113.29C119.5,-103.86 119.5,-93.65 119.5,-86.66"/>
<polygon fill="midnightblue" stroke="midnightblue" points="116,-113.4 119.5,-123.4 123,-113.4 116,-113.4"/>
</g>
<!-- Node3 -->
<g id="node3" class="node">
<title>Node3</title>
<g id="a_node3"><a xlink:title=" ">
<polygon fill="white" stroke="#bfbfbf" points="76.5,-190.5 76.5,-209.5 162.5,-209.5 162.5,-190.5 76.5,-190.5"/>
<text text-anchor="middle" x="119.5" y="-197.5" font-family="Helvetica,sans-Serif" font-size="10.00">std::exception</text>
</a>
</g>
</g>
<!-- Node3&#45;&gt;Node2 -->
<g id="edge2" class="edge">
<title>Node3&#45;&gt;Node2</title>
<path fill="none" stroke="midnightblue" d="M119.5,-180.23C119.5,-171.59 119.5,-161.5 119.5,-153.52"/>
<polygon fill="midnightblue" stroke="midnightblue" points="116,-180.48 119.5,-190.48 123,-180.48 116,-180.48"/>
</g>
</g>
</svg>
