<?xml version="1.0" encoding="UTF-8" standalone="no"?>
<!DOCTYPE svg PUBLIC "-//W3C//DTD SVG 1.1//EN"
 "http://www.w3.org/Graphics/SVG/1.1/DTD/svg11.dtd">
<!-- Generated by graphviz version 2.49.0 (20210828.1703)
 -->
<!-- Title: triton::exceptions::Engines Pages: 1 -->
<svg width="689pt" height="284pt"
 viewBox="0.00 0.00 689.00 284.00" xmlns="http://www.w3.org/2000/svg" xmlns:xlink="http://www.w3.org/1999/xlink">
<g id="graph0" class="graph" transform="scale(1 1) rotate(0) translate(4 280)">
<title>triton::exceptions::Engines</title>
<polygon fill="white" stroke="transparent" points="-4,4 -4,-280 685,-280 685,4 -4,4"/>
<!-- Node1 -->
<g id="node1" class="node">
<title>Node1</title>
<g id="a_node1"><a xlink:title="The exception class used by all engines.">
<polygon fill="#bfbfbf" stroke="black" points="260,-122.5 260,-152.5 362,-152.5 362,-122.5 260,-122.5"/>
<text text-anchor="start" x="268" y="-140.5" font-family="Helvetica,sans-Serif" font-size="10.00">triton::exceptions</text>
<text text-anchor="middle" x="311" y="-129.5" font-family="Helvetica,sans-Serif" font-size="10.00">::Engines</text>
</a>
</g>
</g>
<!-- Node4 -->
<g id="node4" class="node">
<title>Node4</title>
<g id="a_node4"><a xlink:href="classtriton_1_1exceptions_1_1LiftingEngine.html" target="_top" xlink:title="The exception class used by the lifting engine.">
<polygon fill="white" stroke="black" points="403.5,-220.5 403.5,-250.5 505.5,-250.5 505.5,-220.5 403.5,-220.5"/>
<text text-anchor="start" x="411.5" y="-238.5" font-family="Helvetica,sans-Serif" font-size="10.00">triton::exceptions</text>
<text text-anchor="middle" x="454.5" y="-227.5" font-family="Helvetica,sans-Serif" font-size="10.00">::LiftingEngine</text>
</a>
</g>
</g>
<!-- Node1&#45;&gt;Node4 -->
<g id="edge3" class="edge">
<title>Node1&#45;&gt;Node4</title>
<path fill="none" stroke="midnightblue" d="M334.24,-159.98C350.78,-175.83 374.47,-196.77 398,-211.5 403.16,-214.73 408.83,-217.73 414.52,-220.44"/>
<polygon fill="midnightblue" stroke="midnightblue" points="336.33,-157.13 326.73,-152.66 331.45,-162.15 336.33,-157.13"/>
</g>
<!-- Node5 -->
<g id="node5" class="node">
<title>Node5</title>
<g id="a_node5"><a xlink:href="classtriton_1_1exceptions_1_1SolverEngine.html" target="_top" xlink:title="The exception class used by the solver engine.">
<polygon fill="white" stroke="black" points="403.5,-171.5 403.5,-201.5 505.5,-201.5 505.5,-171.5 403.5,-171.5"/>
<text text-anchor="start" x="411.5" y="-189.5" font-family="Helvetica,sans-Serif" font-size="10.00">triton::exceptions</text>
<text text-anchor="middle" x="454.5" y="-178.5" font-family="Helvetica,sans-Serif" font-size="10.00">::SolverEngine</text>
</a>
</g>
</g>
<!-- Node1&#45;&gt;Node5 -->
<g id="edge4" class="edge">
<title>Node1&#45;&gt;Node5</title>
<path fill="none" stroke="midnightblue" d="M365.1,-155.89C379.84,-160.99 395.66,-166.47 409.79,-171.36"/>
<polygon fill="midnightblue" stroke="midnightblue" points="366.2,-152.57 355.61,-152.6 363.91,-159.18 366.2,-152.57"/>
</g>
<!-- Node7 -->
<g id="node7" class="node">
<title>Node7</title>
<g id="a_node7"><a xlink:href="classtriton_1_1exceptions_1_1SymbolicEngine.html" target="_top" xlink:title="The exception class used by the symbolic engine.">
<polygon fill="white" stroke="black" points="403.5,-122.5 403.5,-152.5 505.5,-152.5 505.5,-122.5 403.5,-122.5"/>
<text text-anchor="start" x="411.5" y="-140.5" font-family="Helvetica,sans-Serif" font-size="10.00">triton::exceptions</text>
<text text-anchor="middle" x="454.5" y="-129.5" font-family="Helvetica,sans-Serif" font-size="10.00">::SymbolicEngine</text>
</a>
</g>
</g>
<!-- Node1&#45;&gt;Node7 -->
<g id="edge6" class="edge">
<title>Node1&#45;&gt;Node7</title>
<path fill="none" stroke="midnightblue" d="M372.46,-137.5C382.77,-137.5 393.37,-137.5 403.38,-137.5"/>
<polygon fill="midnightblue" stroke="midnightblue" points="372.29,-134 362.29,-137.5 372.29,-141 372.29,-134"/>
</g>
<!-- Node13 -->
<g id="node13" class="node">
<title>Node13</title>
<g id="a_node13"><a xlink:href="classtriton_1_1exceptions_1_1SynthesizerEngine.html" target="_top" xlink:title="The exception class used by the synthesizer engine.">
<polygon fill="white" stroke="black" points="398,-73.5 398,-103.5 511,-103.5 511,-73.5 398,-73.5"/>
<text text-anchor="start" x="406" y="-91.5" font-family="Helvetica,sans-Serif" font-size="10.00">triton::exceptions</text>
<text text-anchor="middle" x="454.5" y="-80.5" font-family="Helvetica,sans-Serif" font-size="10.00">::SynthesizerEngine</text>
</a>
</g>
</g>
<!-- Node1&#45;&gt;Node13 -->
<g id="edge12" class="edge">
<title>Node1&#45;&gt;Node13</title>
<path fill="none" stroke="midnightblue" d="M365.1,-119.11C379.84,-114.01 395.66,-108.53 409.79,-103.64"/>
<polygon fill="midnightblue" stroke="midnightblue" points="363.91,-115.82 355.61,-122.4 366.2,-122.43 363.91,-115.82"/>
</g>
<!-- Node14 -->
<g id="node14" class="node">
<title>Node14</title>
<g id="a_node14"><a xlink:href="classtriton_1_1exceptions_1_1TaintEngine.html" target="_top" xlink:title="The exception class used by the taint engine.">
<polygon fill="white" stroke="black" points="403.5,-24.5 403.5,-54.5 505.5,-54.5 505.5,-24.5 403.5,-24.5"/>
<text text-anchor="start" x="411.5" y="-42.5" font-family="Helvetica,sans-Serif" font-size="10.00">triton::exceptions</text>
<text text-anchor="middle" x="454.5" y="-31.5" font-family="Helvetica,sans-Serif" font-size="10.00">::TaintEngine</text>
</a>
</g>
</g>
<!-- Node1&#45;&gt;Node14 -->
<g id="edge13" class="edge">
<title>Node1&#45;&gt;Node14</title>
<path fill="none" stroke="midnightblue" d="M334.24,-115.02C350.78,-99.17 374.47,-78.23 398,-63.5 403.16,-60.27 408.83,-57.27 414.52,-54.56"/>
<polygon fill="midnightblue" stroke="midnightblue" points="331.45,-112.85 326.73,-122.34 336.33,-117.87 331.45,-112.85"/>
</g>
<!-- Node2 -->
<g id="node2" class="node">
<title>Node2</title>
<g id="a_node2"><a xlink:href="classtriton_1_1exceptions_1_1Exception.html" target="_top" xlink:title="The root class of all exceptions.">
<polygon fill="white" stroke="black" points="122,-122.5 122,-152.5 224,-152.5 224,-122.5 122,-122.5"/>
<text text-anchor="start" x="130" y="-140.5" font-family="Helvetica,sans-Serif" font-size="10.00">triton::exceptions</text>
<text text-anchor="middle" x="173" y="-129.5" font-family="Helvetica,sans-Serif" font-size="10.00">::Exception</text>
</a>
</g>
</g>
<!-- Node2&#45;&gt;Node1 -->
<g id="edge1" class="edge">
<title>Node2&#45;&gt;Node1</title>
<path fill="none" stroke="midnightblue" d="M234.51,-137.5C243.01,-137.5 251.67,-137.5 259.95,-137.5"/>
<polygon fill="midnightblue" stroke="midnightblue" points="234.26,-134 224.25,-137.5 234.25,-141 234.26,-134"/>
</g>
<!-- Node3 -->
<g id="node3" class="node">
<title>Node3</title>
<g id="a_node3"><a xlink:title=" ">
<polygon fill="white" stroke="#bfbfbf" points="0,-128 0,-147 86,-147 86,-128 0,-128"/>
<text text-anchor="middle" x="43" y="-135" font-family="Helvetica,sans-Serif" font-size="10.00">std::exception</text>
</a>
</g>
</g>
<!-- Node3&#45;&gt;Node2 -->
<g id="edge2" class="edge">
<title>Node3&#45;&gt;Node2</title>
<path fill="none" stroke="midnightblue" d="M96.34,-137.5C104.74,-137.5 113.42,-137.5 121.77,-137.5"/>
<polygon fill="midnightblue" stroke="midnightblue" points="96.27,-134 86.27,-137.5 96.27,-141 96.27,-134"/>
</g>
<!-- Node6 -->
<g id="node6" class="node">
<title>Node6</title>
<g id="a_node6"><a xlink:href="classtriton_1_1exceptions_1_1SolverModel.html" target="_top" xlink:title="The exception class used by solver models.">
<polygon fill="white" stroke="black" points="563,-245.5 563,-275.5 665,-275.5 665,-245.5 563,-245.5"/>
<text text-anchor="start" x="571" y="-263.5" font-family="Helvetica,sans-Serif" font-size="10.00">triton::exceptions</text>
<text text-anchor="middle" x="614" y="-252.5" font-family="Helvetica,sans-Serif" font-size="10.00">::SolverModel</text>
</a>
</g>
</g>
<!-- Node5&#45;&gt;Node6 -->
<g id="edge5" class="edge">
<title>Node5&#45;&gt;Node6</title>
<path fill="none" stroke="midnightblue" d="M500.8,-206.06C504.29,-207.83 507.73,-209.65 511,-211.5 527.95,-221.1 529.7,-227.54 547,-236.5 553.28,-239.75 560.1,-242.76 566.9,-245.47"/>
<polygon fill="midnightblue" stroke="midnightblue" points="502.03,-202.77 491.51,-201.56 498.98,-209.07 502.03,-202.77"/>
</g>
<!-- Node8 -->
<g id="node8" class="node">
<title>Node8</title>
<g id="a_node8"><a xlink:href="classtriton_1_1exceptions_1_1PathConstraint.html" target="_top" xlink:title="The exception class used by path constraints.">
<polygon fill="white" stroke="black" points="563,-196.5 563,-226.5 665,-226.5 665,-196.5 563,-196.5"/>
<text text-anchor="start" x="571" y="-214.5" font-family="Helvetica,sans-Serif" font-size="10.00">triton::exceptions</text>
<text text-anchor="middle" x="614" y="-203.5" font-family="Helvetica,sans-Serif" font-size="10.00">::PathConstraint</text>
</a>
</g>
</g>
<!-- Node7&#45;&gt;Node8 -->
<g id="edge7" class="edge">
<title>Node7&#45;&gt;Node8</title>
<path fill="none" stroke="midnightblue" d="M500.8,-157.06C504.29,-158.83 507.73,-160.65 511,-162.5 527.95,-172.1 529.7,-178.54 547,-187.5 553.28,-190.75 560.1,-193.76 566.9,-196.47"/>
<polygon fill="midnightblue" stroke="midnightblue" points="502.03,-153.77 491.51,-152.56 498.98,-160.07 502.03,-153.77"/>
</g>
<!-- Node9 -->
<g id="node9" class="node">
<title>Node9</title>
<g id="a_node9"><a xlink:href="classtriton_1_1exceptions_1_1PathManager.html" target="_top" xlink:title="The exception class used by the path manager.">
<polygon fill="white" stroke="black" points="563,-147.5 563,-177.5 665,-177.5 665,-147.5 563,-147.5"/>
<text text-anchor="start" x="571" y="-165.5" font-family="Helvetica,sans-Serif" font-size="10.00">triton::exceptions</text>
<text text-anchor="middle" x="614" y="-154.5" font-family="Helvetica,sans-Serif" font-size="10.00">::PathManager</text>
</a>
</g>
</g>
<!-- Node7&#45;&gt;Node9 -->
<g id="edge8" class="edge">
<title>Node7&#45;&gt;Node9</title>
<path fill="none" stroke="midnightblue" d="M515.82,-147.07C531.38,-149.54 547.96,-152.18 562.94,-154.55"/>
<polygon fill="midnightblue" stroke="midnightblue" points="516.19,-143.59 505.77,-145.48 515.09,-150.5 516.19,-143.59"/>
</g>
<!-- Node10 -->
<g id="node10" class="node">
<title>Node10</title>
<g id="a_node10"><a xlink:href="classtriton_1_1exceptions_1_1SymbolicExpression.html" target="_top" xlink:title="The exception class used by symbolic expressions.">
<polygon fill="white" stroke="black" points="553.5,-98.5 553.5,-128.5 674.5,-128.5 674.5,-98.5 553.5,-98.5"/>
<text text-anchor="start" x="561.5" y="-116.5" font-family="Helvetica,sans-Serif" font-size="10.00">triton::exceptions</text>
<text text-anchor="middle" x="614" y="-105.5" font-family="Helvetica,sans-Serif" font-size="10.00">::SymbolicExpression</text>
</a>
</g>
</g>
<!-- Node7&#45;&gt;Node10 -->
<g id="edge9" class="edge">
<title>Node7&#45;&gt;Node10</title>
<path fill="none" stroke="midnightblue" d="M515.9,-128.3C528.17,-126.43 541.06,-124.46 553.31,-122.6"/>
<polygon fill="midnightblue" stroke="midnightblue" points="515.13,-124.87 505.77,-129.84 516.18,-131.79 515.13,-124.87"/>
</g>
<!-- Node11 -->
<g id="node11" class="node">
<title>Node11</title>
<g id="a_node11"><a xlink:href="classtriton_1_1exceptions_1_1SymbolicSimplification.html" target="_top" xlink:title="The exception class used by symbolic simplifications.">
<polygon fill="white" stroke="black" points="547,-49.5 547,-79.5 681,-79.5 681,-49.5 547,-49.5"/>
<text text-anchor="start" x="555" y="-67.5" font-family="Helvetica,sans-Serif" font-size="10.00">triton::exceptions</text>
<text text-anchor="middle" x="614" y="-56.5" font-family="Helvetica,sans-Serif" font-size="10.00">::SymbolicSimplification</text>
</a>
</g>
</g>
<!-- Node7&#45;&gt;Node11 -->
<g id="edge10" class="edge">
<title>Node7&#45;&gt;Node11</title>
<path fill="none" stroke="midnightblue" d="M500.29,-118.1C503.95,-116.28 507.56,-114.4 511,-112.5 527.82,-103.19 529.84,-97.18 547,-88.5 553.31,-85.31 560.15,-82.33 566.95,-79.63"/>
<polygon fill="midnightblue" stroke="midnightblue" points="498.66,-115 491.16,-122.49 501.69,-121.31 498.66,-115"/>
</g>
<!-- Node12 -->
<g id="node12" class="node">
<title>Node12</title>
<g id="a_node12"><a xlink:href="classtriton_1_1exceptions_1_1SymbolicVariable.html" target="_top" xlink:title="The exception class used by symbolic variables.">
<polygon fill="white" stroke="black" points="560.5,-0.5 560.5,-30.5 667.5,-30.5 667.5,-0.5 560.5,-0.5"/>
<text text-anchor="start" x="568.5" y="-18.5" font-family="Helvetica,sans-Serif" font-size="10.00">triton::exceptions</text>
<text text-anchor="middle" x="614" y="-7.5" font-family="Helvetica,sans-Serif" font-size="10.00">::SymbolicVariable</text>
</a>
</g>
</g>
<!-- Node7&#45;&gt;Node12 -->
<g id="edge11" class="edge">
<title>Node7&#45;&gt;Node12</title>
<path fill="none" stroke="midnightblue" d="M505.87,-116.9C507.68,-115.52 509.39,-114.05 511,-112.5 537.02,-87.37 520.06,-63.64 547,-39.5 551,-35.92 555.57,-32.86 560.4,-30.25"/>
<polygon fill="midnightblue" stroke="midnightblue" points="503.92,-114 497.53,-122.45 507.79,-119.82 503.92,-114"/>
</g>
</g>
</svg>
