<?xml version="1.0" encoding="UTF-8" standalone="no"?>
<!DOCTYPE svg PUBLIC "-//W3C//DTD SVG 1.1//EN"
 "http://www.w3.org/Graphics/SVG/1.1/DTD/svg11.dtd">
<!-- Generated by graphviz version 7.0.0 (20221023.0053)
 -->
<!-- Title: triton::arch::BitsVector Pages: 1 -->
<svg width="403pt" height="82pt"
 viewBox="0.00 0.00 402.50 82.00" xmlns="http://www.w3.org/2000/svg" xmlns:xlink="http://www.w3.org/1999/xlink">
<g id="graph0" class="graph" transform="scale(1 1) rotate(0) translate(4 78)">
<title>triton::arch::BitsVector</title>
<!-- Node1 -->
<g id="node1" class="node">
<title>Node1</title>
<g id="a_node1"><a xlink:title="This class is used to deal with registers and memory as bits vector.">
<polygon fill="#999999" stroke="#666666" points="259,-74 144,-74 144,-55 259,-55 259,-74"/>
<text text-anchor="middle" x="201.5" y="-62" font-family="Helvetica,sans-Serif" font-size="10.00">triton::arch::BitsVector</text>
</a>
</g>
</g>
<!-- Node2 -->
<g id="node2" class="node">
<title>Node2</title>
<g id="a_node2"><a xlink:href="classtriton_1_1arch_1_1Immediate.html" target="_top" xlink:title="This class is used to represent an immediate.">
<polygon fill="white" stroke="#666666" points="115,-19 0,-19 0,0 115,0 115,-19"/>
<text text-anchor="middle" x="57.5" y="-7" font-family="Helvetica,sans-Serif" font-size="10.00">triton::arch::Immediate</text>
</a>
</g>
</g>
<!-- Node1&#45;&gt;Node2 -->
<g id="edge1" class="edge">
<title>Node1&#45;&gt;Node2</title>
<path fill="none" stroke="#63b8ff" d="M166.41,-50.58C140.09,-40.9 104.75,-27.89 81.57,-19.36"/>
<polygon fill="#63b8ff" stroke="#63b8ff" points="165.06,-53.82 175.65,-53.99 167.48,-47.25 165.06,-53.82"/>
</g>
<!-- Node3 -->
<g id="node3" class="node">
<title>Node3</title>
<g id="a_node3"><a xlink:href="classtriton_1_1arch_1_1MemoryAccess.html" target="_top" xlink:title="This class is used to represent a memory access.">
<polygon fill="white" stroke="#666666" points="270,-19 133,-19 133,0 270,0 270,-19"/>
<text text-anchor="middle" x="201.5" y="-7" font-family="Helvetica,sans-Serif" font-size="10.00">triton::arch::MemoryAccess</text>
</a>
</g>
</g>
<!-- Node1&#45;&gt;Node3 -->
<g id="edge2" class="edge">
<title>Node1&#45;&gt;Node3</title>
<path fill="none" stroke="#63b8ff" d="M201.5,-43.35C201.5,-35.1 201.5,-25.97 201.5,-19.44"/>
<polygon fill="#63b8ff" stroke="#63b8ff" points="198,-43.23 201.5,-53.23 205,-43.23 198,-43.23"/>
</g>
<!-- Node4 -->
<g id="node4" class="node">
<title>Node4</title>
<g id="a_node4"><a xlink:href="classtriton_1_1arch_1_1Register.html" target="_top" xlink:title="This class is used when an instruction has a register operand.">
<polygon fill="white" stroke="#666666" points="394.5,-19 288.5,-19 288.5,0 394.5,0 394.5,-19"/>
<text text-anchor="middle" x="341.5" y="-7" font-family="Helvetica,sans-Serif" font-size="10.00">triton::arch::Register</text>
</a>
</g>
</g>
<!-- Node1&#45;&gt;Node4 -->
<g id="edge3" class="edge">
<title>Node1&#45;&gt;Node4</title>
<path fill="none" stroke="#63b8ff" d="M235.96,-50.45C261.51,-40.78 295.66,-27.85 318.1,-19.36"/>
<polygon fill="#63b8ff" stroke="#63b8ff" points="234.78,-47.16 226.66,-53.97 237.26,-53.71 234.78,-47.16"/>
</g>
</g>
</svg>
