<?xml version="1.0" encoding="UTF-8" standalone="no"?>
<!DOCTYPE svg PUBLIC "-//W3C//DTD SVG 1.1//EN"
 "http://www.w3.org/Graphics/SVG/1.1/DTD/svg11.dtd">
<!-- Generated by graphviz version 2.49.0 (20210828.1703)
 -->
<!-- Title: triton::exceptions::Engines Pages: 1 -->
<svg width="689pt" height="284pt"
 viewBox="0.00 0.00 689.00 284.00" xmlns="http://www.w3.org/2000/svg" xmlns:xlink="http://www.w3.org/1999/xlink">
<g id="graph0" class="graph" transform="scale(1 1) rotate(0) translate(4 280)">
<title>triton::exceptions::Engines</title>
<polygon fill="white" stroke="transparent" points="-4,4 -4,-280 685,-280 685,4 -4,4"/>
<!-- Node1 -->
<g id="node1" class="node">
<title>Node1</title>
<g id="a_node1"><a xlink:title="The exception class used by all engines.">
<polygon fill="#bfbfbf" stroke="black" points="260,-97.5 260,-127.5 362,-127.5 362,-97.5 260,-97.5"/>
<text text-anchor="start" x="268" y="-115.5" font-family="Helvetica,sans-Serif" font-size="10.00">triton::exceptions</text>
<text text-anchor="middle" x="311" y="-104.5" font-family="Helvetica,sans-Serif" font-size="10.00">::Engines</text>
</a>
</g>
</g>
<!-- Node4 -->
<g id="node4" class="node">
<title>Node4</title>
<g id="a_node4"><a xlink:href="classtriton_1_1exceptions_1_1SolverEngine.html" target="_top" xlink:title="The exception class used by the solver engine.">
<polygon fill="white" stroke="black" points="403.5,-208.5 403.5,-238.5 505.5,-238.5 505.5,-208.5 403.5,-208.5"/>
<text text-anchor="start" x="411.5" y="-226.5" font-family="Helvetica,sans-Serif" font-size="10.00">triton::exceptions</text>
<text text-anchor="middle" x="454.5" y="-215.5" font-family="Helvetica,sans-Serif" font-size="10.00">::SolverEngine</text>
</a>
</g>
</g>
<!-- Node1&#45;&gt;Node4 -->
<g id="edge3" class="edge">
<title>Node1&#45;&gt;Node4</title>
<path fill="none" stroke="midnightblue" d="M339.54,-134.1C367.45,-156 409.91,-189.31 434.36,-208.48"/>
<polygon fill="midnightblue" stroke="midnightblue" points="341.41,-131.12 331.38,-127.7 337.09,-136.63 341.41,-131.12"/>
</g>
<!-- Node6 -->
<g id="node6" class="node">
<title>Node6</title>
<g id="a_node6"><a xlink:href="classtriton_1_1exceptions_1_1SymbolicEngine.html" target="_top" xlink:title="The exception class used by the symbolic engine.">
<polygon fill="white" stroke="black" points="403.5,-122.5 403.5,-152.5 505.5,-152.5 505.5,-122.5 403.5,-122.5"/>
<text text-anchor="start" x="411.5" y="-140.5" font-family="Helvetica,sans-Serif" font-size="10.00">triton::exceptions</text>
<text text-anchor="middle" x="454.5" y="-129.5" font-family="Helvetica,sans-Serif" font-size="10.00">::SymbolicEngine</text>
</a>
</g>
</g>
<!-- Node1&#45;&gt;Node6 -->
<g id="edge5" class="edge">
<title>Node1&#45;&gt;Node6</title>
<path fill="none" stroke="midnightblue" d="M372.14,-123.13C382.55,-124.96 393.27,-126.86 403.38,-128.64"/>
<polygon fill="midnightblue" stroke="midnightblue" points="372.74,-119.68 362.29,-121.38 371.52,-126.57 372.74,-119.68"/>
</g>
<!-- Node12 -->
<g id="node12" class="node">
<title>Node12</title>
<g id="a_node12"><a xlink:href="classtriton_1_1exceptions_1_1SynthesizerEngine.html" target="_top" xlink:title="The exception class used by the synthesizer engine.">
<polygon fill="white" stroke="black" points="398,-73.5 398,-103.5 511,-103.5 511,-73.5 398,-73.5"/>
<text text-anchor="start" x="406" y="-91.5" font-family="Helvetica,sans-Serif" font-size="10.00">triton::exceptions</text>
<text text-anchor="middle" x="454.5" y="-80.5" font-family="Helvetica,sans-Serif" font-size="10.00">::SynthesizerEngine</text>
</a>
</g>
</g>
<!-- Node1&#45;&gt;Node12 -->
<g id="edge11" class="edge">
<title>Node1&#45;&gt;Node12</title>
<path fill="none" stroke="midnightblue" d="M372.37,-102.26C380.74,-100.84 389.31,-99.39 397.6,-97.98"/>
<polygon fill="midnightblue" stroke="midnightblue" points="371.56,-98.85 362.29,-103.97 372.73,-105.75 371.56,-98.85"/>
</g>
<!-- Node13 -->
<g id="node13" class="node">
<title>Node13</title>
<g id="a_node13"><a xlink:href="classtriton_1_1exceptions_1_1TaintEngine.html" target="_top" xlink:title="The exception class used by the taint engine.">
<polygon fill="white" stroke="black" points="403.5,-24.5 403.5,-54.5 505.5,-54.5 505.5,-24.5 403.5,-24.5"/>
<text text-anchor="start" x="411.5" y="-42.5" font-family="Helvetica,sans-Serif" font-size="10.00">triton::exceptions</text>
<text text-anchor="middle" x="454.5" y="-31.5" font-family="Helvetica,sans-Serif" font-size="10.00">::TaintEngine</text>
</a>
</g>
</g>
<!-- Node1&#45;&gt;Node13 -->
<g id="edge12" class="edge">
<title>Node1&#45;&gt;Node13</title>
<path fill="none" stroke="midnightblue" d="M345.63,-92.2C361.33,-83.02 380.39,-72.29 398,-63.5 404.11,-60.45 410.69,-57.4 417.11,-54.55"/>
<polygon fill="midnightblue" stroke="midnightblue" points="343.65,-89.3 336.82,-97.4 347.21,-95.33 343.65,-89.3"/>
</g>
<!-- Node2 -->
<g id="node2" class="node">
<title>Node2</title>
<g id="a_node2"><a xlink:href="classtriton_1_1exceptions_1_1Exception.html" target="_top" xlink:title="The root class of all exceptions.">
<polygon fill="white" stroke="black" points="122,-97.5 122,-127.5 224,-127.5 224,-97.5 122,-97.5"/>
<text text-anchor="start" x="130" y="-115.5" font-family="Helvetica,sans-Serif" font-size="10.00">triton::exceptions</text>
<text text-anchor="middle" x="173" y="-104.5" font-family="Helvetica,sans-Serif" font-size="10.00">::Exception</text>
</a>
</g>
</g>
<!-- Node2&#45;&gt;Node1 -->
<g id="edge1" class="edge">
<title>Node2&#45;&gt;Node1</title>
<path fill="none" stroke="midnightblue" d="M234.51,-112.5C243.01,-112.5 251.67,-112.5 259.95,-112.5"/>
<polygon fill="midnightblue" stroke="midnightblue" points="234.26,-109 224.25,-112.5 234.25,-116 234.26,-109"/>
</g>
<!-- Node3 -->
<g id="node3" class="node">
<title>Node3</title>
<g id="a_node3"><a xlink:title=" ">
<polygon fill="white" stroke="#bfbfbf" points="0,-103 0,-122 86,-122 86,-103 0,-103"/>
<text text-anchor="middle" x="43" y="-110" font-family="Helvetica,sans-Serif" font-size="10.00">std::exception</text>
</a>
</g>
</g>
<!-- Node3&#45;&gt;Node2 -->
<g id="edge2" class="edge">
<title>Node3&#45;&gt;Node2</title>
<path fill="none" stroke="midnightblue" d="M96.34,-112.5C104.74,-112.5 113.42,-112.5 121.77,-112.5"/>
<polygon fill="midnightblue" stroke="midnightblue" points="96.27,-109 86.27,-112.5 96.27,-116 96.27,-109"/>
</g>
<!-- Node5 -->
<g id="node5" class="node">
<title>Node5</title>
<g id="a_node5"><a xlink:href="classtriton_1_1exceptions_1_1SolverModel.html" target="_top" xlink:title="The exception class used by solver models.">
<polygon fill="white" stroke="black" points="563,-245.5 563,-275.5 665,-275.5 665,-245.5 563,-245.5"/>
<text text-anchor="start" x="571" y="-263.5" font-family="Helvetica,sans-Serif" font-size="10.00">triton::exceptions</text>
<text text-anchor="middle" x="614" y="-252.5" font-family="Helvetica,sans-Serif" font-size="10.00">::SolverModel</text>
</a>
</g>
</g>
<!-- Node4&#45;&gt;Node5 -->
<g id="edge4" class="edge">
<title>Node4&#45;&gt;Node5</title>
<path fill="none" stroke="midnightblue" d="M515.82,-237.67C531.38,-241.33 547.96,-245.22 562.94,-248.74"/>
<polygon fill="midnightblue" stroke="midnightblue" points="516.3,-234.19 505.77,-235.31 514.7,-241 516.3,-234.19"/>
</g>
<!-- Node7 -->
<g id="node7" class="node">
<title>Node7</title>
<g id="a_node7"><a xlink:href="classtriton_1_1exceptions_1_1PathConstraint.html" target="_top" xlink:title="The exception class used by path constraints.">
<polygon fill="white" stroke="black" points="563,-196.5 563,-226.5 665,-226.5 665,-196.5 563,-196.5"/>
<text text-anchor="start" x="571" y="-214.5" font-family="Helvetica,sans-Serif" font-size="10.00">triton::exceptions</text>
<text text-anchor="middle" x="614" y="-203.5" font-family="Helvetica,sans-Serif" font-size="10.00">::PathConstraint</text>
</a>
</g>
</g>
<!-- Node6&#45;&gt;Node7 -->
<g id="edge6" class="edge">
<title>Node6&#45;&gt;Node7</title>
<path fill="none" stroke="midnightblue" d="M489.58,-157.72C506.53,-167.37 527.51,-178.69 547,-187.5 553.89,-190.61 561.31,-193.63 568.61,-196.4"/>
<polygon fill="midnightblue" stroke="midnightblue" points="491.02,-154.52 480.61,-152.57 487.53,-160.59 491.02,-154.52"/>
</g>
<!-- Node8 -->
<g id="node8" class="node">
<title>Node8</title>
<g id="a_node8"><a xlink:href="classtriton_1_1exceptions_1_1PathManager.html" target="_top" xlink:title="The exception class used by the path manager.">
<polygon fill="white" stroke="black" points="563,-147.5 563,-177.5 665,-177.5 665,-147.5 563,-147.5"/>
<text text-anchor="start" x="571" y="-165.5" font-family="Helvetica,sans-Serif" font-size="10.00">triton::exceptions</text>
<text text-anchor="middle" x="614" y="-154.5" font-family="Helvetica,sans-Serif" font-size="10.00">::PathManager</text>
</a>
</g>
</g>
<!-- Node6&#45;&gt;Node8 -->
<g id="edge7" class="edge">
<title>Node6&#45;&gt;Node8</title>
<path fill="none" stroke="midnightblue" d="M515.82,-147.07C531.38,-149.54 547.96,-152.18 562.94,-154.55"/>
<polygon fill="midnightblue" stroke="midnightblue" points="516.19,-143.59 505.77,-145.48 515.09,-150.5 516.19,-143.59"/>
</g>
<!-- Node9 -->
<g id="node9" class="node">
<title>Node9</title>
<g id="a_node9"><a xlink:href="classtriton_1_1exceptions_1_1SymbolicExpression.html" target="_top" xlink:title="The exception class used by symbolic expressions.">
<polygon fill="white" stroke="black" points="553.5,-98.5 553.5,-128.5 674.5,-128.5 674.5,-98.5 553.5,-98.5"/>
<text text-anchor="start" x="561.5" y="-116.5" font-family="Helvetica,sans-Serif" font-size="10.00">triton::exceptions</text>
<text text-anchor="middle" x="614" y="-105.5" font-family="Helvetica,sans-Serif" font-size="10.00">::SymbolicExpression</text>
</a>
</g>
</g>
<!-- Node6&#45;&gt;Node9 -->
<g id="edge8" class="edge">
<title>Node6&#45;&gt;Node9</title>
<path fill="none" stroke="midnightblue" d="M515.9,-128.3C528.17,-126.43 541.06,-124.46 553.31,-122.6"/>
<polygon fill="midnightblue" stroke="midnightblue" points="515.13,-124.87 505.77,-129.84 516.18,-131.79 515.13,-124.87"/>
</g>
<!-- Node10 -->
<g id="node10" class="node">
<title>Node10</title>
<g id="a_node10"><a xlink:href="classtriton_1_1exceptions_1_1SymbolicSimplification.html" target="_top" xlink:title="The exception class used by symbolic simplifications.">
<polygon fill="white" stroke="black" points="547,-49.5 547,-79.5 681,-79.5 681,-49.5 547,-49.5"/>
<text text-anchor="start" x="555" y="-67.5" font-family="Helvetica,sans-Serif" font-size="10.00">triton::exceptions</text>
<text text-anchor="middle" x="614" y="-56.5" font-family="Helvetica,sans-Serif" font-size="10.00">::SymbolicSimplification</text>
</a>
</g>
</g>
<!-- Node6&#45;&gt;Node10 -->
<g id="edge9" class="edge">
<title>Node6&#45;&gt;Node10</title>
<path fill="none" stroke="midnightblue" d="M500.29,-118.1C503.95,-116.28 507.56,-114.4 511,-112.5 527.82,-103.19 529.84,-97.18 547,-88.5 553.31,-85.31 560.15,-82.33 566.95,-79.63"/>
<polygon fill="midnightblue" stroke="midnightblue" points="498.66,-115 491.16,-122.49 501.69,-121.31 498.66,-115"/>
</g>
<!-- Node11 -->
<g id="node11" class="node">
<title>Node11</title>
<g id="a_node11"><a xlink:href="classtriton_1_1exceptions_1_1SymbolicVariable.html" target="_top" xlink:title="The exception class used by symbolic variables.">
<polygon fill="white" stroke="black" points="560.5,-0.5 560.5,-30.5 667.5,-30.5 667.5,-0.5 560.5,-0.5"/>
<text text-anchor="start" x="568.5" y="-18.5" font-family="Helvetica,sans-Serif" font-size="10.00">triton::exceptions</text>
<text text-anchor="middle" x="614" y="-7.5" font-family="Helvetica,sans-Serif" font-size="10.00">::SymbolicVariable</text>
</a>
</g>
</g>
<!-- Node6&#45;&gt;Node11 -->
<g id="edge10" class="edge">
<title>Node6&#45;&gt;Node11</title>
<path fill="none" stroke="midnightblue" d="M505.87,-116.9C507.68,-115.52 509.39,-114.05 511,-112.5 537.02,-87.37 520.06,-63.64 547,-39.5 551,-35.92 555.57,-32.86 560.4,-30.25"/>
<polygon fill="midnightblue" stroke="midnightblue" points="503.92,-114 497.53,-122.45 507.79,-119.82 503.92,-114"/>
</g>
</g>
</svg>
