<?xml version="1.0" encoding="UTF-8" standalone="no"?>
<!DOCTYPE svg PUBLIC "-//W3C//DTD SVG 1.1//EN"
 "http://www.w3.org/Graphics/SVG/1.1/DTD/svg11.dtd">
<!-- Generated by graphviz version 2.50.0 (20211204.2007)
 -->
<!-- Title: /home/jonathan/Works/Tools/Triton/src/libtriton/arch/x86 Pages: 1 -->
<svg width="94pt" height="151pt"
 viewBox="0.00 0.00 94.00 151.00" xmlns="http://www.w3.org/2000/svg" xmlns:xlink="http://www.w3.org/1999/xlink">
<g id="graph0" class="graph" transform="scale(1 1) rotate(0) translate(4 147)">
<title>/home/jonathan/Works/Tools/Triton/src/libtriton/arch/x86</title>
<polygon fill="white" stroke="transparent" points="-4,4 -4,-147 90,-147 90,4 -4,4"/>
<g id="clust1" class="cluster">
<title>clusterdir_235acb633cc6470ffe7c474fd8c4964d</title>
<g id="a_clust1"><a xlink:href="dir_235acb633cc6470ffe7c474fd8c4964d.html" target="_top" xlink:title="arch">
<polygon fill="#edf0f7" stroke="#7f7f7f" stroke-dasharray="5,2" points="8,-64 8,-135 78,-135 78,-64 8,-64"/>
<text text-anchor="middle" x="43" y="-123" font-family="Helvetica,sans-Serif" font-size="10.00">arch</text>
</a>
</g>
</g>
<!-- dir_48c7881ef32601de7b15d1910fe1412e -->
<g id="node1" class="node">
<title>dir_48c7881ef32601de7b15d1910fe1412e</title>
<g id="a_node1"><a xlink:href="dir_48c7881ef32601de7b15d1910fe1412e.html" target="_top" xlink:title="x86">
<polygon fill="#edf0f7" stroke="#404040" stroke-width="2" points="70,-108 16,-108 16,-72 70,-72 70,-108"/>
<text text-anchor="middle" x="43" y="-87.5" font-family="Helvetica,sans-Serif" font-size="10.00">x86</text>
</a>
</g>
</g>
<!-- dir_0a436fc82d73b0b9b664d07557632391 -->
<g id="node2" class="node">
<title>dir_0a436fc82d73b0b9b664d07557632391</title>
<g id="a_node2"><a xlink:href="dir_0a436fc82d73b0b9b664d07557632391.html" target="_top" xlink:title="includes">
<polygon fill="none" stroke="red" stroke-dasharray="5,2" points="71.5,-36 14.5,-36 14.5,0 71.5,0 71.5,-36"/>
<text text-anchor="middle" x="43" y="-15.5" font-family="Helvetica,sans-Serif" font-size="10.00">includes</text>
</a>
</g>
</g>
<!-- dir_48c7881ef32601de7b15d1910fe1412e&#45;&gt;dir_0a436fc82d73b0b9b664d07557632391 -->
<g id="edge1" class="edge">
<title>dir_48c7881ef32601de7b15d1910fe1412e&#45;&gt;dir_0a436fc82d73b0b9b664d07557632391</title>
<path fill="none" stroke="black" d="M43,-71.7C43,-63.98 43,-54.71 43,-46.11"/>
<polygon fill="black" stroke="black" points="46.5,-46.1 43,-36.1 39.5,-46.1 46.5,-46.1"/>
<g id="a_edge1&#45;headlabel"><a xlink:href="dir_000029_000011.html" target="_top" xlink:title="24">
<text text-anchor="middle" x="49.34" y="-47.2" font-family="Helvetica,sans-Serif" font-size="10.00">24</text>
</a>
</g>
</g>
</g>
</svg>
