<?xml version="1.0" encoding="UTF-8" standalone="no"?>
<!DOCTYPE svg PUBLIC "-//W3C//DTD SVG 1.1//EN"
 "http://www.w3.org/Graphics/SVG/1.1/DTD/svg11.dtd">
<!-- Generated by graphviz version 2.50.0 (20211204.2007)
 -->
<!-- Title: /home/jonathan/Works/Tools/Triton/src/libtriton/engines/symbolic Pages: 1 -->
<svg width="102pt" height="151pt"
 viewBox="0.00 0.00 102.00 151.00" xmlns="http://www.w3.org/2000/svg" xmlns:xlink="http://www.w3.org/1999/xlink">
<g id="graph0" class="graph" transform="scale(1 1) rotate(0) translate(4 147)">
<title>/home/jonathan/Works/Tools/Triton/src/libtriton/engines/symbolic</title>
<polygon fill="white" stroke="transparent" points="-4,4 -4,-147 98,-147 98,4 -4,4"/>
<g id="clust1" class="cluster">
<title>clusterdir_8a4592047e397cc99d5435986dcaa724</title>
<g id="a_clust1"><a xlink:href="dir_8a4592047e397cc99d5435986dcaa724.html" target="_top" xlink:title="engines">
<polygon fill="#ddddee" stroke="black" points="8,-64 8,-135 86,-135 86,-64 8,-64"/>
<text text-anchor="middle" x="47" y="-123" font-family="Helvetica,sans-Serif" font-size="10.00">engines</text>
</a>
</g>
</g>
<!-- dir_5d163d56b379826e8b6fecbb4d2a5cde -->
<g id="node1" class="node">
<title>dir_5d163d56b379826e8b6fecbb4d2a5cde</title>
<g id="a_node1"><a xlink:href="dir_5d163d56b379826e8b6fecbb4d2a5cde.html" target="_top" xlink:title="symbolic">
<polygon fill="#eeeeff" stroke="black" points="77.5,-108 16.5,-108 16.5,-72 77.5,-72 77.5,-108"/>
<text text-anchor="middle" x="47" y="-87.5" font-family="Helvetica,sans-Serif" font-size="10.00">symbolic</text>
</a>
</g>
</g>
<!-- dir_0a436fc82d73b0b9b664d07557632391 -->
<g id="node2" class="node">
<title>dir_0a436fc82d73b0b9b664d07557632391</title>
<g id="a_node2"><a xlink:href="dir_0a436fc82d73b0b9b664d07557632391.html" target="_top" xlink:title="includes">
<polygon fill="white" stroke="red" points="75.5,-36 18.5,-36 18.5,0 75.5,0 75.5,-36"/>
<text text-anchor="middle" x="47" y="-15.5" font-family="Helvetica,sans-Serif" font-size="10.00">includes</text>
</a>
</g>
</g>
<!-- dir_5d163d56b379826e8b6fecbb4d2a5cde&#45;&gt;dir_0a436fc82d73b0b9b664d07557632391 -->
<g id="edge1" class="edge">
<title>dir_5d163d56b379826e8b6fecbb4d2a5cde&#45;&gt;dir_0a436fc82d73b0b9b664d07557632391</title>
<path fill="none" stroke="black" d="M47,-71.7C47,-63.98 47,-54.71 47,-46.11"/>
<polygon fill="black" stroke="black" points="50.5,-46.1 47,-36.1 43.5,-46.1 50.5,-46.1"/>
<g id="a_edge1&#45;headlabel"><a xlink:href="dir_000024_000027.html" target="_top" xlink:title="24">
<text text-anchor="middle" x="53.34" y="-47.2" font-family="Helvetica,sans-Serif" font-size="10.00">24</text>
</a>
</g>
</g>
</g>
</svg>
