<?xml version="1.0" encoding="UTF-8" standalone="no"?>
<!DOCTYPE svg PUBLIC "-//W3C//DTD SVG 1.1//EN"
 "http://www.w3.org/Graphics/SVG/1.1/DTD/svg11.dtd">
<!-- Generated by graphviz version 2.49.0 (20210828.1703)
 -->
<!-- Title: /home/jonathan/Works/Tools/Triton/src/libtriton/arch/arm Pages: 1 -->
<svg width="256pt" height="159pt"
 viewBox="0.00 0.00 256.00 159.00" xmlns="http://www.w3.org/2000/svg" xmlns:xlink="http://www.w3.org/1999/xlink">
<g id="graph0" class="graph" transform="scale(1 1) rotate(0) translate(4 155)">
<title>/home/jonathan/Works/Tools/Triton/src/libtriton/arch/arm</title>
<polygon fill="white" stroke="transparent" points="-4,4 -4,-155 252,-155 252,4 -4,4"/>
<g id="clust1" class="cluster">
<title>clusterdir_235acb633cc6470ffe7c474fd8c4964d</title>
<g id="a_clust1"><a xlink:href="dir_235acb633cc6470ffe7c474fd8c4964d.html" target="_top" xlink:title="arch">
<polygon fill="#ddddee" stroke="black" points="8,-56 8,-143 240,-143 240,-56 8,-56"/>
<text text-anchor="middle" x="124" y="-131" font-family="Helvetica,sans-Serif" font-size="10.00">arch</text>
</a>
</g>
</g>
<g id="clust2" class="cluster">
<title>clusterdir_de2d9f8b867f102cf90ad4c3c79c2731</title>
<g id="a_clust2"><a xlink:href="dir_de2d9f8b867f102cf90ad4c3c79c2731.html" target="_top">
<polygon fill="#eeeeff" stroke="black" points="16,-64 16,-116 232,-116 232,-64 16,-64"/>
</a>
</g>
</g>
<!-- dir_de2d9f8b867f102cf90ad4c3c79c2731 -->
<g id="node1" class="node">
<title>dir_de2d9f8b867f102cf90ad4c3c79c2731</title>
<text text-anchor="middle" x="197" y="-87.5" font-family="Helvetica,sans-Serif" font-size="10.00">arm</text>
</g>
<!-- dir_4aa19a62b7de3c5176507233e5312cd5 -->
<g id="node2" class="node">
<title>dir_4aa19a62b7de3c5176507233e5312cd5</title>
<g id="a_node2"><a xlink:href="dir_4aa19a62b7de3c5176507233e5312cd5.html" target="_top" xlink:title="aarch64">
<polygon fill="white" stroke="black" points="152,-108 96,-108 96,-72 152,-72 152,-108"/>
<text text-anchor="middle" x="124" y="-87.5" font-family="Helvetica,sans-Serif" font-size="10.00">aarch64</text>
</a>
</g>
</g>
<!-- dir_0a436fc82d73b0b9b664d07557632391 -->
<g id="node4" class="node">
<title>dir_0a436fc82d73b0b9b664d07557632391</title>
<g id="a_node4"><a xlink:href="dir_0a436fc82d73b0b9b664d07557632391.html" target="_top" xlink:title="includes">
<polygon fill="white" stroke="red" points="115.5,-36 58.5,-36 58.5,0 115.5,0 115.5,-36"/>
<text text-anchor="middle" x="87" y="-15.5" font-family="Helvetica,sans-Serif" font-size="10.00">includes</text>
</a>
</g>
</g>
<!-- dir_4aa19a62b7de3c5176507233e5312cd5&#45;&gt;dir_0a436fc82d73b0b9b664d07557632391 -->
<g id="edge1" class="edge">
<title>dir_4aa19a62b7de3c5176507233e5312cd5&#45;&gt;dir_0a436fc82d73b0b9b664d07557632391</title>
<path fill="none" stroke="black" d="M114.85,-71.7C110.6,-63.64 105.44,-53.89 100.73,-44.98"/>
<polygon fill="black" stroke="black" points="103.81,-43.31 96.04,-36.1 97.62,-46.58 103.81,-43.31"/>
<g id="a_edge1&#45;headlabel"><a xlink:href="dir_000005_000025.html" target="_top" xlink:title="16">
<text text-anchor="middle" x="108" y="-42.66" font-family="Helvetica,sans-Serif" font-size="10.00">16</text>
</a>
</g>
</g>
<!-- dir_b7e2342456b3263daf37e59003c794fb -->
<g id="node3" class="node">
<title>dir_b7e2342456b3263daf37e59003c794fb</title>
<g id="a_node3"><a xlink:href="dir_b7e2342456b3263daf37e59003c794fb.html" target="_top" xlink:title="arm32">
<polygon fill="white" stroke="black" points="78,-108 24,-108 24,-72 78,-72 78,-108"/>
<text text-anchor="middle" x="51" y="-87.5" font-family="Helvetica,sans-Serif" font-size="10.00">arm32</text>
</a>
</g>
</g>
<!-- dir_b7e2342456b3263daf37e59003c794fb&#45;&gt;dir_0a436fc82d73b0b9b664d07557632391 -->
<g id="edge2" class="edge">
<title>dir_b7e2342456b3263daf37e59003c794fb&#45;&gt;dir_0a436fc82d73b0b9b664d07557632391</title>
<path fill="none" stroke="black" d="M59.9,-71.7C64,-63.73 68.95,-54.1 73.49,-45.26"/>
<polygon fill="black" stroke="black" points="76.74,-46.6 78.2,-36.1 70.52,-43.4 76.74,-46.6"/>
<g id="a_edge2&#45;headlabel"><a xlink:href="dir_000006_000025.html" target="_top" xlink:title="18">
<text text-anchor="middle" x="77.62" y="-48.59" font-family="Helvetica,sans-Serif" font-size="10.00">18</text>
</a>
</g>
</g>
</g>
</svg>
