<?xml version="1.0" encoding="UTF-8" standalone="no"?>
<!DOCTYPE svg PUBLIC "-//W3C//DTD SVG 1.1//EN"
 "http://www.w3.org/Graphics/SVG/1.1/DTD/svg11.dtd">
<!-- Generated by graphviz version 2.50.0 (20211204.2007)
 -->
<!-- Title: /home/jonathan/Works/Tools/Triton/src/libtriton/arch/arm Pages: 1 -->
<svg width="256pt" height="159pt"
 viewBox="0.00 0.00 256.00 159.00" xmlns="http://www.w3.org/2000/svg" xmlns:xlink="http://www.w3.org/1999/xlink">
<g id="graph0" class="graph" transform="scale(1 1) rotate(0) translate(4 155)">
<title>/home/jonathan/Works/Tools/Triton/src/libtriton/arch/arm</title>
<polygon fill="white" stroke="transparent" points="-4,4 -4,-155 252,-155 252,4 -4,4"/>
<g id="clust1" class="cluster">
<title>clusterdir_235acb633cc6470ffe7c474fd8c4964d</title>
<g id="a_clust1"><a xlink:href="dir_235acb633cc6470ffe7c474fd8c4964d.html" target="_top" xlink:title="arch">
<polygon fill="#edf0f7" stroke="#7f7f7f" stroke-dasharray="5,2" points="8,-56 8,-143 240,-143 240,-56 8,-56"/>
<text text-anchor="middle" x="124" y="-131" font-family="Helvetica,sans-Serif" font-size="10.00">arch</text>
</a>
</g>
</g>
<g id="clust2" class="cluster">
<title>clusterdir_de2d9f8b867f102cf90ad4c3c79c2731</title>
<g id="a_clust2"><a xlink:href="dir_de2d9f8b867f102cf90ad4c3c79c2731.html" target="_top">
<polygon fill="#edf0f7" stroke="#404040" stroke-width="2" points="16,-64 16,-116 232,-116 232,-64 16,-64"/>
</a>
</g>
</g>
<!-- dir_de2d9f8b867f102cf90ad4c3c79c2731 -->
<g id="node1" class="node">
<title>dir_de2d9f8b867f102cf90ad4c3c79c2731</title>
<text text-anchor="middle" x="197" y="-87.5" font-family="Helvetica,sans-Serif" font-size="10.00">arm</text>
</g>
<!-- dir_0a436fc82d73b0b9b664d07557632391 -->
<g id="node4" class="node">
<title>dir_0a436fc82d73b0b9b664d07557632391</title>
<g id="a_node4"><a xlink:href="dir_0a436fc82d73b0b9b664d07557632391.html" target="_top" xlink:title="includes">
<polygon fill="none" stroke="red" stroke-dasharray="5,2" points="152.5,-36 95.5,-36 95.5,0 152.5,0 152.5,-36"/>
<text text-anchor="middle" x="124" y="-15.5" font-family="Helvetica,sans-Serif" font-size="10.00">includes</text>
</a>
</g>
</g>
<!-- dir_de2d9f8b867f102cf90ad4c3c79c2731&#45;&gt;dir_0a436fc82d73b0b9b664d07557632391 -->
<g id="edge1" class="edge">
<title>dir_de2d9f8b867f102cf90ad4c3c79c2731&#45;&gt;dir_0a436fc82d73b0b9b664d07557632391</title>
<path fill="none" stroke="black" d="M178.96,-71.7C169.94,-63.05 158.88,-52.45 149.06,-43.03"/>
<polygon fill="black" stroke="black" points="151.48,-40.5 141.84,-36.1 146.63,-45.55 151.48,-40.5"/>
<g id="a_edge1&#45;headlabel"><a xlink:href="dir_000002_000011.html" target="_top" xlink:title="37">
<text text-anchor="middle" x="156.04" y="-38.44" font-family="Helvetica,sans-Serif" font-size="10.00">37</text>
</a>
</g>
</g>
<!-- dir_4aa19a62b7de3c5176507233e5312cd5 -->
<g id="node2" class="node">
<title>dir_4aa19a62b7de3c5176507233e5312cd5</title>
<g id="a_node2"><a xlink:href="dir_4aa19a62b7de3c5176507233e5312cd5.html" target="_top" xlink:title="aarch64">
<polygon fill="#a2b4d6" stroke="#404040" points="152,-108 96,-108 96,-72 152,-72 152,-108"/>
<text text-anchor="middle" x="124" y="-87.5" font-family="Helvetica,sans-Serif" font-size="10.00">aarch64</text>
</a>
</g>
</g>
<!-- dir_4aa19a62b7de3c5176507233e5312cd5&#45;&gt;dir_0a436fc82d73b0b9b664d07557632391 -->
<g id="edge2" class="edge">
<title>dir_4aa19a62b7de3c5176507233e5312cd5&#45;&gt;dir_0a436fc82d73b0b9b664d07557632391</title>
<path fill="none" stroke="black" d="M124,-71.7C124,-63.98 124,-54.71 124,-46.11"/>
<polygon fill="black" stroke="black" points="127.5,-46.1 124,-36.1 120.5,-46.1 127.5,-46.1"/>
<g id="a_edge2&#45;headlabel"><a xlink:href="dir_000000_000011.html" target="_top" xlink:title="17">
<text text-anchor="middle" x="130.34" y="-47.2" font-family="Helvetica,sans-Serif" font-size="10.00">17</text>
</a>
</g>
</g>
<!-- dir_b7e2342456b3263daf37e59003c794fb -->
<g id="node3" class="node">
<title>dir_b7e2342456b3263daf37e59003c794fb</title>
<g id="a_node3"><a xlink:href="dir_b7e2342456b3263daf37e59003c794fb.html" target="_top" xlink:title="arm32">
<polygon fill="#a2b4d6" stroke="#404040" points="78,-108 24,-108 24,-72 78,-72 78,-108"/>
<text text-anchor="middle" x="51" y="-87.5" font-family="Helvetica,sans-Serif" font-size="10.00">arm32</text>
</a>
</g>
</g>
<!-- dir_b7e2342456b3263daf37e59003c794fb&#45;&gt;dir_0a436fc82d73b0b9b664d07557632391 -->
<g id="edge3" class="edge">
<title>dir_b7e2342456b3263daf37e59003c794fb&#45;&gt;dir_0a436fc82d73b0b9b664d07557632391</title>
<path fill="none" stroke="black" d="M69.04,-71.7C78.06,-63.05 89.12,-52.45 98.94,-43.03"/>
<polygon fill="black" stroke="black" points="101.37,-45.55 106.16,-36.1 96.52,-40.5 101.37,-45.55"/>
<g id="a_edge3&#45;headlabel"><a xlink:href="dir_000003_000011.html" target="_top" xlink:title="18">
<text text-anchor="middle" x="100.74" y="-47.59" font-family="Helvetica,sans-Serif" font-size="10.00">18</text>
</a>
</g>
</g>
</g>
</svg>
