<?xml version="1.0" encoding="UTF-8" standalone="no"?>
<!DOCTYPE svg PUBLIC "-//W3C//DTD SVG 1.1//EN"
 "http://www.w3.org/Graphics/SVG/1.1/DTD/svg11.dtd">
<!-- Generated by graphviz version 5.0.1 (20220820.1526)
 -->
<!-- Title: /home/jonathan/Works/Tools/Triton/src/libtriton/bindings Pages: 1 -->
<svg width="186pt" height="175pt"
 viewBox="0.00 0.00 186.00 175.00" xmlns="http://www.w3.org/2000/svg" xmlns:xlink="http://www.w3.org/1999/xlink">
<g id="graph0" class="graph" transform="scale(1 1) rotate(0) translate(4 171)">
<title>/home/jonathan/Works/Tools/Triton/src/libtriton/bindings</title>
<polygon fill="white" stroke="none" points="-4,4 -4,-171 182,-171 182,4 -4,4"/>
<g id="clust1" class="cluster">
<title>clusterdir_6826be0f3781bbf5456339e274d7c653</title>
<g id="a_clust1"><a xlink:href="dir_6826be0f3781bbf5456339e274d7c653.html" target="_top" xlink:title="libtriton">
<polygon fill="#edf0f7" stroke="#7f7f7f" stroke-dasharray="5,2" points="8,-8 8,-159 170,-159 170,-8 8,-8"/>
<text text-anchor="middle" x="89" y="-147" font-family="Helvetica,sans-Serif" font-size="10.00">libtriton</text>
</a>
</g>
</g>
<g id="clust2" class="cluster">
<title>clusterdir_98927eaed809121784a8363d998e0634</title>
<g id="a_clust2"><a xlink:href="dir_98927eaed809121784a8363d998e0634.html" target="_top">
<polygon fill="#edf0f7" stroke="#404040" stroke-width="2" points="16,-80 16,-132 162,-132 162,-80 16,-80"/>
</a>
</g>
</g>
<!-- dir_0a436fc82d73b0b9b664d07557632391 -->
<g id="node1" class="node">
<title>dir_0a436fc82d73b0b9b664d07557632391</title>
<g id="a_node1"><a xlink:href="dir_0a436fc82d73b0b9b664d07557632391.html" target="_top" xlink:title="includes">
<polygon fill="#a2b4d6" stroke="red" points="79.5,-52 22.5,-52 22.5,-16 79.5,-16 79.5,-52"/>
<text text-anchor="middle" x="51" y="-31.5" font-family="Helvetica,sans-Serif" font-size="10.00">includes</text>
</a>
</g>
</g>
<!-- dir_98927eaed809121784a8363d998e0634 -->
<g id="node2" class="node">
<title>dir_98927eaed809121784a8363d998e0634</title>
<text text-anchor="middle" x="125" y="-103.5" font-family="Helvetica,sans-Serif" font-size="10.00">bindings</text>
</g>
<!-- dir_cd620cc27d99cd5acee30f3194b95f5b -->
<g id="node3" class="node">
<title>dir_cd620cc27d99cd5acee30f3194b95f5b</title>
<g id="a_node3"><a xlink:href="dir_cd620cc27d99cd5acee30f3194b95f5b.html" target="_top" xlink:title="python">
<polygon fill="#a2b4d6" stroke="#404040" points="78,-124 24,-124 24,-88 78,-88 78,-124"/>
<text text-anchor="middle" x="51" y="-103.5" font-family="Helvetica,sans-Serif" font-size="10.00">python</text>
</a>
</g>
</g>
<!-- dir_cd620cc27d99cd5acee30f3194b95f5b&#45;&gt;dir_0a436fc82d73b0b9b664d07557632391 -->
<g id="edge1" class="edge">
<title>dir_cd620cc27d99cd5acee30f3194b95f5b&#45;&gt;dir_0a436fc82d73b0b9b664d07557632391</title>
<path fill="none" stroke="black" d="M51,-87.7C51,-79.98 51,-70.71 51,-62.11"/>
<polygon fill="black" stroke="black" points="54.5,-62.1 51,-52.1 47.5,-62.1 54.5,-62.1"/>
<g id="a_edge1&#45;headlabel"><a xlink:href="dir_000019_000011.html" target="_top" xlink:title="179">
<text text-anchor="middle" x="57.34" y="-63.2" font-family="Helvetica,sans-Serif" font-size="10.00">179</text>
</a>
</g>
</g>
</g>
</svg>
