<?xml version="1.0" encoding="UTF-8" standalone="no"?>
<!DOCTYPE svg PUBLIC "-//W3C//DTD SVG 1.1//EN"
 "http://www.w3.org/Graphics/SVG/1.1/DTD/svg11.dtd">
<!-- Generated by graphviz version 2.50.0 (20211204.2007)
 -->
<!-- Title: /home/jonathan/Works/Tools/Triton/src/libtriton/engines/solver Pages: 1 -->
<svg width="258pt" height="159pt"
 viewBox="0.00 0.00 258.00 159.00" xmlns="http://www.w3.org/2000/svg" xmlns:xlink="http://www.w3.org/1999/xlink">
<g id="graph0" class="graph" transform="scale(1 1) rotate(0) translate(4 155)">
<title>/home/jonathan/Works/Tools/Triton/src/libtriton/engines/solver</title>
<polygon fill="white" stroke="transparent" points="-4,4 -4,-155 254,-155 254,4 -4,4"/>
<g id="clust1" class="cluster">
<title>clusterdir_8a4592047e397cc99d5435986dcaa724</title>
<g id="a_clust1"><a xlink:href="dir_8a4592047e397cc99d5435986dcaa724.html" target="_top" xlink:title="engines">
<polygon fill="#ddddee" stroke="black" points="8,-56 8,-143 242,-143 242,-56 8,-56"/>
<text text-anchor="middle" x="125" y="-131" font-family="Helvetica,sans-Serif" font-size="10.00">engines</text>
</a>
</g>
</g>
<g id="clust2" class="cluster">
<title>clusterdir_6408307a4d2f537021d7a2dc6107b634</title>
<g id="a_clust2"><a xlink:href="dir_6408307a4d2f537021d7a2dc6107b634.html" target="_top">
<polygon fill="#eeeeff" stroke="black" points="16,-64 16,-116 234,-116 234,-64 16,-64"/>
</a>
</g>
</g>
<!-- dir_6408307a4d2f537021d7a2dc6107b634 -->
<g id="node1" class="node">
<title>dir_6408307a4d2f537021d7a2dc6107b634</title>
<text text-anchor="middle" x="199" y="-87.5" font-family="Helvetica,sans-Serif" font-size="10.00">solver</text>
</g>
<!-- dir_887c86795df9f579af54ead979efa8c2 -->
<g id="node2" class="node">
<title>dir_887c86795df9f579af54ead979efa8c2</title>
<g id="a_node2"><a xlink:href="dir_887c86795df9f579af54ead979efa8c2.html" target="_top" xlink:title="bitwuzla">
<polygon fill="white" stroke="black" points="154,-108 96,-108 96,-72 154,-72 154,-108"/>
<text text-anchor="middle" x="125" y="-87.5" font-family="Helvetica,sans-Serif" font-size="10.00">bitwuzla</text>
</a>
</g>
</g>
<!-- dir_0a436fc82d73b0b9b664d07557632391 -->
<g id="node4" class="node">
<title>dir_0a436fc82d73b0b9b664d07557632391</title>
<g id="a_node4"><a xlink:href="dir_0a436fc82d73b0b9b664d07557632391.html" target="_top" xlink:title="includes">
<polygon fill="white" stroke="red" points="116.5,-36 59.5,-36 59.5,0 116.5,0 116.5,-36"/>
<text text-anchor="middle" x="88" y="-15.5" font-family="Helvetica,sans-Serif" font-size="10.00">includes</text>
</a>
</g>
</g>
<!-- dir_887c86795df9f579af54ead979efa8c2&#45;&gt;dir_0a436fc82d73b0b9b664d07557632391 -->
<g id="edge2" class="edge">
<title>dir_887c86795df9f579af54ead979efa8c2&#45;&gt;dir_0a436fc82d73b0b9b664d07557632391</title>
<path fill="none" stroke="black" d="M115.85,-71.7C111.6,-63.64 106.44,-53.89 101.73,-44.98"/>
<polygon fill="black" stroke="black" points="104.81,-43.31 97.04,-36.1 98.62,-46.58 104.81,-43.31"/>
<g id="a_edge2&#45;headlabel"><a xlink:href="dir_000022_000027.html" target="_top" xlink:title="8">
<text text-anchor="middle" x="109" y="-42.66" font-family="Helvetica,sans-Serif" font-size="10.00">8</text>
</a>
</g>
</g>
<!-- dir_835eeac6bfe66384d9436a21936a908c -->
<g id="node3" class="node">
<title>dir_835eeac6bfe66384d9436a21936a908c</title>
<g id="a_node3"><a xlink:href="dir_835eeac6bfe66384d9436a21936a908c.html" target="_top" xlink:title="z3">
<polygon fill="white" stroke="black" points="78,-108 24,-108 24,-72 78,-72 78,-108"/>
<text text-anchor="middle" x="51" y="-87.5" font-family="Helvetica,sans-Serif" font-size="10.00">z3</text>
</a>
</g>
</g>
<!-- dir_835eeac6bfe66384d9436a21936a908c&#45;&gt;dir_0a436fc82d73b0b9b664d07557632391 -->
<g id="edge1" class="edge">
<title>dir_835eeac6bfe66384d9436a21936a908c&#45;&gt;dir_0a436fc82d73b0b9b664d07557632391</title>
<path fill="none" stroke="black" d="M60.15,-71.7C64.4,-63.64 69.56,-53.89 74.27,-44.98"/>
<polygon fill="black" stroke="black" points="77.38,-46.58 78.96,-36.1 71.19,-43.31 77.38,-46.58"/>
<g id="a_edge1&#45;headlabel"><a xlink:href="dir_000023_000027.html" target="_top" xlink:title="8">
<text text-anchor="middle" x="78.21" y="-48.59" font-family="Helvetica,sans-Serif" font-size="10.00">8</text>
</a>
</g>
</g>
</g>
</svg>
