<?xml version="1.0" encoding="UTF-8" standalone="no"?>
<!DOCTYPE svg PUBLIC "-//W3C//DTD SVG 1.1//EN"
 "http://www.w3.org/Graphics/SVG/1.1/DTD/svg11.dtd">
<!-- Generated by graphviz version 2.50.0 (20211204.2007)
 -->
<!-- Title: /home/jonathan/Works/Tools/Triton/src/libtriton/bindings/python Pages: 1 -->
<svg width="356pt" height="159pt"
 viewBox="0.00 0.00 356.00 159.00" xmlns="http://www.w3.org/2000/svg" xmlns:xlink="http://www.w3.org/1999/xlink">
<g id="graph0" class="graph" transform="scale(1 1) rotate(0) translate(4 155)">
<title>/home/jonathan/Works/Tools/Triton/src/libtriton/bindings/python</title>
<polygon fill="white" stroke="transparent" points="-4,4 -4,-155 352,-155 352,4 -4,4"/>
<g id="clust1" class="cluster">
<title>clusterdir_98927eaed809121784a8363d998e0634</title>
<g id="a_clust1"><a xlink:href="dir_98927eaed809121784a8363d998e0634.html" target="_top" xlink:title="bindings">
<polygon fill="#edf0f7" stroke="#7f7f7f" stroke-dasharray="5,2" points="8,-56 8,-143 340,-143 340,-56 8,-56"/>
<text text-anchor="middle" x="174" y="-131" font-family="Helvetica,sans-Serif" font-size="10.00">bindings</text>
</a>
</g>
</g>
<g id="clust2" class="cluster">
<title>clusterdir_cd620cc27d99cd5acee30f3194b95f5b</title>
<g id="a_clust2"><a xlink:href="dir_cd620cc27d99cd5acee30f3194b95f5b.html" target="_top">
<polygon fill="#edf0f7" stroke="#404040" stroke-width="2" points="16,-64 16,-116 332,-116 332,-64 16,-64"/>
</a>
</g>
</g>
<!-- dir_cd620cc27d99cd5acee30f3194b95f5b -->
<g id="node1" class="node">
<title>dir_cd620cc27d99cd5acee30f3194b95f5b</title>
<text text-anchor="middle" x="297" y="-87.5" font-family="Helvetica,sans-Serif" font-size="10.00">python</text>
</g>
<!-- dir_0a436fc82d73b0b9b664d07557632391 -->
<g id="node5" class="node">
<title>dir_0a436fc82d73b0b9b664d07557632391</title>
<g id="a_node5"><a xlink:href="dir_0a436fc82d73b0b9b664d07557632391.html" target="_top" xlink:title="includes">
<polygon fill="none" stroke="red" stroke-dasharray="5,2" points="206.5,-36 149.5,-36 149.5,0 206.5,0 206.5,-36"/>
<text text-anchor="middle" x="178" y="-15.5" font-family="Helvetica,sans-Serif" font-size="10.00">includes</text>
</a>
</g>
</g>
<!-- dir_cd620cc27d99cd5acee30f3194b95f5b&#45;&gt;dir_0a436fc82d73b0b9b664d07557632391 -->
<g id="edge1" class="edge">
<title>dir_cd620cc27d99cd5acee30f3194b95f5b&#45;&gt;dir_0a436fc82d73b0b9b664d07557632391</title>
<path fill="none" stroke="black" d="M280.37,-71.67C274.57,-66.22 267.81,-60.46 261,-56 247.15,-46.91 230.7,-39.06 216.11,-32.95"/>
<polygon fill="black" stroke="black" points="217.42,-29.7 206.84,-29.19 214.79,-36.19 217.42,-29.7"/>
<g id="a_edge1&#45;headlabel"><a xlink:href="dir_000019_000011.html" target="_top" xlink:title="175">
<text text-anchor="middle" x="221.82" y="-25.92" font-family="Helvetica,sans-Serif" font-size="10.00">175</text>
</a>
</g>
</g>
<!-- dir_e37cd7fdcd067a0bbedf29cf70ad6941 -->
<g id="node2" class="node">
<title>dir_e37cd7fdcd067a0bbedf29cf70ad6941</title>
<g id="a_node2"><a xlink:href="dir_e37cd7fdcd067a0bbedf29cf70ad6941.html" target="_top" xlink:title="modules">
<polygon fill="#a2b4d6" stroke="#404040" points="251.5,-108 192.5,-108 192.5,-72 251.5,-72 251.5,-108"/>
<text text-anchor="middle" x="222" y="-87.5" font-family="Helvetica,sans-Serif" font-size="10.00">modules</text>
</a>
</g>
</g>
<!-- dir_e37cd7fdcd067a0bbedf29cf70ad6941&#45;&gt;dir_0a436fc82d73b0b9b664d07557632391 -->
<g id="edge2" class="edge">
<title>dir_e37cd7fdcd067a0bbedf29cf70ad6941&#45;&gt;dir_0a436fc82d73b0b9b664d07557632391</title>
<path fill="none" stroke="black" d="M211.12,-71.7C206.01,-63.56 199.8,-53.69 194.16,-44.7"/>
<polygon fill="black" stroke="black" points="197.04,-42.71 188.75,-36.1 191.11,-46.43 197.04,-42.71"/>
<g id="a_edge2&#45;headlabel"><a xlink:href="dir_000016_000011.html" target="_top" xlink:title="10">
<text text-anchor="middle" x="201.35" y="-41.74" font-family="Helvetica,sans-Serif" font-size="10.00">10</text>
</a>
</g>
</g>
<!-- dir_d1e87563773564b0e9088e610360d41b -->
<g id="node3" class="node">
<title>dir_d1e87563773564b0e9088e610360d41b</title>
<g id="a_node3"><a xlink:href="dir_d1e87563773564b0e9088e610360d41b.html" target="_top" xlink:title="namespaces">
<polygon fill="#a2b4d6" stroke="#404040" points="174,-108 96,-108 96,-72 174,-72 174,-108"/>
<text text-anchor="middle" x="135" y="-87.5" font-family="Helvetica,sans-Serif" font-size="10.00">namespaces</text>
</a>
</g>
</g>
<!-- dir_d1e87563773564b0e9088e610360d41b&#45;&gt;dir_0a436fc82d73b0b9b664d07557632391 -->
<g id="edge3" class="edge">
<title>dir_d1e87563773564b0e9088e610360d41b&#45;&gt;dir_0a436fc82d73b0b9b664d07557632391</title>
<path fill="none" stroke="black" d="M145.63,-71.7C150.63,-63.56 156.69,-53.69 162.21,-44.7"/>
<polygon fill="black" stroke="black" points="165.24,-46.46 167.49,-36.1 159.28,-42.79 165.24,-46.46"/>
<g id="a_edge3&#45;headlabel"><a xlink:href="dir_000017_000011.html" target="_top" xlink:title="77">
<text text-anchor="middle" x="165.78" y="-48.51" font-family="Helvetica,sans-Serif" font-size="10.00">77</text>
</a>
</g>
</g>
<!-- dir_a836b05c41877907e0263a7c0401517f -->
<g id="node4" class="node">
<title>dir_a836b05c41877907e0263a7c0401517f</title>
<g id="a_node4"><a xlink:href="dir_a836b05c41877907e0263a7c0401517f.html" target="_top" xlink:title="objects">
<polygon fill="#a2b4d6" stroke="#404040" points="78,-108 24,-108 24,-72 78,-72 78,-108"/>
<text text-anchor="middle" x="51" y="-87.5" font-family="Helvetica,sans-Serif" font-size="10.00">objects</text>
</a>
</g>
</g>
<!-- dir_a836b05c41877907e0263a7c0401517f&#45;&gt;dir_0a436fc82d73b0b9b664d07557632391 -->
<g id="edge4" class="edge">
<title>dir_a836b05c41877907e0263a7c0401517f&#45;&gt;dir_0a436fc82d73b0b9b664d07557632391</title>
<path fill="none" stroke="black" d="M67.19,-71.88C73.06,-66.32 79.98,-60.44 87,-56 103.26,-45.71 122.87,-37.3 139.72,-31.12"/>
<polygon fill="black" stroke="black" points="141.01,-34.37 149.27,-27.73 138.67,-27.77 141.01,-34.37"/>
<g id="a_edge4&#45;headlabel"><a xlink:href="dir_000018_000011.html" target="_top" xlink:title="81">
<text text-anchor="middle" x="138.57" y="-35.75" font-family="Helvetica,sans-Serif" font-size="10.00">81</text>
</a>
</g>
</g>
</g>
</svg>
