<?xml version="1.0" encoding="UTF-8" standalone="no"?>
<!DOCTYPE svg PUBLIC "-//W3C//DTD SVG 1.1//EN"
 "http://www.w3.org/Graphics/SVG/1.1/DTD/svg11.dtd">
<!-- Generated by graphviz version 11.0.0 (20240428.1522)
 -->
<!-- Title: /Users/jonathan/Works/Tools/Triton/src/libtriton/engines Pages: 1 -->
<svg width="426pt" height="142pt"
 viewBox="0.00 0.00 426.00 141.75" xmlns="http://www.w3.org/2000/svg" xmlns:xlink="http://www.w3.org/1999/xlink">
<g id="graph0" class="graph" transform="scale(1 1) rotate(0) translate(4 137.75)">
<title>/Users/jonathan/Works/Tools/Triton/src/libtriton/engines</title>
<g id="clust1" class="cluster">
<title>clusterdir_6826be0f3781bbf5456339e274d7c653</title>
<g id="a_clust1"><a xlink:href="dir_6826be0f3781bbf5456339e274d7c653.html" xlink:title="libtriton">
<polygon fill="#edf0f7" stroke="#7f7f7f" stroke-dasharray="5,2" points="8,-8 8,-125.75 410,-125.75 410,-8 8,-8"/>
<text text-anchor="middle" x="209" y="-112.25" font-family="Helvetica,sans-Serif" font-size="10.00">libtriton</text>
</a>
</g>
</g>
<g id="clust2" class="cluster">
<title>clusterdir_8a4592047e397cc99d5435986dcaa724</title>
<g id="a_clust2"><a xlink:href="dir_8a4592047e397cc99d5435986dcaa724.html">
<polygon fill="#edf0f7" stroke="#404040" stroke-width="2" points="16,-63.25 16,-98.5 402,-98.5 402,-63.25 16,-63.25"/>
</a>
</g>
</g>
<!-- dir_0a436fc82d73b0b9b664d07557632391 -->
<g id="node1" class="node">
<title>dir_0a436fc82d73b0b9b664d07557632391</title>
<g id="a_node1"><a xlink:href="dir_0a436fc82d73b0b9b664d07557632391.html" xlink:title="includes">
<polygon fill="#a2b4d6" stroke="red" points="264,-35.25 212,-35.25 212,-16 264,-16 264,-35.25"/>
<text text-anchor="middle" x="238" y="-21.75" font-family="Helvetica,sans-Serif" font-size="10.00">includes</text>
</a>
</g>
</g>
<!-- dir_8a4592047e397cc99d5435986dcaa724 -->
<g id="node2" class="node">
<title>dir_8a4592047e397cc99d5435986dcaa724</title>
<text text-anchor="middle" x="49" y="-77" font-family="Helvetica,sans-Serif" font-size="10.00">engines</text>
</g>
<!-- dir_8da2d78c8d7e761d978a83b178e3b1f1 -->
<g id="node3" class="node">
<title>dir_8da2d78c8d7e761d978a83b178e3b1f1</title>
<g id="a_node3"><a xlink:href="dir_8da2d78c8d7e761d978a83b178e3b1f1.html" xlink:title="lifters">
<polygon fill="#a2b4d6" stroke="#404040" points="132,-90.5 92,-90.5 92,-71.25 132,-71.25 132,-90.5"/>
<text text-anchor="middle" x="112" y="-77" font-family="Helvetica,sans-Serif" font-size="10.00">lifters</text>
</a>
</g>
</g>
<!-- dir_8da2d78c8d7e761d978a83b178e3b1f1&#45;&gt;dir_0a436fc82d73b0b9b664d07557632391 -->
<g id="edge1" class="edge">
<title>dir_8da2d78c8d7e761d978a83b178e3b1f1&#45;&gt;dir_0a436fc82d73b0b9b664d07557632391</title>
<g id="a_edge1"><a xlink:href="dir_000013_000011.html">
<path fill="none" stroke="#63b8ff" d="M126.81,-70.78C131.29,-68.19 136.28,-65.48 141,-63.25 160.28,-54.16 182.48,-45.64 200.77,-39.11"/>
<polygon fill="#63b8ff" stroke="#63b8ff" points="201.89,-42.43 210.17,-35.81 199.57,-35.82 201.89,-42.43"/>
</a>
</g>
<g id="a_edge1&#45;headlabel"><a xlink:href="dir_000013_000011.html" xlink:title="13">
<text text-anchor="middle" x="200.86" y="-41.92" font-family="Helvetica,sans-Serif" font-size="10.00" fill="#63b8ff">13</text>
</a>
</g>
</g>
<!-- dir_6408307a4d2f537021d7a2dc6107b634 -->
<g id="node4" class="node">
<title>dir_6408307a4d2f537021d7a2dc6107b634</title>
<g id="a_node4"><a xlink:href="dir_6408307a4d2f537021d7a2dc6107b634.html" xlink:title="solver">
<polygon fill="#a2b4d6" stroke="#404040" points="192.12,-90.5 149.88,-90.5 149.88,-71.25 192.12,-71.25 192.12,-90.5"/>
<text text-anchor="middle" x="171" y="-77" font-family="Helvetica,sans-Serif" font-size="10.00">solver</text>
</a>
</g>
</g>
<!-- dir_6408307a4d2f537021d7a2dc6107b634&#45;&gt;dir_0a436fc82d73b0b9b664d07557632391 -->
<g id="edge2" class="edge">
<title>dir_6408307a4d2f537021d7a2dc6107b634&#45;&gt;dir_0a436fc82d73b0b9b664d07557632391</title>
<g id="a_edge2"><a xlink:href="dir_000022_000011.html">
<path fill="none" stroke="#63b8ff" d="M182.37,-70.84C192.05,-63.15 206.2,-51.9 217.81,-42.68"/>
<polygon fill="#63b8ff" stroke="#63b8ff" points="219.97,-45.43 225.62,-36.47 215.61,-39.95 219.97,-45.43"/>
</a>
</g>
<g id="a_edge2&#45;headlabel"><a xlink:href="dir_000022_000011.html" xlink:title="20">
<text text-anchor="middle" x="220.1" y="-45.07" font-family="Helvetica,sans-Serif" font-size="10.00" fill="#63b8ff">20</text>
</a>
</g>
</g>
<!-- dir_5d163d56b379826e8b6fecbb4d2a5cde -->
<g id="node5" class="node">
<title>dir_5d163d56b379826e8b6fecbb4d2a5cde</title>
<g id="a_node5"><a xlink:href="dir_5d163d56b379826e8b6fecbb4d2a5cde.html" xlink:title="symbolic">
<polygon fill="#a2b4d6" stroke="#404040" points="265.5,-90.5 210.5,-90.5 210.5,-71.25 265.5,-71.25 265.5,-90.5"/>
<text text-anchor="middle" x="238" y="-77" font-family="Helvetica,sans-Serif" font-size="10.00">symbolic</text>
</a>
</g>
</g>
<!-- dir_5d163d56b379826e8b6fecbb4d2a5cde&#45;&gt;dir_0a436fc82d73b0b9b664d07557632391 -->
<g id="edge3" class="edge">
<title>dir_5d163d56b379826e8b6fecbb4d2a5cde&#45;&gt;dir_0a436fc82d73b0b9b664d07557632391</title>
<g id="a_edge3"><a xlink:href="dir_000025_000011.html">
<path fill="none" stroke="#63b8ff" d="M238,-71.08C238,-64.57 238,-55.42 238,-47.12"/>
<polygon fill="#63b8ff" stroke="#63b8ff" points="241.5,-47.12 238,-37.12 234.5,-47.12 241.5,-47.12"/>
</a>
</g>
<g id="a_edge3&#45;headlabel"><a xlink:href="dir_000025_000011.html" xlink:title="26">
<text text-anchor="middle" x="244.34" y="-45.33" font-family="Helvetica,sans-Serif" font-size="10.00" fill="#63b8ff">26</text>
</a>
</g>
</g>
<!-- dir_43a78711b146eb135379d6e36f91985d -->
<g id="node6" class="node">
<title>dir_43a78711b146eb135379d6e36f91985d</title>
<g id="a_node6"><a xlink:href="dir_43a78711b146eb135379d6e36f91985d.html" xlink:title="synthesis">
<polygon fill="#a2b4d6" stroke="#404040" points="342,-90.5 284,-90.5 284,-71.25 342,-71.25 342,-90.5"/>
<text text-anchor="middle" x="313" y="-77" font-family="Helvetica,sans-Serif" font-size="10.00">synthesis</text>
</a>
</g>
</g>
<!-- dir_43a78711b146eb135379d6e36f91985d&#45;&gt;dir_0a436fc82d73b0b9b664d07557632391 -->
<g id="edge4" class="edge">
<title>dir_43a78711b146eb135379d6e36f91985d&#45;&gt;dir_0a436fc82d73b0b9b664d07557632391</title>
<g id="a_edge4"><a xlink:href="dir_000026_000011.html">
<path fill="none" stroke="#63b8ff" d="M300.28,-70.84C289.29,-63.04 273.16,-51.59 260.07,-42.29"/>
<polygon fill="#63b8ff" stroke="#63b8ff" points="262.2,-39.51 252.02,-36.58 258.15,-45.22 262.2,-39.51"/>
</a>
</g>
<g id="a_edge4&#45;headlabel"><a xlink:href="dir_000026_000011.html" xlink:title="8">
<text text-anchor="middle" x="265.54" y="-34.53" font-family="Helvetica,sans-Serif" font-size="10.00" fill="#63b8ff">8</text>
</a>
</g>
</g>
<!-- dir_f10a8ee7b670d86439d9b3dd80b1027c -->
<g id="node7" class="node">
<title>dir_f10a8ee7b670d86439d9b3dd80b1027c</title>
<g id="a_node7"><a xlink:href="dir_f10a8ee7b670d86439d9b3dd80b1027c.html" xlink:title="taint">
<polygon fill="#a2b4d6" stroke="#404040" points="394.38,-90.5 359.62,-90.5 359.62,-71.25 394.38,-71.25 394.38,-90.5"/>
<text text-anchor="middle" x="377" y="-77" font-family="Helvetica,sans-Serif" font-size="10.00">taint</text>
</a>
</g>
</g>
<!-- dir_f10a8ee7b670d86439d9b3dd80b1027c&#45;&gt;dir_0a436fc82d73b0b9b664d07557632391 -->
<g id="edge5" class="edge">
<title>dir_f10a8ee7b670d86439d9b3dd80b1027c&#45;&gt;dir_0a436fc82d73b0b9b664d07557632391</title>
<g id="a_edge5"><a xlink:href="dir_000027_000011.html">
<path fill="none" stroke="#63b8ff" d="M364.41,-70.91C360.27,-68.21 355.55,-65.4 351,-63.25 326.59,-51.72 297.6,-42.41 275.1,-36.06"/>
<polygon fill="#63b8ff" stroke="#63b8ff" points="276.33,-32.77 265.76,-33.5 274.48,-39.52 276.33,-32.77"/>
</a>
</g>
<g id="a_edge5&#45;headlabel"><a xlink:href="dir_000027_000011.html" xlink:title="2">
<text text-anchor="middle" x="279.09" y="-26.71" font-family="Helvetica,sans-Serif" font-size="10.00" fill="#63b8ff">2</text>
</a>
</g>
</g>
</g>
</svg>
