<?xml version="1.0" encoding="UTF-8" standalone="no"?>
<!DOCTYPE svg PUBLIC "-//W3C//DTD SVG 1.1//EN"
 "http://www.w3.org/Graphics/SVG/1.1/DTD/svg11.dtd">
<!-- Generated by graphviz version 11.0.0 (20240428.1522)
 -->
<!-- Title: /Users/jonathan/Works/Tools/Triton/src/libtriton Pages: 1 -->
<svg width="658pt" height="150pt"
 viewBox="0.00 0.00 658.00 149.75" xmlns="http://www.w3.org/2000/svg" xmlns:xlink="http://www.w3.org/1999/xlink">
<g id="graph0" class="graph" transform="scale(1 1) rotate(0) translate(4 145.75)">
<title>/Users/jonathan/Works/Tools/Triton/src/libtriton</title>
<g id="clust1" class="cluster">
<title>clusterdir_68267d1309a1af8e8297ef4c3efbcdba</title>
<g id="a_clust1"><a xlink:href="dir_68267d1309a1af8e8297ef4c3efbcdba.html" xlink:title="src">
<polygon fill="#edf0f7" stroke="#404040" stroke-dasharray="5,2" points="8,-8 8,-133.75 642,-133.75 642,-8 8,-8"/>
<text text-anchor="middle" x="325" y="-120.25" font-family="Helvetica,sans-Serif" font-size="10.00">src</text>
</a>
</g>
</g>
<g id="clust2" class="cluster">
<title>clusterdir_6826be0f3781bbf5456339e274d7c653</title>
<g id="a_clust2"><a xlink:href="dir_6826be0f3781bbf5456339e274d7c653.html">
<polygon fill="#edf0f7" stroke="#404040" stroke-width="2" points="16,-16 16,-106.5 634,-106.5 634,-16 16,-16"/>
</a>
</g>
</g>
<!-- dir_6826be0f3781bbf5456339e274d7c653 -->
<g id="node1" class="node">
<title>dir_6826be0f3781bbf5456339e274d7c653</title>
<text text-anchor="middle" x="48" y="-85" font-family="Helvetica,sans-Serif" font-size="10.00">libtriton</text>
</g>
<!-- dir_235acb633cc6470ffe7c474fd8c4964d -->
<g id="node2" class="node">
<title>dir_235acb633cc6470ffe7c474fd8c4964d</title>
<g id="a_node2"><a xlink:href="dir_235acb633cc6470ffe7c474fd8c4964d.html" xlink:title="arch">
<polygon fill="#a2b4d6" stroke="#404040" points="124.38,-98.5 89.62,-98.5 89.62,-79.25 124.38,-79.25 124.38,-98.5"/>
<text text-anchor="middle" x="107" y="-85" font-family="Helvetica,sans-Serif" font-size="10.00">arch</text>
</a>
</g>
</g>
<!-- dir_0a436fc82d73b0b9b664d07557632391 -->
<g id="node8" class="node">
<title>dir_0a436fc82d73b0b9b664d07557632391</title>
<g id="a_node8"><a xlink:href="dir_0a436fc82d73b0b9b664d07557632391.html" xlink:title="includes">
<polygon fill="#a2b4d6" stroke="#404040" points="386,-43.25 334,-43.25 334,-24 386,-24 386,-43.25"/>
<text text-anchor="middle" x="360" y="-29.75" font-family="Helvetica,sans-Serif" font-size="10.00">includes</text>
</a>
</g>
</g>
<!-- dir_235acb633cc6470ffe7c474fd8c4964d&#45;&gt;dir_0a436fc82d73b0b9b664d07557632391 -->
<g id="edge1" class="edge">
<title>dir_235acb633cc6470ffe7c474fd8c4964d&#45;&gt;dir_0a436fc82d73b0b9b664d07557632391</title>
<g id="a_edge1"><a xlink:href="dir_000001_000011.html">
<path fill="none" stroke="#63b8ff" d="M124.81,-81.64C127.54,-80.78 130.33,-79.95 133,-79.25 198.79,-61.95 276.88,-48.01 322.21,-40.55"/>
<polygon fill="#63b8ff" stroke="#63b8ff" points="322.74,-44.01 332.05,-38.95 321.61,-37.1 322.74,-44.01"/>
</a>
</g>
<g id="a_edge1&#45;headlabel"><a xlink:href="dir_000001_000011.html" xlink:title="123">
<text text-anchor="middle" x="321.14" y="-43.27" font-family="Helvetica,sans-Serif" font-size="10.00" fill="#63b8ff">123</text>
</a>
</g>
</g>
<!-- dir_d14ccd332cda101c5bd89ea0107f3ea8 -->
<g id="node3" class="node">
<title>dir_d14ccd332cda101c5bd89ea0107f3ea8</title>
<g id="a_node3"><a xlink:href="dir_d14ccd332cda101c5bd89ea0107f3ea8.html" xlink:title="ast">
<polygon fill="#a2b4d6" stroke="#404040" points="171.75,-98.5 142.25,-98.5 142.25,-79.25 171.75,-79.25 171.75,-98.5"/>
<text text-anchor="middle" x="157" y="-85" font-family="Helvetica,sans-Serif" font-size="10.00">ast</text>
</a>
</g>
</g>
<!-- dir_d14ccd332cda101c5bd89ea0107f3ea8&#45;&gt;dir_0a436fc82d73b0b9b664d07557632391 -->
<g id="edge2" class="edge">
<title>dir_d14ccd332cda101c5bd89ea0107f3ea8&#45;&gt;dir_0a436fc82d73b0b9b664d07557632391</title>
<g id="a_edge2"><a xlink:href="dir_000004_000011.html">
<path fill="none" stroke="#63b8ff" d="M172.16,-82.17C175.08,-81.14 178.12,-80.12 181,-79.25 229.4,-64.56 286.19,-51.02 322.61,-42.79"/>
<polygon fill="#63b8ff" stroke="#63b8ff" points="323.22,-46.24 332.21,-40.64 321.69,-39.41 323.22,-46.24"/>
</a>
</g>
<g id="a_edge2&#45;headlabel"><a xlink:href="dir_000004_000011.html" xlink:title="51">
<text text-anchor="middle" x="321.81" y="-45.59" font-family="Helvetica,sans-Serif" font-size="10.00" fill="#63b8ff">51</text>
</a>
</g>
</g>
<!-- dir_98927eaed809121784a8363d998e0634 -->
<g id="node4" class="node">
<title>dir_98927eaed809121784a8363d998e0634</title>
<g id="a_node4"><a xlink:href="dir_98927eaed809121784a8363d998e0634.html" xlink:title="bindings">
<polygon fill="#a2b4d6" stroke="#404040" points="242,-98.5 190,-98.5 190,-79.25 242,-79.25 242,-98.5"/>
<text text-anchor="middle" x="216" y="-85" font-family="Helvetica,sans-Serif" font-size="10.00">bindings</text>
</a>
</g>
</g>
<!-- dir_98927eaed809121784a8363d998e0634&#45;&gt;dir_0a436fc82d73b0b9b664d07557632391 -->
<g id="edge3" class="edge">
<title>dir_98927eaed809121784a8363d998e0634&#45;&gt;dir_0a436fc82d73b0b9b664d07557632391</title>
<g id="a_edge3"><a xlink:href="dir_000005_000011.html">
<path fill="none" stroke="#63b8ff" d="M240.43,-78.84C263.6,-70.27 298.66,-57.31 324.84,-47.63"/>
<polygon fill="#63b8ff" stroke="#63b8ff" points="325.87,-50.98 334.03,-44.23 323.44,-44.41 325.87,-50.98"/>
</a>
</g>
<g id="a_edge3&#45;headlabel"><a xlink:href="dir_000005_000011.html" xlink:title="179">
<text text-anchor="middle" x="324.9" y="-50.49" font-family="Helvetica,sans-Serif" font-size="10.00" fill="#63b8ff">179</text>
</a>
</g>
</g>
<!-- dir_83d70a19af91f0e0d5dc846a3f76a9c3 -->
<g id="node5" class="node">
<title>dir_83d70a19af91f0e0d5dc846a3f76a9c3</title>
<g id="a_node5"><a xlink:href="dir_83d70a19af91f0e0d5dc846a3f76a9c3.html" xlink:title="callbacks">
<polygon fill="#a2b4d6" stroke="#404040" points="317.62,-98.5 260.38,-98.5 260.38,-79.25 317.62,-79.25 317.62,-98.5"/>
<text text-anchor="middle" x="289" y="-85" font-family="Helvetica,sans-Serif" font-size="10.00">callbacks</text>
</a>
</g>
</g>
<!-- dir_83d70a19af91f0e0d5dc846a3f76a9c3&#45;&gt;dir_0a436fc82d73b0b9b664d07557632391 -->
<g id="edge4" class="edge">
<title>dir_83d70a19af91f0e0d5dc846a3f76a9c3&#45;&gt;dir_0a436fc82d73b0b9b664d07557632391</title>
<g id="a_edge4"><a xlink:href="dir_000008_000011.html">
<path fill="none" stroke="#63b8ff" d="M301.04,-78.84C311.41,-71.07 326.6,-59.67 338.97,-50.4"/>
<polygon fill="#63b8ff" stroke="#63b8ff" points="341.02,-53.23 346.92,-44.43 336.82,-47.63 341.02,-53.23"/>
</a>
</g>
<g id="a_edge4&#45;headlabel"><a xlink:href="dir_000008_000011.html" xlink:title="3">
<text text-anchor="middle" x="341.06" y="-52.88" font-family="Helvetica,sans-Serif" font-size="10.00" fill="#63b8ff">3</text>
</a>
</g>
</g>
<!-- dir_a9cb38f05bf5b7df0b60b77976959079 -->
<g id="node6" class="node">
<title>dir_a9cb38f05bf5b7df0b60b77976959079</title>
<g id="a_node6"><a xlink:href="dir_a9cb38f05bf5b7df0b60b77976959079.html" xlink:title="context">
<polygon fill="#a2b4d6" stroke="#404040" points="384.12,-98.5 335.88,-98.5 335.88,-79.25 384.12,-79.25 384.12,-98.5"/>
<text text-anchor="middle" x="360" y="-85" font-family="Helvetica,sans-Serif" font-size="10.00">context</text>
</a>
</g>
</g>
<!-- dir_a9cb38f05bf5b7df0b60b77976959079&#45;&gt;dir_0a436fc82d73b0b9b664d07557632391 -->
<g id="edge5" class="edge">
<title>dir_a9cb38f05bf5b7df0b60b77976959079&#45;&gt;dir_0a436fc82d73b0b9b664d07557632391</title>
<g id="a_edge5"><a xlink:href="dir_000009_000011.html">
<path fill="none" stroke="#63b8ff" d="M360,-79.08C360,-72.57 360,-63.42 360,-55.12"/>
<polygon fill="#63b8ff" stroke="#63b8ff" points="363.5,-55.12 360,-45.12 356.5,-55.12 363.5,-55.12"/>
</a>
</g>
<g id="a_edge5&#45;headlabel"><a xlink:href="dir_000009_000011.html" xlink:title="6">
<text text-anchor="middle" x="366.34" y="-53.33" font-family="Helvetica,sans-Serif" font-size="10.00" fill="#63b8ff">6</text>
</a>
</g>
</g>
<!-- dir_8a4592047e397cc99d5435986dcaa724 -->
<g id="node7" class="node">
<title>dir_8a4592047e397cc99d5435986dcaa724</title>
<g id="a_node7"><a xlink:href="dir_8a4592047e397cc99d5435986dcaa724.html" xlink:title="engines">
<polygon fill="#a2b4d6" stroke="#404040" points="451.88,-98.5 402.12,-98.5 402.12,-79.25 451.88,-79.25 451.88,-98.5"/>
<text text-anchor="middle" x="427" y="-85" font-family="Helvetica,sans-Serif" font-size="10.00">engines</text>
</a>
</g>
</g>
<!-- dir_8a4592047e397cc99d5435986dcaa724&#45;&gt;dir_0a436fc82d73b0b9b664d07557632391 -->
<g id="edge6" class="edge">
<title>dir_8a4592047e397cc99d5435986dcaa724&#45;&gt;dir_0a436fc82d73b0b9b664d07557632391</title>
<g id="a_edge6"><a xlink:href="dir_000010_000011.html">
<path fill="none" stroke="#63b8ff" d="M415.63,-78.84C405.95,-71.15 391.8,-59.9 380.19,-50.68"/>
<polygon fill="#63b8ff" stroke="#63b8ff" points="382.39,-47.95 372.38,-44.47 378.03,-53.43 382.39,-47.95"/>
</a>
</g>
<g id="a_edge6&#45;headlabel"><a xlink:href="dir_000010_000011.html" xlink:title="69">
<text text-anchor="middle" x="385.78" y="-43.15" font-family="Helvetica,sans-Serif" font-size="10.00" fill="#63b8ff">69</text>
</a>
</g>
</g>
<!-- dir_2ff66f8a2934c11b30f96f381801b861 -->
<g id="node9" class="node">
<title>dir_2ff66f8a2934c11b30f96f381801b861</title>
<g id="a_node9"><a xlink:href="dir_2ff66f8a2934c11b30f96f381801b861.html" xlink:title="modes">
<polygon fill="#a2b4d6" stroke="#404040" points="515.62,-98.5 470.38,-98.5 470.38,-79.25 515.62,-79.25 515.62,-98.5"/>
<text text-anchor="middle" x="493" y="-85" font-family="Helvetica,sans-Serif" font-size="10.00">modes</text>
</a>
</g>
</g>
<!-- dir_2ff66f8a2934c11b30f96f381801b861&#45;&gt;dir_0a436fc82d73b0b9b664d07557632391 -->
<g id="edge7" class="edge">
<title>dir_2ff66f8a2934c11b30f96f381801b861&#45;&gt;dir_0a436fc82d73b0b9b664d07557632391</title>
<g id="a_edge7"><a xlink:href="dir_000015_000011.html">
<path fill="none" stroke="#63b8ff" d="M470.44,-78.84C449.23,-70.35 417.23,-57.54 393.12,-47.89"/>
<polygon fill="#63b8ff" stroke="#63b8ff" points="394.66,-44.73 384.08,-44.27 392.06,-51.23 394.66,-44.73"/>
</a>
</g>
<g id="a_edge7&#45;headlabel"><a xlink:href="dir_000015_000011.html" xlink:title="1">
<text text-anchor="middle" x="397.65" y="-39" font-family="Helvetica,sans-Serif" font-size="10.00" fill="#63b8ff">1</text>
</a>
</g>
</g>
<!-- dir_705ef513716924990f9c269cf1898690 -->
<g id="node10" class="node">
<title>dir_705ef513716924990f9c269cf1898690</title>
<g id="a_node10"><a xlink:href="dir_705ef513716924990f9c269cf1898690.html" xlink:title="stubs">
<polygon fill="#a2b4d6" stroke="#404040" points="574,-98.5 534,-98.5 534,-79.25 574,-79.25 574,-98.5"/>
<text text-anchor="middle" x="554" y="-85" font-family="Helvetica,sans-Serif" font-size="10.00">stubs</text>
</a>
</g>
</g>
<!-- dir_705ef513716924990f9c269cf1898690&#45;&gt;dir_0a436fc82d73b0b9b664d07557632391 -->
<g id="edge8" class="edge">
<title>dir_705ef513716924990f9c269cf1898690&#45;&gt;dir_0a436fc82d73b0b9b664d07557632391</title>
<g id="a_edge8"><a xlink:href="dir_000024_000011.html">
<path fill="none" stroke="#63b8ff" d="M533.74,-81.78C530.81,-80.92 527.83,-80.05 525,-79.25 481.33,-66.85 430.94,-53.34 397.45,-44.47"/>
<polygon fill="#63b8ff" stroke="#63b8ff" points="398.37,-41.09 387.81,-41.92 396.58,-47.86 398.37,-41.09"/>
</a>
</g>
<g id="a_edge8&#45;headlabel"><a xlink:href="dir_000024_000011.html" xlink:title="4">
<text text-anchor="middle" x="401.11" y="-35" font-family="Helvetica,sans-Serif" font-size="10.00" fill="#63b8ff">4</text>
</a>
</g>
</g>
<!-- dir_e06c410a1143e7e2592e62d845214ab2 -->
<g id="node11" class="node">
<title>dir_e06c410a1143e7e2592e62d845214ab2</title>
<g id="a_node11"><a xlink:href="dir_e06c410a1143e7e2592e62d845214ab2.html" xlink:title="utils">
<polygon fill="#a2b4d6" stroke="#404040" points="626,-98.5 592,-98.5 592,-79.25 626,-79.25 626,-98.5"/>
<text text-anchor="middle" x="609" y="-85" font-family="Helvetica,sans-Serif" font-size="10.00">utils</text>
</a>
</g>
</g>
<!-- dir_e06c410a1143e7e2592e62d845214ab2&#45;&gt;dir_0a436fc82d73b0b9b664d07557632391 -->
<g id="edge9" class="edge">
<title>dir_e06c410a1143e7e2592e62d845214ab2&#45;&gt;dir_0a436fc82d73b0b9b664d07557632391</title>
<g id="a_edge9"><a xlink:href="dir_000029_000011.html">
<path fill="none" stroke="#63b8ff" d="M591.75,-81.82C588.85,-80.9 585.85,-80 583,-79.25 518.53,-62.18 442.06,-48.21 397.49,-40.68"/>
<polygon fill="#63b8ff" stroke="#63b8ff" points="398.26,-37.26 387.82,-39.06 397.11,-44.16 398.26,-37.26"/>
</a>
</g>
<g id="a_edge9&#45;headlabel"><a xlink:href="dir_000029_000011.html" xlink:title="2">
<text text-anchor="middle" x="400.78" y="-30.93" font-family="Helvetica,sans-Serif" font-size="10.00" fill="#63b8ff">2</text>
</a>
</g>
</g>
</g>
</svg>
