<?xml version="1.0" encoding="UTF-8" standalone="no"?>
<!DOCTYPE svg PUBLIC "-//W3C//DTD SVG 1.1//EN"
 "http://www.w3.org/Graphics/SVG/1.1/DTD/svg11.dtd">
<!-- Generated by graphviz version 7.0.0 (20221023.0053)
 -->
<!-- Title: /Users/jonathan/Works/Tools/Triton/src/libtriton/bindings/python Pages: 1 -->
<svg width="330pt" height="125pt"
 viewBox="0.00 0.00 330.00 125.00" xmlns="http://www.w3.org/2000/svg" xmlns:xlink="http://www.w3.org/1999/xlink">
<g id="graph0" class="graph" transform="scale(1 1) rotate(0) translate(4 121)">
<title>/Users/jonathan/Works/Tools/Triton/src/libtriton/bindings/python</title>
<g id="clust1" class="cluster">
<title>clusterdir_1c600c0f00cc98bc8f1f23fd42429b69</title>
<g id="a_clust1"><a xlink:href="dir_1c600c0f00cc98bc8f1f23fd42429b69.html" target="_top" xlink:title="bindings">
<polygon fill="#edf0f7" stroke="#7f7f7f" stroke-dasharray="5,2" points="8,-39 8,-109 314,-109 314,-39 8,-39"/>
<text text-anchor="middle" x="161" y="-97" font-family="Helvetica,sans-Serif" font-size="10.00">bindings</text>
</a>
</g>
</g>
<g id="clust2" class="cluster">
<title>clusterdir_93865de8b2701d7ab5888cbd92232a67</title>
<g id="a_clust2"><a xlink:href="dir_93865de8b2701d7ab5888cbd92232a67.html" target="_top">
<polygon fill="#edf0f7" stroke="#404040" stroke-width="2" points="16,-47 16,-82 306,-82 306,-47 16,-47"/>
</a>
</g>
</g>
<!-- dir_93865de8b2701d7ab5888cbd92232a67 -->
<g id="node1" class="node">
<title>dir_93865de8b2701d7ab5888cbd92232a67</title>
<text text-anchor="middle" x="275" y="-62" font-family="Helvetica,sans-Serif" font-size="10.00">python</text>
</g>
<!-- dir_f9d272ec16541780a187e9fc1e6dde2e -->
<g id="node5" class="node">
<title>dir_f9d272ec16541780a187e9fc1e6dde2e</title>
<g id="a_node5"><a xlink:href="dir_f9d272ec16541780a187e9fc1e6dde2e.html" target="_top" xlink:title="includes">
<polygon fill="#edf0f7" stroke="red" stroke-dasharray="5,2" points="192.5,-19 139.5,-19 139.5,0 192.5,0 192.5,-19"/>
<text text-anchor="middle" x="166" y="-7" font-family="Helvetica,sans-Serif" font-size="10.00">includes</text>
</a>
</g>
</g>
<!-- dir_93865de8b2701d7ab5888cbd92232a67&#45;&gt;dir_f9d272ec16541780a187e9fc1e6dde2e -->
<g id="edge1" class="edge">
<title>dir_93865de8b2701d7ab5888cbd92232a67&#45;&gt;dir_f9d272ec16541780a187e9fc1e6dde2e</title>
<path fill="none" stroke="#63b8ff" d="M265.72,-55.2C259.59,-50.03 251.21,-43.53 243,-39 230.74,-32.24 216.55,-26.47 203.72,-21.93"/>
<polygon fill="#63b8ff" stroke="#63b8ff" points="204.9,-18.63 194.31,-18.74 202.66,-25.26 204.9,-18.63"/>
<g id="a_edge1&#45;headlabel"><a xlink:href="dir_000019_000011.html" target="_top" xlink:title="179">
<text text-anchor="middle" x="207.78" y="-14.11" font-family="Helvetica,sans-Serif" font-size="10.00" fill="#63b8ff">179</text>
</a>
</g>
</g>
<!-- dir_0faf63740b12cb8175ef2ffbb528e33b -->
<g id="node2" class="node">
<title>dir_0faf63740b12cb8175ef2ffbb528e33b</title>
<g id="a_node2"><a xlink:href="dir_0faf63740b12cb8175ef2ffbb528e33b.html" target="_top" xlink:title="modules">
<polygon fill="#a2b4d6" stroke="#404040" points="233.5,-74 180.5,-74 180.5,-55 233.5,-55 233.5,-74"/>
<text text-anchor="middle" x="207" y="-62" font-family="Helvetica,sans-Serif" font-size="10.00">modules</text>
</a>
</g>
</g>
<!-- dir_0faf63740b12cb8175ef2ffbb528e33b&#45;&gt;dir_f9d272ec16541780a187e9fc1e6dde2e -->
<g id="edge2" class="edge">
<title>dir_0faf63740b12cb8175ef2ffbb528e33b&#45;&gt;dir_f9d272ec16541780a187e9fc1e6dde2e</title>
<path fill="none" stroke="#63b8ff" d="M200.23,-54.75C194.68,-47.58 186.66,-37.2 179.77,-28.3"/>
<polygon fill="#63b8ff" stroke="#63b8ff" points="182.73,-26.41 173.84,-20.64 177.19,-30.69 182.73,-26.41"/>
<g id="a_edge2&#45;headlabel"><a xlink:href="dir_000016_000011.html" target="_top" xlink:title="10">
<text text-anchor="middle" x="186.25" y="-23.82" font-family="Helvetica,sans-Serif" font-size="10.00" fill="#63b8ff">10</text>
</a>
</g>
</g>
<!-- dir_590f6833a928a4f4b9ae1400e7b6f584 -->
<g id="node3" class="node">
<title>dir_590f6833a928a4f4b9ae1400e7b6f584</title>
<g id="a_node3"><a xlink:href="dir_590f6833a928a4f4b9ae1400e7b6f584.html" target="_top" xlink:title="namespaces">
<polygon fill="#a2b4d6" stroke="#404040" points="162,-74 90,-74 90,-55 162,-55 162,-74"/>
<text text-anchor="middle" x="126" y="-62" font-family="Helvetica,sans-Serif" font-size="10.00">namespaces</text>
</a>
</g>
</g>
<!-- dir_590f6833a928a4f4b9ae1400e7b6f584&#45;&gt;dir_f9d272ec16541780a187e9fc1e6dde2e -->
<g id="edge3" class="edge">
<title>dir_590f6833a928a4f4b9ae1400e7b6f584&#45;&gt;dir_f9d272ec16541780a187e9fc1e6dde2e</title>
<path fill="none" stroke="#63b8ff" d="M132.61,-54.75C137.96,-47.66 145.68,-37.42 152.35,-28.59"/>
<polygon fill="#63b8ff" stroke="#63b8ff" points="155.11,-30.74 158.34,-20.65 149.52,-26.52 155.11,-30.74"/>
<g id="a_edge3&#45;headlabel"><a xlink:href="dir_000017_000011.html" target="_top" xlink:title="81">
<text text-anchor="middle" x="156.12" y="-31.61" font-family="Helvetica,sans-Serif" font-size="10.00" fill="#63b8ff">81</text>
</a>
</g>
</g>
<!-- dir_c4e62b013028ba6da36580a85ed9eb07 -->
<g id="node4" class="node">
<title>dir_c4e62b013028ba6da36580a85ed9eb07</title>
<g id="a_node4"><a xlink:href="dir_c4e62b013028ba6da36580a85ed9eb07.html" target="_top" xlink:title="objects">
<polygon fill="#a2b4d6" stroke="#404040" points="72,-74 24,-74 24,-55 72,-55 72,-74"/>
<text text-anchor="middle" x="48" y="-62" font-family="Helvetica,sans-Serif" font-size="10.00">objects</text>
</a>
</g>
</g>
<!-- dir_c4e62b013028ba6da36580a85ed9eb07&#45;&gt;dir_f9d272ec16541780a187e9fc1e6dde2e -->
<g id="edge4" class="edge">
<title>dir_c4e62b013028ba6da36580a85ed9eb07&#45;&gt;dir_f9d272ec16541780a187e9fc1e6dde2e</title>
<path fill="none" stroke="#63b8ff" d="M58.14,-54.66C64.4,-49.54 72.78,-43.29 81,-39 95.73,-31.31 112.96,-25.08 128.05,-20.42"/>
<polygon fill="#63b8ff" stroke="#63b8ff" points="129.03,-23.78 137.63,-17.6 127.05,-17.07 129.03,-23.78"/>
<g id="a_edge4&#45;headlabel"><a xlink:href="dir_000018_000011.html" target="_top" xlink:title="81">
<text text-anchor="middle" x="127.83" y="-24.59" font-family="Helvetica,sans-Serif" font-size="10.00" fill="#63b8ff">81</text>
</a>
</g>
</g>
</g>
</svg>
