<?xml version="1.0" encoding="UTF-8" standalone="no"?>
<!DOCTYPE svg PUBLIC "-//W3C//DTD SVG 1.1//EN"
 "http://www.w3.org/Graphics/SVG/1.1/DTD/svg11.dtd">
<!-- Generated by graphviz version 2.49.0 (20210828.1703)
 -->
<!-- Title: /home/jonathan/Works/Tools/Triton/src/libtriton/bindings/python Pages: 1 -->
<svg width="356pt" height="159pt"
 viewBox="0.00 0.00 356.00 159.00" xmlns="http://www.w3.org/2000/svg" xmlns:xlink="http://www.w3.org/1999/xlink">
<g id="graph0" class="graph" transform="scale(1 1) rotate(0) translate(4 155)">
<title>/home/jonathan/Works/Tools/Triton/src/libtriton/bindings/python</title>
<polygon fill="white" stroke="transparent" points="-4,4 -4,-155 352,-155 352,4 -4,4"/>
<g id="clust1" class="cluster">
<title>clusterdir_98927eaed809121784a8363d998e0634</title>
<g id="a_clust1"><a xlink:href="dir_98927eaed809121784a8363d998e0634.html" target="_top" xlink:title="bindings">
<polygon fill="#ddddee" stroke="black" points="8,-56 8,-143 340,-143 340,-56 8,-56"/>
<text text-anchor="middle" x="174" y="-131" font-family="Helvetica,sans-Serif" font-size="10.00">bindings</text>
</a>
</g>
</g>
<g id="clust2" class="cluster">
<title>clusterdir_cd620cc27d99cd5acee30f3194b95f5b</title>
<g id="a_clust2"><a xlink:href="dir_cd620cc27d99cd5acee30f3194b95f5b.html" target="_top">
<polygon fill="#eeeeff" stroke="black" points="16,-64 16,-116 332,-116 332,-64 16,-64"/>
</a>
</g>
</g>
<!-- dir_cd620cc27d99cd5acee30f3194b95f5b -->
<g id="node1" class="node">
<title>dir_cd620cc27d99cd5acee30f3194b95f5b</title>
<text text-anchor="middle" x="297" y="-87.5" font-family="Helvetica,sans-Serif" font-size="10.00">python</text>
</g>
<!-- dir_e37cd7fdcd067a0bbedf29cf70ad6941 -->
<g id="node2" class="node">
<title>dir_e37cd7fdcd067a0bbedf29cf70ad6941</title>
<g id="a_node2"><a xlink:href="dir_e37cd7fdcd067a0bbedf29cf70ad6941.html" target="_top" xlink:title="modules">
<polygon fill="white" stroke="black" points="251.5,-108 192.5,-108 192.5,-72 251.5,-72 251.5,-108"/>
<text text-anchor="middle" x="222" y="-87.5" font-family="Helvetica,sans-Serif" font-size="10.00">modules</text>
</a>
</g>
</g>
<!-- dir_0a436fc82d73b0b9b664d07557632391 -->
<g id="node5" class="node">
<title>dir_0a436fc82d73b0b9b664d07557632391</title>
<g id="a_node5"><a xlink:href="dir_0a436fc82d73b0b9b664d07557632391.html" target="_top" xlink:title="includes">
<polygon fill="white" stroke="red" points="163.5,-36 106.5,-36 106.5,0 163.5,0 163.5,-36"/>
<text text-anchor="middle" x="135" y="-15.5" font-family="Helvetica,sans-Serif" font-size="10.00">includes</text>
</a>
</g>
</g>
<!-- dir_e37cd7fdcd067a0bbedf29cf70ad6941&#45;&gt;dir_0a436fc82d73b0b9b664d07557632391 -->
<g id="edge1" class="edge">
<title>dir_e37cd7fdcd067a0bbedf29cf70ad6941&#45;&gt;dir_0a436fc82d73b0b9b664d07557632391</title>
<path fill="none" stroke="black" d="M201.9,-71.7C195.87,-66.58 189.21,-61.02 183,-56 177.5,-51.56 171.58,-46.9 165.84,-42.44"/>
<polygon fill="black" stroke="black" points="167.69,-39.45 157.63,-36.11 163.41,-44.99 167.69,-39.45"/>
<g id="a_edge1&#45;headlabel"><a xlink:href="dir_000014_000025.html" target="_top" xlink:title="9">
<text text-anchor="middle" x="172.27" y="-36.89" font-family="Helvetica,sans-Serif" font-size="10.00">9</text>
</a>
</g>
</g>
<!-- dir_d1e87563773564b0e9088e610360d41b -->
<g id="node3" class="node">
<title>dir_d1e87563773564b0e9088e610360d41b</title>
<g id="a_node3"><a xlink:href="dir_d1e87563773564b0e9088e610360d41b.html" target="_top" xlink:title="namespaces">
<polygon fill="white" stroke="black" points="174,-108 96,-108 96,-72 174,-72 174,-108"/>
<text text-anchor="middle" x="135" y="-87.5" font-family="Helvetica,sans-Serif" font-size="10.00">namespaces</text>
</a>
</g>
</g>
<!-- dir_d1e87563773564b0e9088e610360d41b&#45;&gt;dir_0a436fc82d73b0b9b664d07557632391 -->
<g id="edge3" class="edge">
<title>dir_d1e87563773564b0e9088e610360d41b&#45;&gt;dir_0a436fc82d73b0b9b664d07557632391</title>
<path fill="none" stroke="black" d="M135,-71.7C135,-63.98 135,-54.71 135,-46.11"/>
<polygon fill="black" stroke="black" points="138.5,-46.1 135,-36.1 131.5,-46.1 138.5,-46.1"/>
<g id="a_edge3&#45;headlabel"><a xlink:href="dir_000015_000025.html" target="_top" xlink:title="69">
<text text-anchor="middle" x="141.34" y="-47.2" font-family="Helvetica,sans-Serif" font-size="10.00">69</text>
</a>
</g>
</g>
<!-- dir_a836b05c41877907e0263a7c0401517f -->
<g id="node4" class="node">
<title>dir_a836b05c41877907e0263a7c0401517f</title>
<g id="a_node4"><a xlink:href="dir_a836b05c41877907e0263a7c0401517f.html" target="_top" xlink:title="objects">
<polygon fill="white" stroke="black" points="78,-108 24,-108 24,-72 78,-72 78,-108"/>
<text text-anchor="middle" x="51" y="-87.5" font-family="Helvetica,sans-Serif" font-size="10.00">objects</text>
</a>
</g>
</g>
<!-- dir_a836b05c41877907e0263a7c0401517f&#45;&gt;dir_0a436fc82d73b0b9b664d07557632391 -->
<g id="edge2" class="edge">
<title>dir_a836b05c41877907e0263a7c0401517f&#45;&gt;dir_0a436fc82d73b0b9b664d07557632391</title>
<path fill="none" stroke="black" d="M69.04,-71.9C74.7,-66.7 81.03,-61.02 87,-56 92.3,-51.54 98.05,-46.93 103.67,-42.53"/>
<polygon fill="black" stroke="black" points="105.96,-45.18 111.73,-36.3 101.68,-39.65 105.96,-45.18"/>
<g id="a_edge2&#45;headlabel"><a xlink:href="dir_000016_000025.html" target="_top" xlink:title="64">
<text text-anchor="middle" x="104.86" y="-47.13" font-family="Helvetica,sans-Serif" font-size="10.00">64</text>
</a>
</g>
</g>
</g>
</svg>
