<?xml version="1.0" encoding="UTF-8" standalone="no"?>
<!DOCTYPE svg PUBLIC "-//W3C//DTD SVG 1.1//EN"
 "http://www.w3.org/Graphics/SVG/1.1/DTD/svg11.dtd">
<!-- Generated by graphviz version 9.0.0 (20230911.1827)
 -->
<!-- Title: /Users/jonathan/Works/Tools/Triton/src/libtriton Pages: 1 -->
<svg width="658pt" height="150pt"
 viewBox="0.00 0.00 658.00 149.75" xmlns="http://www.w3.org/2000/svg" xmlns:xlink="http://www.w3.org/1999/xlink">
<g id="graph0" class="graph" transform="scale(1 1) rotate(0) translate(4 145.75)">
<title>/Users/jonathan/Works/Tools/Triton/src/libtriton</title>
<g id="clust1" class="cluster">
<title>clusterdir_68267d1309a1af8e8297ef4c3efbcdba</title>
<g id="a_clust1"><a xlink:href="dir_68267d1309a1af8e8297ef4c3efbcdba.html" target="_top" xlink:title="src">
<polygon fill="#edf0f7" stroke="#404040" stroke-dasharray="5,2" points="8,-8 8,-133.75 642,-133.75 642,-8 8,-8"/>
<text text-anchor="middle" x="325" y="-120.25" font-family="Helvetica,sans-Serif" font-size="10.00">src</text>
</a>
</g>
</g>
<g id="clust2" class="cluster">
<title>clusterdir_6826be0f3781bbf5456339e274d7c653</title>
<g id="a_clust2"><a xlink:href="dir_6826be0f3781bbf5456339e274d7c653.html" target="_top">
<polygon fill="#edf0f7" stroke="#404040" stroke-width="2" points="16,-16 16,-106.5 634,-106.5 634,-16 16,-16"/>
</a>
</g>
</g>
<!-- dir_6826be0f3781bbf5456339e274d7c653 -->
<g id="node1" class="node">
<title>dir_6826be0f3781bbf5456339e274d7c653</title>
<text text-anchor="middle" x="602" y="-85" font-family="Helvetica,sans-Serif" font-size="10.00">libtriton</text>
</g>
<!-- dir_235acb633cc6470ffe7c474fd8c4964d -->
<g id="node2" class="node">
<title>dir_235acb633cc6470ffe7c474fd8c4964d</title>
<g id="a_node2"><a xlink:href="dir_235acb633cc6470ffe7c474fd8c4964d.html" target="_top" xlink:title="arch">
<polygon fill="#a2b4d6" stroke="#404040" points="560.38,-98.5 525.62,-98.5 525.62,-79.25 560.38,-79.25 560.38,-98.5"/>
<text text-anchor="middle" x="543" y="-85" font-family="Helvetica,sans-Serif" font-size="10.00">arch</text>
</a>
</g>
</g>
<!-- dir_0a436fc82d73b0b9b664d07557632391 -->
<g id="node8" class="node">
<title>dir_0a436fc82d73b0b9b664d07557632391</title>
<g id="a_node8"><a xlink:href="dir_0a436fc82d73b0b9b664d07557632391.html" target="_top" xlink:title="includes">
<polygon fill="#a2b4d6" stroke="#404040" points="316,-43.25 264,-43.25 264,-24 316,-24 316,-43.25"/>
<text text-anchor="middle" x="290" y="-29.75" font-family="Helvetica,sans-Serif" font-size="10.00">includes</text>
</a>
</g>
</g>
<!-- dir_235acb633cc6470ffe7c474fd8c4964d&#45;&gt;dir_0a436fc82d73b0b9b664d07557632391 -->
<g id="edge1" class="edge">
<title>dir_235acb633cc6470ffe7c474fd8c4964d&#45;&gt;dir_0a436fc82d73b0b9b664d07557632391</title>
<g id="a_edge1"><a xlink:href="dir_000001_000011.html" target="_top">
<path fill="none" stroke="#63b8ff" d="M525.19,-81.64C522.46,-80.78 519.67,-79.95 517,-79.25 451.21,-61.95 373.12,-48.01 327.79,-40.55"/>
<polygon fill="#63b8ff" stroke="#63b8ff" points="328.39,-37.1 317.95,-38.95 327.26,-44.01 328.39,-37.1"/>
</a>
</g>
<g id="a_edge1&#45;headlabel"><a xlink:href="dir_000001_000011.html" target="_top" xlink:title="99">
<text text-anchor="middle" x="330.9" y="-30.76" font-family="Helvetica,sans-Serif" font-size="10.00" fill="#63b8ff">99</text>
</a>
</g>
</g>
<!-- dir_d14ccd332cda101c5bd89ea0107f3ea8 -->
<g id="node3" class="node">
<title>dir_d14ccd332cda101c5bd89ea0107f3ea8</title>
<g id="a_node3"><a xlink:href="dir_d14ccd332cda101c5bd89ea0107f3ea8.html" target="_top" xlink:title="ast">
<polygon fill="#a2b4d6" stroke="#404040" points="507.75,-98.5 478.25,-98.5 478.25,-79.25 507.75,-79.25 507.75,-98.5"/>
<text text-anchor="middle" x="493" y="-85" font-family="Helvetica,sans-Serif" font-size="10.00">ast</text>
</a>
</g>
</g>
<!-- dir_d14ccd332cda101c5bd89ea0107f3ea8&#45;&gt;dir_0a436fc82d73b0b9b664d07557632391 -->
<g id="edge2" class="edge">
<title>dir_d14ccd332cda101c5bd89ea0107f3ea8&#45;&gt;dir_0a436fc82d73b0b9b664d07557632391</title>
<g id="a_edge2"><a xlink:href="dir_000004_000011.html" target="_top">
<path fill="none" stroke="#63b8ff" d="M477.84,-82.17C474.92,-81.14 471.88,-80.12 469,-79.25 420.6,-64.56 363.81,-51.02 327.39,-42.79"/>
<polygon fill="#63b8ff" stroke="#63b8ff" points="328.31,-39.41 317.79,-40.64 326.78,-46.24 328.31,-39.41"/>
</a>
</g>
<g id="a_edge2&#45;headlabel"><a xlink:href="dir_000004_000011.html" target="_top" xlink:title="51">
<text text-anchor="middle" x="330.96" y="-33.22" font-family="Helvetica,sans-Serif" font-size="10.00" fill="#63b8ff">51</text>
</a>
</g>
</g>
<!-- dir_98927eaed809121784a8363d998e0634 -->
<g id="node4" class="node">
<title>dir_98927eaed809121784a8363d998e0634</title>
<g id="a_node4"><a xlink:href="dir_98927eaed809121784a8363d998e0634.html" target="_top" xlink:title="bindings">
<polygon fill="#a2b4d6" stroke="#404040" points="460,-98.5 408,-98.5 408,-79.25 460,-79.25 460,-98.5"/>
<text text-anchor="middle" x="434" y="-85" font-family="Helvetica,sans-Serif" font-size="10.00">bindings</text>
</a>
</g>
</g>
<!-- dir_98927eaed809121784a8363d998e0634&#45;&gt;dir_0a436fc82d73b0b9b664d07557632391 -->
<g id="edge3" class="edge">
<title>dir_98927eaed809121784a8363d998e0634&#45;&gt;dir_0a436fc82d73b0b9b664d07557632391</title>
<g id="a_edge3"><a xlink:href="dir_000005_000011.html" target="_top">
<path fill="none" stroke="#63b8ff" d="M409.57,-78.84C386.4,-70.27 351.34,-57.31 325.16,-47.63"/>
<polygon fill="#63b8ff" stroke="#63b8ff" points="326.56,-44.41 315.97,-44.23 324.13,-50.98 326.56,-44.41"/>
</a>
</g>
<g id="a_edge3&#45;headlabel"><a xlink:href="dir_000005_000011.html" target="_top" xlink:title="179">
<text text-anchor="middle" x="329.5" y="-38.6" font-family="Helvetica,sans-Serif" font-size="10.00" fill="#63b8ff">179</text>
</a>
</g>
</g>
<!-- dir_83d70a19af91f0e0d5dc846a3f76a9c3 -->
<g id="node5" class="node">
<title>dir_83d70a19af91f0e0d5dc846a3f76a9c3</title>
<g id="a_node5"><a xlink:href="dir_83d70a19af91f0e0d5dc846a3f76a9c3.html" target="_top" xlink:title="callbacks">
<polygon fill="#a2b4d6" stroke="#404040" points="389.62,-98.5 332.38,-98.5 332.38,-79.25 389.62,-79.25 389.62,-98.5"/>
<text text-anchor="middle" x="361" y="-85" font-family="Helvetica,sans-Serif" font-size="10.00">callbacks</text>
</a>
</g>
</g>
<!-- dir_83d70a19af91f0e0d5dc846a3f76a9c3&#45;&gt;dir_0a436fc82d73b0b9b664d07557632391 -->
<g id="edge4" class="edge">
<title>dir_83d70a19af91f0e0d5dc846a3f76a9c3&#45;&gt;dir_0a436fc82d73b0b9b664d07557632391</title>
<g id="a_edge4"><a xlink:href="dir_000008_000011.html" target="_top">
<path fill="none" stroke="#63b8ff" d="M348.96,-78.84C338.59,-71.07 323.4,-59.67 311.03,-50.4"/>
<polygon fill="#63b8ff" stroke="#63b8ff" points="313.18,-47.63 303.08,-44.43 308.98,-53.23 313.18,-47.63"/>
</a>
</g>
<g id="a_edge4&#45;headlabel"><a xlink:href="dir_000008_000011.html" target="_top" xlink:title="3">
<text text-anchor="middle" x="316.55" y="-42.74" font-family="Helvetica,sans-Serif" font-size="10.00" fill="#63b8ff">3</text>
</a>
</g>
</g>
<!-- dir_a9cb38f05bf5b7df0b60b77976959079 -->
<g id="node6" class="node">
<title>dir_a9cb38f05bf5b7df0b60b77976959079</title>
<g id="a_node6"><a xlink:href="dir_a9cb38f05bf5b7df0b60b77976959079.html" target="_top" xlink:title="context">
<polygon fill="#a2b4d6" stroke="#404040" points="314.12,-98.5 265.88,-98.5 265.88,-79.25 314.12,-79.25 314.12,-98.5"/>
<text text-anchor="middle" x="290" y="-85" font-family="Helvetica,sans-Serif" font-size="10.00">context</text>
</a>
</g>
</g>
<!-- dir_a9cb38f05bf5b7df0b60b77976959079&#45;&gt;dir_0a436fc82d73b0b9b664d07557632391 -->
<g id="edge5" class="edge">
<title>dir_a9cb38f05bf5b7df0b60b77976959079&#45;&gt;dir_0a436fc82d73b0b9b664d07557632391</title>
<g id="a_edge5"><a xlink:href="dir_000009_000011.html" target="_top">
<path fill="none" stroke="#63b8ff" d="M290,-79.08C290,-72.57 290,-63.42 290,-55.12"/>
<polygon fill="#63b8ff" stroke="#63b8ff" points="293.5,-55.12 290,-45.12 286.5,-55.12 293.5,-55.12"/>
</a>
</g>
<g id="a_edge5&#45;headlabel"><a xlink:href="dir_000009_000011.html" target="_top" xlink:title="6">
<text text-anchor="middle" x="296.34" y="-53.33" font-family="Helvetica,sans-Serif" font-size="10.00" fill="#63b8ff">6</text>
</a>
</g>
</g>
<!-- dir_8a4592047e397cc99d5435986dcaa724 -->
<g id="node7" class="node">
<title>dir_8a4592047e397cc99d5435986dcaa724</title>
<g id="a_node7"><a xlink:href="dir_8a4592047e397cc99d5435986dcaa724.html" target="_top" xlink:title="engines">
<polygon fill="#a2b4d6" stroke="#404040" points="247.88,-98.5 198.12,-98.5 198.12,-79.25 247.88,-79.25 247.88,-98.5"/>
<text text-anchor="middle" x="223" y="-85" font-family="Helvetica,sans-Serif" font-size="10.00">engines</text>
</a>
</g>
</g>
<!-- dir_8a4592047e397cc99d5435986dcaa724&#45;&gt;dir_0a436fc82d73b0b9b664d07557632391 -->
<g id="edge6" class="edge">
<title>dir_8a4592047e397cc99d5435986dcaa724&#45;&gt;dir_0a436fc82d73b0b9b664d07557632391</title>
<g id="a_edge6"><a xlink:href="dir_000010_000011.html" target="_top">
<path fill="none" stroke="#63b8ff" d="M234.37,-78.84C244.05,-71.15 258.2,-59.9 269.81,-50.68"/>
<polygon fill="#63b8ff" stroke="#63b8ff" points="271.97,-53.43 277.62,-44.47 267.61,-47.95 271.97,-53.43"/>
</a>
</g>
<g id="a_edge6&#45;headlabel"><a xlink:href="dir_000010_000011.html" target="_top" xlink:title="69">
<text text-anchor="middle" x="272.1" y="-53.07" font-family="Helvetica,sans-Serif" font-size="10.00" fill="#63b8ff">69</text>
</a>
</g>
</g>
<!-- dir_2ff66f8a2934c11b30f96f381801b861 -->
<g id="node9" class="node">
<title>dir_2ff66f8a2934c11b30f96f381801b861</title>
<g id="a_node9"><a xlink:href="dir_2ff66f8a2934c11b30f96f381801b861.html" target="_top" xlink:title="modes">
<polygon fill="#a2b4d6" stroke="#404040" points="179.62,-98.5 134.38,-98.5 134.38,-79.25 179.62,-79.25 179.62,-98.5"/>
<text text-anchor="middle" x="157" y="-85" font-family="Helvetica,sans-Serif" font-size="10.00">modes</text>
</a>
</g>
</g>
<!-- dir_2ff66f8a2934c11b30f96f381801b861&#45;&gt;dir_0a436fc82d73b0b9b664d07557632391 -->
<g id="edge7" class="edge">
<title>dir_2ff66f8a2934c11b30f96f381801b861&#45;&gt;dir_0a436fc82d73b0b9b664d07557632391</title>
<g id="a_edge7"><a xlink:href="dir_000015_000011.html" target="_top">
<path fill="none" stroke="#63b8ff" d="M179.56,-78.84C200.77,-70.35 232.77,-57.54 256.88,-47.89"/>
<polygon fill="#63b8ff" stroke="#63b8ff" points="257.94,-51.23 265.92,-44.27 255.34,-44.73 257.94,-51.23"/>
</a>
</g>
<g id="a_edge7&#45;headlabel"><a xlink:href="dir_000015_000011.html" target="_top" xlink:title="1">
<text text-anchor="middle" x="257.06" y="-50.77" font-family="Helvetica,sans-Serif" font-size="10.00" fill="#63b8ff">1</text>
</a>
</g>
</g>
<!-- dir_705ef513716924990f9c269cf1898690 -->
<g id="node10" class="node">
<title>dir_705ef513716924990f9c269cf1898690</title>
<g id="a_node10"><a xlink:href="dir_705ef513716924990f9c269cf1898690.html" target="_top" xlink:title="stubs">
<polygon fill="#a2b4d6" stroke="#404040" points="116,-98.5 76,-98.5 76,-79.25 116,-79.25 116,-98.5"/>
<text text-anchor="middle" x="96" y="-85" font-family="Helvetica,sans-Serif" font-size="10.00">stubs</text>
</a>
</g>
</g>
<!-- dir_705ef513716924990f9c269cf1898690&#45;&gt;dir_0a436fc82d73b0b9b664d07557632391 -->
<g id="edge8" class="edge">
<title>dir_705ef513716924990f9c269cf1898690&#45;&gt;dir_0a436fc82d73b0b9b664d07557632391</title>
<g id="a_edge8"><a xlink:href="dir_000023_000011.html" target="_top">
<path fill="none" stroke="#63b8ff" d="M116.26,-81.78C119.19,-80.92 122.17,-80.05 125,-79.25 168.67,-66.85 219.06,-53.34 252.55,-44.47"/>
<polygon fill="#63b8ff" stroke="#63b8ff" points="253.42,-47.86 262.19,-41.92 251.63,-41.09 253.42,-47.86"/>
</a>
</g>
<g id="a_edge8&#45;headlabel"><a xlink:href="dir_000023_000011.html" target="_top" xlink:title="4">
<text text-anchor="middle" x="252.13" y="-47.26" font-family="Helvetica,sans-Serif" font-size="10.00" fill="#63b8ff">4</text>
</a>
</g>
</g>
<!-- dir_e06c410a1143e7e2592e62d845214ab2 -->
<g id="node11" class="node">
<title>dir_e06c410a1143e7e2592e62d845214ab2</title>
<g id="a_node11"><a xlink:href="dir_e06c410a1143e7e2592e62d845214ab2.html" target="_top" xlink:title="utils">
<polygon fill="#a2b4d6" stroke="#404040" points="58,-98.5 24,-98.5 24,-79.25 58,-79.25 58,-98.5"/>
<text text-anchor="middle" x="41" y="-85" font-family="Helvetica,sans-Serif" font-size="10.00">utils</text>
</a>
</g>
</g>
<!-- dir_e06c410a1143e7e2592e62d845214ab2&#45;&gt;dir_0a436fc82d73b0b9b664d07557632391 -->
<g id="edge9" class="edge">
<title>dir_e06c410a1143e7e2592e62d845214ab2&#45;&gt;dir_0a436fc82d73b0b9b664d07557632391</title>
<g id="a_edge9"><a xlink:href="dir_000028_000011.html" target="_top">
<path fill="none" stroke="#63b8ff" d="M58.25,-81.82C61.15,-80.9 64.15,-80 67,-79.25 131.47,-62.18 207.94,-48.21 252.51,-40.68"/>
<polygon fill="#63b8ff" stroke="#63b8ff" points="252.89,-44.16 262.18,-39.06 251.74,-37.26 252.89,-44.16"/>
</a>
</g>
<g id="a_edge9&#45;headlabel"><a xlink:href="dir_000028_000011.html" target="_top" xlink:title="2">
<text text-anchor="middle" x="251.3" y="-43.43" font-family="Helvetica,sans-Serif" font-size="10.00" fill="#63b8ff">2</text>
</a>
</g>
</g>
</g>
</svg>
