<?xml version="1.0" encoding="UTF-8" standalone="no"?>
<!DOCTYPE svg PUBLIC "-//W3C//DTD SVG 1.1//EN"
 "http://www.w3.org/Graphics/SVG/1.1/DTD/svg11.dtd">
<!-- Generated by graphviz version 7.0.0 (20221023.0053)
 -->
<!-- Title: /Users/jonathan/Works/Tools/Triton/src/libtriton Pages: 1 -->
<svg width="667pt" height="149pt"
 viewBox="0.00 0.00 667.00 149.00" xmlns="http://www.w3.org/2000/svg" xmlns:xlink="http://www.w3.org/1999/xlink">
<g id="graph0" class="graph" transform="scale(1 1) rotate(0) translate(4 145)">
<title>/Users/jonathan/Works/Tools/Triton/src/libtriton</title>
<g id="clust1" class="cluster">
<title>clusterdir_e8f625632c5c8aa038d4ec93448b2fb7</title>
<g id="a_clust1"><a xlink:href="dir_e8f625632c5c8aa038d4ec93448b2fb7.html" target="_top" xlink:title="src">
<polygon fill="#edf0f7" stroke="#7f7f7f" stroke-dasharray="5,2" points="8,-8 8,-133 651,-133 651,-8 8,-8"/>
<text text-anchor="middle" x="329.5" y="-121" font-family="Helvetica,sans-Serif" font-size="10.00">src</text>
</a>
</g>
</g>
<g id="clust2" class="cluster">
<title>clusterdir_37d3c20575c22bcebdec4fca2de67aba</title>
<g id="a_clust2"><a xlink:href="dir_37d3c20575c22bcebdec4fca2de67aba.html" target="_top">
<polygon fill="#edf0f7" stroke="#404040" stroke-width="2" points="16,-16 16,-106 643,-106 643,-16 16,-16"/>
</a>
</g>
</g>
<!-- dir_37d3c20575c22bcebdec4fca2de67aba -->
<g id="node1" class="node">
<title>dir_37d3c20575c22bcebdec4fca2de67aba</title>
<text text-anchor="middle" x="611" y="-86" font-family="Helvetica,sans-Serif" font-size="10.00">libtriton</text>
</g>
<!-- dir_438c551635df427b50f3732e2af9bbb8 -->
<g id="node2" class="node">
<title>dir_438c551635df427b50f3732e2af9bbb8</title>
<g id="a_node2"><a xlink:href="dir_438c551635df427b50f3732e2af9bbb8.html" target="_top" xlink:title="arch">
<polygon fill="#a2b4d6" stroke="#404040" points="568.5,-98 533.5,-98 533.5,-79 568.5,-79 568.5,-98"/>
<text text-anchor="middle" x="551" y="-86" font-family="Helvetica,sans-Serif" font-size="10.00">arch</text>
</a>
</g>
</g>
<!-- dir_f9d272ec16541780a187e9fc1e6dde2e -->
<g id="node8" class="node">
<title>dir_f9d272ec16541780a187e9fc1e6dde2e</title>
<g id="a_node8"><a xlink:href="dir_f9d272ec16541780a187e9fc1e6dde2e.html" target="_top" xlink:title="includes">
<polygon fill="#a2b4d6" stroke="#404040" points="320.5,-43 267.5,-43 267.5,-24 320.5,-24 320.5,-43"/>
<text text-anchor="middle" x="294" y="-31" font-family="Helvetica,sans-Serif" font-size="10.00">includes</text>
</a>
</g>
</g>
<!-- dir_438c551635df427b50f3732e2af9bbb8&#45;&gt;dir_f9d272ec16541780a187e9fc1e6dde2e -->
<g id="edge1" class="edge">
<title>dir_438c551635df427b50f3732e2af9bbb8&#45;&gt;dir_f9d272ec16541780a187e9fc1e6dde2e</title>
<path fill="none" stroke="#63b8ff" d="M533.07,-81.54C530.06,-80.63 526.95,-79.75 524,-79 457.08,-62.05 377.8,-48.02 331.96,-40.48"/>
<polygon fill="#63b8ff" stroke="#63b8ff" points="332.71,-37.06 322.27,-38.91 331.58,-43.97 332.71,-37.06"/>
<g id="a_edge1&#45;headlabel"><a xlink:href="dir_000001_000011.html" target="_top" xlink:title="99">
<text text-anchor="middle" x="335.22" y="-32.09" font-family="Helvetica,sans-Serif" font-size="10.00" fill="#63b8ff">99</text>
</a>
</g>
</g>
<!-- dir_ca1fc8bb7cf76268465e0c4bba54c74a -->
<g id="node3" class="node">
<title>dir_ca1fc8bb7cf76268465e0c4bba54c74a</title>
<g id="a_node3"><a xlink:href="dir_ca1fc8bb7cf76268465e0c4bba54c74a.html" target="_top" xlink:title="ast">
<polygon fill="#a2b4d6" stroke="#404040" points="515,-98 485,-98 485,-79 515,-79 515,-98"/>
<text text-anchor="middle" x="500" y="-86" font-family="Helvetica,sans-Serif" font-size="10.00">ast</text>
</a>
</g>
</g>
<!-- dir_ca1fc8bb7cf76268465e0c4bba54c74a&#45;&gt;dir_f9d272ec16541780a187e9fc1e6dde2e -->
<g id="edge2" class="edge">
<title>dir_ca1fc8bb7cf76268465e0c4bba54c74a&#45;&gt;dir_f9d272ec16541780a187e9fc1e6dde2e</title>
<path fill="none" stroke="#63b8ff" d="M484.58,-81.78C481.74,-80.8 478.8,-79.83 476,-79 426.57,-64.24 368.53,-50.69 331.53,-42.52"/>
<polygon fill="#63b8ff" stroke="#63b8ff" points="332.75,-39.2 322.23,-40.48 331.25,-46.04 332.75,-39.2"/>
<g id="a_edge2&#45;headlabel"><a xlink:href="dir_000004_000011.html" target="_top" xlink:title="51">
<text text-anchor="middle" x="335.39" y="-34.37" font-family="Helvetica,sans-Serif" font-size="10.00" fill="#63b8ff">51</text>
</a>
</g>
</g>
<!-- dir_1c600c0f00cc98bc8f1f23fd42429b69 -->
<g id="node4" class="node">
<title>dir_1c600c0f00cc98bc8f1f23fd42429b69</title>
<g id="a_node4"><a xlink:href="dir_1c600c0f00cc98bc8f1f23fd42429b69.html" target="_top" xlink:title="bindings">
<polygon fill="#a2b4d6" stroke="#404040" points="466.5,-98 413.5,-98 413.5,-79 466.5,-79 466.5,-98"/>
<text text-anchor="middle" x="440" y="-86" font-family="Helvetica,sans-Serif" font-size="10.00">bindings</text>
</a>
</g>
</g>
<!-- dir_1c600c0f00cc98bc8f1f23fd42429b69&#45;&gt;dir_f9d272ec16541780a187e9fc1e6dde2e -->
<g id="edge3" class="edge">
<title>dir_1c600c0f00cc98bc8f1f23fd42429b69&#45;&gt;dir_f9d272ec16541780a187e9fc1e6dde2e</title>
<path fill="none" stroke="#63b8ff" d="M415.23,-78.51C391.6,-69.93 355.76,-56.92 329.17,-47.27"/>
<polygon fill="#63b8ff" stroke="#63b8ff" points="330.42,-44 319.82,-43.87 328.03,-50.58 330.42,-44"/>
<g id="a_edge3&#45;headlabel"><a xlink:href="dir_000005_000011.html" target="_top" xlink:title="179">
<text text-anchor="middle" x="333.34" y="-39.54" font-family="Helvetica,sans-Serif" font-size="10.00" fill="#63b8ff">179</text>
</a>
</g>
</g>
<!-- dir_15c049750ec39e68a2db883d2ce2b96c -->
<g id="node5" class="node">
<title>dir_15c049750ec39e68a2db883d2ce2b96c</title>
<g id="a_node5"><a xlink:href="dir_15c049750ec39e68a2db883d2ce2b96c.html" target="_top" xlink:title="callbacks">
<polygon fill="#a2b4d6" stroke="#404040" points="395,-98 337,-98 337,-79 395,-79 395,-98"/>
<text text-anchor="middle" x="366" y="-86" font-family="Helvetica,sans-Serif" font-size="10.00">callbacks</text>
</a>
</g>
</g>
<!-- dir_15c049750ec39e68a2db883d2ce2b96c&#45;&gt;dir_f9d272ec16541780a187e9fc1e6dde2e -->
<g id="edge4" class="edge">
<title>dir_15c049750ec39e68a2db883d2ce2b96c&#45;&gt;dir_f9d272ec16541780a187e9fc1e6dde2e</title>
<path fill="none" stroke="#63b8ff" d="M353.79,-78.51C343.17,-70.7 327.56,-59.21 314.96,-49.93"/>
<polygon fill="#63b8ff" stroke="#63b8ff" points="317.38,-47.36 307.25,-44.26 313.23,-53 317.38,-47.36"/>
<g id="a_edge4&#45;headlabel"><a xlink:href="dir_000008_000011.html" target="_top" xlink:title="3">
<text text-anchor="middle" x="320.74" y="-43.81" font-family="Helvetica,sans-Serif" font-size="10.00" fill="#63b8ff">3</text>
</a>
</g>
</g>
<!-- dir_ea5467dba07857ac70344f79cec2d099 -->
<g id="node6" class="node">
<title>dir_ea5467dba07857ac70344f79cec2d099</title>
<g id="a_node6"><a xlink:href="dir_ea5467dba07857ac70344f79cec2d099.html" target="_top" xlink:title="context">
<polygon fill="#a2b4d6" stroke="#404040" points="318.5,-98 269.5,-98 269.5,-79 318.5,-79 318.5,-98"/>
<text text-anchor="middle" x="294" y="-86" font-family="Helvetica,sans-Serif" font-size="10.00">context</text>
</a>
</g>
</g>
<!-- dir_ea5467dba07857ac70344f79cec2d099&#45;&gt;dir_f9d272ec16541780a187e9fc1e6dde2e -->
<g id="edge5" class="edge">
<title>dir_ea5467dba07857ac70344f79cec2d099&#45;&gt;dir_f9d272ec16541780a187e9fc1e6dde2e</title>
<path fill="none" stroke="#63b8ff" d="M294,-78.75C294,-72.27 294,-63.16 294,-54.9"/>
<polygon fill="#63b8ff" stroke="#63b8ff" points="297.5,-54.96 294,-44.96 290.5,-54.96 297.5,-54.96"/>
<g id="a_edge5&#45;headlabel"><a xlink:href="dir_000009_000011.html" target="_top" xlink:title="6">
<text text-anchor="middle" x="300.34" y="-54.54" font-family="Helvetica,sans-Serif" font-size="10.00" fill="#63b8ff">6</text>
</a>
</g>
</g>
<!-- dir_fb48f4b932ca139b3874979a79920170 -->
<g id="node7" class="node">
<title>dir_fb48f4b932ca139b3874979a79920170</title>
<g id="a_node7"><a xlink:href="dir_fb48f4b932ca139b3874979a79920170.html" target="_top" xlink:title="engines">
<polygon fill="#a2b4d6" stroke="#404040" points="251,-98 201,-98 201,-79 251,-79 251,-98"/>
<text text-anchor="middle" x="226" y="-86" font-family="Helvetica,sans-Serif" font-size="10.00">engines</text>
</a>
</g>
</g>
<!-- dir_fb48f4b932ca139b3874979a79920170&#45;&gt;dir_f9d272ec16541780a187e9fc1e6dde2e -->
<g id="edge6" class="edge">
<title>dir_fb48f4b932ca139b3874979a79920170&#45;&gt;dir_f9d272ec16541780a187e9fc1e6dde2e</title>
<path fill="none" stroke="#63b8ff" d="M237.54,-78.51C247.46,-70.77 262.01,-59.43 273.86,-50.2"/>
<polygon fill="#63b8ff" stroke="#63b8ff" points="275.71,-53.2 281.44,-44.29 271.4,-47.68 275.71,-53.2"/>
<g id="a_edge6&#45;headlabel"><a xlink:href="dir_000010_000011.html" target="_top" xlink:title="69">
<text text-anchor="middle" x="275.81" y="-54.22" font-family="Helvetica,sans-Serif" font-size="10.00" fill="#63b8ff">69</text>
</a>
</g>
</g>
<!-- dir_2f405cdf1ae8a4e330134df48d8a8221 -->
<g id="node9" class="node">
<title>dir_2f405cdf1ae8a4e330134df48d8a8221</title>
<g id="a_node9"><a xlink:href="dir_2f405cdf1ae8a4e330134df48d8a8221.html" target="_top" xlink:title="modes">
<polygon fill="#a2b4d6" stroke="#404040" points="183,-98 137,-98 137,-79 183,-79 183,-98"/>
<text text-anchor="middle" x="160" y="-86" font-family="Helvetica,sans-Serif" font-size="10.00">modes</text>
</a>
</g>
</g>
<!-- dir_2f405cdf1ae8a4e330134df48d8a8221&#45;&gt;dir_f9d272ec16541780a187e9fc1e6dde2e -->
<g id="edge7" class="edge">
<title>dir_2f405cdf1ae8a4e330134df48d8a8221&#45;&gt;dir_f9d272ec16541780a187e9fc1e6dde2e</title>
<path fill="none" stroke="#63b8ff" d="M182.73,-78.51C204.23,-70.01 236.73,-57.15 261.07,-47.53"/>
<polygon fill="#63b8ff" stroke="#63b8ff" points="262.19,-50.85 270.2,-43.91 259.61,-44.34 262.19,-50.85"/>
<g id="a_edge7&#45;headlabel"><a xlink:href="dir_000015_000011.html" target="_top" xlink:title="1">
<text text-anchor="middle" x="261.29" y="-51.75" font-family="Helvetica,sans-Serif" font-size="10.00" fill="#63b8ff">1</text>
</a>
</g>
</g>
<!-- dir_654eddf29a811c683ad154c8f7eab4e6 -->
<g id="node10" class="node">
<title>dir_654eddf29a811c683ad154c8f7eab4e6</title>
<g id="a_node10"><a xlink:href="dir_654eddf29a811c683ad154c8f7eab4e6.html" target="_top" xlink:title="stubs">
<polygon fill="#a2b4d6" stroke="#404040" points="118.5,-98 77.5,-98 77.5,-79 118.5,-79 118.5,-98"/>
<text text-anchor="middle" x="98" y="-86" font-family="Helvetica,sans-Serif" font-size="10.00">stubs</text>
</a>
</g>
</g>
<!-- dir_654eddf29a811c683ad154c8f7eab4e6&#45;&gt;dir_f9d272ec16541780a187e9fc1e6dde2e -->
<g id="edge8" class="edge">
<title>dir_654eddf29a811c683ad154c8f7eab4e6&#45;&gt;dir_f9d272ec16541780a187e9fc1e6dde2e</title>
<path fill="none" stroke="#63b8ff" d="M118.97,-81.52C122,-80.67 125.08,-79.81 128,-79 172.06,-66.85 222.83,-53.31 256.5,-44.39"/>
<polygon fill="#63b8ff" stroke="#63b8ff" points="256.99,-47.88 265.77,-41.94 255.2,-41.11 256.99,-47.88"/>
<g id="a_edge8&#45;headlabel"><a xlink:href="dir_000023_000011.html" target="_top" xlink:title="4">
<text text-anchor="middle" x="255.71" y="-48.66" font-family="Helvetica,sans-Serif" font-size="10.00" fill="#63b8ff">4</text>
</a>
</g>
</g>
<!-- dir_d491d2236351b40be875368508a3419d -->
<g id="node11" class="node">
<title>dir_d491d2236351b40be875368508a3419d</title>
<g id="a_node11"><a xlink:href="dir_d491d2236351b40be875368508a3419d.html" target="_top" xlink:title="utils">
<polygon fill="#a2b4d6" stroke="#404040" points="59.5,-98 24.5,-98 24.5,-79 59.5,-79 59.5,-98"/>
<text text-anchor="middle" x="42" y="-86" font-family="Helvetica,sans-Serif" font-size="10.00">utils</text>
</a>
</g>
</g>
<!-- dir_d491d2236351b40be875368508a3419d&#45;&gt;dir_f9d272ec16541780a187e9fc1e6dde2e -->
<g id="edge9" class="edge">
<title>dir_d491d2236351b40be875368508a3419d&#45;&gt;dir_f9d272ec16541780a187e9fc1e6dde2e</title>
<path fill="none" stroke="#63b8ff" d="M59.93,-81.55C62.94,-80.64 66.05,-79.75 69,-79 133.99,-62.4 210.87,-48.38 255.85,-40.73"/>
<polygon fill="#63b8ff" stroke="#63b8ff" points="256.34,-44.2 265.63,-39.09 255.18,-37.29 256.34,-44.2"/>
<g id="a_edge9&#45;headlabel"><a xlink:href="dir_000030_000011.html" target="_top" xlink:title="2">
<text text-anchor="middle" x="254.76" y="-44.84" font-family="Helvetica,sans-Serif" font-size="10.00" fill="#63b8ff">2</text>
</a>
</g>
</g>
</g>
</svg>
