<?xml version="1.0" encoding="UTF-8" standalone="no"?>
<!DOCTYPE svg PUBLIC "-//W3C//DTD SVG 1.1//EN"
 "http://www.w3.org/Graphics/SVG/1.1/DTD/svg11.dtd">
<!-- Generated by graphviz version 2.50.0 (20211204.2007)
 -->
<!-- Title: /home/jonathan/Works/Tools/Triton/src/libtriton/engines/solver Pages: 1 -->
<svg width="258pt" height="159pt"
 viewBox="0.00 0.00 258.00 159.00" xmlns="http://www.w3.org/2000/svg" xmlns:xlink="http://www.w3.org/1999/xlink">
<g id="graph0" class="graph" transform="scale(1 1) rotate(0) translate(4 155)">
<title>/home/jonathan/Works/Tools/Triton/src/libtriton/engines/solver</title>
<polygon fill="white" stroke="transparent" points="-4,4 -4,-155 254,-155 254,4 -4,4"/>
<g id="clust1" class="cluster">
<title>clusterdir_8a4592047e397cc99d5435986dcaa724</title>
<g id="a_clust1"><a xlink:href="dir_8a4592047e397cc99d5435986dcaa724.html" target="_top" xlink:title="engines">
<polygon fill="#edf0f7" stroke="#7f7f7f" stroke-dasharray="5,2" points="8,-56 8,-143 242,-143 242,-56 8,-56"/>
<text text-anchor="middle" x="125" y="-131" font-family="Helvetica,sans-Serif" font-size="10.00">engines</text>
</a>
</g>
</g>
<g id="clust2" class="cluster">
<title>clusterdir_6408307a4d2f537021d7a2dc6107b634</title>
<g id="a_clust2"><a xlink:href="dir_6408307a4d2f537021d7a2dc6107b634.html" target="_top">
<polygon fill="#edf0f7" stroke="#404040" stroke-width="2" points="16,-64 16,-116 234,-116 234,-64 16,-64"/>
</a>
</g>
</g>
<!-- dir_6408307a4d2f537021d7a2dc6107b634 -->
<g id="node1" class="node">
<title>dir_6408307a4d2f537021d7a2dc6107b634</title>
<text text-anchor="middle" x="199" y="-87.5" font-family="Helvetica,sans-Serif" font-size="10.00">solver</text>
</g>
<!-- dir_0a436fc82d73b0b9b664d07557632391 -->
<g id="node4" class="node">
<title>dir_0a436fc82d73b0b9b664d07557632391</title>
<g id="a_node4"><a xlink:href="dir_0a436fc82d73b0b9b664d07557632391.html" target="_top" xlink:title="includes">
<polygon fill="none" stroke="red" stroke-dasharray="5,2" points="153.5,-36 96.5,-36 96.5,0 153.5,0 153.5,-36"/>
<text text-anchor="middle" x="125" y="-15.5" font-family="Helvetica,sans-Serif" font-size="10.00">includes</text>
</a>
</g>
</g>
<!-- dir_6408307a4d2f537021d7a2dc6107b634&#45;&gt;dir_0a436fc82d73b0b9b664d07557632391 -->
<g id="edge1" class="edge">
<title>dir_6408307a4d2f537021d7a2dc6107b634&#45;&gt;dir_0a436fc82d73b0b9b664d07557632391</title>
<path fill="none" stroke="black" d="M180.71,-71.7C171.57,-63.05 160.36,-52.45 150.4,-43.03"/>
<polygon fill="black" stroke="black" points="152.75,-40.43 143.08,-36.1 147.94,-45.52 152.75,-40.43"/>
<g id="a_edge1&#45;headlabel"><a xlink:href="dir_000021_000011.html" target="_top" xlink:title="20">
<text text-anchor="middle" x="157.31" y="-38.34" font-family="Helvetica,sans-Serif" font-size="10.00">20</text>
</a>
</g>
</g>
<!-- dir_887c86795df9f579af54ead979efa8c2 -->
<g id="node2" class="node">
<title>dir_887c86795df9f579af54ead979efa8c2</title>
<g id="a_node2"><a xlink:href="dir_887c86795df9f579af54ead979efa8c2.html" target="_top" xlink:title="bitwuzla">
<polygon fill="#a2b4d6" stroke="#404040" points="154,-108 96,-108 96,-72 154,-72 154,-108"/>
<text text-anchor="middle" x="125" y="-87.5" font-family="Helvetica,sans-Serif" font-size="10.00">bitwuzla</text>
</a>
</g>
</g>
<!-- dir_887c86795df9f579af54ead979efa8c2&#45;&gt;dir_0a436fc82d73b0b9b664d07557632391 -->
<g id="edge2" class="edge">
<title>dir_887c86795df9f579af54ead979efa8c2&#45;&gt;dir_0a436fc82d73b0b9b664d07557632391</title>
<path fill="none" stroke="black" d="M125,-71.7C125,-63.98 125,-54.71 125,-46.11"/>
<polygon fill="black" stroke="black" points="128.5,-46.1 125,-36.1 121.5,-46.1 128.5,-46.1"/>
<g id="a_edge2&#45;headlabel"><a xlink:href="dir_000007_000011.html" target="_top" xlink:title="8">
<text text-anchor="middle" x="131.34" y="-47.2" font-family="Helvetica,sans-Serif" font-size="10.00">8</text>
</a>
</g>
</g>
<!-- dir_835eeac6bfe66384d9436a21936a908c -->
<g id="node3" class="node">
<title>dir_835eeac6bfe66384d9436a21936a908c</title>
<g id="a_node3"><a xlink:href="dir_835eeac6bfe66384d9436a21936a908c.html" target="_top" xlink:title="z3">
<polygon fill="#a2b4d6" stroke="#404040" points="78,-108 24,-108 24,-72 78,-72 78,-108"/>
<text text-anchor="middle" x="51" y="-87.5" font-family="Helvetica,sans-Serif" font-size="10.00">z3</text>
</a>
</g>
</g>
<!-- dir_835eeac6bfe66384d9436a21936a908c&#45;&gt;dir_0a436fc82d73b0b9b664d07557632391 -->
<g id="edge3" class="edge">
<title>dir_835eeac6bfe66384d9436a21936a908c&#45;&gt;dir_0a436fc82d73b0b9b664d07557632391</title>
<path fill="none" stroke="black" d="M69.29,-71.7C78.43,-63.05 89.64,-52.45 99.6,-43.03"/>
<polygon fill="black" stroke="black" points="102.06,-45.52 106.92,-36.1 97.25,-40.43 102.06,-45.52"/>
<g id="a_edge3&#45;headlabel"><a xlink:href="dir_000031_000011.html" target="_top" xlink:title="8">
<text text-anchor="middle" x="101.4" y="-47.55" font-family="Helvetica,sans-Serif" font-size="10.00">8</text>
</a>
</g>
</g>
</g>
</svg>
