<?xml version="1.0" encoding="UTF-8" standalone="no"?>
<!DOCTYPE svg PUBLIC "-//W3C//DTD SVG 1.1//EN"
 "http://www.w3.org/Graphics/SVG/1.1/DTD/svg11.dtd">
<!-- Generated by graphviz version 2.49.0 (20210828.1703)
 -->
<!-- Title: /home/jonathan/Works/Tools/Triton/src/libtriton/ast Pages: 1 -->
<svg width="442pt" height="175pt"
 viewBox="0.00 0.00 442.00 175.00" xmlns="http://www.w3.org/2000/svg" xmlns:xlink="http://www.w3.org/1999/xlink">
<g id="graph0" class="graph" transform="scale(1 1) rotate(0) translate(4 171)">
<title>/home/jonathan/Works/Tools/Triton/src/libtriton/ast</title>
<polygon fill="white" stroke="transparent" points="-4,4 -4,-171 438,-171 438,4 -4,4"/>
<g id="clust1" class="cluster">
<title>clusterdir_6826be0f3781bbf5456339e274d7c653</title>
<g id="a_clust1"><a xlink:href="dir_6826be0f3781bbf5456339e274d7c653.html" target="_top" xlink:title="libtriton">
<polygon fill="#ddddee" stroke="black" points="8,-8 8,-159 426,-159 426,-8 8,-8"/>
<text text-anchor="middle" x="217" y="-147" font-family="Helvetica,sans-Serif" font-size="10.00">libtriton</text>
</a>
</g>
</g>
<g id="clust2" class="cluster">
<title>clusterdir_d14ccd332cda101c5bd89ea0107f3ea8</title>
<g id="a_clust2"><a xlink:href="dir_d14ccd332cda101c5bd89ea0107f3ea8.html" target="_top">
<polygon fill="#eeeeff" stroke="black" points="16,-80 16,-132 418,-132 418,-80 16,-80"/>
</a>
</g>
</g>
<!-- dir_0a436fc82d73b0b9b664d07557632391 -->
<g id="node1" class="node">
<title>dir_0a436fc82d73b0b9b664d07557632391</title>
<g id="a_node1"><a xlink:href="dir_0a436fc82d73b0b9b664d07557632391.html" target="_top" xlink:title="includes">
<polygon fill="white" stroke="red" points="263.5,-52 206.5,-52 206.5,-16 263.5,-16 263.5,-52"/>
<text text-anchor="middle" x="235" y="-31.5" font-family="Helvetica,sans-Serif" font-size="10.00">includes</text>
</a>
</g>
</g>
<!-- dir_d14ccd332cda101c5bd89ea0107f3ea8 -->
<g id="node2" class="node">
<title>dir_d14ccd332cda101c5bd89ea0107f3ea8</title>
<text text-anchor="middle" x="383" y="-103.5" font-family="Helvetica,sans-Serif" font-size="10.00">ast</text>
</g>
<!-- dir_d14ccd332cda101c5bd89ea0107f3ea8&#45;&gt;dir_0a436fc82d73b0b9b664d07557632391 -->
<g id="edge1" class="edge">
<title>dir_d14ccd332cda101c5bd89ea0107f3ea8&#45;&gt;dir_0a436fc82d73b0b9b664d07557632391</title>
<path fill="none" stroke="black" d="M359.86,-87.81C355.68,-85.03 351.29,-82.31 347,-80 323.49,-67.32 295.62,-56.11 273.56,-48.05"/>
<polygon fill="black" stroke="black" points="274.47,-44.66 263.88,-44.58 272.11,-51.25 274.47,-44.66"/>
<g id="a_edge1&#45;headlabel"><a xlink:href="dir_000008_000027.html" target="_top" xlink:title="40">
<text text-anchor="middle" x="278.81" y="-40.7" font-family="Helvetica,sans-Serif" font-size="10.00">40</text>
</a>
</g>
</g>
<!-- dir_baf709654e826a6459d643d6ba6646e1 -->
<g id="node3" class="node">
<title>dir_baf709654e826a6459d643d6ba6646e1</title>
<g id="a_node3"><a xlink:href="dir_baf709654e826a6459d643d6ba6646e1.html" target="_top" xlink:title="bitwuzla">
<polygon fill="white" stroke="black" points="338,-124 280,-124 280,-88 338,-88 338,-124"/>
<text text-anchor="middle" x="309" y="-103.5" font-family="Helvetica,sans-Serif" font-size="10.00">bitwuzla</text>
</a>
</g>
</g>
<!-- dir_baf709654e826a6459d643d6ba6646e1&#45;&gt;dir_0a436fc82d73b0b9b664d07557632391 -->
<g id="edge2" class="edge">
<title>dir_baf709654e826a6459d643d6ba6646e1&#45;&gt;dir_0a436fc82d73b0b9b664d07557632391</title>
<path fill="none" stroke="black" d="M290.71,-87.7C281.57,-79.05 270.36,-68.45 260.4,-59.03"/>
<polygon fill="black" stroke="black" points="262.75,-56.43 253.08,-52.1 257.94,-61.52 262.75,-56.43"/>
<g id="a_edge2&#45;headlabel"><a xlink:href="dir_000009_000027.html" target="_top" xlink:title="5">
<text text-anchor="middle" x="267.31" y="-54.34" font-family="Helvetica,sans-Serif" font-size="10.00">5</text>
</a>
</g>
</g>
<!-- dir_2645cc0ca9dfd2825c03dc354aa769b3 -->
<g id="node4" class="node">
<title>dir_2645cc0ca9dfd2825c03dc354aa769b3</title>
<g id="a_node4"><a xlink:href="dir_2645cc0ca9dfd2825c03dc354aa769b3.html" target="_top" xlink:title="llvm">
<polygon fill="white" stroke="black" points="262,-124 208,-124 208,-88 262,-88 262,-124"/>
<text text-anchor="middle" x="235" y="-103.5" font-family="Helvetica,sans-Serif" font-size="10.00">llvm</text>
</a>
</g>
</g>
<!-- dir_2645cc0ca9dfd2825c03dc354aa769b3&#45;&gt;dir_0a436fc82d73b0b9b664d07557632391 -->
<g id="edge3" class="edge">
<title>dir_2645cc0ca9dfd2825c03dc354aa769b3&#45;&gt;dir_0a436fc82d73b0b9b664d07557632391</title>
<path fill="none" stroke="black" d="M235,-87.7C235,-79.98 235,-70.71 235,-62.11"/>
<polygon fill="black" stroke="black" points="238.5,-62.1 235,-52.1 231.5,-62.1 238.5,-62.1"/>
<g id="a_edge3&#45;headlabel"><a xlink:href="dir_000010_000027.html" target="_top" xlink:title="6">
<text text-anchor="middle" x="241.34" y="-63.2" font-family="Helvetica,sans-Serif" font-size="10.00">6</text>
</a>
</g>
</g>
<!-- dir_839ab4986764e441c54e8bf51c0b78f3 -->
<g id="node5" class="node">
<title>dir_839ab4986764e441c54e8bf51c0b78f3</title>
<g id="a_node5"><a xlink:href="dir_839ab4986764e441c54e8bf51c0b78f3.html" target="_top" xlink:title="representations">
<polygon fill="white" stroke="black" points="189.5,-124 96.5,-124 96.5,-88 189.5,-88 189.5,-124"/>
<text text-anchor="middle" x="143" y="-103.5" font-family="Helvetica,sans-Serif" font-size="10.00">representations</text>
</a>
</g>
</g>
<!-- dir_839ab4986764e441c54e8bf51c0b78f3&#45;&gt;dir_0a436fc82d73b0b9b664d07557632391 -->
<g id="edge5" class="edge">
<title>dir_839ab4986764e441c54e8bf51c0b78f3&#45;&gt;dir_0a436fc82d73b0b9b664d07557632391</title>
<path fill="none" stroke="black" d="M165.74,-87.7C177.44,-78.8 191.86,-67.82 204.51,-58.2"/>
<polygon fill="black" stroke="black" points="206.68,-60.94 212.52,-52.1 202.44,-55.37 206.68,-60.94"/>
<g id="a_edge5&#45;headlabel"><a xlink:href="dir_000011_000027.html" target="_top" xlink:title="10">
<text text-anchor="middle" x="205.54" y="-62.88" font-family="Helvetica,sans-Serif" font-size="10.00">10</text>
</a>
</g>
</g>
<!-- dir_9aad8827da345e3fb88113b3f8f7a4bd -->
<g id="node6" class="node">
<title>dir_9aad8827da345e3fb88113b3f8f7a4bd</title>
<g id="a_node6"><a xlink:href="dir_9aad8827da345e3fb88113b3f8f7a4bd.html" target="_top" xlink:title="z3">
<polygon fill="white" stroke="black" points="78,-124 24,-124 24,-88 78,-88 78,-124"/>
<text text-anchor="middle" x="51" y="-103.5" font-family="Helvetica,sans-Serif" font-size="10.00">z3</text>
</a>
</g>
</g>
<!-- dir_9aad8827da345e3fb88113b3f8f7a4bd&#45;&gt;dir_0a436fc82d73b0b9b664d07557632391 -->
<g id="edge4" class="edge">
<title>dir_9aad8827da345e3fb88113b3f8f7a4bd&#45;&gt;dir_0a436fc82d73b0b9b664d07557632391</title>
<path fill="none" stroke="black" d="M74.26,-87.77C78.69,-84.94 83.38,-82.21 88,-80 123.27,-63.15 166.29,-50.85 196.65,-43.41"/>
<polygon fill="black" stroke="black" points="197.52,-46.8 206.44,-41.08 195.9,-40 197.52,-46.8"/>
<g id="a_edge4&#45;headlabel"><a xlink:href="dir_000012_000027.html" target="_top" xlink:title="8">
<text text-anchor="middle" x="194.69" y="-47.9" font-family="Helvetica,sans-Serif" font-size="10.00">8</text>
</a>
</g>
</g>
</g>
</svg>
