<?xml version="1.0" encoding="UTF-8" standalone="no"?>
<!DOCTYPE svg PUBLIC "-//W3C//DTD SVG 1.1//EN"
 "http://www.w3.org/Graphics/SVG/1.1/DTD/svg11.dtd">
<!-- Generated by graphviz version 2.50.0 (20211204.2007)
 -->
<!-- Title: /home/jonathan/Works/Tools/Triton/src/libtriton Pages: 1 -->
<svg width="774pt" height="183pt"
 viewBox="0.00 0.00 774.00 183.00" xmlns="http://www.w3.org/2000/svg" xmlns:xlink="http://www.w3.org/1999/xlink">
<g id="graph0" class="graph" transform="scale(1 1) rotate(0) translate(4 179)">
<title>/home/jonathan/Works/Tools/Triton/src/libtriton</title>
<polygon fill="white" stroke="transparent" points="-4,4 -4,-179 770,-179 770,4 -4,4"/>
<g id="clust1" class="cluster">
<title>clusterdir_68267d1309a1af8e8297ef4c3efbcdba</title>
<g id="a_clust1"><a xlink:href="dir_68267d1309a1af8e8297ef4c3efbcdba.html" target="_top" xlink:title="src">
<polygon fill="#edf0f7" stroke="#404040" stroke-dasharray="5,2" points="8,-8 8,-167 758,-167 758,-8 8,-8"/>
<text text-anchor="middle" x="383" y="-155" font-family="Helvetica,sans-Serif" font-size="10.00">src</text>
</a>
</g>
</g>
<g id="clust2" class="cluster">
<title>clusterdir_6826be0f3781bbf5456339e274d7c653</title>
<g id="a_clust2"><a xlink:href="dir_6826be0f3781bbf5456339e274d7c653.html" target="_top">
<polygon fill="#edf0f7" stroke="#404040" stroke-width="2" points="16,-16 16,-140 750,-140 750,-16 16,-16"/>
</a>
</g>
</g>
<!-- dir_6826be0f3781bbf5456339e274d7c653 -->
<g id="node1" class="node">
<title>dir_6826be0f3781bbf5456339e274d7c653</title>
<text text-anchor="middle" x="714" y="-111.5" font-family="Helvetica,sans-Serif" font-size="10.00">libtriton</text>
</g>
<!-- dir_235acb633cc6470ffe7c474fd8c4964d -->
<g id="node2" class="node">
<title>dir_235acb633cc6470ffe7c474fd8c4964d</title>
<g id="a_node2"><a xlink:href="dir_235acb633cc6470ffe7c474fd8c4964d.html" target="_top" xlink:title="arch">
<polygon fill="#a2b4d6" stroke="#404040" points="668,-132 614,-132 614,-96 668,-96 668,-132"/>
<text text-anchor="middle" x="641" y="-111.5" font-family="Helvetica,sans-Serif" font-size="10.00">arch</text>
</a>
</g>
</g>
<!-- dir_0a436fc82d73b0b9b664d07557632391 -->
<g id="node8" class="node">
<title>dir_0a436fc82d73b0b9b664d07557632391</title>
<g id="a_node8"><a xlink:href="dir_0a436fc82d73b0b9b664d07557632391.html" target="_top" xlink:title="includes">
<polygon fill="#a2b4d6" stroke="#404040" points="369.5,-60 312.5,-60 312.5,-24 369.5,-24 369.5,-60"/>
<text text-anchor="middle" x="341" y="-39.5" font-family="Helvetica,sans-Serif" font-size="10.00">includes</text>
</a>
</g>
</g>
<!-- dir_235acb633cc6470ffe7c474fd8c4964d&#45;&gt;dir_0a436fc82d73b0b9b664d07557632391 -->
<g id="edge1" class="edge">
<title>dir_235acb633cc6470ffe7c474fd8c4964d&#45;&gt;dir_0a436fc82d73b0b9b664d07557632391</title>
<path fill="none" stroke="black" d="M613.76,-99.3C610.85,-98.08 607.89,-96.96 605,-96 527.15,-70.23 432.04,-54.89 379.87,-47.79"/>
<polygon fill="black" stroke="black" points="380.09,-44.29 369.72,-46.44 379.17,-51.23 380.09,-44.29"/>
<g id="a_edge1&#45;headlabel"><a xlink:href="dir_000001_000011.html" target="_top" xlink:title="98">
<text text-anchor="middle" x="384.03" y="-39.45" font-family="Helvetica,sans-Serif" font-size="10.00">98</text>
</a>
</g>
</g>
<!-- dir_d14ccd332cda101c5bd89ea0107f3ea8 -->
<g id="node3" class="node">
<title>dir_d14ccd332cda101c5bd89ea0107f3ea8</title>
<g id="a_node3"><a xlink:href="dir_d14ccd332cda101c5bd89ea0107f3ea8.html" target="_top" xlink:title="ast">
<polygon fill="#a2b4d6" stroke="#404040" points="596,-132 542,-132 542,-96 596,-96 596,-132"/>
<text text-anchor="middle" x="569" y="-111.5" font-family="Helvetica,sans-Serif" font-size="10.00">ast</text>
</a>
</g>
</g>
<!-- dir_d14ccd332cda101c5bd89ea0107f3ea8&#45;&gt;dir_0a436fc82d73b0b9b664d07557632391 -->
<g id="edge2" class="edge">
<title>dir_d14ccd332cda101c5bd89ea0107f3ea8&#45;&gt;dir_0a436fc82d73b0b9b664d07557632391</title>
<path fill="none" stroke="black" d="M541.69,-99.51C538.79,-98.25 535.85,-97.06 533,-96 481.07,-76.73 418.95,-60.83 379.73,-51.62"/>
<polygon fill="black" stroke="black" points="380.32,-48.16 369.79,-49.31 378.74,-54.98 380.32,-48.16"/>
<g id="a_edge2&#45;headlabel"><a xlink:href="dir_000004_000011.html" target="_top" xlink:title="44">
<text text-anchor="middle" x="384.46" y="-43.71" font-family="Helvetica,sans-Serif" font-size="10.00">44</text>
</a>
</g>
</g>
<!-- dir_98927eaed809121784a8363d998e0634 -->
<g id="node4" class="node">
<title>dir_98927eaed809121784a8363d998e0634</title>
<g id="a_node4"><a xlink:href="dir_98927eaed809121784a8363d998e0634.html" target="_top" xlink:title="bindings">
<polygon fill="#a2b4d6" stroke="#404040" points="524,-132 466,-132 466,-96 524,-96 524,-132"/>
<text text-anchor="middle" x="495" y="-111.5" font-family="Helvetica,sans-Serif" font-size="10.00">bindings</text>
</a>
</g>
</g>
<!-- dir_98927eaed809121784a8363d998e0634&#45;&gt;dir_0a436fc82d73b0b9b664d07557632391 -->
<g id="edge3" class="edge">
<title>dir_98927eaed809121784a8363d998e0634&#45;&gt;dir_0a436fc82d73b0b9b664d07557632391</title>
<path fill="none" stroke="black" d="M465.67,-99.67C441.11,-88.5 405.88,-72.49 379.13,-60.33"/>
<polygon fill="black" stroke="black" points="380.25,-57 369.7,-56.04 377.35,-63.37 380.25,-57"/>
<g id="a_edge3&#45;headlabel"><a xlink:href="dir_000005_000011.html" target="_top" xlink:title="175">
<text text-anchor="middle" x="384.7" y="-53.4" font-family="Helvetica,sans-Serif" font-size="10.00">175</text>
</a>
</g>
</g>
<!-- dir_83d70a19af91f0e0d5dc846a3f76a9c3 -->
<g id="node5" class="node">
<title>dir_83d70a19af91f0e0d5dc846a3f76a9c3</title>
<g id="a_node5"><a xlink:href="dir_83d70a19af91f0e0d5dc846a3f76a9c3.html" target="_top" xlink:title="callbacks">
<polygon fill="#a2b4d6" stroke="#404040" points="448,-132 386,-132 386,-96 448,-96 448,-132"/>
<text text-anchor="middle" x="417" y="-111.5" font-family="Helvetica,sans-Serif" font-size="10.00">callbacks</text>
</a>
</g>
</g>
<!-- dir_83d70a19af91f0e0d5dc846a3f76a9c3&#45;&gt;dir_0a436fc82d73b0b9b664d07557632391 -->
<g id="edge4" class="edge">
<title>dir_83d70a19af91f0e0d5dc846a3f76a9c3&#45;&gt;dir_0a436fc82d73b0b9b664d07557632391</title>
<path fill="none" stroke="black" d="M398.21,-95.7C388.83,-87.05 377.32,-76.45 367.09,-67.03"/>
<polygon fill="black" stroke="black" points="369.3,-64.3 359.57,-60.1 364.55,-69.45 369.3,-64.3"/>
<g id="a_edge4&#45;headlabel"><a xlink:href="dir_000008_000011.html" target="_top" xlink:title="3">
<text text-anchor="middle" x="373.86" y="-62.15" font-family="Helvetica,sans-Serif" font-size="10.00">3</text>
</a>
</g>
</g>
<!-- dir_a9cb38f05bf5b7df0b60b77976959079 -->
<g id="node6" class="node">
<title>dir_a9cb38f05bf5b7df0b60b77976959079</title>
<g id="a_node6"><a xlink:href="dir_a9cb38f05bf5b7df0b60b77976959079.html" target="_top" xlink:title="context">
<polygon fill="#a2b4d6" stroke="#404040" points="368,-132 314,-132 314,-96 368,-96 368,-132"/>
<text text-anchor="middle" x="341" y="-111.5" font-family="Helvetica,sans-Serif" font-size="10.00">context</text>
</a>
</g>
</g>
<!-- dir_a9cb38f05bf5b7df0b60b77976959079&#45;&gt;dir_0a436fc82d73b0b9b664d07557632391 -->
<g id="edge5" class="edge">
<title>dir_a9cb38f05bf5b7df0b60b77976959079&#45;&gt;dir_0a436fc82d73b0b9b664d07557632391</title>
<path fill="none" stroke="black" d="M341,-95.7C341,-87.98 341,-78.71 341,-70.11"/>
<polygon fill="black" stroke="black" points="344.5,-70.1 341,-60.1 337.5,-70.1 344.5,-70.1"/>
<g id="a_edge5&#45;headlabel"><a xlink:href="dir_000009_000011.html" target="_top" xlink:title="6">
<text text-anchor="middle" x="347.34" y="-71.2" font-family="Helvetica,sans-Serif" font-size="10.00">6</text>
</a>
</g>
</g>
<!-- dir_8a4592047e397cc99d5435986dcaa724 -->
<g id="node7" class="node">
<title>dir_8a4592047e397cc99d5435986dcaa724</title>
<g id="a_node7"><a xlink:href="dir_8a4592047e397cc99d5435986dcaa724.html" target="_top" xlink:title="engines">
<polygon fill="#a2b4d6" stroke="#404040" points="295.5,-132 240.5,-132 240.5,-96 295.5,-96 295.5,-132"/>
<text text-anchor="middle" x="268" y="-111.5" font-family="Helvetica,sans-Serif" font-size="10.00">engines</text>
</a>
</g>
</g>
<!-- dir_8a4592047e397cc99d5435986dcaa724&#45;&gt;dir_0a436fc82d73b0b9b664d07557632391 -->
<g id="edge6" class="edge">
<title>dir_8a4592047e397cc99d5435986dcaa724&#45;&gt;dir_0a436fc82d73b0b9b664d07557632391</title>
<path fill="none" stroke="black" d="M286.04,-95.7C295.06,-87.05 306.12,-76.45 315.94,-67.03"/>
<polygon fill="black" stroke="black" points="318.37,-69.55 323.16,-60.1 313.52,-64.5 318.37,-69.55"/>
<g id="a_edge6&#45;headlabel"><a xlink:href="dir_000010_000011.html" target="_top" xlink:title="68">
<text text-anchor="middle" x="317.74" y="-71.59" font-family="Helvetica,sans-Serif" font-size="10.00">68</text>
</a>
</g>
</g>
<!-- dir_2ff66f8a2934c11b30f96f381801b861 -->
<g id="node9" class="node">
<title>dir_2ff66f8a2934c11b30f96f381801b861</title>
<g id="a_node9"><a xlink:href="dir_2ff66f8a2934c11b30f96f381801b861.html" target="_top" xlink:title="modes">
<polygon fill="#a2b4d6" stroke="#404040" points="222,-132 168,-132 168,-96 222,-96 222,-132"/>
<text text-anchor="middle" x="195" y="-111.5" font-family="Helvetica,sans-Serif" font-size="10.00">modes</text>
</a>
</g>
</g>
<!-- dir_2ff66f8a2934c11b30f96f381801b861&#45;&gt;dir_0a436fc82d73b0b9b664d07557632391 -->
<g id="edge7" class="edge">
<title>dir_2ff66f8a2934c11b30f96f381801b861&#45;&gt;dir_0a436fc82d73b0b9b664d07557632391</title>
<path fill="none" stroke="black" d="M222.12,-100C244.86,-89.09 277.59,-73.4 302.95,-61.24"/>
<polygon fill="black" stroke="black" points="304.77,-64.25 312.28,-56.77 301.75,-57.94 304.77,-64.25"/>
<g id="a_edge7&#45;headlabel"><a xlink:href="dir_000015_000011.html" target="_top" xlink:title="1">
<text text-anchor="middle" x="302.76" y="-65.86" font-family="Helvetica,sans-Serif" font-size="10.00">1</text>
</a>
</g>
</g>
<!-- dir_705ef513716924990f9c269cf1898690 -->
<g id="node10" class="node">
<title>dir_705ef513716924990f9c269cf1898690</title>
<g id="a_node10"><a xlink:href="dir_705ef513716924990f9c269cf1898690.html" target="_top" xlink:title="stubs">
<polygon fill="#a2b4d6" stroke="#404040" points="150,-132 96,-132 96,-96 150,-96 150,-132"/>
<text text-anchor="middle" x="123" y="-111.5" font-family="Helvetica,sans-Serif" font-size="10.00">stubs</text>
</a>
</g>
</g>
<!-- dir_705ef513716924990f9c269cf1898690&#45;&gt;dir_0a436fc82d73b0b9b664d07557632391 -->
<g id="edge8" class="edge">
<title>dir_705ef513716924990f9c269cf1898690&#45;&gt;dir_0a436fc82d73b0b9b664d07557632391</title>
<path fill="none" stroke="black" d="M150.32,-99.55C153.23,-98.29 156.16,-97.08 159,-96 207.52,-77.61 265.32,-61.77 302.55,-52.31"/>
<polygon fill="black" stroke="black" points="303.64,-55.65 312.49,-49.82 301.93,-48.86 303.64,-55.65"/>
<g id="a_edge8&#45;headlabel"><a xlink:href="dir_000023_000011.html" target="_top" xlink:title="1">
<text text-anchor="middle" x="300.84" y="-56.78" font-family="Helvetica,sans-Serif" font-size="10.00">1</text>
</a>
</g>
</g>
<!-- dir_e06c410a1143e7e2592e62d845214ab2 -->
<g id="node11" class="node">
<title>dir_e06c410a1143e7e2592e62d845214ab2</title>
<g id="a_node11"><a xlink:href="dir_e06c410a1143e7e2592e62d845214ab2.html" target="_top" xlink:title="utils">
<polygon fill="#a2b4d6" stroke="#404040" points="78,-132 24,-132 24,-96 78,-96 78,-132"/>
<text text-anchor="middle" x="51" y="-111.5" font-family="Helvetica,sans-Serif" font-size="10.00">utils</text>
</a>
</g>
</g>
<!-- dir_e06c410a1143e7e2592e62d845214ab2&#45;&gt;dir_0a436fc82d73b0b9b664d07557632391 -->
<g id="edge9" class="edge">
<title>dir_e06c410a1143e7e2592e62d845214ab2&#45;&gt;dir_0a436fc82d73b0b9b664d07557632391</title>
<path fill="none" stroke="black" d="M78.24,-99.32C81.16,-98.1 84.12,-96.97 87,-96 161.17,-71.14 251.59,-55.62 302.08,-48.21"/>
<polygon fill="black" stroke="black" points="302.83,-51.64 312.23,-46.75 301.84,-44.71 302.83,-51.64"/>
<g id="a_edge9&#45;headlabel"><a xlink:href="dir_000028_000011.html" target="_top" xlink:title="2">
<text text-anchor="middle" x="299.68" y="-52.46" font-family="Helvetica,sans-Serif" font-size="10.00">2</text>
</a>
</g>
</g>
</g>
</svg>
