<?xml version="1.0" encoding="UTF-8" standalone="no"?>
<!DOCTYPE svg PUBLIC "-//W3C//DTD SVG 1.1//EN"
 "http://www.w3.org/Graphics/SVG/1.1/DTD/svg11.dtd">
<!-- Generated by graphviz version 5.0.1 (20220820.1526)
 -->
<!-- Title: /home/jonathan/Works/Tools/Triton/src/libtriton/arch Pages: 1 -->
<svg width="254pt" height="175pt"
 viewBox="0.00 0.00 254.00 175.00" xmlns="http://www.w3.org/2000/svg" xmlns:xlink="http://www.w3.org/1999/xlink">
<g id="graph0" class="graph" transform="scale(1 1) rotate(0) translate(4 171)">
<title>/home/jonathan/Works/Tools/Triton/src/libtriton/arch</title>
<polygon fill="white" stroke="none" points="-4,4 -4,-171 250,-171 250,4 -4,4"/>
<g id="clust1" class="cluster">
<title>clusterdir_6826be0f3781bbf5456339e274d7c653</title>
<g id="a_clust1"><a xlink:href="dir_6826be0f3781bbf5456339e274d7c653.html" target="_top" xlink:title="libtriton">
<polygon fill="#edf0f7" stroke="#7f7f7f" stroke-dasharray="5,2" points="8,-8 8,-159 238,-159 238,-8 8,-8"/>
<text text-anchor="middle" x="123" y="-147" font-family="Helvetica,sans-Serif" font-size="10.00">libtriton</text>
</a>
</g>
</g>
<g id="clust2" class="cluster">
<title>clusterdir_235acb633cc6470ffe7c474fd8c4964d</title>
<g id="a_clust2"><a xlink:href="dir_235acb633cc6470ffe7c474fd8c4964d.html" target="_top">
<polygon fill="#edf0f7" stroke="#404040" stroke-width="2" points="16,-80 16,-132 230,-132 230,-80 16,-80"/>
</a>
</g>
</g>
<!-- dir_0a436fc82d73b0b9b664d07557632391 -->
<g id="node1" class="node">
<title>dir_0a436fc82d73b0b9b664d07557632391</title>
<g id="a_node1"><a xlink:href="dir_0a436fc82d73b0b9b664d07557632391.html" target="_top" xlink:title="includes">
<polygon fill="#a2b4d6" stroke="red" points="151.5,-52 94.5,-52 94.5,-16 151.5,-16 151.5,-52"/>
<text text-anchor="middle" x="123" y="-31.5" font-family="Helvetica,sans-Serif" font-size="10.00">includes</text>
</a>
</g>
</g>
<!-- dir_235acb633cc6470ffe7c474fd8c4964d -->
<g id="node2" class="node">
<title>dir_235acb633cc6470ffe7c474fd8c4964d</title>
<text text-anchor="middle" x="195" y="-103.5" font-family="Helvetica,sans-Serif" font-size="10.00">arch</text>
</g>
<!-- dir_235acb633cc6470ffe7c474fd8c4964d&#45;&gt;dir_0a436fc82d73b0b9b664d07557632391 -->
<g id="edge1" class="edge">
<title>dir_235acb633cc6470ffe7c474fd8c4964d&#45;&gt;dir_0a436fc82d73b0b9b664d07557632391</title>
<path fill="none" stroke="black" d="M177.2,-87.7C168.4,-79.14 157.62,-68.66 148,-59.3"/>
<polygon fill="black" stroke="black" points="150.2,-56.57 140.59,-52.1 145.32,-61.58 150.2,-56.57"/>
<g id="a_edge1&#45;headlabel"><a xlink:href="dir_000001_000011.html" target="_top" xlink:title="99">
<text text-anchor="middle" x="154.76" y="-54.54" font-family="Helvetica,sans-Serif" font-size="10.00">99</text>
</a>
</g>
</g>
<!-- dir_de2d9f8b867f102cf90ad4c3c79c2731 -->
<g id="node3" class="node">
<title>dir_de2d9f8b867f102cf90ad4c3c79c2731</title>
<g id="a_node3"><a xlink:href="dir_de2d9f8b867f102cf90ad4c3c79c2731.html" target="_top" xlink:title="arm">
<polygon fill="#a2b4d6" stroke="#404040" points="150,-124 96,-124 96,-88 150,-88 150,-124"/>
<text text-anchor="middle" x="123" y="-103.5" font-family="Helvetica,sans-Serif" font-size="10.00">arm</text>
</a>
</g>
</g>
<!-- dir_de2d9f8b867f102cf90ad4c3c79c2731&#45;&gt;dir_0a436fc82d73b0b9b664d07557632391 -->
<g id="edge2" class="edge">
<title>dir_de2d9f8b867f102cf90ad4c3c79c2731&#45;&gt;dir_0a436fc82d73b0b9b664d07557632391</title>
<path fill="none" stroke="black" d="M123,-87.7C123,-79.98 123,-70.71 123,-62.11"/>
<polygon fill="black" stroke="black" points="126.5,-62.1 123,-52.1 119.5,-62.1 126.5,-62.1"/>
<g id="a_edge2&#45;headlabel"><a xlink:href="dir_000002_000011.html" target="_top" xlink:title="38">
<text text-anchor="middle" x="129.34" y="-63.2" font-family="Helvetica,sans-Serif" font-size="10.00">38</text>
</a>
</g>
</g>
<!-- dir_48c7881ef32601de7b15d1910fe1412e -->
<g id="node4" class="node">
<title>dir_48c7881ef32601de7b15d1910fe1412e</title>
<g id="a_node4"><a xlink:href="dir_48c7881ef32601de7b15d1910fe1412e.html" target="_top" xlink:title="x86">
<polygon fill="#a2b4d6" stroke="#404040" points="78,-124 24,-124 24,-88 78,-88 78,-124"/>
<text text-anchor="middle" x="51" y="-103.5" font-family="Helvetica,sans-Serif" font-size="10.00">x86</text>
</a>
</g>
</g>
<!-- dir_48c7881ef32601de7b15d1910fe1412e&#45;&gt;dir_0a436fc82d73b0b9b664d07557632391 -->
<g id="edge3" class="edge">
<title>dir_48c7881ef32601de7b15d1910fe1412e&#45;&gt;dir_0a436fc82d73b0b9b664d07557632391</title>
<path fill="none" stroke="black" d="M68.8,-87.7C77.6,-79.14 88.38,-68.66 98,-59.3"/>
<polygon fill="black" stroke="black" points="100.68,-61.58 105.41,-52.1 95.8,-56.57 100.68,-61.58"/>
<g id="a_edge3&#45;headlabel"><a xlink:href="dir_000029_000011.html" target="_top" xlink:title="24">
<text text-anchor="middle" x="100.08" y="-63.63" font-family="Helvetica,sans-Serif" font-size="10.00">24</text>
</a>
</g>
</g>
</g>
</svg>
