<?xml version="1.0" encoding="UTF-8" standalone="no"?>
<!DOCTYPE svg PUBLIC "-//W3C//DTD SVG 1.1//EN"
 "http://www.w3.org/Graphics/SVG/1.1/DTD/svg11.dtd">
<!-- Generated by graphviz version 7.0.0 (20221023.0053)
 -->
<!-- Title: /Users/jonathan/Works/Tools/Triton/src/libtriton/engines/solver Pages: 1 -->
<svg width="218pt" height="125pt"
 viewBox="0.00 0.00 218.00 125.00" xmlns="http://www.w3.org/2000/svg" xmlns:xlink="http://www.w3.org/1999/xlink">
<g id="graph0" class="graph" transform="scale(1 1) rotate(0) translate(4 121)">
<title>/Users/jonathan/Works/Tools/Triton/src/libtriton/engines/solver</title>
<g id="clust1" class="cluster">
<title>clusterdir_fb48f4b932ca139b3874979a79920170</title>
<g id="a_clust1"><a xlink:href="dir_fb48f4b932ca139b3874979a79920170.html" target="_top" xlink:title="engines">
<polygon fill="#edf0f7" stroke="#7f7f7f" stroke-dasharray="5,2" points="8,-39 8,-109 202,-109 202,-39 8,-39"/>
<text text-anchor="middle" x="105" y="-97" font-family="Helvetica,sans-Serif" font-size="10.00">engines</text>
</a>
</g>
</g>
<g id="clust2" class="cluster">
<title>clusterdir_7bfe2ba77abd0fc258bedf810e93340d</title>
<g id="a_clust2"><a xlink:href="dir_7bfe2ba77abd0fc258bedf810e93340d.html" target="_top">
<polygon fill="#edf0f7" stroke="#404040" stroke-width="2" points="16,-47 16,-82 194,-82 194,-47 16,-47"/>
</a>
</g>
</g>
<!-- dir_7bfe2ba77abd0fc258bedf810e93340d -->
<g id="node1" class="node">
<title>dir_7bfe2ba77abd0fc258bedf810e93340d</title>
<text text-anchor="middle" x="164" y="-62" font-family="Helvetica,sans-Serif" font-size="10.00">solver</text>
</g>
<!-- dir_f9d272ec16541780a187e9fc1e6dde2e -->
<g id="node4" class="node">
<title>dir_f9d272ec16541780a187e9fc1e6dde2e</title>
<g id="a_node4"><a xlink:href="dir_f9d272ec16541780a187e9fc1e6dde2e.html" target="_top" xlink:title="includes">
<polygon fill="#edf0f7" stroke="red" stroke-dasharray="5,2" points="124.5,-19 71.5,-19 71.5,0 124.5,0 124.5,-19"/>
<text text-anchor="middle" x="98" y="-7" font-family="Helvetica,sans-Serif" font-size="10.00">includes</text>
</a>
</g>
</g>
<!-- dir_7bfe2ba77abd0fc258bedf810e93340d&#45;&gt;dir_f9d272ec16541780a187e9fc1e6dde2e -->
<g id="edge1" class="edge">
<title>dir_7bfe2ba77abd0fc258bedf810e93340d&#45;&gt;dir_f9d272ec16541780a187e9fc1e6dde2e</title>
<path fill="none" stroke="#63b8ff" d="M153.76,-55.07C147.97,-50.33 140.6,-44.31 134,-39 128.87,-34.88 123.31,-30.45 118.13,-26.35"/>
<polygon fill="#63b8ff" stroke="#63b8ff" points="120.59,-23.83 110.57,-20.38 116.25,-29.32 120.59,-23.83"/>
<g id="a_edge1&#45;headlabel"><a xlink:href="dir_000021_000011.html" target="_top" xlink:title="20">
<text text-anchor="middle" x="123.98" y="-20.39" font-family="Helvetica,sans-Serif" font-size="10.00" fill="#63b8ff">20</text>
</a>
</g>
</g>
<!-- dir_6acbcc5eb8cf364cbbcc2467c8300ba3 -->
<g id="node2" class="node">
<title>dir_6acbcc5eb8cf364cbbcc2467c8300ba3</title>
<g id="a_node2"><a xlink:href="dir_6acbcc5eb8cf364cbbcc2467c8300ba3.html" target="_top" xlink:title="bitwuzla">
<polygon fill="#a2b4d6" stroke="#404040" points="124.5,-74 71.5,-74 71.5,-55 124.5,-55 124.5,-74"/>
<text text-anchor="middle" x="98" y="-62" font-family="Helvetica,sans-Serif" font-size="10.00">bitwuzla</text>
</a>
</g>
</g>
<!-- dir_6acbcc5eb8cf364cbbcc2467c8300ba3&#45;&gt;dir_f9d272ec16541780a187e9fc1e6dde2e -->
<g id="edge2" class="edge">
<title>dir_6acbcc5eb8cf364cbbcc2467c8300ba3&#45;&gt;dir_f9d272ec16541780a187e9fc1e6dde2e</title>
<path fill="none" stroke="#63b8ff" d="M98,-54.75C98,-48.27 98,-39.16 98,-30.9"/>
<polygon fill="#63b8ff" stroke="#63b8ff" points="101.5,-30.96 98,-20.96 94.5,-30.96 101.5,-30.96"/>
<g id="a_edge2&#45;headlabel"><a xlink:href="dir_000007_000011.html" target="_top" xlink:title="8">
<text text-anchor="middle" x="104.34" y="-30.54" font-family="Helvetica,sans-Serif" font-size="10.00" fill="#63b8ff">8</text>
</a>
</g>
</g>
<!-- dir_2dfa1a18e2c9a4047d885c561177d014 -->
<g id="node3" class="node">
<title>dir_2dfa1a18e2c9a4047d885c561177d014</title>
<g id="a_node3"><a xlink:href="dir_2dfa1a18e2c9a4047d885c561177d014.html" target="_top" xlink:title="z3">
<polygon fill="#a2b4d6" stroke="#404040" points="53.5,-74 24.5,-74 24.5,-55 53.5,-55 53.5,-74"/>
<text text-anchor="middle" x="39" y="-62" font-family="Helvetica,sans-Serif" font-size="10.00">z3</text>
</a>
</g>
</g>
<!-- dir_2dfa1a18e2c9a4047d885c561177d014&#45;&gt;dir_f9d272ec16541780a187e9fc1e6dde2e -->
<g id="edge3" class="edge">
<title>dir_2dfa1a18e2c9a4047d885c561177d014&#45;&gt;dir_f9d272ec16541780a187e9fc1e6dde2e</title>
<path fill="none" stroke="#63b8ff" d="M47.21,-54.64C51.74,-49.88 57.55,-43.98 63,-39 67.59,-34.82 72.69,-30.49 77.54,-26.52"/>
<polygon fill="#63b8ff" stroke="#63b8ff" points="79.59,-29.36 85.2,-20.37 75.21,-23.9 79.59,-29.36"/>
<g id="a_edge3&#45;headlabel"><a xlink:href="dir_000034_000011.html" target="_top" xlink:title="8">
<text text-anchor="middle" x="79.74" y="-30.38" font-family="Helvetica,sans-Serif" font-size="10.00" fill="#63b8ff">8</text>
</a>
</g>
</g>
</g>
</svg>
