<?xml version="1.0" encoding="UTF-8" standalone="no"?>
<!DOCTYPE svg PUBLIC "-//W3C//DTD SVG 1.1//EN"
 "http://www.w3.org/Graphics/SVG/1.1/DTD/svg11.dtd">
<!-- Generated by graphviz version 7.0.0 (20221023.0053)
 -->
<!-- Title: /Users/jonathan/Works/Tools/Triton/src/libtriton/arch/arm Pages: 1 -->
<svg width="221pt" height="125pt"
 viewBox="0.00 0.00 221.00 125.00" xmlns="http://www.w3.org/2000/svg" xmlns:xlink="http://www.w3.org/1999/xlink">
<g id="graph0" class="graph" transform="scale(1 1) rotate(0) translate(4 121)">
<title>/Users/jonathan/Works/Tools/Triton/src/libtriton/arch/arm</title>
<g id="clust1" class="cluster">
<title>clusterdir_438c551635df427b50f3732e2af9bbb8</title>
<g id="a_clust1"><a xlink:href="dir_438c551635df427b50f3732e2af9bbb8.html" target="_top" xlink:title="arch">
<polygon fill="#edf0f7" stroke="#7f7f7f" stroke-dasharray="5,2" points="8,-39 8,-109 205,-109 205,-39 8,-39"/>
<text text-anchor="middle" x="106.5" y="-97" font-family="Helvetica,sans-Serif" font-size="10.00">arch</text>
</a>
</g>
</g>
<g id="clust2" class="cluster">
<title>clusterdir_439cda7f049d528368ef6403baea4d5e</title>
<g id="a_clust2"><a xlink:href="dir_439cda7f049d528368ef6403baea4d5e.html" target="_top">
<polygon fill="#edf0f7" stroke="#404040" stroke-width="2" points="16,-47 16,-82 197,-82 197,-47 16,-47"/>
</a>
</g>
</g>
<!-- dir_439cda7f049d528368ef6403baea4d5e -->
<g id="node1" class="node">
<title>dir_439cda7f049d528368ef6403baea4d5e</title>
<text text-anchor="middle" x="172" y="-62" font-family="Helvetica,sans-Serif" font-size="10.00">arm</text>
</g>
<!-- dir_f9d272ec16541780a187e9fc1e6dde2e -->
<g id="node4" class="node">
<title>dir_f9d272ec16541780a187e9fc1e6dde2e</title>
<g id="a_node4"><a xlink:href="dir_f9d272ec16541780a187e9fc1e6dde2e.html" target="_top" xlink:title="includes">
<polygon fill="#edf0f7" stroke="red" stroke-dasharray="5,2" points="138.5,-19 85.5,-19 85.5,0 138.5,0 138.5,-19"/>
<text text-anchor="middle" x="112" y="-7" font-family="Helvetica,sans-Serif" font-size="10.00">includes</text>
</a>
</g>
</g>
<!-- dir_439cda7f049d528368ef6403baea4d5e&#45;&gt;dir_f9d272ec16541780a187e9fc1e6dde2e -->
<g id="edge1" class="edge">
<title>dir_439cda7f049d528368ef6403baea4d5e&#45;&gt;dir_f9d272ec16541780a187e9fc1e6dde2e</title>
<path fill="none" stroke="#63b8ff" d="M163.85,-55.14C159.05,-50.31 152.8,-44.18 147,-39 142.37,-34.86 137.26,-30.56 132.4,-26.58"/>
<polygon fill="#63b8ff" stroke="#63b8ff" points="134.74,-23.97 124.75,-20.43 130.35,-29.43 134.74,-23.97"/>
<g id="a_edge1&#45;headlabel"><a xlink:href="dir_000002_000011.html" target="_top" xlink:title="38">
<text text-anchor="middle" x="138.14" y="-20.56" font-family="Helvetica,sans-Serif" font-size="10.00" fill="#63b8ff">38</text>
</a>
</g>
</g>
<!-- dir_81dab2f32f957d3bafa73538a9c5dee7 -->
<g id="node2" class="node">
<title>dir_81dab2f32f957d3bafa73538a9c5dee7</title>
<g id="a_node2"><a xlink:href="dir_81dab2f32f957d3bafa73538a9c5dee7.html" target="_top" xlink:title="aarch64">
<polygon fill="#a2b4d6" stroke="#404040" points="137.5,-74 86.5,-74 86.5,-55 137.5,-55 137.5,-74"/>
<text text-anchor="middle" x="112" y="-62" font-family="Helvetica,sans-Serif" font-size="10.00">aarch64</text>
</a>
</g>
</g>
<!-- dir_81dab2f32f957d3bafa73538a9c5dee7&#45;&gt;dir_f9d272ec16541780a187e9fc1e6dde2e -->
<g id="edge2" class="edge">
<title>dir_81dab2f32f957d3bafa73538a9c5dee7&#45;&gt;dir_f9d272ec16541780a187e9fc1e6dde2e</title>
<path fill="none" stroke="#63b8ff" d="M112,-54.75C112,-48.27 112,-39.16 112,-30.9"/>
<polygon fill="#63b8ff" stroke="#63b8ff" points="115.5,-30.96 112,-20.96 108.5,-30.96 115.5,-30.96"/>
<g id="a_edge2&#45;headlabel"><a xlink:href="dir_000000_000011.html" target="_top" xlink:title="17">
<text text-anchor="middle" x="118.34" y="-30.54" font-family="Helvetica,sans-Serif" font-size="10.00" fill="#63b8ff">17</text>
</a>
</g>
</g>
<!-- dir_9d9b87bdeb852e4e9842f2138737a392 -->
<g id="node3" class="node">
<title>dir_9d9b87bdeb852e4e9842f2138737a392</title>
<g id="a_node3"><a xlink:href="dir_9d9b87bdeb852e4e9842f2138737a392.html" target="_top" xlink:title="arm32">
<polygon fill="#a2b4d6" stroke="#404040" points="68,-74 24,-74 24,-55 68,-55 68,-74"/>
<text text-anchor="middle" x="46" y="-62" font-family="Helvetica,sans-Serif" font-size="10.00">arm32</text>
</a>
</g>
</g>
<!-- dir_9d9b87bdeb852e4e9842f2138737a392&#45;&gt;dir_f9d272ec16541780a187e9fc1e6dde2e -->
<g id="edge3" class="edge">
<title>dir_9d9b87bdeb852e4e9842f2138737a392&#45;&gt;dir_f9d272ec16541780a187e9fc1e6dde2e</title>
<path fill="none" stroke="#63b8ff" d="M57.2,-54.51C66.74,-46.85 80.67,-35.66 92.11,-26.47"/>
<polygon fill="#63b8ff" stroke="#63b8ff" points="94.18,-29.3 99.79,-20.31 89.8,-23.84 94.18,-29.3"/>
<g id="a_edge3&#45;headlabel"><a xlink:href="dir_000003_000011.html" target="_top" xlink:title="18">
<text text-anchor="middle" x="94.34" y="-30.31" font-family="Helvetica,sans-Serif" font-size="10.00" fill="#63b8ff">18</text>
</a>
</g>
</g>
</g>
</svg>
