<?xml version="1.0" encoding="UTF-8" standalone="no"?>
<!DOCTYPE svg PUBLIC "-//W3C//DTD SVG 1.1//EN"
 "http://www.w3.org/Graphics/SVG/1.1/DTD/svg11.dtd">
<!-- Generated by graphviz version 5.0.1 (20220820.1526)
 -->
<!-- Title: /home/jonathan/Works/Tools/Triton/src/libtriton/engines Pages: 1 -->
<svg width="489pt" height="175pt"
 viewBox="0.00 0.00 489.00 175.00" xmlns="http://www.w3.org/2000/svg" xmlns:xlink="http://www.w3.org/1999/xlink">
<g id="graph0" class="graph" transform="scale(1 1) rotate(0) translate(4 171)">
<title>/home/jonathan/Works/Tools/Triton/src/libtriton/engines</title>
<polygon fill="white" stroke="none" points="-4,4 -4,-171 485,-171 485,4 -4,4"/>
<g id="clust1" class="cluster">
<title>clusterdir_6826be0f3781bbf5456339e274d7c653</title>
<g id="a_clust1"><a xlink:href="dir_6826be0f3781bbf5456339e274d7c653.html" target="_top" xlink:title="libtriton">
<polygon fill="#edf0f7" stroke="#7f7f7f" stroke-dasharray="5,2" points="8,-8 8,-159 473,-159 473,-8 8,-8"/>
<text text-anchor="middle" x="240.5" y="-147" font-family="Helvetica,sans-Serif" font-size="10.00">libtriton</text>
</a>
</g>
</g>
<g id="clust2" class="cluster">
<title>clusterdir_8a4592047e397cc99d5435986dcaa724</title>
<g id="a_clust2"><a xlink:href="dir_8a4592047e397cc99d5435986dcaa724.html" target="_top">
<polygon fill="#edf0f7" stroke="#404040" stroke-width="2" points="16,-80 16,-132 465,-132 465,-80 16,-80"/>
</a>
</g>
</g>
<!-- dir_0a436fc82d73b0b9b664d07557632391 -->
<g id="node1" class="node">
<title>dir_0a436fc82d73b0b9b664d07557632391</title>
<g id="a_node1"><a xlink:href="dir_0a436fc82d73b0b9b664d07557632391.html" target="_top" xlink:title="includes">
<polygon fill="#a2b4d6" stroke="red" points="236.5,-52 179.5,-52 179.5,-16 236.5,-16 236.5,-52"/>
<text text-anchor="middle" x="208" y="-31.5" font-family="Helvetica,sans-Serif" font-size="10.00">includes</text>
</a>
</g>
</g>
<!-- dir_8a4592047e397cc99d5435986dcaa724 -->
<g id="node2" class="node">
<title>dir_8a4592047e397cc99d5435986dcaa724</title>
<text text-anchor="middle" x="429" y="-103.5" font-family="Helvetica,sans-Serif" font-size="10.00">engines</text>
</g>
<!-- dir_8da2d78c8d7e761d978a83b178e3b1f1 -->
<g id="node3" class="node">
<title>dir_8da2d78c8d7e761d978a83b178e3b1f1</title>
<g id="a_node3"><a xlink:href="dir_8da2d78c8d7e761d978a83b178e3b1f1.html" target="_top" xlink:title="lifters">
<polygon fill="#a2b4d6" stroke="#404040" points="383,-124 329,-124 329,-88 383,-88 383,-124"/>
<text text-anchor="middle" x="356" y="-103.5" font-family="Helvetica,sans-Serif" font-size="10.00">lifters</text>
</a>
</g>
</g>
<!-- dir_8da2d78c8d7e761d978a83b178e3b1f1&#45;&gt;dir_0a436fc82d73b0b9b664d07557632391 -->
<g id="edge1" class="edge">
<title>dir_8da2d78c8d7e761d978a83b178e3b1f1&#45;&gt;dir_0a436fc82d73b0b9b664d07557632391</title>
<path fill="none" stroke="black" d="M332.86,-87.81C328.68,-85.03 324.29,-82.31 320,-80 296.49,-67.32 268.62,-56.11 246.56,-48.05"/>
<polygon fill="black" stroke="black" points="247.47,-44.66 236.88,-44.58 245.11,-51.25 247.47,-44.66"/>
<g id="a_edge1&#45;headlabel"><a xlink:href="dir_000013_000011.html" target="_top" xlink:title="13">
<text text-anchor="middle" x="251.81" y="-40.7" font-family="Helvetica,sans-Serif" font-size="10.00">13</text>
</a>
</g>
</g>
<!-- dir_6408307a4d2f537021d7a2dc6107b634 -->
<g id="node4" class="node">
<title>dir_6408307a4d2f537021d7a2dc6107b634</title>
<g id="a_node4"><a xlink:href="dir_6408307a4d2f537021d7a2dc6107b634.html" target="_top" xlink:title="solver">
<polygon fill="#a2b4d6" stroke="#404040" points="311,-124 257,-124 257,-88 311,-88 311,-124"/>
<text text-anchor="middle" x="284" y="-103.5" font-family="Helvetica,sans-Serif" font-size="10.00">solver</text>
</a>
</g>
</g>
<!-- dir_6408307a4d2f537021d7a2dc6107b634&#45;&gt;dir_0a436fc82d73b0b9b664d07557632391 -->
<g id="edge2" class="edge">
<title>dir_6408307a4d2f537021d7a2dc6107b634&#45;&gt;dir_0a436fc82d73b0b9b664d07557632391</title>
<path fill="none" stroke="black" d="M265.21,-87.7C255.83,-79.05 244.32,-68.45 234.09,-59.03"/>
<polygon fill="black" stroke="black" points="236.3,-56.3 226.57,-52.1 231.55,-61.45 236.3,-56.3"/>
<g id="a_edge2&#45;headlabel"><a xlink:href="dir_000021_000011.html" target="_top" xlink:title="20">
<text text-anchor="middle" x="240.86" y="-54.15" font-family="Helvetica,sans-Serif" font-size="10.00">20</text>
</a>
</g>
</g>
<!-- dir_5d163d56b379826e8b6fecbb4d2a5cde -->
<g id="node5" class="node">
<title>dir_5d163d56b379826e8b6fecbb4d2a5cde</title>
<g id="a_node5"><a xlink:href="dir_5d163d56b379826e8b6fecbb4d2a5cde.html" target="_top" xlink:title="symbolic">
<polygon fill="#a2b4d6" stroke="#404040" points="238.5,-124 177.5,-124 177.5,-88 238.5,-88 238.5,-124"/>
<text text-anchor="middle" x="208" y="-103.5" font-family="Helvetica,sans-Serif" font-size="10.00">symbolic</text>
</a>
</g>
</g>
<!-- dir_5d163d56b379826e8b6fecbb4d2a5cde&#45;&gt;dir_0a436fc82d73b0b9b664d07557632391 -->
<g id="edge3" class="edge">
<title>dir_5d163d56b379826e8b6fecbb4d2a5cde&#45;&gt;dir_0a436fc82d73b0b9b664d07557632391</title>
<path fill="none" stroke="black" d="M208,-87.7C208,-79.98 208,-70.71 208,-62.11"/>
<polygon fill="black" stroke="black" points="211.5,-62.1 208,-52.1 204.5,-62.1 211.5,-62.1"/>
<g id="a_edge3&#45;headlabel"><a xlink:href="dir_000024_000011.html" target="_top" xlink:title="26">
<text text-anchor="middle" x="214.34" y="-63.2" font-family="Helvetica,sans-Serif" font-size="10.00">26</text>
</a>
</g>
</g>
<!-- dir_43a78711b146eb135379d6e36f91985d -->
<g id="node6" class="node">
<title>dir_43a78711b146eb135379d6e36f91985d</title>
<g id="a_node6"><a xlink:href="dir_43a78711b146eb135379d6e36f91985d.html" target="_top" xlink:title="synthesis">
<polygon fill="#a2b4d6" stroke="#404040" points="159.5,-124 96.5,-124 96.5,-88 159.5,-88 159.5,-124"/>
<text text-anchor="middle" x="128" y="-103.5" font-family="Helvetica,sans-Serif" font-size="10.00">synthesis</text>
</a>
</g>
</g>
<!-- dir_43a78711b146eb135379d6e36f91985d&#45;&gt;dir_0a436fc82d73b0b9b664d07557632391 -->
<g id="edge4" class="edge">
<title>dir_43a78711b146eb135379d6e36f91985d&#45;&gt;dir_0a436fc82d73b0b9b664d07557632391</title>
<path fill="none" stroke="black" d="M147.78,-87.7C157.75,-78.97 170.01,-68.24 180.86,-58.75"/>
<polygon fill="black" stroke="black" points="183.23,-61.32 188.45,-52.1 178.62,-56.06 183.23,-61.32"/>
<g id="a_edge4&#45;headlabel"><a xlink:href="dir_000025_000011.html" target="_top" xlink:title="8">
<text text-anchor="middle" x="182.4" y="-63.33" font-family="Helvetica,sans-Serif" font-size="10.00">8</text>
</a>
</g>
</g>
<!-- dir_f10a8ee7b670d86439d9b3dd80b1027c -->
<g id="node7" class="node">
<title>dir_f10a8ee7b670d86439d9b3dd80b1027c</title>
<g id="a_node7"><a xlink:href="dir_f10a8ee7b670d86439d9b3dd80b1027c.html" target="_top" xlink:title="taint">
<polygon fill="#a2b4d6" stroke="#404040" points="78,-124 24,-124 24,-88 78,-88 78,-124"/>
<text text-anchor="middle" x="51" y="-103.5" font-family="Helvetica,sans-Serif" font-size="10.00">taint</text>
</a>
</g>
</g>
<!-- dir_f10a8ee7b670d86439d9b3dd80b1027c&#45;&gt;dir_0a436fc82d73b0b9b664d07557632391 -->
<g id="edge5" class="edge">
<title>dir_f10a8ee7b670d86439d9b3dd80b1027c&#45;&gt;dir_0a436fc82d73b0b9b664d07557632391</title>
<path fill="none" stroke="black" d="M74.78,-87.75C79.07,-84.98 83.59,-82.28 88,-80 114.12,-66.52 145.25,-54.96 169.25,-46.94"/>
<polygon fill="black" stroke="black" points="170.65,-50.16 179.07,-43.72 168.47,-43.51 170.65,-50.16"/>
<g id="a_edge5&#45;headlabel"><a xlink:href="dir_000026_000011.html" target="_top" xlink:title="2">
<text text-anchor="middle" x="168.12" y="-51.48" font-family="Helvetica,sans-Serif" font-size="10.00">2</text>
</a>
</g>
</g>
</g>
</svg>
