<?xml version="1.0" encoding="UTF-8" standalone="no"?>
<!DOCTYPE svg PUBLIC "-//W3C//DTD SVG 1.1//EN"
 "http://www.w3.org/Graphics/SVG/1.1/DTD/svg11.dtd">
<!-- Generated by graphviz version 2.50.0 (20211204.2007)
 -->
<!-- Title: /home/jonathan/Works/Tools/Triton/src/libtriton/engines/synthesis Pages: 1 -->
<svg width="104pt" height="151pt"
 viewBox="0.00 0.00 104.00 151.00" xmlns="http://www.w3.org/2000/svg" xmlns:xlink="http://www.w3.org/1999/xlink">
<g id="graph0" class="graph" transform="scale(1 1) rotate(0) translate(4 147)">
<title>/home/jonathan/Works/Tools/Triton/src/libtriton/engines/synthesis</title>
<polygon fill="white" stroke="transparent" points="-4,4 -4,-147 100,-147 100,4 -4,4"/>
<g id="clust1" class="cluster">
<title>clusterdir_8a4592047e397cc99d5435986dcaa724</title>
<g id="a_clust1"><a xlink:href="dir_8a4592047e397cc99d5435986dcaa724.html" target="_top" xlink:title="engines">
<polygon fill="#edf0f7" stroke="#7f7f7f" stroke-dasharray="5,2" points="8,-64 8,-135 88,-135 88,-64 8,-64"/>
<text text-anchor="middle" x="48" y="-123" font-family="Helvetica,sans-Serif" font-size="10.00">engines</text>
</a>
</g>
</g>
<!-- dir_43a78711b146eb135379d6e36f91985d -->
<g id="node1" class="node">
<title>dir_43a78711b146eb135379d6e36f91985d</title>
<g id="a_node1"><a xlink:href="dir_43a78711b146eb135379d6e36f91985d.html" target="_top" xlink:title="synthesis">
<polygon fill="#edf0f7" stroke="#404040" stroke-width="2" points="79.5,-108 16.5,-108 16.5,-72 79.5,-72 79.5,-108"/>
<text text-anchor="middle" x="48" y="-87.5" font-family="Helvetica,sans-Serif" font-size="10.00">synthesis</text>
</a>
</g>
</g>
<!-- dir_0a436fc82d73b0b9b664d07557632391 -->
<g id="node2" class="node">
<title>dir_0a436fc82d73b0b9b664d07557632391</title>
<g id="a_node2"><a xlink:href="dir_0a436fc82d73b0b9b664d07557632391.html" target="_top" xlink:title="includes">
<polygon fill="none" stroke="red" stroke-dasharray="5,2" points="76.5,-36 19.5,-36 19.5,0 76.5,0 76.5,-36"/>
<text text-anchor="middle" x="48" y="-15.5" font-family="Helvetica,sans-Serif" font-size="10.00">includes</text>
</a>
</g>
</g>
<!-- dir_43a78711b146eb135379d6e36f91985d&#45;&gt;dir_0a436fc82d73b0b9b664d07557632391 -->
<g id="edge1" class="edge">
<title>dir_43a78711b146eb135379d6e36f91985d&#45;&gt;dir_0a436fc82d73b0b9b664d07557632391</title>
<path fill="none" stroke="black" d="M48,-71.7C48,-63.98 48,-54.71 48,-46.11"/>
<polygon fill="black" stroke="black" points="51.5,-46.1 48,-36.1 44.5,-46.1 51.5,-46.1"/>
<g id="a_edge1&#45;headlabel"><a xlink:href="dir_000025_000011.html" target="_top" xlink:title="8">
<text text-anchor="middle" x="54.34" y="-47.2" font-family="Helvetica,sans-Serif" font-size="10.00">8</text>
</a>
</g>
</g>
</g>
</svg>
