<?xml version="1.0" encoding="UTF-8" standalone="no"?>
<!DOCTYPE svg PUBLIC "-//W3C//DTD SVG 1.1//EN"
 "http://www.w3.org/Graphics/SVG/1.1/DTD/svg11.dtd">
<!-- Generated by graphviz version 2.50.0 (20211204.2007)
 -->
<!-- Title: /home/jonathan/Works/Tools/Triton/src/libtriton/stubs Pages: 1 -->
<svg width="98pt" height="167pt"
 viewBox="0.00 0.00 98.00 167.00" xmlns="http://www.w3.org/2000/svg" xmlns:xlink="http://www.w3.org/1999/xlink">
<g id="graph0" class="graph" transform="scale(1 1) rotate(0) translate(4 163)">
<title>/home/jonathan/Works/Tools/Triton/src/libtriton/stubs</title>
<polygon fill="white" stroke="transparent" points="-4,4 -4,-163 94,-163 94,4 -4,4"/>
<g id="clust1" class="cluster">
<title>clusterdir_6826be0f3781bbf5456339e274d7c653</title>
<g id="a_clust1"><a xlink:href="dir_6826be0f3781bbf5456339e274d7c653.html" target="_top" xlink:title="libtriton">
<polygon fill="#ddddee" stroke="black" points="8,-8 8,-151 82,-151 82,-8 8,-8"/>
<text text-anchor="middle" x="45" y="-139" font-family="Helvetica,sans-Serif" font-size="10.00">libtriton</text>
</a>
</g>
</g>
<!-- dir_0a436fc82d73b0b9b664d07557632391 -->
<g id="node1" class="node">
<title>dir_0a436fc82d73b0b9b664d07557632391</title>
<g id="a_node1"><a xlink:href="dir_0a436fc82d73b0b9b664d07557632391.html" target="_top" xlink:title="includes">
<polygon fill="white" stroke="red" points="73.5,-52 16.5,-52 16.5,-16 73.5,-16 73.5,-52"/>
<text text-anchor="middle" x="45" y="-31.5" font-family="Helvetica,sans-Serif" font-size="10.00">includes</text>
</a>
</g>
</g>
<!-- dir_705ef513716924990f9c269cf1898690 -->
<g id="node2" class="node">
<title>dir_705ef513716924990f9c269cf1898690</title>
<g id="a_node2"><a xlink:href="dir_705ef513716924990f9c269cf1898690.html" target="_top" xlink:title="stubs">
<polygon fill="#eeeeff" stroke="black" points="72,-124 18,-124 18,-88 72,-88 72,-124"/>
<text text-anchor="middle" x="45" y="-103.5" font-family="Helvetica,sans-Serif" font-size="10.00">stubs</text>
</a>
</g>
</g>
<!-- dir_705ef513716924990f9c269cf1898690&#45;&gt;dir_0a436fc82d73b0b9b664d07557632391 -->
<g id="edge1" class="edge">
<title>dir_705ef513716924990f9c269cf1898690&#45;&gt;dir_0a436fc82d73b0b9b664d07557632391</title>
<path fill="none" stroke="black" d="M45,-87.7C45,-79.98 45,-70.71 45,-62.11"/>
<polygon fill="black" stroke="black" points="48.5,-62.1 45,-52.1 41.5,-62.1 48.5,-62.1"/>
<g id="a_edge1&#45;headlabel"><a xlink:href="dir_000030_000027.html" target="_top" xlink:title="1">
<text text-anchor="middle" x="51.34" y="-63.2" font-family="Helvetica,sans-Serif" font-size="10.00">1</text>
</a>
</g>
</g>
</g>
</svg>
