<?xml version="1.0" encoding="UTF-8" standalone="no"?>
<!DOCTYPE svg PUBLIC "-//W3C//DTD SVG 1.1//EN"
 "http://www.w3.org/Graphics/SVG/1.1/DTD/svg11.dtd">
<!-- Generated by graphviz version 7.0.0 (20221023.0053)
 -->
<!-- Title: /Users/jonathan/Works/Tools/Triton/src/libtriton/ast Pages: 1 -->
<svg width="359pt" height="141pt"
 viewBox="0.00 0.00 359.00 141.00" xmlns="http://www.w3.org/2000/svg" xmlns:xlink="http://www.w3.org/1999/xlink">
<g id="graph0" class="graph" transform="scale(1 1) rotate(0) translate(4 137)">
<title>/Users/jonathan/Works/Tools/Triton/src/libtriton/ast</title>
<g id="clust1" class="cluster">
<title>clusterdir_37d3c20575c22bcebdec4fca2de67aba</title>
<g id="a_clust1"><a xlink:href="dir_37d3c20575c22bcebdec4fca2de67aba.html" target="_top" xlink:title="libtriton">
<polygon fill="#edf0f7" stroke="#7f7f7f" stroke-dasharray="5,2" points="8,-8 8,-125 343,-125 343,-8 8,-8"/>
<text text-anchor="middle" x="175.5" y="-113" font-family="Helvetica,sans-Serif" font-size="10.00">libtriton</text>
</a>
</g>
</g>
<g id="clust2" class="cluster">
<title>clusterdir_ca1fc8bb7cf76268465e0c4bba54c74a</title>
<g id="a_clust2"><a xlink:href="dir_ca1fc8bb7cf76268465e0c4bba54c74a.html" target="_top">
<polygon fill="#edf0f7" stroke="#404040" stroke-width="2" points="16,-63 16,-98 335,-98 335,-63 16,-63"/>
</a>
</g>
</g>
<!-- dir_f9d272ec16541780a187e9fc1e6dde2e -->
<g id="node1" class="node">
<title>dir_f9d272ec16541780a187e9fc1e6dde2e</title>
<g id="a_node1"><a xlink:href="dir_f9d272ec16541780a187e9fc1e6dde2e.html" target="_top" xlink:title="includes">
<polygon fill="#a2b4d6" stroke="red" points="216.5,-35 163.5,-35 163.5,-16 216.5,-16 216.5,-35"/>
<text text-anchor="middle" x="190" y="-23" font-family="Helvetica,sans-Serif" font-size="10.00">includes</text>
</a>
</g>
</g>
<!-- dir_ca1fc8bb7cf76268465e0c4bba54c74a -->
<g id="node2" class="node">
<title>dir_ca1fc8bb7cf76268465e0c4bba54c74a</title>
<text text-anchor="middle" x="312" y="-78" font-family="Helvetica,sans-Serif" font-size="10.00">ast</text>
</g>
<!-- dir_ca1fc8bb7cf76268465e0c4bba54c74a&#45;&gt;dir_f9d272ec16541780a187e9fc1e6dde2e -->
<g id="edge1" class="edge">
<title>dir_ca1fc8bb7cf76268465e0c4bba54c74a&#45;&gt;dir_f9d272ec16541780a187e9fc1e6dde2e</title>
<path fill="none" stroke="#63b8ff" d="M301.12,-71.18C297.13,-68.36 292.49,-65.33 288,-63 268.83,-53.04 246.31,-44.45 227.7,-38.11"/>
<polygon fill="#63b8ff" stroke="#63b8ff" points="228.99,-34.85 218.4,-35.03 226.79,-41.5 228.99,-34.85"/>
<g id="a_edge1&#45;headlabel"><a xlink:href="dir_000004_000011.html" target="_top" xlink:title="51">
<text text-anchor="middle" x="231.86" y="-30.31" font-family="Helvetica,sans-Serif" font-size="10.00" fill="#63b8ff">51</text>
</a>
</g>
</g>
<!-- dir_5bed39a08c5f2f6c0ab12fd1eaa545a8 -->
<g id="node3" class="node">
<title>dir_5bed39a08c5f2f6c0ab12fd1eaa545a8</title>
<g id="a_node3"><a xlink:href="dir_5bed39a08c5f2f6c0ab12fd1eaa545a8.html" target="_top" xlink:title="bitwuzla">
<polygon fill="#a2b4d6" stroke="#404040" points="278.5,-90 225.5,-90 225.5,-71 278.5,-71 278.5,-90"/>
<text text-anchor="middle" x="252" y="-78" font-family="Helvetica,sans-Serif" font-size="10.00">bitwuzla</text>
</a>
</g>
</g>
<!-- dir_5bed39a08c5f2f6c0ab12fd1eaa545a8&#45;&gt;dir_f9d272ec16541780a187e9fc1e6dde2e -->
<g id="edge2" class="edge">
<title>dir_5bed39a08c5f2f6c0ab12fd1eaa545a8&#45;&gt;dir_f9d272ec16541780a187e9fc1e6dde2e</title>
<path fill="none" stroke="#63b8ff" d="M241.48,-70.51C232.61,-62.93 219.69,-51.88 209.01,-42.75"/>
<polygon fill="#63b8ff" stroke="#63b8ff" points="211.39,-40.18 201.51,-36.34 206.84,-45.5 211.39,-40.18"/>
<g id="a_edge2&#45;headlabel"><a xlink:href="dir_000006_000011.html" target="_top" xlink:title="6">
<text text-anchor="middle" x="214.81" y="-36.87" font-family="Helvetica,sans-Serif" font-size="10.00" fill="#63b8ff">6</text>
</a>
</g>
</g>
<!-- dir_445c3a4842d84642565670840e64013c -->
<g id="node4" class="node">
<title>dir_445c3a4842d84642565670840e64013c</title>
<g id="a_node4"><a xlink:href="dir_445c3a4842d84642565670840e64013c.html" target="_top" xlink:title="llvm">
<polygon fill="#a2b4d6" stroke="#404040" points="207.5,-90 172.5,-90 172.5,-71 207.5,-71 207.5,-90"/>
<text text-anchor="middle" x="190" y="-78" font-family="Helvetica,sans-Serif" font-size="10.00">llvm</text>
</a>
</g>
</g>
<!-- dir_445c3a4842d84642565670840e64013c&#45;&gt;dir_f9d272ec16541780a187e9fc1e6dde2e -->
<g id="edge3" class="edge">
<title>dir_445c3a4842d84642565670840e64013c&#45;&gt;dir_f9d272ec16541780a187e9fc1e6dde2e</title>
<path fill="none" stroke="#63b8ff" d="M190,-70.75C190,-64.27 190,-55.16 190,-46.9"/>
<polygon fill="#63b8ff" stroke="#63b8ff" points="193.5,-46.96 190,-36.96 186.5,-46.96 193.5,-46.96"/>
<g id="a_edge3&#45;headlabel"><a xlink:href="dir_000014_000011.html" target="_top" xlink:title="8">
<text text-anchor="middle" x="196.34" y="-46.54" font-family="Helvetica,sans-Serif" font-size="10.00" fill="#63b8ff">8</text>
</a>
</g>
</g>
<!-- dir_c371e737e1a894071f1ce7f9ae5aa16e -->
<g id="node5" class="node">
<title>dir_c371e737e1a894071f1ce7f9ae5aa16e</title>
<g id="a_node5"><a xlink:href="dir_c371e737e1a894071f1ce7f9ae5aa16e.html" target="_top" xlink:title="representations">
<polygon fill="#a2b4d6" stroke="#404040" points="154.5,-90 71.5,-90 71.5,-71 154.5,-71 154.5,-90"/>
<text text-anchor="middle" x="113" y="-78" font-family="Helvetica,sans-Serif" font-size="10.00">representations</text>
</a>
</g>
</g>
<!-- dir_c371e737e1a894071f1ce7f9ae5aa16e&#45;&gt;dir_f9d272ec16541780a187e9fc1e6dde2e -->
<g id="edge4" class="edge">
<title>dir_c371e737e1a894071f1ce7f9ae5aa16e&#45;&gt;dir_f9d272ec16541780a187e9fc1e6dde2e</title>
<path fill="none" stroke="#63b8ff" d="M126.06,-70.51C137.52,-62.62 154.43,-50.98 167.98,-41.65"/>
<polygon fill="#63b8ff" stroke="#63b8ff" points="169.63,-44.77 175.88,-36.22 165.66,-39 169.63,-44.77"/>
<g id="a_edge4&#45;headlabel"><a xlink:href="dir_000020_000011.html" target="_top" xlink:title="17">
<text text-anchor="middle" x="169.53" y="-45.79" font-family="Helvetica,sans-Serif" font-size="10.00" fill="#63b8ff">17</text>
</a>
</g>
</g>
<!-- dir_14189246880e02282b8d6227e8c76ac7 -->
<g id="node6" class="node">
<title>dir_14189246880e02282b8d6227e8c76ac7</title>
<g id="a_node6"><a xlink:href="dir_14189246880e02282b8d6227e8c76ac7.html" target="_top" xlink:title="z3">
<polygon fill="#a2b4d6" stroke="#404040" points="53.5,-90 24.5,-90 24.5,-71 53.5,-71 53.5,-90"/>
<text text-anchor="middle" x="39" y="-78" font-family="Helvetica,sans-Serif" font-size="10.00">z3</text>
</a>
</g>
</g>
<!-- dir_14189246880e02282b8d6227e8c76ac7&#45;&gt;dir_f9d272ec16541780a187e9fc1e6dde2e -->
<g id="edge5" class="edge">
<title>dir_14189246880e02282b8d6227e8c76ac7&#45;&gt;dir_f9d272ec16541780a187e9fc1e6dde2e</title>
<path fill="none" stroke="#63b8ff" d="M50.26,-70.65C54.14,-67.91 58.61,-65.07 63,-63 91.6,-49.5 126.24,-39.95 152.11,-34.02"/>
<polygon fill="#63b8ff" stroke="#63b8ff" points="152.83,-37.44 161.85,-31.87 151.33,-30.6 152.83,-37.44"/>
<g id="a_edge5&#45;headlabel"><a xlink:href="dir_000033_000011.html" target="_top" xlink:title="9">
<text text-anchor="middle" x="151.41" y="-38.16" font-family="Helvetica,sans-Serif" font-size="10.00" fill="#63b8ff">9</text>
</a>
</g>
</g>
</g>
</svg>
