<?xml version="1.0" encoding="UTF-8" standalone="no"?>
<!DOCTYPE svg PUBLIC "-//W3C//DTD SVG 1.1//EN"
 "http://www.w3.org/Graphics/SVG/1.1/DTD/svg11.dtd">
<!-- Generated by graphviz version 2.49.0 (20210828.1703)
 -->
<!-- Title: /home/jonathan/Works/Tools/Triton/src/libtriton/ast Pages: 1 -->
<svg width="370pt" height="175pt"
 viewBox="0.00 0.00 370.00 175.00" xmlns="http://www.w3.org/2000/svg" xmlns:xlink="http://www.w3.org/1999/xlink">
<g id="graph0" class="graph" transform="scale(1 1) rotate(0) translate(4 171)">
<title>/home/jonathan/Works/Tools/Triton/src/libtriton/ast</title>
<polygon fill="white" stroke="transparent" points="-4,4 -4,-171 366,-171 366,4 -4,4"/>
<g id="clust1" class="cluster">
<title>clusterdir_6826be0f3781bbf5456339e274d7c653</title>
<g id="a_clust1"><a xlink:href="dir_6826be0f3781bbf5456339e274d7c653.html" target="_top" xlink:title="libtriton">
<polygon fill="#ddddee" stroke="black" points="8,-8 8,-159 354,-159 354,-8 8,-8"/>
<text text-anchor="middle" x="181" y="-147" font-family="Helvetica,sans-Serif" font-size="10.00">libtriton</text>
</a>
</g>
</g>
<g id="clust2" class="cluster">
<title>clusterdir_d14ccd332cda101c5bd89ea0107f3ea8</title>
<g id="a_clust2"><a xlink:href="dir_d14ccd332cda101c5bd89ea0107f3ea8.html" target="_top">
<polygon fill="#eeeeff" stroke="black" points="16,-80 16,-132 346,-132 346,-80 16,-80"/>
</a>
</g>
</g>
<!-- dir_0a436fc82d73b0b9b664d07557632391 -->
<g id="node1" class="node">
<title>dir_0a436fc82d73b0b9b664d07557632391</title>
<g id="a_node1"><a xlink:href="dir_0a436fc82d73b0b9b664d07557632391.html" target="_top" xlink:title="includes">
<polygon fill="white" stroke="red" points="218.5,-52 161.5,-52 161.5,-16 218.5,-16 218.5,-52"/>
<text text-anchor="middle" x="190" y="-31.5" font-family="Helvetica,sans-Serif" font-size="10.00">includes</text>
</a>
</g>
</g>
<!-- dir_d14ccd332cda101c5bd89ea0107f3ea8 -->
<g id="node2" class="node">
<title>dir_d14ccd332cda101c5bd89ea0107f3ea8</title>
<text text-anchor="middle" x="311" y="-103.5" font-family="Helvetica,sans-Serif" font-size="10.00">ast</text>
</g>
<!-- dir_d14ccd332cda101c5bd89ea0107f3ea8&#45;&gt;dir_0a436fc82d73b0b9b664d07557632391 -->
<g id="edge1" class="edge">
<title>dir_d14ccd332cda101c5bd89ea0107f3ea8&#45;&gt;dir_0a436fc82d73b0b9b664d07557632391</title>
<path fill="none" stroke="black" d="M287.25,-87.92C283.22,-85.19 279.03,-82.45 275,-80 259.88,-70.8 242.71,-61.5 227.78,-53.76"/>
<polygon fill="black" stroke="black" points="229.3,-50.61 218.81,-49.16 226.11,-56.84 229.3,-50.61"/>
<g id="a_edge1&#45;headlabel"><a xlink:href="dir_000008_000025.html" target="_top" xlink:title="34">
<text text-anchor="middle" x="233.8" y="-47.23" font-family="Helvetica,sans-Serif" font-size="10.00">34</text>
</a>
</g>
</g>
<!-- dir_baf709654e826a6459d643d6ba6646e1 -->
<g id="node3" class="node">
<title>dir_baf709654e826a6459d643d6ba6646e1</title>
<g id="a_node3"><a xlink:href="dir_baf709654e826a6459d643d6ba6646e1.html" target="_top" xlink:title="bitwuzla">
<polygon fill="white" stroke="black" points="266,-124 208,-124 208,-88 266,-88 266,-124"/>
<text text-anchor="middle" x="237" y="-103.5" font-family="Helvetica,sans-Serif" font-size="10.00">bitwuzla</text>
</a>
</g>
</g>
<!-- dir_baf709654e826a6459d643d6ba6646e1&#45;&gt;dir_0a436fc82d73b0b9b664d07557632391 -->
<g id="edge2" class="edge">
<title>dir_baf709654e826a6459d643d6ba6646e1&#45;&gt;dir_0a436fc82d73b0b9b664d07557632391</title>
<path fill="none" stroke="black" d="M225.38,-87.7C219.86,-79.47 213.15,-69.48 207.07,-60.42"/>
<polygon fill="black" stroke="black" points="209.96,-58.46 201.48,-52.1 204.15,-62.36 209.96,-58.46"/>
<g id="a_edge2&#45;headlabel"><a xlink:href="dir_000009_000025.html" target="_top" xlink:title="5">
<text text-anchor="middle" x="214.33" y="-57.36" font-family="Helvetica,sans-Serif" font-size="10.00">5</text>
</a>
</g>
</g>
<!-- dir_839ab4986764e441c54e8bf51c0b78f3 -->
<g id="node4" class="node">
<title>dir_839ab4986764e441c54e8bf51c0b78f3</title>
<g id="a_node4"><a xlink:href="dir_839ab4986764e441c54e8bf51c0b78f3.html" target="_top" xlink:title="representations">
<polygon fill="white" stroke="black" points="189.5,-124 96.5,-124 96.5,-88 189.5,-88 189.5,-124"/>
<text text-anchor="middle" x="143" y="-103.5" font-family="Helvetica,sans-Serif" font-size="10.00">representations</text>
</a>
</g>
</g>
<!-- dir_839ab4986764e441c54e8bf51c0b78f3&#45;&gt;dir_0a436fc82d73b0b9b664d07557632391 -->
<g id="edge4" class="edge">
<title>dir_839ab4986764e441c54e8bf51c0b78f3&#45;&gt;dir_0a436fc82d73b0b9b664d07557632391</title>
<path fill="none" stroke="black" d="M154.62,-87.7C160.14,-79.47 166.85,-69.48 172.93,-60.42"/>
<polygon fill="black" stroke="black" points="175.85,-62.36 178.52,-52.1 170.04,-58.46 175.85,-62.36"/>
<g id="a_edge4&#45;headlabel"><a xlink:href="dir_000010_000025.html" target="_top" xlink:title="10">
<text text-anchor="middle" x="176.2" y="-64.42" font-family="Helvetica,sans-Serif" font-size="10.00">10</text>
</a>
</g>
</g>
<!-- dir_9aad8827da345e3fb88113b3f8f7a4bd -->
<g id="node5" class="node">
<title>dir_9aad8827da345e3fb88113b3f8f7a4bd</title>
<g id="a_node5"><a xlink:href="dir_9aad8827da345e3fb88113b3f8f7a4bd.html" target="_top" xlink:title="z3">
<polygon fill="white" stroke="black" points="78,-124 24,-124 24,-88 78,-88 78,-124"/>
<text text-anchor="middle" x="51" y="-103.5" font-family="Helvetica,sans-Serif" font-size="10.00">z3</text>
</a>
</g>
</g>
<!-- dir_9aad8827da345e3fb88113b3f8f7a4bd&#45;&gt;dir_0a436fc82d73b0b9b664d07557632391 -->
<g id="edge3" class="edge">
<title>dir_9aad8827da345e3fb88113b3f8f7a4bd&#45;&gt;dir_0a436fc82d73b0b9b664d07557632391</title>
<path fill="none" stroke="black" d="M74.89,-87.96C79.17,-85.16 83.66,-82.4 88,-80 108.43,-68.71 132.26,-58.07 151.74,-49.97"/>
<polygon fill="black" stroke="black" points="153.28,-53.12 161.2,-46.09 150.62,-46.64 153.28,-53.12"/>
<g id="a_edge3&#45;headlabel"><a xlink:href="dir_000011_000025.html" target="_top" xlink:title="8">
<text text-anchor="middle" x="151.03" y="-54.61" font-family="Helvetica,sans-Serif" font-size="10.00">8</text>
</a>
</g>
</g>
</g>
</svg>
