<?xml version="1.0" encoding="UTF-8" standalone="no"?>
<!DOCTYPE svg PUBLIC "-//W3C//DTD SVG 1.1//EN"
 "http://www.w3.org/Graphics/SVG/1.1/DTD/svg11.dtd">
<!-- Generated by graphviz version 2.49.0 (20210828.1703)
 -->
<!-- Title: /home/jonathan/Works/Tools/Triton/src/libtriton/engines Pages: 1 -->
<svg width="417pt" height="175pt"
 viewBox="0.00 0.00 417.00 175.00" xmlns="http://www.w3.org/2000/svg" xmlns:xlink="http://www.w3.org/1999/xlink">
<g id="graph0" class="graph" transform="scale(1 1) rotate(0) translate(4 171)">
<title>/home/jonathan/Works/Tools/Triton/src/libtriton/engines</title>
<polygon fill="white" stroke="transparent" points="-4,4 -4,-171 413,-171 413,4 -4,4"/>
<g id="clust1" class="cluster">
<title>clusterdir_6826be0f3781bbf5456339e274d7c653</title>
<g id="a_clust1"><a xlink:href="dir_6826be0f3781bbf5456339e274d7c653.html" target="_top" xlink:title="libtriton">
<polygon fill="#ddddee" stroke="black" points="8,-8 8,-159 401,-159 401,-8 8,-8"/>
<text text-anchor="middle" x="204.5" y="-147" font-family="Helvetica,sans-Serif" font-size="10.00">libtriton</text>
</a>
</g>
</g>
<g id="clust2" class="cluster">
<title>clusterdir_8a4592047e397cc99d5435986dcaa724</title>
<g id="a_clust2"><a xlink:href="dir_8a4592047e397cc99d5435986dcaa724.html" target="_top">
<polygon fill="#eeeeff" stroke="black" points="16,-80 16,-132 393,-132 393,-80 16,-80"/>
</a>
</g>
</g>
<!-- dir_0a436fc82d73b0b9b664d07557632391 -->
<g id="node1" class="node">
<title>dir_0a436fc82d73b0b9b664d07557632391</title>
<g id="a_node1"><a xlink:href="dir_0a436fc82d73b0b9b664d07557632391.html" target="_top" xlink:title="includes">
<polygon fill="white" stroke="red" points="196.5,-52 139.5,-52 139.5,-16 196.5,-16 196.5,-52"/>
<text text-anchor="middle" x="168" y="-31.5" font-family="Helvetica,sans-Serif" font-size="10.00">includes</text>
</a>
</g>
</g>
<!-- dir_8a4592047e397cc99d5435986dcaa724 -->
<g id="node2" class="node">
<title>dir_8a4592047e397cc99d5435986dcaa724</title>
<text text-anchor="middle" x="357" y="-103.5" font-family="Helvetica,sans-Serif" font-size="10.00">engines</text>
</g>
<!-- dir_6408307a4d2f537021d7a2dc6107b634 -->
<g id="node3" class="node">
<title>dir_6408307a4d2f537021d7a2dc6107b634</title>
<g id="a_node3"><a xlink:href="dir_6408307a4d2f537021d7a2dc6107b634.html" target="_top" xlink:title="solver">
<polygon fill="white" stroke="red" points="311,-124 257,-124 257,-88 311,-88 311,-124"/>
<text text-anchor="middle" x="284" y="-103.5" font-family="Helvetica,sans-Serif" font-size="10.00">solver</text>
</a>
</g>
</g>
<!-- dir_6408307a4d2f537021d7a2dc6107b634&#45;&gt;dir_0a436fc82d73b0b9b664d07557632391 -->
<g id="edge4" class="edge">
<title>dir_6408307a4d2f537021d7a2dc6107b634&#45;&gt;dir_0a436fc82d73b0b9b664d07557632391</title>
<path fill="none" stroke="black" d="M259.81,-87.74C255.9,-85.08 251.87,-82.42 248,-80 234.39,-71.48 219.11,-62.69 205.57,-55.17"/>
<polygon fill="black" stroke="black" points="206.97,-51.95 196.52,-50.19 203.59,-58.08 206.97,-51.95"/>
<g id="a_edge4&#45;headlabel"><a xlink:href="dir_000019_000025.html" target="_top" xlink:title="20">
<text text-anchor="middle" x="211.48" y="-48.69" font-family="Helvetica,sans-Serif" font-size="10.00">20</text>
</a>
</g>
</g>
<!-- dir_5d163d56b379826e8b6fecbb4d2a5cde -->
<g id="node4" class="node">
<title>dir_5d163d56b379826e8b6fecbb4d2a5cde</title>
<g id="a_node4"><a xlink:href="dir_5d163d56b379826e8b6fecbb4d2a5cde.html" target="_top" xlink:title="symbolic">
<polygon fill="white" stroke="black" points="238.5,-124 177.5,-124 177.5,-88 238.5,-88 238.5,-124"/>
<text text-anchor="middle" x="208" y="-103.5" font-family="Helvetica,sans-Serif" font-size="10.00">symbolic</text>
</a>
</g>
</g>
<!-- dir_5d163d56b379826e8b6fecbb4d2a5cde&#45;&gt;dir_0a436fc82d73b0b9b664d07557632391 -->
<g id="edge2" class="edge">
<title>dir_5d163d56b379826e8b6fecbb4d2a5cde&#45;&gt;dir_0a436fc82d73b0b9b664d07557632391</title>
<path fill="none" stroke="black" d="M198.11,-87.7C193.51,-79.64 187.94,-69.89 182.85,-60.98"/>
<polygon fill="black" stroke="black" points="185.77,-59.05 177.77,-52.1 179.7,-62.52 185.77,-59.05"/>
<g id="a_edge2&#45;headlabel"><a xlink:href="dir_000022_000025.html" target="_top" xlink:title="22">
<text text-anchor="middle" x="190.02" y="-58.26" font-family="Helvetica,sans-Serif" font-size="10.00">22</text>
</a>
</g>
</g>
<!-- dir_43a78711b146eb135379d6e36f91985d -->
<g id="node5" class="node">
<title>dir_43a78711b146eb135379d6e36f91985d</title>
<g id="a_node5"><a xlink:href="dir_43a78711b146eb135379d6e36f91985d.html" target="_top" xlink:title="synthesis">
<polygon fill="white" stroke="black" points="159.5,-124 96.5,-124 96.5,-88 159.5,-88 159.5,-124"/>
<text text-anchor="middle" x="128" y="-103.5" font-family="Helvetica,sans-Serif" font-size="10.00">synthesis</text>
</a>
</g>
</g>
<!-- dir_43a78711b146eb135379d6e36f91985d&#45;&gt;dir_0a436fc82d73b0b9b664d07557632391 -->
<g id="edge1" class="edge">
<title>dir_43a78711b146eb135379d6e36f91985d&#45;&gt;dir_0a436fc82d73b0b9b664d07557632391</title>
<path fill="none" stroke="black" d="M137.89,-87.7C142.49,-79.64 148.06,-69.89 153.15,-60.98"/>
<polygon fill="black" stroke="black" points="156.3,-62.52 158.23,-52.1 150.23,-59.05 156.3,-62.52"/>
<g id="a_edge1&#45;headlabel"><a xlink:href="dir_000023_000025.html" target="_top" xlink:title="8">
<text text-anchor="middle" x="156.99" y="-64.55" font-family="Helvetica,sans-Serif" font-size="10.00">8</text>
</a>
</g>
</g>
<!-- dir_f10a8ee7b670d86439d9b3dd80b1027c -->
<g id="node6" class="node">
<title>dir_f10a8ee7b670d86439d9b3dd80b1027c</title>
<g id="a_node6"><a xlink:href="dir_f10a8ee7b670d86439d9b3dd80b1027c.html" target="_top" xlink:title="taint">
<polygon fill="white" stroke="black" points="78,-124 24,-124 24,-88 78,-88 78,-124"/>
<text text-anchor="middle" x="51" y="-103.5" font-family="Helvetica,sans-Serif" font-size="10.00">taint</text>
</a>
</g>
</g>
<!-- dir_f10a8ee7b670d86439d9b3dd80b1027c&#45;&gt;dir_0a436fc82d73b0b9b664d07557632391 -->
<g id="edge3" class="edge">
<title>dir_f10a8ee7b670d86439d9b3dd80b1027c&#45;&gt;dir_0a436fc82d73b0b9b664d07557632391</title>
<path fill="none" stroke="black" d="M75.9,-87.77C79.91,-85.12 84.04,-82.44 88,-80 101.55,-71.63 116.71,-62.94 130.16,-55.45"/>
<polygon fill="black" stroke="black" points="132.1,-58.38 139.16,-50.48 128.72,-52.25 132.1,-58.38"/>
<g id="a_edge3&#45;headlabel"><a xlink:href="dir_000024_000025.html" target="_top" xlink:title="2">
<text text-anchor="middle" x="130.33" y="-60.1" font-family="Helvetica,sans-Serif" font-size="10.00">2</text>
</a>
</g>
</g>
</g>
</svg>
