<?xml version="1.0" encoding="UTF-8" standalone="no"?>
<!DOCTYPE svg PUBLIC "-//W3C//DTD SVG 1.1//EN"
 "http://www.w3.org/Graphics/SVG/1.1/DTD/svg11.dtd">
<!-- Generated by graphviz version 2.49.0 (20210828.1703)
 -->
<!-- Title: /home/jonathan/Works/Tools/Triton/src/libtriton/includes/triton/externalLibs.hpp Pages: 1 -->
<svg width="1542pt" height="217pt"
 viewBox="0.00 0.00 1542.00 217.00" xmlns="http://www.w3.org/2000/svg" xmlns:xlink="http://www.w3.org/1999/xlink">
<g id="graph0" class="graph" transform="scale(1 1) rotate(0) translate(4 213)">
<title>/home/jonathan/Works/Tools/Triton/src/libtriton/includes/triton/externalLibs.hpp</title>
<polygon fill="white" stroke="transparent" points="-4,4 -4,-213 1538,-213 1538,4 -4,4"/>
<!-- Node1 -->
<g id="node1" class="node">
<title>Node1</title>
<g id="a_node1"><a xlink:title=" ">
<polygon fill="#bfbfbf" stroke="black" points="620,-167.5 620,-208.5 793,-208.5 793,-167.5 620,-167.5"/>
<text text-anchor="start" x="628" y="-196.5" font-family="Helvetica,sans-Serif" font-size="10.00">/home/jonathan/Works</text>
<text text-anchor="start" x="628" y="-185.5" font-family="Helvetica,sans-Serif" font-size="10.00">/Tools/Triton/src/libtriton</text>
<text text-anchor="middle" x="706.5" y="-174.5" font-family="Helvetica,sans-Serif" font-size="10.00">/includes/triton/externalLibs.hpp</text>
</a>
</g>
</g>
<!-- Node2 -->
<g id="node2" class="node">
<title>Node2</title>
<g id="a_node2"><a xlink:href="aarch64Specifications_8cpp.html" target="_top" xlink:title=" ">
<polygon fill="white" stroke="black" points="0,-89.5 0,-130.5 235,-130.5 235,-89.5 0,-89.5"/>
<text text-anchor="start" x="8" y="-118.5" font-family="Helvetica,sans-Serif" font-size="10.00">/home/jonathan/Works</text>
<text text-anchor="start" x="8" y="-107.5" font-family="Helvetica,sans-Serif" font-size="10.00">/Tools/Triton/src/libtriton</text>
<text text-anchor="middle" x="117.5" y="-96.5" font-family="Helvetica,sans-Serif" font-size="10.00">/arch/arm/aarch64/aarch64Specifications.cpp</text>
</a>
</g>
</g>
<!-- Node1&#45;&gt;Node2 -->
<g id="edge1" class="edge">
<title>Node1&#45;&gt;Node2</title>
<path fill="none" stroke="midnightblue" d="M609.45,-175.92C516.87,-165.16 373.54,-147.99 249.5,-131 244.79,-130.36 239.99,-129.69 235.14,-129"/>
<polygon fill="midnightblue" stroke="midnightblue" points="609.31,-179.43 619.65,-177.1 610.12,-172.47 609.31,-179.43"/>
</g>
<!-- Node3 -->
<g id="node3" class="node">
<title>Node3</title>
<g id="a_node3"><a xlink:href="arm32Cpu_8cpp.html" target="_top" xlink:title=" ">
<polygon fill="white" stroke="black" points="253,-6 253,-47 424,-47 424,-6 253,-6"/>
<text text-anchor="start" x="261" y="-35" font-family="Helvetica,sans-Serif" font-size="10.00">/home/jonathan/Works</text>
<text text-anchor="start" x="261" y="-24" font-family="Helvetica,sans-Serif" font-size="10.00">/Tools/Triton/src/libtriton</text>
<text text-anchor="middle" x="338.5" y="-13" font-family="Helvetica,sans-Serif" font-size="10.00">/arch/arm/arm32/arm32Cpu.cpp</text>
</a>
</g>
</g>
<!-- Node1&#45;&gt;Node3 -->
<g id="edge2" class="edge">
<title>Node1&#45;&gt;Node3</title>
<path fill="none" stroke="midnightblue" d="M609.78,-180.87C491.34,-172.37 303.75,-155.24 282.5,-131 260.01,-105.34 290.69,-69.12 314.75,-47.03"/>
<polygon fill="midnightblue" stroke="midnightblue" points="609.73,-184.38 619.95,-181.6 610.22,-177.4 609.73,-184.38"/>
</g>
<!-- Node4 -->
<g id="node4" class="node">
<title>Node4</title>
<g id="a_node4"><a xlink:href="arm32Specifications_8cpp.html" target="_top" xlink:title=" ">
<polygon fill="white" stroke="black" points="291.5,-89.5 291.5,-130.5 511.5,-130.5 511.5,-89.5 291.5,-89.5"/>
<text text-anchor="start" x="299.5" y="-118.5" font-family="Helvetica,sans-Serif" font-size="10.00">/home/jonathan/Works</text>
<text text-anchor="start" x="299.5" y="-107.5" font-family="Helvetica,sans-Serif" font-size="10.00">/Tools/Triton/src/libtriton</text>
<text text-anchor="middle" x="401.5" y="-96.5" font-family="Helvetica,sans-Serif" font-size="10.00">/arch/arm/arm32/arm32Specifications.cpp</text>
</a>
</g>
</g>
<!-- Node1&#45;&gt;Node4 -->
<g id="edge3" class="edge">
<title>Node1&#45;&gt;Node4</title>
<path fill="none" stroke="midnightblue" d="M618.19,-164.99C574.44,-154.09 522.07,-141.04 479.78,-130.51"/>
<polygon fill="midnightblue" stroke="midnightblue" points="617.41,-168.41 627.95,-167.43 619.1,-161.61 617.41,-168.41"/>
</g>
<!-- Node5 -->
<g id="node5" class="node">
<title>Node5</title>
<g id="a_node5"><a xlink:href="x86Specifications_8cpp.html" target="_top" xlink:title=" ">
<polygon fill="white" stroke="black" points="529.5,-89.5 529.5,-130.5 699.5,-130.5 699.5,-89.5 529.5,-89.5"/>
<text text-anchor="start" x="537.5" y="-118.5" font-family="Helvetica,sans-Serif" font-size="10.00">/home/jonathan/Works</text>
<text text-anchor="start" x="537.5" y="-107.5" font-family="Helvetica,sans-Serif" font-size="10.00">/Tools/Triton/src/libtriton</text>
<text text-anchor="middle" x="614.5" y="-96.5" font-family="Helvetica,sans-Serif" font-size="10.00">/arch/x86/x86Specifications.cpp</text>
</a>
</g>
</g>
<!-- Node1&#45;&gt;Node5 -->
<g id="edge4" class="edge">
<title>Node1&#45;&gt;Node5</title>
<path fill="none" stroke="midnightblue" d="M674.76,-160.78C662.73,-150.84 649.26,-139.72 638.11,-130.51"/>
<polygon fill="midnightblue" stroke="midnightblue" points="672.87,-163.76 682.81,-167.43 677.33,-158.36 672.87,-163.76"/>
</g>
<!-- Node6 -->
<g id="node6" class="node">
<title>Node6</title>
<g id="a_node6"><a xlink:href="aarch64Cpu_8hpp.html" target="_top" xlink:title=" ">
<polygon fill="white" stroke="black" points="900,-89.5 900,-130.5 1071,-130.5 1071,-89.5 900,-89.5"/>
<text text-anchor="start" x="908" y="-118.5" font-family="Helvetica,sans-Serif" font-size="10.00">/home/jonathan/Works</text>
<text text-anchor="start" x="908" y="-107.5" font-family="Helvetica,sans-Serif" font-size="10.00">/Tools/Triton/src/libtriton</text>
<text text-anchor="middle" x="985.5" y="-96.5" font-family="Helvetica,sans-Serif" font-size="10.00">/includes/triton/aarch64Cpu.hpp</text>
</a>
</g>
</g>
<!-- Node1&#45;&gt;Node6 -->
<g id="edge5" class="edge">
<title>Node1&#45;&gt;Node6</title>
<path fill="none" stroke="midnightblue" d="M788.04,-164.79C827.91,-153.93 875.45,-140.98 913.89,-130.51"/>
<polygon fill="midnightblue" stroke="midnightblue" points="787.08,-161.42 778.35,-167.43 788.92,-168.18 787.08,-161.42"/>
</g>
<!-- Node9 -->
<g id="node9" class="node">
<title>Node9</title>
<g id="a_node9"><a xlink:href="arm32Cpu_8hpp.html" target="_top" xlink:title=" ">
<polygon fill="white" stroke="black" points="717.5,-89.5 717.5,-130.5 881.5,-130.5 881.5,-89.5 717.5,-89.5"/>
<text text-anchor="start" x="725.5" y="-118.5" font-family="Helvetica,sans-Serif" font-size="10.00">/home/jonathan/Works</text>
<text text-anchor="start" x="725.5" y="-107.5" font-family="Helvetica,sans-Serif" font-size="10.00">/Tools/Triton/src/libtriton</text>
<text text-anchor="middle" x="799.5" y="-96.5" font-family="Helvetica,sans-Serif" font-size="10.00">/includes/triton/arm32Cpu.hpp</text>
</a>
</g>
</g>
<!-- Node1&#45;&gt;Node9 -->
<g id="edge8" class="edge">
<title>Node1&#45;&gt;Node9</title>
<path fill="none" stroke="midnightblue" d="M738.24,-161.06C750.48,-151.06 764.25,-139.8 775.63,-130.51"/>
<polygon fill="midnightblue" stroke="midnightblue" points="735.98,-158.39 730.45,-167.43 740.41,-163.81 735.98,-158.39"/>
</g>
<!-- Node12 -->
<g id="node12" class="node">
<title>Node12</title>
<g id="a_node12"><a xlink:href="x8664Cpu_8hpp.html" target="_top" xlink:title=" ">
<polygon fill="white" stroke="black" points="1089.5,-89.5 1089.5,-130.5 1251.5,-130.5 1251.5,-89.5 1089.5,-89.5"/>
<text text-anchor="start" x="1097.5" y="-118.5" font-family="Helvetica,sans-Serif" font-size="10.00">/home/jonathan/Works</text>
<text text-anchor="start" x="1097.5" y="-107.5" font-family="Helvetica,sans-Serif" font-size="10.00">/Tools/Triton/src/libtriton</text>
<text text-anchor="middle" x="1170.5" y="-96.5" font-family="Helvetica,sans-Serif" font-size="10.00">/includes/triton/x8664Cpu.hpp</text>
</a>
</g>
</g>
<!-- Node1&#45;&gt;Node12 -->
<g id="edge13" class="edge">
<title>Node1&#45;&gt;Node12</title>
<path fill="none" stroke="midnightblue" d="M803.32,-174.4C879.01,-164.09 986.75,-148.41 1080.5,-131 1083.33,-130.47 1086.21,-129.92 1089.12,-129.35"/>
<polygon fill="midnightblue" stroke="midnightblue" points="802.76,-170.94 793.32,-175.76 803.7,-177.88 802.76,-170.94"/>
</g>
<!-- Node14 -->
<g id="node14" class="node">
<title>Node14</title>
<g id="a_node14"><a xlink:href="x86Cpu_8hpp.html" target="_top" xlink:title=" ">
<polygon fill="white" stroke="black" points="1269.5,-89.5 1269.5,-130.5 1419.5,-130.5 1419.5,-89.5 1269.5,-89.5"/>
<text text-anchor="start" x="1277.5" y="-118.5" font-family="Helvetica,sans-Serif" font-size="10.00">/home/jonathan/Works</text>
<text text-anchor="start" x="1277.5" y="-107.5" font-family="Helvetica,sans-Serif" font-size="10.00">/Tools/Triton/src/libtriton</text>
<text text-anchor="middle" x="1344.5" y="-96.5" font-family="Helvetica,sans-Serif" font-size="10.00">/includes/triton/x86Cpu.hpp</text>
</a>
</g>
</g>
<!-- Node1&#45;&gt;Node14 -->
<g id="edge16" class="edge">
<title>Node1&#45;&gt;Node14</title>
<path fill="none" stroke="midnightblue" d="M803.51,-181.12C914.52,-173.48 1101.51,-157.84 1260.5,-131 1263.46,-130.5 1266.46,-129.96 1269.5,-129.38"/>
<polygon fill="midnightblue" stroke="midnightblue" points="803.08,-177.64 793.34,-181.81 803.56,-184.62 803.08,-177.64"/>
</g>
<!-- Node7 -->
<g id="node7" class="node">
<title>Node7</title>
<g id="a_node7"><a xlink:href="architecture_8cpp.html" target="_top" xlink:title=" ">
<polygon fill="white" stroke="black" points="1097,-6 1097,-47 1230,-47 1230,-6 1097,-6"/>
<text text-anchor="start" x="1105" y="-35" font-family="Helvetica,sans-Serif" font-size="10.00">/home/jonathan/Works</text>
<text text-anchor="start" x="1105" y="-24" font-family="Helvetica,sans-Serif" font-size="10.00">/Tools/Triton/src/libtriton</text>
<text text-anchor="middle" x="1163.5" y="-13" font-family="Helvetica,sans-Serif" font-size="10.00">/arch/architecture.cpp</text>
</a>
</g>
</g>
<!-- Node6&#45;&gt;Node7 -->
<g id="edge6" class="edge">
<title>Node6&#45;&gt;Node7</title>
<path fill="none" stroke="midnightblue" d="M1037.28,-85.29C1063.84,-73.13 1095.79,-58.5 1120.9,-47"/>
<polygon fill="midnightblue" stroke="midnightblue" points="1035.77,-82.13 1028.14,-89.48 1038.68,-88.5 1035.77,-82.13"/>
</g>
<!-- Node8 -->
<g id="node8" class="node">
<title>Node8</title>
<g id="a_node8"><a xlink:href="aarch64Cpu_8cpp.html" target="_top" xlink:title=" ">
<polygon fill="white" stroke="black" points="892.5,-6 892.5,-47 1078.5,-47 1078.5,-6 892.5,-6"/>
<text text-anchor="start" x="900.5" y="-35" font-family="Helvetica,sans-Serif" font-size="10.00">/home/jonathan/Works</text>
<text text-anchor="start" x="900.5" y="-24" font-family="Helvetica,sans-Serif" font-size="10.00">/Tools/Triton/src/libtriton</text>
<text text-anchor="middle" x="985.5" y="-13" font-family="Helvetica,sans-Serif" font-size="10.00">/arch/arm/aarch64/aarch64Cpu.cpp</text>
</a>
</g>
</g>
<!-- Node6&#45;&gt;Node8 -->
<g id="edge7" class="edge">
<title>Node6&#45;&gt;Node8</title>
<path fill="none" stroke="midnightblue" d="M985.5,-79.06C985.5,-68.38 985.5,-56.63 985.5,-47.05"/>
<polygon fill="midnightblue" stroke="midnightblue" points="982,-79.27 985.5,-89.27 989,-79.27 982,-79.27"/>
</g>
<!-- Node9&#45;&gt;Node3 -->
<g id="edge10" class="edge">
<title>Node9&#45;&gt;Node3</title>
<path fill="none" stroke="midnightblue" d="M707.27,-88.8C604.51,-69.16 497.12,-51.78 424.33,-40.48"/>
<polygon fill="midnightblue" stroke="midnightblue" points="706.72,-92.26 717.2,-90.71 708.04,-85.39 706.72,-92.26"/>
</g>
<!-- Node9&#45;&gt;Node7 -->
<g id="edge9" class="edge">
<title>Node9&#45;&gt;Node7</title>
<path fill="none" stroke="midnightblue" d="M891.67,-88.82C979.49,-71.68 1004.34,-74.43 1087.5,-53 1094.24,-51.26 1101.24,-49.23 1108.15,-47.09"/>
<polygon fill="midnightblue" stroke="midnightblue" points="890.94,-85.39 881.81,-90.77 892.3,-92.26 890.94,-85.39"/>
</g>
<!-- Node10 -->
<g id="node10" class="node">
<title>Node10</title>
<g id="a_node10"><a xlink:href="arm32Semantics_8cpp.html" target="_top" xlink:title=" ">
<polygon fill="white" stroke="black" points="672,-6 672,-47 875,-47 875,-6 672,-6"/>
<text text-anchor="start" x="680" y="-35" font-family="Helvetica,sans-Serif" font-size="10.00">/home/jonathan/Works</text>
<text text-anchor="start" x="680" y="-24" font-family="Helvetica,sans-Serif" font-size="10.00">/Tools/Triton/src/libtriton</text>
<text text-anchor="middle" x="773.5" y="-13" font-family="Helvetica,sans-Serif" font-size="10.00">/arch/arm/arm32/arm32Semantics.cpp</text>
</a>
</g>
</g>
<!-- Node9&#45;&gt;Node10 -->
<g id="edge11" class="edge">
<title>Node9&#45;&gt;Node10</title>
<path fill="none" stroke="midnightblue" d="M790.16,-79.73C786.7,-68.87 782.86,-56.83 779.74,-47.05"/>
<polygon fill="midnightblue" stroke="midnightblue" points="786.83,-80.81 793.21,-89.27 793.5,-78.68 786.83,-80.81"/>
</g>
<!-- Node11 -->
<g id="node11" class="node">
<title>Node11</title>
<g id="a_node11"><a xlink:href="pyTritonContext_8cpp.html" target="_top" xlink:title=" ">
<polygon fill="white" stroke="black" points="517.5,-0.5 517.5,-52.5 653.5,-52.5 653.5,-0.5 517.5,-0.5"/>
<text text-anchor="start" x="525.5" y="-40.5" font-family="Helvetica,sans-Serif" font-size="10.00">/home/jonathan/Works</text>
<text text-anchor="start" x="525.5" y="-29.5" font-family="Helvetica,sans-Serif" font-size="10.00">/Tools/Triton/src/libtriton</text>
<text text-anchor="start" x="525.5" y="-18.5" font-family="Helvetica,sans-Serif" font-size="10.00">/bindings/python/objects</text>
<text text-anchor="middle" x="585.5" y="-7.5" font-family="Helvetica,sans-Serif" font-size="10.00">/pyTritonContext.cpp</text>
</a>
</g>
</g>
<!-- Node9&#45;&gt;Node11 -->
<g id="edge12" class="edge">
<title>Node9&#45;&gt;Node11</title>
<path fill="none" stroke="midnightblue" d="M738.81,-85.89C711.51,-75.49 679.23,-63.2 651.34,-52.58"/>
<polygon fill="midnightblue" stroke="midnightblue" points="737.65,-89.19 748.24,-89.48 740.14,-82.65 737.65,-89.19"/>
</g>
<!-- Node12&#45;&gt;Node7 -->
<g id="edge14" class="edge">
<title>Node12&#45;&gt;Node7</title>
<path fill="none" stroke="midnightblue" d="M1167.93,-79.06C1167.01,-68.38 1166,-56.63 1165.18,-47.05"/>
<polygon fill="midnightblue" stroke="midnightblue" points="1164.46,-79.61 1168.81,-89.27 1171.44,-79.01 1164.46,-79.61"/>
</g>
<!-- Node13 -->
<g id="node13" class="node">
<title>Node13</title>
<g id="a_node13"><a xlink:href="x8664Cpu_8cpp.html" target="_top" xlink:title=" ">
<polygon fill="white" stroke="black" points="1248.5,-6 1248.5,-47 1382.5,-47 1382.5,-6 1248.5,-6"/>
<text text-anchor="start" x="1256.5" y="-35" font-family="Helvetica,sans-Serif" font-size="10.00">/home/jonathan/Works</text>
<text text-anchor="start" x="1256.5" y="-24" font-family="Helvetica,sans-Serif" font-size="10.00">/Tools/Triton/src/libtriton</text>
<text text-anchor="middle" x="1315.5" y="-13" font-family="Helvetica,sans-Serif" font-size="10.00">/arch/x86/x8664Cpu.cpp</text>
</a>
</g>
</g>
<!-- Node12&#45;&gt;Node13 -->
<g id="edge15" class="edge">
<title>Node12&#45;&gt;Node13</title>
<path fill="none" stroke="midnightblue" d="M1214.11,-84.49C1235.45,-72.49 1260.79,-58.25 1280.8,-47"/>
<polygon fill="midnightblue" stroke="midnightblue" points="1212.23,-81.53 1205.23,-89.48 1215.66,-87.63 1212.23,-81.53"/>
</g>
<!-- Node14&#45;&gt;Node7 -->
<g id="edge17" class="edge">
<title>Node14&#45;&gt;Node7</title>
<path fill="none" stroke="midnightblue" d="M1291.84,-85.29C1264.84,-73.13 1232.35,-58.5 1206.81,-47"/>
<polygon fill="midnightblue" stroke="midnightblue" points="1290.59,-88.56 1301.15,-89.48 1293.46,-82.18 1290.59,-88.56"/>
</g>
<!-- Node15 -->
<g id="node15" class="node">
<title>Node15</title>
<g id="a_node15"><a xlink:href="x86Cpu_8cpp.html" target="_top" xlink:title=" ">
<polygon fill="white" stroke="black" points="1401,-6 1401,-47 1534,-47 1534,-6 1401,-6"/>
<text text-anchor="start" x="1409" y="-35" font-family="Helvetica,sans-Serif" font-size="10.00">/home/jonathan/Works</text>
<text text-anchor="start" x="1409" y="-24" font-family="Helvetica,sans-Serif" font-size="10.00">/Tools/Triton/src/libtriton</text>
<text text-anchor="middle" x="1467.5" y="-13" font-family="Helvetica,sans-Serif" font-size="10.00">/arch/x86/x86Cpu.cpp</text>
</a>
</g>
</g>
<!-- Node14&#45;&gt;Node15 -->
<g id="edge18" class="edge">
<title>Node14&#45;&gt;Node15</title>
<path fill="none" stroke="midnightblue" d="M1382.43,-83.87C1400.26,-72.05 1421.21,-58.17 1437.85,-47.14"/>
<polygon fill="midnightblue" stroke="midnightblue" points="1380.36,-81.04 1373.96,-89.48 1384.23,-86.87 1380.36,-81.04"/>
</g>
</g>
</svg>
