<?xml version="1.0" encoding="UTF-8" standalone="no"?>
<!DOCTYPE svg PUBLIC "-//W3C//DTD SVG 1.1//EN"
 "http://www.w3.org/Graphics/SVG/1.1/DTD/svg11.dtd">
<!-- Generated by graphviz version 11.0.0 (20240428.1522)
 -->
<!-- Title: /Users/jonathan/Works/Tools/Triton/src/libtriton/includes/triton/externalLibs.hpp Pages: 1 -->
<svg width="1734pt" height="128pt"
 viewBox="0.00 0.00 1734.25 127.50" xmlns="http://www.w3.org/2000/svg" xmlns:xlink="http://www.w3.org/1999/xlink">
<g id="graph0" class="graph" transform="scale(1 1) rotate(0) translate(4 123.5)">
<title>/Users/jonathan/Works/Tools/Triton/src/libtriton/includes/triton/externalLibs.hpp</title>
<!-- Node1 -->
<g id="Node000001" class="node">
<title>Node1</title>
<g id="a_Node000001"><a xlink:title=" ">
<polygon fill="#999999" stroke="#666666" points="1023.5,-119.5 869.5,-119.5 869.5,-77.75 1023.5,-77.75 1023.5,-119.5"/>
<text text-anchor="start" x="877.5" y="-106" font-family="Helvetica,sans-Serif" font-size="10.00">/Users/jonathan/Works</text>
<text text-anchor="start" x="877.5" y="-94.75" font-family="Helvetica,sans-Serif" font-size="10.00">/Tools/Triton/src/libtriton</text>
<text text-anchor="middle" x="946.5" y="-83.5" font-family="Helvetica,sans-Serif" font-size="10.00">/includes/triton/externalLibs.hpp</text>
</a>
</g>
</g>
<!-- Node2 -->
<g id="Node000002" class="node">
<title>Node2</title>
<g id="a_Node000002"><a xlink:href="$aarch64Cpu_8cpp.html" xlink:title=" ">
<polygon fill="white" stroke="#666666" points="169,-41.75 0,-41.75 0,0 169,0 169,-41.75"/>
<text text-anchor="start" x="8" y="-28.25" font-family="Helvetica,sans-Serif" font-size="10.00">/Users/jonathan/Works</text>
<text text-anchor="start" x="8" y="-17" font-family="Helvetica,sans-Serif" font-size="10.00">/Tools/Triton/src/libtriton</text>
<text text-anchor="middle" x="84.5" y="-5.75" font-family="Helvetica,sans-Serif" font-size="10.00">/arch/arm/aarch64/aarch64Cpu.cpp</text>
</a>
</g>
</g>
<!-- Node1&#45;&gt;Node2 -->
<g id="edge1_Node000001_Node000002" class="edge">
<title>Node1&#45;&gt;Node2</title>
<g id="a_edge1_Node000001_Node000002"><a xlink:title=" ">
<path fill="none" stroke="#63b8ff" d="M857.68,-95.08C714.22,-90.08 422.89,-76.31 178.5,-41.75 175.53,-41.33 172.51,-40.87 169.46,-40.38"/>
<polygon fill="#63b8ff" stroke="#63b8ff" points="857.38,-98.57 867.49,-95.41 857.62,-91.57 857.38,-98.57"/>
</a>
</g>
</g>
<!-- Node3 -->
<g id="Node000003" class="node">
<title>Node3</title>
<g id="a_Node000003"><a xlink:href="$aarch64Specifications_8cpp.html" xlink:title=" ">
<polygon fill="white" stroke="#666666" points="399.75,-41.75 187.25,-41.75 187.25,0 399.75,0 399.75,-41.75"/>
<text text-anchor="start" x="195.25" y="-28.25" font-family="Helvetica,sans-Serif" font-size="10.00">/Users/jonathan/Works</text>
<text text-anchor="start" x="195.25" y="-17" font-family="Helvetica,sans-Serif" font-size="10.00">/Tools/Triton/src/libtriton</text>
<text text-anchor="middle" x="293.5" y="-5.75" font-family="Helvetica,sans-Serif" font-size="10.00">/arch/arm/aarch64/aarch64Specifications.cpp</text>
</a>
</g>
</g>
<!-- Node1&#45;&gt;Node3 -->
<g id="edge2_Node000001_Node000003" class="edge">
<title>Node1&#45;&gt;Node3</title>
<g id="a_edge2_Node000001_Node000003"><a xlink:title=" ">
<path fill="none" stroke="#63b8ff" d="M857.88,-90.27C751.06,-80.98 566.24,-63.55 408.5,-41.75 405.69,-41.36 402.84,-40.96 399.97,-40.54"/>
<polygon fill="#63b8ff" stroke="#63b8ff" points="857.47,-93.75 867.73,-91.12 858.07,-86.78 857.47,-93.75"/>
</a>
</g>
</g>
<!-- Node4 -->
<g id="Node000004" class="node">
<title>Node4</title>
<g id="a_Node000004"><a xlink:href="$arm32Cpu_8cpp.html" xlink:title=" ">
<polygon fill="white" stroke="#666666" points="571.5,-41.75 417.5,-41.75 417.5,0 571.5,0 571.5,-41.75"/>
<text text-anchor="start" x="425.5" y="-28.25" font-family="Helvetica,sans-Serif" font-size="10.00">/Users/jonathan/Works</text>
<text text-anchor="start" x="425.5" y="-17" font-family="Helvetica,sans-Serif" font-size="10.00">/Tools/Triton/src/libtriton</text>
<text text-anchor="middle" x="494.5" y="-5.75" font-family="Helvetica,sans-Serif" font-size="10.00">/arch/arm/arm32/arm32Cpu.cpp</text>
</a>
</g>
</g>
<!-- Node1&#45;&gt;Node4 -->
<g id="edge3_Node000001_Node000004" class="edge">
<title>Node1&#45;&gt;Node4</title>
<g id="a_edge3_Node000001_Node000004"><a xlink:title=" ">
<path fill="none" stroke="#63b8ff" d="M857.93,-86.02C783.6,-75.82 674.77,-59.81 580.5,-41.75 577.64,-41.2 574.73,-40.63 571.8,-40.03"/>
<polygon fill="#63b8ff" stroke="#63b8ff" points="857.21,-89.45 867.6,-87.33 858.16,-82.51 857.21,-89.45"/>
</a>
</g>
</g>
<!-- Node5 -->
<g id="Node000005" class="node">
<title>Node5</title>
<g id="a_Node000005"><a xlink:href="$arm32Specifications_8cpp.html" xlink:title=" ">
<polygon fill="white" stroke="#666666" points="787.25,-41.75 589.75,-41.75 589.75,0 787.25,0 787.25,-41.75"/>
<text text-anchor="start" x="597.75" y="-28.25" font-family="Helvetica,sans-Serif" font-size="10.00">/Users/jonathan/Works</text>
<text text-anchor="start" x="597.75" y="-17" font-family="Helvetica,sans-Serif" font-size="10.00">/Tools/Triton/src/libtriton</text>
<text text-anchor="middle" x="688.5" y="-5.75" font-family="Helvetica,sans-Serif" font-size="10.00">/arch/arm/arm32/arm32Specifications.cpp</text>
</a>
</g>
</g>
<!-- Node1&#45;&gt;Node5 -->
<g id="edge4_Node000001_Node000005" class="edge">
<title>Node1&#45;&gt;Node5</title>
<g id="a_edge4_Node000001_Node000005"><a xlink:title=" ">
<path fill="none" stroke="#63b8ff" d="M866.74,-74.21C831.89,-63.98 791.4,-52.09 757.83,-42.23"/>
<polygon fill="#63b8ff" stroke="#63b8ff" points="865.33,-77.44 875.91,-76.9 867.3,-70.72 865.33,-77.44"/>
</a>
</g>
</g>
<!-- Node6 -->
<g id="Node000006" class="node">
<title>Node6</title>
<g id="a_Node000006"><a xlink:href="$riscv32Cpu_8cpp.html" xlink:title=" ">
<polygon fill="white" stroke="#666666" points="938,-41.75 805,-41.75 805,0 938,0 938,-41.75"/>
<text text-anchor="start" x="813" y="-28.25" font-family="Helvetica,sans-Serif" font-size="10.00">/Users/jonathan/Works</text>
<text text-anchor="start" x="813" y="-17" font-family="Helvetica,sans-Serif" font-size="10.00">/Tools/Triton/src/libtriton</text>
<text text-anchor="middle" x="871.5" y="-5.75" font-family="Helvetica,sans-Serif" font-size="10.00">/arch/riscv/riscv32Cpu.cpp</text>
</a>
</g>
</g>
<!-- Node1&#45;&gt;Node6 -->
<g id="edge5_Node000001_Node000006" class="edge">
<title>Node1&#45;&gt;Node6</title>
<g id="a_edge5_Node000001_Node000006"><a xlink:title=" ">
<path fill="none" stroke="#63b8ff" d="M918.49,-69.34C909.58,-60.34 899.9,-50.56 891.65,-42.23"/>
<polygon fill="#63b8ff" stroke="#63b8ff" points="915.81,-71.61 925.34,-76.25 920.79,-66.68 915.81,-71.61"/>
</a>
</g>
</g>
<!-- Node7 -->
<g id="Node000007" class="node">
<title>Node7</title>
<g id="a_Node000007"><a xlink:href="$riscv64Cpu_8cpp.html" xlink:title=" ">
<polygon fill="white" stroke="#666666" points="1089,-41.75 956,-41.75 956,0 1089,0 1089,-41.75"/>
<text text-anchor="start" x="964" y="-28.25" font-family="Helvetica,sans-Serif" font-size="10.00">/Users/jonathan/Works</text>
<text text-anchor="start" x="964" y="-17" font-family="Helvetica,sans-Serif" font-size="10.00">/Tools/Triton/src/libtriton</text>
<text text-anchor="middle" x="1022.5" y="-5.75" font-family="Helvetica,sans-Serif" font-size="10.00">/arch/riscv/riscv64Cpu.cpp</text>
</a>
</g>
</g>
<!-- Node1&#45;&gt;Node7 -->
<g id="edge6_Node000001_Node000007" class="edge">
<title>Node1&#45;&gt;Node7</title>
<g id="a_edge6_Node000001_Node000007"><a xlink:title=" ">
<path fill="none" stroke="#63b8ff" d="M974.88,-69.34C983.91,-60.34 993.72,-50.56 1002.08,-42.23"/>
<polygon fill="#63b8ff" stroke="#63b8ff" points="972.55,-66.72 967.94,-76.26 977.49,-71.68 972.55,-66.72"/>
</a>
</g>
</g>
<!-- Node8 -->
<g id="Node000008" class="node">
<title>Node8</title>
<g id="a_Node000008"><a xlink:href="$riscvSpecifications_8cpp.html" xlink:title=" ">
<polygon fill="white" stroke="#666666" points="1273.5,-41.75 1107.5,-41.75 1107.5,0 1273.5,0 1273.5,-41.75"/>
<text text-anchor="start" x="1115.5" y="-28.25" font-family="Helvetica,sans-Serif" font-size="10.00">/Users/jonathan/Works</text>
<text text-anchor="start" x="1115.5" y="-17" font-family="Helvetica,sans-Serif" font-size="10.00">/Tools/Triton/src/libtriton</text>
<text text-anchor="middle" x="1190.5" y="-5.75" font-family="Helvetica,sans-Serif" font-size="10.00">/arch/riscv/riscvSpecifications.cpp</text>
</a>
</g>
</g>
<!-- Node1&#45;&gt;Node8 -->
<g id="edge7_Node000001_Node000008" class="edge">
<title>Node1&#45;&gt;Node8</title>
<g id="a_edge7_Node000001_Node000008"><a xlink:title=" ">
<path fill="none" stroke="#63b8ff" d="M1022.78,-73.94C1055.55,-63.77 1093.45,-52 1124.93,-42.23"/>
<polygon fill="#63b8ff" stroke="#63b8ff" points="1021.85,-70.57 1013.33,-76.88 1023.92,-77.25 1021.85,-70.57"/>
</a>
</g>
</g>
<!-- Node9 -->
<g id="Node000009" class="node">
<title>Node9</title>
<g id="a_Node000009"><a xlink:href="$x8664Cpu_8cpp.html" xlink:title=" ">
<polygon fill="white" stroke="#666666" points="1413.75,-41.75 1291.25,-41.75 1291.25,0 1413.75,0 1413.75,-41.75"/>
<text text-anchor="start" x="1299.25" y="-28.25" font-family="Helvetica,sans-Serif" font-size="10.00">/Users/jonathan/Works</text>
<text text-anchor="start" x="1299.25" y="-17" font-family="Helvetica,sans-Serif" font-size="10.00">/Tools/Triton/src/libtriton</text>
<text text-anchor="middle" x="1352.5" y="-5.75" font-family="Helvetica,sans-Serif" font-size="10.00">/arch/x86/x8664Cpu.cpp</text>
</a>
</g>
</g>
<!-- Node1&#45;&gt;Node9 -->
<g id="edge8_Node000001_Node000009" class="edge">
<title>Node1&#45;&gt;Node9</title>
<g id="a_edge8_Node000001_Node000009"><a xlink:title=" ">
<path fill="none" stroke="#63b8ff" d="M1034.81,-85.7C1102.88,-75.84 1199.15,-60.45 1282.5,-41.75 1285.21,-41.14 1287.97,-40.49 1290.76,-39.81"/>
<polygon fill="#63b8ff" stroke="#63b8ff" points="1034.6,-82.19 1025.2,-87.08 1035.6,-89.12 1034.6,-82.19"/>
</a>
</g>
</g>
<!-- Node10 -->
<g id="Node000010" class="node">
<title>Node10</title>
<g id="a_Node000010"><a xlink:href="$x86Cpu_8cpp.html" xlink:title=" ">
<polygon fill="white" stroke="#666666" points="1553,-41.75 1432,-41.75 1432,0 1553,0 1553,-41.75"/>
<text text-anchor="start" x="1440" y="-28.25" font-family="Helvetica,sans-Serif" font-size="10.00">/Users/jonathan/Works</text>
<text text-anchor="start" x="1440" y="-17" font-family="Helvetica,sans-Serif" font-size="10.00">/Tools/Triton/src/libtriton</text>
<text text-anchor="middle" x="1492.5" y="-5.75" font-family="Helvetica,sans-Serif" font-size="10.00">/arch/x86/x86Cpu.cpp</text>
</a>
</g>
</g>
<!-- Node1&#45;&gt;Node10 -->
<g id="edge9_Node000001_Node000010" class="edge">
<title>Node1&#45;&gt;Node10</title>
<g id="a_edge9_Node000001_Node000010"><a xlink:title=" ">
<path fill="none" stroke="#63b8ff" d="M1035.17,-91.48C1131.27,-83.82 1288.81,-68.4 1422.5,-41.75 1425.47,-41.16 1428.5,-40.5 1431.56,-39.8"/>
<polygon fill="#63b8ff" stroke="#63b8ff" points="1034.97,-87.98 1025.27,-92.25 1035.51,-94.96 1034.97,-87.98"/>
</a>
</g>
</g>
<!-- Node11 -->
<g id="Node000011" class="node">
<title>Node11</title>
<g id="a_Node000011"><a xlink:href="$x86Specifications_8cpp.html" xlink:title=" ">
<polygon fill="white" stroke="#666666" points="1726.25,-41.75 1570.75,-41.75 1570.75,0 1726.25,0 1726.25,-41.75"/>
<text text-anchor="start" x="1578.75" y="-28.25" font-family="Helvetica,sans-Serif" font-size="10.00">/Users/jonathan/Works</text>
<text text-anchor="start" x="1578.75" y="-17" font-family="Helvetica,sans-Serif" font-size="10.00">/Tools/Triton/src/libtriton</text>
<text text-anchor="middle" x="1648.5" y="-5.75" font-family="Helvetica,sans-Serif" font-size="10.00">/arch/x86/x86Specifications.cpp</text>
</a>
</g>
</g>
<!-- Node1&#45;&gt;Node11 -->
<g id="edge10_Node000001_Node000011" class="edge">
<title>Node1&#45;&gt;Node11</title>
<g id="a_edge10_Node000001_Node000011"><a xlink:title=" ">
<path fill="none" stroke="#63b8ff" d="M1035.05,-93.4C1155.14,-86.81 1376.06,-71.6 1562.5,-41.75 1565.07,-41.34 1567.68,-40.89 1570.31,-40.42"/>
<polygon fill="#63b8ff" stroke="#63b8ff" points="1035.06,-89.9 1025.26,-93.93 1035.43,-96.89 1035.06,-89.9"/>
</a>
</g>
</g>
</g>
</svg>
