<?xml version="1.0" encoding="UTF-8" standalone="no"?>
<!DOCTYPE svg PUBLIC "-//W3C//DTD SVG 1.1//EN"
 "http://www.w3.org/Graphics/SVG/1.1/DTD/svg11.dtd">
<!-- Generated by graphviz version 11.0.0 (20240428.1522)
 -->
<!-- Title: /Users/jonathan/Works/Tools/Triton/src/libtriton/includes/triton/externalLibs.hpp Pages: 1 -->
<svg width="1248pt" height="128pt"
 viewBox="0.00 0.00 1248.25 127.50" xmlns="http://www.w3.org/2000/svg" xmlns:xlink="http://www.w3.org/1999/xlink">
<g id="graph0" class="graph" transform="scale(1 1) rotate(0) translate(4 123.5)">
<title>/Users/jonathan/Works/Tools/Triton/src/libtriton/includes/triton/externalLibs.hpp</title>
<!-- Node1 -->
<g id="Node000001" class="node">
<title>Node1</title>
<g id="a_Node000001"><a xlink:title=" ">
<polygon fill="#999999" stroke="#666666" points="765.5,-119.5 611.5,-119.5 611.5,-77.75 765.5,-77.75 765.5,-119.5"/>
<text text-anchor="start" x="619.5" y="-106" font-family="Helvetica,sans-Serif" font-size="10.00">/Users/jonathan/Works</text>
<text text-anchor="start" x="619.5" y="-94.75" font-family="Helvetica,sans-Serif" font-size="10.00">/Tools/Triton/src/libtriton</text>
<text text-anchor="middle" x="688.5" y="-83.5" font-family="Helvetica,sans-Serif" font-size="10.00">/includes/triton/externalLibs.hpp</text>
</a>
</g>
</g>
<!-- Node2 -->
<g id="Node000002" class="node">
<title>Node2</title>
<g id="a_Node000002"><a xlink:href="aarch64Cpu_8cpp.html" target="_top" xlink:title=" ">
<polygon fill="white" stroke="#666666" points="169,-41.75 0,-41.75 0,0 169,0 169,-41.75"/>
<text text-anchor="start" x="8" y="-28.25" font-family="Helvetica,sans-Serif" font-size="10.00">/Users/jonathan/Works</text>
<text text-anchor="start" x="8" y="-17" font-family="Helvetica,sans-Serif" font-size="10.00">/Tools/Triton/src/libtriton</text>
<text text-anchor="middle" x="84.5" y="-5.75" font-family="Helvetica,sans-Serif" font-size="10.00">/arch/arm/aarch64/aarch64Cpu.cpp</text>
</a>
</g>
</g>
<!-- Node1&#45;&gt;Node2 -->
<g id="edge1_Node000001_Node000002" class="edge">
<title>Node1&#45;&gt;Node2</title>
<g id="a_edge1_Node000001_Node000002"><a xlink:title=" ">
<path fill="none" stroke="#63b8ff" d="M600.12,-90.62C498.14,-81.92 325.58,-65.3 178.5,-41.75 175.54,-41.28 172.52,-40.77 169.48,-40.24"/>
<polygon fill="#63b8ff" stroke="#63b8ff" points="599.52,-94.08 609.78,-91.44 600.11,-87.11 599.52,-94.08"/>
</a>
</g>
</g>
<!-- Node3 -->
<g id="Node000003" class="node">
<title>Node3</title>
<g id="a_Node000003"><a xlink:href="aarch64Specifications_8cpp.html" target="_top" xlink:title=" ">
<polygon fill="white" stroke="#666666" points="399.75,-41.75 187.25,-41.75 187.25,0 399.75,0 399.75,-41.75"/>
<text text-anchor="start" x="195.25" y="-28.25" font-family="Helvetica,sans-Serif" font-size="10.00">/Users/jonathan/Works</text>
<text text-anchor="start" x="195.25" y="-17" font-family="Helvetica,sans-Serif" font-size="10.00">/Tools/Triton/src/libtriton</text>
<text text-anchor="middle" x="293.5" y="-5.75" font-family="Helvetica,sans-Serif" font-size="10.00">/arch/arm/aarch64/aarch64Specifications.cpp</text>
</a>
</g>
</g>
<!-- Node1&#45;&gt;Node3 -->
<g id="edge2_Node000001_Node000003" class="edge">
<title>Node1&#45;&gt;Node3</title>
<g id="a_edge2_Node000001_Node000003"><a xlink:title=" ">
<path fill="none" stroke="#63b8ff" d="M600.17,-80.69C540.82,-69.3 462.28,-54.24 399.54,-42.21"/>
<polygon fill="#63b8ff" stroke="#63b8ff" points="599.44,-84.11 609.92,-82.55 600.75,-77.23 599.44,-84.11"/>
</a>
</g>
</g>
<!-- Node4 -->
<g id="Node000004" class="node">
<title>Node4</title>
<g id="a_Node000004"><a xlink:href="arm32Cpu_8cpp.html" target="_top" xlink:title=" ">
<polygon fill="white" stroke="#666666" points="571.5,-41.75 417.5,-41.75 417.5,0 571.5,0 571.5,-41.75"/>
<text text-anchor="start" x="425.5" y="-28.25" font-family="Helvetica,sans-Serif" font-size="10.00">/Users/jonathan/Works</text>
<text text-anchor="start" x="425.5" y="-17" font-family="Helvetica,sans-Serif" font-size="10.00">/Tools/Triton/src/libtriton</text>
<text text-anchor="middle" x="494.5" y="-5.75" font-family="Helvetica,sans-Serif" font-size="10.00">/arch/arm/arm32/arm32Cpu.cpp</text>
</a>
</g>
</g>
<!-- Node1&#45;&gt;Node4 -->
<g id="edge3_Node000001_Node000004" class="edge">
<title>Node1&#45;&gt;Node4</title>
<g id="a_edge3_Node000001_Node000004"><a xlink:title=" ">
<path fill="none" stroke="#63b8ff" d="M625.8,-73.14C600.23,-63.16 571.01,-51.75 546.63,-42.23"/>
<polygon fill="#63b8ff" stroke="#63b8ff" points="624.51,-76.4 635.1,-76.77 627.06,-69.88 624.51,-76.4"/>
</a>
</g>
</g>
<!-- Node5 -->
<g id="Node000005" class="node">
<title>Node5</title>
<g id="a_Node000005"><a xlink:href="arm32Specifications_8cpp.html" target="_top" xlink:title=" ">
<polygon fill="white" stroke="#666666" points="787.25,-41.75 589.75,-41.75 589.75,0 787.25,0 787.25,-41.75"/>
<text text-anchor="start" x="597.75" y="-28.25" font-family="Helvetica,sans-Serif" font-size="10.00">/Users/jonathan/Works</text>
<text text-anchor="start" x="597.75" y="-17" font-family="Helvetica,sans-Serif" font-size="10.00">/Tools/Triton/src/libtriton</text>
<text text-anchor="middle" x="688.5" y="-5.75" font-family="Helvetica,sans-Serif" font-size="10.00">/arch/arm/arm32/arm32Specifications.cpp</text>
</a>
</g>
</g>
<!-- Node1&#45;&gt;Node5 -->
<g id="edge4_Node000001_Node000005" class="edge">
<title>Node1&#45;&gt;Node5</title>
<g id="a_edge4_Node000001_Node000005"><a xlink:title=" ">
<path fill="none" stroke="#63b8ff" d="M688.5,-66C688.5,-57.96 688.5,-49.54 688.5,-42.23"/>
<polygon fill="#63b8ff" stroke="#63b8ff" points="685,-65.81 688.5,-75.81 692,-65.81 685,-65.81"/>
</a>
</g>
</g>
<!-- Node6 -->
<g id="Node000006" class="node">
<title>Node6</title>
<g id="a_Node000006"><a xlink:href="x8664Cpu_8cpp.html" target="_top" xlink:title=" ">
<polygon fill="white" stroke="#666666" points="927.75,-41.75 805.25,-41.75 805.25,0 927.75,0 927.75,-41.75"/>
<text text-anchor="start" x="813.25" y="-28.25" font-family="Helvetica,sans-Serif" font-size="10.00">/Users/jonathan/Works</text>
<text text-anchor="start" x="813.25" y="-17" font-family="Helvetica,sans-Serif" font-size="10.00">/Tools/Triton/src/libtriton</text>
<text text-anchor="middle" x="866.5" y="-5.75" font-family="Helvetica,sans-Serif" font-size="10.00">/arch/x86/x8664Cpu.cpp</text>
</a>
</g>
</g>
<!-- Node1&#45;&gt;Node6 -->
<g id="edge5_Node000001_Node000006" class="edge">
<title>Node1&#45;&gt;Node6</title>
<g id="a_edge5_Node000001_Node000006"><a xlink:title=" ">
<path fill="none" stroke="#63b8ff" d="M746.66,-72.88C769.97,-62.95 796.5,-51.66 818.67,-42.23"/>
<polygon fill="#63b8ff" stroke="#63b8ff" points="745.42,-69.6 737.59,-76.73 748.17,-76.04 745.42,-69.6"/>
</a>
</g>
</g>
<!-- Node7 -->
<g id="Node000007" class="node">
<title>Node7</title>
<g id="a_Node000007"><a xlink:href="x86Cpu_8cpp.html" target="_top" xlink:title=" ">
<polygon fill="white" stroke="#666666" points="1067,-41.75 946,-41.75 946,0 1067,0 1067,-41.75"/>
<text text-anchor="start" x="954" y="-28.25" font-family="Helvetica,sans-Serif" font-size="10.00">/Users/jonathan/Works</text>
<text text-anchor="start" x="954" y="-17" font-family="Helvetica,sans-Serif" font-size="10.00">/Tools/Triton/src/libtriton</text>
<text text-anchor="middle" x="1006.5" y="-5.75" font-family="Helvetica,sans-Serif" font-size="10.00">/arch/x86/x86Cpu.cpp</text>
</a>
</g>
</g>
<!-- Node1&#45;&gt;Node7 -->
<g id="edge6_Node000001_Node000007" class="edge">
<title>Node1&#45;&gt;Node7</title>
<g id="a_edge6_Node000001_Node000007"><a xlink:title=" ">
<path fill="none" stroke="#63b8ff" d="M777.01,-78.92C824.46,-68.58 883.83,-55.15 936.5,-41.75 939.56,-40.97 942.69,-40.16 945.85,-39.32"/>
<polygon fill="#63b8ff" stroke="#63b8ff" points="776.35,-75.48 767.32,-81.03 777.83,-82.32 776.35,-75.48"/>
</a>
</g>
</g>
<!-- Node8 -->
<g id="Node000008" class="node">
<title>Node8</title>
<g id="a_Node000008"><a xlink:href="x86Specifications_8cpp.html" target="_top" xlink:title=" ">
<polygon fill="white" stroke="#666666" points="1240.25,-41.75 1084.75,-41.75 1084.75,0 1240.25,0 1240.25,-41.75"/>
<text text-anchor="start" x="1092.75" y="-28.25" font-family="Helvetica,sans-Serif" font-size="10.00">/Users/jonathan/Works</text>
<text text-anchor="start" x="1092.75" y="-17" font-family="Helvetica,sans-Serif" font-size="10.00">/Tools/Triton/src/libtriton</text>
<text text-anchor="middle" x="1162.5" y="-5.75" font-family="Helvetica,sans-Serif" font-size="10.00">/arch/x86/x86Specifications.cpp</text>
</a>
</g>
</g>
<!-- Node1&#45;&gt;Node8 -->
<g id="edge7_Node000001_Node000008" class="edge">
<title>Node1&#45;&gt;Node8</title>
<g id="a_edge7_Node000001_Node000008"><a xlink:title=" ">
<path fill="none" stroke="#63b8ff" d="M777.09,-87.02C855.96,-77.07 974.33,-60.88 1076.5,-41.75 1079.06,-41.27 1081.66,-40.77 1084.28,-40.25"/>
<polygon fill="#63b8ff" stroke="#63b8ff" points="776.73,-83.54 767.25,-88.26 777.6,-90.48 776.73,-83.54"/>
</a>
</g>
</g>
</g>
</svg>
