<?xml version="1.0" encoding="UTF-8" standalone="no"?>
<!DOCTYPE svg PUBLIC "-//W3C//DTD SVG 1.1//EN"
 "http://www.w3.org/Graphics/SVG/1.1/DTD/svg11.dtd">
<!-- Generated by graphviz version 11.0.0 (20240428.1522)
 -->
<!-- Title: Arm Pages: 1 -->
<svg width="202pt" height="64pt"
 viewBox="0.00 0.00 202.25 64.25" xmlns="http://www.w3.org/2000/svg" xmlns:xlink="http://www.w3.org/1999/xlink">
<g id="graph0" class="graph" transform="scale(1 1) rotate(0) translate(4 60.25)">
<title>Arm</title>
<!-- Node3 -->
<g id="Node000003" class="node">
<title>Node3</title>
<g id="a_Node000003"><a xlink:href="group__aarch64.html" target="_top" xlink:title=" ">
<polygon fill="white" stroke="#666666" points="194.25,-56.25 142.25,-56.25 142.25,-37 194.25,-37 194.25,-56.25"/>
<text text-anchor="middle" x="168.25" y="-42.75" font-family="Helvetica,sans-Serif" font-size="10.00">Aarch64</text>
</a>
</g>
</g>
<!-- Node2 -->
<g id="Node000002" class="node">
<title>Node2</title>
<g id="a_Node000002"><a xlink:href="group__arch.html" target="_top" xlink:title=" ">
<polygon fill="white" stroke="#666666" points="36.25,-37.25 0,-37.25 0,-18 36.25,-18 36.25,-37.25"/>
<text text-anchor="middle" x="18.12" y="-23.75" font-family="Helvetica,sans-Serif" font-size="10.00">Arch</text>
</a>
</g>
</g>
<!-- Node1 -->
<g id="Node000001" class="node">
<title>Node1</title>
<g id="a_Node000001"><a xlink:title=" ">
<polygon fill="#999999" stroke="#666666" points="106.25,-37.25 72.25,-37.25 72.25,-18 106.25,-18 106.25,-37.25"/>
<text text-anchor="middle" x="89.25" y="-23.75" font-family="Helvetica,sans-Serif" font-size="10.00">Arm</text>
</a>
</g>
</g>
<!-- Node2&#45;&gt;Node1 -->
<g id="edge1" class="edge">
<title>Node2&#45;&gt;Node1</title>
<path fill="none" stroke="black" d="M48.03,-27.62C56.22,-27.62 64.85,-27.62 72,-27.62"/>
<polygon fill="black" stroke="black" points="48.08,-24.13 38.08,-27.63 48.08,-31.13 48.08,-24.13"/>
</g>
<!-- Node1&#45;&gt;Node3 -->
<g id="edge2" class="edge">
<title>Node1&#45;&gt;Node3</title>
<path fill="none" stroke="black" d="M117.51,-34.35C125.43,-36.31 134.05,-38.43 141.85,-40.36"/>
<polygon fill="black" stroke="black" points="118.6,-31.01 108.05,-32.02 116.92,-37.81 118.6,-31.01"/>
</g>
<!-- Node4 -->
<g id="Node000004" class="node">
<title>Node4</title>
<g id="a_Node000004"><a xlink:href="group__arm32.html" target="_top" xlink:title=" ">
<polygon fill="white" stroke="#666666" points="190.5,-19.25 146,-19.25 146,0 190.5,0 190.5,-19.25"/>
<text text-anchor="middle" x="168.25" y="-5.75" font-family="Helvetica,sans-Serif" font-size="10.00">Arm32</text>
</a>
</g>
</g>
<!-- Node1&#45;&gt;Node4 -->
<g id="edge3" class="edge">
<title>Node1&#45;&gt;Node4</title>
<path fill="none" stroke="black" d="M117.58,-21.24C126.81,-19.08 136.97,-16.7 145.68,-14.67"/>
<polygon fill="black" stroke="black" points="116.99,-17.78 108.05,-23.46 118.59,-24.59 116.99,-17.78"/>
</g>
</g>
</svg>
