<?xml version="1.0" encoding="UTF-8" standalone="no"?>
<!DOCTYPE svg PUBLIC "-//W3C//DTD SVG 1.1//EN"
 "http://www.w3.org/Graphics/SVG/1.1/DTD/svg11.dtd">
<!-- Generated by graphviz version 5.0.1 (20220820.1526)
 -->
<!-- Title: Triton Pages: 1 -->
<svg width="158pt" height="360pt"
 viewBox="0.00 0.00 158.00 360.00" xmlns="http://www.w3.org/2000/svg" xmlns:xlink="http://www.w3.org/1999/xlink">
<g id="graph0" class="graph" transform="scale(1 1) rotate(0) translate(4 356)">
<title>Triton</title>
<polygon fill="white" stroke="none" points="-4,4 -4,-356 154,-356 154,4 -4,4"/>
<!-- Node2 -->
<g id="node1" class="node">
<title>Node2</title>
<g id="a_node1"><a xlink:href="group__arch.html" target="_top" xlink:title=" ">
<polygon fill="white" stroke="black" points="134,-352 96,-352 96,-333 134,-333 134,-352"/>
<text text-anchor="middle" x="115" y="-340" font-family="Helvetica,sans-Serif" font-size="10.00">Arch</text>
</a>
</g>
</g>
<!-- Node3 -->
<g id="node2" class="node">
<title>Node3</title>
<g id="a_node2"><a xlink:href="group__ast.html" target="_top" xlink:title=" ">
<polygon fill="white" stroke="black" points="131,-315 99,-315 99,-296 131,-296 131,-315"/>
<text text-anchor="middle" x="115" y="-303" font-family="Helvetica,sans-Serif" font-size="10.00">Ast</text>
</a>
</g>
</g>
<!-- Node11 -->
<g id="node3" class="node">
<title>Node11</title>
<g id="a_node3"><a xlink:href="group__bindings.html" target="_top" xlink:title=" ">
<polygon fill="white" stroke="black" points="144.5,-278 85.5,-278 85.5,-259 144.5,-259 144.5,-278"/>
<text text-anchor="middle" x="115" y="-266" font-family="Helvetica,sans-Serif" font-size="10.00">Bindings</text>
</a>
</g>
</g>
<!-- Node8 -->
<g id="node4" class="node">
<title>Node8</title>
<g id="a_node4"><a xlink:href="group__bitsize.html" target="_top" xlink:title=" ">
<polygon fill="white" stroke="black" points="140,-241 90,-241 90,-222 140,-222 140,-241"/>
<text text-anchor="middle" x="115" y="-229" font-family="Helvetica,sans-Serif" font-size="10.00">Bitsize</text>
</a>
</g>
</g>
<!-- Node5 -->
<g id="node5" class="node">
<title>Node5</title>
<g id="a_node5"><a xlink:href="group__callbacks.html" target="_top" xlink:title=" ">
<polygon fill="white" stroke="black" points="147,-204 83,-204 83,-185 147,-185 147,-204"/>
<text text-anchor="middle" x="115" y="-192" font-family="Helvetica,sans-Serif" font-size="10.00">Callbacks</text>
</a>
</g>
</g>
<!-- Node4 -->
<g id="node6" class="node">
<title>Node4</title>
<g id="a_node6"><a xlink:href="group__engines.html" target="_top" xlink:title=" ">
<polygon fill="white" stroke="black" points="142.5,-167 87.5,-167 87.5,-148 142.5,-148 142.5,-167"/>
<text text-anchor="middle" x="115" y="-155" font-family="Helvetica,sans-Serif" font-size="10.00">Engines</text>
</a>
</g>
</g>
<!-- Node9 -->
<g id="node7" class="node">
<title>Node9</title>
<g id="a_node7"><a xlink:href="group__exceptions.html" target="_top" xlink:title=" ">
<polygon fill="white" stroke="black" points="150,-130 80,-130 80,-111 150,-111 150,-130"/>
<text text-anchor="middle" x="115" y="-118" font-family="Helvetica,sans-Serif" font-size="10.00">Exceptions</text>
</a>
</g>
</g>
<!-- Node10 -->
<g id="node8" class="node">
<title>Node10</title>
<g id="a_node8"><a xlink:href="group__modes.html" target="_top" xlink:title=" ">
<polygon fill="white" stroke="black" points="139.5,-93 90.5,-93 90.5,-74 139.5,-74 139.5,-93"/>
<text text-anchor="middle" x="115" y="-81" font-family="Helvetica,sans-Serif" font-size="10.00">Modes</text>
</a>
</g>
</g>
<!-- Node7 -->
<g id="node9" class="node">
<title>Node7</title>
<g id="a_node9"><a xlink:href="group__size.html" target="_top" xlink:title=" ">
<polygon fill="white" stroke="black" points="133.5,-56 96.5,-56 96.5,-37 133.5,-37 133.5,-56"/>
<text text-anchor="middle" x="115" y="-44" font-family="Helvetica,sans-Serif" font-size="10.00">Size</text>
</a>
</g>
</g>
<!-- Node1 -->
<g id="node10" class="node">
<title>Node1</title>
<g id="a_node10"><a xlink:title=" ">
<polygon fill="#bfbfbf" stroke="black" points="44,-185 0,-185 0,-166 44,-166 44,-185"/>
<text text-anchor="middle" x="22" y="-173" font-family="Helvetica,sans-Serif" font-size="10.00">Triton</text>
</a>
</g>
</g>
<!-- Node1&#45;&gt;Node2 -->
<g id="edge1" class="edge">
<title>Node1&#45;&gt;Node2</title>
<path fill="none" stroke="black" d="M25.94,-194.99C31.5,-225.83 46.15,-286.27 80,-324.5 84.25,-329.3 90.09,-333.03 95.74,-335.82"/>
<polygon fill="black" stroke="black" points="29.38,-194.36 24.29,-185.07 22.48,-195.51 29.38,-194.36"/>
</g>
<!-- Node1&#45;&gt;Node3 -->
<g id="edge2" class="edge">
<title>Node1&#45;&gt;Node3</title>
<path fill="none" stroke="black" d="M28.8,-194.88C36.89,-219.11 53.59,-260.66 80,-287.5 85.25,-292.83 92.41,-296.94 98.81,-299.88"/>
<polygon fill="black" stroke="black" points="32.05,-193.55 25.69,-185.08 25.38,-195.67 32.05,-193.55"/>
</g>
<!-- Node1&#45;&gt;Node11 -->
<g id="edge10" class="edge">
<title>Node1&#45;&gt;Node11</title>
<path fill="none" stroke="black" d="M33.83,-194.03C44.11,-210.43 60.82,-234.22 80,-250.5 83.77,-253.7 88.2,-256.55 92.59,-258.99"/>
<polygon fill="black" stroke="black" points="36.73,-192.07 28.55,-185.34 30.75,-195.7 36.73,-192.07"/>
</g>
<!-- Node1&#45;&gt;Node8 -->
<g id="edge7" class="edge">
<title>Node1&#45;&gt;Node8</title>
<path fill="none" stroke="black" d="M45.28,-191.11C55.67,-198.2 68.31,-206.53 80,-213.5 84.82,-216.37 90.14,-219.3 95.11,-221.93"/>
<polygon fill="black" stroke="black" points="47.02,-188.06 36.8,-185.27 43.05,-193.83 47.02,-188.06"/>
</g>
<!-- Node1&#45;&gt;Node5 -->
<g id="edge4" class="edge">
<title>Node1&#45;&gt;Node5</title>
<path fill="none" stroke="black" d="M54.06,-181.98C63.29,-183.91 73.4,-186.02 82.65,-187.95"/>
<polygon fill="black" stroke="black" points="54.61,-178.52 44.11,-179.91 53.18,-185.38 54.61,-178.52"/>
</g>
<!-- Node1&#45;&gt;Node4 -->
<g id="edge3" class="edge">
<title>Node1&#45;&gt;Node4</title>
<path fill="none" stroke="black" d="M54.05,-169.36C64.92,-167.21 77,-164.82 87.47,-162.75"/>
<polygon fill="black" stroke="black" points="53.24,-165.95 44.11,-171.33 54.6,-172.82 53.24,-165.95"/>
</g>
<!-- Node1&#45;&gt;Node9 -->
<g id="edge8" class="edge">
<title>Node1&#45;&gt;Node9</title>
<path fill="none" stroke="black" d="M46.29,-160.39C56.55,-153.84 68.8,-146.16 80,-139.5 85.23,-136.39 90.99,-133.12 96.25,-130.18"/>
<polygon fill="black" stroke="black" points="44.39,-157.46 37.87,-165.8 48.17,-163.35 44.39,-157.46"/>
</g>
<!-- Node1&#45;&gt;Node10 -->
<g id="edge9" class="edge">
<title>Node1&#45;&gt;Node10</title>
<path fill="none" stroke="black" d="M34.31,-157.14C44.75,-141.27 61.4,-118.45 80,-102.5 84.11,-98.98 88.97,-95.8 93.71,-93.1"/>
<polygon fill="black" stroke="black" points="31.09,-155.68 28.66,-165.99 36.99,-159.45 31.09,-155.68"/>
</g>
<!-- Node1&#45;&gt;Node7 -->
<g id="edge6" class="edge">
<title>Node1&#45;&gt;Node7</title>
<path fill="none" stroke="black" d="M29.11,-156.2C37.43,-132.45 54.3,-92.02 80,-65.5 84.61,-60.74 90.67,-56.84 96.4,-53.84"/>
<polygon fill="black" stroke="black" points="25.74,-155.24 25.89,-165.83 32.38,-157.46 25.74,-155.24"/>
</g>
<!-- Node6 -->
<g id="node11" class="node">
<title>Node6</title>
<g id="a_node11"><a xlink:href="group__utils.html" target="_top" xlink:title=" ">
<polygon fill="white" stroke="black" points="134.5,-19 95.5,-19 95.5,0 134.5,0 134.5,-19"/>
<text text-anchor="middle" x="115" y="-7" font-family="Helvetica,sans-Serif" font-size="10.00">Utils</text>
</a>
</g>
</g>
<!-- Node1&#45;&gt;Node6 -->
<g id="edge5" class="edge">
<title>Node1&#45;&gt;Node6</title>
<path fill="none" stroke="black" d="M26.28,-155.51C32.19,-124.96 47.2,-66.24 80,-28.5 84.17,-23.7 89.86,-19.87 95.4,-16.93"/>
<polygon fill="black" stroke="black" points="22.76,-155.28 24.44,-165.74 29.65,-156.51 22.76,-155.28"/>
</g>
</g>
</svg>
