<?xml version="1.0" encoding="UTF-8" standalone="no"?>
<!DOCTYPE svg PUBLIC "-//W3C//DTD SVG 1.1//EN"
 "http://www.w3.org/Graphics/SVG/1.1/DTD/svg11.dtd">
<!-- Generated by graphviz version 2.49.0 (20210828.1703)
 -->
<!-- Title: Engines Pages: 1 -->
<svg width="243pt" height="138pt"
 viewBox="0.00 0.00 243.00 138.00" xmlns="http://www.w3.org/2000/svg" xmlns:xlink="http://www.w3.org/1999/xlink">
<g id="graph0" class="graph" transform="scale(1 1) rotate(0) translate(4 134)">
<title>Engines</title>
<polygon fill="white" stroke="transparent" points="-4,4 -4,-134 239,-134 239,4 -4,4"/>
<!-- Node1 -->
<g id="node1" class="node">
<title>Node1</title>
<g id="a_node1"><a xlink:title=" ">
<polygon fill="#bfbfbf" stroke="black" points="135,-74 80,-74 80,-55 135,-55 135,-74"/>
<text text-anchor="middle" x="107.5" y="-62" font-family="Helvetica,sans-Serif" font-size="10.00">Engines</text>
</a>
</g>
</g>
<!-- Node3 -->
<g id="node2" class="node">
<title>Node3</title>
<g id="a_node2"><a xlink:href="group__solver.html" target="_top" xlink:title=" ">
<polygon fill="white" stroke="black" points="226.5,-130 179.5,-130 179.5,-111 226.5,-111 226.5,-130"/>
<text text-anchor="middle" x="203" y="-118" font-family="Helvetica,sans-Serif" font-size="10.00">Solver</text>
</a>
</g>
</g>
<!-- Node1&#45;&gt;Node3 -->
<g id="edge2" class="edge">
<title>Node1&#45;&gt;Node3</title>
<path fill="none" stroke="black" d="M132.77,-79.41C144.32,-86.47 158.34,-94.98 171,-102.5 175.6,-105.23 180.61,-108.16 185.23,-110.85"/>
<polygon fill="black" stroke="black" points="134.47,-76.35 124.12,-74.11 130.82,-82.32 134.47,-76.35"/>
</g>
<!-- Node6 -->
<g id="node3" class="node">
<title>Node6</title>
<g id="a_node3"><a xlink:href="group__taint.html" target="_top" xlink:title=" ">
<polygon fill="white" stroke="black" points="223,-93 183,-93 183,-74 223,-74 223,-93"/>
<text text-anchor="middle" x="203" y="-81" font-family="Helvetica,sans-Serif" font-size="10.00">Taint</text>
</a>
</g>
</g>
<!-- Node1&#45;&gt;Node6 -->
<g id="edge5" class="edge">
<title>Node1&#45;&gt;Node6</title>
<path fill="none" stroke="black" d="M145.07,-71.93C157.96,-74.55 171.94,-77.39 182.82,-79.6"/>
<polygon fill="black" stroke="black" points="145.54,-68.46 135.04,-69.89 144.15,-75.32 145.54,-68.46"/>
</g>
<!-- Node4 -->
<g id="node4" class="node">
<title>Node4</title>
<g id="a_node4"><a xlink:href="group__synthesis.html" target="_top" xlink:title=" ">
<polygon fill="white" stroke="black" points="235,-56 171,-56 171,-37 235,-37 235,-56"/>
<text text-anchor="middle" x="203" y="-44" font-family="Helvetica,sans-Serif" font-size="10.00">Synthesis</text>
</a>
</g>
</g>
<!-- Node1&#45;&gt;Node4 -->
<g id="edge3" class="edge">
<title>Node1&#45;&gt;Node4</title>
<path fill="none" stroke="black" d="M145.08,-57.46C153.57,-55.82 162.52,-54.1 170.76,-52.51"/>
<polygon fill="black" stroke="black" points="144.2,-54.06 135.04,-59.39 145.52,-60.94 144.2,-54.06"/>
</g>
<!-- Node5 -->
<g id="node6" class="node">
<title>Node5</title>
<g id="a_node6"><a xlink:href="group__symbolic.html" target="_top" xlink:title=" ">
<polygon fill="white" stroke="black" points="234,-19 172,-19 172,0 234,0 234,-19"/>
<text text-anchor="middle" x="203" y="-7" font-family="Helvetica,sans-Serif" font-size="10.00">Symbolic</text>
</a>
</g>
</g>
<!-- Node1&#45;&gt;Node5 -->
<g id="edge4" class="edge">
<title>Node1&#45;&gt;Node5</title>
<path fill="none" stroke="black" d="M133.29,-49.76C144.75,-42.96 158.55,-34.8 171,-27.5 175.72,-24.73 180.86,-21.74 185.57,-19"/>
<polygon fill="black" stroke="black" points="131.48,-46.77 124.67,-54.88 135.05,-52.78 131.48,-46.77"/>
</g>
<!-- Node2 -->
<g id="node5" class="node">
<title>Node2</title>
<g id="a_node5"><a xlink:href="group__triton.html" target="_top" xlink:title=" ">
<polygon fill="white" stroke="black" points="44,-74 0,-74 0,-55 44,-55 44,-74"/>
<text text-anchor="middle" x="22" y="-62" font-family="Helvetica,sans-Serif" font-size="10.00">Triton</text>
</a>
</g>
</g>
<!-- Node2&#45;&gt;Node1 -->
<g id="edge1" class="edge">
<title>Node2&#45;&gt;Node1</title>
<path fill="none" stroke="black" d="M54.25,-64.5C62.64,-64.5 71.62,-64.5 79.74,-64.5"/>
<polygon fill="black" stroke="black" points="54.07,-61 44.07,-64.5 54.07,-68 54.07,-61"/>
</g>
</g>
</svg>
