<?xml version="1.0" encoding="UTF-8" standalone="no"?>
<!DOCTYPE svg PUBLIC "-//W3C//DTD SVG 1.1//EN"
 "http://www.w3.org/Graphics/SVG/1.1/DTD/svg11.dtd">
<!-- Generated by graphviz version 11.0.0 (20240428.1522)
 -->
<!-- Title: Ast Pages: 1 -->
<svg width="239pt" height="27pt"
 viewBox="0.00 0.00 239.00 27.25" xmlns="http://www.w3.org/2000/svg" xmlns:xlink="http://www.w3.org/1999/xlink">
<g id="graph0" class="graph" transform="scale(1 1) rotate(0) translate(4 23.25)">
<title>Ast</title>
<!-- Node1 -->
<g id="Node000001" class="node">
<title>Node1</title>
<g id="a_Node000001"><a xlink:title=" ">
<polygon fill="#999999" stroke="#666666" points="107.75,-19.25 76.75,-19.25 76.75,0 107.75,0 107.75,-19.25"/>
<text text-anchor="middle" x="92.25" y="-5.75" font-family="Helvetica,sans-Serif" font-size="10.00">Ast</text>
</a>
</g>
</g>
<!-- Node3 -->
<g id="Node000003" class="node">
<title>Node3</title>
<g id="a_Node000003"><a xlink:href="$group__representations.html" xlink:title=" ">
<polygon fill="white" stroke="#666666" points="231,-19.25 143.75,-19.25 143.75,0 231,0 231,-19.25"/>
<text text-anchor="middle" x="187.38" y="-5.75" font-family="Helvetica,sans-Serif" font-size="10.00">Representations</text>
</a>
</g>
</g>
<!-- Node1&#45;&gt;Node3 -->
<g id="edge2" class="edge">
<title>Node1&#45;&gt;Node3</title>
<path fill="none" stroke="black" d="M119.65,-9.62C127.02,-9.62 135.23,-9.62 143.29,-9.62"/>
<polygon fill="black" stroke="black" points="119.73,-6.13 109.73,-9.63 119.73,-13.13 119.73,-6.13"/>
</g>
<!-- Node2 -->
<g id="Node000002" class="node">
<title>Node2</title>
<g id="a_Node000002"><a xlink:href="$group__triton.html" xlink:title=" ">
<polygon fill="white" stroke="#666666" points="40.75,-19.25 0,-19.25 0,0 40.75,0 40.75,-19.25"/>
<text text-anchor="middle" x="20.38" y="-5.75" font-family="Helvetica,sans-Serif" font-size="10.00">Triton</text>
</a>
</g>
</g>
<!-- Node2&#45;&gt;Node1 -->
<g id="edge1" class="edge">
<title>Node2&#45;&gt;Node1</title>
<path fill="none" stroke="black" d="M52.5,-9.62C60.75,-9.62 69.3,-9.62 76.25,-9.62"/>
<polygon fill="black" stroke="black" points="52.73,-6.13 42.73,-9.63 52.72,-13.13 52.73,-6.13"/>
</g>
</g>
</svg>
