<?xml version="1.0" encoding="UTF-8" standalone="no"?>
<!DOCTYPE svg PUBLIC "-//W3C//DTD SVG 1.1//EN"
 "http://www.w3.org/Graphics/SVG/1.1/DTD/svg11.dtd">
<!-- Generated by graphviz version 2.49.0 (20210828.1703)
 -->
<!-- Title: Bindings Pages: 1 -->
<svg width="233pt" height="27pt"
 viewBox="0.00 0.00 233.00 27.00" xmlns="http://www.w3.org/2000/svg" xmlns:xlink="http://www.w3.org/1999/xlink">
<g id="graph0" class="graph" transform="scale(1 1) rotate(0) translate(4 23)">
<title>Bindings</title>
<polygon fill="white" stroke="transparent" points="-4,4 -4,-23 229,-23 229,4 -4,4"/>
<!-- Node3 -->
<g id="node1" class="node">
<title>Node3</title>
<g id="a_node1"><a xlink:href="group__python.html" target="_top" xlink:title=" ">
<polygon fill="white" stroke="black" points="225,-19 175,-19 175,0 225,0 225,-19"/>
<text text-anchor="middle" x="200" y="-7" font-family="Helvetica,sans-Serif" font-size="10.00">Python</text>
</a>
</g>
</g>
<!-- Node2 -->
<g id="node2" class="node">
<title>Node2</title>
<g id="a_node2"><a xlink:href="group__triton.html" target="_top" xlink:title=" ">
<polygon fill="white" stroke="black" points="44,-19 0,-19 0,0 44,0 44,-19"/>
<text text-anchor="middle" x="22" y="-7" font-family="Helvetica,sans-Serif" font-size="10.00">Triton</text>
</a>
</g>
</g>
<!-- Node1 -->
<g id="node3" class="node">
<title>Node1</title>
<g id="a_node3"><a xlink:title=" ">
<polygon fill="#bfbfbf" stroke="black" points="139,-19 80,-19 80,0 139,0 139,-19"/>
<text text-anchor="middle" x="109.5" y="-7" font-family="Helvetica,sans-Serif" font-size="10.00">Bindings</text>
</a>
</g>
</g>
<!-- Node2&#45;&gt;Node1 -->
<g id="edge1" class="edge">
<title>Node2&#45;&gt;Node1</title>
<path fill="none" stroke="black" d="M54.29,-9.5C62.65,-9.5 71.65,-9.5 79.87,-9.5"/>
<polygon fill="black" stroke="black" points="54.13,-6 44.13,-9.5 54.13,-13 54.13,-6"/>
</g>
<!-- Node1&#45;&gt;Node3 -->
<g id="edge2" class="edge">
<title>Node1&#45;&gt;Node3</title>
<path fill="none" stroke="black" d="M149.75,-9.5C158.35,-9.5 167.2,-9.5 174.98,-9.5"/>
<polygon fill="black" stroke="black" points="149.48,-6 139.48,-9.5 149.48,-13 149.48,-6"/>
</g>
</g>
</svg>
