<?xml version="1.0" encoding="UTF-8" standalone="no"?>
<!DOCTYPE svg PUBLIC "-//W3C//DTD SVG 1.1//EN"
 "http://www.w3.org/Graphics/SVG/1.1/DTD/svg11.dtd">
<!-- Generated by graphviz version 7.0.0 (20221023.0053)
 -->
<!-- Title: Arm Pages: 1 -->
<svg width="205pt" height="64pt"
 viewBox="0.00 0.00 205.00 64.00" xmlns="http://www.w3.org/2000/svg" xmlns:xlink="http://www.w3.org/1999/xlink">
<g id="graph0" class="graph" transform="scale(1 1) rotate(0) translate(4 60)">
<title>Arm</title>
<!-- Node3 -->
<g id="node1" class="node">
<title>Node3</title>
<g id="a_node1"><a xlink:href="group__aarch64.html" target="_top" xlink:title=" ">
<polygon fill="white" stroke="#666666" points="197,-56 144,-56 144,-37 197,-37 197,-56"/>
<text text-anchor="middle" x="170.5" y="-44" font-family="Helvetica,sans-Serif" font-size="10.00">Aarch64</text>
</a>
</g>
</g>
<!-- Node2 -->
<g id="node2" class="node">
<title>Node2</title>
<g id="a_node2"><a xlink:href="group__arch.html" target="_top" xlink:title=" ">
<polygon fill="white" stroke="#666666" points="37,-37 0,-37 0,-18 37,-18 37,-37"/>
<text text-anchor="middle" x="18.5" y="-25" font-family="Helvetica,sans-Serif" font-size="10.00">Arch</text>
</a>
</g>
</g>
<!-- Node1 -->
<g id="node3" class="node">
<title>Node1</title>
<g id="a_node3"><a xlink:title=" ">
<polygon fill="#999999" stroke="#666666" points="108,-37 73,-37 73,-18 108,-18 108,-37"/>
<text text-anchor="middle" x="90.5" y="-25" font-family="Helvetica,sans-Serif" font-size="10.00">Arm</text>
</a>
</g>
</g>
<!-- Node2&#45;&gt;Node1 -->
<g id="edge1" class="edge">
<title>Node2&#45;&gt;Node1</title>
<path fill="none" stroke="black" d="M48.59,-27.5C56.76,-27.5 65.37,-27.5 72.57,-27.5"/>
<polygon fill="black" stroke="black" points="48.68,-24 38.68,-27.5 48.68,-31 48.68,-24"/>
</g>
<!-- Node1&#45;&gt;Node3 -->
<g id="edge2" class="edge">
<title>Node1&#45;&gt;Node3</title>
<path fill="none" stroke="black" d="M119.39,-34.29C127.31,-36.22 135.91,-38.32 143.7,-40.22"/>
<polygon fill="black" stroke="black" points="120.44,-30.95 109.9,-31.98 118.78,-37.75 120.44,-30.95"/>
</g>
<!-- Node4 -->
<g id="node4" class="node">
<title>Node4</title>
<g id="a_node4"><a xlink:href="group__arm32.html" target="_top" xlink:title=" ">
<polygon fill="white" stroke="#666666" points="193,-19 148,-19 148,0 193,0 193,-19"/>
<text text-anchor="middle" x="170.5" y="-7" font-family="Helvetica,sans-Serif" font-size="10.00">Arm32</text>
</a>
</g>
</g>
<!-- Node1&#45;&gt;Node4 -->
<g id="edge3" class="edge">
<title>Node1&#45;&gt;Node4</title>
<path fill="none" stroke="black" d="M119.47,-21.05C128.71,-18.91 138.85,-16.57 147.57,-14.56"/>
<polygon fill="black" stroke="black" points="118.86,-17.59 109.9,-23.25 120.43,-24.42 118.86,-17.59"/>
</g>
</g>
</svg>
