<?xml version="1.0" encoding="UTF-8" standalone="no"?>
<!DOCTYPE svg PUBLIC "-//W3C//DTD SVG 1.1//EN"
 "http://www.w3.org/Graphics/SVG/1.1/DTD/svg11.dtd">
<!-- Generated by graphviz version 7.0.0 (20221023.0053)
 -->
<!-- Title: Triton Pages: 1 -->
<svg width="150pt" height="360pt"
 viewBox="0.00 0.00 150.00 360.00" xmlns="http://www.w3.org/2000/svg" xmlns:xlink="http://www.w3.org/1999/xlink">
<g id="graph0" class="graph" transform="scale(1 1) rotate(0) translate(4 356)">
<title>Triton</title>
<!-- Node2 -->
<g id="node1" class="node">
<title>Node2</title>
<g id="a_node1"><a xlink:href="group__arch.html" target="_top" xlink:title=" ">
<polygon fill="white" stroke="#666666" points="128,-352 91,-352 91,-333 128,-333 128,-352"/>
<text text-anchor="middle" x="109.5" y="-340" font-family="Helvetica,sans-Serif" font-size="10.00">Arch</text>
</a>
</g>
</g>
<!-- Node3 -->
<g id="node2" class="node">
<title>Node3</title>
<g id="a_node2"><a xlink:href="group__ast.html" target="_top" xlink:title=" ">
<polygon fill="white" stroke="#666666" points="125.5,-315 93.5,-315 93.5,-296 125.5,-296 125.5,-315"/>
<text text-anchor="middle" x="109.5" y="-303" font-family="Helvetica,sans-Serif" font-size="10.00">Ast</text>
</a>
</g>
</g>
<!-- Node11 -->
<g id="node3" class="node">
<title>Node11</title>
<g id="a_node3"><a xlink:href="group__bindings.html" target="_top" xlink:title=" ">
<polygon fill="white" stroke="#666666" points="136.5,-278 82.5,-278 82.5,-259 136.5,-259 136.5,-278"/>
<text text-anchor="middle" x="109.5" y="-266" font-family="Helvetica,sans-Serif" font-size="10.00">Bindings</text>
</a>
</g>
</g>
<!-- Node8 -->
<g id="node4" class="node">
<title>Node8</title>
<g id="a_node4"><a xlink:href="group__bitsize.html" target="_top" xlink:title=" ">
<polygon fill="white" stroke="#666666" points="133,-241 86,-241 86,-222 133,-222 133,-241"/>
<text text-anchor="middle" x="109.5" y="-229" font-family="Helvetica,sans-Serif" font-size="10.00">Bitsize</text>
</a>
</g>
</g>
<!-- Node5 -->
<g id="node5" class="node">
<title>Node5</title>
<g id="a_node5"><a xlink:href="group__callbacks.html" target="_top" xlink:title=" ">
<polygon fill="white" stroke="#666666" points="139.5,-204 79.5,-204 79.5,-185 139.5,-185 139.5,-204"/>
<text text-anchor="middle" x="109.5" y="-192" font-family="Helvetica,sans-Serif" font-size="10.00">Callbacks</text>
</a>
</g>
</g>
<!-- Node4 -->
<g id="node6" class="node">
<title>Node4</title>
<g id="a_node6"><a xlink:href="group__engines.html" target="_top" xlink:title=" ">
<polygon fill="white" stroke="#666666" points="135.5,-167 83.5,-167 83.5,-148 135.5,-148 135.5,-167"/>
<text text-anchor="middle" x="109.5" y="-155" font-family="Helvetica,sans-Serif" font-size="10.00">Engines</text>
</a>
</g>
</g>
<!-- Node9 -->
<g id="node7" class="node">
<title>Node9</title>
<g id="a_node7"><a xlink:href="group__exceptions.html" target="_top" xlink:title=" ">
<polygon fill="white" stroke="#666666" points="142,-130 77,-130 77,-111 142,-111 142,-130"/>
<text text-anchor="middle" x="109.5" y="-118" font-family="Helvetica,sans-Serif" font-size="10.00">Exceptions</text>
</a>
</g>
</g>
<!-- Node10 -->
<g id="node8" class="node">
<title>Node10</title>
<g id="a_node8"><a xlink:href="group__modes.html" target="_top" xlink:title=" ">
<polygon fill="white" stroke="#666666" points="132.5,-93 86.5,-93 86.5,-74 132.5,-74 132.5,-93"/>
<text text-anchor="middle" x="109.5" y="-81" font-family="Helvetica,sans-Serif" font-size="10.00">Modes</text>
</a>
</g>
</g>
<!-- Node7 -->
<g id="node9" class="node">
<title>Node7</title>
<g id="a_node9"><a xlink:href="group__size.html" target="_top" xlink:title=" ">
<polygon fill="white" stroke="#666666" points="127.5,-56 91.5,-56 91.5,-37 127.5,-37 127.5,-56"/>
<text text-anchor="middle" x="109.5" y="-44" font-family="Helvetica,sans-Serif" font-size="10.00">Size</text>
</a>
</g>
</g>
<!-- Node1 -->
<g id="node10" class="node">
<title>Node1</title>
<g id="a_node10"><a xlink:title=" ">
<polygon fill="#999999" stroke="#666666" points="41,-185 0,-185 0,-166 41,-166 41,-185"/>
<text text-anchor="middle" x="20.5" y="-173" font-family="Helvetica,sans-Serif" font-size="10.00">Triton</text>
</a>
</g>
</g>
<!-- Node1&#45;&gt;Node2 -->
<g id="edge1" class="edge">
<title>Node1&#45;&gt;Node2</title>
<path fill="none" stroke="black" d="M24.67,-196.54C30.3,-227.67 44.65,-286.41 77,-324.5 80.67,-328.82 85.65,-332.33 90.57,-335.06"/>
<polygon fill="black" stroke="black" points="28.15,-196.16 23.06,-186.86 21.25,-197.3 28.15,-196.16"/>
</g>
<!-- Node1&#45;&gt;Node3 -->
<g id="edge2" class="edge">
<title>Node1&#45;&gt;Node3</title>
<path fill="none" stroke="black" d="M27.6,-196.1C35.64,-220.37 51.79,-260.75 77,-287.5 81.49,-292.27 87.53,-296.13 93.12,-299.04"/>
<polygon fill="black" stroke="black" points="31.01,-195.26 24.67,-186.77 24.33,-197.36 31.01,-195.26"/>
</g>
<!-- Node1&#45;&gt;Node11 -->
<g id="edge10" class="edge">
<title>Node1&#45;&gt;Node11</title>
<path fill="none" stroke="black" d="M32.64,-194.82C42.7,-211.1 58.72,-234.26 77,-250.5 80.39,-253.51 84.37,-256.25 88.33,-258.64"/>
<polygon fill="black" stroke="black" points="35.83,-193.34 27.69,-186.56 29.82,-196.94 35.83,-193.34"/>
</g>
<!-- Node1&#45;&gt;Node8 -->
<g id="edge7" class="edge">
<title>Node1&#45;&gt;Node8</title>
<path fill="none" stroke="black" d="M44.17,-191.64C54.12,-198.56 66.02,-206.62 77,-213.5 81.38,-216.24 86.18,-219.07 90.69,-221.66"/>
<polygon fill="black" stroke="black" points="46.41,-188.93 36.22,-186.05 42.39,-194.66 46.41,-188.93"/>
</g>
<!-- Node1&#45;&gt;Node5 -->
<g id="edge4" class="edge">
<title>Node1&#45;&gt;Node5</title>
<path fill="none" stroke="black" d="M52.22,-182.21C61.01,-184.13 70.56,-186.21 79.26,-188.11"/>
<polygon fill="black" stroke="black" points="53.24,-178.85 42.72,-180.13 51.74,-185.69 53.24,-178.85"/>
</g>
<!-- Node1&#45;&gt;Node4 -->
<g id="edge3" class="edge">
<title>Node1&#45;&gt;Node4</title>
<path fill="none" stroke="black" d="M52.47,-169.09C62.55,-167.01 73.6,-164.72 83.21,-162.73"/>
<polygon fill="black" stroke="black" points="51.81,-165.66 42.72,-171.11 53.23,-172.51 51.81,-165.66"/>
</g>
<!-- Node1&#45;&gt;Node9 -->
<g id="edge8" class="edge">
<title>Node1&#45;&gt;Node9</title>
<path fill="none" stroke="black" d="M45.87,-159.45C55.52,-153.16 66.74,-145.92 77,-139.5 81.76,-136.52 86.98,-133.34 91.76,-130.46"/>
<polygon fill="black" stroke="black" points="44.21,-156.35 37.76,-164.76 48.04,-162.21 44.21,-156.35"/>
</g>
<!-- Node1&#45;&gt;Node10 -->
<g id="edge9" class="edge">
<title>Node1&#45;&gt;Node10</title>
<path fill="none" stroke="black" d="M33.46,-155.85C43.69,-140.15 59.48,-118.23 77,-102.5 80.71,-99.17 85.08,-96.11 89.37,-93.46"/>
<polygon fill="black" stroke="black" points="30.51,-153.98 28.13,-164.3 36.43,-157.71 30.51,-153.98"/>
</g>
<!-- Node1&#45;&gt;Node7 -->
<g id="edge6" class="edge">
<title>Node1&#45;&gt;Node7</title>
<path fill="none" stroke="black" d="M28.04,-154.68C36.35,-130.88 52.6,-91.81 77,-65.5 80.99,-61.19 86.19,-57.53 91.2,-54.6"/>
<polygon fill="black" stroke="black" points="24.72,-153.56 24.9,-164.15 31.37,-155.76 24.72,-153.56"/>
</g>
<!-- Node6 -->
<g id="node11" class="node">
<title>Node6</title>
<g id="a_node11"><a xlink:href="group__utils.html" target="_top" xlink:title=" ">
<polygon fill="white" stroke="#666666" points="128,-19 91,-19 91,0 128,0 128,-19"/>
<text text-anchor="middle" x="109.5" y="-7" font-family="Helvetica,sans-Serif" font-size="10.00">Utils</text>
</a>
</g>
</g>
<!-- Node1&#45;&gt;Node6 -->
<g id="edge5" class="edge">
<title>Node1&#45;&gt;Node6</title>
<path fill="none" stroke="black" d="M24.86,-154.84C30.73,-124.25 45.39,-66.45 77,-28.5 80.68,-24.08 85.66,-20.42 90.58,-17.54"/>
<polygon fill="black" stroke="black" points="21.48,-153.86 23.17,-164.32 28.37,-155.09 21.48,-153.86"/>
</g>
</g>
</svg>
