<?xml version="1.0" encoding="UTF-8" standalone="no"?>
<!DOCTYPE svg PUBLIC "-//W3C//DTD SVG 1.1//EN"
 "http://www.w3.org/Graphics/SVG/1.1/DTD/svg11.dtd">
<!-- Generated by graphviz version 9.0.0 (20230911.1827)
 -->
<!-- Title: Bindings Pages: 1 -->
<svg width="221pt" height="27pt"
 viewBox="0.00 0.00 221.00 27.25" xmlns="http://www.w3.org/2000/svg" xmlns:xlink="http://www.w3.org/1999/xlink">
<g id="graph0" class="graph" transform="scale(1 1) rotate(0) translate(4 23.25)">
<title>Bindings</title>
<!-- Node1 -->
<g id="Node000001" class="node">
<title>Node1</title>
<g id="a_Node000001"><a xlink:title=" ">
<polygon fill="#999999" stroke="#666666" points="130.25,-19.25 76.75,-19.25 76.75,0 130.25,0 130.25,-19.25"/>
<text text-anchor="middle" x="103.5" y="-5.75" font-family="Helvetica,sans-Serif" font-size="10.00">Bindings</text>
</a>
</g>
</g>
<!-- Node3 -->
<g id="Node000003" class="node">
<title>Node3</title>
<g id="a_Node000003"><a xlink:href="group__python.html" target="_top" xlink:title=" ">
<polygon fill="white" stroke="#666666" points="213,-19.25 166.25,-19.25 166.25,0 213,0 213,-19.25"/>
<text text-anchor="middle" x="189.62" y="-5.75" font-family="Helvetica,sans-Serif" font-size="10.00">Python</text>
</a>
</g>
</g>
<!-- Node1&#45;&gt;Node3 -->
<g id="edge2" class="edge">
<title>Node1&#45;&gt;Node3</title>
<path fill="none" stroke="black" d="M141.92,-9.62C150.1,-9.62 158.5,-9.62 165.9,-9.62"/>
<polygon fill="black" stroke="black" points="142.17,-6.13 132.17,-9.63 142.17,-13.13 142.17,-6.13"/>
</g>
<!-- Node2 -->
<g id="Node000002" class="node">
<title>Node2</title>
<g id="a_Node000002"><a xlink:href="group__triton.html" target="_top" xlink:title=" ">
<polygon fill="white" stroke="#666666" points="40.75,-19.25 0,-19.25 0,0 40.75,0 40.75,-19.25"/>
<text text-anchor="middle" x="20.38" y="-5.75" font-family="Helvetica,sans-Serif" font-size="10.00">Triton</text>
</a>
</g>
</g>
<!-- Node2&#45;&gt;Node1 -->
<g id="edge1" class="edge">
<title>Node2&#45;&gt;Node1</title>
<path fill="none" stroke="black" d="M52.42,-9.62C60.3,-9.62 68.68,-9.62 76.3,-9.62"/>
<polygon fill="black" stroke="black" points="52.53,-6.13 42.53,-9.63 52.53,-13.13 52.53,-6.13"/>
</g>
</g>
</svg>
