<?xml version="1.0" encoding="UTF-8" standalone="no"?>
<!DOCTYPE svg PUBLIC "-//W3C//DTD SVG 1.1//EN"
 "http://www.w3.org/Graphics/SVG/1.1/DTD/svg11.dtd">
<!-- Generated by graphviz version 2.50.0 (20211204.2007)
 -->
<!-- Title: Synthesis Pages: 1 -->
<svg width="252pt" height="27pt"
 viewBox="0.00 0.00 252.00 27.00" xmlns="http://www.w3.org/2000/svg" xmlns:xlink="http://www.w3.org/1999/xlink">
<g id="graph0" class="graph" transform="scale(1 1) rotate(0) translate(4 23)">
<title>Synthesis</title>
<polygon fill="white" stroke="transparent" points="-4,4 -4,-23 248,-23 248,4 -4,4"/>
<!-- Node2 -->
<g id="node1" class="node">
<title>Node2</title>
<g id="a_node1"><a xlink:href="group__engines.html" target="_top" xlink:title=" ">
<polygon fill="white" stroke="black" points="55,-19 0,-19 0,0 55,0 55,-19"/>
<text text-anchor="middle" x="27.5" y="-7" font-family="Helvetica,sans-Serif" font-size="10.00">Engines</text>
</a>
</g>
</g>
<!-- Node1 -->
<g id="node3" class="node">
<title>Node1</title>
<g id="a_node3"><a xlink:title=" ">
<polygon fill="#bfbfbf" stroke="black" points="155,-19 91,-19 91,0 155,0 155,-19"/>
<text text-anchor="middle" x="123" y="-7" font-family="Helvetica,sans-Serif" font-size="10.00">Synthesis</text>
</a>
</g>
</g>
<!-- Node2&#45;&gt;Node1 -->
<g id="edge1" class="edge">
<title>Node2&#45;&gt;Node1</title>
<path fill="none" stroke="black" d="M65.08,-9.5C73.57,-9.5 82.52,-9.5 90.76,-9.5"/>
<polygon fill="black" stroke="black" points="65.04,-6 55.04,-9.5 65.04,-13 65.04,-6"/>
</g>
<!-- Node3 -->
<g id="node2" class="node">
<title>Node3</title>
<g id="a_node2"><a xlink:href="group__oracles.html" target="_top" xlink:title=" ">
<polygon fill="white" stroke="black" points="244,-19 191,-19 191,0 244,0 244,-19"/>
<text text-anchor="middle" x="217.5" y="-7" font-family="Helvetica,sans-Serif" font-size="10.00">Oracles</text>
</a>
</g>
</g>
<!-- Node1&#45;&gt;Node3 -->
<g id="edge2" class="edge">
<title>Node1&#45;&gt;Node3</title>
<path fill="none" stroke="black" d="M165.16,-9.5C173.92,-9.5 182.93,-9.5 190.91,-9.5"/>
<polygon fill="black" stroke="black" points="165.06,-6 155.06,-9.5 165.06,-13 165.06,-6"/>
</g>
</g>
</svg>
