<?xml version="1.0" encoding="UTF-8" standalone="no"?>
<!DOCTYPE svg PUBLIC "-//W3C//DTD SVG 1.1//EN"
 "http://www.w3.org/Graphics/SVG/1.1/DTD/svg11.dtd">
<!-- Generated by graphviz version 12.1.0 (20240811.2233)
 -->
<!-- Title: Triton Pages: 1 -->
<svg width="150pt" height="397pt"
 viewBox="0.00 0.00 149.50 397.25" xmlns="http://www.w3.org/2000/svg" xmlns:xlink="http://www.w3.org/1999/xlink">
<g id="graph0" class="graph" transform="scale(1 1) rotate(0) translate(4 393.25)">
<title>Triton</title>
<!-- Node2 -->
<g id="Node000002" class="node">
<title>Node2</title>
<g id="a_Node000002"><a xlink:href="group__arch.html" target="_top" xlink:title=" ">
<polygon fill="white" stroke="#666666" points="127.25,-389.25 91,-389.25 91,-370 127.25,-370 127.25,-389.25"/>
<text text-anchor="middle" x="109.12" y="-375.75" font-family="Helvetica,sans-Serif" font-size="10.00">Arch</text>
</a>
</g>
</g>
<!-- Node3 -->
<g id="Node000003" class="node">
<title>Node3</title>
<g id="a_Node000003"><a xlink:href="group__ast.html" target="_top" xlink:title=" ">
<polygon fill="white" stroke="#666666" points="124.62,-352.25 93.62,-352.25 93.62,-333 124.62,-333 124.62,-352.25"/>
<text text-anchor="middle" x="109.12" y="-338.75" font-family="Helvetica,sans-Serif" font-size="10.00">Ast</text>
</a>
</g>
</g>
<!-- Node11 -->
<g id="Node000011" class="node">
<title>Node11</title>
<g id="a_Node000011"><a xlink:href="group__bindings.html" target="_top" xlink:title=" ">
<polygon fill="white" stroke="#666666" points="135.88,-315.25 82.38,-315.25 82.38,-296 135.88,-296 135.88,-315.25"/>
<text text-anchor="middle" x="109.12" y="-301.75" font-family="Helvetica,sans-Serif" font-size="10.00">Bindings</text>
</a>
</g>
</g>
<!-- Node8 -->
<g id="Node000008" class="node">
<title>Node8</title>
<g id="a_Node000008"><a xlink:href="group__bitsize.html" target="_top" xlink:title=" ">
<polygon fill="white" stroke="#666666" points="132.12,-278.25 86.12,-278.25 86.12,-259 132.12,-259 132.12,-278.25"/>
<text text-anchor="middle" x="109.12" y="-264.75" font-family="Helvetica,sans-Serif" font-size="10.00">Bitsize</text>
</a>
</g>
</g>
<!-- Node5 -->
<g id="Node000005" class="node">
<title>Node5</title>
<g id="a_Node000005"><a xlink:href="group__callbacks.html" target="_top" xlink:title=" ">
<polygon fill="white" stroke="#666666" points="138.88,-241.25 79.38,-241.25 79.38,-222 138.88,-222 138.88,-241.25"/>
<text text-anchor="middle" x="109.12" y="-227.75" font-family="Helvetica,sans-Serif" font-size="10.00">Callbacks</text>
</a>
</g>
</g>
<!-- Node4 -->
<g id="Node000004" class="node">
<title>Node4</title>
<g id="a_Node000004"><a xlink:href="group__engines.html" target="_top" xlink:title=" ">
<polygon fill="white" stroke="#666666" points="134.75,-204.25 83.5,-204.25 83.5,-185 134.75,-185 134.75,-204.25"/>
<text text-anchor="middle" x="109.12" y="-190.75" font-family="Helvetica,sans-Serif" font-size="10.00">Engines</text>
</a>
</g>
</g>
<!-- Node9 -->
<g id="Node000009" class="node">
<title>Node9</title>
<g id="a_Node000009"><a xlink:href="group__exceptions.html" target="_top" xlink:title=" ">
<polygon fill="white" stroke="#666666" points="141.5,-167.25 76.75,-167.25 76.75,-148 141.5,-148 141.5,-167.25"/>
<text text-anchor="middle" x="109.12" y="-153.75" font-family="Helvetica,sans-Serif" font-size="10.00">Exceptions</text>
</a>
</g>
</g>
<!-- Node10 -->
<g id="Node000010" class="node">
<title>Node10</title>
<g id="a_Node000010"><a xlink:href="group__modes.html" target="_top" xlink:title=" ">
<polygon fill="white" stroke="#666666" points="131.75,-130.25 86.5,-130.25 86.5,-111 131.75,-111 131.75,-130.25"/>
<text text-anchor="middle" x="109.12" y="-116.75" font-family="Helvetica,sans-Serif" font-size="10.00">Modes</text>
</a>
</g>
</g>
<!-- Node7 -->
<g id="Node000007" class="node">
<title>Node7</title>
<g id="a_Node000007"><a xlink:href="group__size.html" target="_top" xlink:title=" ">
<polygon fill="white" stroke="#666666" points="126.88,-93.25 91.38,-93.25 91.38,-74 126.88,-74 126.88,-93.25"/>
<text text-anchor="middle" x="109.12" y="-79.75" font-family="Helvetica,sans-Serif" font-size="10.00">Size</text>
</a>
</g>
</g>
<!-- Node12 -->
<g id="Node000012" class="node">
<title>Node12</title>
<g id="a_Node000012"><a xlink:href="group__softfloat.html" target="_top" xlink:title=" ">
<polygon fill="white" stroke="#666666" points="135.5,-56.25 82.75,-56.25 82.75,-37 135.5,-37 135.5,-56.25"/>
<text text-anchor="middle" x="109.12" y="-42.75" font-family="Helvetica,sans-Serif" font-size="10.00">Softfloat</text>
</a>
</g>
</g>
<!-- Node1 -->
<g id="Node000001" class="node">
<title>Node1</title>
<g id="a_Node000001"><a xlink:title=" ">
<polygon fill="#999999" stroke="#666666" points="40.75,-204.25 0,-204.25 0,-185 40.75,-185 40.75,-204.25"/>
<text text-anchor="middle" x="20.38" y="-190.75" font-family="Helvetica,sans-Serif" font-size="10.00">Triton</text>
</a>
</g>
</g>
<!-- Node1&#45;&gt;Node2 -->
<g id="edge1" class="edge">
<title>Node1&#45;&gt;Node2</title>
<path fill="none" stroke="black" d="M23.52,-215.76C27.95,-249.9 40.93,-317.79 76.75,-361.62 80.48,-366.2 85.71,-369.84 90.82,-372.62"/>
<polygon fill="black" stroke="black" points="27.01,-215.48 22.38,-205.95 20.05,-216.29 27.01,-215.48"/>
</g>
<!-- Node1&#45;&gt;Node3 -->
<g id="edge2" class="edge">
<title>Node1&#45;&gt;Node3</title>
<path fill="none" stroke="black" d="M25.91,-215.71C32.8,-243.47 48.21,-292.5 76.75,-324.62 81.25,-329.7 87.54,-333.69 93.31,-336.62"/>
<polygon fill="black" stroke="black" points="29.35,-215.02 23.68,-206.07 22.53,-216.6 29.35,-215.02"/>
</g>
<!-- Node1&#45;&gt;Node11 -->
<g id="edge10" class="edge">
<title>Node1&#45;&gt;Node11</title>
<path fill="none" stroke="black" d="M29.78,-215C38.96,-235.32 55.26,-266.48 76.75,-287.62 79.79,-290.62 83.43,-293.29 87.14,-295.61"/>
<polygon fill="black" stroke="black" points="33.11,-213.87 25.93,-206.09 26.69,-216.65 33.11,-213.87"/>
</g>
<!-- Node1&#45;&gt;Node8 -->
<g id="edge7" class="edge">
<title>Node1&#45;&gt;Node8</title>
<path fill="none" stroke="black" d="M37.19,-213.01C47.71,-224.6 62.22,-239.44 76.75,-250.62 80.43,-253.46 84.61,-256.16 88.68,-258.57"/>
<polygon fill="black" stroke="black" points="39.94,-210.84 30.69,-205.67 34.7,-215.48 39.94,-210.84"/>
</g>
<!-- Node1&#45;&gt;Node5 -->
<g id="edge4" class="edge">
<title>Node1&#45;&gt;Node5</title>
<path fill="none" stroke="black" d="M51.37,-207.42C62.21,-212.04 74.29,-217.19 84.51,-221.55"/>
<polygon fill="black" stroke="black" points="53.02,-204.32 42.45,-203.61 50.28,-210.76 53.02,-204.32"/>
</g>
<!-- Node1&#45;&gt;Node4 -->
<g id="edge3" class="edge">
<title>Node1&#45;&gt;Node4</title>
<path fill="none" stroke="black" d="M52.35,-194.62C62.49,-194.62 73.61,-194.62 83.23,-194.62"/>
<polygon fill="black" stroke="black" points="52.57,-191.13 42.57,-194.63 52.57,-198.13 52.57,-191.13"/>
</g>
<!-- Node1&#45;&gt;Node9 -->
<g id="edge8" class="edge">
<title>Node1&#45;&gt;Node9</title>
<path fill="none" stroke="black" d="M51.37,-181.83C62.21,-177.21 74.29,-172.06 84.51,-167.7"/>
<polygon fill="black" stroke="black" points="50.28,-178.49 42.45,-185.64 53.02,-184.93 50.28,-178.49"/>
</g>
<!-- Node1&#45;&gt;Node10 -->
<g id="edge9" class="edge">
<title>Node1&#45;&gt;Node10</title>
<path fill="none" stroke="black" d="M37.19,-176.24C47.71,-164.65 62.22,-149.81 76.75,-138.62 80.43,-135.79 84.61,-133.09 88.68,-130.68"/>
<polygon fill="black" stroke="black" points="34.7,-173.77 30.69,-183.58 39.94,-178.41 34.7,-173.77"/>
</g>
<!-- Node1&#45;&gt;Node7 -->
<g id="edge6" class="edge">
<title>Node1&#45;&gt;Node7</title>
<path fill="none" stroke="black" d="M29.78,-174.25C38.96,-153.93 55.26,-122.77 76.75,-101.62 80.87,-97.57 86.08,-94.11 91.06,-91.33"/>
<polygon fill="black" stroke="black" points="26.69,-172.6 25.93,-183.16 33.11,-175.38 26.69,-172.6"/>
</g>
<!-- Node1&#45;&gt;Node12 -->
<g id="edge11" class="edge">
<title>Node1&#45;&gt;Node12</title>
<path fill="none" stroke="black" d="M25.91,-173.54C32.8,-145.78 48.21,-96.75 76.75,-64.62 79.42,-61.62 82.71,-58.99 86.16,-56.74"/>
<polygon fill="black" stroke="black" points="22.53,-172.65 23.68,-183.18 29.35,-174.23 22.53,-172.65"/>
</g>
<!-- Node6 -->
<g id="Node000006" class="node">
<title>Node6</title>
<g id="a_Node000006"><a xlink:href="group__utils.html" target="_top" xlink:title=" ">
<polygon fill="white" stroke="#666666" points="127.25,-19.25 91,-19.25 91,0 127.25,0 127.25,-19.25"/>
<text text-anchor="middle" x="109.12" y="-5.75" font-family="Helvetica,sans-Serif" font-size="10.00">Utils</text>
</a>
</g>
</g>
<!-- Node1&#45;&gt;Node6 -->
<g id="edge5" class="edge">
<title>Node1&#45;&gt;Node6</title>
<path fill="none" stroke="black" d="M23.52,-173.49C27.95,-139.35 40.93,-71.46 76.75,-27.62 80.48,-23.05 85.71,-19.41 90.82,-16.63"/>
<polygon fill="black" stroke="black" points="20.05,-172.96 22.38,-183.3 27.01,-173.77 20.05,-172.96"/>
</g>
</g>
</svg>
