<?xml version="1.0" encoding="UTF-8" standalone="no"?>
<!DOCTYPE svg PUBLIC "-//W3C//DTD SVG 1.1//EN"
 "http://www.w3.org/Graphics/SVG/1.1/DTD/svg11.dtd">
<!-- Generated by graphviz version 2.49.0 (20210828.1703)
 -->
<!-- Title: Arch Pages: 1 -->
<svg width="199pt" height="64pt"
 viewBox="0.00 0.00 199.00 64.00" xmlns="http://www.w3.org/2000/svg" xmlns:xlink="http://www.w3.org/1999/xlink">
<g id="graph0" class="graph" transform="scale(1 1) rotate(0) translate(4 60)">
<title>Arch</title>
<polygon fill="white" stroke="transparent" points="-4,4 -4,-60 195,-60 195,4 -4,4"/>
<!-- Node1 -->
<g id="node1" class="node">
<title>Node1</title>
<g id="a_node1"><a xlink:title=" ">
<polygon fill="#bfbfbf" stroke="black" points="118,-37 80,-37 80,-18 118,-18 118,-37"/>
<text text-anchor="middle" x="99" y="-25" font-family="Helvetica,sans-Serif" font-size="10.00">Arch</text>
</a>
</g>
</g>
<!-- Node4 -->
<g id="node2" class="node">
<title>Node4</title>
<g id="a_node2"><a xlink:href="group__x86.html" target="_top" xlink:title=" ">
<polygon fill="white" stroke="black" points="190,-56 155,-56 155,-37 190,-37 190,-56"/>
<text text-anchor="middle" x="172.5" y="-44" font-family="Helvetica,sans-Serif" font-size="10.00">X86</text>
</a>
</g>
</g>
<!-- Node1&#45;&gt;Node4 -->
<g id="edge3" class="edge">
<title>Node1&#45;&gt;Node4</title>
<path fill="none" stroke="black" d="M127.84,-34.9C136.91,-37.31 146.69,-39.91 154.69,-42.03"/>
<polygon fill="black" stroke="black" points="128.61,-31.48 118.04,-32.29 126.81,-38.25 128.61,-31.48"/>
</g>
<!-- Node3 -->
<g id="node3" class="node">
<title>Node3</title>
<g id="a_node3"><a xlink:href="group__arm.html" target="_top" xlink:title=" ">
<polygon fill="white" stroke="black" points="191,-19 154,-19 154,0 191,0 191,-19"/>
<text text-anchor="middle" x="172.5" y="-7" font-family="Helvetica,sans-Serif" font-size="10.00">Arm</text>
</a>
</g>
</g>
<!-- Node1&#45;&gt;Node3 -->
<g id="edge2" class="edge">
<title>Node1&#45;&gt;Node3</title>
<path fill="none" stroke="black" d="M127.83,-20.5C136.53,-18.3 145.89,-15.95 153.71,-13.98"/>
<polygon fill="black" stroke="black" points="126.89,-17.12 118.04,-22.96 128.59,-23.91 126.89,-17.12"/>
</g>
<!-- Node2 -->
<g id="node4" class="node">
<title>Node2</title>
<g id="a_node4"><a xlink:href="group__triton.html" target="_top" xlink:title=" ">
<polygon fill="white" stroke="black" points="44,-37 0,-37 0,-18 44,-18 44,-37"/>
<text text-anchor="middle" x="22" y="-25" font-family="Helvetica,sans-Serif" font-size="10.00">Triton</text>
</a>
</g>
</g>
<!-- Node2&#45;&gt;Node1 -->
<g id="edge1" class="edge">
<title>Node2&#45;&gt;Node1</title>
<path fill="none" stroke="black" d="M54.53,-27.5C63.21,-27.5 72.33,-27.5 79.96,-27.5"/>
<polygon fill="black" stroke="black" points="54.29,-24 44.29,-27.5 54.29,-31 54.29,-24"/>
</g>
</g>
</svg>
