<?xml version="1.0" encoding="UTF-8" standalone="no"?>
<!DOCTYPE svg PUBLIC "-//W3C//DTD SVG 1.1//EN"
 "http://www.w3.org/Graphics/SVG/1.1/DTD/svg11.dtd">
<!-- Generated by graphviz version 11.0.0 (20240428.1522)
 -->
<!-- Title: Synthesis Pages: 1 -->
<svg width="241pt" height="27pt"
 viewBox="0.00 0.00 240.50 27.25" xmlns="http://www.w3.org/2000/svg" xmlns:xlink="http://www.w3.org/1999/xlink">
<g id="graph0" class="graph" transform="scale(1 1) rotate(0) translate(4 23.25)">
<title>Synthesis</title>
<!-- Node2 -->
<g id="Node000002" class="node">
<title>Node2</title>
<g id="a_Node000002"><a xlink:href="group__engines.html" target="_top" xlink:title=" ">
<polygon fill="white" stroke="#666666" points="51.25,-19.25 0,-19.25 0,0 51.25,0 51.25,-19.25"/>
<text text-anchor="middle" x="25.62" y="-5.75" font-family="Helvetica,sans-Serif" font-size="10.00">Engines</text>
</a>
</g>
</g>
<!-- Node1 -->
<g id="Node000001" class="node">
<title>Node1</title>
<g id="a_Node000001"><a xlink:title=" ">
<polygon fill="#999999" stroke="#666666" points="146.75,-19.25 87.25,-19.25 87.25,0 146.75,0 146.75,-19.25"/>
<text text-anchor="middle" x="117" y="-5.75" font-family="Helvetica,sans-Serif" font-size="10.00">Synthesis</text>
</a>
</g>
</g>
<!-- Node2&#45;&gt;Node1 -->
<g id="edge1" class="edge">
<title>Node2&#45;&gt;Node1</title>
<path fill="none" stroke="black" d="M62.82,-9.62C70.8,-9.62 79.15,-9.62 86.81,-9.62"/>
<polygon fill="black" stroke="black" points="63.03,-6.13 53.03,-9.63 63.03,-13.13 63.03,-6.13"/>
</g>
<!-- Node3 -->
<g id="Node000003" class="node">
<title>Node3</title>
<g id="a_Node000003"><a xlink:href="group__oracles.html" target="_top" xlink:title=" ">
<polygon fill="white" stroke="#666666" points="232.5,-19.25 182.75,-19.25 182.75,0 232.5,0 232.5,-19.25"/>
<text text-anchor="middle" x="207.62" y="-5.75" font-family="Helvetica,sans-Serif" font-size="10.00">Oracles</text>
</a>
</g>
</g>
<!-- Node1&#45;&gt;Node3 -->
<g id="edge2" class="edge">
<title>Node1&#45;&gt;Node3</title>
<path fill="none" stroke="black" d="M158.34,-9.62C166.51,-9.62 174.87,-9.62 182.29,-9.62"/>
<polygon fill="black" stroke="black" points="158.53,-6.13 148.53,-9.63 158.53,-13.13 158.53,-6.13"/>
</g>
</g>
</svg>
