<?xml version="1.0" encoding="UTF-8" standalone="no"?>
<!DOCTYPE svg PUBLIC "-//W3C//DTD SVG 1.1//EN"
 "http://www.w3.org/Graphics/SVG/1.1/DTD/svg11.dtd">
<!-- Generated by graphviz version 9.0.0 (20230911.1827)
 -->
<!-- Title: Arch Pages: 1 -->
<svg width="191pt" height="64pt"
 viewBox="0.00 0.00 191.00 64.25" xmlns="http://www.w3.org/2000/svg" xmlns:xlink="http://www.w3.org/1999/xlink">
<g id="graph0" class="graph" transform="scale(1 1) rotate(0) translate(4 60.25)">
<title>Arch</title>
<!-- Node1 -->
<g id="Node000001" class="node">
<title>Node1</title>
<g id="a_Node000001"><a xlink:title=" ">
<polygon fill="#999999" stroke="#666666" points="113,-37.25 76.75,-37.25 76.75,-18 113,-18 113,-37.25"/>
<text text-anchor="middle" x="94.88" y="-23.75" font-family="Helvetica,sans-Serif" font-size="10.00">Arch</text>
</a>
</g>
</g>
<!-- Node3 -->
<g id="Node000003" class="node">
<title>Node3</title>
<g id="a_Node000003"><a xlink:href="group__arm.html" target="_top" xlink:title=" ">
<polygon fill="white" stroke="#666666" points="183,-56.25 149,-56.25 149,-37 183,-37 183,-56.25"/>
<text text-anchor="middle" x="166" y="-42.75" font-family="Helvetica,sans-Serif" font-size="10.00">Arm</text>
</a>
</g>
</g>
<!-- Node1&#45;&gt;Node3 -->
<g id="edge2" class="edge">
<title>Node1&#45;&gt;Node3</title>
<path fill="none" stroke="black" d="M124.21,-35.41C132.57,-37.71 141.43,-40.15 148.75,-42.16"/>
<polygon fill="black" stroke="black" points="125.35,-32.1 114.78,-32.82 123.49,-38.85 125.35,-32.1"/>
</g>
<!-- Node4 -->
<g id="Node000004" class="node">
<title>Node4</title>
<g id="a_Node000004"><a xlink:href="group__x86.html" target="_top" xlink:title=" ">
<polygon fill="white" stroke="#666666" points="182.62,-19.25 149.38,-19.25 149.38,0 182.62,0 182.62,-19.25"/>
<text text-anchor="middle" x="166" y="-5.75" font-family="Helvetica,sans-Serif" font-size="10.00">X86</text>
</a>
</g>
</g>
<!-- Node1&#45;&gt;Node4 -->
<g id="edge3" class="edge">
<title>Node1&#45;&gt;Node4</title>
<path fill="none" stroke="black" d="M124.38,-20.2C132.87,-17.99 141.86,-15.65 149.22,-13.73"/>
<polygon fill="black" stroke="black" points="123.58,-16.79 114.78,-22.7 125.34,-23.57 123.58,-16.79"/>
</g>
<!-- Node2 -->
<g id="Node000002" class="node">
<title>Node2</title>
<g id="a_Node000002"><a xlink:href="group__triton.html" target="_top" xlink:title=" ">
<polygon fill="white" stroke="#666666" points="40.75,-37.25 0,-37.25 0,-18 40.75,-18 40.75,-37.25"/>
<text text-anchor="middle" x="20.38" y="-23.75" font-family="Helvetica,sans-Serif" font-size="10.00">Triton</text>
</a>
</g>
</g>
<!-- Node2&#45;&gt;Node1 -->
<g id="edge1" class="edge">
<title>Node2&#45;&gt;Node1</title>
<path fill="none" stroke="black" d="M52.44,-27.62C60.7,-27.62 69.32,-27.62 76.56,-27.62"/>
<polygon fill="black" stroke="black" points="52.7,-24.13 42.7,-27.63 52.7,-31.13 52.7,-24.13"/>
</g>
</g>
</svg>
