<?xml version="1.0" encoding="UTF-8" standalone="no"?>
<!DOCTYPE svg PUBLIC "-//W3C//DTD SVG 1.1//EN"
 "http://www.w3.org/Graphics/SVG/1.1/DTD/svg11.dtd">
<!-- Generated by graphviz version 2.50.0 (20211204.2007)
 -->
<!-- Title: Systemv Pages: 1 -->
<svg width="222pt" height="64pt"
 viewBox="0.00 0.00 222.00 64.00" xmlns="http://www.w3.org/2000/svg" xmlns:xlink="http://www.w3.org/1999/xlink">
<g id="graph0" class="graph" transform="scale(1 1) rotate(0) translate(4 60)">
<title>Systemv</title>
<polygon fill="white" stroke="transparent" points="-4,4 -4,-60 218,-60 218,4 -4,4"/>
<!-- Node3 -->
<g id="node1" class="node">
<title>Node3</title>
<g id="a_node1"><a xlink:href="group__i386.html" target="_top" xlink:title=" ">
<polygon fill="white" stroke="black" points="42.5,-56 4.5,-56 4.5,-37 42.5,-37 42.5,-56"/>
<text text-anchor="middle" x="23.5" y="-44" font-family="Helvetica,sans-Serif" font-size="10.00">I386</text>
</a>
</g>
</g>
<!-- Node1 -->
<g id="node3" class="node">
<title>Node1</title>
<g id="a_node3"><a xlink:title=" ">
<polygon fill="#bfbfbf" stroke="black" points="142,-37 83,-37 83,-18 142,-18 142,-37"/>
<text text-anchor="middle" x="112.5" y="-25" font-family="Helvetica,sans-Serif" font-size="10.00">Systemv</text>
</a>
</g>
</g>
<!-- Node3&#45;&gt;Node1 -->
<g id="edge2" class="edge">
<title>Node3&#45;&gt;Node1</title>
<path fill="none" stroke="black" d="M52.49,-40.39C62.21,-38.26 73.11,-35.88 82.88,-33.75"/>
<polygon fill="black" stroke="black" points="51.55,-37.01 42.53,-42.56 53.04,-43.85 51.55,-37.01"/>
</g>
<!-- Node4 -->
<g id="node2" class="node">
<title>Node4</title>
<g id="a_node2"><a xlink:href="group__libc.html" target="_top" xlink:title=" ">
<polygon fill="white" stroke="black" points="214,-37 178,-37 178,-18 214,-18 214,-37"/>
<text text-anchor="middle" x="196" y="-25" font-family="Helvetica,sans-Serif" font-size="10.00">Libc</text>
</a>
</g>
</g>
<!-- Node1&#45;&gt;Node4 -->
<g id="edge3" class="edge">
<title>Node1&#45;&gt;Node4</title>
<path fill="none" stroke="black" d="M152.05,-27.5C161.08,-27.5 170.26,-27.5 177.8,-27.5"/>
<polygon fill="black" stroke="black" points="152,-24 142,-27.5 152,-31 152,-24"/>
</g>
<!-- Node2 -->
<g id="node4" class="node">
<title>Node2</title>
<g id="a_node4"><a xlink:href="group__x8664.html" target="_top" xlink:title=" ">
<polygon fill="white" stroke="black" points="47,-19 0,-19 0,0 47,0 47,-19"/>
<text text-anchor="middle" x="23.5" y="-7" font-family="Helvetica,sans-Serif" font-size="10.00">X8664</text>
</a>
</g>
</g>
<!-- Node2&#45;&gt;Node1 -->
<g id="edge1" class="edge">
<title>Node2&#45;&gt;Node1</title>
<path fill="none" stroke="black" d="M57.26,-16.28C65.68,-18.02 74.68,-19.88 82.88,-21.58"/>
<polygon fill="black" stroke="black" points="57.86,-12.83 47.36,-14.23 56.44,-19.68 57.86,-12.83"/>
</g>
</g>
</svg>
