<?xml version="1.0" encoding="UTF-8" standalone="no"?>
<!DOCTYPE svg PUBLIC "-//W3C//DTD SVG 1.1//EN"
 "http://www.w3.org/Graphics/SVG/1.1/DTD/svg11.dtd">
<!-- Generated by graphviz version 2.49.0 (20210828.1703)
 -->
<!-- Title: Engines Pages: 1 -->
<svg width="243pt" height="175pt"
 viewBox="0.00 0.00 243.00 175.00" xmlns="http://www.w3.org/2000/svg" xmlns:xlink="http://www.w3.org/1999/xlink">
<g id="graph0" class="graph" transform="scale(1 1) rotate(0) translate(4 171)">
<title>Engines</title>
<polygon fill="white" stroke="transparent" points="-4,4 -4,-171 239,-171 239,4 -4,4"/>
<!-- Node1 -->
<g id="node1" class="node">
<title>Node1</title>
<g id="a_node1"><a xlink:title=" ">
<polygon fill="#bfbfbf" stroke="black" points="135,-93 80,-93 80,-74 135,-74 135,-93"/>
<text text-anchor="middle" x="107.5" y="-81" font-family="Helvetica,sans-Serif" font-size="10.00">Engines</text>
</a>
</g>
</g>
<!-- Node3 -->
<g id="node2" class="node">
<title>Node3</title>
<g id="a_node2"><a xlink:href="group__solver.html" target="_top" xlink:title=" ">
<polygon fill="white" stroke="black" points="226.5,-167 179.5,-167 179.5,-148 226.5,-148 226.5,-167"/>
<text text-anchor="middle" x="203" y="-155" font-family="Helvetica,sans-Serif" font-size="10.00">Solver</text>
</a>
</g>
</g>
<!-- Node1&#45;&gt;Node3 -->
<g id="edge2" class="edge">
<title>Node1&#45;&gt;Node3</title>
<path fill="none" stroke="black" d="M125.35,-100.33C137.49,-112.01 154.56,-127.56 171,-139.5 175.03,-142.43 179.57,-145.28 183.9,-147.82"/>
<polygon fill="black" stroke="black" points="127.74,-97.77 118.14,-93.28 122.85,-102.78 127.74,-97.77"/>
</g>
<!-- Node7 -->
<g id="node3" class="node">
<title>Node7</title>
<g id="a_node3"><a xlink:href="group__taint.html" target="_top" xlink:title=" ">
<polygon fill="white" stroke="black" points="223,-130 183,-130 183,-111 223,-111 223,-130"/>
<text text-anchor="middle" x="203" y="-118" font-family="Helvetica,sans-Serif" font-size="10.00">Taint</text>
</a>
</g>
</g>
<!-- Node1&#45;&gt;Node7 -->
<g id="edge6" class="edge">
<title>Node1&#45;&gt;Node7</title>
<path fill="none" stroke="black" d="M142.14,-96.81C155.77,-102.21 171.02,-108.24 182.71,-112.87"/>
<polygon fill="black" stroke="black" points="143.16,-93.45 132.58,-93.03 140.59,-99.96 143.16,-93.45"/>
</g>
<!-- Node4 -->
<g id="node4" class="node">
<title>Node4</title>
<g id="a_node4"><a xlink:href="group__lifters.html" target="_top" xlink:title=" ">
<polygon fill="white" stroke="black" points="226.5,-93 179.5,-93 179.5,-74 226.5,-74 226.5,-93"/>
<text text-anchor="middle" x="203" y="-81" font-family="Helvetica,sans-Serif" font-size="10.00">Lifters</text>
</a>
</g>
</g>
<!-- Node1&#45;&gt;Node4 -->
<g id="edge3" class="edge">
<title>Node1&#45;&gt;Node4</title>
<path fill="none" stroke="black" d="M145.24,-83.5C156.7,-83.5 168.99,-83.5 179.2,-83.5"/>
<polygon fill="black" stroke="black" points="145.04,-80 135.04,-83.5 145.04,-87 145.04,-80"/>
</g>
<!-- Node5 -->
<g id="node5" class="node">
<title>Node5</title>
<g id="a_node5"><a xlink:href="group__synthesis.html" target="_top" xlink:title=" ">
<polygon fill="white" stroke="black" points="235,-56 171,-56 171,-37 235,-37 235,-56"/>
<text text-anchor="middle" x="203" y="-44" font-family="Helvetica,sans-Serif" font-size="10.00">Synthesis</text>
</a>
</g>
</g>
<!-- Node1&#45;&gt;Node5 -->
<g id="edge4" class="edge">
<title>Node1&#45;&gt;Node5</title>
<path fill="none" stroke="black" d="M142.1,-70.2C153.86,-65.55 166.82,-60.42 177.68,-56.12"/>
<polygon fill="black" stroke="black" points="140.59,-67.04 132.58,-73.97 143.16,-73.55 140.59,-67.04"/>
</g>
<!-- Node6 -->
<g id="node7" class="node">
<title>Node6</title>
<g id="a_node7"><a xlink:href="group__symbolic.html" target="_top" xlink:title=" ">
<polygon fill="white" stroke="black" points="234,-19 172,-19 172,0 234,0 234,-19"/>
<text text-anchor="middle" x="203" y="-7" font-family="Helvetica,sans-Serif" font-size="10.00">Symbolic</text>
</a>
</g>
</g>
<!-- Node1&#45;&gt;Node6 -->
<g id="edge5" class="edge">
<title>Node1&#45;&gt;Node6</title>
<path fill="none" stroke="black" d="M125.35,-66.67C137.49,-54.99 154.56,-39.44 171,-27.5 175.03,-24.57 179.57,-21.72 183.9,-19.18"/>
<polygon fill="black" stroke="black" points="122.85,-64.22 118.14,-73.72 127.74,-69.23 122.85,-64.22"/>
</g>
<!-- Node2 -->
<g id="node6" class="node">
<title>Node2</title>
<g id="a_node6"><a xlink:href="group__triton.html" target="_top" xlink:title=" ">
<polygon fill="white" stroke="black" points="44,-93 0,-93 0,-74 44,-74 44,-93"/>
<text text-anchor="middle" x="22" y="-81" font-family="Helvetica,sans-Serif" font-size="10.00">Triton</text>
</a>
</g>
</g>
<!-- Node2&#45;&gt;Node1 -->
<g id="edge1" class="edge">
<title>Node2&#45;&gt;Node1</title>
<path fill="none" stroke="black" d="M54.25,-83.5C62.64,-83.5 71.62,-83.5 79.74,-83.5"/>
<polygon fill="black" stroke="black" points="54.07,-80 44.07,-83.5 54.07,-87 54.07,-80"/>
</g>
</g>
</svg>
