<?xml version="1.0" encoding="UTF-8" standalone="no"?>
<!DOCTYPE svg PUBLIC "-//W3C//DTD SVG 1.1//EN"
 "http://www.w3.org/Graphics/SVG/1.1/DTD/svg11.dtd">
<!-- Generated by graphviz version 11.0.0 (20240428.1522)
 -->
<!-- Title: Arch Pages: 1 -->
<svg width="199pt" height="101pt"
 viewBox="0.00 0.00 198.50 101.25" xmlns="http://www.w3.org/2000/svg" xmlns:xlink="http://www.w3.org/1999/xlink">
<g id="graph0" class="graph" transform="scale(1 1) rotate(0) translate(4 97.25)">
<title>Arch</title>
<!-- Node1 -->
<g id="Node000001" class="node">
<title>Node1</title>
<g id="a_Node000001"><a xlink:title=" ">
<polygon fill="#999999" stroke="#666666" points="113,-56.25 76.75,-56.25 76.75,-37 113,-37 113,-56.25"/>
<text text-anchor="middle" x="94.88" y="-42.75" font-family="Helvetica,sans-Serif" font-size="10.00">Arch</text>
</a>
</g>
</g>
<!-- Node3 -->
<g id="Node000003" class="node">
<title>Node3</title>
<g id="a_Node000003"><a xlink:href="$group__arm.html" xlink:title=" ">
<polygon fill="white" stroke="#666666" points="186.75,-93.25 152.75,-93.25 152.75,-74 186.75,-74 186.75,-93.25"/>
<text text-anchor="middle" x="169.75" y="-79.75" font-family="Helvetica,sans-Serif" font-size="10.00">Arm</text>
</a>
</g>
</g>
<!-- Node1&#45;&gt;Node3 -->
<g id="edge2" class="edge">
<title>Node1&#45;&gt;Node3</title>
<path fill="none" stroke="black" d="M123.34,-60.57C133.2,-65.58 144.01,-71.06 152.6,-75.43"/>
<polygon fill="black" stroke="black" points="125,-57.49 114.49,-56.08 121.83,-63.73 125,-57.49"/>
</g>
<!-- Node5 -->
<g id="Node000005" class="node">
<title>Node5</title>
<g id="a_Node000005"><a xlink:href="$group__riscv.html" xlink:title=" ">
<polygon fill="white" stroke="#666666" points="190.5,-56.25 149,-56.25 149,-37 190.5,-37 190.5,-56.25"/>
<text text-anchor="middle" x="169.75" y="-42.75" font-family="Helvetica,sans-Serif" font-size="10.00">Riscv</text>
</a>
</g>
</g>
<!-- Node1&#45;&gt;Node5 -->
<g id="edge4" class="edge">
<title>Node1&#45;&gt;Node5</title>
<path fill="none" stroke="black" d="M124.65,-46.62C132.63,-46.62 141.12,-46.62 148.5,-46.62"/>
<polygon fill="black" stroke="black" points="124.66,-43.13 114.66,-46.63 124.66,-50.13 124.66,-43.13"/>
</g>
<!-- Node4 -->
<g id="Node000004" class="node">
<title>Node4</title>
<g id="a_Node000004"><a xlink:href="$group__x86.html" xlink:title=" ">
<polygon fill="white" stroke="#666666" points="186.38,-19.25 153.12,-19.25 153.12,0 186.38,0 186.38,-19.25"/>
<text text-anchor="middle" x="169.75" y="-5.75" font-family="Helvetica,sans-Serif" font-size="10.00">X86</text>
</a>
</g>
</g>
<!-- Node1&#45;&gt;Node4 -->
<g id="edge3" class="edge">
<title>Node1&#45;&gt;Node4</title>
<path fill="none" stroke="black" d="M123.17,-32.77C133.27,-27.64 144.37,-22 153.09,-17.57"/>
<polygon fill="black" stroke="black" points="121.83,-29.52 114.49,-37.17 125,-35.76 121.83,-29.52"/>
</g>
<!-- Node2 -->
<g id="Node000002" class="node">
<title>Node2</title>
<g id="a_Node000002"><a xlink:href="$group__triton.html" xlink:title=" ">
<polygon fill="white" stroke="#666666" points="40.75,-56.25 0,-56.25 0,-37 40.75,-37 40.75,-56.25"/>
<text text-anchor="middle" x="20.38" y="-42.75" font-family="Helvetica,sans-Serif" font-size="10.00">Triton</text>
</a>
</g>
</g>
<!-- Node2&#45;&gt;Node1 -->
<g id="edge1" class="edge">
<title>Node2&#45;&gt;Node1</title>
<path fill="none" stroke="black" d="M52.44,-46.62C60.7,-46.62 69.32,-46.62 76.56,-46.62"/>
<polygon fill="black" stroke="black" points="52.7,-43.13 42.7,-46.63 52.7,-50.13 52.7,-43.13"/>
</g>
</g>
</svg>
