<?xml version="1.0" encoding="UTF-8" standalone="no"?>
<!DOCTYPE svg PUBLIC "-//W3C//DTD SVG 1.1//EN"
 "http://www.w3.org/Graphics/SVG/1.1/DTD/svg11.dtd">
<!-- Generated by graphviz version 11.0.0 (20240428.1522)
 -->
<!-- Title: Triton Pages: 1 -->
<svg width="150pt" height="360pt"
 viewBox="0.00 0.00 149.50 360.25" xmlns="http://www.w3.org/2000/svg" xmlns:xlink="http://www.w3.org/1999/xlink">
<g id="graph0" class="graph" transform="scale(1 1) rotate(0) translate(4 356.25)">
<title>Triton</title>
<!-- Node2 -->
<g id="Node000002" class="node">
<title>Node2</title>
<g id="a_Node000002"><a xlink:href="$group__arch.html" xlink:title=" ">
<polygon fill="white" stroke="#666666" points="127.25,-352.25 91,-352.25 91,-333 127.25,-333 127.25,-352.25"/>
<text text-anchor="middle" x="109.12" y="-338.75" font-family="Helvetica,sans-Serif" font-size="10.00">Arch</text>
</a>
</g>
</g>
<!-- Node3 -->
<g id="Node000003" class="node">
<title>Node3</title>
<g id="a_Node000003"><a xlink:href="$group__ast.html" xlink:title=" ">
<polygon fill="white" stroke="#666666" points="124.62,-315.25 93.62,-315.25 93.62,-296 124.62,-296 124.62,-315.25"/>
<text text-anchor="middle" x="109.12" y="-301.75" font-family="Helvetica,sans-Serif" font-size="10.00">Ast</text>
</a>
</g>
</g>
<!-- Node11 -->
<g id="Node000011" class="node">
<title>Node11</title>
<g id="a_Node000011"><a xlink:href="$group__bindings.html" xlink:title=" ">
<polygon fill="white" stroke="#666666" points="135.88,-278.25 82.38,-278.25 82.38,-259 135.88,-259 135.88,-278.25"/>
<text text-anchor="middle" x="109.12" y="-264.75" font-family="Helvetica,sans-Serif" font-size="10.00">Bindings</text>
</a>
</g>
</g>
<!-- Node8 -->
<g id="Node000008" class="node">
<title>Node8</title>
<g id="a_Node000008"><a xlink:href="$group__bitsize.html" xlink:title=" ">
<polygon fill="white" stroke="#666666" points="132.12,-241.25 86.12,-241.25 86.12,-222 132.12,-222 132.12,-241.25"/>
<text text-anchor="middle" x="109.12" y="-227.75" font-family="Helvetica,sans-Serif" font-size="10.00">Bitsize</text>
</a>
</g>
</g>
<!-- Node5 -->
<g id="Node000005" class="node">
<title>Node5</title>
<g id="a_Node000005"><a xlink:href="$group__callbacks.html" xlink:title=" ">
<polygon fill="white" stroke="#666666" points="138.88,-204.25 79.38,-204.25 79.38,-185 138.88,-185 138.88,-204.25"/>
<text text-anchor="middle" x="109.12" y="-190.75" font-family="Helvetica,sans-Serif" font-size="10.00">Callbacks</text>
</a>
</g>
</g>
<!-- Node4 -->
<g id="Node000004" class="node">
<title>Node4</title>
<g id="a_Node000004"><a xlink:href="$group__engines.html" xlink:title=" ">
<polygon fill="white" stroke="#666666" points="134.75,-167.25 83.5,-167.25 83.5,-148 134.75,-148 134.75,-167.25"/>
<text text-anchor="middle" x="109.12" y="-153.75" font-family="Helvetica,sans-Serif" font-size="10.00">Engines</text>
</a>
</g>
</g>
<!-- Node9 -->
<g id="Node000009" class="node">
<title>Node9</title>
<g id="a_Node000009"><a xlink:href="$group__exceptions.html" xlink:title=" ">
<polygon fill="white" stroke="#666666" points="141.5,-130.25 76.75,-130.25 76.75,-111 141.5,-111 141.5,-130.25"/>
<text text-anchor="middle" x="109.12" y="-116.75" font-family="Helvetica,sans-Serif" font-size="10.00">Exceptions</text>
</a>
</g>
</g>
<!-- Node10 -->
<g id="Node000010" class="node">
<title>Node10</title>
<g id="a_Node000010"><a xlink:href="$group__modes.html" xlink:title=" ">
<polygon fill="white" stroke="#666666" points="131.75,-93.25 86.5,-93.25 86.5,-74 131.75,-74 131.75,-93.25"/>
<text text-anchor="middle" x="109.12" y="-79.75" font-family="Helvetica,sans-Serif" font-size="10.00">Modes</text>
</a>
</g>
</g>
<!-- Node7 -->
<g id="Node000007" class="node">
<title>Node7</title>
<g id="a_Node000007"><a xlink:href="$group__size.html" xlink:title=" ">
<polygon fill="white" stroke="#666666" points="126.88,-56.25 91.38,-56.25 91.38,-37 126.88,-37 126.88,-56.25"/>
<text text-anchor="middle" x="109.12" y="-42.75" font-family="Helvetica,sans-Serif" font-size="10.00">Size</text>
</a>
</g>
</g>
<!-- Node1 -->
<g id="Node000001" class="node">
<title>Node1</title>
<g id="a_Node000001"><a xlink:title=" ">
<polygon fill="#999999" stroke="#666666" points="40.75,-185.25 0,-185.25 0,-166 40.75,-166 40.75,-185.25"/>
<text text-anchor="middle" x="20.38" y="-171.75" font-family="Helvetica,sans-Serif" font-size="10.00">Triton</text>
</a>
</g>
</g>
<!-- Node1&#45;&gt;Node2 -->
<g id="edge1" class="edge">
<title>Node1&#45;&gt;Node2</title>
<path fill="none" stroke="black" d="M24.53,-196.66C30.14,-227.77 44.45,-286.5 76.75,-324.62 80.48,-329.03 85.59,-332.6 90.59,-335.36"/>
<polygon fill="black" stroke="black" points="28.01,-196.28 22.93,-186.99 21.11,-197.42 28.01,-196.28"/>
</g>
<!-- Node1&#45;&gt;Node3 -->
<g id="edge2" class="edge">
<title>Node1&#45;&gt;Node3</title>
<path fill="none" stroke="black" d="M27.46,-196.22C35.48,-220.48 51.58,-260.86 76.75,-287.62 81.31,-292.47 87.47,-296.39 93.13,-299.32"/>
<polygon fill="black" stroke="black" points="30.87,-195.39 24.54,-186.89 24.19,-197.48 30.87,-195.39"/>
</g>
<!-- Node1&#45;&gt;Node11 -->
<g id="edge10" class="edge">
<title>Node1&#45;&gt;Node11</title>
<path fill="none" stroke="black" d="M32.65,-195.21C42.7,-211.46 58.61,-234.46 76.75,-250.62 80.03,-253.55 83.87,-256.22 87.7,-258.56"/>
<polygon fill="black" stroke="black" points="35.84,-193.72 27.7,-186.93 29.83,-197.31 35.84,-193.72"/>
</g>
<!-- Node1&#45;&gt;Node8 -->
<g id="edge7" class="edge">
<title>Node1&#45;&gt;Node8</title>
<path fill="none" stroke="black" d="M44.4,-192.04C54.25,-198.9 65.94,-206.83 76.75,-213.62 81,-216.3 85.66,-219.06 90.06,-221.59"/>
<polygon fill="black" stroke="black" points="46.71,-189.38 36.52,-186.5 42.68,-195.11 46.71,-189.38"/>
</g>
<!-- Node1&#45;&gt;Node5 -->
<g id="edge4" class="edge">
<title>Node1&#45;&gt;Node5</title>
<path fill="none" stroke="black" d="M52.3,-182.4C60.98,-184.3 70.39,-186.36 78.97,-188.24"/>
<polygon fill="black" stroke="black" points="53.06,-178.98 42.54,-180.26 51.56,-185.82 53.06,-178.98"/>
</g>
<!-- Node1&#45;&gt;Node4 -->
<g id="edge3" class="edge">
<title>Node1&#45;&gt;Node4</title>
<path fill="none" stroke="black" d="M52.02,-169.27C62.25,-167.14 73.5,-164.81 83.23,-162.79"/>
<polygon fill="black" stroke="black" points="51.62,-165.77 42.54,-171.23 53.04,-172.63 51.62,-165.77"/>
</g>
<!-- Node1&#45;&gt;Node9 -->
<g id="edge8" class="edge">
<title>Node1&#45;&gt;Node9</title>
<path fill="none" stroke="black" d="M45.16,-159.21C54.86,-152.66 66.25,-145.14 76.75,-138.62 81.02,-135.98 85.69,-133.23 90.08,-130.7"/>
<polygon fill="black" stroke="black" points="43.32,-156.24 37.02,-164.76 47.26,-162.02 43.32,-156.24"/>
</g>
<!-- Node1&#45;&gt;Node10 -->
<g id="edge9" class="edge">
<title>Node1&#45;&gt;Node10</title>
<path fill="none" stroke="black" d="M32.87,-156.05C42.96,-140.03 58.81,-117.5 76.75,-101.62 80.04,-98.71 83.88,-96.05 87.72,-93.71"/>
<polygon fill="black" stroke="black" points="30.11,-153.85 27.89,-164.21 36.08,-157.5 30.11,-153.85"/>
</g>
<!-- Node1&#45;&gt;Node7 -->
<g id="edge6" class="edge">
<title>Node1&#45;&gt;Node7</title>
<path fill="none" stroke="black" d="M27.63,-154.85C35.73,-130.77 51.84,-91.02 76.75,-64.62 80.71,-60.42 85.88,-56.92 90.88,-54.15"/>
<polygon fill="black" stroke="black" points="24.37,-153.54 24.66,-164.13 31.04,-155.67 24.37,-153.54"/>
</g>
<!-- Node6 -->
<g id="Node000006" class="node">
<title>Node6</title>
<g id="a_Node000006"><a xlink:href="$group__utils.html" xlink:title=" ">
<polygon fill="white" stroke="#666666" points="127.25,-19.25 91,-19.25 91,0 127.25,0 127.25,-19.25"/>
<text text-anchor="middle" x="109.12" y="-5.75" font-family="Helvetica,sans-Serif" font-size="10.00">Utils</text>
</a>
</g>
</g>
<!-- Node1&#45;&gt;Node6 -->
<g id="edge5" class="edge">
<title>Node1&#45;&gt;Node6</title>
<path fill="none" stroke="black" d="M24.57,-154.73C30.23,-123.82 44.6,-65.49 76.75,-27.62 80.49,-23.22 85.59,-19.66 90.6,-16.9"/>
<polygon fill="black" stroke="black" points="21.16,-153.89 22.95,-164.33 28.06,-155.05 21.16,-153.89"/>
</g>
</g>
</svg>
