<?xml version="1.0" encoding="UTF-8" standalone="no"?>
<!DOCTYPE svg PUBLIC "-//W3C//DTD SVG 1.1//EN"
 "http://www.w3.org/Graphics/SVG/1.1/DTD/svg11.dtd">
<!-- Generated by graphviz version 2.50.0 (20211204.2007)
 -->
<!-- Title: Triton Pages: 1 -->
<svg width="158pt" height="397pt"
 viewBox="0.00 0.00 158.00 397.00" xmlns="http://www.w3.org/2000/svg" xmlns:xlink="http://www.w3.org/1999/xlink">
<g id="graph0" class="graph" transform="scale(1 1) rotate(0) translate(4 393)">
<title>Triton</title>
<polygon fill="white" stroke="transparent" points="-4,4 -4,-393 154,-393 154,4 -4,4"/>
<!-- Node2 -->
<g id="node1" class="node">
<title>Node2</title>
<g id="a_node1"><a xlink:href="group__arch.html" target="_top" xlink:title=" ">
<polygon fill="white" stroke="black" points="134,-389 96,-389 96,-370 134,-370 134,-389"/>
<text text-anchor="middle" x="115" y="-377" font-family="Helvetica,sans-Serif" font-size="10.00">Arch</text>
</a>
</g>
</g>
<!-- Node3 -->
<g id="node2" class="node">
<title>Node3</title>
<g id="a_node2"><a xlink:href="group__ast.html" target="_top" xlink:title=" ">
<polygon fill="white" stroke="black" points="131,-352 99,-352 99,-333 131,-333 131,-352"/>
<text text-anchor="middle" x="115" y="-340" font-family="Helvetica,sans-Serif" font-size="10.00">Ast</text>
</a>
</g>
</g>
<!-- Node11 -->
<g id="node3" class="node">
<title>Node11</title>
<g id="a_node3"><a xlink:href="group__bindings.html" target="_top" xlink:title=" ">
<polygon fill="white" stroke="black" points="144.5,-315 85.5,-315 85.5,-296 144.5,-296 144.5,-315"/>
<text text-anchor="middle" x="115" y="-303" font-family="Helvetica,sans-Serif" font-size="10.00">Bindings</text>
</a>
</g>
</g>
<!-- Node8 -->
<g id="node4" class="node">
<title>Node8</title>
<g id="a_node4"><a xlink:href="group__bitsize.html" target="_top" xlink:title=" ">
<polygon fill="white" stroke="black" points="140,-278 90,-278 90,-259 140,-259 140,-278"/>
<text text-anchor="middle" x="115" y="-266" font-family="Helvetica,sans-Serif" font-size="10.00">Bitsize</text>
</a>
</g>
</g>
<!-- Node5 -->
<g id="node5" class="node">
<title>Node5</title>
<g id="a_node5"><a xlink:href="group__callbacks.html" target="_top" xlink:title=" ">
<polygon fill="white" stroke="black" points="147,-241 83,-241 83,-222 147,-222 147,-241"/>
<text text-anchor="middle" x="115" y="-229" font-family="Helvetica,sans-Serif" font-size="10.00">Callbacks</text>
</a>
</g>
</g>
<!-- Node4 -->
<g id="node6" class="node">
<title>Node4</title>
<g id="a_node6"><a xlink:href="group__engines.html" target="_top" xlink:title=" ">
<polygon fill="white" stroke="black" points="142.5,-204 87.5,-204 87.5,-185 142.5,-185 142.5,-204"/>
<text text-anchor="middle" x="115" y="-192" font-family="Helvetica,sans-Serif" font-size="10.00">Engines</text>
</a>
</g>
</g>
<!-- Node9 -->
<g id="node7" class="node">
<title>Node9</title>
<g id="a_node7"><a xlink:href="group__exceptions.html" target="_top" xlink:title=" ">
<polygon fill="white" stroke="black" points="150,-167 80,-167 80,-148 150,-148 150,-167"/>
<text text-anchor="middle" x="115" y="-155" font-family="Helvetica,sans-Serif" font-size="10.00">Exceptions</text>
</a>
</g>
</g>
<!-- Node10 -->
<g id="node8" class="node">
<title>Node10</title>
<g id="a_node8"><a xlink:href="group__modes.html" target="_top" xlink:title=" ">
<polygon fill="white" stroke="black" points="139.5,-130 90.5,-130 90.5,-111 139.5,-111 139.5,-130"/>
<text text-anchor="middle" x="115" y="-118" font-family="Helvetica,sans-Serif" font-size="10.00">Modes</text>
</a>
</g>
</g>
<!-- Node7 -->
<g id="node9" class="node">
<title>Node7</title>
<g id="a_node9"><a xlink:href="group__size.html" target="_top" xlink:title=" ">
<polygon fill="white" stroke="black" points="133.5,-93 96.5,-93 96.5,-74 133.5,-74 133.5,-93"/>
<text text-anchor="middle" x="115" y="-81" font-family="Helvetica,sans-Serif" font-size="10.00">Size</text>
</a>
</g>
</g>
<!-- Node12 -->
<g id="node10" class="node">
<title>Node12</title>
<g id="a_node10"><a xlink:href="group__stubs.html" target="_top" xlink:title=" ">
<polygon fill="white" stroke="black" points="137,-56 93,-56 93,-37 137,-37 137,-56"/>
<text text-anchor="middle" x="115" y="-44" font-family="Helvetica,sans-Serif" font-size="10.00">Stubs</text>
</a>
</g>
</g>
<!-- Node1 -->
<g id="node11" class="node">
<title>Node1</title>
<g id="a_node11"><a xlink:title=" ">
<polygon fill="#bfbfbf" stroke="black" points="44,-204 0,-204 0,-185 44,-185 44,-204"/>
<text text-anchor="middle" x="22" y="-192" font-family="Helvetica,sans-Serif" font-size="10.00">Triton</text>
</a>
</g>
</g>
<!-- Node1&#45;&gt;Node2 -->
<g id="edge1" class="edge">
<title>Node1&#45;&gt;Node2</title>
<path fill="none" stroke="black" d="M25.03,-214.44C29.43,-248.33 42.66,-317.74 80,-361.5 84.25,-366.48 90.23,-370.28 95.99,-373.08"/>
<polygon fill="black" stroke="black" points="28.49,-213.92 23.86,-204.39 21.54,-214.73 28.49,-213.92"/>
</g>
<!-- Node1&#45;&gt;Node3 -->
<g id="edge2" class="edge">
<title>Node1&#45;&gt;Node3</title>
<path fill="none" stroke="black" d="M27.29,-214.21C34.18,-241.83 50.08,-292.29 80,-324.5 85.09,-329.98 92.24,-334.11 98.66,-337.02"/>
<polygon fill="black" stroke="black" points="30.63,-213.13 24.94,-204.2 23.82,-214.73 30.63,-213.13"/>
</g>
<!-- Node1&#45;&gt;Node11 -->
<g id="edge10" class="edge">
<title>Node1&#45;&gt;Node11</title>
<path fill="none" stroke="black" d="M30.83,-213.25C40.1,-233.62 57.21,-266.1 80,-287.5 83.41,-290.7 87.49,-293.5 91.63,-295.87"/>
<polygon fill="black" stroke="black" points="34.03,-211.83 26.82,-204.08 27.62,-214.64 34.03,-211.83"/>
</g>
<!-- Node1&#45;&gt;Node8 -->
<g id="edge7" class="edge">
<title>Node1&#45;&gt;Node8</title>
<path fill="none" stroke="black" d="M37.91,-211.57C48.8,-223.41 64.35,-239.05 80,-250.5 84.2,-253.58 89,-256.45 93.64,-258.96"/>
<polygon fill="black" stroke="black" points="40.46,-209.17 31.16,-204.08 35.25,-213.85 40.46,-209.17"/>
</g>
<!-- Node1&#45;&gt;Node5 -->
<g id="edge4" class="edge">
<title>Node1&#45;&gt;Node5</title>
<path fill="none" stroke="black" d="M53.37,-206.85C65.45,-211.76 79.14,-217.33 90.45,-221.92"/>
<polygon fill="black" stroke="black" points="54.69,-203.61 44.11,-203.08 52.05,-210.09 54.69,-203.61"/>
</g>
<!-- Node1&#45;&gt;Node4 -->
<g id="edge3" class="edge">
<title>Node1&#45;&gt;Node4</title>
<path fill="none" stroke="black" d="M54.39,-194.5C65.16,-194.5 77.11,-194.5 87.47,-194.5"/>
<polygon fill="black" stroke="black" points="54.11,-191 44.11,-194.5 54.11,-198 54.11,-191"/>
</g>
<!-- Node1&#45;&gt;Node9 -->
<g id="edge8" class="edge">
<title>Node1&#45;&gt;Node9</title>
<path fill="none" stroke="black" d="M53.37,-182.15C65.45,-177.24 79.14,-171.67 90.45,-167.08"/>
<polygon fill="black" stroke="black" points="52.05,-178.91 44.11,-185.92 54.69,-185.39 52.05,-178.91"/>
</g>
<!-- Node1&#45;&gt;Node10 -->
<g id="edge9" class="edge">
<title>Node1&#45;&gt;Node10</title>
<path fill="none" stroke="black" d="M38.74,-177.12C49.66,-165.65 64.9,-150.71 80,-139.5 84.56,-136.11 89.79,-132.91 94.76,-130.12"/>
<polygon fill="black" stroke="black" points="35.88,-175.06 31.62,-184.77 41,-179.84 35.88,-175.06"/>
</g>
<!-- Node1&#45;&gt;Node7 -->
<g id="edge6" class="edge">
<title>Node1&#45;&gt;Node7</title>
<path fill="none" stroke="black" d="M31.25,-175.46C40.7,-155.37 57.79,-123.73 80,-102.5 84.69,-98.01 90.65,-94.22 96.26,-91.23"/>
<polygon fill="black" stroke="black" points="27.96,-174.25 27.02,-184.8 34.33,-177.14 27.96,-174.25"/>
</g>
<!-- Node1&#45;&gt;Node12 -->
<g id="edge11" class="edge">
<title>Node1&#45;&gt;Node12</title>
<path fill="none" stroke="black" d="M27.43,-175.04C34.49,-147.74 50.59,-97.8 80,-65.5 83.55,-61.6 88.09,-58.31 92.7,-55.63"/>
<polygon fill="black" stroke="black" points="23.99,-174.38 25.01,-184.93 30.79,-176.04 23.99,-174.38"/>
</g>
<!-- Node6 -->
<g id="node12" class="node">
<title>Node6</title>
<g id="a_node12"><a xlink:href="group__utils.html" target="_top" xlink:title=" ">
<polygon fill="white" stroke="black" points="134.5,-19 95.5,-19 95.5,0 134.5,0 134.5,-19"/>
<text text-anchor="middle" x="115" y="-7" font-family="Helvetica,sans-Serif" font-size="10.00">Utils</text>
</a>
</g>
</g>
<!-- Node1&#45;&gt;Node6 -->
<g id="edge5" class="edge">
<title>Node1&#45;&gt;Node6</title>
<path fill="none" stroke="black" d="M25.17,-174.77C29.78,-141.21 43.32,-72.41 80,-28.5 84.08,-23.62 89.74,-19.76 95.28,-16.84"/>
<polygon fill="black" stroke="black" points="21.7,-174.35 23.93,-184.71 28.64,-175.22 21.7,-174.35"/>
</g>
</g>
</svg>
