<?xml version="1.0" encoding="UTF-8" standalone="no"?>
<!DOCTYPE svg PUBLIC "-//W3C//DTD SVG 1.1//EN"
 "http://www.w3.org/Graphics/SVG/1.1/DTD/svg11.dtd">
<!-- Generated by graphviz version 2.49.0 (20210828.1703)
 -->
<!-- Title: Arm Pages: 1 -->
<svg width="211pt" height="64pt"
 viewBox="0.00 0.00 211.00 64.00" xmlns="http://www.w3.org/2000/svg" xmlns:xlink="http://www.w3.org/1999/xlink">
<g id="graph0" class="graph" transform="scale(1 1) rotate(0) translate(4 60)">
<title>Arm</title>
<polygon fill="white" stroke="transparent" points="-4,4 -4,-60 207,-60 207,4 -4,4"/>
<!-- Node2 -->
<g id="node1" class="node">
<title>Node2</title>
<g id="a_node1"><a xlink:href="group__arch.html" target="_top" xlink:title=" ">
<polygon fill="white" stroke="black" points="38,-37 0,-37 0,-18 38,-18 38,-37"/>
<text text-anchor="middle" x="19" y="-25" font-family="Helvetica,sans-Serif" font-size="10.00">Arch</text>
</a>
</g>
</g>
<!-- Node1 -->
<g id="node2" class="node">
<title>Node1</title>
<g id="a_node2"><a xlink:title=" ">
<polygon fill="#bfbfbf" stroke="black" points="111,-37 74,-37 74,-18 111,-18 111,-37"/>
<text text-anchor="middle" x="92.5" y="-25" font-family="Helvetica,sans-Serif" font-size="10.00">Arm</text>
</a>
</g>
</g>
<!-- Node2&#45;&gt;Node1 -->
<g id="edge1" class="edge">
<title>Node2&#45;&gt;Node1</title>
<path fill="none" stroke="black" d="M48.11,-27.5C56.73,-27.5 65.98,-27.5 73.71,-27.5"/>
<polygon fill="black" stroke="black" points="48.04,-24 38.04,-27.5 48.04,-31 48.04,-24"/>
</g>
<!-- Node4 -->
<g id="node3" class="node">
<title>Node4</title>
<g id="a_node3"><a xlink:href="group__arm32.html" target="_top" xlink:title=" ">
<polygon fill="white" stroke="black" points="199.5,-56 150.5,-56 150.5,-37 199.5,-37 199.5,-56"/>
<text text-anchor="middle" x="175" y="-44" font-family="Helvetica,sans-Serif" font-size="10.00">Arm32</text>
</a>
</g>
</g>
<!-- Node1&#45;&gt;Node4 -->
<g id="edge3" class="edge">
<title>Node1&#45;&gt;Node4</title>
<path fill="none" stroke="black" d="M121.16,-34.03C130.67,-36.27 141.22,-38.76 150.38,-40.92"/>
<polygon fill="black" stroke="black" points="121.9,-30.61 111.37,-31.72 120.29,-37.42 121.9,-30.61"/>
</g>
<!-- Node3 -->
<g id="node4" class="node">
<title>Node3</title>
<g id="a_node4"><a xlink:href="group__aarch64.html" target="_top" xlink:title=" ">
<polygon fill="white" stroke="black" points="203,-19 147,-19 147,0 203,0 203,-19"/>
<text text-anchor="middle" x="175" y="-7" font-family="Helvetica,sans-Serif" font-size="10.00">Aarch64</text>
</a>
</g>
</g>
<!-- Node1&#45;&gt;Node3 -->
<g id="edge2" class="edge">
<title>Node1&#45;&gt;Node3</title>
<path fill="none" stroke="black" d="M121.26,-21.29C129.49,-19.45 138.49,-17.44 146.69,-15.61"/>
<polygon fill="black" stroke="black" points="120.36,-17.91 111.37,-23.51 121.89,-24.74 120.36,-17.91"/>
</g>
</g>
</svg>
