<?xml version="1.0" encoding="UTF-8" standalone="no"?>
<!DOCTYPE svg PUBLIC "-//W3C//DTD SVG 1.1//EN"
 "http://www.w3.org/Graphics/SVG/1.1/DTD/svg11.dtd">
<!-- Generated by graphviz version 2.50.0 (20211204.2007)
 -->
<!-- Title: Stubs Pages: 1 -->
<svg width="215pt" height="64pt"
 viewBox="0.00 0.00 215.00 64.00" xmlns="http://www.w3.org/2000/svg" xmlns:xlink="http://www.w3.org/1999/xlink">
<g id="graph0" class="graph" transform="scale(1 1) rotate(0) translate(4 60)">
<title>Stubs</title>
<polygon fill="white" stroke="transparent" points="-4,4 -4,-60 211,-60 211,4 -4,4"/>
<!-- Node4 -->
<g id="node1" class="node">
<title>Node4</title>
<g id="a_node1"><a xlink:href="group__i386.html" target="_top" xlink:title=" ">
<polygon fill="white" stroke="black" points="202.5,-56 164.5,-56 164.5,-37 202.5,-37 202.5,-56"/>
<text text-anchor="middle" x="183.5" y="-44" font-family="Helvetica,sans-Serif" font-size="10.00">I386</text>
</a>
</g>
</g>
<!-- Node1 -->
<g id="node2" class="node">
<title>Node1</title>
<g id="a_node2"><a xlink:title=" ">
<polygon fill="#bfbfbf" stroke="black" points="124,-37 80,-37 80,-18 124,-18 124,-37"/>
<text text-anchor="middle" x="102" y="-25" font-family="Helvetica,sans-Serif" font-size="10.00">Stubs</text>
</a>
</g>
</g>
<!-- Node1&#45;&gt;Node4 -->
<g id="edge3" class="edge">
<title>Node1&#45;&gt;Node4</title>
<path fill="none" stroke="black" d="M134.17,-34.95C144.4,-37.4 155.44,-40.03 164.37,-42.17"/>
<polygon fill="black" stroke="black" points="134.84,-31.51 124.3,-32.59 133.22,-38.32 134.84,-31.51"/>
</g>
<!-- Node3 -->
<g id="node4" class="node">
<title>Node3</title>
<g id="a_node4"><a xlink:href="group__x8664.html" target="_top" xlink:title=" ">
<polygon fill="white" stroke="black" points="207,-19 160,-19 160,0 207,0 207,-19"/>
<text text-anchor="middle" x="183.5" y="-7" font-family="Helvetica,sans-Serif" font-size="10.00">X8664</text>
</a>
</g>
</g>
<!-- Node1&#45;&gt;Node3 -->
<g id="edge2" class="edge">
<title>Node1&#45;&gt;Node3</title>
<path fill="none" stroke="black" d="M134.29,-20.42C142.78,-18.49 151.82,-16.45 159.74,-14.65"/>
<polygon fill="black" stroke="black" points="133.28,-17.05 124.3,-22.68 134.83,-23.88 133.28,-17.05"/>
</g>
<!-- Node2 -->
<g id="node3" class="node">
<title>Node2</title>
<g id="a_node3"><a xlink:href="group__triton.html" target="_top" xlink:title=" ">
<polygon fill="white" stroke="black" points="44,-37 0,-37 0,-18 44,-18 44,-37"/>
<text text-anchor="middle" x="22" y="-25" font-family="Helvetica,sans-Serif" font-size="10.00">Triton</text>
</a>
</g>
</g>
<!-- Node2&#45;&gt;Node1 -->
<g id="edge1" class="edge">
<title>Node2&#45;&gt;Node1</title>
<path fill="none" stroke="black" d="M54.43,-27.5C63.02,-27.5 72.12,-27.5 79.98,-27.5"/>
<polygon fill="black" stroke="black" points="54.31,-24 44.31,-27.5 54.31,-31 54.31,-24"/>
</g>
</g>
</svg>
