<?xml version="1.0" encoding="UTF-8" standalone="no"?>
<!DOCTYPE svg PUBLIC "-//W3C//DTD SVG 1.1//EN"
 "http://www.w3.org/Graphics/SVG/1.1/DTD/svg11.dtd">
<!-- Generated by graphviz version 2.49.0 (20210828.1703)
 -->
<!-- Title: Triton Pages: 1 -->
<svg width="158pt" height="360pt"
 viewBox="0.00 0.00 158.00 360.00" xmlns="http://www.w3.org/2000/svg" xmlns:xlink="http://www.w3.org/1999/xlink">
<g id="graph0" class="graph" transform="scale(1 1) rotate(0) translate(4 356)">
<title>Triton</title>
<polygon fill="white" stroke="transparent" points="-4,4 -4,-356 154,-356 154,4 -4,4"/>
<!-- Node4 -->
<g id="node1" class="node">
<title>Node4</title>
<g id="a_node1"><a xlink:href="group__engines.html" target="_top" xlink:title=" ">
<polygon fill="white" stroke="black" points="142.5,-352 87.5,-352 87.5,-333 142.5,-333 142.5,-352"/>
<text text-anchor="middle" x="115" y="-340" font-family="Helvetica,sans-Serif" font-size="10.00">Engines</text>
</a>
</g>
</g>
<!-- Node5 -->
<g id="node2" class="node">
<title>Node5</title>
<g id="a_node2"><a xlink:href="group__callbacks.html" target="_top" xlink:title=" ">
<polygon fill="white" stroke="black" points="147,-315 83,-315 83,-296 147,-296 147,-315"/>
<text text-anchor="middle" x="115" y="-303" font-family="Helvetica,sans-Serif" font-size="10.00">Callbacks</text>
</a>
</g>
</g>
<!-- Node9 -->
<g id="node3" class="node">
<title>Node9</title>
<g id="a_node3"><a xlink:href="group__exceptions.html" target="_top" xlink:title=" ">
<polygon fill="white" stroke="black" points="150,-278 80,-278 80,-259 150,-259 150,-278"/>
<text text-anchor="middle" x="115" y="-266" font-family="Helvetica,sans-Serif" font-size="10.00">Exceptions</text>
</a>
</g>
</g>
<!-- Node2 -->
<g id="node4" class="node">
<title>Node2</title>
<g id="a_node4"><a xlink:href="group__arch.html" target="_top" xlink:title=" ">
<polygon fill="white" stroke="black" points="134,-241 96,-241 96,-222 134,-222 134,-241"/>
<text text-anchor="middle" x="115" y="-229" font-family="Helvetica,sans-Serif" font-size="10.00">Arch</text>
</a>
</g>
</g>
<!-- Node10 -->
<g id="node5" class="node">
<title>Node10</title>
<g id="a_node5"><a xlink:href="group__modes.html" target="_top" xlink:title=" ">
<polygon fill="white" stroke="black" points="139.5,-204 90.5,-204 90.5,-185 139.5,-185 139.5,-204"/>
<text text-anchor="middle" x="115" y="-192" font-family="Helvetica,sans-Serif" font-size="10.00">Modes</text>
</a>
</g>
</g>
<!-- Node7 -->
<g id="node6" class="node">
<title>Node7</title>
<g id="a_node6"><a xlink:href="group__size.html" target="_top" xlink:title=" ">
<polygon fill="white" stroke="black" points="133.5,-167 96.5,-167 96.5,-148 133.5,-148 133.5,-167"/>
<text text-anchor="middle" x="115" y="-155" font-family="Helvetica,sans-Serif" font-size="10.00">Size</text>
</a>
</g>
</g>
<!-- Node8 -->
<g id="node7" class="node">
<title>Node8</title>
<g id="a_node7"><a xlink:href="group__bitsize.html" target="_top" xlink:title=" ">
<polygon fill="white" stroke="black" points="140,-130 90,-130 90,-111 140,-111 140,-130"/>
<text text-anchor="middle" x="115" y="-118" font-family="Helvetica,sans-Serif" font-size="10.00">Bitsize</text>
</a>
</g>
</g>
<!-- Node3 -->
<g id="node8" class="node">
<title>Node3</title>
<g id="a_node8"><a xlink:href="group__ast.html" target="_top" xlink:title=" ">
<polygon fill="white" stroke="black" points="131,-93 99,-93 99,-74 131,-74 131,-93"/>
<text text-anchor="middle" x="115" y="-81" font-family="Helvetica,sans-Serif" font-size="10.00">Ast</text>
</a>
</g>
</g>
<!-- Node6 -->
<g id="node9" class="node">
<title>Node6</title>
<g id="a_node9"><a xlink:href="group__utils.html" target="_top" xlink:title=" ">
<polygon fill="white" stroke="black" points="134.5,-56 95.5,-56 95.5,-37 134.5,-37 134.5,-56"/>
<text text-anchor="middle" x="115" y="-44" font-family="Helvetica,sans-Serif" font-size="10.00">Utils</text>
</a>
</g>
</g>
<!-- Node1 -->
<g id="node10" class="node">
<title>Node1</title>
<g id="a_node10"><a xlink:title=" ">
<polygon fill="#bfbfbf" stroke="black" points="44,-185 0,-185 0,-166 44,-166 44,-185"/>
<text text-anchor="middle" x="22" y="-173" font-family="Helvetica,sans-Serif" font-size="10.00">Triton</text>
</a>
</g>
</g>
<!-- Node1&#45;&gt;Node4 -->
<g id="edge3" class="edge">
<title>Node1&#45;&gt;Node4</title>
<path fill="none" stroke="black" d="M25.94,-194.99C31.5,-225.83 46.15,-286.27 80,-324.5 82.92,-327.8 86.6,-330.6 90.44,-332.93"/>
<polygon fill="black" stroke="black" points="29.38,-194.36 24.29,-185.07 22.48,-195.51 29.38,-194.36"/>
</g>
<!-- Node1&#45;&gt;Node5 -->
<g id="edge4" class="edge">
<title>Node1&#45;&gt;Node5</title>
<path fill="none" stroke="black" d="M28.8,-194.88C36.89,-219.11 53.59,-260.66 80,-287.5 83.19,-290.74 87.08,-293.52 91.08,-295.87"/>
<polygon fill="black" stroke="black" points="32.05,-193.55 25.69,-185.08 25.38,-195.67 32.05,-193.55"/>
</g>
<!-- Node1&#45;&gt;Node9 -->
<g id="edge8" class="edge">
<title>Node1&#45;&gt;Node9</title>
<path fill="none" stroke="black" d="M33.83,-194.03C44.11,-210.43 60.82,-234.22 80,-250.5 83.77,-253.7 88.2,-256.55 92.59,-258.99"/>
<polygon fill="black" stroke="black" points="36.73,-192.07 28.55,-185.34 30.75,-195.7 36.73,-192.07"/>
</g>
<!-- Node1&#45;&gt;Node2 -->
<g id="edge1" class="edge">
<title>Node1&#45;&gt;Node2</title>
<path fill="none" stroke="black" d="M45.28,-191.11C55.67,-198.2 68.31,-206.53 80,-213.5 85.05,-216.51 90.64,-219.58 95.81,-222.31"/>
<polygon fill="black" stroke="black" points="47.02,-188.06 36.8,-185.27 43.05,-193.83 47.02,-188.06"/>
</g>
<!-- Node1&#45;&gt;Node10 -->
<g id="edge9" class="edge">
<title>Node1&#45;&gt;Node10</title>
<path fill="none" stroke="black" d="M54.09,-181.99C66,-184.48 79.36,-187.27 90.45,-189.58"/>
<polygon fill="black" stroke="black" points="54.61,-178.52 44.11,-179.91 53.18,-185.38 54.61,-178.52"/>
</g>
<!-- Node1&#45;&gt;Node7 -->
<g id="edge6" class="edge">
<title>Node1&#45;&gt;Node7</title>
<path fill="none" stroke="black" d="M53.95,-169.38C68.1,-166.58 84.35,-163.37 96.37,-160.99"/>
<polygon fill="black" stroke="black" points="53.24,-165.95 44.11,-171.33 54.6,-172.82 53.24,-165.95"/>
</g>
<!-- Node1&#45;&gt;Node8 -->
<g id="edge7" class="edge">
<title>Node1&#45;&gt;Node8</title>
<path fill="none" stroke="black" d="M46.29,-160.39C56.55,-153.84 68.8,-146.16 80,-139.5 85.23,-136.39 90.99,-133.12 96.25,-130.18"/>
<polygon fill="black" stroke="black" points="44.39,-157.46 37.87,-165.8 48.17,-163.35 44.39,-157.46"/>
</g>
<!-- Node1&#45;&gt;Node3 -->
<g id="edge2" class="edge">
<title>Node1&#45;&gt;Node3</title>
<path fill="none" stroke="black" d="M34.31,-157.14C44.75,-141.27 61.4,-118.45 80,-102.5 85.65,-97.66 92.72,-93.47 98.95,-90.27"/>
<polygon fill="black" stroke="black" points="31.09,-155.68 28.66,-165.99 36.99,-159.45 31.09,-155.68"/>
</g>
<!-- Node1&#45;&gt;Node6 -->
<g id="edge5" class="edge">
<title>Node1&#45;&gt;Node6</title>
<path fill="none" stroke="black" d="M29.11,-156.2C37.43,-132.45 54.3,-92.02 80,-65.5 84.33,-61.03 89.94,-57.32 95.35,-54.4"/>
<polygon fill="black" stroke="black" points="25.74,-155.24 25.89,-165.83 32.38,-157.46 25.74,-155.24"/>
</g>
<!-- Node11 -->
<g id="node11" class="node">
<title>Node11</title>
<g id="a_node11"><a xlink:href="group__bindings.html" target="_top" xlink:title=" ">
<polygon fill="white" stroke="black" points="144.5,-19 85.5,-19 85.5,0 144.5,0 144.5,-19"/>
<text text-anchor="middle" x="115" y="-7" font-family="Helvetica,sans-Serif" font-size="10.00">Bindings</text>
</a>
</g>
</g>
<!-- Node1&#45;&gt;Node11 -->
<g id="edge10" class="edge">
<title>Node1&#45;&gt;Node11</title>
<path fill="none" stroke="black" d="M26.28,-155.51C32.19,-124.96 47.2,-66.24 80,-28.5 83.19,-24.83 87.28,-21.72 91.51,-19.14"/>
<polygon fill="black" stroke="black" points="22.76,-155.28 24.44,-165.74 29.65,-156.51 22.76,-155.28"/>
</g>
</g>
</svg>
