<?xml version="1.0" encoding="UTF-8" standalone="no"?>
<!DOCTYPE svg PUBLIC "-//W3C//DTD SVG 1.1//EN"
 "http://www.w3.org/Graphics/SVG/1.1/DTD/svg11.dtd">
<!-- Generated by graphviz version 7.0.0 (20221023.0053)
 -->
<!-- Title: Arch Pages: 1 -->
<svg width="193pt" height="64pt"
 viewBox="0.00 0.00 193.00 64.00" xmlns="http://www.w3.org/2000/svg" xmlns:xlink="http://www.w3.org/1999/xlink">
<g id="graph0" class="graph" transform="scale(1 1) rotate(0) translate(4 60)">
<title>Arch</title>
<!-- Node1 -->
<g id="node1" class="node">
<title>Node1</title>
<g id="a_node1"><a xlink:title=" ">
<polygon fill="#999999" stroke="#666666" points="114,-37 77,-37 77,-18 114,-18 114,-37"/>
<text text-anchor="middle" x="95.5" y="-25" font-family="Helvetica,sans-Serif" font-size="10.00">Arch</text>
</a>
</g>
</g>
<!-- Node3 -->
<g id="node2" class="node">
<title>Node3</title>
<g id="a_node2"><a xlink:href="group__arm.html" target="_top" xlink:title=" ">
<polygon fill="white" stroke="#666666" points="185,-56 150,-56 150,-37 185,-37 185,-56"/>
<text text-anchor="middle" x="167.5" y="-44" font-family="Helvetica,sans-Serif" font-size="10.00">Arm</text>
</a>
</g>
</g>
<!-- Node1&#45;&gt;Node3 -->
<g id="edge2" class="edge">
<title>Node1&#45;&gt;Node3</title>
<path fill="none" stroke="black" d="M125.03,-35.24C133.36,-37.5 142.2,-39.9 149.57,-41.9"/>
<polygon fill="black" stroke="black" points="126.19,-31.93 115.62,-32.69 124.36,-38.69 126.19,-31.93"/>
</g>
<!-- Node4 -->
<g id="node4" class="node">
<title>Node4</title>
<g id="a_node4"><a xlink:href="group__x86.html" target="_top" xlink:title=" ">
<polygon fill="white" stroke="#666666" points="184.5,-19 150.5,-19 150.5,0 184.5,0 184.5,-19"/>
<text text-anchor="middle" x="167.5" y="-7" font-family="Helvetica,sans-Serif" font-size="10.00">X86</text>
</a>
</g>
</g>
<!-- Node1&#45;&gt;Node4 -->
<g id="edge3" class="edge">
<title>Node1&#45;&gt;Node4</title>
<path fill="none" stroke="black" d="M125.2,-20.12C133.66,-17.94 142.63,-15.64 150.04,-13.73"/>
<polygon fill="black" stroke="black" points="124.44,-16.7 115.63,-22.58 126.19,-23.48 124.44,-16.7"/>
</g>
<!-- Node2 -->
<g id="node3" class="node">
<title>Node2</title>
<g id="a_node3"><a xlink:href="group__triton.html" target="_top" xlink:title=" ">
<polygon fill="white" stroke="#666666" points="41,-37 0,-37 0,-18 41,-18 41,-37"/>
<text text-anchor="middle" x="20.5" y="-25" font-family="Helvetica,sans-Serif" font-size="10.00">Triton</text>
</a>
</g>
</g>
<!-- Node2&#45;&gt;Node1 -->
<g id="edge1" class="edge">
<title>Node2&#45;&gt;Node1</title>
<path fill="none" stroke="black" d="M52.88,-27.5C60.98,-27.5 69.42,-27.5 76.57,-27.5"/>
<polygon fill="black" stroke="black" points="52.96,-24 42.96,-27.5 52.96,-31 52.96,-24"/>
</g>
</g>
</svg>
