<?xml version="1.0" encoding="UTF-8" standalone="no"?>
<!DOCTYPE svg PUBLIC "-//W3C//DTD SVG 1.1//EN"
 "http://www.w3.org/Graphics/SVG/1.1/DTD/svg11.dtd">
<!-- Generated by graphviz version 2.50.0 (20211204.2007)
 -->
<!-- Title: I386 Pages: 1 -->
<svg width="221pt" height="27pt"
 viewBox="0.00 0.00 221.00 27.00" xmlns="http://www.w3.org/2000/svg" xmlns:xlink="http://www.w3.org/1999/xlink">
<g id="graph0" class="graph" transform="scale(1 1) rotate(0) translate(4 23)">
<title>I386</title>
<polygon fill="white" stroke="transparent" points="-4,4 -4,-23 217,-23 217,4 -4,4"/>
<!-- Node1 -->
<g id="node1" class="node">
<title>Node1</title>
<g id="a_node1"><a xlink:title=" ">
<polygon fill="#bfbfbf" stroke="black" points="118,-19 80,-19 80,0 118,0 118,-19"/>
<text text-anchor="middle" x="99" y="-7" font-family="Helvetica,sans-Serif" font-size="10.00">I386</text>
</a>
</g>
</g>
<!-- Node3 -->
<g id="node3" class="node">
<title>Node3</title>
<g id="a_node3"><a xlink:href="group__systemv.html" target="_top" xlink:title=" ">
<polygon fill="white" stroke="black" points="213,-19 154,-19 154,0 213,0 213,-19"/>
<text text-anchor="middle" x="183.5" y="-7" font-family="Helvetica,sans-Serif" font-size="10.00">Systemv</text>
</a>
</g>
</g>
<!-- Node1&#45;&gt;Node3 -->
<g id="edge2" class="edge">
<title>Node1&#45;&gt;Node3</title>
<path fill="none" stroke="black" d="M128.53,-9.5C136.73,-9.5 145.67,-9.5 153.87,-9.5"/>
<polygon fill="black" stroke="black" points="128.31,-6 118.31,-9.5 128.31,-13 128.31,-6"/>
</g>
<!-- Node2 -->
<g id="node2" class="node">
<title>Node2</title>
<g id="a_node2"><a xlink:href="group__stubs.html" target="_top" xlink:title=" ">
<polygon fill="white" stroke="black" points="44,-19 0,-19 0,0 44,0 44,-19"/>
<text text-anchor="middle" x="22" y="-7" font-family="Helvetica,sans-Serif" font-size="10.00">Stubs</text>
</a>
</g>
</g>
<!-- Node2&#45;&gt;Node1 -->
<g id="edge1" class="edge">
<title>Node2&#45;&gt;Node1</title>
<path fill="none" stroke="black" d="M54.53,-9.5C63.21,-9.5 72.33,-9.5 79.96,-9.5"/>
<polygon fill="black" stroke="black" points="54.29,-6 44.29,-9.5 54.29,-13 54.29,-6"/>
</g>
</g>
</svg>
