<?xml version="1.0" encoding="UTF-8" standalone="no"?>
<!DOCTYPE svg PUBLIC "-//W3C//DTD SVG 1.1//EN"
 "http://www.w3.org/Graphics/SVG/1.1/DTD/svg11.dtd">
<!-- Generated by graphviz version 2.50.0 (20211204.2007)
 -->
<!-- Title: X8664 Pages: 1 -->
<svg width="230pt" height="27pt"
 viewBox="0.00 0.00 230.00 27.00" xmlns="http://www.w3.org/2000/svg" xmlns:xlink="http://www.w3.org/1999/xlink">
<g id="graph0" class="graph" transform="scale(1 1) rotate(0) translate(4 23)">
<title>X8664</title>
<polygon fill="white" stroke="transparent" points="-4,4 -4,-23 226,-23 226,4 -4,4"/>
<!-- Node2 -->
<g id="node1" class="node">
<title>Node2</title>
<g id="a_node1"><a xlink:href="group__stubs.html" target="_top" xlink:title=" ">
<polygon fill="white" stroke="black" points="44,-19 0,-19 0,0 44,0 44,-19"/>
<text text-anchor="middle" x="22" y="-7" font-family="Helvetica,sans-Serif" font-size="10.00">Stubs</text>
</a>
</g>
</g>
<!-- Node1 -->
<g id="node3" class="node">
<title>Node1</title>
<g id="a_node3"><a xlink:title=" ">
<polygon fill="#bfbfbf" stroke="black" points="127,-19 80,-19 80,0 127,0 127,-19"/>
<text text-anchor="middle" x="103.5" y="-7" font-family="Helvetica,sans-Serif" font-size="10.00">X8664</text>
</a>
</g>
</g>
<!-- Node2&#45;&gt;Node1 -->
<g id="edge1" class="edge">
<title>Node2&#45;&gt;Node1</title>
<path fill="none" stroke="black" d="M54.57,-9.5C62.98,-9.5 71.91,-9.5 79.74,-9.5"/>
<polygon fill="black" stroke="black" points="54.3,-6 44.3,-9.5 54.3,-13 54.3,-6"/>
</g>
<!-- Node3 -->
<g id="node2" class="node">
<title>Node3</title>
<g id="a_node2"><a xlink:href="group__systemv.html" target="_top" xlink:title=" ">
<polygon fill="white" stroke="black" points="222,-19 163,-19 163,0 222,0 222,-19"/>
<text text-anchor="middle" x="192.5" y="-7" font-family="Helvetica,sans-Serif" font-size="10.00">Systemv</text>
</a>
</g>
</g>
<!-- Node1&#45;&gt;Node3 -->
<g id="edge2" class="edge">
<title>Node1&#45;&gt;Node3</title>
<path fill="none" stroke="black" d="M137.54,-9.5C145.88,-9.5 154.77,-9.5 162.88,-9.5"/>
<polygon fill="black" stroke="black" points="137.36,-6 127.36,-9.5 137.36,-13 137.36,-6"/>
</g>
</g>
</svg>
