<?xml version="1.0" encoding="UTF-8" standalone="no"?>
<!DOCTYPE svg PUBLIC "-//W3C//DTD SVG 1.1//EN"
 "http://www.w3.org/Graphics/SVG/1.1/DTD/svg11.dtd">
<!-- Generated by graphviz version 2.49.0 (20210828.1703)
 -->
<!-- Title: Graphical Class Hierarchy Pages: 1 -->
<svg width="286pt" height="88pt"
 viewBox="0.00 0.00 286.00 88.00" xmlns="http://www.w3.org/2000/svg" xmlns:xlink="http://www.w3.org/1999/xlink">
<g id="graph0" class="graph" transform="scale(1 1) rotate(0) translate(4 84)">
<title>Graphical Class Hierarchy</title>
<polygon fill="white" stroke="transparent" points="-4,4 -4,-84 282,-84 282,4 -4,4"/>
<!-- Node0 -->
<g id="node1" class="node">
<title>Node0</title>
<g id="a_node1"><a xlink:href="classtriton_1_1engines_1_1lifters_1_1LiftingToPython.html" target="_top" xlink:title="The lifting to Python class.">
<polygon fill="white" stroke="black" points="0,-49.5 0,-79.5 121,-79.5 121,-49.5 0,-49.5"/>
<text text-anchor="start" x="8" y="-67.5" font-family="Helvetica,sans-Serif" font-size="10.00">triton::engines::lifters</text>
<text text-anchor="middle" x="60.5" y="-56.5" font-family="Helvetica,sans-Serif" font-size="10.00">::LiftingToPython</text>
</a>
</g>
</g>
<!-- Node1 -->
<g id="node2" class="node">
<title>Node1</title>
<g id="a_node2"><a xlink:href="classtriton_1_1engines_1_1lifters_1_1LiftingEngine.html" target="_top" xlink:title="The lifting engine class.">
<polygon fill="white" stroke="black" points="157,-24.5 157,-54.5 278,-54.5 278,-24.5 157,-24.5"/>
<text text-anchor="start" x="165" y="-42.5" font-family="Helvetica,sans-Serif" font-size="10.00">triton::engines::lifters</text>
<text text-anchor="middle" x="217.5" y="-31.5" font-family="Helvetica,sans-Serif" font-size="10.00">::LiftingEngine</text>
</a>
</g>
</g>
<!-- Node0&#45;&gt;Node1 -->
<g id="edge1" class="edge">
<title>Node0&#45;&gt;Node1</title>
<path fill="none" stroke="midnightblue" d="M131.38,-53.23C139.93,-51.85 148.61,-50.45 156.99,-49.1"/>
<polygon fill="midnightblue" stroke="midnightblue" points="130.74,-49.79 121.43,-54.83 131.86,-56.7 130.74,-49.79"/>
</g>
<!-- Node125 -->
<g id="node3" class="node">
<title>Node125</title>
<g id="a_node3"><a xlink:href="classtriton_1_1engines_1_1lifters_1_1LiftingToSMT.html" target="_top" xlink:title="The lifting to SMT class.">
<polygon fill="white" stroke="black" points="0,-0.5 0,-30.5 121,-30.5 121,-0.5 0,-0.5"/>
<text text-anchor="start" x="8" y="-18.5" font-family="Helvetica,sans-Serif" font-size="10.00">triton::engines::lifters</text>
<text text-anchor="middle" x="60.5" y="-7.5" font-family="Helvetica,sans-Serif" font-size="10.00">::LiftingToSMT</text>
</a>
</g>
</g>
<!-- Node125&#45;&gt;Node1 -->
<g id="edge2" class="edge">
<title>Node125&#45;&gt;Node1</title>
<path fill="none" stroke="midnightblue" d="M131.38,-26.32C139.93,-27.64 148.61,-28.99 156.99,-30.29"/>
<polygon fill="midnightblue" stroke="midnightblue" points="131.84,-22.85 121.43,-24.78 130.77,-29.77 131.84,-22.85"/>
</g>
</g>
</svg>
