<?xml version="1.0" encoding="UTF-8" standalone="no"?>
<!DOCTYPE svg PUBLIC "-//W3C//DTD SVG 1.1//EN"
 "http://www.w3.org/Graphics/SVG/1.1/DTD/svg11.dtd">
<!-- Generated by graphviz version 11.0.0 (20240428.1522)
 -->
<!-- Title: Graphical Class Hierarchy Pages: 1 -->
<svg width="319pt" height="137pt"
 viewBox="0.00 0.00 319.00 136.50" xmlns="http://www.w3.org/2000/svg" xmlns:xlink="http://www.w3.org/1999/xlink">
<g id="graph0" class="graph" transform="scale(1 1) rotate(0) translate(4 132.5)">
<title>Graphical Class Hierarchy</title>
<!-- Node0 -->
<g id="Node000000" class="node">
<title>Node0</title>
<g id="a_Node000000"><a xlink:href="$classtriton_1_1ast_1_1representations_1_1AstRepresentationInterface.html" xlink:title="The AST representation interface.">
<polygon fill="white" stroke="#666666" points="141.25,-79.5 0,-79.5 0,-49 141.25,-49 141.25,-79.5"/>
<text text-anchor="start" x="8" y="-66" font-family="Helvetica,sans-Serif" font-size="10.00">triton::ast::representations</text>
<text text-anchor="middle" x="70.62" y="-54.75" font-family="Helvetica,sans-Serif" font-size="10.00">::AstRepresentationInterface</text>
</a>
</g>
</g>
<!-- Node1 -->
<g id="Node000001" class="node">
<title>Node1</title>
<g id="a_Node000001"><a xlink:href="$classtriton_1_1ast_1_1representations_1_1AstPcodeRepresentation.html" xlink:title="Pseudo Code representation.">
<polygon fill="white" stroke="#666666" points="309.5,-128.5 178.75,-128.5 178.75,-98 309.5,-98 309.5,-128.5"/>
<text text-anchor="start" x="186.75" y="-115" font-family="Helvetica,sans-Serif" font-size="10.00">triton::ast::representations</text>
<text text-anchor="middle" x="244.12" y="-103.75" font-family="Helvetica,sans-Serif" font-size="10.00">::AstPcodeRepresentation</text>
</a>
</g>
</g>
<!-- Node0&#45;&gt;Node1 -->
<g id="edge118_Node000000_Node000001" class="edge">
<title>Node0&#45;&gt;Node1</title>
<g id="a_edge118_Node000000_Node000001"><a xlink:title=" ">
<path fill="none" stroke="#63b8ff" d="M137.2,-82.98C153.97,-87.78 171.84,-92.88 188.03,-97.51"/>
<polygon fill="#63b8ff" stroke="#63b8ff" points="138.39,-79.69 127.82,-80.3 136.47,-86.42 138.39,-79.69"/>
</a>
</g>
</g>
<!-- Node2 -->
<g id="Node000002" class="node">
<title>Node2</title>
<g id="a_Node000002"><a xlink:href="$classtriton_1_1ast_1_1representations_1_1AstPythonRepresentation.html" xlink:title="Python representation.">
<polygon fill="white" stroke="#666666" points="311,-79.5 177.25,-79.5 177.25,-49 311,-49 311,-79.5"/>
<text text-anchor="start" x="185.25" y="-66" font-family="Helvetica,sans-Serif" font-size="10.00">triton::ast::representations</text>
<text text-anchor="middle" x="244.12" y="-54.75" font-family="Helvetica,sans-Serif" font-size="10.00">::AstPythonRepresentation</text>
</a>
</g>
</g>
<!-- Node0&#45;&gt;Node2 -->
<g id="edge119_Node000000_Node000002" class="edge">
<title>Node0&#45;&gt;Node2</title>
<g id="a_edge119_Node000000_Node000002"><a xlink:title=" ">
<path fill="none" stroke="#63b8ff" d="M152.71,-64.25C160.76,-64.25 168.88,-64.25 176.76,-64.25"/>
<polygon fill="#63b8ff" stroke="#63b8ff" points="152.89,-60.75 142.89,-64.25 152.89,-67.75 152.89,-60.75"/>
</a>
</g>
</g>
<!-- Node3 -->
<g id="Node000003" class="node">
<title>Node3</title>
<g id="a_Node000003"><a xlink:href="$classtriton_1_1ast_1_1representations_1_1AstSmtRepresentation.html" xlink:title="SMT representation.">
<polygon fill="white" stroke="#666666" points="309.12,-30.5 179.12,-30.5 179.12,0 309.12,0 309.12,-30.5"/>
<text text-anchor="start" x="187.12" y="-17" font-family="Helvetica,sans-Serif" font-size="10.00">triton::ast::representations</text>
<text text-anchor="middle" x="244.12" y="-5.75" font-family="Helvetica,sans-Serif" font-size="10.00">::AstSmtRepresentation</text>
</a>
</g>
</g>
<!-- Node0&#45;&gt;Node3 -->
<g id="edge120_Node000000_Node000003" class="edge">
<title>Node0&#45;&gt;Node3</title>
<g id="a_edge120_Node000000_Node000003"><a xlink:title=" ">
<path fill="none" stroke="#63b8ff" d="M137.2,-45.52C153.97,-40.72 171.84,-35.62 188.03,-30.99"/>
<polygon fill="#63b8ff" stroke="#63b8ff" points="136.47,-42.08 127.82,-48.2 138.39,-48.81 136.47,-42.08"/>
</a>
</g>
</g>
</g>
</svg>
