<?xml version="1.0" encoding="UTF-8" standalone="no"?>
<!DOCTYPE svg PUBLIC "-//W3C//DTD SVG 1.1//EN"
 "http://www.w3.org/Graphics/SVG/1.1/DTD/svg11.dtd">
<!-- Generated by graphviz version 2.50.0 (20211204.2007)
 -->
<!-- Title: Graphical Class Hierarchy Pages: 1 -->
<svg width="346pt" height="137pt"
 viewBox="0.00 0.00 346.00 137.00" xmlns="http://www.w3.org/2000/svg" xmlns:xlink="http://www.w3.org/1999/xlink">
<g id="graph0" class="graph" transform="scale(1 1) rotate(0) translate(4 133)">
<title>Graphical Class Hierarchy</title>
<polygon fill="white" stroke="transparent" points="-4,4 -4,-133 342,-133 342,4 -4,4"/>
<!-- Node0 -->
<g id="node1" class="node">
<title>Node0</title>
<g id="a_node1"><a xlink:href="classtriton_1_1ast_1_1representations_1_1AstRepresentationInterface.html" target="_top" xlink:title="The AST representation interface.">
<polygon fill="white" stroke="black" points="0,-49.5 0,-79.5 156,-79.5 156,-49.5 0,-49.5"/>
<text text-anchor="start" x="8" y="-67.5" font-family="Helvetica,sans-Serif" font-size="10.00">triton::ast::representations</text>
<text text-anchor="middle" x="78" y="-56.5" font-family="Helvetica,sans-Serif" font-size="10.00">::AstRepresentationInterface</text>
</a>
</g>
</g>
<!-- Node1 -->
<g id="node2" class="node">
<title>Node1</title>
<g id="a_node2"><a xlink:href="classtriton_1_1ast_1_1representations_1_1AstPcodeRepresentation.html" target="_top" xlink:title="Pseudo Code representation.">
<polygon fill="white" stroke="black" points="192,-98.5 192,-128.5 338,-128.5 338,-98.5 192,-98.5"/>
<text text-anchor="start" x="200" y="-116.5" font-family="Helvetica,sans-Serif" font-size="10.00">triton::ast::representations</text>
<text text-anchor="middle" x="265" y="-105.5" font-family="Helvetica,sans-Serif" font-size="10.00">::AstPcodeRepresentation</text>
</a>
</g>
</g>
<!-- Node0&#45;&gt;Node1 -->
<g id="edge1" class="edge">
<title>Node0&#45;&gt;Node1</title>
<path fill="none" stroke="midnightblue" d="M145.54,-82.12C165.78,-87.48 187.82,-93.32 207.34,-98.49"/>
<polygon fill="midnightblue" stroke="midnightblue" points="146.33,-78.71 135.76,-79.53 144.53,-85.48 146.33,-78.71"/>
</g>
<!-- Node2 -->
<g id="node3" class="node">
<title>Node2</title>
<g id="a_node3"><a xlink:href="classtriton_1_1ast_1_1representations_1_1AstPythonRepresentation.html" target="_top" xlink:title="Python representation.">
<polygon fill="white" stroke="black" points="192,-49.5 192,-79.5 338,-79.5 338,-49.5 192,-49.5"/>
<text text-anchor="start" x="200" y="-67.5" font-family="Helvetica,sans-Serif" font-size="10.00">triton::ast::representations</text>
<text text-anchor="middle" x="265" y="-56.5" font-family="Helvetica,sans-Serif" font-size="10.00">::AstPythonRepresentation</text>
</a>
</g>
</g>
<!-- Node0&#45;&gt;Node2 -->
<g id="edge2" class="edge">
<title>Node0&#45;&gt;Node2</title>
<path fill="none" stroke="midnightblue" d="M166.14,-64.5C174.71,-64.5 183.34,-64.5 191.75,-64.5"/>
<polygon fill="midnightblue" stroke="midnightblue" points="166.12,-61 156.12,-64.5 166.12,-68 166.12,-61"/>
</g>
<!-- Node3 -->
<g id="node4" class="node">
<title>Node3</title>
<g id="a_node4"><a xlink:href="classtriton_1_1ast_1_1representations_1_1AstSmtRepresentation.html" target="_top" xlink:title="SMT representation.">
<polygon fill="white" stroke="black" points="192,-0.5 192,-30.5 338,-30.5 338,-0.5 192,-0.5"/>
<text text-anchor="start" x="200" y="-18.5" font-family="Helvetica,sans-Serif" font-size="10.00">triton::ast::representations</text>
<text text-anchor="middle" x="265" y="-7.5" font-family="Helvetica,sans-Serif" font-size="10.00">::AstSmtRepresentation</text>
</a>
</g>
</g>
<!-- Node0&#45;&gt;Node3 -->
<g id="edge3" class="edge">
<title>Node0&#45;&gt;Node3</title>
<path fill="none" stroke="midnightblue" d="M145.54,-46.88C165.78,-41.52 187.82,-35.68 207.34,-30.51"/>
<polygon fill="midnightblue" stroke="midnightblue" points="144.53,-43.52 135.76,-49.47 146.33,-50.29 144.53,-43.52"/>
</g>
</g>
</svg>
