<?xml version="1.0" encoding="UTF-8" standalone="no"?>
<!DOCTYPE svg PUBLIC "-//W3C//DTD SVG 1.1//EN"
 "http://www.w3.org/Graphics/SVG/1.1/DTD/svg11.dtd">
<!-- Generated by graphviz version 7.0.0 (20221023.0053)
 -->
<!-- Title: Graphical Class Hierarchy Pages: 1 -->
<svg width="177pt" height="86pt"
 viewBox="0.00 0.00 177.00 86.00" xmlns="http://www.w3.org/2000/svg" xmlns:xlink="http://www.w3.org/1999/xlink">
<g id="graph0" class="graph" transform="scale(1 1) rotate(0) translate(4 82)">
<title>Graphical Class Hierarchy</title>
<!-- Node0 -->
<g id="node1" class="node">
<title>Node0</title>
<g id="a_node1"><a xlink:title=" ">
<polygon fill="#e0e0e0" stroke="#999999" points="38,-48.5 0,-48.5 0,-29.5 38,-29.5 38,-48.5"/>
<text text-anchor="middle" x="19" y="-36.5" font-family="Helvetica,sans-Serif" font-size="10.00">hash</text>
</a>
</g>
</g>
<!-- Node1 -->
<g id="node2" class="node">
<title>Node1</title>
<g id="a_node2"><a xlink:href="structstd_1_1hash_3_01triton_1_1arch_1_1register__e_01_4.html" target="_top" xlink:title="Define the hash function for register_e to be use in stl containers like unordered_map.">
<polygon fill="white" stroke="#666666" points="168.5,-78 74.5,-78 74.5,-48 168.5,-48 168.5,-78"/>
<text text-anchor="start" x="82.5" y="-66" font-family="Helvetica,sans-Serif" font-size="10.00">std::hash&lt; triton::</text>
<text text-anchor="middle" x="121.5" y="-55" font-family="Helvetica,sans-Serif" font-size="10.00">arch::register_e &gt;</text>
</a>
</g>
</g>
<!-- Node0&#45;&gt;Node1 -->
<g id="edge1" class="edge">
<title>Node0&#45;&gt;Node1</title>
<path fill="none" stroke="#63b8ff" d="M49.46,-46.04C57.21,-47.89 65.76,-49.93 74.17,-51.94"/>
<polygon fill="#63b8ff" stroke="#63b8ff" points="50.44,-42.67 39.91,-43.75 48.82,-49.48 50.44,-42.67"/>
</g>
<!-- Node2 -->
<g id="node3" class="node">
<title>Node2</title>
<g id="a_node3"><a xlink:href="structstd_1_1hash_3_01triton_1_1modes_1_1mode__e_01_4.html" target="_top" xlink:title="Define the hash function for mode_e to be use in stl containers like unordered_set.">
<polygon fill="white" stroke="#666666" points="169,-30 74,-30 74,0 169,0 169,-30"/>
<text text-anchor="start" x="82" y="-18" font-family="Helvetica,sans-Serif" font-size="10.00">std::hash&lt; triton::</text>
<text text-anchor="middle" x="121.5" y="-7" font-family="Helvetica,sans-Serif" font-size="10.00">modes::mode_e &gt;</text>
</a>
</g>
</g>
<!-- Node0&#45;&gt;Node2 -->
<g id="edge2" class="edge">
<title>Node0&#45;&gt;Node2</title>
<path fill="none" stroke="#63b8ff" d="M49.6,-31.93C57.18,-30.12 65.53,-28.13 73.74,-26.17"/>
<polygon fill="#63b8ff" stroke="#63b8ff" points="48.82,-28.52 39.91,-34.25 50.44,-35.33 48.82,-28.52"/>
</g>
</g>
</svg>
