<?xml version="1.0" encoding="UTF-8" standalone="no"?>
<!DOCTYPE svg PUBLIC "-//W3C//DTD SVG 1.1//EN"
 "http://www.w3.org/Graphics/SVG/1.1/DTD/svg11.dtd">
<!-- Generated by graphviz version 7.0.0 (20221023.0053)
 -->
<!-- Title: Graphical Class Hierarchy Pages: 1 -->
<svg width="313pt" height="182pt"
 viewBox="0.00 0.00 313.00 182.00" xmlns="http://www.w3.org/2000/svg" xmlns:xlink="http://www.w3.org/1999/xlink">
<g id="graph0" class="graph" transform="scale(1 1) rotate(0) translate(4 178)">
<title>Graphical Class Hierarchy</title>
<!-- Node0 -->
<g id="node1" class="node">
<title>Node0</title>
<g id="a_node1"><a xlink:href="classtriton_1_1arch_1_1arm_1_1aarch64_1_1AArch64Specifications.html" target="_top" xlink:title="The AArch64Specifications class defines specifications about the AArch64 CPU.">
<polygon fill="white" stroke="#666666" points="156,-174 0,-174 0,-144 156,-144 156,-174"/>
<text text-anchor="start" x="8" y="-162" font-family="Helvetica,sans-Serif" font-size="10.00">triton::arch::arm::</text>
<text text-anchor="middle" x="78" y="-151" font-family="Helvetica,sans-Serif" font-size="10.00">aarch64::AArch64Specifications</text>
</a>
</g>
</g>
<!-- Node1 -->
<g id="node2" class="node">
<title>Node1</title>
<g id="a_node2"><a xlink:href="classtriton_1_1arch_1_1arm_1_1aarch64_1_1AArch64Cpu.html" target="_top" xlink:title="This class is used to describe the ARM (64&#45;bits) spec.">
<polygon fill="white" stroke="#666666" points="305,-174 192,-174 192,-144 305,-144 305,-174"/>
<text text-anchor="start" x="200" y="-162" font-family="Helvetica,sans-Serif" font-size="10.00">triton::arch::arm::</text>
<text text-anchor="middle" x="248.5" y="-151" font-family="Helvetica,sans-Serif" font-size="10.00">aarch64::AArch64Cpu</text>
</a>
</g>
</g>
<!-- Node0&#45;&gt;Node1 -->
<g id="edge1" class="edge">
<title>Node0&#45;&gt;Node1</title>
<path fill="none" stroke="#63b8ff" d="M167.84,-159C175.97,-159 184.04,-159 191.75,-159"/>
<polygon fill="#63b8ff" stroke="#63b8ff" points="167.86,-155.5 157.86,-159 167.86,-162.5 167.86,-155.5"/>
</g>
<!-- Node4 -->
<g id="node3" class="node">
<title>Node4</title>
<g id="a_node3"><a xlink:href="classtriton_1_1arch_1_1arm_1_1arm32_1_1Arm32Specifications.html" target="_top" xlink:title="The Arm32Specifications class defines specifications about the Arm32 CPU.">
<polygon fill="white" stroke="#666666" points="148,-126 8,-126 8,-96 148,-96 148,-126"/>
<text text-anchor="start" x="16" y="-114" font-family="Helvetica,sans-Serif" font-size="10.00">triton::arch::arm::</text>
<text text-anchor="middle" x="78" y="-103" font-family="Helvetica,sans-Serif" font-size="10.00">arm32::Arm32Specifications</text>
</a>
</g>
</g>
<!-- Node3 -->
<g id="node4" class="node">
<title>Node3</title>
<g id="a_node4"><a xlink:href="classtriton_1_1arch_1_1arm_1_1arm32_1_1Arm32Cpu.html" target="_top" xlink:title="This class is used to describe the ARM (32&#45;bits) spec.">
<polygon fill="white" stroke="#666666" points="296.5,-126 200.5,-126 200.5,-96 296.5,-96 296.5,-126"/>
<text text-anchor="start" x="208.5" y="-114" font-family="Helvetica,sans-Serif" font-size="10.00">triton::arch::arm::</text>
<text text-anchor="middle" x="248.5" y="-103" font-family="Helvetica,sans-Serif" font-size="10.00">arm32::Arm32Cpu</text>
</a>
</g>
</g>
<!-- Node4&#45;&gt;Node3 -->
<g id="edge2" class="edge">
<title>Node4&#45;&gt;Node3</title>
<path fill="none" stroke="#63b8ff" d="M159.21,-111C173.25,-111 187.43,-111 200.2,-111"/>
<polygon fill="#63b8ff" stroke="#63b8ff" points="159.54,-107.5 149.54,-111 159.54,-114.5 159.54,-107.5"/>
</g>
<!-- Node2 -->
<g id="node5" class="node">
<title>Node2</title>
<g id="a_node5"><a xlink:href="classtriton_1_1arch_1_1CpuInterface.html" target="_top" xlink:title="This interface is used as abstract CPU interface. All CPU must use this interface.">
<polygon fill="white" stroke="#666666" points="140.5,-74.5 15.5,-74.5 15.5,-55.5 140.5,-55.5 140.5,-74.5"/>
<text text-anchor="middle" x="78" y="-62.5" font-family="Helvetica,sans-Serif" font-size="10.00">triton::arch::CpuInterface</text>
</a>
</g>
</g>
<!-- Node2&#45;&gt;Node1 -->
<g id="edge3" class="edge">
<title>Node2&#45;&gt;Node1</title>
<path fill="none" stroke="#63b8ff" d="M141.71,-79.07C146.74,-81.33 151.58,-83.96 156,-87 177.97,-102.12 171.06,-118.49 192,-135 196.04,-138.19 200.57,-141.03 205.24,-143.55"/>
<polygon fill="#63b8ff" stroke="#63b8ff" points="143.19,-75.89 132.6,-75.47 140.62,-82.4 143.19,-75.89"/>
</g>
<!-- Node2&#45;&gt;Node3 -->
<g id="edge4" class="edge">
<title>Node2&#45;&gt;Node3</title>
<path fill="none" stroke="#63b8ff" d="M126.46,-77.96C149.49,-84.24 177.09,-91.78 200.11,-98.06"/>
<polygon fill="#63b8ff" stroke="#63b8ff" points="127.59,-74.64 117.02,-75.38 125.75,-81.39 127.59,-74.64"/>
</g>
<!-- Node5 -->
<g id="node6" class="node">
<title>Node5</title>
<g id="a_node6"><a xlink:href="classtriton_1_1arch_1_1x86_1_1x8664Cpu.html" target="_top" xlink:title="This class is used to describe the x86 (64&#45;bits) spec.">
<polygon fill="white" stroke="#666666" points="294,-78 203,-78 203,-48 294,-48 294,-78"/>
<text text-anchor="start" x="211" y="-66" font-family="Helvetica,sans-Serif" font-size="10.00">triton::arch::x86::</text>
<text text-anchor="middle" x="248.5" y="-55" font-family="Helvetica,sans-Serif" font-size="10.00">x8664Cpu</text>
</a>
</g>
</g>
<!-- Node2&#45;&gt;Node5 -->
<g id="edge5" class="edge">
<title>Node2&#45;&gt;Node5</title>
<path fill="none" stroke="#63b8ff" d="M151.98,-64.13C169.2,-63.93 187.05,-63.72 202.6,-63.53"/>
<polygon fill="#63b8ff" stroke="#63b8ff" points="152.26,-60.63 142.3,-64.25 152.34,-67.63 152.26,-60.63"/>
</g>
<!-- Node7 -->
<g id="node7" class="node">
<title>Node7</title>
<g id="a_node7"><a xlink:href="classtriton_1_1arch_1_1x86_1_1x86Cpu.html" target="_top" xlink:title="This class is used to describe the x86 (32&#45;bits) spec.">
<polygon fill="white" stroke="#666666" points="294,-30 203,-30 203,0 294,0 294,-30"/>
<text text-anchor="start" x="211" y="-18" font-family="Helvetica,sans-Serif" font-size="10.00">triton::arch::x86::</text>
<text text-anchor="middle" x="248.5" y="-7" font-family="Helvetica,sans-Serif" font-size="10.00">x86Cpu</text>
</a>
</g>
</g>
<!-- Node2&#45;&gt;Node7 -->
<g id="edge6" class="edge">
<title>Node2&#45;&gt;Node7</title>
<path fill="none" stroke="#63b8ff" d="M127.55,-52.08C137.01,-49.47 146.83,-46.7 156,-44 171.35,-39.48 188.05,-34.27 202.93,-29.52"/>
<polygon fill="#63b8ff" stroke="#63b8ff" points="126.87,-48.64 118.14,-54.65 128.71,-55.39 126.87,-48.64"/>
</g>
<!-- Node6 -->
<g id="node8" class="node">
<title>Node6</title>
<g id="a_node8"><a xlink:href="classtriton_1_1arch_1_1x86_1_1x86Specifications.html" target="_top" xlink:title="The x86Specifications class defines specifications about the x86 and x86_64 CPU.">
<polygon fill="white" stroke="#666666" points="125,-35 31,-35 31,-5 125,-5 125,-35"/>
<text text-anchor="start" x="39" y="-23" font-family="Helvetica,sans-Serif" font-size="10.00">triton::arch::x86::</text>
<text text-anchor="middle" x="78" y="-12" font-family="Helvetica,sans-Serif" font-size="10.00">x86Specifications</text>
</a>
</g>
</g>
<!-- Node6&#45;&gt;Node5 -->
<g id="edge7" class="edge">
<title>Node6&#45;&gt;Node5</title>
<path fill="none" stroke="#63b8ff" d="M136.51,-34.68C158.11,-40.19 182.33,-46.37 202.62,-51.55"/>
<polygon fill="#63b8ff" stroke="#63b8ff" points="137.51,-31.32 126.96,-32.24 135.78,-38.1 137.51,-31.32"/>
</g>
<!-- Node6&#45;&gt;Node7 -->
<g id="edge8" class="edge">
<title>Node6&#45;&gt;Node7</title>
<path fill="none" stroke="#63b8ff" d="M136.81,-18.28C158.33,-17.65 182.42,-16.93 202.62,-16.33"/>
<polygon fill="#63b8ff" stroke="#63b8ff" points="136.89,-14.78 127,-18.58 137.1,-21.78 136.89,-14.78"/>
</g>
</g>
</svg>
