<?xml version="1.0" encoding="UTF-8" standalone="no"?>
<!DOCTYPE svg PUBLIC "-//W3C//DTD SVG 1.1//EN"
 "http://www.w3.org/Graphics/SVG/1.1/DTD/svg11.dtd">
<!-- Generated by graphviz version 11.0.0 (20240428.1522)
 -->
<!-- Title: Graphical Class Hierarchy Pages: 1 -->
<svg width="264pt" height="88pt"
 viewBox="0.00 0.00 263.50 87.50" xmlns="http://www.w3.org/2000/svg" xmlns:xlink="http://www.w3.org/1999/xlink">
<g id="graph0" class="graph" transform="scale(1 1) rotate(0) translate(4 83.5)">
<title>Graphical Class Hierarchy</title>
<!-- Node0 -->
<g id="Node000000" class="node">
<title>Node0</title>
<g id="a_Node000000"><a xlink:href="classtriton_1_1engines_1_1solver_1_1SolverInterface.html" target="_top" xlink:title="This interface is used to interface with solvers.">
<polygon fill="white" stroke="#666666" points="109.75,-54.5 0,-54.5 0,-24 109.75,-24 109.75,-54.5"/>
<text text-anchor="start" x="8" y="-41" font-family="Helvetica,sans-Serif" font-size="10.00">triton::engines::solver</text>
<text text-anchor="middle" x="54.88" y="-29.75" font-family="Helvetica,sans-Serif" font-size="10.00">::SolverInterface</text>
</a>
</g>
</g>
<!-- Node1 -->
<g id="Node000001" class="node">
<title>Node1</title>
<g id="a_Node000001"><a xlink:href="classtriton_1_1engines_1_1solver_1_1BitwuzlaSolver.html" target="_top" xlink:title="Solver engine using Bitwuzla.">
<polygon fill="white" stroke="#666666" points="255.5,-79.5 145.75,-79.5 145.75,-49 255.5,-49 255.5,-79.5"/>
<text text-anchor="start" x="153.75" y="-66" font-family="Helvetica,sans-Serif" font-size="10.00">triton::engines::solver</text>
<text text-anchor="middle" x="200.62" y="-54.75" font-family="Helvetica,sans-Serif" font-size="10.00">::BitwuzlaSolver</text>
</a>
</g>
</g>
<!-- Node0&#45;&gt;Node1 -->
<g id="edge125_Node000000_Node000001" class="edge">
<title>Node0&#45;&gt;Node1</title>
<g id="a_edge125_Node000000_Node000001"><a xlink:title=" ">
<path fill="none" stroke="#63b8ff" d="M121.53,-50.67C129.61,-52.07 137.8,-53.5 145.68,-54.87"/>
<polygon fill="#63b8ff" stroke="#63b8ff" points="122.16,-47.23 111.71,-48.96 120.96,-54.12 122.16,-47.23"/>
</a>
</g>
</g>
<!-- Node2 -->
<g id="Node000002" class="node">
<title>Node2</title>
<g id="a_Node000002"><a xlink:href="classtriton_1_1engines_1_1solver_1_1Z3Solver.html" target="_top" xlink:title="Solver engine using z3.">
<polygon fill="white" stroke="#666666" points="255.5,-30.5 145.75,-30.5 145.75,0 255.5,0 255.5,-30.5"/>
<text text-anchor="start" x="153.75" y="-17" font-family="Helvetica,sans-Serif" font-size="10.00">triton::engines::solver</text>
<text text-anchor="middle" x="200.62" y="-5.75" font-family="Helvetica,sans-Serif" font-size="10.00">::Z3Solver</text>
</a>
</g>
</g>
<!-- Node0&#45;&gt;Node2 -->
<g id="edge126_Node000000_Node000002" class="edge">
<title>Node0&#45;&gt;Node2</title>
<g id="a_edge126_Node000000_Node000002"><a xlink:title=" ">
<path fill="none" stroke="#63b8ff" d="M121.53,-28.29C129.61,-26.94 137.8,-25.57 145.68,-24.26"/>
<polygon fill="#63b8ff" stroke="#63b8ff" points="121,-24.83 111.71,-29.93 122.15,-31.73 121,-24.83"/>
</a>
</g>
</g>
</g>
</svg>
