<?xml version="1.0" encoding="UTF-8" standalone="no"?>
<!DOCTYPE svg PUBLIC "-//W3C//DTD SVG 1.1//EN"
 "http://www.w3.org/Graphics/SVG/1.1/DTD/svg11.dtd">
<!-- Generated by graphviz version 2.49.0 (20210828.1703)
 -->
<!-- Title: Graphical Class Hierarchy Pages: 1 -->
<svg width="286pt" height="137pt"
 viewBox="0.00 0.00 286.00 137.00" xmlns="http://www.w3.org/2000/svg" xmlns:xlink="http://www.w3.org/1999/xlink">
<g id="graph0" class="graph" transform="scale(1 1) rotate(0) translate(4 133)">
<title>Graphical Class Hierarchy</title>
<polygon fill="white" stroke="transparent" points="-4,4 -4,-133 282,-133 282,4 -4,4"/>
<!-- Node0 -->
<g id="node1" class="node">
<title>Node0</title>
<g id="a_node1"><a xlink:href="classtriton_1_1engines_1_1lifters_1_1LiftingToDot.html" target="_top" xlink:title="The lifting to Dot class.">
<polygon fill="white" stroke="black" points="0,-98.5 0,-128.5 121,-128.5 121,-98.5 0,-98.5"/>
<text text-anchor="start" x="8" y="-116.5" font-family="Helvetica,sans-Serif" font-size="10.00">triton::engines::lifters</text>
<text text-anchor="middle" x="60.5" y="-105.5" font-family="Helvetica,sans-Serif" font-size="10.00">::LiftingToDot</text>
</a>
</g>
</g>
<!-- Node1 -->
<g id="node2" class="node">
<title>Node1</title>
<g id="a_node2"><a xlink:href="classtriton_1_1engines_1_1lifters_1_1LiftingEngine.html" target="_top" xlink:title="The lifting engine class.">
<polygon fill="white" stroke="black" points="157,-49.5 157,-79.5 278,-79.5 278,-49.5 157,-49.5"/>
<text text-anchor="start" x="165" y="-67.5" font-family="Helvetica,sans-Serif" font-size="10.00">triton::engines::lifters</text>
<text text-anchor="middle" x="217.5" y="-56.5" font-family="Helvetica,sans-Serif" font-size="10.00">::LiftingEngine</text>
</a>
</g>
</g>
<!-- Node0&#45;&gt;Node1 -->
<g id="edge1" class="edge">
<title>Node0&#45;&gt;Node1</title>
<path fill="none" stroke="midnightblue" d="M119.26,-95.24C135.61,-90.07 153.21,-84.51 168.89,-79.55"/>
<polygon fill="midnightblue" stroke="midnightblue" points="117.75,-92.05 109.27,-98.4 119.86,-98.72 117.75,-92.05"/>
</g>
<!-- Node139 -->
<g id="node3" class="node">
<title>Node139</title>
<g id="a_node3"><a xlink:href="classtriton_1_1engines_1_1lifters_1_1LiftingToPython.html" target="_top" xlink:title="The lifting to Python class.">
<polygon fill="white" stroke="black" points="0,-49.5 0,-79.5 121,-79.5 121,-49.5 0,-49.5"/>
<text text-anchor="start" x="8" y="-67.5" font-family="Helvetica,sans-Serif" font-size="10.00">triton::engines::lifters</text>
<text text-anchor="middle" x="60.5" y="-56.5" font-family="Helvetica,sans-Serif" font-size="10.00">::LiftingToPython</text>
</a>
</g>
</g>
<!-- Node139&#45;&gt;Node1 -->
<g id="edge2" class="edge">
<title>Node139&#45;&gt;Node1</title>
<path fill="none" stroke="midnightblue" d="M131.66,-64.5C140.12,-64.5 148.7,-64.5 156.99,-64.5"/>
<polygon fill="midnightblue" stroke="midnightblue" points="131.43,-61 121.43,-64.5 131.43,-68 131.43,-61"/>
</g>
<!-- Node140 -->
<g id="node4" class="node">
<title>Node140</title>
<g id="a_node4"><a xlink:href="classtriton_1_1engines_1_1lifters_1_1LiftingToSMT.html" target="_top" xlink:title="The lifting to SMT class.">
<polygon fill="white" stroke="black" points="0,-0.5 0,-30.5 121,-30.5 121,-0.5 0,-0.5"/>
<text text-anchor="start" x="8" y="-18.5" font-family="Helvetica,sans-Serif" font-size="10.00">triton::engines::lifters</text>
<text text-anchor="middle" x="60.5" y="-7.5" font-family="Helvetica,sans-Serif" font-size="10.00">::LiftingToSMT</text>
</a>
</g>
</g>
<!-- Node140&#45;&gt;Node1 -->
<g id="edge3" class="edge">
<title>Node140&#45;&gt;Node1</title>
<path fill="none" stroke="midnightblue" d="M119.26,-33.76C135.61,-38.93 153.21,-44.49 168.89,-49.45"/>
<polygon fill="midnightblue" stroke="midnightblue" points="119.86,-30.28 109.27,-30.6 117.75,-36.95 119.86,-30.28"/>
</g>
</g>
</svg>
