<?xml version="1.0" encoding="UTF-8" standalone="no"?>
<!DOCTYPE svg PUBLIC "-//W3C//DTD SVG 1.1//EN"
 "http://www.w3.org/Graphics/SVG/1.1/DTD/svg11.dtd">
<!-- Generated by graphviz version 2.49.0 (20210828.1703)
 -->
<!-- Title: Graphical Class Hierarchy Pages: 1 -->
<svg width="752pt" height="838pt"
 viewBox="0.00 0.00 752.00 838.00" xmlns="http://www.w3.org/2000/svg" xmlns:xlink="http://www.w3.org/1999/xlink">
<g id="graph0" class="graph" transform="scale(1 1) rotate(0) translate(4 834)">
<title>Graphical Class Hierarchy</title>
<polygon fill="white" stroke="transparent" points="-4,4 -4,-834 748,-834 748,4 -4,4"/>
<!-- Node81 -->
<g id="node1" class="node">
<title>Node81</title>
<g id="a_node1"><a xlink:title=" ">
<polygon fill="white" stroke="#bfbfbf" points="0,-278 0,-297 86,-297 86,-278 0,-278"/>
<text text-anchor="middle" x="43" y="-285" font-family="Helvetica,sans-Serif" font-size="10.00">std::exception</text>
</a>
</g>
</g>
<!-- Node0 -->
<g id="node2" class="node">
<title>Node0</title>
<g id="a_node2"><a xlink:href="classtriton_1_1exceptions_1_1Exception.html" target="_top" xlink:title="The root class of all exceptions.">
<polygon fill="white" stroke="black" points="122,-272.5 122,-302.5 224,-302.5 224,-272.5 122,-272.5"/>
<text text-anchor="start" x="130" y="-290.5" font-family="Helvetica,sans-Serif" font-size="10.00">triton::exceptions</text>
<text text-anchor="middle" x="173" y="-279.5" font-family="Helvetica,sans-Serif" font-size="10.00">::Exception</text>
</a>
</g>
</g>
<!-- Node81&#45;&gt;Node0 -->
<g id="edge1" class="edge">
<title>Node81&#45;&gt;Node0</title>
<path fill="none" stroke="midnightblue" d="M96.34,-287.5C104.74,-287.5 113.42,-287.5 121.77,-287.5"/>
<polygon fill="midnightblue" stroke="midnightblue" points="96.27,-284 86.27,-287.5 96.27,-291 96.27,-284"/>
</g>
<!-- Node1 -->
<g id="node3" class="node">
<title>Node1</title>
<g id="a_node3"><a xlink:href="classtriton_1_1exceptions_1_1API.html" target="_top" xlink:title="The exception class used by the Triton&#39;s API.">
<polygon fill="white" stroke="black" points="260,-589 260,-608 384,-608 384,-589 260,-589"/>
<text text-anchor="middle" x="322" y="-596" font-family="Helvetica,sans-Serif" font-size="10.00">triton::exceptions::API</text>
</a>
</g>
</g>
<!-- Node0&#45;&gt;Node1 -->
<g id="edge2" class="edge">
<title>Node0&#45;&gt;Node1</title>
<path fill="none" stroke="midnightblue" d="M173.91,-312.76C175.1,-368.75 185.96,-504.3 260,-579.5 263.81,-583.37 268.4,-586.46 273.33,-588.92"/>
<polygon fill="midnightblue" stroke="midnightblue" points="177.4,-312.61 173.78,-302.66 170.4,-312.7 177.4,-312.61"/>
</g>
<!-- Node2 -->
<g id="node4" class="node">
<title>Node2</title>
<g id="a_node4"><a xlink:href="classtriton_1_1exceptions_1_1Architecture.html" target="_top" xlink:title="The exception class used by architectures.">
<polygon fill="white" stroke="black" points="271,-539.5 271,-569.5 373,-569.5 373,-539.5 271,-539.5"/>
<text text-anchor="start" x="279" y="-557.5" font-family="Helvetica,sans-Serif" font-size="10.00">triton::exceptions</text>
<text text-anchor="middle" x="322" y="-546.5" font-family="Helvetica,sans-Serif" font-size="10.00">::Architecture</text>
</a>
</g>
</g>
<!-- Node0&#45;&gt;Node2 -->
<g id="edge3" class="edge">
<title>Node0&#45;&gt;Node2</title>
<path fill="none" stroke="midnightblue" d="M187.2,-311.47C216.86,-365.35 288.12,-494.77 312.58,-539.21"/>
<polygon fill="midnightblue" stroke="midnightblue" points="190.21,-309.69 182.32,-302.62 184.08,-313.07 190.21,-309.69"/>
</g>
<!-- Node15 -->
<g id="node17" class="node">
<title>Node15</title>
<g id="a_node17"><a xlink:href="classtriton_1_1exceptions_1_1Ast.html" target="_top" xlink:title="The exception class used by all AST nodes.">
<polygon fill="white" stroke="black" points="260,-322 260,-341 384,-341 384,-322 260,-322"/>
<text text-anchor="middle" x="322" y="-329" font-family="Helvetica,sans-Serif" font-size="10.00">triton::exceptions::Ast</text>
</a>
</g>
</g>
<!-- Node0&#45;&gt;Node15 -->
<g id="edge16" class="edge">
<title>Node0&#45;&gt;Node15</title>
<path fill="none" stroke="midnightblue" d="M233.9,-305.43C252.77,-311.08 272.87,-317.09 289,-321.92"/>
<polygon fill="midnightblue" stroke="midnightblue" points="234.76,-302.03 224.18,-302.52 232.75,-308.74 234.76,-302.03"/>
</g>
<!-- Node18 -->
<g id="node20" class="node">
<title>Node18</title>
<g id="a_node20"><a xlink:href="classtriton_1_1exceptions_1_1Bindings.html" target="_top" xlink:title="The exception class used by bindings.">
<polygon fill="white" stroke="black" points="271,-272.5 271,-302.5 373,-302.5 373,-272.5 271,-272.5"/>
<text text-anchor="start" x="279" y="-290.5" font-family="Helvetica,sans-Serif" font-size="10.00">triton::exceptions</text>
<text text-anchor="middle" x="322" y="-279.5" font-family="Helvetica,sans-Serif" font-size="10.00">::Bindings</text>
</a>
</g>
</g>
<!-- Node0&#45;&gt;Node18 -->
<g id="edge19" class="edge">
<title>Node0&#45;&gt;Node18</title>
<path fill="none" stroke="midnightblue" d="M234.18,-287.5C246.26,-287.5 258.84,-287.5 270.55,-287.5"/>
<polygon fill="midnightblue" stroke="midnightblue" points="234.18,-284 224.18,-287.5 234.18,-291 234.18,-284"/>
</g>
<!-- Node19 -->
<g id="node21" class="node">
<title>Node19</title>
<g id="a_node21"><a xlink:href="classtriton_1_1exceptions_1_1Callbacks.html" target="_top" xlink:title="The exception class used by callbacks.">
<polygon fill="white" stroke="black" points="271,-223.5 271,-253.5 373,-253.5 373,-223.5 271,-223.5"/>
<text text-anchor="start" x="279" y="-241.5" font-family="Helvetica,sans-Serif" font-size="10.00">triton::exceptions</text>
<text text-anchor="middle" x="322" y="-230.5" font-family="Helvetica,sans-Serif" font-size="10.00">::Callbacks</text>
</a>
</g>
</g>
<!-- Node0&#45;&gt;Node19 -->
<g id="edge20" class="edge">
<title>Node0&#45;&gt;Node19</title>
<path fill="none" stroke="midnightblue" d="M229.22,-269.09C244.6,-263.97 261.12,-258.46 275.85,-253.55"/>
<polygon fill="midnightblue" stroke="midnightblue" points="227.68,-265.92 219.3,-272.4 229.9,-272.56 227.68,-265.92"/>
</g>
<!-- Node20 -->
<g id="node22" class="node">
<title>Node20</title>
<g id="a_node22"><a xlink:href="classtriton_1_1exceptions_1_1Engines.html" target="_top" xlink:title="The exception class used by all engines.">
<polygon fill="white" stroke="black" points="271,-172.5 271,-202.5 373,-202.5 373,-172.5 271,-172.5"/>
<text text-anchor="start" x="279" y="-190.5" font-family="Helvetica,sans-Serif" font-size="10.00">triton::exceptions</text>
<text text-anchor="middle" x="322" y="-179.5" font-family="Helvetica,sans-Serif" font-size="10.00">::Engines</text>
</a>
</g>
</g>
<!-- Node0&#45;&gt;Node20 -->
<g id="edge21" class="edge">
<title>Node0&#45;&gt;Node20</title>
<path fill="none" stroke="midnightblue" d="M196.64,-265.12C213.2,-249.56 236.76,-229.08 260,-214.5 266.97,-210.13 274.76,-206.11 282.39,-202.58"/>
<polygon fill="midnightblue" stroke="midnightblue" points="193.91,-262.88 189.1,-272.31 198.75,-267.94 193.91,-262.88"/>
</g>
<!-- Node32 -->
<g id="node34" class="node">
<title>Node32</title>
<g id="a_node34"><a xlink:href="classtriton_1_1exceptions_1_1PyCallbacks.html" target="_top" xlink:title=" ">
<polygon fill="white" stroke="black" points="271,-123.5 271,-153.5 373,-153.5 373,-123.5 271,-123.5"/>
<text text-anchor="start" x="279" y="-141.5" font-family="Helvetica,sans-Serif" font-size="10.00">triton::exceptions</text>
<text text-anchor="middle" x="322" y="-130.5" font-family="Helvetica,sans-Serif" font-size="10.00">::PyCallbacks</text>
</a>
</g>
</g>
<!-- Node0&#45;&gt;Node32 -->
<g id="edge33" class="edge">
<title>Node0&#45;&gt;Node32</title>
<path fill="none" stroke="midnightblue" d="M185.48,-263.11C199.55,-235.55 225.8,-190.97 260,-163.5 264.73,-159.7 270.11,-156.4 275.68,-153.56"/>
<polygon fill="midnightblue" stroke="midnightblue" points="182.16,-261.92 180.85,-272.43 188.43,-265.03 182.16,-261.92"/>
</g>
<!-- Node3 -->
<g id="node5" class="node">
<title>Node3</title>
<g id="a_node5"><a xlink:href="classtriton_1_1exceptions_1_1AArch64OperandProperties.html" target="_top" xlink:title="The exception class used by shift mode.">
<polygon fill="white" stroke="black" points="420,-799.5 420,-829.5 574,-829.5 574,-799.5 420,-799.5"/>
<text text-anchor="start" x="428" y="-817.5" font-family="Helvetica,sans-Serif" font-size="10.00">triton::exceptions</text>
<text text-anchor="middle" x="497" y="-806.5" font-family="Helvetica,sans-Serif" font-size="10.00">::AArch64OperandProperties</text>
</a>
</g>
</g>
<!-- Node2&#45;&gt;Node3 -->
<g id="edge4" class="edge">
<title>Node2&#45;&gt;Node3</title>
<path fill="none" stroke="midnightblue" d="M380.92,-576.07C382.01,-577.16 383.04,-578.3 384,-579.5 443.48,-653.75 357.49,-718.79 420,-790.5 423,-793.94 426.49,-796.9 430.29,-799.43"/>
<polygon fill="midnightblue" stroke="midnightblue" points="382.99,-573.24 373.02,-569.64 378.57,-578.67 382.99,-573.24"/>
</g>
<!-- Node4 -->
<g id="node6" class="node">
<title>Node4</title>
<g id="a_node6"><a xlink:href="classtriton_1_1exceptions_1_1ArmOperandProperties.html" target="_top" xlink:title="The exception class used by shift mode.">
<polygon fill="white" stroke="black" points="430,-750.5 430,-780.5 564,-780.5 564,-750.5 430,-750.5"/>
<text text-anchor="start" x="438" y="-768.5" font-family="Helvetica,sans-Serif" font-size="10.00">triton::exceptions</text>
<text text-anchor="middle" x="497" y="-757.5" font-family="Helvetica,sans-Serif" font-size="10.00">::ArmOperandProperties</text>
</a>
</g>
</g>
<!-- Node2&#45;&gt;Node4 -->
<g id="edge5" class="edge">
<title>Node2&#45;&gt;Node4</title>
<path fill="none" stroke="midnightblue" d="M380.77,-576.06C381.9,-577.15 382.99,-578.3 384,-579.5 431.53,-635.9 370.17,-687.12 420,-741.5 423.18,-744.97 426.85,-747.94 430.84,-750.48"/>
<polygon fill="midnightblue" stroke="midnightblue" points="382.57,-573.02 372.54,-569.62 378.25,-578.54 382.57,-573.02"/>
</g>
<!-- Node5 -->
<g id="node7" class="node">
<title>Node5</title>
<g id="a_node7"><a xlink:href="classtriton_1_1exceptions_1_1BitsVector.html" target="_top" xlink:title="The exception class used by bitvectors.">
<polygon fill="white" stroke="black" points="446,-701.5 446,-731.5 548,-731.5 548,-701.5 446,-701.5"/>
<text text-anchor="start" x="454" y="-719.5" font-family="Helvetica,sans-Serif" font-size="10.00">triton::exceptions</text>
<text text-anchor="middle" x="497" y="-708.5" font-family="Helvetica,sans-Serif" font-size="10.00">::BitsVector</text>
</a>
</g>
</g>
<!-- Node2&#45;&gt;Node5 -->
<g id="edge6" class="edge">
<title>Node2&#45;&gt;Node5</title>
<path fill="none" stroke="midnightblue" d="M380.09,-575.72C381.46,-576.91 382.77,-578.17 384,-579.5 419.5,-617.88 383.15,-654.4 420,-691.5 427.15,-698.69 436.4,-703.82 445.97,-707.47"/>
<polygon fill="midnightblue" stroke="midnightblue" points="381.74,-572.59 371.58,-569.57 377.63,-578.26 381.74,-572.59"/>
</g>
<!-- Node6 -->
<g id="node8" class="node">
<title>Node6</title>
<g id="a_node8"><a xlink:href="classtriton_1_1exceptions_1_1Cpu.html" target="_top" xlink:title="The exception class used by all CPUs.">
<polygon fill="white" stroke="black" points="433.5,-663 433.5,-682 560.5,-682 560.5,-663 433.5,-663"/>
<text text-anchor="middle" x="497" y="-670" font-family="Helvetica,sans-Serif" font-size="10.00">triton::exceptions::Cpu</text>
</a>
</g>
</g>
<!-- Node2&#45;&gt;Node6 -->
<g id="edge7" class="edge">
<title>Node2&#45;&gt;Node6</title>
<path fill="none" stroke="midnightblue" d="M378.71,-575.09C380.57,-576.47 382.34,-577.94 384,-579.5 410.67,-604.52 391.6,-630.46 420,-653.5 424.75,-657.36 430.18,-660.44 435.91,-662.91"/>
<polygon fill="midnightblue" stroke="midnightblue" points="380.43,-572.04 370.13,-569.58 376.65,-577.93 380.43,-572.04"/>
</g>
<!-- Node9 -->
<g id="node11" class="node">
<title>Node9</title>
<g id="a_node11"><a xlink:href="classtriton_1_1exceptions_1_1Immediate.html" target="_top" xlink:title="The exception class used by immediates.">
<polygon fill="white" stroke="black" points="446,-613.5 446,-643.5 548,-643.5 548,-613.5 446,-613.5"/>
<text text-anchor="start" x="454" y="-631.5" font-family="Helvetica,sans-Serif" font-size="10.00">triton::exceptions</text>
<text text-anchor="middle" x="497" y="-620.5" font-family="Helvetica,sans-Serif" font-size="10.00">::Immediate</text>
</a>
</g>
</g>
<!-- Node2&#45;&gt;Node9 -->
<g id="edge10" class="edge">
<title>Node2&#45;&gt;Node9</title>
<path fill="none" stroke="midnightblue" d="M372.52,-573.71C376.45,-575.56 380.32,-577.5 384,-579.5 401.11,-588.8 402.51,-595.91 420,-604.5 428.07,-608.46 436.95,-611.96 445.69,-614.98"/>
<polygon fill="midnightblue" stroke="midnightblue" points="373.84,-570.47 363.28,-569.55 370.96,-576.85 373.84,-570.47"/>
</g>
<!-- Node10 -->
<g id="node12" class="node">
<title>Node10</title>
<g id="a_node12"><a xlink:href="classtriton_1_1exceptions_1_1Instruction.html" target="_top" xlink:title="The exception class used by an instruction.">
<polygon fill="white" stroke="black" points="446,-564.5 446,-594.5 548,-594.5 548,-564.5 446,-564.5"/>
<text text-anchor="start" x="454" y="-582.5" font-family="Helvetica,sans-Serif" font-size="10.00">triton::exceptions</text>
<text text-anchor="middle" x="497" y="-571.5" font-family="Helvetica,sans-Serif" font-size="10.00">::Instruction</text>
</a>
</g>
</g>
<!-- Node2&#45;&gt;Node10 -->
<g id="edge11" class="edge">
<title>Node2&#45;&gt;Node10</title>
<path fill="none" stroke="midnightblue" d="M383.18,-563.2C403.61,-566.15 426.21,-569.41 445.77,-572.24"/>
<polygon fill="midnightblue" stroke="midnightblue" points="383.44,-559.7 373.04,-561.73 382.44,-566.63 383.44,-559.7"/>
</g>
<!-- Node11 -->
<g id="node13" class="node">
<title>Node11</title>
<g id="a_node13"><a xlink:href="classtriton_1_1exceptions_1_1IrBuilder.html" target="_top" xlink:title="The exception class used by the IR builder.">
<polygon fill="white" stroke="black" points="446,-515.5 446,-545.5 548,-545.5 548,-515.5 446,-515.5"/>
<text text-anchor="start" x="454" y="-533.5" font-family="Helvetica,sans-Serif" font-size="10.00">triton::exceptions</text>
<text text-anchor="middle" x="497" y="-522.5" font-family="Helvetica,sans-Serif" font-size="10.00">::IrBuilder</text>
</a>
</g>
</g>
<!-- Node2&#45;&gt;Node11 -->
<g id="edge12" class="edge">
<title>Node2&#45;&gt;Node11</title>
<path fill="none" stroke="midnightblue" d="M383.18,-546.15C403.61,-543.32 426.21,-540.18 445.77,-537.47"/>
<polygon fill="midnightblue" stroke="midnightblue" points="382.46,-542.72 373.04,-547.56 383.42,-549.65 382.46,-542.72"/>
</g>
<!-- Node12 -->
<g id="node14" class="node">
<title>Node12</title>
<g id="a_node14"><a xlink:href="classtriton_1_1exceptions_1_1MemoryAccess.html" target="_top" xlink:title="The exception class used by memory access.">
<polygon fill="white" stroke="black" points="446,-466.5 446,-496.5 548,-496.5 548,-466.5 446,-466.5"/>
<text text-anchor="start" x="454" y="-484.5" font-family="Helvetica,sans-Serif" font-size="10.00">triton::exceptions</text>
<text text-anchor="middle" x="497" y="-473.5" font-family="Helvetica,sans-Serif" font-size="10.00">::MemoryAccess</text>
</a>
</g>
</g>
<!-- Node2&#45;&gt;Node12 -->
<g id="edge13" class="edge">
<title>Node2&#45;&gt;Node12</title>
<path fill="none" stroke="midnightblue" d="M359.9,-534.7C377.77,-525.51 399.71,-514.81 420,-506.5 428.48,-503.03 437.64,-499.68 446.57,-496.63"/>
<polygon fill="midnightblue" stroke="midnightblue" points="358.21,-531.63 350.95,-539.35 361.44,-537.85 358.21,-531.63"/>
</g>
<!-- Node13 -->
<g id="node15" class="node">
<title>Node13</title>
<g id="a_node15"><a xlink:href="classtriton_1_1exceptions_1_1OperandWrapper.html" target="_top" xlink:title="The exception class used by operand wrappers.">
<polygon fill="white" stroke="black" points="444.5,-417.5 444.5,-447.5 549.5,-447.5 549.5,-417.5 444.5,-417.5"/>
<text text-anchor="start" x="452.5" y="-435.5" font-family="Helvetica,sans-Serif" font-size="10.00">triton::exceptions</text>
<text text-anchor="middle" x="497" y="-424.5" font-family="Helvetica,sans-Serif" font-size="10.00">::OperandWrapper</text>
</a>
</g>
</g>
<!-- Node2&#45;&gt;Node13 -->
<g id="edge14" class="edge">
<title>Node2&#45;&gt;Node13</title>
<path fill="none" stroke="midnightblue" d="M340.73,-531.34C358.58,-509.48 387.99,-477.2 420,-457.5 427.45,-452.91 435.84,-449.07 444.25,-445.88"/>
<polygon fill="midnightblue" stroke="midnightblue" points="337.99,-529.16 334.47,-539.16 343.45,-533.54 337.99,-529.16"/>
</g>
<!-- Node14 -->
<g id="node16" class="node">
<title>Node14</title>
<g id="a_node16"><a xlink:href="classtriton_1_1exceptions_1_1Register.html" target="_top" xlink:title="The exception class used by register operands.">
<polygon fill="white" stroke="black" points="446,-368.5 446,-398.5 548,-398.5 548,-368.5 446,-368.5"/>
<text text-anchor="start" x="454" y="-386.5" font-family="Helvetica,sans-Serif" font-size="10.00">triton::exceptions</text>
<text text-anchor="middle" x="497" y="-375.5" font-family="Helvetica,sans-Serif" font-size="10.00">::Register</text>
</a>
</g>
</g>
<!-- Node2&#45;&gt;Node14 -->
<g id="edge15" class="edge">
<title>Node2&#45;&gt;Node14</title>
<path fill="none" stroke="midnightblue" d="M333.06,-530.04C347.59,-497.67 377.44,-440.93 420,-408.5 427.62,-402.69 436.66,-398.2 445.79,-394.73"/>
<polygon fill="midnightblue" stroke="midnightblue" points="329.84,-528.69 329.05,-539.25 336.25,-531.48 329.84,-528.69"/>
</g>
<!-- Node7 -->
<g id="node9" class="node">
<title>Node7</title>
<g id="a_node9"><a xlink:href="classtriton_1_1exceptions_1_1Disassembly.html" target="_top" xlink:title="The exception class used by the disassembler.">
<polygon fill="white" stroke="black" points="626,-681.5 626,-711.5 728,-711.5 728,-681.5 626,-681.5"/>
<text text-anchor="start" x="634" y="-699.5" font-family="Helvetica,sans-Serif" font-size="10.00">triton::exceptions</text>
<text text-anchor="middle" x="677" y="-688.5" font-family="Helvetica,sans-Serif" font-size="10.00">::Disassembly</text>
</a>
</g>
</g>
<!-- Node6&#45;&gt;Node7 -->
<g id="edge8" class="edge">
<title>Node6&#45;&gt;Node7</title>
<path fill="none" stroke="midnightblue" d="M570.44,-682.27C589.08,-684.78 608.73,-687.43 625.96,-689.75"/>
<polygon fill="midnightblue" stroke="midnightblue" points="570.88,-678.8 560.51,-680.93 569.95,-685.73 570.88,-678.8"/>
</g>
<!-- Node8 -->
<g id="node10" class="node">
<title>Node8</title>
<g id="a_node10"><a xlink:href="classtriton_1_1exceptions_1_1Semantics.html" target="_top" xlink:title="The exception class used by all semantics.">
<polygon fill="white" stroke="black" points="626,-632.5 626,-662.5 728,-662.5 728,-632.5 626,-632.5"/>
<text text-anchor="start" x="634" y="-650.5" font-family="Helvetica,sans-Serif" font-size="10.00">triton::exceptions</text>
<text text-anchor="middle" x="677" y="-639.5" font-family="Helvetica,sans-Serif" font-size="10.00">::Semantics</text>
</a>
</g>
</g>
<!-- Node6&#45;&gt;Node8 -->
<g id="edge9" class="edge">
<title>Node6&#45;&gt;Node8</title>
<path fill="none" stroke="midnightblue" d="M570.44,-662.33C589.08,-659.71 608.73,-656.95 625.96,-654.53"/>
<polygon fill="midnightblue" stroke="midnightblue" points="569.92,-658.86 560.51,-663.72 570.9,-665.8 569.92,-658.86"/>
</g>
<!-- Node16 -->
<g id="node18" class="node">
<title>Node16</title>
<g id="a_node18"><a xlink:href="classtriton_1_1exceptions_1_1AstLifting.html" target="_top" xlink:title="The exception class used by all AST lifting (e.g z3 &lt;&#45;&gt; triton).">
<polygon fill="white" stroke="black" points="446,-319.5 446,-349.5 548,-349.5 548,-319.5 446,-319.5"/>
<text text-anchor="start" x="454" y="-337.5" font-family="Helvetica,sans-Serif" font-size="10.00">triton::exceptions</text>
<text text-anchor="middle" x="497" y="-326.5" font-family="Helvetica,sans-Serif" font-size="10.00">::AstLifting</text>
</a>
</g>
</g>
<!-- Node15&#45;&gt;Node16 -->
<g id="edge17" class="edge">
<title>Node15&#45;&gt;Node16</title>
<path fill="none" stroke="midnightblue" d="M394.51,-332.74C411.75,-333.04 429.81,-333.35 445.83,-333.63"/>
<polygon fill="midnightblue" stroke="midnightblue" points="394.54,-329.24 384.48,-332.57 394.42,-336.24 394.54,-329.24"/>
</g>
<!-- Node17 -->
<g id="node19" class="node">
<title>Node17</title>
<g id="a_node19"><a xlink:href="classtriton_1_1exceptions_1_1AstRepresentation.html" target="_top" xlink:title="The exception class used by all AST node representations.">
<polygon fill="white" stroke="black" points="440.5,-270.5 440.5,-300.5 553.5,-300.5 553.5,-270.5 440.5,-270.5"/>
<text text-anchor="start" x="448.5" y="-288.5" font-family="Helvetica,sans-Serif" font-size="10.00">triton::exceptions</text>
<text text-anchor="middle" x="497" y="-277.5" font-family="Helvetica,sans-Serif" font-size="10.00">::AstRepresentation</text>
</a>
</g>
</g>
<!-- Node15&#45;&gt;Node17 -->
<g id="edge18" class="edge">
<title>Node15&#45;&gt;Node17</title>
<path fill="none" stroke="midnightblue" d="M368.61,-319.37C390.63,-313.52 417.25,-306.44 440.44,-300.27"/>
<polygon fill="midnightblue" stroke="midnightblue" points="367.61,-316.02 358.85,-321.97 369.41,-322.78 367.61,-316.02"/>
</g>
<!-- Node21 -->
<g id="node23" class="node">
<title>Node21</title>
<g id="a_node23"><a xlink:href="classtriton_1_1exceptions_1_1LiftingEngine.html" target="_top" xlink:title="The exception class used by the lifting engine.">
<polygon fill="white" stroke="black" points="446,-221.5 446,-251.5 548,-251.5 548,-221.5 446,-221.5"/>
<text text-anchor="start" x="454" y="-239.5" font-family="Helvetica,sans-Serif" font-size="10.00">triton::exceptions</text>
<text text-anchor="middle" x="497" y="-228.5" font-family="Helvetica,sans-Serif" font-size="10.00">::LiftingEngine</text>
</a>
</g>
</g>
<!-- Node20&#45;&gt;Node21 -->
<g id="edge22" class="edge">
<title>Node20&#45;&gt;Node21</title>
<path fill="none" stroke="midnightblue" d="M382.9,-204.47C403.41,-210.27 426.12,-216.71 445.77,-222.27"/>
<polygon fill="midnightblue" stroke="midnightblue" points="383.61,-201.03 373.04,-201.67 381.71,-207.77 383.61,-201.03"/>
</g>
<!-- Node22 -->
<g id="node24" class="node">
<title>Node22</title>
<g id="a_node24"><a xlink:href="classtriton_1_1exceptions_1_1SolverEngine.html" target="_top" xlink:title="The exception class used by the solver engine.">
<polygon fill="white" stroke="black" points="446,-172.5 446,-202.5 548,-202.5 548,-172.5 446,-172.5"/>
<text text-anchor="start" x="454" y="-190.5" font-family="Helvetica,sans-Serif" font-size="10.00">triton::exceptions</text>
<text text-anchor="middle" x="497" y="-179.5" font-family="Helvetica,sans-Serif" font-size="10.00">::SolverEngine</text>
</a>
</g>
</g>
<!-- Node20&#45;&gt;Node22 -->
<g id="edge23" class="edge">
<title>Node20&#45;&gt;Node22</title>
<path fill="none" stroke="midnightblue" d="M383.18,-187.5C403.61,-187.5 426.21,-187.5 445.77,-187.5"/>
<polygon fill="midnightblue" stroke="midnightblue" points="383.04,-184 373.04,-187.5 383.04,-191 383.04,-184"/>
</g>
<!-- Node24 -->
<g id="node26" class="node">
<title>Node24</title>
<g id="a_node26"><a xlink:href="classtriton_1_1exceptions_1_1SymbolicEngine.html" target="_top" xlink:title="The exception class used by the symbolic engine.">
<polygon fill="white" stroke="black" points="446,-123.5 446,-153.5 548,-153.5 548,-123.5 446,-123.5"/>
<text text-anchor="start" x="454" y="-141.5" font-family="Helvetica,sans-Serif" font-size="10.00">triton::exceptions</text>
<text text-anchor="middle" x="497" y="-130.5" font-family="Helvetica,sans-Serif" font-size="10.00">::SymbolicEngine</text>
</a>
</g>
</g>
<!-- Node20&#45;&gt;Node24 -->
<g id="edge25" class="edge">
<title>Node20&#45;&gt;Node24</title>
<path fill="none" stroke="midnightblue" d="M382.9,-170.53C403.41,-164.73 426.12,-158.29 445.77,-152.73"/>
<polygon fill="midnightblue" stroke="midnightblue" points="381.71,-167.23 373.04,-173.33 383.61,-173.97 381.71,-167.23"/>
</g>
<!-- Node30 -->
<g id="node32" class="node">
<title>Node30</title>
<g id="a_node32"><a xlink:href="classtriton_1_1exceptions_1_1SynthesizerEngine.html" target="_top" xlink:title="The exception class used by the synthesizer engine.">
<polygon fill="white" stroke="black" points="440.5,-74.5 440.5,-104.5 553.5,-104.5 553.5,-74.5 440.5,-74.5"/>
<text text-anchor="start" x="448.5" y="-92.5" font-family="Helvetica,sans-Serif" font-size="10.00">triton::exceptions</text>
<text text-anchor="middle" x="497" y="-81.5" font-family="Helvetica,sans-Serif" font-size="10.00">::SynthesizerEngine</text>
</a>
</g>
</g>
<!-- Node20&#45;&gt;Node30 -->
<g id="edge31" class="edge">
<title>Node20&#45;&gt;Node30</title>
<path fill="none" stroke="midnightblue" d="M378.37,-167.44C380.32,-166.19 382.2,-164.88 384,-163.5 405.41,-147.02 398.12,-130.37 420,-114.5 426.18,-110.01 433.22,-106.3 440.45,-103.24"/>
<polygon fill="midnightblue" stroke="midnightblue" points="376.46,-164.5 369.48,-172.47 379.91,-170.59 376.46,-164.5"/>
</g>
<!-- Node31 -->
<g id="node33" class="node">
<title>Node31</title>
<g id="a_node33"><a xlink:href="classtriton_1_1exceptions_1_1TaintEngine.html" target="_top" xlink:title="The exception class used by the taint engine.">
<polygon fill="white" stroke="black" points="446,-25.5 446,-55.5 548,-55.5 548,-25.5 446,-25.5"/>
<text text-anchor="start" x="454" y="-43.5" font-family="Helvetica,sans-Serif" font-size="10.00">triton::exceptions</text>
<text text-anchor="middle" x="497" y="-32.5" font-family="Helvetica,sans-Serif" font-size="10.00">::TaintEngine</text>
</a>
</g>
</g>
<!-- Node20&#45;&gt;Node31 -->
<g id="edge32" class="edge">
<title>Node20&#45;&gt;Node31</title>
<path fill="none" stroke="midnightblue" d="M381.06,-166.27C382.08,-165.39 383.06,-164.46 384,-163.5 416.43,-130.32 386.63,-97.74 420,-65.5 427.19,-58.55 436.35,-53.53 445.8,-49.91"/>
<polygon fill="midnightblue" stroke="midnightblue" points="378.65,-163.69 372.61,-172.39 382.76,-169.36 378.65,-163.69"/>
</g>
<!-- Node23 -->
<g id="node25" class="node">
<title>Node23</title>
<g id="a_node25"><a xlink:href="classtriton_1_1exceptions_1_1SolverModel.html" target="_top" xlink:title="The exception class used by solver models.">
<polygon fill="white" stroke="black" points="626,-245.5 626,-275.5 728,-275.5 728,-245.5 626,-245.5"/>
<text text-anchor="start" x="634" y="-263.5" font-family="Helvetica,sans-Serif" font-size="10.00">triton::exceptions</text>
<text text-anchor="middle" x="677" y="-252.5" font-family="Helvetica,sans-Serif" font-size="10.00">::SolverModel</text>
</a>
</g>
</g>
<!-- Node22&#45;&gt;Node23 -->
<g id="edge24" class="edge">
<title>Node22&#45;&gt;Node23</title>
<path fill="none" stroke="midnightblue" d="M557.68,-205.41C563.28,-207.6 568.8,-209.97 574,-212.5 591.29,-220.91 592.84,-227.82 610,-236.5 616.31,-239.69 623.15,-242.67 629.95,-245.37"/>
<polygon fill="midnightblue" stroke="midnightblue" points="558.82,-202.1 548.23,-201.89 556.38,-208.66 558.82,-202.1"/>
</g>
<!-- Node25 -->
<g id="node27" class="node">
<title>Node25</title>
<g id="a_node27"><a xlink:href="classtriton_1_1exceptions_1_1PathConstraint.html" target="_top" xlink:title="The exception class used by path constraints.">
<polygon fill="white" stroke="black" points="626,-196.5 626,-226.5 728,-226.5 728,-196.5 626,-196.5"/>
<text text-anchor="start" x="634" y="-214.5" font-family="Helvetica,sans-Serif" font-size="10.00">triton::exceptions</text>
<text text-anchor="middle" x="677" y="-203.5" font-family="Helvetica,sans-Serif" font-size="10.00">::PathConstraint</text>
</a>
</g>
</g>
<!-- Node24&#45;&gt;Node25 -->
<g id="edge26" class="edge">
<title>Node24&#45;&gt;Node25</title>
<path fill="none" stroke="midnightblue" d="M557.68,-156.41C563.28,-158.6 568.8,-160.97 574,-163.5 591.29,-171.91 592.84,-178.82 610,-187.5 616.31,-190.69 623.15,-193.67 629.95,-196.37"/>
<polygon fill="midnightblue" stroke="midnightblue" points="558.82,-153.1 548.23,-152.89 556.38,-159.66 558.82,-153.1"/>
</g>
<!-- Node26 -->
<g id="node28" class="node">
<title>Node26</title>
<g id="a_node28"><a xlink:href="classtriton_1_1exceptions_1_1PathManager.html" target="_top" xlink:title="The exception class used by the path manager.">
<polygon fill="white" stroke="black" points="626,-147.5 626,-177.5 728,-177.5 728,-147.5 626,-147.5"/>
<text text-anchor="start" x="634" y="-165.5" font-family="Helvetica,sans-Serif" font-size="10.00">triton::exceptions</text>
<text text-anchor="middle" x="677" y="-154.5" font-family="Helvetica,sans-Serif" font-size="10.00">::PathManager</text>
</a>
</g>
</g>
<!-- Node24&#45;&gt;Node26 -->
<g id="edge27" class="edge">
<title>Node24&#45;&gt;Node26</title>
<path fill="none" stroke="midnightblue" d="M558.26,-146.62C580.19,-149.58 604.73,-152.89 625.7,-155.72"/>
<polygon fill="midnightblue" stroke="midnightblue" points="558.43,-143.12 548.06,-145.25 557.5,-150.05 558.43,-143.12"/>
</g>
<!-- Node27 -->
<g id="node29" class="node">
<title>Node27</title>
<g id="a_node29"><a xlink:href="classtriton_1_1exceptions_1_1SymbolicExpression.html" target="_top" xlink:title="The exception class used by symbolic expressions.">
<polygon fill="white" stroke="black" points="616.5,-98.5 616.5,-128.5 737.5,-128.5 737.5,-98.5 616.5,-98.5"/>
<text text-anchor="start" x="624.5" y="-116.5" font-family="Helvetica,sans-Serif" font-size="10.00">triton::exceptions</text>
<text text-anchor="middle" x="677" y="-105.5" font-family="Helvetica,sans-Serif" font-size="10.00">::SymbolicExpression</text>
</a>
</g>
</g>
<!-- Node24&#45;&gt;Node27 -->
<g id="edge28" class="edge">
<title>Node24&#45;&gt;Node27</title>
<path fill="none" stroke="midnightblue" d="M557.97,-130.08C576.75,-127.44 597.46,-124.53 616.22,-121.9"/>
<polygon fill="midnightblue" stroke="midnightblue" points="557.47,-126.61 548.06,-131.47 558.45,-133.54 557.47,-126.61"/>
</g>
<!-- Node28 -->
<g id="node30" class="node">
<title>Node28</title>
<g id="a_node30"><a xlink:href="classtriton_1_1exceptions_1_1SymbolicSimplification.html" target="_top" xlink:title="The exception class used by symbolic simplifications.">
<polygon fill="white" stroke="black" points="610,-49.5 610,-79.5 744,-79.5 744,-49.5 610,-49.5"/>
<text text-anchor="start" x="618" y="-67.5" font-family="Helvetica,sans-Serif" font-size="10.00">triton::exceptions</text>
<text text-anchor="middle" x="677" y="-56.5" font-family="Helvetica,sans-Serif" font-size="10.00">::SymbolicSimplification</text>
</a>
</g>
</g>
<!-- Node24&#45;&gt;Node28 -->
<g id="edge29" class="edge">
<title>Node24&#45;&gt;Node28</title>
<path fill="none" stroke="midnightblue" d="M557.74,-121.54C563.33,-119.39 568.83,-117.04 574,-114.5 591.49,-105.91 592.76,-98.57 610,-89.5 616.83,-85.9 624.3,-82.56 631.67,-79.57"/>
<polygon fill="midnightblue" stroke="midnightblue" points="556.51,-118.27 548.31,-124.98 558.9,-124.84 556.51,-118.27"/>
</g>
<!-- Node29 -->
<g id="node31" class="node">
<title>Node29</title>
<g id="a_node31"><a xlink:href="classtriton_1_1exceptions_1_1SymbolicVariable.html" target="_top" xlink:title="The exception class used by symbolic variables.">
<polygon fill="white" stroke="black" points="623.5,-0.5 623.5,-30.5 730.5,-30.5 730.5,-0.5 623.5,-0.5"/>
<text text-anchor="start" x="631.5" y="-18.5" font-family="Helvetica,sans-Serif" font-size="10.00">triton::exceptions</text>
<text text-anchor="middle" x="677" y="-7.5" font-family="Helvetica,sans-Serif" font-size="10.00">::SymbolicVariable</text>
</a>
</g>
</g>
<!-- Node24&#45;&gt;Node29 -->
<g id="edge30" class="edge">
<title>Node24&#45;&gt;Node29</title>
<path fill="none" stroke="midnightblue" d="M557.59,-125.08C563.52,-122.21 569.13,-118.72 574,-114.5 601.93,-90.27 582.6,-64.32 610,-39.5 613.98,-35.9 618.53,-32.83 623.36,-30.21"/>
<polygon fill="midnightblue" stroke="midnightblue" points="555.92,-121.98 548.08,-129.1 558.65,-128.43 555.92,-121.98"/>
</g>
</g>
</svg>
