<?xml version="1.0" encoding="UTF-8" standalone="no"?>
<!DOCTYPE svg PUBLIC "-//W3C//DTD SVG 1.1//EN"
 "http://www.w3.org/Graphics/SVG/1.1/DTD/svg11.dtd">
<!-- Generated by graphviz version 9.0.0 (20230911.1827)
 -->
<!-- Title: Graphical Class Hierarchy Pages: 1 -->
<svg width="296pt" height="107pt"
 viewBox="0.00 0.00 295.75 106.88" xmlns="http://www.w3.org/2000/svg" xmlns:xlink="http://www.w3.org/1999/xlink">
<g id="graph0" class="graph" transform="scale(1 1) rotate(0) translate(4 102.88)">
<title>Graphical Class Hierarchy</title>
<!-- Node0 -->
<g id="Node000000" class="node">
<title>Node0</title>
<g id="a_Node000000"><a xlink:href="classtriton_1_1arch_1_1arm_1_1ArmOperandProperties.html" target="_top" xlink:title="This class is used to represent specific properties of an Arm operand.">
<polygon fill="white" stroke="#666666" points="115,-98.88 0,-98.88 0,-68.38 115,-68.38 115,-98.88"/>
<text text-anchor="start" x="8" y="-85.38" font-family="Helvetica,sans-Serif" font-size="10.00">triton::arch::arm::</text>
<text text-anchor="middle" x="57.5" y="-74.12" font-family="Helvetica,sans-Serif" font-size="10.00">ArmOperandProperties</text>
</a>
</g>
</g>
<!-- Node1 -->
<g id="Node000001" class="node">
<title>Node1</title>
<g id="a_Node000001"><a xlink:href="classtriton_1_1arch_1_1Immediate.html" target="_top" xlink:title="This class is used to represent an immediate.">
<polygon fill="white" stroke="#666666" points="276.5,-56.25 162.25,-56.25 162.25,-37 276.5,-37 276.5,-56.25"/>
<text text-anchor="middle" x="219.38" y="-42.75" font-family="Helvetica,sans-Serif" font-size="10.00">triton::arch::Immediate</text>
</a>
</g>
</g>
<!-- Node0&#45;&gt;Node1 -->
<g id="edge105_Node000000_Node000001" class="edge">
<title>Node0&#45;&gt;Node1</title>
<g id="a_edge105_Node000000_Node000001"><a xlink:title=" ">
<path fill="none" stroke="#63b8ff" d="M126.5,-67.89C142.86,-64.1 159.91,-60.16 174.81,-56.71"/>
<polygon fill="#63b8ff" stroke="#63b8ff" points="125.74,-64.47 116.79,-70.13 127.32,-71.29 125.74,-64.47"/>
</a>
</g>
</g>
<!-- Node4 -->
<g id="Node000004" class="node">
<title>Node4</title>
<g id="a_Node000004"><a xlink:href="classtriton_1_1arch_1_1Register.html" target="_top" xlink:title="This class is used when an instruction has a register operand.">
<polygon fill="white" stroke="#666666" points="272,-93.25 166.75,-93.25 166.75,-74 272,-74 272,-93.25"/>
<text text-anchor="middle" x="219.38" y="-79.75" font-family="Helvetica,sans-Serif" font-size="10.00">triton::arch::Register</text>
</a>
</g>
</g>
<!-- Node0&#45;&gt;Node4 -->
<g id="edge106_Node000000_Node000004" class="edge">
<title>Node0&#45;&gt;Node4</title>
<g id="a_edge106_Node000000_Node000004"><a xlink:title=" ">
<path fill="none" stroke="#63b8ff" d="M126.79,-83.62C140.01,-83.62 153.67,-83.62 166.28,-83.62"/>
<polygon fill="#63b8ff" stroke="#63b8ff" points="126.83,-80.13 116.83,-83.63 126.83,-87.13 126.83,-80.13"/>
</a>
</g>
</g>
<!-- Node2 -->
<g id="Node000002" class="node">
<title>Node2</title>
<g id="a_Node000002"><a xlink:href="classtriton_1_1arch_1_1BitsVector.html" target="_top" xlink:title="This class is used to deal with registers and memory as bits vector.">
<polygon fill="white" stroke="#666666" points="114.62,-50.25 0.37,-50.25 0.37,-31 114.62,-31 114.62,-50.25"/>
<text text-anchor="middle" x="57.5" y="-36.75" font-family="Helvetica,sans-Serif" font-size="10.00">triton::arch::BitsVector</text>
</a>
</g>
</g>
<!-- Node2&#45;&gt;Node1 -->
<g id="edge107_Node000002_Node000001" class="edge">
<title>Node2&#45;&gt;Node1</title>
<g id="a_edge107_Node000002_Node000001"><a xlink:title=" ">
<path fill="none" stroke="#63b8ff" d="M126.16,-43.16C138.09,-43.61 150.4,-44.07 161.98,-44.51"/>
<polygon fill="#63b8ff" stroke="#63b8ff" points="126.5,-39.67 116.38,-42.8 126.24,-46.67 126.5,-39.67"/>
</a>
</g>
</g>
<!-- Node2&#45;&gt;Node4 -->
<g id="edge109_Node000002_Node000004" class="edge">
<title>Node2&#45;&gt;Node4</title>
<g id="a_edge109_Node000002_Node000004"><a xlink:title=" ">
<path fill="none" stroke="#63b8ff" d="M106.9,-53.73C121.11,-57.58 136.68,-61.78 151,-65.62 160.59,-68.2 170.95,-70.97 180.6,-73.55"/>
<polygon fill="#63b8ff" stroke="#63b8ff" points="107.88,-50.37 97.31,-51.14 106.05,-57.13 107.88,-50.37"/>
</a>
</g>
</g>
<!-- Node3 -->
<g id="Node000003" class="node">
<title>Node3</title>
<g id="a_Node000003"><a xlink:href="classtriton_1_1arch_1_1MemoryAccess.html" target="_top" xlink:title="This class is used to represent a memory access.">
<polygon fill="white" stroke="#666666" points="287.75,-19.25 151,-19.25 151,0 287.75,0 287.75,-19.25"/>
<text text-anchor="middle" x="219.38" y="-5.75" font-family="Helvetica,sans-Serif" font-size="10.00">triton::arch::MemoryAccess</text>
</a>
</g>
</g>
<!-- Node2&#45;&gt;Node3 -->
<g id="edge108_Node000002_Node000003" class="edge">
<title>Node2&#45;&gt;Node3</title>
<g id="a_edge108_Node000002_Node000003"><a xlink:title=" ">
<path fill="none" stroke="#63b8ff" d="M121.53,-28.4C136.32,-25.54 151.92,-22.51 166.18,-19.75"/>
<polygon fill="#63b8ff" stroke="#63b8ff" points="121.04,-24.93 111.89,-30.27 122.38,-31.8 121.04,-24.93"/>
</a>
</g>
</g>
</g>
</svg>
