<?xml version="1.0" encoding="UTF-8" standalone="no"?>
<!DOCTYPE svg PUBLIC "-//W3C//DTD SVG 1.1//EN"
 "http://www.w3.org/Graphics/SVG/1.1/DTD/svg11.dtd">
<!-- Generated by graphviz version 7.0.0 (20221023.0053)
 -->
<!-- Title: Graphical Class Hierarchy Pages: 1 -->
<svg width="297pt" height="107pt"
 viewBox="0.00 0.00 297.00 106.50" xmlns="http://www.w3.org/2000/svg" xmlns:xlink="http://www.w3.org/1999/xlink">
<g id="graph0" class="graph" transform="scale(1 1) rotate(0) translate(4 102.5)">
<title>Graphical Class Hierarchy</title>
<!-- Node0 -->
<g id="node1" class="node">
<title>Node0</title>
<g id="a_node1"><a xlink:href="classtriton_1_1arch_1_1arm_1_1ArmOperandProperties.html" target="_top" xlink:title="This class is used to represent specific properties of an Arm operand.">
<polygon fill="white" stroke="#666666" points="116,-98.5 0,-98.5 0,-68.5 116,-68.5 116,-98.5"/>
<text text-anchor="start" x="8" y="-86.5" font-family="Helvetica,sans-Serif" font-size="10.00">triton::arch::arm::</text>
<text text-anchor="middle" x="58" y="-75.5" font-family="Helvetica,sans-Serif" font-size="10.00">ArmOperandProperties</text>
</a>
</g>
</g>
<!-- Node1 -->
<g id="node2" class="node">
<title>Node1</title>
<g id="a_node2"><a xlink:href="classtriton_1_1arch_1_1Immediate.html" target="_top" xlink:title="This class is used to represent an immediate.">
<polygon fill="white" stroke="#666666" points="278,-56 163,-56 163,-37 278,-37 278,-56"/>
<text text-anchor="middle" x="220.5" y="-44" font-family="Helvetica,sans-Serif" font-size="10.00">triton::arch::Immediate</text>
</a>
</g>
</g>
<!-- Node0&#45;&gt;Node1 -->
<g id="edge1" class="edge">
<title>Node0&#45;&gt;Node1</title>
<path fill="none" stroke="#63b8ff" d="M127.27,-67.76C143.88,-63.93 161.19,-59.94 176.26,-56.47"/>
<polygon fill="#63b8ff" stroke="#63b8ff" points="126.92,-64.25 117.97,-69.91 128.5,-71.07 126.92,-64.25"/>
</g>
<!-- Node4 -->
<g id="node3" class="node">
<title>Node4</title>
<g id="a_node3"><a xlink:href="classtriton_1_1arch_1_1Register.html" target="_top" xlink:title="This class is used when an instruction has a register operand.">
<polygon fill="white" stroke="#666666" points="273.5,-93 167.5,-93 167.5,-74 273.5,-74 273.5,-93"/>
<text text-anchor="middle" x="220.5" y="-81" font-family="Helvetica,sans-Serif" font-size="10.00">triton::arch::Register</text>
</a>
</g>
</g>
<!-- Node0&#45;&gt;Node4 -->
<g id="edge2" class="edge">
<title>Node0&#45;&gt;Node4</title>
<path fill="none" stroke="#63b8ff" d="M127.92,-83.5C141.09,-83.5 154.67,-83.5 167.22,-83.5"/>
<polygon fill="#63b8ff" stroke="#63b8ff" points="128,-80 118,-83.5 128,-87 128,-80"/>
</g>
<!-- Node2 -->
<g id="node4" class="node">
<title>Node2</title>
<g id="a_node4"><a xlink:href="classtriton_1_1arch_1_1BitsVector.html" target="_top" xlink:title="This class is used to deal with registers and memory as bits vector.">
<polygon fill="white" stroke="#666666" points="115.5,-50 0.5,-50 0.5,-31 115.5,-31 115.5,-50"/>
<text text-anchor="middle" x="58" y="-38" font-family="Helvetica,sans-Serif" font-size="10.00">triton::arch::BitsVector</text>
</a>
</g>
</g>
<!-- Node2&#45;&gt;Node1 -->
<g id="edge3" class="edge">
<title>Node2&#45;&gt;Node1</title>
<path fill="none" stroke="#63b8ff" d="M126.85,-43.04C138.76,-43.48 151.04,-43.94 162.61,-44.37"/>
<polygon fill="#63b8ff" stroke="#63b8ff" points="127.22,-39.55 117.1,-42.67 126.96,-46.54 127.22,-39.55"/>
</g>
<!-- Node2&#45;&gt;Node4 -->
<g id="edge5" class="edge">
<title>Node2&#45;&gt;Node4</title>
<path fill="none" stroke="#63b8ff" d="M106.86,-53.39C121.36,-57.28 137.33,-61.57 152,-65.5 161.72,-68.1 172.24,-70.91 182.01,-73.52"/>
<polygon fill="#63b8ff" stroke="#63b8ff" points="108.13,-50.1 97.57,-50.89 106.31,-56.86 108.13,-50.1"/>
</g>
<!-- Node3 -->
<g id="node5" class="node">
<title>Node3</title>
<g id="a_node5"><a xlink:href="classtriton_1_1arch_1_1MemoryAccess.html" target="_top" xlink:title="This class is used to represent a memory access.">
<polygon fill="white" stroke="#666666" points="289,-19 152,-19 152,0 289,0 289,-19"/>
<text text-anchor="middle" x="220.5" y="-7" font-family="Helvetica,sans-Serif" font-size="10.00">triton::arch::MemoryAccess</text>
</a>
</g>
</g>
<!-- Node2&#45;&gt;Node3 -->
<g id="edge4" class="edge">
<title>Node2&#45;&gt;Node3</title>
<path fill="none" stroke="#63b8ff" d="M121.63,-28.4C136.96,-25.44 153.19,-22.31 167.93,-19.46"/>
<polygon fill="#63b8ff" stroke="#63b8ff" points="121.31,-24.9 112.15,-30.23 122.64,-31.77 121.31,-24.9"/>
</g>
</g>
</svg>
