<?xml version="1.0" encoding="UTF-8" standalone="no"?>
<!DOCTYPE svg PUBLIC "-//W3C//DTD SVG 1.1//EN"
 "http://www.w3.org/Graphics/SVG/1.1/DTD/svg11.dtd">
<!-- Generated by graphviz version 7.0.0 (20221023.0053)
 -->
<!-- Title: Graphical Class Hierarchy Pages: 1 -->
<svg width="698pt" height="868pt"
 viewBox="0.00 0.00 698.00 868.00" xmlns="http://www.w3.org/2000/svg" xmlns:xlink="http://www.w3.org/1999/xlink">
<g id="graph0" class="graph" transform="scale(1 1) rotate(0) translate(4 864)">
<title>Graphical Class Hierarchy</title>
<!-- Node0 -->
<g id="node1" class="node">
<title>Node0</title>
<g id="a_node1"><a xlink:title=" ">
<polygon fill="#e0e0e0" stroke="#999999" points="78,-242.5 0,-242.5 0,-223.5 78,-223.5 78,-242.5"/>
<text text-anchor="middle" x="39" y="-230.5" font-family="Helvetica,sans-Serif" font-size="10.00">std::exception</text>
</a>
</g>
</g>
<!-- Node1 -->
<g id="node2" class="node">
<title>Node1</title>
<g id="a_node2"><a xlink:href="classtriton_1_1exceptions_1_1Exception.html" target="_top" xlink:title="The root class of all exceptions.">
<polygon fill="white" stroke="#666666" points="206,-248 114,-248 114,-218 206,-218 206,-248"/>
<text text-anchor="start" x="122" y="-236" font-family="Helvetica,sans-Serif" font-size="10.00">triton::exceptions</text>
<text text-anchor="middle" x="160" y="-225" font-family="Helvetica,sans-Serif" font-size="10.00">::Exception</text>
</a>
</g>
</g>
<!-- Node0&#45;&gt;Node1 -->
<g id="edge1" class="edge">
<title>Node0&#45;&gt;Node1</title>
<path fill="none" stroke="#63b8ff" d="M89.72,-233C97.67,-233 105.86,-233 113.71,-233"/>
<polygon fill="#63b8ff" stroke="#63b8ff" points="89.82,-229.5 79.82,-233 89.82,-236.5 89.82,-229.5"/>
</g>
<!-- Node2 -->
<g id="node3" class="node">
<title>Node2</title>
<g id="a_node3"><a xlink:href="classtriton_1_1exceptions_1_1Architecture.html" target="_top" xlink:title="The exception class used by architectures.">
<polygon fill="white" stroke="#666666" points="344.5,-606 252.5,-606 252.5,-576 344.5,-576 344.5,-606"/>
<text text-anchor="start" x="260.5" y="-594" font-family="Helvetica,sans-Serif" font-size="10.00">triton::exceptions</text>
<text text-anchor="middle" x="298.5" y="-583" font-family="Helvetica,sans-Serif" font-size="10.00">::Architecture</text>
</a>
</g>
</g>
<!-- Node1&#45;&gt;Node2 -->
<g id="edge2" class="edge">
<title>Node1&#45;&gt;Node2</title>
<path fill="none" stroke="#63b8ff" d="M170.87,-258.89C197.55,-328.85 270.47,-520.11 291.66,-575.67"/>
<polygon fill="#63b8ff" stroke="#63b8ff" points="174.24,-257.89 167.4,-249.8 167.7,-260.39 174.24,-257.89"/>
</g>
<!-- Node16 -->
<g id="node17" class="node">
<title>Node16</title>
<g id="a_node17"><a xlink:href="classtriton_1_1exceptions_1_1Ast.html" target="_top" xlink:title="The exception class used by all AST nodes.">
<polygon fill="white" stroke="#666666" points="355,-333.5 242,-333.5 242,-314.5 355,-314.5 355,-333.5"/>
<text text-anchor="middle" x="298.5" y="-321.5" font-family="Helvetica,sans-Serif" font-size="10.00">triton::exceptions::Ast</text>
</a>
</g>
</g>
<!-- Node1&#45;&gt;Node16 -->
<g id="edge16" class="edge">
<title>Node1&#45;&gt;Node16</title>
<path fill="none" stroke="#63b8ff" d="M182.63,-256.61C197.94,-272.15 219.65,-291.96 242,-305 248.07,-308.54 254.9,-311.55 261.64,-314.07"/>
<polygon fill="#63b8ff" stroke="#63b8ff" points="185.32,-254.36 175.86,-249.57 180.27,-259.21 185.32,-254.36"/>
</g>
<!-- Node19 -->
<g id="node20" class="node">
<title>Node19</title>
<g id="a_node20"><a xlink:href="classtriton_1_1exceptions_1_1Bindings.html" target="_top" xlink:title="The exception class used by bindings.">
<polygon fill="white" stroke="#666666" points="344.5,-296 252.5,-296 252.5,-266 344.5,-266 344.5,-296"/>
<text text-anchor="start" x="260.5" y="-284" font-family="Helvetica,sans-Serif" font-size="10.00">triton::exceptions</text>
<text text-anchor="middle" x="298.5" y="-273" font-family="Helvetica,sans-Serif" font-size="10.00">::Bindings</text>
</a>
</g>
</g>
<!-- Node1&#45;&gt;Node19 -->
<g id="edge19" class="edge">
<title>Node1&#45;&gt;Node19</title>
<path fill="none" stroke="#63b8ff" d="M215.79,-252.27C228.37,-256.69 241.59,-261.34 253.64,-265.58"/>
<polygon fill="#63b8ff" stroke="#63b8ff" points="216.96,-248.97 206.37,-248.95 214.64,-255.57 216.96,-248.97"/>
</g>
<!-- Node20 -->
<g id="node21" class="node">
<title>Node20</title>
<g id="a_node21"><a xlink:href="classtriton_1_1exceptions_1_1Callbacks.html" target="_top" xlink:title="The exception class used by callbacks.">
<polygon fill="white" stroke="#666666" points="344.5,-248 252.5,-248 252.5,-218 344.5,-218 344.5,-248"/>
<text text-anchor="start" x="260.5" y="-236" font-family="Helvetica,sans-Serif" font-size="10.00">triton::exceptions</text>
<text text-anchor="middle" x="298.5" y="-225" font-family="Helvetica,sans-Serif" font-size="10.00">::Callbacks</text>
</a>
</g>
</g>
<!-- Node1&#45;&gt;Node20 -->
<g id="edge20" class="edge">
<title>Node1&#45;&gt;Node20</title>
<path fill="none" stroke="#63b8ff" d="M217.75,-233C229.26,-233 241.21,-233 252.25,-233"/>
<polygon fill="#63b8ff" stroke="#63b8ff" points="217.97,-229.5 207.97,-233 217.97,-236.5 217.97,-229.5"/>
</g>
<!-- Node21 -->
<g id="node22" class="node">
<title>Node21</title>
<g id="a_node22"><a xlink:href="classtriton_1_1exceptions_1_1Context.html" target="_top" xlink:title="The exception class used by the Triton&#39;s Context.">
<polygon fill="white" stroke="#666666" points="344.5,-200 252.5,-200 252.5,-170 344.5,-170 344.5,-200"/>
<text text-anchor="start" x="260.5" y="-188" font-family="Helvetica,sans-Serif" font-size="10.00">triton::exceptions</text>
<text text-anchor="middle" x="298.5" y="-177" font-family="Helvetica,sans-Serif" font-size="10.00">::Context</text>
</a>
</g>
</g>
<!-- Node1&#45;&gt;Node21 -->
<g id="edge21" class="edge">
<title>Node1&#45;&gt;Node21</title>
<path fill="none" stroke="#63b8ff" d="M215.79,-213.73C228.37,-209.31 241.59,-204.66 253.64,-200.42"/>
<polygon fill="#63b8ff" stroke="#63b8ff" points="214.64,-210.43 206.37,-217.05 216.96,-217.03 214.64,-210.43"/>
</g>
<!-- Node22 -->
<g id="node23" class="node">
<title>Node22</title>
<g id="a_node23"><a xlink:href="classtriton_1_1exceptions_1_1Engines.html" target="_top" xlink:title="The exception class used by all engines.">
<polygon fill="white" stroke="#666666" points="344.5,-152 252.5,-152 252.5,-122 344.5,-122 344.5,-152"/>
<text text-anchor="start" x="260.5" y="-140" font-family="Helvetica,sans-Serif" font-size="10.00">triton::exceptions</text>
<text text-anchor="middle" x="298.5" y="-129" font-family="Helvetica,sans-Serif" font-size="10.00">::Engines</text>
</a>
</g>
</g>
<!-- Node1&#45;&gt;Node22 -->
<g id="edge22" class="edge">
<title>Node1&#45;&gt;Node22</title>
<path fill="none" stroke="#63b8ff" d="M183.25,-209.67C198.69,-194.41 220.31,-174.82 242,-161 246.87,-157.9 252.21,-155.02 257.59,-152.41"/>
<polygon fill="#63b8ff" stroke="#63b8ff" points="180.97,-206.99 176.41,-216.56 185.94,-211.92 180.97,-206.99"/>
</g>
<!-- Node34 -->
<g id="node35" class="node">
<title>Node34</title>
<g id="a_node35"><a xlink:href="classtriton_1_1exceptions_1_1PyCallbacks.html" target="_top" xlink:title=" ">
<polygon fill="white" stroke="#666666" points="344.5,-104 252.5,-104 252.5,-74 344.5,-74 344.5,-104"/>
<text text-anchor="start" x="260.5" y="-92" font-family="Helvetica,sans-Serif" font-size="10.00">triton::exceptions</text>
<text text-anchor="middle" x="298.5" y="-81" font-family="Helvetica,sans-Serif" font-size="10.00">::PyCallbacks</text>
</a>
</g>
</g>
<!-- Node1&#45;&gt;Node34 -->
<g id="edge34" class="edge">
<title>Node1&#45;&gt;Node34</title>
<path fill="none" stroke="#63b8ff" d="M172.7,-207.59C186.11,-180.9 210.38,-139.24 242,-113 245.88,-109.78 250.25,-106.93 254.8,-104.41"/>
<polygon fill="#63b8ff" stroke="#63b8ff" points="169.68,-205.8 168.45,-216.33 175.97,-208.87 169.68,-205.8"/>
</g>
<!-- Node3 -->
<g id="node4" class="node">
<title>Node3</title>
<g id="a_node4"><a xlink:href="classtriton_1_1exceptions_1_1AArch64OperandProperties.html" target="_top" xlink:title="The exception class used by shift mode.">
<polygon fill="white" stroke="#666666" points="532,-860 391,-860 391,-830 532,-830 532,-860"/>
<text text-anchor="start" x="399" y="-848" font-family="Helvetica,sans-Serif" font-size="10.00">triton::exceptions</text>
<text text-anchor="middle" x="461.5" y="-837" font-family="Helvetica,sans-Serif" font-size="10.00">::AArch64OperandProperties</text>
</a>
</g>
</g>
<!-- Node2&#45;&gt;Node3 -->
<g id="edge3" class="edge">
<title>Node2&#45;&gt;Node3</title>
<path fill="none" stroke="#63b8ff" d="M302.79,-617.42C310.05,-664.79 331.82,-764.48 391,-821 394.42,-824.26 398.3,-827.08 402.44,-829.52"/>
<polygon fill="#63b8ff" stroke="#63b8ff" points="306.29,-617.21 301.42,-607.8 299.36,-618.19 306.29,-617.21"/>
</g>
<!-- Node4 -->
<g id="node5" class="node">
<title>Node4</title>
<g id="a_node5"><a xlink:href="classtriton_1_1exceptions_1_1ArmOperandProperties.html" target="_top" xlink:title="The exception class used by shift mode.">
<polygon fill="white" stroke="#666666" points="522.5,-812 400.5,-812 400.5,-782 522.5,-782 522.5,-812"/>
<text text-anchor="start" x="408.5" y="-800" font-family="Helvetica,sans-Serif" font-size="10.00">triton::exceptions</text>
<text text-anchor="middle" x="461.5" y="-789" font-family="Helvetica,sans-Serif" font-size="10.00">::ArmOperandProperties</text>
</a>
</g>
</g>
<!-- Node2&#45;&gt;Node4 -->
<g id="edge4" class="edge">
<title>Node2&#45;&gt;Node4</title>
<path fill="none" stroke="#63b8ff" d="M305.93,-617.4C316.83,-656.75 342.63,-730.69 391,-773 394.75,-776.28 398.97,-779.11 403.42,-781.57"/>
<polygon fill="#63b8ff" stroke="#63b8ff" points="309.34,-616.61 303.4,-607.83 302.57,-618.4 309.34,-616.61"/>
</g>
<!-- Node5 -->
<g id="node6" class="node">
<title>Node5</title>
<g id="a_node6"><a xlink:href="classtriton_1_1exceptions_1_1BasicBlock.html" target="_top" xlink:title="The exception class used by a basic block.">
<polygon fill="white" stroke="#666666" points="507.5,-764 415.5,-764 415.5,-734 507.5,-734 507.5,-764"/>
<text text-anchor="start" x="423.5" y="-752" font-family="Helvetica,sans-Serif" font-size="10.00">triton::exceptions</text>
<text text-anchor="middle" x="461.5" y="-741" font-family="Helvetica,sans-Serif" font-size="10.00">::BasicBlock</text>
</a>
</g>
</g>
<!-- Node2&#45;&gt;Node5 -->
<g id="edge5" class="edge">
<title>Node2&#45;&gt;Node5</title>
<path fill="none" stroke="#63b8ff" d="M310.63,-616.31C325.04,-646.32 352.91,-695.92 391,-725 398.2,-730.5 406.76,-734.8 415.36,-738.13"/>
<polygon fill="#63b8ff" stroke="#63b8ff" points="313.96,-615.18 306.57,-607.59 307.61,-618.13 313.96,-615.18"/>
</g>
<!-- Node6 -->
<g id="node7" class="node">
<title>Node6</title>
<g id="a_node7"><a xlink:href="classtriton_1_1exceptions_1_1BitsVector.html" target="_top" xlink:title="The exception class used by bitvectors.">
<polygon fill="white" stroke="#666666" points="507.5,-716 415.5,-716 415.5,-686 507.5,-686 507.5,-716"/>
<text text-anchor="start" x="423.5" y="-704" font-family="Helvetica,sans-Serif" font-size="10.00">triton::exceptions</text>
<text text-anchor="middle" x="461.5" y="-693" font-family="Helvetica,sans-Serif" font-size="10.00">::BitsVector</text>
</a>
</g>
</g>
<!-- Node2&#45;&gt;Node6 -->
<g id="edge6" class="edge">
<title>Node2&#45;&gt;Node6</title>
<path fill="none" stroke="#63b8ff" d="M319.7,-614.91C336.94,-634.01 363.29,-660.26 391,-677 398.43,-681.49 406.82,-685.29 415.13,-688.44"/>
<polygon fill="#63b8ff" stroke="#63b8ff" points="322.47,-612.75 313.22,-607.57 317.22,-617.39 322.47,-612.75"/>
</g>
<!-- Node7 -->
<g id="node8" class="node">
<title>Node7</title>
<g id="a_node8"><a xlink:href="classtriton_1_1exceptions_1_1Cpu.html" target="_top" xlink:title="The exception class used by all CPUs.">
<polygon fill="white" stroke="#666666" points="519.5,-667.5 403.5,-667.5 403.5,-648.5 519.5,-648.5 519.5,-667.5"/>
<text text-anchor="middle" x="461.5" y="-655.5" font-family="Helvetica,sans-Serif" font-size="10.00">triton::exceptions::Cpu</text>
</a>
</g>
</g>
<!-- Node2&#45;&gt;Node7 -->
<g id="edge7" class="edge">
<title>Node2&#45;&gt;Node7</title>
<path fill="none" stroke="#63b8ff" d="M335.04,-611.94C351.65,-621.12 371.92,-631.49 391,-639 399.73,-642.44 409.31,-645.49 418.49,-648.09"/>
<polygon fill="#63b8ff" stroke="#63b8ff" points="336.97,-609.01 326.54,-607.16 333.54,-615.11 336.97,-609.01"/>
</g>
<!-- Node10 -->
<g id="node11" class="node">
<title>Node10</title>
<g id="a_node11"><a xlink:href="classtriton_1_1exceptions_1_1Immediate.html" target="_top" xlink:title="The exception class used by immediates.">
<polygon fill="white" stroke="#666666" points="507.5,-630 415.5,-630 415.5,-600 507.5,-600 507.5,-630"/>
<text text-anchor="start" x="423.5" y="-618" font-family="Helvetica,sans-Serif" font-size="10.00">triton::exceptions</text>
<text text-anchor="middle" x="461.5" y="-607" font-family="Helvetica,sans-Serif" font-size="10.00">::Immediate</text>
</a>
</g>
</g>
<!-- Node2&#45;&gt;Node10 -->
<g id="edge10" class="edge">
<title>Node2&#45;&gt;Node10</title>
<path fill="none" stroke="#63b8ff" d="M355.89,-599.41C375.24,-602.29 396.63,-605.48 415.01,-608.22"/>
<polygon fill="#63b8ff" stroke="#63b8ff" points="356.68,-595.99 346.27,-597.97 355.65,-602.91 356.68,-595.99"/>
</g>
<!-- Node11 -->
<g id="node12" class="node">
<title>Node11</title>
<g id="a_node12"><a xlink:href="classtriton_1_1exceptions_1_1Instruction.html" target="_top" xlink:title="The exception class used by an instruction.">
<polygon fill="white" stroke="#666666" points="507.5,-582 415.5,-582 415.5,-552 507.5,-552 507.5,-582"/>
<text text-anchor="start" x="423.5" y="-570" font-family="Helvetica,sans-Serif" font-size="10.00">triton::exceptions</text>
<text text-anchor="middle" x="461.5" y="-559" font-family="Helvetica,sans-Serif" font-size="10.00">::Instruction</text>
</a>
</g>
</g>
<!-- Node2&#45;&gt;Node11 -->
<g id="edge11" class="edge">
<title>Node2&#45;&gt;Node11</title>
<path fill="none" stroke="#63b8ff" d="M355.89,-582.59C375.24,-579.71 396.63,-576.52 415.01,-573.78"/>
<polygon fill="#63b8ff" stroke="#63b8ff" points="355.65,-579.09 346.27,-584.03 356.68,-586.01 355.65,-579.09"/>
</g>
<!-- Node12 -->
<g id="node13" class="node">
<title>Node12</title>
<g id="a_node13"><a xlink:href="classtriton_1_1exceptions_1_1IrBuilder.html" target="_top" xlink:title="The exception class used by the IR builder.">
<polygon fill="white" stroke="#666666" points="507.5,-534 415.5,-534 415.5,-504 507.5,-504 507.5,-534"/>
<text text-anchor="start" x="423.5" y="-522" font-family="Helvetica,sans-Serif" font-size="10.00">triton::exceptions</text>
<text text-anchor="middle" x="461.5" y="-511" font-family="Helvetica,sans-Serif" font-size="10.00">::IrBuilder</text>
</a>
</g>
</g>
<!-- Node2&#45;&gt;Node12 -->
<g id="edge12" class="edge">
<title>Node2&#45;&gt;Node12</title>
<path fill="none" stroke="#63b8ff" d="M336,-570.24C352.52,-561.27 372.45,-551.01 391,-543 398.73,-539.66 407.1,-536.44 415.26,-533.52"/>
<polygon fill="#63b8ff" stroke="#63b8ff" points="334.61,-567.01 327.53,-574.9 337.98,-573.14 334.61,-567.01"/>
</g>
<!-- Node13 -->
<g id="node14" class="node">
<title>Node13</title>
<g id="a_node14"><a xlink:href="classtriton_1_1exceptions_1_1MemoryAccess.html" target="_top" xlink:title="The exception class used by memory access.">
<polygon fill="white" stroke="#666666" points="507.5,-486 415.5,-486 415.5,-456 507.5,-456 507.5,-486"/>
<text text-anchor="start" x="423.5" y="-474" font-family="Helvetica,sans-Serif" font-size="10.00">triton::exceptions</text>
<text text-anchor="middle" x="461.5" y="-463" font-family="Helvetica,sans-Serif" font-size="10.00">::MemoryAccess</text>
</a>
</g>
</g>
<!-- Node2&#45;&gt;Node13 -->
<g id="edge13" class="edge">
<title>Node2&#45;&gt;Node13</title>
<path fill="none" stroke="#63b8ff" d="M317.23,-566.63C334.05,-545.08 361.13,-514.19 391,-495 398.41,-490.24 406.88,-486.3 415.29,-483.09"/>
<polygon fill="#63b8ff" stroke="#63b8ff" points="314.66,-564.23 311.38,-574.3 320.23,-568.47 314.66,-564.23"/>
</g>
<!-- Node14 -->
<g id="node15" class="node">
<title>Node14</title>
<g id="a_node15"><a xlink:href="classtriton_1_1exceptions_1_1OperandWrapper.html" target="_top" xlink:title="The exception class used by operand wrappers.">
<polygon fill="white" stroke="#666666" points="509,-438 414,-438 414,-408 509,-408 509,-438"/>
<text text-anchor="start" x="422" y="-426" font-family="Helvetica,sans-Serif" font-size="10.00">triton::exceptions</text>
<text text-anchor="middle" x="461.5" y="-415" font-family="Helvetica,sans-Serif" font-size="10.00">::OperandWrapper</text>
</a>
</g>
</g>
<!-- Node2&#45;&gt;Node14 -->
<g id="edge14" class="edge">
<title>Node2&#45;&gt;Node14</title>
<path fill="none" stroke="#63b8ff" d="M309.52,-565.22C323.25,-533.14 350.87,-478.7 391,-447 397.71,-441.7 405.67,-437.53 413.76,-434.26"/>
<polygon fill="#63b8ff" stroke="#63b8ff" points="306.41,-563.59 305.83,-574.17 312.88,-566.26 306.41,-563.59"/>
</g>
<!-- Node15 -->
<g id="node16" class="node">
<title>Node15</title>
<g id="a_node16"><a xlink:href="classtriton_1_1exceptions_1_1Register.html" target="_top" xlink:title="The exception class used by register operands.">
<polygon fill="white" stroke="#666666" points="507.5,-390 415.5,-390 415.5,-360 507.5,-360 507.5,-390"/>
<text text-anchor="start" x="423.5" y="-378" font-family="Helvetica,sans-Serif" font-size="10.00">triton::exceptions</text>
<text text-anchor="middle" x="461.5" y="-367" font-family="Helvetica,sans-Serif" font-size="10.00">::Register</text>
</a>
</g>
</g>
<!-- Node2&#45;&gt;Node15 -->
<g id="edge15" class="edge">
<title>Node2&#45;&gt;Node15</title>
<path fill="none" stroke="#63b8ff" d="M305.14,-564.62C315.27,-523.53 340.38,-444.24 391,-399 397.85,-392.88 406.35,-388.3 415.02,-384.88"/>
<polygon fill="#63b8ff" stroke="#63b8ff" points="301.79,-563.6 302.92,-574.14 308.61,-565.2 301.79,-563.6"/>
</g>
<!-- Node8 -->
<g id="node9" class="node">
<title>Node8</title>
<g id="a_node9"><a xlink:href="classtriton_1_1exceptions_1_1Disassembly.html" target="_top" xlink:title="The exception class used by the disassembler.">
<polygon fill="white" stroke="#666666" points="675,-697 583,-697 583,-667 675,-667 675,-697"/>
<text text-anchor="start" x="591" y="-685" font-family="Helvetica,sans-Serif" font-size="10.00">triton::exceptions</text>
<text text-anchor="middle" x="629" y="-674" font-family="Helvetica,sans-Serif" font-size="10.00">::Disassembly</text>
</a>
</g>
</g>
<!-- Node7&#45;&gt;Node8 -->
<g id="edge8" class="edge">
<title>Node7&#45;&gt;Node8</title>
<path fill="none" stroke="#63b8ff" d="M531.18,-667.96C548.56,-670.48 566.78,-673.12 582.68,-675.43"/>
<polygon fill="#63b8ff" stroke="#63b8ff" points="531.82,-664.52 521.42,-666.54 530.81,-671.44 531.82,-664.52"/>
</g>
<!-- Node9 -->
<g id="node10" class="node">
<title>Node9</title>
<g id="a_node10"><a xlink:href="classtriton_1_1exceptions_1_1Semantics.html" target="_top" xlink:title="The exception class used by all semantics.">
<polygon fill="white" stroke="#666666" points="675,-649 583,-649 583,-619 675,-619 675,-649"/>
<text text-anchor="start" x="591" y="-637" font-family="Helvetica,sans-Serif" font-size="10.00">triton::exceptions</text>
<text text-anchor="middle" x="629" y="-626" font-family="Helvetica,sans-Serif" font-size="10.00">::Semantics</text>
</a>
</g>
</g>
<!-- Node7&#45;&gt;Node9 -->
<g id="edge9" class="edge">
<title>Node7&#45;&gt;Node9</title>
<path fill="none" stroke="#63b8ff" d="M531.18,-648.04C548.56,-645.52 566.78,-642.88 582.68,-640.57"/>
<polygon fill="#63b8ff" stroke="#63b8ff" points="530.81,-644.56 521.42,-649.46 531.82,-651.48 530.81,-644.56"/>
</g>
<!-- Node17 -->
<g id="node18" class="node">
<title>Node17</title>
<g id="a_node18"><a xlink:href="classtriton_1_1exceptions_1_1AstLifting.html" target="_top" xlink:title="The exception class used by all AST lifting (e.g z3 &lt;&#45;&gt; triton).">
<polygon fill="white" stroke="#666666" points="507.5,-342 415.5,-342 415.5,-312 507.5,-312 507.5,-342"/>
<text text-anchor="start" x="423.5" y="-330" font-family="Helvetica,sans-Serif" font-size="10.00">triton::exceptions</text>
<text text-anchor="middle" x="461.5" y="-319" font-family="Helvetica,sans-Serif" font-size="10.00">::AstLifting</text>
</a>
</g>
</g>
<!-- Node16&#45;&gt;Node17 -->
<g id="edge17" class="edge">
<title>Node16&#45;&gt;Node17</title>
<path fill="none" stroke="#63b8ff" d="M366.53,-325.25C382.9,-325.55 400.03,-325.87 415.12,-326.15"/>
<polygon fill="#63b8ff" stroke="#63b8ff" points="366.93,-321.76 356.87,-325.07 366.8,-328.75 366.93,-321.76"/>
</g>
<!-- Node18 -->
<g id="node19" class="node">
<title>Node18</title>
<g id="a_node19"><a xlink:href="classtriton_1_1exceptions_1_1AstRepresentation.html" target="_top" xlink:title="The exception class used by all AST node representations.">
<polygon fill="white" stroke="#666666" points="513.5,-294 409.5,-294 409.5,-264 513.5,-264 513.5,-294"/>
<text text-anchor="start" x="417.5" y="-282" font-family="Helvetica,sans-Serif" font-size="10.00">triton::exceptions</text>
<text text-anchor="middle" x="461.5" y="-271" font-family="Helvetica,sans-Serif" font-size="10.00">::AstRepresentation</text>
</a>
</g>
</g>
<!-- Node16&#45;&gt;Node18 -->
<g id="edge18" class="edge">
<title>Node16&#45;&gt;Node18</title>
<path fill="none" stroke="#63b8ff" d="M346.14,-310.96C365.92,-305.43 389.04,-298.97 409.29,-293.31"/>
<polygon fill="#63b8ff" stroke="#63b8ff" points="345.38,-307.54 336.69,-313.61 347.26,-314.28 345.38,-307.54"/>
</g>
<!-- Node23 -->
<g id="node24" class="node">
<title>Node23</title>
<g id="a_node24"><a xlink:href="classtriton_1_1exceptions_1_1LiftingEngine.html" target="_top" xlink:title="The exception class used by the lifting engine.">
<polygon fill="white" stroke="#666666" points="507.5,-246 415.5,-246 415.5,-216 507.5,-216 507.5,-246"/>
<text text-anchor="start" x="423.5" y="-234" font-family="Helvetica,sans-Serif" font-size="10.00">triton::exceptions</text>
<text text-anchor="middle" x="461.5" y="-223" font-family="Helvetica,sans-Serif" font-size="10.00">::LiftingEngine</text>
</a>
</g>
</g>
<!-- Node22&#45;&gt;Node23 -->
<g id="edge23" class="edge">
<title>Node22&#45;&gt;Node23</title>
<path fill="none" stroke="#63b8ff" d="M350.97,-158.09C352.36,-159.03 353.7,-160 355,-161 375.55,-176.86 369.87,-191.92 391,-207 398.27,-212.19 406.77,-216.33 415.27,-219.62"/>
<polygon fill="#63b8ff" stroke="#63b8ff" points="353.08,-155.28 342.7,-153.16 349.5,-161.29 353.08,-155.28"/>
</g>
<!-- Node24 -->
<g id="node25" class="node">
<title>Node24</title>
<g id="a_node25"><a xlink:href="classtriton_1_1exceptions_1_1SolverEngine.html" target="_top" xlink:title="The exception class used by the solver engine.">
<polygon fill="white" stroke="#666666" points="507.5,-198 415.5,-198 415.5,-168 507.5,-168 507.5,-198"/>
<text text-anchor="start" x="423.5" y="-186" font-family="Helvetica,sans-Serif" font-size="10.00">triton::exceptions</text>
<text text-anchor="middle" x="461.5" y="-175" font-family="Helvetica,sans-Serif" font-size="10.00">::SolverEngine</text>
</a>
</g>
</g>
<!-- Node22&#45;&gt;Node24 -->
<g id="edge24" class="edge">
<title>Node22&#45;&gt;Node24</title>
<path fill="none" stroke="#63b8ff" d="M355.62,-153.03C375.04,-158.58 396.55,-164.73 415.01,-170"/>
<polygon fill="#63b8ff" stroke="#63b8ff" points="356.81,-149.73 346.23,-150.35 354.88,-156.46 356.81,-149.73"/>
</g>
<!-- Node26 -->
<g id="node27" class="node">
<title>Node26</title>
<g id="a_node27"><a xlink:href="classtriton_1_1exceptions_1_1SymbolicEngine.html" target="_top" xlink:title="The exception class used by the symbolic engine.">
<polygon fill="white" stroke="#666666" points="508,-150 415,-150 415,-120 508,-120 508,-150"/>
<text text-anchor="start" x="423" y="-138" font-family="Helvetica,sans-Serif" font-size="10.00">triton::exceptions</text>
<text text-anchor="middle" x="461.5" y="-127" font-family="Helvetica,sans-Serif" font-size="10.00">::SymbolicEngine</text>
</a>
</g>
</g>
<!-- Node22&#45;&gt;Node26 -->
<g id="edge26" class="edge">
<title>Node22&#45;&gt;Node26</title>
<path fill="none" stroke="#63b8ff" d="M356.11,-136.3C375.3,-136.06 396.49,-135.8 414.73,-135.57"/>
<polygon fill="#63b8ff" stroke="#63b8ff" points="356.25,-132.79 346.29,-136.42 356.33,-139.79 356.25,-132.79"/>
</g>
<!-- Node32 -->
<g id="node33" class="node">
<title>Node32</title>
<g id="a_node33"><a xlink:href="classtriton_1_1exceptions_1_1SynthesizerEngine.html" target="_top" xlink:title="The exception class used by the synthesizer engine.">
<polygon fill="white" stroke="#666666" points="513.5,-102 409.5,-102 409.5,-72 513.5,-72 513.5,-102"/>
<text text-anchor="start" x="417.5" y="-90" font-family="Helvetica,sans-Serif" font-size="10.00">triton::exceptions</text>
<text text-anchor="middle" x="461.5" y="-79" font-family="Helvetica,sans-Serif" font-size="10.00">::SynthesizerEngine</text>
</a>
</g>
</g>
<!-- Node22&#45;&gt;Node32 -->
<g id="edge32" class="edge">
<title>Node22&#45;&gt;Node32</title>
<path fill="none" stroke="#63b8ff" d="M355.68,-119.55C373.61,-113.98 393.32,-107.86 410.77,-102.45"/>
<polygon fill="#63b8ff" stroke="#63b8ff" points="354.73,-116.18 346.22,-122.49 356.81,-122.87 354.73,-116.18"/>
</g>
<!-- Node33 -->
<g id="node34" class="node">
<title>Node33</title>
<g id="a_node34"><a xlink:href="classtriton_1_1exceptions_1_1TaintEngine.html" target="_top" xlink:title="The exception class used by the taint engine.">
<polygon fill="white" stroke="#666666" points="507.5,-54 415.5,-54 415.5,-24 507.5,-24 507.5,-54"/>
<text text-anchor="start" x="423.5" y="-42" font-family="Helvetica,sans-Serif" font-size="10.00">triton::exceptions</text>
<text text-anchor="middle" x="461.5" y="-31" font-family="Helvetica,sans-Serif" font-size="10.00">::TaintEngine</text>
</a>
</g>
</g>
<!-- Node22&#45;&gt;Node33 -->
<g id="edge33" class="edge">
<title>Node22&#45;&gt;Node33</title>
<path fill="none" stroke="#63b8ff" d="M351.51,-115.64C352.71,-114.79 353.87,-113.91 355,-113 376.34,-95.84 369.03,-79.35 391,-63 398.17,-57.67 406.61,-53.46 415.1,-50.15"/>
<polygon fill="#63b8ff" stroke="#63b8ff" points="349.77,-112.6 343.1,-120.83 353.45,-118.55 349.77,-112.6"/>
</g>
<!-- Node25 -->
<g id="node26" class="node">
<title>Node25</title>
<g id="a_node26"><a xlink:href="classtriton_1_1exceptions_1_1SolverModel.html" target="_top" xlink:title="The exception class used by solver models.">
<polygon fill="white" stroke="#666666" points="675,-270 583,-270 583,-240 675,-240 675,-270"/>
<text text-anchor="start" x="591" y="-258" font-family="Helvetica,sans-Serif" font-size="10.00">triton::exceptions</text>
<text text-anchor="middle" x="629" y="-247" font-family="Helvetica,sans-Serif" font-size="10.00">::SolverModel</text>
</a>
</g>
</g>
<!-- Node24&#45;&gt;Node25 -->
<g id="edge25" class="edge">
<title>Node24&#45;&gt;Node25</title>
<path fill="none" stroke="#63b8ff" d="M518.14,-200.77C522.89,-202.72 527.57,-204.8 532,-207 549.23,-215.54 550.98,-222.05 568,-231 573.76,-234.03 579.99,-236.92 586.18,-239.57"/>
<polygon fill="#63b8ff" stroke="#63b8ff" points="519.68,-197.62 509.09,-197.26 517.15,-204.14 519.68,-197.62"/>
</g>
<!-- Node27 -->
<g id="node28" class="node">
<title>Node27</title>
<g id="a_node28"><a xlink:href="classtriton_1_1exceptions_1_1PathConstraint.html" target="_top" xlink:title="The exception class used by path constraints.">
<polygon fill="white" stroke="#666666" points="675,-222 583,-222 583,-192 675,-192 675,-222"/>
<text text-anchor="start" x="591" y="-210" font-family="Helvetica,sans-Serif" font-size="10.00">triton::exceptions</text>
<text text-anchor="middle" x="629" y="-199" font-family="Helvetica,sans-Serif" font-size="10.00">::PathConstraint</text>
</a>
</g>
</g>
<!-- Node26&#45;&gt;Node27 -->
<g id="edge27" class="edge">
<title>Node26&#45;&gt;Node27</title>
<path fill="none" stroke="#63b8ff" d="M518.93,-153.1C523.41,-154.96 527.82,-156.93 532,-159 549.23,-167.54 550.98,-174.05 568,-183 573.76,-186.03 579.99,-188.92 586.18,-191.57"/>
<polygon fill="#63b8ff" stroke="#63b8ff" points="520.42,-149.92 509.83,-149.54 517.87,-156.44 520.42,-149.92"/>
</g>
<!-- Node28 -->
<g id="node29" class="node">
<title>Node28</title>
<g id="a_node29"><a xlink:href="classtriton_1_1exceptions_1_1PathManager.html" target="_top" xlink:title="The exception class used by the path manager.">
<polygon fill="white" stroke="#666666" points="675,-174 583,-174 583,-144 675,-144 675,-174"/>
<text text-anchor="start" x="591" y="-162" font-family="Helvetica,sans-Serif" font-size="10.00">triton::exceptions</text>
<text text-anchor="middle" x="629" y="-151" font-family="Helvetica,sans-Serif" font-size="10.00">::PathManager</text>
</a>
</g>
</g>
<!-- Node26&#45;&gt;Node28 -->
<g id="edge28" class="edge">
<title>Node26&#45;&gt;Node28</title>
<path fill="none" stroke="#63b8ff" d="M519.38,-143.25C540.09,-146.25 563.21,-149.6 582.77,-152.44"/>
<polygon fill="#63b8ff" stroke="#63b8ff" points="520.06,-139.81 509.66,-141.84 519.05,-146.74 520.06,-139.81"/>
</g>
<!-- Node29 -->
<g id="node30" class="node">
<title>Node29</title>
<g id="a_node30"><a xlink:href="classtriton_1_1exceptions_1_1SymbolicExpression.html" target="_top" xlink:title="The exception class used by symbolic expressions.">
<polygon fill="white" stroke="#666666" points="685,-126 573,-126 573,-96 685,-96 685,-126"/>
<text text-anchor="start" x="581" y="-114" font-family="Helvetica,sans-Serif" font-size="10.00">triton::exceptions</text>
<text text-anchor="middle" x="629" y="-103" font-family="Helvetica,sans-Serif" font-size="10.00">::SymbolicExpression</text>
</a>
</g>
</g>
<!-- Node26&#45;&gt;Node29 -->
<g id="edge29" class="edge">
<title>Node26&#45;&gt;Node29</title>
<path fill="none" stroke="#63b8ff" d="M519.26,-126.77C536.57,-124.26 555.57,-121.5 572.77,-119.01"/>
<polygon fill="#63b8ff" stroke="#63b8ff" points="519.05,-123.26 509.66,-128.16 520.06,-130.19 519.05,-123.26"/>
</g>
<!-- Node30 -->
<g id="node31" class="node">
<title>Node30</title>
<g id="a_node31"><a xlink:href="classtriton_1_1exceptions_1_1SymbolicSimplification.html" target="_top" xlink:title="The exception class used by symbolic simplifications.">
<polygon fill="white" stroke="#666666" points="690,-78 568,-78 568,-48 690,-48 690,-78"/>
<text text-anchor="start" x="576" y="-66" font-family="Helvetica,sans-Serif" font-size="10.00">triton::exceptions</text>
<text text-anchor="middle" x="629" y="-55" font-family="Helvetica,sans-Serif" font-size="10.00">::SymbolicSimplification</text>
</a>
</g>
</g>
<!-- Node26&#45;&gt;Node30 -->
<g id="edge30" class="edge">
<title>Node26&#45;&gt;Node30</title>
<path fill="none" stroke="#63b8ff" d="M518.93,-116.9C523.41,-115.04 527.82,-113.07 532,-111 549.23,-102.46 550.98,-95.95 568,-87 573.76,-83.97 579.99,-81.08 586.18,-78.43"/>
<polygon fill="#63b8ff" stroke="#63b8ff" points="517.87,-113.56 509.83,-120.46 520.42,-120.08 517.87,-113.56"/>
</g>
<!-- Node31 -->
<g id="node32" class="node">
<title>Node31</title>
<g id="a_node32"><a xlink:href="classtriton_1_1exceptions_1_1SymbolicVariable.html" target="_top" xlink:title="The exception class used by symbolic variables.">
<polygon fill="white" stroke="#666666" points="678,-30 580,-30 580,0 678,0 678,-30"/>
<text text-anchor="start" x="588" y="-18" font-family="Helvetica,sans-Serif" font-size="10.00">triton::exceptions</text>
<text text-anchor="middle" x="629" y="-7" font-family="Helvetica,sans-Serif" font-size="10.00">::SymbolicVariable</text>
</a>
</g>
</g>
<!-- Node26&#45;&gt;Node31 -->
<g id="edge31" class="edge">
<title>Node26&#45;&gt;Node31</title>
<path fill="none" stroke="#63b8ff" d="M518.5,-120.16C523.36,-117.58 527.95,-114.55 532,-111 558.9,-87.41 541.67,-63.23 568,-39 571.55,-35.73 575.6,-32.89 579.88,-30.41"/>
<polygon fill="#63b8ff" stroke="#63b8ff" points="517.25,-116.89 509.63,-124.24 520.17,-123.25 517.25,-116.89"/>
</g>
</g>
</svg>
