<?xml version="1.0" encoding="UTF-8" standalone="no"?>
<!DOCTYPE svg PUBLIC "-//W3C//DTD SVG 1.1//EN"
 "http://www.w3.org/Graphics/SVG/1.1/DTD/svg11.dtd">
<!-- Generated by graphviz version 9.0.0 (20230911.1827)
 -->
<!-- Title: Graphical Class Hierarchy Pages: 1 -->
<svg width="312pt" height="186pt"
 viewBox="0.00 0.00 311.50 185.50" xmlns="http://www.w3.org/2000/svg" xmlns:xlink="http://www.w3.org/1999/xlink">
<g id="graph0" class="graph" transform="scale(1 1) rotate(0) translate(4 181.5)">
<title>Graphical Class Hierarchy</title>
<!-- Node0 -->
<g id="Node000000" class="node">
<title>Node0</title>
<g id="a_Node000000"><a xlink:href="classtriton_1_1arch_1_1arm_1_1aarch64_1_1AArch64Specifications.html" target="_top" xlink:title="The AArch64Specifications class defines specifications about the AArch64 CPU.">
<polygon fill="white" stroke="#666666" points="155.5,-177.5 0,-177.5 0,-147 155.5,-147 155.5,-177.5"/>
<text text-anchor="start" x="8" y="-164" font-family="Helvetica,sans-Serif" font-size="10.00">triton::arch::arm::</text>
<text text-anchor="middle" x="77.75" y="-152.75" font-family="Helvetica,sans-Serif" font-size="10.00">aarch64::AArch64Specifications</text>
</a>
</g>
</g>
<!-- Node1 -->
<g id="Node000001" class="node">
<title>Node1</title>
<g id="a_Node000001"><a xlink:href="classtriton_1_1arch_1_1arm_1_1aarch64_1_1AArch64Cpu.html" target="_top" xlink:title="This class is used to describe the ARM (64&#45;bits) spec.">
<polygon fill="white" stroke="#666666" points="303.5,-177.5 191.5,-177.5 191.5,-147 303.5,-147 303.5,-177.5"/>
<text text-anchor="start" x="199.5" y="-164" font-family="Helvetica,sans-Serif" font-size="10.00">triton::arch::arm::</text>
<text text-anchor="middle" x="247.5" y="-152.75" font-family="Helvetica,sans-Serif" font-size="10.00">aarch64::AArch64Cpu</text>
</a>
</g>
</g>
<!-- Node0&#45;&gt;Node1 -->
<g id="edge97_Node000000_Node000001" class="edge">
<title>Node0&#45;&gt;Node1</title>
<g id="a_edge97_Node000000_Node000001"><a xlink:title=" ">
<path fill="none" stroke="#63b8ff" d="M167.2,-162.25C175.29,-162.25 183.33,-162.25 191,-162.25"/>
<polygon fill="#63b8ff" stroke="#63b8ff" points="167.27,-158.75 157.27,-162.25 167.27,-165.75 167.27,-158.75"/>
</a>
</g>
</g>
<!-- Node4 -->
<g id="Node000004" class="node">
<title>Node4</title>
<g id="a_Node000004"><a xlink:href="classtriton_1_1arch_1_1arm_1_1arm32_1_1Arm32Specifications.html" target="_top" xlink:title="The Arm32Specifications class defines specifications about the Arm32 CPU.">
<polygon fill="white" stroke="#666666" points="147.25,-128.5 8.25,-128.5 8.25,-98 147.25,-98 147.25,-128.5"/>
<text text-anchor="start" x="16.25" y="-115" font-family="Helvetica,sans-Serif" font-size="10.00">triton::arch::arm::</text>
<text text-anchor="middle" x="77.75" y="-103.75" font-family="Helvetica,sans-Serif" font-size="10.00">arm32::Arm32Specifications</text>
</a>
</g>
</g>
<!-- Node3 -->
<g id="Node000003" class="node">
<title>Node3</title>
<g id="a_Node000003"><a xlink:href="classtriton_1_1arch_1_1arm_1_1arm32_1_1Arm32Cpu.html" target="_top" xlink:title="This class is used to describe the ARM (32&#45;bits) spec.">
<polygon fill="white" stroke="#666666" points="295.25,-128.5 199.75,-128.5 199.75,-98 295.25,-98 295.25,-128.5"/>
<text text-anchor="start" x="207.75" y="-115" font-family="Helvetica,sans-Serif" font-size="10.00">triton::arch::arm::</text>
<text text-anchor="middle" x="247.5" y="-103.75" font-family="Helvetica,sans-Serif" font-size="10.00">arm32::Arm32Cpu</text>
</a>
</g>
</g>
<!-- Node4&#45;&gt;Node3 -->
<g id="edge98_Node000004_Node000003" class="edge">
<title>Node4&#45;&gt;Node3</title>
<g id="a_edge98_Node000004_Node000003"><a xlink:title=" ">
<path fill="none" stroke="#63b8ff" d="M158.66,-113.25C172.71,-113.25 186.9,-113.25 199.66,-113.25"/>
<polygon fill="#63b8ff" stroke="#63b8ff" points="158.98,-109.75 148.98,-113.25 158.98,-116.75 158.98,-109.75"/>
</a>
</g>
</g>
<!-- Node2 -->
<g id="Node000002" class="node">
<title>Node2</title>
<g id="a_Node000002"><a xlink:href="classtriton_1_1arch_1_1CpuInterface.html" target="_top" xlink:title="This interface is used as abstract CPU interface. All CPU must use this interface.">
<polygon fill="white" stroke="#666666" points="140.12,-76.88 15.38,-76.88 15.38,-57.62 140.12,-57.62 140.12,-76.88"/>
<text text-anchor="middle" x="77.75" y="-63.38" font-family="Helvetica,sans-Serif" font-size="10.00">triton::arch::CpuInterface</text>
</a>
</g>
</g>
<!-- Node2&#45;&gt;Node1 -->
<g id="edge99_Node000002_Node000001" class="edge">
<title>Node2&#45;&gt;Node1</title>
<g id="a_edge99_Node000002_Node000001"><a xlink:title=" ">
<path fill="none" stroke="#63b8ff" d="M141.49,-81.44C146.42,-83.68 151.16,-86.26 155.5,-89.25 177.46,-104.38 170.71,-120.55 191.5,-137.25 195.83,-140.73 200.73,-143.84 205.77,-146.59"/>
<polygon fill="#63b8ff" stroke="#63b8ff" points="143.17,-78.34 132.59,-77.88 140.57,-84.84 143.17,-78.34"/>
</a>
</g>
</g>
<!-- Node2&#45;&gt;Node3 -->
<g id="edge100_Node000002_Node000003" class="edge">
<title>Node2&#45;&gt;Node3</title>
<g id="a_edge100_Node000002_Node000003"><a xlink:title=" ">
<path fill="none" stroke="#63b8ff" d="M126.42,-80.32C149.34,-86.61 176.72,-94.12 199.55,-100.38"/>
<polygon fill="#63b8ff" stroke="#63b8ff" points="127.59,-77.01 117.02,-77.75 125.74,-83.77 127.59,-77.01"/>
</a>
</g>
</g>
<!-- Node5 -->
<g id="Node000005" class="node">
<title>Node5</title>
<g id="a_Node000005"><a xlink:href="classtriton_1_1arch_1_1x86_1_1x8664Cpu.html" target="_top" xlink:title="This class is used to describe the x86 (64&#45;bits) spec.">
<polygon fill="white" stroke="#666666" points="292.62,-79.5 202.38,-79.5 202.38,-49 292.62,-49 292.62,-79.5"/>
<text text-anchor="start" x="210.38" y="-66" font-family="Helvetica,sans-Serif" font-size="10.00">triton::arch::x86::</text>
<text text-anchor="middle" x="247.5" y="-54.75" font-family="Helvetica,sans-Serif" font-size="10.00">x8664Cpu</text>
</a>
</g>
</g>
<!-- Node2&#45;&gt;Node5 -->
<g id="edge101_Node000002_Node000005" class="edge">
<title>Node2&#45;&gt;Node5</title>
<g id="a_edge101_Node000002_Node000005"><a xlink:title=" ">
<path fill="none" stroke="#63b8ff" d="M151.45,-65.95C168.68,-65.64 186.54,-65.32 202.06,-65.04"/>
<polygon fill="#63b8ff" stroke="#63b8ff" points="151.71,-62.44 141.77,-66.12 151.84,-69.44 151.71,-62.44"/>
</a>
</g>
</g>
<!-- Node7 -->
<g id="Node000007" class="node">
<title>Node7</title>
<g id="a_Node000007"><a xlink:href="classtriton_1_1arch_1_1x86_1_1x86Cpu.html" target="_top" xlink:title="This class is used to describe the x86 (32&#45;bits) spec.">
<polygon fill="white" stroke="#666666" points="292.62,-30.5 202.38,-30.5 202.38,0 292.62,0 292.62,-30.5"/>
<text text-anchor="start" x="210.38" y="-17" font-family="Helvetica,sans-Serif" font-size="10.00">triton::arch::x86::</text>
<text text-anchor="middle" x="247.5" y="-5.75" font-family="Helvetica,sans-Serif" font-size="10.00">x86Cpu</text>
</a>
</g>
</g>
<!-- Node2&#45;&gt;Node7 -->
<g id="edge102_Node000002_Node000007" class="edge">
<title>Node2&#45;&gt;Node7</title>
<g id="a_edge102_Node000002_Node000007"><a xlink:title=" ">
<path fill="none" stroke="#63b8ff" d="M125.95,-54.04C135.74,-51.21 145.97,-48.19 155.5,-45.25 170.76,-40.55 187.37,-35.15 202.18,-30.25"/>
<polygon fill="#63b8ff" stroke="#63b8ff" points="125.25,-50.6 116.6,-56.72 127.18,-57.33 125.25,-50.6"/>
</a>
</g>
</g>
<!-- Node6 -->
<g id="Node000006" class="node">
<title>Node6</title>
<g id="a_Node000006"><a xlink:href="classtriton_1_1arch_1_1x86_1_1x86Specifications.html" target="_top" xlink:title="The x86Specifications class defines specifications about the x86 and x86_64 CPU.">
<polygon fill="white" stroke="#666666" points="124.38,-36.5 31.12,-36.5 31.12,-6 124.38,-6 124.38,-36.5"/>
<text text-anchor="start" x="39.12" y="-23" font-family="Helvetica,sans-Serif" font-size="10.00">triton::arch::x86::</text>
<text text-anchor="middle" x="77.75" y="-11.75" font-family="Helvetica,sans-Serif" font-size="10.00">x86Specifications</text>
</a>
</g>
</g>
<!-- Node6&#45;&gt;Node5 -->
<g id="edge103_Node000006_Node000005" class="edge">
<title>Node6&#45;&gt;Node5</title>
<g id="a_edge103_Node000006_Node000005"><a xlink:title=" ">
<path fill="none" stroke="#63b8ff" d="M135.62,-35.83C157.24,-41.37 181.54,-47.6 201.88,-52.81"/>
<polygon fill="#63b8ff" stroke="#63b8ff" points="136.61,-32.47 126.05,-33.38 134.87,-39.25 136.61,-32.47"/>
</a>
</g>
</g>
<!-- Node6&#45;&gt;Node7 -->
<g id="edge104_Node000006_Node000007" class="edge">
<title>Node6&#45;&gt;Node7</title>
<g id="a_edge104_Node000006_Node000007"><a xlink:title=" ">
<path fill="none" stroke="#63b8ff" d="M135.91,-19.21C157.46,-18.43 181.64,-17.57 201.88,-16.85"/>
<polygon fill="#63b8ff" stroke="#63b8ff" points="135.97,-15.7 126.1,-19.56 136.22,-22.7 135.97,-15.7"/>
</a>
</g>
</g>
</g>
</svg>
