<?xml version="1.0" encoding="UTF-8" standalone="no"?>
<!DOCTYPE svg PUBLIC "-//W3C//DTD SVG 1.1//EN"
 "http://www.w3.org/Graphics/SVG/1.1/DTD/svg11.dtd">
<!-- Generated by graphviz version 2.49.0 (20210828.1703)
 -->
<!-- Title: Graphical Class Hierarchy Pages: 1 -->
<svg width="493pt" height="2042pt"
 viewBox="0.00 0.00 493.00 2042.00" xmlns="http://www.w3.org/2000/svg" xmlns:xlink="http://www.w3.org/1999/xlink">
<g id="graph0" class="graph" transform="scale(1 1) rotate(0) translate(4 2038)">
<title>Graphical Class Hierarchy</title>
<polygon fill="white" stroke="transparent" points="-4,4 -4,-2038 489,-2038 489,4 -4,4"/>
<!-- Node26 -->
<g id="node1" class="node">
<title>Node26</title>
<g id="a_node1"><a xlink:href="classtriton_1_1ast_1_1BvudivNode.html" target="_top" xlink:title="(bvudiv &lt;expr1&gt; &lt;expr2&gt;) node">
<polygon fill="white" stroke="black" points="0,-1007.5 0,-1026.5 129,-1026.5 129,-1007.5 0,-1007.5"/>
<text text-anchor="middle" x="64.5" y="-1014.5" font-family="Helvetica,sans-Serif" font-size="10.00">triton::ast::BvudivNode</text>
</a>
</g>
</g>
<!-- Node0 -->
<g id="node2" class="node">
<title>Node0</title>
<g id="a_node2"><a xlink:href="classtriton_1_1ast_1_1AbstractNode.html" target="_top" xlink:title="Abstract node.">
<polygon fill="white" stroke="black" points="165,-1007.5 165,-1026.5 301,-1026.5 301,-1007.5 165,-1007.5"/>
<text text-anchor="middle" x="233" y="-1014.5" font-family="Helvetica,sans-Serif" font-size="10.00">triton::ast::AbstractNode</text>
</a>
</g>
</g>
<!-- Node26&#45;&gt;Node0 -->
<g id="edge1" class="edge">
<title>Node26&#45;&gt;Node0</title>
<path fill="none" stroke="midnightblue" d="M139.61,-1010.29C148.05,-1010.22 156.62,-1010.25 164.96,-1010.37"/>
<polygon fill="midnightblue" stroke="midnightblue" points="139.35,-1006.79 129.4,-1010.41 139.44,-1013.79 139.35,-1006.79"/>
</g>
<!-- Node83 -->
<g id="node57" class="node">
<title>Node83</title>
<g id="a_node57"><a xlink:href="classtriton_1_1ast_1_1AstContext.html" target="_top" xlink:title="AST Context &#45; Used as AST builder.">
<polygon fill="white" stroke="black" points="171,-969.5 171,-988.5 295,-988.5 295,-969.5 171,-969.5"/>
<text text-anchor="middle" x="233" y="-976.5" font-family="Helvetica,sans-Serif" font-size="10.00">triton::ast::AstContext</text>
</a>
</g>
</g>
<!-- Node26&#45;&gt;Node83 -->
<g id="edge57" class="edge">
<title>Node26&#45;&gt;Node83</title>
<path fill="none" stroke="midnightblue" d="M117.31,-1005.18C140.78,-999.82 168.17,-993.57 190.29,-988.52"/>
<polygon fill="midnightblue" stroke="midnightblue" points="116.49,-1001.77 107.51,-1007.41 118.04,-1008.6 116.49,-1001.77"/>
</g>
<!-- Node0&#45;&gt;Node26 -->
<g id="edge27" class="edge">
<title>Node0&#45;&gt;Node26</title>
<path fill="none" stroke="midnightblue" d="M154.7,-1023.73C146.23,-1023.78 137.68,-1023.73 129.4,-1023.59"/>
<polygon fill="midnightblue" stroke="midnightblue" points="154.99,-1027.23 164.96,-1023.63 154.93,-1020.23 154.99,-1027.23"/>
</g>
<!-- Node1 -->
<g id="node3" class="node">
<title>Node1</title>
<g id="a_node3"><a xlink:href="classtriton_1_1ast_1_1ArrayNode.html" target="_top" xlink:title="(Array (_ BitVec addrSize) (_ BitVec 8)) node">
<polygon fill="white" stroke="black" points="350,-2014.5 350,-2033.5 472,-2033.5 472,-2014.5 350,-2014.5"/>
<text text-anchor="middle" x="411" y="-2021.5" font-family="Helvetica,sans-Serif" font-size="10.00">triton::ast::ArrayNode</text>
</a>
</g>
</g>
<!-- Node0&#45;&gt;Node1 -->
<g id="edge2" class="edge">
<title>Node0&#45;&gt;Node1</title>
<path fill="none" stroke="midnightblue" d="M234.73,-1036.86C239.79,-1169.92 271.39,-1928.67 337,-2005 340.59,-2009.17 344.96,-2012.48 349.77,-2015.11"/>
<polygon fill="midnightblue" stroke="midnightblue" points="238.22,-1036.42 234.34,-1026.56 231.22,-1036.69 238.22,-1036.42"/>
</g>
<!-- Node2 -->
<g id="node4" class="node">
<title>Node2</title>
<g id="a_node4"><a xlink:href="classtriton_1_1ast_1_1AssertNode.html" target="_top" xlink:title="(assert &lt;expr&gt;) node">
<polygon fill="white" stroke="black" points="348,-1976.5 348,-1995.5 474,-1995.5 474,-1976.5 348,-1976.5"/>
<text text-anchor="middle" x="411" y="-1983.5" font-family="Helvetica,sans-Serif" font-size="10.00">triton::ast::AssertNode</text>
</a>
</g>
</g>
<!-- Node0&#45;&gt;Node2 -->
<g id="edge3" class="edge">
<title>Node0&#45;&gt;Node2</title>
<path fill="none" stroke="midnightblue" d="M234.82,-1036.91C240.34,-1167.09 273.87,-1893.86 337,-1967 340.25,-1970.77 344.15,-1973.83 348.42,-1976.33"/>
<polygon fill="midnightblue" stroke="midnightblue" points="238.31,-1036.63 234.39,-1026.79 231.32,-1036.92 238.31,-1036.63"/>
</g>
<!-- Node3 -->
<g id="node5" class="node">
<title>Node3</title>
<g id="a_node5"><a xlink:href="classtriton_1_1ast_1_1BswapNode.html" target="_top" xlink:title="(bswap &lt;expr&gt;) node">
<polygon fill="white" stroke="black" points="347,-1938.5 347,-1957.5 475,-1957.5 475,-1938.5 347,-1938.5"/>
<text text-anchor="middle" x="411" y="-1945.5" font-family="Helvetica,sans-Serif" font-size="10.00">triton::ast::BswapNode</text>
</a>
</g>
</g>
<!-- Node0&#45;&gt;Node3 -->
<g id="edge4" class="edge">
<title>Node0&#45;&gt;Node3</title>
<path fill="none" stroke="midnightblue" d="M234.91,-1036.89C240.91,-1163.95 276.33,-1859.03 337,-1929 340.26,-1932.76 344.16,-1935.82 348.44,-1938.31"/>
<polygon fill="midnightblue" stroke="midnightblue" points="238.4,-1036.51 234.44,-1026.69 231.41,-1036.84 238.4,-1036.51"/>
</g>
<!-- Node4 -->
<g id="node6" class="node">
<title>Node4</title>
<g id="a_node6"><a xlink:href="classtriton_1_1ast_1_1BvNode.html" target="_top" xlink:title="(_ bv&lt;value&gt; &lt;size&gt;) node">
<polygon fill="white" stroke="black" points="357,-1900.5 357,-1919.5 465,-1919.5 465,-1900.5 357,-1900.5"/>
<text text-anchor="middle" x="411" y="-1907.5" font-family="Helvetica,sans-Serif" font-size="10.00">triton::ast::BvNode</text>
</a>
</g>
</g>
<!-- Node0&#45;&gt;Node4 -->
<g id="edge5" class="edge">
<title>Node0&#45;&gt;Node4</title>
<path fill="none" stroke="midnightblue" d="M235.01,-1036.82C241.49,-1160.58 278.78,-1824.18 337,-1891 342.33,-1897.12 349.37,-1901.39 356.96,-1904.35"/>
<polygon fill="midnightblue" stroke="midnightblue" points="238.49,-1036.37 234.48,-1026.56 231.5,-1036.73 238.49,-1036.37"/>
</g>
<!-- Node5 -->
<g id="node7" class="node">
<title>Node5</title>
<g id="a_node7"><a xlink:href="classtriton_1_1ast_1_1BvaddNode.html" target="_top" xlink:title="(bvadd &lt;expr1&gt; &lt;expr2&gt;) node">
<polygon fill="white" stroke="black" points="348,-1862.5 348,-1881.5 474,-1881.5 474,-1862.5 348,-1862.5"/>
<text text-anchor="middle" x="411" y="-1869.5" font-family="Helvetica,sans-Serif" font-size="10.00">triton::ast::BvaddNode</text>
</a>
</g>
</g>
<!-- Node0&#45;&gt;Node5 -->
<g id="edge6" class="edge">
<title>Node0&#45;&gt;Node5</title>
<path fill="none" stroke="midnightblue" d="M235.11,-1036.71C242.09,-1157 281.23,-1789.33 337,-1853 340.37,-1856.84 344.4,-1859.95 348.82,-1862.47"/>
<polygon fill="midnightblue" stroke="midnightblue" points="238.61,-1036.48 234.54,-1026.7 231.62,-1036.88 238.61,-1036.48"/>
</g>
<!-- Node6 -->
<g id="node8" class="node">
<title>Node6</title>
<g id="a_node8"><a xlink:href="classtriton_1_1ast_1_1BvandNode.html" target="_top" xlink:title="(bvand &lt;expr1&gt; &lt;expr2&gt;) node">
<polygon fill="white" stroke="black" points="348,-1824.5 348,-1843.5 474,-1843.5 474,-1824.5 348,-1824.5"/>
<text text-anchor="middle" x="411" y="-1831.5" font-family="Helvetica,sans-Serif" font-size="10.00">triton::ast::BvandNode</text>
</a>
</g>
</g>
<!-- Node0&#45;&gt;Node6 -->
<g id="edge7" class="edge">
<title>Node0&#45;&gt;Node6</title>
<path fill="none" stroke="midnightblue" d="M233.68,-1036.84C232.28,-1148.17 230.97,-1694.66 337,-1815 340.38,-1818.83 344.42,-1821.94 348.84,-1824.45"/>
<polygon fill="midnightblue" stroke="midnightblue" points="237.18,-1036.74 233.82,-1026.69 230.18,-1036.64 237.18,-1036.74"/>
</g>
<!-- Node7 -->
<g id="node9" class="node">
<title>Node7</title>
<g id="a_node9"><a xlink:href="classtriton_1_1ast_1_1BvashrNode.html" target="_top" xlink:title="(bvashr &lt;expr1&gt; &lt;expr2&gt;) node">
<polygon fill="white" stroke="black" points="346.5,-1786.5 346.5,-1805.5 475.5,-1805.5 475.5,-1786.5 346.5,-1786.5"/>
<text text-anchor="middle" x="411" y="-1793.5" font-family="Helvetica,sans-Serif" font-size="10.00">triton::ast::BvashrNode</text>
</a>
</g>
</g>
<!-- Node0&#45;&gt;Node7 -->
<g id="edge8" class="edge">
<title>Node0&#45;&gt;Node7</title>
<path fill="none" stroke="midnightblue" d="M233.82,-1036.9C233.25,-1145.21 235.89,-1662.98 337,-1777 340.39,-1780.82 344.44,-1783.92 348.87,-1786.43"/>
<polygon fill="midnightblue" stroke="midnightblue" points="237.32,-1036.76 233.89,-1026.73 230.32,-1036.71 237.32,-1036.76"/>
</g>
<!-- Node8 -->
<g id="node10" class="node">
<title>Node8</title>
<g id="a_node10"><a xlink:href="classtriton_1_1ast_1_1BvlshrNode.html" target="_top" xlink:title="(bvlshr &lt;expr1&gt; &lt;expr2&gt;) node">
<polygon fill="white" stroke="black" points="348,-1748.5 348,-1767.5 474,-1767.5 474,-1748.5 348,-1748.5"/>
<text text-anchor="middle" x="411" y="-1755.5" font-family="Helvetica,sans-Serif" font-size="10.00">triton::ast::BvlshrNode</text>
</a>
</g>
</g>
<!-- Node0&#45;&gt;Node8 -->
<g id="edge9" class="edge">
<title>Node0&#45;&gt;Node8</title>
<path fill="none" stroke="midnightblue" d="M233.98,-1037.22C234.27,-1142.94 240.88,-1631.36 337,-1739 340.4,-1742.81 344.46,-1745.9 348.9,-1748.4"/>
<polygon fill="midnightblue" stroke="midnightblue" points="237.48,-1036.98 233.97,-1026.99 230.48,-1036.99 237.48,-1036.98"/>
</g>
<!-- Node9 -->
<g id="node11" class="node">
<title>Node9</title>
<g id="a_node11"><a xlink:href="classtriton_1_1ast_1_1BvmulNode.html" target="_top" xlink:title="(bvmul &lt;expr1&gt; &lt;expr2&gt;) node">
<polygon fill="white" stroke="black" points="347.5,-1710.5 347.5,-1729.5 474.5,-1729.5 474.5,-1710.5 347.5,-1710.5"/>
<text text-anchor="middle" x="411" y="-1717.5" font-family="Helvetica,sans-Serif" font-size="10.00">triton::ast::BvmulNode</text>
</a>
</g>
</g>
<!-- Node0&#45;&gt;Node9 -->
<g id="edge10" class="edge">
<title>Node0&#45;&gt;Node9</title>
<path fill="none" stroke="midnightblue" d="M234.15,-1037.12C235.33,-1139.26 245.72,-1599.58 337,-1701 340.42,-1704.8 344.49,-1707.88 348.93,-1710.37"/>
<polygon fill="midnightblue" stroke="midnightblue" points="237.65,-1036.91 234.05,-1026.94 230.65,-1036.98 237.65,-1036.91"/>
</g>
<!-- Node10 -->
<g id="node12" class="node">
<title>Node10</title>
<g id="a_node12"><a xlink:href="classtriton_1_1ast_1_1BvnandNode.html" target="_top" xlink:title="(bvnand &lt;expr1&gt; &lt;expr2&gt;) node">
<polygon fill="white" stroke="black" points="345,-1672.5 345,-1691.5 477,-1691.5 477,-1672.5 345,-1672.5"/>
<text text-anchor="middle" x="411" y="-1679.5" font-family="Helvetica,sans-Serif" font-size="10.00">triton::ast::BvnandNode</text>
</a>
</g>
</g>
<!-- Node0&#45;&gt;Node10 -->
<g id="edge11" class="edge">
<title>Node0&#45;&gt;Node10</title>
<path fill="none" stroke="midnightblue" d="M234.34,-1036.92C236.44,-1135.24 250.53,-1567.76 337,-1663 340.43,-1666.78 344.51,-1669.85 348.97,-1672.34"/>
<polygon fill="midnightblue" stroke="midnightblue" points="237.84,-1036.79 234.15,-1026.86 230.84,-1036.93 237.84,-1036.79"/>
</g>
<!-- Node11 -->
<g id="node13" class="node">
<title>Node11</title>
<g id="a_node13"><a xlink:href="classtriton_1_1ast_1_1BvnegNode.html" target="_top" xlink:title="(bvneg &lt;expr&gt;) node">
<polygon fill="white" stroke="black" points="348,-1634.5 348,-1653.5 474,-1653.5 474,-1634.5 348,-1634.5"/>
<text text-anchor="middle" x="411" y="-1641.5" font-family="Helvetica,sans-Serif" font-size="10.00">triton::ast::BvnegNode</text>
</a>
</g>
</g>
<!-- Node0&#45;&gt;Node11 -->
<g id="edge12" class="edge">
<title>Node0&#45;&gt;Node11</title>
<path fill="none" stroke="midnightblue" d="M234.56,-1036.93C237.63,-1131.72 255.4,-1535.99 337,-1625 340.54,-1628.86 344.76,-1631.98 349.35,-1634.49"/>
<polygon fill="midnightblue" stroke="midnightblue" points="238.05,-1036.62 234.25,-1026.73 231.06,-1036.83 238.05,-1036.62"/>
</g>
<!-- Node12 -->
<g id="node14" class="node">
<title>Node12</title>
<g id="a_node14"><a xlink:href="classtriton_1_1ast_1_1BvnorNode.html" target="_top" xlink:title="(bvnor &lt;expr1&gt; &lt;expr2&gt;) node">
<polygon fill="white" stroke="black" points="349,-1596.5 349,-1615.5 473,-1615.5 473,-1596.5 349,-1596.5"/>
<text text-anchor="middle" x="411" y="-1603.5" font-family="Helvetica,sans-Serif" font-size="10.00">triton::ast::BvnorNode</text>
</a>
</g>
</g>
<!-- Node0&#45;&gt;Node12 -->
<g id="edge13" class="edge">
<title>Node0&#45;&gt;Node12</title>
<path fill="none" stroke="midnightblue" d="M234.8,-1036.82C238.88,-1127.76 260.21,-1504.16 337,-1587 340.56,-1590.84 344.79,-1593.95 349.4,-1596.45"/>
<polygon fill="midnightblue" stroke="midnightblue" points="238.29,-1036.4 234.36,-1026.56 231.29,-1036.7 238.29,-1036.4"/>
</g>
<!-- Node13 -->
<g id="node15" class="node">
<title>Node13</title>
<g id="a_node15"><a xlink:href="classtriton_1_1ast_1_1BvnotNode.html" target="_top" xlink:title="(bvnot &lt;expr&gt;) node">
<polygon fill="white" stroke="black" points="349,-1558.5 349,-1577.5 473,-1577.5 473,-1558.5 349,-1558.5"/>
<text text-anchor="middle" x="411" y="-1565.5" font-family="Helvetica,sans-Serif" font-size="10.00">triton::ast::BvnotNode</text>
</a>
</g>
</g>
<!-- Node0&#45;&gt;Node13 -->
<g id="edge14" class="edge">
<title>Node0&#45;&gt;Node13</title>
<path fill="none" stroke="midnightblue" d="M235.08,-1036.88C240.23,-1124.14 265.07,-1472.35 337,-1549 340.58,-1552.82 344.83,-1555.91 349.45,-1558.4"/>
<polygon fill="midnightblue" stroke="midnightblue" points="238.57,-1036.54 234.51,-1026.75 231.58,-1036.93 238.57,-1036.54"/>
</g>
<!-- Node14 -->
<g id="node16" class="node">
<title>Node14</title>
<g id="a_node16"><a xlink:href="classtriton_1_1ast_1_1BvorNode.html" target="_top" xlink:title="(bvor &lt;expr1&gt; &lt;expr2&gt;) node">
<polygon fill="white" stroke="black" points="352,-1520.5 352,-1539.5 470,-1539.5 470,-1520.5 352,-1520.5"/>
<text text-anchor="middle" x="411" y="-1527.5" font-family="Helvetica,sans-Serif" font-size="10.00">triton::ast::BvorNode</text>
</a>
</g>
</g>
<!-- Node0&#45;&gt;Node14 -->
<g id="edge15" class="edge">
<title>Node0&#45;&gt;Node14</title>
<path fill="none" stroke="midnightblue" d="M235.41,-1037.04C241.72,-1120.64 269.93,-1440.55 337,-1511 341.24,-1515.46 346.39,-1518.92 351.96,-1521.6"/>
<polygon fill="midnightblue" stroke="midnightblue" points="238.89,-1036.58 234.67,-1026.86 231.91,-1037.09 238.89,-1036.58"/>
</g>
<!-- Node15 -->
<g id="node17" class="node">
<title>Node15</title>
<g id="a_node17"><a xlink:href="classtriton_1_1ast_1_1BvrolNode.html" target="_top" xlink:title="((_ rotate_left rot) &lt;expr&gt;) node">
<polygon fill="white" stroke="black" points="350.5,-1482.5 350.5,-1501.5 471.5,-1501.5 471.5,-1482.5 350.5,-1482.5"/>
<text text-anchor="middle" x="411" y="-1489.5" font-family="Helvetica,sans-Serif" font-size="10.00">triton::ast::BvrolNode</text>
</a>
</g>
</g>
<!-- Node0&#45;&gt;Node15 -->
<g id="edge16" class="edge">
<title>Node0&#45;&gt;Node15</title>
<path fill="none" stroke="midnightblue" d="M235.79,-1037C243.28,-1116.48 274.72,-1408.67 337,-1473 340.83,-1476.95 345.36,-1480.12 350.27,-1482.65"/>
<polygon fill="midnightblue" stroke="midnightblue" points="239.26,-1036.51 234.85,-1026.88 232.29,-1037.15 239.26,-1036.51"/>
</g>
<!-- Node16 -->
<g id="node18" class="node">
<title>Node16</title>
<g id="a_node18"><a xlink:href="classtriton_1_1ast_1_1BvrorNode.html" target="_top" xlink:title="((_ rotate_right rot) &lt;expr&gt;) node">
<polygon fill="white" stroke="black" points="350,-1444.5 350,-1463.5 472,-1463.5 472,-1444.5 350,-1444.5"/>
<text text-anchor="middle" x="411" y="-1451.5" font-family="Helvetica,sans-Serif" font-size="10.00">triton::ast::BvrorNode</text>
</a>
</g>
</g>
<!-- Node0&#45;&gt;Node16 -->
<g id="edge17" class="edge">
<title>Node0&#45;&gt;Node16</title>
<path fill="none" stroke="midnightblue" d="M236.2,-1036.77C244.93,-1111.67 279.44,-1376.69 337,-1435 340.77,-1438.82 345.21,-1441.91 350,-1444.39"/>
<polygon fill="midnightblue" stroke="midnightblue" points="239.67,-1036.33 235.06,-1026.79 232.72,-1037.12 239.67,-1036.33"/>
</g>
<!-- Node17 -->
<g id="node19" class="node">
<title>Node17</title>
<g id="a_node19"><a xlink:href="classtriton_1_1ast_1_1BvsdivNode.html" target="_top" xlink:title="(bvsdiv &lt;expr1&gt; &lt;expr2&gt;) node">
<polygon fill="white" stroke="black" points="347,-1406.5 347,-1425.5 475,-1425.5 475,-1406.5 347,-1406.5"/>
<text text-anchor="middle" x="411" y="-1413.5" font-family="Helvetica,sans-Serif" font-size="10.00">triton::ast::BvsdivNode</text>
</a>
</g>
</g>
<!-- Node0&#45;&gt;Node17 -->
<g id="edge18" class="edge">
<title>Node0&#45;&gt;Node17</title>
<path fill="none" stroke="midnightblue" d="M236.72,-1036.75C246.8,-1107.2 284.2,-1344.73 337,-1397 340.91,-1400.87 345.5,-1403.98 350.44,-1406.48"/>
<polygon fill="midnightblue" stroke="midnightblue" points="240.15,-1036.01 235.29,-1026.6 233.22,-1036.99 240.15,-1036.01"/>
</g>
<!-- Node18 -->
<g id="node20" class="node">
<title>Node18</title>
<g id="a_node20"><a xlink:href="classtriton_1_1ast_1_1BvsgeNode.html" target="_top" xlink:title="(bvsge &lt;expr1&gt; &lt;expr2&gt;) node">
<polygon fill="white" stroke="black" points="348.5,-1368.5 348.5,-1387.5 473.5,-1387.5 473.5,-1368.5 348.5,-1368.5"/>
<text text-anchor="middle" x="411" y="-1375.5" font-family="Helvetica,sans-Serif" font-size="10.00">triton::ast::BvsgeNode</text>
</a>
</g>
</g>
<!-- Node0&#45;&gt;Node18 -->
<g id="edge19" class="edge">
<title>Node0&#45;&gt;Node18</title>
<path fill="none" stroke="midnightblue" d="M233.69,-1036.63C233.9,-1094.87 242.77,-1268.28 337,-1359 340.96,-1362.81 345.59,-1365.89 350.56,-1368.36"/>
<polygon fill="midnightblue" stroke="midnightblue" points="237.19,-1036.59 233.74,-1026.57 230.19,-1036.56 237.19,-1036.59"/>
</g>
<!-- Node19 -->
<g id="node21" class="node">
<title>Node19</title>
<g id="a_node21"><a xlink:href="classtriton_1_1ast_1_1BvsgtNode.html" target="_top" xlink:title="(bvsgt &lt;expr1&gt; &lt;expr2&gt;) node">
<polygon fill="white" stroke="black" points="349.5,-1330.5 349.5,-1349.5 472.5,-1349.5 472.5,-1330.5 349.5,-1330.5"/>
<text text-anchor="middle" x="411" y="-1337.5" font-family="Helvetica,sans-Serif" font-size="10.00">triton::ast::BvsgtNode</text>
</a>
</g>
</g>
<!-- Node0&#45;&gt;Node19 -->
<g id="edge20" class="edge">
<title>Node0&#45;&gt;Node19</title>
<path fill="none" stroke="midnightblue" d="M234.56,-1036.92C237.22,-1091.06 252.24,-1242.14 337,-1321 341.12,-1324.84 345.92,-1327.92 351.05,-1330.39"/>
<polygon fill="midnightblue" stroke="midnightblue" points="238.05,-1036.49 234.16,-1026.63 231.06,-1036.76 238.05,-1036.49"/>
</g>
<!-- Node20 -->
<g id="node22" class="node">
<title>Node20</title>
<g id="a_node22"><a xlink:href="classtriton_1_1ast_1_1BvshlNode.html" target="_top" xlink:title="(bvshl &lt;expr1&gt; &lt;expr2&gt;) node">
<polygon fill="white" stroke="black" points="350,-1292.5 350,-1311.5 472,-1311.5 472,-1292.5 350,-1292.5"/>
<text text-anchor="middle" x="411" y="-1299.5" font-family="Helvetica,sans-Serif" font-size="10.00">triton::ast::BvshlNode</text>
</a>
</g>
</g>
<!-- Node0&#45;&gt;Node20 -->
<g id="edge21" class="edge">
<title>Node0&#45;&gt;Node20</title>
<path fill="none" stroke="midnightblue" d="M235.64,-1036.74C240.84,-1086.06 261.37,-1215.59 337,-1283 341.3,-1286.83 346.28,-1289.91 351.58,-1292.38"/>
<polygon fill="midnightblue" stroke="midnightblue" points="239.12,-1036.36 234.69,-1026.74 232.16,-1037.02 239.12,-1036.36"/>
</g>
<!-- Node21 -->
<g id="node23" class="node">
<title>Node21</title>
<g id="a_node23"><a xlink:href="classtriton_1_1ast_1_1BvsleNode.html" target="_top" xlink:title="(bvsle &lt;expr1&gt; &lt;expr2&gt;) node">
<polygon fill="white" stroke="black" points="350,-1254.5 350,-1273.5 472,-1273.5 472,-1254.5 350,-1254.5"/>
<text text-anchor="middle" x="411" y="-1261.5" font-family="Helvetica,sans-Serif" font-size="10.00">triton::ast::BvsleNode</text>
</a>
</g>
</g>
<!-- Node0&#45;&gt;Node21 -->
<g id="edge22" class="edge">
<title>Node0&#45;&gt;Node21</title>
<path fill="none" stroke="midnightblue" d="M237.03,-1036.56C244.94,-1080.75 270.41,-1188.85 337,-1245 341.61,-1248.88 346.91,-1251.98 352.52,-1254.46"/>
<polygon fill="midnightblue" stroke="midnightblue" points="240.46,-1035.83 235.35,-1026.54 233.55,-1036.99 240.46,-1035.83"/>
</g>
<!-- Node22 -->
<g id="node24" class="node">
<title>Node22</title>
<g id="a_node24"><a xlink:href="classtriton_1_1ast_1_1BvsltNode.html" target="_top" xlink:title="(bvslt &lt;expr1&gt; &lt;expr2&gt;) node">
<polygon fill="white" stroke="black" points="351,-1216.5 351,-1235.5 471,-1235.5 471,-1216.5 351,-1216.5"/>
<text text-anchor="middle" x="411" y="-1223.5" font-family="Helvetica,sans-Serif" font-size="10.00">triton::ast::BvsltNode</text>
</a>
</g>
</g>
<!-- Node0&#45;&gt;Node22 -->
<g id="edge23" class="edge">
<title>Node0&#45;&gt;Node22</title>
<path fill="none" stroke="midnightblue" d="M238.98,-1036.67C249.85,-1075.46 279.46,-1161.94 337,-1207 341.95,-1210.88 347.61,-1213.97 353.54,-1216.43"/>
<polygon fill="midnightblue" stroke="midnightblue" points="242.27,-1035.42 236.3,-1026.67 235.51,-1037.23 242.27,-1035.42"/>
</g>
<!-- Node23 -->
<g id="node25" class="node">
<title>Node23</title>
<g id="a_node25"><a xlink:href="classtriton_1_1ast_1_1BvsmodNode.html" target="_top" xlink:title="(bvsmod &lt;expr1&gt; &lt;expr2&gt;) node">
<polygon fill="white" stroke="black" points="343.5,-1178.5 343.5,-1197.5 478.5,-1197.5 478.5,-1178.5 343.5,-1178.5"/>
<text text-anchor="middle" x="411" y="-1185.5" font-family="Helvetica,sans-Serif" font-size="10.00">triton::ast::BvsmodNode</text>
</a>
</g>
</g>
<!-- Node0&#45;&gt;Node23 -->
<g id="edge24" class="edge">
<title>Node0&#45;&gt;Node23</title>
<path fill="none" stroke="midnightblue" d="M241.45,-1035.85C255.24,-1068.25 287.9,-1134.32 337,-1169 342.46,-1172.85 348.63,-1175.93 355.03,-1178.37"/>
<polygon fill="midnightblue" stroke="midnightblue" points="244.68,-1034.51 237.64,-1026.6 238.21,-1037.18 244.68,-1034.51"/>
</g>
<!-- Node24 -->
<g id="node26" class="node">
<title>Node24</title>
<g id="a_node26"><a xlink:href="classtriton_1_1ast_1_1BvsremNode.html" target="_top" xlink:title="(bvsrem &lt;expr1&gt; &lt;expr2&gt;) node">
<polygon fill="white" stroke="black" points="344.5,-1140.5 344.5,-1159.5 477.5,-1159.5 477.5,-1140.5 344.5,-1140.5"/>
<text text-anchor="middle" x="411" y="-1147.5" font-family="Helvetica,sans-Serif" font-size="10.00">triton::ast::BvsremNode</text>
</a>
</g>
</g>
<!-- Node0&#45;&gt;Node24 -->
<g id="edge25" class="edge">
<title>Node0&#45;&gt;Node24</title>
<path fill="none" stroke="midnightblue" d="M245.49,-1035.34C262.38,-1060.76 296.36,-1106.34 337,-1131 343.38,-1134.87 350.54,-1137.96 357.81,-1140.43"/>
<polygon fill="midnightblue" stroke="midnightblue" points="248.25,-1033.16 239.87,-1026.67 242.37,-1036.97 248.25,-1033.16"/>
</g>
<!-- Node25 -->
<g id="node27" class="node">
<title>Node25</title>
<g id="a_node27"><a xlink:href="classtriton_1_1ast_1_1BvsubNode.html" target="_top" xlink:title="(bvsub &lt;expr1&gt; &lt;expr2&gt;) node">
<polygon fill="white" stroke="black" points="348.5,-1102.5 348.5,-1121.5 473.5,-1121.5 473.5,-1102.5 348.5,-1102.5"/>
<text text-anchor="middle" x="411" y="-1109.5" font-family="Helvetica,sans-Serif" font-size="10.00">triton::ast::BvsubNode</text>
</a>
</g>
</g>
<!-- Node0&#45;&gt;Node25 -->
<g id="edge26" class="edge">
<title>Node0&#45;&gt;Node25</title>
<path fill="none" stroke="midnightblue" d="M251.74,-1033.43C271.24,-1050.65 304.18,-1077.34 337,-1093 344.92,-1096.78 353.69,-1099.88 362.33,-1102.4"/>
<polygon fill="midnightblue" stroke="midnightblue" points="254.02,-1030.77 244.24,-1026.69 249.33,-1035.98 254.02,-1030.77"/>
</g>
<!-- Node27 -->
<g id="node28" class="node">
<title>Node27</title>
<g id="a_node28"><a xlink:href="classtriton_1_1ast_1_1BvugeNode.html" target="_top" xlink:title="(bvuge &lt;expr1&gt; &lt;expr2&gt;) node">
<polygon fill="white" stroke="black" points="348,-1064.5 348,-1083.5 474,-1083.5 474,-1064.5 348,-1064.5"/>
<text text-anchor="middle" x="411" y="-1071.5" font-family="Helvetica,sans-Serif" font-size="10.00">triton::ast::BvugeNode</text>
</a>
</g>
</g>
<!-- Node0&#45;&gt;Node27 -->
<g id="edge28" class="edge">
<title>Node0&#45;&gt;Node27</title>
<path fill="none" stroke="midnightblue" d="M267.49,-1030.31C287.5,-1038.02 313.51,-1047.63 337,-1055 347.75,-1058.37 359.51,-1061.62 370.4,-1064.45"/>
<polygon fill="midnightblue" stroke="midnightblue" points="268.5,-1026.95 257.91,-1026.59 265.96,-1033.47 268.5,-1026.95"/>
</g>
<!-- Node28 -->
<g id="node29" class="node">
<title>Node28</title>
<g id="a_node29"><a xlink:href="classtriton_1_1ast_1_1BvugtNode.html" target="_top" xlink:title="(bvugt &lt;expr1&gt; &lt;expr2&gt;) node">
<polygon fill="white" stroke="black" points="349,-1026.5 349,-1045.5 473,-1045.5 473,-1026.5 349,-1026.5"/>
<text text-anchor="middle" x="411" y="-1033.5" font-family="Helvetica,sans-Serif" font-size="10.00">triton::ast::BvugtNode</text>
</a>
</g>
</g>
<!-- Node0&#45;&gt;Node28 -->
<g id="edge29" class="edge">
<title>Node0&#45;&gt;Node28</title>
<path fill="none" stroke="midnightblue" d="M311.11,-1025.32C323.76,-1026.69 336.73,-1028.09 348.92,-1029.41"/>
<polygon fill="midnightblue" stroke="midnightblue" points="311.36,-1021.83 301.04,-1024.24 310.61,-1028.79 311.36,-1021.83"/>
</g>
<!-- Node29 -->
<g id="node30" class="node">
<title>Node29</title>
<g id="a_node30"><a xlink:href="classtriton_1_1ast_1_1BvuleNode.html" target="_top" xlink:title="(bvule &lt;expr1&gt; &lt;expr2&gt;) node">
<polygon fill="white" stroke="black" points="349.5,-988.5 349.5,-1007.5 472.5,-1007.5 472.5,-988.5 349.5,-988.5"/>
<text text-anchor="middle" x="411" y="-995.5" font-family="Helvetica,sans-Serif" font-size="10.00">triton::ast::BvuleNode</text>
</a>
</g>
</g>
<!-- Node0&#45;&gt;Node29 -->
<g id="edge30" class="edge">
<title>Node0&#45;&gt;Node29</title>
<path fill="none" stroke="midnightblue" d="M311.23,-1008.66C324.05,-1007.28 337.17,-1005.86 349.5,-1004.53"/>
<polygon fill="midnightblue" stroke="midnightblue" points="310.61,-1005.21 301.04,-1009.76 311.36,-1012.17 310.61,-1005.21"/>
</g>
<!-- Node30 -->
<g id="node31" class="node">
<title>Node30</title>
<g id="a_node31"><a xlink:href="classtriton_1_1ast_1_1BvultNode.html" target="_top" xlink:title="(bvult &lt;expr1&gt; &lt;expr2&gt;) node">
<polygon fill="white" stroke="black" points="350.5,-950.5 350.5,-969.5 471.5,-969.5 471.5,-950.5 350.5,-950.5"/>
<text text-anchor="middle" x="411" y="-957.5" font-family="Helvetica,sans-Serif" font-size="10.00">triton::ast::BvultNode</text>
</a>
</g>
</g>
<!-- Node0&#45;&gt;Node30 -->
<g id="edge31" class="edge">
<title>Node0&#45;&gt;Node30</title>
<path fill="none" stroke="midnightblue" d="M282.77,-1004.47C288.97,-1002.5 295.18,-1000.33 301,-998 317.79,-991.27 320.13,-985.54 337,-979 346.4,-975.35 356.75,-972.18 366.63,-969.53"/>
<polygon fill="midnightblue" stroke="midnightblue" points="281.64,-1001.15 273.08,-1007.4 283.67,-1007.85 281.64,-1001.15"/>
</g>
<!-- Node31 -->
<g id="node32" class="node">
<title>Node31</title>
<g id="a_node32"><a xlink:href="classtriton_1_1ast_1_1BvuremNode.html" target="_top" xlink:title="(bvurem &lt;expr1&gt; &lt;expr2&gt;) node">
<polygon fill="white" stroke="black" points="344,-912.5 344,-931.5 478,-931.5 478,-912.5 344,-912.5"/>
<text text-anchor="middle" x="411" y="-919.5" font-family="Helvetica,sans-Serif" font-size="10.00">triton::ast::BvuremNode</text>
</a>
</g>
</g>
<!-- Node0&#45;&gt;Node31 -->
<g id="edge32" class="edge">
<title>Node0&#45;&gt;Node31</title>
<path fill="none" stroke="midnightblue" d="M292.64,-1003.28C295.58,-1001.71 298.39,-999.95 301,-998 325,-980.06 312.81,-958.68 337,-941 342.29,-937.14 348.29,-934.06 354.54,-931.6"/>
<polygon fill="midnightblue" stroke="midnightblue" points="291.16,-1000.11 283.55,-1007.48 294.09,-1006.47 291.16,-1000.11"/>
</g>
<!-- Node32 -->
<g id="node33" class="node">
<title>Node32</title>
<g id="a_node33"><a xlink:href="classtriton_1_1ast_1_1BvxnorNode.html" target="_top" xlink:title="(bvxnor &lt;expr1&gt; &lt;expr2&gt;) node">
<polygon fill="white" stroke="black" points="346,-874.5 346,-893.5 476,-893.5 476,-874.5 346,-874.5"/>
<text text-anchor="middle" x="411" y="-881.5" font-family="Helvetica,sans-Serif" font-size="10.00">triton::ast::BvxnorNode</text>
</a>
</g>
</g>
<!-- Node0&#45;&gt;Node32 -->
<g id="edge33" class="edge">
<title>Node0&#45;&gt;Node32</title>
<path fill="none" stroke="midnightblue" d="M295.57,-1002.31C297.48,-1000.99 299.3,-999.56 301,-998 334.27,-967.47 303.4,-933.16 337,-903 341.29,-899.15 346.26,-896.06 351.55,-893.59"/>
<polygon fill="midnightblue" stroke="midnightblue" points="293.64,-999.38 286.68,-1007.37 297.1,-1005.46 293.64,-999.38"/>
</g>
<!-- Node33 -->
<g id="node34" class="node">
<title>Node33</title>
<g id="a_node34"><a xlink:href="classtriton_1_1ast_1_1BvxorNode.html" target="_top" xlink:title="(bvxor &lt;expr1&gt; &lt;expr2&gt;) node">
<polygon fill="white" stroke="black" points="349.5,-836.5 349.5,-855.5 472.5,-855.5 472.5,-836.5 349.5,-836.5"/>
<text text-anchor="middle" x="411" y="-843.5" font-family="Helvetica,sans-Serif" font-size="10.00">triton::ast::BvxorNode</text>
</a>
</g>
</g>
<!-- Node0&#45;&gt;Node33 -->
<g id="edge34" class="edge">
<title>Node0&#45;&gt;Node33</title>
<path fill="none" stroke="midnightblue" d="M296.41,-1002.04C298.03,-1000.79 299.57,-999.45 301,-998 344.04,-954.44 293.49,-908.09 337,-865 340.91,-861.13 345.5,-858.02 350.44,-855.52"/>
<polygon fill="midnightblue" stroke="midnightblue" points="294.36,-999.19 287.72,-1007.44 298.06,-1005.13 294.36,-999.19"/>
</g>
<!-- Node34 -->
<g id="node35" class="node">
<title>Node34</title>
<g id="a_node35"><a xlink:href="classtriton_1_1ast_1_1CompoundNode.html" target="_top" xlink:title="[&lt;expr1&gt; &lt;expr2&gt; &lt;expr3&gt; ...] node">
<polygon fill="white" stroke="black" points="337,-798.5 337,-817.5 485,-817.5 485,-798.5 337,-798.5"/>
<text text-anchor="middle" x="411" y="-805.5" font-family="Helvetica,sans-Serif" font-size="10.00">triton::ast::CompoundNode</text>
</a>
</g>
</g>
<!-- Node0&#45;&gt;Node34 -->
<g id="edge35" class="edge">
<title>Node0&#45;&gt;Node34</title>
<path fill="none" stroke="midnightblue" d="M297.01,-1001.74C298.42,-1000.58 299.75,-999.34 301,-998 354,-941.22 283.39,-883.2 337,-827 340.62,-823.21 344.88,-820.14 349.51,-817.66"/>
<polygon fill="midnightblue" stroke="midnightblue" points="294.7,-999.07 288.27,-1007.49 298.55,-1004.92 294.7,-999.07"/>
</g>
<!-- Node35 -->
<g id="node36" class="node">
<title>Node35</title>
<g id="a_node36"><a xlink:href="classtriton_1_1ast_1_1ConcatNode.html" target="_top" xlink:title="(concat &lt;expr1&gt; &lt;expr2&gt; ...) node">
<polygon fill="white" stroke="black" points="346.5,-760.5 346.5,-779.5 475.5,-779.5 475.5,-760.5 346.5,-760.5"/>
<text text-anchor="middle" x="411" y="-767.5" font-family="Helvetica,sans-Serif" font-size="10.00">triton::ast::ConcatNode</text>
</a>
</g>
</g>
<!-- Node0&#45;&gt;Node35 -->
<g id="edge36" class="edge">
<title>Node0&#45;&gt;Node35</title>
<path fill="none" stroke="midnightblue" d="M297.17,-1001.72C298.52,-1000.57 299.8,-999.33 301,-998 364.03,-927.92 273.21,-858.39 337,-789 340.55,-785.14 344.76,-782.03 349.36,-779.52"/>
<polygon fill="midnightblue" stroke="midnightblue" points="295.04,-998.94 288.74,-1007.46 298.98,-1004.73 295.04,-998.94"/>
</g>
<!-- Node36 -->
<g id="node37" class="node">
<title>Node36</title>
<g id="a_node37"><a xlink:href="classtriton_1_1ast_1_1DeclareNode.html" target="_top" xlink:title="(declare&#45;fun &lt;var_name&gt; () (_ BitVec &lt;var_size&gt;)) node">
<polygon fill="white" stroke="black" points="344.5,-722.5 344.5,-741.5 477.5,-741.5 477.5,-722.5 344.5,-722.5"/>
<text text-anchor="middle" x="411" y="-729.5" font-family="Helvetica,sans-Serif" font-size="10.00">triton::ast::DeclareNode</text>
</a>
</g>
</g>
<!-- Node0&#45;&gt;Node36 -->
<g id="edge37" class="edge">
<title>Node0&#45;&gt;Node36</title>
<path fill="none" stroke="midnightblue" d="M297.67,-1001.37C298.84,-1000.31 299.95,-999.19 301,-998 374.12,-914.57 262.98,-833.63 337,-751 340.41,-747.2 344.47,-744.11 348.91,-741.61"/>
<polygon fill="midnightblue" stroke="midnightblue" points="295.31,-998.74 289.17,-1007.37 299.35,-1004.46 295.31,-998.74"/>
</g>
<!-- Node37 -->
<g id="node38" class="node">
<title>Node37</title>
<g id="a_node38"><a xlink:href="classtriton_1_1ast_1_1DistinctNode.html" target="_top" xlink:title="(distinct &lt;expr1&gt; &lt;expr2&gt; ...) node">
<polygon fill="white" stroke="black" points="344.5,-684.5 344.5,-703.5 477.5,-703.5 477.5,-684.5 344.5,-684.5"/>
<text text-anchor="middle" x="411" y="-691.5" font-family="Helvetica,sans-Serif" font-size="10.00">triton::ast::DistinctNode</text>
</a>
</g>
</g>
<!-- Node0&#45;&gt;Node37 -->
<g id="edge38" class="edge">
<title>Node0&#45;&gt;Node37</title>
<path fill="none" stroke="midnightblue" d="M297.7,-1001.39C298.86,-1000.33 299.97,-999.2 301,-998 384.23,-901.18 252.73,-808.91 337,-713 340.37,-709.16 344.41,-706.05 348.83,-703.54"/>
<polygon fill="midnightblue" stroke="midnightblue" points="295.34,-998.78 289.24,-1007.44 299.41,-1004.47 295.34,-998.78"/>
</g>
<!-- Node38 -->
<g id="node39" class="node">
<title>Node38</title>
<g id="a_node39"><a xlink:href="classtriton_1_1ast_1_1EqualNode.html" target="_top" xlink:title="(= &lt;expr1&gt; &lt;expr2&gt; ...) node">
<polygon fill="white" stroke="black" points="350,-646.5 350,-665.5 472,-665.5 472,-646.5 350,-646.5"/>
<text text-anchor="middle" x="411" y="-653.5" font-family="Helvetica,sans-Serif" font-size="10.00">triton::ast::EqualNode</text>
</a>
</g>
</g>
<!-- Node0&#45;&gt;Node38 -->
<g id="edge39" class="edge">
<title>Node0&#45;&gt;Node38</title>
<path fill="none" stroke="midnightblue" d="M297.72,-1001.41C298.88,-1000.35 299.97,-999.21 301,-998 394.36,-887.78 242.45,-784.2 337,-675 340.6,-670.84 344.98,-667.54 349.8,-664.92"/>
<polygon fill="midnightblue" stroke="midnightblue" points="295.36,-998.8 289.3,-1007.49 299.46,-1004.48 295.36,-998.8"/>
</g>
<!-- Node39 -->
<g id="node40" class="node">
<title>Node39</title>
<g id="a_node40"><a xlink:href="classtriton_1_1ast_1_1ExtractNode.html" target="_top" xlink:title="((_ extract &lt;high&gt; &lt;low&gt;) &lt;expr&gt;) node">
<polygon fill="white" stroke="black" points="346,-608.5 346,-627.5 476,-627.5 476,-608.5 346,-608.5"/>
<text text-anchor="middle" x="411" y="-615.5" font-family="Helvetica,sans-Serif" font-size="10.00">triton::ast::ExtractNode</text>
</a>
</g>
</g>
<!-- Node0&#45;&gt;Node39 -->
<g id="edge40" class="edge">
<title>Node0&#45;&gt;Node39</title>
<path fill="none" stroke="midnightblue" d="M297.82,-1001.35C298.94,-1000.3 300.01,-999.19 301,-998 404.49,-874.36 232.17,-759.51 337,-637 340.24,-633.22 344.12,-630.14 348.39,-627.64"/>
<polygon fill="midnightblue" stroke="midnightblue" points="295.65,-998.61 289.66,-1007.35 299.79,-1004.25 295.65,-998.61"/>
</g>
<!-- Node40 -->
<g id="node41" class="node">
<title>Node40</title>
<g id="a_node41"><a xlink:href="classtriton_1_1ast_1_1ForallNode.html" target="_top" xlink:title="(forall ((x (_ BitVec &lt;size&gt;)), ...) body)">
<polygon fill="white" stroke="black" points="350,-570.5 350,-589.5 472,-589.5 472,-570.5 350,-570.5"/>
<text text-anchor="middle" x="411" y="-577.5" font-family="Helvetica,sans-Serif" font-size="10.00">triton::ast::ForallNode</text>
</a>
</g>
</g>
<!-- Node0&#45;&gt;Node40 -->
<g id="edge41" class="edge">
<title>Node0&#45;&gt;Node40</title>
<path fill="none" stroke="midnightblue" d="M297.84,-1001.37C298.95,-1000.31 300.01,-999.19 301,-998 357.82,-929.46 279.44,-666.91 337,-599 340.56,-594.8 344.91,-591.47 349.71,-588.84"/>
<polygon fill="midnightblue" stroke="midnightblue" points="295.66,-998.62 289.7,-1007.38 299.82,-1004.25 295.66,-998.62"/>
</g>
<!-- Node41 -->
<g id="node42" class="node">
<title>Node41</title>
<g id="a_node42"><a xlink:href="classtriton_1_1ast_1_1IffNode.html" target="_top" xlink:title="(iff &lt;expr1&gt; &lt;expr2&gt;)">
<polygon fill="white" stroke="black" points="358.5,-532.5 358.5,-551.5 463.5,-551.5 463.5,-532.5 358.5,-532.5"/>
<text text-anchor="middle" x="411" y="-539.5" font-family="Helvetica,sans-Serif" font-size="10.00">triton::ast::IffNode</text>
</a>
</g>
</g>
<!-- Node0&#45;&gt;Node41 -->
<g id="edge42" class="edge">
<title>Node0&#45;&gt;Node41</title>
<path fill="none" stroke="midnightblue" d="M297.85,-1001.38C298.96,-1000.32 300.02,-999.2 301,-998 362.9,-922.75 274.29,-635.58 337,-561 342.56,-554.38 350.11,-549.92 358.25,-546.93"/>
<polygon fill="midnightblue" stroke="midnightblue" points="295.67,-998.63 289.73,-1007.41 299.85,-1004.25 295.67,-998.63"/>
</g>
<!-- Node42 -->
<g id="node43" class="node">
<title>Node42</title>
<g id="a_node43"><a xlink:href="classtriton_1_1ast_1_1IntegerNode.html" target="_top" xlink:title="Integer node.">
<polygon fill="white" stroke="black" points="346,-494.5 346,-513.5 476,-513.5 476,-494.5 346,-494.5"/>
<text text-anchor="middle" x="411" y="-501.5" font-family="Helvetica,sans-Serif" font-size="10.00">triton::ast::IntegerNode</text>
</a>
</g>
</g>
<!-- Node0&#45;&gt;Node42 -->
<g id="edge43" class="edge">
<title>Node0&#45;&gt;Node42</title>
<path fill="none" stroke="midnightblue" d="M297.86,-1001.39C298.97,-1000.33 300.02,-999.2 301,-998 367.98,-916.03 269.14,-604.24 337,-523 340.19,-519.18 344.04,-516.08 348.29,-513.56"/>
<polygon fill="midnightblue" stroke="midnightblue" points="295.68,-998.64 289.76,-1007.43 299.87,-1004.26 295.68,-998.64"/>
</g>
<!-- Node43 -->
<g id="node44" class="node">
<title>Node43</title>
<g id="a_node44"><a xlink:href="classtriton_1_1ast_1_1IteNode.html" target="_top" xlink:title="(ite &lt;ifExpr&gt; &lt;thenExpr&gt; &lt;elseExpr&gt;)">
<polygon fill="white" stroke="black" points="357,-456.5 357,-475.5 465,-475.5 465,-456.5 357,-456.5"/>
<text text-anchor="middle" x="411" y="-463.5" font-family="Helvetica,sans-Serif" font-size="10.00">triton::ast::IteNode</text>
</a>
</g>
</g>
<!-- Node0&#45;&gt;Node43 -->
<g id="edge44" class="edge">
<title>Node0&#45;&gt;Node43</title>
<path fill="none" stroke="midnightblue" d="M297.87,-1001.39C298.98,-1000.33 300.02,-999.2 301,-998 373.06,-909.3 263.98,-572.91 337,-485 342.19,-478.75 349.14,-474.42 356.71,-471.44"/>
<polygon fill="midnightblue" stroke="midnightblue" points="295.69,-998.65 289.78,-1007.45 299.88,-1004.26 295.69,-998.65"/>
</g>
<!-- Node44 -->
<g id="node45" class="node">
<title>Node44</title>
<g id="a_node45"><a xlink:href="classtriton_1_1ast_1_1LandNode.html" target="_top" xlink:title="(and &lt;expr1&gt; &lt;expr2&gt;)">
<polygon fill="white" stroke="black" points="351.5,-418.5 351.5,-437.5 470.5,-437.5 470.5,-418.5 351.5,-418.5"/>
<text text-anchor="middle" x="411" y="-425.5" font-family="Helvetica,sans-Serif" font-size="10.00">triton::ast::LandNode</text>
</a>
</g>
</g>
<!-- Node0&#45;&gt;Node44 -->
<g id="edge45" class="edge">
<title>Node0&#45;&gt;Node44</title>
<path fill="none" stroke="midnightblue" d="M297.88,-1001.4C298.98,-1000.34 300.03,-999.2 301,-998 378.14,-902.58 258.83,-541.58 337,-447 340.92,-442.26 345.86,-438.61 351.32,-435.83"/>
<polygon fill="midnightblue" stroke="midnightblue" points="295.7,-998.66 289.8,-1007.46 299.9,-1004.26 295.7,-998.66"/>
</g>
<!-- Node45 -->
<g id="node46" class="node">
<title>Node45</title>
<g id="a_node46"><a xlink:href="classtriton_1_1ast_1_1LetNode.html" target="_top" xlink:title="(let ((&lt;alias&gt; &lt;expr2&gt;)) &lt;expr3&gt;)">
<polygon fill="white" stroke="black" points="356,-380.5 356,-399.5 466,-399.5 466,-380.5 356,-380.5"/>
<text text-anchor="middle" x="411" y="-387.5" font-family="Helvetica,sans-Serif" font-size="10.00">triton::ast::LetNode</text>
</a>
</g>
</g>
<!-- Node0&#45;&gt;Node45 -->
<g id="edge46" class="edge">
<title>Node0&#45;&gt;Node45</title>
<path fill="none" stroke="midnightblue" d="M297.88,-1001.4C298.99,-1000.34 300.03,-999.21 301,-998 383.23,-895.85 253.67,-510.25 337,-409 341.99,-402.93 348.66,-398.67 355.93,-395.69"/>
<polygon fill="midnightblue" stroke="midnightblue" points="295.7,-998.67 289.82,-1007.48 299.91,-1004.26 295.7,-998.67"/>
</g>
<!-- Node46 -->
<g id="node47" class="node">
<title>Node46</title>
<g id="a_node47"><a xlink:href="classtriton_1_1ast_1_1LnotNode.html" target="_top" xlink:title="(lnot &lt;expr&gt;)">
<polygon fill="white" stroke="black" points="353,-342.5 353,-361.5 469,-361.5 469,-342.5 353,-342.5"/>
<text text-anchor="middle" x="411" y="-349.5" font-family="Helvetica,sans-Serif" font-size="10.00">triton::ast::LnotNode</text>
</a>
</g>
</g>
<!-- Node0&#45;&gt;Node46 -->
<g id="edge47" class="edge">
<title>Node0&#45;&gt;Node46</title>
<path fill="none" stroke="midnightblue" d="M297.89,-1001.41C298.99,-1000.34 300.03,-999.21 301,-998 388.31,-889.12 248.51,-478.92 337,-371 341.23,-365.84 346.68,-361.97 352.68,-359.1"/>
<polygon fill="midnightblue" stroke="midnightblue" points="295.71,-998.67 289.83,-1007.49 299.92,-1004.26 295.71,-998.67"/>
</g>
<!-- Node47 -->
<g id="node48" class="node">
<title>Node47</title>
<g id="a_node48"><a xlink:href="classtriton_1_1ast_1_1LorNode.html" target="_top" xlink:title="(or &lt;expr1&gt; &lt;expr2&gt;)">
<polygon fill="white" stroke="black" points="356,-304.5 356,-323.5 466,-323.5 466,-304.5 356,-304.5"/>
<text text-anchor="middle" x="411" y="-311.5" font-family="Helvetica,sans-Serif" font-size="10.00">triton::ast::LorNode</text>
</a>
</g>
</g>
<!-- Node0&#45;&gt;Node47 -->
<g id="edge48" class="edge">
<title>Node0&#45;&gt;Node47</title>
<path fill="none" stroke="midnightblue" d="M297.9,-1001.41C298.99,-1000.35 300.03,-999.21 301,-998 393.4,-882.39 243.35,-447.6 337,-333 341.97,-326.92 348.62,-322.64 355.89,-319.66"/>
<polygon fill="midnightblue" stroke="midnightblue" points="295.71,-998.68 289.85,-1007.5 299.93,-1004.26 295.71,-998.68"/>
</g>
<!-- Node48 -->
<g id="node49" class="node">
<title>Node48</title>
<g id="a_node49"><a xlink:href="classtriton_1_1ast_1_1LxorNode.html" target="_top" xlink:title="(xor &lt;expr1&gt; &lt;expr2&gt;)">
<polygon fill="white" stroke="black" points="353,-266.5 353,-285.5 469,-285.5 469,-266.5 353,-266.5"/>
<text text-anchor="middle" x="411" y="-273.5" font-family="Helvetica,sans-Serif" font-size="10.00">triton::ast::LxorNode</text>
</a>
</g>
</g>
<!-- Node0&#45;&gt;Node48 -->
<g id="edge49" class="edge">
<title>Node0&#45;&gt;Node48</title>
<path fill="none" stroke="midnightblue" d="M298.3,-1001.02C299.25,-1000.07 300.15,-999.06 301,-998 398.48,-875.66 238.19,-416.27 337,-295 341.22,-289.82 346.65,-285.95 352.65,-283.08"/>
<polygon fill="midnightblue" stroke="midnightblue" points="295.93,-998.43 290.17,-1007.32 300.22,-1003.97 295.93,-998.43"/>
</g>
<!-- Node49 -->
<g id="node50" class="node">
<title>Node49</title>
<g id="a_node50"><a xlink:href="classtriton_1_1ast_1_1ReferenceNode.html" target="_top" xlink:title="Reference node.">
<polygon fill="white" stroke="black" points="338.5,-228.5 338.5,-247.5 483.5,-247.5 483.5,-228.5 338.5,-228.5"/>
<text text-anchor="middle" x="411" y="-235.5" font-family="Helvetica,sans-Serif" font-size="10.00">triton::ast::ReferenceNode</text>
</a>
</g>
</g>
<!-- Node0&#45;&gt;Node49 -->
<g id="edge50" class="edge">
<title>Node0&#45;&gt;Node49</title>
<path fill="none" stroke="midnightblue" d="M298.3,-1001.03C299.25,-1000.07 300.15,-999.06 301,-998 403.57,-868.93 233.03,-384.95 337,-257 340.06,-253.24 343.75,-250.17 347.84,-247.67"/>
<polygon fill="midnightblue" stroke="midnightblue" points="295.93,-998.44 290.18,-1007.33 300.22,-1003.97 295.93,-998.44"/>
</g>
<!-- Node50 -->
<g id="node51" class="node">
<title>Node50</title>
<g id="a_node51"><a xlink:href="classtriton_1_1ast_1_1SelectNode.html" target="_top" xlink:title="(select array index)">
<polygon fill="white" stroke="black" points="348.5,-190.5 348.5,-209.5 473.5,-209.5 473.5,-190.5 348.5,-190.5"/>
<text text-anchor="middle" x="411" y="-197.5" font-family="Helvetica,sans-Serif" font-size="10.00">triton::ast::SelectNode</text>
</a>
</g>
</g>
<!-- Node0&#45;&gt;Node50 -->
<g id="edge51" class="edge">
<title>Node0&#45;&gt;Node50</title>
<path fill="none" stroke="midnightblue" d="M298.31,-1001.03C299.25,-1000.07 300.15,-999.07 301,-998 354.83,-930.1 282.44,-286.31 337,-219 340.22,-215.03 344.15,-211.83 348.5,-209.26"/>
<polygon fill="midnightblue" stroke="midnightblue" points="295.93,-998.44 290.19,-1007.34 300.23,-1003.97 295.93,-998.44"/>
</g>
<!-- Node51 -->
<g id="node52" class="node">
<title>Node51</title>
<g id="a_node52"><a xlink:href="classtriton_1_1ast_1_1StoreNode.html" target="_top" xlink:title="(store array index expr)">
<polygon fill="white" stroke="black" points="350.5,-152.5 350.5,-171.5 471.5,-171.5 471.5,-152.5 350.5,-152.5"/>
<text text-anchor="middle" x="411" y="-159.5" font-family="Helvetica,sans-Serif" font-size="10.00">triton::ast::StoreNode</text>
</a>
</g>
</g>
<!-- Node0&#45;&gt;Node51 -->
<g id="edge52" class="edge">
<title>Node0&#45;&gt;Node51</title>
<path fill="none" stroke="midnightblue" d="M298.31,-1001.03C299.26,-1000.08 300.16,-999.07 301,-998 357.37,-926.74 279.86,-251.65 337,-181 340.62,-176.52 345.16,-173.02 350.18,-170.29"/>
<polygon fill="midnightblue" stroke="midnightblue" points="295.94,-998.44 290.2,-1007.35 300.24,-1003.97 295.94,-998.44"/>
</g>
<!-- Node52 -->
<g id="node53" class="node">
<title>Node52</title>
<g id="a_node53"><a xlink:href="classtriton_1_1ast_1_1StringNode.html" target="_top" xlink:title="String node.">
<polygon fill="white" stroke="black" points="349,-114.5 349,-133.5 473,-133.5 473,-114.5 349,-114.5"/>
<text text-anchor="middle" x="411" y="-121.5" font-family="Helvetica,sans-Serif" font-size="10.00">triton::ast::StringNode</text>
</a>
</g>
</g>
<!-- Node0&#45;&gt;Node52 -->
<g id="edge53" class="edge">
<title>Node0&#45;&gt;Node52</title>
<path fill="none" stroke="midnightblue" d="M298.31,-1001.03C299.26,-1000.08 300.16,-999.07 301,-998 359.92,-923.37 277.28,-216.99 337,-143 340.29,-138.92 344.33,-135.66 348.82,-133.05"/>
<polygon fill="midnightblue" stroke="midnightblue" points="295.94,-998.45 290.2,-1007.35 300.24,-1003.97 295.94,-998.45"/>
</g>
<!-- Node53 -->
<g id="node54" class="node">
<title>Node53</title>
<g id="a_node54"><a xlink:href="classtriton_1_1ast_1_1SxNode.html" target="_top" xlink:title="((_ sign_extend sizeExt) &lt;expr&gt;) node">
<polygon fill="white" stroke="black" points="357.5,-76.5 357.5,-95.5 464.5,-95.5 464.5,-76.5 357.5,-76.5"/>
<text text-anchor="middle" x="411" y="-83.5" font-family="Helvetica,sans-Serif" font-size="10.00">triton::ast::SxNode</text>
</a>
</g>
</g>
<!-- Node0&#45;&gt;Node53 -->
<g id="edge54" class="edge">
<title>Node0&#45;&gt;Node53</title>
<path fill="none" stroke="midnightblue" d="M298.31,-1001.04C299.26,-1000.08 300.16,-999.07 301,-998 362.46,-920 274.7,-182.33 337,-105 342.26,-98.47 349.45,-94.02 357.28,-91.02"/>
<polygon fill="midnightblue" stroke="midnightblue" points="295.94,-998.45 290.21,-1007.36 300.25,-1003.97 295.94,-998.45"/>
</g>
<!-- Node54 -->
<g id="node55" class="node">
<title>Node54</title>
<g id="a_node55"><a xlink:href="classtriton_1_1ast_1_1VariableNode.html" target="_top" xlink:title="Variable node.">
<polygon fill="white" stroke="black" points="343.5,-38.5 343.5,-57.5 478.5,-57.5 478.5,-38.5 343.5,-38.5"/>
<text text-anchor="middle" x="411" y="-45.5" font-family="Helvetica,sans-Serif" font-size="10.00">triton::ast::VariableNode</text>
</a>
</g>
</g>
<!-- Node0&#45;&gt;Node54 -->
<g id="edge55" class="edge">
<title>Node0&#45;&gt;Node54</title>
<path fill="none" stroke="midnightblue" d="M298.32,-1001.04C299.26,-1000.08 300.16,-999.07 301,-998 365.01,-916.64 272.11,-147.66 337,-67 340.04,-63.22 343.72,-60.14 347.8,-57.63"/>
<polygon fill="midnightblue" stroke="midnightblue" points="295.94,-998.45 290.22,-1007.36 300.25,-1003.97 295.94,-998.45"/>
</g>
<!-- Node55 -->
<g id="node56" class="node">
<title>Node55</title>
<g id="a_node56"><a xlink:href="classtriton_1_1ast_1_1ZxNode.html" target="_top" xlink:title="((_ zero_extend sizeExt) &lt;expr&gt;) node">
<polygon fill="white" stroke="black" points="357,-0.5 357,-19.5 465,-19.5 465,-0.5 357,-0.5"/>
<text text-anchor="middle" x="411" y="-7.5" font-family="Helvetica,sans-Serif" font-size="10.00">triton::ast::ZxNode</text>
</a>
</g>
</g>
<!-- Node0&#45;&gt;Node55 -->
<g id="edge56" class="edge">
<title>Node0&#45;&gt;Node55</title>
<path fill="none" stroke="midnightblue" d="M298.32,-1001.04C299.26,-1000.08 300.16,-999.07 301,-998 367.55,-913.27 269.53,-113 337,-29 342.17,-22.57 349.21,-18.15 356.9,-15.15"/>
<polygon fill="midnightblue" stroke="midnightblue" points="295.95,-998.45 290.22,-1007.37 300.26,-1003.97 295.95,-998.45"/>
</g>
</g>
</svg>
