<?xml version="1.0" encoding="UTF-8" standalone="no"?>
<!DOCTYPE svg PUBLIC "-//W3C//DTD SVG 1.1//EN"
 "http://www.w3.org/Graphics/SVG/1.1/DTD/svg11.dtd">
<!-- Generated by graphviz version 11.0.0 (20240428.1522)
 -->
<!-- Title: Graphical Class Hierarchy Pages: 1 -->
<svg width="176pt" height="88pt"
 viewBox="0.00 0.00 175.75 87.50" xmlns="http://www.w3.org/2000/svg" xmlns:xlink="http://www.w3.org/1999/xlink">
<g id="graph0" class="graph" transform="scale(1 1) rotate(0) translate(4 83.5)">
<title>Graphical Class Hierarchy</title>
<!-- Node0 -->
<g id="Node000000" class="node">
<title>Node0</title>
<g id="a_Node000000"><a xlink:title=" ">
<polygon fill="#e0e0e0" stroke="#999999" points="37,-48.88 0,-48.88 0,-29.62 37,-29.62 37,-48.88"/>
<text text-anchor="middle" x="18.5" y="-35.38" font-family="Helvetica,sans-Serif" font-size="10.00">hash</text>
</a>
</g>
</g>
<!-- Node1 -->
<g id="Node000001" class="node">
<title>Node1</title>
<g id="a_Node000001"><a xlink:href="structstd_1_1hash_3_01triton_1_1arch_1_1register__e_01_4.html" target="_top" xlink:title="Define the hash function for register_e to be use in stl containers like unordered_map.">
<polygon fill="white" stroke="#666666" points="167,-79.5 73.75,-79.5 73.75,-49 167,-49 167,-79.5"/>
<text text-anchor="start" x="81.75" y="-66" font-family="Helvetica,sans-Serif" font-size="10.00">std::hash&lt; triton::</text>
<text text-anchor="middle" x="120.38" y="-54.75" font-family="Helvetica,sans-Serif" font-size="10.00">arch::register_e &gt;</text>
</a>
</g>
</g>
<!-- Node0&#45;&gt;Node1 -->
<g id="edge1_Node000000_Node000001" class="edge">
<title>Node0&#45;&gt;Node1</title>
<g id="a_edge1_Node000000_Node000001"><a xlink:title=" ">
<path fill="none" stroke="#63b8ff" d="M48.43,-46.49C56.24,-48.45 64.89,-50.61 73.38,-52.74"/>
<polygon fill="#63b8ff" stroke="#63b8ff" points="49.37,-43.12 38.82,-44.09 47.67,-49.91 49.37,-43.12"/>
</a>
</g>
</g>
<!-- Node2 -->
<g id="Node000002" class="node">
<title>Node2</title>
<g id="a_Node000002"><a xlink:href="structstd_1_1hash_3_01triton_1_1modes_1_1mode__e_01_4.html" target="_top" xlink:title="Define the hash function for mode_e to be use in stl containers like unordered_set.">
<polygon fill="white" stroke="#666666" points="167.75,-30.5 73,-30.5 73,0 167.75,0 167.75,-30.5"/>
<text text-anchor="start" x="81" y="-17" font-family="Helvetica,sans-Serif" font-size="10.00">std::hash&lt; triton::</text>
<text text-anchor="middle" x="120.38" y="-5.75" font-family="Helvetica,sans-Serif" font-size="10.00">modes::mode_e &gt;</text>
</a>
</g>
</g>
<!-- Node0&#45;&gt;Node2 -->
<g id="edge2_Node000000_Node000002" class="edge">
<title>Node0&#45;&gt;Node2</title>
<g id="a_edge2_Node000000_Node000002"><a xlink:title=" ">
<path fill="none" stroke="#63b8ff" d="M48.44,-32.3C55.98,-30.48 64.31,-28.48 72.53,-26.51"/>
<polygon fill="#63b8ff" stroke="#63b8ff" points="47.73,-28.87 38.83,-34.61 49.37,-35.67 47.73,-28.87"/>
</a>
</g>
</g>
</g>
</svg>
