<?xml version="1.0" encoding="UTF-8" standalone="no"?>
<!DOCTYPE svg PUBLIC "-//W3C//DTD SVG 1.1//EN"
 "http://www.w3.org/Graphics/SVG/1.1/DTD/svg11.dtd">
<!-- Generated by graphviz version 2.49.0 (20210828.1703)
 -->
<!-- Title: Graphical Class Hierarchy Pages: 1 -->
<svg width="488pt" height="1890pt"
 viewBox="0.00 0.00 488.00 1890.00" xmlns="http://www.w3.org/2000/svg" xmlns:xlink="http://www.w3.org/1999/xlink">
<g id="graph0" class="graph" transform="scale(1 1) rotate(0) translate(4 1886)">
<title>Graphical Class Hierarchy</title>
<polygon fill="white" stroke="transparent" points="-4,4 -4,-1886 484,-1886 484,4 -4,4"/>
<!-- Node26 -->
<g id="node1" class="node">
<title>Node26</title>
<g id="a_node1"><a xlink:href="classtriton_1_1ast_1_1BvugtNode.html" target="_top" xlink:title="(bvugt &lt;expr1&gt; &lt;expr2&gt;) node">
<polygon fill="white" stroke="black" points="0,-931.5 0,-950.5 124,-950.5 124,-931.5 0,-931.5"/>
<text text-anchor="middle" x="62" y="-938.5" font-family="Helvetica,sans-Serif" font-size="10.00">triton::ast::BvugtNode</text>
</a>
</g>
</g>
<!-- Node0 -->
<g id="node2" class="node">
<title>Node0</title>
<g id="a_node2"><a xlink:href="classtriton_1_1ast_1_1AbstractNode.html" target="_top" xlink:title="Abstract node.">
<polygon fill="white" stroke="black" points="160,-931.5 160,-950.5 296,-950.5 296,-931.5 160,-931.5"/>
<text text-anchor="middle" x="228" y="-938.5" font-family="Helvetica,sans-Serif" font-size="10.00">triton::ast::AbstractNode</text>
</a>
</g>
</g>
<!-- Node26&#45;&gt;Node0 -->
<g id="edge1" class="edge">
<title>Node26&#45;&gt;Node0</title>
<path fill="none" stroke="midnightblue" d="M134.3,-934.3C142.78,-934.22 151.41,-934.24 159.82,-934.35"/>
<polygon fill="midnightblue" stroke="midnightblue" points="134.02,-930.81 124.07,-934.45 134.12,-937.8 134.02,-930.81"/>
</g>
<!-- Node79 -->
<g id="node53" class="node">
<title>Node79</title>
<g id="a_node53"><a xlink:href="classtriton_1_1ast_1_1AstContext.html" target="_top" xlink:title="AST Context &#45; Used as AST builder.">
<polygon fill="white" stroke="black" points="166,-893.5 166,-912.5 290,-912.5 290,-893.5 166,-893.5"/>
<text text-anchor="middle" x="228" y="-900.5" font-family="Helvetica,sans-Serif" font-size="10.00">triton::ast::AstContext</text>
</a>
</g>
</g>
<!-- Node26&#45;&gt;Node79 -->
<g id="edge53" class="edge">
<title>Node26&#45;&gt;Node79</title>
<path fill="none" stroke="midnightblue" d="M114.34,-929.1C137.39,-923.76 164.22,-917.55 185.91,-912.52"/>
<polygon fill="midnightblue" stroke="midnightblue" points="113.34,-925.74 104.38,-931.41 114.92,-932.56 113.34,-925.74"/>
</g>
<!-- Node0&#45;&gt;Node26 -->
<g id="edge27" class="edge">
<title>Node0&#45;&gt;Node26</title>
<path fill="none" stroke="midnightblue" d="M149.76,-947.74C141.14,-947.78 132.45,-947.71 124.07,-947.55"/>
<polygon fill="midnightblue" stroke="midnightblue" points="149.85,-951.24 159.82,-947.65 149.79,-944.24 149.85,-951.24"/>
</g>
<!-- Node1 -->
<g id="node3" class="node">
<title>Node1</title>
<g id="a_node3"><a xlink:href="classtriton_1_1ast_1_1AssertNode.html" target="_top" xlink:title="(assert &lt;expr&gt;) node">
<polygon fill="white" stroke="black" points="343,-1862.5 343,-1881.5 469,-1881.5 469,-1862.5 343,-1862.5"/>
<text text-anchor="middle" x="406" y="-1869.5" font-family="Helvetica,sans-Serif" font-size="10.00">triton::ast::AssertNode</text>
</a>
</g>
</g>
<!-- Node0&#45;&gt;Node1 -->
<g id="edge2" class="edge">
<title>Node0&#45;&gt;Node1</title>
<path fill="none" stroke="midnightblue" d="M229.91,-960.89C235.91,-1087.95 271.33,-1783.03 332,-1853 335.26,-1856.76 339.16,-1859.82 343.44,-1862.31"/>
<polygon fill="midnightblue" stroke="midnightblue" points="233.4,-960.51 229.44,-950.69 226.41,-960.84 233.4,-960.51"/>
</g>
<!-- Node2 -->
<g id="node4" class="node">
<title>Node2</title>
<g id="a_node4"><a xlink:href="classtriton_1_1ast_1_1BvNode.html" target="_top" xlink:title="(_ bv&lt;value&gt; &lt;size&gt;) node">
<polygon fill="white" stroke="black" points="352,-1824.5 352,-1843.5 460,-1843.5 460,-1824.5 352,-1824.5"/>
<text text-anchor="middle" x="406" y="-1831.5" font-family="Helvetica,sans-Serif" font-size="10.00">triton::ast::BvNode</text>
</a>
</g>
</g>
<!-- Node0&#45;&gt;Node2 -->
<g id="edge3" class="edge">
<title>Node0&#45;&gt;Node2</title>
<path fill="none" stroke="midnightblue" d="M230.01,-960.82C236.49,-1084.58 273.78,-1748.18 332,-1815 337.33,-1821.12 344.37,-1825.39 351.96,-1828.35"/>
<polygon fill="midnightblue" stroke="midnightblue" points="233.49,-960.37 229.48,-950.56 226.5,-960.73 233.49,-960.37"/>
</g>
<!-- Node3 -->
<g id="node5" class="node">
<title>Node3</title>
<g id="a_node5"><a xlink:href="classtriton_1_1ast_1_1BvaddNode.html" target="_top" xlink:title="(bvadd &lt;expr1&gt; &lt;expr2&gt;) node">
<polygon fill="white" stroke="black" points="343,-1786.5 343,-1805.5 469,-1805.5 469,-1786.5 343,-1786.5"/>
<text text-anchor="middle" x="406" y="-1793.5" font-family="Helvetica,sans-Serif" font-size="10.00">triton::ast::BvaddNode</text>
</a>
</g>
</g>
<!-- Node0&#45;&gt;Node3 -->
<g id="edge4" class="edge">
<title>Node0&#45;&gt;Node3</title>
<path fill="none" stroke="midnightblue" d="M230.11,-960.71C237.09,-1081 276.23,-1713.33 332,-1777 335.37,-1780.84 339.4,-1783.95 343.82,-1786.47"/>
<polygon fill="midnightblue" stroke="midnightblue" points="233.61,-960.48 229.54,-950.7 226.62,-960.88 233.61,-960.48"/>
</g>
<!-- Node4 -->
<g id="node6" class="node">
<title>Node4</title>
<g id="a_node6"><a xlink:href="classtriton_1_1ast_1_1BvandNode.html" target="_top" xlink:title="(bvand &lt;expr1&gt; &lt;expr2&gt;) node">
<polygon fill="white" stroke="black" points="343,-1748.5 343,-1767.5 469,-1767.5 469,-1748.5 343,-1748.5"/>
<text text-anchor="middle" x="406" y="-1755.5" font-family="Helvetica,sans-Serif" font-size="10.00">triton::ast::BvandNode</text>
</a>
</g>
</g>
<!-- Node0&#45;&gt;Node4 -->
<g id="edge5" class="edge">
<title>Node0&#45;&gt;Node4</title>
<path fill="none" stroke="midnightblue" d="M228.68,-960.84C227.28,-1072.17 225.97,-1618.66 332,-1739 335.38,-1742.83 339.42,-1745.94 343.84,-1748.45"/>
<polygon fill="midnightblue" stroke="midnightblue" points="232.18,-960.74 228.82,-950.69 225.18,-960.64 232.18,-960.74"/>
</g>
<!-- Node5 -->
<g id="node7" class="node">
<title>Node5</title>
<g id="a_node7"><a xlink:href="classtriton_1_1ast_1_1BvashrNode.html" target="_top" xlink:title="(bvashr &lt;expr1&gt; &lt;expr2&gt;) node">
<polygon fill="white" stroke="black" points="341.5,-1710.5 341.5,-1729.5 470.5,-1729.5 470.5,-1710.5 341.5,-1710.5"/>
<text text-anchor="middle" x="406" y="-1717.5" font-family="Helvetica,sans-Serif" font-size="10.00">triton::ast::BvashrNode</text>
</a>
</g>
</g>
<!-- Node0&#45;&gt;Node5 -->
<g id="edge6" class="edge">
<title>Node0&#45;&gt;Node5</title>
<path fill="none" stroke="midnightblue" d="M228.82,-960.9C228.25,-1069.21 230.89,-1586.98 332,-1701 335.39,-1704.82 339.44,-1707.92 343.87,-1710.43"/>
<polygon fill="midnightblue" stroke="midnightblue" points="232.32,-960.76 228.89,-950.73 225.32,-960.71 232.32,-960.76"/>
</g>
<!-- Node6 -->
<g id="node8" class="node">
<title>Node6</title>
<g id="a_node8"><a xlink:href="classtriton_1_1ast_1_1BvlshrNode.html" target="_top" xlink:title="(bvlshr &lt;expr1&gt; &lt;expr2&gt;) node">
<polygon fill="white" stroke="black" points="343,-1672.5 343,-1691.5 469,-1691.5 469,-1672.5 343,-1672.5"/>
<text text-anchor="middle" x="406" y="-1679.5" font-family="Helvetica,sans-Serif" font-size="10.00">triton::ast::BvlshrNode</text>
</a>
</g>
</g>
<!-- Node0&#45;&gt;Node6 -->
<g id="edge7" class="edge">
<title>Node0&#45;&gt;Node6</title>
<path fill="none" stroke="midnightblue" d="M228.98,-961.22C229.27,-1066.94 235.88,-1555.36 332,-1663 335.4,-1666.81 339.46,-1669.9 343.9,-1672.4"/>
<polygon fill="midnightblue" stroke="midnightblue" points="232.48,-960.98 228.97,-950.99 225.48,-960.99 232.48,-960.98"/>
</g>
<!-- Node7 -->
<g id="node9" class="node">
<title>Node7</title>
<g id="a_node9"><a xlink:href="classtriton_1_1ast_1_1BvmulNode.html" target="_top" xlink:title="(bvmul &lt;expr1&gt; &lt;expr2&gt;) node">
<polygon fill="white" stroke="black" points="342.5,-1634.5 342.5,-1653.5 469.5,-1653.5 469.5,-1634.5 342.5,-1634.5"/>
<text text-anchor="middle" x="406" y="-1641.5" font-family="Helvetica,sans-Serif" font-size="10.00">triton::ast::BvmulNode</text>
</a>
</g>
</g>
<!-- Node0&#45;&gt;Node7 -->
<g id="edge8" class="edge">
<title>Node0&#45;&gt;Node7</title>
<path fill="none" stroke="midnightblue" d="M229.15,-961.12C230.33,-1063.26 240.72,-1523.58 332,-1625 335.42,-1628.8 339.49,-1631.88 343.93,-1634.37"/>
<polygon fill="midnightblue" stroke="midnightblue" points="232.65,-960.91 229.05,-950.94 225.65,-960.98 232.65,-960.91"/>
</g>
<!-- Node8 -->
<g id="node10" class="node">
<title>Node8</title>
<g id="a_node10"><a xlink:href="classtriton_1_1ast_1_1BvnandNode.html" target="_top" xlink:title="(bvnand &lt;expr1&gt; &lt;expr2&gt;) node">
<polygon fill="white" stroke="black" points="340,-1596.5 340,-1615.5 472,-1615.5 472,-1596.5 340,-1596.5"/>
<text text-anchor="middle" x="406" y="-1603.5" font-family="Helvetica,sans-Serif" font-size="10.00">triton::ast::BvnandNode</text>
</a>
</g>
</g>
<!-- Node0&#45;&gt;Node8 -->
<g id="edge9" class="edge">
<title>Node0&#45;&gt;Node8</title>
<path fill="none" stroke="midnightblue" d="M229.34,-960.92C231.44,-1059.24 245.53,-1491.76 332,-1587 335.43,-1590.78 339.51,-1593.85 343.97,-1596.34"/>
<polygon fill="midnightblue" stroke="midnightblue" points="232.84,-960.79 229.15,-950.86 225.84,-960.93 232.84,-960.79"/>
</g>
<!-- Node9 -->
<g id="node11" class="node">
<title>Node9</title>
<g id="a_node11"><a xlink:href="classtriton_1_1ast_1_1BvnegNode.html" target="_top" xlink:title="(bvneg &lt;expr&gt;) node">
<polygon fill="white" stroke="black" points="343,-1558.5 343,-1577.5 469,-1577.5 469,-1558.5 343,-1558.5"/>
<text text-anchor="middle" x="406" y="-1565.5" font-family="Helvetica,sans-Serif" font-size="10.00">triton::ast::BvnegNode</text>
</a>
</g>
</g>
<!-- Node0&#45;&gt;Node9 -->
<g id="edge10" class="edge">
<title>Node0&#45;&gt;Node9</title>
<path fill="none" stroke="midnightblue" d="M229.56,-960.93C232.63,-1055.72 250.4,-1459.99 332,-1549 335.54,-1552.86 339.76,-1555.98 344.35,-1558.49"/>
<polygon fill="midnightblue" stroke="midnightblue" points="233.05,-960.62 229.25,-950.73 226.06,-960.83 233.05,-960.62"/>
</g>
<!-- Node10 -->
<g id="node12" class="node">
<title>Node10</title>
<g id="a_node12"><a xlink:href="classtriton_1_1ast_1_1BvnorNode.html" target="_top" xlink:title="(bvnor &lt;expr1&gt; &lt;expr2&gt;) node">
<polygon fill="white" stroke="black" points="344,-1520.5 344,-1539.5 468,-1539.5 468,-1520.5 344,-1520.5"/>
<text text-anchor="middle" x="406" y="-1527.5" font-family="Helvetica,sans-Serif" font-size="10.00">triton::ast::BvnorNode</text>
</a>
</g>
</g>
<!-- Node0&#45;&gt;Node10 -->
<g id="edge11" class="edge">
<title>Node0&#45;&gt;Node10</title>
<path fill="none" stroke="midnightblue" d="M229.8,-960.82C233.88,-1051.76 255.21,-1428.16 332,-1511 335.56,-1514.84 339.79,-1517.95 344.4,-1520.45"/>
<polygon fill="midnightblue" stroke="midnightblue" points="233.29,-960.4 229.36,-950.56 226.29,-960.7 233.29,-960.4"/>
</g>
<!-- Node11 -->
<g id="node13" class="node">
<title>Node11</title>
<g id="a_node13"><a xlink:href="classtriton_1_1ast_1_1BvnotNode.html" target="_top" xlink:title="(bvnot &lt;expr&gt;) node">
<polygon fill="white" stroke="black" points="344,-1482.5 344,-1501.5 468,-1501.5 468,-1482.5 344,-1482.5"/>
<text text-anchor="middle" x="406" y="-1489.5" font-family="Helvetica,sans-Serif" font-size="10.00">triton::ast::BvnotNode</text>
</a>
</g>
</g>
<!-- Node0&#45;&gt;Node11 -->
<g id="edge12" class="edge">
<title>Node0&#45;&gt;Node11</title>
<path fill="none" stroke="midnightblue" d="M230.08,-960.88C235.23,-1048.14 260.07,-1396.35 332,-1473 335.58,-1476.82 339.83,-1479.91 344.45,-1482.4"/>
<polygon fill="midnightblue" stroke="midnightblue" points="233.57,-960.54 229.51,-950.75 226.58,-960.93 233.57,-960.54"/>
</g>
<!-- Node12 -->
<g id="node14" class="node">
<title>Node12</title>
<g id="a_node14"><a xlink:href="classtriton_1_1ast_1_1BvorNode.html" target="_top" xlink:title="(bvor &lt;expr1&gt; &lt;expr2&gt;) node">
<polygon fill="white" stroke="black" points="347,-1444.5 347,-1463.5 465,-1463.5 465,-1444.5 347,-1444.5"/>
<text text-anchor="middle" x="406" y="-1451.5" font-family="Helvetica,sans-Serif" font-size="10.00">triton::ast::BvorNode</text>
</a>
</g>
</g>
<!-- Node0&#45;&gt;Node12 -->
<g id="edge13" class="edge">
<title>Node0&#45;&gt;Node12</title>
<path fill="none" stroke="midnightblue" d="M230.41,-961.04C236.72,-1044.64 264.93,-1364.55 332,-1435 336.24,-1439.46 341.39,-1442.92 346.96,-1445.6"/>
<polygon fill="midnightblue" stroke="midnightblue" points="233.89,-960.58 229.67,-950.86 226.91,-961.09 233.89,-960.58"/>
</g>
<!-- Node13 -->
<g id="node15" class="node">
<title>Node13</title>
<g id="a_node15"><a xlink:href="classtriton_1_1ast_1_1BvrolNode.html" target="_top" xlink:title="((_ rotate_left rot) &lt;expr&gt;) node">
<polygon fill="white" stroke="black" points="345.5,-1406.5 345.5,-1425.5 466.5,-1425.5 466.5,-1406.5 345.5,-1406.5"/>
<text text-anchor="middle" x="406" y="-1413.5" font-family="Helvetica,sans-Serif" font-size="10.00">triton::ast::BvrolNode</text>
</a>
</g>
</g>
<!-- Node0&#45;&gt;Node13 -->
<g id="edge14" class="edge">
<title>Node0&#45;&gt;Node13</title>
<path fill="none" stroke="midnightblue" d="M230.79,-961C238.28,-1040.48 269.72,-1332.67 332,-1397 335.83,-1400.95 340.36,-1404.12 345.27,-1406.65"/>
<polygon fill="midnightblue" stroke="midnightblue" points="234.26,-960.51 229.85,-950.88 227.29,-961.15 234.26,-960.51"/>
</g>
<!-- Node14 -->
<g id="node16" class="node">
<title>Node14</title>
<g id="a_node16"><a xlink:href="classtriton_1_1ast_1_1BvrorNode.html" target="_top" xlink:title="((_ rotate_right rot) &lt;expr&gt;) node">
<polygon fill="white" stroke="black" points="345,-1368.5 345,-1387.5 467,-1387.5 467,-1368.5 345,-1368.5"/>
<text text-anchor="middle" x="406" y="-1375.5" font-family="Helvetica,sans-Serif" font-size="10.00">triton::ast::BvrorNode</text>
</a>
</g>
</g>
<!-- Node0&#45;&gt;Node14 -->
<g id="edge15" class="edge">
<title>Node0&#45;&gt;Node14</title>
<path fill="none" stroke="midnightblue" d="M231.2,-960.77C239.93,-1035.67 274.44,-1300.69 332,-1359 335.77,-1362.82 340.21,-1365.91 345,-1368.39"/>
<polygon fill="midnightblue" stroke="midnightblue" points="234.67,-960.33 230.06,-950.79 227.72,-961.12 234.67,-960.33"/>
</g>
<!-- Node15 -->
<g id="node17" class="node">
<title>Node15</title>
<g id="a_node17"><a xlink:href="classtriton_1_1ast_1_1BvsdivNode.html" target="_top" xlink:title="(bvsdiv &lt;expr1&gt; &lt;expr2&gt;) node">
<polygon fill="white" stroke="black" points="342,-1330.5 342,-1349.5 470,-1349.5 470,-1330.5 342,-1330.5"/>
<text text-anchor="middle" x="406" y="-1337.5" font-family="Helvetica,sans-Serif" font-size="10.00">triton::ast::BvsdivNode</text>
</a>
</g>
</g>
<!-- Node0&#45;&gt;Node15 -->
<g id="edge16" class="edge">
<title>Node0&#45;&gt;Node15</title>
<path fill="none" stroke="midnightblue" d="M231.72,-960.75C241.8,-1031.2 279.2,-1268.73 332,-1321 335.91,-1324.87 340.5,-1327.98 345.44,-1330.48"/>
<polygon fill="midnightblue" stroke="midnightblue" points="235.15,-960.01 230.29,-950.6 228.22,-960.99 235.15,-960.01"/>
</g>
<!-- Node16 -->
<g id="node18" class="node">
<title>Node16</title>
<g id="a_node18"><a xlink:href="classtriton_1_1ast_1_1BvsgeNode.html" target="_top" xlink:title="(bvsge &lt;expr1&gt; &lt;expr2&gt;) node">
<polygon fill="white" stroke="black" points="343.5,-1292.5 343.5,-1311.5 468.5,-1311.5 468.5,-1292.5 343.5,-1292.5"/>
<text text-anchor="middle" x="406" y="-1299.5" font-family="Helvetica,sans-Serif" font-size="10.00">triton::ast::BvsgeNode</text>
</a>
</g>
</g>
<!-- Node0&#45;&gt;Node16 -->
<g id="edge17" class="edge">
<title>Node0&#45;&gt;Node16</title>
<path fill="none" stroke="midnightblue" d="M228.69,-960.63C228.9,-1018.87 237.77,-1192.28 332,-1283 335.96,-1286.81 340.59,-1289.89 345.56,-1292.36"/>
<polygon fill="midnightblue" stroke="midnightblue" points="232.19,-960.59 228.74,-950.57 225.19,-960.56 232.19,-960.59"/>
</g>
<!-- Node17 -->
<g id="node19" class="node">
<title>Node17</title>
<g id="a_node19"><a xlink:href="classtriton_1_1ast_1_1BvsgtNode.html" target="_top" xlink:title="(bvsgt &lt;expr1&gt; &lt;expr2&gt;) node">
<polygon fill="white" stroke="black" points="344.5,-1254.5 344.5,-1273.5 467.5,-1273.5 467.5,-1254.5 344.5,-1254.5"/>
<text text-anchor="middle" x="406" y="-1261.5" font-family="Helvetica,sans-Serif" font-size="10.00">triton::ast::BvsgtNode</text>
</a>
</g>
</g>
<!-- Node0&#45;&gt;Node17 -->
<g id="edge18" class="edge">
<title>Node0&#45;&gt;Node17</title>
<path fill="none" stroke="midnightblue" d="M229.56,-960.92C232.22,-1015.06 247.24,-1166.14 332,-1245 336.12,-1248.84 340.92,-1251.92 346.05,-1254.39"/>
<polygon fill="midnightblue" stroke="midnightblue" points="233.05,-960.49 229.16,-950.63 226.06,-960.76 233.05,-960.49"/>
</g>
<!-- Node18 -->
<g id="node20" class="node">
<title>Node18</title>
<g id="a_node20"><a xlink:href="classtriton_1_1ast_1_1BvshlNode.html" target="_top" xlink:title="(bvshl &lt;expr1&gt; &lt;expr2&gt;) node">
<polygon fill="white" stroke="black" points="345,-1216.5 345,-1235.5 467,-1235.5 467,-1216.5 345,-1216.5"/>
<text text-anchor="middle" x="406" y="-1223.5" font-family="Helvetica,sans-Serif" font-size="10.00">triton::ast::BvshlNode</text>
</a>
</g>
</g>
<!-- Node0&#45;&gt;Node18 -->
<g id="edge19" class="edge">
<title>Node0&#45;&gt;Node18</title>
<path fill="none" stroke="midnightblue" d="M230.64,-960.74C235.84,-1010.06 256.37,-1139.59 332,-1207 336.3,-1210.83 341.28,-1213.91 346.58,-1216.38"/>
<polygon fill="midnightblue" stroke="midnightblue" points="234.12,-960.36 229.69,-950.74 227.16,-961.02 234.12,-960.36"/>
</g>
<!-- Node19 -->
<g id="node21" class="node">
<title>Node19</title>
<g id="a_node21"><a xlink:href="classtriton_1_1ast_1_1BvsleNode.html" target="_top" xlink:title="(bvsle &lt;expr1&gt; &lt;expr2&gt;) node">
<polygon fill="white" stroke="black" points="345,-1178.5 345,-1197.5 467,-1197.5 467,-1178.5 345,-1178.5"/>
<text text-anchor="middle" x="406" y="-1185.5" font-family="Helvetica,sans-Serif" font-size="10.00">triton::ast::BvsleNode</text>
</a>
</g>
</g>
<!-- Node0&#45;&gt;Node19 -->
<g id="edge20" class="edge">
<title>Node0&#45;&gt;Node19</title>
<path fill="none" stroke="midnightblue" d="M232.03,-960.56C239.94,-1004.75 265.41,-1112.85 332,-1169 336.61,-1172.88 341.91,-1175.98 347.52,-1178.46"/>
<polygon fill="midnightblue" stroke="midnightblue" points="235.46,-959.83 230.35,-950.54 228.55,-960.99 235.46,-959.83"/>
</g>
<!-- Node20 -->
<g id="node22" class="node">
<title>Node20</title>
<g id="a_node22"><a xlink:href="classtriton_1_1ast_1_1BvsltNode.html" target="_top" xlink:title="(bvslt &lt;expr1&gt; &lt;expr2&gt;) node">
<polygon fill="white" stroke="black" points="346,-1140.5 346,-1159.5 466,-1159.5 466,-1140.5 346,-1140.5"/>
<text text-anchor="middle" x="406" y="-1147.5" font-family="Helvetica,sans-Serif" font-size="10.00">triton::ast::BvsltNode</text>
</a>
</g>
</g>
<!-- Node0&#45;&gt;Node20 -->
<g id="edge21" class="edge">
<title>Node0&#45;&gt;Node20</title>
<path fill="none" stroke="midnightblue" d="M233.98,-960.67C244.85,-999.46 274.46,-1085.94 332,-1131 336.95,-1134.88 342.61,-1137.97 348.54,-1140.43"/>
<polygon fill="midnightblue" stroke="midnightblue" points="237.27,-959.42 231.3,-950.67 230.51,-961.23 237.27,-959.42"/>
</g>
<!-- Node21 -->
<g id="node23" class="node">
<title>Node21</title>
<g id="a_node23"><a xlink:href="classtriton_1_1ast_1_1BvsmodNode.html" target="_top" xlink:title="(bvsmod &lt;expr1&gt; &lt;expr2&gt;) node">
<polygon fill="white" stroke="black" points="338.5,-1102.5 338.5,-1121.5 473.5,-1121.5 473.5,-1102.5 338.5,-1102.5"/>
<text text-anchor="middle" x="406" y="-1109.5" font-family="Helvetica,sans-Serif" font-size="10.00">triton::ast::BvsmodNode</text>
</a>
</g>
</g>
<!-- Node0&#45;&gt;Node21 -->
<g id="edge22" class="edge">
<title>Node0&#45;&gt;Node21</title>
<path fill="none" stroke="midnightblue" d="M236.45,-959.85C250.24,-992.25 282.9,-1058.32 332,-1093 337.46,-1096.85 343.63,-1099.93 350.03,-1102.37"/>
<polygon fill="midnightblue" stroke="midnightblue" points="239.68,-958.51 232.64,-950.6 233.21,-961.18 239.68,-958.51"/>
</g>
<!-- Node22 -->
<g id="node24" class="node">
<title>Node22</title>
<g id="a_node24"><a xlink:href="classtriton_1_1ast_1_1BvsremNode.html" target="_top" xlink:title="(bvsrem &lt;expr1&gt; &lt;expr2&gt;) node">
<polygon fill="white" stroke="black" points="339.5,-1064.5 339.5,-1083.5 472.5,-1083.5 472.5,-1064.5 339.5,-1064.5"/>
<text text-anchor="middle" x="406" y="-1071.5" font-family="Helvetica,sans-Serif" font-size="10.00">triton::ast::BvsremNode</text>
</a>
</g>
</g>
<!-- Node0&#45;&gt;Node22 -->
<g id="edge23" class="edge">
<title>Node0&#45;&gt;Node22</title>
<path fill="none" stroke="midnightblue" d="M240.49,-959.34C257.38,-984.76 291.36,-1030.34 332,-1055 338.38,-1058.87 345.54,-1061.96 352.81,-1064.43"/>
<polygon fill="midnightblue" stroke="midnightblue" points="243.25,-957.16 234.87,-950.67 237.37,-960.97 243.25,-957.16"/>
</g>
<!-- Node23 -->
<g id="node25" class="node">
<title>Node23</title>
<g id="a_node25"><a xlink:href="classtriton_1_1ast_1_1BvsubNode.html" target="_top" xlink:title="(bvsub &lt;expr1&gt; &lt;expr2&gt;) node">
<polygon fill="white" stroke="black" points="343.5,-1026.5 343.5,-1045.5 468.5,-1045.5 468.5,-1026.5 343.5,-1026.5"/>
<text text-anchor="middle" x="406" y="-1033.5" font-family="Helvetica,sans-Serif" font-size="10.00">triton::ast::BvsubNode</text>
</a>
</g>
</g>
<!-- Node0&#45;&gt;Node23 -->
<g id="edge24" class="edge">
<title>Node0&#45;&gt;Node23</title>
<path fill="none" stroke="midnightblue" d="M246.74,-957.43C266.24,-974.65 299.18,-1001.34 332,-1017 339.92,-1020.78 348.69,-1023.88 357.33,-1026.4"/>
<polygon fill="midnightblue" stroke="midnightblue" points="249.02,-954.77 239.24,-950.69 244.33,-959.98 249.02,-954.77"/>
</g>
<!-- Node24 -->
<g id="node26" class="node">
<title>Node24</title>
<g id="a_node26"><a xlink:href="classtriton_1_1ast_1_1BvudivNode.html" target="_top" xlink:title="(bvudiv &lt;expr1&gt; &lt;expr2&gt;) node">
<polygon fill="white" stroke="black" points="341.5,-988.5 341.5,-1007.5 470.5,-1007.5 470.5,-988.5 341.5,-988.5"/>
<text text-anchor="middle" x="406" y="-995.5" font-family="Helvetica,sans-Serif" font-size="10.00">triton::ast::BvudivNode</text>
</a>
</g>
</g>
<!-- Node0&#45;&gt;Node24 -->
<g id="edge25" class="edge">
<title>Node0&#45;&gt;Node24</title>
<path fill="none" stroke="midnightblue" d="M262.49,-954.31C282.5,-962.02 308.51,-971.63 332,-979 342.75,-982.37 354.51,-985.62 365.4,-988.45"/>
<polygon fill="midnightblue" stroke="midnightblue" points="263.5,-950.95 252.91,-950.59 260.96,-957.47 263.5,-950.95"/>
</g>
<!-- Node25 -->
<g id="node27" class="node">
<title>Node25</title>
<g id="a_node27"><a xlink:href="classtriton_1_1ast_1_1BvugeNode.html" target="_top" xlink:title="(bvuge &lt;expr1&gt; &lt;expr2&gt;) node">
<polygon fill="white" stroke="black" points="343,-950.5 343,-969.5 469,-969.5 469,-950.5 343,-950.5"/>
<text text-anchor="middle" x="406" y="-957.5" font-family="Helvetica,sans-Serif" font-size="10.00">triton::ast::BvugeNode</text>
</a>
</g>
</g>
<!-- Node0&#45;&gt;Node25 -->
<g id="edge26" class="edge">
<title>Node0&#45;&gt;Node25</title>
<path fill="none" stroke="midnightblue" d="M306.22,-949.34C318.45,-950.66 330.95,-952.01 342.78,-953.28"/>
<polygon fill="midnightblue" stroke="midnightblue" points="306.36,-945.83 296.04,-948.24 305.61,-952.79 306.36,-945.83"/>
</g>
<!-- Node27 -->
<g id="node28" class="node">
<title>Node27</title>
<g id="a_node28"><a xlink:href="classtriton_1_1ast_1_1BvuleNode.html" target="_top" xlink:title="(bvule &lt;expr1&gt; &lt;expr2&gt;) node">
<polygon fill="white" stroke="black" points="344.5,-912.5 344.5,-931.5 467.5,-931.5 467.5,-912.5 344.5,-912.5"/>
<text text-anchor="middle" x="406" y="-919.5" font-family="Helvetica,sans-Serif" font-size="10.00">triton::ast::BvuleNode</text>
</a>
</g>
</g>
<!-- Node0&#45;&gt;Node27 -->
<g id="edge28" class="edge">
<title>Node0&#45;&gt;Node27</title>
<path fill="none" stroke="midnightblue" d="M306.23,-932.66C319.05,-931.28 332.17,-929.86 344.5,-928.53"/>
<polygon fill="midnightblue" stroke="midnightblue" points="305.61,-929.21 296.04,-933.76 306.36,-936.17 305.61,-929.21"/>
</g>
<!-- Node28 -->
<g id="node29" class="node">
<title>Node28</title>
<g id="a_node29"><a xlink:href="classtriton_1_1ast_1_1BvultNode.html" target="_top" xlink:title="(bvult &lt;expr1&gt; &lt;expr2&gt;) node">
<polygon fill="white" stroke="black" points="345.5,-874.5 345.5,-893.5 466.5,-893.5 466.5,-874.5 345.5,-874.5"/>
<text text-anchor="middle" x="406" y="-881.5" font-family="Helvetica,sans-Serif" font-size="10.00">triton::ast::BvultNode</text>
</a>
</g>
</g>
<!-- Node0&#45;&gt;Node28 -->
<g id="edge29" class="edge">
<title>Node0&#45;&gt;Node28</title>
<path fill="none" stroke="midnightblue" d="M277.77,-928.47C283.97,-926.5 290.18,-924.33 296,-922 312.79,-915.27 315.13,-909.54 332,-903 341.4,-899.35 351.75,-896.18 361.63,-893.53"/>
<polygon fill="midnightblue" stroke="midnightblue" points="276.64,-925.15 268.08,-931.4 278.67,-931.85 276.64,-925.15"/>
</g>
<!-- Node29 -->
<g id="node30" class="node">
<title>Node29</title>
<g id="a_node30"><a xlink:href="classtriton_1_1ast_1_1BvuremNode.html" target="_top" xlink:title="(bvurem &lt;expr1&gt; &lt;expr2&gt;) node">
<polygon fill="white" stroke="black" points="339,-836.5 339,-855.5 473,-855.5 473,-836.5 339,-836.5"/>
<text text-anchor="middle" x="406" y="-843.5" font-family="Helvetica,sans-Serif" font-size="10.00">triton::ast::BvuremNode</text>
</a>
</g>
</g>
<!-- Node0&#45;&gt;Node29 -->
<g id="edge30" class="edge">
<title>Node0&#45;&gt;Node29</title>
<path fill="none" stroke="midnightblue" d="M287.64,-927.28C290.58,-925.71 293.39,-923.95 296,-922 320,-904.06 307.81,-882.68 332,-865 337.29,-861.14 343.29,-858.06 349.54,-855.6"/>
<polygon fill="midnightblue" stroke="midnightblue" points="286.16,-924.11 278.55,-931.48 289.09,-930.47 286.16,-924.11"/>
</g>
<!-- Node30 -->
<g id="node31" class="node">
<title>Node30</title>
<g id="a_node31"><a xlink:href="classtriton_1_1ast_1_1BvxnorNode.html" target="_top" xlink:title="(bvxnor &lt;expr1&gt; &lt;expr2&gt;) node">
<polygon fill="white" stroke="black" points="341,-798.5 341,-817.5 471,-817.5 471,-798.5 341,-798.5"/>
<text text-anchor="middle" x="406" y="-805.5" font-family="Helvetica,sans-Serif" font-size="10.00">triton::ast::BvxnorNode</text>
</a>
</g>
</g>
<!-- Node0&#45;&gt;Node30 -->
<g id="edge31" class="edge">
<title>Node0&#45;&gt;Node30</title>
<path fill="none" stroke="midnightblue" d="M290.57,-926.31C292.48,-924.99 294.3,-923.56 296,-922 329.27,-891.47 298.4,-857.16 332,-827 336.29,-823.15 341.26,-820.06 346.55,-817.59"/>
<polygon fill="midnightblue" stroke="midnightblue" points="288.64,-923.38 281.68,-931.37 292.1,-929.46 288.64,-923.38"/>
</g>
<!-- Node31 -->
<g id="node32" class="node">
<title>Node31</title>
<g id="a_node32"><a xlink:href="classtriton_1_1ast_1_1BvxorNode.html" target="_top" xlink:title="(bvxor &lt;expr1&gt; &lt;expr2&gt;) node">
<polygon fill="white" stroke="black" points="344.5,-760.5 344.5,-779.5 467.5,-779.5 467.5,-760.5 344.5,-760.5"/>
<text text-anchor="middle" x="406" y="-767.5" font-family="Helvetica,sans-Serif" font-size="10.00">triton::ast::BvxorNode</text>
</a>
</g>
</g>
<!-- Node0&#45;&gt;Node31 -->
<g id="edge32" class="edge">
<title>Node0&#45;&gt;Node31</title>
<path fill="none" stroke="midnightblue" d="M291.41,-926.04C293.03,-924.79 294.57,-923.45 296,-922 339.04,-878.44 288.49,-832.09 332,-789 335.91,-785.13 340.5,-782.02 345.44,-779.52"/>
<polygon fill="midnightblue" stroke="midnightblue" points="289.36,-923.19 282.72,-931.44 293.06,-929.13 289.36,-923.19"/>
</g>
<!-- Node32 -->
<g id="node33" class="node">
<title>Node32</title>
<g id="a_node33"><a xlink:href="classtriton_1_1ast_1_1CompoundNode.html" target="_top" xlink:title="[&lt;expr1&gt; &lt;expr2&gt; &lt;expr3&gt; ...] node">
<polygon fill="white" stroke="black" points="332,-722.5 332,-741.5 480,-741.5 480,-722.5 332,-722.5"/>
<text text-anchor="middle" x="406" y="-729.5" font-family="Helvetica,sans-Serif" font-size="10.00">triton::ast::CompoundNode</text>
</a>
</g>
</g>
<!-- Node0&#45;&gt;Node32 -->
<g id="edge33" class="edge">
<title>Node0&#45;&gt;Node32</title>
<path fill="none" stroke="midnightblue" d="M292.01,-925.74C293.42,-924.58 294.75,-923.34 296,-922 349,-865.22 278.39,-807.2 332,-751 335.62,-747.21 339.88,-744.14 344.51,-741.66"/>
<polygon fill="midnightblue" stroke="midnightblue" points="289.7,-923.07 283.27,-931.49 293.55,-928.92 289.7,-923.07"/>
</g>
<!-- Node33 -->
<g id="node34" class="node">
<title>Node33</title>
<g id="a_node34"><a xlink:href="classtriton_1_1ast_1_1ConcatNode.html" target="_top" xlink:title="(concat &lt;expr1&gt; &lt;expr2&gt; ...) node">
<polygon fill="white" stroke="black" points="341.5,-684.5 341.5,-703.5 470.5,-703.5 470.5,-684.5 341.5,-684.5"/>
<text text-anchor="middle" x="406" y="-691.5" font-family="Helvetica,sans-Serif" font-size="10.00">triton::ast::ConcatNode</text>
</a>
</g>
</g>
<!-- Node0&#45;&gt;Node33 -->
<g id="edge34" class="edge">
<title>Node0&#45;&gt;Node33</title>
<path fill="none" stroke="midnightblue" d="M292.17,-925.72C293.52,-924.57 294.8,-923.33 296,-922 359.03,-851.92 268.21,-782.39 332,-713 335.55,-709.14 339.76,-706.03 344.36,-703.52"/>
<polygon fill="midnightblue" stroke="midnightblue" points="290.04,-922.94 283.74,-931.46 293.98,-928.73 290.04,-922.94"/>
</g>
<!-- Node34 -->
<g id="node35" class="node">
<title>Node34</title>
<g id="a_node35"><a xlink:href="classtriton_1_1ast_1_1DeclareNode.html" target="_top" xlink:title="(declare&#45;fun &lt;var_name&gt; () (_ BitVec &lt;var_size&gt;)) node">
<polygon fill="white" stroke="black" points="339.5,-646.5 339.5,-665.5 472.5,-665.5 472.5,-646.5 339.5,-646.5"/>
<text text-anchor="middle" x="406" y="-653.5" font-family="Helvetica,sans-Serif" font-size="10.00">triton::ast::DeclareNode</text>
</a>
</g>
</g>
<!-- Node0&#45;&gt;Node34 -->
<g id="edge35" class="edge">
<title>Node0&#45;&gt;Node34</title>
<path fill="none" stroke="midnightblue" d="M292.67,-925.37C293.84,-924.31 294.95,-923.19 296,-922 369.12,-838.57 257.98,-757.63 332,-675 335.41,-671.2 339.47,-668.11 343.91,-665.61"/>
<polygon fill="midnightblue" stroke="midnightblue" points="290.31,-922.74 284.17,-931.37 294.35,-928.46 290.31,-922.74"/>
</g>
<!-- Node35 -->
<g id="node36" class="node">
<title>Node35</title>
<g id="a_node36"><a xlink:href="classtriton_1_1ast_1_1DistinctNode.html" target="_top" xlink:title="(distinct &lt;expr1&gt; &lt;expr2&gt; ...) node">
<polygon fill="white" stroke="black" points="339.5,-608.5 339.5,-627.5 472.5,-627.5 472.5,-608.5 339.5,-608.5"/>
<text text-anchor="middle" x="406" y="-615.5" font-family="Helvetica,sans-Serif" font-size="10.00">triton::ast::DistinctNode</text>
</a>
</g>
</g>
<!-- Node0&#45;&gt;Node35 -->
<g id="edge36" class="edge">
<title>Node0&#45;&gt;Node35</title>
<path fill="none" stroke="midnightblue" d="M292.7,-925.39C293.86,-924.33 294.97,-923.2 296,-922 379.23,-825.18 247.73,-732.91 332,-637 335.37,-633.16 339.41,-630.05 343.83,-627.54"/>
<polygon fill="midnightblue" stroke="midnightblue" points="290.34,-922.78 284.24,-931.44 294.41,-928.47 290.34,-922.78"/>
</g>
<!-- Node36 -->
<g id="node37" class="node">
<title>Node36</title>
<g id="a_node37"><a xlink:href="classtriton_1_1ast_1_1EqualNode.html" target="_top" xlink:title="(= &lt;expr1&gt; &lt;expr2&gt; ...) node">
<polygon fill="white" stroke="black" points="345,-570.5 345,-589.5 467,-589.5 467,-570.5 345,-570.5"/>
<text text-anchor="middle" x="406" y="-577.5" font-family="Helvetica,sans-Serif" font-size="10.00">triton::ast::EqualNode</text>
</a>
</g>
</g>
<!-- Node0&#45;&gt;Node36 -->
<g id="edge37" class="edge">
<title>Node0&#45;&gt;Node36</title>
<path fill="none" stroke="midnightblue" d="M292.72,-925.41C293.88,-924.35 294.97,-923.21 296,-922 389.36,-811.78 237.45,-708.2 332,-599 335.6,-594.84 339.98,-591.54 344.8,-588.92"/>
<polygon fill="midnightblue" stroke="midnightblue" points="290.36,-922.8 284.3,-931.49 294.46,-928.48 290.36,-922.8"/>
</g>
<!-- Node37 -->
<g id="node38" class="node">
<title>Node37</title>
<g id="a_node38"><a xlink:href="classtriton_1_1ast_1_1ExtractNode.html" target="_top" xlink:title="((_ extract &lt;high&gt; &lt;low&gt;) &lt;expr&gt;) node">
<polygon fill="white" stroke="black" points="341,-532.5 341,-551.5 471,-551.5 471,-532.5 341,-532.5"/>
<text text-anchor="middle" x="406" y="-539.5" font-family="Helvetica,sans-Serif" font-size="10.00">triton::ast::ExtractNode</text>
</a>
</g>
</g>
<!-- Node0&#45;&gt;Node37 -->
<g id="edge38" class="edge">
<title>Node0&#45;&gt;Node37</title>
<path fill="none" stroke="midnightblue" d="M292.82,-925.35C293.94,-924.3 295.01,-923.19 296,-922 399.49,-798.36 227.17,-683.51 332,-561 335.24,-557.22 339.12,-554.14 343.39,-551.64"/>
<polygon fill="midnightblue" stroke="midnightblue" points="290.65,-922.61 284.66,-931.35 294.79,-928.25 290.65,-922.61"/>
</g>
<!-- Node38 -->
<g id="node39" class="node">
<title>Node38</title>
<g id="a_node39"><a xlink:href="classtriton_1_1ast_1_1ForallNode.html" target="_top" xlink:title="(forall ((x (_ BitVec &lt;size&gt;)), ...) body)">
<polygon fill="white" stroke="black" points="345,-494.5 345,-513.5 467,-513.5 467,-494.5 345,-494.5"/>
<text text-anchor="middle" x="406" y="-501.5" font-family="Helvetica,sans-Serif" font-size="10.00">triton::ast::ForallNode</text>
</a>
</g>
</g>
<!-- Node0&#45;&gt;Node38 -->
<g id="edge39" class="edge">
<title>Node0&#45;&gt;Node38</title>
<path fill="none" stroke="midnightblue" d="M292.84,-925.37C293.95,-924.31 295.01,-923.19 296,-922 352.82,-853.46 274.44,-590.91 332,-523 335.56,-518.8 339.91,-515.47 344.71,-512.84"/>
<polygon fill="midnightblue" stroke="midnightblue" points="290.66,-922.62 284.7,-931.38 294.82,-928.25 290.66,-922.62"/>
</g>
<!-- Node39 -->
<g id="node40" class="node">
<title>Node39</title>
<g id="a_node40"><a xlink:href="classtriton_1_1ast_1_1IffNode.html" target="_top" xlink:title="(iff &lt;expr1&gt; &lt;expr2&gt;)">
<polygon fill="white" stroke="black" points="353.5,-456.5 353.5,-475.5 458.5,-475.5 458.5,-456.5 353.5,-456.5"/>
<text text-anchor="middle" x="406" y="-463.5" font-family="Helvetica,sans-Serif" font-size="10.00">triton::ast::IffNode</text>
</a>
</g>
</g>
<!-- Node0&#45;&gt;Node39 -->
<g id="edge40" class="edge">
<title>Node0&#45;&gt;Node39</title>
<path fill="none" stroke="midnightblue" d="M292.85,-925.38C293.96,-924.32 295.02,-923.2 296,-922 357.9,-846.75 269.29,-559.58 332,-485 337.56,-478.38 345.11,-473.92 353.25,-470.93"/>
<polygon fill="midnightblue" stroke="midnightblue" points="290.67,-922.63 284.73,-931.41 294.85,-928.25 290.67,-922.63"/>
</g>
<!-- Node40 -->
<g id="node41" class="node">
<title>Node40</title>
<g id="a_node41"><a xlink:href="classtriton_1_1ast_1_1IntegerNode.html" target="_top" xlink:title="Integer node.">
<polygon fill="white" stroke="black" points="341,-418.5 341,-437.5 471,-437.5 471,-418.5 341,-418.5"/>
<text text-anchor="middle" x="406" y="-425.5" font-family="Helvetica,sans-Serif" font-size="10.00">triton::ast::IntegerNode</text>
</a>
</g>
</g>
<!-- Node0&#45;&gt;Node40 -->
<g id="edge41" class="edge">
<title>Node0&#45;&gt;Node40</title>
<path fill="none" stroke="midnightblue" d="M292.86,-925.39C293.97,-924.33 295.02,-923.2 296,-922 362.98,-840.03 264.14,-528.24 332,-447 335.19,-443.18 339.04,-440.08 343.29,-437.56"/>
<polygon fill="midnightblue" stroke="midnightblue" points="290.68,-922.64 284.76,-931.43 294.87,-928.26 290.68,-922.64"/>
</g>
<!-- Node41 -->
<g id="node42" class="node">
<title>Node41</title>
<g id="a_node42"><a xlink:href="classtriton_1_1ast_1_1IteNode.html" target="_top" xlink:title="(ite &lt;ifExpr&gt; &lt;thenExpr&gt; &lt;elseExpr&gt;)">
<polygon fill="white" stroke="black" points="352,-380.5 352,-399.5 460,-399.5 460,-380.5 352,-380.5"/>
<text text-anchor="middle" x="406" y="-387.5" font-family="Helvetica,sans-Serif" font-size="10.00">triton::ast::IteNode</text>
</a>
</g>
</g>
<!-- Node0&#45;&gt;Node41 -->
<g id="edge42" class="edge">
<title>Node0&#45;&gt;Node41</title>
<path fill="none" stroke="midnightblue" d="M292.87,-925.39C293.98,-924.33 295.02,-923.2 296,-922 368.06,-833.3 258.98,-496.91 332,-409 337.19,-402.75 344.14,-398.42 351.71,-395.44"/>
<polygon fill="midnightblue" stroke="midnightblue" points="290.69,-922.65 284.78,-931.45 294.88,-928.26 290.69,-922.65"/>
</g>
<!-- Node42 -->
<g id="node43" class="node">
<title>Node42</title>
<g id="a_node43"><a xlink:href="classtriton_1_1ast_1_1LandNode.html" target="_top" xlink:title="(and &lt;expr1&gt; &lt;expr2&gt;)">
<polygon fill="white" stroke="black" points="346.5,-342.5 346.5,-361.5 465.5,-361.5 465.5,-342.5 346.5,-342.5"/>
<text text-anchor="middle" x="406" y="-349.5" font-family="Helvetica,sans-Serif" font-size="10.00">triton::ast::LandNode</text>
</a>
</g>
</g>
<!-- Node0&#45;&gt;Node42 -->
<g id="edge43" class="edge">
<title>Node0&#45;&gt;Node42</title>
<path fill="none" stroke="midnightblue" d="M292.88,-925.4C293.98,-924.34 295.03,-923.2 296,-922 373.14,-826.58 253.83,-465.58 332,-371 335.92,-366.26 340.86,-362.61 346.32,-359.83"/>
<polygon fill="midnightblue" stroke="midnightblue" points="290.7,-922.66 284.8,-931.46 294.9,-928.26 290.7,-922.66"/>
</g>
<!-- Node43 -->
<g id="node44" class="node">
<title>Node43</title>
<g id="a_node44"><a xlink:href="classtriton_1_1ast_1_1LetNode.html" target="_top" xlink:title="(let ((&lt;alias&gt; &lt;expr2&gt;)) &lt;expr3&gt;)">
<polygon fill="white" stroke="black" points="351,-304.5 351,-323.5 461,-323.5 461,-304.5 351,-304.5"/>
<text text-anchor="middle" x="406" y="-311.5" font-family="Helvetica,sans-Serif" font-size="10.00">triton::ast::LetNode</text>
</a>
</g>
</g>
<!-- Node0&#45;&gt;Node43 -->
<g id="edge44" class="edge">
<title>Node0&#45;&gt;Node43</title>
<path fill="none" stroke="midnightblue" d="M292.88,-925.4C293.99,-924.34 295.03,-923.21 296,-922 378.23,-819.85 248.67,-434.25 332,-333 336.99,-326.93 343.66,-322.67 350.93,-319.69"/>
<polygon fill="midnightblue" stroke="midnightblue" points="290.7,-922.67 284.82,-931.48 294.91,-928.26 290.7,-922.67"/>
</g>
<!-- Node44 -->
<g id="node45" class="node">
<title>Node44</title>
<g id="a_node45"><a xlink:href="classtriton_1_1ast_1_1LnotNode.html" target="_top" xlink:title="(lnot &lt;expr&gt;)">
<polygon fill="white" stroke="black" points="348,-266.5 348,-285.5 464,-285.5 464,-266.5 348,-266.5"/>
<text text-anchor="middle" x="406" y="-273.5" font-family="Helvetica,sans-Serif" font-size="10.00">triton::ast::LnotNode</text>
</a>
</g>
</g>
<!-- Node0&#45;&gt;Node44 -->
<g id="edge45" class="edge">
<title>Node0&#45;&gt;Node44</title>
<path fill="none" stroke="midnightblue" d="M292.89,-925.41C293.99,-924.34 295.03,-923.21 296,-922 383.31,-813.12 243.51,-402.92 332,-295 336.23,-289.84 341.68,-285.97 347.68,-283.1"/>
<polygon fill="midnightblue" stroke="midnightblue" points="290.71,-922.67 284.83,-931.49 294.92,-928.26 290.71,-922.67"/>
</g>
<!-- Node45 -->
<g id="node46" class="node">
<title>Node45</title>
<g id="a_node46"><a xlink:href="classtriton_1_1ast_1_1LorNode.html" target="_top" xlink:title="(or &lt;expr1&gt; &lt;expr2&gt;)">
<polygon fill="white" stroke="black" points="351,-228.5 351,-247.5 461,-247.5 461,-228.5 351,-228.5"/>
<text text-anchor="middle" x="406" y="-235.5" font-family="Helvetica,sans-Serif" font-size="10.00">triton::ast::LorNode</text>
</a>
</g>
</g>
<!-- Node0&#45;&gt;Node45 -->
<g id="edge46" class="edge">
<title>Node0&#45;&gt;Node45</title>
<path fill="none" stroke="midnightblue" d="M292.9,-925.41C293.99,-924.35 295.03,-923.21 296,-922 388.4,-806.39 238.35,-371.6 332,-257 336.97,-250.92 343.62,-246.64 350.89,-243.66"/>
<polygon fill="midnightblue" stroke="midnightblue" points="290.71,-922.68 284.85,-931.5 294.93,-928.26 290.71,-922.68"/>
</g>
<!-- Node46 -->
<g id="node47" class="node">
<title>Node46</title>
<g id="a_node47"><a xlink:href="classtriton_1_1ast_1_1LxorNode.html" target="_top" xlink:title="(xor &lt;expr1&gt; &lt;expr2&gt;)">
<polygon fill="white" stroke="black" points="348,-190.5 348,-209.5 464,-209.5 464,-190.5 348,-190.5"/>
<text text-anchor="middle" x="406" y="-197.5" font-family="Helvetica,sans-Serif" font-size="10.00">triton::ast::LxorNode</text>
</a>
</g>
</g>
<!-- Node0&#45;&gt;Node46 -->
<g id="edge47" class="edge">
<title>Node0&#45;&gt;Node46</title>
<path fill="none" stroke="midnightblue" d="M293.3,-925.02C294.25,-924.07 295.15,-923.06 296,-922 393.48,-799.66 233.19,-340.27 332,-219 336.22,-213.82 341.65,-209.95 347.65,-207.08"/>
<polygon fill="midnightblue" stroke="midnightblue" points="290.93,-922.43 285.17,-931.32 295.22,-927.97 290.93,-922.43"/>
</g>
<!-- Node47 -->
<g id="node48" class="node">
<title>Node47</title>
<g id="a_node48"><a xlink:href="classtriton_1_1ast_1_1ReferenceNode.html" target="_top" xlink:title="Reference node.">
<polygon fill="white" stroke="black" points="333.5,-152.5 333.5,-171.5 478.5,-171.5 478.5,-152.5 333.5,-152.5"/>
<text text-anchor="middle" x="406" y="-159.5" font-family="Helvetica,sans-Serif" font-size="10.00">triton::ast::ReferenceNode</text>
</a>
</g>
</g>
<!-- Node0&#45;&gt;Node47 -->
<g id="edge48" class="edge">
<title>Node0&#45;&gt;Node47</title>
<path fill="none" stroke="midnightblue" d="M293.3,-925.03C294.25,-924.07 295.15,-923.06 296,-922 398.57,-792.93 228.03,-308.95 332,-181 335.06,-177.24 338.75,-174.17 342.84,-171.67"/>
<polygon fill="midnightblue" stroke="midnightblue" points="290.93,-922.44 285.18,-931.33 295.22,-927.97 290.93,-922.44"/>
</g>
<!-- Node48 -->
<g id="node49" class="node">
<title>Node48</title>
<g id="a_node49"><a xlink:href="classtriton_1_1ast_1_1StringNode.html" target="_top" xlink:title="String node.">
<polygon fill="white" stroke="black" points="344,-114.5 344,-133.5 468,-133.5 468,-114.5 344,-114.5"/>
<text text-anchor="middle" x="406" y="-121.5" font-family="Helvetica,sans-Serif" font-size="10.00">triton::ast::StringNode</text>
</a>
</g>
</g>
<!-- Node0&#45;&gt;Node48 -->
<g id="edge49" class="edge">
<title>Node0&#45;&gt;Node48</title>
<path fill="none" stroke="midnightblue" d="M293.31,-925.03C294.25,-924.07 295.15,-923.07 296,-922 349.83,-854.1 277.44,-210.31 332,-143 335.3,-138.93 339.35,-135.67 343.83,-133.06"/>
<polygon fill="midnightblue" stroke="midnightblue" points="290.93,-922.44 285.19,-931.34 295.23,-927.97 290.93,-922.44"/>
</g>
<!-- Node49 -->
<g id="node50" class="node">
<title>Node49</title>
<g id="a_node50"><a xlink:href="classtriton_1_1ast_1_1SxNode.html" target="_top" xlink:title="((_ sign_extend sizeExt) &lt;expr&gt;) node">
<polygon fill="white" stroke="black" points="352.5,-76.5 352.5,-95.5 459.5,-95.5 459.5,-76.5 352.5,-76.5"/>
<text text-anchor="middle" x="406" y="-83.5" font-family="Helvetica,sans-Serif" font-size="10.00">triton::ast::SxNode</text>
</a>
</g>
</g>
<!-- Node0&#45;&gt;Node49 -->
<g id="edge50" class="edge">
<title>Node0&#45;&gt;Node49</title>
<path fill="none" stroke="midnightblue" d="M293.31,-925.03C294.26,-924.08 295.16,-923.07 296,-922 352.37,-850.74 274.86,-175.65 332,-105 337.27,-98.48 344.47,-94.04 352.3,-91.03"/>
<polygon fill="midnightblue" stroke="midnightblue" points="290.94,-922.44 285.2,-931.35 295.24,-927.97 290.94,-922.44"/>
</g>
<!-- Node50 -->
<g id="node51" class="node">
<title>Node50</title>
<g id="a_node51"><a xlink:href="classtriton_1_1ast_1_1VariableNode.html" target="_top" xlink:title="Variable node.">
<polygon fill="white" stroke="black" points="338.5,-38.5 338.5,-57.5 473.5,-57.5 473.5,-38.5 338.5,-38.5"/>
<text text-anchor="middle" x="406" y="-45.5" font-family="Helvetica,sans-Serif" font-size="10.00">triton::ast::VariableNode</text>
</a>
</g>
</g>
<!-- Node0&#45;&gt;Node50 -->
<g id="edge51" class="edge">
<title>Node0&#45;&gt;Node50</title>
<path fill="none" stroke="midnightblue" d="M293.31,-925.03C294.26,-924.08 295.16,-923.07 296,-922 354.92,-847.37 272.28,-140.99 332,-67 335.04,-63.23 338.73,-60.15 342.82,-57.65"/>
<polygon fill="midnightblue" stroke="midnightblue" points="290.94,-922.45 285.2,-931.35 295.24,-927.97 290.94,-922.45"/>
</g>
<!-- Node51 -->
<g id="node52" class="node">
<title>Node51</title>
<g id="a_node52"><a xlink:href="classtriton_1_1ast_1_1ZxNode.html" target="_top" xlink:title="((_ zero_extend sizeExt) &lt;expr&gt;) node">
<polygon fill="white" stroke="black" points="352,-0.5 352,-19.5 460,-19.5 460,-0.5 352,-0.5"/>
<text text-anchor="middle" x="406" y="-7.5" font-family="Helvetica,sans-Serif" font-size="10.00">triton::ast::ZxNode</text>
</a>
</g>
</g>
<!-- Node0&#45;&gt;Node51 -->
<g id="edge52" class="edge">
<title>Node0&#45;&gt;Node51</title>
<path fill="none" stroke="midnightblue" d="M293.31,-925.04C294.26,-924.08 295.16,-923.07 296,-922 357.46,-844 269.7,-106.33 332,-29 337.18,-22.58 344.23,-18.16 351.91,-15.16"/>
<polygon fill="midnightblue" stroke="midnightblue" points="290.94,-922.45 285.21,-931.36 295.25,-927.97 290.94,-922.45"/>
</g>
</g>
</svg>
