<?xml version="1.0" encoding="UTF-8" standalone="no"?>
<!DOCTYPE svg PUBLIC "-//W3C//DTD SVG 1.1//EN"
 "http://www.w3.org/Graphics/SVG/1.1/DTD/svg11.dtd">
<!-- Generated by graphviz version 2.49.0 (20210828.1703)
 -->
<!-- Title: Graphical Class Hierarchy Pages: 1 -->
<svg width="339pt" height="72pt"
 viewBox="0.00 0.00 339.00 72.00" xmlns="http://www.w3.org/2000/svg" xmlns:xlink="http://www.w3.org/1999/xlink">
<g id="graph0" class="graph" transform="scale(1 1) rotate(0) translate(4 68)">
<title>Graphical Class Hierarchy</title>
<polygon fill="white" stroke="transparent" points="-4,4 -4,-68 335,-68 335,4 -4,4"/>
<!-- Node134 -->
<g id="node1" class="node">
<title>Node134</title>
<g id="a_node1"><a xlink:title=" ">
<polygon fill="white" stroke="#bfbfbf" points="0,-22.5 0,-41.5 122,-41.5 122,-22.5 0,-22.5"/>
<text text-anchor="middle" x="61" y="-29.5" font-family="Helvetica,sans-Serif" font-size="10.00">std::integral_constant</text>
</a>
</g>
</g>
<!-- Node0 -->
<g id="node2" class="node">
<title>Node0</title>
<g id="a_node2"><a xlink:href="structmath_1_1wide__integer_1_1is__integral_3_01math_1_1wide__integer_1_1uintwide__t_3_01Width2_b6683862be3a7d23cfe00c52bd748cbc.html" target="_top" xlink:title=" ">
<polygon fill="white" stroke="black" points="158,-0.5 158,-63.5 331,-63.5 331,-0.5 158,-0.5"/>
<text text-anchor="start" x="166" y="-51.5" font-family="Helvetica,sans-Serif" font-size="10.00">math::wide_integer</text>
<text text-anchor="start" x="166" y="-40.5" font-family="Helvetica,sans-Serif" font-size="10.00">::is_integral&lt; math</text>
<text text-anchor="start" x="166" y="-29.5" font-family="Helvetica,sans-Serif" font-size="10.00">::wide_integer::uintwide</text>
<text text-anchor="start" x="166" y="-18.5" font-family="Helvetica,sans-Serif" font-size="10.00">_t&lt; Width2, LimbType, Allocator</text>
<text text-anchor="middle" x="244.5" y="-7.5" font-family="Helvetica,sans-Serif" font-size="10.00">Type, IsSigned &gt; &gt;</text>
</a>
</g>
</g>
<!-- Node134&#45;&gt;Node0 -->
<g id="edge1" class="edge">
<title>Node134&#45;&gt;Node0</title>
<path fill="none" stroke="midnightblue" d="M132.28,-32C140.68,-32 149.32,-32 157.9,-32"/>
<polygon fill="midnightblue" stroke="midnightblue" points="132.18,-28.5 122.18,-32 132.18,-35.5 132.18,-28.5"/>
</g>
</g>
</svg>
