<?xml version="1.0" encoding="UTF-8" standalone="no"?>
<!DOCTYPE svg PUBLIC "-//W3C//DTD SVG 1.1//EN"
 "http://www.w3.org/Graphics/SVG/1.1/DTD/svg11.dtd">
<!-- Generated by graphviz version 9.0.0 (20230911.1827)
 -->
<!-- Title: Graphical Class Hierarchy Pages: 1 -->
<svg width="694pt" height="885pt"
 viewBox="0.00 0.00 694.00 884.50" xmlns="http://www.w3.org/2000/svg" xmlns:xlink="http://www.w3.org/1999/xlink">
<g id="graph0" class="graph" transform="scale(1 1) rotate(0) translate(4 880.5)">
<title>Graphical Class Hierarchy</title>
<!-- Node0 -->
<g id="Node000000" class="node">
<title>Node0</title>
<g id="a_Node000000"><a xlink:title=" ">
<polygon fill="#e0e0e0" stroke="#999999" points="77.5,-248.88 0,-248.88 0,-229.62 77.5,-229.62 77.5,-248.88"/>
<text text-anchor="middle" x="38.75" y="-235.38" font-family="Helvetica,sans-Serif" font-size="10.00">std::exception</text>
</a>
</g>
</g>
<!-- Node1 -->
<g id="Node000001" class="node">
<title>Node1</title>
<g id="a_Node000001"><a xlink:href="classtriton_1_1exceptions_1_1Exception.html" target="_top" xlink:title="The root class of all exceptions.">
<polygon fill="white" stroke="#666666" points="204.5,-254.5 113.5,-254.5 113.5,-224 204.5,-224 204.5,-254.5"/>
<text text-anchor="start" x="121.5" y="-241" font-family="Helvetica,sans-Serif" font-size="10.00">triton::exceptions</text>
<text text-anchor="middle" x="159" y="-229.75" font-family="Helvetica,sans-Serif" font-size="10.00">::Exception</text>
</a>
</g>
</g>
<!-- Node0&#45;&gt;Node1 -->
<g id="edge61_Node000000_Node000001" class="edge">
<title>Node0&#45;&gt;Node1</title>
<g id="a_edge61_Node000000_Node000001"><a xlink:title=" ">
<path fill="none" stroke="#63b8ff" d="M89.29,-239.25C97.3,-239.25 105.54,-239.25 113.41,-239.25"/>
<polygon fill="#63b8ff" stroke="#63b8ff" points="89.33,-235.75 79.33,-239.25 89.33,-242.75 89.33,-235.75"/>
</a>
</g>
</g>
<!-- Node2 -->
<g id="Node000002" class="node">
<title>Node2</title>
<g id="a_Node000002"><a xlink:href="classtriton_1_1exceptions_1_1Architecture.html" target="_top" xlink:title="The exception class used by architectures.">
<polygon fill="white" stroke="#666666" points="342,-618.5 251,-618.5 251,-588 342,-588 342,-618.5"/>
<text text-anchor="start" x="259" y="-605" font-family="Helvetica,sans-Serif" font-size="10.00">triton::exceptions</text>
<text text-anchor="middle" x="296.5" y="-593.75" font-family="Helvetica,sans-Serif" font-size="10.00">::Architecture</text>
</a>
</g>
</g>
<!-- Node1&#45;&gt;Node2 -->
<g id="edge62_Node000001_Node000002" class="edge">
<title>Node1&#45;&gt;Node2</title>
<g id="a_edge62_Node000001_Node000002"><a xlink:title=" ">
<path fill="none" stroke="#63b8ff" d="M169.8,-265.58C196.28,-336.71 268.67,-531.17 289.7,-587.67"/>
<polygon fill="#63b8ff" stroke="#63b8ff" points="173.12,-264.46 166.35,-256.31 166.56,-266.9 173.12,-264.46"/>
</a>
</g>
</g>
<!-- Node16 -->
<g id="Node000016" class="node">
<title>Node16</title>
<g id="a_Node000016"><a xlink:href="classtriton_1_1exceptions_1_1Ast.html" target="_top" xlink:title="The exception class used by all AST nodes.">
<polygon fill="white" stroke="#666666" points="352.5,-340.88 240.5,-340.88 240.5,-321.62 352.5,-321.62 352.5,-340.88"/>
<text text-anchor="middle" x="296.5" y="-327.38" font-family="Helvetica,sans-Serif" font-size="10.00">triton::exceptions::Ast</text>
</a>
</g>
</g>
<!-- Node1&#45;&gt;Node16 -->
<g id="edge76_Node000001_Node000016" class="edge">
<title>Node1&#45;&gt;Node16</title>
<g id="a_edge76_Node000001_Node000016"><a xlink:title=" ">
<path fill="none" stroke="#63b8ff" d="M181.42,-263.19C196.6,-278.95 218.17,-299.03 240.5,-312.25 246.41,-315.75 253.06,-318.73 259.64,-321.22"/>
<polygon fill="#63b8ff" stroke="#63b8ff" points="184.11,-260.94 174.71,-256.05 179.01,-265.74 184.11,-260.94"/>
</a>
</g>
</g>
<!-- Node19 -->
<g id="Node000019" class="node">
<title>Node19</title>
<g id="a_Node000019"><a xlink:href="classtriton_1_1exceptions_1_1Bindings.html" target="_top" xlink:title="The exception class used by bindings.">
<polygon fill="white" stroke="#666666" points="342,-303.5 251,-303.5 251,-273 342,-273 342,-303.5"/>
<text text-anchor="start" x="259" y="-290" font-family="Helvetica,sans-Serif" font-size="10.00">triton::exceptions</text>
<text text-anchor="middle" x="296.5" y="-278.75" font-family="Helvetica,sans-Serif" font-size="10.00">::Bindings</text>
</a>
</g>
</g>
<!-- Node1&#45;&gt;Node19 -->
<g id="edge79_Node000001_Node000019" class="edge">
<title>Node1&#45;&gt;Node19</title>
<g id="a_edge79_Node000001_Node000019"><a xlink:title=" ">
<path fill="none" stroke="#63b8ff" d="M213.76,-258.69C226.52,-263.31 239.97,-268.17 252.2,-272.59"/>
<polygon fill="#63b8ff" stroke="#63b8ff" points="215.26,-255.51 204.67,-255.4 212.88,-262.1 215.26,-255.51"/>
</a>
</g>
</g>
<!-- Node20 -->
<g id="Node000020" class="node">
<title>Node20</title>
<g id="a_Node000020"><a xlink:href="classtriton_1_1exceptions_1_1Callbacks.html" target="_top" xlink:title="The exception class used by callbacks.">
<polygon fill="white" stroke="#666666" points="342,-254.5 251,-254.5 251,-224 342,-224 342,-254.5"/>
<text text-anchor="start" x="259" y="-241" font-family="Helvetica,sans-Serif" font-size="10.00">triton::exceptions</text>
<text text-anchor="middle" x="296.5" y="-229.75" font-family="Helvetica,sans-Serif" font-size="10.00">::Callbacks</text>
</a>
</g>
</g>
<!-- Node1&#45;&gt;Node20 -->
<g id="edge80_Node000001_Node000020" class="edge">
<title>Node1&#45;&gt;Node20</title>
<g id="a_edge80_Node000001_Node000020"><a xlink:title=" ">
<path fill="none" stroke="#63b8ff" d="M216.1,-239.25C227.67,-239.25 239.71,-239.25 250.8,-239.25"/>
<polygon fill="#63b8ff" stroke="#63b8ff" points="216.26,-235.75 206.26,-239.25 216.26,-242.75 216.26,-235.75"/>
</a>
</g>
</g>
<!-- Node21 -->
<g id="Node000021" class="node">
<title>Node21</title>
<g id="a_Node000021"><a xlink:href="classtriton_1_1exceptions_1_1Context.html" target="_top" xlink:title="The exception class used by the Triton&#39;s Context.">
<polygon fill="white" stroke="#666666" points="342,-205.5 251,-205.5 251,-175 342,-175 342,-205.5"/>
<text text-anchor="start" x="259" y="-192" font-family="Helvetica,sans-Serif" font-size="10.00">triton::exceptions</text>
<text text-anchor="middle" x="296.5" y="-180.75" font-family="Helvetica,sans-Serif" font-size="10.00">::Context</text>
</a>
</g>
</g>
<!-- Node1&#45;&gt;Node21 -->
<g id="edge81_Node000001_Node000021" class="edge">
<title>Node1&#45;&gt;Node21</title>
<g id="a_edge81_Node000001_Node000021"><a xlink:title=" ">
<path fill="none" stroke="#63b8ff" d="M213.76,-219.81C226.52,-215.19 239.97,-210.33 252.2,-205.91"/>
<polygon fill="#63b8ff" stroke="#63b8ff" points="212.88,-216.4 204.67,-223.1 215.26,-222.99 212.88,-216.4"/>
</a>
</g>
</g>
<!-- Node22 -->
<g id="Node000022" class="node">
<title>Node22</title>
<g id="a_Node000022"><a xlink:href="classtriton_1_1exceptions_1_1Engines.html" target="_top" xlink:title="The exception class used by all engines.">
<polygon fill="white" stroke="#666666" points="342,-156.5 251,-156.5 251,-126 342,-126 342,-156.5"/>
<text text-anchor="start" x="259" y="-143" font-family="Helvetica,sans-Serif" font-size="10.00">triton::exceptions</text>
<text text-anchor="middle" x="296.5" y="-131.75" font-family="Helvetica,sans-Serif" font-size="10.00">::Engines</text>
</a>
</g>
</g>
<!-- Node1&#45;&gt;Node22 -->
<g id="edge82_Node000001_Node000022" class="edge">
<title>Node1&#45;&gt;Node22</title>
<g id="a_edge82_Node000001_Node000022"><a xlink:title=" ">
<path fill="none" stroke="#63b8ff" d="M182.12,-215.69C197.46,-200.27 218.95,-180.42 240.5,-166.25 245.58,-162.91 251.19,-159.8 256.81,-156.98"/>
<polygon fill="#63b8ff" stroke="#63b8ff" points="179.8,-213.06 175.32,-222.66 184.81,-217.95 179.8,-213.06"/>
</a>
</g>
</g>
<!-- Node34 -->
<g id="Node000034" class="node">
<title>Node34</title>
<g id="a_Node000034"><a xlink:href="classtriton_1_1exceptions_1_1PyCallbacks.html" target="_top" xlink:title=" ">
<polygon fill="white" stroke="#666666" points="342,-107.5 251,-107.5 251,-77 342,-77 342,-107.5"/>
<text text-anchor="start" x="259" y="-94" font-family="Helvetica,sans-Serif" font-size="10.00">triton::exceptions</text>
<text text-anchor="middle" x="296.5" y="-82.75" font-family="Helvetica,sans-Serif" font-size="10.00">::PyCallbacks</text>
</a>
</g>
</g>
<!-- Node1&#45;&gt;Node34 -->
<g id="edge94_Node000001_Node000034" class="edge">
<title>Node1&#45;&gt;Node34</title>
<g id="a_edge94_Node000001_Node000034"><a xlink:title=" ">
<path fill="none" stroke="#63b8ff" d="M171.59,-213.52C184.88,-186.48 208.96,-144.2 240.5,-117.25 244.57,-113.78 249.2,-110.69 254,-107.98"/>
<polygon fill="#63b8ff" stroke="#63b8ff" points="168.5,-211.85 167.37,-222.38 174.83,-214.86 168.5,-211.85"/>
</a>
</g>
</g>
<!-- Node3 -->
<g id="Node000003" class="node">
<title>Node3</title>
<g id="a_Node000003"><a xlink:href="classtriton_1_1exceptions_1_1AArch64OperandProperties.html" target="_top" xlink:title="The exception class used by shift mode.">
<polygon fill="white" stroke="#666666" points="529,-876.5 388.5,-876.5 388.5,-846 529,-846 529,-876.5"/>
<text text-anchor="start" x="396.5" y="-863" font-family="Helvetica,sans-Serif" font-size="10.00">triton::exceptions</text>
<text text-anchor="middle" x="458.75" y="-851.75" font-family="Helvetica,sans-Serif" font-size="10.00">::AArch64OperandProperties</text>
</a>
</g>
</g>
<!-- Node2&#45;&gt;Node3 -->
<g id="edge63_Node000002_Node000003" class="edge">
<title>Node2&#45;&gt;Node3</title>
<g id="a_edge63_Node000002_Node000003"><a xlink:title=" ">
<path fill="none" stroke="#63b8ff" d="M300.75,-630.27C307.91,-678.25 329.42,-778.68 388.5,-836.25 392.16,-839.82 396.37,-842.88 400.86,-845.51"/>
<polygon fill="#63b8ff" stroke="#63b8ff" points="304.23,-629.92 299.39,-620.49 297.3,-630.88 304.23,-629.92"/>
</a>
</g>
</g>
<!-- Node4 -->
<g id="Node000004" class="node">
<title>Node4</title>
<g id="a_Node000004"><a xlink:href="classtriton_1_1exceptions_1_1ArmOperandProperties.html" target="_top" xlink:title="The exception class used by shift mode.">
<polygon fill="white" stroke="#666666" points="519.25,-827.5 398.25,-827.5 398.25,-797 519.25,-797 519.25,-827.5"/>
<text text-anchor="start" x="406.25" y="-814" font-family="Helvetica,sans-Serif" font-size="10.00">triton::exceptions</text>
<text text-anchor="middle" x="458.75" y="-802.75" font-family="Helvetica,sans-Serif" font-size="10.00">::ArmOperandProperties</text>
</a>
</g>
</g>
<!-- Node2&#45;&gt;Node4 -->
<g id="edge64_Node000002_Node000004" class="edge">
<title>Node2&#45;&gt;Node4</title>
<g id="a_edge64_Node000002_Node000004"><a xlink:title=" ">
<path fill="none" stroke="#63b8ff" d="M303.85,-629.89C314.64,-669.57 340.22,-744.13 388.5,-787.25 392.5,-790.83 397.06,-793.9 401.87,-796.54"/>
<polygon fill="#63b8ff" stroke="#63b8ff" points="307.31,-629.26 301.41,-620.46 300.53,-631.02 307.31,-629.26"/>
</a>
</g>
</g>
<!-- Node5 -->
<g id="Node000005" class="node">
<title>Node5</title>
<g id="a_Node000005"><a xlink:href="classtriton_1_1exceptions_1_1BasicBlock.html" target="_top" xlink:title="The exception class used by a basic block.">
<polygon fill="white" stroke="#666666" points="504.25,-778.5 413.25,-778.5 413.25,-748 504.25,-748 504.25,-778.5"/>
<text text-anchor="start" x="421.25" y="-765" font-family="Helvetica,sans-Serif" font-size="10.00">triton::exceptions</text>
<text text-anchor="middle" x="458.75" y="-753.75" font-family="Helvetica,sans-Serif" font-size="10.00">::BasicBlock</text>
</a>
</g>
</g>
<!-- Node2&#45;&gt;Node5 -->
<g id="edge65_Node000002_Node000005" class="edge">
<title>Node2&#45;&gt;Node5</title>
<g id="a_edge65_Node000002_Node000005"><a xlink:title=" ">
<path fill="none" stroke="#63b8ff" d="M308.78,-629.14C323.16,-659.33 350.78,-708.85 388.5,-738.25 395.76,-743.91 404.41,-748.36 413.1,-751.84"/>
<polygon fill="#63b8ff" stroke="#63b8ff" points="312.08,-627.95 304.71,-620.33 305.73,-630.88 312.08,-627.95"/>
</a>
</g>
</g>
<!-- Node6 -->
<g id="Node000006" class="node">
<title>Node6</title>
<g id="a_Node000006"><a xlink:href="classtriton_1_1exceptions_1_1BitsVector.html" target="_top" xlink:title="The exception class used by bitvectors.">
<polygon fill="white" stroke="#666666" points="504.25,-729.5 413.25,-729.5 413.25,-699 504.25,-699 504.25,-729.5"/>
<text text-anchor="start" x="421.25" y="-716" font-family="Helvetica,sans-Serif" font-size="10.00">triton::exceptions</text>
<text text-anchor="middle" x="458.75" y="-704.75" font-family="Helvetica,sans-Serif" font-size="10.00">::BitsVector</text>
</a>
</g>
</g>
<!-- Node2&#45;&gt;Node6 -->
<g id="edge66_Node000002_Node000006" class="edge">
<title>Node2&#45;&gt;Node6</title>
<g id="a_edge66_Node000002_Node000006"><a xlink:title=" ">
<path fill="none" stroke="#63b8ff" d="M317.51,-627.45C334.62,-646.77 360.8,-673.33 388.5,-690.25 395.99,-694.83 404.48,-698.68 412.87,-701.87"/>
<polygon fill="#63b8ff" stroke="#63b8ff" points="320.28,-625.29 311.09,-620.02 314.99,-629.87 320.28,-625.29"/>
</a>
</g>
</g>
<!-- Node7 -->
<g id="Node000007" class="node">
<title>Node7</title>
<g id="a_Node000007"><a xlink:href="classtriton_1_1exceptions_1_1Cpu.html" target="_top" xlink:title="The exception class used by all CPUs.">
<polygon fill="white" stroke="#666666" points="516.25,-680.88 401.25,-680.88 401.25,-661.62 516.25,-661.62 516.25,-680.88"/>
<text text-anchor="middle" x="458.75" y="-667.38" font-family="Helvetica,sans-Serif" font-size="10.00">triton::exceptions::Cpu</text>
</a>
</g>
</g>
<!-- Node2&#45;&gt;Node7 -->
<g id="edge67_Node000002_Node000007" class="edge">
<title>Node2&#45;&gt;Node7</title>
<g id="a_edge67_Node000002_Node000007"><a xlink:title=" ">
<path fill="none" stroke="#63b8ff" d="M332.43,-624.46C349,-633.89 369.33,-644.57 388.5,-652.25 396.95,-655.63 406.21,-658.63 415.13,-661.19"/>
<polygon fill="#63b8ff" stroke="#63b8ff" points="334.36,-621.54 323.95,-619.55 330.85,-627.59 334.36,-621.54"/>
</a>
</g>
</g>
<!-- Node10 -->
<g id="Node000010" class="node">
<title>Node10</title>
<g id="a_Node000010"><a xlink:href="classtriton_1_1exceptions_1_1Immediate.html" target="_top" xlink:title="The exception class used by immediates.">
<polygon fill="white" stroke="#666666" points="504.25,-643.5 413.25,-643.5 413.25,-613 504.25,-613 504.25,-643.5"/>
<text text-anchor="start" x="421.25" y="-630" font-family="Helvetica,sans-Serif" font-size="10.00">triton::exceptions</text>
<text text-anchor="middle" x="458.75" y="-618.75" font-family="Helvetica,sans-Serif" font-size="10.00">::Immediate</text>
</a>
</g>
</g>
<!-- Node2&#45;&gt;Node10 -->
<g id="edge70_Node000002_Node000010" class="edge">
<title>Node2&#45;&gt;Node10</title>
<g id="a_edge70_Node000002_Node000010"><a xlink:title=" ">
<path fill="none" stroke="#63b8ff" d="M353.31,-611.96C372.77,-614.99 394.33,-618.36 412.8,-621.24"/>
<polygon fill="#63b8ff" stroke="#63b8ff" points="354.05,-608.53 343.63,-610.45 352.97,-615.45 354.05,-608.53"/>
</a>
</g>
</g>
<!-- Node11 -->
<g id="Node000011" class="node">
<title>Node11</title>
<g id="a_Node000011"><a xlink:href="classtriton_1_1exceptions_1_1Instruction.html" target="_top" xlink:title="The exception class used by an instruction.">
<polygon fill="white" stroke="#666666" points="504.25,-594.5 413.25,-594.5 413.25,-564 504.25,-564 504.25,-594.5"/>
<text text-anchor="start" x="421.25" y="-581" font-family="Helvetica,sans-Serif" font-size="10.00">triton::exceptions</text>
<text text-anchor="middle" x="458.75" y="-569.75" font-family="Helvetica,sans-Serif" font-size="10.00">::Instruction</text>
</a>
</g>
</g>
<!-- Node2&#45;&gt;Node11 -->
<g id="edge71_Node000002_Node000011" class="edge">
<title>Node2&#45;&gt;Node11</title>
<g id="a_edge71_Node000002_Node000011"><a xlink:title=" ">
<path fill="none" stroke="#63b8ff" d="M353.31,-594.89C372.77,-591.98 394.33,-588.75 412.8,-585.98"/>
<polygon fill="#63b8ff" stroke="#63b8ff" points="353.01,-591.4 343.64,-596.34 354.04,-598.32 353.01,-591.4"/>
</a>
</g>
</g>
<!-- Node12 -->
<g id="Node000012" class="node">
<title>Node12</title>
<g id="a_Node000012"><a xlink:href="classtriton_1_1exceptions_1_1IrBuilder.html" target="_top" xlink:title="The exception class used by the IR builder.">
<polygon fill="white" stroke="#666666" points="504.25,-545.5 413.25,-545.5 413.25,-515 504.25,-515 504.25,-545.5"/>
<text text-anchor="start" x="421.25" y="-532" font-family="Helvetica,sans-Serif" font-size="10.00">triton::exceptions</text>
<text text-anchor="middle" x="458.75" y="-520.75" font-family="Helvetica,sans-Serif" font-size="10.00">::IrBuilder</text>
</a>
</g>
</g>
<!-- Node2&#45;&gt;Node12 -->
<g id="edge72_Node000002_Node000012" class="edge">
<title>Node2&#45;&gt;Node12</title>
<g id="a_edge72_Node000002_Node000012"><a xlink:title=" ">
<path fill="none" stroke="#63b8ff" d="M334.57,-582.2C350.86,-573.34 370.37,-563.26 388.5,-555.25 396.33,-551.79 404.81,-548.43 413.06,-545.35"/>
<polygon fill="#63b8ff" stroke="#63b8ff" points="333.29,-578.91 326.21,-586.8 336.66,-585.04 333.29,-578.91"/>
</a>
</g>
</g>
<!-- Node13 -->
<g id="Node000013" class="node">
<title>Node13</title>
<g id="a_Node000013"><a xlink:href="classtriton_1_1exceptions_1_1MemoryAccess.html" target="_top" xlink:title="The exception class used by memory access.">
<polygon fill="white" stroke="#666666" points="504.25,-496.5 413.25,-496.5 413.25,-466 504.25,-466 504.25,-496.5"/>
<text text-anchor="start" x="421.25" y="-483" font-family="Helvetica,sans-Serif" font-size="10.00">triton::exceptions</text>
<text text-anchor="middle" x="458.75" y="-471.75" font-family="Helvetica,sans-Serif" font-size="10.00">::MemoryAccess</text>
</a>
</g>
</g>
<!-- Node2&#45;&gt;Node13 -->
<g id="edge73_Node000002_Node000013" class="edge">
<title>Node2&#45;&gt;Node13</title>
<g id="a_edge73_Node000002_Node000013"><a xlink:title=" ">
<path fill="none" stroke="#63b8ff" d="M315.12,-578.71C331.83,-557 358.76,-525.82 388.5,-506.25 395.97,-501.33 404.54,-497.24 413.04,-493.88"/>
<polygon fill="#63b8ff" stroke="#63b8ff" points="312.51,-576.35 309.3,-586.45 318.11,-580.56 312.51,-576.35"/>
</a>
</g>
</g>
<!-- Node14 -->
<g id="Node000014" class="node">
<title>Node14</title>
<g id="a_Node000014"><a xlink:href="classtriton_1_1exceptions_1_1OperandWrapper.html" target="_top" xlink:title="The exception class used by operand wrappers.">
<polygon fill="white" stroke="#666666" points="506.12,-447.5 411.38,-447.5 411.38,-417 506.12,-417 506.12,-447.5"/>
<text text-anchor="start" x="419.38" y="-434" font-family="Helvetica,sans-Serif" font-size="10.00">triton::exceptions</text>
<text text-anchor="middle" x="458.75" y="-422.75" font-family="Helvetica,sans-Serif" font-size="10.00">::OperandWrapper</text>
</a>
</g>
</g>
<!-- Node2&#45;&gt;Node14 -->
<g id="edge74_Node000002_Node000014" class="edge">
<title>Node2&#45;&gt;Node14</title>
<g id="a_edge74_Node000002_Node000014"><a xlink:title=" ">
<path fill="none" stroke="#63b8ff" d="M307.41,-577.21C321,-544.76 348.4,-489.67 388.5,-457.25 395.16,-451.87 403.08,-447.59 411.14,-444.2"/>
<polygon fill="#63b8ff" stroke="#63b8ff" points="304.25,-575.67 303.74,-586.26 310.74,-578.3 304.25,-575.67"/>
</a>
</g>
</g>
<!-- Node15 -->
<g id="Node000015" class="node">
<title>Node15</title>
<g id="a_Node000015"><a xlink:href="classtriton_1_1exceptions_1_1Register.html" target="_top" xlink:title="The exception class used by register operands.">
<polygon fill="white" stroke="#666666" points="504.25,-398.5 413.25,-398.5 413.25,-368 504.25,-368 504.25,-398.5"/>
<text text-anchor="start" x="421.25" y="-385" font-family="Helvetica,sans-Serif" font-size="10.00">triton::exceptions</text>
<text text-anchor="middle" x="458.75" y="-373.75" font-family="Helvetica,sans-Serif" font-size="10.00">::Register</text>
</a>
</g>
</g>
<!-- Node2&#45;&gt;Node15 -->
<g id="edge75_Node000002_Node000015" class="edge">
<title>Node2&#45;&gt;Node15</title>
<g id="a_edge75_Node000002_Node000015"><a xlink:title=" ">
<path fill="none" stroke="#63b8ff" d="M303.03,-576.55C312.98,-534.94 337.79,-454.58 388.5,-408.25 395.48,-401.87 404.22,-397.09 413.1,-393.52"/>
<polygon fill="#63b8ff" stroke="#63b8ff" points="299.64,-575.67 300.84,-586.2 306.46,-577.22 299.64,-575.67"/>
</a>
</g>
</g>
<!-- Node8 -->
<g id="Node000008" class="node">
<title>Node8</title>
<g id="a_Node000008"><a xlink:href="classtriton_1_1exceptions_1_1Disassembly.html" target="_top" xlink:title="The exception class used by the disassembler.">
<polygon fill="white" stroke="#666666" points="671,-710.5 580,-710.5 580,-680 671,-680 671,-710.5"/>
<text text-anchor="start" x="588" y="-697" font-family="Helvetica,sans-Serif" font-size="10.00">triton::exceptions</text>
<text text-anchor="middle" x="625.5" y="-685.75" font-family="Helvetica,sans-Serif" font-size="10.00">::Disassembly</text>
</a>
</g>
</g>
<!-- Node7&#45;&gt;Node8 -->
<g id="edge68_Node000007_Node000008" class="edge">
<title>Node7&#45;&gt;Node8</title>
<g id="a_edge68_Node000007_Node000008"><a xlink:title=" ">
<path fill="none" stroke="#63b8ff" d="M527.78,-681.16C545.28,-683.71 563.67,-686.39 579.66,-688.72"/>
<polygon fill="#63b8ff" stroke="#63b8ff" points="528.35,-677.71 517.95,-679.73 527.34,-684.63 528.35,-677.71"/>
</a>
</g>
</g>
<!-- Node9 -->
<g id="Node000009" class="node">
<title>Node9</title>
<g id="a_Node000009"><a xlink:href="classtriton_1_1exceptions_1_1Semantics.html" target="_top" xlink:title="The exception class used by all semantics.">
<polygon fill="white" stroke="#666666" points="671,-661.5 580,-661.5 580,-631 671,-631 671,-661.5"/>
<text text-anchor="start" x="588" y="-648" font-family="Helvetica,sans-Serif" font-size="10.00">triton::exceptions</text>
<text text-anchor="middle" x="625.5" y="-636.75" font-family="Helvetica,sans-Serif" font-size="10.00">::Semantics</text>
</a>
</g>
</g>
<!-- Node7&#45;&gt;Node9 -->
<g id="edge69_Node000007_Node000009" class="edge">
<title>Node7&#45;&gt;Node9</title>
<g id="a_edge69_Node000007_Node000009"><a xlink:title=" ">
<path fill="none" stroke="#63b8ff" d="M527.78,-660.93C545.28,-658.27 563.67,-655.48 579.66,-653.05"/>
<polygon fill="#63b8ff" stroke="#63b8ff" points="527.31,-657.46 517.94,-662.42 528.36,-664.38 527.31,-657.46"/>
</a>
</g>
</g>
<!-- Node17 -->
<g id="Node000017" class="node">
<title>Node17</title>
<g id="a_Node000017"><a xlink:href="classtriton_1_1exceptions_1_1AstLifting.html" target="_top" xlink:title="The exception class used by all AST lifting (e.g z3 &lt;&#45;&gt; triton).">
<polygon fill="white" stroke="#666666" points="504.25,-349.5 413.25,-349.5 413.25,-319 504.25,-319 504.25,-349.5"/>
<text text-anchor="start" x="421.25" y="-336" font-family="Helvetica,sans-Serif" font-size="10.00">triton::exceptions</text>
<text text-anchor="middle" x="458.75" y="-324.75" font-family="Helvetica,sans-Serif" font-size="10.00">::AstLifting</text>
</a>
</g>
</g>
<!-- Node16&#45;&gt;Node17 -->
<g id="edge77_Node000016_Node000017" class="edge">
<title>Node16&#45;&gt;Node17</title>
<g id="a_edge77_Node000016_Node000017"><a xlink:title=" ">
<path fill="none" stroke="#63b8ff" d="M363.9,-332.49C380.39,-332.8 397.67,-333.13 412.85,-333.41"/>
<polygon fill="#63b8ff" stroke="#63b8ff" points="364.23,-329 354.16,-332.31 364.09,-336 364.23,-329"/>
</a>
</g>
</g>
<!-- Node18 -->
<g id="Node000018" class="node">
<title>Node18</title>
<g id="a_Node000018"><a xlink:href="classtriton_1_1exceptions_1_1AstRepresentation.html" target="_top" xlink:title="The exception class used by all AST node representations.">
<polygon fill="white" stroke="#666666" points="510.25,-300.5 407.25,-300.5 407.25,-270 510.25,-270 510.25,-300.5"/>
<text text-anchor="start" x="415.25" y="-287" font-family="Helvetica,sans-Serif" font-size="10.00">triton::exceptions</text>
<text text-anchor="middle" x="458.75" y="-275.75" font-family="Helvetica,sans-Serif" font-size="10.00">::AstRepresentation</text>
</a>
</g>
</g>
<!-- Node16&#45;&gt;Node18 -->
<g id="edge78_Node000016_Node000018" class="edge">
<title>Node16&#45;&gt;Node18</title>
<g id="a_edge78_Node000016_Node000018"><a xlink:title=" ">
<path fill="none" stroke="#63b8ff" d="M343.57,-318.02C363.36,-312.34 386.56,-305.69 406.85,-299.86"/>
<polygon fill="#63b8ff" stroke="#63b8ff" points="342.77,-314.61 334.12,-320.74 344.7,-321.34 342.77,-314.61"/>
</a>
</g>
</g>
<!-- Node23 -->
<g id="Node000023" class="node">
<title>Node23</title>
<g id="a_Node000023"><a xlink:href="classtriton_1_1exceptions_1_1LiftingEngine.html" target="_top" xlink:title="The exception class used by the lifting engine.">
<polygon fill="white" stroke="#666666" points="504.25,-251.5 413.25,-251.5 413.25,-221 504.25,-221 504.25,-251.5"/>
<text text-anchor="start" x="421.25" y="-238" font-family="Helvetica,sans-Serif" font-size="10.00">triton::exceptions</text>
<text text-anchor="middle" x="458.75" y="-226.75" font-family="Helvetica,sans-Serif" font-size="10.00">::LiftingEngine</text>
</a>
</g>
</g>
<!-- Node22&#45;&gt;Node23 -->
<g id="edge83_Node000022_Node000023" class="edge">
<title>Node22&#45;&gt;Node23</title>
<g id="a_edge83_Node000022_Node000023"><a xlink:title=" ">
<path fill="none" stroke="#63b8ff" d="M347.71,-162.79C349.36,-163.9 350.96,-165.05 352.5,-166.25 372.71,-181.98 367.67,-196.34 388.5,-211.25 395.88,-216.53 404.49,-220.81 413.09,-224.23"/>
<polygon fill="#63b8ff" stroke="#63b8ff" points="349.52,-159.79 339.14,-157.66 345.92,-165.8 349.52,-159.79"/>
</a>
</g>
</g>
<!-- Node24 -->
<g id="Node000024" class="node">
<title>Node24</title>
<g id="a_Node000024"><a xlink:href="classtriton_1_1exceptions_1_1SolverEngine.html" target="_top" xlink:title="The exception class used by the solver engine.">
<polygon fill="white" stroke="#666666" points="504.25,-202.5 413.25,-202.5 413.25,-172 504.25,-172 504.25,-202.5"/>
<text text-anchor="start" x="421.25" y="-189" font-family="Helvetica,sans-Serif" font-size="10.00">triton::exceptions</text>
<text text-anchor="middle" x="458.75" y="-177.75" font-family="Helvetica,sans-Serif" font-size="10.00">::SolverEngine</text>
</a>
</g>
</g>
<!-- Node22&#45;&gt;Node24 -->
<g id="edge84_Node000022_Node000024" class="edge">
<title>Node22&#45;&gt;Node24</title>
<g id="a_edge84_Node000022_Node000024"><a xlink:title=" ">
<path fill="none" stroke="#63b8ff" d="M353.04,-157.19C372.56,-162.8 394.25,-169.02 412.8,-174.35"/>
<polygon fill="#63b8ff" stroke="#63b8ff" points="354.17,-153.88 343.59,-154.48 352.24,-160.6 354.17,-153.88"/>
</a>
</g>
</g>
<!-- Node26 -->
<g id="Node000026" class="node">
<title>Node26</title>
<g id="a_Node000026"><a xlink:href="classtriton_1_1exceptions_1_1SymbolicEngine.html" target="_top" xlink:title="The exception class used by the symbolic engine.">
<polygon fill="white" stroke="#666666" points="505,-153.5 412.5,-153.5 412.5,-123 505,-123 505,-153.5"/>
<text text-anchor="start" x="420.5" y="-140" font-family="Helvetica,sans-Serif" font-size="10.00">triton::exceptions</text>
<text text-anchor="middle" x="458.75" y="-128.75" font-family="Helvetica,sans-Serif" font-size="10.00">::SymbolicEngine</text>
</a>
</g>
</g>
<!-- Node22&#45;&gt;Node26 -->
<g id="edge86_Node000022_Node000026" class="edge">
<title>Node22&#45;&gt;Node26</title>
<g id="a_edge86_Node000022_Node000026"><a xlink:title=" ">
<path fill="none" stroke="#63b8ff" d="M353.48,-140.2C372.7,-139.84 393.96,-139.44 412.24,-139.1"/>
<polygon fill="#63b8ff" stroke="#63b8ff" points="353.58,-136.7 343.65,-140.39 353.72,-143.7 353.58,-136.7"/>
</a>
</g>
</g>
<!-- Node32 -->
<g id="Node000032" class="node">
<title>Node32</title>
<g id="a_Node000032"><a xlink:href="classtriton_1_1exceptions_1_1SynthesizerEngine.html" target="_top" xlink:title="The exception class used by the synthesizer engine.">
<polygon fill="white" stroke="#666666" points="510.62,-104.5 406.88,-104.5 406.88,-74 510.62,-74 510.62,-104.5"/>
<text text-anchor="start" x="414.88" y="-91" font-family="Helvetica,sans-Serif" font-size="10.00">triton::exceptions</text>
<text text-anchor="middle" x="458.75" y="-79.75" font-family="Helvetica,sans-Serif" font-size="10.00">::SynthesizerEngine</text>
</a>
</g>
</g>
<!-- Node22&#45;&gt;Node32 -->
<g id="edge92_Node000022_Node000032" class="edge">
<title>Node22&#45;&gt;Node32</title>
<g id="a_edge92_Node000022_Node000032"><a xlink:title=" ">
<path fill="none" stroke="#63b8ff" d="M352.99,-123.24C371.36,-117.28 391.64,-110.7 409.42,-104.93"/>
<polygon fill="#63b8ff" stroke="#63b8ff" points="352.01,-119.88 343.58,-126.3 354.17,-126.54 352.01,-119.88"/>
</a>
</g>
</g>
<!-- Node33 -->
<g id="Node000033" class="node">
<title>Node33</title>
<g id="a_Node000033"><a xlink:href="classtriton_1_1exceptions_1_1TaintEngine.html" target="_top" xlink:title="The exception class used by the taint engine.">
<polygon fill="white" stroke="#666666" points="504.25,-55.5 413.25,-55.5 413.25,-25 504.25,-25 504.25,-55.5"/>
<text text-anchor="start" x="421.25" y="-42" font-family="Helvetica,sans-Serif" font-size="10.00">triton::exceptions</text>
<text text-anchor="middle" x="458.75" y="-30.75" font-family="Helvetica,sans-Serif" font-size="10.00">::TaintEngine</text>
</a>
</g>
</g>
<!-- Node22&#45;&gt;Node33 -->
<g id="edge93_Node000022_Node000033" class="edge">
<title>Node22&#45;&gt;Node33</title>
<g id="a_edge93_Node000022_Node000033"><a xlink:title=" ">
<path fill="none" stroke="#63b8ff" d="M347.98,-119.7C349.54,-118.6 351.06,-117.45 352.5,-116.25 373.87,-98.56 366.43,-82.07 388.5,-65.25 395.72,-59.75 404.26,-55.38 412.83,-51.93"/>
<polygon fill="#63b8ff" stroke="#63b8ff" points="346.53,-116.49 339.89,-124.75 350.23,-122.43 346.53,-116.49"/>
</a>
</g>
</g>
<!-- Node25 -->
<g id="Node000025" class="node">
<title>Node25</title>
<g id="a_Node000025"><a xlink:href="classtriton_1_1exceptions_1_1SolverModel.html" target="_top" xlink:title="The exception class used by solver models.">
<polygon fill="white" stroke="#666666" points="671,-275.5 580,-275.5 580,-245 671,-245 671,-275.5"/>
<text text-anchor="start" x="588" y="-262" font-family="Helvetica,sans-Serif" font-size="10.00">triton::exceptions</text>
<text text-anchor="middle" x="625.5" y="-250.75" font-family="Helvetica,sans-Serif" font-size="10.00">::SolverModel</text>
</a>
</g>
</g>
<!-- Node24&#45;&gt;Node25 -->
<g id="edge85_Node000024_Node000025" class="edge">
<title>Node24&#45;&gt;Node25</title>
<g id="a_edge85_Node000024_Node000025"><a xlink:title=" ">
<path fill="none" stroke="#63b8ff" d="M515.13,-205.98C519.87,-207.97 524.56,-210.06 529,-212.25 546.03,-220.64 548.19,-226.43 565,-235.25 571.25,-238.53 578.03,-241.71 584.7,-244.64"/>
<polygon fill="#63b8ff" stroke="#63b8ff" points="516.68,-202.83 506.1,-202.38 514.09,-209.34 516.68,-202.83"/>
</a>
</g>
</g>
<!-- Node27 -->
<g id="Node000027" class="node">
<title>Node27</title>
<g id="a_Node000027"><a xlink:href="classtriton_1_1exceptions_1_1PathConstraint.html" target="_top" xlink:title="The exception class used by path constraints.">
<polygon fill="white" stroke="#666666" points="671,-226.5 580,-226.5 580,-196 671,-196 671,-226.5"/>
<text text-anchor="start" x="588" y="-213" font-family="Helvetica,sans-Serif" font-size="10.00">triton::exceptions</text>
<text text-anchor="middle" x="625.5" y="-201.75" font-family="Helvetica,sans-Serif" font-size="10.00">::PathConstraint</text>
</a>
</g>
</g>
<!-- Node26&#45;&gt;Node27 -->
<g id="edge87_Node000026_Node000027" class="edge">
<title>Node26&#45;&gt;Node27</title>
<g id="a_edge87_Node000026_Node000027"><a xlink:title=" ">
<path fill="none" stroke="#63b8ff" d="M515.92,-157.32C520.4,-159.2 524.81,-161.19 529,-163.25 546.03,-171.64 548.19,-177.43 565,-186.25 571.25,-189.53 578.03,-192.71 584.7,-195.64"/>
<polygon fill="#63b8ff" stroke="#63b8ff" points="517.41,-154.14 506.83,-153.67 514.81,-160.64 517.41,-154.14"/>
</a>
</g>
</g>
<!-- Node28 -->
<g id="Node000028" class="node">
<title>Node28</title>
<g id="a_Node000028"><a xlink:href="classtriton_1_1exceptions_1_1PathManager.html" target="_top" xlink:title="The exception class used by the path manager.">
<polygon fill="white" stroke="#666666" points="671,-177.5 580,-177.5 580,-147 671,-147 671,-177.5"/>
<text text-anchor="start" x="588" y="-164" font-family="Helvetica,sans-Serif" font-size="10.00">triton::exceptions</text>
<text text-anchor="middle" x="625.5" y="-152.75" font-family="Helvetica,sans-Serif" font-size="10.00">::PathManager</text>
</a>
</g>
</g>
<!-- Node26&#45;&gt;Node28 -->
<g id="edge88_Node000026_Node000028" class="edge">
<title>Node26&#45;&gt;Node28</title>
<g id="a_edge88_Node000026_Node000028"><a xlink:title=" ">
<path fill="none" stroke="#63b8ff" d="M516.42,-146.51C537.13,-149.52 560.24,-152.89 579.76,-155.73"/>
<polygon fill="#63b8ff" stroke="#63b8ff" points="517.1,-143.07 506.7,-145.09 516.09,-149.99 517.1,-143.07"/>
</a>
</g>
</g>
<!-- Node29 -->
<g id="Node000029" class="node">
<title>Node29</title>
<g id="a_Node000029"><a xlink:href="classtriton_1_1exceptions_1_1SymbolicExpression.html" target="_top" xlink:title="The exception class used by symbolic expressions.">
<polygon fill="white" stroke="#666666" points="681.12,-128.5 569.88,-128.5 569.88,-98 681.12,-98 681.12,-128.5"/>
<text text-anchor="start" x="577.88" y="-115" font-family="Helvetica,sans-Serif" font-size="10.00">triton::exceptions</text>
<text text-anchor="middle" x="625.5" y="-103.75" font-family="Helvetica,sans-Serif" font-size="10.00">::SymbolicExpression</text>
</a>
</g>
</g>
<!-- Node26&#45;&gt;Node29 -->
<g id="edge89_Node000026_Node000029" class="edge">
<title>Node26&#45;&gt;Node29</title>
<g id="a_edge89_Node000026_Node000029"><a xlink:title=" ">
<path fill="none" stroke="#63b8ff" d="M516.25,-129.68C533.48,-127.06 552.4,-124.19 569.53,-121.59"/>
<polygon fill="#63b8ff" stroke="#63b8ff" points="516.06,-126.16 506.7,-131.13 517.11,-133.09 516.06,-126.16"/>
</a>
</g>
</g>
<!-- Node30 -->
<g id="Node000030" class="node">
<title>Node30</title>
<g id="a_Node000030"><a xlink:href="classtriton_1_1exceptions_1_1SymbolicSimplification.html" target="_top" xlink:title="The exception class used by symbolic simplifications.">
<polygon fill="white" stroke="#666666" points="686,-79.5 565,-79.5 565,-49 686,-49 686,-79.5"/>
<text text-anchor="start" x="573" y="-66" font-family="Helvetica,sans-Serif" font-size="10.00">triton::exceptions</text>
<text text-anchor="middle" x="625.5" y="-54.75" font-family="Helvetica,sans-Serif" font-size="10.00">::SymbolicSimplification</text>
</a>
</g>
</g>
<!-- Node26&#45;&gt;Node30 -->
<g id="edge90_Node000026_Node000030" class="edge">
<title>Node26&#45;&gt;Node30</title>
<g id="a_edge90_Node000026_Node000030"><a xlink:title=" ">
<path fill="none" stroke="#63b8ff" d="M515.97,-119.27C520.43,-117.37 524.83,-115.35 529,-113.25 546.17,-104.59 548.06,-98.35 565,-89.25 571.12,-85.96 577.77,-82.8 584.32,-79.9"/>
<polygon fill="#63b8ff" stroke="#63b8ff" points="514.85,-115.95 506.89,-122.95 517.47,-122.44 514.85,-115.95"/>
</a>
</g>
</g>
<!-- Node31 -->
<g id="Node000031" class="node">
<title>Node31</title>
<g id="a_Node000031"><a xlink:href="classtriton_1_1exceptions_1_1SymbolicVariable.html" target="_top" xlink:title="The exception class used by symbolic variables.">
<polygon fill="white" stroke="#666666" points="674,-30.5 577,-30.5 577,0 674,0 674,-30.5"/>
<text text-anchor="start" x="585" y="-17" font-family="Helvetica,sans-Serif" font-size="10.00">triton::exceptions</text>
<text text-anchor="middle" x="625.5" y="-5.75" font-family="Helvetica,sans-Serif" font-size="10.00">::SymbolicVariable</text>
</a>
</g>
</g>
<!-- Node26&#45;&gt;Node31 -->
<g id="edge91_Node000026_Node000031" class="edge">
<title>Node26&#45;&gt;Node31</title>
<g id="a_edge91_Node000026_Node000031"><a xlink:title=" ">
<path fill="none" stroke="#63b8ff" d="M515.58,-122.58C520.41,-119.93 524.98,-116.84 529,-113.25 555.97,-89.14 538.66,-65.05 565,-40.25 568.75,-36.72 573.08,-33.65 577.65,-30.99"/>
<polygon fill="#63b8ff" stroke="#63b8ff" points="514.27,-119.32 506.74,-126.78 517.28,-125.65 514.27,-119.32"/>
</a>
</g>
</g>
</g>
</svg>
