<?xml version="1.0" encoding="UTF-8" standalone="no"?>
<!DOCTYPE svg PUBLIC "-//W3C//DTD SVG 1.1//EN"
 "http://www.w3.org/Graphics/SVG/1.1/DTD/svg11.dtd">
<!-- Generated by graphviz version 2.49.0 (20210828.1703)
 -->
<!-- Title: Graphical Class Hierarchy Pages: 1 -->
<svg width="509pt" height="2042pt"
 viewBox="0.00 0.00 509.00 2042.00" xmlns="http://www.w3.org/2000/svg" xmlns:xlink="http://www.w3.org/1999/xlink">
<g id="graph0" class="graph" transform="scale(1 1) rotate(0) translate(4 2038)">
<title>Graphical Class Hierarchy</title>
<polygon fill="white" stroke="transparent" points="-4,4 -4,-2038 505,-2038 505,4 -4,4"/>
<!-- Node34 -->
<g id="node1" class="node">
<title>Node34</title>
<g id="a_node1"><a xlink:href="classtriton_1_1ast_1_1CompoundNode.html" target="_top" xlink:title="[&lt;expr1&gt; &lt;expr2&gt; &lt;expr3&gt; ...] node">
<polygon fill="white" stroke="black" points="0,-1007.5 0,-1026.5 148,-1026.5 148,-1007.5 0,-1007.5"/>
<text text-anchor="middle" x="74" y="-1014.5" font-family="Helvetica,sans-Serif" font-size="10.00">triton::ast::CompoundNode</text>
</a>
</g>
</g>
<!-- Node0 -->
<g id="node2" class="node">
<title>Node0</title>
<g id="a_node2"><a xlink:href="classtriton_1_1ast_1_1AbstractNode.html" target="_top" xlink:title="Abstract node.">
<polygon fill="white" stroke="black" points="184,-1007.5 184,-1026.5 320,-1026.5 320,-1007.5 184,-1007.5"/>
<text text-anchor="middle" x="252" y="-1014.5" font-family="Helvetica,sans-Serif" font-size="10.00">triton::ast::AbstractNode</text>
</a>
</g>
</g>
<!-- Node34&#45;&gt;Node0 -->
<g id="edge1" class="edge">
<title>Node34&#45;&gt;Node0</title>
<path fill="none" stroke="midnightblue" d="M158.14,-1010.26C166.72,-1010.23 175.37,-1010.28 183.75,-1010.42"/>
<polygon fill="midnightblue" stroke="midnightblue" points="158.08,-1006.76 148.11,-1010.34 158.14,-1013.76 158.08,-1006.76"/>
</g>
<!-- Node91 -->
<g id="node57" class="node">
<title>Node91</title>
<g id="a_node57"><a xlink:href="classtriton_1_1ast_1_1AstContext.html" target="_top" xlink:title="AST Context &#45; Used as AST builder.">
<polygon fill="white" stroke="black" points="190,-969.5 190,-988.5 314,-988.5 314,-969.5 190,-969.5"/>
<text text-anchor="middle" x="252" y="-976.5" font-family="Helvetica,sans-Serif" font-size="10.00">triton::ast::AstContext</text>
</a>
</g>
</g>
<!-- Node34&#45;&gt;Node91 -->
<g id="edge57" class="edge">
<title>Node34&#45;&gt;Node91</title>
<path fill="none" stroke="midnightblue" d="M129.43,-1005.25C154.32,-999.87 183.42,-993.59 206.91,-988.52"/>
<polygon fill="midnightblue" stroke="midnightblue" points="128.45,-1001.88 119.41,-1007.41 129.93,-1008.72 128.45,-1001.88"/>
</g>
<!-- Node0&#45;&gt;Node34 -->
<g id="edge35" class="edge">
<title>Node0&#45;&gt;Node34</title>
<path fill="none" stroke="midnightblue" d="M173.53,-1023.71C165.08,-1023.78 156.5,-1023.76 148.11,-1023.66"/>
<polygon fill="midnightblue" stroke="midnightblue" points="173.79,-1027.2 183.75,-1023.58 173.71,-1020.2 173.79,-1027.2"/>
</g>
<!-- Node1 -->
<g id="node3" class="node">
<title>Node1</title>
<g id="a_node3"><a xlink:href="classtriton_1_1ast_1_1ArrayNode.html" target="_top" xlink:title="(Array (_ BitVec indexSize) (_ BitVec 8)) node">
<polygon fill="white" stroke="black" points="367.5,-2014.5 367.5,-2033.5 489.5,-2033.5 489.5,-2014.5 367.5,-2014.5"/>
<text text-anchor="middle" x="428.5" y="-2021.5" font-family="Helvetica,sans-Serif" font-size="10.00">triton::ast::ArrayNode</text>
</a>
</g>
</g>
<!-- Node0&#45;&gt;Node1 -->
<g id="edge2" class="edge">
<title>Node0&#45;&gt;Node1</title>
<path fill="none" stroke="midnightblue" d="M253.73,-1036.86C258.82,-1169.89 290.58,-1928.5 356,-2005 359.26,-2008.81 363.18,-2011.9 367.49,-2014.39"/>
<polygon fill="midnightblue" stroke="midnightblue" points="257.22,-1036.42 253.35,-1026.56 250.22,-1036.69 257.22,-1036.42"/>
</g>
<!-- Node2 -->
<g id="node4" class="node">
<title>Node2</title>
<g id="a_node4"><a xlink:href="classtriton_1_1ast_1_1AssertNode.html" target="_top" xlink:title="(assert &lt;expr&gt;) node">
<polygon fill="white" stroke="black" points="365.5,-1976.5 365.5,-1995.5 491.5,-1995.5 491.5,-1976.5 365.5,-1976.5"/>
<text text-anchor="middle" x="428.5" y="-1983.5" font-family="Helvetica,sans-Serif" font-size="10.00">triton::ast::AssertNode</text>
</a>
</g>
</g>
<!-- Node0&#45;&gt;Node2 -->
<g id="edge3" class="edge">
<title>Node0&#45;&gt;Node2</title>
<path fill="none" stroke="midnightblue" d="M253.82,-1036.9C259.37,-1167.06 293.05,-1893.7 356,-1967 359.26,-1970.8 363.19,-1973.88 367.51,-1976.38"/>
<polygon fill="midnightblue" stroke="midnightblue" points="257.31,-1036.63 253.4,-1026.78 250.32,-1036.92 257.31,-1036.63"/>
</g>
<!-- Node3 -->
<g id="node5" class="node">
<title>Node3</title>
<g id="a_node5"><a xlink:href="classtriton_1_1ast_1_1BswapNode.html" target="_top" xlink:title="(bswap &lt;expr&gt;) node">
<polygon fill="white" stroke="black" points="364.5,-1938.5 364.5,-1957.5 492.5,-1957.5 492.5,-1938.5 364.5,-1938.5"/>
<text text-anchor="middle" x="428.5" y="-1945.5" font-family="Helvetica,sans-Serif" font-size="10.00">triton::ast::BswapNode</text>
</a>
</g>
</g>
<!-- Node0&#45;&gt;Node3 -->
<g id="edge4" class="edge">
<title>Node0&#45;&gt;Node3</title>
<path fill="none" stroke="midnightblue" d="M253.92,-1036.88C259.94,-1163.93 295.51,-1858.87 356,-1929 359.27,-1932.79 363.21,-1935.87 367.53,-1938.36"/>
<polygon fill="midnightblue" stroke="midnightblue" points="257.4,-1036.51 253.44,-1026.68 250.41,-1036.84 257.4,-1036.51"/>
</g>
<!-- Node4 -->
<g id="node6" class="node">
<title>Node4</title>
<g id="a_node6"><a xlink:href="classtriton_1_1ast_1_1BvNode.html" target="_top" xlink:title="(_ bv&lt;value&gt; &lt;size&gt;) node">
<polygon fill="white" stroke="black" points="374.5,-1900.5 374.5,-1919.5 482.5,-1919.5 482.5,-1900.5 374.5,-1900.5"/>
<text text-anchor="middle" x="428.5" y="-1907.5" font-family="Helvetica,sans-Serif" font-size="10.00">triton::ast::BvNode</text>
</a>
</g>
</g>
<!-- Node0&#45;&gt;Node4 -->
<g id="edge5" class="edge">
<title>Node0&#45;&gt;Node4</title>
<path fill="none" stroke="midnightblue" d="M254.01,-1036.81C260.52,-1160.55 297.95,-1824.03 356,-1891 360.96,-1896.73 367.44,-1900.82 374.46,-1903.74"/>
<polygon fill="midnightblue" stroke="midnightblue" points="257.5,-1036.37 253.48,-1026.56 250.51,-1036.73 257.5,-1036.37"/>
</g>
<!-- Node5 -->
<g id="node7" class="node">
<title>Node5</title>
<g id="a_node7"><a xlink:href="classtriton_1_1ast_1_1BvaddNode.html" target="_top" xlink:title="(bvadd &lt;expr1&gt; &lt;expr2&gt;) node">
<polygon fill="white" stroke="black" points="365.5,-1862.5 365.5,-1881.5 491.5,-1881.5 491.5,-1862.5 365.5,-1862.5"/>
<text text-anchor="middle" x="428.5" y="-1869.5" font-family="Helvetica,sans-Serif" font-size="10.00">triton::ast::BvaddNode</text>
</a>
</g>
</g>
<!-- Node0&#45;&gt;Node5 -->
<g id="edge6" class="edge">
<title>Node0&#45;&gt;Node5</title>
<path fill="none" stroke="midnightblue" d="M254.12,-1036.7C261.12,-1156.98 300.39,-1789.19 356,-1853 359.29,-1856.78 363.24,-1859.84 367.57,-1862.33"/>
<polygon fill="midnightblue" stroke="midnightblue" points="257.61,-1036.48 253.54,-1026.7 250.62,-1036.88 257.61,-1036.48"/>
</g>
<!-- Node6 -->
<g id="node8" class="node">
<title>Node6</title>
<g id="a_node8"><a xlink:href="classtriton_1_1ast_1_1BvandNode.html" target="_top" xlink:title="(bvand &lt;expr1&gt; &lt;expr2&gt;) node">
<polygon fill="white" stroke="black" points="365.5,-1824.5 365.5,-1843.5 491.5,-1843.5 491.5,-1824.5 365.5,-1824.5"/>
<text text-anchor="middle" x="428.5" y="-1831.5" font-family="Helvetica,sans-Serif" font-size="10.00">triton::ast::BvandNode</text>
</a>
</g>
</g>
<!-- Node0&#45;&gt;Node6 -->
<g id="edge7" class="edge">
<title>Node0&#45;&gt;Node6</title>
<path fill="none" stroke="midnightblue" d="M252.69,-1036.83C251.35,-1148.12 250.28,-1694.39 356,-1815 359.39,-1818.86 363.46,-1821.98 367.92,-1824.5"/>
<polygon fill="midnightblue" stroke="midnightblue" points="256.19,-1036.73 252.83,-1026.68 249.19,-1036.64 256.19,-1036.73"/>
</g>
<!-- Node7 -->
<g id="node9" class="node">
<title>Node7</title>
<g id="a_node9"><a xlink:href="classtriton_1_1ast_1_1BvashrNode.html" target="_top" xlink:title="(bvashr &lt;expr1&gt; &lt;expr2&gt;) node">
<polygon fill="white" stroke="black" points="364,-1786.5 364,-1805.5 493,-1805.5 493,-1786.5 364,-1786.5"/>
<text text-anchor="middle" x="428.5" y="-1793.5" font-family="Helvetica,sans-Serif" font-size="10.00">triton::ast::BvashrNode</text>
</a>
</g>
</g>
<!-- Node0&#45;&gt;Node7 -->
<g id="edge8" class="edge">
<title>Node0&#45;&gt;Node7</title>
<path fill="none" stroke="midnightblue" d="M252.83,-1036.89C252.31,-1145.15 255.18,-1662.72 356,-1777 359.4,-1780.85 363.48,-1783.97 367.95,-1786.47"/>
<polygon fill="midnightblue" stroke="midnightblue" points="256.33,-1036.75 252.9,-1026.73 249.33,-1036.7 256.33,-1036.75"/>
</g>
<!-- Node8 -->
<g id="node10" class="node">
<title>Node8</title>
<g id="a_node10"><a xlink:href="classtriton_1_1ast_1_1BvlshrNode.html" target="_top" xlink:title="(bvlshr &lt;expr1&gt; &lt;expr2&gt;) node">
<polygon fill="white" stroke="black" points="365.5,-1748.5 365.5,-1767.5 491.5,-1767.5 491.5,-1748.5 365.5,-1748.5"/>
<text text-anchor="middle" x="428.5" y="-1755.5" font-family="Helvetica,sans-Serif" font-size="10.00">triton::ast::BvlshrNode</text>
</a>
</g>
</g>
<!-- Node0&#45;&gt;Node8 -->
<g id="edge9" class="edge">
<title>Node0&#45;&gt;Node8</title>
<path fill="none" stroke="midnightblue" d="M252.99,-1037.21C253.33,-1142.89 260.15,-1631.11 356,-1739 359.41,-1742.84 363.5,-1745.95 367.98,-1748.45"/>
<polygon fill="midnightblue" stroke="midnightblue" points="256.49,-1036.98 252.97,-1026.98 249.49,-1036.99 256.49,-1036.98"/>
</g>
<!-- Node9 -->
<g id="node11" class="node">
<title>Node9</title>
<g id="a_node11"><a xlink:href="classtriton_1_1ast_1_1BvmulNode.html" target="_top" xlink:title="(bvmul &lt;expr1&gt; &lt;expr2&gt;) node">
<polygon fill="white" stroke="black" points="365,-1710.5 365,-1729.5 492,-1729.5 492,-1710.5 365,-1710.5"/>
<text text-anchor="middle" x="428.5" y="-1717.5" font-family="Helvetica,sans-Serif" font-size="10.00">triton::ast::BvmulNode</text>
</a>
</g>
</g>
<!-- Node0&#45;&gt;Node9 -->
<g id="edge10" class="edge">
<title>Node0&#45;&gt;Node9</title>
<path fill="none" stroke="midnightblue" d="M253.16,-1037.11C254.39,-1139.2 264.98,-1599.35 356,-1701 359.43,-1704.83 363.53,-1707.92 368.01,-1710.42"/>
<polygon fill="midnightblue" stroke="midnightblue" points="256.66,-1036.9 253.06,-1026.94 249.66,-1036.97 256.66,-1036.9"/>
</g>
<!-- Node10 -->
<g id="node12" class="node">
<title>Node10</title>
<g id="a_node12"><a xlink:href="classtriton_1_1ast_1_1BvnandNode.html" target="_top" xlink:title="(bvnand &lt;expr1&gt; &lt;expr2&gt;) node">
<polygon fill="white" stroke="black" points="362.5,-1672.5 362.5,-1691.5 494.5,-1691.5 494.5,-1672.5 362.5,-1672.5"/>
<text text-anchor="middle" x="428.5" y="-1679.5" font-family="Helvetica,sans-Serif" font-size="10.00">triton::ast::BvnandNode</text>
</a>
</g>
</g>
<!-- Node0&#45;&gt;Node10 -->
<g id="edge11" class="edge">
<title>Node0&#45;&gt;Node10</title>
<path fill="none" stroke="midnightblue" d="M253.35,-1036.92C255.5,-1135.19 269.78,-1567.54 356,-1663 359.44,-1666.81 363.56,-1669.9 368.05,-1672.39"/>
<polygon fill="midnightblue" stroke="midnightblue" points="256.85,-1036.78 253.15,-1026.85 249.85,-1036.92 256.85,-1036.78"/>
</g>
<!-- Node11 -->
<g id="node13" class="node">
<title>Node11</title>
<g id="a_node13"><a xlink:href="classtriton_1_1ast_1_1BvnegNode.html" target="_top" xlink:title="(bvneg &lt;expr&gt;) node">
<polygon fill="white" stroke="black" points="365.5,-1634.5 365.5,-1653.5 491.5,-1653.5 491.5,-1634.5 365.5,-1634.5"/>
<text text-anchor="middle" x="428.5" y="-1641.5" font-family="Helvetica,sans-Serif" font-size="10.00">triton::ast::BvnegNode</text>
</a>
</g>
</g>
<!-- Node0&#45;&gt;Node11 -->
<g id="edge12" class="edge">
<title>Node0&#45;&gt;Node11</title>
<path fill="none" stroke="midnightblue" d="M253.57,-1036.92C256.68,-1131.67 274.62,-1535.78 356,-1625 359.46,-1628.8 363.59,-1631.87 368.09,-1634.35"/>
<polygon fill="midnightblue" stroke="midnightblue" points="257.06,-1036.61 253.25,-1026.73 250.07,-1036.83 257.06,-1036.61"/>
</g>
<!-- Node12 -->
<g id="node14" class="node">
<title>Node12</title>
<g id="a_node14"><a xlink:href="classtriton_1_1ast_1_1BvnorNode.html" target="_top" xlink:title="(bvnor &lt;expr1&gt; &lt;expr2&gt;) node">
<polygon fill="white" stroke="black" points="366.5,-1596.5 366.5,-1615.5 490.5,-1615.5 490.5,-1596.5 366.5,-1596.5"/>
<text text-anchor="middle" x="428.5" y="-1603.5" font-family="Helvetica,sans-Serif" font-size="10.00">triton::ast::BvnorNode</text>
</a>
</g>
</g>
<!-- Node0&#45;&gt;Node12 -->
<g id="edge13" class="edge">
<title>Node0&#45;&gt;Node12</title>
<path fill="none" stroke="midnightblue" d="M253.81,-1036.81C257.93,-1127.71 279.43,-1503.96 356,-1587 359.57,-1590.87 363.83,-1593.99 368.47,-1596.5"/>
<polygon fill="midnightblue" stroke="midnightblue" points="257.3,-1036.39 253.37,-1026.55 250.3,-1036.69 257.3,-1036.39"/>
</g>
<!-- Node13 -->
<g id="node15" class="node">
<title>Node13</title>
<g id="a_node15"><a xlink:href="classtriton_1_1ast_1_1BvnotNode.html" target="_top" xlink:title="(bvnot &lt;expr&gt;) node">
<polygon fill="white" stroke="black" points="366.5,-1558.5 366.5,-1577.5 490.5,-1577.5 490.5,-1558.5 366.5,-1558.5"/>
<text text-anchor="middle" x="428.5" y="-1565.5" font-family="Helvetica,sans-Serif" font-size="10.00">triton::ast::BvnotNode</text>
</a>
</g>
</g>
<!-- Node0&#45;&gt;Node13 -->
<g id="edge14" class="edge">
<title>Node0&#45;&gt;Node13</title>
<path fill="none" stroke="midnightblue" d="M254.09,-1036.87C259.28,-1124.1 284.26,-1472.17 356,-1549 359.59,-1552.85 363.87,-1555.95 368.52,-1558.45"/>
<polygon fill="midnightblue" stroke="midnightblue" points="257.58,-1036.53 253.51,-1026.75 250.59,-1036.93 257.58,-1036.53"/>
</g>
<!-- Node14 -->
<g id="node16" class="node">
<title>Node14</title>
<g id="a_node16"><a xlink:href="classtriton_1_1ast_1_1BvorNode.html" target="_top" xlink:title="(bvor &lt;expr1&gt; &lt;expr2&gt;) node">
<polygon fill="white" stroke="black" points="369.5,-1520.5 369.5,-1539.5 487.5,-1539.5 487.5,-1520.5 369.5,-1520.5"/>
<text text-anchor="middle" x="428.5" y="-1527.5" font-family="Helvetica,sans-Serif" font-size="10.00">triton::ast::BvorNode</text>
</a>
</g>
</g>
<!-- Node0&#45;&gt;Node14 -->
<g id="edge15" class="edge">
<title>Node0&#45;&gt;Node14</title>
<path fill="none" stroke="midnightblue" d="M254.42,-1037.03C260.76,-1120.59 289.11,-1440.38 356,-1511 359.8,-1515.01 364.34,-1518.21 369.26,-1520.76"/>
<polygon fill="midnightblue" stroke="midnightblue" points="257.9,-1036.57 253.67,-1026.85 250.92,-1037.09 257.9,-1036.57"/>
</g>
<!-- Node15 -->
<g id="node17" class="node">
<title>Node15</title>
<g id="a_node17"><a xlink:href="classtriton_1_1ast_1_1BvrolNode.html" target="_top" xlink:title="((_ rotate_left rot) &lt;expr&gt;) node">
<polygon fill="white" stroke="black" points="368,-1482.5 368,-1501.5 489,-1501.5 489,-1482.5 368,-1482.5"/>
<text text-anchor="middle" x="428.5" y="-1489.5" font-family="Helvetica,sans-Serif" font-size="10.00">triton::ast::BvrolNode</text>
</a>
</g>
</g>
<!-- Node0&#45;&gt;Node15 -->
<g id="edge16" class="edge">
<title>Node0&#45;&gt;Node15</title>
<path fill="none" stroke="midnightblue" d="M254.8,-1037C262.33,-1116.43 293.89,-1408.51 356,-1473 359.65,-1476.79 363.97,-1479.86 368.64,-1482.33"/>
<polygon fill="midnightblue" stroke="midnightblue" points="258.27,-1036.51 253.86,-1026.87 251.3,-1037.15 258.27,-1036.51"/>
</g>
<!-- Node16 -->
<g id="node18" class="node">
<title>Node16</title>
<g id="a_node18"><a xlink:href="classtriton_1_1ast_1_1BvrorNode.html" target="_top" xlink:title="((_ rotate_right rot) &lt;expr&gt;) node">
<polygon fill="white" stroke="black" points="367.5,-1444.5 367.5,-1463.5 489.5,-1463.5 489.5,-1444.5 367.5,-1444.5"/>
<text text-anchor="middle" x="428.5" y="-1451.5" font-family="Helvetica,sans-Serif" font-size="10.00">triton::ast::BvrorNode</text>
</a>
</g>
</g>
<!-- Node0&#45;&gt;Node16 -->
<g id="edge17" class="edge">
<title>Node0&#45;&gt;Node16</title>
<path fill="none" stroke="midnightblue" d="M255.21,-1036.76C263.97,-1111.63 298.59,-1376.54 356,-1435 359.78,-1438.85 364.24,-1441.95 369.07,-1444.44"/>
<polygon fill="midnightblue" stroke="midnightblue" points="258.68,-1036.32 254.07,-1026.79 251.73,-1037.12 258.68,-1036.32"/>
</g>
<!-- Node17 -->
<g id="node19" class="node">
<title>Node17</title>
<g id="a_node19"><a xlink:href="classtriton_1_1ast_1_1BvsdivNode.html" target="_top" xlink:title="(bvsdiv &lt;expr1&gt; &lt;expr2&gt;) node">
<polygon fill="white" stroke="black" points="364.5,-1406.5 364.5,-1425.5 492.5,-1425.5 492.5,-1406.5 364.5,-1406.5"/>
<text text-anchor="middle" x="428.5" y="-1413.5" font-family="Helvetica,sans-Serif" font-size="10.00">triton::ast::BvsdivNode</text>
</a>
</g>
</g>
<!-- Node0&#45;&gt;Node17 -->
<g id="edge18" class="edge">
<title>Node0&#45;&gt;Node17</title>
<path fill="none" stroke="midnightblue" d="M255.73,-1036.74C265.84,-1107.16 303.33,-1344.59 356,-1397 359.82,-1400.8 364.32,-1403.87 369.16,-1406.34"/>
<polygon fill="midnightblue" stroke="midnightblue" points="259.16,-1036.01 254.3,-1026.59 252.23,-1036.99 259.16,-1036.01"/>
</g>
<!-- Node18 -->
<g id="node20" class="node">
<title>Node18</title>
<g id="a_node20"><a xlink:href="classtriton_1_1ast_1_1BvsgeNode.html" target="_top" xlink:title="(bvsge &lt;expr1&gt; &lt;expr2&gt;) node">
<polygon fill="white" stroke="black" points="366,-1368.5 366,-1387.5 491,-1387.5 491,-1368.5 366,-1368.5"/>
<text text-anchor="middle" x="428.5" y="-1375.5" font-family="Helvetica,sans-Serif" font-size="10.00">triton::ast::BvsgeNode</text>
</a>
</g>
</g>
<!-- Node0&#45;&gt;Node18 -->
<g id="edge19" class="edge">
<title>Node0&#45;&gt;Node18</title>
<path fill="none" stroke="midnightblue" d="M252.71,-1036.6C252.98,-1094.78 262.01,-1268.04 356,-1359 359.97,-1362.84 364.62,-1365.93 369.62,-1368.4"/>
<polygon fill="midnightblue" stroke="midnightblue" points="256.21,-1036.58 252.75,-1026.56 249.21,-1036.55 256.21,-1036.58"/>
</g>
<!-- Node19 -->
<g id="node21" class="node">
<title>Node19</title>
<g id="a_node21"><a xlink:href="classtriton_1_1ast_1_1BvsgtNode.html" target="_top" xlink:title="(bvsgt &lt;expr1&gt; &lt;expr2&gt;) node">
<polygon fill="white" stroke="black" points="367,-1330.5 367,-1349.5 490,-1349.5 490,-1330.5 367,-1330.5"/>
<text text-anchor="middle" x="428.5" y="-1337.5" font-family="Helvetica,sans-Serif" font-size="10.00">triton::ast::BvsgtNode</text>
</a>
</g>
</g>
<!-- Node0&#45;&gt;Node19 -->
<g id="edge20" class="edge">
<title>Node0&#45;&gt;Node19</title>
<path fill="none" stroke="midnightblue" d="M253.59,-1036.89C256.29,-1090.98 271.44,-1241.92 356,-1321 360.13,-1324.86 364.95,-1327.95 370.1,-1330.43"/>
<polygon fill="midnightblue" stroke="midnightblue" points="257.07,-1036.47 253.17,-1026.62 250.08,-1036.75 257.07,-1036.47"/>
</g>
<!-- Node20 -->
<g id="node22" class="node">
<title>Node20</title>
<g id="a_node22"><a xlink:href="classtriton_1_1ast_1_1BvshlNode.html" target="_top" xlink:title="(bvshl &lt;expr1&gt; &lt;expr2&gt;) node">
<polygon fill="white" stroke="black" points="367.5,-1292.5 367.5,-1311.5 489.5,-1311.5 489.5,-1292.5 367.5,-1292.5"/>
<text text-anchor="middle" x="428.5" y="-1299.5" font-family="Helvetica,sans-Serif" font-size="10.00">triton::ast::BvshlNode</text>
</a>
</g>
</g>
<!-- Node0&#45;&gt;Node20 -->
<g id="edge21" class="edge">
<title>Node0&#45;&gt;Node20</title>
<path fill="none" stroke="midnightblue" d="M254.67,-1036.71C259.91,-1085.99 280.55,-1215.4 356,-1283 360.3,-1286.86 365.31,-1289.94 370.62,-1292.41"/>
<polygon fill="midnightblue" stroke="midnightblue" points="258.15,-1036.34 253.7,-1026.72 251.18,-1037.01 258.15,-1036.34"/>
</g>
<!-- Node21 -->
<g id="node23" class="node">
<title>Node21</title>
<g id="a_node23"><a xlink:href="classtriton_1_1ast_1_1BvsleNode.html" target="_top" xlink:title="(bvsle &lt;expr1&gt; &lt;expr2&gt;) node">
<polygon fill="white" stroke="black" points="367.5,-1254.5 367.5,-1273.5 489.5,-1273.5 489.5,-1254.5 367.5,-1254.5"/>
<text text-anchor="middle" x="428.5" y="-1261.5" font-family="Helvetica,sans-Serif" font-size="10.00">triton::ast::BvsleNode</text>
</a>
</g>
</g>
<!-- Node0&#45;&gt;Node21 -->
<g id="edge22" class="edge">
<title>Node0&#45;&gt;Node21</title>
<path fill="none" stroke="midnightblue" d="M256.05,-1036.53C264,-1080.68 289.55,-1188.68 356,-1245 360.6,-1248.9 365.93,-1252.01 371.55,-1254.49"/>
<polygon fill="midnightblue" stroke="midnightblue" points="259.48,-1035.81 254.36,-1026.53 252.58,-1036.98 259.48,-1035.81"/>
</g>
<!-- Node22 -->
<g id="node24" class="node">
<title>Node22</title>
<g id="a_node24"><a xlink:href="classtriton_1_1ast_1_1BvsltNode.html" target="_top" xlink:title="(bvslt &lt;expr1&gt; &lt;expr2&gt;) node">
<polygon fill="white" stroke="black" points="368.5,-1216.5 368.5,-1235.5 488.5,-1235.5 488.5,-1216.5 368.5,-1216.5"/>
<text text-anchor="middle" x="428.5" y="-1223.5" font-family="Helvetica,sans-Serif" font-size="10.00">triton::ast::BvsltNode</text>
</a>
</g>
</g>
<!-- Node0&#45;&gt;Node22 -->
<g id="edge23" class="edge">
<title>Node0&#45;&gt;Node22</title>
<path fill="none" stroke="midnightblue" d="M258,-1036.65C268.91,-1075.39 298.58,-1161.8 356,-1207 360.95,-1210.89 366.62,-1213.99 372.56,-1216.46"/>
<polygon fill="midnightblue" stroke="midnightblue" points="261.29,-1035.4 255.31,-1026.65 254.53,-1037.22 261.29,-1035.4"/>
</g>
<!-- Node23 -->
<g id="node25" class="node">
<title>Node23</title>
<g id="a_node25"><a xlink:href="classtriton_1_1ast_1_1BvsmodNode.html" target="_top" xlink:title="(bvsmod &lt;expr1&gt; &lt;expr2&gt;) node">
<polygon fill="white" stroke="black" points="361,-1178.5 361,-1197.5 496,-1197.5 496,-1178.5 361,-1178.5"/>
<text text-anchor="middle" x="428.5" y="-1185.5" font-family="Helvetica,sans-Serif" font-size="10.00">triton::ast::BvsmodNode</text>
</a>
</g>
</g>
<!-- Node0&#45;&gt;Node23 -->
<g id="edge24" class="edge">
<title>Node0&#45;&gt;Node23</title>
<path fill="none" stroke="midnightblue" d="M260.65,-1036.25C274.57,-1068.75 307.2,-1134.34 356,-1169 361.45,-1172.87 367.63,-1175.95 374.03,-1178.4"/>
<polygon fill="midnightblue" stroke="midnightblue" points="263.71,-1034.49 256.65,-1026.59 257.24,-1037.17 263.71,-1034.49"/>
</g>
<!-- Node24 -->
<g id="node26" class="node">
<title>Node24</title>
<g id="a_node26"><a xlink:href="classtriton_1_1ast_1_1BvsremNode.html" target="_top" xlink:title="(bvsrem &lt;expr1&gt; &lt;expr2&gt;) node">
<polygon fill="white" stroke="black" points="362,-1140.5 362,-1159.5 495,-1159.5 495,-1140.5 362,-1140.5"/>
<text text-anchor="middle" x="428.5" y="-1147.5" font-family="Helvetica,sans-Serif" font-size="10.00">triton::ast::BvsremNode</text>
</a>
</g>
</g>
<!-- Node0&#45;&gt;Node24 -->
<g id="edge25" class="edge">
<title>Node0&#45;&gt;Node24</title>
<path fill="none" stroke="midnightblue" d="M264.51,-1035.31C281.42,-1060.7 315.42,-1106.24 356,-1131 362.36,-1134.88 369.51,-1137.98 376.76,-1140.45"/>
<polygon fill="midnightblue" stroke="midnightblue" points="267.27,-1033.14 258.88,-1026.66 261.4,-1036.95 267.27,-1033.14"/>
</g>
<!-- Node25 -->
<g id="node27" class="node">
<title>Node25</title>
<g id="a_node27"><a xlink:href="classtriton_1_1ast_1_1BvsubNode.html" target="_top" xlink:title="(bvsub &lt;expr1&gt; &lt;expr2&gt;) node">
<polygon fill="white" stroke="black" points="366,-1102.5 366,-1121.5 491,-1121.5 491,-1102.5 366,-1102.5"/>
<text text-anchor="middle" x="428.5" y="-1109.5" font-family="Helvetica,sans-Serif" font-size="10.00">triton::ast::BvsubNode</text>
</a>
</g>
</g>
<!-- Node0&#45;&gt;Node25 -->
<g id="edge26" class="edge">
<title>Node0&#45;&gt;Node25</title>
<path fill="none" stroke="midnightblue" d="M270.75,-1033.4C290.27,-1050.59 323.22,-1077.26 356,-1093 363.87,-1096.78 372.61,-1099.89 381.19,-1102.43"/>
<polygon fill="midnightblue" stroke="midnightblue" points="273.03,-1030.74 263.25,-1026.67 268.36,-1035.95 273.03,-1030.74"/>
</g>
<!-- Node26 -->
<g id="node28" class="node">
<title>Node26</title>
<g id="a_node28"><a xlink:href="classtriton_1_1ast_1_1BvudivNode.html" target="_top" xlink:title="(bvudiv &lt;expr1&gt; &lt;expr2&gt;) node">
<polygon fill="white" stroke="black" points="364,-1064.5 364,-1083.5 493,-1083.5 493,-1064.5 364,-1064.5"/>
<text text-anchor="middle" x="428.5" y="-1071.5" font-family="Helvetica,sans-Serif" font-size="10.00">triton::ast::BvudivNode</text>
</a>
</g>
</g>
<!-- Node0&#45;&gt;Node26 -->
<g id="edge27" class="edge">
<title>Node0&#45;&gt;Node26</title>
<path fill="none" stroke="midnightblue" d="M286.51,-1030.27C306.52,-1037.96 332.53,-1047.57 356,-1055 366.53,-1058.33 378.06,-1061.57 388.72,-1064.4"/>
<polygon fill="midnightblue" stroke="midnightblue" points="287.51,-1026.9 276.92,-1026.55 284.98,-1033.43 287.51,-1026.9"/>
</g>
<!-- Node27 -->
<g id="node29" class="node">
<title>Node27</title>
<g id="a_node29"><a xlink:href="classtriton_1_1ast_1_1BvugeNode.html" target="_top" xlink:title="(bvuge &lt;expr1&gt; &lt;expr2&gt;) node">
<polygon fill="white" stroke="black" points="365.5,-1026.5 365.5,-1045.5 491.5,-1045.5 491.5,-1026.5 365.5,-1026.5"/>
<text text-anchor="middle" x="428.5" y="-1033.5" font-family="Helvetica,sans-Serif" font-size="10.00">triton::ast::BvugeNode</text>
</a>
</g>
</g>
<!-- Node0&#45;&gt;Node27 -->
<g id="edge28" class="edge">
<title>Node0&#45;&gt;Node27</title>
<path fill="none" stroke="midnightblue" d="M330.61,-1025.45C342.24,-1026.72 354.1,-1028.01 365.35,-1029.23"/>
<polygon fill="midnightblue" stroke="midnightblue" points="330.79,-1021.95 320.47,-1024.35 330.03,-1028.91 330.79,-1021.95"/>
</g>
<!-- Node28 -->
<g id="node30" class="node">
<title>Node28</title>
<g id="a_node30"><a xlink:href="classtriton_1_1ast_1_1BvugtNode.html" target="_top" xlink:title="(bvugt &lt;expr1&gt; &lt;expr2&gt;) node">
<polygon fill="white" stroke="black" points="366.5,-988.5 366.5,-1007.5 490.5,-1007.5 490.5,-988.5 366.5,-988.5"/>
<text text-anchor="middle" x="428.5" y="-995.5" font-family="Helvetica,sans-Serif" font-size="10.00">triton::ast::BvugtNode</text>
</a>
</g>
</g>
<!-- Node0&#45;&gt;Node28 -->
<g id="edge29" class="edge">
<title>Node0&#45;&gt;Node28</title>
<path fill="none" stroke="midnightblue" d="M330.51,-1008.56C342.56,-1007.25 354.87,-1005.91 366.49,-1004.64"/>
<polygon fill="midnightblue" stroke="midnightblue" points="330.03,-1005.09 320.47,-1009.65 330.79,-1012.05 330.03,-1005.09"/>
</g>
<!-- Node29 -->
<g id="node31" class="node">
<title>Node29</title>
<g id="a_node31"><a xlink:href="classtriton_1_1ast_1_1BvuleNode.html" target="_top" xlink:title="(bvule &lt;expr1&gt; &lt;expr2&gt;) node">
<polygon fill="white" stroke="black" points="367,-950.5 367,-969.5 490,-969.5 490,-950.5 367,-950.5"/>
<text text-anchor="middle" x="428.5" y="-957.5" font-family="Helvetica,sans-Serif" font-size="10.00">triton::ast::BvuleNode</text>
</a>
</g>
</g>
<!-- Node0&#45;&gt;Node29 -->
<g id="edge30" class="edge">
<title>Node0&#45;&gt;Node29</title>
<path fill="none" stroke="midnightblue" d="M301.77,-1004.47C307.97,-1002.5 314.18,-1000.33 320,-998 336.79,-991.27 339.15,-985.59 356,-979 365.21,-975.4 375.35,-972.25 385.02,-969.6"/>
<polygon fill="midnightblue" stroke="midnightblue" points="300.64,-1001.15 292.08,-1007.4 302.67,-1007.85 300.64,-1001.15"/>
</g>
<!-- Node30 -->
<g id="node32" class="node">
<title>Node30</title>
<g id="a_node32"><a xlink:href="classtriton_1_1ast_1_1BvultNode.html" target="_top" xlink:title="(bvult &lt;expr1&gt; &lt;expr2&gt;) node">
<polygon fill="white" stroke="black" points="368,-912.5 368,-931.5 489,-931.5 489,-912.5 368,-912.5"/>
<text text-anchor="middle" x="428.5" y="-919.5" font-family="Helvetica,sans-Serif" font-size="10.00">triton::ast::BvultNode</text>
</a>
</g>
</g>
<!-- Node0&#45;&gt;Node30 -->
<g id="edge31" class="edge">
<title>Node0&#45;&gt;Node30</title>
<path fill="none" stroke="midnightblue" d="M311.64,-1003.28C314.58,-1001.71 317.39,-999.95 320,-998 344,-980.06 331.85,-958.74 356,-941 361.28,-937.12 367.29,-934.03 373.54,-931.58"/>
<polygon fill="midnightblue" stroke="midnightblue" points="310.16,-1000.11 302.55,-1007.48 313.09,-1006.47 310.16,-1000.11"/>
</g>
<!-- Node31 -->
<g id="node33" class="node">
<title>Node31</title>
<g id="a_node33"><a xlink:href="classtriton_1_1ast_1_1BvuremNode.html" target="_top" xlink:title="(bvurem &lt;expr1&gt; &lt;expr2&gt;) node">
<polygon fill="white" stroke="black" points="361.5,-874.5 361.5,-893.5 495.5,-893.5 495.5,-874.5 361.5,-874.5"/>
<text text-anchor="middle" x="428.5" y="-881.5" font-family="Helvetica,sans-Serif" font-size="10.00">triton::ast::BvuremNode</text>
</a>
</g>
</g>
<!-- Node0&#45;&gt;Node31 -->
<g id="edge32" class="edge">
<title>Node0&#45;&gt;Node31</title>
<path fill="none" stroke="midnightblue" d="M314.57,-1002.31C316.48,-1000.99 318.3,-999.56 320,-998 353.27,-967.47 322.48,-933.25 356,-903 360.29,-899.13 365.28,-896.03 370.6,-893.55"/>
<polygon fill="midnightblue" stroke="midnightblue" points="312.64,-999.38 305.68,-1007.37 316.1,-1005.46 312.64,-999.38"/>
</g>
<!-- Node32 -->
<g id="node34" class="node">
<title>Node32</title>
<g id="a_node34"><a xlink:href="classtriton_1_1ast_1_1BvxnorNode.html" target="_top" xlink:title="(bvxnor &lt;expr1&gt; &lt;expr2&gt;) node">
<polygon fill="white" stroke="black" points="363.5,-836.5 363.5,-855.5 493.5,-855.5 493.5,-836.5 363.5,-836.5"/>
<text text-anchor="middle" x="428.5" y="-843.5" font-family="Helvetica,sans-Serif" font-size="10.00">triton::ast::BvxnorNode</text>
</a>
</g>
</g>
<!-- Node0&#45;&gt;Node32 -->
<g id="edge33" class="edge">
<title>Node0&#45;&gt;Node32</title>
<path fill="none" stroke="midnightblue" d="M315.41,-1002.04C317.03,-1000.79 318.57,-999.45 320,-998 363.04,-954.44 312.6,-908.2 356,-865 359.82,-861.19 364.32,-858.13 369.16,-855.66"/>
<polygon fill="midnightblue" stroke="midnightblue" points="313.36,-999.19 306.72,-1007.44 317.06,-1005.13 313.36,-999.19"/>
</g>
<!-- Node33 -->
<g id="node35" class="node">
<title>Node33</title>
<g id="a_node35"><a xlink:href="classtriton_1_1ast_1_1BvxorNode.html" target="_top" xlink:title="(bvxor &lt;expr1&gt; &lt;expr2&gt;) node">
<polygon fill="white" stroke="black" points="367,-798.5 367,-817.5 490,-817.5 490,-798.5 367,-798.5"/>
<text text-anchor="middle" x="428.5" y="-805.5" font-family="Helvetica,sans-Serif" font-size="10.00">triton::ast::BvxorNode</text>
</a>
</g>
</g>
<!-- Node0&#45;&gt;Node33 -->
<g id="edge34" class="edge">
<title>Node0&#45;&gt;Node33</title>
<path fill="none" stroke="midnightblue" d="M316.01,-1001.74C317.42,-1000.58 318.75,-999.34 320,-998 373,-941.22 302.53,-883.33 356,-827 359.63,-823.18 363.92,-820.1 368.59,-817.61"/>
<polygon fill="midnightblue" stroke="midnightblue" points="313.7,-999.07 307.27,-1007.49 317.55,-1004.92 313.7,-999.07"/>
</g>
<!-- Node35 -->
<g id="node36" class="node">
<title>Node35</title>
<g id="a_node36"><a xlink:href="classtriton_1_1ast_1_1ConcatNode.html" target="_top" xlink:title="(concat &lt;expr1&gt; &lt;expr2&gt; ...) node">
<polygon fill="white" stroke="black" points="364,-760.5 364,-779.5 493,-779.5 493,-760.5 364,-760.5"/>
<text text-anchor="middle" x="428.5" y="-767.5" font-family="Helvetica,sans-Serif" font-size="10.00">triton::ast::ConcatNode</text>
</a>
</g>
</g>
<!-- Node0&#45;&gt;Node35 -->
<g id="edge36" class="edge">
<title>Node0&#45;&gt;Node35</title>
<path fill="none" stroke="midnightblue" d="M316.17,-1001.72C317.52,-1000.57 318.8,-999.33 320,-998 383.03,-927.92 292.39,-858.55 356,-789 359.47,-785.21 363.6,-782.14 368.1,-779.66"/>
<polygon fill="midnightblue" stroke="midnightblue" points="314.04,-998.94 307.74,-1007.46 317.98,-1004.73 314.04,-998.94"/>
</g>
<!-- Node36 -->
<g id="node37" class="node">
<title>Node36</title>
<g id="a_node37"><a xlink:href="classtriton_1_1ast_1_1DeclareNode.html" target="_top" xlink:title="(declare&#45;fun &lt;var_name&gt; () (_ BitVec &lt;var_size&gt;)) node">
<polygon fill="white" stroke="black" points="362,-722.5 362,-741.5 495,-741.5 495,-722.5 362,-722.5"/>
<text text-anchor="middle" x="428.5" y="-729.5" font-family="Helvetica,sans-Serif" font-size="10.00">triton::ast::DeclareNode</text>
</a>
</g>
</g>
<!-- Node0&#45;&gt;Node36 -->
<g id="edge37" class="edge">
<title>Node0&#45;&gt;Node36</title>
<path fill="none" stroke="midnightblue" d="M316.67,-1001.37C317.84,-1000.31 318.95,-999.19 320,-998 393.12,-914.57 282.19,-833.82 356,-751 359.42,-747.16 363.51,-744.06 367.99,-741.56"/>
<polygon fill="midnightblue" stroke="midnightblue" points="314.31,-998.74 308.17,-1007.37 318.35,-1004.46 314.31,-998.74"/>
</g>
<!-- Node37 -->
<g id="node38" class="node">
<title>Node37</title>
<g id="a_node38"><a xlink:href="classtriton_1_1ast_1_1DistinctNode.html" target="_top" xlink:title="(distinct &lt;expr1&gt; &lt;expr2&gt; ...) node">
<polygon fill="white" stroke="black" points="362,-684.5 362,-703.5 495,-703.5 495,-684.5 362,-684.5"/>
<text text-anchor="middle" x="428.5" y="-691.5" font-family="Helvetica,sans-Serif" font-size="10.00">triton::ast::DistinctNode</text>
</a>
</g>
</g>
<!-- Node0&#45;&gt;Node37 -->
<g id="edge38" class="edge">
<title>Node0&#45;&gt;Node37</title>
<path fill="none" stroke="midnightblue" d="M316.7,-1001.39C317.86,-1000.33 318.97,-999.2 320,-998 403.23,-901.18 271.97,-809.12 356,-713 359.3,-709.23 363.25,-706.17 367.58,-703.68"/>
<polygon fill="midnightblue" stroke="midnightblue" points="314.34,-998.78 308.24,-1007.44 318.41,-1004.47 314.34,-998.78"/>
</g>
<!-- Node38 -->
<g id="node39" class="node">
<title>Node38</title>
<g id="a_node39"><a xlink:href="classtriton_1_1ast_1_1EqualNode.html" target="_top" xlink:title="(= &lt;expr1&gt; &lt;expr2&gt; ...) node">
<polygon fill="white" stroke="black" points="367.5,-646.5 367.5,-665.5 489.5,-665.5 489.5,-646.5 367.5,-646.5"/>
<text text-anchor="middle" x="428.5" y="-653.5" font-family="Helvetica,sans-Serif" font-size="10.00">triton::ast::EqualNode</text>
</a>
</g>
</g>
<!-- Node0&#45;&gt;Node38 -->
<g id="edge39" class="edge">
<title>Node0&#45;&gt;Node38</title>
<path fill="none" stroke="midnightblue" d="M316.72,-1001.41C317.88,-1000.35 318.97,-999.21 320,-998 413.36,-887.78 261.73,-784.44 356,-675 359.27,-671.2 363.2,-668.12 367.52,-665.63"/>
<polygon fill="midnightblue" stroke="midnightblue" points="314.36,-998.8 308.3,-1007.49 318.46,-1004.48 314.36,-998.8"/>
</g>
<!-- Node39 -->
<g id="node40" class="node">
<title>Node39</title>
<g id="a_node40"><a xlink:href="classtriton_1_1ast_1_1ExtractNode.html" target="_top" xlink:title="((_ extract &lt;high&gt; &lt;low&gt;) &lt;expr&gt;) node">
<polygon fill="white" stroke="black" points="363.5,-608.5 363.5,-627.5 493.5,-627.5 493.5,-608.5 363.5,-608.5"/>
<text text-anchor="middle" x="428.5" y="-615.5" font-family="Helvetica,sans-Serif" font-size="10.00">triton::ast::ExtractNode</text>
</a>
</g>
</g>
<!-- Node0&#45;&gt;Node39 -->
<g id="edge40" class="edge">
<title>Node0&#45;&gt;Node39</title>
<path fill="none" stroke="midnightblue" d="M316.82,-1001.35C317.94,-1000.3 319.01,-999.19 320,-998 423.49,-874.36 251.48,-759.78 356,-637 359.25,-633.19 363.16,-630.09 367.47,-627.59"/>
<polygon fill="midnightblue" stroke="midnightblue" points="314.65,-998.61 308.66,-1007.35 318.79,-1004.25 314.65,-998.61"/>
</g>
<!-- Node40 -->
<g id="node41" class="node">
<title>Node40</title>
<g id="a_node41"><a xlink:href="classtriton_1_1ast_1_1ForallNode.html" target="_top" xlink:title="(forall ((x (_ BitVec &lt;size&gt;)), ...) body)">
<polygon fill="white" stroke="black" points="367.5,-570.5 367.5,-589.5 489.5,-589.5 489.5,-570.5 367.5,-570.5"/>
<text text-anchor="middle" x="428.5" y="-577.5" font-family="Helvetica,sans-Serif" font-size="10.00">triton::ast::ForallNode</text>
</a>
</g>
</g>
<!-- Node0&#45;&gt;Node40 -->
<g id="edge41" class="edge">
<title>Node0&#45;&gt;Node40</title>
<path fill="none" stroke="midnightblue" d="M316.84,-1001.37C317.95,-1000.31 319.01,-999.19 320,-998 376.82,-929.46 298.61,-667.06 356,-599 359.23,-595.17 363.13,-592.07 367.43,-589.56"/>
<polygon fill="midnightblue" stroke="midnightblue" points="314.66,-998.62 308.7,-1007.38 318.82,-1004.25 314.66,-998.62"/>
</g>
<!-- Node41 -->
<g id="node42" class="node">
<title>Node41</title>
<g id="a_node42"><a xlink:href="classtriton_1_1ast_1_1IffNode.html" target="_top" xlink:title="(iff &lt;expr1&gt; &lt;expr2&gt;)">
<polygon fill="white" stroke="black" points="376,-532.5 376,-551.5 481,-551.5 481,-532.5 376,-532.5"/>
<text text-anchor="middle" x="428.5" y="-539.5" font-family="Helvetica,sans-Serif" font-size="10.00">triton::ast::IffNode</text>
</a>
</g>
</g>
<!-- Node0&#45;&gt;Node41 -->
<g id="edge42" class="edge">
<title>Node0&#45;&gt;Node41</title>
<path fill="none" stroke="midnightblue" d="M316.85,-1001.38C317.96,-1000.32 319.02,-999.2 320,-998 381.9,-922.75 293.48,-635.74 356,-561 361.19,-554.79 368.16,-550.49 375.71,-547.53"/>
<polygon fill="midnightblue" stroke="midnightblue" points="314.67,-998.63 308.73,-1007.41 318.85,-1004.25 314.67,-998.63"/>
</g>
<!-- Node42 -->
<g id="node43" class="node">
<title>Node42</title>
<g id="a_node43"><a xlink:href="classtriton_1_1ast_1_1IntegerNode.html" target="_top" xlink:title="Integer node.">
<polygon fill="white" stroke="black" points="363.5,-494.5 363.5,-513.5 493.5,-513.5 493.5,-494.5 363.5,-494.5"/>
<text text-anchor="middle" x="428.5" y="-501.5" font-family="Helvetica,sans-Serif" font-size="10.00">triton::ast::IntegerNode</text>
</a>
</g>
</g>
<!-- Node0&#45;&gt;Node42 -->
<g id="edge43" class="edge">
<title>Node0&#45;&gt;Node42</title>
<path fill="none" stroke="midnightblue" d="M316.86,-1001.39C317.97,-1000.33 319.02,-999.2 320,-998 386.98,-916.03 288.34,-604.42 356,-523 359.2,-519.15 363.09,-516.03 367.37,-513.51"/>
<polygon fill="midnightblue" stroke="midnightblue" points="314.68,-998.64 308.76,-1007.43 318.87,-1004.26 314.68,-998.64"/>
</g>
<!-- Node43 -->
<g id="node44" class="node">
<title>Node43</title>
<g id="a_node44"><a xlink:href="classtriton_1_1ast_1_1IteNode.html" target="_top" xlink:title="(ite &lt;ifExpr&gt; &lt;thenExpr&gt; &lt;elseExpr&gt;)">
<polygon fill="white" stroke="black" points="374.5,-456.5 374.5,-475.5 482.5,-475.5 482.5,-456.5 374.5,-456.5"/>
<text text-anchor="middle" x="428.5" y="-463.5" font-family="Helvetica,sans-Serif" font-size="10.00">triton::ast::IteNode</text>
</a>
</g>
</g>
<!-- Node0&#45;&gt;Node43 -->
<g id="edge44" class="edge">
<title>Node0&#45;&gt;Node43</title>
<path fill="none" stroke="midnightblue" d="M316.87,-1001.39C317.98,-1000.33 319.02,-999.2 320,-998 392.06,-909.3 283.21,-573.1 356,-485 360.83,-479.16 367.23,-475 374.22,-472.06"/>
<polygon fill="midnightblue" stroke="midnightblue" points="314.69,-998.65 308.78,-1007.45 318.88,-1004.26 314.69,-998.65"/>
</g>
<!-- Node44 -->
<g id="node45" class="node">
<title>Node44</title>
<g id="a_node45"><a xlink:href="classtriton_1_1ast_1_1LandNode.html" target="_top" xlink:title="(and &lt;expr1&gt; &lt;expr2&gt;)">
<polygon fill="white" stroke="black" points="369,-418.5 369,-437.5 488,-437.5 488,-418.5 369,-418.5"/>
<text text-anchor="middle" x="428.5" y="-425.5" font-family="Helvetica,sans-Serif" font-size="10.00">triton::ast::LandNode</text>
</a>
</g>
</g>
<!-- Node0&#45;&gt;Node44 -->
<g id="edge45" class="edge">
<title>Node0&#45;&gt;Node44</title>
<path fill="none" stroke="midnightblue" d="M316.88,-1001.4C317.98,-1000.34 319.03,-999.2 320,-998 397.14,-902.58 278.07,-541.78 356,-447 359.59,-442.63 364.06,-439.21 368.99,-436.53"/>
<polygon fill="midnightblue" stroke="midnightblue" points="314.7,-998.66 308.8,-1007.46 318.9,-1004.26 314.7,-998.66"/>
</g>
<!-- Node45 -->
<g id="node46" class="node">
<title>Node45</title>
<g id="a_node46"><a xlink:href="classtriton_1_1ast_1_1LetNode.html" target="_top" xlink:title="(let ((&lt;alias&gt; &lt;expr2&gt;)) &lt;expr3&gt;)">
<polygon fill="white" stroke="black" points="373.5,-380.5 373.5,-399.5 483.5,-399.5 483.5,-380.5 373.5,-380.5"/>
<text text-anchor="middle" x="428.5" y="-387.5" font-family="Helvetica,sans-Serif" font-size="10.00">triton::ast::LetNode</text>
</a>
</g>
</g>
<!-- Node0&#45;&gt;Node45 -->
<g id="edge46" class="edge">
<title>Node0&#45;&gt;Node45</title>
<path fill="none" stroke="midnightblue" d="M316.88,-1001.4C317.99,-1000.34 319.03,-999.21 320,-998 402.23,-895.85 272.93,-510.46 356,-409 360.64,-403.34 366.76,-399.25 373.46,-396.32"/>
<polygon fill="midnightblue" stroke="midnightblue" points="314.7,-998.67 308.82,-1007.48 318.91,-1004.26 314.7,-998.67"/>
</g>
<!-- Node46 -->
<g id="node47" class="node">
<title>Node46</title>
<g id="a_node47"><a xlink:href="classtriton_1_1ast_1_1LnotNode.html" target="_top" xlink:title="(lnot &lt;expr&gt;)">
<polygon fill="white" stroke="black" points="370.5,-342.5 370.5,-361.5 486.5,-361.5 486.5,-342.5 370.5,-342.5"/>
<text text-anchor="middle" x="428.5" y="-349.5" font-family="Helvetica,sans-Serif" font-size="10.00">triton::ast::LnotNode</text>
</a>
</g>
</g>
<!-- Node0&#45;&gt;Node46 -->
<g id="edge47" class="edge">
<title>Node0&#45;&gt;Node46</title>
<path fill="none" stroke="midnightblue" d="M316.89,-1001.41C317.99,-1000.34 319.03,-999.21 320,-998 407.31,-889.12 267.79,-479.15 356,-371 359.9,-366.22 364.85,-362.57 370.32,-359.78"/>
<polygon fill="midnightblue" stroke="midnightblue" points="314.71,-998.67 308.83,-1007.49 318.92,-1004.26 314.71,-998.67"/>
</g>
<!-- Node47 -->
<g id="node48" class="node">
<title>Node47</title>
<g id="a_node48"><a xlink:href="classtriton_1_1ast_1_1LorNode.html" target="_top" xlink:title="(or &lt;expr1&gt; &lt;expr2&gt;)">
<polygon fill="white" stroke="black" points="373.5,-304.5 373.5,-323.5 483.5,-323.5 483.5,-304.5 373.5,-304.5"/>
<text text-anchor="middle" x="428.5" y="-311.5" font-family="Helvetica,sans-Serif" font-size="10.00">triton::ast::LorNode</text>
</a>
</g>
</g>
<!-- Node0&#45;&gt;Node47 -->
<g id="edge48" class="edge">
<title>Node0&#45;&gt;Node47</title>
<path fill="none" stroke="midnightblue" d="M316.9,-1001.41C317.99,-1000.35 319.03,-999.21 320,-998 412.4,-882.39 262.65,-447.84 356,-333 360.62,-327.32 366.72,-323.23 373.43,-320.3"/>
<polygon fill="midnightblue" stroke="midnightblue" points="314.71,-998.68 308.85,-1007.5 318.93,-1004.26 314.71,-998.68"/>
</g>
<!-- Node48 -->
<g id="node49" class="node">
<title>Node48</title>
<g id="a_node49"><a xlink:href="classtriton_1_1ast_1_1LxorNode.html" target="_top" xlink:title="(xor &lt;expr1&gt; &lt;expr2&gt;)">
<polygon fill="white" stroke="black" points="370.5,-266.5 370.5,-285.5 486.5,-285.5 486.5,-266.5 370.5,-266.5"/>
<text text-anchor="middle" x="428.5" y="-273.5" font-family="Helvetica,sans-Serif" font-size="10.00">triton::ast::LxorNode</text>
</a>
</g>
</g>
<!-- Node0&#45;&gt;Node48 -->
<g id="edge49" class="edge">
<title>Node0&#45;&gt;Node48</title>
<path fill="none" stroke="midnightblue" d="M317.3,-1001.02C318.25,-1000.07 319.15,-999.06 320,-998 417.48,-875.66 257.5,-416.52 356,-295 359.88,-290.21 364.82,-286.55 370.29,-283.76"/>
<polygon fill="midnightblue" stroke="midnightblue" points="314.93,-998.43 309.17,-1007.32 319.22,-1003.97 314.93,-998.43"/>
</g>
<!-- Node49 -->
<g id="node50" class="node">
<title>Node49</title>
<g id="a_node50"><a xlink:href="classtriton_1_1ast_1_1ReferenceNode.html" target="_top" xlink:title="Reference node.">
<polygon fill="white" stroke="black" points="356,-228.5 356,-247.5 501,-247.5 501,-228.5 356,-228.5"/>
<text text-anchor="middle" x="428.5" y="-235.5" font-family="Helvetica,sans-Serif" font-size="10.00">triton::ast::ReferenceNode</text>
</a>
</g>
</g>
<!-- Node0&#45;&gt;Node49 -->
<g id="edge50" class="edge">
<title>Node0&#45;&gt;Node49</title>
<path fill="none" stroke="midnightblue" d="M317.3,-1001.03C318.25,-1000.07 319.15,-999.06 320,-998 422.57,-868.93 252.36,-385.21 356,-257 359.07,-253.2 362.8,-250.12 366.93,-247.61"/>
<polygon fill="midnightblue" stroke="midnightblue" points="314.93,-998.44 309.18,-1007.33 319.22,-1003.97 314.93,-998.44"/>
</g>
<!-- Node50 -->
<g id="node51" class="node">
<title>Node50</title>
<g id="a_node51"><a xlink:href="classtriton_1_1ast_1_1SelectNode.html" target="_top" xlink:title="(select array index)">
<polygon fill="white" stroke="black" points="366,-190.5 366,-209.5 491,-209.5 491,-190.5 366,-190.5"/>
<text text-anchor="middle" x="428.5" y="-197.5" font-family="Helvetica,sans-Serif" font-size="10.00">triton::ast::SelectNode</text>
</a>
</g>
</g>
<!-- Node0&#45;&gt;Node50 -->
<g id="edge51" class="edge">
<title>Node0&#45;&gt;Node50</title>
<path fill="none" stroke="midnightblue" d="M317.31,-1001.03C318.25,-1000.07 319.15,-999.07 320,-998 373.83,-930.1 301.61,-286.45 356,-219 359.06,-215.2 362.79,-212.11 366.92,-209.6"/>
<polygon fill="midnightblue" stroke="midnightblue" points="314.93,-998.44 309.19,-1007.34 319.23,-1003.97 314.93,-998.44"/>
</g>
<!-- Node51 -->
<g id="node52" class="node">
<title>Node51</title>
<g id="a_node52"><a xlink:href="classtriton_1_1ast_1_1StoreNode.html" target="_top" xlink:title="(store array index expr)">
<polygon fill="white" stroke="black" points="368,-152.5 368,-171.5 489,-171.5 489,-152.5 368,-152.5"/>
<text text-anchor="middle" x="428.5" y="-159.5" font-family="Helvetica,sans-Serif" font-size="10.00">triton::ast::StoreNode</text>
</a>
</g>
</g>
<!-- Node0&#45;&gt;Node51 -->
<g id="edge52" class="edge">
<title>Node0&#45;&gt;Node51</title>
<path fill="none" stroke="midnightblue" d="M317.31,-1001.03C318.26,-1000.08 319.16,-999.07 320,-998 376.37,-926.74 299.04,-251.79 356,-181 359.3,-176.9 363.38,-173.62 367.9,-171.01"/>
<polygon fill="midnightblue" stroke="midnightblue" points="314.94,-998.44 309.2,-1007.35 319.24,-1003.97 314.94,-998.44"/>
</g>
<!-- Node52 -->
<g id="node53" class="node">
<title>Node52</title>
<g id="a_node53"><a xlink:href="classtriton_1_1ast_1_1StringNode.html" target="_top" xlink:title="String node.">
<polygon fill="white" stroke="black" points="366.5,-114.5 366.5,-133.5 490.5,-133.5 490.5,-114.5 366.5,-114.5"/>
<text text-anchor="middle" x="428.5" y="-121.5" font-family="Helvetica,sans-Serif" font-size="10.00">triton::ast::StringNode</text>
</a>
</g>
</g>
<!-- Node0&#45;&gt;Node52 -->
<g id="edge53" class="edge">
<title>Node0&#45;&gt;Node52</title>
<path fill="none" stroke="midnightblue" d="M317.31,-1001.03C318.26,-1000.08 319.16,-999.07 320,-998 378.92,-923.37 296.47,-217.14 356,-143 359.06,-139.19 362.78,-136.1 366.91,-133.59"/>
<polygon fill="midnightblue" stroke="midnightblue" points="314.94,-998.45 309.2,-1007.35 319.24,-1003.97 314.94,-998.45"/>
</g>
<!-- Node53 -->
<g id="node54" class="node">
<title>Node53</title>
<g id="a_node54"><a xlink:href="classtriton_1_1ast_1_1SxNode.html" target="_top" xlink:title="((_ sign_extend sizeExt) &lt;expr&gt;) node">
<polygon fill="white" stroke="black" points="375,-76.5 375,-95.5 482,-95.5 482,-76.5 375,-76.5"/>
<text text-anchor="middle" x="428.5" y="-83.5" font-family="Helvetica,sans-Serif" font-size="10.00">triton::ast::SxNode</text>
</a>
</g>
</g>
<!-- Node0&#45;&gt;Node53 -->
<g id="edge54" class="edge">
<title>Node0&#45;&gt;Node53</title>
<path fill="none" stroke="midnightblue" d="M317.31,-1001.04C318.26,-1000.08 319.16,-999.07 320,-998 381.46,-920 293.89,-182.48 356,-105 360.9,-98.89 367.52,-94.61 374.77,-91.64"/>
<polygon fill="midnightblue" stroke="midnightblue" points="314.94,-998.45 309.21,-1007.36 319.25,-1003.97 314.94,-998.45"/>
</g>
<!-- Node54 -->
<g id="node55" class="node">
<title>Node54</title>
<g id="a_node55"><a xlink:href="classtriton_1_1ast_1_1VariableNode.html" target="_top" xlink:title="Variable node.">
<polygon fill="white" stroke="black" points="361,-38.5 361,-57.5 496,-57.5 496,-38.5 361,-38.5"/>
<text text-anchor="middle" x="428.5" y="-45.5" font-family="Helvetica,sans-Serif" font-size="10.00">triton::ast::VariableNode</text>
</a>
</g>
</g>
<!-- Node0&#45;&gt;Node54 -->
<g id="edge55" class="edge">
<title>Node0&#45;&gt;Node54</title>
<path fill="none" stroke="midnightblue" d="M317.32,-1001.04C318.26,-1000.08 319.16,-999.07 320,-998 384.01,-916.64 291.32,-147.83 356,-67 359.05,-63.19 362.77,-60.09 366.89,-57.58"/>
<polygon fill="midnightblue" stroke="midnightblue" points="314.94,-998.45 309.22,-1007.36 319.25,-1003.97 314.94,-998.45"/>
</g>
<!-- Node55 -->
<g id="node56" class="node">
<title>Node55</title>
<g id="a_node56"><a xlink:href="classtriton_1_1ast_1_1ZxNode.html" target="_top" xlink:title="((_ zero_extend sizeExt) &lt;expr&gt;) node">
<polygon fill="white" stroke="black" points="374.5,-0.5 374.5,-19.5 482.5,-19.5 482.5,-0.5 374.5,-0.5"/>
<text text-anchor="middle" x="428.5" y="-7.5" font-family="Helvetica,sans-Serif" font-size="10.00">triton::ast::ZxNode</text>
</a>
</g>
</g>
<!-- Node0&#45;&gt;Node55 -->
<g id="edge56" class="edge">
<title>Node0&#45;&gt;Node55</title>
<path fill="none" stroke="midnightblue" d="M317.32,-1001.04C318.26,-1000.08 319.16,-999.07 320,-998 386.55,-913.27 288.75,-113.17 356,-29 360.81,-22.98 367.29,-18.74 374.4,-15.77"/>
<polygon fill="midnightblue" stroke="midnightblue" points="314.95,-998.45 309.22,-1007.37 319.26,-1003.97 314.95,-998.45"/>
</g>
</g>
</svg>
