<?xml version="1.0" encoding="UTF-8" standalone="no"?>
<!DOCTYPE svg PUBLIC "-//W3C//DTD SVG 1.1//EN"
 "http://www.w3.org/Graphics/SVG/1.1/DTD/svg11.dtd">
<!-- Generated by graphviz version 2.50.0 (20211204.2007)
 -->
<!-- Title: Graphical Class Hierarchy Pages: 1 -->
<svg width="473pt" height="2080pt"
 viewBox="0.00 0.00 473.00 2080.00" xmlns="http://www.w3.org/2000/svg" xmlns:xlink="http://www.w3.org/1999/xlink">
<g id="graph0" class="graph" transform="scale(1 1) rotate(0) translate(4 2076)">
<title>Graphical Class Hierarchy</title>
<polygon fill="white" stroke="transparent" points="-4,4 -4,-2076 469,-2076 469,4 -4,4"/>
<!-- Node0 -->
<g id="node1" class="node">
<title>Node0</title>
<g id="a_node1"><a xlink:title=" ">
<polygon fill="white" stroke="#bfbfbf" points="0,-1002 0,-1032 109,-1032 109,-1002 0,-1002"/>
<text text-anchor="start" x="8" y="-1020" font-family="Helvetica,sans-Serif" font-size="10.00">std::enable_shared</text>
<text text-anchor="middle" x="54.5" y="-1009" font-family="Helvetica,sans-Serif" font-size="10.00">_from_this</text>
</a>
</g>
</g>
<!-- Node1 -->
<g id="node2" class="node">
<title>Node1</title>
<g id="a_node2"><a xlink:href="classtriton_1_1ast_1_1AbstractNode.html" target="_top" xlink:title="Abstract node.">
<polygon fill="white" stroke="black" points="145,-1026.5 145,-1045.5 281,-1045.5 281,-1026.5 145,-1026.5"/>
<text text-anchor="middle" x="213" y="-1033.5" font-family="Helvetica,sans-Serif" font-size="10.00">triton::ast::AbstractNode</text>
</a>
</g>
</g>
<!-- Node0&#45;&gt;Node1 -->
<g id="edge1" class="edge">
<title>Node0&#45;&gt;Node1</title>
<path fill="none" stroke="midnightblue" d="M119.42,-1024.76C127.77,-1025.77 136.36,-1026.82 144.77,-1027.84"/>
<polygon fill="midnightblue" stroke="midnightblue" points="119.71,-1021.27 109.36,-1023.54 118.86,-1028.22 119.71,-1021.27"/>
</g>
<!-- Node57 -->
<g id="node58" class="node">
<title>Node57</title>
<g id="a_node58"><a xlink:href="classtriton_1_1ast_1_1AstContext.html" target="_top" xlink:title="AST Context &#45; Used as AST builder.">
<polygon fill="white" stroke="black" points="151,-988.5 151,-1007.5 275,-1007.5 275,-988.5 151,-988.5"/>
<text text-anchor="middle" x="213" y="-995.5" font-family="Helvetica,sans-Serif" font-size="10.00">triton::ast::AstContext</text>
</a>
</g>
</g>
<!-- Node0&#45;&gt;Node57 -->
<g id="edge57" class="edge">
<title>Node0&#45;&gt;Node57</title>
<path fill="none" stroke="midnightblue" d="M119.54,-1009.23C129.87,-1007.97 140.53,-1006.68 150.79,-1005.43"/>
<polygon fill="midnightblue" stroke="midnightblue" points="118.86,-1005.78 109.36,-1010.46 119.71,-1012.73 118.86,-1005.78"/>
</g>
<!-- Node2 -->
<g id="node3" class="node">
<title>Node2</title>
<g id="a_node3"><a xlink:href="classtriton_1_1ast_1_1ArrayNode.html" target="_top" xlink:title="(Array (_ BitVec indexSize) (_ BitVec 8)) node">
<polygon fill="white" stroke="black" points="330,-2052.5 330,-2071.5 452,-2071.5 452,-2052.5 330,-2052.5"/>
<text text-anchor="middle" x="391" y="-2059.5" font-family="Helvetica,sans-Serif" font-size="10.00">triton::ast::ArrayNode</text>
</a>
</g>
</g>
<!-- Node1&#45;&gt;Node2 -->
<g id="edge2" class="edge">
<title>Node1&#45;&gt;Node2</title>
<path fill="none" stroke="midnightblue" d="M214.69,-1055.84C219.52,-1190.29 250.15,-1965.08 317,-2043 320.58,-2047.17 324.95,-2050.49 329.76,-2053.12"/>
<polygon fill="midnightblue" stroke="midnightblue" points="218.18,-1055.62 214.33,-1045.75 211.19,-1055.86 218.18,-1055.62"/>
</g>
<!-- Node3 -->
<g id="node4" class="node">
<title>Node3</title>
<g id="a_node4"><a xlink:href="classtriton_1_1ast_1_1AssertNode.html" target="_top" xlink:title="(assert &lt;expr&gt;) node">
<polygon fill="white" stroke="black" points="328,-2014.5 328,-2033.5 454,-2033.5 454,-2014.5 328,-2014.5"/>
<text text-anchor="middle" x="391" y="-2021.5" font-family="Helvetica,sans-Serif" font-size="10.00">triton::ast::AssertNode</text>
</a>
</g>
</g>
<!-- Node1&#45;&gt;Node3 -->
<g id="edge3" class="edge">
<title>Node1&#45;&gt;Node3</title>
<path fill="none" stroke="midnightblue" d="M214.77,-1055.89C220.06,-1187.53 252.63,-1930.27 317,-2005 320.25,-2008.77 324.14,-2011.84 328.41,-2014.33"/>
<polygon fill="midnightblue" stroke="midnightblue" points="218.26,-1055.53 214.37,-1045.68 211.27,-1055.81 218.26,-1055.53"/>
</g>
<!-- Node4 -->
<g id="node5" class="node">
<title>Node4</title>
<g id="a_node5"><a xlink:href="classtriton_1_1ast_1_1BswapNode.html" target="_top" xlink:title="(bswap &lt;expr&gt;) node">
<polygon fill="white" stroke="black" points="327,-1976.5 327,-1995.5 455,-1995.5 455,-1976.5 327,-1976.5"/>
<text text-anchor="middle" x="391" y="-1983.5" font-family="Helvetica,sans-Serif" font-size="10.00">triton::ast::BswapNode</text>
</a>
</g>
</g>
<!-- Node1&#45;&gt;Node4 -->
<g id="edge4" class="edge">
<title>Node1&#45;&gt;Node4</title>
<path fill="none" stroke="midnightblue" d="M214.86,-1055.9C220.62,-1184.53 255.1,-1895.44 317,-1967 320.26,-1970.76 324.15,-1973.83 328.43,-1976.32"/>
<polygon fill="midnightblue" stroke="midnightblue" points="218.35,-1055.43 214.41,-1045.59 211.35,-1055.74 218.35,-1055.43"/>
</g>
<!-- Node5 -->
<g id="node6" class="node">
<title>Node5</title>
<g id="a_node6"><a xlink:href="classtriton_1_1ast_1_1BvNode.html" target="_top" xlink:title="(_ bv&lt;value&gt; &lt;size&gt;) node">
<polygon fill="white" stroke="black" points="337,-1938.5 337,-1957.5 445,-1957.5 445,-1938.5 337,-1938.5"/>
<text text-anchor="middle" x="391" y="-1945.5" font-family="Helvetica,sans-Serif" font-size="10.00">triton::ast::BvNode</text>
</a>
</g>
</g>
<!-- Node1&#45;&gt;Node5 -->
<g id="edge5" class="edge">
<title>Node1&#45;&gt;Node5</title>
<path fill="none" stroke="midnightblue" d="M214.96,-1055.87C221.2,-1181.32 257.56,-1860.61 317,-1929 322.33,-1935.13 329.35,-1939.4 336.95,-1942.36"/>
<polygon fill="midnightblue" stroke="midnightblue" points="218.45,-1055.59 214.46,-1045.77 211.46,-1055.93 218.45,-1055.59"/>
</g>
<!-- Node6 -->
<g id="node7" class="node">
<title>Node6</title>
<g id="a_node7"><a xlink:href="classtriton_1_1ast_1_1BvaddNode.html" target="_top" xlink:title="(bvadd &lt;expr1&gt; &lt;expr2&gt;) node">
<polygon fill="white" stroke="black" points="328,-1900.5 328,-1919.5 454,-1919.5 454,-1900.5 328,-1900.5"/>
<text text-anchor="middle" x="391" y="-1907.5" font-family="Helvetica,sans-Serif" font-size="10.00">triton::ast::BvaddNode</text>
</a>
</g>
</g>
<!-- Node1&#45;&gt;Node6 -->
<g id="edge6" class="edge">
<title>Node1&#45;&gt;Node6</title>
<path fill="none" stroke="midnightblue" d="M215.06,-1055.77C221.78,-1177.82 260,-1825.76 317,-1891 320.36,-1894.85 324.39,-1897.96 328.81,-1900.48"/>
<polygon fill="midnightblue" stroke="midnightblue" points="218.55,-1055.43 214.51,-1045.64 211.56,-1055.81 218.55,-1055.43"/>
</g>
<!-- Node7 -->
<g id="node8" class="node">
<title>Node7</title>
<g id="a_node8"><a xlink:href="classtriton_1_1ast_1_1BvandNode.html" target="_top" xlink:title="(bvand &lt;expr1&gt; &lt;expr2&gt;) node">
<polygon fill="white" stroke="black" points="328,-1862.5 328,-1881.5 454,-1881.5 454,-1862.5 328,-1862.5"/>
<text text-anchor="middle" x="391" y="-1869.5" font-family="Helvetica,sans-Serif" font-size="10.00">triton::ast::BvandNode</text>
</a>
</g>
</g>
<!-- Node1&#45;&gt;Node7 -->
<g id="edge7" class="edge">
<title>Node1&#45;&gt;Node7</title>
<path fill="none" stroke="midnightblue" d="M213.61,-1055.95C211.82,-1169.09 208.56,-1729.56 317,-1853 320.37,-1856.84 324.41,-1859.95 328.83,-1862.46"/>
<polygon fill="midnightblue" stroke="midnightblue" points="217.12,-1055.71 213.79,-1045.65 210.12,-1055.59 217.12,-1055.71"/>
</g>
<!-- Node8 -->
<g id="node9" class="node">
<title>Node8</title>
<g id="a_node9"><a xlink:href="classtriton_1_1ast_1_1BvashrNode.html" target="_top" xlink:title="(bvashr &lt;expr1&gt; &lt;expr2&gt;) node">
<polygon fill="white" stroke="black" points="326.5,-1824.5 326.5,-1843.5 455.5,-1843.5 455.5,-1824.5 326.5,-1824.5"/>
<text text-anchor="middle" x="391" y="-1831.5" font-family="Helvetica,sans-Serif" font-size="10.00">triton::ast::BvashrNode</text>
</a>
</g>
</g>
<!-- Node1&#45;&gt;Node8 -->
<g id="edge8" class="edge">
<title>Node1&#45;&gt;Node8</title>
<path fill="none" stroke="midnightblue" d="M213.75,-1056.04C212.76,-1166.27 213.49,-1697.88 317,-1815 320.38,-1818.83 324.43,-1821.93 328.86,-1824.44"/>
<polygon fill="midnightblue" stroke="midnightblue" points="217.25,-1055.75 213.86,-1045.71 210.25,-1055.68 217.25,-1055.75"/>
</g>
<!-- Node9 -->
<g id="node10" class="node">
<title>Node9</title>
<g id="a_node10"><a xlink:href="classtriton_1_1ast_1_1BvlshrNode.html" target="_top" xlink:title="(bvlshr &lt;expr1&gt; &lt;expr2&gt;) node">
<polygon fill="white" stroke="black" points="328,-1786.5 328,-1805.5 454,-1805.5 454,-1786.5 328,-1786.5"/>
<text text-anchor="middle" x="391" y="-1793.5" font-family="Helvetica,sans-Serif" font-size="10.00">triton::ast::BvlshrNode</text>
</a>
</g>
</g>
<!-- Node1&#45;&gt;Node9 -->
<g id="edge9" class="edge">
<title>Node1&#45;&gt;Node9</title>
<path fill="none" stroke="midnightblue" d="M213.9,-1055.74C213.74,-1162.09 218.29,-1666.06 317,-1777 320.4,-1780.82 324.45,-1783.91 328.88,-1786.41"/>
<polygon fill="midnightblue" stroke="midnightblue" points="217.4,-1055.75 213.93,-1045.74 210.4,-1055.73 217.4,-1055.75"/>
</g>
<!-- Node10 -->
<g id="node11" class="node">
<title>Node10</title>
<g id="a_node11"><a xlink:href="classtriton_1_1ast_1_1BvmulNode.html" target="_top" xlink:title="(bvmul &lt;expr1&gt; &lt;expr2&gt;) node">
<polygon fill="white" stroke="black" points="327.5,-1748.5 327.5,-1767.5 454.5,-1767.5 454.5,-1748.5 327.5,-1748.5"/>
<text text-anchor="middle" x="391" y="-1755.5" font-family="Helvetica,sans-Serif" font-size="10.00">triton::ast::BvmulNode</text>
</a>
</g>
</g>
<!-- Node1&#45;&gt;Node10 -->
<g id="edge10" class="edge">
<title>Node1&#45;&gt;Node10</title>
<path fill="none" stroke="midnightblue" d="M214.06,-1056.01C214.79,-1159.62 223.25,-1634.42 317,-1739 320.41,-1742.8 324.47,-1745.89 328.92,-1748.39"/>
<polygon fill="midnightblue" stroke="midnightblue" points="217.56,-1055.71 214.01,-1045.72 210.56,-1055.74 217.56,-1055.71"/>
</g>
<!-- Node11 -->
<g id="node12" class="node">
<title>Node11</title>
<g id="a_node12"><a xlink:href="classtriton_1_1ast_1_1BvnandNode.html" target="_top" xlink:title="(bvnand &lt;expr1&gt; &lt;expr2&gt;) node">
<polygon fill="white" stroke="black" points="325,-1710.5 325,-1729.5 457,-1729.5 457,-1710.5 325,-1710.5"/>
<text text-anchor="middle" x="391" y="-1717.5" font-family="Helvetica,sans-Serif" font-size="10.00">triton::ast::BvnandNode</text>
</a>
</g>
</g>
<!-- Node1&#45;&gt;Node11 -->
<g id="edge11" class="edge">
<title>Node1&#45;&gt;Node11</title>
<path fill="none" stroke="midnightblue" d="M214.24,-1055.87C215.87,-1155.8 228.08,-1602.62 317,-1701 320.42,-1704.79 324.5,-1707.86 328.95,-1710.36"/>
<polygon fill="midnightblue" stroke="midnightblue" points="217.74,-1055.62 214.1,-1045.67 210.74,-1055.72 217.74,-1055.62"/>
</g>
<!-- Node12 -->
<g id="node13" class="node">
<title>Node12</title>
<g id="a_node13"><a xlink:href="classtriton_1_1ast_1_1BvnegNode.html" target="_top" xlink:title="(bvneg &lt;expr&gt;) node">
<polygon fill="white" stroke="black" points="328,-1672.5 328,-1691.5 454,-1691.5 454,-1672.5 328,-1672.5"/>
<text text-anchor="middle" x="391" y="-1679.5" font-family="Helvetica,sans-Serif" font-size="10.00">triton::ast::BvnegNode</text>
</a>
</g>
</g>
<!-- Node1&#45;&gt;Node12 -->
<g id="edge12" class="edge">
<title>Node1&#45;&gt;Node12</title>
<path fill="none" stroke="midnightblue" d="M214.44,-1055.63C216.99,-1151.64 232.88,-1570.78 317,-1663 320.44,-1666.77 324.53,-1669.84 328.99,-1672.32"/>
<polygon fill="midnightblue" stroke="midnightblue" points="217.94,-1055.48 214.19,-1045.57 210.94,-1055.66 217.94,-1055.48"/>
</g>
<!-- Node13 -->
<g id="node14" class="node">
<title>Node13</title>
<g id="a_node14"><a xlink:href="classtriton_1_1ast_1_1BvnorNode.html" target="_top" xlink:title="(bvnor &lt;expr1&gt; &lt;expr2&gt;) node">
<polygon fill="white" stroke="black" points="329,-1634.5 329,-1653.5 453,-1653.5 453,-1634.5 329,-1634.5"/>
<text text-anchor="middle" x="391" y="-1641.5" font-family="Helvetica,sans-Serif" font-size="10.00">triton::ast::BvnorNode</text>
</a>
</g>
</g>
<!-- Node1&#45;&gt;Node13 -->
<g id="edge13" class="edge">
<title>Node1&#45;&gt;Node13</title>
<path fill="none" stroke="midnightblue" d="M214.68,-1055.9C218.25,-1148.83 237.81,-1539.08 317,-1625 320.55,-1628.85 324.77,-1631.96 329.37,-1634.47"/>
<polygon fill="midnightblue" stroke="midnightblue" points="218.17,-1055.74 214.31,-1045.87 211.18,-1055.99 218.17,-1055.74"/>
</g>
<!-- Node14 -->
<g id="node15" class="node">
<title>Node14</title>
<g id="a_node15"><a xlink:href="classtriton_1_1ast_1_1BvnotNode.html" target="_top" xlink:title="(bvnot &lt;expr&gt;) node">
<polygon fill="white" stroke="black" points="329,-1596.5 329,-1615.5 453,-1615.5 453,-1596.5 329,-1596.5"/>
<text text-anchor="middle" x="391" y="-1603.5" font-family="Helvetica,sans-Serif" font-size="10.00">triton::ast::BvnotNode</text>
</a>
</g>
</g>
<!-- Node1&#45;&gt;Node14 -->
<g id="edge14" class="edge">
<title>Node1&#45;&gt;Node14</title>
<path fill="none" stroke="midnightblue" d="M214.93,-1055.73C219.52,-1144.65 242.61,-1507.22 317,-1587 320.57,-1590.83 324.81,-1593.93 329.42,-1596.43"/>
<polygon fill="midnightblue" stroke="midnightblue" points="218.42,-1055.48 214.43,-1045.66 211.43,-1055.82 218.42,-1055.48"/>
</g>
<!-- Node15 -->
<g id="node16" class="node">
<title>Node15</title>
<g id="a_node16"><a xlink:href="classtriton_1_1ast_1_1BvorNode.html" target="_top" xlink:title="(bvor &lt;expr1&gt; &lt;expr2&gt;) node">
<polygon fill="white" stroke="black" points="332,-1558.5 332,-1577.5 450,-1577.5 450,-1558.5 332,-1558.5"/>
<text text-anchor="middle" x="391" y="-1565.5" font-family="Helvetica,sans-Serif" font-size="10.00">triton::ast::BvorNode</text>
</a>
</g>
</g>
<!-- Node1&#45;&gt;Node15 -->
<g id="edge15" class="edge">
<title>Node1&#45;&gt;Node15</title>
<path fill="none" stroke="midnightblue" d="M215.24,-1055.98C220.96,-1141.47 247.51,-1475.46 317,-1549 321.23,-1553.47 326.36,-1556.94 331.93,-1559.63"/>
<polygon fill="midnightblue" stroke="midnightblue" points="218.72,-1055.57 214.58,-1045.82 211.74,-1056.02 218.72,-1055.57"/>
</g>
<!-- Node16 -->
<g id="node17" class="node">
<title>Node16</title>
<g id="a_node17"><a xlink:href="classtriton_1_1ast_1_1BvrolNode.html" target="_top" xlink:title="((_ rotate_left rot) &lt;expr&gt;) node">
<polygon fill="white" stroke="black" points="330.5,-1520.5 330.5,-1539.5 451.5,-1539.5 451.5,-1520.5 330.5,-1520.5"/>
<text text-anchor="middle" x="391" y="-1527.5" font-family="Helvetica,sans-Serif" font-size="10.00">triton::ast::BvrolNode</text>
</a>
</g>
</g>
<!-- Node1&#45;&gt;Node16 -->
<g id="edge16" class="edge">
<title>Node1&#45;&gt;Node16</title>
<path fill="none" stroke="midnightblue" d="M215.62,-1056.3C222.55,-1138.26 252.4,-1443.69 317,-1511 320.81,-1514.97 325.33,-1518.15 330.23,-1520.69"/>
<polygon fill="midnightblue" stroke="midnightblue" points="219.07,-1055.56 214.76,-1045.88 212.09,-1056.13 219.07,-1055.56"/>
</g>
<!-- Node17 -->
<g id="node18" class="node">
<title>Node17</title>
<g id="a_node18"><a xlink:href="classtriton_1_1ast_1_1BvrorNode.html" target="_top" xlink:title="((_ rotate_right rot) &lt;expr&gt;) node">
<polygon fill="white" stroke="black" points="330,-1482.5 330,-1501.5 452,-1501.5 452,-1482.5 330,-1482.5"/>
<text text-anchor="middle" x="391" y="-1489.5" font-family="Helvetica,sans-Serif" font-size="10.00">triton::ast::BvrorNode</text>
</a>
</g>
</g>
<!-- Node1&#45;&gt;Node17 -->
<g id="edge17" class="edge">
<title>Node1&#45;&gt;Node17</title>
<path fill="none" stroke="midnightblue" d="M216.01,-1056.15C224.16,-1133.72 257.15,-1411.75 317,-1473 320.75,-1476.84 325.18,-1479.94 329.96,-1482.43"/>
<polygon fill="midnightblue" stroke="midnightblue" points="219.46,-1055.44 214.95,-1045.85 212.5,-1056.15 219.46,-1055.44"/>
</g>
<!-- Node18 -->
<g id="node19" class="node">
<title>Node18</title>
<g id="a_node19"><a xlink:href="classtriton_1_1ast_1_1BvsdivNode.html" target="_top" xlink:title="(bvsdiv &lt;expr1&gt; &lt;expr2&gt;) node">
<polygon fill="white" stroke="black" points="327,-1444.5 327,-1463.5 455,-1463.5 455,-1444.5 327,-1444.5"/>
<text text-anchor="middle" x="391" y="-1451.5" font-family="Helvetica,sans-Serif" font-size="10.00">triton::ast::BvsdivNode</text>
</a>
</g>
</g>
<!-- Node1&#45;&gt;Node18 -->
<g id="edge18" class="edge">
<title>Node1&#45;&gt;Node18</title>
<path fill="none" stroke="midnightblue" d="M216.45,-1055.79C225.85,-1128.54 261.83,-1379.72 317,-1435 320.79,-1438.8 325.24,-1441.87 330.04,-1444.35"/>
<polygon fill="midnightblue" stroke="midnightblue" points="219.9,-1055.19 215.17,-1045.71 212.96,-1056.07 219.9,-1055.19"/>
</g>
<!-- Node19 -->
<g id="node20" class="node">
<title>Node19</title>
<g id="a_node20"><a xlink:href="classtriton_1_1ast_1_1BvsgeNode.html" target="_top" xlink:title="(bvsge &lt;expr1&gt; &lt;expr2&gt;) node">
<polygon fill="white" stroke="black" points="328.5,-1406.5 328.5,-1425.5 453.5,-1425.5 453.5,-1406.5 328.5,-1406.5"/>
<text text-anchor="middle" x="391" y="-1413.5" font-family="Helvetica,sans-Serif" font-size="10.00">triton::ast::BvsgeNode</text>
</a>
</g>
</g>
<!-- Node1&#45;&gt;Node19 -->
<g id="edge19" class="edge">
<title>Node1&#45;&gt;Node19</title>
<path fill="none" stroke="midnightblue" d="M213.32,-1055.9C212.4,-1116.5 218.24,-1300.51 317,-1397 320.93,-1400.84 325.54,-1403.94 330.5,-1406.42"/>
<polygon fill="midnightblue" stroke="midnightblue" points="216.82,-1055.86 213.56,-1045.78 209.83,-1055.69 216.82,-1055.86"/>
</g>
<!-- Node20 -->
<g id="node21" class="node">
<title>Node20</title>
<g id="a_node21"><a xlink:href="classtriton_1_1ast_1_1BvsgtNode.html" target="_top" xlink:title="(bvsgt &lt;expr1&gt; &lt;expr2&gt;) node">
<polygon fill="white" stroke="black" points="329.5,-1368.5 329.5,-1387.5 452.5,-1387.5 452.5,-1368.5 329.5,-1368.5"/>
<text text-anchor="middle" x="391" y="-1375.5" font-family="Helvetica,sans-Serif" font-size="10.00">triton::ast::BvsgtNode</text>
</a>
</g>
</g>
<!-- Node1&#45;&gt;Node20 -->
<g id="edge20" class="edge">
<title>Node1&#45;&gt;Node20</title>
<path fill="none" stroke="midnightblue" d="M214.1,-1055.65C215.49,-1111.78 227.46,-1274.17 317,-1359 321.09,-1362.87 325.86,-1365.98 330.98,-1368.47"/>
<polygon fill="midnightblue" stroke="midnightblue" points="217.6,-1055.57 213.94,-1045.63 210.6,-1055.68 217.6,-1055.57"/>
</g>
<!-- Node21 -->
<g id="node22" class="node">
<title>Node21</title>
<g id="a_node22"><a xlink:href="classtriton_1_1ast_1_1BvshlNode.html" target="_top" xlink:title="(bvshl &lt;expr1&gt; &lt;expr2&gt;) node">
<polygon fill="white" stroke="black" points="330,-1330.5 330,-1349.5 452,-1349.5 452,-1330.5 330,-1330.5"/>
<text text-anchor="middle" x="391" y="-1337.5" font-family="Helvetica,sans-Serif" font-size="10.00">triton::ast::BvshlNode</text>
</a>
</g>
</g>
<!-- Node1&#45;&gt;Node21 -->
<g id="edge21" class="edge">
<title>Node1&#45;&gt;Node21</title>
<path fill="none" stroke="midnightblue" d="M215.07,-1055.72C218.95,-1107.4 236.76,-1247.84 317,-1321 321.26,-1324.88 326.21,-1327.99 331.49,-1330.48"/>
<polygon fill="midnightblue" stroke="midnightblue" points="218.55,-1055.33 214.4,-1045.58 211.56,-1055.79 218.55,-1055.33"/>
</g>
<!-- Node22 -->
<g id="node23" class="node">
<title>Node22</title>
<g id="a_node23"><a xlink:href="classtriton_1_1ast_1_1BvsleNode.html" target="_top" xlink:title="(bvsle &lt;expr1&gt; &lt;expr2&gt;) node">
<polygon fill="white" stroke="black" points="330,-1292.5 330,-1311.5 452,-1311.5 452,-1292.5 330,-1292.5"/>
<text text-anchor="middle" x="391" y="-1299.5" font-family="Helvetica,sans-Serif" font-size="10.00">triton::ast::BvsleNode</text>
</a>
</g>
</g>
<!-- Node1&#45;&gt;Node22 -->
<g id="edge22" class="edge">
<title>Node1&#45;&gt;Node22</title>
<path fill="none" stroke="midnightblue" d="M216.28,-1055.58C222.8,-1102.34 245.87,-1221.22 317,-1283 321.45,-1286.86 326.59,-1289.96 332.04,-1292.43"/>
<polygon fill="midnightblue" stroke="midnightblue" points="219.74,-1055.02 214.99,-1045.55 212.8,-1055.92 219.74,-1055.02"/>
</g>
<!-- Node23 -->
<g id="node24" class="node">
<title>Node23</title>
<g id="a_node24"><a xlink:href="classtriton_1_1ast_1_1BvsltNode.html" target="_top" xlink:title="(bvslt &lt;expr1&gt; &lt;expr2&gt;) node">
<polygon fill="white" stroke="black" points="331,-1254.5 331,-1273.5 451,-1273.5 451,-1254.5 331,-1254.5"/>
<text text-anchor="middle" x="391" y="-1261.5" font-family="Helvetica,sans-Serif" font-size="10.00">triton::ast::BvsltNode</text>
</a>
</g>
</g>
<!-- Node1&#45;&gt;Node23 -->
<g id="edge23" class="edge">
<title>Node1&#45;&gt;Node23</title>
<path fill="none" stroke="midnightblue" d="M217.92,-1055.62C227.29,-1097.19 254.95,-1194.44 317,-1245 321.77,-1248.89 327.25,-1251.99 333.02,-1254.46"/>
<polygon fill="midnightblue" stroke="midnightblue" points="221.31,-1054.72 215.8,-1045.67 214.47,-1056.18 221.31,-1054.72"/>
</g>
<!-- Node24 -->
<g id="node25" class="node">
<title>Node24</title>
<g id="a_node25"><a xlink:href="classtriton_1_1ast_1_1BvsmodNode.html" target="_top" xlink:title="(bvsmod &lt;expr1&gt; &lt;expr2&gt;) node">
<polygon fill="white" stroke="black" points="323.5,-1216.5 323.5,-1235.5 458.5,-1235.5 458.5,-1216.5 323.5,-1216.5"/>
<text text-anchor="middle" x="391" y="-1223.5" font-family="Helvetica,sans-Serif" font-size="10.00">triton::ast::BvsmodNode</text>
</a>
</g>
</g>
<!-- Node1&#45;&gt;Node24 -->
<g id="edge24" class="edge">
<title>Node1&#45;&gt;Node24</title>
<path fill="none" stroke="midnightblue" d="M220.07,-1055.18C232.37,-1090.8 263.66,-1167.15 317,-1207 322.14,-1210.84 327.99,-1213.91 334.08,-1216.36"/>
<polygon fill="midnightblue" stroke="midnightblue" points="223.34,-1053.91 216.87,-1045.52 216.7,-1056.11 223.34,-1053.91"/>
</g>
<!-- Node25 -->
<g id="node26" class="node">
<title>Node25</title>
<g id="a_node26"><a xlink:href="classtriton_1_1ast_1_1BvsremNode.html" target="_top" xlink:title="(bvsrem &lt;expr1&gt; &lt;expr2&gt;) node">
<polygon fill="white" stroke="black" points="324.5,-1178.5 324.5,-1197.5 457.5,-1197.5 457.5,-1178.5 324.5,-1178.5"/>
<text text-anchor="middle" x="391" y="-1185.5" font-family="Helvetica,sans-Serif" font-size="10.00">triton::ast::BvsremNode</text>
</a>
</g>
</g>
<!-- Node1&#45;&gt;Node25 -->
<g id="edge25" class="edge">
<title>Node1&#45;&gt;Node25</title>
<path fill="none" stroke="midnightblue" d="M223.37,-1054.92C238.79,-1084.02 272.3,-1139.51 317,-1169 322.9,-1172.89 329.56,-1175.99 336.4,-1178.45"/>
<polygon fill="midnightblue" stroke="midnightblue" points="226.37,-1053.1 218.68,-1045.81 220.15,-1056.3 226.37,-1053.1"/>
</g>
<!-- Node26 -->
<g id="node27" class="node">
<title>Node26</title>
<g id="a_node27"><a xlink:href="classtriton_1_1ast_1_1BvsubNode.html" target="_top" xlink:title="(bvsub &lt;expr1&gt; &lt;expr2&gt;) node">
<polygon fill="white" stroke="black" points="328.5,-1140.5 328.5,-1159.5 453.5,-1159.5 453.5,-1140.5 328.5,-1140.5"/>
<text text-anchor="middle" x="391" y="-1147.5" font-family="Helvetica,sans-Serif" font-size="10.00">triton::ast::BvsubNode</text>
</a>
</g>
</g>
<!-- Node1&#45;&gt;Node26 -->
<g id="edge26" class="edge">
<title>Node1&#45;&gt;Node26</title>
<path fill="none" stroke="midnightblue" d="M228.08,-1053.44C246.35,-1074.89 280.25,-1110.93 317,-1131 324.01,-1134.83 331.83,-1137.91 339.66,-1140.39"/>
<polygon fill="midnightblue" stroke="midnightblue" points="230.76,-1051.18 221.67,-1045.74 225.38,-1055.66 230.76,-1051.18"/>
</g>
<!-- Node27 -->
<g id="node28" class="node">
<title>Node27</title>
<g id="a_node28"><a xlink:href="classtriton_1_1ast_1_1BvudivNode.html" target="_top" xlink:title="(bvudiv &lt;expr1&gt; &lt;expr2&gt;) node">
<polygon fill="white" stroke="black" points="326.5,-1102.5 326.5,-1121.5 455.5,-1121.5 455.5,-1102.5 326.5,-1102.5"/>
<text text-anchor="middle" x="391" y="-1109.5" font-family="Helvetica,sans-Serif" font-size="10.00">triton::ast::BvudivNode</text>
</a>
</g>
</g>
<!-- Node1&#45;&gt;Node27 -->
<g id="edge27" class="edge">
<title>Node1&#45;&gt;Node27</title>
<path fill="none" stroke="midnightblue" d="M237,-1050.93C257.35,-1063.6 288.2,-1081.49 317,-1093 326.12,-1096.64 336.16,-1099.78 345.8,-1102.4"/>
<polygon fill="midnightblue" stroke="midnightblue" points="238.76,-1047.9 228.43,-1045.52 235.02,-1053.82 238.76,-1047.9"/>
</g>
<!-- Node28 -->
<g id="node29" class="node">
<title>Node28</title>
<g id="a_node29"><a xlink:href="classtriton_1_1ast_1_1BvugeNode.html" target="_top" xlink:title="(bvuge &lt;expr1&gt; &lt;expr2&gt;) node">
<polygon fill="white" stroke="black" points="328,-1064.5 328,-1083.5 454,-1083.5 454,-1064.5 328,-1064.5"/>
<text text-anchor="middle" x="391" y="-1071.5" font-family="Helvetica,sans-Serif" font-size="10.00">triton::ast::BvugeNode</text>
</a>
</g>
</g>
<!-- Node1&#45;&gt;Node28 -->
<g id="edge28" class="edge">
<title>Node1&#45;&gt;Node28</title>
<path fill="none" stroke="midnightblue" d="M268.43,-1047.75C293.32,-1053.13 322.42,-1059.41 345.91,-1064.48"/>
<polygon fill="midnightblue" stroke="midnightblue" points="268.93,-1044.28 258.41,-1045.59 267.45,-1051.12 268.93,-1044.28"/>
</g>
<!-- Node29 -->
<g id="node30" class="node">
<title>Node29</title>
<g id="a_node30"><a xlink:href="classtriton_1_1ast_1_1BvugtNode.html" target="_top" xlink:title="(bvugt &lt;expr1&gt; &lt;expr2&gt;) node">
<polygon fill="white" stroke="black" points="329,-1026.5 329,-1045.5 453,-1045.5 453,-1026.5 329,-1026.5"/>
<text text-anchor="middle" x="391" y="-1033.5" font-family="Helvetica,sans-Serif" font-size="10.00">triton::ast::BvugtNode</text>
</a>
</g>
</g>
<!-- Node1&#45;&gt;Node29 -->
<g id="edge29" class="edge">
<title>Node1&#45;&gt;Node29</title>
<path fill="none" stroke="midnightblue" d="M291.11,-1036C303.76,-1036 316.73,-1036 328.92,-1036"/>
<polygon fill="midnightblue" stroke="midnightblue" points="291.04,-1032.5 281.04,-1036 291.04,-1039.5 291.04,-1032.5"/>
</g>
<!-- Node30 -->
<g id="node31" class="node">
<title>Node30</title>
<g id="a_node31"><a xlink:href="classtriton_1_1ast_1_1BvuleNode.html" target="_top" xlink:title="(bvule &lt;expr1&gt; &lt;expr2&gt;) node">
<polygon fill="white" stroke="black" points="329.5,-988.5 329.5,-1007.5 452.5,-1007.5 452.5,-988.5 329.5,-988.5"/>
<text text-anchor="middle" x="391" y="-995.5" font-family="Helvetica,sans-Serif" font-size="10.00">triton::ast::BvuleNode</text>
</a>
</g>
</g>
<!-- Node1&#45;&gt;Node30 -->
<g id="edge30" class="edge">
<title>Node1&#45;&gt;Node30</title>
<path fill="none" stroke="midnightblue" d="M268.43,-1024.25C293.32,-1018.87 322.42,-1012.59 345.91,-1007.52"/>
<polygon fill="midnightblue" stroke="midnightblue" points="267.45,-1020.88 258.41,-1026.41 268.93,-1027.72 267.45,-1020.88"/>
</g>
<!-- Node31 -->
<g id="node32" class="node">
<title>Node31</title>
<g id="a_node32"><a xlink:href="classtriton_1_1ast_1_1BvultNode.html" target="_top" xlink:title="(bvult &lt;expr1&gt; &lt;expr2&gt;) node">
<polygon fill="white" stroke="black" points="330.5,-950.5 330.5,-969.5 451.5,-969.5 451.5,-950.5 330.5,-950.5"/>
<text text-anchor="middle" x="391" y="-957.5" font-family="Helvetica,sans-Serif" font-size="10.00">triton::ast::BvultNode</text>
</a>
</g>
</g>
<!-- Node1&#45;&gt;Node31 -->
<g id="edge31" class="edge">
<title>Node1&#45;&gt;Node31</title>
<path fill="none" stroke="midnightblue" d="M269.53,-1022.85C273.53,-1021.13 277.39,-1019.18 281,-1017 300.9,-1004.95 296.97,-990.83 317,-979 323.54,-975.14 330.86,-972.05 338.28,-969.58"/>
<polygon fill="midnightblue" stroke="midnightblue" points="268.14,-1019.63 260.07,-1026.49 270.66,-1026.17 268.14,-1019.63"/>
</g>
<!-- Node32 -->
<g id="node33" class="node">
<title>Node32</title>
<g id="a_node33"><a xlink:href="classtriton_1_1ast_1_1BvuremNode.html" target="_top" xlink:title="(bvurem &lt;expr1&gt; &lt;expr2&gt;) node">
<polygon fill="white" stroke="black" points="324,-912.5 324,-931.5 458,-931.5 458,-912.5 324,-912.5"/>
<text text-anchor="middle" x="391" y="-919.5" font-family="Helvetica,sans-Serif" font-size="10.00">triton::ast::BvuremNode</text>
</a>
</g>
</g>
<!-- Node1&#45;&gt;Node32 -->
<g id="edge32" class="edge">
<title>Node1&#45;&gt;Node32</title>
<path fill="none" stroke="midnightblue" d="M274.55,-1021.68C276.82,-1020.26 278.98,-1018.71 281,-1017 309.53,-992.85 288.21,-964.83 317,-941 321.64,-937.16 326.97,-934.08 332.59,-931.62"/>
<polygon fill="midnightblue" stroke="midnightblue" points="272.61,-1018.74 265.37,-1026.48 275.85,-1024.95 272.61,-1018.74"/>
</g>
<!-- Node33 -->
<g id="node34" class="node">
<title>Node33</title>
<g id="a_node34"><a xlink:href="classtriton_1_1ast_1_1BvxnorNode.html" target="_top" xlink:title="(bvxnor &lt;expr1&gt; &lt;expr2&gt;) node">
<polygon fill="white" stroke="black" points="326,-874.5 326,-893.5 456,-893.5 456,-874.5 326,-874.5"/>
<text text-anchor="middle" x="391" y="-881.5" font-family="Helvetica,sans-Serif" font-size="10.00">triton::ast::BvxnorNode</text>
</a>
</g>
</g>
<!-- Node1&#45;&gt;Node33 -->
<g id="edge33" class="edge">
<title>Node1&#45;&gt;Node33</title>
<path fill="none" stroke="midnightblue" d="M276.22,-1021.04C277.9,-1019.8 279.5,-1018.45 281,-1017 319.12,-979.99 278.48,-939.6 317,-903 321.08,-899.12 325.85,-896.01 330.97,-893.52"/>
<polygon fill="midnightblue" stroke="midnightblue" points="274,-1018.29 267.23,-1026.44 277.61,-1024.29 274,-1018.29"/>
</g>
<!-- Node34 -->
<g id="node35" class="node">
<title>Node34</title>
<g id="a_node35"><a xlink:href="classtriton_1_1ast_1_1BvxorNode.html" target="_top" xlink:title="(bvxor &lt;expr1&gt; &lt;expr2&gt;) node">
<polygon fill="white" stroke="black" points="329.5,-836.5 329.5,-855.5 452.5,-855.5 452.5,-836.5 329.5,-836.5"/>
<text text-anchor="middle" x="391" y="-843.5" font-family="Helvetica,sans-Serif" font-size="10.00">triton::ast::BvxorNode</text>
</a>
</g>
</g>
<!-- Node1&#45;&gt;Node34 -->
<g id="edge34" class="edge">
<title>Node1&#45;&gt;Node34</title>
<path fill="none" stroke="midnightblue" d="M276.97,-1020.7C278.39,-1019.55 279.74,-1018.32 281,-1017 329,-966.85 268.45,-914.63 317,-865 320.75,-861.16 325.18,-858.07 329.96,-855.57"/>
<polygon fill="midnightblue" stroke="midnightblue" points="274.66,-1018.02 268.17,-1026.4 278.47,-1023.9 274.66,-1018.02"/>
</g>
<!-- Node35 -->
<g id="node36" class="node">
<title>Node35</title>
<g id="a_node36"><a xlink:href="classtriton_1_1ast_1_1CompoundNode.html" target="_top" xlink:title="[&lt;expr1&gt; &lt;expr2&gt; &lt;expr3&gt; ...] node">
<polygon fill="white" stroke="black" points="317,-798.5 317,-817.5 465,-817.5 465,-798.5 317,-798.5"/>
<text text-anchor="middle" x="391" y="-805.5" font-family="Helvetica,sans-Serif" font-size="10.00">triton::ast::CompoundNode</text>
</a>
</g>
</g>
<!-- Node1&#45;&gt;Node35 -->
<g id="edge35" class="edge">
<title>Node1&#45;&gt;Node35</title>
<path fill="none" stroke="midnightblue" d="M277.14,-1020.7C278.5,-1019.55 279.79,-1018.32 281,-1017 339.01,-953.58 258.31,-889.79 317,-827 320.58,-823.17 324.82,-820.08 329.43,-817.58"/>
<polygon fill="midnightblue" stroke="midnightblue" points="275.02,-1017.91 268.68,-1026.4 278.93,-1023.71 275.02,-1017.91"/>
</g>
<!-- Node36 -->
<g id="node37" class="node">
<title>Node36</title>
<g id="a_node37"><a xlink:href="classtriton_1_1ast_1_1ConcatNode.html" target="_top" xlink:title="(concat &lt;expr1&gt; &lt;expr2&gt; ...) node">
<polygon fill="white" stroke="black" points="326.5,-760.5 326.5,-779.5 455.5,-779.5 455.5,-760.5 326.5,-760.5"/>
<text text-anchor="middle" x="391" y="-767.5" font-family="Helvetica,sans-Serif" font-size="10.00">triton::ast::ConcatNode</text>
</a>
</g>
</g>
<!-- Node1&#45;&gt;Node36 -->
<g id="edge36" class="edge">
<title>Node1&#45;&gt;Node36</title>
<path fill="none" stroke="midnightblue" d="M277.65,-1020.35C278.83,-1019.3 279.95,-1018.19 281,-1017 349.07,-940.25 248.1,-865.01 317,-789 320.43,-785.22 324.51,-782.14 328.96,-779.65"/>
<polygon fill="midnightblue" stroke="midnightblue" points="275.3,-1017.72 269.12,-1026.33 279.31,-1023.46 275.3,-1017.72"/>
</g>
<!-- Node37 -->
<g id="node38" class="node">
<title>Node37</title>
<g id="a_node38"><a xlink:href="classtriton_1_1ast_1_1DeclareNode.html" target="_top" xlink:title="(declare&#45;fun &lt;var_name&gt; () (_ BitVec &lt;var_size&gt;)) node">
<polygon fill="white" stroke="black" points="324.5,-722.5 324.5,-741.5 457.5,-741.5 457.5,-722.5 324.5,-722.5"/>
<text text-anchor="middle" x="391" y="-729.5" font-family="Helvetica,sans-Serif" font-size="10.00">triton::ast::DeclareNode</text>
</a>
</g>
</g>
<!-- Node1&#45;&gt;Node37 -->
<g id="edge37" class="edge">
<title>Node1&#45;&gt;Node37</title>
<path fill="none" stroke="midnightblue" d="M277.68,-1020.38C278.85,-1019.32 279.96,-1018.2 281,-1017 359.17,-926.88 237.86,-840.27 317,-751 320.39,-747.18 324.44,-744.08 328.87,-741.57"/>
<polygon fill="midnightblue" stroke="midnightblue" points="275.33,-1017.76 269.21,-1026.41 279.38,-1023.47 275.33,-1017.76"/>
</g>
<!-- Node38 -->
<g id="node39" class="node">
<title>Node38</title>
<g id="a_node39"><a xlink:href="classtriton_1_1ast_1_1DistinctNode.html" target="_top" xlink:title="(distinct &lt;expr1&gt; &lt;expr2&gt; ...) node">
<polygon fill="white" stroke="black" points="324.5,-684.5 324.5,-703.5 457.5,-703.5 457.5,-684.5 324.5,-684.5"/>
<text text-anchor="middle" x="391" y="-691.5" font-family="Helvetica,sans-Serif" font-size="10.00">triton::ast::DistinctNode</text>
</a>
</g>
</g>
<!-- Node1&#45;&gt;Node38 -->
<g id="edge38" class="edge">
<title>Node1&#45;&gt;Node38</title>
<path fill="none" stroke="midnightblue" d="M277.71,-1020.4C278.87,-1019.34 279.97,-1018.21 281,-1017 369.29,-913.48 227.59,-815.55 317,-713 320.36,-709.15 324.38,-706.03 328.8,-703.51"/>
<polygon fill="midnightblue" stroke="midnightblue" points="275.35,-1017.79 269.27,-1026.47 279.44,-1023.47 275.35,-1017.79"/>
</g>
<!-- Node39 -->
<g id="node40" class="node">
<title>Node39</title>
<g id="a_node40"><a xlink:href="classtriton_1_1ast_1_1EqualNode.html" target="_top" xlink:title="(= &lt;expr1&gt; &lt;expr2&gt; ...) node">
<polygon fill="white" stroke="black" points="330,-646.5 330,-665.5 452,-665.5 452,-646.5 330,-646.5"/>
<text text-anchor="middle" x="391" y="-653.5" font-family="Helvetica,sans-Serif" font-size="10.00">triton::ast::EqualNode</text>
</a>
</g>
</g>
<!-- Node1&#45;&gt;Node39 -->
<g id="edge39" class="edge">
<title>Node1&#45;&gt;Node39</title>
<path fill="none" stroke="midnightblue" d="M277.81,-1020.35C278.94,-1019.3 280,-1018.19 281,-1017 379.42,-900.07 217.31,-790.86 317,-675 320.59,-670.83 324.96,-667.52 329.77,-664.89"/>
<polygon fill="midnightblue" stroke="midnightblue" points="275.64,-1017.6 269.64,-1026.33 279.78,-1023.25 275.64,-1017.6"/>
</g>
<!-- Node40 -->
<g id="node41" class="node">
<title>Node40</title>
<g id="a_node41"><a xlink:href="classtriton_1_1ast_1_1ExtractNode.html" target="_top" xlink:title="((_ extract &lt;high&gt; &lt;low&gt;) &lt;expr&gt;) node">
<polygon fill="white" stroke="black" points="326,-608.5 326,-627.5 456,-627.5 456,-608.5 326,-608.5"/>
<text text-anchor="middle" x="391" y="-615.5" font-family="Helvetica,sans-Serif" font-size="10.00">triton::ast::ExtractNode</text>
</a>
</g>
</g>
<!-- Node1&#45;&gt;Node40 -->
<g id="edge40" class="edge">
<title>Node1&#45;&gt;Node40</title>
<path fill="none" stroke="midnightblue" d="M277.83,-1020.36C278.95,-1019.31 280.01,-1018.19 281,-1017 335.28,-951.82 262.01,-701.58 317,-637 320.23,-633.21 324.1,-630.13 328.37,-627.63"/>
<polygon fill="midnightblue" stroke="midnightblue" points="275.65,-1017.62 269.68,-1026.37 279.81,-1023.25 275.65,-1017.62"/>
</g>
<!-- Node41 -->
<g id="node42" class="node">
<title>Node41</title>
<g id="a_node42"><a xlink:href="classtriton_1_1ast_1_1ForallNode.html" target="_top" xlink:title="(forall ((x (_ BitVec &lt;size&gt;)), ...) body)">
<polygon fill="white" stroke="black" points="330,-570.5 330,-589.5 452,-589.5 452,-570.5 330,-570.5"/>
<text text-anchor="middle" x="391" y="-577.5" font-family="Helvetica,sans-Serif" font-size="10.00">triton::ast::ForallNode</text>
</a>
</g>
</g>
<!-- Node1&#45;&gt;Node41 -->
<g id="edge41" class="edge">
<title>Node1&#45;&gt;Node41</title>
<path fill="none" stroke="midnightblue" d="M277.84,-1020.37C278.96,-1019.32 280.01,-1018.19 281,-1017 340.36,-945.11 256.86,-670.25 317,-599 320.55,-594.8 324.9,-591.46 329.69,-588.82"/>
<polygon fill="midnightblue" stroke="midnightblue" points="275.67,-1017.63 269.72,-1026.39 279.83,-1023.25 275.67,-1017.63"/>
</g>
<!-- Node42 -->
<g id="node43" class="node">
<title>Node42</title>
<g id="a_node43"><a xlink:href="classtriton_1_1ast_1_1IffNode.html" target="_top" xlink:title="(iff &lt;expr1&gt; &lt;expr2&gt;)">
<polygon fill="white" stroke="black" points="338.5,-532.5 338.5,-551.5 443.5,-551.5 443.5,-532.5 338.5,-532.5"/>
<text text-anchor="middle" x="391" y="-539.5" font-family="Helvetica,sans-Serif" font-size="10.00">triton::ast::IffNode</text>
</a>
</g>
</g>
<!-- Node1&#45;&gt;Node42 -->
<g id="edge42" class="edge">
<title>Node1&#45;&gt;Node42</title>
<path fill="none" stroke="midnightblue" d="M277.85,-1020.38C278.97,-1019.32 280.02,-1018.2 281,-1017 345.44,-938.39 251.71,-638.91 317,-561 322.55,-554.38 330.09,-549.9 338.23,-546.91"/>
<polygon fill="midnightblue" stroke="midnightblue" points="275.68,-1017.64 269.75,-1026.42 279.86,-1023.25 275.68,-1017.64"/>
</g>
<!-- Node43 -->
<g id="node44" class="node">
<title>Node43</title>
<g id="a_node44"><a xlink:href="classtriton_1_1ast_1_1IntegerNode.html" target="_top" xlink:title="Integer node.">
<polygon fill="white" stroke="black" points="326,-494.5 326,-513.5 456,-513.5 456,-494.5 326,-494.5"/>
<text text-anchor="middle" x="391" y="-501.5" font-family="Helvetica,sans-Serif" font-size="10.00">triton::ast::IntegerNode</text>
</a>
</g>
</g>
<!-- Node1&#45;&gt;Node43 -->
<g id="edge43" class="edge">
<title>Node1&#45;&gt;Node43</title>
<path fill="none" stroke="midnightblue" d="M277.86,-1020.39C278.97,-1019.33 280.02,-1018.2 281,-1017 350.52,-931.66 246.56,-607.58 317,-523 320.18,-519.18 324.03,-516.07 328.28,-513.55"/>
<polygon fill="midnightblue" stroke="midnightblue" points="275.69,-1017.65 269.77,-1026.44 279.88,-1023.26 275.69,-1017.65"/>
</g>
<!-- Node44 -->
<g id="node45" class="node">
<title>Node44</title>
<g id="a_node45"><a xlink:href="classtriton_1_1ast_1_1IteNode.html" target="_top" xlink:title="(ite &lt;ifExpr&gt; &lt;thenExpr&gt; &lt;elseExpr&gt;)">
<polygon fill="white" stroke="black" points="337,-456.5 337,-475.5 445,-475.5 445,-456.5 337,-456.5"/>
<text text-anchor="middle" x="391" y="-463.5" font-family="Helvetica,sans-Serif" font-size="10.00">triton::ast::IteNode</text>
</a>
</g>
</g>
<!-- Node1&#45;&gt;Node44 -->
<g id="edge44" class="edge">
<title>Node1&#45;&gt;Node44</title>
<path fill="none" stroke="midnightblue" d="M277.87,-1020.4C278.98,-1019.33 280.02,-1018.2 281,-1017 355.6,-924.94 241.4,-576.25 317,-485 322.18,-478.75 329.13,-474.41 336.7,-471.42"/>
<polygon fill="midnightblue" stroke="midnightblue" points="275.69,-1017.66 269.79,-1026.46 279.89,-1023.26 275.69,-1017.66"/>
</g>
<!-- Node45 -->
<g id="node46" class="node">
<title>Node45</title>
<g id="a_node46"><a xlink:href="classtriton_1_1ast_1_1LandNode.html" target="_top" xlink:title="(and &lt;expr1&gt; &lt;expr2&gt;)">
<polygon fill="white" stroke="black" points="331.5,-418.5 331.5,-437.5 450.5,-437.5 450.5,-418.5 331.5,-418.5"/>
<text text-anchor="middle" x="391" y="-425.5" font-family="Helvetica,sans-Serif" font-size="10.00">triton::ast::LandNode</text>
</a>
</g>
</g>
<!-- Node1&#45;&gt;Node45 -->
<g id="edge45" class="edge">
<title>Node1&#45;&gt;Node45</title>
<path fill="none" stroke="midnightblue" d="M277.88,-1020.4C278.98,-1019.34 280.03,-1018.21 281,-1017 360.68,-918.21 236.25,-544.92 317,-447 320.92,-442.25 325.85,-438.61 331.31,-435.82"/>
<polygon fill="midnightblue" stroke="midnightblue" points="275.7,-1017.66 269.81,-1026.47 279.91,-1023.26 275.7,-1017.66"/>
</g>
<!-- Node46 -->
<g id="node47" class="node">
<title>Node46</title>
<g id="a_node47"><a xlink:href="classtriton_1_1ast_1_1LetNode.html" target="_top" xlink:title="(let ((&lt;alias&gt; &lt;expr2&gt;)) &lt;expr3&gt;)">
<polygon fill="white" stroke="black" points="336,-380.5 336,-399.5 446,-399.5 446,-380.5 336,-380.5"/>
<text text-anchor="middle" x="391" y="-387.5" font-family="Helvetica,sans-Serif" font-size="10.00">triton::ast::LetNode</text>
</a>
</g>
</g>
<!-- Node1&#45;&gt;Node46 -->
<g id="edge46" class="edge">
<title>Node1&#45;&gt;Node46</title>
<path fill="none" stroke="midnightblue" d="M277.89,-1020.41C278.99,-1019.34 280.03,-1018.21 281,-1017 365.77,-911.49 231.09,-513.59 317,-409 321.99,-402.93 328.65,-398.66 335.92,-395.68"/>
<polygon fill="midnightblue" stroke="midnightblue" points="275.7,-1017.67 269.83,-1026.48 279.92,-1023.26 275.7,-1017.67"/>
</g>
<!-- Node47 -->
<g id="node48" class="node">
<title>Node47</title>
<g id="a_node48"><a xlink:href="classtriton_1_1ast_1_1LnotNode.html" target="_top" xlink:title="(lnot &lt;expr&gt;)">
<polygon fill="white" stroke="black" points="333,-342.5 333,-361.5 449,-361.5 449,-342.5 333,-342.5"/>
<text text-anchor="middle" x="391" y="-349.5" font-family="Helvetica,sans-Serif" font-size="10.00">triton::ast::LnotNode</text>
</a>
</g>
</g>
<!-- Node1&#45;&gt;Node47 -->
<g id="edge47" class="edge">
<title>Node1&#45;&gt;Node47</title>
<path fill="none" stroke="midnightblue" d="M277.89,-1020.41C278.99,-1019.35 280.03,-1018.21 281,-1017 370.85,-904.76 225.93,-482.26 317,-371 321.23,-365.83 326.67,-361.97 332.68,-359.1"/>
<polygon fill="midnightblue" stroke="midnightblue" points="275.71,-1017.67 269.84,-1026.49 279.93,-1023.26 275.71,-1017.67"/>
</g>
<!-- Node48 -->
<g id="node49" class="node">
<title>Node48</title>
<g id="a_node49"><a xlink:href="classtriton_1_1ast_1_1LorNode.html" target="_top" xlink:title="(or &lt;expr1&gt; &lt;expr2&gt;)">
<polygon fill="white" stroke="black" points="336,-304.5 336,-323.5 446,-323.5 446,-304.5 336,-304.5"/>
<text text-anchor="middle" x="391" y="-311.5" font-family="Helvetica,sans-Serif" font-size="10.00">triton::ast::LorNode</text>
</a>
</g>
</g>
<!-- Node1&#45;&gt;Node48 -->
<g id="edge48" class="edge">
<title>Node1&#45;&gt;Node48</title>
<path fill="none" stroke="midnightblue" d="M278.3,-1020.02C279.25,-1019.07 280.15,-1018.06 281,-1017 375.94,-898.03 220.77,-450.93 317,-333 321.97,-326.91 328.62,-322.63 335.89,-319.65"/>
<polygon fill="midnightblue" stroke="midnightblue" points="275.93,-1017.43 270.16,-1026.32 280.21,-1022.97 275.93,-1017.43"/>
</g>
<!-- Node49 -->
<g id="node50" class="node">
<title>Node49</title>
<g id="a_node50"><a xlink:href="classtriton_1_1ast_1_1LxorNode.html" target="_top" xlink:title="(xor &lt;expr1&gt; &lt;expr2&gt;)">
<polygon fill="white" stroke="black" points="333,-266.5 333,-285.5 449,-285.5 449,-266.5 333,-266.5"/>
<text text-anchor="middle" x="391" y="-273.5" font-family="Helvetica,sans-Serif" font-size="10.00">triton::ast::LxorNode</text>
</a>
</g>
</g>
<!-- Node1&#45;&gt;Node49 -->
<g id="edge49" class="edge">
<title>Node1&#45;&gt;Node49</title>
<path fill="none" stroke="midnightblue" d="M278.3,-1020.03C279.25,-1019.07 280.15,-1018.06 281,-1017 381.03,-891.3 215.61,-419.61 317,-295 321.3,-289.72 326.86,-285.8 333,-282.9"/>
<polygon fill="midnightblue" stroke="midnightblue" points="275.93,-1017.43 270.17,-1026.33 280.22,-1022.97 275.93,-1017.43"/>
</g>
<!-- Node50 -->
<g id="node51" class="node">
<title>Node50</title>
<g id="a_node51"><a xlink:href="classtriton_1_1ast_1_1ReferenceNode.html" target="_top" xlink:title="Reference node.">
<polygon fill="white" stroke="black" points="318.5,-228.5 318.5,-247.5 463.5,-247.5 463.5,-228.5 318.5,-228.5"/>
<text text-anchor="middle" x="391" y="-235.5" font-family="Helvetica,sans-Serif" font-size="10.00">triton::ast::ReferenceNode</text>
</a>
</g>
</g>
<!-- Node1&#45;&gt;Node50 -->
<g id="edge50" class="edge">
<title>Node1&#45;&gt;Node50</title>
<path fill="none" stroke="midnightblue" d="M278.3,-1020.03C279.25,-1019.07 280.15,-1018.07 281,-1017 386.11,-884.57 210.45,-388.28 317,-257 320.05,-253.24 323.75,-250.17 327.84,-247.66"/>
<polygon fill="midnightblue" stroke="midnightblue" points="275.93,-1017.44 270.18,-1026.34 280.23,-1022.97 275.93,-1017.44"/>
</g>
<!-- Node51 -->
<g id="node52" class="node">
<title>Node51</title>
<g id="a_node52"><a xlink:href="classtriton_1_1ast_1_1SelectNode.html" target="_top" xlink:title="(select array index)">
<polygon fill="white" stroke="black" points="328.5,-190.5 328.5,-209.5 453.5,-209.5 453.5,-190.5 328.5,-190.5"/>
<text text-anchor="middle" x="391" y="-197.5" font-family="Helvetica,sans-Serif" font-size="10.00">triton::ast::SelectNode</text>
</a>
</g>
</g>
<!-- Node1&#45;&gt;Node51 -->
<g id="edge51" class="edge">
<title>Node1&#45;&gt;Node51</title>
<path fill="none" stroke="midnightblue" d="M278.31,-1020.03C279.26,-1019.08 280.16,-1018.07 281,-1017 336.1,-947.42 261.15,-287.98 317,-219 320.21,-215.03 324.14,-211.83 328.49,-209.26"/>
<polygon fill="midnightblue" stroke="midnightblue" points="275.94,-1017.44 270.19,-1026.34 280.23,-1022.97 275.94,-1017.44"/>
</g>
<!-- Node52 -->
<g id="node53" class="node">
<title>Node52</title>
<g id="a_node53"><a xlink:href="classtriton_1_1ast_1_1StoreNode.html" target="_top" xlink:title="(store array index expr)">
<polygon fill="white" stroke="black" points="330.5,-152.5 330.5,-171.5 451.5,-171.5 451.5,-152.5 330.5,-152.5"/>
<text text-anchor="middle" x="391" y="-159.5" font-family="Helvetica,sans-Serif" font-size="10.00">triton::ast::StoreNode</text>
</a>
</g>
</g>
<!-- Node1&#45;&gt;Node52 -->
<g id="edge52" class="edge">
<title>Node1&#45;&gt;Node52</title>
<path fill="none" stroke="midnightblue" d="M278.31,-1020.03C279.26,-1019.08 280.16,-1018.07 281,-1017 338.65,-944.05 258.57,-253.32 317,-181 320.62,-176.52 325.15,-173.02 330.18,-170.29"/>
<polygon fill="midnightblue" stroke="midnightblue" points="275.94,-1017.44 270.2,-1026.35 280.24,-1022.97 275.94,-1017.44"/>
</g>
<!-- Node53 -->
<g id="node54" class="node">
<title>Node53</title>
<g id="a_node54"><a xlink:href="classtriton_1_1ast_1_1StringNode.html" target="_top" xlink:title="String node.">
<polygon fill="white" stroke="black" points="329,-114.5 329,-133.5 453,-133.5 453,-114.5 329,-114.5"/>
<text text-anchor="middle" x="391" y="-121.5" font-family="Helvetica,sans-Serif" font-size="10.00">triton::ast::StringNode</text>
</a>
</g>
</g>
<!-- Node1&#45;&gt;Node53 -->
<g id="edge53" class="edge">
<title>Node1&#45;&gt;Node53</title>
<path fill="none" stroke="midnightblue" d="M278.31,-1020.04C279.26,-1019.08 280.16,-1018.07 281,-1017 341.19,-940.69 255.99,-218.66 317,-143 320.29,-138.92 324.33,-135.66 328.81,-133.04"/>
<polygon fill="midnightblue" stroke="midnightblue" points="275.94,-1017.45 270.21,-1026.36 280.25,-1022.97 275.94,-1017.45"/>
</g>
<!-- Node54 -->
<g id="node55" class="node">
<title>Node54</title>
<g id="a_node55"><a xlink:href="classtriton_1_1ast_1_1SxNode.html" target="_top" xlink:title="((_ sign_extend sizeExt) &lt;expr&gt;) node">
<polygon fill="white" stroke="black" points="337.5,-76.5 337.5,-95.5 444.5,-95.5 444.5,-76.5 337.5,-76.5"/>
<text text-anchor="middle" x="391" y="-83.5" font-family="Helvetica,sans-Serif" font-size="10.00">triton::ast::SxNode</text>
</a>
</g>
</g>
<!-- Node1&#45;&gt;Node54 -->
<g id="edge54" class="edge">
<title>Node1&#45;&gt;Node54</title>
<path fill="none" stroke="midnightblue" d="M278.32,-1020.04C279.26,-1019.08 280.16,-1018.07 281,-1017 343.73,-937.32 253.41,-183.99 317,-105 322.26,-98.47 329.45,-94.02 337.28,-91.01"/>
<polygon fill="midnightblue" stroke="midnightblue" points="275.94,-1017.45 270.21,-1026.36 280.25,-1022.97 275.94,-1017.45"/>
</g>
<!-- Node55 -->
<g id="node56" class="node">
<title>Node55</title>
<g id="a_node56"><a xlink:href="classtriton_1_1ast_1_1VariableNode.html" target="_top" xlink:title="Variable node.">
<polygon fill="white" stroke="black" points="323.5,-38.5 323.5,-57.5 458.5,-57.5 458.5,-38.5 323.5,-38.5"/>
<text text-anchor="middle" x="391" y="-45.5" font-family="Helvetica,sans-Serif" font-size="10.00">triton::ast::VariableNode</text>
</a>
</g>
</g>
<!-- Node1&#45;&gt;Node55 -->
<g id="edge55" class="edge">
<title>Node1&#45;&gt;Node55</title>
<path fill="none" stroke="midnightblue" d="M278.32,-1020.04C279.26,-1019.08 280.16,-1018.07 281,-1017 346.28,-933.95 250.82,-149.33 317,-67 320.04,-63.22 323.72,-60.14 327.8,-57.63"/>
<polygon fill="midnightblue" stroke="midnightblue" points="275.95,-1017.45 270.22,-1026.37 280.26,-1022.97 275.95,-1017.45"/>
</g>
<!-- Node56 -->
<g id="node57" class="node">
<title>Node56</title>
<g id="a_node57"><a xlink:href="classtriton_1_1ast_1_1ZxNode.html" target="_top" xlink:title="((_ zero_extend sizeExt) &lt;expr&gt;) node">
<polygon fill="white" stroke="black" points="337,-0.5 337,-19.5 445,-19.5 445,-0.5 337,-0.5"/>
<text text-anchor="middle" x="391" y="-7.5" font-family="Helvetica,sans-Serif" font-size="10.00">triton::ast::ZxNode</text>
</a>
</g>
</g>
<!-- Node1&#45;&gt;Node56 -->
<g id="edge56" class="edge">
<title>Node1&#45;&gt;Node56</title>
<path fill="none" stroke="midnightblue" d="M278.32,-1020.04C279.26,-1019.08 280.16,-1018.07 281,-1017 348.82,-930.59 248.24,-114.67 317,-29 322.16,-22.57 329.21,-18.15 336.89,-15.14"/>
<polygon fill="midnightblue" stroke="midnightblue" points="275.95,-1017.45 270.23,-1026.37 280.26,-1022.97 275.95,-1017.45"/>
</g>
</g>
</svg>
