<?xml version="1.0" encoding="UTF-8" standalone="no"?>
<!DOCTYPE svg PUBLIC "-//W3C//DTD SVG 1.1//EN"
 "http://www.w3.org/Graphics/SVG/1.1/DTD/svg11.dtd">
<!-- Generated by graphviz version 7.0.0 (20221023.0053)
 -->
<!-- Title: Graphical Class Hierarchy Pages: 1 -->
<svg width="437pt" height="2025pt"
 viewBox="0.00 0.00 437.00 2025.00" xmlns="http://www.w3.org/2000/svg" xmlns:xlink="http://www.w3.org/1999/xlink">
<g id="graph0" class="graph" transform="scale(1 1) rotate(0) translate(4 2021)">
<title>Graphical Class Hierarchy</title>
<!-- Node0 -->
<g id="node1" class="node">
<title>Node0</title>
<g id="a_node1"><a xlink:title=" ">
<polygon fill="#e0e0e0" stroke="#999999" points="99,-1004.5 0,-1004.5 0,-974.5 99,-974.5 99,-1004.5"/>
<text text-anchor="start" x="8" y="-992.5" font-family="Helvetica,sans-Serif" font-size="10.00">std::enable_shared</text>
<text text-anchor="middle" x="49.5" y="-981.5" font-family="Helvetica,sans-Serif" font-size="10.00">_from_this</text>
</a>
</g>
</g>
<!-- Node1 -->
<g id="node2" class="node">
<title>Node1</title>
<g id="a_node2"><a xlink:href="classtriton_1_1ast_1_1AbstractNode.html" target="_top" xlink:title="Abstract node.">
<polygon fill="white" stroke="#666666" points="259,-1018 135,-1018 135,-999 259,-999 259,-1018"/>
<text text-anchor="middle" x="197" y="-1006" font-family="Helvetica,sans-Serif" font-size="10.00">triton::ast::AbstractNode</text>
</a>
</g>
</g>
<!-- Node0&#45;&gt;Node1 -->
<g id="edge1" class="edge">
<title>Node0&#45;&gt;Node1</title>
<path fill="none" stroke="#63b8ff" d="M110.72,-997.36C118.61,-998.39 126.7,-999.45 134.61,-1000.48"/>
<polygon fill="#63b8ff" stroke="#63b8ff" points="111.22,-993.9 100.85,-996.08 110.32,-1000.84 111.22,-993.9"/>
</g>
<!-- Node57 -->
<g id="node58" class="node">
<title>Node57</title>
<g id="a_node58"><a xlink:href="classtriton_1_1ast_1_1AstContext.html" target="_top" xlink:title="AST Context &#45; Used as AST builder.">
<polygon fill="white" stroke="#666666" points="253.5,-981 140.5,-981 140.5,-962 253.5,-962 253.5,-981"/>
<text text-anchor="middle" x="197" y="-969" font-family="Helvetica,sans-Serif" font-size="10.00">triton::ast::AstContext</text>
</a>
</g>
</g>
<!-- Node0&#45;&gt;Node57 -->
<g id="edge57" class="edge">
<title>Node0&#45;&gt;Node57</title>
<path fill="none" stroke="#63b8ff" d="M110.66,-982.06C120.46,-980.85 130.56,-979.6 140.25,-978.4"/>
<polygon fill="#63b8ff" stroke="#63b8ff" points="110.35,-978.57 100.86,-983.27 111.21,-985.52 110.35,-978.57"/>
</g>
<!-- Node2 -->
<g id="node3" class="node">
<title>Node2</title>
<g id="a_node3"><a xlink:href="classtriton_1_1ast_1_1ArrayNode.html" target="_top" xlink:title="(Array (_ BitVec indexSize) (_ BitVec 8)) node">
<polygon fill="white" stroke="#666666" points="417,-2017 307,-2017 307,-1998 417,-1998 417,-2017"/>
<text text-anchor="middle" x="362" y="-2005" font-family="Helvetica,sans-Serif" font-size="10.00">triton::ast::ArrayNode</text>
</a>
</g>
</g>
<!-- Node1&#45;&gt;Node2 -->
<g id="edge2" class="edge">
<title>Node1&#45;&gt;Node2</title>
<path fill="none" stroke="#63b8ff" d="M198.66,-1029.44C203.15,-1164.83 230.73,-1913.44 295,-1989.5 298.3,-1993.4 302.35,-1996.5 306.81,-1998.95"/>
<polygon fill="#63b8ff" stroke="#63b8ff" points="202.18,-1029.68 198.35,-1019.8 195.18,-1029.91 202.18,-1029.68"/>
</g>
<!-- Node3 -->
<g id="node4" class="node">
<title>Node3</title>
<g id="a_node4"><a xlink:href="classtriton_1_1ast_1_1AssertNode.html" target="_top" xlink:title="(assert &lt;expr&gt;) node">
<polygon fill="white" stroke="#666666" points="420,-1980 304,-1980 304,-1961 420,-1961 420,-1980"/>
<text text-anchor="middle" x="362" y="-1968" font-family="Helvetica,sans-Serif" font-size="10.00">triton::ast::AssertNode</text>
</a>
</g>
</g>
<!-- Node1&#45;&gt;Node3 -->
<g id="edge3" class="edge">
<title>Node1&#45;&gt;Node3</title>
<path fill="none" stroke="#63b8ff" d="M198.75,-1029.46C203.68,-1161.9 233.12,-1879.55 295,-1952.5 297.69,-1955.67 300.88,-1958.31 304.38,-1960.5"/>
<polygon fill="#63b8ff" stroke="#63b8ff" points="202.26,-1029.6 198.4,-1019.73 195.26,-1029.85 202.26,-1029.6"/>
</g>
<!-- Node4 -->
<g id="node5" class="node">
<title>Node4</title>
<g id="a_node5"><a xlink:href="classtriton_1_1ast_1_1BswapNode.html" target="_top" xlink:title="(bswap &lt;expr&gt;) node">
<polygon fill="white" stroke="#666666" points="420.5,-1943 303.5,-1943 303.5,-1924 420.5,-1924 420.5,-1943"/>
<text text-anchor="middle" x="362" y="-1931" font-family="Helvetica,sans-Serif" font-size="10.00">triton::ast::BswapNode</text>
</a>
</g>
</g>
<!-- Node1&#45;&gt;Node4 -->
<g id="edge4" class="edge">
<title>Node1&#45;&gt;Node4</title>
<path fill="none" stroke="#63b8ff" d="M198.86,-1029.83C204.29,-1160.16 235.56,-1845.71 295,-1915.5 297.77,-1918.75 301.07,-1921.45 304.69,-1923.68"/>
<polygon fill="#63b8ff" stroke="#63b8ff" points="202.36,-1029.78 198.45,-1019.93 195.37,-1030.07 202.36,-1029.78"/>
</g>
<!-- Node5 -->
<g id="node6" class="node">
<title>Node5</title>
<g id="a_node6"><a xlink:href="classtriton_1_1ast_1_1BvNode.html" target="_top" xlink:title="(_ bv&lt;value&gt; &lt;size&gt;) node">
<polygon fill="white" stroke="#666666" points="411.5,-1906 312.5,-1906 312.5,-1887 411.5,-1887 411.5,-1906"/>
<text text-anchor="middle" x="362" y="-1894" font-family="Helvetica,sans-Serif" font-size="10.00">triton::ast::BvNode</text>
</a>
</g>
</g>
<!-- Node1&#45;&gt;Node5 -->
<g id="edge5" class="edge">
<title>Node1&#45;&gt;Node5</title>
<path fill="none" stroke="#63b8ff" d="M198.96,-1029.74C204.85,-1156.69 237.92,-1811.79 295,-1878.5 299.63,-1883.91 305.72,-1887.78 312.32,-1890.52"/>
<polygon fill="#63b8ff" stroke="#63b8ff" points="202.46,-1029.64 198.5,-1019.81 195.46,-1029.96 202.46,-1029.64"/>
</g>
<!-- Node6 -->
<g id="node7" class="node">
<title>Node6</title>
<g id="a_node7"><a xlink:href="classtriton_1_1ast_1_1BvaddNode.html" target="_top" xlink:title="(bvadd &lt;expr1&gt; &lt;expr2&gt;) node">
<polygon fill="white" stroke="#666666" points="419.5,-1869 304.5,-1869 304.5,-1850 419.5,-1850 419.5,-1869"/>
<text text-anchor="middle" x="362" y="-1857" font-family="Helvetica,sans-Serif" font-size="10.00">triton::ast::BvaddNode</text>
</a>
</g>
</g>
<!-- Node1&#45;&gt;Node6 -->
<g id="edge6" class="edge">
<title>Node1&#45;&gt;Node6</title>
<path fill="none" stroke="#63b8ff" d="M199.06,-1029.61C205.44,-1153.03 240.28,-1777.86 295,-1841.5 297.79,-1844.74 301.1,-1847.43 304.72,-1849.65"/>
<polygon fill="#63b8ff" stroke="#63b8ff" points="202.57,-1029.76 198.57,-1019.95 195.58,-1030.12 202.57,-1029.76"/>
</g>
<!-- Node7 -->
<g id="node8" class="node">
<title>Node7</title>
<g id="a_node8"><a xlink:href="classtriton_1_1ast_1_1BvandNode.html" target="_top" xlink:title="(bvand &lt;expr1&gt; &lt;expr2&gt;) node">
<polygon fill="white" stroke="#666666" points="419.5,-1832 304.5,-1832 304.5,-1813 419.5,-1813 419.5,-1832"/>
<text text-anchor="middle" x="362" y="-1820" font-family="Helvetica,sans-Serif" font-size="10.00">triton::ast::BvandNode</text>
</a>
</g>
</g>
<!-- Node1&#45;&gt;Node7 -->
<g id="edge7" class="edge">
<title>Node1&#45;&gt;Node7</title>
<path fill="none" stroke="#63b8ff" d="M199.17,-1029.41C206.03,-1149.08 242.62,-1743.91 295,-1804.5 297.8,-1807.73 301.11,-1810.42 304.74,-1812.63"/>
<polygon fill="#63b8ff" stroke="#63b8ff" points="202.68,-1029.57 198.62,-1019.78 195.69,-1029.96 202.68,-1029.57"/>
</g>
<!-- Node8 -->
<g id="node9" class="node">
<title>Node8</title>
<g id="a_node9"><a xlink:href="classtriton_1_1ast_1_1BvashrNode.html" target="_top" xlink:title="(bvashr &lt;expr1&gt; &lt;expr2&gt;) node">
<polygon fill="white" stroke="#666666" points="421,-1795 303,-1795 303,-1776 421,-1776 421,-1795"/>
<text text-anchor="middle" x="362" y="-1783" font-family="Helvetica,sans-Serif" font-size="10.00">triton::ast::BvashrNode</text>
</a>
</g>
</g>
<!-- Node1&#45;&gt;Node8 -->
<g id="edge8" class="edge">
<title>Node1&#45;&gt;Node8</title>
<path fill="none" stroke="#63b8ff" d="M197.66,-1029.69C196.32,-1140.57 195.63,-1653.24 295,-1767.5 297.81,-1770.73 301.13,-1773.4 304.77,-1775.62"/>
<polygon fill="#63b8ff" stroke="#63b8ff" points="201.16,-1030.02 197.8,-1019.97 194.16,-1029.92 201.16,-1030.02"/>
</g>
<!-- Node9 -->
<g id="node10" class="node">
<title>Node9</title>
<g id="a_node10"><a xlink:href="classtriton_1_1ast_1_1BvlshrNode.html" target="_top" xlink:title="(bvlshr &lt;expr1&gt; &lt;expr2&gt;) node">
<polygon fill="white" stroke="#666666" points="419.5,-1758 304.5,-1758 304.5,-1739 419.5,-1739 419.5,-1758"/>
<text text-anchor="middle" x="362" y="-1746" font-family="Helvetica,sans-Serif" font-size="10.00">triton::ast::BvlshrNode</text>
</a>
</g>
</g>
<!-- Node1&#45;&gt;Node9 -->
<g id="edge9" class="edge">
<title>Node1&#45;&gt;Node9</title>
<path fill="none" stroke="#63b8ff" d="M197.81,-1029.67C197.3,-1137.23 200.34,-1622.37 295,-1730.5 297.82,-1733.72 301.15,-1736.39 304.79,-1738.6"/>
<polygon fill="#63b8ff" stroke="#63b8ff" points="201.31,-1030.01 197.88,-1019.98 194.31,-1029.96 201.31,-1030.01"/>
</g>
<!-- Node10 -->
<g id="node11" class="node">
<title>Node10</title>
<g id="a_node11"><a xlink:href="classtriton_1_1ast_1_1BvmulNode.html" target="_top" xlink:title="(bvmul &lt;expr1&gt; &lt;expr2&gt;) node">
<polygon fill="white" stroke="#666666" points="419.5,-1721 304.5,-1721 304.5,-1702 419.5,-1702 419.5,-1721"/>
<text text-anchor="middle" x="362" y="-1709" font-family="Helvetica,sans-Serif" font-size="10.00">triton::ast::BvmulNode</text>
</a>
</g>
</g>
<!-- Node1&#45;&gt;Node10 -->
<g id="edge10" class="edge">
<title>Node1&#45;&gt;Node10</title>
<path fill="none" stroke="#63b8ff" d="M197.98,-1029.88C198.35,-1134.49 205.11,-1591.55 295,-1693.5 297.83,-1696.71 301.17,-1699.37 304.81,-1701.57"/>
<polygon fill="#63b8ff" stroke="#63b8ff" points="201.48,-1029.95 197.97,-1019.96 194.48,-1029.96 201.48,-1029.95"/>
</g>
<!-- Node11 -->
<g id="node12" class="node">
<title>Node11</title>
<g id="a_node12"><a xlink:href="classtriton_1_1ast_1_1BvnandNode.html" target="_top" xlink:title="(bvnand &lt;expr1&gt; &lt;expr2&gt;) node">
<polygon fill="white" stroke="#666666" points="422,-1684 302,-1684 302,-1665 422,-1665 422,-1684"/>
<text text-anchor="middle" x="362" y="-1672" font-family="Helvetica,sans-Serif" font-size="10.00">triton::ast::BvnandNode</text>
</a>
</g>
</g>
<!-- Node1&#45;&gt;Node11 -->
<g id="edge11" class="edge">
<title>Node1&#45;&gt;Node11</title>
<path fill="none" stroke="#63b8ff" d="M198.17,-1029.67C199.42,-1130.44 209.76,-1560.59 295,-1656.5 297.84,-1659.7 301.19,-1662.35 304.84,-1664.55"/>
<polygon fill="#63b8ff" stroke="#63b8ff" points="201.67,-1029.85 198.07,-1019.89 194.68,-1029.92 201.67,-1029.85"/>
</g>
<!-- Node12 -->
<g id="node13" class="node">
<title>Node12</title>
<g id="a_node13"><a xlink:href="classtriton_1_1ast_1_1BvnegNode.html" target="_top" xlink:title="(bvneg &lt;expr&gt;) node">
<polygon fill="white" stroke="#666666" points="419.5,-1647 304.5,-1647 304.5,-1628 419.5,-1628 419.5,-1647"/>
<text text-anchor="middle" x="362" y="-1635" font-family="Helvetica,sans-Serif" font-size="10.00">triton::ast::BvnegNode</text>
</a>
</g>
</g>
<!-- Node1&#45;&gt;Node12 -->
<g id="edge12" class="edge">
<title>Node1&#45;&gt;Node12</title>
<path fill="none" stroke="#63b8ff" d="M198.38,-1029.67C200.57,-1126.9 214.45,-1529.67 295,-1619.5 297.85,-1622.68 301.21,-1625.33 304.87,-1627.52"/>
<polygon fill="#63b8ff" stroke="#63b8ff" points="201.88,-1029.7 198.18,-1019.78 194.89,-1029.85 201.88,-1029.7"/>
</g>
<!-- Node13 -->
<g id="node14" class="node">
<title>Node13</title>
<g id="a_node14"><a xlink:href="classtriton_1_1ast_1_1BvnorNode.html" target="_top" xlink:title="(bvnor &lt;expr1&gt; &lt;expr2&gt;) node">
<polygon fill="white" stroke="#666666" points="418.5,-1610 305.5,-1610 305.5,-1591 418.5,-1591 418.5,-1610"/>
<text text-anchor="middle" x="362" y="-1598" font-family="Helvetica,sans-Serif" font-size="10.00">triton::ast::BvnorNode</text>
</a>
</g>
</g>
<!-- Node1&#45;&gt;Node13 -->
<g id="edge13" class="edge">
<title>Node1&#45;&gt;Node13</title>
<path fill="none" stroke="#63b8ff" d="M198.62,-1029.56C201.78,-1122.94 219.1,-1498.7 295,-1582.5 297.95,-1585.76 301.43,-1588.45 305.21,-1590.67"/>
<polygon fill="#63b8ff" stroke="#63b8ff" points="202.12,-1029.5 198.3,-1019.62 195.12,-1029.73 202.12,-1029.5"/>
</g>
<!-- Node14 -->
<g id="node15" class="node">
<title>Node14</title>
<g id="a_node15"><a xlink:href="classtriton_1_1ast_1_1BvnotNode.html" target="_top" xlink:title="(bvnot &lt;expr&gt;) node">
<polygon fill="white" stroke="#666666" points="418.5,-1573 305.5,-1573 305.5,-1554 418.5,-1554 418.5,-1573"/>
<text text-anchor="middle" x="362" y="-1561" font-family="Helvetica,sans-Serif" font-size="10.00">triton::ast::BvnotNode</text>
</a>
</g>
</g>
<!-- Node1&#45;&gt;Node14 -->
<g id="edge14" class="edge">
<title>Node1&#45;&gt;Node14</title>
<path fill="none" stroke="#63b8ff" d="M198.89,-1029.62C203.08,-1119.34 223.79,-1467.76 295,-1545.5 297.97,-1548.74 301.46,-1551.42 305.25,-1553.63"/>
<polygon fill="#63b8ff" stroke="#63b8ff" points="202.39,-1029.67 198.45,-1019.84 195.4,-1029.98 202.39,-1029.67"/>
</g>
<!-- Node15 -->
<g id="node16" class="node">
<title>Node15</title>
<g id="a_node16"><a xlink:href="classtriton_1_1ast_1_1BvorNode.html" target="_top" xlink:title="(bvor &lt;expr1&gt; &lt;expr2&gt;) node">
<polygon fill="white" stroke="#666666" points="415.5,-1536 308.5,-1536 308.5,-1517 415.5,-1517 415.5,-1536"/>
<text text-anchor="middle" x="362" y="-1524" font-family="Helvetica,sans-Serif" font-size="10.00">triton::ast::BvorNode</text>
</a>
</g>
</g>
<!-- Node1&#45;&gt;Node15 -->
<g id="edge15" class="edge">
<title>Node1&#45;&gt;Node15</title>
<path fill="none" stroke="#63b8ff" d="M199.21,-1029.79C204.5,-1115.86 228.49,-1436.83 295,-1508.5 298.72,-1512.5 303.23,-1515.65 308.13,-1518.12"/>
<polygon fill="#63b8ff" stroke="#63b8ff" points="202.71,-1029.75 198.62,-1019.97 195.72,-1030.16 202.71,-1029.75"/>
</g>
<!-- Node16 -->
<g id="node17" class="node">
<title>Node16</title>
<g id="a_node17"><a xlink:href="classtriton_1_1ast_1_1BvrolNode.html" target="_top" xlink:title="((_ rotate_left rot) &lt;expr&gt;) node">
<polygon fill="white" stroke="#666666" points="417,-1499 307,-1499 307,-1480 417,-1480 417,-1499"/>
<text text-anchor="middle" x="362" y="-1487" font-family="Helvetica,sans-Serif" font-size="10.00">triton::ast::BvrolNode</text>
</a>
</g>
</g>
<!-- Node1&#45;&gt;Node16 -->
<g id="edge16" class="edge">
<title>Node1&#45;&gt;Node16</title>
<path fill="none" stroke="#63b8ff" d="M199.54,-1029.5C205.94,-1111.09 233.06,-1405.74 295,-1471.5 298.34,-1475.04 302.3,-1477.92 306.6,-1480.24"/>
<polygon fill="#63b8ff" stroke="#63b8ff" points="203.04,-1029.33 198.79,-1019.63 196.06,-1029.86 203.04,-1029.33"/>
</g>
<!-- Node17 -->
<g id="node18" class="node">
<title>Node17</title>
<g id="a_node18"><a xlink:href="classtriton_1_1ast_1_1BvrorNode.html" target="_top" xlink:title="((_ rotate_right rot) &lt;expr&gt;) node">
<polygon fill="white" stroke="#666666" points="417,-1462 307,-1462 307,-1443 417,-1443 417,-1462"/>
<text text-anchor="middle" x="362" y="-1450" font-family="Helvetica,sans-Serif" font-size="10.00">triton::ast::BvrorNode</text>
</a>
</g>
</g>
<!-- Node1&#45;&gt;Node17 -->
<g id="edge17" class="edge">
<title>Node1&#45;&gt;Node17</title>
<path fill="none" stroke="#63b8ff" d="M199.96,-1029.56C207.58,-1107.02 237.7,-1374.72 295,-1434.5 298.37,-1438.02 302.35,-1440.87 306.67,-1443.18"/>
<polygon fill="#63b8ff" stroke="#63b8ff" points="203.48,-1029.59 199.04,-1019.97 196.51,-1030.25 203.48,-1029.59"/>
</g>
<!-- Node18 -->
<g id="node19" class="node">
<title>Node18</title>
<g id="a_node19"><a xlink:href="classtriton_1_1ast_1_1BvsdivNode.html" target="_top" xlink:title="(bvsdiv &lt;expr1&gt; &lt;expr2&gt;) node">
<polygon fill="white" stroke="#666666" points="420.5,-1425 303.5,-1425 303.5,-1406 420.5,-1406 420.5,-1425"/>
<text text-anchor="middle" x="362" y="-1413" font-family="Helvetica,sans-Serif" font-size="10.00">triton::ast::BvsdivNode</text>
</a>
</g>
</g>
<!-- Node1&#45;&gt;Node18 -->
<g id="edge18" class="edge">
<title>Node1&#45;&gt;Node18</title>
<path fill="none" stroke="#63b8ff" d="M200.45,-1029.58C209.36,-1102.66 242.31,-1343.64 295,-1397.5 298.16,-1400.73 301.83,-1403.39 305.8,-1405.59"/>
<polygon fill="#63b8ff" stroke="#63b8ff" points="203.95,-1029.32 199.29,-1019.81 197,-1030.15 203.95,-1029.32"/>
</g>
<!-- Node19 -->
<g id="node20" class="node">
<title>Node19</title>
<g id="a_node20"><a xlink:href="classtriton_1_1ast_1_1BvsgeNode.html" target="_top" xlink:title="(bvsge &lt;expr1&gt; &lt;expr2&gt;) node">
<polygon fill="white" stroke="#666666" points="419.5,-1388 304.5,-1388 304.5,-1369 419.5,-1369 419.5,-1388"/>
<text text-anchor="middle" x="362" y="-1376" font-family="Helvetica,sans-Serif" font-size="10.00">triton::ast::BvsgeNode</text>
</a>
</g>
</g>
<!-- Node1&#45;&gt;Node19 -->
<g id="edge19" class="edge">
<title>Node1&#45;&gt;Node19</title>
<path fill="none" stroke="#63b8ff" d="M201.07,-1029.76C211.39,-1098.42 246.93,-1312.56 295,-1360.5 298.2,-1363.69 301.9,-1366.32 305.88,-1368.51"/>
<polygon fill="#63b8ff" stroke="#63b8ff" points="204.53,-1029.26 199.61,-1019.88 197.61,-1030.28 204.53,-1029.26"/>
</g>
<!-- Node20 -->
<g id="node21" class="node">
<title>Node20</title>
<g id="a_node21"><a xlink:href="classtriton_1_1ast_1_1BvsgtNode.html" target="_top" xlink:title="(bvsgt &lt;expr1&gt; &lt;expr2&gt;) node">
<polygon fill="white" stroke="#666666" points="418.5,-1351 305.5,-1351 305.5,-1332 418.5,-1332 418.5,-1351"/>
<text text-anchor="middle" x="362" y="-1339" font-family="Helvetica,sans-Serif" font-size="10.00">triton::ast::BvsgtNode</text>
</a>
</g>
</g>
<!-- Node1&#45;&gt;Node20 -->
<g id="edge20" class="edge">
<title>Node1&#45;&gt;Node20</title>
<path fill="none" stroke="#63b8ff" d="M197.95,-1029.74C199.01,-1086.18 209.94,-1241.16 295,-1323.5 298.33,-1326.72 302.17,-1329.38 306.3,-1331.57"/>
<polygon fill="#63b8ff" stroke="#63b8ff" points="201.45,-1029.91 197.86,-1019.94 194.45,-1029.97 201.45,-1029.91"/>
</g>
<!-- Node21 -->
<g id="node22" class="node">
<title>Node21</title>
<g id="a_node22"><a xlink:href="classtriton_1_1ast_1_1BvshlNode.html" target="_top" xlink:title="(bvshl &lt;expr1&gt; &lt;expr2&gt;) node">
<polygon fill="white" stroke="#666666" points="418,-1314 306,-1314 306,-1295 418,-1295 418,-1314"/>
<text text-anchor="middle" x="362" y="-1302" font-family="Helvetica,sans-Serif" font-size="10.00">triton::ast::BvshlNode</text>
</a>
</g>
</g>
<!-- Node1&#45;&gt;Node21 -->
<g id="edge21" class="edge">
<title>Node1&#45;&gt;Node21</title>
<path fill="none" stroke="#63b8ff" d="M198.96,-1029.65C202.47,-1081.42 218.85,-1215.46 295,-1286.5 298.47,-1289.74 302.47,-1292.41 306.75,-1294.6"/>
<polygon fill="#63b8ff" stroke="#63b8ff" points="202.46,-1029.64 198.4,-1019.86 195.47,-1030.04 202.46,-1029.64"/>
</g>
<!-- Node22 -->
<g id="node23" class="node">
<title>Node22</title>
<g id="a_node23"><a xlink:href="classtriton_1_1ast_1_1BvsleNode.html" target="_top" xlink:title="(bvsle &lt;expr1&gt; &lt;expr2&gt;) node">
<polygon fill="white" stroke="#666666" points="418,-1277 306,-1277 306,-1258 418,-1258 418,-1277"/>
<text text-anchor="middle" x="362" y="-1265" font-family="Helvetica,sans-Serif" font-size="10.00">triton::ast::BvsleNode</text>
</a>
</g>
</g>
<!-- Node1&#45;&gt;Node22 -->
<g id="edge22" class="edge">
<title>Node1&#45;&gt;Node22</title>
<path fill="none" stroke="#63b8ff" d="M200.25,-1029.64C206.37,-1076.48 227.71,-1189.62 295,-1249.5 298.64,-1252.74 302.8,-1255.4 307.23,-1257.59"/>
<polygon fill="#63b8ff" stroke="#63b8ff" points="203.73,-1029.3 199.07,-1019.78 196.78,-1030.13 203.73,-1029.3"/>
</g>
<!-- Node23 -->
<g id="node24" class="node">
<title>Node23</title>
<g id="a_node24"><a xlink:href="classtriton_1_1ast_1_1BvsltNode.html" target="_top" xlink:title="(bvslt &lt;expr1&gt; &lt;expr2&gt;) node">
<polygon fill="white" stroke="#666666" points="417,-1240 307,-1240 307,-1221 417,-1221 417,-1240"/>
<text text-anchor="middle" x="362" y="-1228" font-family="Helvetica,sans-Serif" font-size="10.00">triton::ast::BvsltNode</text>
</a>
</g>
</g>
<!-- Node1&#45;&gt;Node23 -->
<g id="edge23" class="edge">
<title>Node1&#45;&gt;Node23</title>
<path fill="none" stroke="#63b8ff" d="M201.93,-1029.47C210.81,-1070.9 236.39,-1163.47 295,-1212.5 298.83,-1215.7 303.17,-1218.34 307.77,-1220.5"/>
<polygon fill="#63b8ff" stroke="#63b8ff" points="205.39,-1028.96 199.99,-1019.84 198.53,-1030.34 205.39,-1028.96"/>
</g>
<!-- Node24 -->
<g id="node25" class="node">
<title>Node24</title>
<g id="a_node25"><a xlink:href="classtriton_1_1ast_1_1BvsmodNode.html" target="_top" xlink:title="(bvsmod &lt;expr1&gt; &lt;expr2&gt;) node">
<polygon fill="white" stroke="#666666" points="423.5,-1203 300.5,-1203 300.5,-1184 423.5,-1184 423.5,-1203"/>
<text text-anchor="middle" x="362" y="-1191" font-family="Helvetica,sans-Serif" font-size="10.00">triton::ast::BvsmodNode</text>
</a>
</g>
</g>
<!-- Node1&#45;&gt;Node24 -->
<g id="edge24" class="edge">
<title>Node1&#45;&gt;Node24</title>
<path fill="none" stroke="#63b8ff" d="M204.18,-1029.04C215.91,-1064.45 244.83,-1136.93 295,-1175.5 299.24,-1178.76 304.02,-1181.43 309.04,-1183.61"/>
<polygon fill="#63b8ff" stroke="#63b8ff" points="207.55,-1028.09 201.2,-1019.61 200.88,-1030.2 207.55,-1028.09"/>
</g>
<!-- Node25 -->
<g id="node26" class="node">
<title>Node25</title>
<g id="a_node26"><a xlink:href="classtriton_1_1ast_1_1BvsremNode.html" target="_top" xlink:title="(bvsrem &lt;expr1&gt; &lt;expr2&gt;) node">
<polygon fill="white" stroke="#666666" points="422.5,-1166 301.5,-1166 301.5,-1147 422.5,-1147 422.5,-1166"/>
<text text-anchor="middle" x="362" y="-1154" font-family="Helvetica,sans-Serif" font-size="10.00">triton::ast::BvsremNode</text>
</a>
</g>
</g>
<!-- Node1&#45;&gt;Node25 -->
<g id="edge25" class="edge">
<title>Node1&#45;&gt;Node25</title>
<path fill="none" stroke="#63b8ff" d="M207.47,-1028.48C222.14,-1057.23 253.09,-1109.95 295,-1138.5 299.71,-1141.71 304.98,-1144.35 310.42,-1146.52"/>
<polygon fill="#63b8ff" stroke="#63b8ff" points="210.74,-1027.19 203.17,-1019.77 204.46,-1030.28 210.74,-1027.19"/>
</g>
<!-- Node26 -->
<g id="node27" class="node">
<title>Node26</title>
<g id="a_node27"><a xlink:href="classtriton_1_1ast_1_1BvsubNode.html" target="_top" xlink:title="(bvsub &lt;expr1&gt; &lt;expr2&gt;) node">
<polygon fill="white" stroke="#666666" points="419.5,-1129 304.5,-1129 304.5,-1110 419.5,-1110 419.5,-1129"/>
<text text-anchor="middle" x="362" y="-1117" font-family="Helvetica,sans-Serif" font-size="10.00">triton::ast::BvsubNode</text>
</a>
</g>
</g>
<!-- Node1&#45;&gt;Node26 -->
<g id="edge26" class="edge">
<title>Node1&#45;&gt;Node26</title>
<path fill="none" stroke="#63b8ff" d="M212.58,-1027.26C229.97,-1048.38 261,-1082.25 295,-1101.5 300.68,-1104.72 306.97,-1107.39 313.34,-1109.59"/>
<polygon fill="#63b8ff" stroke="#63b8ff" points="215.32,-1025.09 206.33,-1019.48 209.86,-1029.47 215.32,-1025.09"/>
</g>
<!-- Node27 -->
<g id="node28" class="node">
<title>Node27</title>
<g id="a_node28"><a xlink:href="classtriton_1_1ast_1_1BvudivNode.html" target="_top" xlink:title="(bvudiv &lt;expr1&gt; &lt;expr2&gt;) node">
<polygon fill="white" stroke="#666666" points="420.5,-1092 303.5,-1092 303.5,-1073 420.5,-1073 420.5,-1092"/>
<text text-anchor="middle" x="362" y="-1080" font-family="Helvetica,sans-Serif" font-size="10.00">triton::ast::BvudivNode</text>
</a>
</g>
</g>
<!-- Node1&#45;&gt;Node27 -->
<g id="edge27" class="edge">
<title>Node1&#45;&gt;Node27</title>
<path fill="none" stroke="#63b8ff" d="M221.9,-1024.63C241.01,-1036.95 268.83,-1053.59 295,-1064.5 302.34,-1067.56 310.37,-1070.25 318.21,-1072.56"/>
<polygon fill="#63b8ff" stroke="#63b8ff" points="224.05,-1021.86 213.77,-1019.3 220.22,-1027.71 224.05,-1021.86"/>
</g>
<!-- Node28 -->
<g id="node29" class="node">
<title>Node28</title>
<g id="a_node29"><a xlink:href="classtriton_1_1ast_1_1BvugeNode.html" target="_top" xlink:title="(bvuge &lt;expr1&gt; &lt;expr2&gt;) node">
<polygon fill="white" stroke="#666666" points="419.5,-1055 304.5,-1055 304.5,-1036 419.5,-1036 419.5,-1055"/>
<text text-anchor="middle" x="362" y="-1043" font-family="Helvetica,sans-Serif" font-size="10.00">triton::ast::BvugeNode</text>
</a>
</g>
</g>
<!-- Node1&#45;&gt;Node28 -->
<g id="edge28" class="edge">
<title>Node1&#45;&gt;Node28</title>
<path fill="none" stroke="#63b8ff" d="M252.7,-1020.92C273.7,-1025.68 297.36,-1031.05 317.2,-1035.56"/>
<polygon fill="#63b8ff" stroke="#63b8ff" points="253.68,-1017.55 243.16,-1018.75 252.13,-1024.38 253.68,-1017.55"/>
</g>
<!-- Node29 -->
<g id="node30" class="node">
<title>Node29</title>
<g id="a_node30"><a xlink:href="classtriton_1_1ast_1_1BvugtNode.html" target="_top" xlink:title="(bvugt &lt;expr1&gt; &lt;expr2&gt;) node">
<polygon fill="white" stroke="#666666" points="418.5,-1018 305.5,-1018 305.5,-999 418.5,-999 418.5,-1018"/>
<text text-anchor="middle" x="362" y="-1006" font-family="Helvetica,sans-Serif" font-size="10.00">triton::ast::BvugtNode</text>
</a>
</g>
</g>
<!-- Node1&#45;&gt;Node29 -->
<g id="edge29" class="edge">
<title>Node1&#45;&gt;Node29</title>
<path fill="none" stroke="#63b8ff" d="M270.62,-1008.5C282.21,-1008.5 294.03,-1008.5 305.14,-1008.5"/>
<polygon fill="#63b8ff" stroke="#63b8ff" points="270.67,-1005 260.67,-1008.5 270.67,-1012 270.67,-1005"/>
</g>
<!-- Node30 -->
<g id="node31" class="node">
<title>Node30</title>
<g id="a_node31"><a xlink:href="classtriton_1_1ast_1_1BvuleNode.html" target="_top" xlink:title="(bvule &lt;expr1&gt; &lt;expr2&gt;) node">
<polygon fill="white" stroke="#666666" points="418,-981 306,-981 306,-962 418,-962 418,-981"/>
<text text-anchor="middle" x="362" y="-969" font-family="Helvetica,sans-Serif" font-size="10.00">triton::ast::BvuleNode</text>
</a>
</g>
</g>
<!-- Node1&#45;&gt;Node30 -->
<g id="edge30" class="edge">
<title>Node1&#45;&gt;Node30</title>
<path fill="none" stroke="#63b8ff" d="M252.7,-996.08C273.7,-991.32 297.36,-985.95 317.2,-981.44"/>
<polygon fill="#63b8ff" stroke="#63b8ff" points="252.13,-992.62 243.16,-998.25 253.68,-999.45 252.13,-992.62"/>
</g>
<!-- Node31 -->
<g id="node32" class="node">
<title>Node31</title>
<g id="a_node32"><a xlink:href="classtriton_1_1ast_1_1BvultNode.html" target="_top" xlink:title="(bvult &lt;expr1&gt; &lt;expr2&gt;) node">
<polygon fill="white" stroke="#666666" points="417,-944 307,-944 307,-925 417,-925 417,-944"/>
<text text-anchor="middle" x="362" y="-932" font-family="Helvetica,sans-Serif" font-size="10.00">triton::ast::BvultNode</text>
</a>
</g>
</g>
<!-- Node1&#45;&gt;Node31 -->
<g id="edge31" class="edge">
<title>Node1&#45;&gt;Node31</title>
<path fill="none" stroke="#63b8ff" d="M252.28,-994.13C254.6,-993.01 256.85,-991.8 259,-990.5 278.64,-978.64 275.32,-965.29 295,-953.5 301.14,-949.82 308.02,-946.83 314.97,-944.39"/>
<polygon fill="#63b8ff" stroke="#63b8ff" points="251.07,-990.85 243.22,-997.97 253.79,-997.3 251.07,-990.85"/>
</g>
<!-- Node32 -->
<g id="node33" class="node">
<title>Node32</title>
<g id="a_node33"><a xlink:href="classtriton_1_1ast_1_1BvuremNode.html" target="_top" xlink:title="(bvurem &lt;expr1&gt; &lt;expr2&gt;) node">
<polygon fill="white" stroke="#666666" points="422.5,-907 301.5,-907 301.5,-888 422.5,-888 422.5,-907"/>
<text text-anchor="middle" x="362" y="-895" font-family="Helvetica,sans-Serif" font-size="10.00">triton::ast::BvuremNode</text>
</a>
</g>
</g>
<!-- Node1&#45;&gt;Node32 -->
<g id="edge32" class="edge">
<title>Node1&#45;&gt;Node32</title>
<path fill="none" stroke="#63b8ff" d="M256.06,-992.8C257.07,-992.07 258.05,-991.3 259,-990.5 286.92,-966.87 267.01,-940.04 295,-916.5 299.38,-912.82 304.44,-909.85 309.77,-907.45"/>
<polygon fill="#63b8ff" stroke="#63b8ff" points="254.45,-989.68 247.59,-997.75 257.99,-995.73 254.45,-989.68"/>
</g>
<!-- Node33 -->
<g id="node34" class="node">
<title>Node33</title>
<g id="a_node34"><a xlink:href="classtriton_1_1ast_1_1BvxnorNode.html" target="_top" xlink:title="(bvxnor &lt;expr1&gt; &lt;expr2&gt;) node">
<polygon fill="white" stroke="#666666" points="421,-870 303,-870 303,-851 421,-851 421,-870"/>
<text text-anchor="middle" x="362" y="-858" font-family="Helvetica,sans-Serif" font-size="10.00">triton::ast::BvxnorNode</text>
</a>
</g>
</g>
<!-- Node1&#45;&gt;Node33 -->
<g id="edge33" class="edge">
<title>Node1&#45;&gt;Node33</title>
<path fill="none" stroke="#63b8ff" d="M257.07,-992.26C257.73,-991.69 258.38,-991.11 259,-990.5 296.16,-954.32 257.72,-915.56 295,-879.5 298.86,-875.77 303.4,-872.76 308.26,-870.34"/>
<polygon fill="#63b8ff" stroke="#63b8ff" points="255.26,-989.26 248.9,-997.73 259.16,-995.07 255.26,-989.26"/>
</g>
<!-- Node34 -->
<g id="node35" class="node">
<title>Node34</title>
<g id="a_node35"><a xlink:href="classtriton_1_1ast_1_1BvxorNode.html" target="_top" xlink:title="(bvxor &lt;expr1&gt; &lt;expr2&gt;) node">
<polygon fill="white" stroke="#666666" points="418.5,-833 305.5,-833 305.5,-814 418.5,-814 418.5,-833"/>
<text text-anchor="middle" x="362" y="-821" font-family="Helvetica,sans-Serif" font-size="10.00">triton::ast::BvxorNode</text>
</a>
</g>
</g>
<!-- Node1&#45;&gt;Node34 -->
<g id="edge34" class="edge">
<title>Node1&#45;&gt;Node34</title>
<path fill="none" stroke="#63b8ff" d="M257.53,-991.96C258.03,-991.49 258.52,-991 259,-990.5 305.7,-941.49 248.14,-891.36 295,-842.5 298.55,-838.8 302.77,-835.81 307.33,-833.39"/>
<polygon fill="#63b8ff" stroke="#63b8ff" points="255.76,-988.92 249.72,-997.62 259.87,-994.59 255.76,-988.92"/>
</g>
<!-- Node35 -->
<g id="node36" class="node">
<title>Node35</title>
<g id="a_node36"><a xlink:href="classtriton_1_1ast_1_1CompoundNode.html" target="_top" xlink:title="[&lt;expr1&gt; &lt;expr2&gt; &lt;expr3&gt; ...] node">
<polygon fill="white" stroke="#666666" points="429,-796 295,-796 295,-777 429,-777 429,-796"/>
<text text-anchor="middle" x="362" y="-784" font-family="Helvetica,sans-Serif" font-size="10.00">triton::ast::CompoundNode</text>
</a>
</g>
</g>
<!-- Node1&#45;&gt;Node35 -->
<g id="edge35" class="edge">
<title>Node1&#45;&gt;Node35</title>
<path fill="none" stroke="#63b8ff" d="M257.57,-991.99C258.06,-991.51 258.54,-991.01 259,-990.5 315.36,-928.53 238.44,-867.28 295,-805.5 298.38,-801.81 302.43,-798.81 306.84,-796.39"/>
<polygon fill="#63b8ff" stroke="#63b8ff" points="255.77,-988.96 249.86,-997.75 259.97,-994.57 255.77,-988.96"/>
</g>
<!-- Node36 -->
<g id="node37" class="node">
<title>Node36</title>
<g id="a_node37"><a xlink:href="classtriton_1_1ast_1_1ConcatNode.html" target="_top" xlink:title="(concat &lt;expr1&gt; &lt;expr2&gt; ...) node">
<polygon fill="white" stroke="#666666" points="421.5,-759 302.5,-759 302.5,-740 421.5,-740 421.5,-759"/>
<text text-anchor="middle" x="362" y="-747" font-family="Helvetica,sans-Serif" font-size="10.00">triton::ast::ConcatNode</text>
</a>
</g>
</g>
<!-- Node1&#45;&gt;Node36 -->
<g id="edge36" class="edge">
<title>Node1&#45;&gt;Node36</title>
<path fill="none" stroke="#63b8ff" d="M257.91,-991.69C258.28,-991.3 258.64,-990.9 259,-990.5 325.08,-915.51 228.67,-843.27 295,-768.5 298.24,-764.84 302.14,-761.87 306.4,-759.46"/>
<polygon fill="#63b8ff" stroke="#63b8ff" points="255.98,-988.75 250.24,-997.66 260.28,-994.27 255.98,-988.75"/>
</g>
<!-- Node37 -->
<g id="node38" class="node">
<title>Node37</title>
<g id="a_node38"><a xlink:href="classtriton_1_1ast_1_1DeclareNode.html" target="_top" xlink:title="(declare&#45;fun &lt;var_name&gt; () (_ BitVec &lt;var_size&gt;)) node">
<polygon fill="white" stroke="#666666" points="422.5,-722 301.5,-722 301.5,-703 422.5,-703 422.5,-722"/>
<text text-anchor="middle" x="362" y="-710" font-family="Helvetica,sans-Serif" font-size="10.00">triton::ast::DeclareNode</text>
</a>
</g>
</g>
<!-- Node1&#45;&gt;Node37 -->
<g id="edge37" class="edge">
<title>Node1&#45;&gt;Node37</title>
<path fill="none" stroke="#63b8ff" d="M257.92,-991.7C258.29,-991.31 258.65,-990.91 259,-990.5 334.84,-902.44 218.87,-819.31 295,-731.5 298.2,-727.81 302.07,-724.81 306.31,-722.38"/>
<polygon fill="#63b8ff" stroke="#63b8ff" points="255.98,-988.77 250.31,-997.72 260.33,-994.26 255.98,-988.77"/>
</g>
<!-- Node38 -->
<g id="node39" class="node">
<title>Node38</title>
<g id="a_node39"><a xlink:href="classtriton_1_1ast_1_1DistinctNode.html" target="_top" xlink:title="(distinct &lt;expr1&gt; &lt;expr2&gt; ...) node">
<polygon fill="white" stroke="#666666" points="422.5,-685 301.5,-685 301.5,-666 422.5,-666 422.5,-685"/>
<text text-anchor="middle" x="362" y="-673" font-family="Helvetica,sans-Serif" font-size="10.00">triton::ast::DistinctNode</text>
</a>
</g>
</g>
<!-- Node1&#45;&gt;Node38 -->
<g id="edge38" class="edge">
<title>Node1&#45;&gt;Node38</title>
<path fill="none" stroke="#63b8ff" d="M258.22,-991.39C258.49,-991.1 258.75,-990.8 259,-990.5 344.62,-889.35 209.04,-795.37 295,-694.5 298.17,-690.78 302.02,-687.76 306.25,-685.32"/>
<polygon fill="#63b8ff" stroke="#63b8ff" points="256.17,-988.54 250.64,-997.58 260.6,-993.96 256.17,-988.54"/>
</g>
<!-- Node39 -->
<g id="node40" class="node">
<title>Node39</title>
<g id="a_node40"><a xlink:href="classtriton_1_1ast_1_1EqualNode.html" target="_top" xlink:title="(= &lt;expr1&gt; &lt;expr2&gt; ...) node">
<polygon fill="white" stroke="#666666" points="418,-648 306,-648 306,-629 418,-629 418,-648"/>
<text text-anchor="middle" x="362" y="-636" font-family="Helvetica,sans-Serif" font-size="10.00">triton::ast::EqualNode</text>
</a>
</g>
</g>
<!-- Node1&#45;&gt;Node39 -->
<g id="edge39" class="edge">
<title>Node1&#45;&gt;Node39</title>
<path fill="none" stroke="#63b8ff" d="M258.23,-991.39C258.49,-991.1 258.75,-990.8 259,-990.5 354.42,-876.24 199.2,-771.44 295,-657.5 298.07,-653.85 301.79,-650.88 305.89,-648.46"/>
<polygon fill="#63b8ff" stroke="#63b8ff" points="256.17,-988.55 250.68,-997.62 260.63,-993.95 256.17,-988.55"/>
</g>
<!-- Node40 -->
<g id="node41" class="node">
<title>Node40</title>
<g id="a_node41"><a xlink:href="classtriton_1_1ast_1_1ExtractNode.html" target="_top" xlink:title="((_ extract &lt;high&gt; &lt;low&gt;) &lt;expr&gt;) node">
<polygon fill="white" stroke="#666666" points="421.5,-611 302.5,-611 302.5,-592 421.5,-592 421.5,-611"/>
<text text-anchor="middle" x="362" y="-599" font-family="Helvetica,sans-Serif" font-size="10.00">triton::ast::ExtractNode</text>
</a>
</g>
</g>
<!-- Node1&#45;&gt;Node40 -->
<g id="edge40" class="edge">
<title>Node1&#45;&gt;Node40</title>
<path fill="none" stroke="#63b8ff" d="M258.23,-991.4C258.49,-991.1 258.75,-990.8 259,-990.5 364.22,-863.12 189.35,-747.53 295,-620.5 298.05,-616.83 301.76,-613.85 305.84,-611.42"/>
<polygon fill="#63b8ff" stroke="#63b8ff" points="256.17,-988.56 250.72,-997.64 260.65,-993.94 256.17,-988.56"/>
</g>
<!-- Node41 -->
<g id="node42" class="node">
<title>Node41</title>
<g id="a_node42"><a xlink:href="classtriton_1_1ast_1_1ForallNode.html" target="_top" xlink:title="(forall ((x (_ BitVec &lt;size&gt;)), ...) body)">
<polygon fill="white" stroke="#666666" points="417.5,-574 306.5,-574 306.5,-555 417.5,-555 417.5,-574"/>
<text text-anchor="middle" x="362" y="-562" font-family="Helvetica,sans-Serif" font-size="10.00">triton::ast::ForallNode</text>
</a>
</g>
</g>
<!-- Node1&#45;&gt;Node41 -->
<g id="edge41" class="edge">
<title>Node1&#45;&gt;Node41</title>
<path fill="none" stroke="#63b8ff" d="M258.24,-991.4C258.5,-991.1 258.75,-990.8 259,-990.5 316.52,-920.24 237.25,-653.56 295,-583.5 298.11,-579.73 301.92,-576.68 306.12,-574.21"/>
<polygon fill="#63b8ff" stroke="#63b8ff" points="256.17,-988.56 250.75,-997.66 260.66,-993.93 256.17,-988.56"/>
</g>
<!-- Node42 -->
<g id="node43" class="node">
<title>Node42</title>
<g id="a_node43"><a xlink:href="classtriton_1_1ast_1_1IffNode.html" target="_top" xlink:title="(iff &lt;expr1&gt; &lt;expr2&gt;)">
<polygon fill="white" stroke="#666666" points="410,-537 314,-537 314,-518 410,-518 410,-537"/>
<text text-anchor="middle" x="362" y="-525" font-family="Helvetica,sans-Serif" font-size="10.00">triton::ast::IffNode</text>
</a>
</g>
</g>
<!-- Node1&#45;&gt;Node42 -->
<g id="edge42" class="edge">
<title>Node1&#45;&gt;Node42</title>
<path fill="none" stroke="#63b8ff" d="M258.24,-991.4C258.5,-991.11 258.75,-990.81 259,-990.5 321.43,-913.68 232.32,-623.12 295,-546.5 299.91,-540.5 306.58,-536.32 313.8,-533.43"/>
<polygon fill="#63b8ff" stroke="#63b8ff" points="256.17,-988.57 250.77,-997.68 260.68,-993.93 256.17,-988.57"/>
</g>
<!-- Node43 -->
<g id="node44" class="node">
<title>Node43</title>
<g id="a_node44"><a xlink:href="classtriton_1_1ast_1_1IntegerNode.html" target="_top" xlink:title="Integer node.">
<polygon fill="white" stroke="#666666" points="420.5,-500 303.5,-500 303.5,-481 420.5,-481 420.5,-500"/>
<text text-anchor="middle" x="362" y="-488" font-family="Helvetica,sans-Serif" font-size="10.00">triton::ast::IntegerNode</text>
</a>
</g>
</g>
<!-- Node1&#45;&gt;Node43 -->
<g id="edge43" class="edge">
<title>Node1&#45;&gt;Node43</title>
<path fill="none" stroke="#63b8ff" d="M258.24,-991.4C258.5,-991.11 258.75,-990.81 259,-990.5 326.34,-907.11 227.38,-592.67 295,-509.5 298.01,-505.8 301.69,-502.79 305.76,-500.35"/>
<polygon fill="#63b8ff" stroke="#63b8ff" points="256.17,-988.57 250.79,-997.7 260.69,-993.92 256.17,-988.57"/>
</g>
<!-- Node44 -->
<g id="node45" class="node">
<title>Node44</title>
<g id="a_node45"><a xlink:href="classtriton_1_1ast_1_1IteNode.html" target="_top" xlink:title="(ite &lt;ifExpr&gt; &lt;thenExpr&gt; &lt;elseExpr&gt;)">
<polygon fill="white" stroke="#666666" points="411,-463 313,-463 313,-444 411,-444 411,-463"/>
<text text-anchor="middle" x="362" y="-451" font-family="Helvetica,sans-Serif" font-size="10.00">triton::ast::IteNode</text>
</a>
</g>
</g>
<!-- Node1&#45;&gt;Node44 -->
<g id="edge44" class="edge">
<title>Node1&#45;&gt;Node44</title>
<path fill="none" stroke="#63b8ff" d="M258.51,-991.09C258.68,-990.9 258.84,-990.7 259,-990.5 331.25,-900.53 222.45,-562.23 295,-472.5 299.65,-466.75 305.92,-462.67 312.75,-459.79"/>
<polygon fill="#63b8ff" stroke="#63b8ff" points="256.35,-988.34 251.07,-997.52 260.93,-993.63 256.35,-988.34"/>
</g>
<!-- Node45 -->
<g id="node46" class="node">
<title>Node45</title>
<g id="a_node46"><a xlink:href="classtriton_1_1ast_1_1LandNode.html" target="_top" xlink:title="(and &lt;expr1&gt; &lt;expr2&gt;)">
<polygon fill="white" stroke="#666666" points="416,-426 308,-426 308,-407 416,-407 416,-426"/>
<text text-anchor="middle" x="362" y="-414" font-family="Helvetica,sans-Serif" font-size="10.00">triton::ast::LandNode</text>
</a>
</g>
</g>
<!-- Node1&#45;&gt;Node45 -->
<g id="edge45" class="edge">
<title>Node1&#45;&gt;Node45</title>
<path fill="none" stroke="#63b8ff" d="M258.52,-991.09C258.68,-990.9 258.84,-990.7 259,-990.5 336.17,-893.96 217.51,-531.79 295,-435.5 298.44,-431.23 302.77,-427.88 307.57,-425.25"/>
<polygon fill="#63b8ff" stroke="#63b8ff" points="256.35,-988.34 251.09,-997.53 260.94,-993.63 256.35,-988.34"/>
</g>
<!-- Node46 -->
<g id="node47" class="node">
<title>Node46</title>
<g id="a_node47"><a xlink:href="classtriton_1_1ast_1_1LetNode.html" target="_top" xlink:title="(let ((&lt;alias&gt; &lt;expr2&gt;)) &lt;expr3&gt;)">
<polygon fill="white" stroke="#666666" points="412.5,-389 311.5,-389 311.5,-370 412.5,-370 412.5,-389"/>
<text text-anchor="middle" x="362" y="-377" font-family="Helvetica,sans-Serif" font-size="10.00">triton::ast::LetNode</text>
</a>
</g>
</g>
<!-- Node1&#45;&gt;Node46 -->
<g id="edge46" class="edge">
<title>Node1&#45;&gt;Node46</title>
<path fill="none" stroke="#63b8ff" d="M258.52,-991.09C258.68,-990.9 258.84,-990.7 259,-990.5 341.08,-887.38 212.58,-501.35 295,-398.5 299.25,-393.2 304.88,-389.31 311.06,-386.48"/>
<polygon fill="#63b8ff" stroke="#63b8ff" points="256.35,-988.34 251.1,-997.54 260.94,-993.62 256.35,-988.34"/>
</g>
<!-- Node47 -->
<g id="node48" class="node">
<title>Node47</title>
<g id="a_node48"><a xlink:href="classtriton_1_1ast_1_1LnotNode.html" target="_top" xlink:title="(lnot &lt;expr&gt;)">
<polygon fill="white" stroke="#666666" points="415,-352 309,-352 309,-333 415,-333 415,-352"/>
<text text-anchor="middle" x="362" y="-340" font-family="Helvetica,sans-Serif" font-size="10.00">triton::ast::LnotNode</text>
</a>
</g>
</g>
<!-- Node1&#45;&gt;Node47 -->
<g id="edge47" class="edge">
<title>Node1&#45;&gt;Node47</title>
<path fill="none" stroke="#63b8ff" d="M258.52,-991.09C258.68,-990.9 258.84,-990.7 259,-990.5 346,-880.8 207.64,-470.91 295,-361.5 298.72,-356.84 303.5,-353.28 308.8,-350.56"/>
<polygon fill="#63b8ff" stroke="#63b8ff" points="256.35,-988.34 251.11,-997.55 260.95,-993.62 256.35,-988.34"/>
</g>
<!-- Node48 -->
<g id="node49" class="node">
<title>Node48</title>
<g id="a_node49"><a xlink:href="classtriton_1_1ast_1_1LorNode.html" target="_top" xlink:title="(or &lt;expr1&gt; &lt;expr2&gt;)">
<polygon fill="white" stroke="#666666" points="412.5,-315 311.5,-315 311.5,-296 412.5,-296 412.5,-315"/>
<text text-anchor="middle" x="362" y="-303" font-family="Helvetica,sans-Serif" font-size="10.00">triton::ast::LorNode</text>
</a>
</g>
</g>
<!-- Node1&#45;&gt;Node48 -->
<g id="edge48" class="edge">
<title>Node1&#45;&gt;Node48</title>
<path fill="none" stroke="#63b8ff" d="M258.52,-991.09C258.68,-990.9 258.84,-990.7 259,-990.5 350.92,-874.23 202.7,-440.47 295,-324.5 299.23,-319.18 304.85,-315.29 311.03,-312.45"/>
<polygon fill="#63b8ff" stroke="#63b8ff" points="256.35,-988.34 251.12,-997.56 260.96,-993.61 256.35,-988.34"/>
</g>
<!-- Node49 -->
<g id="node50" class="node">
<title>Node49</title>
<g id="a_node50"><a xlink:href="classtriton_1_1ast_1_1LxorNode.html" target="_top" xlink:title="(xor &lt;expr1&gt; &lt;expr2&gt;)">
<polygon fill="white" stroke="#666666" points="415,-278 309,-278 309,-259 415,-259 415,-278"/>
<text text-anchor="middle" x="362" y="-266" font-family="Helvetica,sans-Serif" font-size="10.00">triton::ast::LxorNode</text>
</a>
</g>
</g>
<!-- Node1&#45;&gt;Node49 -->
<g id="edge49" class="edge">
<title>Node1&#45;&gt;Node49</title>
<path fill="none" stroke="#63b8ff" d="M258.52,-991.1C258.68,-990.9 258.84,-990.7 259,-990.5 355.83,-867.65 197.76,-410.03 295,-287.5 298.71,-282.83 303.48,-279.26 308.77,-276.54"/>
<polygon fill="#63b8ff" stroke="#63b8ff" points="256.35,-988.34 251.13,-997.57 260.96,-993.61 256.35,-988.34"/>
</g>
<!-- Node50 -->
<g id="node51" class="node">
<title>Node50</title>
<g id="a_node51"><a xlink:href="classtriton_1_1ast_1_1ReferenceNode.html" target="_top" xlink:title="Reference node.">
<polygon fill="white" stroke="#666666" points="428,-241 296,-241 296,-222 428,-222 428,-241"/>
<text text-anchor="middle" x="362" y="-229" font-family="Helvetica,sans-Serif" font-size="10.00">triton::ast::ReferenceNode</text>
</a>
</g>
</g>
<!-- Node1&#45;&gt;Node50 -->
<g id="edge50" class="edge">
<title>Node1&#45;&gt;Node50</title>
<path fill="none" stroke="#63b8ff" d="M258.52,-991.1C258.68,-990.9 258.84,-990.7 259,-990.5 360.75,-861.07 192.82,-379.59 295,-250.5 297.89,-246.85 301.42,-243.88 305.35,-241.45"/>
<polygon fill="#63b8ff" stroke="#63b8ff" points="256.35,-988.35 251.14,-997.57 260.96,-993.61 256.35,-988.35"/>
</g>
<!-- Node51 -->
<g id="node52" class="node">
<title>Node51</title>
<g id="a_node52"><a xlink:href="classtriton_1_1ast_1_1SelectNode.html" target="_top" xlink:title="(select array index)">
<polygon fill="white" stroke="#666666" points="419.5,-204 304.5,-204 304.5,-185 419.5,-185 419.5,-204"/>
<text text-anchor="middle" x="362" y="-192" font-family="Helvetica,sans-Serif" font-size="10.00">triton::ast::SelectNode</text>
</a>
</g>
</g>
<!-- Node1&#45;&gt;Node51 -->
<g id="edge51" class="edge">
<title>Node1&#45;&gt;Node51</title>
<path fill="none" stroke="#63b8ff" d="M258.52,-991.1C258.68,-990.9 258.84,-990.7 259,-990.5 365.67,-854.49 187.88,-349.16 295,-213.5 297.88,-209.85 301.42,-206.87 305.34,-204.44"/>
<polygon fill="#63b8ff" stroke="#63b8ff" points="256.35,-988.35 251.15,-997.58 260.97,-993.6 256.35,-988.35"/>
</g>
<!-- Node52 -->
<g id="node53" class="node">
<title>Node52</title>
<g id="a_node53"><a xlink:href="classtriton_1_1ast_1_1StoreNode.html" target="_top" xlink:title="(store array index expr)">
<polygon fill="white" stroke="#666666" points="417,-167 307,-167 307,-148 417,-148 417,-167"/>
<text text-anchor="middle" x="362" y="-155" font-family="Helvetica,sans-Serif" font-size="10.00">triton::ast::StoreNode</text>
</a>
</g>
</g>
<!-- Node1&#45;&gt;Node52 -->
<g id="edge52" class="edge">
<title>Node1&#45;&gt;Node52</title>
<path fill="none" stroke="#63b8ff" d="M258.52,-991.1C258.68,-990.9 258.84,-990.7 259,-990.5 314.79,-919.2 238.97,-247.61 295,-176.5 298.17,-172.47 302.14,-169.26 306.55,-166.71"/>
<polygon fill="#63b8ff" stroke="#63b8ff" points="256.35,-988.35 251.15,-997.58 260.97,-993.6 256.35,-988.35"/>
</g>
<!-- Node53 -->
<g id="node54" class="node">
<title>Node53</title>
<g id="a_node54"><a xlink:href="classtriton_1_1ast_1_1StringNode.html" target="_top" xlink:title="String node.">
<polygon fill="white" stroke="#666666" points="418.5,-130 305.5,-130 305.5,-111 418.5,-111 418.5,-130"/>
<text text-anchor="middle" x="362" y="-118" font-family="Helvetica,sans-Serif" font-size="10.00">triton::ast::StringNode</text>
</a>
</g>
</g>
<!-- Node1&#45;&gt;Node53 -->
<g id="edge53" class="edge">
<title>Node1&#45;&gt;Node53</title>
<path fill="none" stroke="#63b8ff" d="M258.52,-991.1C258.68,-990.9 258.84,-990.7 259,-990.5 317.25,-915.91 236.5,-213.89 295,-139.5 297.87,-135.84 301.41,-132.86 305.32,-130.43"/>
<polygon fill="#63b8ff" stroke="#63b8ff" points="256.35,-988.35 251.16,-997.59 260.98,-993.6 256.35,-988.35"/>
</g>
<!-- Node54 -->
<g id="node55" class="node">
<title>Node54</title>
<g id="a_node55"><a xlink:href="classtriton_1_1ast_1_1SxNode.html" target="_top" xlink:title="((_ sign_extend sizeExt) &lt;expr&gt;) node">
<polygon fill="white" stroke="#666666" points="411.5,-93 312.5,-93 312.5,-74 411.5,-74 411.5,-93"/>
<text text-anchor="middle" x="362" y="-81" font-family="Helvetica,sans-Serif" font-size="10.00">triton::ast::SxNode</text>
</a>
</g>
</g>
<!-- Node1&#45;&gt;Node54 -->
<g id="edge54" class="edge">
<title>Node1&#45;&gt;Node54</title>
<path fill="none" stroke="#63b8ff" d="M258.52,-991.1C258.68,-990.9 258.84,-990.7 259,-990.5 319.71,-912.62 234.03,-180.18 295,-102.5 299.49,-96.78 305.59,-92.71 312.27,-89.82"/>
<polygon fill="#63b8ff" stroke="#63b8ff" points="256.35,-988.35 251.17,-997.59 260.98,-993.6 256.35,-988.35"/>
</g>
<!-- Node55 -->
<g id="node56" class="node">
<title>Node55</title>
<g id="a_node56"><a xlink:href="classtriton_1_1ast_1_1VariableNode.html" target="_top" xlink:title="Variable node.">
<polygon fill="white" stroke="#666666" points="423,-56 301,-56 301,-37 423,-37 423,-56"/>
<text text-anchor="middle" x="362" y="-44" font-family="Helvetica,sans-Serif" font-size="10.00">triton::ast::VariableNode</text>
</a>
</g>
</g>
<!-- Node1&#45;&gt;Node55 -->
<g id="edge55" class="edge">
<title>Node1&#45;&gt;Node55</title>
<path fill="none" stroke="#63b8ff" d="M258.52,-991.1C258.68,-990.9 258.84,-990.7 259,-990.5 322.17,-909.33 231.56,-146.46 295,-65.5 297.87,-61.84 301.39,-58.85 305.31,-56.42"/>
<polygon fill="#63b8ff" stroke="#63b8ff" points="256.35,-988.35 251.17,-997.6 260.98,-993.6 256.35,-988.35"/>
</g>
<!-- Node56 -->
<g id="node57" class="node">
<title>Node56</title>
<g id="a_node57"><a xlink:href="classtriton_1_1ast_1_1ZxNode.html" target="_top" xlink:title="((_ zero_extend sizeExt) &lt;expr&gt;) node">
<polygon fill="white" stroke="#666666" points="411,-19 313,-19 313,0 411,0 411,-19"/>
<text text-anchor="middle" x="362" y="-7" font-family="Helvetica,sans-Serif" font-size="10.00">triton::ast::ZxNode</text>
</a>
</g>
</g>
<!-- Node1&#45;&gt;Node56 -->
<g id="edge56" class="edge">
<title>Node1&#45;&gt;Node56</title>
<path fill="none" stroke="#63b8ff" d="M258.52,-991.1C258.68,-990.9 258.84,-990.7 259,-990.5 324.63,-906.04 229.09,-112.74 295,-28.5 299.56,-22.68 305.78,-18.56 312.59,-15.67"/>
<polygon fill="#63b8ff" stroke="#63b8ff" points="256.35,-988.35 251.18,-997.6 260.98,-993.59 256.35,-988.35"/>
</g>
</g>
</svg>
