<?xml version="1.0" encoding="UTF-8" standalone="no"?>
<!DOCTYPE svg PUBLIC "-//W3C//DTD SVG 1.1//EN"
 "http://www.w3.org/Graphics/SVG/1.1/DTD/svg11.dtd">
<!-- Generated by graphviz version 2.49.0 (20210828.1703)
 -->
<!-- Title: Graphical Class Hierarchy Pages: 1 -->
<svg width="752pt" height="789pt"
 viewBox="0.00 0.00 752.00 789.00" xmlns="http://www.w3.org/2000/svg" xmlns:xlink="http://www.w3.org/1999/xlink">
<g id="graph0" class="graph" transform="scale(1 1) rotate(0) translate(4 785)">
<title>Graphical Class Hierarchy</title>
<polygon fill="white" stroke="transparent" points="-4,4 -4,-785 748,-785 748,4 -4,4"/>
<!-- Node80 -->
<g id="node1" class="node">
<title>Node80</title>
<g id="a_node1"><a xlink:title=" ">
<polygon fill="white" stroke="#bfbfbf" points="0,-230 0,-249 86,-249 86,-230 0,-230"/>
<text text-anchor="middle" x="43" y="-237" font-family="Helvetica,sans-Serif" font-size="10.00">std::exception</text>
</a>
</g>
</g>
<!-- Node0 -->
<g id="node2" class="node">
<title>Node0</title>
<g id="a_node2"><a xlink:href="classtriton_1_1exceptions_1_1Exception.html" target="_top" xlink:title="The root class of all exceptions.">
<polygon fill="white" stroke="black" points="122,-224.5 122,-254.5 224,-254.5 224,-224.5 122,-224.5"/>
<text text-anchor="start" x="130" y="-242.5" font-family="Helvetica,sans-Serif" font-size="10.00">triton::exceptions</text>
<text text-anchor="middle" x="173" y="-231.5" font-family="Helvetica,sans-Serif" font-size="10.00">::Exception</text>
</a>
</g>
</g>
<!-- Node80&#45;&gt;Node0 -->
<g id="edge1" class="edge">
<title>Node80&#45;&gt;Node0</title>
<path fill="none" stroke="midnightblue" d="M96.34,-239.5C104.74,-239.5 113.42,-239.5 121.77,-239.5"/>
<polygon fill="midnightblue" stroke="midnightblue" points="96.27,-236 86.27,-239.5 96.27,-243 96.27,-236"/>
</g>
<!-- Node1 -->
<g id="node3" class="node">
<title>Node1</title>
<g id="a_node3"><a xlink:href="classtriton_1_1exceptions_1_1API.html" target="_top" xlink:title="The exception class used by the Triton&#39;s API.">
<polygon fill="white" stroke="black" points="260,-540 260,-559 384,-559 384,-540 260,-540"/>
<text text-anchor="middle" x="322" y="-547" font-family="Helvetica,sans-Serif" font-size="10.00">triton::exceptions::API</text>
</a>
</g>
</g>
<!-- Node0&#45;&gt;Node1 -->
<g id="edge2" class="edge">
<title>Node0&#45;&gt;Node1</title>
<path fill="none" stroke="midnightblue" d="M173.93,-264.67C175.19,-320.48 186.16,-455.57 260,-530.5 263.82,-534.37 268.4,-537.46 273.33,-539.91"/>
<polygon fill="midnightblue" stroke="midnightblue" points="177.43,-264.56 173.8,-254.61 170.43,-264.65 177.43,-264.56"/>
</g>
<!-- Node2 -->
<g id="node4" class="node">
<title>Node2</title>
<g id="a_node4"><a xlink:href="classtriton_1_1exceptions_1_1Architecture.html" target="_top" xlink:title="The exception class used by architectures.">
<polygon fill="white" stroke="black" points="271,-490.5 271,-520.5 373,-520.5 373,-490.5 271,-490.5"/>
<text text-anchor="start" x="279" y="-508.5" font-family="Helvetica,sans-Serif" font-size="10.00">triton::exceptions</text>
<text text-anchor="middle" x="322" y="-497.5" font-family="Helvetica,sans-Serif" font-size="10.00">::Architecture</text>
</a>
</g>
</g>
<!-- Node0&#45;&gt;Node2 -->
<g id="edge3" class="edge">
<title>Node0&#45;&gt;Node2</title>
<path fill="none" stroke="midnightblue" d="M187.2,-263.38C216.86,-317.06 288.12,-446 312.58,-490.27"/>
<polygon fill="midnightblue" stroke="midnightblue" points="190.22,-261.62 182.32,-254.56 184.1,-265.01 190.22,-261.62"/>
</g>
<!-- Node15 -->
<g id="node17" class="node">
<title>Node15</title>
<g id="a_node17"><a xlink:href="classtriton_1_1exceptions_1_1Ast.html" target="_top" xlink:title="The exception class used by all AST nodes.">
<polygon fill="white" stroke="black" points="260,-274 260,-293 384,-293 384,-274 260,-274"/>
<text text-anchor="middle" x="322" y="-281" font-family="Helvetica,sans-Serif" font-size="10.00">triton::exceptions::Ast</text>
</a>
</g>
</g>
<!-- Node0&#45;&gt;Node15 -->
<g id="edge16" class="edge">
<title>Node0&#45;&gt;Node15</title>
<path fill="none" stroke="midnightblue" d="M233.9,-257.43C252.77,-263.08 272.87,-269.09 289,-273.92"/>
<polygon fill="midnightblue" stroke="midnightblue" points="234.76,-254.03 224.18,-254.52 232.75,-260.74 234.76,-254.03"/>
</g>
<!-- Node18 -->
<g id="node20" class="node">
<title>Node18</title>
<g id="a_node20"><a xlink:href="classtriton_1_1exceptions_1_1Bindings.html" target="_top" xlink:title="The exception class used by bindings.">
<polygon fill="white" stroke="black" points="271,-224.5 271,-254.5 373,-254.5 373,-224.5 271,-224.5"/>
<text text-anchor="start" x="279" y="-242.5" font-family="Helvetica,sans-Serif" font-size="10.00">triton::exceptions</text>
<text text-anchor="middle" x="322" y="-231.5" font-family="Helvetica,sans-Serif" font-size="10.00">::Bindings</text>
</a>
</g>
</g>
<!-- Node0&#45;&gt;Node18 -->
<g id="edge19" class="edge">
<title>Node0&#45;&gt;Node18</title>
<path fill="none" stroke="midnightblue" d="M234.18,-239.5C246.26,-239.5 258.84,-239.5 270.55,-239.5"/>
<polygon fill="midnightblue" stroke="midnightblue" points="234.18,-236 224.18,-239.5 234.18,-243 234.18,-236"/>
</g>
<!-- Node19 -->
<g id="node21" class="node">
<title>Node19</title>
<g id="a_node21"><a xlink:href="classtriton_1_1exceptions_1_1Callbacks.html" target="_top" xlink:title="The exception class used by callbacks.">
<polygon fill="white" stroke="black" points="271,-175.5 271,-205.5 373,-205.5 373,-175.5 271,-175.5"/>
<text text-anchor="start" x="279" y="-193.5" font-family="Helvetica,sans-Serif" font-size="10.00">triton::exceptions</text>
<text text-anchor="middle" x="322" y="-182.5" font-family="Helvetica,sans-Serif" font-size="10.00">::Callbacks</text>
</a>
</g>
</g>
<!-- Node0&#45;&gt;Node19 -->
<g id="edge20" class="edge">
<title>Node0&#45;&gt;Node19</title>
<path fill="none" stroke="midnightblue" d="M229.22,-221.09C244.6,-215.97 261.12,-210.46 275.85,-205.55"/>
<polygon fill="midnightblue" stroke="midnightblue" points="227.68,-217.92 219.3,-224.4 229.9,-224.56 227.68,-217.92"/>
</g>
<!-- Node20 -->
<g id="node22" class="node">
<title>Node20</title>
<g id="a_node22"><a xlink:href="classtriton_1_1exceptions_1_1Engines.html" target="_top" xlink:title="The exception class used by all engines.">
<polygon fill="white" stroke="black" points="271,-124.5 271,-154.5 373,-154.5 373,-124.5 271,-124.5"/>
<text text-anchor="start" x="279" y="-142.5" font-family="Helvetica,sans-Serif" font-size="10.00">triton::exceptions</text>
<text text-anchor="middle" x="322" y="-131.5" font-family="Helvetica,sans-Serif" font-size="10.00">::Engines</text>
</a>
</g>
</g>
<!-- Node0&#45;&gt;Node20 -->
<g id="edge21" class="edge">
<title>Node0&#45;&gt;Node20</title>
<path fill="none" stroke="midnightblue" d="M196.64,-217.12C213.2,-201.56 236.76,-181.08 260,-166.5 266.97,-162.13 274.76,-158.11 282.39,-154.58"/>
<polygon fill="midnightblue" stroke="midnightblue" points="193.91,-214.88 189.1,-224.31 198.75,-219.94 193.91,-214.88"/>
</g>
<!-- Node31 -->
<g id="node33" class="node">
<title>Node31</title>
<g id="a_node33"><a xlink:href="classtriton_1_1exceptions_1_1PyCallbacks.html" target="_top" xlink:title=" ">
<polygon fill="white" stroke="black" points="271,-75.5 271,-105.5 373,-105.5 373,-75.5 271,-75.5"/>
<text text-anchor="start" x="279" y="-93.5" font-family="Helvetica,sans-Serif" font-size="10.00">triton::exceptions</text>
<text text-anchor="middle" x="322" y="-82.5" font-family="Helvetica,sans-Serif" font-size="10.00">::PyCallbacks</text>
</a>
</g>
</g>
<!-- Node0&#45;&gt;Node31 -->
<g id="edge32" class="edge">
<title>Node0&#45;&gt;Node31</title>
<path fill="none" stroke="midnightblue" d="M185.48,-215.11C199.55,-187.55 225.8,-142.97 260,-115.5 264.73,-111.7 270.11,-108.4 275.68,-105.56"/>
<polygon fill="midnightblue" stroke="midnightblue" points="182.16,-213.92 180.85,-224.43 188.43,-217.03 182.16,-213.92"/>
</g>
<!-- Node3 -->
<g id="node5" class="node">
<title>Node3</title>
<g id="a_node5"><a xlink:href="classtriton_1_1exceptions_1_1AArch64OperandProperties.html" target="_top" xlink:title="The exception class used by shift mode.">
<polygon fill="white" stroke="black" points="420,-750.5 420,-780.5 574,-780.5 574,-750.5 420,-750.5"/>
<text text-anchor="start" x="428" y="-768.5" font-family="Helvetica,sans-Serif" font-size="10.00">triton::exceptions</text>
<text text-anchor="middle" x="497" y="-757.5" font-family="Helvetica,sans-Serif" font-size="10.00">::AArch64OperandProperties</text>
</a>
</g>
</g>
<!-- Node2&#45;&gt;Node3 -->
<g id="edge4" class="edge">
<title>Node2&#45;&gt;Node3</title>
<path fill="none" stroke="midnightblue" d="M380.92,-527.07C382.01,-528.16 383.04,-529.3 384,-530.5 443.48,-604.75 357.49,-669.79 420,-741.5 423,-744.94 426.49,-747.9 430.29,-750.43"/>
<polygon fill="midnightblue" stroke="midnightblue" points="382.99,-524.24 373.02,-520.64 378.57,-529.67 382.99,-524.24"/>
</g>
<!-- Node4 -->
<g id="node6" class="node">
<title>Node4</title>
<g id="a_node6"><a xlink:href="classtriton_1_1exceptions_1_1ArmOperandProperties.html" target="_top" xlink:title="The exception class used by shift mode.">
<polygon fill="white" stroke="black" points="430,-701.5 430,-731.5 564,-731.5 564,-701.5 430,-701.5"/>
<text text-anchor="start" x="438" y="-719.5" font-family="Helvetica,sans-Serif" font-size="10.00">triton::exceptions</text>
<text text-anchor="middle" x="497" y="-708.5" font-family="Helvetica,sans-Serif" font-size="10.00">::ArmOperandProperties</text>
</a>
</g>
</g>
<!-- Node2&#45;&gt;Node4 -->
<g id="edge5" class="edge">
<title>Node2&#45;&gt;Node4</title>
<path fill="none" stroke="midnightblue" d="M380.77,-527.06C381.9,-528.15 382.99,-529.3 384,-530.5 431.53,-586.9 370.17,-638.12 420,-692.5 423.18,-695.97 426.85,-698.94 430.84,-701.48"/>
<polygon fill="midnightblue" stroke="midnightblue" points="382.57,-524.02 372.54,-520.62 378.25,-529.54 382.57,-524.02"/>
</g>
<!-- Node5 -->
<g id="node7" class="node">
<title>Node5</title>
<g id="a_node7"><a xlink:href="classtriton_1_1exceptions_1_1BitsVector.html" target="_top" xlink:title="The exception class used by bitvectors.">
<polygon fill="white" stroke="black" points="446,-652.5 446,-682.5 548,-682.5 548,-652.5 446,-652.5"/>
<text text-anchor="start" x="454" y="-670.5" font-family="Helvetica,sans-Serif" font-size="10.00">triton::exceptions</text>
<text text-anchor="middle" x="497" y="-659.5" font-family="Helvetica,sans-Serif" font-size="10.00">::BitsVector</text>
</a>
</g>
</g>
<!-- Node2&#45;&gt;Node5 -->
<g id="edge6" class="edge">
<title>Node2&#45;&gt;Node5</title>
<path fill="none" stroke="midnightblue" d="M380.09,-526.72C381.46,-527.91 382.77,-529.17 384,-530.5 419.5,-568.88 383.15,-605.4 420,-642.5 427.15,-649.69 436.4,-654.82 445.97,-658.47"/>
<polygon fill="midnightblue" stroke="midnightblue" points="381.74,-523.59 371.58,-520.57 377.63,-529.26 381.74,-523.59"/>
</g>
<!-- Node6 -->
<g id="node8" class="node">
<title>Node6</title>
<g id="a_node8"><a xlink:href="classtriton_1_1exceptions_1_1Cpu.html" target="_top" xlink:title="The exception class used by all CPUs.">
<polygon fill="white" stroke="black" points="433.5,-614 433.5,-633 560.5,-633 560.5,-614 433.5,-614"/>
<text text-anchor="middle" x="497" y="-621" font-family="Helvetica,sans-Serif" font-size="10.00">triton::exceptions::Cpu</text>
</a>
</g>
</g>
<!-- Node2&#45;&gt;Node6 -->
<g id="edge7" class="edge">
<title>Node2&#45;&gt;Node6</title>
<path fill="none" stroke="midnightblue" d="M378.71,-526.09C380.57,-527.47 382.34,-528.94 384,-530.5 410.67,-555.52 391.6,-581.46 420,-604.5 424.75,-608.36 430.18,-611.44 435.91,-613.91"/>
<polygon fill="midnightblue" stroke="midnightblue" points="380.43,-523.04 370.13,-520.58 376.65,-528.93 380.43,-523.04"/>
</g>
<!-- Node9 -->
<g id="node11" class="node">
<title>Node9</title>
<g id="a_node11"><a xlink:href="classtriton_1_1exceptions_1_1Immediate.html" target="_top" xlink:title="The exception class used by immediates.">
<polygon fill="white" stroke="black" points="446,-564.5 446,-594.5 548,-594.5 548,-564.5 446,-564.5"/>
<text text-anchor="start" x="454" y="-582.5" font-family="Helvetica,sans-Serif" font-size="10.00">triton::exceptions</text>
<text text-anchor="middle" x="497" y="-571.5" font-family="Helvetica,sans-Serif" font-size="10.00">::Immediate</text>
</a>
</g>
</g>
<!-- Node2&#45;&gt;Node9 -->
<g id="edge10" class="edge">
<title>Node2&#45;&gt;Node9</title>
<path fill="none" stroke="midnightblue" d="M372.52,-524.71C376.45,-526.56 380.32,-528.5 384,-530.5 401.11,-539.8 402.51,-546.91 420,-555.5 428.07,-559.46 436.95,-562.96 445.69,-565.98"/>
<polygon fill="midnightblue" stroke="midnightblue" points="373.84,-521.47 363.28,-520.55 370.96,-527.85 373.84,-521.47"/>
</g>
<!-- Node10 -->
<g id="node12" class="node">
<title>Node10</title>
<g id="a_node12"><a xlink:href="classtriton_1_1exceptions_1_1Instruction.html" target="_top" xlink:title="The exception class used by an instruction.">
<polygon fill="white" stroke="black" points="446,-515.5 446,-545.5 548,-545.5 548,-515.5 446,-515.5"/>
<text text-anchor="start" x="454" y="-533.5" font-family="Helvetica,sans-Serif" font-size="10.00">triton::exceptions</text>
<text text-anchor="middle" x="497" y="-522.5" font-family="Helvetica,sans-Serif" font-size="10.00">::Instruction</text>
</a>
</g>
</g>
<!-- Node2&#45;&gt;Node10 -->
<g id="edge11" class="edge">
<title>Node2&#45;&gt;Node10</title>
<path fill="none" stroke="midnightblue" d="M383.18,-514.2C403.61,-517.15 426.21,-520.41 445.77,-523.24"/>
<polygon fill="midnightblue" stroke="midnightblue" points="383.44,-510.7 373.04,-512.73 382.44,-517.63 383.44,-510.7"/>
</g>
<!-- Node11 -->
<g id="node13" class="node">
<title>Node11</title>
<g id="a_node13"><a xlink:href="classtriton_1_1exceptions_1_1IrBuilder.html" target="_top" xlink:title="The exception class used by the IR builder.">
<polygon fill="white" stroke="black" points="446,-466.5 446,-496.5 548,-496.5 548,-466.5 446,-466.5"/>
<text text-anchor="start" x="454" y="-484.5" font-family="Helvetica,sans-Serif" font-size="10.00">triton::exceptions</text>
<text text-anchor="middle" x="497" y="-473.5" font-family="Helvetica,sans-Serif" font-size="10.00">::IrBuilder</text>
</a>
</g>
</g>
<!-- Node2&#45;&gt;Node11 -->
<g id="edge12" class="edge">
<title>Node2&#45;&gt;Node11</title>
<path fill="none" stroke="midnightblue" d="M383.18,-497.15C403.61,-494.32 426.21,-491.18 445.77,-488.47"/>
<polygon fill="midnightblue" stroke="midnightblue" points="382.46,-493.72 373.04,-498.56 383.42,-500.65 382.46,-493.72"/>
</g>
<!-- Node12 -->
<g id="node14" class="node">
<title>Node12</title>
<g id="a_node14"><a xlink:href="classtriton_1_1exceptions_1_1MemoryAccess.html" target="_top" xlink:title="The exception class used by memory access.">
<polygon fill="white" stroke="black" points="446,-417.5 446,-447.5 548,-447.5 548,-417.5 446,-417.5"/>
<text text-anchor="start" x="454" y="-435.5" font-family="Helvetica,sans-Serif" font-size="10.00">triton::exceptions</text>
<text text-anchor="middle" x="497" y="-424.5" font-family="Helvetica,sans-Serif" font-size="10.00">::MemoryAccess</text>
</a>
</g>
</g>
<!-- Node2&#45;&gt;Node12 -->
<g id="edge13" class="edge">
<title>Node2&#45;&gt;Node12</title>
<path fill="none" stroke="midnightblue" d="M359.9,-485.7C377.77,-476.51 399.71,-465.81 420,-457.5 428.48,-454.03 437.64,-450.68 446.57,-447.63"/>
<polygon fill="midnightblue" stroke="midnightblue" points="358.21,-482.63 350.95,-490.35 361.44,-488.85 358.21,-482.63"/>
</g>
<!-- Node13 -->
<g id="node15" class="node">
<title>Node13</title>
<g id="a_node15"><a xlink:href="classtriton_1_1exceptions_1_1OperandWrapper.html" target="_top" xlink:title="The exception class used by operand wrappers.">
<polygon fill="white" stroke="black" points="444.5,-368.5 444.5,-398.5 549.5,-398.5 549.5,-368.5 444.5,-368.5"/>
<text text-anchor="start" x="452.5" y="-386.5" font-family="Helvetica,sans-Serif" font-size="10.00">triton::exceptions</text>
<text text-anchor="middle" x="497" y="-375.5" font-family="Helvetica,sans-Serif" font-size="10.00">::OperandWrapper</text>
</a>
</g>
</g>
<!-- Node2&#45;&gt;Node13 -->
<g id="edge14" class="edge">
<title>Node2&#45;&gt;Node13</title>
<path fill="none" stroke="midnightblue" d="M340.73,-482.34C358.58,-460.48 387.99,-428.2 420,-408.5 427.45,-403.91 435.84,-400.07 444.25,-396.88"/>
<polygon fill="midnightblue" stroke="midnightblue" points="337.99,-480.16 334.47,-490.16 343.45,-484.54 337.99,-480.16"/>
</g>
<!-- Node14 -->
<g id="node16" class="node">
<title>Node14</title>
<g id="a_node16"><a xlink:href="classtriton_1_1exceptions_1_1Register.html" target="_top" xlink:title="The exception class used by register operands.">
<polygon fill="white" stroke="black" points="446,-319.5 446,-349.5 548,-349.5 548,-319.5 446,-319.5"/>
<text text-anchor="start" x="454" y="-337.5" font-family="Helvetica,sans-Serif" font-size="10.00">triton::exceptions</text>
<text text-anchor="middle" x="497" y="-326.5" font-family="Helvetica,sans-Serif" font-size="10.00">::Register</text>
</a>
</g>
</g>
<!-- Node2&#45;&gt;Node14 -->
<g id="edge15" class="edge">
<title>Node2&#45;&gt;Node14</title>
<path fill="none" stroke="midnightblue" d="M333.06,-481.04C347.59,-448.67 377.44,-391.93 420,-359.5 427.62,-353.69 436.66,-349.2 445.79,-345.73"/>
<polygon fill="midnightblue" stroke="midnightblue" points="329.84,-479.69 329.05,-490.25 336.25,-482.48 329.84,-479.69"/>
</g>
<!-- Node7 -->
<g id="node9" class="node">
<title>Node7</title>
<g id="a_node9"><a xlink:href="classtriton_1_1exceptions_1_1Disassembly.html" target="_top" xlink:title="The exception class used by the disassembler.">
<polygon fill="white" stroke="black" points="626,-632.5 626,-662.5 728,-662.5 728,-632.5 626,-632.5"/>
<text text-anchor="start" x="634" y="-650.5" font-family="Helvetica,sans-Serif" font-size="10.00">triton::exceptions</text>
<text text-anchor="middle" x="677" y="-639.5" font-family="Helvetica,sans-Serif" font-size="10.00">::Disassembly</text>
</a>
</g>
</g>
<!-- Node6&#45;&gt;Node7 -->
<g id="edge8" class="edge">
<title>Node6&#45;&gt;Node7</title>
<path fill="none" stroke="midnightblue" d="M570.44,-633.27C589.08,-635.78 608.73,-638.43 625.96,-640.75"/>
<polygon fill="midnightblue" stroke="midnightblue" points="570.88,-629.8 560.51,-631.93 569.95,-636.73 570.88,-629.8"/>
</g>
<!-- Node8 -->
<g id="node10" class="node">
<title>Node8</title>
<g id="a_node10"><a xlink:href="classtriton_1_1exceptions_1_1Semantics.html" target="_top" xlink:title="The exception class used by all semantics.">
<polygon fill="white" stroke="black" points="626,-583.5 626,-613.5 728,-613.5 728,-583.5 626,-583.5"/>
<text text-anchor="start" x="634" y="-601.5" font-family="Helvetica,sans-Serif" font-size="10.00">triton::exceptions</text>
<text text-anchor="middle" x="677" y="-590.5" font-family="Helvetica,sans-Serif" font-size="10.00">::Semantics</text>
</a>
</g>
</g>
<!-- Node6&#45;&gt;Node8 -->
<g id="edge9" class="edge">
<title>Node6&#45;&gt;Node8</title>
<path fill="none" stroke="midnightblue" d="M570.44,-613.33C589.08,-610.71 608.73,-607.95 625.96,-605.53"/>
<polygon fill="midnightblue" stroke="midnightblue" points="569.92,-609.86 560.51,-614.72 570.9,-616.8 569.92,-609.86"/>
</g>
<!-- Node16 -->
<g id="node18" class="node">
<title>Node16</title>
<g id="a_node18"><a xlink:href="classtriton_1_1exceptions_1_1AstRepresentation.html" target="_top" xlink:title="The exception class used by all AST node representations.">
<polygon fill="white" stroke="black" points="440.5,-270.5 440.5,-300.5 553.5,-300.5 553.5,-270.5 440.5,-270.5"/>
<text text-anchor="start" x="448.5" y="-288.5" font-family="Helvetica,sans-Serif" font-size="10.00">triton::exceptions</text>
<text text-anchor="middle" x="497" y="-277.5" font-family="Helvetica,sans-Serif" font-size="10.00">::AstRepresentation</text>
</a>
</g>
</g>
<!-- Node15&#45;&gt;Node16 -->
<g id="edge17" class="edge">
<title>Node15&#45;&gt;Node16</title>
<path fill="none" stroke="midnightblue" d="M394.9,-284.33C410.12,-284.51 425.97,-284.69 440.48,-284.86"/>
<polygon fill="midnightblue" stroke="midnightblue" points="394.52,-280.83 384.48,-284.21 394.44,-287.83 394.52,-280.83"/>
</g>
<!-- Node17 -->
<g id="node19" class="node">
<title>Node17</title>
<g id="a_node19"><a xlink:href="classtriton_1_1exceptions_1_1AstTranslations.html" target="_top" xlink:title="The exception class used by all AST translations (z3 &lt;&#45;&gt; triton).">
<polygon fill="white" stroke="black" points="446,-221.5 446,-251.5 548,-251.5 548,-221.5 446,-221.5"/>
<text text-anchor="start" x="454" y="-239.5" font-family="Helvetica,sans-Serif" font-size="10.00">triton::exceptions</text>
<text text-anchor="middle" x="497" y="-228.5" font-family="Helvetica,sans-Serif" font-size="10.00">::AstTranslations</text>
</a>
</g>
</g>
<!-- Node15&#45;&gt;Node17 -->
<g id="edge18" class="edge">
<title>Node15&#45;&gt;Node17</title>
<path fill="none" stroke="midnightblue" d="M367.89,-271.3C391.81,-264.81 421.3,-256.79 445.96,-250.09"/>
<polygon fill="midnightblue" stroke="midnightblue" points="366.74,-267.99 358.01,-273.99 368.58,-274.74 366.74,-267.99"/>
</g>
<!-- Node21 -->
<g id="node23" class="node">
<title>Node21</title>
<g id="a_node23"><a xlink:href="classtriton_1_1exceptions_1_1SolverEngine.html" target="_top" xlink:title="The exception class used by the solver engine.">
<polygon fill="white" stroke="black" points="446,-172.5 446,-202.5 548,-202.5 548,-172.5 446,-172.5"/>
<text text-anchor="start" x="454" y="-190.5" font-family="Helvetica,sans-Serif" font-size="10.00">triton::exceptions</text>
<text text-anchor="middle" x="497" y="-179.5" font-family="Helvetica,sans-Serif" font-size="10.00">::SolverEngine</text>
</a>
</g>
</g>
<!-- Node20&#45;&gt;Node21 -->
<g id="edge22" class="edge">
<title>Node20&#45;&gt;Node21</title>
<path fill="none" stroke="midnightblue" d="M382.9,-156.12C403.41,-161.81 426.12,-168.11 445.77,-173.56"/>
<polygon fill="midnightblue" stroke="midnightblue" points="383.61,-152.68 373.04,-153.38 381.74,-159.43 383.61,-152.68"/>
</g>
<!-- Node23 -->
<g id="node25" class="node">
<title>Node23</title>
<g id="a_node25"><a xlink:href="classtriton_1_1exceptions_1_1SymbolicEngine.html" target="_top" xlink:title="The exception class used by the symbolic engine.">
<polygon fill="white" stroke="black" points="446,-123.5 446,-153.5 548,-153.5 548,-123.5 446,-123.5"/>
<text text-anchor="start" x="454" y="-141.5" font-family="Helvetica,sans-Serif" font-size="10.00">triton::exceptions</text>
<text text-anchor="middle" x="497" y="-130.5" font-family="Helvetica,sans-Serif" font-size="10.00">::SymbolicEngine</text>
</a>
</g>
</g>
<!-- Node20&#45;&gt;Node23 -->
<g id="edge24" class="edge">
<title>Node20&#45;&gt;Node23</title>
<path fill="none" stroke="midnightblue" d="M383.18,-139.15C403.61,-139.03 426.21,-138.9 445.77,-138.79"/>
<polygon fill="midnightblue" stroke="midnightblue" points="383.02,-135.65 373.04,-139.21 383.06,-142.65 383.02,-135.65"/>
</g>
<!-- Node29 -->
<g id="node31" class="node">
<title>Node29</title>
<g id="a_node31"><a xlink:href="classtriton_1_1exceptions_1_1SynthesizerEngine.html" target="_top" xlink:title="The exception class used by the synthesizer engine.">
<polygon fill="white" stroke="black" points="440.5,-74.5 440.5,-104.5 553.5,-104.5 553.5,-74.5 440.5,-74.5"/>
<text text-anchor="start" x="448.5" y="-92.5" font-family="Helvetica,sans-Serif" font-size="10.00">triton::exceptions</text>
<text text-anchor="middle" x="497" y="-81.5" font-family="Helvetica,sans-Serif" font-size="10.00">::SynthesizerEngine</text>
</a>
</g>
</g>
<!-- Node20&#45;&gt;Node29 -->
<g id="edge30" class="edge">
<title>Node20&#45;&gt;Node29</title>
<path fill="none" stroke="midnightblue" d="M382.91,-122.18C402.79,-116.44 424.74,-110.1 443.97,-104.54"/>
<polygon fill="midnightblue" stroke="midnightblue" points="381.67,-118.9 373.04,-125.04 383.62,-125.62 381.67,-118.9"/>
</g>
<!-- Node30 -->
<g id="node32" class="node">
<title>Node30</title>
<g id="a_node32"><a xlink:href="classtriton_1_1exceptions_1_1TaintEngine.html" target="_top" xlink:title="The exception class used by the taint engine.">
<polygon fill="white" stroke="black" points="446,-25.5 446,-55.5 548,-55.5 548,-25.5 446,-25.5"/>
<text text-anchor="start" x="454" y="-43.5" font-family="Helvetica,sans-Serif" font-size="10.00">triton::exceptions</text>
<text text-anchor="middle" x="497" y="-32.5" font-family="Helvetica,sans-Serif" font-size="10.00">::TaintEngine</text>
</a>
</g>
</g>
<!-- Node20&#45;&gt;Node30 -->
<g id="edge31" class="edge">
<title>Node20&#45;&gt;Node30</title>
<path fill="none" stroke="midnightblue" d="M378.94,-119.1C380.69,-117.96 382.38,-116.76 384,-115.5 405.62,-98.69 397.91,-81.68 420,-65.5 427.73,-59.84 436.82,-55.41 445.96,-51.96"/>
<polygon fill="midnightblue" stroke="midnightblue" points="376.74,-116.33 369.83,-124.35 380.24,-122.39 376.74,-116.33"/>
</g>
<!-- Node22 -->
<g id="node24" class="node">
<title>Node22</title>
<g id="a_node24"><a xlink:href="classtriton_1_1exceptions_1_1SolverModel.html" target="_top" xlink:title="The exception class used by solver models.">
<polygon fill="white" stroke="black" points="626,-245.5 626,-275.5 728,-275.5 728,-245.5 626,-245.5"/>
<text text-anchor="start" x="634" y="-263.5" font-family="Helvetica,sans-Serif" font-size="10.00">triton::exceptions</text>
<text text-anchor="middle" x="677" y="-252.5" font-family="Helvetica,sans-Serif" font-size="10.00">::SolverModel</text>
</a>
</g>
</g>
<!-- Node21&#45;&gt;Node22 -->
<g id="edge23" class="edge">
<title>Node21&#45;&gt;Node22</title>
<path fill="none" stroke="midnightblue" d="M557.68,-205.41C563.28,-207.6 568.8,-209.97 574,-212.5 591.29,-220.91 592.84,-227.82 610,-236.5 616.31,-239.69 623.15,-242.67 629.95,-245.37"/>
<polygon fill="midnightblue" stroke="midnightblue" points="558.82,-202.1 548.23,-201.89 556.38,-208.66 558.82,-202.1"/>
</g>
<!-- Node24 -->
<g id="node26" class="node">
<title>Node24</title>
<g id="a_node26"><a xlink:href="classtriton_1_1exceptions_1_1PathConstraint.html" target="_top" xlink:title="The exception class used by path constraints.">
<polygon fill="white" stroke="black" points="626,-196.5 626,-226.5 728,-226.5 728,-196.5 626,-196.5"/>
<text text-anchor="start" x="634" y="-214.5" font-family="Helvetica,sans-Serif" font-size="10.00">triton::exceptions</text>
<text text-anchor="middle" x="677" y="-203.5" font-family="Helvetica,sans-Serif" font-size="10.00">::PathConstraint</text>
</a>
</g>
</g>
<!-- Node23&#45;&gt;Node24 -->
<g id="edge25" class="edge">
<title>Node23&#45;&gt;Node24</title>
<path fill="none" stroke="midnightblue" d="M557.68,-156.41C563.28,-158.6 568.8,-160.97 574,-163.5 591.29,-171.91 592.84,-178.82 610,-187.5 616.31,-190.69 623.15,-193.67 629.95,-196.37"/>
<polygon fill="midnightblue" stroke="midnightblue" points="558.82,-153.1 548.23,-152.89 556.38,-159.66 558.82,-153.1"/>
</g>
<!-- Node25 -->
<g id="node27" class="node">
<title>Node25</title>
<g id="a_node27"><a xlink:href="classtriton_1_1exceptions_1_1PathManager.html" target="_top" xlink:title="The exception class used by the path manager.">
<polygon fill="white" stroke="black" points="626,-147.5 626,-177.5 728,-177.5 728,-147.5 626,-147.5"/>
<text text-anchor="start" x="634" y="-165.5" font-family="Helvetica,sans-Serif" font-size="10.00">triton::exceptions</text>
<text text-anchor="middle" x="677" y="-154.5" font-family="Helvetica,sans-Serif" font-size="10.00">::PathManager</text>
</a>
</g>
</g>
<!-- Node23&#45;&gt;Node25 -->
<g id="edge26" class="edge">
<title>Node23&#45;&gt;Node25</title>
<path fill="none" stroke="midnightblue" d="M558.26,-146.62C580.19,-149.58 604.73,-152.89 625.7,-155.72"/>
<polygon fill="midnightblue" stroke="midnightblue" points="558.43,-143.12 548.06,-145.25 557.5,-150.05 558.43,-143.12"/>
</g>
<!-- Node26 -->
<g id="node28" class="node">
<title>Node26</title>
<g id="a_node28"><a xlink:href="classtriton_1_1exceptions_1_1SymbolicExpression.html" target="_top" xlink:title="The exception class used by symbolic expressions.">
<polygon fill="white" stroke="black" points="616.5,-98.5 616.5,-128.5 737.5,-128.5 737.5,-98.5 616.5,-98.5"/>
<text text-anchor="start" x="624.5" y="-116.5" font-family="Helvetica,sans-Serif" font-size="10.00">triton::exceptions</text>
<text text-anchor="middle" x="677" y="-105.5" font-family="Helvetica,sans-Serif" font-size="10.00">::SymbolicExpression</text>
</a>
</g>
</g>
<!-- Node23&#45;&gt;Node26 -->
<g id="edge27" class="edge">
<title>Node23&#45;&gt;Node26</title>
<path fill="none" stroke="midnightblue" d="M557.97,-130.08C576.75,-127.44 597.46,-124.53 616.22,-121.9"/>
<polygon fill="midnightblue" stroke="midnightblue" points="557.47,-126.61 548.06,-131.47 558.45,-133.54 557.47,-126.61"/>
</g>
<!-- Node27 -->
<g id="node29" class="node">
<title>Node27</title>
<g id="a_node29"><a xlink:href="classtriton_1_1exceptions_1_1SymbolicSimplification.html" target="_top" xlink:title="The exception class used by symbolic simplifications.">
<polygon fill="white" stroke="black" points="610,-49.5 610,-79.5 744,-79.5 744,-49.5 610,-49.5"/>
<text text-anchor="start" x="618" y="-67.5" font-family="Helvetica,sans-Serif" font-size="10.00">triton::exceptions</text>
<text text-anchor="middle" x="677" y="-56.5" font-family="Helvetica,sans-Serif" font-size="10.00">::SymbolicSimplification</text>
</a>
</g>
</g>
<!-- Node23&#45;&gt;Node27 -->
<g id="edge28" class="edge">
<title>Node23&#45;&gt;Node27</title>
<path fill="none" stroke="midnightblue" d="M557.74,-121.54C563.33,-119.39 568.83,-117.04 574,-114.5 591.49,-105.91 592.76,-98.57 610,-89.5 616.83,-85.9 624.3,-82.56 631.67,-79.57"/>
<polygon fill="midnightblue" stroke="midnightblue" points="556.51,-118.27 548.31,-124.98 558.9,-124.84 556.51,-118.27"/>
</g>
<!-- Node28 -->
<g id="node30" class="node">
<title>Node28</title>
<g id="a_node30"><a xlink:href="classtriton_1_1exceptions_1_1SymbolicVariable.html" target="_top" xlink:title="The exception class used by symbolic variables.">
<polygon fill="white" stroke="black" points="623.5,-0.5 623.5,-30.5 730.5,-30.5 730.5,-0.5 623.5,-0.5"/>
<text text-anchor="start" x="631.5" y="-18.5" font-family="Helvetica,sans-Serif" font-size="10.00">triton::exceptions</text>
<text text-anchor="middle" x="677" y="-7.5" font-family="Helvetica,sans-Serif" font-size="10.00">::SymbolicVariable</text>
</a>
</g>
</g>
<!-- Node23&#45;&gt;Node28 -->
<g id="edge29" class="edge">
<title>Node23&#45;&gt;Node28</title>
<path fill="none" stroke="midnightblue" d="M557.59,-125.08C563.52,-122.21 569.13,-118.72 574,-114.5 601.93,-90.27 582.6,-64.32 610,-39.5 613.98,-35.9 618.53,-32.83 623.36,-30.21"/>
<polygon fill="midnightblue" stroke="midnightblue" points="555.92,-121.98 548.08,-129.1 558.65,-128.43 555.92,-121.98"/>
</g>
</g>
</svg>
