<?xml version="1.0" encoding="UTF-8" standalone="no"?>
<!DOCTYPE svg PUBLIC "-//W3C//DTD SVG 1.1//EN"
 "http://www.w3.org/Graphics/SVG/1.1/DTD/svg11.dtd">
<!-- Generated by graphviz version 7.0.0 (20221023.0053)
 -->
<!-- Title: Graphical Class Hierarchy Pages: 1 -->
<svg width="260pt" height="182pt"
 viewBox="0.00 0.00 260.00 182.00" xmlns="http://www.w3.org/2000/svg" xmlns:xlink="http://www.w3.org/1999/xlink">
<g id="graph0" class="graph" transform="scale(1 1) rotate(0) translate(4 178)">
<title>Graphical Class Hierarchy</title>
<!-- Node0 -->
<g id="node1" class="node">
<title>Node0</title>
<g id="a_node1"><a xlink:href="classtriton_1_1engines_1_1lifters_1_1LiftingToDot.html" target="_top" xlink:title="The lifting to Dot class.">
<polygon fill="white" stroke="#666666" points="108,-174 0,-174 0,-144 108,-144 108,-174"/>
<text text-anchor="start" x="8" y="-162" font-family="Helvetica,sans-Serif" font-size="10.00">triton::engines::lifters</text>
<text text-anchor="middle" x="54" y="-151" font-family="Helvetica,sans-Serif" font-size="10.00">::LiftingToDot</text>
</a>
</g>
</g>
<!-- Node1 -->
<g id="node2" class="node">
<title>Node1</title>
<g id="a_node2"><a xlink:href="classtriton_1_1engines_1_1lifters_1_1LiftingEngine.html" target="_top" xlink:title="The lifting engine class.">
<polygon fill="white" stroke="#666666" points="252,-102 144,-102 144,-72 252,-72 252,-102"/>
<text text-anchor="start" x="152" y="-90" font-family="Helvetica,sans-Serif" font-size="10.00">triton::engines::lifters</text>
<text text-anchor="middle" x="198" y="-79" font-family="Helvetica,sans-Serif" font-size="10.00">::LiftingEngine</text>
</a>
</g>
</g>
<!-- Node0&#45;&gt;Node1 -->
<g id="edge1" class="edge">
<title>Node0&#45;&gt;Node1</title>
<path fill="none" stroke="#63b8ff" d="M100.21,-138.79C102.85,-137.52 105.47,-136.26 108,-135 128.92,-124.64 152.13,-112.09 169.6,-102.42"/>
<polygon fill="#63b8ff" stroke="#63b8ff" points="98.89,-135.54 91.31,-142.95 101.85,-141.88 98.89,-135.54"/>
</g>
<!-- Node2 -->
<g id="node3" class="node">
<title>Node2</title>
<g id="a_node3"><a xlink:href="classtriton_1_1engines_1_1lifters_1_1LiftingToLLVM.html" target="_top" xlink:title="The lifting to LLVM class.">
<polygon fill="white" stroke="#666666" points="108,-126 0,-126 0,-96 108,-96 108,-126"/>
<text text-anchor="start" x="8" y="-114" font-family="Helvetica,sans-Serif" font-size="10.00">triton::engines::lifters</text>
<text text-anchor="middle" x="54" y="-103" font-family="Helvetica,sans-Serif" font-size="10.00">::LiftingToLLVM</text>
</a>
</g>
</g>
<!-- Node2&#45;&gt;Node1 -->
<g id="edge2" class="edge">
<title>Node2&#45;&gt;Node1</title>
<path fill="none" stroke="#63b8ff" d="M119.36,-100.12C127.56,-98.74 135.89,-97.33 143.89,-95.98"/>
<polygon fill="#63b8ff" stroke="#63b8ff" points="119.05,-96.63 109.77,-101.74 120.22,-103.53 119.05,-96.63"/>
</g>
<!-- Node3 -->
<g id="node4" class="node">
<title>Node3</title>
<g id="a_node4"><a xlink:href="classtriton_1_1engines_1_1lifters_1_1LiftingToPython.html" target="_top" xlink:title="The lifting to Python class.">
<polygon fill="white" stroke="#666666" points="108,-78 0,-78 0,-48 108,-48 108,-78"/>
<text text-anchor="start" x="8" y="-66" font-family="Helvetica,sans-Serif" font-size="10.00">triton::engines::lifters</text>
<text text-anchor="middle" x="54" y="-55" font-family="Helvetica,sans-Serif" font-size="10.00">::LiftingToPython</text>
</a>
</g>
</g>
<!-- Node3&#45;&gt;Node1 -->
<g id="edge3" class="edge">
<title>Node3&#45;&gt;Node1</title>
<path fill="none" stroke="#63b8ff" d="M119.36,-73.88C127.56,-75.26 135.89,-76.67 143.89,-78.02"/>
<polygon fill="#63b8ff" stroke="#63b8ff" points="120.22,-70.47 109.77,-72.26 119.05,-77.37 120.22,-70.47"/>
</g>
<!-- Node4 -->
<g id="node5" class="node">
<title>Node4</title>
<g id="a_node5"><a xlink:href="classtriton_1_1engines_1_1lifters_1_1LiftingToSMT.html" target="_top" xlink:title="The lifting to SMT class.">
<polygon fill="white" stroke="#666666" points="108,-30 0,-30 0,0 108,0 108,-30"/>
<text text-anchor="start" x="8" y="-18" font-family="Helvetica,sans-Serif" font-size="10.00">triton::engines::lifters</text>
<text text-anchor="middle" x="54" y="-7" font-family="Helvetica,sans-Serif" font-size="10.00">::LiftingToSMT</text>
</a>
</g>
</g>
<!-- Node4&#45;&gt;Node1 -->
<g id="edge4" class="edge">
<title>Node4&#45;&gt;Node1</title>
<path fill="none" stroke="#63b8ff" d="M100.21,-35.21C102.85,-36.48 105.47,-37.74 108,-39 128.92,-49.36 152.13,-61.91 169.6,-71.58"/>
<polygon fill="#63b8ff" stroke="#63b8ff" points="101.85,-32.12 91.31,-31.05 98.89,-38.46 101.85,-32.12"/>
</g>
</g>
</svg>
