<?xml version="1.0" encoding="UTF-8" standalone="no"?>
<!DOCTYPE svg PUBLIC "-//W3C//DTD SVG 1.1//EN"
 "http://www.w3.org/Graphics/SVG/1.1/DTD/svg11.dtd">
<!-- Generated by graphviz version 2.49.0 (20210828.1703)
 -->
<!-- Title: Graphical Class Hierarchy Pages: 1 -->
<svg width="346pt" height="88pt"
 viewBox="0.00 0.00 346.00 88.00" xmlns="http://www.w3.org/2000/svg" xmlns:xlink="http://www.w3.org/1999/xlink">
<g id="graph0" class="graph" transform="scale(1 1) rotate(0) translate(4 84)">
<title>Graphical Class Hierarchy</title>
<polygon fill="white" stroke="transparent" points="-4,4 -4,-84 342,-84 342,4 -4,4"/>
<!-- Node0 -->
<g id="node1" class="node">
<title>Node0</title>
<g id="a_node1"><a xlink:href="classtriton_1_1ast_1_1representations_1_1AstRepresentationInterface.html" target="_top" xlink:title="The AST representation interface.">
<polygon fill="white" stroke="black" points="0,-24.5 0,-54.5 156,-54.5 156,-24.5 0,-24.5"/>
<text text-anchor="start" x="8" y="-42.5" font-family="Helvetica,sans-Serif" font-size="10.00">triton::ast::representations</text>
<text text-anchor="middle" x="78" y="-31.5" font-family="Helvetica,sans-Serif" font-size="10.00">::AstRepresentationInterface</text>
</a>
</g>
</g>
<!-- Node1 -->
<g id="node2" class="node">
<title>Node1</title>
<g id="a_node2"><a xlink:href="classtriton_1_1ast_1_1representations_1_1AstPythonRepresentation.html" target="_top" xlink:title="Python representation.">
<polygon fill="white" stroke="black" points="192,-49.5 192,-79.5 338,-79.5 338,-49.5 192,-49.5"/>
<text text-anchor="start" x="200" y="-67.5" font-family="Helvetica,sans-Serif" font-size="10.00">triton::ast::representations</text>
<text text-anchor="middle" x="265" y="-56.5" font-family="Helvetica,sans-Serif" font-size="10.00">::AstPythonRepresentation</text>
</a>
</g>
</g>
<!-- Node0&#45;&gt;Node1 -->
<g id="edge1" class="edge">
<title>Node0&#45;&gt;Node1</title>
<path fill="none" stroke="midnightblue" d="M166.14,-51.28C174.71,-52.43 183.34,-53.6 191.75,-54.74"/>
<polygon fill="midnightblue" stroke="midnightblue" points="166.5,-47.79 156.12,-49.92 165.56,-54.73 166.5,-47.79"/>
</g>
<!-- Node2 -->
<g id="node3" class="node">
<title>Node2</title>
<g id="a_node3"><a xlink:href="classtriton_1_1ast_1_1representations_1_1AstSmtRepresentation.html" target="_top" xlink:title="SMT representation.">
<polygon fill="white" stroke="black" points="192,-0.5 192,-30.5 338,-30.5 338,-0.5 192,-0.5"/>
<text text-anchor="start" x="200" y="-18.5" font-family="Helvetica,sans-Serif" font-size="10.00">triton::ast::representations</text>
<text text-anchor="middle" x="265" y="-7.5" font-family="Helvetica,sans-Serif" font-size="10.00">::AstSmtRepresentation</text>
</a>
</g>
</g>
<!-- Node0&#45;&gt;Node2 -->
<g id="edge2" class="edge">
<title>Node0&#45;&gt;Node2</title>
<path fill="none" stroke="midnightblue" d="M166.14,-28.2C174.71,-27.08 183.34,-25.96 191.75,-24.87"/>
<polygon fill="midnightblue" stroke="midnightblue" points="165.58,-24.74 156.12,-29.5 166.48,-31.68 165.58,-24.74"/>
</g>
</g>
</svg>
