<?xml version="1.0" encoding="UTF-8" standalone="no"?>
<!DOCTYPE svg PUBLIC "-//W3C//DTD SVG 1.1//EN"
 "http://www.w3.org/Graphics/SVG/1.1/DTD/svg11.dtd">
<!-- Generated by graphviz version 12.1.0 (20240811.2233)
 -->
<!-- Title: Graphical Class Hierarchy Pages: 1 -->
<svg width="312pt" height="284pt"
 viewBox="0.00 0.00 311.50 283.50" xmlns="http://www.w3.org/2000/svg" xmlns:xlink="http://www.w3.org/1999/xlink">
<g id="graph0" class="graph" transform="scale(1 1) rotate(0) translate(4 279.5)">
<title>Graphical Class Hierarchy</title>
<!-- Node0 -->
<g id="Node000000" class="node">
<title>Node0</title>
<g id="a_Node000000"><a xlink:href="classtriton_1_1arch_1_1arm_1_1aarch64_1_1AArch64Specifications.html" target="_top" xlink:title="The AArch64Specifications class defines specifications about the AArch64 CPU.">
<polygon fill="white" stroke="#666666" points="155.5,-275.5 0,-275.5 0,-245 155.5,-245 155.5,-275.5"/>
<text text-anchor="start" x="8" y="-262" font-family="Helvetica,sans-Serif" font-size="10.00">triton::arch::arm::</text>
<text text-anchor="middle" x="77.75" y="-250.75" font-family="Helvetica,sans-Serif" font-size="10.00">aarch64::AArch64Specifications</text>
</a>
</g>
</g>
<!-- Node1 -->
<g id="Node000001" class="node">
<title>Node1</title>
<g id="a_Node000001"><a xlink:href="classtriton_1_1arch_1_1arm_1_1aarch64_1_1AArch64Cpu.html" target="_top" xlink:title="This class is used to describe the ARM (64&#45;bits) spec.">
<polygon fill="white" stroke="#666666" points="303.5,-275.5 191.5,-275.5 191.5,-245 303.5,-245 303.5,-275.5"/>
<text text-anchor="start" x="199.5" y="-262" font-family="Helvetica,sans-Serif" font-size="10.00">triton::arch::arm::</text>
<text text-anchor="middle" x="247.5" y="-250.75" font-family="Helvetica,sans-Serif" font-size="10.00">aarch64::AArch64Cpu</text>
</a>
</g>
</g>
<!-- Node0&#45;&gt;Node1 -->
<g id="edge97_Node000000_Node000001" class="edge">
<title>Node0&#45;&gt;Node1</title>
<g id="a_edge97_Node000000_Node000001"><a xlink:title=" ">
<path fill="none" stroke="#63b8ff" d="M167.2,-260.25C175.29,-260.25 183.33,-260.25 191,-260.25"/>
<polygon fill="#63b8ff" stroke="#63b8ff" points="167.27,-256.75 157.27,-260.25 167.27,-263.75 167.27,-256.75"/>
</a>
</g>
</g>
<!-- Node4 -->
<g id="Node000004" class="node">
<title>Node4</title>
<g id="a_Node000004"><a xlink:href="classtriton_1_1arch_1_1arm_1_1arm32_1_1Arm32Specifications.html" target="_top" xlink:title="The Arm32Specifications class defines specifications about the Arm32 CPU.">
<polygon fill="white" stroke="#666666" points="147.25,-226.5 8.25,-226.5 8.25,-196 147.25,-196 147.25,-226.5"/>
<text text-anchor="start" x="16.25" y="-213" font-family="Helvetica,sans-Serif" font-size="10.00">triton::arch::arm::</text>
<text text-anchor="middle" x="77.75" y="-201.75" font-family="Helvetica,sans-Serif" font-size="10.00">arm32::Arm32Specifications</text>
</a>
</g>
</g>
<!-- Node3 -->
<g id="Node000003" class="node">
<title>Node3</title>
<g id="a_Node000003"><a xlink:href="classtriton_1_1arch_1_1arm_1_1arm32_1_1Arm32Cpu.html" target="_top" xlink:title="This class is used to describe the ARM (32&#45;bits) spec.">
<polygon fill="white" stroke="#666666" points="295.25,-226.5 199.75,-226.5 199.75,-196 295.25,-196 295.25,-226.5"/>
<text text-anchor="start" x="207.75" y="-213" font-family="Helvetica,sans-Serif" font-size="10.00">triton::arch::arm::</text>
<text text-anchor="middle" x="247.5" y="-201.75" font-family="Helvetica,sans-Serif" font-size="10.00">arm32::Arm32Cpu</text>
</a>
</g>
</g>
<!-- Node4&#45;&gt;Node3 -->
<g id="edge98_Node000004_Node000003" class="edge">
<title>Node4&#45;&gt;Node3</title>
<g id="a_edge98_Node000004_Node000003"><a xlink:title=" ">
<path fill="none" stroke="#63b8ff" d="M158.66,-211.25C172.71,-211.25 186.9,-211.25 199.66,-211.25"/>
<polygon fill="#63b8ff" stroke="#63b8ff" points="158.98,-207.75 148.98,-211.25 158.98,-214.75 158.98,-207.75"/>
</a>
</g>
</g>
<!-- Node2 -->
<g id="Node000002" class="node">
<title>Node2</title>
<g id="a_Node000002"><a xlink:href="classtriton_1_1arch_1_1CpuInterface.html" target="_top" xlink:title="This interface is used as abstract CPU interface. All CPU must use this interface.">
<polygon fill="white" stroke="#666666" points="140.12,-123.88 15.38,-123.88 15.38,-104.62 140.12,-104.62 140.12,-123.88"/>
<text text-anchor="middle" x="77.75" y="-110.38" font-family="Helvetica,sans-Serif" font-size="10.00">triton::arch::CpuInterface</text>
</a>
</g>
</g>
<!-- Node2&#45;&gt;Node1 -->
<g id="edge99_Node000002_Node000001" class="edge">
<title>Node2&#45;&gt;Node1</title>
<g id="a_edge99_Node000002_Node000001"><a xlink:title=" ">
<path fill="none" stroke="#63b8ff" d="M148.23,-129.59C150.81,-131.29 153.25,-133.17 155.5,-135.25 190.19,-167.32 159.48,-200.52 191.5,-235.25 194.77,-238.8 198.64,-241.88 202.79,-244.54"/>
<polygon fill="#63b8ff" stroke="#63b8ff" points="150.17,-126.67 139.72,-124.95 146.82,-132.81 150.17,-126.67"/>
</a>
</g>
</g>
<!-- Node2&#45;&gt;Node3 -->
<g id="edge100_Node000002_Node000003" class="edge">
<title>Node2&#45;&gt;Node3</title>
<g id="a_edge100_Node000002_Node000003"><a xlink:title=" ">
<path fill="none" stroke="#63b8ff" d="M144,-128.57C148.04,-130.52 151.91,-132.73 155.5,-135.25 178.22,-151.18 170.13,-168.56 191.5,-186.25 195.7,-189.73 200.47,-192.82 205.39,-195.55"/>
<polygon fill="#63b8ff" stroke="#63b8ff" points="145.66,-125.47 135.09,-124.83 142.96,-131.93 145.66,-125.47"/>
</a>
</g>
</g>
<!-- Node5 -->
<g id="Node000005" class="node">
<title>Node5</title>
<g id="a_Node000005"><a xlink:href="classtriton_1_1arch_1_1riscv_1_1riscv32Cpu.html" target="_top" xlink:title="This class is used to describe the RV32 spec.">
<polygon fill="white" stroke="#666666" points="292.25,-177.5 202.75,-177.5 202.75,-147 292.25,-147 292.25,-177.5"/>
<text text-anchor="start" x="210.75" y="-164" font-family="Helvetica,sans-Serif" font-size="10.00">triton::arch::riscv</text>
<text text-anchor="middle" x="247.5" y="-152.75" font-family="Helvetica,sans-Serif" font-size="10.00">::riscv32Cpu</text>
</a>
</g>
</g>
<!-- Node2&#45;&gt;Node5 -->
<g id="edge101_Node000002_Node000005" class="edge">
<title>Node2&#45;&gt;Node5</title>
<g id="a_edge101_Node000002_Node000005"><a xlink:title=" ">
<path fill="none" stroke="#63b8ff" d="M127.11,-127.31C136.53,-129.91 146.33,-132.64 155.5,-135.25 170.87,-139.63 187.66,-144.57 202.58,-149.01"/>
<polygon fill="#63b8ff" stroke="#63b8ff" points="128.3,-124.01 117.73,-124.74 126.45,-130.76 128.3,-124.01"/>
</a>
</g>
</g>
<!-- Node7 -->
<g id="Node000007" class="node">
<title>Node7</title>
<g id="a_Node000007"><a xlink:href="classtriton_1_1arch_1_1riscv_1_1riscv64Cpu.html" target="_top" xlink:title="This class is used to describe the RV64 spec.">
<polygon fill="white" stroke="#666666" points="292.25,-128.5 202.75,-128.5 202.75,-98 292.25,-98 292.25,-128.5"/>
<text text-anchor="start" x="210.75" y="-115" font-family="Helvetica,sans-Serif" font-size="10.00">triton::arch::riscv</text>
<text text-anchor="middle" x="247.5" y="-103.75" font-family="Helvetica,sans-Serif" font-size="10.00">::riscv64Cpu</text>
</a>
</g>
</g>
<!-- Node2&#45;&gt;Node7 -->
<g id="edge102_Node000002_Node000007" class="edge">
<title>Node2&#45;&gt;Node7</title>
<g id="a_edge102_Node000002_Node000007"><a xlink:title=" ">
<path fill="none" stroke="#63b8ff" d="M151.51,-113.82C168.81,-113.71 186.75,-113.61 202.32,-113.51"/>
<polygon fill="#63b8ff" stroke="#63b8ff" points="151.75,-110.31 141.77,-113.87 151.8,-117.31 151.75,-110.31"/>
</a>
</g>
</g>
<!-- Node8 -->
<g id="Node000008" class="node">
<title>Node8</title>
<g id="a_Node000008"><a xlink:href="classtriton_1_1arch_1_1x86_1_1x8664Cpu.html" target="_top" xlink:title="This class is used to describe the x86 (64&#45;bits) spec.">
<polygon fill="white" stroke="#666666" points="292.62,-79.5 202.38,-79.5 202.38,-49 292.62,-49 292.62,-79.5"/>
<text text-anchor="start" x="210.38" y="-66" font-family="Helvetica,sans-Serif" font-size="10.00">triton::arch::x86::</text>
<text text-anchor="middle" x="247.5" y="-54.75" font-family="Helvetica,sans-Serif" font-size="10.00">x8664Cpu</text>
</a>
</g>
</g>
<!-- Node2&#45;&gt;Node8 -->
<g id="edge103_Node000002_Node000008" class="edge">
<title>Node2&#45;&gt;Node8</title>
<g id="a_edge103_Node000002_Node000008"><a xlink:title=" ">
<path fill="none" stroke="#63b8ff" d="M123.44,-100.93C147.78,-93.68 177.8,-84.73 202.09,-77.49"/>
<polygon fill="#63b8ff" stroke="#63b8ff" points="122.73,-97.49 114.15,-103.7 124.73,-104.2 122.73,-97.49"/>
</a>
</g>
</g>
<!-- Node10 -->
<g id="Node000010" class="node">
<title>Node10</title>
<g id="a_Node000010"><a xlink:href="classtriton_1_1arch_1_1x86_1_1x86Cpu.html" target="_top" xlink:title="This class is used to describe the x86 (32&#45;bits) spec.">
<polygon fill="white" stroke="#666666" points="292.62,-30.5 202.38,-30.5 202.38,0 292.62,0 292.62,-30.5"/>
<text text-anchor="start" x="210.38" y="-17" font-family="Helvetica,sans-Serif" font-size="10.00">triton::arch::x86::</text>
<text text-anchor="middle" x="247.5" y="-5.75" font-family="Helvetica,sans-Serif" font-size="10.00">x86Cpu</text>
</a>
</g>
</g>
<!-- Node2&#45;&gt;Node10 -->
<g id="edge104_Node000002_Node000010" class="edge">
<title>Node2&#45;&gt;Node10</title>
<g id="a_edge104_Node000002_Node000010"><a xlink:title=" ">
<path fill="none" stroke="#63b8ff" d="M103.96,-97.92C118.96,-88.18 138.35,-75.56 155.5,-64.25 171.56,-53.67 174.69,-49.59 191.5,-40.25 197.28,-37.04 203.54,-33.9 209.7,-30.98"/>
<polygon fill="#63b8ff" stroke="#63b8ff" points="102.12,-94.95 95.63,-103.32 105.93,-100.82 102.12,-94.95"/>
</a>
</g>
</g>
<!-- Node6 -->
<g id="Node000006" class="node">
<title>Node6</title>
<g id="a_Node000006"><a xlink:href="classtriton_1_1arch_1_1riscv_1_1riscvSpecifications.html" target="_top" xlink:title="The riscvSpecifications class defines specifications about the RV32 and RV64 CPU.">
<polygon fill="white" stroke="#666666" points="130,-174.5 25.5,-174.5 25.5,-144 130,-144 130,-174.5"/>
<text text-anchor="start" x="33.5" y="-161" font-family="Helvetica,sans-Serif" font-size="10.00">triton::arch::riscv</text>
<text text-anchor="middle" x="77.75" y="-149.75" font-family="Helvetica,sans-Serif" font-size="10.00">::riscvSpecifications</text>
</a>
</g>
</g>
<!-- Node6&#45;&gt;Node5 -->
<g id="edge105_Node000006_Node000005" class="edge">
<title>Node6&#45;&gt;Node5</title>
<g id="a_edge105_Node000006_Node000005"><a xlink:title=" ">
<path fill="none" stroke="#63b8ff" d="M141.76,-160.38C161.92,-160.74 183.8,-161.13 202.33,-161.46"/>
<polygon fill="#63b8ff" stroke="#63b8ff" points="142.02,-156.88 131.96,-160.2 141.9,-163.88 142.02,-156.88"/>
</a>
</g>
</g>
<!-- Node6&#45;&gt;Node7 -->
<g id="edge106_Node000006_Node000007" class="edge">
<title>Node6&#45;&gt;Node7</title>
<g id="a_edge106_Node000006_Node000007"><a xlink:title=" ">
<path fill="none" stroke="#63b8ff" d="M141.48,-142.05C161.72,-136.5 183.72,-130.47 202.33,-125.36"/>
<polygon fill="#63b8ff" stroke="#63b8ff" points="140.63,-138.65 131.91,-144.67 142.48,-145.4 140.63,-138.65"/>
</a>
</g>
</g>
<!-- Node9 -->
<g id="Node000009" class="node">
<title>Node9</title>
<g id="a_Node000009"><a xlink:href="classtriton_1_1arch_1_1x86_1_1x86Specifications.html" target="_top" xlink:title="The x86Specifications class defines specifications about the x86 and x86_64 CPU.">
<polygon fill="white" stroke="#666666" points="124.38,-55.5 31.12,-55.5 31.12,-25 124.38,-25 124.38,-55.5"/>
<text text-anchor="start" x="39.12" y="-42" font-family="Helvetica,sans-Serif" font-size="10.00">triton::arch::x86::</text>
<text text-anchor="middle" x="77.75" y="-30.75" font-family="Helvetica,sans-Serif" font-size="10.00">x86Specifications</text>
</a>
</g>
</g>
<!-- Node9&#45;&gt;Node8 -->
<g id="edge107_Node000009_Node000008" class="edge">
<title>Node9&#45;&gt;Node8</title>
<g id="a_edge107_Node000009_Node000008"><a xlink:title=" ">
<path fill="none" stroke="#63b8ff" d="M135.91,-48.43C157.46,-51.51 181.64,-54.97 201.88,-57.87"/>
<polygon fill="#63b8ff" stroke="#63b8ff" points="136.48,-44.97 126.09,-47.02 135.49,-51.9 136.48,-44.97"/>
</a>
</g>
</g>
<!-- Node9&#45;&gt;Node10 -->
<g id="edge108_Node000009_Node000010" class="edge">
<title>Node9&#45;&gt;Node10</title>
<g id="a_edge108_Node000009_Node000010"><a xlink:title=" ">
<path fill="none" stroke="#63b8ff" d="M135.91,-31.73C157.46,-28.52 181.64,-24.92 201.88,-21.9"/>
<polygon fill="#63b8ff" stroke="#63b8ff" points="135.46,-28.26 126.09,-33.2 136.49,-35.18 135.46,-28.26"/>
</a>
</g>
</g>
</g>
</svg>
