<?xml version="1.0" encoding="UTF-8" standalone="no"?>
<!DOCTYPE svg PUBLIC "-//W3C//DTD SVG 1.1//EN"
 "http://www.w3.org/Graphics/SVG/1.1/DTD/svg11.dtd">
<!-- Generated by graphviz version 7.0.0 (20221023.0053)
 -->
<!-- Title: Graphical Class Hierarchy Pages: 1 -->
<svg width="290pt" height="86pt"
 viewBox="0.00 0.00 290.00 86.00" xmlns="http://www.w3.org/2000/svg" xmlns:xlink="http://www.w3.org/1999/xlink">
<g id="graph0" class="graph" transform="scale(1 1) rotate(0) translate(4 82)">
<title>Graphical Class Hierarchy</title>
<!-- Node0 -->
<g id="node1" class="node">
<title>Node0</title>
<g id="a_node1"><a xlink:href="classtriton_1_1engines_1_1symbolic_1_1PathManager.html" target="_top" xlink:title="The path manager class.">
<polygon fill="white" stroke="#666666" points="123,-78 0,-78 0,-48 123,-48 123,-78"/>
<text text-anchor="start" x="8" y="-66" font-family="Helvetica,sans-Serif" font-size="10.00">triton::engines::symbolic</text>
<text text-anchor="middle" x="61.5" y="-55" font-family="Helvetica,sans-Serif" font-size="10.00">::PathManager</text>
</a>
</g>
</g>
<!-- Node1 -->
<g id="node2" class="node">
<title>Node1</title>
<g id="a_node2"><a xlink:href="classtriton_1_1engines_1_1symbolic_1_1SymbolicEngine.html" target="_top" xlink:title="The symbolic engine class.">
<polygon fill="white" stroke="#666666" points="282,-54 159,-54 159,-24 282,-24 282,-54"/>
<text text-anchor="start" x="167" y="-42" font-family="Helvetica,sans-Serif" font-size="10.00">triton::engines::symbolic</text>
<text text-anchor="middle" x="220.5" y="-31" font-family="Helvetica,sans-Serif" font-size="10.00">::SymbolicEngine</text>
</a>
</g>
</g>
<!-- Node0&#45;&gt;Node1 -->
<g id="edge1" class="edge">
<title>Node0&#45;&gt;Node1</title>
<path fill="none" stroke="#63b8ff" d="M134.53,-51.99C142.61,-50.75 150.78,-49.5 158.7,-48.29"/>
<polygon fill="#63b8ff" stroke="#63b8ff" points="134.05,-48.52 124.7,-53.49 135.11,-55.44 134.05,-48.52"/>
</g>
<!-- Node2 -->
<g id="node3" class="node">
<title>Node2</title>
<g id="a_node3"><a xlink:href="classtriton_1_1engines_1_1symbolic_1_1SymbolicSimplification.html" target="_top" xlink:title="The symbolic simplification class.">
<polygon fill="white" stroke="#666666" points="123,-30 0,-30 0,0 123,0 123,-30"/>
<text text-anchor="start" x="8" y="-18" font-family="Helvetica,sans-Serif" font-size="10.00">triton::engines::symbolic</text>
<text text-anchor="middle" x="61.5" y="-7" font-family="Helvetica,sans-Serif" font-size="10.00">::SymbolicSimplification</text>
</a>
</g>
</g>
<!-- Node2&#45;&gt;Node1 -->
<g id="edge2" class="edge">
<title>Node2&#45;&gt;Node1</title>
<path fill="none" stroke="#63b8ff" d="M134.53,-26.01C142.61,-27.25 150.78,-28.5 158.7,-29.71"/>
<polygon fill="#63b8ff" stroke="#63b8ff" points="135.11,-22.56 124.7,-24.51 134.05,-29.48 135.11,-22.56"/>
</g>
</g>
</svg>
