<?xml version="1.0" encoding="UTF-8" standalone="no"?>
<!DOCTYPE svg PUBLIC "-//W3C//DTD SVG 1.1//EN"
 "http://www.w3.org/Graphics/SVG/1.1/DTD/svg11.dtd">
<!-- Generated by graphviz version 2.49.0 (20210828.1703)
 -->
<!-- Title: Graphical Class Hierarchy Pages: 1 -->
<svg width="490pt" height="1928pt"
 viewBox="0.00 0.00 490.00 1928.00" xmlns="http://www.w3.org/2000/svg" xmlns:xlink="http://www.w3.org/1999/xlink">
<g id="graph0" class="graph" transform="scale(1 1) rotate(0) translate(4 1924)">
<title>Graphical Class Hierarchy</title>
<polygon fill="white" stroke="transparent" points="-4,4 -4,-1924 486,-1924 486,4 -4,4"/>
<!-- Node26 -->
<g id="node1" class="node">
<title>Node26</title>
<g id="a_node1"><a xlink:href="classtriton_1_1ast_1_1BvugeNode.html" target="_top" xlink:title="(bvuge &lt;expr1&gt; &lt;expr2&gt;) node">
<polygon fill="white" stroke="black" points="0,-950.5 0,-969.5 126,-969.5 126,-950.5 0,-950.5"/>
<text text-anchor="middle" x="63" y="-957.5" font-family="Helvetica,sans-Serif" font-size="10.00">triton::ast::BvugeNode</text>
</a>
</g>
</g>
<!-- Node0 -->
<g id="node2" class="node">
<title>Node0</title>
<g id="a_node2"><a xlink:href="classtriton_1_1ast_1_1AbstractNode.html" target="_top" xlink:title="Abstract node.">
<polygon fill="white" stroke="black" points="162,-950.5 162,-969.5 298,-969.5 298,-950.5 162,-950.5"/>
<text text-anchor="middle" x="230" y="-957.5" font-family="Helvetica,sans-Serif" font-size="10.00">triton::ast::AbstractNode</text>
</a>
</g>
</g>
<!-- Node26&#45;&gt;Node0 -->
<g id="edge1" class="edge">
<title>Node26&#45;&gt;Node0</title>
<path fill="none" stroke="midnightblue" d="M136.55,-953.29C144.96,-953.22 153.51,-953.24 161.85,-953.35"/>
<polygon fill="midnightblue" stroke="midnightblue" points="136.33,-949.8 126.38,-953.43 136.43,-956.8 136.33,-949.8"/>
</g>
<!-- Node80 -->
<g id="node54" class="node">
<title>Node80</title>
<g id="a_node54"><a xlink:href="classtriton_1_1ast_1_1AstContext.html" target="_top" xlink:title="AST Context &#45; Used as AST builder.">
<polygon fill="white" stroke="black" points="168,-912.5 168,-931.5 292,-931.5 292,-912.5 168,-912.5"/>
<text text-anchor="middle" x="230" y="-919.5" font-family="Helvetica,sans-Serif" font-size="10.00">triton::ast::AstContext</text>
</a>
</g>
</g>
<!-- Node26&#45;&gt;Node80 -->
<g id="edge54" class="edge">
<title>Node26&#45;&gt;Node80</title>
<path fill="none" stroke="midnightblue" d="M115.65,-948.1C138.85,-942.76 165.84,-936.55 187.66,-931.52"/>
<polygon fill="midnightblue" stroke="midnightblue" points="114.6,-944.76 105.64,-950.41 116.17,-951.58 114.6,-944.76"/>
</g>
<!-- Node0&#45;&gt;Node26 -->
<g id="edge27" class="edge">
<title>Node0&#45;&gt;Node26</title>
<path fill="none" stroke="midnightblue" d="M151.6,-966.74C143.14,-966.78 134.62,-966.72 126.38,-966.57"/>
<polygon fill="midnightblue" stroke="midnightblue" points="151.88,-970.24 161.85,-966.65 151.82,-963.24 151.88,-970.24"/>
</g>
<!-- Node1 -->
<g id="node3" class="node">
<title>Node1</title>
<g id="a_node3"><a xlink:href="classtriton_1_1ast_1_1AssertNode.html" target="_top" xlink:title="(assert &lt;expr&gt;) node">
<polygon fill="white" stroke="black" points="345,-1900.5 345,-1919.5 471,-1919.5 471,-1900.5 345,-1900.5"/>
<text text-anchor="middle" x="408" y="-1907.5" font-family="Helvetica,sans-Serif" font-size="10.00">triton::ast::AssertNode</text>
</a>
</g>
</g>
<!-- Node0&#45;&gt;Node1 -->
<g id="edge2" class="edge">
<title>Node0&#45;&gt;Node1</title>
<path fill="none" stroke="midnightblue" d="M231.86,-979.9C237.62,-1108.53 272.1,-1819.44 334,-1891 337.26,-1894.76 341.15,-1897.83 345.43,-1900.32"/>
<polygon fill="midnightblue" stroke="midnightblue" points="235.35,-979.43 231.41,-969.59 228.35,-979.74 235.35,-979.43"/>
</g>
<!-- Node2 -->
<g id="node4" class="node">
<title>Node2</title>
<g id="a_node4"><a xlink:href="classtriton_1_1ast_1_1BswapNode.html" target="_top" xlink:title="(bswap &lt;expr&gt;) node">
<polygon fill="white" stroke="black" points="344,-1862.5 344,-1881.5 472,-1881.5 472,-1862.5 344,-1862.5"/>
<text text-anchor="middle" x="408" y="-1869.5" font-family="Helvetica,sans-Serif" font-size="10.00">triton::ast::BswapNode</text>
</a>
</g>
</g>
<!-- Node0&#45;&gt;Node2 -->
<g id="edge3" class="edge">
<title>Node0&#45;&gt;Node2</title>
<path fill="none" stroke="midnightblue" d="M231.96,-979.87C238.2,-1105.32 274.56,-1784.61 334,-1853 337.35,-1856.85 341.37,-1859.98 345.79,-1862.5"/>
<polygon fill="midnightblue" stroke="midnightblue" points="235.45,-979.59 231.46,-969.77 228.46,-979.93 235.45,-979.59"/>
</g>
<!-- Node3 -->
<g id="node5" class="node">
<title>Node3</title>
<g id="a_node5"><a xlink:href="classtriton_1_1ast_1_1BvNode.html" target="_top" xlink:title="(_ bv&lt;value&gt; &lt;size&gt;) node">
<polygon fill="white" stroke="black" points="354,-1824.5 354,-1843.5 462,-1843.5 462,-1824.5 354,-1824.5"/>
<text text-anchor="middle" x="408" y="-1831.5" font-family="Helvetica,sans-Serif" font-size="10.00">triton::ast::BvNode</text>
</a>
</g>
</g>
<!-- Node0&#45;&gt;Node3 -->
<g id="edge4" class="edge">
<title>Node0&#45;&gt;Node3</title>
<path fill="none" stroke="midnightblue" d="M232.06,-979.77C238.78,-1101.82 277,-1749.76 334,-1815 339.34,-1821.11 346.38,-1825.38 353.97,-1828.34"/>
<polygon fill="midnightblue" stroke="midnightblue" points="235.55,-979.43 231.51,-969.64 228.56,-979.81 235.55,-979.43"/>
</g>
<!-- Node4 -->
<g id="node6" class="node">
<title>Node4</title>
<g id="a_node6"><a xlink:href="classtriton_1_1ast_1_1BvaddNode.html" target="_top" xlink:title="(bvadd &lt;expr1&gt; &lt;expr2&gt;) node">
<polygon fill="white" stroke="black" points="345,-1786.5 345,-1805.5 471,-1805.5 471,-1786.5 345,-1786.5"/>
<text text-anchor="middle" x="408" y="-1793.5" font-family="Helvetica,sans-Serif" font-size="10.00">triton::ast::BvaddNode</text>
</a>
</g>
</g>
<!-- Node0&#45;&gt;Node4 -->
<g id="edge5" class="edge">
<title>Node0&#45;&gt;Node4</title>
<path fill="none" stroke="midnightblue" d="M230.61,-979.95C228.82,-1093.09 225.56,-1653.56 334,-1777 337.37,-1780.84 341.41,-1783.95 345.83,-1786.46"/>
<polygon fill="midnightblue" stroke="midnightblue" points="234.12,-979.71 230.79,-969.65 227.12,-979.59 234.12,-979.71"/>
</g>
<!-- Node5 -->
<g id="node7" class="node">
<title>Node5</title>
<g id="a_node7"><a xlink:href="classtriton_1_1ast_1_1BvandNode.html" target="_top" xlink:title="(bvand &lt;expr1&gt; &lt;expr2&gt;) node">
<polygon fill="white" stroke="black" points="345,-1748.5 345,-1767.5 471,-1767.5 471,-1748.5 345,-1748.5"/>
<text text-anchor="middle" x="408" y="-1755.5" font-family="Helvetica,sans-Serif" font-size="10.00">triton::ast::BvandNode</text>
</a>
</g>
</g>
<!-- Node0&#45;&gt;Node5 -->
<g id="edge6" class="edge">
<title>Node0&#45;&gt;Node5</title>
<path fill="none" stroke="midnightblue" d="M230.75,-980.04C229.76,-1090.27 230.49,-1621.88 334,-1739 337.38,-1742.83 341.43,-1745.93 345.86,-1748.44"/>
<polygon fill="midnightblue" stroke="midnightblue" points="234.25,-979.75 230.86,-969.71 227.25,-979.68 234.25,-979.75"/>
</g>
<!-- Node6 -->
<g id="node8" class="node">
<title>Node6</title>
<g id="a_node8"><a xlink:href="classtriton_1_1ast_1_1BvashrNode.html" target="_top" xlink:title="(bvashr &lt;expr1&gt; &lt;expr2&gt;) node">
<polygon fill="white" stroke="black" points="343.5,-1710.5 343.5,-1729.5 472.5,-1729.5 472.5,-1710.5 343.5,-1710.5"/>
<text text-anchor="middle" x="408" y="-1717.5" font-family="Helvetica,sans-Serif" font-size="10.00">triton::ast::BvashrNode</text>
</a>
</g>
</g>
<!-- Node0&#45;&gt;Node6 -->
<g id="edge7" class="edge">
<title>Node0&#45;&gt;Node6</title>
<path fill="none" stroke="midnightblue" d="M230.9,-979.74C230.74,-1086.09 235.29,-1590.06 334,-1701 337.4,-1704.82 341.45,-1707.91 345.88,-1710.41"/>
<polygon fill="midnightblue" stroke="midnightblue" points="234.4,-979.75 230.93,-969.74 227.4,-979.73 234.4,-979.75"/>
</g>
<!-- Node7 -->
<g id="node9" class="node">
<title>Node7</title>
<g id="a_node9"><a xlink:href="classtriton_1_1ast_1_1BvlshrNode.html" target="_top" xlink:title="(bvlshr &lt;expr1&gt; &lt;expr2&gt;) node">
<polygon fill="white" stroke="black" points="345,-1672.5 345,-1691.5 471,-1691.5 471,-1672.5 345,-1672.5"/>
<text text-anchor="middle" x="408" y="-1679.5" font-family="Helvetica,sans-Serif" font-size="10.00">triton::ast::BvlshrNode</text>
</a>
</g>
</g>
<!-- Node0&#45;&gt;Node7 -->
<g id="edge8" class="edge">
<title>Node0&#45;&gt;Node7</title>
<path fill="none" stroke="midnightblue" d="M231.06,-980.01C231.79,-1083.62 240.25,-1558.42 334,-1663 337.41,-1666.8 341.47,-1669.89 345.92,-1672.39"/>
<polygon fill="midnightblue" stroke="midnightblue" points="234.56,-979.71 231.01,-969.72 227.56,-979.74 234.56,-979.71"/>
</g>
<!-- Node8 -->
<g id="node10" class="node">
<title>Node8</title>
<g id="a_node10"><a xlink:href="classtriton_1_1ast_1_1BvmulNode.html" target="_top" xlink:title="(bvmul &lt;expr1&gt; &lt;expr2&gt;) node">
<polygon fill="white" stroke="black" points="344.5,-1634.5 344.5,-1653.5 471.5,-1653.5 471.5,-1634.5 344.5,-1634.5"/>
<text text-anchor="middle" x="408" y="-1641.5" font-family="Helvetica,sans-Serif" font-size="10.00">triton::ast::BvmulNode</text>
</a>
</g>
</g>
<!-- Node0&#45;&gt;Node8 -->
<g id="edge9" class="edge">
<title>Node0&#45;&gt;Node8</title>
<path fill="none" stroke="midnightblue" d="M231.24,-979.87C232.87,-1079.8 245.08,-1526.62 334,-1625 337.42,-1628.79 341.5,-1631.86 345.95,-1634.36"/>
<polygon fill="midnightblue" stroke="midnightblue" points="234.74,-979.62 231.1,-969.67 227.74,-979.72 234.74,-979.62"/>
</g>
<!-- Node9 -->
<g id="node11" class="node">
<title>Node9</title>
<g id="a_node11"><a xlink:href="classtriton_1_1ast_1_1BvnandNode.html" target="_top" xlink:title="(bvnand &lt;expr1&gt; &lt;expr2&gt;) node">
<polygon fill="white" stroke="black" points="342,-1596.5 342,-1615.5 474,-1615.5 474,-1596.5 342,-1596.5"/>
<text text-anchor="middle" x="408" y="-1603.5" font-family="Helvetica,sans-Serif" font-size="10.00">triton::ast::BvnandNode</text>
</a>
</g>
</g>
<!-- Node0&#45;&gt;Node9 -->
<g id="edge10" class="edge">
<title>Node0&#45;&gt;Node9</title>
<path fill="none" stroke="midnightblue" d="M231.44,-979.63C233.99,-1075.64 249.88,-1494.78 334,-1587 337.44,-1590.77 341.53,-1593.84 345.99,-1596.32"/>
<polygon fill="midnightblue" stroke="midnightblue" points="234.94,-979.48 231.19,-969.57 227.94,-979.66 234.94,-979.48"/>
</g>
<!-- Node10 -->
<g id="node12" class="node">
<title>Node10</title>
<g id="a_node12"><a xlink:href="classtriton_1_1ast_1_1BvnegNode.html" target="_top" xlink:title="(bvneg &lt;expr&gt;) node">
<polygon fill="white" stroke="black" points="345,-1558.5 345,-1577.5 471,-1577.5 471,-1558.5 345,-1558.5"/>
<text text-anchor="middle" x="408" y="-1565.5" font-family="Helvetica,sans-Serif" font-size="10.00">triton::ast::BvnegNode</text>
</a>
</g>
</g>
<!-- Node0&#45;&gt;Node10 -->
<g id="edge11" class="edge">
<title>Node0&#45;&gt;Node10</title>
<path fill="none" stroke="midnightblue" d="M231.68,-979.9C235.25,-1072.83 254.81,-1463.08 334,-1549 337.55,-1552.85 341.77,-1555.96 346.37,-1558.47"/>
<polygon fill="midnightblue" stroke="midnightblue" points="235.17,-979.74 231.31,-969.87 228.18,-979.99 235.17,-979.74"/>
</g>
<!-- Node11 -->
<g id="node13" class="node">
<title>Node11</title>
<g id="a_node13"><a xlink:href="classtriton_1_1ast_1_1BvnorNode.html" target="_top" xlink:title="(bvnor &lt;expr1&gt; &lt;expr2&gt;) node">
<polygon fill="white" stroke="black" points="346,-1520.5 346,-1539.5 470,-1539.5 470,-1520.5 346,-1520.5"/>
<text text-anchor="middle" x="408" y="-1527.5" font-family="Helvetica,sans-Serif" font-size="10.00">triton::ast::BvnorNode</text>
</a>
</g>
</g>
<!-- Node0&#45;&gt;Node11 -->
<g id="edge12" class="edge">
<title>Node0&#45;&gt;Node11</title>
<path fill="none" stroke="midnightblue" d="M231.93,-979.73C236.52,-1068.65 259.61,-1431.22 334,-1511 337.57,-1514.83 341.81,-1517.93 346.42,-1520.43"/>
<polygon fill="midnightblue" stroke="midnightblue" points="235.42,-979.48 231.43,-969.66 228.43,-979.82 235.42,-979.48"/>
</g>
<!-- Node12 -->
<g id="node14" class="node">
<title>Node12</title>
<g id="a_node14"><a xlink:href="classtriton_1_1ast_1_1BvnotNode.html" target="_top" xlink:title="(bvnot &lt;expr&gt;) node">
<polygon fill="white" stroke="black" points="346,-1482.5 346,-1501.5 470,-1501.5 470,-1482.5 346,-1482.5"/>
<text text-anchor="middle" x="408" y="-1489.5" font-family="Helvetica,sans-Serif" font-size="10.00">triton::ast::BvnotNode</text>
</a>
</g>
</g>
<!-- Node0&#45;&gt;Node12 -->
<g id="edge13" class="edge">
<title>Node0&#45;&gt;Node12</title>
<path fill="none" stroke="midnightblue" d="M232.24,-979.98C237.96,-1065.47 264.51,-1399.46 334,-1473 337.6,-1476.81 341.85,-1479.89 346.47,-1482.38"/>
<polygon fill="midnightblue" stroke="midnightblue" points="235.72,-979.57 231.58,-969.82 228.74,-980.02 235.72,-979.57"/>
</g>
<!-- Node13 -->
<g id="node15" class="node">
<title>Node13</title>
<g id="a_node15"><a xlink:href="classtriton_1_1ast_1_1BvorNode.html" target="_top" xlink:title="(bvor &lt;expr1&gt; &lt;expr2&gt;) node">
<polygon fill="white" stroke="black" points="349,-1444.5 349,-1463.5 467,-1463.5 467,-1444.5 349,-1444.5"/>
<text text-anchor="middle" x="408" y="-1451.5" font-family="Helvetica,sans-Serif" font-size="10.00">triton::ast::BvorNode</text>
</a>
</g>
</g>
<!-- Node0&#45;&gt;Node13 -->
<g id="edge14" class="edge">
<title>Node0&#45;&gt;Node13</title>
<path fill="none" stroke="midnightblue" d="M232.62,-980.3C239.55,-1062.26 269.4,-1367.69 334,-1435 338.17,-1439.35 343.2,-1442.74 348.64,-1445.39"/>
<polygon fill="midnightblue" stroke="midnightblue" points="236.07,-979.56 231.76,-969.88 229.09,-980.13 236.07,-979.56"/>
</g>
<!-- Node14 -->
<g id="node16" class="node">
<title>Node14</title>
<g id="a_node16"><a xlink:href="classtriton_1_1ast_1_1BvrolNode.html" target="_top" xlink:title="((_ rotate_left rot) &lt;expr&gt;) node">
<polygon fill="white" stroke="black" points="347.5,-1406.5 347.5,-1425.5 468.5,-1425.5 468.5,-1406.5 347.5,-1406.5"/>
<text text-anchor="middle" x="408" y="-1413.5" font-family="Helvetica,sans-Serif" font-size="10.00">triton::ast::BvrolNode</text>
</a>
</g>
</g>
<!-- Node0&#45;&gt;Node14 -->
<g id="edge15" class="edge">
<title>Node0&#45;&gt;Node14</title>
<path fill="none" stroke="midnightblue" d="M233.01,-980.15C241.16,-1057.72 274.15,-1335.75 334,-1397 337.84,-1400.93 342.39,-1404.09 347.31,-1406.61"/>
<polygon fill="midnightblue" stroke="midnightblue" points="236.46,-979.44 231.95,-969.85 229.5,-980.15 236.46,-979.44"/>
</g>
<!-- Node15 -->
<g id="node17" class="node">
<title>Node15</title>
<g id="a_node17"><a xlink:href="classtriton_1_1ast_1_1BvrorNode.html" target="_top" xlink:title="((_ rotate_right rot) &lt;expr&gt;) node">
<polygon fill="white" stroke="black" points="347,-1368.5 347,-1387.5 469,-1387.5 469,-1368.5 347,-1368.5"/>
<text text-anchor="middle" x="408" y="-1375.5" font-family="Helvetica,sans-Serif" font-size="10.00">triton::ast::BvrorNode</text>
</a>
</g>
</g>
<!-- Node0&#45;&gt;Node15 -->
<g id="edge16" class="edge">
<title>Node0&#45;&gt;Node15</title>
<path fill="none" stroke="midnightblue" d="M233.45,-979.79C242.85,-1052.54 278.83,-1303.72 334,-1359 337.79,-1362.8 342.24,-1365.87 347.04,-1368.35"/>
<polygon fill="midnightblue" stroke="midnightblue" points="236.9,-979.19 232.17,-969.71 229.96,-980.07 236.9,-979.19"/>
</g>
<!-- Node16 -->
<g id="node18" class="node">
<title>Node16</title>
<g id="a_node18"><a xlink:href="classtriton_1_1ast_1_1BvsdivNode.html" target="_top" xlink:title="(bvsdiv &lt;expr1&gt; &lt;expr2&gt;) node">
<polygon fill="white" stroke="black" points="344,-1330.5 344,-1349.5 472,-1349.5 472,-1330.5 344,-1330.5"/>
<text text-anchor="middle" x="408" y="-1337.5" font-family="Helvetica,sans-Serif" font-size="10.00">triton::ast::BvsdivNode</text>
</a>
</g>
</g>
<!-- Node0&#45;&gt;Node16 -->
<g id="edge17" class="edge">
<title>Node0&#45;&gt;Node16</title>
<path fill="none" stroke="midnightblue" d="M230.32,-979.9C229.4,-1040.5 235.24,-1224.51 334,-1321 337.93,-1324.84 342.54,-1327.94 347.5,-1330.42"/>
<polygon fill="midnightblue" stroke="midnightblue" points="233.82,-979.86 230.56,-969.78 226.83,-979.69 233.82,-979.86"/>
</g>
<!-- Node17 -->
<g id="node19" class="node">
<title>Node17</title>
<g id="a_node19"><a xlink:href="classtriton_1_1ast_1_1BvsgeNode.html" target="_top" xlink:title="(bvsge &lt;expr1&gt; &lt;expr2&gt;) node">
<polygon fill="white" stroke="black" points="345.5,-1292.5 345.5,-1311.5 470.5,-1311.5 470.5,-1292.5 345.5,-1292.5"/>
<text text-anchor="middle" x="408" y="-1299.5" font-family="Helvetica,sans-Serif" font-size="10.00">triton::ast::BvsgeNode</text>
</a>
</g>
</g>
<!-- Node0&#45;&gt;Node17 -->
<g id="edge18" class="edge">
<title>Node0&#45;&gt;Node17</title>
<path fill="none" stroke="midnightblue" d="M231.1,-979.65C232.49,-1035.78 244.46,-1198.17 334,-1283 338.09,-1286.87 342.86,-1289.98 347.98,-1292.47"/>
<polygon fill="midnightblue" stroke="midnightblue" points="234.6,-979.57 230.94,-969.63 227.6,-979.68 234.6,-979.57"/>
</g>
<!-- Node18 -->
<g id="node20" class="node">
<title>Node18</title>
<g id="a_node20"><a xlink:href="classtriton_1_1ast_1_1BvsgtNode.html" target="_top" xlink:title="(bvsgt &lt;expr1&gt; &lt;expr2&gt;) node">
<polygon fill="white" stroke="black" points="346.5,-1254.5 346.5,-1273.5 469.5,-1273.5 469.5,-1254.5 346.5,-1254.5"/>
<text text-anchor="middle" x="408" y="-1261.5" font-family="Helvetica,sans-Serif" font-size="10.00">triton::ast::BvsgtNode</text>
</a>
</g>
</g>
<!-- Node0&#45;&gt;Node18 -->
<g id="edge19" class="edge">
<title>Node0&#45;&gt;Node18</title>
<path fill="none" stroke="midnightblue" d="M232.07,-979.72C235.95,-1031.4 253.76,-1171.84 334,-1245 338.26,-1248.88 343.21,-1251.99 348.49,-1254.48"/>
<polygon fill="midnightblue" stroke="midnightblue" points="235.55,-979.33 231.4,-969.58 228.56,-979.79 235.55,-979.33"/>
</g>
<!-- Node19 -->
<g id="node21" class="node">
<title>Node19</title>
<g id="a_node21"><a xlink:href="classtriton_1_1ast_1_1BvshlNode.html" target="_top" xlink:title="(bvshl &lt;expr1&gt; &lt;expr2&gt;) node">
<polygon fill="white" stroke="black" points="347,-1216.5 347,-1235.5 469,-1235.5 469,-1216.5 347,-1216.5"/>
<text text-anchor="middle" x="408" y="-1223.5" font-family="Helvetica,sans-Serif" font-size="10.00">triton::ast::BvshlNode</text>
</a>
</g>
</g>
<!-- Node0&#45;&gt;Node19 -->
<g id="edge20" class="edge">
<title>Node0&#45;&gt;Node19</title>
<path fill="none" stroke="midnightblue" d="M233.28,-979.58C239.8,-1026.34 262.87,-1145.22 334,-1207 338.45,-1210.86 343.59,-1213.96 349.04,-1216.43"/>
<polygon fill="midnightblue" stroke="midnightblue" points="236.74,-979.02 231.99,-969.55 229.8,-979.92 236.74,-979.02"/>
</g>
<!-- Node20 -->
<g id="node22" class="node">
<title>Node20</title>
<g id="a_node22"><a xlink:href="classtriton_1_1ast_1_1BvsleNode.html" target="_top" xlink:title="(bvsle &lt;expr1&gt; &lt;expr2&gt;) node">
<polygon fill="white" stroke="black" points="347,-1178.5 347,-1197.5 469,-1197.5 469,-1178.5 347,-1178.5"/>
<text text-anchor="middle" x="408" y="-1185.5" font-family="Helvetica,sans-Serif" font-size="10.00">triton::ast::BvsleNode</text>
</a>
</g>
</g>
<!-- Node0&#45;&gt;Node20 -->
<g id="edge21" class="edge">
<title>Node0&#45;&gt;Node20</title>
<path fill="none" stroke="midnightblue" d="M234.92,-979.62C244.29,-1021.19 271.95,-1118.44 334,-1169 338.77,-1172.89 344.25,-1175.99 350.02,-1178.46"/>
<polygon fill="midnightblue" stroke="midnightblue" points="238.31,-978.72 232.8,-969.67 231.47,-980.18 238.31,-978.72"/>
</g>
<!-- Node21 -->
<g id="node23" class="node">
<title>Node21</title>
<g id="a_node23"><a xlink:href="classtriton_1_1ast_1_1BvsltNode.html" target="_top" xlink:title="(bvslt &lt;expr1&gt; &lt;expr2&gt;) node">
<polygon fill="white" stroke="black" points="348,-1140.5 348,-1159.5 468,-1159.5 468,-1140.5 348,-1140.5"/>
<text text-anchor="middle" x="408" y="-1147.5" font-family="Helvetica,sans-Serif" font-size="10.00">triton::ast::BvsltNode</text>
</a>
</g>
</g>
<!-- Node0&#45;&gt;Node21 -->
<g id="edge22" class="edge">
<title>Node0&#45;&gt;Node21</title>
<path fill="none" stroke="midnightblue" d="M237.07,-979.18C249.37,-1014.8 280.66,-1091.15 334,-1131 339.14,-1134.84 344.99,-1137.91 351.08,-1140.36"/>
<polygon fill="midnightblue" stroke="midnightblue" points="240.34,-977.91 233.87,-969.52 233.7,-980.11 240.34,-977.91"/>
</g>
<!-- Node22 -->
<g id="node24" class="node">
<title>Node22</title>
<g id="a_node24"><a xlink:href="classtriton_1_1ast_1_1BvsmodNode.html" target="_top" xlink:title="(bvsmod &lt;expr1&gt; &lt;expr2&gt;) node">
<polygon fill="white" stroke="black" points="340.5,-1102.5 340.5,-1121.5 475.5,-1121.5 475.5,-1102.5 340.5,-1102.5"/>
<text text-anchor="middle" x="408" y="-1109.5" font-family="Helvetica,sans-Serif" font-size="10.00">triton::ast::BvsmodNode</text>
</a>
</g>
</g>
<!-- Node0&#45;&gt;Node22 -->
<g id="edge23" class="edge">
<title>Node0&#45;&gt;Node22</title>
<path fill="none" stroke="midnightblue" d="M240.37,-978.92C255.79,-1008.02 289.3,-1063.51 334,-1093 339.9,-1096.89 346.56,-1099.99 353.4,-1102.45"/>
<polygon fill="midnightblue" stroke="midnightblue" points="243.37,-977.1 235.68,-969.81 237.15,-980.3 243.37,-977.1"/>
</g>
<!-- Node23 -->
<g id="node25" class="node">
<title>Node23</title>
<g id="a_node25"><a xlink:href="classtriton_1_1ast_1_1BvsremNode.html" target="_top" xlink:title="(bvsrem &lt;expr1&gt; &lt;expr2&gt;) node">
<polygon fill="white" stroke="black" points="341.5,-1064.5 341.5,-1083.5 474.5,-1083.5 474.5,-1064.5 341.5,-1064.5"/>
<text text-anchor="middle" x="408" y="-1071.5" font-family="Helvetica,sans-Serif" font-size="10.00">triton::ast::BvsremNode</text>
</a>
</g>
</g>
<!-- Node0&#45;&gt;Node23 -->
<g id="edge24" class="edge">
<title>Node0&#45;&gt;Node23</title>
<path fill="none" stroke="midnightblue" d="M245.08,-977.44C263.35,-998.89 297.25,-1034.93 334,-1055 341.01,-1058.83 348.83,-1061.91 356.66,-1064.39"/>
<polygon fill="midnightblue" stroke="midnightblue" points="247.76,-975.18 238.67,-969.74 242.38,-979.66 247.76,-975.18"/>
</g>
<!-- Node24 -->
<g id="node26" class="node">
<title>Node24</title>
<g id="a_node26"><a xlink:href="classtriton_1_1ast_1_1BvsubNode.html" target="_top" xlink:title="(bvsub &lt;expr1&gt; &lt;expr2&gt;) node">
<polygon fill="white" stroke="black" points="345.5,-1026.5 345.5,-1045.5 470.5,-1045.5 470.5,-1026.5 345.5,-1026.5"/>
<text text-anchor="middle" x="408" y="-1033.5" font-family="Helvetica,sans-Serif" font-size="10.00">triton::ast::BvsubNode</text>
</a>
</g>
</g>
<!-- Node0&#45;&gt;Node24 -->
<g id="edge25" class="edge">
<title>Node0&#45;&gt;Node24</title>
<path fill="none" stroke="midnightblue" d="M254,-974.93C274.35,-987.6 305.2,-1005.49 334,-1017 343.12,-1020.64 353.16,-1023.78 362.8,-1026.4"/>
<polygon fill="midnightblue" stroke="midnightblue" points="255.76,-971.9 245.43,-969.52 252.02,-977.82 255.76,-971.9"/>
</g>
<!-- Node25 -->
<g id="node27" class="node">
<title>Node25</title>
<g id="a_node27"><a xlink:href="classtriton_1_1ast_1_1BvudivNode.html" target="_top" xlink:title="(bvudiv &lt;expr1&gt; &lt;expr2&gt;) node">
<polygon fill="white" stroke="black" points="343.5,-988.5 343.5,-1007.5 472.5,-1007.5 472.5,-988.5 343.5,-988.5"/>
<text text-anchor="middle" x="408" y="-995.5" font-family="Helvetica,sans-Serif" font-size="10.00">triton::ast::BvudivNode</text>
</a>
</g>
</g>
<!-- Node0&#45;&gt;Node25 -->
<g id="edge26" class="edge">
<title>Node0&#45;&gt;Node25</title>
<path fill="none" stroke="midnightblue" d="M285.43,-971.75C310.32,-977.13 339.42,-983.41 362.91,-988.48"/>
<polygon fill="midnightblue" stroke="midnightblue" points="285.93,-968.28 275.41,-969.59 284.45,-975.12 285.93,-968.28"/>
</g>
<!-- Node27 -->
<g id="node28" class="node">
<title>Node27</title>
<g id="a_node28"><a xlink:href="classtriton_1_1ast_1_1BvugtNode.html" target="_top" xlink:title="(bvugt &lt;expr1&gt; &lt;expr2&gt;) node">
<polygon fill="white" stroke="black" points="346,-950.5 346,-969.5 470,-969.5 470,-950.5 346,-950.5"/>
<text text-anchor="middle" x="408" y="-957.5" font-family="Helvetica,sans-Serif" font-size="10.00">triton::ast::BvugtNode</text>
</a>
</g>
</g>
<!-- Node0&#45;&gt;Node27 -->
<g id="edge28" class="edge">
<title>Node0&#45;&gt;Node27</title>
<path fill="none" stroke="midnightblue" d="M308.11,-960C320.76,-960 333.73,-960 345.92,-960"/>
<polygon fill="midnightblue" stroke="midnightblue" points="308.04,-956.5 298.04,-960 308.04,-963.5 308.04,-956.5"/>
</g>
<!-- Node28 -->
<g id="node29" class="node">
<title>Node28</title>
<g id="a_node29"><a xlink:href="classtriton_1_1ast_1_1BvuleNode.html" target="_top" xlink:title="(bvule &lt;expr1&gt; &lt;expr2&gt;) node">
<polygon fill="white" stroke="black" points="346.5,-912.5 346.5,-931.5 469.5,-931.5 469.5,-912.5 346.5,-912.5"/>
<text text-anchor="middle" x="408" y="-919.5" font-family="Helvetica,sans-Serif" font-size="10.00">triton::ast::BvuleNode</text>
</a>
</g>
</g>
<!-- Node0&#45;&gt;Node28 -->
<g id="edge29" class="edge">
<title>Node0&#45;&gt;Node28</title>
<path fill="none" stroke="midnightblue" d="M285.43,-948.25C310.32,-942.87 339.42,-936.59 362.91,-931.52"/>
<polygon fill="midnightblue" stroke="midnightblue" points="284.45,-944.88 275.41,-950.41 285.93,-951.72 284.45,-944.88"/>
</g>
<!-- Node29 -->
<g id="node30" class="node">
<title>Node29</title>
<g id="a_node30"><a xlink:href="classtriton_1_1ast_1_1BvultNode.html" target="_top" xlink:title="(bvult &lt;expr1&gt; &lt;expr2&gt;) node">
<polygon fill="white" stroke="black" points="347.5,-874.5 347.5,-893.5 468.5,-893.5 468.5,-874.5 347.5,-874.5"/>
<text text-anchor="middle" x="408" y="-881.5" font-family="Helvetica,sans-Serif" font-size="10.00">triton::ast::BvultNode</text>
</a>
</g>
</g>
<!-- Node0&#45;&gt;Node29 -->
<g id="edge30" class="edge">
<title>Node0&#45;&gt;Node29</title>
<path fill="none" stroke="midnightblue" d="M286.53,-946.85C290.53,-945.13 294.39,-943.18 298,-941 317.9,-928.95 313.97,-914.83 334,-903 340.54,-899.14 347.86,-896.05 355.28,-893.58"/>
<polygon fill="midnightblue" stroke="midnightblue" points="285.14,-943.63 277.07,-950.49 287.66,-950.17 285.14,-943.63"/>
</g>
<!-- Node30 -->
<g id="node31" class="node">
<title>Node30</title>
<g id="a_node31"><a xlink:href="classtriton_1_1ast_1_1BvuremNode.html" target="_top" xlink:title="(bvurem &lt;expr1&gt; &lt;expr2&gt;) node">
<polygon fill="white" stroke="black" points="341,-836.5 341,-855.5 475,-855.5 475,-836.5 341,-836.5"/>
<text text-anchor="middle" x="408" y="-843.5" font-family="Helvetica,sans-Serif" font-size="10.00">triton::ast::BvuremNode</text>
</a>
</g>
</g>
<!-- Node0&#45;&gt;Node30 -->
<g id="edge31" class="edge">
<title>Node0&#45;&gt;Node30</title>
<path fill="none" stroke="midnightblue" d="M291.55,-945.68C293.82,-944.26 295.98,-942.71 298,-941 326.53,-916.85 305.21,-888.83 334,-865 338.64,-861.16 343.97,-858.08 349.59,-855.62"/>
<polygon fill="midnightblue" stroke="midnightblue" points="289.61,-942.74 282.37,-950.48 292.85,-948.95 289.61,-942.74"/>
</g>
<!-- Node31 -->
<g id="node32" class="node">
<title>Node31</title>
<g id="a_node32"><a xlink:href="classtriton_1_1ast_1_1BvxnorNode.html" target="_top" xlink:title="(bvxnor &lt;expr1&gt; &lt;expr2&gt;) node">
<polygon fill="white" stroke="black" points="343,-798.5 343,-817.5 473,-817.5 473,-798.5 343,-798.5"/>
<text text-anchor="middle" x="408" y="-805.5" font-family="Helvetica,sans-Serif" font-size="10.00">triton::ast::BvxnorNode</text>
</a>
</g>
</g>
<!-- Node0&#45;&gt;Node31 -->
<g id="edge32" class="edge">
<title>Node0&#45;&gt;Node31</title>
<path fill="none" stroke="midnightblue" d="M293.22,-945.04C294.9,-943.8 296.5,-942.45 298,-941 336.12,-903.99 295.48,-863.6 334,-827 338.08,-823.12 342.85,-820.01 347.97,-817.52"/>
<polygon fill="midnightblue" stroke="midnightblue" points="291,-942.29 284.23,-950.44 294.61,-948.29 291,-942.29"/>
</g>
<!-- Node32 -->
<g id="node33" class="node">
<title>Node32</title>
<g id="a_node33"><a xlink:href="classtriton_1_1ast_1_1BvxorNode.html" target="_top" xlink:title="(bvxor &lt;expr1&gt; &lt;expr2&gt;) node">
<polygon fill="white" stroke="black" points="346.5,-760.5 346.5,-779.5 469.5,-779.5 469.5,-760.5 346.5,-760.5"/>
<text text-anchor="middle" x="408" y="-767.5" font-family="Helvetica,sans-Serif" font-size="10.00">triton::ast::BvxorNode</text>
</a>
</g>
</g>
<!-- Node0&#45;&gt;Node32 -->
<g id="edge33" class="edge">
<title>Node0&#45;&gt;Node32</title>
<path fill="none" stroke="midnightblue" d="M293.97,-944.7C295.39,-943.55 296.74,-942.32 298,-941 346,-890.85 285.45,-838.63 334,-789 337.75,-785.16 342.18,-782.07 346.96,-779.57"/>
<polygon fill="midnightblue" stroke="midnightblue" points="291.66,-942.02 285.17,-950.4 295.47,-947.9 291.66,-942.02"/>
</g>
<!-- Node33 -->
<g id="node34" class="node">
<title>Node33</title>
<g id="a_node34"><a xlink:href="classtriton_1_1ast_1_1CompoundNode.html" target="_top" xlink:title="[&lt;expr1&gt; &lt;expr2&gt; &lt;expr3&gt; ...] node">
<polygon fill="white" stroke="black" points="334,-722.5 334,-741.5 482,-741.5 482,-722.5 334,-722.5"/>
<text text-anchor="middle" x="408" y="-729.5" font-family="Helvetica,sans-Serif" font-size="10.00">triton::ast::CompoundNode</text>
</a>
</g>
</g>
<!-- Node0&#45;&gt;Node33 -->
<g id="edge34" class="edge">
<title>Node0&#45;&gt;Node33</title>
<path fill="none" stroke="midnightblue" d="M294.14,-944.7C295.5,-943.55 296.79,-942.32 298,-941 356.01,-877.58 275.31,-813.79 334,-751 337.58,-747.17 341.82,-744.08 346.43,-741.58"/>
<polygon fill="midnightblue" stroke="midnightblue" points="292.02,-941.91 285.68,-950.4 295.93,-947.71 292.02,-941.91"/>
</g>
<!-- Node34 -->
<g id="node35" class="node">
<title>Node34</title>
<g id="a_node35"><a xlink:href="classtriton_1_1ast_1_1ConcatNode.html" target="_top" xlink:title="(concat &lt;expr1&gt; &lt;expr2&gt; ...) node">
<polygon fill="white" stroke="black" points="343.5,-684.5 343.5,-703.5 472.5,-703.5 472.5,-684.5 343.5,-684.5"/>
<text text-anchor="middle" x="408" y="-691.5" font-family="Helvetica,sans-Serif" font-size="10.00">triton::ast::ConcatNode</text>
</a>
</g>
</g>
<!-- Node0&#45;&gt;Node34 -->
<g id="edge35" class="edge">
<title>Node0&#45;&gt;Node34</title>
<path fill="none" stroke="midnightblue" d="M294.65,-944.35C295.83,-943.3 296.95,-942.19 298,-941 366.07,-864.25 265.1,-789.01 334,-713 337.43,-709.22 341.51,-706.14 345.96,-703.65"/>
<polygon fill="midnightblue" stroke="midnightblue" points="292.3,-941.72 286.12,-950.33 296.31,-947.46 292.3,-941.72"/>
</g>
<!-- Node35 -->
<g id="node36" class="node">
<title>Node35</title>
<g id="a_node36"><a xlink:href="classtriton_1_1ast_1_1DeclareNode.html" target="_top" xlink:title="(declare&#45;fun &lt;var_name&gt; () (_ BitVec &lt;var_size&gt;)) node">
<polygon fill="white" stroke="black" points="341.5,-646.5 341.5,-665.5 474.5,-665.5 474.5,-646.5 341.5,-646.5"/>
<text text-anchor="middle" x="408" y="-653.5" font-family="Helvetica,sans-Serif" font-size="10.00">triton::ast::DeclareNode</text>
</a>
</g>
</g>
<!-- Node0&#45;&gt;Node35 -->
<g id="edge36" class="edge">
<title>Node0&#45;&gt;Node35</title>
<path fill="none" stroke="midnightblue" d="M294.68,-944.38C295.85,-943.32 296.96,-942.2 298,-941 376.17,-850.88 254.86,-764.27 334,-675 337.39,-671.18 341.44,-668.08 345.87,-665.57"/>
<polygon fill="midnightblue" stroke="midnightblue" points="292.33,-941.76 286.21,-950.41 296.38,-947.47 292.33,-941.76"/>
</g>
<!-- Node36 -->
<g id="node37" class="node">
<title>Node36</title>
<g id="a_node37"><a xlink:href="classtriton_1_1ast_1_1DistinctNode.html" target="_top" xlink:title="(distinct &lt;expr1&gt; &lt;expr2&gt; ...) node">
<polygon fill="white" stroke="black" points="341.5,-608.5 341.5,-627.5 474.5,-627.5 474.5,-608.5 341.5,-608.5"/>
<text text-anchor="middle" x="408" y="-615.5" font-family="Helvetica,sans-Serif" font-size="10.00">triton::ast::DistinctNode</text>
</a>
</g>
</g>
<!-- Node0&#45;&gt;Node36 -->
<g id="edge37" class="edge">
<title>Node0&#45;&gt;Node36</title>
<path fill="none" stroke="midnightblue" d="M294.71,-944.4C295.87,-943.34 296.97,-942.21 298,-941 386.29,-837.48 244.59,-739.55 334,-637 337.36,-633.15 341.38,-630.03 345.8,-627.51"/>
<polygon fill="midnightblue" stroke="midnightblue" points="292.35,-941.79 286.27,-950.47 296.44,-947.47 292.35,-941.79"/>
</g>
<!-- Node37 -->
<g id="node38" class="node">
<title>Node37</title>
<g id="a_node38"><a xlink:href="classtriton_1_1ast_1_1EqualNode.html" target="_top" xlink:title="(= &lt;expr1&gt; &lt;expr2&gt; ...) node">
<polygon fill="white" stroke="black" points="347,-570.5 347,-589.5 469,-589.5 469,-570.5 347,-570.5"/>
<text text-anchor="middle" x="408" y="-577.5" font-family="Helvetica,sans-Serif" font-size="10.00">triton::ast::EqualNode</text>
</a>
</g>
</g>
<!-- Node0&#45;&gt;Node37 -->
<g id="edge38" class="edge">
<title>Node0&#45;&gt;Node37</title>
<path fill="none" stroke="midnightblue" d="M294.81,-944.35C295.94,-943.3 297,-942.19 298,-941 396.42,-824.07 234.31,-714.86 334,-599 337.59,-594.83 341.96,-591.52 346.77,-588.89"/>
<polygon fill="midnightblue" stroke="midnightblue" points="292.64,-941.6 286.64,-950.33 296.78,-947.25 292.64,-941.6"/>
</g>
<!-- Node38 -->
<g id="node39" class="node">
<title>Node38</title>
<g id="a_node39"><a xlink:href="classtriton_1_1ast_1_1ExtractNode.html" target="_top" xlink:title="((_ extract &lt;high&gt; &lt;low&gt;) &lt;expr&gt;) node">
<polygon fill="white" stroke="black" points="343,-532.5 343,-551.5 473,-551.5 473,-532.5 343,-532.5"/>
<text text-anchor="middle" x="408" y="-539.5" font-family="Helvetica,sans-Serif" font-size="10.00">triton::ast::ExtractNode</text>
</a>
</g>
</g>
<!-- Node0&#45;&gt;Node38 -->
<g id="edge39" class="edge">
<title>Node0&#45;&gt;Node38</title>
<path fill="none" stroke="midnightblue" d="M294.83,-944.36C295.95,-943.31 297.01,-942.19 298,-941 352.28,-875.82 279.01,-625.58 334,-561 337.23,-557.21 341.1,-554.13 345.37,-551.63"/>
<polygon fill="midnightblue" stroke="midnightblue" points="292.65,-941.62 286.68,-950.37 296.81,-947.25 292.65,-941.62"/>
</g>
<!-- Node39 -->
<g id="node40" class="node">
<title>Node39</title>
<g id="a_node40"><a xlink:href="classtriton_1_1ast_1_1ForallNode.html" target="_top" xlink:title="(forall ((x (_ BitVec &lt;size&gt;)), ...) body)">
<polygon fill="white" stroke="black" points="347,-494.5 347,-513.5 469,-513.5 469,-494.5 347,-494.5"/>
<text text-anchor="middle" x="408" y="-501.5" font-family="Helvetica,sans-Serif" font-size="10.00">triton::ast::ForallNode</text>
</a>
</g>
</g>
<!-- Node0&#45;&gt;Node39 -->
<g id="edge40" class="edge">
<title>Node0&#45;&gt;Node39</title>
<path fill="none" stroke="midnightblue" d="M294.84,-944.37C295.96,-943.32 297.01,-942.19 298,-941 357.36,-869.11 273.86,-594.25 334,-523 337.55,-518.8 341.9,-515.46 346.69,-512.82"/>
<polygon fill="midnightblue" stroke="midnightblue" points="292.67,-941.63 286.72,-950.39 296.83,-947.25 292.67,-941.63"/>
</g>
<!-- Node40 -->
<g id="node41" class="node">
<title>Node40</title>
<g id="a_node41"><a xlink:href="classtriton_1_1ast_1_1IffNode.html" target="_top" xlink:title="(iff &lt;expr1&gt; &lt;expr2&gt;)">
<polygon fill="white" stroke="black" points="355.5,-456.5 355.5,-475.5 460.5,-475.5 460.5,-456.5 355.5,-456.5"/>
<text text-anchor="middle" x="408" y="-463.5" font-family="Helvetica,sans-Serif" font-size="10.00">triton::ast::IffNode</text>
</a>
</g>
</g>
<!-- Node0&#45;&gt;Node40 -->
<g id="edge41" class="edge">
<title>Node0&#45;&gt;Node40</title>
<path fill="none" stroke="midnightblue" d="M294.85,-944.38C295.97,-943.32 297.02,-942.2 298,-941 362.44,-862.39 268.71,-562.91 334,-485 339.55,-478.38 347.09,-473.9 355.23,-470.91"/>
<polygon fill="midnightblue" stroke="midnightblue" points="292.68,-941.64 286.75,-950.42 296.86,-947.25 292.68,-941.64"/>
</g>
<!-- Node41 -->
<g id="node42" class="node">
<title>Node41</title>
<g id="a_node42"><a xlink:href="classtriton_1_1ast_1_1IntegerNode.html" target="_top" xlink:title="Integer node.">
<polygon fill="white" stroke="black" points="343,-418.5 343,-437.5 473,-437.5 473,-418.5 343,-418.5"/>
<text text-anchor="middle" x="408" y="-425.5" font-family="Helvetica,sans-Serif" font-size="10.00">triton::ast::IntegerNode</text>
</a>
</g>
</g>
<!-- Node0&#45;&gt;Node41 -->
<g id="edge42" class="edge">
<title>Node0&#45;&gt;Node41</title>
<path fill="none" stroke="midnightblue" d="M294.86,-944.39C295.97,-943.33 297.02,-942.2 298,-941 367.52,-855.66 263.56,-531.58 334,-447 337.18,-443.18 341.03,-440.07 345.28,-437.55"/>
<polygon fill="midnightblue" stroke="midnightblue" points="292.69,-941.65 286.77,-950.44 296.88,-947.26 292.69,-941.65"/>
</g>
<!-- Node42 -->
<g id="node43" class="node">
<title>Node42</title>
<g id="a_node43"><a xlink:href="classtriton_1_1ast_1_1IteNode.html" target="_top" xlink:title="(ite &lt;ifExpr&gt; &lt;thenExpr&gt; &lt;elseExpr&gt;)">
<polygon fill="white" stroke="black" points="354,-380.5 354,-399.5 462,-399.5 462,-380.5 354,-380.5"/>
<text text-anchor="middle" x="408" y="-387.5" font-family="Helvetica,sans-Serif" font-size="10.00">triton::ast::IteNode</text>
</a>
</g>
</g>
<!-- Node0&#45;&gt;Node42 -->
<g id="edge43" class="edge">
<title>Node0&#45;&gt;Node42</title>
<path fill="none" stroke="midnightblue" d="M294.87,-944.4C295.98,-943.33 297.02,-942.2 298,-941 372.6,-848.94 258.4,-500.25 334,-409 339.18,-402.75 346.13,-398.41 353.7,-395.42"/>
<polygon fill="midnightblue" stroke="midnightblue" points="292.69,-941.66 286.79,-950.46 296.89,-947.26 292.69,-941.66"/>
</g>
<!-- Node43 -->
<g id="node44" class="node">
<title>Node43</title>
<g id="a_node44"><a xlink:href="classtriton_1_1ast_1_1LandNode.html" target="_top" xlink:title="(and &lt;expr1&gt; &lt;expr2&gt;)">
<polygon fill="white" stroke="black" points="348.5,-342.5 348.5,-361.5 467.5,-361.5 467.5,-342.5 348.5,-342.5"/>
<text text-anchor="middle" x="408" y="-349.5" font-family="Helvetica,sans-Serif" font-size="10.00">triton::ast::LandNode</text>
</a>
</g>
</g>
<!-- Node0&#45;&gt;Node43 -->
<g id="edge44" class="edge">
<title>Node0&#45;&gt;Node43</title>
<path fill="none" stroke="midnightblue" d="M294.88,-944.4C295.98,-943.34 297.03,-942.21 298,-941 377.68,-842.21 253.25,-468.92 334,-371 337.92,-366.25 342.85,-362.61 348.31,-359.82"/>
<polygon fill="midnightblue" stroke="midnightblue" points="292.7,-941.66 286.81,-950.47 296.91,-947.26 292.7,-941.66"/>
</g>
<!-- Node44 -->
<g id="node45" class="node">
<title>Node44</title>
<g id="a_node45"><a xlink:href="classtriton_1_1ast_1_1LetNode.html" target="_top" xlink:title="(let ((&lt;alias&gt; &lt;expr2&gt;)) &lt;expr3&gt;)">
<polygon fill="white" stroke="black" points="353,-304.5 353,-323.5 463,-323.5 463,-304.5 353,-304.5"/>
<text text-anchor="middle" x="408" y="-311.5" font-family="Helvetica,sans-Serif" font-size="10.00">triton::ast::LetNode</text>
</a>
</g>
</g>
<!-- Node0&#45;&gt;Node44 -->
<g id="edge45" class="edge">
<title>Node0&#45;&gt;Node44</title>
<path fill="none" stroke="midnightblue" d="M294.89,-944.41C295.99,-943.34 297.03,-942.21 298,-941 382.77,-835.49 248.09,-437.59 334,-333 338.99,-326.93 345.65,-322.66 352.92,-319.68"/>
<polygon fill="midnightblue" stroke="midnightblue" points="292.7,-941.67 286.83,-950.48 296.92,-947.26 292.7,-941.67"/>
</g>
<!-- Node45 -->
<g id="node46" class="node">
<title>Node45</title>
<g id="a_node46"><a xlink:href="classtriton_1_1ast_1_1LnotNode.html" target="_top" xlink:title="(lnot &lt;expr&gt;)">
<polygon fill="white" stroke="black" points="350,-266.5 350,-285.5 466,-285.5 466,-266.5 350,-266.5"/>
<text text-anchor="middle" x="408" y="-273.5" font-family="Helvetica,sans-Serif" font-size="10.00">triton::ast::LnotNode</text>
</a>
</g>
</g>
<!-- Node0&#45;&gt;Node45 -->
<g id="edge46" class="edge">
<title>Node0&#45;&gt;Node45</title>
<path fill="none" stroke="midnightblue" d="M294.89,-944.41C295.99,-943.35 297.03,-942.21 298,-941 387.85,-828.76 242.93,-406.26 334,-295 338.23,-289.83 343.67,-285.97 349.68,-283.1"/>
<polygon fill="midnightblue" stroke="midnightblue" points="292.71,-941.67 286.84,-950.49 296.93,-947.26 292.71,-941.67"/>
</g>
<!-- Node46 -->
<g id="node47" class="node">
<title>Node46</title>
<g id="a_node47"><a xlink:href="classtriton_1_1ast_1_1LorNode.html" target="_top" xlink:title="(or &lt;expr1&gt; &lt;expr2&gt;)">
<polygon fill="white" stroke="black" points="353,-228.5 353,-247.5 463,-247.5 463,-228.5 353,-228.5"/>
<text text-anchor="middle" x="408" y="-235.5" font-family="Helvetica,sans-Serif" font-size="10.00">triton::ast::LorNode</text>
</a>
</g>
</g>
<!-- Node0&#45;&gt;Node46 -->
<g id="edge47" class="edge">
<title>Node0&#45;&gt;Node46</title>
<path fill="none" stroke="midnightblue" d="M295.3,-944.02C296.25,-943.07 297.15,-942.06 298,-941 392.94,-822.03 237.77,-374.93 334,-257 338.97,-250.91 345.62,-246.63 352.89,-243.65"/>
<polygon fill="midnightblue" stroke="midnightblue" points="292.93,-941.43 287.16,-950.32 297.21,-946.97 292.93,-941.43"/>
</g>
<!-- Node47 -->
<g id="node48" class="node">
<title>Node47</title>
<g id="a_node48"><a xlink:href="classtriton_1_1ast_1_1LxorNode.html" target="_top" xlink:title="(xor &lt;expr1&gt; &lt;expr2&gt;)">
<polygon fill="white" stroke="black" points="350,-190.5 350,-209.5 466,-209.5 466,-190.5 350,-190.5"/>
<text text-anchor="middle" x="408" y="-197.5" font-family="Helvetica,sans-Serif" font-size="10.00">triton::ast::LxorNode</text>
</a>
</g>
</g>
<!-- Node0&#45;&gt;Node47 -->
<g id="edge48" class="edge">
<title>Node0&#45;&gt;Node47</title>
<path fill="none" stroke="midnightblue" d="M295.3,-944.03C296.25,-943.07 297.15,-942.06 298,-941 398.03,-815.3 232.61,-343.61 334,-219 338.3,-213.72 343.86,-209.8 350,-206.9"/>
<polygon fill="midnightblue" stroke="midnightblue" points="292.93,-941.43 287.17,-950.33 297.22,-946.97 292.93,-941.43"/>
</g>
<!-- Node48 -->
<g id="node49" class="node">
<title>Node48</title>
<g id="a_node49"><a xlink:href="classtriton_1_1ast_1_1ReferenceNode.html" target="_top" xlink:title="Reference node.">
<polygon fill="white" stroke="black" points="335.5,-152.5 335.5,-171.5 480.5,-171.5 480.5,-152.5 335.5,-152.5"/>
<text text-anchor="middle" x="408" y="-159.5" font-family="Helvetica,sans-Serif" font-size="10.00">triton::ast::ReferenceNode</text>
</a>
</g>
</g>
<!-- Node0&#45;&gt;Node48 -->
<g id="edge49" class="edge">
<title>Node0&#45;&gt;Node48</title>
<path fill="none" stroke="midnightblue" d="M295.3,-944.03C296.25,-943.07 297.15,-942.07 298,-941 403.11,-808.57 227.45,-312.28 334,-181 337.05,-177.24 340.75,-174.17 344.84,-171.66"/>
<polygon fill="midnightblue" stroke="midnightblue" points="292.93,-941.44 287.18,-950.34 297.23,-946.97 292.93,-941.44"/>
</g>
<!-- Node49 -->
<g id="node50" class="node">
<title>Node49</title>
<g id="a_node50"><a xlink:href="classtriton_1_1ast_1_1StringNode.html" target="_top" xlink:title="String node.">
<polygon fill="white" stroke="black" points="346,-114.5 346,-133.5 470,-133.5 470,-114.5 346,-114.5"/>
<text text-anchor="middle" x="408" y="-121.5" font-family="Helvetica,sans-Serif" font-size="10.00">triton::ast::StringNode</text>
</a>
</g>
</g>
<!-- Node0&#45;&gt;Node49 -->
<g id="edge50" class="edge">
<title>Node0&#45;&gt;Node49</title>
<path fill="none" stroke="midnightblue" d="M295.31,-944.03C296.26,-943.08 297.16,-942.07 298,-941 353.1,-871.42 278.15,-211.98 334,-143 337.3,-138.93 341.34,-135.67 345.83,-133.06"/>
<polygon fill="midnightblue" stroke="midnightblue" points="292.94,-941.44 287.19,-950.34 297.23,-946.97 292.94,-941.44"/>
</g>
<!-- Node50 -->
<g id="node51" class="node">
<title>Node50</title>
<g id="a_node51"><a xlink:href="classtriton_1_1ast_1_1SxNode.html" target="_top" xlink:title="((_ sign_extend sizeExt) &lt;expr&gt;) node">
<polygon fill="white" stroke="black" points="354.5,-76.5 354.5,-95.5 461.5,-95.5 461.5,-76.5 354.5,-76.5"/>
<text text-anchor="middle" x="408" y="-83.5" font-family="Helvetica,sans-Serif" font-size="10.00">triton::ast::SxNode</text>
</a>
</g>
</g>
<!-- Node0&#45;&gt;Node50 -->
<g id="edge51" class="edge">
<title>Node0&#45;&gt;Node50</title>
<path fill="none" stroke="midnightblue" d="M295.31,-944.03C296.26,-943.08 297.16,-942.07 298,-941 355.65,-868.05 275.57,-177.32 334,-105 339.27,-98.48 346.46,-94.03 354.3,-91.03"/>
<polygon fill="midnightblue" stroke="midnightblue" points="292.94,-941.44 287.2,-950.35 297.24,-946.97 292.94,-941.44"/>
</g>
<!-- Node51 -->
<g id="node52" class="node">
<title>Node51</title>
<g id="a_node52"><a xlink:href="classtriton_1_1ast_1_1VariableNode.html" target="_top" xlink:title="Variable node.">
<polygon fill="white" stroke="black" points="340.5,-38.5 340.5,-57.5 475.5,-57.5 475.5,-38.5 340.5,-38.5"/>
<text text-anchor="middle" x="408" y="-45.5" font-family="Helvetica,sans-Serif" font-size="10.00">triton::ast::VariableNode</text>
</a>
</g>
</g>
<!-- Node0&#45;&gt;Node51 -->
<g id="edge52" class="edge">
<title>Node0&#45;&gt;Node51</title>
<path fill="none" stroke="midnightblue" d="M295.31,-944.04C296.26,-943.08 297.16,-942.07 298,-941 358.19,-864.69 272.99,-142.66 334,-67 337.04,-63.23 340.73,-60.15 344.81,-57.64"/>
<polygon fill="midnightblue" stroke="midnightblue" points="292.94,-941.45 287.21,-950.36 297.25,-946.97 292.94,-941.45"/>
</g>
<!-- Node52 -->
<g id="node53" class="node">
<title>Node52</title>
<g id="a_node53"><a xlink:href="classtriton_1_1ast_1_1ZxNode.html" target="_top" xlink:title="((_ zero_extend sizeExt) &lt;expr&gt;) node">
<polygon fill="white" stroke="black" points="354,-0.5 354,-19.5 462,-19.5 462,-0.5 354,-0.5"/>
<text text-anchor="middle" x="408" y="-7.5" font-family="Helvetica,sans-Serif" font-size="10.00">triton::ast::ZxNode</text>
</a>
</g>
</g>
<!-- Node0&#45;&gt;Node52 -->
<g id="edge53" class="edge">
<title>Node0&#45;&gt;Node52</title>
<path fill="none" stroke="midnightblue" d="M295.32,-944.04C296.26,-943.08 297.16,-942.07 298,-941 360.73,-861.32 270.41,-107.99 334,-29 339.17,-22.57 346.22,-18.16 353.91,-15.16"/>
<polygon fill="midnightblue" stroke="midnightblue" points="292.94,-941.45 287.21,-950.36 297.25,-946.97 292.94,-941.45"/>
</g>
</g>
</svg>
