<?xml version="1.0" encoding="UTF-8" standalone="no"?>
<!DOCTYPE svg PUBLIC "-//W3C//DTD SVG 1.1//EN"
 "http://www.w3.org/Graphics/SVG/1.1/DTD/svg11.dtd">
<!-- Generated by graphviz version 9.0.0 (20230911.1827)
 -->
<!-- Title: Graphical Class Hierarchy Pages: 1 -->
<svg width="338pt" height="137pt"
 viewBox="0.00 0.00 337.75 136.50" xmlns="http://www.w3.org/2000/svg" xmlns:xlink="http://www.w3.org/1999/xlink">
<g id="graph0" class="graph" transform="scale(1 1) rotate(0) translate(4 132.5)">
<title>Graphical Class Hierarchy</title>
<!-- Node0 -->
<g id="Node000000" class="node">
<title>Node0</title>
<g id="a_Node000000"><a xlink:href="classtriton_1_1arch_1_1SemanticsInterface.html" target="_top" xlink:title="This interface is used as abstract semantics interface. All ISA semantics must use this interface.">
<polygon fill="white" stroke="#666666" points="153.25,-73.88 0,-73.88 0,-54.62 153.25,-54.62 153.25,-73.88"/>
<text text-anchor="middle" x="76.62" y="-60.38" font-family="Helvetica,sans-Serif" font-size="10.00">triton::arch::SemanticsInterface</text>
</a>
</g>
</g>
<!-- Node1 -->
<g id="Node000001" class="node">
<title>Node1</title>
<g id="a_Node000001"><a xlink:href="classtriton_1_1arch_1_1arm_1_1aarch64_1_1AArch64Semantics.html" target="_top" xlink:title="The AArch64 ISA semantics.">
<polygon fill="white" stroke="#666666" points="329.75,-128.5 189.25,-128.5 189.25,-98 329.75,-98 329.75,-128.5"/>
<text text-anchor="start" x="197.25" y="-115" font-family="Helvetica,sans-Serif" font-size="10.00">triton::arch::arm::</text>
<text text-anchor="middle" x="259.5" y="-103.75" font-family="Helvetica,sans-Serif" font-size="10.00">aarch64::AArch64Semantics</text>
</a>
</g>
</g>
<!-- Node0&#45;&gt;Node1 -->
<g id="edge110_Node000000_Node000001" class="edge">
<title>Node0&#45;&gt;Node1</title>
<g id="a_edge110_Node000000_Node000001"><a xlink:title=" ">
<path fill="none" stroke="#63b8ff" d="M125.54,-77.23C148.55,-83.46 176.31,-90.98 200.5,-97.54"/>
<polygon fill="#63b8ff" stroke="#63b8ff" points="126.69,-73.92 116.13,-74.68 124.86,-80.67 126.69,-73.92"/>
</a>
</g>
</g>
<!-- Node2 -->
<g id="Node000002" class="node">
<title>Node2</title>
<g id="a_Node000002"><a xlink:href="classtriton_1_1arch_1_1arm_1_1arm32_1_1Arm32Semantics.html" target="_top" xlink:title="The Arm32 ISA semantics.">
<polygon fill="white" stroke="#666666" points="321.5,-79.5 197.5,-79.5 197.5,-49 321.5,-49 321.5,-79.5"/>
<text text-anchor="start" x="205.5" y="-66" font-family="Helvetica,sans-Serif" font-size="10.00">triton::arch::arm::</text>
<text text-anchor="middle" x="259.5" y="-54.75" font-family="Helvetica,sans-Serif" font-size="10.00">arm32::Arm32Semantics</text>
</a>
</g>
</g>
<!-- Node0&#45;&gt;Node2 -->
<g id="edge111_Node000000_Node000002" class="edge">
<title>Node0&#45;&gt;Node2</title>
<g id="a_edge111_Node000000_Node000002"><a xlink:title=" ">
<path fill="none" stroke="#63b8ff" d="M164.84,-64.25C175.72,-64.25 186.66,-64.25 197.04,-64.25"/>
<polygon fill="#63b8ff" stroke="#63b8ff" points="165.06,-60.75 155.06,-64.25 165.06,-67.75 165.06,-60.75"/>
</a>
</g>
</g>
<!-- Node3 -->
<g id="Node000003" class="node">
<title>Node3</title>
<g id="a_Node000003"><a xlink:href="classtriton_1_1arch_1_1x86_1_1x86Semantics.html" target="_top" xlink:title="The x86 ISA semantics.">
<polygon fill="white" stroke="#666666" points="304.62,-30.5 214.38,-30.5 214.38,0 304.62,0 304.62,-30.5"/>
<text text-anchor="start" x="222.38" y="-17" font-family="Helvetica,sans-Serif" font-size="10.00">triton::arch::x86::</text>
<text text-anchor="middle" x="259.5" y="-5.75" font-family="Helvetica,sans-Serif" font-size="10.00">x86Semantics</text>
</a>
</g>
</g>
<!-- Node0&#45;&gt;Node3 -->
<g id="edge112_Node000000_Node000003" class="edge">
<title>Node0&#45;&gt;Node3</title>
<g id="a_edge112_Node000000_Node000003"><a xlink:title=" ">
<path fill="none" stroke="#63b8ff" d="M125.6,-51.25C153.08,-43.81 187.32,-34.53 214.16,-27.26"/>
<polygon fill="#63b8ff" stroke="#63b8ff" points="124.86,-47.83 116.13,-53.82 126.69,-54.58 124.86,-47.83"/>
</a>
</g>
</g>
</g>
</svg>
