<?xml version="1.0" encoding="UTF-8" standalone="no"?>
<!DOCTYPE svg PUBLIC "-//W3C//DTD SVG 1.1//EN"
 "http://www.w3.org/Graphics/SVG/1.1/DTD/svg11.dtd">
<!-- Generated by graphviz version 12.1.0 (20240811.2233)
 -->
<!-- Title: Graphical Class Hierarchy Pages: 1 -->
<svg width="259pt" height="186pt"
 viewBox="0.00 0.00 259.00 185.50" xmlns="http://www.w3.org/2000/svg" xmlns:xlink="http://www.w3.org/1999/xlink">
<g id="graph0" class="graph" transform="scale(1 1) rotate(0) translate(4 181.5)">
<title>Graphical Class Hierarchy</title>
<!-- Node0 -->
<g id="Node000000" class="node">
<title>Node0</title>
<g id="a_Node000000"><a xlink:href="classtriton_1_1engines_1_1lifters_1_1LiftingToDot.html" target="_top" xlink:title="The lifting to Dot class.">
<polygon fill="white" stroke="#666666" points="107.5,-177.5 0,-177.5 0,-147 107.5,-147 107.5,-177.5"/>
<text text-anchor="start" x="8" y="-164" font-family="Helvetica,sans-Serif" font-size="10.00">triton::engines::lifters</text>
<text text-anchor="middle" x="53.75" y="-152.75" font-family="Helvetica,sans-Serif" font-size="10.00">::LiftingToDot</text>
</a>
</g>
</g>
<!-- Node1 -->
<g id="Node000001" class="node">
<title>Node1</title>
<g id="a_Node000001"><a xlink:href="classtriton_1_1engines_1_1lifters_1_1LiftingEngine.html" target="_top" xlink:title="The lifting engine class.">
<polygon fill="white" stroke="#666666" points="251,-103.5 143.5,-103.5 143.5,-73 251,-73 251,-103.5"/>
<text text-anchor="start" x="151.5" y="-90" font-family="Helvetica,sans-Serif" font-size="10.00">triton::engines::lifters</text>
<text text-anchor="middle" x="197.25" y="-78.75" font-family="Helvetica,sans-Serif" font-size="10.00">::LiftingEngine</text>
</a>
</g>
</g>
<!-- Node0&#45;&gt;Node1 -->
<g id="edge121_Node000000_Node000001" class="edge">
<title>Node0&#45;&gt;Node1</title>
<g id="a_edge121_Node000000_Node000001"><a xlink:title=" ">
<path fill="none" stroke="#63b8ff" d="M98.77,-141.64C101.74,-140.17 104.67,-138.7 107.5,-137.25 128.33,-126.58 151.47,-113.77 168.9,-103.92"/>
<polygon fill="#63b8ff" stroke="#63b8ff" points="97.49,-138.37 90.03,-145.89 100.55,-144.66 97.49,-138.37"/>
</a>
</g>
</g>
<!-- Node2 -->
<g id="Node000002" class="node">
<title>Node2</title>
<g id="a_Node000002"><a xlink:href="classtriton_1_1engines_1_1lifters_1_1LiftingToLLVM.html" target="_top" xlink:title="The lifting to LLVM class.">
<polygon fill="white" stroke="#666666" points="107.5,-128.5 0,-128.5 0,-98 107.5,-98 107.5,-128.5"/>
<text text-anchor="start" x="8" y="-115" font-family="Helvetica,sans-Serif" font-size="10.00">triton::engines::lifters</text>
<text text-anchor="middle" x="53.75" y="-103.75" font-family="Helvetica,sans-Serif" font-size="10.00">::LiftingToLLVM</text>
</a>
</g>
</g>
<!-- Node2&#45;&gt;Node1 -->
<g id="edge122_Node000002_Node000001" class="edge">
<title>Node2&#45;&gt;Node1</title>
<g id="a_edge122_Node000002_Node000001"><a xlink:title=" ">
<path fill="none" stroke="#63b8ff" d="M119.16,-101.87C127.25,-100.44 135.45,-98.99 143.33,-97.6"/>
<polygon fill="#63b8ff" stroke="#63b8ff" points="118.57,-98.42 109.33,-103.61 119.79,-105.31 118.57,-98.42"/>
</a>
</g>
</g>
<!-- Node3 -->
<g id="Node000003" class="node">
<title>Node3</title>
<g id="a_Node000003"><a xlink:href="classtriton_1_1engines_1_1lifters_1_1LiftingToPython.html" target="_top" xlink:title="The lifting to Python class.">
<polygon fill="white" stroke="#666666" points="107.5,-79.5 0,-79.5 0,-49 107.5,-49 107.5,-79.5"/>
<text text-anchor="start" x="8" y="-66" font-family="Helvetica,sans-Serif" font-size="10.00">triton::engines::lifters</text>
<text text-anchor="middle" x="53.75" y="-54.75" font-family="Helvetica,sans-Serif" font-size="10.00">::LiftingToPython</text>
</a>
</g>
</g>
<!-- Node3&#45;&gt;Node1 -->
<g id="edge123_Node000003_Node000001" class="edge">
<title>Node3&#45;&gt;Node1</title>
<g id="a_edge123_Node000003_Node000001"><a xlink:title=" ">
<path fill="none" stroke="#63b8ff" d="M119.16,-75.17C127.25,-76.55 135.45,-77.94 143.33,-79.27"/>
<polygon fill="#63b8ff" stroke="#63b8ff" points="119.78,-71.73 109.33,-73.51 118.61,-78.63 119.78,-71.73"/>
</a>
</g>
</g>
<!-- Node4 -->
<g id="Node000004" class="node">
<title>Node4</title>
<g id="a_Node000004"><a xlink:href="classtriton_1_1engines_1_1lifters_1_1LiftingToSMT.html" target="_top" xlink:title="The lifting to SMT class.">
<polygon fill="white" stroke="#666666" points="107.5,-30.5 0,-30.5 0,0 107.5,0 107.5,-30.5"/>
<text text-anchor="start" x="8" y="-17" font-family="Helvetica,sans-Serif" font-size="10.00">triton::engines::lifters</text>
<text text-anchor="middle" x="53.75" y="-5.75" font-family="Helvetica,sans-Serif" font-size="10.00">::LiftingToSMT</text>
</a>
</g>
</g>
<!-- Node4&#45;&gt;Node1 -->
<g id="edge124_Node000004_Node000001" class="edge">
<title>Node4&#45;&gt;Node1</title>
<g id="a_edge124_Node000004_Node000001"><a xlink:title=" ">
<path fill="none" stroke="#63b8ff" d="M98.76,-35.89C101.72,-37.35 104.66,-38.81 107.5,-40.25 127.97,-50.63 150.73,-62.95 168.07,-72.51"/>
<polygon fill="#63b8ff" stroke="#63b8ff" points="100.54,-32.86 90.01,-31.65 97.48,-39.16 100.54,-32.86"/>
</a>
</g>
</g>
</g>
</svg>
