<?xml version="1.0" encoding="UTF-8" standalone="no"?>
<!DOCTYPE svg PUBLIC "-//W3C//DTD SVG 1.1//EN"
 "http://www.w3.org/Graphics/SVG/1.1/DTD/svg11.dtd">
<!-- Generated by graphviz version 2.49.0 (20210828.1703)
 -->
<!-- Title: Graphical Class Hierarchy Pages: 1 -->
<svg width="494pt" height="2042pt"
 viewBox="0.00 0.00 494.00 2042.00" xmlns="http://www.w3.org/2000/svg" xmlns:xlink="http://www.w3.org/1999/xlink">
<g id="graph0" class="graph" transform="scale(1 1) rotate(0) translate(4 2038)">
<title>Graphical Class Hierarchy</title>
<polygon fill="white" stroke="transparent" points="-4,4 -4,-2038 490,-2038 490,4 -4,4"/>
<!-- Node32 -->
<g id="node1" class="node">
<title>Node32</title>
<g id="a_node1"><a xlink:href="classtriton_1_1ast_1_1BvxnorNode.html" target="_top" xlink:title="(bvxnor &lt;expr1&gt; &lt;expr2&gt;) node">
<polygon fill="white" stroke="black" points="0,-1007.5 0,-1026.5 130,-1026.5 130,-1007.5 0,-1007.5"/>
<text text-anchor="middle" x="65" y="-1014.5" font-family="Helvetica,sans-Serif" font-size="10.00">triton::ast::BvxnorNode</text>
</a>
</g>
</g>
<!-- Node0 -->
<g id="node2" class="node">
<title>Node0</title>
<g id="a_node2"><a xlink:href="classtriton_1_1ast_1_1AbstractNode.html" target="_top" xlink:title="Abstract node.">
<polygon fill="white" stroke="black" points="166,-1007.5 166,-1026.5 302,-1026.5 302,-1007.5 166,-1007.5"/>
<text text-anchor="middle" x="234" y="-1014.5" font-family="Helvetica,sans-Serif" font-size="10.00">triton::ast::AbstractNode</text>
</a>
</g>
</g>
<!-- Node32&#45;&gt;Node0 -->
<g id="edge1" class="edge">
<title>Node32&#45;&gt;Node0</title>
<path fill="none" stroke="midnightblue" d="M140.33,-1010.29C148.8,-1010.22 157.39,-1010.25 165.76,-1010.37"/>
<polygon fill="midnightblue" stroke="midnightblue" points="140.04,-1006.79 130.09,-1010.41 140.13,-1013.79 140.04,-1006.79"/>
</g>
<!-- Node89 -->
<g id="node57" class="node">
<title>Node89</title>
<g id="a_node57"><a xlink:href="classtriton_1_1ast_1_1AstContext.html" target="_top" xlink:title="AST Context &#45; Used as AST builder.">
<polygon fill="white" stroke="black" points="172,-969.5 172,-988.5 296,-988.5 296,-969.5 172,-969.5"/>
<text text-anchor="middle" x="234" y="-976.5" font-family="Helvetica,sans-Serif" font-size="10.00">triton::ast::AstContext</text>
</a>
</g>
</g>
<!-- Node32&#45;&gt;Node89 -->
<g id="edge57" class="edge">
<title>Node32&#45;&gt;Node89</title>
<path fill="none" stroke="midnightblue" d="M117.96,-1005.18C141.51,-999.82 168.97,-993.57 191.16,-988.52"/>
<polygon fill="midnightblue" stroke="midnightblue" points="117.12,-1001.78 108.14,-1007.41 118.67,-1008.6 117.12,-1001.78"/>
</g>
<!-- Node0&#45;&gt;Node32 -->
<g id="edge33" class="edge">
<title>Node0&#45;&gt;Node32</title>
<path fill="none" stroke="midnightblue" d="M155.74,-1023.73C147.16,-1023.78 138.49,-1023.73 130.09,-1023.59"/>
<polygon fill="midnightblue" stroke="midnightblue" points="155.79,-1027.23 165.76,-1023.63 155.73,-1020.23 155.79,-1027.23"/>
</g>
<!-- Node1 -->
<g id="node3" class="node">
<title>Node1</title>
<g id="a_node3"><a xlink:href="classtriton_1_1ast_1_1ArrayNode.html" target="_top" xlink:title="(Array (_ BitVec indexSize) (_ BitVec 8)) node">
<polygon fill="white" stroke="black" points="351,-2014.5 351,-2033.5 473,-2033.5 473,-2014.5 351,-2014.5"/>
<text text-anchor="middle" x="412" y="-2021.5" font-family="Helvetica,sans-Serif" font-size="10.00">triton::ast::ArrayNode</text>
</a>
</g>
</g>
<!-- Node0&#45;&gt;Node1 -->
<g id="edge2" class="edge">
<title>Node0&#45;&gt;Node1</title>
<path fill="none" stroke="midnightblue" d="M235.73,-1036.86C240.79,-1169.92 272.39,-1928.67 338,-2005 341.59,-2009.17 345.96,-2012.48 350.77,-2015.11"/>
<polygon fill="midnightblue" stroke="midnightblue" points="239.22,-1036.42 235.34,-1026.56 232.22,-1036.69 239.22,-1036.42"/>
</g>
<!-- Node2 -->
<g id="node4" class="node">
<title>Node2</title>
<g id="a_node4"><a xlink:href="classtriton_1_1ast_1_1AssertNode.html" target="_top" xlink:title="(assert &lt;expr&gt;) node">
<polygon fill="white" stroke="black" points="349,-1976.5 349,-1995.5 475,-1995.5 475,-1976.5 349,-1976.5"/>
<text text-anchor="middle" x="412" y="-1983.5" font-family="Helvetica,sans-Serif" font-size="10.00">triton::ast::AssertNode</text>
</a>
</g>
</g>
<!-- Node0&#45;&gt;Node2 -->
<g id="edge3" class="edge">
<title>Node0&#45;&gt;Node2</title>
<path fill="none" stroke="midnightblue" d="M235.82,-1036.91C241.34,-1167.09 274.87,-1893.86 338,-1967 341.25,-1970.77 345.15,-1973.83 349.42,-1976.33"/>
<polygon fill="midnightblue" stroke="midnightblue" points="239.31,-1036.63 235.39,-1026.79 232.32,-1036.92 239.31,-1036.63"/>
</g>
<!-- Node3 -->
<g id="node5" class="node">
<title>Node3</title>
<g id="a_node5"><a xlink:href="classtriton_1_1ast_1_1BswapNode.html" target="_top" xlink:title="(bswap &lt;expr&gt;) node">
<polygon fill="white" stroke="black" points="348,-1938.5 348,-1957.5 476,-1957.5 476,-1938.5 348,-1938.5"/>
<text text-anchor="middle" x="412" y="-1945.5" font-family="Helvetica,sans-Serif" font-size="10.00">triton::ast::BswapNode</text>
</a>
</g>
</g>
<!-- Node0&#45;&gt;Node3 -->
<g id="edge4" class="edge">
<title>Node0&#45;&gt;Node3</title>
<path fill="none" stroke="midnightblue" d="M235.91,-1036.89C241.91,-1163.95 277.33,-1859.03 338,-1929 341.26,-1932.76 345.16,-1935.82 349.44,-1938.31"/>
<polygon fill="midnightblue" stroke="midnightblue" points="239.4,-1036.51 235.44,-1026.69 232.41,-1036.84 239.4,-1036.51"/>
</g>
<!-- Node4 -->
<g id="node6" class="node">
<title>Node4</title>
<g id="a_node6"><a xlink:href="classtriton_1_1ast_1_1BvNode.html" target="_top" xlink:title="(_ bv&lt;value&gt; &lt;size&gt;) node">
<polygon fill="white" stroke="black" points="358,-1900.5 358,-1919.5 466,-1919.5 466,-1900.5 358,-1900.5"/>
<text text-anchor="middle" x="412" y="-1907.5" font-family="Helvetica,sans-Serif" font-size="10.00">triton::ast::BvNode</text>
</a>
</g>
</g>
<!-- Node0&#45;&gt;Node4 -->
<g id="edge5" class="edge">
<title>Node0&#45;&gt;Node4</title>
<path fill="none" stroke="midnightblue" d="M236.01,-1036.82C242.49,-1160.58 279.78,-1824.18 338,-1891 343.33,-1897.12 350.37,-1901.39 357.96,-1904.35"/>
<polygon fill="midnightblue" stroke="midnightblue" points="239.49,-1036.37 235.48,-1026.56 232.5,-1036.73 239.49,-1036.37"/>
</g>
<!-- Node5 -->
<g id="node7" class="node">
<title>Node5</title>
<g id="a_node7"><a xlink:href="classtriton_1_1ast_1_1BvaddNode.html" target="_top" xlink:title="(bvadd &lt;expr1&gt; &lt;expr2&gt;) node">
<polygon fill="white" stroke="black" points="349,-1862.5 349,-1881.5 475,-1881.5 475,-1862.5 349,-1862.5"/>
<text text-anchor="middle" x="412" y="-1869.5" font-family="Helvetica,sans-Serif" font-size="10.00">triton::ast::BvaddNode</text>
</a>
</g>
</g>
<!-- Node0&#45;&gt;Node5 -->
<g id="edge6" class="edge">
<title>Node0&#45;&gt;Node5</title>
<path fill="none" stroke="midnightblue" d="M236.11,-1036.71C243.09,-1157 282.23,-1789.33 338,-1853 341.37,-1856.84 345.4,-1859.95 349.82,-1862.47"/>
<polygon fill="midnightblue" stroke="midnightblue" points="239.61,-1036.48 235.54,-1026.7 232.62,-1036.88 239.61,-1036.48"/>
</g>
<!-- Node6 -->
<g id="node8" class="node">
<title>Node6</title>
<g id="a_node8"><a xlink:href="classtriton_1_1ast_1_1BvandNode.html" target="_top" xlink:title="(bvand &lt;expr1&gt; &lt;expr2&gt;) node">
<polygon fill="white" stroke="black" points="349,-1824.5 349,-1843.5 475,-1843.5 475,-1824.5 349,-1824.5"/>
<text text-anchor="middle" x="412" y="-1831.5" font-family="Helvetica,sans-Serif" font-size="10.00">triton::ast::BvandNode</text>
</a>
</g>
</g>
<!-- Node0&#45;&gt;Node6 -->
<g id="edge7" class="edge">
<title>Node0&#45;&gt;Node6</title>
<path fill="none" stroke="midnightblue" d="M234.68,-1036.84C233.28,-1148.17 231.97,-1694.66 338,-1815 341.38,-1818.83 345.42,-1821.94 349.84,-1824.45"/>
<polygon fill="midnightblue" stroke="midnightblue" points="238.18,-1036.74 234.82,-1026.69 231.18,-1036.64 238.18,-1036.74"/>
</g>
<!-- Node7 -->
<g id="node9" class="node">
<title>Node7</title>
<g id="a_node9"><a xlink:href="classtriton_1_1ast_1_1BvashrNode.html" target="_top" xlink:title="(bvashr &lt;expr1&gt; &lt;expr2&gt;) node">
<polygon fill="white" stroke="black" points="347.5,-1786.5 347.5,-1805.5 476.5,-1805.5 476.5,-1786.5 347.5,-1786.5"/>
<text text-anchor="middle" x="412" y="-1793.5" font-family="Helvetica,sans-Serif" font-size="10.00">triton::ast::BvashrNode</text>
</a>
</g>
</g>
<!-- Node0&#45;&gt;Node7 -->
<g id="edge8" class="edge">
<title>Node0&#45;&gt;Node7</title>
<path fill="none" stroke="midnightblue" d="M234.82,-1036.9C234.25,-1145.21 236.89,-1662.98 338,-1777 341.39,-1780.82 345.44,-1783.92 349.87,-1786.43"/>
<polygon fill="midnightblue" stroke="midnightblue" points="238.32,-1036.76 234.89,-1026.73 231.32,-1036.71 238.32,-1036.76"/>
</g>
<!-- Node8 -->
<g id="node10" class="node">
<title>Node8</title>
<g id="a_node10"><a xlink:href="classtriton_1_1ast_1_1BvlshrNode.html" target="_top" xlink:title="(bvlshr &lt;expr1&gt; &lt;expr2&gt;) node">
<polygon fill="white" stroke="black" points="349,-1748.5 349,-1767.5 475,-1767.5 475,-1748.5 349,-1748.5"/>
<text text-anchor="middle" x="412" y="-1755.5" font-family="Helvetica,sans-Serif" font-size="10.00">triton::ast::BvlshrNode</text>
</a>
</g>
</g>
<!-- Node0&#45;&gt;Node8 -->
<g id="edge9" class="edge">
<title>Node0&#45;&gt;Node8</title>
<path fill="none" stroke="midnightblue" d="M234.98,-1037.22C235.27,-1142.94 241.88,-1631.36 338,-1739 341.4,-1742.81 345.46,-1745.9 349.9,-1748.4"/>
<polygon fill="midnightblue" stroke="midnightblue" points="238.48,-1036.98 234.97,-1026.99 231.48,-1036.99 238.48,-1036.98"/>
</g>
<!-- Node9 -->
<g id="node11" class="node">
<title>Node9</title>
<g id="a_node11"><a xlink:href="classtriton_1_1ast_1_1BvmulNode.html" target="_top" xlink:title="(bvmul &lt;expr1&gt; &lt;expr2&gt;) node">
<polygon fill="white" stroke="black" points="348.5,-1710.5 348.5,-1729.5 475.5,-1729.5 475.5,-1710.5 348.5,-1710.5"/>
<text text-anchor="middle" x="412" y="-1717.5" font-family="Helvetica,sans-Serif" font-size="10.00">triton::ast::BvmulNode</text>
</a>
</g>
</g>
<!-- Node0&#45;&gt;Node9 -->
<g id="edge10" class="edge">
<title>Node0&#45;&gt;Node9</title>
<path fill="none" stroke="midnightblue" d="M235.15,-1037.12C236.33,-1139.26 246.72,-1599.58 338,-1701 341.42,-1704.8 345.49,-1707.88 349.93,-1710.37"/>
<polygon fill="midnightblue" stroke="midnightblue" points="238.65,-1036.91 235.05,-1026.94 231.65,-1036.98 238.65,-1036.91"/>
</g>
<!-- Node10 -->
<g id="node12" class="node">
<title>Node10</title>
<g id="a_node12"><a xlink:href="classtriton_1_1ast_1_1BvnandNode.html" target="_top" xlink:title="(bvnand &lt;expr1&gt; &lt;expr2&gt;) node">
<polygon fill="white" stroke="black" points="346,-1672.5 346,-1691.5 478,-1691.5 478,-1672.5 346,-1672.5"/>
<text text-anchor="middle" x="412" y="-1679.5" font-family="Helvetica,sans-Serif" font-size="10.00">triton::ast::BvnandNode</text>
</a>
</g>
</g>
<!-- Node0&#45;&gt;Node10 -->
<g id="edge11" class="edge">
<title>Node0&#45;&gt;Node10</title>
<path fill="none" stroke="midnightblue" d="M235.34,-1036.92C237.44,-1135.24 251.53,-1567.76 338,-1663 341.43,-1666.78 345.51,-1669.85 349.97,-1672.34"/>
<polygon fill="midnightblue" stroke="midnightblue" points="238.84,-1036.79 235.15,-1026.86 231.84,-1036.93 238.84,-1036.79"/>
</g>
<!-- Node11 -->
<g id="node13" class="node">
<title>Node11</title>
<g id="a_node13"><a xlink:href="classtriton_1_1ast_1_1BvnegNode.html" target="_top" xlink:title="(bvneg &lt;expr&gt;) node">
<polygon fill="white" stroke="black" points="349,-1634.5 349,-1653.5 475,-1653.5 475,-1634.5 349,-1634.5"/>
<text text-anchor="middle" x="412" y="-1641.5" font-family="Helvetica,sans-Serif" font-size="10.00">triton::ast::BvnegNode</text>
</a>
</g>
</g>
<!-- Node0&#45;&gt;Node11 -->
<g id="edge12" class="edge">
<title>Node0&#45;&gt;Node11</title>
<path fill="none" stroke="midnightblue" d="M235.56,-1036.93C238.63,-1131.72 256.4,-1535.99 338,-1625 341.54,-1628.86 345.76,-1631.98 350.35,-1634.49"/>
<polygon fill="midnightblue" stroke="midnightblue" points="239.05,-1036.62 235.25,-1026.73 232.06,-1036.83 239.05,-1036.62"/>
</g>
<!-- Node12 -->
<g id="node14" class="node">
<title>Node12</title>
<g id="a_node14"><a xlink:href="classtriton_1_1ast_1_1BvnorNode.html" target="_top" xlink:title="(bvnor &lt;expr1&gt; &lt;expr2&gt;) node">
<polygon fill="white" stroke="black" points="350,-1596.5 350,-1615.5 474,-1615.5 474,-1596.5 350,-1596.5"/>
<text text-anchor="middle" x="412" y="-1603.5" font-family="Helvetica,sans-Serif" font-size="10.00">triton::ast::BvnorNode</text>
</a>
</g>
</g>
<!-- Node0&#45;&gt;Node12 -->
<g id="edge13" class="edge">
<title>Node0&#45;&gt;Node12</title>
<path fill="none" stroke="midnightblue" d="M235.8,-1036.82C239.88,-1127.76 261.21,-1504.16 338,-1587 341.56,-1590.84 345.79,-1593.95 350.4,-1596.45"/>
<polygon fill="midnightblue" stroke="midnightblue" points="239.29,-1036.4 235.36,-1026.56 232.29,-1036.7 239.29,-1036.4"/>
</g>
<!-- Node13 -->
<g id="node15" class="node">
<title>Node13</title>
<g id="a_node15"><a xlink:href="classtriton_1_1ast_1_1BvnotNode.html" target="_top" xlink:title="(bvnot &lt;expr&gt;) node">
<polygon fill="white" stroke="black" points="350,-1558.5 350,-1577.5 474,-1577.5 474,-1558.5 350,-1558.5"/>
<text text-anchor="middle" x="412" y="-1565.5" font-family="Helvetica,sans-Serif" font-size="10.00">triton::ast::BvnotNode</text>
</a>
</g>
</g>
<!-- Node0&#45;&gt;Node13 -->
<g id="edge14" class="edge">
<title>Node0&#45;&gt;Node13</title>
<path fill="none" stroke="midnightblue" d="M236.08,-1036.88C241.23,-1124.14 266.07,-1472.35 338,-1549 341.58,-1552.82 345.83,-1555.91 350.45,-1558.4"/>
<polygon fill="midnightblue" stroke="midnightblue" points="239.57,-1036.54 235.51,-1026.75 232.58,-1036.93 239.57,-1036.54"/>
</g>
<!-- Node14 -->
<g id="node16" class="node">
<title>Node14</title>
<g id="a_node16"><a xlink:href="classtriton_1_1ast_1_1BvorNode.html" target="_top" xlink:title="(bvor &lt;expr1&gt; &lt;expr2&gt;) node">
<polygon fill="white" stroke="black" points="353,-1520.5 353,-1539.5 471,-1539.5 471,-1520.5 353,-1520.5"/>
<text text-anchor="middle" x="412" y="-1527.5" font-family="Helvetica,sans-Serif" font-size="10.00">triton::ast::BvorNode</text>
</a>
</g>
</g>
<!-- Node0&#45;&gt;Node14 -->
<g id="edge15" class="edge">
<title>Node0&#45;&gt;Node14</title>
<path fill="none" stroke="midnightblue" d="M236.41,-1037.04C242.72,-1120.64 270.93,-1440.55 338,-1511 342.24,-1515.46 347.39,-1518.92 352.96,-1521.6"/>
<polygon fill="midnightblue" stroke="midnightblue" points="239.89,-1036.58 235.67,-1026.86 232.91,-1037.09 239.89,-1036.58"/>
</g>
<!-- Node15 -->
<g id="node17" class="node">
<title>Node15</title>
<g id="a_node17"><a xlink:href="classtriton_1_1ast_1_1BvrolNode.html" target="_top" xlink:title="((_ rotate_left rot) &lt;expr&gt;) node">
<polygon fill="white" stroke="black" points="351.5,-1482.5 351.5,-1501.5 472.5,-1501.5 472.5,-1482.5 351.5,-1482.5"/>
<text text-anchor="middle" x="412" y="-1489.5" font-family="Helvetica,sans-Serif" font-size="10.00">triton::ast::BvrolNode</text>
</a>
</g>
</g>
<!-- Node0&#45;&gt;Node15 -->
<g id="edge16" class="edge">
<title>Node0&#45;&gt;Node15</title>
<path fill="none" stroke="midnightblue" d="M236.79,-1037C244.28,-1116.48 275.72,-1408.67 338,-1473 341.83,-1476.95 346.36,-1480.12 351.27,-1482.65"/>
<polygon fill="midnightblue" stroke="midnightblue" points="240.26,-1036.51 235.85,-1026.88 233.29,-1037.15 240.26,-1036.51"/>
</g>
<!-- Node16 -->
<g id="node18" class="node">
<title>Node16</title>
<g id="a_node18"><a xlink:href="classtriton_1_1ast_1_1BvrorNode.html" target="_top" xlink:title="((_ rotate_right rot) &lt;expr&gt;) node">
<polygon fill="white" stroke="black" points="351,-1444.5 351,-1463.5 473,-1463.5 473,-1444.5 351,-1444.5"/>
<text text-anchor="middle" x="412" y="-1451.5" font-family="Helvetica,sans-Serif" font-size="10.00">triton::ast::BvrorNode</text>
</a>
</g>
</g>
<!-- Node0&#45;&gt;Node16 -->
<g id="edge17" class="edge">
<title>Node0&#45;&gt;Node16</title>
<path fill="none" stroke="midnightblue" d="M237.2,-1036.77C245.93,-1111.67 280.44,-1376.69 338,-1435 341.77,-1438.82 346.21,-1441.91 351,-1444.39"/>
<polygon fill="midnightblue" stroke="midnightblue" points="240.67,-1036.33 236.06,-1026.79 233.72,-1037.12 240.67,-1036.33"/>
</g>
<!-- Node17 -->
<g id="node19" class="node">
<title>Node17</title>
<g id="a_node19"><a xlink:href="classtriton_1_1ast_1_1BvsdivNode.html" target="_top" xlink:title="(bvsdiv &lt;expr1&gt; &lt;expr2&gt;) node">
<polygon fill="white" stroke="black" points="348,-1406.5 348,-1425.5 476,-1425.5 476,-1406.5 348,-1406.5"/>
<text text-anchor="middle" x="412" y="-1413.5" font-family="Helvetica,sans-Serif" font-size="10.00">triton::ast::BvsdivNode</text>
</a>
</g>
</g>
<!-- Node0&#45;&gt;Node17 -->
<g id="edge18" class="edge">
<title>Node0&#45;&gt;Node17</title>
<path fill="none" stroke="midnightblue" d="M237.72,-1036.75C247.8,-1107.2 285.2,-1344.73 338,-1397 341.91,-1400.87 346.5,-1403.98 351.44,-1406.48"/>
<polygon fill="midnightblue" stroke="midnightblue" points="241.15,-1036.01 236.29,-1026.6 234.22,-1036.99 241.15,-1036.01"/>
</g>
<!-- Node18 -->
<g id="node20" class="node">
<title>Node18</title>
<g id="a_node20"><a xlink:href="classtriton_1_1ast_1_1BvsgeNode.html" target="_top" xlink:title="(bvsge &lt;expr1&gt; &lt;expr2&gt;) node">
<polygon fill="white" stroke="black" points="349.5,-1368.5 349.5,-1387.5 474.5,-1387.5 474.5,-1368.5 349.5,-1368.5"/>
<text text-anchor="middle" x="412" y="-1375.5" font-family="Helvetica,sans-Serif" font-size="10.00">triton::ast::BvsgeNode</text>
</a>
</g>
</g>
<!-- Node0&#45;&gt;Node18 -->
<g id="edge19" class="edge">
<title>Node0&#45;&gt;Node18</title>
<path fill="none" stroke="midnightblue" d="M234.69,-1036.63C234.9,-1094.87 243.77,-1268.28 338,-1359 341.96,-1362.81 346.59,-1365.89 351.56,-1368.36"/>
<polygon fill="midnightblue" stroke="midnightblue" points="238.19,-1036.59 234.74,-1026.57 231.19,-1036.56 238.19,-1036.59"/>
</g>
<!-- Node19 -->
<g id="node21" class="node">
<title>Node19</title>
<g id="a_node21"><a xlink:href="classtriton_1_1ast_1_1BvsgtNode.html" target="_top" xlink:title="(bvsgt &lt;expr1&gt; &lt;expr2&gt;) node">
<polygon fill="white" stroke="black" points="350.5,-1330.5 350.5,-1349.5 473.5,-1349.5 473.5,-1330.5 350.5,-1330.5"/>
<text text-anchor="middle" x="412" y="-1337.5" font-family="Helvetica,sans-Serif" font-size="10.00">triton::ast::BvsgtNode</text>
</a>
</g>
</g>
<!-- Node0&#45;&gt;Node19 -->
<g id="edge20" class="edge">
<title>Node0&#45;&gt;Node19</title>
<path fill="none" stroke="midnightblue" d="M235.56,-1036.92C238.22,-1091.06 253.24,-1242.14 338,-1321 342.12,-1324.84 346.92,-1327.92 352.05,-1330.39"/>
<polygon fill="midnightblue" stroke="midnightblue" points="239.05,-1036.49 235.16,-1026.63 232.06,-1036.76 239.05,-1036.49"/>
</g>
<!-- Node20 -->
<g id="node22" class="node">
<title>Node20</title>
<g id="a_node22"><a xlink:href="classtriton_1_1ast_1_1BvshlNode.html" target="_top" xlink:title="(bvshl &lt;expr1&gt; &lt;expr2&gt;) node">
<polygon fill="white" stroke="black" points="351,-1292.5 351,-1311.5 473,-1311.5 473,-1292.5 351,-1292.5"/>
<text text-anchor="middle" x="412" y="-1299.5" font-family="Helvetica,sans-Serif" font-size="10.00">triton::ast::BvshlNode</text>
</a>
</g>
</g>
<!-- Node0&#45;&gt;Node20 -->
<g id="edge21" class="edge">
<title>Node0&#45;&gt;Node20</title>
<path fill="none" stroke="midnightblue" d="M236.64,-1036.74C241.84,-1086.06 262.37,-1215.59 338,-1283 342.3,-1286.83 347.28,-1289.91 352.58,-1292.38"/>
<polygon fill="midnightblue" stroke="midnightblue" points="240.12,-1036.36 235.69,-1026.74 233.16,-1037.02 240.12,-1036.36"/>
</g>
<!-- Node21 -->
<g id="node23" class="node">
<title>Node21</title>
<g id="a_node23"><a xlink:href="classtriton_1_1ast_1_1BvsleNode.html" target="_top" xlink:title="(bvsle &lt;expr1&gt; &lt;expr2&gt;) node">
<polygon fill="white" stroke="black" points="351,-1254.5 351,-1273.5 473,-1273.5 473,-1254.5 351,-1254.5"/>
<text text-anchor="middle" x="412" y="-1261.5" font-family="Helvetica,sans-Serif" font-size="10.00">triton::ast::BvsleNode</text>
</a>
</g>
</g>
<!-- Node0&#45;&gt;Node21 -->
<g id="edge22" class="edge">
<title>Node0&#45;&gt;Node21</title>
<path fill="none" stroke="midnightblue" d="M238.03,-1036.56C245.94,-1080.75 271.41,-1188.85 338,-1245 342.61,-1248.88 347.91,-1251.98 353.52,-1254.46"/>
<polygon fill="midnightblue" stroke="midnightblue" points="241.46,-1035.83 236.35,-1026.54 234.55,-1036.99 241.46,-1035.83"/>
</g>
<!-- Node22 -->
<g id="node24" class="node">
<title>Node22</title>
<g id="a_node24"><a xlink:href="classtriton_1_1ast_1_1BvsltNode.html" target="_top" xlink:title="(bvslt &lt;expr1&gt; &lt;expr2&gt;) node">
<polygon fill="white" stroke="black" points="352,-1216.5 352,-1235.5 472,-1235.5 472,-1216.5 352,-1216.5"/>
<text text-anchor="middle" x="412" y="-1223.5" font-family="Helvetica,sans-Serif" font-size="10.00">triton::ast::BvsltNode</text>
</a>
</g>
</g>
<!-- Node0&#45;&gt;Node22 -->
<g id="edge23" class="edge">
<title>Node0&#45;&gt;Node22</title>
<path fill="none" stroke="midnightblue" d="M239.98,-1036.67C250.85,-1075.46 280.46,-1161.94 338,-1207 342.95,-1210.88 348.61,-1213.97 354.54,-1216.43"/>
<polygon fill="midnightblue" stroke="midnightblue" points="243.27,-1035.42 237.3,-1026.67 236.51,-1037.23 243.27,-1035.42"/>
</g>
<!-- Node23 -->
<g id="node25" class="node">
<title>Node23</title>
<g id="a_node25"><a xlink:href="classtriton_1_1ast_1_1BvsmodNode.html" target="_top" xlink:title="(bvsmod &lt;expr1&gt; &lt;expr2&gt;) node">
<polygon fill="white" stroke="black" points="344.5,-1178.5 344.5,-1197.5 479.5,-1197.5 479.5,-1178.5 344.5,-1178.5"/>
<text text-anchor="middle" x="412" y="-1185.5" font-family="Helvetica,sans-Serif" font-size="10.00">triton::ast::BvsmodNode</text>
</a>
</g>
</g>
<!-- Node0&#45;&gt;Node23 -->
<g id="edge24" class="edge">
<title>Node0&#45;&gt;Node23</title>
<path fill="none" stroke="midnightblue" d="M242.45,-1035.85C256.24,-1068.25 288.9,-1134.32 338,-1169 343.46,-1172.85 349.63,-1175.93 356.03,-1178.37"/>
<polygon fill="midnightblue" stroke="midnightblue" points="245.68,-1034.51 238.64,-1026.6 239.21,-1037.18 245.68,-1034.51"/>
</g>
<!-- Node24 -->
<g id="node26" class="node">
<title>Node24</title>
<g id="a_node26"><a xlink:href="classtriton_1_1ast_1_1BvsremNode.html" target="_top" xlink:title="(bvsrem &lt;expr1&gt; &lt;expr2&gt;) node">
<polygon fill="white" stroke="black" points="345.5,-1140.5 345.5,-1159.5 478.5,-1159.5 478.5,-1140.5 345.5,-1140.5"/>
<text text-anchor="middle" x="412" y="-1147.5" font-family="Helvetica,sans-Serif" font-size="10.00">triton::ast::BvsremNode</text>
</a>
</g>
</g>
<!-- Node0&#45;&gt;Node24 -->
<g id="edge25" class="edge">
<title>Node0&#45;&gt;Node24</title>
<path fill="none" stroke="midnightblue" d="M246.49,-1035.34C263.38,-1060.76 297.36,-1106.34 338,-1131 344.38,-1134.87 351.54,-1137.96 358.81,-1140.43"/>
<polygon fill="midnightblue" stroke="midnightblue" points="249.25,-1033.16 240.87,-1026.67 243.37,-1036.97 249.25,-1033.16"/>
</g>
<!-- Node25 -->
<g id="node27" class="node">
<title>Node25</title>
<g id="a_node27"><a xlink:href="classtriton_1_1ast_1_1BvsubNode.html" target="_top" xlink:title="(bvsub &lt;expr1&gt; &lt;expr2&gt;) node">
<polygon fill="white" stroke="black" points="349.5,-1102.5 349.5,-1121.5 474.5,-1121.5 474.5,-1102.5 349.5,-1102.5"/>
<text text-anchor="middle" x="412" y="-1109.5" font-family="Helvetica,sans-Serif" font-size="10.00">triton::ast::BvsubNode</text>
</a>
</g>
</g>
<!-- Node0&#45;&gt;Node25 -->
<g id="edge26" class="edge">
<title>Node0&#45;&gt;Node25</title>
<path fill="none" stroke="midnightblue" d="M252.74,-1033.43C272.24,-1050.65 305.18,-1077.34 338,-1093 345.92,-1096.78 354.69,-1099.88 363.33,-1102.4"/>
<polygon fill="midnightblue" stroke="midnightblue" points="255.02,-1030.77 245.24,-1026.69 250.33,-1035.98 255.02,-1030.77"/>
</g>
<!-- Node26 -->
<g id="node28" class="node">
<title>Node26</title>
<g id="a_node28"><a xlink:href="classtriton_1_1ast_1_1BvudivNode.html" target="_top" xlink:title="(bvudiv &lt;expr1&gt; &lt;expr2&gt;) node">
<polygon fill="white" stroke="black" points="347.5,-1064.5 347.5,-1083.5 476.5,-1083.5 476.5,-1064.5 347.5,-1064.5"/>
<text text-anchor="middle" x="412" y="-1071.5" font-family="Helvetica,sans-Serif" font-size="10.00">triton::ast::BvudivNode</text>
</a>
</g>
</g>
<!-- Node0&#45;&gt;Node26 -->
<g id="edge27" class="edge">
<title>Node0&#45;&gt;Node26</title>
<path fill="none" stroke="midnightblue" d="M268.49,-1030.31C288.5,-1038.02 314.51,-1047.63 338,-1055 348.75,-1058.37 360.51,-1061.62 371.4,-1064.45"/>
<polygon fill="midnightblue" stroke="midnightblue" points="269.5,-1026.95 258.91,-1026.59 266.96,-1033.47 269.5,-1026.95"/>
</g>
<!-- Node27 -->
<g id="node29" class="node">
<title>Node27</title>
<g id="a_node29"><a xlink:href="classtriton_1_1ast_1_1BvugeNode.html" target="_top" xlink:title="(bvuge &lt;expr1&gt; &lt;expr2&gt;) node">
<polygon fill="white" stroke="black" points="349,-1026.5 349,-1045.5 475,-1045.5 475,-1026.5 349,-1026.5"/>
<text text-anchor="middle" x="412" y="-1033.5" font-family="Helvetica,sans-Serif" font-size="10.00">triton::ast::BvugeNode</text>
</a>
</g>
</g>
<!-- Node0&#45;&gt;Node27 -->
<g id="edge28" class="edge">
<title>Node0&#45;&gt;Node27</title>
<path fill="none" stroke="midnightblue" d="M312.22,-1025.34C324.45,-1026.66 336.95,-1028.01 348.78,-1029.28"/>
<polygon fill="midnightblue" stroke="midnightblue" points="312.36,-1021.83 302.04,-1024.24 311.61,-1028.79 312.36,-1021.83"/>
</g>
<!-- Node28 -->
<g id="node30" class="node">
<title>Node28</title>
<g id="a_node30"><a xlink:href="classtriton_1_1ast_1_1BvugtNode.html" target="_top" xlink:title="(bvugt &lt;expr1&gt; &lt;expr2&gt;) node">
<polygon fill="white" stroke="black" points="350,-988.5 350,-1007.5 474,-1007.5 474,-988.5 350,-988.5"/>
<text text-anchor="middle" x="412" y="-995.5" font-family="Helvetica,sans-Serif" font-size="10.00">triton::ast::BvugtNode</text>
</a>
</g>
</g>
<!-- Node0&#45;&gt;Node28 -->
<g id="edge29" class="edge">
<title>Node0&#45;&gt;Node28</title>
<path fill="none" stroke="midnightblue" d="M312.11,-1008.68C324.76,-1007.31 337.73,-1005.91 349.92,-1004.59"/>
<polygon fill="midnightblue" stroke="midnightblue" points="311.61,-1005.21 302.04,-1009.76 312.36,-1012.17 311.61,-1005.21"/>
</g>
<!-- Node29 -->
<g id="node31" class="node">
<title>Node29</title>
<g id="a_node31"><a xlink:href="classtriton_1_1ast_1_1BvuleNode.html" target="_top" xlink:title="(bvule &lt;expr1&gt; &lt;expr2&gt;) node">
<polygon fill="white" stroke="black" points="350.5,-950.5 350.5,-969.5 473.5,-969.5 473.5,-950.5 350.5,-950.5"/>
<text text-anchor="middle" x="412" y="-957.5" font-family="Helvetica,sans-Serif" font-size="10.00">triton::ast::BvuleNode</text>
</a>
</g>
</g>
<!-- Node0&#45;&gt;Node29 -->
<g id="edge30" class="edge">
<title>Node0&#45;&gt;Node29</title>
<path fill="none" stroke="midnightblue" d="M283.77,-1004.47C289.97,-1002.5 296.18,-1000.33 302,-998 318.79,-991.27 321.13,-985.54 338,-979 347.4,-975.35 357.75,-972.18 367.63,-969.53"/>
<polygon fill="midnightblue" stroke="midnightblue" points="282.64,-1001.15 274.08,-1007.4 284.67,-1007.85 282.64,-1001.15"/>
</g>
<!-- Node30 -->
<g id="node32" class="node">
<title>Node30</title>
<g id="a_node32"><a xlink:href="classtriton_1_1ast_1_1BvultNode.html" target="_top" xlink:title="(bvult &lt;expr1&gt; &lt;expr2&gt;) node">
<polygon fill="white" stroke="black" points="351.5,-912.5 351.5,-931.5 472.5,-931.5 472.5,-912.5 351.5,-912.5"/>
<text text-anchor="middle" x="412" y="-919.5" font-family="Helvetica,sans-Serif" font-size="10.00">triton::ast::BvultNode</text>
</a>
</g>
</g>
<!-- Node0&#45;&gt;Node30 -->
<g id="edge31" class="edge">
<title>Node0&#45;&gt;Node30</title>
<path fill="none" stroke="midnightblue" d="M293.64,-1003.28C296.58,-1001.71 299.39,-999.95 302,-998 326,-980.06 313.81,-958.68 338,-941 343.29,-937.14 349.29,-934.06 355.54,-931.6"/>
<polygon fill="midnightblue" stroke="midnightblue" points="292.16,-1000.11 284.55,-1007.48 295.09,-1006.47 292.16,-1000.11"/>
</g>
<!-- Node31 -->
<g id="node33" class="node">
<title>Node31</title>
<g id="a_node33"><a xlink:href="classtriton_1_1ast_1_1BvuremNode.html" target="_top" xlink:title="(bvurem &lt;expr1&gt; &lt;expr2&gt;) node">
<polygon fill="white" stroke="black" points="345,-874.5 345,-893.5 479,-893.5 479,-874.5 345,-874.5"/>
<text text-anchor="middle" x="412" y="-881.5" font-family="Helvetica,sans-Serif" font-size="10.00">triton::ast::BvuremNode</text>
</a>
</g>
</g>
<!-- Node0&#45;&gt;Node31 -->
<g id="edge32" class="edge">
<title>Node0&#45;&gt;Node31</title>
<path fill="none" stroke="midnightblue" d="M296.57,-1002.31C298.48,-1000.99 300.3,-999.56 302,-998 335.27,-967.47 304.4,-933.16 338,-903 342.29,-899.15 347.26,-896.06 352.55,-893.59"/>
<polygon fill="midnightblue" stroke="midnightblue" points="294.64,-999.38 287.68,-1007.37 298.1,-1005.46 294.64,-999.38"/>
</g>
<!-- Node33 -->
<g id="node34" class="node">
<title>Node33</title>
<g id="a_node34"><a xlink:href="classtriton_1_1ast_1_1BvxorNode.html" target="_top" xlink:title="(bvxor &lt;expr1&gt; &lt;expr2&gt;) node">
<polygon fill="white" stroke="black" points="350.5,-836.5 350.5,-855.5 473.5,-855.5 473.5,-836.5 350.5,-836.5"/>
<text text-anchor="middle" x="412" y="-843.5" font-family="Helvetica,sans-Serif" font-size="10.00">triton::ast::BvxorNode</text>
</a>
</g>
</g>
<!-- Node0&#45;&gt;Node33 -->
<g id="edge34" class="edge">
<title>Node0&#45;&gt;Node33</title>
<path fill="none" stroke="midnightblue" d="M297.41,-1002.04C299.03,-1000.79 300.57,-999.45 302,-998 345.04,-954.44 294.49,-908.09 338,-865 341.91,-861.13 346.5,-858.02 351.44,-855.52"/>
<polygon fill="midnightblue" stroke="midnightblue" points="295.36,-999.19 288.72,-1007.44 299.06,-1005.13 295.36,-999.19"/>
</g>
<!-- Node34 -->
<g id="node35" class="node">
<title>Node34</title>
<g id="a_node35"><a xlink:href="classtriton_1_1ast_1_1CompoundNode.html" target="_top" xlink:title="[&lt;expr1&gt; &lt;expr2&gt; &lt;expr3&gt; ...] node">
<polygon fill="white" stroke="black" points="338,-798.5 338,-817.5 486,-817.5 486,-798.5 338,-798.5"/>
<text text-anchor="middle" x="412" y="-805.5" font-family="Helvetica,sans-Serif" font-size="10.00">triton::ast::CompoundNode</text>
</a>
</g>
</g>
<!-- Node0&#45;&gt;Node34 -->
<g id="edge35" class="edge">
<title>Node0&#45;&gt;Node34</title>
<path fill="none" stroke="midnightblue" d="M298.01,-1001.74C299.42,-1000.58 300.75,-999.34 302,-998 355,-941.22 284.39,-883.2 338,-827 341.62,-823.21 345.88,-820.14 350.51,-817.66"/>
<polygon fill="midnightblue" stroke="midnightblue" points="295.7,-999.07 289.27,-1007.49 299.55,-1004.92 295.7,-999.07"/>
</g>
<!-- Node35 -->
<g id="node36" class="node">
<title>Node35</title>
<g id="a_node36"><a xlink:href="classtriton_1_1ast_1_1ConcatNode.html" target="_top" xlink:title="(concat &lt;expr1&gt; &lt;expr2&gt; ...) node">
<polygon fill="white" stroke="black" points="347.5,-760.5 347.5,-779.5 476.5,-779.5 476.5,-760.5 347.5,-760.5"/>
<text text-anchor="middle" x="412" y="-767.5" font-family="Helvetica,sans-Serif" font-size="10.00">triton::ast::ConcatNode</text>
</a>
</g>
</g>
<!-- Node0&#45;&gt;Node35 -->
<g id="edge36" class="edge">
<title>Node0&#45;&gt;Node35</title>
<path fill="none" stroke="midnightblue" d="M298.17,-1001.72C299.52,-1000.57 300.8,-999.33 302,-998 365.03,-927.92 274.21,-858.39 338,-789 341.55,-785.14 345.76,-782.03 350.36,-779.52"/>
<polygon fill="midnightblue" stroke="midnightblue" points="296.04,-998.94 289.74,-1007.46 299.98,-1004.73 296.04,-998.94"/>
</g>
<!-- Node36 -->
<g id="node37" class="node">
<title>Node36</title>
<g id="a_node37"><a xlink:href="classtriton_1_1ast_1_1DeclareNode.html" target="_top" xlink:title="(declare&#45;fun &lt;var_name&gt; () (_ BitVec &lt;var_size&gt;)) node">
<polygon fill="white" stroke="black" points="345.5,-722.5 345.5,-741.5 478.5,-741.5 478.5,-722.5 345.5,-722.5"/>
<text text-anchor="middle" x="412" y="-729.5" font-family="Helvetica,sans-Serif" font-size="10.00">triton::ast::DeclareNode</text>
</a>
</g>
</g>
<!-- Node0&#45;&gt;Node36 -->
<g id="edge37" class="edge">
<title>Node0&#45;&gt;Node36</title>
<path fill="none" stroke="midnightblue" d="M298.67,-1001.37C299.84,-1000.31 300.95,-999.19 302,-998 375.12,-914.57 263.98,-833.63 338,-751 341.41,-747.2 345.47,-744.11 349.91,-741.61"/>
<polygon fill="midnightblue" stroke="midnightblue" points="296.31,-998.74 290.17,-1007.37 300.35,-1004.46 296.31,-998.74"/>
</g>
<!-- Node37 -->
<g id="node38" class="node">
<title>Node37</title>
<g id="a_node38"><a xlink:href="classtriton_1_1ast_1_1DistinctNode.html" target="_top" xlink:title="(distinct &lt;expr1&gt; &lt;expr2&gt; ...) node">
<polygon fill="white" stroke="black" points="345.5,-684.5 345.5,-703.5 478.5,-703.5 478.5,-684.5 345.5,-684.5"/>
<text text-anchor="middle" x="412" y="-691.5" font-family="Helvetica,sans-Serif" font-size="10.00">triton::ast::DistinctNode</text>
</a>
</g>
</g>
<!-- Node0&#45;&gt;Node37 -->
<g id="edge38" class="edge">
<title>Node0&#45;&gt;Node37</title>
<path fill="none" stroke="midnightblue" d="M298.7,-1001.39C299.86,-1000.33 300.97,-999.2 302,-998 385.23,-901.18 253.73,-808.91 338,-713 341.37,-709.16 345.41,-706.05 349.83,-703.54"/>
<polygon fill="midnightblue" stroke="midnightblue" points="296.34,-998.78 290.24,-1007.44 300.41,-1004.47 296.34,-998.78"/>
</g>
<!-- Node38 -->
<g id="node39" class="node">
<title>Node38</title>
<g id="a_node39"><a xlink:href="classtriton_1_1ast_1_1EqualNode.html" target="_top" xlink:title="(= &lt;expr1&gt; &lt;expr2&gt; ...) node">
<polygon fill="white" stroke="black" points="351,-646.5 351,-665.5 473,-665.5 473,-646.5 351,-646.5"/>
<text text-anchor="middle" x="412" y="-653.5" font-family="Helvetica,sans-Serif" font-size="10.00">triton::ast::EqualNode</text>
</a>
</g>
</g>
<!-- Node0&#45;&gt;Node38 -->
<g id="edge39" class="edge">
<title>Node0&#45;&gt;Node38</title>
<path fill="none" stroke="midnightblue" d="M298.72,-1001.41C299.88,-1000.35 300.97,-999.21 302,-998 395.36,-887.78 243.45,-784.2 338,-675 341.6,-670.84 345.98,-667.54 350.8,-664.92"/>
<polygon fill="midnightblue" stroke="midnightblue" points="296.36,-998.8 290.3,-1007.49 300.46,-1004.48 296.36,-998.8"/>
</g>
<!-- Node39 -->
<g id="node40" class="node">
<title>Node39</title>
<g id="a_node40"><a xlink:href="classtriton_1_1ast_1_1ExtractNode.html" target="_top" xlink:title="((_ extract &lt;high&gt; &lt;low&gt;) &lt;expr&gt;) node">
<polygon fill="white" stroke="black" points="347,-608.5 347,-627.5 477,-627.5 477,-608.5 347,-608.5"/>
<text text-anchor="middle" x="412" y="-615.5" font-family="Helvetica,sans-Serif" font-size="10.00">triton::ast::ExtractNode</text>
</a>
</g>
</g>
<!-- Node0&#45;&gt;Node39 -->
<g id="edge40" class="edge">
<title>Node0&#45;&gt;Node39</title>
<path fill="none" stroke="midnightblue" d="M298.82,-1001.35C299.94,-1000.3 301.01,-999.19 302,-998 405.49,-874.36 233.17,-759.51 338,-637 341.24,-633.22 345.12,-630.14 349.39,-627.64"/>
<polygon fill="midnightblue" stroke="midnightblue" points="296.65,-998.61 290.66,-1007.35 300.79,-1004.25 296.65,-998.61"/>
</g>
<!-- Node40 -->
<g id="node41" class="node">
<title>Node40</title>
<g id="a_node41"><a xlink:href="classtriton_1_1ast_1_1ForallNode.html" target="_top" xlink:title="(forall ((x (_ BitVec &lt;size&gt;)), ...) body)">
<polygon fill="white" stroke="black" points="351,-570.5 351,-589.5 473,-589.5 473,-570.5 351,-570.5"/>
<text text-anchor="middle" x="412" y="-577.5" font-family="Helvetica,sans-Serif" font-size="10.00">triton::ast::ForallNode</text>
</a>
</g>
</g>
<!-- Node0&#45;&gt;Node40 -->
<g id="edge41" class="edge">
<title>Node0&#45;&gt;Node40</title>
<path fill="none" stroke="midnightblue" d="M298.84,-1001.37C299.95,-1000.31 301.01,-999.19 302,-998 358.82,-929.46 280.44,-666.91 338,-599 341.56,-594.8 345.91,-591.47 350.71,-588.84"/>
<polygon fill="midnightblue" stroke="midnightblue" points="296.66,-998.62 290.7,-1007.38 300.82,-1004.25 296.66,-998.62"/>
</g>
<!-- Node41 -->
<g id="node42" class="node">
<title>Node41</title>
<g id="a_node42"><a xlink:href="classtriton_1_1ast_1_1IffNode.html" target="_top" xlink:title="(iff &lt;expr1&gt; &lt;expr2&gt;)">
<polygon fill="white" stroke="black" points="359.5,-532.5 359.5,-551.5 464.5,-551.5 464.5,-532.5 359.5,-532.5"/>
<text text-anchor="middle" x="412" y="-539.5" font-family="Helvetica,sans-Serif" font-size="10.00">triton::ast::IffNode</text>
</a>
</g>
</g>
<!-- Node0&#45;&gt;Node41 -->
<g id="edge42" class="edge">
<title>Node0&#45;&gt;Node41</title>
<path fill="none" stroke="midnightblue" d="M298.85,-1001.38C299.96,-1000.32 301.02,-999.2 302,-998 363.9,-922.75 275.29,-635.58 338,-561 343.56,-554.38 351.11,-549.92 359.25,-546.93"/>
<polygon fill="midnightblue" stroke="midnightblue" points="296.67,-998.63 290.73,-1007.41 300.85,-1004.25 296.67,-998.63"/>
</g>
<!-- Node42 -->
<g id="node43" class="node">
<title>Node42</title>
<g id="a_node43"><a xlink:href="classtriton_1_1ast_1_1IntegerNode.html" target="_top" xlink:title="Integer node.">
<polygon fill="white" stroke="black" points="347,-494.5 347,-513.5 477,-513.5 477,-494.5 347,-494.5"/>
<text text-anchor="middle" x="412" y="-501.5" font-family="Helvetica,sans-Serif" font-size="10.00">triton::ast::IntegerNode</text>
</a>
</g>
</g>
<!-- Node0&#45;&gt;Node42 -->
<g id="edge43" class="edge">
<title>Node0&#45;&gt;Node42</title>
<path fill="none" stroke="midnightblue" d="M298.86,-1001.39C299.97,-1000.33 301.02,-999.2 302,-998 368.98,-916.03 270.14,-604.24 338,-523 341.19,-519.18 345.04,-516.08 349.29,-513.56"/>
<polygon fill="midnightblue" stroke="midnightblue" points="296.68,-998.64 290.76,-1007.43 300.87,-1004.26 296.68,-998.64"/>
</g>
<!-- Node43 -->
<g id="node44" class="node">
<title>Node43</title>
<g id="a_node44"><a xlink:href="classtriton_1_1ast_1_1IteNode.html" target="_top" xlink:title="(ite &lt;ifExpr&gt; &lt;thenExpr&gt; &lt;elseExpr&gt;)">
<polygon fill="white" stroke="black" points="358,-456.5 358,-475.5 466,-475.5 466,-456.5 358,-456.5"/>
<text text-anchor="middle" x="412" y="-463.5" font-family="Helvetica,sans-Serif" font-size="10.00">triton::ast::IteNode</text>
</a>
</g>
</g>
<!-- Node0&#45;&gt;Node43 -->
<g id="edge44" class="edge">
<title>Node0&#45;&gt;Node43</title>
<path fill="none" stroke="midnightblue" d="M298.87,-1001.39C299.98,-1000.33 301.02,-999.2 302,-998 374.06,-909.3 264.98,-572.91 338,-485 343.19,-478.75 350.14,-474.42 357.71,-471.44"/>
<polygon fill="midnightblue" stroke="midnightblue" points="296.69,-998.65 290.78,-1007.45 300.88,-1004.26 296.69,-998.65"/>
</g>
<!-- Node44 -->
<g id="node45" class="node">
<title>Node44</title>
<g id="a_node45"><a xlink:href="classtriton_1_1ast_1_1LandNode.html" target="_top" xlink:title="(and &lt;expr1&gt; &lt;expr2&gt;)">
<polygon fill="white" stroke="black" points="352.5,-418.5 352.5,-437.5 471.5,-437.5 471.5,-418.5 352.5,-418.5"/>
<text text-anchor="middle" x="412" y="-425.5" font-family="Helvetica,sans-Serif" font-size="10.00">triton::ast::LandNode</text>
</a>
</g>
</g>
<!-- Node0&#45;&gt;Node44 -->
<g id="edge45" class="edge">
<title>Node0&#45;&gt;Node44</title>
<path fill="none" stroke="midnightblue" d="M298.88,-1001.4C299.98,-1000.34 301.03,-999.2 302,-998 379.14,-902.58 259.83,-541.58 338,-447 341.92,-442.26 346.86,-438.61 352.32,-435.83"/>
<polygon fill="midnightblue" stroke="midnightblue" points="296.7,-998.66 290.8,-1007.46 300.9,-1004.26 296.7,-998.66"/>
</g>
<!-- Node45 -->
<g id="node46" class="node">
<title>Node45</title>
<g id="a_node46"><a xlink:href="classtriton_1_1ast_1_1LetNode.html" target="_top" xlink:title="(let ((&lt;alias&gt; &lt;expr2&gt;)) &lt;expr3&gt;)">
<polygon fill="white" stroke="black" points="357,-380.5 357,-399.5 467,-399.5 467,-380.5 357,-380.5"/>
<text text-anchor="middle" x="412" y="-387.5" font-family="Helvetica,sans-Serif" font-size="10.00">triton::ast::LetNode</text>
</a>
</g>
</g>
<!-- Node0&#45;&gt;Node45 -->
<g id="edge46" class="edge">
<title>Node0&#45;&gt;Node45</title>
<path fill="none" stroke="midnightblue" d="M298.88,-1001.4C299.99,-1000.34 301.03,-999.21 302,-998 384.23,-895.85 254.67,-510.25 338,-409 342.99,-402.93 349.66,-398.67 356.93,-395.69"/>
<polygon fill="midnightblue" stroke="midnightblue" points="296.7,-998.67 290.82,-1007.48 300.91,-1004.26 296.7,-998.67"/>
</g>
<!-- Node46 -->
<g id="node47" class="node">
<title>Node46</title>
<g id="a_node47"><a xlink:href="classtriton_1_1ast_1_1LnotNode.html" target="_top" xlink:title="(lnot &lt;expr&gt;)">
<polygon fill="white" stroke="black" points="354,-342.5 354,-361.5 470,-361.5 470,-342.5 354,-342.5"/>
<text text-anchor="middle" x="412" y="-349.5" font-family="Helvetica,sans-Serif" font-size="10.00">triton::ast::LnotNode</text>
</a>
</g>
</g>
<!-- Node0&#45;&gt;Node46 -->
<g id="edge47" class="edge">
<title>Node0&#45;&gt;Node46</title>
<path fill="none" stroke="midnightblue" d="M298.89,-1001.41C299.99,-1000.34 301.03,-999.21 302,-998 389.31,-889.12 249.51,-478.92 338,-371 342.23,-365.84 347.68,-361.97 353.68,-359.1"/>
<polygon fill="midnightblue" stroke="midnightblue" points="296.71,-998.67 290.83,-1007.49 300.92,-1004.26 296.71,-998.67"/>
</g>
<!-- Node47 -->
<g id="node48" class="node">
<title>Node47</title>
<g id="a_node48"><a xlink:href="classtriton_1_1ast_1_1LorNode.html" target="_top" xlink:title="(or &lt;expr1&gt; &lt;expr2&gt;)">
<polygon fill="white" stroke="black" points="357,-304.5 357,-323.5 467,-323.5 467,-304.5 357,-304.5"/>
<text text-anchor="middle" x="412" y="-311.5" font-family="Helvetica,sans-Serif" font-size="10.00">triton::ast::LorNode</text>
</a>
</g>
</g>
<!-- Node0&#45;&gt;Node47 -->
<g id="edge48" class="edge">
<title>Node0&#45;&gt;Node47</title>
<path fill="none" stroke="midnightblue" d="M298.9,-1001.41C299.99,-1000.35 301.03,-999.21 302,-998 394.4,-882.39 244.35,-447.6 338,-333 342.97,-326.92 349.62,-322.64 356.89,-319.66"/>
<polygon fill="midnightblue" stroke="midnightblue" points="296.71,-998.68 290.85,-1007.5 300.93,-1004.26 296.71,-998.68"/>
</g>
<!-- Node48 -->
<g id="node49" class="node">
<title>Node48</title>
<g id="a_node49"><a xlink:href="classtriton_1_1ast_1_1LxorNode.html" target="_top" xlink:title="(xor &lt;expr1&gt; &lt;expr2&gt;)">
<polygon fill="white" stroke="black" points="354,-266.5 354,-285.5 470,-285.5 470,-266.5 354,-266.5"/>
<text text-anchor="middle" x="412" y="-273.5" font-family="Helvetica,sans-Serif" font-size="10.00">triton::ast::LxorNode</text>
</a>
</g>
</g>
<!-- Node0&#45;&gt;Node48 -->
<g id="edge49" class="edge">
<title>Node0&#45;&gt;Node48</title>
<path fill="none" stroke="midnightblue" d="M299.3,-1001.02C300.25,-1000.07 301.15,-999.06 302,-998 399.48,-875.66 239.19,-416.27 338,-295 342.22,-289.82 347.65,-285.95 353.65,-283.08"/>
<polygon fill="midnightblue" stroke="midnightblue" points="296.93,-998.43 291.17,-1007.32 301.22,-1003.97 296.93,-998.43"/>
</g>
<!-- Node49 -->
<g id="node50" class="node">
<title>Node49</title>
<g id="a_node50"><a xlink:href="classtriton_1_1ast_1_1ReferenceNode.html" target="_top" xlink:title="Reference node.">
<polygon fill="white" stroke="black" points="339.5,-228.5 339.5,-247.5 484.5,-247.5 484.5,-228.5 339.5,-228.5"/>
<text text-anchor="middle" x="412" y="-235.5" font-family="Helvetica,sans-Serif" font-size="10.00">triton::ast::ReferenceNode</text>
</a>
</g>
</g>
<!-- Node0&#45;&gt;Node49 -->
<g id="edge50" class="edge">
<title>Node0&#45;&gt;Node49</title>
<path fill="none" stroke="midnightblue" d="M299.3,-1001.03C300.25,-1000.07 301.15,-999.06 302,-998 404.57,-868.93 234.03,-384.95 338,-257 341.06,-253.24 344.75,-250.17 348.84,-247.67"/>
<polygon fill="midnightblue" stroke="midnightblue" points="296.93,-998.44 291.18,-1007.33 301.22,-1003.97 296.93,-998.44"/>
</g>
<!-- Node50 -->
<g id="node51" class="node">
<title>Node50</title>
<g id="a_node51"><a xlink:href="classtriton_1_1ast_1_1SelectNode.html" target="_top" xlink:title="(select array index)">
<polygon fill="white" stroke="black" points="349.5,-190.5 349.5,-209.5 474.5,-209.5 474.5,-190.5 349.5,-190.5"/>
<text text-anchor="middle" x="412" y="-197.5" font-family="Helvetica,sans-Serif" font-size="10.00">triton::ast::SelectNode</text>
</a>
</g>
</g>
<!-- Node0&#45;&gt;Node50 -->
<g id="edge51" class="edge">
<title>Node0&#45;&gt;Node50</title>
<path fill="none" stroke="midnightblue" d="M299.31,-1001.03C300.25,-1000.07 301.15,-999.07 302,-998 355.83,-930.1 283.44,-286.31 338,-219 341.22,-215.03 345.15,-211.83 349.5,-209.26"/>
<polygon fill="midnightblue" stroke="midnightblue" points="296.93,-998.44 291.19,-1007.34 301.23,-1003.97 296.93,-998.44"/>
</g>
<!-- Node51 -->
<g id="node52" class="node">
<title>Node51</title>
<g id="a_node52"><a xlink:href="classtriton_1_1ast_1_1StoreNode.html" target="_top" xlink:title="(store array index expr)">
<polygon fill="white" stroke="black" points="351.5,-152.5 351.5,-171.5 472.5,-171.5 472.5,-152.5 351.5,-152.5"/>
<text text-anchor="middle" x="412" y="-159.5" font-family="Helvetica,sans-Serif" font-size="10.00">triton::ast::StoreNode</text>
</a>
</g>
</g>
<!-- Node0&#45;&gt;Node51 -->
<g id="edge52" class="edge">
<title>Node0&#45;&gt;Node51</title>
<path fill="none" stroke="midnightblue" d="M299.31,-1001.03C300.26,-1000.08 301.16,-999.07 302,-998 358.37,-926.74 280.86,-251.65 338,-181 341.62,-176.52 346.16,-173.02 351.18,-170.29"/>
<polygon fill="midnightblue" stroke="midnightblue" points="296.94,-998.44 291.2,-1007.35 301.24,-1003.97 296.94,-998.44"/>
</g>
<!-- Node52 -->
<g id="node53" class="node">
<title>Node52</title>
<g id="a_node53"><a xlink:href="classtriton_1_1ast_1_1StringNode.html" target="_top" xlink:title="String node.">
<polygon fill="white" stroke="black" points="350,-114.5 350,-133.5 474,-133.5 474,-114.5 350,-114.5"/>
<text text-anchor="middle" x="412" y="-121.5" font-family="Helvetica,sans-Serif" font-size="10.00">triton::ast::StringNode</text>
</a>
</g>
</g>
<!-- Node0&#45;&gt;Node52 -->
<g id="edge53" class="edge">
<title>Node0&#45;&gt;Node52</title>
<path fill="none" stroke="midnightblue" d="M299.31,-1001.03C300.26,-1000.08 301.16,-999.07 302,-998 360.92,-923.37 278.28,-216.99 338,-143 341.29,-138.92 345.33,-135.66 349.82,-133.05"/>
<polygon fill="midnightblue" stroke="midnightblue" points="296.94,-998.45 291.2,-1007.35 301.24,-1003.97 296.94,-998.45"/>
</g>
<!-- Node53 -->
<g id="node54" class="node">
<title>Node53</title>
<g id="a_node54"><a xlink:href="classtriton_1_1ast_1_1SxNode.html" target="_top" xlink:title="((_ sign_extend sizeExt) &lt;expr&gt;) node">
<polygon fill="white" stroke="black" points="358.5,-76.5 358.5,-95.5 465.5,-95.5 465.5,-76.5 358.5,-76.5"/>
<text text-anchor="middle" x="412" y="-83.5" font-family="Helvetica,sans-Serif" font-size="10.00">triton::ast::SxNode</text>
</a>
</g>
</g>
<!-- Node0&#45;&gt;Node53 -->
<g id="edge54" class="edge">
<title>Node0&#45;&gt;Node53</title>
<path fill="none" stroke="midnightblue" d="M299.31,-1001.04C300.26,-1000.08 301.16,-999.07 302,-998 363.46,-920 275.7,-182.33 338,-105 343.26,-98.47 350.45,-94.02 358.28,-91.02"/>
<polygon fill="midnightblue" stroke="midnightblue" points="296.94,-998.45 291.21,-1007.36 301.25,-1003.97 296.94,-998.45"/>
</g>
<!-- Node54 -->
<g id="node55" class="node">
<title>Node54</title>
<g id="a_node55"><a xlink:href="classtriton_1_1ast_1_1VariableNode.html" target="_top" xlink:title="Variable node.">
<polygon fill="white" stroke="black" points="344.5,-38.5 344.5,-57.5 479.5,-57.5 479.5,-38.5 344.5,-38.5"/>
<text text-anchor="middle" x="412" y="-45.5" font-family="Helvetica,sans-Serif" font-size="10.00">triton::ast::VariableNode</text>
</a>
</g>
</g>
<!-- Node0&#45;&gt;Node54 -->
<g id="edge55" class="edge">
<title>Node0&#45;&gt;Node54</title>
<path fill="none" stroke="midnightblue" d="M299.32,-1001.04C300.26,-1000.08 301.16,-999.07 302,-998 366.01,-916.64 273.11,-147.66 338,-67 341.04,-63.22 344.72,-60.14 348.8,-57.63"/>
<polygon fill="midnightblue" stroke="midnightblue" points="296.94,-998.45 291.22,-1007.36 301.25,-1003.97 296.94,-998.45"/>
</g>
<!-- Node55 -->
<g id="node56" class="node">
<title>Node55</title>
<g id="a_node56"><a xlink:href="classtriton_1_1ast_1_1ZxNode.html" target="_top" xlink:title="((_ zero_extend sizeExt) &lt;expr&gt;) node">
<polygon fill="white" stroke="black" points="358,-0.5 358,-19.5 466,-19.5 466,-0.5 358,-0.5"/>
<text text-anchor="middle" x="412" y="-7.5" font-family="Helvetica,sans-Serif" font-size="10.00">triton::ast::ZxNode</text>
</a>
</g>
</g>
<!-- Node0&#45;&gt;Node55 -->
<g id="edge56" class="edge">
<title>Node0&#45;&gt;Node55</title>
<path fill="none" stroke="midnightblue" d="M299.32,-1001.04C300.26,-1000.08 301.16,-999.07 302,-998 368.55,-913.27 270.53,-113 338,-29 343.17,-22.57 350.21,-18.15 357.9,-15.15"/>
<polygon fill="midnightblue" stroke="midnightblue" points="296.95,-998.45 291.22,-1007.37 301.26,-1003.97 296.95,-998.45"/>
</g>
</g>
</svg>
