<?xml version="1.0" encoding="UTF-8" standalone="no"?>
<!DOCTYPE svg PUBLIC "-//W3C//DTD SVG 1.1//EN"
 "http://www.w3.org/Graphics/SVG/1.1/DTD/svg11.dtd">
<!-- Generated by graphviz version 2.50.0 (20211204.2007)
 -->
<!-- Title: /home/jonathan/Works/Tools/Triton/src/libtriton/includes/triton/irBuilder.hpp Pages: 1 -->
<svg width="986pt" height="295pt"
 viewBox="0.00 0.00 985.50 295.00" xmlns="http://www.w3.org/2000/svg" xmlns:xlink="http://www.w3.org/1999/xlink">
<g id="graph0" class="graph" transform="scale(1 1) rotate(0) translate(4 291)">
<title>/home/jonathan/Works/Tools/Triton/src/libtriton/includes/triton/irBuilder.hpp</title>
<polygon fill="white" stroke="transparent" points="-4,4 -4,-291 981.5,-291 981.5,4 -4,4"/>
<!-- Node1 -->
<g id="node1" class="node">
<title>Node1</title>
<g id="a_node1"><a xlink:title=" ">
<polygon fill="#bfbfbf" stroke="black" points="219.5,-245.5 219.5,-286.5 373.5,-286.5 373.5,-245.5 219.5,-245.5"/>
<text text-anchor="start" x="227.5" y="-274.5" font-family="Helvetica,sans-Serif" font-size="10.00">/home/jonathan/Works</text>
<text text-anchor="start" x="227.5" y="-263.5" font-family="Helvetica,sans-Serif" font-size="10.00">/Tools/Triton/src/libtriton</text>
<text text-anchor="middle" x="296.5" y="-252.5" font-family="Helvetica,sans-Serif" font-size="10.00">/includes/triton/irBuilder.hpp</text>
</a>
</g>
</g>
<!-- Node2 -->
<g id="node2" class="node">
<title>Node2</title>
<g id="a_node2"><a xlink:href="irBuilder_8cpp.html" target="_top" xlink:title=" ">
<polygon fill="white" stroke="black" points="155,-167.5 155,-208.5 288,-208.5 288,-167.5 155,-167.5"/>
<text text-anchor="start" x="163" y="-196.5" font-family="Helvetica,sans-Serif" font-size="10.00">/home/jonathan/Works</text>
<text text-anchor="start" x="163" y="-185.5" font-family="Helvetica,sans-Serif" font-size="10.00">/Tools/Triton/src/libtriton</text>
<text text-anchor="middle" x="221.5" y="-174.5" font-family="Helvetica,sans-Serif" font-size="10.00">/arch/irBuilder.cpp</text>
</a>
</g>
</g>
<!-- Node1&#45;&gt;Node2 -->
<g id="edge1" class="edge">
<title>Node1&#45;&gt;Node2</title>
<path fill="none" stroke="midnightblue" d="M270.06,-238.2C260.4,-228.42 249.66,-217.54 240.75,-208.51"/>
<polygon fill="midnightblue" stroke="midnightblue" points="267.67,-240.77 277.19,-245.43 272.65,-235.85 267.67,-240.77"/>
</g>
<!-- Node3 -->
<g id="node3" class="node">
<title>Node3</title>
<g id="a_node3"><a xlink:href="api_8hpp.html" target="_top" xlink:title=" ">
<polygon fill="white" stroke="black" points="306,-167.5 306,-208.5 439,-208.5 439,-167.5 306,-167.5"/>
<text text-anchor="start" x="314" y="-196.5" font-family="Helvetica,sans-Serif" font-size="10.00">/home/jonathan/Works</text>
<text text-anchor="start" x="314" y="-185.5" font-family="Helvetica,sans-Serif" font-size="10.00">/Tools/Triton/src/libtriton</text>
<text text-anchor="middle" x="372.5" y="-174.5" font-family="Helvetica,sans-Serif" font-size="10.00">/includes/triton/api.hpp</text>
</a>
</g>
</g>
<!-- Node1&#45;&gt;Node3 -->
<g id="edge2" class="edge">
<title>Node1&#45;&gt;Node3</title>
<path fill="none" stroke="midnightblue" d="M323.3,-238.2C333.08,-228.42 343.96,-217.54 352.99,-208.51"/>
<polygon fill="midnightblue" stroke="midnightblue" points="320.67,-235.88 316.07,-245.43 325.62,-240.83 320.67,-235.88"/>
</g>
<!-- Node4 -->
<g id="node4" class="node">
<title>Node4</title>
<g id="a_node4"><a xlink:href="api_8cpp.html" target="_top" xlink:title=" ">
<polygon fill="white" stroke="black" points="0,-84 0,-125 133,-125 133,-84 0,-84"/>
<text text-anchor="start" x="8" y="-113" font-family="Helvetica,sans-Serif" font-size="10.00">/home/jonathan/Works</text>
<text text-anchor="start" x="8" y="-102" font-family="Helvetica,sans-Serif" font-size="10.00">/Tools/Triton/src/libtriton</text>
<text text-anchor="middle" x="66.5" y="-91" font-family="Helvetica,sans-Serif" font-size="10.00">/api/api.cpp</text>
</a>
</g>
</g>
<!-- Node3&#45;&gt;Node4 -->
<g id="edge3" class="edge">
<title>Node3&#45;&gt;Node4</title>
<path fill="none" stroke="midnightblue" d="M295.7,-166.85C226.55,-150.03 207.08,-149.34 142.5,-131 136.07,-129.18 129.39,-127.14 122.76,-125.03"/>
<polygon fill="midnightblue" stroke="midnightblue" points="295.25,-170.34 305.8,-169.34 296.92,-163.55 295.25,-170.34"/>
</g>
<!-- Node5 -->
<g id="node5" class="node">
<title>Node5</title>
<g id="a_node5"><a xlink:href="pyTritonContext_8cpp.html" target="_top" xlink:title=" ">
<polygon fill="white" stroke="black" points="151.5,-78.5 151.5,-130.5 287.5,-130.5 287.5,-78.5 151.5,-78.5"/>
<text text-anchor="start" x="159.5" y="-118.5" font-family="Helvetica,sans-Serif" font-size="10.00">/home/jonathan/Works</text>
<text text-anchor="start" x="159.5" y="-107.5" font-family="Helvetica,sans-Serif" font-size="10.00">/Tools/Triton/src/libtriton</text>
<text text-anchor="start" x="159.5" y="-96.5" font-family="Helvetica,sans-Serif" font-size="10.00">/bindings/python/objects</text>
<text text-anchor="middle" x="219.5" y="-85.5" font-family="Helvetica,sans-Serif" font-size="10.00">/pyTritonContext.cpp</text>
</a>
</g>
</g>
<!-- Node3&#45;&gt;Node5 -->
<g id="edge4" class="edge">
<title>Node3&#45;&gt;Node5</title>
<path fill="none" stroke="midnightblue" d="M326.79,-162.65C307.78,-152.53 285.73,-140.78 266.58,-130.58"/>
<polygon fill="midnightblue" stroke="midnightblue" points="325.38,-165.87 335.85,-167.48 328.67,-159.69 325.38,-165.87"/>
</g>
<!-- Node6 -->
<g id="node6" class="node">
<title>Node6</title>
<g id="a_node6"><a xlink:href="callbacks_8cpp.html" target="_top" xlink:title=" ">
<polygon fill="white" stroke="black" points="305.5,-84 305.5,-125 439.5,-125 439.5,-84 305.5,-84"/>
<text text-anchor="start" x="313.5" y="-113" font-family="Helvetica,sans-Serif" font-size="10.00">/home/jonathan/Works</text>
<text text-anchor="start" x="313.5" y="-102" font-family="Helvetica,sans-Serif" font-size="10.00">/Tools/Triton/src/libtriton</text>
<text text-anchor="middle" x="372.5" y="-91" font-family="Helvetica,sans-Serif" font-size="10.00">/callbacks/callbacks.cpp</text>
</a>
</g>
</g>
<!-- Node3&#45;&gt;Node6 -->
<g id="edge5" class="edge">
<title>Node3&#45;&gt;Node6</title>
<path fill="none" stroke="midnightblue" d="M372.5,-157.06C372.5,-146.38 372.5,-134.63 372.5,-125.05"/>
<polygon fill="midnightblue" stroke="midnightblue" points="369,-157.27 372.5,-167.27 376,-157.27 369,-157.27"/>
</g>
<!-- Node7 -->
<g id="node7" class="node">
<title>Node7</title>
<g id="a_node7"><a xlink:href="symbolicSimplification_8cpp.html" target="_top" xlink:title=" ">
<polygon fill="white" stroke="black" points="458,-84 458,-125 697,-125 697,-84 458,-84"/>
<text text-anchor="start" x="466" y="-113" font-family="Helvetica,sans-Serif" font-size="10.00">/home/jonathan/Works</text>
<text text-anchor="start" x="466" y="-102" font-family="Helvetica,sans-Serif" font-size="10.00">/Tools/Triton/src/libtriton</text>
<text text-anchor="middle" x="577.5" y="-91" font-family="Helvetica,sans-Serif" font-size="10.00">/engines/symbolic/symbolicSimplification.cpp</text>
</a>
</g>
</g>
<!-- Node3&#45;&gt;Node7 -->
<g id="edge6" class="edge">
<title>Node3&#45;&gt;Node7</title>
<path fill="none" stroke="midnightblue" d="M430.94,-163.77C461.76,-151.51 499.15,-136.65 528.44,-125"/>
<polygon fill="midnightblue" stroke="midnightblue" points="429.6,-160.53 421.6,-167.48 432.19,-167.04 429.6,-160.53"/>
</g>
<!-- Node8 -->
<g id="node8" class="node">
<title>Node8</title>
<g id="a_node8"><a xlink:href="llvmToTriton_8hpp.html" target="_top" xlink:title=" ">
<polygon fill="white" stroke="black" points="715,-84 715,-125 888,-125 888,-84 715,-84"/>
<text text-anchor="start" x="723" y="-113" font-family="Helvetica,sans-Serif" font-size="10.00">/home/jonathan/Works</text>
<text text-anchor="start" x="723" y="-102" font-family="Helvetica,sans-Serif" font-size="10.00">/Tools/Triton/src/libtriton</text>
<text text-anchor="middle" x="801.5" y="-91" font-family="Helvetica,sans-Serif" font-size="10.00">/includes/triton/llvmToTriton.hpp</text>
</a>
</g>
</g>
<!-- Node3&#45;&gt;Node8 -->
<g id="edge7" class="edge">
<title>Node3&#45;&gt;Node8</title>
<path fill="none" stroke="midnightblue" d="M449.35,-176.15C517.09,-166.1 618.3,-149.87 705.5,-131 713.76,-129.21 722.37,-127.18 730.9,-125.05"/>
<polygon fill="midnightblue" stroke="midnightblue" points="448.57,-172.73 439.19,-177.65 449.59,-179.65 448.57,-172.73"/>
</g>
<!-- Node9 -->
<g id="node9" class="node">
<title>Node9</title>
<g id="a_node9"><a xlink:href="llvmToTriton_8cpp.html" target="_top" xlink:title=" ">
<polygon fill="white" stroke="black" points="641.5,-0.5 641.5,-41.5 783.5,-41.5 783.5,-0.5 641.5,-0.5"/>
<text text-anchor="start" x="649.5" y="-29.5" font-family="Helvetica,sans-Serif" font-size="10.00">/home/jonathan/Works</text>
<text text-anchor="start" x="649.5" y="-18.5" font-family="Helvetica,sans-Serif" font-size="10.00">/Tools/Triton/src/libtriton</text>
<text text-anchor="middle" x="712.5" y="-7.5" font-family="Helvetica,sans-Serif" font-size="10.00">/ast/llvm/llvmToTriton.cpp</text>
</a>
</g>
</g>
<!-- Node8&#45;&gt;Node9 -->
<g id="edge8" class="edge">
<title>Node8&#45;&gt;Node9</title>
<path fill="none" stroke="midnightblue" d="M772.41,-76.86C759.84,-65.35 745.4,-52.13 733.85,-41.55"/>
<polygon fill="midnightblue" stroke="midnightblue" points="770.22,-79.6 779.96,-83.77 774.94,-74.44 770.22,-79.6"/>
</g>
<!-- Node10 -->
<g id="node10" class="node">
<title>Node10</title>
<g id="a_node10"><a xlink:href="liftingToLLVM_8cpp.html" target="_top" xlink:title=" ">
<polygon fill="white" stroke="black" points="801.5,-0.5 801.5,-41.5 977.5,-41.5 977.5,-0.5 801.5,-0.5"/>
<text text-anchor="start" x="809.5" y="-29.5" font-family="Helvetica,sans-Serif" font-size="10.00">/home/jonathan/Works</text>
<text text-anchor="start" x="809.5" y="-18.5" font-family="Helvetica,sans-Serif" font-size="10.00">/Tools/Triton/src/libtriton</text>
<text text-anchor="middle" x="889.5" y="-7.5" font-family="Helvetica,sans-Serif" font-size="10.00">/engines/lifters/liftingToLLVM.cpp</text>
</a>
</g>
</g>
<!-- Node8&#45;&gt;Node10 -->
<g id="edge9" class="edge">
<title>Node8&#45;&gt;Node10</title>
<path fill="none" stroke="midnightblue" d="M830.26,-76.86C842.69,-65.35 856.97,-52.13 868.39,-41.55"/>
<polygon fill="midnightblue" stroke="midnightblue" points="827.76,-74.41 822.8,-83.77 832.52,-79.54 827.76,-74.41"/>
</g>
</g>
</svg>
