<?xml version="1.0" encoding="UTF-8" standalone="no"?>
<!DOCTYPE svg PUBLIC "-//W3C//DTD SVG 1.1//EN"
 "http://www.w3.org/Graphics/SVG/1.1/DTD/svg11.dtd">
<!-- Generated by graphviz version 2.50.0 (20211204.2007)
 -->
<!-- Title: /home/jonathan/Works/Tools/Triton/src/libtriton/includes/triton/liftingToLLVM.hpp Pages: 1 -->
<svg width="925pt" height="373pt"
 viewBox="0.00 0.00 925.25 373.00" xmlns="http://www.w3.org/2000/svg" xmlns:xlink="http://www.w3.org/1999/xlink">
<g id="graph0" class="graph" transform="scale(1 1) rotate(0) translate(4 369)">
<title>/home/jonathan/Works/Tools/Triton/src/libtriton/includes/triton/liftingToLLVM.hpp</title>
<polygon fill="white" stroke="transparent" points="-4,4 -4,-369 921.25,-369 921.25,4 -4,4"/>
<!-- Node1 -->
<g id="node1" class="node">
<title>Node1</title>
<g id="a_node1"><a xlink:title=" ">
<polygon fill="#bfbfbf" stroke="black" points="37.25,-323.5 37.25,-364.5 214.25,-364.5 214.25,-323.5 37.25,-323.5"/>
<text text-anchor="start" x="45.25" y="-352.5" font-family="Helvetica,sans-Serif" font-size="10.00">/home/jonathan/Works</text>
<text text-anchor="start" x="45.25" y="-341.5" font-family="Helvetica,sans-Serif" font-size="10.00">/Tools/Triton/src/libtriton</text>
<text text-anchor="middle" x="125.75" y="-330.5" font-family="Helvetica,sans-Serif" font-size="10.00">/includes/triton/liftingToLLVM.hpp</text>
</a>
</g>
</g>
<!-- Node2 -->
<g id="node2" class="node">
<title>Node2</title>
<g id="a_node2"><a xlink:href="liftingToLLVM_8cpp.html" target="_top" xlink:title=" ">
<polygon fill="white" stroke="black" points="239.75,-0.5 239.75,-41.5 415.75,-41.5 415.75,-0.5 239.75,-0.5"/>
<text text-anchor="start" x="247.75" y="-29.5" font-family="Helvetica,sans-Serif" font-size="10.00">/home/jonathan/Works</text>
<text text-anchor="start" x="247.75" y="-18.5" font-family="Helvetica,sans-Serif" font-size="10.00">/Tools/Triton/src/libtriton</text>
<text text-anchor="middle" x="327.75" y="-7.5" font-family="Helvetica,sans-Serif" font-size="10.00">/engines/lifters/liftingToLLVM.cpp</text>
</a>
</g>
</g>
<!-- Node1&#45;&gt;Node2 -->
<g id="edge1" class="edge">
<title>Node1&#45;&gt;Node2</title>
<path fill="none" stroke="midnightblue" d="M98.4,-315.77C49.96,-264.26 -40.3,-151.2 20.75,-78 48.21,-45.08 159.04,-31.46 239.66,-25.86"/>
<polygon fill="midnightblue" stroke="midnightblue" points="96.06,-318.39 105.5,-323.2 101.12,-313.55 96.06,-318.39"/>
</g>
<!-- Node3 -->
<g id="node3" class="node">
<title>Node3</title>
<g id="a_node3"><a xlink:href="liftingEngine_8hpp.html" target="_top" xlink:title=" ">
<polygon fill="white" stroke="black" points="177.75,-245.5 177.75,-286.5 351.75,-286.5 351.75,-245.5 177.75,-245.5"/>
<text text-anchor="start" x="185.75" y="-274.5" font-family="Helvetica,sans-Serif" font-size="10.00">/home/jonathan/Works</text>
<text text-anchor="start" x="185.75" y="-263.5" font-family="Helvetica,sans-Serif" font-size="10.00">/Tools/Triton/src/libtriton</text>
<text text-anchor="middle" x="264.75" y="-252.5" font-family="Helvetica,sans-Serif" font-size="10.00">/includes/triton/liftingEngine.hpp</text>
</a>
</g>
</g>
<!-- Node1&#45;&gt;Node3 -->
<g id="edge2" class="edge">
<title>Node1&#45;&gt;Node3</title>
<path fill="none" stroke="midnightblue" d="M170.33,-318.63C189.32,-308.24 211.18,-296.29 229.08,-286.51"/>
<polygon fill="midnightblue" stroke="midnightblue" points="168.64,-315.56 161.55,-323.43 172,-321.7 168.64,-315.56"/>
</g>
<!-- Node4 -->
<g id="node4" class="node">
<title>Node4</title>
<g id="a_node4"><a xlink:href="context_8hpp.html" target="_top" xlink:title=" ">
<polygon fill="white" stroke="black" points="251.75,-167.5 251.75,-208.5 401.75,-208.5 401.75,-167.5 251.75,-167.5"/>
<text text-anchor="start" x="259.75" y="-196.5" font-family="Helvetica,sans-Serif" font-size="10.00">/home/jonathan/Works</text>
<text text-anchor="start" x="259.75" y="-185.5" font-family="Helvetica,sans-Serif" font-size="10.00">/Tools/Triton/src/libtriton</text>
<text text-anchor="middle" x="326.75" y="-174.5" font-family="Helvetica,sans-Serif" font-size="10.00">/includes/triton/context.hpp</text>
</a>
</g>
</g>
<!-- Node3&#45;&gt;Node4 -->
<g id="edge3" class="edge">
<title>Node3&#45;&gt;Node4</title>
<path fill="none" stroke="midnightblue" d="M287.08,-237.63C294.95,-227.99 303.62,-217.36 310.84,-208.51"/>
<polygon fill="midnightblue" stroke="midnightblue" points="284.33,-235.47 280.72,-245.43 289.75,-239.89 284.33,-235.47"/>
</g>
<!-- Node5 -->
<g id="node5" class="node">
<title>Node5</title>
<g id="a_node5"><a xlink:href="pyTritonContext_8cpp.html" target="_top" xlink:title=" ">
<polygon fill="white" stroke="black" points="29.75,-78.5 29.75,-130.5 165.75,-130.5 165.75,-78.5 29.75,-78.5"/>
<text text-anchor="start" x="37.75" y="-118.5" font-family="Helvetica,sans-Serif" font-size="10.00">/home/jonathan/Works</text>
<text text-anchor="start" x="37.75" y="-107.5" font-family="Helvetica,sans-Serif" font-size="10.00">/Tools/Triton/src/libtriton</text>
<text text-anchor="start" x="37.75" y="-96.5" font-family="Helvetica,sans-Serif" font-size="10.00">/bindings/python/objects</text>
<text text-anchor="middle" x="97.75" y="-85.5" font-family="Helvetica,sans-Serif" font-size="10.00">/pyTritonContext.cpp</text>
</a>
</g>
</g>
<!-- Node4&#45;&gt;Node5 -->
<g id="edge4" class="edge">
<title>Node4&#45;&gt;Node5</title>
<path fill="none" stroke="midnightblue" d="M262.37,-164.09C232.35,-153.4 196.59,-140.68 166.09,-129.82"/>
<polygon fill="midnightblue" stroke="midnightblue" points="261.31,-167.42 271.9,-167.48 263.65,-160.83 261.31,-167.42"/>
</g>
<!-- Node6 -->
<g id="node6" class="node">
<title>Node6</title>
<g id="a_node6"><a xlink:href="callbacks_8cpp.html" target="_top" xlink:title=" ">
<polygon fill="white" stroke="black" points="183.75,-84 183.75,-125 317.75,-125 317.75,-84 183.75,-84"/>
<text text-anchor="start" x="191.75" y="-113" font-family="Helvetica,sans-Serif" font-size="10.00">/home/jonathan/Works</text>
<text text-anchor="start" x="191.75" y="-102" font-family="Helvetica,sans-Serif" font-size="10.00">/Tools/Triton/src/libtriton</text>
<text text-anchor="middle" x="250.75" y="-91" font-family="Helvetica,sans-Serif" font-size="10.00">/callbacks/callbacks.cpp</text>
</a>
</g>
</g>
<!-- Node4&#45;&gt;Node6 -->
<g id="edge5" class="edge">
<title>Node4&#45;&gt;Node6</title>
<path fill="none" stroke="midnightblue" d="M301.31,-159.71C290.72,-148.36 278.66,-135.43 268.98,-125.05"/>
<polygon fill="midnightblue" stroke="midnightblue" points="298.98,-162.34 308.36,-167.27 304.1,-157.57 298.98,-162.34"/>
</g>
<!-- Node7 -->
<g id="node7" class="node">
<title>Node7</title>
<g id="a_node7"><a xlink:href="context_8cpp.html" target="_top" xlink:title=" ">
<polygon fill="white" stroke="black" points="336.25,-84 336.25,-125 469.25,-125 469.25,-84 336.25,-84"/>
<text text-anchor="start" x="344.25" y="-113" font-family="Helvetica,sans-Serif" font-size="10.00">/home/jonathan/Works</text>
<text text-anchor="start" x="344.25" y="-102" font-family="Helvetica,sans-Serif" font-size="10.00">/Tools/Triton/src/libtriton</text>
<text text-anchor="middle" x="402.75" y="-91" font-family="Helvetica,sans-Serif" font-size="10.00">/context/context.cpp</text>
</a>
</g>
</g>
<!-- Node4&#45;&gt;Node7 -->
<g id="edge6" class="edge">
<title>Node4&#45;&gt;Node7</title>
<path fill="none" stroke="midnightblue" d="M352.2,-159.71C362.79,-148.36 374.84,-135.43 384.53,-125.05"/>
<polygon fill="midnightblue" stroke="midnightblue" points="349.41,-157.57 345.15,-167.27 354.53,-162.34 349.41,-157.57"/>
</g>
<!-- Node8 -->
<g id="node8" class="node">
<title>Node8</title>
<g id="a_node8"><a xlink:href="symbolicSimplification_8cpp.html" target="_top" xlink:title=" ">
<polygon fill="white" stroke="black" points="487.25,-84 487.25,-125 726.25,-125 726.25,-84 487.25,-84"/>
<text text-anchor="start" x="495.25" y="-113" font-family="Helvetica,sans-Serif" font-size="10.00">/home/jonathan/Works</text>
<text text-anchor="start" x="495.25" y="-102" font-family="Helvetica,sans-Serif" font-size="10.00">/Tools/Triton/src/libtriton</text>
<text text-anchor="middle" x="606.75" y="-91" font-family="Helvetica,sans-Serif" font-size="10.00">/engines/symbolic/symbolicSimplification.cpp</text>
</a>
</g>
</g>
<!-- Node4&#45;&gt;Node8 -->
<g id="edge7" class="edge">
<title>Node4&#45;&gt;Node8</title>
<path fill="none" stroke="midnightblue" d="M403.6,-164.63C446.24,-152.22 498.78,-136.93 539.75,-125"/>
<polygon fill="midnightblue" stroke="midnightblue" points="402.44,-161.32 393.82,-167.48 404.4,-168.04 402.44,-161.32"/>
</g>
<!-- Node9 -->
<g id="node9" class="node">
<title>Node9</title>
<g id="a_node9"><a xlink:href="llvmToTriton_8hpp.html" target="_top" xlink:title=" ">
<polygon fill="white" stroke="black" points="744.25,-84 744.25,-125 917.25,-125 917.25,-84 744.25,-84"/>
<text text-anchor="start" x="752.25" y="-113" font-family="Helvetica,sans-Serif" font-size="10.00">/home/jonathan/Works</text>
<text text-anchor="start" x="752.25" y="-102" font-family="Helvetica,sans-Serif" font-size="10.00">/Tools/Triton/src/libtriton</text>
<text text-anchor="middle" x="830.75" y="-91" font-family="Helvetica,sans-Serif" font-size="10.00">/includes/triton/llvmToTriton.hpp</text>
</a>
</g>
</g>
<!-- Node4&#45;&gt;Node9 -->
<g id="edge8" class="edge">
<title>Node4&#45;&gt;Node9</title>
<path fill="none" stroke="midnightblue" d="M412.01,-178.5C495.11,-169.47 624.81,-153.39 735.75,-131 744.29,-129.28 753.2,-127.23 761.99,-125.05"/>
<polygon fill="midnightblue" stroke="midnightblue" points="411.43,-175.04 401.86,-179.59 412.18,-182 411.43,-175.04"/>
</g>
<!-- Node9&#45;&gt;Node2 -->
<g id="edge10" class="edge">
<title>Node9&#45;&gt;Node2</title>
<path fill="none" stroke="midnightblue" d="M752.07,-81.57C746.57,-80.28 741.09,-79.08 735.75,-78 626.43,-55.92 498.84,-39.95 415.84,-30.85"/>
<polygon fill="midnightblue" stroke="midnightblue" points="751.44,-85.01 761.98,-83.95 753.08,-78.21 751.44,-85.01"/>
</g>
<!-- Node10 -->
<g id="node10" class="node">
<title>Node10</title>
<g id="a_node10"><a xlink:href="llvmToTriton_8cpp.html" target="_top" xlink:title=" ">
<polygon fill="white" stroke="black" points="759.75,-0.5 759.75,-41.5 901.75,-41.5 901.75,-0.5 759.75,-0.5"/>
<text text-anchor="start" x="767.75" y="-29.5" font-family="Helvetica,sans-Serif" font-size="10.00">/home/jonathan/Works</text>
<text text-anchor="start" x="767.75" y="-18.5" font-family="Helvetica,sans-Serif" font-size="10.00">/Tools/Triton/src/libtriton</text>
<text text-anchor="middle" x="830.75" y="-7.5" font-family="Helvetica,sans-Serif" font-size="10.00">/ast/llvm/llvmToTriton.cpp</text>
</a>
</g>
</g>
<!-- Node9&#45;&gt;Node10 -->
<g id="edge9" class="edge">
<title>Node9&#45;&gt;Node10</title>
<path fill="none" stroke="midnightblue" d="M830.75,-73.56C830.75,-62.88 830.75,-51.13 830.75,-41.55"/>
<polygon fill="midnightblue" stroke="midnightblue" points="827.25,-73.77 830.75,-83.77 834.25,-73.77 827.25,-73.77"/>
</g>
</g>
</svg>
