<?xml version="1.0" encoding="UTF-8" standalone="no"?>
<!DOCTYPE svg PUBLIC "-//W3C//DTD SVG 1.1//EN"
 "http://www.w3.org/Graphics/SVG/1.1/DTD/svg11.dtd">
<!-- Generated by graphviz version 7.0.0 (20221023.0053)
 -->
<!-- Title: /Users/jonathan/Works/Tools/Triton/src/libtriton/includes/triton/liftingToLLVM.hpp Pages: 1 -->
<svg width="848pt" height="368pt"
 viewBox="0.00 0.00 847.91 368.00" xmlns="http://www.w3.org/2000/svg" xmlns:xlink="http://www.w3.org/1999/xlink">
<g id="graph0" class="graph" transform="scale(1 1) rotate(0) translate(4 364)">
<title>/Users/jonathan/Works/Tools/Triton/src/libtriton/includes/triton/liftingToLLVM.hpp</title>
<!-- Node1 -->
<g id="node1" class="node">
<title>Node1</title>
<g id="a_node1"><a xlink:title=" ">
<polygon fill="#999999" stroke="#666666" points="196.91,-360 35.91,-360 35.91,-319 196.91,-319 196.91,-360"/>
<text text-anchor="start" x="43.91" y="-348" font-family="Helvetica,sans-Serif" font-size="10.00">/Users/jonathan/Works</text>
<text text-anchor="start" x="43.91" y="-337" font-family="Helvetica,sans-Serif" font-size="10.00">/Tools/Triton/src/libtriton</text>
<text text-anchor="middle" x="116.41" y="-326" font-family="Helvetica,sans-Serif" font-size="10.00">/includes/triton/liftingToLLVM.hpp</text>
</a>
</g>
</g>
<!-- Node2 -->
<g id="node2" class="node">
<title>Node2</title>
<g id="a_node2"><a xlink:href="liftingToLLVM_8cpp.html" target="_top" xlink:title=" ">
<polygon fill="white" stroke="#666666" points="380.91,-41 219.91,-41 219.91,0 380.91,0 380.91,-41"/>
<text text-anchor="start" x="227.91" y="-29" font-family="Helvetica,sans-Serif" font-size="10.00">/Users/jonathan/Works</text>
<text text-anchor="start" x="227.91" y="-18" font-family="Helvetica,sans-Serif" font-size="10.00">/Tools/Triton/src/libtriton</text>
<text text-anchor="middle" x="300.41" y="-7" font-family="Helvetica,sans-Serif" font-size="10.00">/engines/lifters/liftingToLLVM.cpp</text>
</a>
</g>
</g>
<!-- Node1&#45;&gt;Node2 -->
<g id="edge1" class="edge">
<title>Node1&#45;&gt;Node2</title>
<path fill="none" stroke="#63b8ff" d="M89.62,-310.25C44.04,-258.76 -38.2,-148.37 20.41,-77 45.26,-46.75 146.09,-32.69 219.65,-26.37"/>
<polygon fill="#63b8ff" stroke="#63b8ff" points="86.81,-312.37 96.11,-317.46 92.01,-307.69 86.81,-312.37"/>
</g>
<!-- Node3 -->
<g id="node3" class="node">
<title>Node3</title>
<g id="a_node3"><a xlink:href="liftingEngine_8hpp.html" target="_top" xlink:title=" ">
<polygon fill="white" stroke="#666666" points="321.91,-283 166.91,-283 166.91,-242 321.91,-242 321.91,-283"/>
<text text-anchor="start" x="174.91" y="-271" font-family="Helvetica,sans-Serif" font-size="10.00">/Users/jonathan/Works</text>
<text text-anchor="start" x="174.91" y="-260" font-family="Helvetica,sans-Serif" font-size="10.00">/Tools/Triton/src/libtriton</text>
<text text-anchor="middle" x="244.41" y="-249" font-family="Helvetica,sans-Serif" font-size="10.00">/includes/triton/liftingEngine.hpp</text>
</a>
</g>
</g>
<!-- Node1&#45;&gt;Node3 -->
<g id="edge2" class="edge">
<title>Node1&#45;&gt;Node3</title>
<path fill="none" stroke="#63b8ff" d="M160.27,-312.8C176.62,-303.22 194.93,-292.49 210.29,-283.49"/>
<polygon fill="#63b8ff" stroke="#63b8ff" points="158.54,-309.76 151.68,-317.83 162.08,-315.8 158.54,-309.76"/>
</g>
<!-- Node4 -->
<g id="node4" class="node">
<title>Node4</title>
<g id="a_node4"><a xlink:href="context_8hpp.html" target="_top" xlink:title=" ">
<polygon fill="white" stroke="#666666" points="368.41,-206 234.41,-206 234.41,-165 368.41,-165 368.41,-206"/>
<text text-anchor="start" x="242.41" y="-194" font-family="Helvetica,sans-Serif" font-size="10.00">/Users/jonathan/Works</text>
<text text-anchor="start" x="242.41" y="-183" font-family="Helvetica,sans-Serif" font-size="10.00">/Tools/Triton/src/libtriton</text>
<text text-anchor="middle" x="301.41" y="-172" font-family="Helvetica,sans-Serif" font-size="10.00">/includes/triton/context.hpp</text>
</a>
</g>
</g>
<!-- Node3&#45;&gt;Node4 -->
<g id="edge3" class="edge">
<title>Node3&#45;&gt;Node4</title>
<path fill="none" stroke="#63b8ff" d="M266.15,-232.9C272.88,-224.04 280.16,-214.47 286.34,-206.33"/>
<polygon fill="#63b8ff" stroke="#63b8ff" points="263.57,-230.51 260.3,-240.59 269.14,-234.75 263.57,-230.51"/>
</g>
<!-- Node5 -->
<g id="node5" class="node">
<title>Node5</title>
<g id="a_node5"><a xlink:href="pyTritonContext_8cpp.html" target="_top" xlink:title=" ">
<polygon fill="white" stroke="#666666" points="151.41,-129 29.41,-129 29.41,-77 151.41,-77 151.41,-129"/>
<text text-anchor="start" x="37.41" y="-117" font-family="Helvetica,sans-Serif" font-size="10.00">/Users/jonathan/Works</text>
<text text-anchor="start" x="37.41" y="-106" font-family="Helvetica,sans-Serif" font-size="10.00">/Tools/Triton/src/libtriton</text>
<text text-anchor="start" x="37.41" y="-95" font-family="Helvetica,sans-Serif" font-size="10.00">/bindings/python/objects</text>
<text text-anchor="middle" x="90.41" y="-84" font-family="Helvetica,sans-Serif" font-size="10.00">/pyTritonContext.cpp</text>
</a>
</g>
</g>
<!-- Node4&#45;&gt;Node5 -->
<g id="edge4" class="edge">
<title>Node4&#45;&gt;Node5</title>
<path fill="none" stroke="#63b8ff" d="M238.58,-160.53C211.11,-150.05 179,-137.8 151.7,-127.38"/>
<polygon fill="#63b8ff" stroke="#63b8ff" points="237.25,-163.77 247.84,-164.06 239.74,-157.23 237.25,-163.77"/>
</g>
<!-- Node6 -->
<g id="node6" class="node">
<title>Node6</title>
<g id="a_node6"><a xlink:href="callbacks_8cpp.html" target="_top" xlink:title=" ">
<polygon fill="white" stroke="#666666" points="293.41,-123.5 169.41,-123.5 169.41,-82.5 293.41,-82.5 293.41,-123.5"/>
<text text-anchor="start" x="177.41" y="-111.5" font-family="Helvetica,sans-Serif" font-size="10.00">/Users/jonathan/Works</text>
<text text-anchor="start" x="177.41" y="-100.5" font-family="Helvetica,sans-Serif" font-size="10.00">/Tools/Triton/src/libtriton</text>
<text text-anchor="middle" x="231.41" y="-89.5" font-family="Helvetica,sans-Serif" font-size="10.00">/callbacks/callbacks.cpp</text>
</a>
</g>
</g>
<!-- Node4&#45;&gt;Node6 -->
<g id="edge5" class="edge">
<title>Node4&#45;&gt;Node6</title>
<path fill="none" stroke="#63b8ff" d="M276.67,-156.05C267.44,-145.44 257.18,-133.63 248.76,-123.95"/>
<polygon fill="#63b8ff" stroke="#63b8ff" points="273.91,-158.21 283.12,-163.46 279.19,-153.62 273.91,-158.21"/>
</g>
<!-- Node7 -->
<g id="node7" class="node">
<title>Node7</title>
<g id="a_node7"><a xlink:href="context_8cpp.html" target="_top" xlink:title=" ">
<polygon fill="white" stroke="#666666" points="433.41,-123.5 311.41,-123.5 311.41,-82.5 433.41,-82.5 433.41,-123.5"/>
<text text-anchor="start" x="319.41" y="-111.5" font-family="Helvetica,sans-Serif" font-size="10.00">/Users/jonathan/Works</text>
<text text-anchor="start" x="319.41" y="-100.5" font-family="Helvetica,sans-Serif" font-size="10.00">/Tools/Triton/src/libtriton</text>
<text text-anchor="middle" x="372.41" y="-89.5" font-family="Helvetica,sans-Serif" font-size="10.00">/context/context.cpp</text>
</a>
</g>
</g>
<!-- Node4&#45;&gt;Node7 -->
<g id="edge6" class="edge">
<title>Node4&#45;&gt;Node7</title>
<path fill="none" stroke="#63b8ff" d="M326.51,-156.05C335.86,-145.44 346.28,-133.63 354.82,-123.95"/>
<polygon fill="#63b8ff" stroke="#63b8ff" points="323.95,-153.65 319.96,-163.47 329.2,-158.28 323.95,-153.65"/>
</g>
<!-- Node8 -->
<g id="node8" class="node">
<title>Node8</title>
<g id="a_node8"><a xlink:href="symbolicSimplification_8cpp.html" target="_top" xlink:title=" ">
<polygon fill="white" stroke="#666666" points="666.91,-123.5 451.91,-123.5 451.91,-82.5 666.91,-82.5 666.91,-123.5"/>
<text text-anchor="start" x="459.91" y="-111.5" font-family="Helvetica,sans-Serif" font-size="10.00">/Users/jonathan/Works</text>
<text text-anchor="start" x="459.91" y="-100.5" font-family="Helvetica,sans-Serif" font-size="10.00">/Tools/Triton/src/libtriton</text>
<text text-anchor="middle" x="559.41" y="-89.5" font-family="Helvetica,sans-Serif" font-size="10.00">/engines/symbolic/symbolicSimplification.cpp</text>
</a>
</g>
</g>
<!-- Node4&#45;&gt;Node8 -->
<g id="edge7" class="edge">
<title>Node4&#45;&gt;Node8</title>
<path fill="none" stroke="#63b8ff" d="M376.14,-161.18C413.93,-149.39 459.32,-135.23 495.48,-123.95"/>
<polygon fill="#63b8ff" stroke="#63b8ff" points="375.14,-157.83 366.63,-164.15 377.22,-164.51 375.14,-157.83"/>
</g>
<!-- Node9 -->
<g id="node9" class="node">
<title>Node9</title>
<g id="a_node9"><a xlink:href="llvmToTriton_8hpp.html" target="_top" xlink:title=" ">
<polygon fill="white" stroke="#666666" points="839.91,-123.5 684.91,-123.5 684.91,-82.5 839.91,-82.5 839.91,-123.5"/>
<text text-anchor="start" x="692.91" y="-111.5" font-family="Helvetica,sans-Serif" font-size="10.00">/Users/jonathan/Works</text>
<text text-anchor="start" x="692.91" y="-100.5" font-family="Helvetica,sans-Serif" font-size="10.00">/Tools/Triton/src/libtriton</text>
<text text-anchor="middle" x="762.41" y="-89.5" font-family="Helvetica,sans-Serif" font-size="10.00">/includes/triton/llvmToTriton.hpp</text>
</a>
</g>
</g>
<!-- Node4&#45;&gt;Node9 -->
<g id="edge8" class="edge">
<title>Node4&#45;&gt;Node9</title>
<path fill="none" stroke="#63b8ff" d="M380.03,-176.02C456.3,-167.05 575.04,-151.13 676.41,-129 683.25,-127.51 690.34,-125.77 697.38,-123.91"/>
<polygon fill="#63b8ff" stroke="#63b8ff" points="379.66,-172.54 370.14,-177.17 380.47,-179.49 379.66,-172.54"/>
</g>
<!-- Node9&#45;&gt;Node2 -->
<g id="edge10" class="edge">
<title>Node9&#45;&gt;Node2</title>
<path fill="none" stroke="#63b8ff" d="M686.49,-79.33C683.09,-78.5 679.72,-77.72 676.41,-77 575.68,-55.03 457.84,-39.2 381.3,-30.21"/>
<polygon fill="#63b8ff" stroke="#63b8ff" points="685.36,-82.65 695.91,-81.71 687.08,-75.86 685.36,-82.65"/>
</g>
<!-- Node10 -->
<g id="node10" class="node">
<title>Node10</title>
<g id="a_node10"><a xlink:href="llvmToTriton_8cpp.html" target="_top" xlink:title=" ">
<polygon fill="white" stroke="#666666" points="826.91,-41 697.91,-41 697.91,0 826.91,0 826.91,-41"/>
<text text-anchor="start" x="705.91" y="-29" font-family="Helvetica,sans-Serif" font-size="10.00">/Users/jonathan/Works</text>
<text text-anchor="start" x="705.91" y="-18" font-family="Helvetica,sans-Serif" font-size="10.00">/Tools/Triton/src/libtriton</text>
<text text-anchor="middle" x="762.41" y="-7" font-family="Helvetica,sans-Serif" font-size="10.00">/ast/llvm/llvmToTriton.cpp</text>
</a>
</g>
</g>
<!-- Node9&#45;&gt;Node10 -->
<g id="edge9" class="edge">
<title>Node9&#45;&gt;Node10</title>
<path fill="none" stroke="#63b8ff" d="M762.41,-70.66C762.41,-60.83 762.41,-50.26 762.41,-41.45"/>
<polygon fill="#63b8ff" stroke="#63b8ff" points="758.91,-70.59 762.41,-80.59 765.91,-70.59 758.91,-70.59"/>
</g>
</g>
</svg>
