<?xml version="1.0" encoding="UTF-8" standalone="no"?>
<!DOCTYPE svg PUBLIC "-//W3C//DTD SVG 1.1//EN"
 "http://www.w3.org/Graphics/SVG/1.1/DTD/svg11.dtd">
<!-- Generated by graphviz version 11.0.0 (20240428.1522)
 -->
<!-- Title: /Users/jonathan/Works/Tools/Triton/src/libtriton/includes/triton/liftingToLLVM.hpp Pages: 1 -->
<svg width="845pt" height="372pt"
 viewBox="0.00 0.00 845.01 372.00" xmlns="http://www.w3.org/2000/svg" xmlns:xlink="http://www.w3.org/1999/xlink">
<g id="graph0" class="graph" transform="scale(1 1) rotate(0) translate(4 368)">
<title>/Users/jonathan/Works/Tools/Triton/src/libtriton/includes/triton/liftingToLLVM.hpp</title>
<!-- Node1 -->
<g id="Node000001" class="node">
<title>Node1</title>
<g id="a_Node000001"><a xlink:title=" ">
<polygon fill="#999999" stroke="#666666" points="196.64,-364 36.64,-364 36.64,-322.25 196.64,-322.25 196.64,-364"/>
<text text-anchor="start" x="44.64" y="-350.5" font-family="Helvetica,sans-Serif" font-size="10.00">/Users/jonathan/Works</text>
<text text-anchor="start" x="44.64" y="-339.25" font-family="Helvetica,sans-Serif" font-size="10.00">/Tools/Triton/src/libtriton</text>
<text text-anchor="middle" x="116.64" y="-328" font-family="Helvetica,sans-Serif" font-size="10.00">/includes/triton/liftingToLLVM.hpp</text>
</a>
</g>
</g>
<!-- Node2 -->
<g id="Node000002" class="node">
<title>Node2</title>
<g id="a_Node000002"><a xlink:href="liftingToLLVM_8cpp.html" target="_top" xlink:title=" ">
<polygon fill="white" stroke="#666666" points="379.64,-41.75 219.64,-41.75 219.64,0 379.64,0 379.64,-41.75"/>
<text text-anchor="start" x="227.64" y="-28.25" font-family="Helvetica,sans-Serif" font-size="10.00">/Users/jonathan/Works</text>
<text text-anchor="start" x="227.64" y="-17" font-family="Helvetica,sans-Serif" font-size="10.00">/Tools/Triton/src/libtriton</text>
<text text-anchor="middle" x="299.64" y="-5.75" font-family="Helvetica,sans-Serif" font-size="10.00">/engines/lifters/liftingToLLVM.cpp</text>
</a>
</g>
</g>
<!-- Node1&#45;&gt;Node2 -->
<g id="edge1_Node000001_Node000002" class="edge">
<title>Node1&#45;&gt;Node2</title>
<g id="a_edge1_Node000001_Node000002"><a xlink:title=" ">
<path fill="none" stroke="#63b8ff" d="M89.74,-313.56C44.01,-261.49 -38.47,-149.87 20.64,-77.75 45.37,-47.57 145.85,-33.36 219.16,-26.9"/>
<polygon fill="#63b8ff" stroke="#63b8ff" points="86.99,-315.73 96.27,-320.85 92.21,-311.07 86.99,-315.73"/>
</a>
</g>
</g>
<!-- Node3 -->
<g id="Node000003" class="node">
<title>Node3</title>
<g id="a_Node000003"><a xlink:href="liftingEngine_8hpp.html" target="_top" xlink:title=" ">
<polygon fill="white" stroke="#666666" points="322.01,-286.25 167.26,-286.25 167.26,-244.5 322.01,-244.5 322.01,-286.25"/>
<text text-anchor="start" x="175.26" y="-272.75" font-family="Helvetica,sans-Serif" font-size="10.00">/Users/jonathan/Works</text>
<text text-anchor="start" x="175.26" y="-261.5" font-family="Helvetica,sans-Serif" font-size="10.00">/Tools/Triton/src/libtriton</text>
<text text-anchor="middle" x="244.64" y="-250.25" font-family="Helvetica,sans-Serif" font-size="10.00">/includes/triton/liftingEngine.hpp</text>
</a>
</g>
</g>
<!-- Node1&#45;&gt;Node3 -->
<g id="edge2_Node000001_Node000003" class="edge">
<title>Node1&#45;&gt;Node3</title>
<g id="a_edge2_Node000001_Node000003"><a xlink:title=" ">
<path fill="none" stroke="#63b8ff" d="M160.74,-316.03C176.93,-306.44 195.02,-295.74 210.24,-286.73"/>
<polygon fill="#63b8ff" stroke="#63b8ff" points="159.06,-312.95 152.24,-321.05 162.63,-318.97 159.06,-312.95"/>
</a>
</g>
</g>
<!-- Node4 -->
<g id="Node000004" class="node">
<title>Node4</title>
<g id="a_Node000004"><a xlink:href="context_8hpp.html" target="_top" xlink:title=" ">
<polygon fill="white" stroke="#666666" points="368.51,-208.5 234.76,-208.5 234.76,-166.75 368.51,-166.75 368.51,-208.5"/>
<text text-anchor="start" x="242.76" y="-195" font-family="Helvetica,sans-Serif" font-size="10.00">/Users/jonathan/Works</text>
<text text-anchor="start" x="242.76" y="-183.75" font-family="Helvetica,sans-Serif" font-size="10.00">/Tools/Triton/src/libtriton</text>
<text text-anchor="middle" x="301.64" y="-172.5" font-family="Helvetica,sans-Serif" font-size="10.00">/includes/triton/context.hpp</text>
</a>
</g>
</g>
<!-- Node3&#45;&gt;Node4 -->
<g id="edge3_Node000003_Node000004" class="edge">
<title>Node3&#45;&gt;Node4</title>
<g id="a_edge3_Node000003_Node000004"><a xlink:title=" ">
<path fill="none" stroke="#63b8ff" d="M266.75,-234.98C273.29,-226.29 280.31,-216.97 286.32,-208.98"/>
<polygon fill="#63b8ff" stroke="#63b8ff" points="264.04,-232.77 260.82,-242.87 269.63,-236.98 264.04,-232.77"/>
</a>
</g>
</g>
<!-- Node5 -->
<g id="Node000005" class="node">
<title>Node5</title>
<g id="a_Node000005"><a xlink:href="pyTritonContext_8cpp.html" target="_top" xlink:title=" ">
<polygon fill="white" stroke="#666666" points="151.51,-130.75 29.76,-130.75 29.76,-77.75 151.51,-77.75 151.51,-130.75"/>
<text text-anchor="start" x="37.76" y="-117.25" font-family="Helvetica,sans-Serif" font-size="10.00">/Users/jonathan/Works</text>
<text text-anchor="start" x="37.76" y="-106" font-family="Helvetica,sans-Serif" font-size="10.00">/Tools/Triton/src/libtriton</text>
<text text-anchor="start" x="37.76" y="-94.75" font-family="Helvetica,sans-Serif" font-size="10.00">/bindings/python/objects</text>
<text text-anchor="middle" x="90.64" y="-83.5" font-family="Helvetica,sans-Serif" font-size="10.00">/pyTritonContext.cpp</text>
</a>
</g>
</g>
<!-- Node4&#45;&gt;Node5 -->
<g id="edge4_Node000004_Node000005" class="edge">
<title>Node4&#45;&gt;Node5</title>
<g id="a_edge4_Node000004_Node000005"><a xlink:title=" ">
<path fill="none" stroke="#63b8ff" d="M238.31,-162.2C210.98,-151.66 179.12,-139.38 152.01,-128.92"/>
<polygon fill="#63b8ff" stroke="#63b8ff" points="236.93,-165.42 247.52,-165.76 239.45,-158.89 236.93,-165.42"/>
</a>
</g>
</g>
<!-- Node6 -->
<g id="Node000006" class="node">
<title>Node6</title>
<g id="a_Node000006"><a xlink:href="callbacks_8cpp.html" target="_top" xlink:title=" ">
<polygon fill="white" stroke="#666666" points="293.26,-125.12 170.01,-125.12 170.01,-83.38 293.26,-83.38 293.26,-125.12"/>
<text text-anchor="start" x="178.01" y="-111.62" font-family="Helvetica,sans-Serif" font-size="10.00">/Users/jonathan/Works</text>
<text text-anchor="start" x="178.01" y="-100.38" font-family="Helvetica,sans-Serif" font-size="10.00">/Tools/Triton/src/libtriton</text>
<text text-anchor="middle" x="231.64" y="-89.12" font-family="Helvetica,sans-Serif" font-size="10.00">/callbacks/callbacks.cpp</text>
</a>
</g>
</g>
<!-- Node4&#45;&gt;Node6 -->
<g id="edge5_Node000004_Node000006" class="edge">
<title>Node4&#45;&gt;Node6</title>
<g id="a_edge5_Node000004_Node000006"><a xlink:title=" ">
<path fill="none" stroke="#63b8ff" d="M276.89,-157.86C267.67,-147.14 257.4,-135.2 248.98,-125.42"/>
<polygon fill="#63b8ff" stroke="#63b8ff" points="274.17,-160.06 283.35,-165.36 279.48,-155.5 274.17,-160.06"/>
</a>
</g>
</g>
<!-- Node7 -->
<g id="Node000007" class="node">
<title>Node7</title>
<g id="a_Node000007"><a xlink:href="context_8cpp.html" target="_top" xlink:title=" ">
<polygon fill="white" stroke="#666666" points="432.14,-125.12 311.14,-125.12 311.14,-83.38 432.14,-83.38 432.14,-125.12"/>
<text text-anchor="start" x="319.14" y="-111.62" font-family="Helvetica,sans-Serif" font-size="10.00">/Users/jonathan/Works</text>
<text text-anchor="start" x="319.14" y="-100.38" font-family="Helvetica,sans-Serif" font-size="10.00">/Tools/Triton/src/libtriton</text>
<text text-anchor="middle" x="371.64" y="-89.12" font-family="Helvetica,sans-Serif" font-size="10.00">/context/context.cpp</text>
</a>
</g>
</g>
<!-- Node4&#45;&gt;Node7 -->
<g id="edge6_Node000004_Node000007" class="edge">
<title>Node4&#45;&gt;Node7</title>
<g id="a_edge6_Node000004_Node000007"><a xlink:title=" ">
<path fill="none" stroke="#63b8ff" d="M326.38,-157.86C335.6,-147.14 345.87,-135.2 354.29,-125.42"/>
<polygon fill="#63b8ff" stroke="#63b8ff" points="323.79,-155.5 319.93,-165.36 329.1,-160.06 323.79,-155.5"/>
</a>
</g>
</g>
<!-- Node8 -->
<g id="Node000008" class="node">
<title>Node8</title>
<g id="a_Node000008"><a xlink:href="symbolicSimplification_8cpp.html" target="_top" xlink:title=" ">
<polygon fill="white" stroke="#666666" points="664.64,-125.12 450.64,-125.12 450.64,-83.38 664.64,-83.38 664.64,-125.12"/>
<text text-anchor="start" x="458.64" y="-111.62" font-family="Helvetica,sans-Serif" font-size="10.00">/Users/jonathan/Works</text>
<text text-anchor="start" x="458.64" y="-100.38" font-family="Helvetica,sans-Serif" font-size="10.00">/Tools/Triton/src/libtriton</text>
<text text-anchor="middle" x="557.64" y="-89.12" font-family="Helvetica,sans-Serif" font-size="10.00">/engines/symbolic/symbolicSimplification.cpp</text>
</a>
</g>
</g>
<!-- Node4&#45;&gt;Node8 -->
<g id="edge7_Node000004_Node000008" class="edge">
<title>Node4&#45;&gt;Node8</title>
<g id="a_edge7_Node000004_Node000008"><a xlink:title=" ">
<path fill="none" stroke="#63b8ff" d="M376.36,-162.87C413.54,-151.05 458.03,-136.91 493.62,-125.6"/>
<polygon fill="#63b8ff" stroke="#63b8ff" points="375.49,-159.48 367.02,-165.84 377.61,-166.15 375.49,-159.48"/>
</a>
</g>
</g>
<!-- Node9 -->
<g id="Node000009" class="node">
<title>Node9</title>
<g id="a_Node000009"><a xlink:href="llvmToTriton_8hpp.html" target="_top" xlink:title=" ">
<polygon fill="white" stroke="#666666" points="837.01,-125.12 682.26,-125.12 682.26,-83.38 837.01,-83.38 837.01,-125.12"/>
<text text-anchor="start" x="690.26" y="-111.62" font-family="Helvetica,sans-Serif" font-size="10.00">/Users/jonathan/Works</text>
<text text-anchor="start" x="690.26" y="-100.38" font-family="Helvetica,sans-Serif" font-size="10.00">/Tools/Triton/src/libtriton</text>
<text text-anchor="middle" x="759.64" y="-89.12" font-family="Helvetica,sans-Serif" font-size="10.00">/includes/triton/llvmToTriton.hpp</text>
</a>
</g>
</g>
<!-- Node4&#45;&gt;Node9 -->
<g id="edge8_Node000004_Node000009" class="edge">
<title>Node4&#45;&gt;Node9</title>
<g id="a_edge8_Node000004_Node000009"><a xlink:title=" ">
<path fill="none" stroke="#63b8ff" d="M380,-178.07C455.68,-169.05 573.28,-153.05 673.64,-130.75 680.48,-129.23 687.57,-127.46 694.62,-125.56"/>
<polygon fill="#63b8ff" stroke="#63b8ff" points="379.7,-174.58 370.18,-179.23 380.52,-181.53 379.7,-174.58"/>
</a>
</g>
</g>
<!-- Node9&#45;&gt;Node2 -->
<g id="edge10_Node000009_Node000002" class="edge">
<title>Node9&#45;&gt;Node2</title>
<g id="a_edge10_Node000009_Node000002"><a xlink:title=" ">
<path fill="none" stroke="#63b8ff" d="M683.72,-80.12C680.32,-79.28 676.95,-78.49 673.64,-77.75 573.49,-55.54 456.27,-39.62 380.12,-30.6"/>
<polygon fill="#63b8ff" stroke="#63b8ff" points="682.59,-83.44 693.15,-82.55 684.34,-76.66 682.59,-83.44"/>
</a>
</g>
</g>
<!-- Node10 -->
<g id="Node000010" class="node">
<title>Node10</title>
<g id="a_Node000010"><a xlink:href="llvmToTriton_8cpp.html" target="_top" xlink:title=" ">
<polygon fill="white" stroke="#666666" points="823.89,-41.75 695.39,-41.75 695.39,0 823.89,0 823.89,-41.75"/>
<text text-anchor="start" x="703.39" y="-28.25" font-family="Helvetica,sans-Serif" font-size="10.00">/Users/jonathan/Works</text>
<text text-anchor="start" x="703.39" y="-17" font-family="Helvetica,sans-Serif" font-size="10.00">/Tools/Triton/src/libtriton</text>
<text text-anchor="middle" x="759.64" y="-5.75" font-family="Helvetica,sans-Serif" font-size="10.00">/ast/llvm/llvmToTriton.cpp</text>
</a>
</g>
</g>
<!-- Node9&#45;&gt;Node10 -->
<g id="edge9_Node000009_Node000010" class="edge">
<title>Node9&#45;&gt;Node10</title>
<g id="a_edge9_Node000009_Node000010"><a xlink:title=" ">
<path fill="none" stroke="#63b8ff" d="M759.64,-71.89C759.64,-61.87 759.64,-51.05 759.64,-42.04"/>
<polygon fill="#63b8ff" stroke="#63b8ff" points="756.14,-71.62 759.64,-81.62 763.14,-71.62 756.14,-71.62"/>
</a>
</g>
</g>
</g>
</svg>
