<?xml version="1.0" encoding="UTF-8" standalone="no"?>
<!DOCTYPE svg PUBLIC "-//W3C//DTD SVG 1.1//EN"
 "http://www.w3.org/Graphics/SVG/1.1/DTD/svg11.dtd">
<!-- Generated by graphviz version 7.0.0 (20221023.0053)
 -->
<!-- Title: /Users/jonathan/Works/Tools/Triton/src/libtriton/includes/triton/llvmToTriton.hpp Pages: 1 -->
<svg width="316pt" height="126pt"
 viewBox="0.00 0.00 316.00 126.00" xmlns="http://www.w3.org/2000/svg" xmlns:xlink="http://www.w3.org/1999/xlink">
<g id="graph0" class="graph" transform="scale(1 1) rotate(0) translate(4 122)">
<title>/Users/jonathan/Works/Tools/Triton/src/libtriton/includes/triton/llvmToTriton.hpp</title>
<!-- Node1 -->
<g id="node1" class="node">
<title>Node1</title>
<g id="a_node1"><a xlink:title=" ">
<polygon fill="#999999" stroke="#666666" points="223,-118 68,-118 68,-77 223,-77 223,-118"/>
<text text-anchor="start" x="76" y="-106" font-family="Helvetica,sans-Serif" font-size="10.00">/Users/jonathan/Works</text>
<text text-anchor="start" x="76" y="-95" font-family="Helvetica,sans-Serif" font-size="10.00">/Tools/Triton/src/libtriton</text>
<text text-anchor="middle" x="145.5" y="-84" font-family="Helvetica,sans-Serif" font-size="10.00">/includes/triton/llvmToTriton.hpp</text>
</a>
</g>
</g>
<!-- Node2 -->
<g id="node2" class="node">
<title>Node2</title>
<g id="a_node2"><a xlink:href="llvmToTriton_8cpp.html" target="_top" xlink:title=" ">
<polygon fill="white" stroke="#666666" points="129,-41 0,-41 0,0 129,0 129,-41"/>
<text text-anchor="start" x="8" y="-29" font-family="Helvetica,sans-Serif" font-size="10.00">/Users/jonathan/Works</text>
<text text-anchor="start" x="8" y="-18" font-family="Helvetica,sans-Serif" font-size="10.00">/Tools/Triton/src/libtriton</text>
<text text-anchor="middle" x="64.5" y="-7" font-family="Helvetica,sans-Serif" font-size="10.00">/ast/llvm/llvmToTriton.cpp</text>
</a>
</g>
</g>
<!-- Node1&#45;&gt;Node2 -->
<g id="edge1" class="edge">
<title>Node1&#45;&gt;Node2</title>
<path fill="none" stroke="#63b8ff" d="M115.82,-69.02C105.91,-59.84 95.07,-49.81 85.92,-41.33"/>
<polygon fill="#63b8ff" stroke="#63b8ff" points="113.39,-71.54 123.11,-75.77 118.15,-66.4 113.39,-71.54"/>
</g>
<!-- Node3 -->
<g id="node3" class="node">
<title>Node3</title>
<g id="a_node3"><a xlink:href="liftingToLLVM_8cpp.html" target="_top" xlink:title=" ">
<polygon fill="white" stroke="#666666" points="308,-41 147,-41 147,0 308,0 308,-41"/>
<text text-anchor="start" x="155" y="-29" font-family="Helvetica,sans-Serif" font-size="10.00">/Users/jonathan/Works</text>
<text text-anchor="start" x="155" y="-18" font-family="Helvetica,sans-Serif" font-size="10.00">/Tools/Triton/src/libtriton</text>
<text text-anchor="middle" x="227.5" y="-7" font-family="Helvetica,sans-Serif" font-size="10.00">/engines/lifters/liftingToLLVM.cpp</text>
</a>
</g>
</g>
<!-- Node1&#45;&gt;Node3 -->
<g id="edge2" class="edge">
<title>Node1&#45;&gt;Node3</title>
<path fill="none" stroke="#63b8ff" d="M175.24,-69.29C185.35,-60.05 196.46,-49.89 205.81,-41.33"/>
<polygon fill="#63b8ff" stroke="#63b8ff" points="173.18,-66.44 168.16,-75.77 177.9,-71.61 173.18,-66.44"/>
</g>
</g>
</svg>
