<?xml version="1.0" encoding="UTF-8" standalone="no"?>
<!DOCTYPE svg PUBLIC "-//W3C//DTD SVG 1.1//EN"
 "http://www.w3.org/Graphics/SVG/1.1/DTD/svg11.dtd">
<!-- Generated by graphviz version 2.49.0 (20210828.1703)
 -->
<!-- Title: /home/jonathan/Works/Tools/Triton/src/libtriton/includes/triton/modesEnums.hpp Pages: 1 -->
<svg width="3389pt" height="629pt"
 viewBox="0.00 0.00 3389.43 629.00" xmlns="http://www.w3.org/2000/svg" xmlns:xlink="http://www.w3.org/1999/xlink">
<g id="graph0" class="graph" transform="scale(1 1) rotate(0) translate(4 625)">
<title>/home/jonathan/Works/Tools/Triton/src/libtriton/includes/triton/modesEnums.hpp</title>
<polygon fill="white" stroke="transparent" points="-4,4 -4,-625 3385.43,-625 3385.43,4 -4,4"/>
<!-- Node1 -->
<g id="node1" class="node">
<title>Node1</title>
<g id="a_node1"><a xlink:title=" ">
<polygon fill="#bfbfbf" stroke="black" points="2496.43,-579.5 2496.43,-620.5 2675.43,-620.5 2675.43,-579.5 2496.43,-579.5"/>
<text text-anchor="start" x="2504.43" y="-608.5" font-family="Helvetica,sans-Serif" font-size="10.00">/home/jonathan/Works</text>
<text text-anchor="start" x="2504.43" y="-597.5" font-family="Helvetica,sans-Serif" font-size="10.00">/Tools/Triton/src/libtriton</text>
<text text-anchor="middle" x="2585.93" y="-586.5" font-family="Helvetica,sans-Serif" font-size="10.00">/includes/triton/modesEnums.hpp</text>
</a>
</g>
</g>
<!-- Node2 -->
<g id="node2" class="node">
<title>Node2</title>
<g id="a_node2"><a xlink:href="modes_8hpp.html" target="_top" xlink:title=" ">
<polygon fill="white" stroke="black" points="2512.93,-501.5 2512.93,-542.5 2658.93,-542.5 2658.93,-501.5 2512.93,-501.5"/>
<text text-anchor="start" x="2520.93" y="-530.5" font-family="Helvetica,sans-Serif" font-size="10.00">/home/jonathan/Works</text>
<text text-anchor="start" x="2520.93" y="-519.5" font-family="Helvetica,sans-Serif" font-size="10.00">/Tools/Triton/src/libtriton</text>
<text text-anchor="middle" x="2585.93" y="-508.5" font-family="Helvetica,sans-Serif" font-size="10.00">/includes/triton/modes.hpp</text>
</a>
</g>
</g>
<!-- Node1&#45;&gt;Node2 -->
<g id="edge1" class="edge">
<title>Node1&#45;&gt;Node2</title>
<path fill="none" stroke="midnightblue" d="M2585.93,-569.3C2585.93,-560.3 2585.93,-550.65 2585.93,-542.51"/>
<polygon fill="midnightblue" stroke="midnightblue" points="2582.43,-569.43 2585.93,-579.43 2589.43,-569.43 2582.43,-569.43"/>
</g>
<!-- Node3 -->
<g id="node3" class="node">
<title>Node3</title>
<g id="a_node3"><a xlink:href="initModeNamespace_8cpp.html" target="_top" xlink:title=" ">
<polygon fill="white" stroke="black" points="2097.93,-412.5 2097.93,-464.5 2259.93,-464.5 2259.93,-412.5 2097.93,-412.5"/>
<text text-anchor="start" x="2105.93" y="-452.5" font-family="Helvetica,sans-Serif" font-size="10.00">/home/jonathan/Works</text>
<text text-anchor="start" x="2105.93" y="-441.5" font-family="Helvetica,sans-Serif" font-size="10.00">/Tools/Triton/src/libtriton</text>
<text text-anchor="start" x="2105.93" y="-430.5" font-family="Helvetica,sans-Serif" font-size="10.00">/bindings/python/namespaces</text>
<text text-anchor="middle" x="2178.93" y="-419.5" font-family="Helvetica,sans-Serif" font-size="10.00">/initModeNamespace.cpp</text>
</a>
</g>
</g>
<!-- Node2&#45;&gt;Node3 -->
<g id="edge2" class="edge">
<title>Node2&#45;&gt;Node3</title>
<path fill="none" stroke="midnightblue" d="M2502.87,-508.06C2439.78,-497.75 2351.03,-482.24 2273.93,-465 2269.43,-463.99 2264.82,-462.92 2260.18,-461.79"/>
<polygon fill="midnightblue" stroke="midnightblue" points="2502.33,-511.52 2512.76,-509.67 2503.46,-504.61 2502.33,-511.52"/>
</g>
<!-- Node4 -->
<g id="node4" class="node">
<title>Node4</title>
<g id="a_node4"><a xlink:href="api_8hpp.html" target="_top" xlink:title=" ">
<polygon fill="white" stroke="black" points="2957.43,-89.5 2957.43,-130.5 3090.43,-130.5 3090.43,-89.5 2957.43,-89.5"/>
<text text-anchor="start" x="2965.43" y="-118.5" font-family="Helvetica,sans-Serif" font-size="10.00">/home/jonathan/Works</text>
<text text-anchor="start" x="2965.43" y="-107.5" font-family="Helvetica,sans-Serif" font-size="10.00">/Tools/Triton/src/libtriton</text>
<text text-anchor="middle" x="3023.93" y="-96.5" font-family="Helvetica,sans-Serif" font-size="10.00">/includes/triton/api.hpp</text>
</a>
</g>
</g>
<!-- Node2&#45;&gt;Node4 -->
<g id="edge3" class="edge">
<title>Node2&#45;&gt;Node4</title>
<path fill="none" stroke="midnightblue" d="M2668.99,-516.76C2840.92,-505.7 3219.93,-468.56 3219.93,-356 3219.93,-356 3219.93,-356 3219.93,-276 3219.93,-224.7 3218.11,-203.37 3181.93,-167 3157.6,-142.55 3121.94,-128.74 3090.66,-120.95"/>
<polygon fill="midnightblue" stroke="midnightblue" points="2668.72,-513.27 2658.96,-517.39 2669.16,-520.25 2668.72,-513.27"/>
</g>
<!-- Node8 -->
<g id="node8" class="node">
<title>Node8</title>
<g id="a_node8"><a xlink:href="astContext_8hpp.html" target="_top" xlink:title=" ">
<polygon fill="white" stroke="black" points="971.43,-256.5 971.43,-297.5 1138.43,-297.5 1138.43,-256.5 971.43,-256.5"/>
<text text-anchor="start" x="979.43" y="-285.5" font-family="Helvetica,sans-Serif" font-size="10.00">/home/jonathan/Works</text>
<text text-anchor="start" x="979.43" y="-274.5" font-family="Helvetica,sans-Serif" font-size="10.00">/Tools/Triton/src/libtriton</text>
<text text-anchor="middle" x="1054.93" y="-263.5" font-family="Helvetica,sans-Serif" font-size="10.00">/includes/triton/astContext.hpp</text>
</a>
</g>
</g>
<!-- Node2&#45;&gt;Node8 -->
<g id="edge7" class="edge">
<title>Node2&#45;&gt;Node8</title>
<path fill="none" stroke="midnightblue" d="M2502.59,-518.53C2445.35,-513.49 2369.59,-499.99 2311.93,-465 2285.99,-449.26 2295.55,-426.53 2268.93,-412 2073.26,-305.22 1380.13,-283.45 1138.64,-279.08"/>
<polygon fill="midnightblue" stroke="midnightblue" points="2502.44,-522.03 2512.69,-519.35 2503,-515.05 2502.44,-522.03"/>
</g>
<!-- Node25 -->
<g id="node25" class="node">
<title>Node25</title>
<g id="a_node25"><a xlink:href="irBuilder_8hpp.html" target="_top" xlink:title=" ">
<polygon fill="white" stroke="black" points="2999.93,-173 2999.93,-214 3153.93,-214 3153.93,-173 2999.93,-173"/>
<text text-anchor="start" x="3007.93" y="-202" font-family="Helvetica,sans-Serif" font-size="10.00">/home/jonathan/Works</text>
<text text-anchor="start" x="3007.93" y="-191" font-family="Helvetica,sans-Serif" font-size="10.00">/Tools/Triton/src/libtriton</text>
<text text-anchor="middle" x="3076.93" y="-180" font-family="Helvetica,sans-Serif" font-size="10.00">/includes/triton/irBuilder.hpp</text>
</a>
</g>
</g>
<!-- Node2&#45;&gt;Node25 -->
<g id="edge26" class="edge">
<title>Node2&#45;&gt;Node25</title>
<path fill="none" stroke="midnightblue" d="M2623.95,-495.72C2718.55,-432.81 2962.98,-270.27 3047.59,-214.01"/>
<polygon fill="midnightblue" stroke="midnightblue" points="2621.92,-492.86 2615.53,-501.31 2625.8,-498.69 2621.92,-492.86"/>
</g>
<!-- Node26 -->
<g id="node26" class="node">
<title>Node26</title>
<g id="a_node26"><a xlink:href="pathManager_8hpp.html" target="_top" xlink:title=" ">
<polygon fill="white" stroke="black" points="2381.43,-418 2381.43,-459 2558.43,-459 2558.43,-418 2381.43,-418"/>
<text text-anchor="start" x="2389.43" y="-447" font-family="Helvetica,sans-Serif" font-size="10.00">/home/jonathan/Works</text>
<text text-anchor="start" x="2389.43" y="-436" font-family="Helvetica,sans-Serif" font-size="10.00">/Tools/Triton/src/libtriton</text>
<text text-anchor="middle" x="2469.93" y="-425" font-family="Helvetica,sans-Serif" font-size="10.00">/includes/triton/pathManager.hpp</text>
</a>
</g>
</g>
<!-- Node2&#45;&gt;Node26 -->
<g id="edge29" class="edge">
<title>Node2&#45;&gt;Node26</title>
<path fill="none" stroke="midnightblue" d="M2549.69,-495.54C2532.98,-483.8 2513.44,-470.07 2497.89,-459.14"/>
<polygon fill="midnightblue" stroke="midnightblue" points="2547.95,-498.59 2558.14,-501.48 2551.97,-492.87 2547.95,-498.59"/>
</g>
<!-- Node27 -->
<g id="node27" class="node">
<title>Node27</title>
<g id="a_node27"><a xlink:href="symbolicEngine_8hpp.html" target="_top" xlink:title=" ">
<polygon fill="white" stroke="black" points="2426.43,-334.5 2426.43,-375.5 2617.43,-375.5 2617.43,-334.5 2426.43,-334.5"/>
<text text-anchor="start" x="2434.43" y="-363.5" font-family="Helvetica,sans-Serif" font-size="10.00">/home/jonathan/Works</text>
<text text-anchor="start" x="2434.43" y="-352.5" font-family="Helvetica,sans-Serif" font-size="10.00">/Tools/Triton/src/libtriton</text>
<text text-anchor="middle" x="2521.93" y="-341.5" font-family="Helvetica,sans-Serif" font-size="10.00">/includes/triton/symbolicEngine.hpp</text>
</a>
</g>
</g>
<!-- Node2&#45;&gt;Node27 -->
<g id="edge52" class="edge">
<title>Node2&#45;&gt;Node27</title>
<path fill="none" stroke="midnightblue" d="M2585.16,-491.19C2583.61,-468.57 2579.34,-437.18 2567.93,-412 2561.85,-398.59 2551.72,-385.74 2542.51,-375.74"/>
<polygon fill="midnightblue" stroke="midnightblue" points="2581.67,-491.42 2585.71,-501.22 2588.66,-491.04 2581.67,-491.42"/>
</g>
<!-- Node30 -->
<g id="node30" class="node">
<title>Node30</title>
<g id="a_node30"><a xlink:href="taintEngine_8hpp.html" target="_top" xlink:title=" ">
<polygon fill="white" stroke="black" points="2581.43,-256.5 2581.43,-297.5 2750.43,-297.5 2750.43,-256.5 2581.43,-256.5"/>
<text text-anchor="start" x="2589.43" y="-285.5" font-family="Helvetica,sans-Serif" font-size="10.00">/home/jonathan/Works</text>
<text text-anchor="start" x="2589.43" y="-274.5" font-family="Helvetica,sans-Serif" font-size="10.00">/Tools/Triton/src/libtriton</text>
<text text-anchor="middle" x="2665.93" y="-263.5" font-family="Helvetica,sans-Serif" font-size="10.00">/includes/triton/taintEngine.hpp</text>
</a>
</g>
</g>
<!-- Node2&#45;&gt;Node30 -->
<g id="edge53" class="edge">
<title>Node2&#45;&gt;Node30</title>
<path fill="none" stroke="midnightblue" d="M2595.64,-491.49C2612.17,-441.27 2645.35,-340.5 2659.4,-297.82"/>
<polygon fill="midnightblue" stroke="midnightblue" points="2592.28,-490.52 2592.47,-501.11 2598.92,-492.71 2592.28,-490.52"/>
</g>
<!-- Node32 -->
<g id="node32" class="node">
<title>Node32</title>
<g id="a_node32"><a xlink:href="x86Semantics_8hpp.html" target="_top" xlink:title=" ">
<polygon fill="white" stroke="black" points="2146.93,-173 2146.93,-214 2328.93,-214 2328.93,-173 2146.93,-173"/>
<text text-anchor="start" x="2154.93" y="-202" font-family="Helvetica,sans-Serif" font-size="10.00">/home/jonathan/Works</text>
<text text-anchor="start" x="2154.93" y="-191" font-family="Helvetica,sans-Serif" font-size="10.00">/Tools/Triton/src/libtriton</text>
<text text-anchor="middle" x="2237.93" y="-180" font-family="Helvetica,sans-Serif" font-size="10.00">/includes/triton/x86Semantics.hpp</text>
</a>
</g>
</g>
<!-- Node2&#45;&gt;Node32 -->
<g id="edge54" class="edge">
<title>Node2&#45;&gt;Node32</title>
<path fill="none" stroke="midnightblue" d="M2502.63,-515.36C2459.93,-508.73 2409.39,-494.64 2372.93,-465 2289.43,-397.14 2253.09,-264.5 2241.92,-214.35"/>
<polygon fill="midnightblue" stroke="midnightblue" points="2502.34,-518.86 2512.74,-516.82 2503.34,-511.93 2502.34,-518.86"/>
</g>
<!-- Node33 -->
<g id="node33" class="node">
<title>Node33</title>
<g id="a_node33"><a xlink:href="modes_8cpp.html" target="_top" xlink:title=" ">
<polygon fill="white" stroke="black" points="3248.43,-418 3248.43,-459 3381.43,-459 3381.43,-418 3248.43,-418"/>
<text text-anchor="start" x="3256.43" y="-447" font-family="Helvetica,sans-Serif" font-size="10.00">/home/jonathan/Works</text>
<text text-anchor="start" x="3256.43" y="-436" font-family="Helvetica,sans-Serif" font-size="10.00">/Tools/Triton/src/libtriton</text>
<text text-anchor="middle" x="3314.93" y="-425" font-family="Helvetica,sans-Serif" font-size="10.00">/modes/modes.cpp</text>
</a>
</g>
</g>
<!-- Node2&#45;&gt;Node33 -->
<g id="edge55" class="edge">
<title>Node2&#45;&gt;Node33</title>
<path fill="none" stroke="midnightblue" d="M2669.25,-519.61C2793.4,-516.23 3033.8,-504.65 3233.93,-465 3241.88,-463.42 3250.16,-461.35 3258.25,-459.06"/>
<polygon fill="midnightblue" stroke="midnightblue" points="2668.96,-516.11 2659.05,-519.87 2669.14,-523.11 2668.96,-516.11"/>
</g>
<!-- Node5 -->
<g id="node5" class="node">
<title>Node5</title>
<g id="a_node5"><a xlink:href="api_8cpp.html" target="_top" xlink:title=" ">
<polygon fill="white" stroke="black" points="2804.43,-6 2804.43,-47 2937.43,-47 2937.43,-6 2804.43,-6"/>
<text text-anchor="start" x="2812.43" y="-35" font-family="Helvetica,sans-Serif" font-size="10.00">/home/jonathan/Works</text>
<text text-anchor="start" x="2812.43" y="-24" font-family="Helvetica,sans-Serif" font-size="10.00">/Tools/Triton/src/libtriton</text>
<text text-anchor="middle" x="2870.93" y="-13" font-family="Helvetica,sans-Serif" font-size="10.00">/api/api.cpp</text>
</a>
</g>
</g>
<!-- Node4&#45;&gt;Node5 -->
<g id="edge4" class="edge">
<title>Node4&#45;&gt;Node5</title>
<path fill="none" stroke="midnightblue" d="M2978.21,-84.65C2955.63,-72.62 2928.75,-58.3 2907.54,-47"/>
<polygon fill="midnightblue" stroke="midnightblue" points="2976.81,-87.87 2987.28,-89.48 2980.1,-81.69 2976.81,-87.87"/>
</g>
<!-- Node6 -->
<g id="node6" class="node">
<title>Node6</title>
<g id="a_node6"><a xlink:href="pyTritonContext_8cpp.html" target="_top" xlink:title=" ">
<polygon fill="white" stroke="black" points="2955.93,-0.5 2955.93,-52.5 3091.93,-52.5 3091.93,-0.5 2955.93,-0.5"/>
<text text-anchor="start" x="2963.93" y="-40.5" font-family="Helvetica,sans-Serif" font-size="10.00">/home/jonathan/Works</text>
<text text-anchor="start" x="2963.93" y="-29.5" font-family="Helvetica,sans-Serif" font-size="10.00">/Tools/Triton/src/libtriton</text>
<text text-anchor="start" x="2963.93" y="-18.5" font-family="Helvetica,sans-Serif" font-size="10.00">/bindings/python/objects</text>
<text text-anchor="middle" x="3023.93" y="-7.5" font-family="Helvetica,sans-Serif" font-size="10.00">/pyTritonContext.cpp</text>
</a>
</g>
</g>
<!-- Node4&#45;&gt;Node6 -->
<g id="edge5" class="edge">
<title>Node4&#45;&gt;Node6</title>
<path fill="none" stroke="midnightblue" d="M3023.93,-79.12C3023.93,-70.41 3023.93,-60.99 3023.93,-52.61"/>
<polygon fill="midnightblue" stroke="midnightblue" points="3020.43,-79.27 3023.93,-89.27 3027.43,-79.27 3020.43,-79.27"/>
</g>
<!-- Node7 -->
<g id="node7" class="node">
<title>Node7</title>
<g id="a_node7"><a xlink:href="callbacks_8cpp.html" target="_top" xlink:title=" ">
<polygon fill="white" stroke="black" points="3109.93,-6 3109.93,-47 3243.93,-47 3243.93,-6 3109.93,-6"/>
<text text-anchor="start" x="3117.93" y="-35" font-family="Helvetica,sans-Serif" font-size="10.00">/home/jonathan/Works</text>
<text text-anchor="start" x="3117.93" y="-24" font-family="Helvetica,sans-Serif" font-size="10.00">/Tools/Triton/src/libtriton</text>
<text text-anchor="middle" x="3176.93" y="-13" font-family="Helvetica,sans-Serif" font-size="10.00">/callbacks/callbacks.cpp</text>
</a>
</g>
</g>
<!-- Node4&#45;&gt;Node7 -->
<g id="edge6" class="edge">
<title>Node4&#45;&gt;Node7</title>
<path fill="none" stroke="midnightblue" d="M3069.64,-84.65C3092.22,-72.62 3119.11,-58.3 3140.31,-47"/>
<polygon fill="midnightblue" stroke="midnightblue" points="3067.75,-81.69 3060.57,-89.48 3071.05,-87.87 3067.75,-81.69"/>
</g>
<!-- Node8&#45;&gt;Node4 -->
<g id="edge22" class="edge">
<title>Node8&#45;&gt;Node4</title>
<path fill="none" stroke="midnightblue" d="M1148.73,-271.75C1255.18,-265.5 1421.04,-251.03 1474.93,-220 1500.73,-205.14 1489.43,-180.59 1515.93,-167 1565.83,-141.4 2468.88,-133.12 2524.93,-131 2679.79,-125.13 2861.68,-117.71 2957.34,-113.76"/>
<polygon fill="midnightblue" stroke="midnightblue" points="1148.4,-268.26 1138.62,-272.33 1148.8,-275.25 1148.4,-268.26"/>
</g>
<!-- Node9 -->
<g id="node9" class="node">
<title>Node9</title>
<g id="a_node9"><a xlink:href="aarch64Semantics_8cpp.html" target="_top" xlink:title=" ">
<polygon fill="white" stroke="black" points="309.93,-89.5 309.93,-130.5 527.93,-130.5 527.93,-89.5 309.93,-89.5"/>
<text text-anchor="start" x="317.93" y="-118.5" font-family="Helvetica,sans-Serif" font-size="10.00">/home/jonathan/Works</text>
<text text-anchor="start" x="317.93" y="-107.5" font-family="Helvetica,sans-Serif" font-size="10.00">/Tools/Triton/src/libtriton</text>
<text text-anchor="middle" x="418.93" y="-96.5" font-family="Helvetica,sans-Serif" font-size="10.00">/arch/arm/aarch64/aarch64Semantics.cpp</text>
</a>
</g>
</g>
<!-- Node8&#45;&gt;Node9 -->
<g id="edge8" class="edge">
<title>Node8&#45;&gt;Node9</title>
<path fill="none" stroke="midnightblue" d="M961.18,-274.42C711,-269.76 44.32,-254.18 11.93,-220 -4.28,-202.9 -3.55,-184.76 11.93,-167 49.83,-123.52 202.32,-112.63 309.46,-110.5"/>
<polygon fill="midnightblue" stroke="midnightblue" points="961.27,-277.93 971.34,-274.61 961.4,-270.93 961.27,-277.93"/>
</g>
<!-- Node10 -->
<g id="node10" class="node">
<title>Node10</title>
<g id="a_node10"><a xlink:href="arm32Semantics_8cpp.html" target="_top" xlink:title=" ">
<polygon fill="white" stroke="black" points="1144.43,-89.5 1144.43,-130.5 1347.43,-130.5 1347.43,-89.5 1144.43,-89.5"/>
<text text-anchor="start" x="1152.43" y="-118.5" font-family="Helvetica,sans-Serif" font-size="10.00">/home/jonathan/Works</text>
<text text-anchor="start" x="1152.43" y="-107.5" font-family="Helvetica,sans-Serif" font-size="10.00">/Tools/Triton/src/libtriton</text>
<text text-anchor="middle" x="1245.93" y="-96.5" font-family="Helvetica,sans-Serif" font-size="10.00">/arch/arm/arm32/arm32Semantics.cpp</text>
</a>
</g>
</g>
<!-- Node8&#45;&gt;Node10 -->
<g id="edge9" class="edge">
<title>Node8&#45;&gt;Node10</title>
<path fill="none" stroke="midnightblue" d="M961.11,-272.88C815.52,-267.06 548.84,-252.1 519.93,-220 504.16,-202.5 503.92,-184.28 519.93,-167 530.4,-155.69 946.68,-129.09 1144.07,-117.07"/>
<polygon fill="midnightblue" stroke="midnightblue" points="961.24,-276.39 971.37,-273.28 961.52,-269.39 961.24,-276.39"/>
</g>
<!-- Node11 -->
<g id="node11" class="node">
<title>Node11</title>
<g id="a_node11"><a xlink:href="irBuilder_8cpp.html" target="_top" xlink:title=" ">
<polygon fill="white" stroke="black" points="2382.43,-89.5 2382.43,-130.5 2515.43,-130.5 2515.43,-89.5 2382.43,-89.5"/>
<text text-anchor="start" x="2390.43" y="-118.5" font-family="Helvetica,sans-Serif" font-size="10.00">/home/jonathan/Works</text>
<text text-anchor="start" x="2390.43" y="-107.5" font-family="Helvetica,sans-Serif" font-size="10.00">/Tools/Triton/src/libtriton</text>
<text text-anchor="middle" x="2448.93" y="-96.5" font-family="Helvetica,sans-Serif" font-size="10.00">/arch/irBuilder.cpp</text>
</a>
</g>
</g>
<!-- Node8&#45;&gt;Node11 -->
<g id="edge10" class="edge">
<title>Node8&#45;&gt;Node11</title>
<path fill="none" stroke="midnightblue" d="M1148.63,-270.04C1245.95,-262.49 1390.62,-247.11 1438.93,-220 1465.63,-205.02 1455.58,-180.76 1482.93,-167 1548.83,-133.85 2072.28,-135.43 2145.93,-131 2227.23,-126.11 2320.76,-119.84 2382.14,-115.63"/>
<polygon fill="midnightblue" stroke="midnightblue" points="1148.19,-266.56 1138.48,-270.81 1148.72,-273.54 1148.19,-266.56"/>
</g>
<!-- Node12 -->
<g id="node12" class="node">
<title>Node12</title>
<g id="a_node12"><a xlink:href="x86Semantics_8cpp.html" target="_top" xlink:title=" ">
<polygon fill="white" stroke="black" points="678.93,-89.5 678.93,-130.5 832.93,-130.5 832.93,-89.5 678.93,-89.5"/>
<text text-anchor="start" x="686.93" y="-118.5" font-family="Helvetica,sans-Serif" font-size="10.00">/home/jonathan/Works</text>
<text text-anchor="start" x="686.93" y="-107.5" font-family="Helvetica,sans-Serif" font-size="10.00">/Tools/Triton/src/libtriton</text>
<text text-anchor="middle" x="755.93" y="-96.5" font-family="Helvetica,sans-Serif" font-size="10.00">/arch/x86/x86Semantics.cpp</text>
</a>
</g>
</g>
<!-- Node8&#45;&gt;Node12 -->
<g id="edge11" class="edge">
<title>Node8&#45;&gt;Node12</title>
<path fill="none" stroke="midnightblue" d="M961.29,-273.18C812.29,-267.71 534.88,-253.16 504.93,-220 489.14,-202.52 490.19,-185.38 504.93,-167 526.46,-140.13 613.17,-125.31 678.7,-117.77"/>
<polygon fill="midnightblue" stroke="midnightblue" points="961.23,-276.68 971.35,-273.54 961.49,-269.68 961.23,-276.68"/>
</g>
<!-- Node13 -->
<g id="node13" class="node">
<title>Node13</title>
<g id="a_node13"><a xlink:href="ast_8cpp.html" target="_top" xlink:title=" ">
<polygon fill="white" stroke="black" points="529.43,-173 529.43,-214 662.43,-214 662.43,-173 529.43,-173"/>
<text text-anchor="start" x="537.43" y="-202" font-family="Helvetica,sans-Serif" font-size="10.00">/home/jonathan/Works</text>
<text text-anchor="start" x="537.43" y="-191" font-family="Helvetica,sans-Serif" font-size="10.00">/Tools/Triton/src/libtriton</text>
<text text-anchor="middle" x="595.93" y="-180" font-family="Helvetica,sans-Serif" font-size="10.00">/ast/ast.cpp</text>
</a>
</g>
</g>
<!-- Node8&#45;&gt;Node13 -->
<g id="edge12" class="edge">
<title>Node8&#45;&gt;Node13</title>
<path fill="none" stroke="midnightblue" d="M960.99,-267.15C882.68,-258.63 768.56,-243.51 670.93,-220 663.97,-218.33 656.75,-216.28 649.65,-214.08"/>
<polygon fill="midnightblue" stroke="midnightblue" points="961,-270.68 971.32,-268.26 961.75,-263.72 961,-270.68"/>
</g>
<!-- Node14 -->
<g id="node14" class="node">
<title>Node14</title>
<g id="a_node14"><a xlink:href="astContext_8cpp.html" target="_top" xlink:title=" ">
<polygon fill="white" stroke="black" points="680.43,-173 680.43,-214 813.43,-214 813.43,-173 680.43,-173"/>
<text text-anchor="start" x="688.43" y="-202" font-family="Helvetica,sans-Serif" font-size="10.00">/home/jonathan/Works</text>
<text text-anchor="start" x="688.43" y="-191" font-family="Helvetica,sans-Serif" font-size="10.00">/Tools/Triton/src/libtriton</text>
<text text-anchor="middle" x="746.93" y="-180" font-family="Helvetica,sans-Serif" font-size="10.00">/ast/astContext.cpp</text>
</a>
</g>
</g>
<!-- Node8&#45;&gt;Node14 -->
<g id="edge13" class="edge">
<title>Node8&#45;&gt;Node14</title>
<path fill="none" stroke="midnightblue" d="M961.57,-255.63C918.77,-245.76 867.53,-233.2 821.93,-220 815.59,-218.16 808.99,-216.12 802.45,-214.01"/>
<polygon fill="midnightblue" stroke="midnightblue" points="960.88,-259.06 971.41,-257.88 962.44,-252.24 960.88,-259.06"/>
</g>
<!-- Node15 -->
<g id="node15" class="node">
<title>Node15</title>
<g id="a_node15"><a xlink:href="z3ToTritonAst_8cpp.html" target="_top" xlink:title=" ">
<polygon fill="white" stroke="black" points="831.43,-173 831.43,-214 968.43,-214 968.43,-173 831.43,-173"/>
<text text-anchor="start" x="839.43" y="-202" font-family="Helvetica,sans-Serif" font-size="10.00">/home/jonathan/Works</text>
<text text-anchor="start" x="839.43" y="-191" font-family="Helvetica,sans-Serif" font-size="10.00">/Tools/Triton/src/libtriton</text>
<text text-anchor="middle" x="899.93" y="-180" font-family="Helvetica,sans-Serif" font-size="10.00">/ast/z3/z3ToTritonAst.cpp</text>
</a>
</g>
</g>
<!-- Node8&#45;&gt;Node15 -->
<g id="edge14" class="edge">
<title>Node8&#45;&gt;Node15</title>
<path fill="none" stroke="midnightblue" d="M1008.92,-251.81C985.98,-239.75 958.6,-225.35 937.02,-214"/>
<polygon fill="midnightblue" stroke="midnightblue" points="1007.32,-254.92 1017.8,-256.48 1010.58,-248.73 1007.32,-254.92"/>
</g>
<!-- Node16 -->
<g id="node16" class="node">
<title>Node16</title>
<g id="a_node16"><a xlink:href="pyAstContext_8cpp.html" target="_top" xlink:title=" ">
<polygon fill="white" stroke="black" points="986.93,-167.5 986.93,-219.5 1122.93,-219.5 1122.93,-167.5 986.93,-167.5"/>
<text text-anchor="start" x="994.93" y="-207.5" font-family="Helvetica,sans-Serif" font-size="10.00">/home/jonathan/Works</text>
<text text-anchor="start" x="994.93" y="-196.5" font-family="Helvetica,sans-Serif" font-size="10.00">/Tools/Triton/src/libtriton</text>
<text text-anchor="start" x="994.93" y="-185.5" font-family="Helvetica,sans-Serif" font-size="10.00">/bindings/python/objects</text>
<text text-anchor="middle" x="1054.93" y="-174.5" font-family="Helvetica,sans-Serif" font-size="10.00">/pyAstContext.cpp</text>
</a>
</g>
</g>
<!-- Node8&#45;&gt;Node16 -->
<g id="edge15" class="edge">
<title>Node8&#45;&gt;Node16</title>
<path fill="none" stroke="midnightblue" d="M1054.93,-246.12C1054.93,-237.41 1054.93,-227.99 1054.93,-219.61"/>
<polygon fill="midnightblue" stroke="midnightblue" points="1051.43,-246.27 1054.93,-256.27 1058.43,-246.27 1051.43,-246.27"/>
</g>
<!-- Node17 -->
<g id="node17" class="node">
<title>Node17</title>
<g id="a_node17"><a xlink:href="pyAstNode_8cpp.html" target="_top" xlink:title=" ">
<polygon fill="white" stroke="black" points="1140.93,-167.5 1140.93,-219.5 1276.93,-219.5 1276.93,-167.5 1140.93,-167.5"/>
<text text-anchor="start" x="1148.93" y="-207.5" font-family="Helvetica,sans-Serif" font-size="10.00">/home/jonathan/Works</text>
<text text-anchor="start" x="1148.93" y="-196.5" font-family="Helvetica,sans-Serif" font-size="10.00">/Tools/Triton/src/libtriton</text>
<text text-anchor="start" x="1148.93" y="-185.5" font-family="Helvetica,sans-Serif" font-size="10.00">/bindings/python/objects</text>
<text text-anchor="middle" x="1208.93" y="-174.5" font-family="Helvetica,sans-Serif" font-size="10.00">/pyAstNode.cpp</text>
</a>
</g>
</g>
<!-- Node8&#45;&gt;Node17 -->
<g id="edge16" class="edge">
<title>Node8&#45;&gt;Node17</title>
<path fill="none" stroke="midnightblue" d="M1100.67,-251.79C1119.87,-241.63 1142.18,-229.82 1161.54,-219.58"/>
<polygon fill="midnightblue" stroke="midnightblue" points="1099.01,-248.71 1091.81,-256.48 1102.29,-254.89 1099.01,-248.71"/>
</g>
<!-- Node18 -->
<g id="node18" class="node">
<title>Node18</title>
<g id="a_node18"><a xlink:href="bitwuzlaSolver_8cpp.html" target="_top" xlink:title=" ">
<polygon fill="white" stroke="black" points="1295.43,-167.5 1295.43,-219.5 1430.43,-219.5 1430.43,-167.5 1295.43,-167.5"/>
<text text-anchor="start" x="1303.43" y="-207.5" font-family="Helvetica,sans-Serif" font-size="10.00">/home/jonathan/Works</text>
<text text-anchor="start" x="1303.43" y="-196.5" font-family="Helvetica,sans-Serif" font-size="10.00">/Tools/Triton/src/libtriton</text>
<text text-anchor="start" x="1303.43" y="-185.5" font-family="Helvetica,sans-Serif" font-size="10.00">/engines/solver/bitwuzla</text>
<text text-anchor="middle" x="1362.93" y="-174.5" font-family="Helvetica,sans-Serif" font-size="10.00">/bitwuzlaSolver.cpp</text>
</a>
</g>
</g>
<!-- Node8&#45;&gt;Node18 -->
<g id="edge17" class="edge">
<title>Node8&#45;&gt;Node18</title>
<path fill="none" stroke="midnightblue" d="M1148.47,-255.16C1190.68,-245.29 1241.03,-232.85 1285.93,-220 1289.04,-219.11 1292.22,-218.17 1295.42,-217.2"/>
<polygon fill="midnightblue" stroke="midnightblue" points="1147.43,-251.81 1138.49,-257.48 1149.02,-258.63 1147.43,-251.81"/>
</g>
<!-- Node19 -->
<g id="node19" class="node">
<title>Node19</title>
<g id="a_node19"><a xlink:href="z3Solver_8cpp.html" target="_top" xlink:title=" ">
<polygon fill="white" stroke="black" points="20.93,-173 20.93,-214 190.93,-214 190.93,-173 20.93,-173"/>
<text text-anchor="start" x="28.93" y="-202" font-family="Helvetica,sans-Serif" font-size="10.00">/home/jonathan/Works</text>
<text text-anchor="start" x="28.93" y="-191" font-family="Helvetica,sans-Serif" font-size="10.00">/Tools/Triton/src/libtriton</text>
<text text-anchor="middle" x="105.93" y="-180" font-family="Helvetica,sans-Serif" font-size="10.00">/engines/solver/z3/z3Solver.cpp</text>
</a>
</g>
</g>
<!-- Node8&#45;&gt;Node19 -->
<g id="edge18" class="edge">
<title>Node8&#45;&gt;Node19</title>
<path fill="none" stroke="midnightblue" d="M960.99,-275.95C802.83,-274.5 473.8,-265.65 199.93,-220 190.59,-218.44 180.83,-216.35 171.3,-214.02"/>
<polygon fill="midnightblue" stroke="midnightblue" points="961.13,-279.45 971.16,-276.03 961.18,-272.45 961.13,-279.45"/>
</g>
<!-- Node20 -->
<g id="node20" class="node">
<title>Node20</title>
<g id="a_node20"><a xlink:href="pathManager_8cpp.html" target="_top" xlink:title=" ">
<polygon fill="white" stroke="black" points="1524.93,-173 1524.93,-214 1716.93,-214 1716.93,-173 1524.93,-173"/>
<text text-anchor="start" x="1532.93" y="-202" font-family="Helvetica,sans-Serif" font-size="10.00">/home/jonathan/Works</text>
<text text-anchor="start" x="1532.93" y="-191" font-family="Helvetica,sans-Serif" font-size="10.00">/Tools/Triton/src/libtriton</text>
<text text-anchor="middle" x="1620.93" y="-180" font-family="Helvetica,sans-Serif" font-size="10.00">/engines/symbolic/pathManager.cpp</text>
</a>
</g>
</g>
<!-- Node8&#45;&gt;Node20 -->
<g id="edge19" class="edge">
<title>Node8&#45;&gt;Node20</title>
<path fill="none" stroke="midnightblue" d="M1148.7,-267.41C1241.2,-258.24 1386.39,-242.02 1510.93,-220 1520.77,-218.26 1531.06,-216.2 1541.22,-214.02"/>
<polygon fill="midnightblue" stroke="midnightblue" points="1148.14,-263.94 1138.53,-268.41 1148.82,-270.91 1148.14,-263.94"/>
</g>
<!-- Node21 -->
<g id="node21" class="node">
<title>Node21</title>
<g id="a_node21"><a xlink:href="symbolicEngine_8cpp.html" target="_top" xlink:title=" ">
<polygon fill="white" stroke="black" points="1734.93,-173 1734.93,-214 1940.93,-214 1940.93,-173 1734.93,-173"/>
<text text-anchor="start" x="1742.93" y="-202" font-family="Helvetica,sans-Serif" font-size="10.00">/home/jonathan/Works</text>
<text text-anchor="start" x="1742.93" y="-191" font-family="Helvetica,sans-Serif" font-size="10.00">/Tools/Triton/src/libtriton</text>
<text text-anchor="middle" x="1837.93" y="-180" font-family="Helvetica,sans-Serif" font-size="10.00">/engines/symbolic/symbolicEngine.cpp</text>
</a>
</g>
</g>
<!-- Node8&#45;&gt;Node21 -->
<g id="edge20" class="edge">
<title>Node8&#45;&gt;Node21</title>
<path fill="none" stroke="midnightblue" d="M1148.86,-272.33C1279.08,-266.3 1521.5,-251.64 1725.93,-220 1736.47,-218.37 1747.5,-216.3 1758.35,-214.06"/>
<polygon fill="midnightblue" stroke="midnightblue" points="1148.36,-268.85 1138.53,-272.8 1148.68,-275.84 1148.36,-268.85"/>
</g>
<!-- Node22 -->
<g id="node22" class="node">
<title>Node22</title>
<g id="a_node22"><a xlink:href="symbolicExpression_8cpp.html" target="_top" xlink:title=" ">
<polygon fill="white" stroke="black" points="208.93,-173 208.93,-214 434.93,-214 434.93,-173 208.93,-173"/>
<text text-anchor="start" x="216.93" y="-202" font-family="Helvetica,sans-Serif" font-size="10.00">/home/jonathan/Works</text>
<text text-anchor="start" x="216.93" y="-191" font-family="Helvetica,sans-Serif" font-size="10.00">/Tools/Triton/src/libtriton</text>
<text text-anchor="middle" x="321.93" y="-180" font-family="Helvetica,sans-Serif" font-size="10.00">/engines/symbolic/symbolicExpression.cpp</text>
</a>
</g>
</g>
<!-- Node8&#45;&gt;Node22 -->
<g id="edge21" class="edge">
<title>Node8&#45;&gt;Node22</title>
<path fill="none" stroke="midnightblue" d="M961.07,-270.42C841.66,-262.62 629.24,-246.36 448.93,-220 437.36,-218.31 425.24,-216.25 413.29,-214.05"/>
<polygon fill="midnightblue" stroke="midnightblue" points="961.07,-273.93 971.27,-271.08 961.52,-266.95 961.07,-273.93"/>
</g>
<!-- Node23 -->
<g id="node23" class="node">
<title>Node23</title>
<g id="a_node23"><a xlink:href="synthesizer_8hpp.html" target="_top" xlink:title=" ">
<polygon fill="white" stroke="black" points="1959.43,-173 1959.43,-214 2128.43,-214 2128.43,-173 1959.43,-173"/>
<text text-anchor="start" x="1967.43" y="-202" font-family="Helvetica,sans-Serif" font-size="10.00">/home/jonathan/Works</text>
<text text-anchor="start" x="1967.43" y="-191" font-family="Helvetica,sans-Serif" font-size="10.00">/Tools/Triton/src/libtriton</text>
<text text-anchor="middle" x="2043.93" y="-180" font-family="Helvetica,sans-Serif" font-size="10.00">/includes/triton/synthesizer.hpp</text>
</a>
</g>
</g>
<!-- Node8&#45;&gt;Node23 -->
<g id="edge23" class="edge">
<title>Node8&#45;&gt;Node23</title>
<path fill="none" stroke="midnightblue" d="M1148.58,-276.35C1312.25,-275.58 1660.49,-267.81 1949.93,-220 1959.27,-218.46 1969.02,-216.37 1978.56,-214.05"/>
<polygon fill="midnightblue" stroke="midnightblue" points="1148.53,-272.85 1138.54,-276.39 1148.55,-279.85 1148.53,-272.85"/>
</g>
<!-- Node23&#45;&gt;Node4 -->
<g id="edge25" class="edge">
<title>Node23&#45;&gt;Node4</title>
<path fill="none" stroke="midnightblue" d="M2119.18,-170.66C2125.49,-169.26 2131.8,-168.01 2137.93,-167 2295.59,-140.91 2779.21,-120.34 2957.24,-113.47"/>
<polygon fill="midnightblue" stroke="midnightblue" points="2118.24,-167.28 2109.29,-172.96 2119.83,-174.1 2118.24,-167.28"/>
</g>
<!-- Node24 -->
<g id="node24" class="node">
<title>Node24</title>
<g id="a_node24"><a xlink:href="synthesizer_8cpp.html" target="_top" xlink:title=" ">
<polygon fill="white" stroke="black" points="1950.93,-89.5 1950.93,-130.5 2136.93,-130.5 2136.93,-89.5 1950.93,-89.5"/>
<text text-anchor="start" x="1958.93" y="-118.5" font-family="Helvetica,sans-Serif" font-size="10.00">/home/jonathan/Works</text>
<text text-anchor="start" x="1958.93" y="-107.5" font-family="Helvetica,sans-Serif" font-size="10.00">/Tools/Triton/src/libtriton</text>
<text text-anchor="middle" x="2043.93" y="-96.5" font-family="Helvetica,sans-Serif" font-size="10.00">/engines/synthesis/synthesizer.cpp</text>
</a>
</g>
</g>
<!-- Node23&#45;&gt;Node24 -->
<g id="edge24" class="edge">
<title>Node23&#45;&gt;Node24</title>
<path fill="none" stroke="midnightblue" d="M2043.93,-162.56C2043.93,-151.88 2043.93,-140.13 2043.93,-130.55"/>
<polygon fill="midnightblue" stroke="midnightblue" points="2040.43,-162.77 2043.93,-172.77 2047.43,-162.77 2040.43,-162.77"/>
</g>
<!-- Node25&#45;&gt;Node4 -->
<g id="edge28" class="edge">
<title>Node25&#45;&gt;Node4</title>
<path fill="none" stroke="midnightblue" d="M3058.54,-164.22C3051.31,-153.11 3043.19,-140.63 3036.64,-130.55"/>
<polygon fill="midnightblue" stroke="midnightblue" points="3055.71,-166.3 3064.1,-172.77 3061.58,-162.48 3055.71,-166.3"/>
</g>
<!-- Node25&#45;&gt;Node11 -->
<g id="edge27" class="edge">
<title>Node25&#45;&gt;Node11</title>
<path fill="none" stroke="midnightblue" d="M2989.88,-173.55C2977.51,-171.16 2964.92,-168.89 2952.93,-167 2797.05,-142.37 2612.36,-124.77 2515.64,-116.44"/>
<polygon fill="midnightblue" stroke="midnightblue" points="2989.25,-176.99 2999.74,-175.48 2990.6,-170.12 2989.25,-176.99"/>
</g>
<!-- Node26&#45;&gt;Node20 -->
<g id="edge30" class="edge">
<title>Node26&#45;&gt;Node20</title>
<path fill="none" stroke="midnightblue" d="M2436.43,-411.83C2403.82,-388.1 2351.99,-353.63 2301.93,-334 2058.98,-238.71 1980.78,-276.14 1725.93,-220 1717.41,-218.12 1708.52,-216.09 1699.68,-214.01"/>
<polygon fill="midnightblue" stroke="midnightblue" points="2434.57,-414.81 2444.7,-417.92 2438.72,-409.17 2434.57,-414.81"/>
</g>
<!-- Node26&#45;&gt;Node27 -->
<g id="edge31" class="edge">
<title>Node26&#45;&gt;Node27</title>
<path fill="none" stroke="midnightblue" d="M2487.97,-409.22C2495.06,-398.11 2503.02,-385.63 2509.45,-375.55"/>
<polygon fill="midnightblue" stroke="midnightblue" points="2484.94,-407.46 2482.51,-417.77 2490.84,-411.22 2484.94,-407.46"/>
</g>
<!-- Node27&#45;&gt;Node4 -->
<g id="edge36" class="edge">
<title>Node27&#45;&gt;Node4</title>
<path fill="none" stroke="midnightblue" d="M2627.8,-347.83C2792.48,-335.76 3097.89,-302.55 3162.93,-220 3177.5,-201.5 3176.11,-186.52 3162.93,-167 3146.55,-142.74 3117.72,-128.99 3090.55,-121.2"/>
<polygon fill="midnightblue" stroke="midnightblue" points="2627.37,-344.36 2617.64,-348.57 2627.87,-351.34 2627.37,-344.36"/>
</g>
<!-- Node27&#45;&gt;Node21 -->
<g id="edge32" class="edge">
<title>Node27&#45;&gt;Node21</title>
<path fill="none" stroke="midnightblue" d="M2467.37,-329.79C2450.13,-320.96 2431.53,-310.12 2415.93,-298 2396.05,-282.55 2400.49,-267.17 2377.93,-256 2292.39,-213.66 2044.25,-234.63 1949.93,-220 1939.38,-218.36 1928.36,-216.3 1917.51,-214.05"/>
<polygon fill="midnightblue" stroke="midnightblue" points="2466.26,-333.15 2476.77,-334.48 2469.39,-326.89 2466.26,-333.15"/>
</g>
<!-- Node27&#45;&gt;Node23 -->
<g id="edge41" class="edge">
<title>Node27&#45;&gt;Node23</title>
<path fill="none" stroke="midnightblue" d="M2488.36,-327.98C2477.11,-318.84 2464.7,-308.28 2453.93,-298 2435.72,-280.62 2438.23,-267.67 2415.93,-256 2305.54,-198.24 2260.11,-244.37 2137.93,-220 2129.39,-218.3 2120.48,-216.25 2111.7,-214.06"/>
<polygon fill="midnightblue" stroke="midnightblue" points="2486.32,-330.83 2496.31,-334.37 2490.7,-325.37 2486.32,-330.83"/>
</g>
<!-- Node27&#45;&gt;Node25 -->
<g id="edge40" class="edge">
<title>Node27&#45;&gt;Node25</title>
<path fill="none" stroke="midnightblue" d="M2622.88,-332.23C2665.4,-322.55 2715.28,-310.52 2759.93,-298 2852.74,-271.98 2958.92,-236.02 3021.81,-214.06"/>
<polygon fill="midnightblue" stroke="midnightblue" points="2622.06,-328.83 2613.08,-334.45 2623.61,-335.65 2622.06,-328.83"/>
</g>
<!-- Node28 -->
<g id="node28" class="node">
<title>Node28</title>
<g id="a_node28"><a xlink:href="aarch64Semantics_8hpp.html" target="_top" xlink:title=" ">
<polygon fill="white" stroke="black" points="2347.43,-173 2347.43,-214 2550.43,-214 2550.43,-173 2347.43,-173"/>
<text text-anchor="start" x="2355.43" y="-202" font-family="Helvetica,sans-Serif" font-size="10.00">/home/jonathan/Works</text>
<text text-anchor="start" x="2355.43" y="-191" font-family="Helvetica,sans-Serif" font-size="10.00">/Tools/Triton/src/libtriton</text>
<text text-anchor="middle" x="2448.93" y="-180" font-family="Helvetica,sans-Serif" font-size="10.00">/includes/triton/aarch64Semantics.hpp</text>
</a>
</g>
</g>
<!-- Node27&#45;&gt;Node28 -->
<g id="edge33" class="edge">
<title>Node27&#45;&gt;Node28</title>
<path fill="none" stroke="midnightblue" d="M2515.44,-324.41C2510.46,-304.48 2502.62,-277.93 2491.93,-256 2484.62,-241.01 2473.87,-225.64 2464.95,-214.01"/>
<polygon fill="midnightblue" stroke="midnightblue" points="2512.05,-325.26 2517.79,-334.17 2518.85,-323.63 2512.05,-325.26"/>
</g>
<!-- Node29 -->
<g id="node29" class="node">
<title>Node29</title>
<g id="a_node29"><a xlink:href="arm32Semantics_8hpp.html" target="_top" xlink:title=" ">
<polygon fill="white" stroke="black" points="2567.93,-173 2567.93,-214 2763.93,-214 2763.93,-173 2567.93,-173"/>
<text text-anchor="start" x="2575.93" y="-202" font-family="Helvetica,sans-Serif" font-size="10.00">/home/jonathan/Works</text>
<text text-anchor="start" x="2575.93" y="-191" font-family="Helvetica,sans-Serif" font-size="10.00">/Tools/Triton/src/libtriton</text>
<text text-anchor="middle" x="2665.93" y="-180" font-family="Helvetica,sans-Serif" font-size="10.00">/includes/triton/arm32Semantics.hpp</text>
</a>
</g>
</g>
<!-- Node27&#45;&gt;Node29 -->
<g id="edge37" class="edge">
<title>Node27&#45;&gt;Node29</title>
<path fill="none" stroke="midnightblue" d="M2532.49,-324.86C2541.08,-304.01 2554.75,-276.18 2572.93,-256 2588.21,-239.03 2609.17,-224.64 2627.31,-214.05"/>
<polygon fill="midnightblue" stroke="midnightblue" points="2529.23,-323.6 2528.8,-334.18 2535.74,-326.18 2529.23,-323.6"/>
</g>
<!-- Node27&#45;&gt;Node30 -->
<g id="edge42" class="edge">
<title>Node27&#45;&gt;Node30</title>
<path fill="none" stroke="midnightblue" d="M2568.11,-329.63C2587.78,-319.24 2610.43,-307.29 2628.97,-297.51"/>
<polygon fill="midnightblue" stroke="midnightblue" points="2566.22,-326.67 2559.01,-334.43 2569.49,-332.86 2566.22,-326.67"/>
</g>
<!-- Node27&#45;&gt;Node32 -->
<g id="edge51" class="edge">
<title>Node27&#45;&gt;Node32</title>
<path fill="none" stroke="midnightblue" d="M2505.14,-325.49C2489.66,-300.06 2467.13,-265.44 2453.93,-256 2447.83,-251.64 2371.15,-230.33 2310.86,-214.01"/>
<polygon fill="midnightblue" stroke="midnightblue" points="2502.34,-327.62 2510.5,-334.38 2508.33,-324 2502.34,-327.62"/>
</g>
<!-- Node28&#45;&gt;Node9 -->
<g id="edge34" class="edge">
<title>Node28&#45;&gt;Node9</title>
<path fill="none" stroke="midnightblue" d="M2363.43,-171.03C2354.86,-169.43 2346.25,-168.03 2337.93,-167 1970.01,-121.26 1040.21,-149.73 669.93,-131 623.43,-128.65 572.18,-124.79 528.18,-121.09"/>
<polygon fill="midnightblue" stroke="midnightblue" points="2362.98,-174.51 2373.46,-173 2364.32,-167.64 2362.98,-174.51"/>
</g>
<!-- Node28&#45;&gt;Node11 -->
<g id="edge35" class="edge">
<title>Node28&#45;&gt;Node11</title>
<path fill="none" stroke="midnightblue" d="M2448.93,-162.56C2448.93,-151.88 2448.93,-140.13 2448.93,-130.55"/>
<polygon fill="midnightblue" stroke="midnightblue" points="2445.43,-162.77 2448.93,-172.77 2452.43,-162.77 2445.43,-162.77"/>
</g>
<!-- Node29&#45;&gt;Node10 -->
<g id="edge38" class="edge">
<title>Node29&#45;&gt;Node10</title>
<path fill="none" stroke="midnightblue" d="M2582.15,-170.93C2574.34,-169.4 2566.51,-168.06 2558.93,-167 2440.46,-150.51 1635.16,-123.46 1347.66,-114.22"/>
<polygon fill="midnightblue" stroke="midnightblue" points="2581.52,-174.37 2592.02,-172.95 2582.93,-167.52 2581.52,-174.37"/>
</g>
<!-- Node29&#45;&gt;Node11 -->
<g id="edge39" class="edge">
<title>Node29&#45;&gt;Node11</title>
<path fill="none" stroke="midnightblue" d="M2604.49,-169.42C2571.78,-157.14 2532,-142.2 2500.85,-130.5"/>
<polygon fill="midnightblue" stroke="midnightblue" points="2603.36,-172.74 2613.95,-172.98 2605.82,-166.19 2603.36,-172.74"/>
</g>
<!-- Node30&#45;&gt;Node4 -->
<g id="edge45" class="edge">
<title>Node30&#45;&gt;Node4</title>
<path fill="none" stroke="midnightblue" d="M2760.85,-265.53C2831.92,-256.23 2921.98,-240.86 2952.93,-220 2961.54,-214.19 2994.45,-160.42 3012.28,-130.64"/>
<polygon fill="midnightblue" stroke="midnightblue" points="2759.99,-262.12 2750.52,-266.86 2760.88,-269.06 2759.99,-262.12"/>
</g>
<!-- Node30&#45;&gt;Node25 -->
<g id="edge47" class="edge">
<title>Node30&#45;&gt;Node25</title>
<path fill="none" stroke="midnightblue" d="M2760.67,-261.97C2824.62,-251.87 2910.75,-237.07 2985.93,-220 2993.77,-218.22 3001.94,-216.19 3010.03,-214.06"/>
<polygon fill="midnightblue" stroke="midnightblue" points="2759.94,-258.54 2750.6,-263.55 2761.03,-265.45 2759.94,-258.54"/>
</g>
<!-- Node30&#45;&gt;Node28 -->
<g id="edge44" class="edge">
<title>Node30&#45;&gt;Node28</title>
<path fill="none" stroke="midnightblue" d="M2604.49,-252.92C2571.78,-240.64 2532,-225.7 2500.85,-214"/>
<polygon fill="midnightblue" stroke="midnightblue" points="2603.36,-256.24 2613.95,-256.48 2605.82,-249.69 2603.36,-256.24"/>
</g>
<!-- Node30&#45;&gt;Node29 -->
<g id="edge46" class="edge">
<title>Node30&#45;&gt;Node29</title>
<path fill="none" stroke="midnightblue" d="M2665.93,-246.06C2665.93,-235.38 2665.93,-223.63 2665.93,-214.05"/>
<polygon fill="midnightblue" stroke="midnightblue" points="2662.43,-246.27 2665.93,-256.27 2669.43,-246.27 2662.43,-246.27"/>
</g>
<!-- Node31 -->
<g id="node31" class="node">
<title>Node31</title>
<g id="a_node31"><a xlink:href="taintEngine_8cpp.html" target="_top" xlink:title=" ">
<polygon fill="white" stroke="black" points="2781.93,-173 2781.93,-214 2943.93,-214 2943.93,-173 2781.93,-173"/>
<text text-anchor="start" x="2789.93" y="-202" font-family="Helvetica,sans-Serif" font-size="10.00">/home/jonathan/Works</text>
<text text-anchor="start" x="2789.93" y="-191" font-family="Helvetica,sans-Serif" font-size="10.00">/Tools/Triton/src/libtriton</text>
<text text-anchor="middle" x="2862.93" y="-180" font-family="Helvetica,sans-Serif" font-size="10.00">/engines/taint/taintEngine.cpp</text>
</a>
</g>
</g>
<!-- Node30&#45;&gt;Node31 -->
<g id="edge43" class="edge">
<title>Node30&#45;&gt;Node31</title>
<path fill="none" stroke="midnightblue" d="M2722.47,-252.61C2752.01,-240.39 2787.75,-225.6 2815.78,-214"/>
<polygon fill="midnightblue" stroke="midnightblue" points="2721.02,-249.42 2713.11,-256.48 2723.69,-255.89 2721.02,-249.42"/>
</g>
<!-- Node30&#45;&gt;Node32 -->
<g id="edge48" class="edge">
<title>Node30&#45;&gt;Node32</title>
<path fill="none" stroke="midnightblue" d="M2571.34,-261.79C2505.84,-251.47 2416.78,-236.47 2338.93,-220 2330.35,-218.18 2321.39,-216.14 2312.51,-214.02"/>
<polygon fill="midnightblue" stroke="midnightblue" points="2570.81,-265.25 2581.23,-263.35 2571.9,-258.34 2570.81,-265.25"/>
</g>
<!-- Node32&#45;&gt;Node11 -->
<g id="edge49" class="edge">
<title>Node32&#45;&gt;Node11</title>
<path fill="none" stroke="midnightblue" d="M2298.08,-169.27C2329.8,-157.01 2368.28,-142.15 2398.43,-130.5"/>
<polygon fill="midnightblue" stroke="midnightblue" points="2296.53,-166.11 2288.47,-172.98 2299.06,-172.64 2296.53,-166.11"/>
</g>
<!-- Node32&#45;&gt;Node12 -->
<g id="edge50" class="edge">
<title>Node32&#45;&gt;Node12</title>
<path fill="none" stroke="midnightblue" d="M2158.78,-170.84C2151.43,-169.34 2144.07,-168.02 2136.93,-167 1695.77,-104.11 1580.11,-150.74 1134.93,-131 1030.43,-126.37 909.79,-119.79 833.21,-115.46"/>
<polygon fill="midnightblue" stroke="midnightblue" points="2158.25,-174.31 2168.77,-172.99 2159.73,-167.46 2158.25,-174.31"/>
</g>
</g>
</svg>
