<?xml version="1.0" encoding="UTF-8" standalone="no"?>
<!DOCTYPE svg PUBLIC "-//W3C//DTD SVG 1.1//EN"
 "http://www.w3.org/Graphics/SVG/1.1/DTD/svg11.dtd">
<!-- Generated by graphviz version 7.0.0 (20221023.0053)
 -->
<!-- Title: /Users/jonathan/Works/Tools/Triton/src/libtriton/includes/triton/oracleEntry.hpp Pages: 1 -->
<svg width="928pt" height="368pt"
 viewBox="0.00 0.00 927.50 368.00" xmlns="http://www.w3.org/2000/svg" xmlns:xlink="http://www.w3.org/1999/xlink">
<g id="graph0" class="graph" transform="scale(1 1) rotate(0) translate(4 364)">
<title>/Users/jonathan/Works/Tools/Triton/src/libtriton/includes/triton/oracleEntry.hpp</title>
<!-- Node1 -->
<g id="node1" class="node">
<title>Node1</title>
<g id="a_node1"><a xlink:title=" ">
<polygon fill="#999999" stroke="#666666" points="273,-360 123,-360 123,-319 273,-319 273,-360"/>
<text text-anchor="start" x="131" y="-348" font-family="Helvetica,sans-Serif" font-size="10.00">/Users/jonathan/Works</text>
<text text-anchor="start" x="131" y="-337" font-family="Helvetica,sans-Serif" font-size="10.00">/Tools/Triton/src/libtriton</text>
<text text-anchor="middle" x="198" y="-326" font-family="Helvetica,sans-Serif" font-size="10.00">/includes/triton/oracleEntry.hpp</text>
</a>
</g>
</g>
<!-- Node2 -->
<g id="node2" class="node">
<title>Node2</title>
<g id="a_node2"><a xlink:href="oracleTable_8cpp.html" target="_top" xlink:title=" ">
<polygon fill="white" stroke="#666666" points="170,-283 0,-283 0,-242 170,-242 170,-283"/>
<text text-anchor="start" x="8" y="-271" font-family="Helvetica,sans-Serif" font-size="10.00">/Users/jonathan/Works</text>
<text text-anchor="start" x="8" y="-260" font-family="Helvetica,sans-Serif" font-size="10.00">/Tools/Triton/src/libtriton</text>
<text text-anchor="middle" x="85" y="-249" font-family="Helvetica,sans-Serif" font-size="10.00">/engines/synthesis/oracleTable.cpp</text>
</a>
</g>
</g>
<!-- Node1&#45;&gt;Node2 -->
<g id="edge1" class="edge">
<title>Node1&#45;&gt;Node2</title>
<path fill="none" stroke="#63b8ff" d="M158.47,-312.26C144.24,-302.82 128.42,-292.32 115.13,-283.49"/>
<polygon fill="#63b8ff" stroke="#63b8ff" points="156.49,-315.15 166.75,-317.76 160.36,-309.32 156.49,-315.15"/>
</g>
<!-- Node3 -->
<g id="node3" class="node">
<title>Node3</title>
<g id="a_node3"><a xlink:href="synthesizer_8cpp.html" target="_top" xlink:title=" ">
<polygon fill="white" stroke="#666666" points="283,-206 113,-206 113,-165 283,-165 283,-206"/>
<text text-anchor="start" x="121" y="-194" font-family="Helvetica,sans-Serif" font-size="10.00">/Users/jonathan/Works</text>
<text text-anchor="start" x="121" y="-183" font-family="Helvetica,sans-Serif" font-size="10.00">/Tools/Triton/src/libtriton</text>
<text text-anchor="middle" x="198" y="-172" font-family="Helvetica,sans-Serif" font-size="10.00">/engines/synthesis/synthesizer.cpp</text>
</a>
</g>
</g>
<!-- Node1&#45;&gt;Node3 -->
<g id="edge2" class="edge">
<title>Node1&#45;&gt;Node3</title>
<path fill="none" stroke="#63b8ff" d="M198,-307.44C198,-277.19 198,-232.1 198,-206.38"/>
<polygon fill="#63b8ff" stroke="#63b8ff" points="194.5,-307.12 198,-317.12 201.5,-307.12 194.5,-307.12"/>
</g>
<!-- Node4 -->
<g id="node4" class="node">
<title>Node4</title>
<g id="a_node4"><a xlink:href="synthesizer_8hpp.html" target="_top" xlink:title=" ">
<polygon fill="white" stroke="#666666" points="378,-283 226,-283 226,-242 378,-242 378,-283"/>
<text text-anchor="start" x="234" y="-271" font-family="Helvetica,sans-Serif" font-size="10.00">/Users/jonathan/Works</text>
<text text-anchor="start" x="234" y="-260" font-family="Helvetica,sans-Serif" font-size="10.00">/Tools/Triton/src/libtriton</text>
<text text-anchor="middle" x="302" y="-249" font-family="Helvetica,sans-Serif" font-size="10.00">/includes/triton/synthesizer.hpp</text>
</a>
</g>
</g>
<!-- Node1&#45;&gt;Node4 -->
<g id="edge3" class="edge">
<title>Node1&#45;&gt;Node4</title>
<path fill="none" stroke="#63b8ff" d="M234.76,-311.99C247.76,-302.61 262.15,-292.24 274.27,-283.49"/>
<polygon fill="#63b8ff" stroke="#63b8ff" points="232.89,-309.02 226.82,-317.71 236.98,-314.7 232.89,-309.02"/>
</g>
<!-- Node4&#45;&gt;Node3 -->
<g id="edge4" class="edge">
<title>Node4&#45;&gt;Node3</title>
<path fill="none" stroke="#63b8ff" d="M265.24,-234.99C252.24,-225.61 237.85,-215.24 225.73,-206.49"/>
<polygon fill="#63b8ff" stroke="#63b8ff" points="263.02,-237.7 273.18,-240.71 267.11,-232.02 263.02,-237.7"/>
</g>
<!-- Node5 -->
<g id="node5" class="node">
<title>Node5</title>
<g id="a_node5"><a xlink:href="context_8hpp.html" target="_top" xlink:title=" ">
<polygon fill="white" stroke="#666666" points="435,-206 301,-206 301,-165 435,-165 435,-206"/>
<text text-anchor="start" x="309" y="-194" font-family="Helvetica,sans-Serif" font-size="10.00">/Users/jonathan/Works</text>
<text text-anchor="start" x="309" y="-183" font-family="Helvetica,sans-Serif" font-size="10.00">/Tools/Triton/src/libtriton</text>
<text text-anchor="middle" x="368" y="-172" font-family="Helvetica,sans-Serif" font-size="10.00">/includes/triton/context.hpp</text>
</a>
</g>
</g>
<!-- Node4&#45;&gt;Node5 -->
<g id="edge5" class="edge">
<title>Node4&#45;&gt;Node5</title>
<path fill="none" stroke="#63b8ff" d="M326.92,-233.18C334.79,-224.24 343.31,-214.55 350.55,-206.33"/>
<polygon fill="#63b8ff" stroke="#63b8ff" points="324.32,-230.84 320.34,-240.66 329.57,-235.46 324.32,-230.84"/>
</g>
<!-- Node6 -->
<g id="node6" class="node">
<title>Node6</title>
<g id="a_node6"><a xlink:href="pyTritonContext_8cpp.html" target="_top" xlink:title=" ">
<polygon fill="white" stroke="#666666" points="147,-129 25,-129 25,-77 147,-77 147,-129"/>
<text text-anchor="start" x="33" y="-117" font-family="Helvetica,sans-Serif" font-size="10.00">/Users/jonathan/Works</text>
<text text-anchor="start" x="33" y="-106" font-family="Helvetica,sans-Serif" font-size="10.00">/Tools/Triton/src/libtriton</text>
<text text-anchor="start" x="33" y="-95" font-family="Helvetica,sans-Serif" font-size="10.00">/bindings/python/objects</text>
<text text-anchor="middle" x="86" y="-84" font-family="Helvetica,sans-Serif" font-size="10.00">/pyTritonContext.cpp</text>
</a>
</g>
</g>
<!-- Node5&#45;&gt;Node6 -->
<g id="edge6" class="edge">
<title>Node5&#45;&gt;Node6</title>
<path fill="none" stroke="#63b8ff" d="M289.37,-164.27C234.6,-150.11 169.09,-133.04 156,-129 153.16,-128.12 150.27,-127.2 147.36,-126.25"/>
<polygon fill="#63b8ff" stroke="#63b8ff" points="288.5,-167.66 299.05,-166.77 290.25,-160.88 288.5,-167.66"/>
</g>
<!-- Node7 -->
<g id="node7" class="node">
<title>Node7</title>
<g id="a_node7"><a xlink:href="callbacks_8cpp.html" target="_top" xlink:title=" ">
<polygon fill="white" stroke="#666666" points="289,-123.5 165,-123.5 165,-82.5 289,-82.5 289,-123.5"/>
<text text-anchor="start" x="173" y="-111.5" font-family="Helvetica,sans-Serif" font-size="10.00">/Users/jonathan/Works</text>
<text text-anchor="start" x="173" y="-100.5" font-family="Helvetica,sans-Serif" font-size="10.00">/Tools/Triton/src/libtriton</text>
<text text-anchor="middle" x="227" y="-89.5" font-family="Helvetica,sans-Serif" font-size="10.00">/callbacks/callbacks.cpp</text>
</a>
</g>
</g>
<!-- Node5&#45;&gt;Node7 -->
<g id="edge7" class="edge">
<title>Node5&#45;&gt;Node7</title>
<path fill="none" stroke="#63b8ff" d="M323.39,-159.03C303.54,-147.7 280.51,-134.55 261.94,-123.95"/>
<polygon fill="#63b8ff" stroke="#63b8ff" points="321.41,-161.93 331.83,-163.85 324.88,-155.85 321.41,-161.93"/>
</g>
<!-- Node8 -->
<g id="node8" class="node">
<title>Node8</title>
<g id="a_node8"><a xlink:href="context_8cpp.html" target="_top" xlink:title=" ">
<polygon fill="white" stroke="#666666" points="429,-123.5 307,-123.5 307,-82.5 429,-82.5 429,-123.5"/>
<text text-anchor="start" x="315" y="-111.5" font-family="Helvetica,sans-Serif" font-size="10.00">/Users/jonathan/Works</text>
<text text-anchor="start" x="315" y="-100.5" font-family="Helvetica,sans-Serif" font-size="10.00">/Tools/Triton/src/libtriton</text>
<text text-anchor="middle" x="368" y="-89.5" font-family="Helvetica,sans-Serif" font-size="10.00">/context/context.cpp</text>
</a>
</g>
</g>
<!-- Node5&#45;&gt;Node8 -->
<g id="edge8" class="edge">
<title>Node5&#45;&gt;Node8</title>
<path fill="none" stroke="#63b8ff" d="M368,-153.16C368,-143.33 368,-132.76 368,-123.95"/>
<polygon fill="#63b8ff" stroke="#63b8ff" points="364.5,-153.09 368,-163.09 371.5,-153.09 364.5,-153.09"/>
</g>
<!-- Node9 -->
<g id="node9" class="node">
<title>Node9</title>
<g id="a_node9"><a xlink:href="symbolicSimplification_8cpp.html" target="_top" xlink:title=" ">
<polygon fill="white" stroke="#666666" points="662.5,-123.5 447.5,-123.5 447.5,-82.5 662.5,-82.5 662.5,-123.5"/>
<text text-anchor="start" x="455.5" y="-111.5" font-family="Helvetica,sans-Serif" font-size="10.00">/Users/jonathan/Works</text>
<text text-anchor="start" x="455.5" y="-100.5" font-family="Helvetica,sans-Serif" font-size="10.00">/Tools/Triton/src/libtriton</text>
<text text-anchor="middle" x="555" y="-89.5" font-family="Helvetica,sans-Serif" font-size="10.00">/engines/symbolic/symbolicSimplification.cpp</text>
</a>
</g>
</g>
<!-- Node5&#45;&gt;Node9 -->
<g id="edge9" class="edge">
<title>Node5&#45;&gt;Node9</title>
<path fill="none" stroke="#63b8ff" d="M424.65,-160.11C451.53,-148.54 483.24,-134.89 508.66,-123.95"/>
<polygon fill="#63b8ff" stroke="#63b8ff" points="423.42,-156.83 415.61,-164 426.18,-163.26 423.42,-156.83"/>
</g>
<!-- Node10 -->
<g id="node10" class="node">
<title>Node10</title>
<g id="a_node10"><a xlink:href="llvmToTriton_8hpp.html" target="_top" xlink:title=" ">
<polygon fill="white" stroke="#666666" points="835.5,-123.5 680.5,-123.5 680.5,-82.5 835.5,-82.5 835.5,-123.5"/>
<text text-anchor="start" x="688.5" y="-111.5" font-family="Helvetica,sans-Serif" font-size="10.00">/Users/jonathan/Works</text>
<text text-anchor="start" x="688.5" y="-100.5" font-family="Helvetica,sans-Serif" font-size="10.00">/Tools/Triton/src/libtriton</text>
<text text-anchor="middle" x="758" y="-89.5" font-family="Helvetica,sans-Serif" font-size="10.00">/includes/triton/llvmToTriton.hpp</text>
</a>
</g>
</g>
<!-- Node5&#45;&gt;Node10 -->
<g id="edge10" class="edge">
<title>Node5&#45;&gt;Node10</title>
<path fill="none" stroke="#63b8ff" d="M446.62,-172.42C508.27,-162.39 596.05,-146.92 672,-129 678.51,-127.46 685.25,-125.74 691.98,-123.93"/>
<polygon fill="#63b8ff" stroke="#63b8ff" points="446.23,-168.93 436.92,-173.98 447.35,-175.84 446.23,-168.93"/>
</g>
<!-- Node11 -->
<g id="node11" class="node">
<title>Node11</title>
<g id="a_node11"><a xlink:href="llvmToTriton_8cpp.html" target="_top" xlink:title=" ">
<polygon fill="white" stroke="#666666" points="740.5,-41 611.5,-41 611.5,0 740.5,0 740.5,-41"/>
<text text-anchor="start" x="619.5" y="-29" font-family="Helvetica,sans-Serif" font-size="10.00">/Users/jonathan/Works</text>
<text text-anchor="start" x="619.5" y="-18" font-family="Helvetica,sans-Serif" font-size="10.00">/Tools/Triton/src/libtriton</text>
<text text-anchor="middle" x="676" y="-7" font-family="Helvetica,sans-Serif" font-size="10.00">/ast/llvm/llvmToTriton.cpp</text>
</a>
</g>
</g>
<!-- Node10&#45;&gt;Node11 -->
<g id="edge11" class="edge">
<title>Node10&#45;&gt;Node11</title>
<path fill="none" stroke="#63b8ff" d="M729.66,-74.18C718.69,-63.41 706.38,-51.33 696.32,-41.45"/>
<polygon fill="#63b8ff" stroke="#63b8ff" points="727.06,-76.53 736.65,-81.04 731.97,-71.54 727.06,-76.53"/>
</g>
<!-- Node12 -->
<g id="node12" class="node">
<title>Node12</title>
<g id="a_node12"><a xlink:href="liftingToLLVM_8cpp.html" target="_top" xlink:title=" ">
<polygon fill="white" stroke="#666666" points="919.5,-41 758.5,-41 758.5,0 919.5,0 919.5,-41"/>
<text text-anchor="start" x="766.5" y="-29" font-family="Helvetica,sans-Serif" font-size="10.00">/Users/jonathan/Works</text>
<text text-anchor="start" x="766.5" y="-18" font-family="Helvetica,sans-Serif" font-size="10.00">/Tools/Triton/src/libtriton</text>
<text text-anchor="middle" x="839" y="-7" font-family="Helvetica,sans-Serif" font-size="10.00">/engines/lifters/liftingToLLVM.cpp</text>
</a>
</g>
</g>
<!-- Node10&#45;&gt;Node12 -->
<g id="edge12" class="edge">
<title>Node10&#45;&gt;Node12</title>
<path fill="none" stroke="#63b8ff" d="M785.99,-74.18C796.83,-63.41 808.99,-51.33 818.93,-41.45"/>
<polygon fill="#63b8ff" stroke="#63b8ff" points="783.72,-71.5 779.1,-81.03 788.66,-76.47 783.72,-71.5"/>
</g>
</g>
</svg>
