<?xml version="1.0" encoding="UTF-8" standalone="no"?>
<!DOCTYPE svg PUBLIC "-//W3C//DTD SVG 1.1//EN"
 "http://www.w3.org/Graphics/SVG/1.1/DTD/svg11.dtd">
<!-- Generated by graphviz version 2.49.0 (20210828.1703)
 -->
<!-- Title: /home/jonathan/Works/Tools/Triton/src/libtriton/includes/triton/pathConstraint.hpp Pages: 1 -->
<svg width="3011pt" height="540pt"
 viewBox="0.00 0.00 3011.00 540.00" xmlns="http://www.w3.org/2000/svg" xmlns:xlink="http://www.w3.org/1999/xlink">
<g id="graph0" class="graph" transform="scale(1 1) rotate(0) translate(4 536)">
<title>/home/jonathan/Works/Tools/Triton/src/libtriton/includes/triton/pathConstraint.hpp</title>
<polygon fill="white" stroke="transparent" points="-4,4 -4,-536 3007,-536 3007,4 -4,4"/>
<!-- Node1 -->
<g id="node1" class="node">
<title>Node1</title>
<g id="a_node1"><a xlink:title=" ">
<polygon fill="#bfbfbf" stroke="black" points="1452.5,-490.5 1452.5,-531.5 1637.5,-531.5 1637.5,-490.5 1452.5,-490.5"/>
<text text-anchor="start" x="1460.5" y="-519.5" font-family="Helvetica,sans-Serif" font-size="10.00">/home/jonathan/Works</text>
<text text-anchor="start" x="1460.5" y="-508.5" font-family="Helvetica,sans-Serif" font-size="10.00">/Tools/Triton/src/libtriton</text>
<text text-anchor="middle" x="1545" y="-497.5" font-family="Helvetica,sans-Serif" font-size="10.00">/includes/triton/pathConstraint.hpp</text>
</a>
</g>
</g>
<!-- Node2 -->
<g id="node2" class="node">
<title>Node2</title>
<g id="a_node2"><a xlink:href="pyPathConstraint_8cpp.html" target="_top" xlink:title=" ">
<polygon fill="white" stroke="black" points="931,-323.5 931,-375.5 1067,-375.5 1067,-323.5 931,-323.5"/>
<text text-anchor="start" x="939" y="-363.5" font-family="Helvetica,sans-Serif" font-size="10.00">/home/jonathan/Works</text>
<text text-anchor="start" x="939" y="-352.5" font-family="Helvetica,sans-Serif" font-size="10.00">/Tools/Triton/src/libtriton</text>
<text text-anchor="start" x="939" y="-341.5" font-family="Helvetica,sans-Serif" font-size="10.00">/bindings/python/objects</text>
<text text-anchor="middle" x="999" y="-330.5" font-family="Helvetica,sans-Serif" font-size="10.00">/pyPathConstraint.cpp</text>
</a>
</g>
</g>
<!-- Node1&#45;&gt;Node2 -->
<g id="edge1" class="edge">
<title>Node1&#45;&gt;Node2</title>
<path fill="none" stroke="midnightblue" d="M1463.51,-487.82C1369.71,-462.04 1211.21,-417.69 1076,-376 1073.17,-375.13 1070.29,-374.23 1067.39,-373.31"/>
<polygon fill="midnightblue" stroke="midnightblue" points="1462.65,-491.21 1473.22,-490.49 1464.5,-484.46 1462.65,-491.21"/>
</g>
<!-- Node3 -->
<g id="node3" class="node">
<title>Node3</title>
<g id="a_node3"><a xlink:href="pathConstraint_8cpp.html" target="_top" xlink:title=" ">
<polygon fill="white" stroke="black" points="1887,-412.5 1887,-453.5 2087,-453.5 2087,-412.5 1887,-412.5"/>
<text text-anchor="start" x="1895" y="-441.5" font-family="Helvetica,sans-Serif" font-size="10.00">/home/jonathan/Works</text>
<text text-anchor="start" x="1895" y="-430.5" font-family="Helvetica,sans-Serif" font-size="10.00">/Tools/Triton/src/libtriton</text>
<text text-anchor="middle" x="1987" y="-419.5" font-family="Helvetica,sans-Serif" font-size="10.00">/engines/symbolic/pathConstraint.cpp</text>
</a>
</g>
</g>
<!-- Node1&#45;&gt;Node3 -->
<g id="edge2" class="edge">
<title>Node1&#45;&gt;Node3</title>
<path fill="none" stroke="midnightblue" d="M1647.62,-493.15C1713.49,-482.23 1800.84,-467.57 1878,-454 1880.94,-453.48 1883.92,-452.96 1886.93,-452.42"/>
<polygon fill="midnightblue" stroke="midnightblue" points="1646.94,-489.71 1637.65,-494.8 1648.09,-496.62 1646.94,-489.71"/>
</g>
<!-- Node4 -->
<g id="node4" class="node">
<title>Node4</title>
<g id="a_node4"><a xlink:href="pathManager_8hpp.html" target="_top" xlink:title=" ">
<polygon fill="white" stroke="black" points="728.5,-412.5 728.5,-453.5 905.5,-453.5 905.5,-412.5 728.5,-412.5"/>
<text text-anchor="start" x="736.5" y="-441.5" font-family="Helvetica,sans-Serif" font-size="10.00">/home/jonathan/Works</text>
<text text-anchor="start" x="736.5" y="-430.5" font-family="Helvetica,sans-Serif" font-size="10.00">/Tools/Triton/src/libtriton</text>
<text text-anchor="middle" x="817" y="-419.5" font-family="Helvetica,sans-Serif" font-size="10.00">/includes/triton/pathManager.hpp</text>
</a>
</g>
</g>
<!-- Node1&#45;&gt;Node4 -->
<g id="edge3" class="edge">
<title>Node1&#45;&gt;Node4</title>
<path fill="none" stroke="midnightblue" d="M1442.3,-499.28C1298.85,-484.3 1040.92,-457.38 905.51,-443.24"/>
<polygon fill="midnightblue" stroke="midnightblue" points="1442.12,-502.78 1452.43,-500.34 1442.85,-495.82 1442.12,-502.78"/>
</g>
<!-- Node24 -->
<g id="node24" class="node">
<title>Node24</title>
<g id="a_node24"><a xlink:href="pythonObjects_8hpp.html" target="_top" xlink:title=" ">
<polygon fill="white" stroke="black" points="1685,-412.5 1685,-453.5 1869,-453.5 1869,-412.5 1685,-412.5"/>
<text text-anchor="start" x="1693" y="-441.5" font-family="Helvetica,sans-Serif" font-size="10.00">/home/jonathan/Works</text>
<text text-anchor="start" x="1693" y="-430.5" font-family="Helvetica,sans-Serif" font-size="10.00">/Tools/Triton/src/libtriton</text>
<text text-anchor="middle" x="1777" y="-419.5" font-family="Helvetica,sans-Serif" font-size="10.00">/includes/triton/pythonObjects.hpp</text>
</a>
</g>
</g>
<!-- Node1&#45;&gt;Node24 -->
<g id="edge33" class="edge">
<title>Node1&#45;&gt;Node24</title>
<path fill="none" stroke="midnightblue" d="M1614.28,-487.3C1647.12,-476.55 1685.96,-463.82 1717.46,-453.51"/>
<polygon fill="midnightblue" stroke="midnightblue" points="1613.16,-483.99 1604.75,-490.43 1615.34,-490.64 1613.16,-483.99"/>
</g>
<!-- Node5 -->
<g id="node5" class="node">
<title>Node5</title>
<g id="a_node5"><a xlink:href="pathManager_8cpp.html" target="_top" xlink:title=" ">
<polygon fill="white" stroke="black" points="721,-329 721,-370 913,-370 913,-329 721,-329"/>
<text text-anchor="start" x="729" y="-358" font-family="Helvetica,sans-Serif" font-size="10.00">/home/jonathan/Works</text>
<text text-anchor="start" x="729" y="-347" font-family="Helvetica,sans-Serif" font-size="10.00">/Tools/Triton/src/libtriton</text>
<text text-anchor="middle" x="817" y="-336" font-family="Helvetica,sans-Serif" font-size="10.00">/engines/symbolic/pathManager.cpp</text>
</a>
</g>
</g>
<!-- Node4&#45;&gt;Node5 -->
<g id="edge4" class="edge">
<title>Node4&#45;&gt;Node5</title>
<path fill="none" stroke="midnightblue" d="M817,-402.06C817,-391.38 817,-379.63 817,-370.05"/>
<polygon fill="midnightblue" stroke="midnightblue" points="813.5,-402.27 817,-412.27 820.5,-402.27 813.5,-402.27"/>
</g>
<!-- Node6 -->
<g id="node6" class="node">
<title>Node6</title>
<g id="a_node6"><a xlink:href="symbolicEngine_8hpp.html" target="_top" xlink:title=" ">
<polygon fill="white" stroke="black" points="511.5,-329 511.5,-370 702.5,-370 702.5,-329 511.5,-329"/>
<text text-anchor="start" x="519.5" y="-358" font-family="Helvetica,sans-Serif" font-size="10.00">/home/jonathan/Works</text>
<text text-anchor="start" x="519.5" y="-347" font-family="Helvetica,sans-Serif" font-size="10.00">/Tools/Triton/src/libtriton</text>
<text text-anchor="middle" x="607" y="-336" font-family="Helvetica,sans-Serif" font-size="10.00">/includes/triton/symbolicEngine.hpp</text>
</a>
</g>
</g>
<!-- Node4&#45;&gt;Node6 -->
<g id="edge5" class="edge">
<title>Node4&#45;&gt;Node6</title>
<path fill="none" stroke="midnightblue" d="M757.13,-408.77C725.56,-396.51 687.27,-381.65 657.25,-370"/>
<polygon fill="midnightblue" stroke="midnightblue" points="756.11,-412.12 766.7,-412.48 758.64,-405.6 756.11,-412.12"/>
</g>
<!-- Node7 -->
<g id="node7" class="node">
<title>Node7</title>
<g id="a_node7"><a xlink:href="symbolicEngine_8cpp.html" target="_top" xlink:title=" ">
<polygon fill="white" stroke="black" points="261,-245.5 261,-286.5 467,-286.5 467,-245.5 261,-245.5"/>
<text text-anchor="start" x="269" y="-274.5" font-family="Helvetica,sans-Serif" font-size="10.00">/home/jonathan/Works</text>
<text text-anchor="start" x="269" y="-263.5" font-family="Helvetica,sans-Serif" font-size="10.00">/Tools/Triton/src/libtriton</text>
<text text-anchor="middle" x="364" y="-252.5" font-family="Helvetica,sans-Serif" font-size="10.00">/engines/symbolic/symbolicEngine.cpp</text>
</a>
</g>
</g>
<!-- Node6&#45;&gt;Node7 -->
<g id="edge6" class="edge">
<title>Node6&#45;&gt;Node7</title>
<path fill="none" stroke="midnightblue" d="M539.14,-325.74C502.34,-313.4 457.33,-298.3 422.15,-286.5"/>
<polygon fill="midnightblue" stroke="midnightblue" points="538.2,-329.12 548.8,-328.98 540.43,-322.48 538.2,-329.12"/>
</g>
<!-- Node8 -->
<g id="node8" class="node">
<title>Node8</title>
<g id="a_node8"><a xlink:href="aarch64Semantics_8hpp.html" target="_top" xlink:title=" ">
<polygon fill="white" stroke="black" points="13.5,-167.5 13.5,-208.5 216.5,-208.5 216.5,-167.5 13.5,-167.5"/>
<text text-anchor="start" x="21.5" y="-196.5" font-family="Helvetica,sans-Serif" font-size="10.00">/home/jonathan/Works</text>
<text text-anchor="start" x="21.5" y="-185.5" font-family="Helvetica,sans-Serif" font-size="10.00">/Tools/Triton/src/libtriton</text>
<text text-anchor="middle" x="115" y="-174.5" font-family="Helvetica,sans-Serif" font-size="10.00">/includes/triton/aarch64Semantics.hpp</text>
</a>
</g>
</g>
<!-- Node6&#45;&gt;Node8 -->
<g id="edge7" class="edge">
<title>Node6&#45;&gt;Node8</title>
<path fill="none" stroke="midnightblue" d="M501.4,-342.62C428.92,-335.64 331.77,-320.37 252,-287 206.41,-267.93 161.31,-231.33 135.92,-208.65"/>
<polygon fill="midnightblue" stroke="midnightblue" points="501.18,-346.11 511.46,-343.55 501.83,-339.14 501.18,-346.11"/>
</g>
<!-- Node11 -->
<g id="node11" class="node">
<title>Node11</title>
<g id="a_node11"><a xlink:href="api_8hpp.html" target="_top" xlink:title=" ">
<polygon fill="white" stroke="black" points="981.5,-89.5 981.5,-130.5 1114.5,-130.5 1114.5,-89.5 981.5,-89.5"/>
<text text-anchor="start" x="989.5" y="-118.5" font-family="Helvetica,sans-Serif" font-size="10.00">/home/jonathan/Works</text>
<text text-anchor="start" x="989.5" y="-107.5" font-family="Helvetica,sans-Serif" font-size="10.00">/Tools/Triton/src/libtriton</text>
<text text-anchor="middle" x="1048" y="-96.5" font-family="Helvetica,sans-Serif" font-size="10.00">/includes/triton/api.hpp</text>
</a>
</g>
</g>
<!-- Node6&#45;&gt;Node11 -->
<g id="edge10" class="edge">
<title>Node6&#45;&gt;Node11</title>
<path fill="none" stroke="midnightblue" d="M691.42,-326.8C698.36,-325.38 705.28,-324.09 712,-323 900.86,-292.33 958.9,-345.75 1141,-287 1205.13,-266.31 1237.8,-267.63 1271,-209 1306.99,-145.43 1192.86,-123.03 1114.83,-115.18"/>
<polygon fill="midnightblue" stroke="midnightblue" points="690.33,-323.46 681.28,-328.96 691.79,-330.3 690.33,-323.46"/>
</g>
<!-- Node15 -->
<g id="node15" class="node">
<title>Node15</title>
<g id="a_node15"><a xlink:href="arm32Semantics_8hpp.html" target="_top" xlink:title=" ">
<polygon fill="white" stroke="black" points="234,-167.5 234,-208.5 430,-208.5 430,-167.5 234,-167.5"/>
<text text-anchor="start" x="242" y="-196.5" font-family="Helvetica,sans-Serif" font-size="10.00">/home/jonathan/Works</text>
<text text-anchor="start" x="242" y="-185.5" font-family="Helvetica,sans-Serif" font-size="10.00">/Tools/Triton/src/libtriton</text>
<text text-anchor="middle" x="332" y="-174.5" font-family="Helvetica,sans-Serif" font-size="10.00">/includes/triton/arm32Semantics.hpp</text>
</a>
</g>
</g>
<!-- Node6&#45;&gt;Node15 -->
<g id="edge14" class="edge">
<title>Node6&#45;&gt;Node15</title>
<path fill="none" stroke="midnightblue" d="M563.44,-323.44C546.94,-313.07 528.42,-300.36 513,-287 494.2,-270.71 496.39,-259.25 476,-245 453.68,-229.41 426.42,-217.38 401.65,-208.53"/>
<polygon fill="midnightblue" stroke="midnightblue" points="562.03,-326.67 572.37,-328.94 565.7,-320.71 562.03,-326.67"/>
</g>
<!-- Node17 -->
<g id="node17" class="node">
<title>Node17</title>
<g id="a_node17"><a xlink:href="irBuilder_8hpp.html" target="_top" xlink:title=" ">
<polygon fill="white" stroke="black" points="866,-167.5 866,-208.5 1020,-208.5 1020,-167.5 866,-167.5"/>
<text text-anchor="start" x="874" y="-196.5" font-family="Helvetica,sans-Serif" font-size="10.00">/home/jonathan/Works</text>
<text text-anchor="start" x="874" y="-185.5" font-family="Helvetica,sans-Serif" font-size="10.00">/Tools/Triton/src/libtriton</text>
<text text-anchor="middle" x="943" y="-174.5" font-family="Helvetica,sans-Serif" font-size="10.00">/includes/triton/irBuilder.hpp</text>
</a>
</g>
</g>
<!-- Node6&#45;&gt;Node17 -->
<g id="edge17" class="edge">
<title>Node6&#45;&gt;Node17</title>
<path fill="none" stroke="midnightblue" d="M657.25,-324.64C723.83,-293.04 840.01,-237.89 901.73,-208.59"/>
<polygon fill="midnightblue" stroke="midnightblue" points="655.73,-321.49 648.2,-328.94 658.73,-327.82 655.73,-321.49"/>
</g>
<!-- Node18 -->
<g id="node18" class="node">
<title>Node18</title>
<g id="a_node18"><a xlink:href="synthesizer_8hpp.html" target="_top" xlink:title=" ">
<polygon fill="white" stroke="black" points="963.5,-245.5 963.5,-286.5 1132.5,-286.5 1132.5,-245.5 963.5,-245.5"/>
<text text-anchor="start" x="971.5" y="-274.5" font-family="Helvetica,sans-Serif" font-size="10.00">/home/jonathan/Works</text>
<text text-anchor="start" x="971.5" y="-263.5" font-family="Helvetica,sans-Serif" font-size="10.00">/Tools/Triton/src/libtriton</text>
<text text-anchor="middle" x="1048" y="-252.5" font-family="Helvetica,sans-Serif" font-size="10.00">/includes/triton/synthesizer.hpp</text>
</a>
</g>
</g>
<!-- Node6&#45;&gt;Node18 -->
<g id="edge20" class="edge">
<title>Node6&#45;&gt;Node18</title>
<path fill="none" stroke="midnightblue" d="M694.51,-326.74C700.42,-325.43 706.29,-324.17 712,-323 797.17,-305.58 895.32,-289.7 963.45,-279.34"/>
<polygon fill="midnightblue" stroke="midnightblue" points="693.54,-323.37 684.55,-328.99 695.08,-330.2 693.54,-323.37"/>
</g>
<!-- Node20 -->
<g id="node20" class="node">
<title>Node20</title>
<g id="a_node20"><a xlink:href="taintEngine_8hpp.html" target="_top" xlink:title=" ">
<polygon fill="white" stroke="black" points="522.5,-245.5 522.5,-286.5 691.5,-286.5 691.5,-245.5 522.5,-245.5"/>
<text text-anchor="start" x="530.5" y="-274.5" font-family="Helvetica,sans-Serif" font-size="10.00">/home/jonathan/Works</text>
<text text-anchor="start" x="530.5" y="-263.5" font-family="Helvetica,sans-Serif" font-size="10.00">/Tools/Triton/src/libtriton</text>
<text text-anchor="middle" x="607" y="-252.5" font-family="Helvetica,sans-Serif" font-size="10.00">/includes/triton/taintEngine.hpp</text>
</a>
</g>
</g>
<!-- Node6&#45;&gt;Node20 -->
<g id="edge23" class="edge">
<title>Node6&#45;&gt;Node20</title>
<path fill="none" stroke="midnightblue" d="M607,-318.56C607,-307.88 607,-296.13 607,-286.55"/>
<polygon fill="midnightblue" stroke="midnightblue" points="603.5,-318.77 607,-328.77 610.5,-318.77 603.5,-318.77"/>
</g>
<!-- Node22 -->
<g id="node22" class="node">
<title>Node22</title>
<g id="a_node22"><a xlink:href="x86Semantics_8hpp.html" target="_top" xlink:title=" ">
<polygon fill="white" stroke="black" points="628,-167.5 628,-208.5 810,-208.5 810,-167.5 628,-167.5"/>
<text text-anchor="start" x="636" y="-196.5" font-family="Helvetica,sans-Serif" font-size="10.00">/home/jonathan/Works</text>
<text text-anchor="start" x="636" y="-185.5" font-family="Helvetica,sans-Serif" font-size="10.00">/Tools/Triton/src/libtriton</text>
<text text-anchor="middle" x="719" y="-174.5" font-family="Helvetica,sans-Serif" font-size="10.00">/includes/triton/x86Semantics.hpp</text>
</a>
</g>
</g>
<!-- Node6&#45;&gt;Node22 -->
<g id="edge32" class="edge">
<title>Node6&#45;&gt;Node22</title>
<path fill="none" stroke="midnightblue" d="M660.04,-323.59C675.06,-314.12 690.02,-301.93 700,-287 715.79,-263.37 719.15,-229.79 719.52,-208.72"/>
<polygon fill="midnightblue" stroke="midnightblue" points="658.01,-320.72 651.22,-328.85 661.6,-326.73 658.01,-320.72"/>
</g>
<!-- Node9 -->
<g id="node9" class="node">
<title>Node9</title>
<g id="a_node9"><a xlink:href="aarch64Semantics_8cpp.html" target="_top" xlink:title=" ">
<polygon fill="white" stroke="black" points="0,-89.5 0,-130.5 218,-130.5 218,-89.5 0,-89.5"/>
<text text-anchor="start" x="8" y="-118.5" font-family="Helvetica,sans-Serif" font-size="10.00">/home/jonathan/Works</text>
<text text-anchor="start" x="8" y="-107.5" font-family="Helvetica,sans-Serif" font-size="10.00">/Tools/Triton/src/libtriton</text>
<text text-anchor="middle" x="109" y="-96.5" font-family="Helvetica,sans-Serif" font-size="10.00">/arch/arm/aarch64/aarch64Semantics.cpp</text>
</a>
</g>
</g>
<!-- Node8&#45;&gt;Node9 -->
<g id="edge8" class="edge">
<title>Node8&#45;&gt;Node9</title>
<path fill="none" stroke="midnightblue" d="M112.65,-157.3C111.94,-148.3 111.18,-138.65 110.54,-130.51"/>
<polygon fill="midnightblue" stroke="midnightblue" points="109.18,-157.73 113.45,-167.43 116.16,-157.18 109.18,-157.73"/>
</g>
<!-- Node10 -->
<g id="node10" class="node">
<title>Node10</title>
<g id="a_node10"><a xlink:href="irBuilder_8cpp.html" target="_top" xlink:title=" ">
<polygon fill="white" stroke="black" points="474.5,-89.5 474.5,-130.5 607.5,-130.5 607.5,-89.5 474.5,-89.5"/>
<text text-anchor="start" x="482.5" y="-118.5" font-family="Helvetica,sans-Serif" font-size="10.00">/home/jonathan/Works</text>
<text text-anchor="start" x="482.5" y="-107.5" font-family="Helvetica,sans-Serif" font-size="10.00">/Tools/Triton/src/libtriton</text>
<text text-anchor="middle" x="541" y="-96.5" font-family="Helvetica,sans-Serif" font-size="10.00">/arch/irBuilder.cpp</text>
</a>
</g>
</g>
<!-- Node8&#45;&gt;Node10 -->
<g id="edge9" class="edge">
<title>Node8&#45;&gt;Node10</title>
<path fill="none" stroke="midnightblue" d="M226.71,-166.73C325.66,-149.97 352.52,-148.96 448,-131 456.52,-129.4 465.46,-127.61 474.28,-125.78"/>
<polygon fill="midnightblue" stroke="midnightblue" points="225.84,-163.32 216.58,-168.46 227.02,-170.23 225.84,-163.32"/>
</g>
<!-- Node12 -->
<g id="node12" class="node">
<title>Node12</title>
<g id="a_node12"><a xlink:href="api_8cpp.html" target="_top" xlink:title=" ">
<polygon fill="white" stroke="black" points="1057.5,-6 1057.5,-47 1190.5,-47 1190.5,-6 1057.5,-6"/>
<text text-anchor="start" x="1065.5" y="-35" font-family="Helvetica,sans-Serif" font-size="10.00">/home/jonathan/Works</text>
<text text-anchor="start" x="1065.5" y="-24" font-family="Helvetica,sans-Serif" font-size="10.00">/Tools/Triton/src/libtriton</text>
<text text-anchor="middle" x="1124" y="-13" font-family="Helvetica,sans-Serif" font-size="10.00">/api/api.cpp</text>
</a>
</g>
</g>
<!-- Node11&#45;&gt;Node12 -->
<g id="edge11" class="edge">
<title>Node11&#45;&gt;Node12</title>
<path fill="none" stroke="midnightblue" d="M1073.45,-81.71C1084.04,-70.36 1096.09,-57.43 1105.77,-47.05"/>
<polygon fill="midnightblue" stroke="midnightblue" points="1070.66,-79.57 1066.4,-89.27 1075.78,-84.34 1070.66,-79.57"/>
</g>
<!-- Node13 -->
<g id="node13" class="node">
<title>Node13</title>
<g id="a_node13"><a xlink:href="pyTritonContext_8cpp.html" target="_top" xlink:title=" ">
<polygon fill="white" stroke="black" points="1472,-0.5 1472,-52.5 1608,-52.5 1608,-0.5 1472,-0.5"/>
<text text-anchor="start" x="1480" y="-40.5" font-family="Helvetica,sans-Serif" font-size="10.00">/home/jonathan/Works</text>
<text text-anchor="start" x="1480" y="-29.5" font-family="Helvetica,sans-Serif" font-size="10.00">/Tools/Triton/src/libtriton</text>
<text text-anchor="start" x="1480" y="-18.5" font-family="Helvetica,sans-Serif" font-size="10.00">/bindings/python/objects</text>
<text text-anchor="middle" x="1540" y="-7.5" font-family="Helvetica,sans-Serif" font-size="10.00">/pyTritonContext.cpp</text>
</a>
</g>
</g>
<!-- Node11&#45;&gt;Node13 -->
<g id="edge12" class="edge">
<title>Node11&#45;&gt;Node13</title>
<path fill="none" stroke="midnightblue" d="M1124.74,-96.29C1219.87,-80.53 1380.54,-53.92 1471.62,-38.83"/>
<polygon fill="midnightblue" stroke="midnightblue" points="1123.9,-92.88 1114.61,-97.97 1125.05,-99.78 1123.9,-92.88"/>
</g>
<!-- Node14 -->
<g id="node14" class="node">
<title>Node14</title>
<g id="a_node14"><a xlink:href="callbacks_8cpp.html" target="_top" xlink:title=" ">
<polygon fill="white" stroke="black" points="905,-6 905,-47 1039,-47 1039,-6 905,-6"/>
<text text-anchor="start" x="913" y="-35" font-family="Helvetica,sans-Serif" font-size="10.00">/home/jonathan/Works</text>
<text text-anchor="start" x="913" y="-24" font-family="Helvetica,sans-Serif" font-size="10.00">/Tools/Triton/src/libtriton</text>
<text text-anchor="middle" x="972" y="-13" font-family="Helvetica,sans-Serif" font-size="10.00">/callbacks/callbacks.cpp</text>
</a>
</g>
</g>
<!-- Node11&#45;&gt;Node14 -->
<g id="edge13" class="edge">
<title>Node11&#45;&gt;Node14</title>
<path fill="none" stroke="midnightblue" d="M1022.55,-81.71C1011.96,-70.36 999.91,-57.43 990.23,-47.05"/>
<polygon fill="midnightblue" stroke="midnightblue" points="1020.22,-84.34 1029.6,-89.27 1025.34,-79.57 1020.22,-84.34"/>
</g>
<!-- Node15&#45;&gt;Node10 -->
<g id="edge16" class="edge">
<title>Node15&#45;&gt;Node10</title>
<path fill="none" stroke="midnightblue" d="M395.56,-163.89C424.9,-153.22 459.35,-140.69 487.36,-130.51"/>
<polygon fill="midnightblue" stroke="midnightblue" points="394.02,-160.72 385.82,-167.43 396.42,-167.3 394.02,-160.72"/>
</g>
<!-- Node16 -->
<g id="node16" class="node">
<title>Node16</title>
<g id="a_node16"><a xlink:href="arm32Semantics_8cpp.html" target="_top" xlink:title=" ">
<polygon fill="white" stroke="black" points="236.5,-89.5 236.5,-130.5 439.5,-130.5 439.5,-89.5 236.5,-89.5"/>
<text text-anchor="start" x="244.5" y="-118.5" font-family="Helvetica,sans-Serif" font-size="10.00">/home/jonathan/Works</text>
<text text-anchor="start" x="244.5" y="-107.5" font-family="Helvetica,sans-Serif" font-size="10.00">/Tools/Triton/src/libtriton</text>
<text text-anchor="middle" x="338" y="-96.5" font-family="Helvetica,sans-Serif" font-size="10.00">/arch/arm/arm32/arm32Semantics.cpp</text>
</a>
</g>
</g>
<!-- Node15&#45;&gt;Node16 -->
<g id="edge15" class="edge">
<title>Node15&#45;&gt;Node16</title>
<path fill="none" stroke="midnightblue" d="M334.35,-157.3C335.06,-148.3 335.82,-138.65 336.46,-130.51"/>
<polygon fill="midnightblue" stroke="midnightblue" points="330.84,-157.18 333.55,-167.43 337.82,-157.73 330.84,-157.18"/>
</g>
<!-- Node17&#45;&gt;Node10 -->
<g id="edge18" class="edge">
<title>Node17&#45;&gt;Node10</title>
<path fill="none" stroke="midnightblue" d="M855.62,-172.06C793.43,-161.23 707.95,-145.91 633,-131 624.82,-129.37 616.25,-127.6 607.77,-125.81"/>
<polygon fill="midnightblue" stroke="midnightblue" points="855.33,-175.57 865.78,-173.83 856.53,-168.67 855.33,-175.57"/>
</g>
<!-- Node17&#45;&gt;Node11 -->
<g id="edge19" class="edge">
<title>Node17&#45;&gt;Node11</title>
<path fill="none" stroke="midnightblue" d="M978.44,-161.35C992.36,-151.27 1008.08,-139.89 1021.05,-130.51"/>
<polygon fill="midnightblue" stroke="midnightblue" points="976.09,-158.73 970.04,-167.43 980.19,-164.4 976.09,-158.73"/>
</g>
<!-- Node18&#45;&gt;Node11 -->
<g id="edge22" class="edge">
<title>Node18&#45;&gt;Node11</title>
<path fill="none" stroke="midnightblue" d="M1048,-235.36C1048,-204.61 1048,-157.36 1048,-130.83"/>
<polygon fill="midnightblue" stroke="midnightblue" points="1044.5,-235.5 1048,-245.5 1051.5,-235.5 1044.5,-235.5"/>
</g>
<!-- Node19 -->
<g id="node19" class="node">
<title>Node19</title>
<g id="a_node19"><a xlink:href="synthesizer_8cpp.html" target="_top" xlink:title=" ">
<polygon fill="white" stroke="black" points="1076,-167.5 1076,-208.5 1262,-208.5 1262,-167.5 1076,-167.5"/>
<text text-anchor="start" x="1084" y="-196.5" font-family="Helvetica,sans-Serif" font-size="10.00">/home/jonathan/Works</text>
<text text-anchor="start" x="1084" y="-185.5" font-family="Helvetica,sans-Serif" font-size="10.00">/Tools/Triton/src/libtriton</text>
<text text-anchor="middle" x="1169" y="-174.5" font-family="Helvetica,sans-Serif" font-size="10.00">/engines/synthesis/synthesizer.cpp</text>
</a>
</g>
</g>
<!-- Node18&#45;&gt;Node19 -->
<g id="edge21" class="edge">
<title>Node18&#45;&gt;Node19</title>
<path fill="none" stroke="midnightblue" d="M1087.93,-239.92C1104.2,-229.7 1122.72,-218.07 1137.95,-208.51"/>
<polygon fill="midnightblue" stroke="midnightblue" points="1085.77,-237.15 1079.16,-245.43 1089.49,-243.07 1085.77,-237.15"/>
</g>
<!-- Node20&#45;&gt;Node8 -->
<g id="edge25" class="edge">
<title>Node20&#45;&gt;Node8</title>
<path fill="none" stroke="midnightblue" d="M512.25,-250.43C500.06,-248.59 487.73,-246.74 476,-245 364.52,-228.5 336.24,-227.08 225,-209 222.22,-208.55 219.41,-208.08 216.56,-207.61"/>
<polygon fill="midnightblue" stroke="midnightblue" points="512.04,-253.94 522.45,-251.98 513.09,-247.02 512.04,-253.94"/>
</g>
<!-- Node20&#45;&gt;Node11 -->
<g id="edge26" class="edge">
<title>Node20&#45;&gt;Node11</title>
<path fill="none" stroke="midnightblue" d="M701.85,-252.05C740.22,-243.82 783.7,-230.49 819,-209 840.5,-195.91 835.68,-180.38 857,-167 894.76,-143.31 942.97,-129.28 981.5,-121.18"/>
<polygon fill="midnightblue" stroke="midnightblue" points="700.78,-248.7 691.69,-254.14 702.19,-255.55 700.78,-248.7"/>
</g>
<!-- Node20&#45;&gt;Node15 -->
<g id="edge27" class="edge">
<title>Node20&#45;&gt;Node15</title>
<path fill="none" stroke="midnightblue" d="M526.38,-242.72C487.14,-231.87 440.39,-218.96 402.58,-208.51"/>
<polygon fill="midnightblue" stroke="midnightblue" points="525.61,-246.14 536.18,-245.43 527.47,-239.39 525.61,-246.14"/>
</g>
<!-- Node20&#45;&gt;Node17 -->
<g id="edge28" class="edge">
<title>Node20&#45;&gt;Node17</title>
<path fill="none" stroke="midnightblue" d="M701.66,-243.59C753.48,-231.87 816.9,-217.52 865.72,-206.48"/>
<polygon fill="midnightblue" stroke="midnightblue" points="700.77,-240.2 691.79,-245.82 702.31,-247.03 700.77,-240.2"/>
</g>
<!-- Node21 -->
<g id="node21" class="node">
<title>Node21</title>
<g id="a_node21"><a xlink:href="taintEngine_8cpp.html" target="_top" xlink:title=" ">
<polygon fill="white" stroke="black" points="448,-167.5 448,-208.5 610,-208.5 610,-167.5 448,-167.5"/>
<text text-anchor="start" x="456" y="-196.5" font-family="Helvetica,sans-Serif" font-size="10.00">/home/jonathan/Works</text>
<text text-anchor="start" x="456" y="-185.5" font-family="Helvetica,sans-Serif" font-size="10.00">/Tools/Triton/src/libtriton</text>
<text text-anchor="middle" x="529" y="-174.5" font-family="Helvetica,sans-Serif" font-size="10.00">/engines/taint/taintEngine.cpp</text>
</a>
</g>
</g>
<!-- Node20&#45;&gt;Node21 -->
<g id="edge24" class="edge">
<title>Node20&#45;&gt;Node21</title>
<path fill="none" stroke="midnightblue" d="M579.5,-238.2C569.45,-228.42 558.29,-217.54 549.02,-208.51"/>
<polygon fill="midnightblue" stroke="midnightblue" points="577.31,-240.96 586.91,-245.43 582.19,-235.94 577.31,-240.96"/>
</g>
<!-- Node20&#45;&gt;Node22 -->
<g id="edge29" class="edge">
<title>Node20&#45;&gt;Node22</title>
<path fill="none" stroke="midnightblue" d="M644.38,-239.64C659.34,-229.49 676.29,-217.98 690.25,-208.51"/>
<polygon fill="midnightblue" stroke="midnightblue" points="642.15,-236.92 635.84,-245.43 646.08,-242.71 642.15,-236.92"/>
</g>
<!-- Node22&#45;&gt;Node10 -->
<g id="edge30" class="edge">
<title>Node22&#45;&gt;Node10</title>
<path fill="none" stroke="midnightblue" d="M663.89,-163.47C639.12,-152.89 610.23,-140.56 586.68,-130.51"/>
<polygon fill="midnightblue" stroke="midnightblue" points="662.59,-166.72 673.16,-167.43 665.34,-160.28 662.59,-166.72"/>
</g>
<!-- Node23 -->
<g id="node23" class="node">
<title>Node23</title>
<g id="a_node23"><a xlink:href="x86Semantics_8cpp.html" target="_top" xlink:title=" ">
<polygon fill="white" stroke="black" points="642,-89.5 642,-130.5 796,-130.5 796,-89.5 642,-89.5"/>
<text text-anchor="start" x="650" y="-118.5" font-family="Helvetica,sans-Serif" font-size="10.00">/home/jonathan/Works</text>
<text text-anchor="start" x="650" y="-107.5" font-family="Helvetica,sans-Serif" font-size="10.00">/Tools/Triton/src/libtriton</text>
<text text-anchor="middle" x="719" y="-96.5" font-family="Helvetica,sans-Serif" font-size="10.00">/arch/x86/x86Semantics.cpp</text>
</a>
</g>
</g>
<!-- Node22&#45;&gt;Node23 -->
<g id="edge31" class="edge">
<title>Node22&#45;&gt;Node23</title>
<path fill="none" stroke="midnightblue" d="M719,-157.3C719,-148.3 719,-138.65 719,-130.51"/>
<polygon fill="midnightblue" stroke="midnightblue" points="715.5,-157.43 719,-167.43 722.5,-157.43 715.5,-157.43"/>
</g>
<!-- Node24&#45;&gt;Node2 -->
<g id="edge42" class="edge">
<title>Node24&#45;&gt;Node2</title>
<path fill="none" stroke="midnightblue" d="M1674.62,-431.48C1537.13,-429.04 1285.84,-418.48 1076,-376 1073.1,-375.41 1070.16,-374.75 1067.2,-374.03"/>
<polygon fill="midnightblue" stroke="midnightblue" points="1674.67,-434.98 1684.72,-431.65 1674.78,-427.98 1674.67,-434.98"/>
</g>
<!-- Node24&#45;&gt;Node13 -->
<g id="edge47" class="edge">
<title>Node24&#45;&gt;Node13</title>
<path fill="none" stroke="midnightblue" d="M1759.59,-403.6C1754.92,-394.98 1750.26,-385.33 1747,-376 1730.73,-329.51 1727,-316.25 1727,-267 1727,-267 1727,-267 1727,-187 1727,-121.82 1660.42,-77.64 1606.72,-52.6"/>
<polygon fill="midnightblue" stroke="midnightblue" points="1756.63,-405.49 1764.6,-412.47 1762.73,-402.04 1756.63,-405.49"/>
</g>
<!-- Node25 -->
<g id="node25" class="node">
<title>Node25</title>
<g id="a_node25"><a xlink:href="tritonCallbacks_8cpp.html" target="_top" xlink:title=" ">
<polygon fill="white" stroke="black" points="1755.5,-323.5 1755.5,-375.5 1898.5,-375.5 1898.5,-323.5 1755.5,-323.5"/>
<text text-anchor="start" x="1763.5" y="-363.5" font-family="Helvetica,sans-Serif" font-size="10.00">/home/jonathan/Works</text>
<text text-anchor="start" x="1763.5" y="-352.5" font-family="Helvetica,sans-Serif" font-size="10.00">/Tools/Triton/src/libtriton</text>
<text text-anchor="start" x="1763.5" y="-341.5" font-family="Helvetica,sans-Serif" font-size="10.00">/bindings/python/modules</text>
<text text-anchor="middle" x="1827" y="-330.5" font-family="Helvetica,sans-Serif" font-size="10.00">/tritonCallbacks.cpp</text>
</a>
</g>
</g>
<!-- Node24&#45;&gt;Node25 -->
<g id="edge34" class="edge">
<title>Node24&#45;&gt;Node25</title>
<path fill="none" stroke="midnightblue" d="M1794.45,-403.55C1800.04,-394.45 1806.17,-384.45 1811.6,-375.61"/>
<polygon fill="midnightblue" stroke="midnightblue" points="1791.35,-401.92 1789.1,-412.27 1797.32,-405.58 1791.35,-401.92"/>
</g>
<!-- Node26 -->
<g id="node26" class="node">
<title>Node26</title>
<g id="a_node26"><a xlink:href="initRegNamespace_8cpp.html" target="_top" xlink:title=" ">
<polygon fill="white" stroke="black" points="1917,-323.5 1917,-375.5 2079,-375.5 2079,-323.5 1917,-323.5"/>
<text text-anchor="start" x="1925" y="-363.5" font-family="Helvetica,sans-Serif" font-size="10.00">/home/jonathan/Works</text>
<text text-anchor="start" x="1925" y="-352.5" font-family="Helvetica,sans-Serif" font-size="10.00">/Tools/Triton/src/libtriton</text>
<text text-anchor="start" x="1925" y="-341.5" font-family="Helvetica,sans-Serif" font-size="10.00">/bindings/python/namespaces</text>
<text text-anchor="middle" x="1998" y="-330.5" font-family="Helvetica,sans-Serif" font-size="10.00">/initRegNamespace.cpp</text>
</a>
</g>
</g>
<!-- Node24&#45;&gt;Node26 -->
<g id="edge35" class="edge">
<title>Node24&#45;&gt;Node26</title>
<path fill="none" stroke="midnightblue" d="M1839.68,-408.89C1867.87,-398.49 1901.21,-386.2 1930,-375.58"/>
<polygon fill="midnightblue" stroke="midnightblue" points="1838.11,-405.73 1829.94,-412.48 1840.53,-412.3 1838.11,-405.73"/>
</g>
<!-- Node27 -->
<g id="node27" class="node">
<title>Node27</title>
<g id="a_node27"><a xlink:href="pyAstContext_8cpp.html" target="_top" xlink:title=" ">
<polygon fill="white" stroke="black" points="2097,-323.5 2097,-375.5 2233,-375.5 2233,-323.5 2097,-323.5"/>
<text text-anchor="start" x="2105" y="-363.5" font-family="Helvetica,sans-Serif" font-size="10.00">/home/jonathan/Works</text>
<text text-anchor="start" x="2105" y="-352.5" font-family="Helvetica,sans-Serif" font-size="10.00">/Tools/Triton/src/libtriton</text>
<text text-anchor="start" x="2105" y="-341.5" font-family="Helvetica,sans-Serif" font-size="10.00">/bindings/python/objects</text>
<text text-anchor="middle" x="2165" y="-330.5" font-family="Helvetica,sans-Serif" font-size="10.00">/pyAstContext.cpp</text>
</a>
</g>
</g>
<!-- Node24&#45;&gt;Node27 -->
<g id="edge36" class="edge">
<title>Node24&#45;&gt;Node27</title>
<path fill="none" stroke="midnightblue" d="M1879.08,-411.84C1972.85,-395.05 1999.18,-398.19 2088,-376 2090.87,-375.28 2093.79,-374.51 2096.72,-373.7"/>
<polygon fill="midnightblue" stroke="midnightblue" points="1878.39,-408.41 1869.18,-413.65 1879.64,-415.3 1878.39,-408.41"/>
</g>
<!-- Node28 -->
<g id="node28" class="node">
<title>Node28</title>
<g id="a_node28"><a xlink:href="pyAstNode_8cpp.html" target="_top" xlink:title=" ">
<polygon fill="white" stroke="black" points="2251,-323.5 2251,-375.5 2387,-375.5 2387,-323.5 2251,-323.5"/>
<text text-anchor="start" x="2259" y="-363.5" font-family="Helvetica,sans-Serif" font-size="10.00">/home/jonathan/Works</text>
<text text-anchor="start" x="2259" y="-352.5" font-family="Helvetica,sans-Serif" font-size="10.00">/Tools/Triton/src/libtriton</text>
<text text-anchor="start" x="2259" y="-341.5" font-family="Helvetica,sans-Serif" font-size="10.00">/bindings/python/objects</text>
<text text-anchor="middle" x="2319" y="-330.5" font-family="Helvetica,sans-Serif" font-size="10.00">/pyAstNode.cpp</text>
</a>
</g>
</g>
<!-- Node24&#45;&gt;Node28 -->
<g id="edge37" class="edge">
<title>Node24&#45;&gt;Node28</title>
<path fill="none" stroke="midnightblue" d="M1879.42,-411.88C2040.67,-389.04 2086.24,-409.07 2242,-376 2244.89,-375.39 2247.83,-374.7 2250.78,-373.96"/>
<polygon fill="midnightblue" stroke="midnightblue" points="1878.53,-408.47 1869.13,-413.37 1879.53,-415.4 1878.53,-408.47"/>
</g>
<!-- Node29 -->
<g id="node29" class="node">
<title>Node29</title>
<g id="a_node29"><a xlink:href="pyBitsVector_8cpp.html" target="_top" xlink:title=" ">
<polygon fill="white" stroke="black" points="2405,-323.5 2405,-375.5 2541,-375.5 2541,-323.5 2405,-323.5"/>
<text text-anchor="start" x="2413" y="-363.5" font-family="Helvetica,sans-Serif" font-size="10.00">/home/jonathan/Works</text>
<text text-anchor="start" x="2413" y="-352.5" font-family="Helvetica,sans-Serif" font-size="10.00">/Tools/Triton/src/libtriton</text>
<text text-anchor="start" x="2413" y="-341.5" font-family="Helvetica,sans-Serif" font-size="10.00">/bindings/python/objects</text>
<text text-anchor="middle" x="2473" y="-330.5" font-family="Helvetica,sans-Serif" font-size="10.00">/pyBitsVector.cpp</text>
</a>
</g>
</g>
<!-- Node24&#45;&gt;Node29 -->
<g id="edge38" class="edge">
<title>Node24&#45;&gt;Node29</title>
<path fill="none" stroke="midnightblue" d="M1879.11,-411.96C2108.57,-382.62 2172.78,-419.99 2396,-376 2398.9,-375.43 2401.84,-374.78 2404.8,-374.07"/>
<polygon fill="midnightblue" stroke="midnightblue" points="1878.58,-408.49 1869.12,-413.26 1879.49,-415.44 1878.58,-408.49"/>
</g>
<!-- Node30 -->
<g id="node30" class="node">
<title>Node30</title>
<g id="a_node30"><a xlink:href="pyImmediate_8cpp.html" target="_top" xlink:title=" ">
<polygon fill="white" stroke="black" points="2559,-323.5 2559,-375.5 2695,-375.5 2695,-323.5 2559,-323.5"/>
<text text-anchor="start" x="2567" y="-363.5" font-family="Helvetica,sans-Serif" font-size="10.00">/home/jonathan/Works</text>
<text text-anchor="start" x="2567" y="-352.5" font-family="Helvetica,sans-Serif" font-size="10.00">/Tools/Triton/src/libtriton</text>
<text text-anchor="start" x="2567" y="-341.5" font-family="Helvetica,sans-Serif" font-size="10.00">/bindings/python/objects</text>
<text text-anchor="middle" x="2627" y="-330.5" font-family="Helvetica,sans-Serif" font-size="10.00">/pyImmediate.cpp</text>
</a>
</g>
</g>
<!-- Node24&#45;&gt;Node30 -->
<g id="edge39" class="edge">
<title>Node24&#45;&gt;Node30</title>
<path fill="none" stroke="midnightblue" d="M1879.33,-411.94C2176.63,-376.12 2259.4,-430.88 2550,-376 2552.91,-375.45 2555.85,-374.82 2558.82,-374.13"/>
<polygon fill="midnightblue" stroke="midnightblue" points="1878.61,-408.51 1869.11,-413.2 1879.46,-415.45 1878.61,-408.51"/>
</g>
<!-- Node31 -->
<g id="node31" class="node">
<title>Node31</title>
<g id="a_node31"><a xlink:href="pyInstruction_8cpp.html" target="_top" xlink:title=" ">
<polygon fill="white" stroke="black" points="2713,-323.5 2713,-375.5 2849,-375.5 2849,-323.5 2713,-323.5"/>
<text text-anchor="start" x="2721" y="-363.5" font-family="Helvetica,sans-Serif" font-size="10.00">/home/jonathan/Works</text>
<text text-anchor="start" x="2721" y="-352.5" font-family="Helvetica,sans-Serif" font-size="10.00">/Tools/Triton/src/libtriton</text>
<text text-anchor="start" x="2721" y="-341.5" font-family="Helvetica,sans-Serif" font-size="10.00">/bindings/python/objects</text>
<text text-anchor="middle" x="2781" y="-330.5" font-family="Helvetica,sans-Serif" font-size="10.00">/pyInstruction.cpp</text>
</a>
</g>
</g>
<!-- Node24&#45;&gt;Node31 -->
<g id="edge40" class="edge">
<title>Node24&#45;&gt;Node31</title>
<path fill="none" stroke="midnightblue" d="M1879.17,-411.97C2244.66,-369.51 2345.85,-441.79 2704,-376 2706.91,-375.47 2709.86,-374.85 2712.82,-374.16"/>
<polygon fill="midnightblue" stroke="midnightblue" points="1878.63,-408.51 1869.11,-413.16 1879.45,-415.46 1878.63,-408.51"/>
</g>
<!-- Node32 -->
<g id="node32" class="node">
<title>Node32</title>
<g id="a_node32"><a xlink:href="pyMemoryAccess_8cpp.html" target="_top" xlink:title=" ">
<polygon fill="white" stroke="black" points="2867,-323.5 2867,-375.5 3003,-375.5 3003,-323.5 2867,-323.5"/>
<text text-anchor="start" x="2875" y="-363.5" font-family="Helvetica,sans-Serif" font-size="10.00">/home/jonathan/Works</text>
<text text-anchor="start" x="2875" y="-352.5" font-family="Helvetica,sans-Serif" font-size="10.00">/Tools/Triton/src/libtriton</text>
<text text-anchor="start" x="2875" y="-341.5" font-family="Helvetica,sans-Serif" font-size="10.00">/bindings/python/objects</text>
<text text-anchor="middle" x="2935" y="-330.5" font-family="Helvetica,sans-Serif" font-size="10.00">/pyMemoryAccess.cpp</text>
</a>
</g>
</g>
<!-- Node24&#45;&gt;Node32 -->
<g id="edge41" class="edge">
<title>Node24&#45;&gt;Node32</title>
<path fill="none" stroke="midnightblue" d="M1879.08,-411.99C2312.72,-362.89 2432.3,-452.7 2858,-376 2860.91,-375.48 2863.86,-374.87 2866.83,-374.19"/>
<polygon fill="midnightblue" stroke="midnightblue" points="1878.64,-408.52 1869.1,-413.14 1879.44,-415.47 1878.64,-408.52"/>
</g>
<!-- Node33 -->
<g id="node33" class="node">
<title>Node33</title>
<g id="a_node33"><a xlink:href="pyRegister_8cpp.html" target="_top" xlink:title=" ">
<polygon fill="white" stroke="black" points="1085,-323.5 1085,-375.5 1221,-375.5 1221,-323.5 1085,-323.5"/>
<text text-anchor="start" x="1093" y="-363.5" font-family="Helvetica,sans-Serif" font-size="10.00">/home/jonathan/Works</text>
<text text-anchor="start" x="1093" y="-352.5" font-family="Helvetica,sans-Serif" font-size="10.00">/Tools/Triton/src/libtriton</text>
<text text-anchor="start" x="1093" y="-341.5" font-family="Helvetica,sans-Serif" font-size="10.00">/bindings/python/objects</text>
<text text-anchor="middle" x="1153" y="-330.5" font-family="Helvetica,sans-Serif" font-size="10.00">/pyRegister.cpp</text>
</a>
</g>
</g>
<!-- Node24&#45;&gt;Node33 -->
<g id="edge43" class="edge">
<title>Node24&#45;&gt;Node33</title>
<path fill="none" stroke="midnightblue" d="M1674.43,-428.16C1563.73,-422.48 1382.75,-408.7 1230,-376 1227.11,-375.38 1224.17,-374.69 1221.22,-373.95"/>
<polygon fill="midnightblue" stroke="midnightblue" points="1674.42,-431.67 1684.59,-428.67 1674.77,-424.68 1674.42,-431.67"/>
</g>
<!-- Node34 -->
<g id="node34" class="node">
<title>Node34</title>
<g id="a_node34"><a xlink:href="pySolverModel_8cpp.html" target="_top" xlink:title=" ">
<polygon fill="white" stroke="black" points="1239,-323.5 1239,-375.5 1375,-375.5 1375,-323.5 1239,-323.5"/>
<text text-anchor="start" x="1247" y="-363.5" font-family="Helvetica,sans-Serif" font-size="10.00">/home/jonathan/Works</text>
<text text-anchor="start" x="1247" y="-352.5" font-family="Helvetica,sans-Serif" font-size="10.00">/Tools/Triton/src/libtriton</text>
<text text-anchor="start" x="1247" y="-341.5" font-family="Helvetica,sans-Serif" font-size="10.00">/bindings/python/objects</text>
<text text-anchor="middle" x="1307" y="-330.5" font-family="Helvetica,sans-Serif" font-size="10.00">/pySolverModel.cpp</text>
</a>
</g>
</g>
<!-- Node24&#45;&gt;Node34 -->
<g id="edge44" class="edge">
<title>Node24&#45;&gt;Node34</title>
<path fill="none" stroke="midnightblue" d="M1674.76,-422.48C1594.89,-413.84 1481.48,-398.89 1384,-376 1381.12,-375.32 1378.2,-374.59 1375.25,-373.8"/>
<polygon fill="midnightblue" stroke="midnightblue" points="1674.5,-425.98 1684.82,-423.56 1675.25,-419.01 1674.5,-425.98"/>
</g>
<!-- Node35 -->
<g id="node35" class="node">
<title>Node35</title>
<g id="a_node35"><a xlink:href="pySymbolicExpression_8cpp.html" target="_top" xlink:title=" ">
<polygon fill="white" stroke="black" points="1393,-323.5 1393,-375.5 1543,-375.5 1543,-323.5 1393,-323.5"/>
<text text-anchor="start" x="1401" y="-363.5" font-family="Helvetica,sans-Serif" font-size="10.00">/home/jonathan/Works</text>
<text text-anchor="start" x="1401" y="-352.5" font-family="Helvetica,sans-Serif" font-size="10.00">/Tools/Triton/src/libtriton</text>
<text text-anchor="start" x="1401" y="-341.5" font-family="Helvetica,sans-Serif" font-size="10.00">/bindings/python/objects</text>
<text text-anchor="middle" x="1468" y="-330.5" font-family="Helvetica,sans-Serif" font-size="10.00">/pySymbolicExpression.cpp</text>
</a>
</g>
</g>
<!-- Node24&#45;&gt;Node35 -->
<g id="edge45" class="edge">
<title>Node24&#45;&gt;Node35</title>
<path fill="none" stroke="midnightblue" d="M1685.22,-410.07C1644.59,-400.11 1596.3,-387.9 1553,-376 1549.73,-375.1 1546.4,-374.17 1543.03,-373.22"/>
<polygon fill="midnightblue" stroke="midnightblue" points="1684.56,-413.52 1695.1,-412.49 1686.22,-406.72 1684.56,-413.52"/>
</g>
<!-- Node36 -->
<g id="node36" class="node">
<title>Node36</title>
<g id="a_node36"><a xlink:href="pySymbolicVariable_8cpp.html" target="_top" xlink:title=" ">
<polygon fill="white" stroke="black" points="1561.5,-323.5 1561.5,-375.5 1698.5,-375.5 1698.5,-323.5 1561.5,-323.5"/>
<text text-anchor="start" x="1569.5" y="-363.5" font-family="Helvetica,sans-Serif" font-size="10.00">/home/jonathan/Works</text>
<text text-anchor="start" x="1569.5" y="-352.5" font-family="Helvetica,sans-Serif" font-size="10.00">/Tools/Triton/src/libtriton</text>
<text text-anchor="start" x="1569.5" y="-341.5" font-family="Helvetica,sans-Serif" font-size="10.00">/bindings/python/objects</text>
<text text-anchor="middle" x="1630" y="-330.5" font-family="Helvetica,sans-Serif" font-size="10.00">/pySymbolicVariable.cpp</text>
</a>
</g>
</g>
<!-- Node24&#45;&gt;Node36 -->
<g id="edge46" class="edge">
<title>Node24&#45;&gt;Node36</title>
<path fill="none" stroke="midnightblue" d="M1732.59,-407.38C1714.43,-397.31 1693.46,-385.69 1675.23,-375.58"/>
<polygon fill="midnightblue" stroke="midnightblue" points="1731.35,-410.69 1741.79,-412.48 1734.74,-404.57 1731.35,-410.69"/>
</g>
</g>
</svg>
