<?xml version="1.0" encoding="UTF-8" standalone="no"?>
<!DOCTYPE svg PUBLIC "-//W3C//DTD SVG 1.1//EN"
 "http://www.w3.org/Graphics/SVG/1.1/DTD/svg11.dtd">
<!-- Generated by graphviz version 2.49.0 (20210828.1703)
 -->
<!-- Title: /home/jonathan/Works/Tools/Triton/src/libtriton/includes/triton/pathConstraint.hpp Pages: 1 -->
<svg width="3257pt" height="540pt"
 viewBox="0.00 0.00 3257.00 540.00" xmlns="http://www.w3.org/2000/svg" xmlns:xlink="http://www.w3.org/1999/xlink">
<g id="graph0" class="graph" transform="scale(1 1) rotate(0) translate(4 536)">
<title>/home/jonathan/Works/Tools/Triton/src/libtriton/includes/triton/pathConstraint.hpp</title>
<polygon fill="white" stroke="transparent" points="-4,4 -4,-536 3253,-536 3253,4 -4,4"/>
<!-- Node1 -->
<g id="node1" class="node">
<title>Node1</title>
<g id="a_node1"><a xlink:title=" ">
<polygon fill="#bfbfbf" stroke="black" points="1698.5,-490.5 1698.5,-531.5 1883.5,-531.5 1883.5,-490.5 1698.5,-490.5"/>
<text text-anchor="start" x="1706.5" y="-519.5" font-family="Helvetica,sans-Serif" font-size="10.00">/home/jonathan/Works</text>
<text text-anchor="start" x="1706.5" y="-508.5" font-family="Helvetica,sans-Serif" font-size="10.00">/Tools/Triton/src/libtriton</text>
<text text-anchor="middle" x="1791" y="-497.5" font-family="Helvetica,sans-Serif" font-size="10.00">/includes/triton/pathConstraint.hpp</text>
</a>
</g>
</g>
<!-- Node2 -->
<g id="node2" class="node">
<title>Node2</title>
<g id="a_node2"><a xlink:href="pyPathConstraint_8cpp.html" target="_top" xlink:title=" ">
<polygon fill="white" stroke="black" points="1177,-323.5 1177,-375.5 1313,-375.5 1313,-323.5 1177,-323.5"/>
<text text-anchor="start" x="1185" y="-363.5" font-family="Helvetica,sans-Serif" font-size="10.00">/home/jonathan/Works</text>
<text text-anchor="start" x="1185" y="-352.5" font-family="Helvetica,sans-Serif" font-size="10.00">/Tools/Triton/src/libtriton</text>
<text text-anchor="start" x="1185" y="-341.5" font-family="Helvetica,sans-Serif" font-size="10.00">/bindings/python/objects</text>
<text text-anchor="middle" x="1245" y="-330.5" font-family="Helvetica,sans-Serif" font-size="10.00">/pyPathConstraint.cpp</text>
</a>
</g>
</g>
<!-- Node1&#45;&gt;Node2 -->
<g id="edge1" class="edge">
<title>Node1&#45;&gt;Node2</title>
<path fill="none" stroke="midnightblue" d="M1709.51,-487.82C1615.71,-462.04 1457.21,-417.69 1322,-376 1319.17,-375.13 1316.29,-374.23 1313.39,-373.31"/>
<polygon fill="midnightblue" stroke="midnightblue" points="1708.65,-491.21 1719.22,-490.49 1710.5,-484.46 1708.65,-491.21"/>
</g>
<!-- Node3 -->
<g id="node3" class="node">
<title>Node3</title>
<g id="a_node3"><a xlink:href="pathConstraint_8cpp.html" target="_top" xlink:title=" ">
<polygon fill="white" stroke="black" points="2133,-412.5 2133,-453.5 2333,-453.5 2333,-412.5 2133,-412.5"/>
<text text-anchor="start" x="2141" y="-441.5" font-family="Helvetica,sans-Serif" font-size="10.00">/home/jonathan/Works</text>
<text text-anchor="start" x="2141" y="-430.5" font-family="Helvetica,sans-Serif" font-size="10.00">/Tools/Triton/src/libtriton</text>
<text text-anchor="middle" x="2233" y="-419.5" font-family="Helvetica,sans-Serif" font-size="10.00">/engines/symbolic/pathConstraint.cpp</text>
</a>
</g>
</g>
<!-- Node1&#45;&gt;Node3 -->
<g id="edge2" class="edge">
<title>Node1&#45;&gt;Node3</title>
<path fill="none" stroke="midnightblue" d="M1893.62,-493.15C1959.49,-482.23 2046.84,-467.57 2124,-454 2126.94,-453.48 2129.92,-452.96 2132.93,-452.42"/>
<polygon fill="midnightblue" stroke="midnightblue" points="1892.94,-489.71 1883.65,-494.8 1894.09,-496.62 1892.94,-489.71"/>
</g>
<!-- Node4 -->
<g id="node4" class="node">
<title>Node4</title>
<g id="a_node4"><a xlink:href="pathManager_8hpp.html" target="_top" xlink:title=" ">
<polygon fill="white" stroke="black" points="974.5,-412.5 974.5,-453.5 1151.5,-453.5 1151.5,-412.5 974.5,-412.5"/>
<text text-anchor="start" x="982.5" y="-441.5" font-family="Helvetica,sans-Serif" font-size="10.00">/home/jonathan/Works</text>
<text text-anchor="start" x="982.5" y="-430.5" font-family="Helvetica,sans-Serif" font-size="10.00">/Tools/Triton/src/libtriton</text>
<text text-anchor="middle" x="1063" y="-419.5" font-family="Helvetica,sans-Serif" font-size="10.00">/includes/triton/pathManager.hpp</text>
</a>
</g>
</g>
<!-- Node1&#45;&gt;Node4 -->
<g id="edge3" class="edge">
<title>Node1&#45;&gt;Node4</title>
<path fill="none" stroke="midnightblue" d="M1688.3,-499.28C1544.85,-484.3 1286.92,-457.38 1151.51,-443.24"/>
<polygon fill="midnightblue" stroke="midnightblue" points="1688.12,-502.78 1698.43,-500.34 1688.85,-495.82 1688.12,-502.78"/>
</g>
<!-- Node29 -->
<g id="node29" class="node">
<title>Node29</title>
<g id="a_node29"><a xlink:href="pythonObjects_8hpp.html" target="_top" xlink:title=" ">
<polygon fill="white" stroke="black" points="1931,-412.5 1931,-453.5 2115,-453.5 2115,-412.5 1931,-412.5"/>
<text text-anchor="start" x="1939" y="-441.5" font-family="Helvetica,sans-Serif" font-size="10.00">/home/jonathan/Works</text>
<text text-anchor="start" x="1939" y="-430.5" font-family="Helvetica,sans-Serif" font-size="10.00">/Tools/Triton/src/libtriton</text>
<text text-anchor="middle" x="2023" y="-419.5" font-family="Helvetica,sans-Serif" font-size="10.00">/includes/triton/pythonObjects.hpp</text>
</a>
</g>
</g>
<!-- Node1&#45;&gt;Node29 -->
<g id="edge41" class="edge">
<title>Node1&#45;&gt;Node29</title>
<path fill="none" stroke="midnightblue" d="M1860.28,-487.3C1893.12,-476.55 1931.96,-463.82 1963.46,-453.51"/>
<polygon fill="midnightblue" stroke="midnightblue" points="1859.16,-483.99 1850.75,-490.43 1861.34,-490.64 1859.16,-483.99"/>
</g>
<!-- Node5 -->
<g id="node5" class="node">
<title>Node5</title>
<g id="a_node5"><a xlink:href="pathManager_8cpp.html" target="_top" xlink:title=" ">
<polygon fill="white" stroke="black" points="967,-329 967,-370 1159,-370 1159,-329 967,-329"/>
<text text-anchor="start" x="975" y="-358" font-family="Helvetica,sans-Serif" font-size="10.00">/home/jonathan/Works</text>
<text text-anchor="start" x="975" y="-347" font-family="Helvetica,sans-Serif" font-size="10.00">/Tools/Triton/src/libtriton</text>
<text text-anchor="middle" x="1063" y="-336" font-family="Helvetica,sans-Serif" font-size="10.00">/engines/symbolic/pathManager.cpp</text>
</a>
</g>
</g>
<!-- Node4&#45;&gt;Node5 -->
<g id="edge4" class="edge">
<title>Node4&#45;&gt;Node5</title>
<path fill="none" stroke="midnightblue" d="M1063,-402.06C1063,-391.38 1063,-379.63 1063,-370.05"/>
<polygon fill="midnightblue" stroke="midnightblue" points="1059.5,-402.27 1063,-412.27 1066.5,-402.27 1059.5,-402.27"/>
</g>
<!-- Node6 -->
<g id="node6" class="node">
<title>Node6</title>
<g id="a_node6"><a xlink:href="symbolicEngine_8hpp.html" target="_top" xlink:title=" ">
<polygon fill="white" stroke="black" points="757.5,-329 757.5,-370 948.5,-370 948.5,-329 757.5,-329"/>
<text text-anchor="start" x="765.5" y="-358" font-family="Helvetica,sans-Serif" font-size="10.00">/home/jonathan/Works</text>
<text text-anchor="start" x="765.5" y="-347" font-family="Helvetica,sans-Serif" font-size="10.00">/Tools/Triton/src/libtriton</text>
<text text-anchor="middle" x="853" y="-336" font-family="Helvetica,sans-Serif" font-size="10.00">/includes/triton/symbolicEngine.hpp</text>
</a>
</g>
</g>
<!-- Node4&#45;&gt;Node6 -->
<g id="edge5" class="edge">
<title>Node4&#45;&gt;Node6</title>
<path fill="none" stroke="midnightblue" d="M1003.13,-408.77C971.56,-396.51 933.27,-381.65 903.25,-370"/>
<polygon fill="midnightblue" stroke="midnightblue" points="1002.11,-412.12 1012.7,-412.48 1004.64,-405.6 1002.11,-412.12"/>
</g>
<!-- Node7 -->
<g id="node7" class="node">
<title>Node7</title>
<g id="a_node7"><a xlink:href="symbolicEngine_8cpp.html" target="_top" xlink:title=" ">
<polygon fill="white" stroke="black" points="620,-245.5 620,-286.5 826,-286.5 826,-245.5 620,-245.5"/>
<text text-anchor="start" x="628" y="-274.5" font-family="Helvetica,sans-Serif" font-size="10.00">/home/jonathan/Works</text>
<text text-anchor="start" x="628" y="-263.5" font-family="Helvetica,sans-Serif" font-size="10.00">/Tools/Triton/src/libtriton</text>
<text text-anchor="middle" x="723" y="-252.5" font-family="Helvetica,sans-Serif" font-size="10.00">/engines/symbolic/symbolicEngine.cpp</text>
</a>
</g>
</g>
<!-- Node6&#45;&gt;Node7 -->
<g id="edge6" class="edge">
<title>Node6&#45;&gt;Node7</title>
<path fill="none" stroke="midnightblue" d="M813.17,-323.53C794.27,-311.68 772.01,-297.72 754.33,-286.64"/>
<polygon fill="midnightblue" stroke="midnightblue" points="811.53,-326.63 821.86,-328.98 815.25,-320.7 811.53,-326.63"/>
</g>
<!-- Node8 -->
<g id="node8" class="node">
<title>Node8</title>
<g id="a_node8"><a xlink:href="aarch64Semantics_8hpp.html" target="_top" xlink:title=" ">
<polygon fill="white" stroke="black" points="1252.5,-167.5 1252.5,-208.5 1455.5,-208.5 1455.5,-167.5 1252.5,-167.5"/>
<text text-anchor="start" x="1260.5" y="-196.5" font-family="Helvetica,sans-Serif" font-size="10.00">/home/jonathan/Works</text>
<text text-anchor="start" x="1260.5" y="-185.5" font-family="Helvetica,sans-Serif" font-size="10.00">/Tools/Triton/src/libtriton</text>
<text text-anchor="middle" x="1354" y="-174.5" font-family="Helvetica,sans-Serif" font-size="10.00">/includes/triton/aarch64Semantics.hpp</text>
</a>
</g>
</g>
<!-- Node6&#45;&gt;Node8 -->
<g id="edge7" class="edge">
<title>Node6&#45;&gt;Node8</title>
<path fill="none" stroke="midnightblue" d="M939.09,-326.76C945.47,-325.4 951.82,-324.13 958,-323 1085.32,-299.69 1129.49,-341.28 1247,-287 1285.88,-269.04 1320.3,-231.72 1339.05,-208.67"/>
<polygon fill="midnightblue" stroke="midnightblue" points="938.08,-323.39 929.05,-328.95 939.57,-330.23 938.08,-323.39"/>
</g>
<!-- Node11 -->
<g id="node11" class="node">
<title>Node11</title>
<g id="a_node11"><a xlink:href="api_8hpp.html" target="_top" xlink:title=" ">
<polygon fill="white" stroke="black" points="820.5,-89.5 820.5,-130.5 953.5,-130.5 953.5,-89.5 820.5,-89.5"/>
<text text-anchor="start" x="828.5" y="-118.5" font-family="Helvetica,sans-Serif" font-size="10.00">/home/jonathan/Works</text>
<text text-anchor="start" x="828.5" y="-107.5" font-family="Helvetica,sans-Serif" font-size="10.00">/Tools/Triton/src/libtriton</text>
<text text-anchor="middle" x="887" y="-96.5" font-family="Helvetica,sans-Serif" font-size="10.00">/includes/triton/api.hpp</text>
</a>
</g>
</g>
<!-- Node6&#45;&gt;Node11 -->
<g id="edge10" class="edge">
<title>Node6&#45;&gt;Node11</title>
<path fill="none" stroke="midnightblue" d="M747.03,-334.57C690.16,-324.69 628.26,-309.19 611,-287 578.26,-244.9 577.24,-208.29 611,-167 636.96,-135.25 747.4,-121.06 820.47,-115.06"/>
<polygon fill="midnightblue" stroke="midnightblue" points="746.76,-338.07 757.21,-336.29 747.93,-331.17 746.76,-338.07"/>
</g>
<!-- Node15 -->
<g id="node15" class="node">
<title>Node15</title>
<g id="a_node15"><a xlink:href="arm32Semantics_8hpp.html" target="_top" xlink:title=" ">
<polygon fill="white" stroke="black" points="1473,-167.5 1473,-208.5 1669,-208.5 1669,-167.5 1473,-167.5"/>
<text text-anchor="start" x="1481" y="-196.5" font-family="Helvetica,sans-Serif" font-size="10.00">/home/jonathan/Works</text>
<text text-anchor="start" x="1481" y="-185.5" font-family="Helvetica,sans-Serif" font-size="10.00">/Tools/Triton/src/libtriton</text>
<text text-anchor="middle" x="1571" y="-174.5" font-family="Helvetica,sans-Serif" font-size="10.00">/includes/triton/arm32Semantics.hpp</text>
</a>
</g>
</g>
<!-- Node6&#45;&gt;Node15 -->
<g id="edge14" class="edge">
<title>Node6&#45;&gt;Node15</title>
<path fill="none" stroke="midnightblue" d="M938.03,-326.86C944.77,-325.45 951.48,-324.14 958,-323 1103.76,-297.48 1144.63,-319.5 1289,-287 1374.46,-267.76 1469.98,-231.22 1525.04,-208.6"/>
<polygon fill="midnightblue" stroke="midnightblue" points="937.21,-323.46 928.17,-329 938.69,-330.3 937.21,-323.46"/>
</g>
<!-- Node17 -->
<g id="node17" class="node">
<title>Node17</title>
<g id="a_node17"><a xlink:href="irBuilder_8hpp.html" target="_top" xlink:title=" ">
<polygon fill="white" stroke="black" points="862,-167.5 862,-208.5 1016,-208.5 1016,-167.5 862,-167.5"/>
<text text-anchor="start" x="870" y="-196.5" font-family="Helvetica,sans-Serif" font-size="10.00">/home/jonathan/Works</text>
<text text-anchor="start" x="870" y="-185.5" font-family="Helvetica,sans-Serif" font-size="10.00">/Tools/Triton/src/libtriton</text>
<text text-anchor="middle" x="939" y="-174.5" font-family="Helvetica,sans-Serif" font-size="10.00">/includes/triton/irBuilder.hpp</text>
</a>
</g>
</g>
<!-- Node6&#45;&gt;Node17 -->
<g id="edge17" class="edge">
<title>Node6&#45;&gt;Node17</title>
<path fill="none" stroke="midnightblue" d="M942.49,-325.99C977.56,-315.21 1011.85,-301.49 1022,-287 1032.71,-271.71 1030.76,-261.48 1022,-245 1013.76,-229.5 999.1,-217.51 984.37,-208.68"/>
<polygon fill="midnightblue" stroke="midnightblue" points="941.18,-322.73 932.6,-328.96 943.19,-329.44 941.18,-322.73"/>
</g>
<!-- Node18 -->
<g id="node18" class="node">
<title>Node18</title>
<g id="a_node18"><a xlink:href="liftingEngine_8hpp.html" target="_top" xlink:title=" ">
<polygon fill="white" stroke="black" points="188,-167.5 188,-208.5 362,-208.5 362,-167.5 188,-167.5"/>
<text text-anchor="start" x="196" y="-196.5" font-family="Helvetica,sans-Serif" font-size="10.00">/home/jonathan/Works</text>
<text text-anchor="start" x="196" y="-185.5" font-family="Helvetica,sans-Serif" font-size="10.00">/Tools/Triton/src/libtriton</text>
<text text-anchor="middle" x="275" y="-174.5" font-family="Helvetica,sans-Serif" font-size="10.00">/includes/triton/liftingEngine.hpp</text>
</a>
</g>
</g>
<!-- Node6&#45;&gt;Node18 -->
<g id="edge20" class="edge">
<title>Node6&#45;&gt;Node18</title>
<path fill="none" stroke="midnightblue" d="M747.27,-343.72C625.3,-336.71 433.42,-320.63 370,-287 348.02,-275.34 350.18,-262.99 333,-245 321.11,-232.55 307.25,-219.14 296.07,-208.56"/>
<polygon fill="midnightblue" stroke="midnightblue" points="747.2,-347.22 757.38,-344.29 747.59,-340.23 747.2,-347.22"/>
</g>
<!-- Node19 -->
<g id="node19" class="node">
<title>Node19</title>
<g id="a_node19"><a xlink:href="liftingToPython_8hpp.html" target="_top" xlink:title=" ">
<polygon fill="white" stroke="black" points="379.5,-245.5 379.5,-286.5 564.5,-286.5 564.5,-245.5 379.5,-245.5"/>
<text text-anchor="start" x="387.5" y="-274.5" font-family="Helvetica,sans-Serif" font-size="10.00">/home/jonathan/Works</text>
<text text-anchor="start" x="387.5" y="-263.5" font-family="Helvetica,sans-Serif" font-size="10.00">/Tools/Triton/src/libtriton</text>
<text text-anchor="middle" x="472" y="-252.5" font-family="Helvetica,sans-Serif" font-size="10.00">/includes/triton/liftingToPython.hpp</text>
</a>
</g>
</g>
<!-- Node6&#45;&gt;Node19 -->
<g id="edge22" class="edge">
<title>Node6&#45;&gt;Node19</title>
<path fill="none" stroke="midnightblue" d="M751.72,-326.84C693.12,-314.3 619.97,-298.65 563.17,-286.5"/>
<polygon fill="midnightblue" stroke="midnightblue" points="751.23,-330.31 761.74,-328.98 752.69,-323.46 751.23,-330.31"/>
</g>
<!-- Node21 -->
<g id="node21" class="node">
<title>Node21</title>
<g id="a_node21"><a xlink:href="liftingToSMT_8hpp.html" target="_top" xlink:title=" ">
<polygon fill="white" stroke="black" points="152,-245.5 152,-286.5 324,-286.5 324,-245.5 152,-245.5"/>
<text text-anchor="start" x="160" y="-274.5" font-family="Helvetica,sans-Serif" font-size="10.00">/home/jonathan/Works</text>
<text text-anchor="start" x="160" y="-263.5" font-family="Helvetica,sans-Serif" font-size="10.00">/Tools/Triton/src/libtriton</text>
<text text-anchor="middle" x="238" y="-252.5" font-family="Helvetica,sans-Serif" font-size="10.00">/includes/triton/liftingToSMT.hpp</text>
</a>
</g>
</g>
<!-- Node6&#45;&gt;Node21 -->
<g id="edge25" class="edge">
<title>Node6&#45;&gt;Node21</title>
<path fill="none" stroke="midnightblue" d="M747.07,-338.31C642.72,-327.69 478.92,-309.47 338,-287 333.45,-286.28 328.8,-285.49 324.11,-284.67"/>
<polygon fill="midnightblue" stroke="midnightblue" points="746.99,-341.82 757.3,-339.34 747.7,-334.85 746.99,-341.82"/>
</g>
<!-- Node23 -->
<g id="node23" class="node">
<title>Node23</title>
<g id="a_node23"><a xlink:href="synthesizer_8hpp.html" target="_top" xlink:title=" ">
<polygon fill="white" stroke="black" points="844.5,-245.5 844.5,-286.5 1013.5,-286.5 1013.5,-245.5 844.5,-245.5"/>
<text text-anchor="start" x="852.5" y="-274.5" font-family="Helvetica,sans-Serif" font-size="10.00">/home/jonathan/Works</text>
<text text-anchor="start" x="852.5" y="-263.5" font-family="Helvetica,sans-Serif" font-size="10.00">/Tools/Triton/src/libtriton</text>
<text text-anchor="middle" x="929" y="-252.5" font-family="Helvetica,sans-Serif" font-size="10.00">/includes/triton/synthesizer.hpp</text>
</a>
</g>
</g>
<!-- Node6&#45;&gt;Node23 -->
<g id="edge28" class="edge">
<title>Node6&#45;&gt;Node23</title>
<path fill="none" stroke="midnightblue" d="M878.45,-321.21C889.04,-309.86 901.09,-296.93 910.77,-286.55"/>
<polygon fill="midnightblue" stroke="midnightblue" points="875.66,-319.07 871.4,-328.77 880.78,-323.84 875.66,-319.07"/>
</g>
<!-- Node25 -->
<g id="node25" class="node">
<title>Node25</title>
<g id="a_node25"><a xlink:href="taintEngine_8hpp.html" target="_top" xlink:title=" ">
<polygon fill="white" stroke="black" points="1068.5,-245.5 1068.5,-286.5 1237.5,-286.5 1237.5,-245.5 1068.5,-245.5"/>
<text text-anchor="start" x="1076.5" y="-274.5" font-family="Helvetica,sans-Serif" font-size="10.00">/home/jonathan/Works</text>
<text text-anchor="start" x="1076.5" y="-263.5" font-family="Helvetica,sans-Serif" font-size="10.00">/Tools/Triton/src/libtriton</text>
<text text-anchor="middle" x="1153" y="-252.5" font-family="Helvetica,sans-Serif" font-size="10.00">/includes/triton/taintEngine.hpp</text>
</a>
</g>
</g>
<!-- Node6&#45;&gt;Node25 -->
<g id="edge31" class="edge">
<title>Node6&#45;&gt;Node25</title>
<path fill="none" stroke="midnightblue" d="M934.76,-326.29C980.55,-313.85 1037.13,-298.48 1081.21,-286.5"/>
<polygon fill="midnightblue" stroke="midnightblue" points="933.59,-322.98 924.86,-328.98 935.43,-329.73 933.59,-322.98"/>
</g>
<!-- Node27 -->
<g id="node27" class="node">
<title>Node27</title>
<g id="a_node27"><a xlink:href="x86Semantics_8hpp.html" target="_top" xlink:title=" ">
<polygon fill="white" stroke="black" points="1687,-167.5 1687,-208.5 1869,-208.5 1869,-167.5 1687,-167.5"/>
<text text-anchor="start" x="1695" y="-196.5" font-family="Helvetica,sans-Serif" font-size="10.00">/home/jonathan/Works</text>
<text text-anchor="start" x="1695" y="-185.5" font-family="Helvetica,sans-Serif" font-size="10.00">/Tools/Triton/src/libtriton</text>
<text text-anchor="middle" x="1778" y="-174.5" font-family="Helvetica,sans-Serif" font-size="10.00">/includes/triton/x86Semantics.hpp</text>
</a>
</g>
</g>
<!-- Node6&#45;&gt;Node27 -->
<g id="edge40" class="edge">
<title>Node6&#45;&gt;Node27</title>
<path fill="none" stroke="midnightblue" d="M937.43,-326.82C944.36,-325.4 951.28,-324.1 958,-323 1140.7,-293.07 1190.29,-316.86 1373,-287 1493.48,-267.31 1631.1,-231 1710.92,-208.53"/>
<polygon fill="midnightblue" stroke="midnightblue" points="936.33,-323.48 927.28,-328.98 937.79,-330.32 936.33,-323.48"/>
</g>
<!-- Node9 -->
<g id="node9" class="node">
<title>Node9</title>
<g id="a_node9"><a xlink:href="aarch64Semantics_8cpp.html" target="_top" xlink:title=" ">
<polygon fill="white" stroke="black" points="1087,-89.5 1087,-130.5 1305,-130.5 1305,-89.5 1087,-89.5"/>
<text text-anchor="start" x="1095" y="-118.5" font-family="Helvetica,sans-Serif" font-size="10.00">/home/jonathan/Works</text>
<text text-anchor="start" x="1095" y="-107.5" font-family="Helvetica,sans-Serif" font-size="10.00">/Tools/Triton/src/libtriton</text>
<text text-anchor="middle" x="1196" y="-96.5" font-family="Helvetica,sans-Serif" font-size="10.00">/arch/arm/aarch64/aarch64Semantics.cpp</text>
</a>
</g>
</g>
<!-- Node8&#45;&gt;Node9 -->
<g id="edge8" class="edge">
<title>Node8&#45;&gt;Node9</title>
<path fill="none" stroke="midnightblue" d="M1304.21,-163.05C1282.41,-152.57 1257.17,-140.42 1236.55,-130.51"/>
<polygon fill="midnightblue" stroke="midnightblue" points="1302.78,-166.25 1313.31,-167.43 1305.82,-159.94 1302.78,-166.25"/>
</g>
<!-- Node10 -->
<g id="node10" class="node">
<title>Node10</title>
<g id="a_node10"><a xlink:href="irBuilder_8cpp.html" target="_top" xlink:title=" ">
<polygon fill="white" stroke="black" points="1323.5,-89.5 1323.5,-130.5 1456.5,-130.5 1456.5,-89.5 1323.5,-89.5"/>
<text text-anchor="start" x="1331.5" y="-118.5" font-family="Helvetica,sans-Serif" font-size="10.00">/home/jonathan/Works</text>
<text text-anchor="start" x="1331.5" y="-107.5" font-family="Helvetica,sans-Serif" font-size="10.00">/Tools/Triton/src/libtriton</text>
<text text-anchor="middle" x="1390" y="-96.5" font-family="Helvetica,sans-Serif" font-size="10.00">/arch/irBuilder.cpp</text>
</a>
</g>
</g>
<!-- Node8&#45;&gt;Node10 -->
<g id="edge9" class="edge">
<title>Node8&#45;&gt;Node10</title>
<path fill="none" stroke="midnightblue" d="M1367.65,-158.17C1372.03,-148.93 1376.78,-138.92 1380.76,-130.51"/>
<polygon fill="midnightblue" stroke="midnightblue" points="1364.39,-156.89 1363.27,-167.43 1370.71,-159.89 1364.39,-156.89"/>
</g>
<!-- Node12 -->
<g id="node12" class="node">
<title>Node12</title>
<g id="a_node12"><a xlink:href="api_8cpp.html" target="_top" xlink:title=" ">
<polygon fill="white" stroke="black" points="896.5,-6 896.5,-47 1029.5,-47 1029.5,-6 896.5,-6"/>
<text text-anchor="start" x="904.5" y="-35" font-family="Helvetica,sans-Serif" font-size="10.00">/home/jonathan/Works</text>
<text text-anchor="start" x="904.5" y="-24" font-family="Helvetica,sans-Serif" font-size="10.00">/Tools/Triton/src/libtriton</text>
<text text-anchor="middle" x="963" y="-13" font-family="Helvetica,sans-Serif" font-size="10.00">/api/api.cpp</text>
</a>
</g>
</g>
<!-- Node11&#45;&gt;Node12 -->
<g id="edge11" class="edge">
<title>Node11&#45;&gt;Node12</title>
<path fill="none" stroke="midnightblue" d="M912.45,-81.71C923.04,-70.36 935.09,-57.43 944.77,-47.05"/>
<polygon fill="midnightblue" stroke="midnightblue" points="909.66,-79.57 905.4,-89.27 914.78,-84.34 909.66,-79.57"/>
</g>
<!-- Node13 -->
<g id="node13" class="node">
<title>Node13</title>
<g id="a_node13"><a xlink:href="pyTritonContext_8cpp.html" target="_top" xlink:title=" ">
<polygon fill="white" stroke="black" points="1476,-0.5 1476,-52.5 1612,-52.5 1612,-0.5 1476,-0.5"/>
<text text-anchor="start" x="1484" y="-40.5" font-family="Helvetica,sans-Serif" font-size="10.00">/home/jonathan/Works</text>
<text text-anchor="start" x="1484" y="-29.5" font-family="Helvetica,sans-Serif" font-size="10.00">/Tools/Triton/src/libtriton</text>
<text text-anchor="start" x="1484" y="-18.5" font-family="Helvetica,sans-Serif" font-size="10.00">/bindings/python/objects</text>
<text text-anchor="middle" x="1544" y="-7.5" font-family="Helvetica,sans-Serif" font-size="10.00">/pyTritonContext.cpp</text>
</a>
</g>
</g>
<!-- Node11&#45;&gt;Node13 -->
<g id="edge12" class="edge">
<title>Node11&#45;&gt;Node13</title>
<path fill="none" stroke="midnightblue" d="M963.83,-99.47C1093.19,-83.42 1352.38,-51.27 1475.74,-35.97"/>
<polygon fill="midnightblue" stroke="midnightblue" points="963.11,-96.03 953.61,-100.74 963.97,-102.98 963.11,-96.03"/>
</g>
<!-- Node14 -->
<g id="node14" class="node">
<title>Node14</title>
<g id="a_node14"><a xlink:href="callbacks_8cpp.html" target="_top" xlink:title=" ">
<polygon fill="white" stroke="black" points="744,-6 744,-47 878,-47 878,-6 744,-6"/>
<text text-anchor="start" x="752" y="-35" font-family="Helvetica,sans-Serif" font-size="10.00">/home/jonathan/Works</text>
<text text-anchor="start" x="752" y="-24" font-family="Helvetica,sans-Serif" font-size="10.00">/Tools/Triton/src/libtriton</text>
<text text-anchor="middle" x="811" y="-13" font-family="Helvetica,sans-Serif" font-size="10.00">/callbacks/callbacks.cpp</text>
</a>
</g>
</g>
<!-- Node11&#45;&gt;Node14 -->
<g id="edge13" class="edge">
<title>Node11&#45;&gt;Node14</title>
<path fill="none" stroke="midnightblue" d="M861.55,-81.71C850.96,-70.36 838.91,-57.43 829.23,-47.05"/>
<polygon fill="midnightblue" stroke="midnightblue" points="859.22,-84.34 868.6,-89.27 864.34,-79.57 859.22,-84.34"/>
</g>
<!-- Node15&#45;&gt;Node10 -->
<g id="edge16" class="edge">
<title>Node15&#45;&gt;Node10</title>
<path fill="none" stroke="midnightblue" d="M1514.96,-163.47C1489.77,-152.89 1460.39,-140.56 1436.45,-130.51"/>
<polygon fill="midnightblue" stroke="midnightblue" points="1513.81,-166.78 1524.39,-167.43 1516.52,-160.33 1513.81,-166.78"/>
</g>
<!-- Node16 -->
<g id="node16" class="node">
<title>Node16</title>
<g id="a_node16"><a xlink:href="arm32Semantics_8cpp.html" target="_top" xlink:title=" ">
<polygon fill="white" stroke="black" points="1474.5,-89.5 1474.5,-130.5 1677.5,-130.5 1677.5,-89.5 1474.5,-89.5"/>
<text text-anchor="start" x="1482.5" y="-118.5" font-family="Helvetica,sans-Serif" font-size="10.00">/home/jonathan/Works</text>
<text text-anchor="start" x="1482.5" y="-107.5" font-family="Helvetica,sans-Serif" font-size="10.00">/Tools/Triton/src/libtriton</text>
<text text-anchor="middle" x="1576" y="-96.5" font-family="Helvetica,sans-Serif" font-size="10.00">/arch/arm/arm32/arm32Semantics.cpp</text>
</a>
</g>
</g>
<!-- Node15&#45;&gt;Node16 -->
<g id="edge15" class="edge">
<title>Node15&#45;&gt;Node16</title>
<path fill="none" stroke="midnightblue" d="M1572.95,-157.3C1573.55,-148.3 1574.18,-138.65 1574.72,-130.51"/>
<polygon fill="midnightblue" stroke="midnightblue" points="1569.45,-157.22 1572.29,-167.43 1576.44,-157.68 1569.45,-157.22"/>
</g>
<!-- Node17&#45;&gt;Node10 -->
<g id="edge18" class="edge">
<title>Node17&#45;&gt;Node10</title>
<path fill="none" stroke="midnightblue" d="M1025.94,-172.78C1038.37,-170.8 1051.01,-168.83 1063,-167 1174.41,-150.03 1203.55,-153.38 1314,-131 1317.08,-130.38 1320.21,-129.7 1323.37,-129"/>
<polygon fill="midnightblue" stroke="midnightblue" points="1025.35,-169.33 1016.03,-174.36 1026.45,-176.24 1025.35,-169.33"/>
</g>
<!-- Node17&#45;&gt;Node11 -->
<g id="edge19" class="edge">
<title>Node17&#45;&gt;Node11</title>
<path fill="none" stroke="midnightblue" d="M919.87,-159.05C913.39,-149.57 906.28,-139.18 900.35,-130.51"/>
<polygon fill="midnightblue" stroke="midnightblue" points="917.07,-161.15 925.61,-167.43 922.85,-157.2 917.07,-161.15"/>
</g>
<!-- Node18&#45;&gt;Node11 -->
<g id="edge21" class="edge">
<title>Node18&#45;&gt;Node11</title>
<path fill="none" stroke="midnightblue" d="M372,-166.92C538.83,-140.97 723.68,-124.07 820.34,-116.15"/>
<polygon fill="midnightblue" stroke="midnightblue" points="371.39,-163.47 362.05,-168.48 372.47,-170.39 371.39,-163.47"/>
</g>
<!-- Node19&#45;&gt;Node18 -->
<g id="edge24" class="edge">
<title>Node19&#45;&gt;Node18</title>
<path fill="none" stroke="midnightblue" d="M411.73,-241.75C384.15,-231.11 351.84,-218.65 325.56,-208.51"/>
<polygon fill="midnightblue" stroke="midnightblue" points="410.68,-245.09 421.27,-245.43 413.2,-238.56 410.68,-245.09"/>
</g>
<!-- Node20 -->
<g id="node20" class="node">
<title>Node20</title>
<g id="a_node20"><a xlink:href="liftingToPython_8cpp.html" target="_top" xlink:title=" ">
<polygon fill="white" stroke="black" points="380,-167.5 380,-208.5 564,-208.5 564,-167.5 380,-167.5"/>
<text text-anchor="start" x="388" y="-196.5" font-family="Helvetica,sans-Serif" font-size="10.00">/home/jonathan/Works</text>
<text text-anchor="start" x="388" y="-185.5" font-family="Helvetica,sans-Serif" font-size="10.00">/Tools/Triton/src/libtriton</text>
<text text-anchor="middle" x="472" y="-174.5" font-family="Helvetica,sans-Serif" font-size="10.00">/engines/lifters/liftingToPython.cpp</text>
</a>
</g>
</g>
<!-- Node19&#45;&gt;Node20 -->
<g id="edge23" class="edge">
<title>Node19&#45;&gt;Node20</title>
<path fill="none" stroke="midnightblue" d="M472,-235.3C472,-226.3 472,-216.65 472,-208.51"/>
<polygon fill="midnightblue" stroke="midnightblue" points="468.5,-235.43 472,-245.43 475.5,-235.43 468.5,-235.43"/>
</g>
<!-- Node21&#45;&gt;Node18 -->
<g id="edge27" class="edge">
<title>Node21&#45;&gt;Node18</title>
<path fill="none" stroke="midnightblue" d="M252.03,-236.17C256.53,-226.93 261.41,-216.92 265.5,-208.51"/>
<polygon fill="midnightblue" stroke="midnightblue" points="248.76,-234.9 247.53,-245.43 255.05,-237.97 248.76,-234.9"/>
</g>
<!-- Node22 -->
<g id="node22" class="node">
<title>Node22</title>
<g id="a_node22"><a xlink:href="liftingToSMT_8cpp.html" target="_top" xlink:title=" ">
<polygon fill="white" stroke="black" points="0,-167.5 0,-208.5 170,-208.5 170,-167.5 0,-167.5"/>
<text text-anchor="start" x="8" y="-196.5" font-family="Helvetica,sans-Serif" font-size="10.00">/home/jonathan/Works</text>
<text text-anchor="start" x="8" y="-185.5" font-family="Helvetica,sans-Serif" font-size="10.00">/Tools/Triton/src/libtriton</text>
<text text-anchor="middle" x="85" y="-174.5" font-family="Helvetica,sans-Serif" font-size="10.00">/engines/lifters/liftingToSMT.cpp</text>
</a>
</g>
</g>
<!-- Node21&#45;&gt;Node22 -->
<g id="edge26" class="edge">
<title>Node21&#45;&gt;Node22</title>
<path fill="none" stroke="midnightblue" d="M189.5,-240.91C168.46,-230.46 144.15,-218.38 124.27,-208.51"/>
<polygon fill="midnightblue" stroke="midnightblue" points="188.09,-244.11 198.6,-245.43 191.2,-237.84 188.09,-244.11"/>
</g>
<!-- Node23&#45;&gt;Node11 -->
<g id="edge30" class="edge">
<title>Node23&#45;&gt;Node11</title>
<path fill="none" stroke="midnightblue" d="M880.14,-239.44C869.25,-231.27 859.13,-221.12 853,-209 839.92,-183.12 856.74,-151.03 871.03,-130.78"/>
<polygon fill="midnightblue" stroke="midnightblue" points="878.36,-242.46 888.57,-245.31 882.36,-236.72 878.36,-242.46"/>
</g>
<!-- Node24 -->
<g id="node24" class="node">
<title>Node24</title>
<g id="a_node24"><a xlink:href="synthesizer_8cpp.html" target="_top" xlink:title=" ">
<polygon fill="white" stroke="black" points="620,-167.5 620,-208.5 806,-208.5 806,-167.5 620,-167.5"/>
<text text-anchor="start" x="628" y="-196.5" font-family="Helvetica,sans-Serif" font-size="10.00">/home/jonathan/Works</text>
<text text-anchor="start" x="628" y="-185.5" font-family="Helvetica,sans-Serif" font-size="10.00">/Tools/Triton/src/libtriton</text>
<text text-anchor="middle" x="713" y="-174.5" font-family="Helvetica,sans-Serif" font-size="10.00">/engines/synthesis/synthesizer.cpp</text>
</a>
</g>
</g>
<!-- Node23&#45;&gt;Node24 -->
<g id="edge29" class="edge">
<title>Node23&#45;&gt;Node24</title>
<path fill="none" stroke="midnightblue" d="M863.71,-242.03C833.3,-231.33 797.51,-218.73 768.44,-208.51"/>
<polygon fill="midnightblue" stroke="midnightblue" points="862.78,-245.41 873.37,-245.43 865.1,-238.81 862.78,-245.41"/>
</g>
<!-- Node25&#45;&gt;Node8 -->
<g id="edge33" class="edge">
<title>Node25&#45;&gt;Node8</title>
<path fill="none" stroke="midnightblue" d="M1214.13,-241.89C1242.34,-231.22 1275.48,-218.69 1302.41,-208.51"/>
<polygon fill="midnightblue" stroke="midnightblue" points="1212.88,-238.62 1204.76,-245.43 1215.35,-245.17 1212.88,-238.62"/>
</g>
<!-- Node25&#45;&gt;Node11 -->
<g id="edge34" class="edge">
<title>Node25&#45;&gt;Node11</title>
<path fill="none" stroke="midnightblue" d="M1107.39,-240.01C1092.62,-231.05 1076.57,-220.33 1063,-209 1043.68,-192.86 1045.63,-181.43 1025,-167 1003.07,-151.66 976.32,-139.57 952.22,-130.61"/>
<polygon fill="midnightblue" stroke="midnightblue" points="1106,-243.26 1116.39,-245.35 1109.58,-237.24 1106,-243.26"/>
</g>
<!-- Node25&#45;&gt;Node15 -->
<g id="edge35" class="edge">
<title>Node25&#45;&gt;Node15</title>
<path fill="none" stroke="midnightblue" d="M1247.92,-248.19C1309.76,-237.18 1392.2,-222.4 1465,-209 1467.58,-208.53 1470.19,-208.04 1472.83,-207.55"/>
<polygon fill="midnightblue" stroke="midnightblue" points="1247.02,-244.79 1237.79,-249.99 1248.25,-251.69 1247.02,-244.79"/>
</g>
<!-- Node25&#45;&gt;Node17 -->
<g id="edge36" class="edge">
<title>Node25&#45;&gt;Node17</title>
<path fill="none" stroke="midnightblue" d="M1088.31,-242.03C1058.19,-231.33 1022.73,-218.73 993.92,-208.51"/>
<polygon fill="midnightblue" stroke="midnightblue" points="1087.29,-245.38 1097.89,-245.43 1089.64,-238.78 1087.29,-245.38"/>
</g>
<!-- Node26 -->
<g id="node26" class="node">
<title>Node26</title>
<g id="a_node26"><a xlink:href="taintEngine_8cpp.html" target="_top" xlink:title=" ">
<polygon fill="white" stroke="black" points="1072,-167.5 1072,-208.5 1234,-208.5 1234,-167.5 1072,-167.5"/>
<text text-anchor="start" x="1080" y="-196.5" font-family="Helvetica,sans-Serif" font-size="10.00">/home/jonathan/Works</text>
<text text-anchor="start" x="1080" y="-185.5" font-family="Helvetica,sans-Serif" font-size="10.00">/Tools/Triton/src/libtriton</text>
<text text-anchor="middle" x="1153" y="-174.5" font-family="Helvetica,sans-Serif" font-size="10.00">/engines/taint/taintEngine.cpp</text>
</a>
</g>
</g>
<!-- Node25&#45;&gt;Node26 -->
<g id="edge32" class="edge">
<title>Node25&#45;&gt;Node26</title>
<path fill="none" stroke="midnightblue" d="M1153,-235.3C1153,-226.3 1153,-216.65 1153,-208.51"/>
<polygon fill="midnightblue" stroke="midnightblue" points="1149.5,-235.43 1153,-245.43 1156.5,-235.43 1149.5,-235.43"/>
</g>
<!-- Node25&#45;&gt;Node27 -->
<g id="edge37" class="edge">
<title>Node25&#45;&gt;Node27</title>
<path fill="none" stroke="midnightblue" d="M1247.85,-257.5C1353.25,-248.56 1528.34,-231.9 1678,-209 1680.89,-208.56 1683.82,-208.09 1686.78,-207.6"/>
<polygon fill="midnightblue" stroke="midnightblue" points="1247.54,-254.02 1237.87,-258.34 1248.13,-260.99 1247.54,-254.02"/>
</g>
<!-- Node27&#45;&gt;Node10 -->
<g id="edge38" class="edge">
<title>Node27&#45;&gt;Node10</title>
<path fill="none" stroke="midnightblue" d="M1676.76,-166.81C1582.31,-149.71 1556.31,-150.51 1466,-131 1462.93,-130.34 1459.8,-129.63 1456.65,-128.9"/>
<polygon fill="midnightblue" stroke="midnightblue" points="1676.27,-170.27 1686.74,-168.63 1677.53,-163.39 1676.27,-170.27"/>
</g>
<!-- Node28 -->
<g id="node28" class="node">
<title>Node28</title>
<g id="a_node28"><a xlink:href="x86Semantics_8cpp.html" target="_top" xlink:title=" ">
<polygon fill="white" stroke="black" points="1701,-89.5 1701,-130.5 1855,-130.5 1855,-89.5 1701,-89.5"/>
<text text-anchor="start" x="1709" y="-118.5" font-family="Helvetica,sans-Serif" font-size="10.00">/home/jonathan/Works</text>
<text text-anchor="start" x="1709" y="-107.5" font-family="Helvetica,sans-Serif" font-size="10.00">/Tools/Triton/src/libtriton</text>
<text text-anchor="middle" x="1778" y="-96.5" font-family="Helvetica,sans-Serif" font-size="10.00">/arch/x86/x86Semantics.cpp</text>
</a>
</g>
</g>
<!-- Node27&#45;&gt;Node28 -->
<g id="edge39" class="edge">
<title>Node27&#45;&gt;Node28</title>
<path fill="none" stroke="midnightblue" d="M1778,-157.3C1778,-148.3 1778,-138.65 1778,-130.51"/>
<polygon fill="midnightblue" stroke="midnightblue" points="1774.5,-157.43 1778,-167.43 1781.5,-157.43 1774.5,-157.43"/>
</g>
<!-- Node29&#45;&gt;Node2 -->
<g id="edge50" class="edge">
<title>Node29&#45;&gt;Node2</title>
<path fill="none" stroke="midnightblue" d="M1920.62,-431.48C1783.13,-429.04 1531.84,-418.48 1322,-376 1319.1,-375.41 1316.16,-374.75 1313.2,-374.03"/>
<polygon fill="midnightblue" stroke="midnightblue" points="1920.67,-434.98 1930.72,-431.65 1920.78,-427.98 1920.67,-434.98"/>
</g>
<!-- Node29&#45;&gt;Node13 -->
<g id="edge55" class="edge">
<title>Node29&#45;&gt;Node13</title>
<path fill="none" stroke="midnightblue" d="M2005.59,-403.6C2000.92,-394.98 1996.26,-385.33 1993,-376 1976.73,-329.51 1973,-316.25 1973,-267 1973,-267 1973,-267 1973,-187 1973,-121.85 1922.34,-117.98 1864,-89 1783.44,-48.98 1679.51,-34.95 1612.32,-30.06"/>
<polygon fill="midnightblue" stroke="midnightblue" points="2002.63,-405.49 2010.6,-412.47 2008.73,-402.04 2002.63,-405.49"/>
</g>
<!-- Node30 -->
<g id="node30" class="node">
<title>Node30</title>
<g id="a_node30"><a xlink:href="tritonCallbacks_8cpp.html" target="_top" xlink:title=" ">
<polygon fill="white" stroke="black" points="2001.5,-323.5 2001.5,-375.5 2144.5,-375.5 2144.5,-323.5 2001.5,-323.5"/>
<text text-anchor="start" x="2009.5" y="-363.5" font-family="Helvetica,sans-Serif" font-size="10.00">/home/jonathan/Works</text>
<text text-anchor="start" x="2009.5" y="-352.5" font-family="Helvetica,sans-Serif" font-size="10.00">/Tools/Triton/src/libtriton</text>
<text text-anchor="start" x="2009.5" y="-341.5" font-family="Helvetica,sans-Serif" font-size="10.00">/bindings/python/modules</text>
<text text-anchor="middle" x="2073" y="-330.5" font-family="Helvetica,sans-Serif" font-size="10.00">/tritonCallbacks.cpp</text>
</a>
</g>
</g>
<!-- Node29&#45;&gt;Node30 -->
<g id="edge42" class="edge">
<title>Node29&#45;&gt;Node30</title>
<path fill="none" stroke="midnightblue" d="M2040.45,-403.55C2046.04,-394.45 2052.17,-384.45 2057.6,-375.61"/>
<polygon fill="midnightblue" stroke="midnightblue" points="2037.35,-401.92 2035.1,-412.27 2043.32,-405.58 2037.35,-401.92"/>
</g>
<!-- Node31 -->
<g id="node31" class="node">
<title>Node31</title>
<g id="a_node31"><a xlink:href="initRegNamespace_8cpp.html" target="_top" xlink:title=" ">
<polygon fill="white" stroke="black" points="2163,-323.5 2163,-375.5 2325,-375.5 2325,-323.5 2163,-323.5"/>
<text text-anchor="start" x="2171" y="-363.5" font-family="Helvetica,sans-Serif" font-size="10.00">/home/jonathan/Works</text>
<text text-anchor="start" x="2171" y="-352.5" font-family="Helvetica,sans-Serif" font-size="10.00">/Tools/Triton/src/libtriton</text>
<text text-anchor="start" x="2171" y="-341.5" font-family="Helvetica,sans-Serif" font-size="10.00">/bindings/python/namespaces</text>
<text text-anchor="middle" x="2244" y="-330.5" font-family="Helvetica,sans-Serif" font-size="10.00">/initRegNamespace.cpp</text>
</a>
</g>
</g>
<!-- Node29&#45;&gt;Node31 -->
<g id="edge43" class="edge">
<title>Node29&#45;&gt;Node31</title>
<path fill="none" stroke="midnightblue" d="M2085.68,-408.89C2113.87,-398.49 2147.21,-386.2 2176,-375.58"/>
<polygon fill="midnightblue" stroke="midnightblue" points="2084.11,-405.73 2075.94,-412.48 2086.53,-412.3 2084.11,-405.73"/>
</g>
<!-- Node32 -->
<g id="node32" class="node">
<title>Node32</title>
<g id="a_node32"><a xlink:href="pyAstContext_8cpp.html" target="_top" xlink:title=" ">
<polygon fill="white" stroke="black" points="2343,-323.5 2343,-375.5 2479,-375.5 2479,-323.5 2343,-323.5"/>
<text text-anchor="start" x="2351" y="-363.5" font-family="Helvetica,sans-Serif" font-size="10.00">/home/jonathan/Works</text>
<text text-anchor="start" x="2351" y="-352.5" font-family="Helvetica,sans-Serif" font-size="10.00">/Tools/Triton/src/libtriton</text>
<text text-anchor="start" x="2351" y="-341.5" font-family="Helvetica,sans-Serif" font-size="10.00">/bindings/python/objects</text>
<text text-anchor="middle" x="2411" y="-330.5" font-family="Helvetica,sans-Serif" font-size="10.00">/pyAstContext.cpp</text>
</a>
</g>
</g>
<!-- Node29&#45;&gt;Node32 -->
<g id="edge44" class="edge">
<title>Node29&#45;&gt;Node32</title>
<path fill="none" stroke="midnightblue" d="M2125.08,-411.84C2218.85,-395.05 2245.18,-398.19 2334,-376 2336.87,-375.28 2339.79,-374.51 2342.72,-373.7"/>
<polygon fill="midnightblue" stroke="midnightblue" points="2124.39,-408.41 2115.18,-413.65 2125.64,-415.3 2124.39,-408.41"/>
</g>
<!-- Node33 -->
<g id="node33" class="node">
<title>Node33</title>
<g id="a_node33"><a xlink:href="pyAstNode_8cpp.html" target="_top" xlink:title=" ">
<polygon fill="white" stroke="black" points="2497,-323.5 2497,-375.5 2633,-375.5 2633,-323.5 2497,-323.5"/>
<text text-anchor="start" x="2505" y="-363.5" font-family="Helvetica,sans-Serif" font-size="10.00">/home/jonathan/Works</text>
<text text-anchor="start" x="2505" y="-352.5" font-family="Helvetica,sans-Serif" font-size="10.00">/Tools/Triton/src/libtriton</text>
<text text-anchor="start" x="2505" y="-341.5" font-family="Helvetica,sans-Serif" font-size="10.00">/bindings/python/objects</text>
<text text-anchor="middle" x="2565" y="-330.5" font-family="Helvetica,sans-Serif" font-size="10.00">/pyAstNode.cpp</text>
</a>
</g>
</g>
<!-- Node29&#45;&gt;Node33 -->
<g id="edge45" class="edge">
<title>Node29&#45;&gt;Node33</title>
<path fill="none" stroke="midnightblue" d="M2125.42,-411.88C2286.67,-389.04 2332.24,-409.07 2488,-376 2490.89,-375.39 2493.83,-374.7 2496.78,-373.96"/>
<polygon fill="midnightblue" stroke="midnightblue" points="2124.53,-408.47 2115.13,-413.37 2125.53,-415.4 2124.53,-408.47"/>
</g>
<!-- Node34 -->
<g id="node34" class="node">
<title>Node34</title>
<g id="a_node34"><a xlink:href="pyBitsVector_8cpp.html" target="_top" xlink:title=" ">
<polygon fill="white" stroke="black" points="2651,-323.5 2651,-375.5 2787,-375.5 2787,-323.5 2651,-323.5"/>
<text text-anchor="start" x="2659" y="-363.5" font-family="Helvetica,sans-Serif" font-size="10.00">/home/jonathan/Works</text>
<text text-anchor="start" x="2659" y="-352.5" font-family="Helvetica,sans-Serif" font-size="10.00">/Tools/Triton/src/libtriton</text>
<text text-anchor="start" x="2659" y="-341.5" font-family="Helvetica,sans-Serif" font-size="10.00">/bindings/python/objects</text>
<text text-anchor="middle" x="2719" y="-330.5" font-family="Helvetica,sans-Serif" font-size="10.00">/pyBitsVector.cpp</text>
</a>
</g>
</g>
<!-- Node29&#45;&gt;Node34 -->
<g id="edge46" class="edge">
<title>Node29&#45;&gt;Node34</title>
<path fill="none" stroke="midnightblue" d="M2125.11,-411.96C2354.57,-382.62 2418.78,-419.99 2642,-376 2644.9,-375.43 2647.84,-374.78 2650.8,-374.07"/>
<polygon fill="midnightblue" stroke="midnightblue" points="2124.58,-408.49 2115.12,-413.26 2125.49,-415.44 2124.58,-408.49"/>
</g>
<!-- Node35 -->
<g id="node35" class="node">
<title>Node35</title>
<g id="a_node35"><a xlink:href="pyImmediate_8cpp.html" target="_top" xlink:title=" ">
<polygon fill="white" stroke="black" points="2805,-323.5 2805,-375.5 2941,-375.5 2941,-323.5 2805,-323.5"/>
<text text-anchor="start" x="2813" y="-363.5" font-family="Helvetica,sans-Serif" font-size="10.00">/home/jonathan/Works</text>
<text text-anchor="start" x="2813" y="-352.5" font-family="Helvetica,sans-Serif" font-size="10.00">/Tools/Triton/src/libtriton</text>
<text text-anchor="start" x="2813" y="-341.5" font-family="Helvetica,sans-Serif" font-size="10.00">/bindings/python/objects</text>
<text text-anchor="middle" x="2873" y="-330.5" font-family="Helvetica,sans-Serif" font-size="10.00">/pyImmediate.cpp</text>
</a>
</g>
</g>
<!-- Node29&#45;&gt;Node35 -->
<g id="edge47" class="edge">
<title>Node29&#45;&gt;Node35</title>
<path fill="none" stroke="midnightblue" d="M2125.33,-411.94C2422.63,-376.12 2505.4,-430.88 2796,-376 2798.91,-375.45 2801.85,-374.82 2804.82,-374.13"/>
<polygon fill="midnightblue" stroke="midnightblue" points="2124.61,-408.51 2115.11,-413.2 2125.46,-415.45 2124.61,-408.51"/>
</g>
<!-- Node36 -->
<g id="node36" class="node">
<title>Node36</title>
<g id="a_node36"><a xlink:href="pyInstruction_8cpp.html" target="_top" xlink:title=" ">
<polygon fill="white" stroke="black" points="2959,-323.5 2959,-375.5 3095,-375.5 3095,-323.5 2959,-323.5"/>
<text text-anchor="start" x="2967" y="-363.5" font-family="Helvetica,sans-Serif" font-size="10.00">/home/jonathan/Works</text>
<text text-anchor="start" x="2967" y="-352.5" font-family="Helvetica,sans-Serif" font-size="10.00">/Tools/Triton/src/libtriton</text>
<text text-anchor="start" x="2967" y="-341.5" font-family="Helvetica,sans-Serif" font-size="10.00">/bindings/python/objects</text>
<text text-anchor="middle" x="3027" y="-330.5" font-family="Helvetica,sans-Serif" font-size="10.00">/pyInstruction.cpp</text>
</a>
</g>
</g>
<!-- Node29&#45;&gt;Node36 -->
<g id="edge48" class="edge">
<title>Node29&#45;&gt;Node36</title>
<path fill="none" stroke="midnightblue" d="M2125.17,-411.97C2490.66,-369.51 2591.85,-441.79 2950,-376 2952.91,-375.47 2955.86,-374.85 2958.82,-374.16"/>
<polygon fill="midnightblue" stroke="midnightblue" points="2124.63,-408.51 2115.11,-413.16 2125.45,-415.46 2124.63,-408.51"/>
</g>
<!-- Node37 -->
<g id="node37" class="node">
<title>Node37</title>
<g id="a_node37"><a xlink:href="pyMemoryAccess_8cpp.html" target="_top" xlink:title=" ">
<polygon fill="white" stroke="black" points="3113,-323.5 3113,-375.5 3249,-375.5 3249,-323.5 3113,-323.5"/>
<text text-anchor="start" x="3121" y="-363.5" font-family="Helvetica,sans-Serif" font-size="10.00">/home/jonathan/Works</text>
<text text-anchor="start" x="3121" y="-352.5" font-family="Helvetica,sans-Serif" font-size="10.00">/Tools/Triton/src/libtriton</text>
<text text-anchor="start" x="3121" y="-341.5" font-family="Helvetica,sans-Serif" font-size="10.00">/bindings/python/objects</text>
<text text-anchor="middle" x="3181" y="-330.5" font-family="Helvetica,sans-Serif" font-size="10.00">/pyMemoryAccess.cpp</text>
</a>
</g>
</g>
<!-- Node29&#45;&gt;Node37 -->
<g id="edge49" class="edge">
<title>Node29&#45;&gt;Node37</title>
<path fill="none" stroke="midnightblue" d="M2125.08,-411.99C2558.72,-362.89 2678.3,-452.7 3104,-376 3106.91,-375.48 3109.86,-374.87 3112.83,-374.19"/>
<polygon fill="midnightblue" stroke="midnightblue" points="2124.64,-408.52 2115.1,-413.14 2125.44,-415.47 2124.64,-408.52"/>
</g>
<!-- Node38 -->
<g id="node38" class="node">
<title>Node38</title>
<g id="a_node38"><a xlink:href="pyRegister_8cpp.html" target="_top" xlink:title=" ">
<polygon fill="white" stroke="black" points="1331,-323.5 1331,-375.5 1467,-375.5 1467,-323.5 1331,-323.5"/>
<text text-anchor="start" x="1339" y="-363.5" font-family="Helvetica,sans-Serif" font-size="10.00">/home/jonathan/Works</text>
<text text-anchor="start" x="1339" y="-352.5" font-family="Helvetica,sans-Serif" font-size="10.00">/Tools/Triton/src/libtriton</text>
<text text-anchor="start" x="1339" y="-341.5" font-family="Helvetica,sans-Serif" font-size="10.00">/bindings/python/objects</text>
<text text-anchor="middle" x="1399" y="-330.5" font-family="Helvetica,sans-Serif" font-size="10.00">/pyRegister.cpp</text>
</a>
</g>
</g>
<!-- Node29&#45;&gt;Node38 -->
<g id="edge51" class="edge">
<title>Node29&#45;&gt;Node38</title>
<path fill="none" stroke="midnightblue" d="M1920.43,-428.16C1809.73,-422.48 1628.75,-408.7 1476,-376 1473.11,-375.38 1470.17,-374.69 1467.22,-373.95"/>
<polygon fill="midnightblue" stroke="midnightblue" points="1920.42,-431.67 1930.59,-428.67 1920.77,-424.68 1920.42,-431.67"/>
</g>
<!-- Node39 -->
<g id="node39" class="node">
<title>Node39</title>
<g id="a_node39"><a xlink:href="pySolverModel_8cpp.html" target="_top" xlink:title=" ">
<polygon fill="white" stroke="black" points="1485,-323.5 1485,-375.5 1621,-375.5 1621,-323.5 1485,-323.5"/>
<text text-anchor="start" x="1493" y="-363.5" font-family="Helvetica,sans-Serif" font-size="10.00">/home/jonathan/Works</text>
<text text-anchor="start" x="1493" y="-352.5" font-family="Helvetica,sans-Serif" font-size="10.00">/Tools/Triton/src/libtriton</text>
<text text-anchor="start" x="1493" y="-341.5" font-family="Helvetica,sans-Serif" font-size="10.00">/bindings/python/objects</text>
<text text-anchor="middle" x="1553" y="-330.5" font-family="Helvetica,sans-Serif" font-size="10.00">/pySolverModel.cpp</text>
</a>
</g>
</g>
<!-- Node29&#45;&gt;Node39 -->
<g id="edge52" class="edge">
<title>Node29&#45;&gt;Node39</title>
<path fill="none" stroke="midnightblue" d="M1920.76,-422.48C1840.89,-413.84 1727.48,-398.89 1630,-376 1627.12,-375.32 1624.2,-374.59 1621.25,-373.8"/>
<polygon fill="midnightblue" stroke="midnightblue" points="1920.5,-425.98 1930.82,-423.56 1921.25,-419.01 1920.5,-425.98"/>
</g>
<!-- Node40 -->
<g id="node40" class="node">
<title>Node40</title>
<g id="a_node40"><a xlink:href="pySymbolicExpression_8cpp.html" target="_top" xlink:title=" ">
<polygon fill="white" stroke="black" points="1639,-323.5 1639,-375.5 1789,-375.5 1789,-323.5 1639,-323.5"/>
<text text-anchor="start" x="1647" y="-363.5" font-family="Helvetica,sans-Serif" font-size="10.00">/home/jonathan/Works</text>
<text text-anchor="start" x="1647" y="-352.5" font-family="Helvetica,sans-Serif" font-size="10.00">/Tools/Triton/src/libtriton</text>
<text text-anchor="start" x="1647" y="-341.5" font-family="Helvetica,sans-Serif" font-size="10.00">/bindings/python/objects</text>
<text text-anchor="middle" x="1714" y="-330.5" font-family="Helvetica,sans-Serif" font-size="10.00">/pySymbolicExpression.cpp</text>
</a>
</g>
</g>
<!-- Node29&#45;&gt;Node40 -->
<g id="edge53" class="edge">
<title>Node29&#45;&gt;Node40</title>
<path fill="none" stroke="midnightblue" d="M1931.22,-410.07C1890.59,-400.11 1842.3,-387.9 1799,-376 1795.73,-375.1 1792.4,-374.17 1789.03,-373.22"/>
<polygon fill="midnightblue" stroke="midnightblue" points="1930.56,-413.52 1941.1,-412.49 1932.22,-406.72 1930.56,-413.52"/>
</g>
<!-- Node41 -->
<g id="node41" class="node">
<title>Node41</title>
<g id="a_node41"><a xlink:href="pySymbolicVariable_8cpp.html" target="_top" xlink:title=" ">
<polygon fill="white" stroke="black" points="1807.5,-323.5 1807.5,-375.5 1944.5,-375.5 1944.5,-323.5 1807.5,-323.5"/>
<text text-anchor="start" x="1815.5" y="-363.5" font-family="Helvetica,sans-Serif" font-size="10.00">/home/jonathan/Works</text>
<text text-anchor="start" x="1815.5" y="-352.5" font-family="Helvetica,sans-Serif" font-size="10.00">/Tools/Triton/src/libtriton</text>
<text text-anchor="start" x="1815.5" y="-341.5" font-family="Helvetica,sans-Serif" font-size="10.00">/bindings/python/objects</text>
<text text-anchor="middle" x="1876" y="-330.5" font-family="Helvetica,sans-Serif" font-size="10.00">/pySymbolicVariable.cpp</text>
</a>
</g>
</g>
<!-- Node29&#45;&gt;Node41 -->
<g id="edge54" class="edge">
<title>Node29&#45;&gt;Node41</title>
<path fill="none" stroke="midnightblue" d="M1978.59,-407.38C1960.43,-397.31 1939.46,-385.69 1921.23,-375.58"/>
<polygon fill="midnightblue" stroke="midnightblue" points="1977.35,-410.69 1987.79,-412.48 1980.74,-404.57 1977.35,-410.69"/>
</g>
</g>
</svg>
