<?xml version="1.0" encoding="UTF-8" standalone="no"?>
<!DOCTYPE svg PUBLIC "-//W3C//DTD SVG 1.1//EN"
 "http://www.w3.org/Graphics/SVG/1.1/DTD/svg11.dtd">
<!-- Generated by graphviz version 11.0.0 (20240428.1522)
 -->
<!-- Title: /Users/jonathan/Works/Tools/Triton/src/libtriton/includes/triton/pathManager.hpp Pages: 1 -->
<svg width="2067pt" height="528pt"
 viewBox="0.00 0.00 2067.48 527.50" xmlns="http://www.w3.org/2000/svg" xmlns:xlink="http://www.w3.org/1999/xlink">
<g id="graph0" class="graph" transform="scale(1 1) rotate(0) translate(4 523.5)">
<title>/Users/jonathan/Works/Tools/Triton/src/libtriton/includes/triton/pathManager.hpp</title>
<!-- Node1 -->
<g id="Node000001" class="node">
<title>Node1</title>
<g id="a_Node000001"><a xlink:title=" ">
<polygon fill="#999999" stroke="#666666" points="1017.25,-519.5 860.25,-519.5 860.25,-477.75 1017.25,-477.75 1017.25,-519.5"/>
<text text-anchor="start" x="868.25" y="-506" font-family="Helvetica,sans-Serif" font-size="10.00">/Users/jonathan/Works</text>
<text text-anchor="start" x="868.25" y="-494.75" font-family="Helvetica,sans-Serif" font-size="10.00">/Tools/Triton/src/libtriton</text>
<text text-anchor="middle" x="938.75" y="-483.5" font-family="Helvetica,sans-Serif" font-size="10.00">/includes/triton/pathManager.hpp</text>
</a>
</g>
</g>
<!-- Node2 -->
<g id="Node000002" class="node">
<title>Node2</title>
<g id="a_Node000002"><a xlink:href="pathManager_8cpp.html" target="_top" xlink:title=" ">
<polygon fill="white" stroke="#666666" points="930.75,-441.75 758.75,-441.75 758.75,-400 930.75,-400 930.75,-441.75"/>
<text text-anchor="start" x="766.75" y="-428.25" font-family="Helvetica,sans-Serif" font-size="10.00">/Users/jonathan/Works</text>
<text text-anchor="start" x="766.75" y="-417" font-family="Helvetica,sans-Serif" font-size="10.00">/Tools/Triton/src/libtriton</text>
<text text-anchor="middle" x="844.75" y="-405.75" font-family="Helvetica,sans-Serif" font-size="10.00">/engines/symbolic/pathManager.cpp</text>
</a>
</g>
</g>
<!-- Node1&#45;&gt;Node2 -->
<g id="edge1_Node000001_Node000002" class="edge">
<title>Node1&#45;&gt;Node2</title>
<g id="a_edge1_Node000001_Node000002"><a xlink:title=" ">
<path fill="none" stroke="#63b8ff" d="M904.67,-470.16C893.22,-460.94 880.66,-450.81 870.01,-442.23"/>
<polygon fill="#63b8ff" stroke="#63b8ff" points="902.4,-472.83 912.38,-476.38 906.79,-467.38 902.4,-472.83"/>
</a>
</g>
</g>
<!-- Node3 -->
<g id="Node000003" class="node">
<title>Node3</title>
<g id="a_Node000003"><a xlink:href="symbolicEngine_8hpp.html" target="_top" xlink:title=" ">
<polygon fill="white" stroke="#666666" points="1119,-441.75 948.5,-441.75 948.5,-400 1119,-400 1119,-441.75"/>
<text text-anchor="start" x="956.5" y="-428.25" font-family="Helvetica,sans-Serif" font-size="10.00">/Users/jonathan/Works</text>
<text text-anchor="start" x="956.5" y="-417" font-family="Helvetica,sans-Serif" font-size="10.00">/Tools/Triton/src/libtriton</text>
<text text-anchor="middle" x="1033.75" y="-405.75" font-family="Helvetica,sans-Serif" font-size="10.00">/includes/triton/symbolicEngine.hpp</text>
</a>
</g>
</g>
<!-- Node1&#45;&gt;Node3 -->
<g id="edge2_Node000001_Node000003" class="edge">
<title>Node1&#45;&gt;Node3</title>
<g id="a_edge2_Node000001_Node000003"><a xlink:title=" ">
<path fill="none" stroke="#63b8ff" d="M973.19,-470.16C984.76,-460.94 997.46,-450.81 1008.22,-442.23"/>
<polygon fill="#63b8ff" stroke="#63b8ff" points="971.03,-467.41 965.39,-476.38 975.39,-472.88 971.03,-467.41"/>
</a>
</g>
</g>
<!-- Node4 -->
<g id="Node000004" class="node">
<title>Node4</title>
<g id="a_Node000004"><a xlink:href="symbolicEngine_8cpp.html" target="_top" xlink:title=" ">
<polygon fill="white" stroke="#666666" points="617.5,-364 432,-364 432,-322.25 617.5,-322.25 617.5,-364"/>
<text text-anchor="start" x="440" y="-350.5" font-family="Helvetica,sans-Serif" font-size="10.00">/Users/jonathan/Works</text>
<text text-anchor="start" x="440" y="-339.25" font-family="Helvetica,sans-Serif" font-size="10.00">/Tools/Triton/src/libtriton</text>
<text text-anchor="middle" x="524.75" y="-328" font-family="Helvetica,sans-Serif" font-size="10.00">/engines/symbolic/symbolicEngine.cpp</text>
</a>
</g>
</g>
<!-- Node3&#45;&gt;Node4 -->
<g id="edge3_Node000003_Node000004" class="edge">
<title>Node3&#45;&gt;Node4</title>
<g id="a_edge3_Node000003_Node000004"><a xlink:title=" ">
<path fill="none" stroke="#63b8ff" d="M936.81,-399.59C801.79,-378.06 764.43,-384.05 631.75,-364 627.17,-363.31 622.49,-362.57 617.77,-361.79"/>
<polygon fill="#63b8ff" stroke="#63b8ff" points="936.08,-403.02 946.51,-401.16 937.2,-396.11 936.08,-403.02"/>
</a>
</g>
</g>
<!-- Node5 -->
<g id="Node000005" class="node">
<title>Node5</title>
<g id="a_Node000005"><a xlink:href="aarch64Semantics_8hpp.html" target="_top" xlink:title=" ">
<polygon fill="white" stroke="#666666" points="201,-286.25 18.5,-286.25 18.5,-244.5 201,-244.5 201,-286.25"/>
<text text-anchor="start" x="26.5" y="-272.75" font-family="Helvetica,sans-Serif" font-size="10.00">/Users/jonathan/Works</text>
<text text-anchor="start" x="26.5" y="-261.5" font-family="Helvetica,sans-Serif" font-size="10.00">/Tools/Triton/src/libtriton</text>
<text text-anchor="middle" x="109.75" y="-250.25" font-family="Helvetica,sans-Serif" font-size="10.00">/includes/triton/aarch64Semantics.hpp</text>
</a>
</g>
</g>
<!-- Node3&#45;&gt;Node5 -->
<g id="edge4_Node000003_Node000005" class="edge">
<title>Node3&#45;&gt;Node5</title>
<g id="a_edge4_Node000003_Node000005"><a xlink:title=" ">
<path fill="none" stroke="#63b8ff" d="M937.22,-399.74C813.33,-381.57 765.86,-424.04 659.75,-364 639.16,-352.35 647.57,-333.47 626.75,-322.25 544.86,-278.15 301.84,-299.34 209.75,-286.25 206.95,-285.85 204.1,-285.43 201.23,-284.98"/>
<polygon fill="#63b8ff" stroke="#63b8ff" points="936.33,-403.15 946.75,-401.26 937.42,-396.23 936.33,-403.15"/>
</a>
</g>
</g>
<!-- Node8 -->
<g id="Node000008" class="node">
<title>Node8</title>
<g id="a_Node000008"><a xlink:href="arm32Semantics_8hpp.html" target="_top" xlink:title=" ">
<polygon fill="white" stroke="#666666" points="394.25,-286.25 219.25,-286.25 219.25,-244.5 394.25,-244.5 394.25,-286.25"/>
<text text-anchor="start" x="227.25" y="-272.75" font-family="Helvetica,sans-Serif" font-size="10.00">/Users/jonathan/Works</text>
<text text-anchor="start" x="227.25" y="-261.5" font-family="Helvetica,sans-Serif" font-size="10.00">/Tools/Triton/src/libtriton</text>
<text text-anchor="middle" x="306.75" y="-250.25" font-family="Helvetica,sans-Serif" font-size="10.00">/includes/triton/arm32Semantics.hpp</text>
</a>
</g>
</g>
<!-- Node3&#45;&gt;Node8 -->
<g id="edge7_Node000003_Node000008" class="edge">
<title>Node3&#45;&gt;Node8</title>
<g id="a_edge7_Node000003_Node000008"><a xlink:title=" ">
<path fill="none" stroke="#63b8ff" d="M936.98,-399.67C830.07,-382.94 790.51,-413.48 697.75,-364 675.61,-352.19 681.94,-333.96 659.75,-322.25 557.76,-268.4 516.39,-305.95 402.75,-286.25 400.07,-285.78 397.34,-285.3 394.6,-284.8"/>
<polygon fill="#63b8ff" stroke="#63b8ff" points="936.3,-403.1 946.74,-401.31 937.46,-396.2 936.3,-403.1"/>
</a>
</g>
</g>
<!-- Node10 -->
<g id="Node000010" class="node">
<title>Node10</title>
<g id="a_Node000010"><a xlink:href="context_8hpp.html" target="_top" xlink:title=" ">
<polygon fill="white" stroke="#666666" points="1236.62,-208.5 1102.88,-208.5 1102.88,-166.75 1236.62,-166.75 1236.62,-208.5"/>
<text text-anchor="start" x="1110.88" y="-195" font-family="Helvetica,sans-Serif" font-size="10.00">/Users/jonathan/Works</text>
<text text-anchor="start" x="1110.88" y="-183.75" font-family="Helvetica,sans-Serif" font-size="10.00">/Tools/Triton/src/libtriton</text>
<text text-anchor="middle" x="1169.75" y="-172.5" font-family="Helvetica,sans-Serif" font-size="10.00">/includes/triton/context.hpp</text>
</a>
</g>
</g>
<!-- Node3&#45;&gt;Node10 -->
<g id="edge10_Node000003_Node000010" class="edge">
<title>Node3&#45;&gt;Node10</title>
<g id="a_edge10_Node000003_Node000010"><a xlink:title=" ">
<path fill="none" stroke="#63b8ff" d="M1130.71,-417.6C1320.5,-412.47 1734.54,-397.7 1872.75,-364 1956.62,-343.55 2003.48,-358.49 2050.75,-286.25 2060.91,-270.72 2063.45,-258.03 2050.75,-244.5 2022.97,-214.9 1437.7,-196.02 1236.77,-190.39"/>
<polygon fill="#63b8ff" stroke="#63b8ff" points="1130.78,-414.1 1120.88,-417.87 1130.97,-421.1 1130.78,-414.1"/>
</a>
</g>
</g>
<!-- Node18 -->
<g id="Node000018" class="node">
<title>Node18</title>
<g id="a_Node000018"><a xlink:href="irBuilder_8hpp.html" target="_top" xlink:title=" ">
<polygon fill="white" stroke="#666666" points="892.75,-286.25 756.75,-286.25 756.75,-244.5 892.75,-244.5 892.75,-286.25"/>
<text text-anchor="start" x="764.75" y="-272.75" font-family="Helvetica,sans-Serif" font-size="10.00">/Users/jonathan/Works</text>
<text text-anchor="start" x="764.75" y="-261.5" font-family="Helvetica,sans-Serif" font-size="10.00">/Tools/Triton/src/libtriton</text>
<text text-anchor="middle" x="824.75" y="-250.25" font-family="Helvetica,sans-Serif" font-size="10.00">/includes/triton/irBuilder.hpp</text>
</a>
</g>
</g>
<!-- Node3&#45;&gt;Node18 -->
<g id="edge18_Node000003_Node000018" class="edge">
<title>Node3&#45;&gt;Node18</title>
<g id="a_edge18_Node000003_Node000018"><a xlink:title=" ">
<path fill="none" stroke="#63b8ff" d="M1000.59,-392.86C975.7,-372.86 940.57,-345.21 908.75,-322.25 891.71,-309.95 872.18,-296.91 856.25,-286.52"/>
<polygon fill="#63b8ff" stroke="#63b8ff" points="998.11,-395.36 1008.09,-398.91 1002.51,-389.91 998.11,-395.36"/>
</a>
</g>
</g>
<!-- Node19 -->
<g id="Node000019" class="node">
<title>Node19</title>
<g id="a_Node000019"><a xlink:href="liftingEngine_8hpp.html" target="_top" xlink:title=" ">
<polygon fill="white" stroke="#666666" points="1686.12,-286.25 1531.38,-286.25 1531.38,-244.5 1686.12,-244.5 1686.12,-286.25"/>
<text text-anchor="start" x="1539.38" y="-272.75" font-family="Helvetica,sans-Serif" font-size="10.00">/Users/jonathan/Works</text>
<text text-anchor="start" x="1539.38" y="-261.5" font-family="Helvetica,sans-Serif" font-size="10.00">/Tools/Triton/src/libtriton</text>
<text text-anchor="middle" x="1608.75" y="-250.25" font-family="Helvetica,sans-Serif" font-size="10.00">/includes/triton/liftingEngine.hpp</text>
</a>
</g>
</g>
<!-- Node3&#45;&gt;Node19 -->
<g id="edge21_Node000003_Node000019" class="edge">
<title>Node3&#45;&gt;Node19</title>
<g id="a_edge21_Node000003_Node000019"><a xlink:title=" ">
<path fill="none" stroke="#63b8ff" d="M1130.47,-415.53C1242.72,-409.15 1419.95,-394.51 1478.75,-364 1501.02,-352.44 1497.38,-338.2 1516.75,-322.25 1533.05,-308.82 1552.88,-296.36 1569.96,-286.63"/>
<polygon fill="#63b8ff" stroke="#63b8ff" points="1130.44,-412.03 1120.65,-416.08 1130.83,-419.02 1130.44,-412.03"/>
</a>
</g>
</g>
<!-- Node20 -->
<g id="Node000020" class="node">
<title>Node20</title>
<g id="a_Node000020"><a xlink:href="liftingToDot_8hpp.html" target="_top" xlink:title=" ">
<polygon fill="white" stroke="#666666" points="1469.25,-364 1318.25,-364 1318.25,-322.25 1469.25,-322.25 1469.25,-364"/>
<text text-anchor="start" x="1326.25" y="-350.5" font-family="Helvetica,sans-Serif" font-size="10.00">/Users/jonathan/Works</text>
<text text-anchor="start" x="1326.25" y="-339.25" font-family="Helvetica,sans-Serif" font-size="10.00">/Tools/Triton/src/libtriton</text>
<text text-anchor="middle" x="1393.75" y="-328" font-family="Helvetica,sans-Serif" font-size="10.00">/includes/triton/liftingToDot.hpp</text>
</a>
</g>
</g>
<!-- Node3&#45;&gt;Node20 -->
<g id="edge23_Node000003_Node000020" class="edge">
<title>Node3&#45;&gt;Node20</title>
<g id="a_edge23_Node000003_Node000020"><a xlink:title=" ">
<path fill="none" stroke="#63b8ff" d="M1130.25,-399.57C1189.11,-387.19 1263.28,-371.58 1317.92,-360.08"/>
<polygon fill="#63b8ff" stroke="#63b8ff" points="1129.61,-396.13 1120.55,-401.61 1131.05,-402.98 1129.61,-396.13"/>
</a>
</g>
</g>
<!-- Node22 -->
<g id="Node000022" class="node">
<title>Node22</title>
<g id="a_Node000022"><a xlink:href="liftingToPython_8hpp.html" target="_top" xlink:title=" ">
<polygon fill="white" stroke="#666666" points="1691.75,-364 1525.75,-364 1525.75,-322.25 1691.75,-322.25 1691.75,-364"/>
<text text-anchor="start" x="1533.75" y="-350.5" font-family="Helvetica,sans-Serif" font-size="10.00">/Users/jonathan/Works</text>
<text text-anchor="start" x="1533.75" y="-339.25" font-family="Helvetica,sans-Serif" font-size="10.00">/Tools/Triton/src/libtriton</text>
<text text-anchor="middle" x="1608.75" y="-328" font-family="Helvetica,sans-Serif" font-size="10.00">/includes/triton/liftingToPython.hpp</text>
</a>
</g>
</g>
<!-- Node3&#45;&gt;Node22 -->
<g id="edge26_Node000003_Node000022" class="edge">
<title>Node3&#45;&gt;Node22</title>
<g id="a_edge26_Node000003_Node000022"><a xlink:title=" ">
<path fill="none" stroke="#63b8ff" d="M1130.33,-411.04C1227.12,-401.61 1380.22,-385.12 1511.75,-364 1516.25,-363.28 1520.85,-362.49 1525.5,-361.66"/>
<polygon fill="#63b8ff" stroke="#63b8ff" points="1130.23,-407.53 1120.61,-411.98 1130.9,-414.5 1130.23,-407.53"/>
</a>
</g>
</g>
<!-- Node24 -->
<g id="Node000024" class="node">
<title>Node24</title>
<g id="a_Node000024"><a xlink:href="liftingToSMT_8hpp.html" target="_top" xlink:title=" ">
<polygon fill="white" stroke="#666666" points="1864.12,-364 1709.38,-364 1709.38,-322.25 1864.12,-322.25 1864.12,-364"/>
<text text-anchor="start" x="1717.38" y="-350.5" font-family="Helvetica,sans-Serif" font-size="10.00">/Users/jonathan/Works</text>
<text text-anchor="start" x="1717.38" y="-339.25" font-family="Helvetica,sans-Serif" font-size="10.00">/Tools/Triton/src/libtriton</text>
<text text-anchor="middle" x="1786.75" y="-328" font-family="Helvetica,sans-Serif" font-size="10.00">/includes/triton/liftingToSMT.hpp</text>
</a>
</g>
</g>
<!-- Node3&#45;&gt;Node24 -->
<g id="edge29_Node000003_Node000024" class="edge">
<title>Node3&#45;&gt;Node24</title>
<g id="a_edge29_Node000003_Node000024"><a xlink:title=" ">
<path fill="none" stroke="#63b8ff" d="M1130.74,-416.12C1261.02,-410.08 1499.46,-395.52 1700.75,-364 1703.48,-363.57 1706.24,-363.11 1709.03,-362.61"/>
<polygon fill="#63b8ff" stroke="#63b8ff" points="1130.58,-412.62 1120.75,-416.57 1130.9,-419.61 1130.58,-412.62"/>
</a>
</g>
</g>
<!-- Node26 -->
<g id="Node000026" class="node">
<title>Node26</title>
<g id="a_Node000026"><a xlink:href="riscvSemantics_8hpp.html" target="_top" xlink:title=" ">
<polygon fill="white" stroke="#666666" points="1118.25,-286.25 949.25,-286.25 949.25,-244.5 1118.25,-244.5 1118.25,-286.25"/>
<text text-anchor="start" x="957.25" y="-272.75" font-family="Helvetica,sans-Serif" font-size="10.00">/Users/jonathan/Works</text>
<text text-anchor="start" x="957.25" y="-261.5" font-family="Helvetica,sans-Serif" font-size="10.00">/Tools/Triton/src/libtriton</text>
<text text-anchor="middle" x="1033.75" y="-250.25" font-family="Helvetica,sans-Serif" font-size="10.00">/includes/triton/riscvSemantics.hpp</text>
</a>
</g>
</g>
<!-- Node3&#45;&gt;Node26 -->
<g id="edge32_Node000003_Node000026" class="edge">
<title>Node3&#45;&gt;Node26</title>
<g id="a_edge32_Node000003_Node000026"><a xlink:title=" ">
<path fill="none" stroke="#63b8ff" d="M1033.75,-388.51C1033.75,-357.96 1033.75,-312.42 1033.75,-286.45"/>
<polygon fill="#63b8ff" stroke="#63b8ff" points="1030.25,-388.29 1033.75,-398.29 1037.25,-388.29 1030.25,-388.29"/>
</a>
</g>
</g>
<!-- Node28 -->
<g id="Node000028" class="node">
<title>Node28</title>
<g id="a_Node000028"><a xlink:href="synthesizer_8hpp.html" target="_top" xlink:title=" ">
<polygon fill="white" stroke="#666666" points="1222.25,-364 1071.25,-364 1071.25,-322.25 1222.25,-322.25 1222.25,-364"/>
<text text-anchor="start" x="1079.25" y="-350.5" font-family="Helvetica,sans-Serif" font-size="10.00">/Users/jonathan/Works</text>
<text text-anchor="start" x="1079.25" y="-339.25" font-family="Helvetica,sans-Serif" font-size="10.00">/Tools/Triton/src/libtriton</text>
<text text-anchor="middle" x="1146.75" y="-328" font-family="Helvetica,sans-Serif" font-size="10.00">/includes/triton/synthesizer.hpp</text>
</a>
</g>
</g>
<!-- Node3&#45;&gt;Node28 -->
<g id="edge34_Node000003_Node000028" class="edge">
<title>Node3&#45;&gt;Node28</title>
<g id="a_edge34_Node000003_Node000028"><a xlink:title=" ">
<path fill="none" stroke="#63b8ff" d="M1073.49,-393.23C1087.58,-383.79 1103.2,-373.32 1116.38,-364.48"/>
<polygon fill="#63b8ff" stroke="#63b8ff" points="1071.65,-390.26 1065.29,-398.73 1075.54,-396.07 1071.65,-390.26"/>
</a>
</g>
</g>
<!-- Node30 -->
<g id="Node000030" class="node">
<title>Node30</title>
<g id="a_Node000030"><a xlink:href="taintEngine_8hpp.html" target="_top" xlink:title=" ">
<polygon fill="white" stroke="#666666" points="899.88,-364 749.62,-364 749.62,-322.25 899.88,-322.25 899.88,-364"/>
<text text-anchor="start" x="757.62" y="-350.5" font-family="Helvetica,sans-Serif" font-size="10.00">/Users/jonathan/Works</text>
<text text-anchor="start" x="757.62" y="-339.25" font-family="Helvetica,sans-Serif" font-size="10.00">/Tools/Triton/src/libtriton</text>
<text text-anchor="middle" x="824.75" y="-328" font-family="Helvetica,sans-Serif" font-size="10.00">/includes/triton/taintEngine.hpp</text>
</a>
</g>
</g>
<!-- Node3&#45;&gt;Node30 -->
<g id="edge37_Node000003_Node000030" class="edge">
<title>Node3&#45;&gt;Node30</title>
<g id="a_edge37_Node000003_Node000030"><a xlink:title=" ">
<path fill="none" stroke="#63b8ff" d="M966.94,-395.66C939.22,-385.61 907.41,-374.08 880.91,-364.48"/>
<polygon fill="#63b8ff" stroke="#63b8ff" points="965.72,-398.94 976.32,-399.06 968.11,-392.36 965.72,-398.94"/>
</a>
</g>
</g>
<!-- Node32 -->
<g id="Node000032" class="node">
<title>Node32</title>
<g id="a_Node000032"><a xlink:href="x86Semantics_8hpp.html" target="_top" xlink:title=" ">
<polygon fill="white" stroke="#666666" points="575.62,-286.25 411.88,-286.25 411.88,-244.5 575.62,-244.5 575.62,-286.25"/>
<text text-anchor="start" x="419.88" y="-272.75" font-family="Helvetica,sans-Serif" font-size="10.00">/Users/jonathan/Works</text>
<text text-anchor="start" x="419.88" y="-261.5" font-family="Helvetica,sans-Serif" font-size="10.00">/Tools/Triton/src/libtriton</text>
<text text-anchor="middle" x="493.75" y="-250.25" font-family="Helvetica,sans-Serif" font-size="10.00">/includes/triton/x86Semantics.hpp</text>
</a>
</g>
</g>
<!-- Node3&#45;&gt;Node32 -->
<g id="edge47_Node000003_Node000032" class="edge">
<title>Node3&#45;&gt;Node32</title>
<g id="a_edge47_Node000003_Node000032"><a xlink:title=" ">
<path fill="none" stroke="#63b8ff" d="M936.91,-399.59C849,-384.39 817.49,-403.45 740.75,-364 717.06,-351.82 720.88,-335.46 697.75,-322.25 676.67,-310.21 622.92,-295.69 575.89,-284.48"/>
<polygon fill="#63b8ff" stroke="#63b8ff" points="936.26,-403.03 946.73,-401.4 937.53,-396.15 936.26,-403.03"/>
</a>
</g>
</g>
<!-- Node6 -->
<g id="Node000006" class="node">
<title>Node6</title>
<g id="a_Node000006"><a xlink:href="aarch64Semantics_8cpp.html" target="_top" xlink:title=" ">
<polygon fill="white" stroke="#666666" points="197.5,-208.5 0,-208.5 0,-166.75 197.5,-166.75 197.5,-208.5"/>
<text text-anchor="start" x="8" y="-195" font-family="Helvetica,sans-Serif" font-size="10.00">/Users/jonathan/Works</text>
<text text-anchor="start" x="8" y="-183.75" font-family="Helvetica,sans-Serif" font-size="10.00">/Tools/Triton/src/libtriton</text>
<text text-anchor="middle" x="98.75" y="-172.5" font-family="Helvetica,sans-Serif" font-size="10.00">/arch/arm/aarch64/aarch64Semantics.cpp</text>
</a>
</g>
</g>
<!-- Node5&#45;&gt;Node6 -->
<g id="edge5_Node000005_Node000006" class="edge">
<title>Node5&#45;&gt;Node6</title>
<g id="a_edge5_Node000005_Node000006"><a xlink:title=" ">
<path fill="none" stroke="#63b8ff" d="M105.16,-232.75C103.99,-224.71 102.77,-216.29 101.71,-208.98"/>
<polygon fill="#63b8ff" stroke="#63b8ff" points="101.68,-233.18 106.58,-242.58 108.61,-232.18 101.68,-233.18"/>
</a>
</g>
</g>
<!-- Node7 -->
<g id="Node000007" class="node">
<title>Node7</title>
<g id="a_Node000007"><a xlink:href="irBuilder_8cpp.html" target="_top" xlink:title=" ">
<polygon fill="white" stroke="#666666" points="537.25,-208.5 416.25,-208.5 416.25,-166.75 537.25,-166.75 537.25,-208.5"/>
<text text-anchor="start" x="424.25" y="-195" font-family="Helvetica,sans-Serif" font-size="10.00">/Users/jonathan/Works</text>
<text text-anchor="start" x="424.25" y="-183.75" font-family="Helvetica,sans-Serif" font-size="10.00">/Tools/Triton/src/libtriton</text>
<text text-anchor="middle" x="476.75" y="-172.5" font-family="Helvetica,sans-Serif" font-size="10.00">/arch/irBuilder.cpp</text>
</a>
</g>
</g>
<!-- Node5&#45;&gt;Node7 -->
<g id="edge6_Node000005_Node000007" class="edge">
<title>Node5&#45;&gt;Node7</title>
<g id="a_edge6_Node000005_Node000007"><a xlink:title=" ">
<path fill="none" stroke="#63b8ff" d="M212.47,-244.01C299.11,-227.86 323.53,-227.87 406.75,-208.5 409.7,-207.81 412.72,-207.08 415.76,-206.32"/>
<polygon fill="#63b8ff" stroke="#63b8ff" points="211.96,-240.55 202.78,-245.84 213.25,-247.43 211.96,-240.55"/>
</a>
</g>
</g>
<!-- Node8&#45;&gt;Node7 -->
<g id="edge9_Node000008_Node000007" class="edge">
<title>Node8&#45;&gt;Node7</title>
<g id="a_edge9_Node000008_Node000007"><a xlink:title=" ">
<path fill="none" stroke="#63b8ff" d="M362.59,-239.49C384.79,-229.6 409.99,-218.37 431.07,-208.98"/>
<polygon fill="#63b8ff" stroke="#63b8ff" points="361.4,-236.19 353.69,-243.46 364.25,-242.59 361.4,-236.19"/>
</a>
</g>
</g>
<!-- Node9 -->
<g id="Node000009" class="node">
<title>Node9</title>
<g id="a_Node000009"><a xlink:href="arm32Semantics_8cpp.html" target="_top" xlink:title=" ">
<polygon fill="white" stroke="#666666" points="398,-208.5 215.5,-208.5 215.5,-166.75 398,-166.75 398,-208.5"/>
<text text-anchor="start" x="223.5" y="-195" font-family="Helvetica,sans-Serif" font-size="10.00">/Users/jonathan/Works</text>
<text text-anchor="start" x="223.5" y="-183.75" font-family="Helvetica,sans-Serif" font-size="10.00">/Tools/Triton/src/libtriton</text>
<text text-anchor="middle" x="306.75" y="-172.5" font-family="Helvetica,sans-Serif" font-size="10.00">/arch/arm/arm32/arm32Semantics.cpp</text>
</a>
</g>
</g>
<!-- Node8&#45;&gt;Node9 -->
<g id="edge8_Node000008_Node000009" class="edge">
<title>Node8&#45;&gt;Node9</title>
<g id="a_edge8_Node000008_Node000009"><a xlink:title=" ">
<path fill="none" stroke="#63b8ff" d="M306.75,-232.75C306.75,-224.71 306.75,-216.29 306.75,-208.98"/>
<polygon fill="#63b8ff" stroke="#63b8ff" points="303.25,-232.56 306.75,-242.56 310.25,-232.56 303.25,-232.56"/>
</a>
</g>
</g>
<!-- Node11 -->
<g id="Node000011" class="node">
<title>Node11</title>
<g id="a_Node000011"><a xlink:href="pyTritonContext_8cpp.html" target="_top" xlink:title=" ">
<polygon fill="white" stroke="#666666" points="949.62,-130.75 827.88,-130.75 827.88,-77.75 949.62,-77.75 949.62,-130.75"/>
<text text-anchor="start" x="835.88" y="-117.25" font-family="Helvetica,sans-Serif" font-size="10.00">/Users/jonathan/Works</text>
<text text-anchor="start" x="835.88" y="-106" font-family="Helvetica,sans-Serif" font-size="10.00">/Tools/Triton/src/libtriton</text>
<text text-anchor="start" x="835.88" y="-94.75" font-family="Helvetica,sans-Serif" font-size="10.00">/bindings/python/objects</text>
<text text-anchor="middle" x="888.75" y="-83.5" font-family="Helvetica,sans-Serif" font-size="10.00">/pyTritonContext.cpp</text>
</a>
</g>
</g>
<!-- Node10&#45;&gt;Node11 -->
<g id="edge11_Node000010_Node000011" class="edge">
<title>Node10&#45;&gt;Node11</title>
<g id="a_edge11_Node000010_Node000011"><a xlink:title=" ">
<path fill="none" stroke="#63b8ff" d="M1091.56,-165.93C1032.37,-150.54 1015.03,-148.41 958.75,-130.75 955.91,-129.86 953.02,-128.92 950.1,-127.96"/>
<polygon fill="#63b8ff" stroke="#63b8ff" points="1090.67,-169.32 1101.23,-168.47 1092.44,-162.55 1090.67,-169.32"/>
</a>
</g>
</g>
<!-- Node12 -->
<g id="Node000012" class="node">
<title>Node12</title>
<g id="a_Node000012"><a xlink:href="callbacks_8cpp.html" target="_top" xlink:title=" ">
<polygon fill="white" stroke="#666666" points="1091.38,-125.12 968.12,-125.12 968.12,-83.38 1091.38,-83.38 1091.38,-125.12"/>
<text text-anchor="start" x="976.12" y="-111.62" font-family="Helvetica,sans-Serif" font-size="10.00">/Users/jonathan/Works</text>
<text text-anchor="start" x="976.12" y="-100.38" font-family="Helvetica,sans-Serif" font-size="10.00">/Tools/Triton/src/libtriton</text>
<text text-anchor="middle" x="1029.75" y="-89.12" font-family="Helvetica,sans-Serif" font-size="10.00">/callbacks/callbacks.cpp</text>
</a>
</g>
</g>
<!-- Node10&#45;&gt;Node12 -->
<g id="edge12_Node000010_Node000012" class="edge">
<title>Node10&#45;&gt;Node12</title>
<g id="a_edge12_Node000010_Node000012"><a xlink:title=" ">
<path fill="none" stroke="#63b8ff" d="M1124.91,-160.56C1105.44,-149.24 1082.97,-136.18 1064.76,-125.6"/>
<polygon fill="#63b8ff" stroke="#63b8ff" points="1123.07,-163.54 1133.47,-165.54 1126.59,-157.49 1123.07,-163.54"/>
</a>
</g>
</g>
<!-- Node13 -->
<g id="Node000013" class="node">
<title>Node13</title>
<g id="a_Node000013"><a xlink:href="context_8cpp.html" target="_top" xlink:title=" ">
<polygon fill="white" stroke="#666666" points="1230.25,-125.12 1109.25,-125.12 1109.25,-83.38 1230.25,-83.38 1230.25,-125.12"/>
<text text-anchor="start" x="1117.25" y="-111.62" font-family="Helvetica,sans-Serif" font-size="10.00">/Users/jonathan/Works</text>
<text text-anchor="start" x="1117.25" y="-100.38" font-family="Helvetica,sans-Serif" font-size="10.00">/Tools/Triton/src/libtriton</text>
<text text-anchor="middle" x="1169.75" y="-89.12" font-family="Helvetica,sans-Serif" font-size="10.00">/context/context.cpp</text>
</a>
</g>
</g>
<!-- Node10&#45;&gt;Node13 -->
<g id="edge13_Node000010_Node000013" class="edge">
<title>Node10&#45;&gt;Node13</title>
<g id="a_edge13_Node000010_Node000013"><a xlink:title=" ">
<path fill="none" stroke="#63b8ff" d="M1169.75,-155.27C1169.75,-145.24 1169.75,-134.42 1169.75,-125.42"/>
<polygon fill="#63b8ff" stroke="#63b8ff" points="1166.25,-155 1169.75,-165 1173.25,-155 1166.25,-155"/>
</a>
</g>
</g>
<!-- Node14 -->
<g id="Node000014" class="node">
<title>Node14</title>
<g id="a_Node000014"><a xlink:href="symbolicSimplification_8cpp.html" target="_top" xlink:title=" ">
<polygon fill="white" stroke="#666666" points="1462.75,-125.12 1248.75,-125.12 1248.75,-83.38 1462.75,-83.38 1462.75,-125.12"/>
<text text-anchor="start" x="1256.75" y="-111.62" font-family="Helvetica,sans-Serif" font-size="10.00">/Users/jonathan/Works</text>
<text text-anchor="start" x="1256.75" y="-100.38" font-family="Helvetica,sans-Serif" font-size="10.00">/Tools/Triton/src/libtriton</text>
<text text-anchor="middle" x="1355.75" y="-89.12" font-family="Helvetica,sans-Serif" font-size="10.00">/engines/symbolic/symbolicSimplification.cpp</text>
</a>
</g>
</g>
<!-- Node10&#45;&gt;Node14 -->
<g id="edge14_Node000010_Node000014" class="edge">
<title>Node10&#45;&gt;Node14</title>
<g id="a_edge14_Node000010_Node000014"><a xlink:title=" ">
<path fill="none" stroke="#63b8ff" d="M1226.49,-161.8C1252.99,-150.21 1284.16,-136.57 1309.24,-125.6"/>
<polygon fill="#63b8ff" stroke="#63b8ff" points="1225.35,-158.48 1217.59,-165.69 1228.16,-164.89 1225.35,-158.48"/>
</a>
</g>
</g>
<!-- Node15 -->
<g id="Node000015" class="node">
<title>Node15</title>
<g id="a_Node000015"><a xlink:href="llvmToTriton_8hpp.html" target="_top" xlink:title=" ">
<polygon fill="white" stroke="#666666" points="1635.12,-125.12 1480.38,-125.12 1480.38,-83.38 1635.12,-83.38 1635.12,-125.12"/>
<text text-anchor="start" x="1488.38" y="-111.62" font-family="Helvetica,sans-Serif" font-size="10.00">/Users/jonathan/Works</text>
<text text-anchor="start" x="1488.38" y="-100.38" font-family="Helvetica,sans-Serif" font-size="10.00">/Tools/Triton/src/libtriton</text>
<text text-anchor="middle" x="1557.75" y="-89.12" font-family="Helvetica,sans-Serif" font-size="10.00">/includes/triton/llvmToTriton.hpp</text>
</a>
</g>
</g>
<!-- Node10&#45;&gt;Node15 -->
<g id="edge15_Node000010_Node000015" class="edge">
<title>Node10&#45;&gt;Node15</title>
<g id="a_edge15_Node000010_Node000015"><a xlink:title=" ">
<path fill="none" stroke="#63b8ff" d="M1248.17,-174.44C1309.42,-164.37 1396.46,-148.82 1471.75,-130.75 1478.26,-129.19 1485.01,-127.43 1491.74,-125.59"/>
<polygon fill="#63b8ff" stroke="#63b8ff" points="1247.85,-170.95 1238.54,-176.02 1248.98,-177.86 1247.85,-170.95"/>
</a>
</g>
</g>
<!-- Node16 -->
<g id="Node000016" class="node">
<title>Node16</title>
<g id="a_Node000016"><a xlink:href="llvmToTriton_8cpp.html" target="_top" xlink:title=" ">
<polygon fill="white" stroke="#666666" points="1541,-41.75 1412.5,-41.75 1412.5,0 1541,0 1541,-41.75"/>
<text text-anchor="start" x="1420.5" y="-28.25" font-family="Helvetica,sans-Serif" font-size="10.00">/Users/jonathan/Works</text>
<text text-anchor="start" x="1420.5" y="-17" font-family="Helvetica,sans-Serif" font-size="10.00">/Tools/Triton/src/libtriton</text>
<text text-anchor="middle" x="1476.75" y="-5.75" font-family="Helvetica,sans-Serif" font-size="10.00">/ast/llvm/llvmToTriton.cpp</text>
</a>
</g>
</g>
<!-- Node15&#45;&gt;Node16 -->
<g id="edge16_Node000015_Node000016" class="edge">
<title>Node15&#45;&gt;Node16</title>
<g id="a_edge16_Node000015_Node000016"><a xlink:title=" ">
<path fill="none" stroke="#63b8ff" d="M1529.76,-75.13C1518.92,-64.24 1506.76,-52.02 1496.82,-42.04"/>
<polygon fill="#63b8ff" stroke="#63b8ff" points="1527.12,-77.44 1536.66,-82.06 1532.09,-72.51 1527.12,-77.44"/>
</a>
</g>
</g>
<!-- Node17 -->
<g id="Node000017" class="node">
<title>Node17</title>
<g id="a_Node000017"><a xlink:href="liftingToLLVM_8cpp.html" target="_top" xlink:title=" ">
<polygon fill="white" stroke="#666666" points="1718.75,-41.75 1558.75,-41.75 1558.75,0 1718.75,0 1718.75,-41.75"/>
<text text-anchor="start" x="1566.75" y="-28.25" font-family="Helvetica,sans-Serif" font-size="10.00">/Users/jonathan/Works</text>
<text text-anchor="start" x="1566.75" y="-17" font-family="Helvetica,sans-Serif" font-size="10.00">/Tools/Triton/src/libtriton</text>
<text text-anchor="middle" x="1638.75" y="-5.75" font-family="Helvetica,sans-Serif" font-size="10.00">/engines/lifters/liftingToLLVM.cpp</text>
</a>
</g>
</g>
<!-- Node15&#45;&gt;Node17 -->
<g id="edge17_Node000015_Node000017" class="edge">
<title>Node15&#45;&gt;Node17</title>
<g id="a_edge17_Node000015_Node000017"><a xlink:title=" ">
<path fill="none" stroke="#63b8ff" d="M1585.74,-75.13C1596.58,-64.24 1608.74,-52.02 1618.68,-42.04"/>
<polygon fill="#63b8ff" stroke="#63b8ff" points="1583.41,-72.51 1578.84,-82.06 1588.38,-77.44 1583.41,-72.51"/>
</a>
</g>
</g>
<!-- Node18&#45;&gt;Node7 -->
<g id="edge19_Node000018_Node000007" class="edge">
<title>Node18&#45;&gt;Node7</title>
<g id="a_edge19_Node000018_Node000007"><a xlink:title=" ">
<path fill="none" stroke="#63b8ff" d="M745.31,-244.06C657.12,-225.4 631.72,-228.12 546.75,-208.5 543.8,-207.82 540.78,-207.09 537.74,-206.33"/>
<polygon fill="#63b8ff" stroke="#63b8ff" points="744.39,-247.44 754.9,-246.12 745.86,-240.6 744.39,-247.44"/>
</a>
</g>
</g>
<!-- Node18&#45;&gt;Node10 -->
<g id="edge20_Node000018_Node000010" class="edge">
<title>Node18&#45;&gt;Node10</title>
<g id="a_edge20_Node000018_Node000010"><a xlink:title=" ">
<path fill="none" stroke="#63b8ff" d="M904.24,-245.05C905.08,-244.86 905.92,-244.68 906.75,-244.5 989.89,-226.47 1011.8,-227.41 1094.75,-208.5 1097.38,-207.9 1100.05,-207.27 1102.75,-206.63"/>
<polygon fill="#63b8ff" stroke="#63b8ff" points="903.62,-241.6 894.63,-247.2 905.15,-248.43 903.62,-241.6"/>
</a>
</g>
</g>
<!-- Node19&#45;&gt;Node10 -->
<g id="edge22_Node000019_Node000010" class="edge">
<title>Node19&#45;&gt;Node10</title>
<g id="a_edge22_Node000019_Node000010"><a xlink:title=" ">
<path fill="none" stroke="#63b8ff" d="M1519.97,-244.02C1415.93,-224.08 1305.79,-207.58 1237.01,-197.84"/>
<polygon fill="#63b8ff" stroke="#63b8ff" points="1519.02,-247.4 1529.5,-245.86 1520.35,-240.53 1519.02,-247.4"/>
</a>
</g>
</g>
<!-- Node20&#45;&gt;Node19 -->
<g id="edge25_Node000020_Node000019" class="edge">
<title>Node20&#45;&gt;Node19</title>
<g id="a_edge25_Node000020_Node000019"><a xlink:title=" ">
<path fill="none" stroke="#63b8ff" d="M1462.1,-318.04C1490.71,-307.96 1523.6,-296.38 1550.97,-286.73"/>
<polygon fill="#63b8ff" stroke="#63b8ff" points="1461.06,-314.7 1452.79,-321.32 1463.39,-321.3 1461.06,-314.7"/>
</a>
</g>
</g>
<!-- Node21 -->
<g id="Node000021" class="node">
<title>Node21</title>
<g id="a_Node000021"><a xlink:href="liftingToDot_8cpp.html" target="_top" xlink:title=" ">
<polygon fill="white" stroke="#666666" points="1513.25,-286.25 1362.25,-286.25 1362.25,-244.5 1513.25,-244.5 1513.25,-286.25"/>
<text text-anchor="start" x="1370.25" y="-272.75" font-family="Helvetica,sans-Serif" font-size="10.00">/Users/jonathan/Works</text>
<text text-anchor="start" x="1370.25" y="-261.5" font-family="Helvetica,sans-Serif" font-size="10.00">/Tools/Triton/src/libtriton</text>
<text text-anchor="middle" x="1437.75" y="-250.25" font-family="Helvetica,sans-Serif" font-size="10.00">/engines/lifters/liftingToDot.cpp</text>
</a>
</g>
</g>
<!-- Node20&#45;&gt;Node21 -->
<g id="edge24_Node000020_Node000021" class="edge">
<title>Node20&#45;&gt;Node21</title>
<g id="a_edge24_Node000020_Node000021"><a xlink:title=" ">
<path fill="none" stroke="#63b8ff" d="M1411.31,-311.9C1416.22,-303.45 1421.43,-294.46 1425.93,-286.73"/>
<polygon fill="#63b8ff" stroke="#63b8ff" points="1408.3,-310.11 1406.3,-320.52 1414.35,-313.63 1408.3,-310.11"/>
</a>
</g>
</g>
<!-- Node22&#45;&gt;Node19 -->
<g id="edge28_Node000022_Node000019" class="edge">
<title>Node22&#45;&gt;Node19</title>
<g id="a_edge28_Node000022_Node000019"><a xlink:title=" ">
<path fill="none" stroke="#63b8ff" d="M1608.75,-310.5C1608.75,-302.46 1608.75,-294.04 1608.75,-286.73"/>
<polygon fill="#63b8ff" stroke="#63b8ff" points="1605.25,-310.31 1608.75,-320.31 1612.25,-310.31 1605.25,-310.31"/>
</a>
</g>
</g>
<!-- Node23 -->
<g id="Node000023" class="node">
<title>Node23</title>
<g id="a_Node000023"><a xlink:href="liftingToPython_8cpp.html" target="_top" xlink:title=" ">
<polygon fill="white" stroke="#666666" points="1869.75,-286.25 1703.75,-286.25 1703.75,-244.5 1869.75,-244.5 1869.75,-286.25"/>
<text text-anchor="start" x="1711.75" y="-272.75" font-family="Helvetica,sans-Serif" font-size="10.00">/Users/jonathan/Works</text>
<text text-anchor="start" x="1711.75" y="-261.5" font-family="Helvetica,sans-Serif" font-size="10.00">/Tools/Triton/src/libtriton</text>
<text text-anchor="middle" x="1786.75" y="-250.25" font-family="Helvetica,sans-Serif" font-size="10.00">/engines/lifters/liftingToPython.cpp</text>
</a>
</g>
</g>
<!-- Node22&#45;&gt;Node23 -->
<g id="edge27_Node000022_Node000023" class="edge">
<title>Node22&#45;&gt;Node23</title>
<g id="a_edge27_Node000022_Node000023"><a xlink:title=" ">
<path fill="none" stroke="#63b8ff" d="M1666.91,-317.38C1690.22,-307.45 1716.75,-296.16 1738.92,-286.73"/>
<polygon fill="#63b8ff" stroke="#63b8ff" points="1665.67,-314.1 1657.84,-321.23 1668.42,-320.54 1665.67,-314.1"/>
</a>
</g>
</g>
<!-- Node24&#45;&gt;Node19 -->
<g id="edge31_Node000024_Node000019" class="edge">
<title>Node24&#45;&gt;Node19</title>
<g id="a_edge31_Node000024_Node000019"><a xlink:title=" ">
<path fill="none" stroke="#63b8ff" d="M1728.59,-317.38C1705.28,-307.45 1678.75,-296.16 1656.58,-286.73"/>
<polygon fill="#63b8ff" stroke="#63b8ff" points="1727.08,-320.54 1737.66,-321.23 1729.83,-314.1 1727.08,-320.54"/>
</a>
</g>
</g>
<!-- Node25 -->
<g id="Node000025" class="node">
<title>Node25</title>
<g id="a_Node000025"><a xlink:href="liftingToSMT_8cpp.html" target="_top" xlink:title=" ">
<polygon fill="white" stroke="#666666" points="2042.12,-286.25 1887.38,-286.25 1887.38,-244.5 2042.12,-244.5 2042.12,-286.25"/>
<text text-anchor="start" x="1895.38" y="-272.75" font-family="Helvetica,sans-Serif" font-size="10.00">/Users/jonathan/Works</text>
<text text-anchor="start" x="1895.38" y="-261.5" font-family="Helvetica,sans-Serif" font-size="10.00">/Tools/Triton/src/libtriton</text>
<text text-anchor="middle" x="1964.75" y="-250.25" font-family="Helvetica,sans-Serif" font-size="10.00">/engines/lifters/liftingToSMT.cpp</text>
</a>
</g>
</g>
<!-- Node24&#45;&gt;Node25 -->
<g id="edge30_Node000024_Node000025" class="edge">
<title>Node24&#45;&gt;Node25</title>
<g id="a_edge30_Node000024_Node000025"><a xlink:title=" ">
<path fill="none" stroke="#63b8ff" d="M1844.91,-317.38C1868.22,-307.45 1894.75,-296.16 1916.92,-286.73"/>
<polygon fill="#63b8ff" stroke="#63b8ff" points="1843.67,-314.1 1835.84,-321.23 1846.42,-320.54 1843.67,-314.1"/>
</a>
</g>
</g>
<!-- Node27 -->
<g id="Node000027" class="node">
<title>Node27</title>
<g id="a_Node000027"><a xlink:href="riscvSemantics_8cpp.html" target="_top" xlink:title=" ">
<polygon fill="white" stroke="#666666" points="1085.25,-208.5 934.25,-208.5 934.25,-166.75 1085.25,-166.75 1085.25,-208.5"/>
<text text-anchor="start" x="942.25" y="-195" font-family="Helvetica,sans-Serif" font-size="10.00">/Users/jonathan/Works</text>
<text text-anchor="start" x="942.25" y="-183.75" font-family="Helvetica,sans-Serif" font-size="10.00">/Tools/Triton/src/libtriton</text>
<text text-anchor="middle" x="1009.75" y="-172.5" font-family="Helvetica,sans-Serif" font-size="10.00">/arch/riscv/riscvSemantics.cpp</text>
</a>
</g>
</g>
<!-- Node26&#45;&gt;Node27 -->
<g id="edge33_Node000026_Node000027" class="edge">
<title>Node26&#45;&gt;Node27</title>
<g id="a_edge33_Node000026_Node000027"><a xlink:title=" ">
<path fill="none" stroke="#63b8ff" d="M1023.91,-233.31C1021.31,-225.11 1018.57,-216.46 1016.2,-208.98"/>
<polygon fill="#63b8ff" stroke="#63b8ff" points="1020.5,-234.16 1026.86,-242.63 1027.18,-232.04 1020.5,-234.16"/>
</a>
</g>
</g>
<!-- Node28&#45;&gt;Node10 -->
<g id="edge36_Node000028_Node000010" class="edge">
<title>Node28&#45;&gt;Node10</title>
<g id="a_edge36_Node000028_Node000010"><a xlink:title=" ">
<path fill="none" stroke="#63b8ff" d="M1151.45,-310.76C1156.03,-280.21 1162.85,-234.67 1166.74,-208.7"/>
<polygon fill="#63b8ff" stroke="#63b8ff" points="1148,-310.15 1149.98,-320.56 1154.92,-311.19 1148,-310.15"/>
</a>
</g>
</g>
<!-- Node29 -->
<g id="Node000029" class="node">
<title>Node29</title>
<g id="a_Node000029"><a xlink:href="synthesizer_8cpp.html" target="_top" xlink:title=" ">
<polygon fill="white" stroke="#666666" points="1344.25,-286.25 1175.25,-286.25 1175.25,-244.5 1344.25,-244.5 1344.25,-286.25"/>
<text text-anchor="start" x="1183.25" y="-272.75" font-family="Helvetica,sans-Serif" font-size="10.00">/Users/jonathan/Works</text>
<text text-anchor="start" x="1183.25" y="-261.5" font-family="Helvetica,sans-Serif" font-size="10.00">/Tools/Triton/src/libtriton</text>
<text text-anchor="middle" x="1259.75" y="-250.25" font-family="Helvetica,sans-Serif" font-size="10.00">/engines/synthesis/synthesizer.cpp</text>
</a>
</g>
</g>
<!-- Node28&#45;&gt;Node29 -->
<g id="edge35_Node000028_Node000029" class="edge">
<title>Node28&#45;&gt;Node29</title>
<g id="a_edge35_Node000028_Node000029"><a xlink:title=" ">
<path fill="none" stroke="#63b8ff" d="M1186.49,-315.48C1200.58,-306.04 1216.2,-295.57 1229.38,-286.73"/>
<polygon fill="#63b8ff" stroke="#63b8ff" points="1184.65,-312.51 1178.29,-320.98 1188.54,-318.32 1184.65,-312.51"/>
</a>
</g>
</g>
<!-- Node30&#45;&gt;Node5 -->
<g id="edge39_Node000030_Node000005" class="edge">
<title>Node30&#45;&gt;Node5</title>
<g id="a_edge39_Node000030_Node000005"><a xlink:title=" ">
<path fill="none" stroke="#63b8ff" d="M737.87,-331C712.69,-327.95 685.14,-324.79 659.75,-322.25 460.11,-302.25 408.48,-313.85 209.75,-286.25 207.03,-285.87 204.28,-285.47 201.5,-285.04"/>
<polygon fill="#63b8ff" stroke="#63b8ff" points="737.4,-334.47 747.75,-332.2 738.24,-327.52 737.4,-334.47"/>
</a>
</g>
</g>
<!-- Node30&#45;&gt;Node8 -->
<g id="edge40_Node000030_Node000008" class="edge">
<title>Node30&#45;&gt;Node8</title>
<g id="a_edge40_Node000030_Node000008"><a xlink:title=" ">
<path fill="none" stroke="#63b8ff" d="M738.04,-328.15C724.56,-326.1 710.79,-324.07 697.75,-322.25 566.93,-304.04 533.09,-307.66 402.75,-286.25 400.06,-285.81 397.34,-285.34 394.59,-284.86"/>
<polygon fill="#63b8ff" stroke="#63b8ff" points="737.35,-331.59 747.77,-329.65 738.42,-324.67 737.35,-331.59"/>
</a>
</g>
</g>
<!-- Node30&#45;&gt;Node10 -->
<g id="edge41_Node000030_Node000010" class="edge">
<title>Node30&#45;&gt;Node10</title>
<g id="a_edge41_Node000030_Node000010"><a xlink:title=" ">
<path fill="none" stroke="#63b8ff" d="M864.55,-315.45C876.86,-306.63 890.21,-296.45 901.75,-286.25 920.78,-269.44 918.77,-257.22 940.75,-244.5 1001.59,-209.3 1026.55,-225.5 1094.75,-208.5 1097.36,-207.85 1100.03,-207.18 1102.72,-206.49"/>
<polygon fill="#63b8ff" stroke="#63b8ff" points="862.78,-312.42 856.63,-321.04 866.82,-318.14 862.78,-312.42"/>
</a>
</g>
</g>
<!-- Node30&#45;&gt;Node18 -->
<g id="edge42_Node000030_Node000018" class="edge">
<title>Node30&#45;&gt;Node18</title>
<g id="a_edge42_Node000030_Node000018"><a xlink:title=" ">
<path fill="none" stroke="#63b8ff" d="M824.75,-310.5C824.75,-302.46 824.75,-294.04 824.75,-286.73"/>
<polygon fill="#63b8ff" stroke="#63b8ff" points="821.25,-310.31 824.75,-320.31 828.25,-310.31 821.25,-310.31"/>
</a>
</g>
</g>
<!-- Node30&#45;&gt;Node26 -->
<g id="edge43_Node000030_Node000026" class="edge">
<title>Node30&#45;&gt;Node26</title>
<g id="a_edge43_Node000030_Node000026"><a xlink:title=" ">
<path fill="none" stroke="#63b8ff" d="M891.56,-317.91C919.28,-307.86 951.09,-296.33 977.59,-286.73"/>
<polygon fill="#63b8ff" stroke="#63b8ff" points="890.39,-314.61 882.18,-321.31 892.78,-321.19 890.39,-314.61"/>
</a>
</g>
</g>
<!-- Node31 -->
<g id="Node000031" class="node">
<title>Node31</title>
<g id="a_Node000031"><a xlink:href="taintEngine_8cpp.html" target="_top" xlink:title=" ">
<polygon fill="white" stroke="#666666" points="738.25,-286.25 593.25,-286.25 593.25,-244.5 738.25,-244.5 738.25,-286.25"/>
<text text-anchor="start" x="601.25" y="-272.75" font-family="Helvetica,sans-Serif" font-size="10.00">/Users/jonathan/Works</text>
<text text-anchor="start" x="601.25" y="-261.5" font-family="Helvetica,sans-Serif" font-size="10.00">/Tools/Triton/src/libtriton</text>
<text text-anchor="middle" x="665.75" y="-250.25" font-family="Helvetica,sans-Serif" font-size="10.00">/engines/taint/taintEngine.cpp</text>
</a>
</g>
</g>
<!-- Node30&#45;&gt;Node31 -->
<g id="edge38_Node000030_Node000031" class="edge">
<title>Node30&#45;&gt;Node31</title>
<g id="a_edge38_Node000030_Node000031"><a xlink:title=" ">
<path fill="none" stroke="#63b8ff" d="M771.95,-316.97C751.34,-307.15 728.01,-296.04 708.48,-286.73"/>
<polygon fill="#63b8ff" stroke="#63b8ff" points="770.24,-320.03 780.77,-321.17 773.25,-313.71 770.24,-320.03"/>
</a>
</g>
</g>
<!-- Node30&#45;&gt;Node32 -->
<g id="edge44_Node000030_Node000032" class="edge">
<title>Node30&#45;&gt;Node32</title>
<g id="a_edge44_Node000030_Node000032"><a xlink:title=" ">
<path fill="none" stroke="#63b8ff" d="M738.08,-322.29C687.96,-310.82 625.24,-296.47 575.9,-285.18"/>
<polygon fill="#63b8ff" stroke="#63b8ff" points="737.22,-325.68 747.75,-324.5 738.78,-318.86 737.22,-325.68"/>
</a>
</g>
</g>
<!-- Node32&#45;&gt;Node7 -->
<g id="edge45_Node000032_Node000007" class="edge">
<title>Node32&#45;&gt;Node7</title>
<g id="a_edge45_Node000032_Node000007"><a xlink:title=" ">
<path fill="none" stroke="#63b8ff" d="M486.72,-233.03C484.89,-224.91 482.98,-216.37 481.32,-208.98"/>
<polygon fill="#63b8ff" stroke="#63b8ff" points="483.26,-233.61 488.86,-242.6 490.09,-232.07 483.26,-233.61"/>
</a>
</g>
</g>
<!-- Node33 -->
<g id="Node000033" class="node">
<title>Node33</title>
<g id="a_Node000033"><a xlink:href="x86Semantics_8cpp.html" target="_top" xlink:title=" ">
<polygon fill="white" stroke="#666666" points="696,-208.5 555.5,-208.5 555.5,-166.75 696,-166.75 696,-208.5"/>
<text text-anchor="start" x="563.5" y="-195" font-family="Helvetica,sans-Serif" font-size="10.00">/Users/jonathan/Works</text>
<text text-anchor="start" x="563.5" y="-183.75" font-family="Helvetica,sans-Serif" font-size="10.00">/Tools/Triton/src/libtriton</text>
<text text-anchor="middle" x="625.75" y="-172.5" font-family="Helvetica,sans-Serif" font-size="10.00">/arch/x86/x86Semantics.cpp</text>
</a>
</g>
</g>
<!-- Node32&#45;&gt;Node33 -->
<g id="edge46_Node000032_Node000033" class="edge">
<title>Node32&#45;&gt;Node33</title>
<g id="a_edge46_Node000032_Node000033"><a xlink:title=" ">
<path fill="none" stroke="#63b8ff" d="M538.76,-238.55C555.58,-228.89 574.43,-218.07 590.28,-208.98"/>
<polygon fill="#63b8ff" stroke="#63b8ff" points="537.37,-235.31 530.44,-243.32 540.85,-241.38 537.37,-235.31"/>
</a>
</g>
</g>
</g>
</svg>
