<?xml version="1.0" encoding="UTF-8" standalone="no"?>
<!DOCTYPE svg PUBLIC "-//W3C//DTD SVG 1.1//EN"
 "http://www.w3.org/Graphics/SVG/1.1/DTD/svg11.dtd">
<!-- Generated by graphviz version 11.0.0 (20240428.1522)
 -->
<!-- Title: /Users/jonathan/Works/Tools/Triton/src/libtriton/includes/triton/pathManager.hpp Pages: 1 -->
<svg width="1900pt" height="528pt"
 viewBox="0.00 0.00 1900.25 527.50" xmlns="http://www.w3.org/2000/svg" xmlns:xlink="http://www.w3.org/1999/xlink">
<g id="graph0" class="graph" transform="scale(1 1) rotate(0) translate(4 523.5)">
<title>/Users/jonathan/Works/Tools/Triton/src/libtriton/includes/triton/pathManager.hpp</title>
<!-- Node1 -->
<g id="Node000001" class="node">
<title>Node1</title>
<g id="a_Node000001"><a xlink:title=" ">
<polygon fill="#999999" stroke="#666666" points="918.25,-519.5 761.25,-519.5 761.25,-477.75 918.25,-477.75 918.25,-519.5"/>
<text text-anchor="start" x="769.25" y="-506" font-family="Helvetica,sans-Serif" font-size="10.00">/Users/jonathan/Works</text>
<text text-anchor="start" x="769.25" y="-494.75" font-family="Helvetica,sans-Serif" font-size="10.00">/Tools/Triton/src/libtriton</text>
<text text-anchor="middle" x="839.75" y="-483.5" font-family="Helvetica,sans-Serif" font-size="10.00">/includes/triton/pathManager.hpp</text>
</a>
</g>
</g>
<!-- Node2 -->
<g id="Node000002" class="node">
<title>Node2</title>
<g id="a_Node000002"><a xlink:href="pathManager_8cpp.html" target="_top" xlink:title=" ">
<polygon fill="white" stroke="#666666" points="831.75,-441.75 659.75,-441.75 659.75,-400 831.75,-400 831.75,-441.75"/>
<text text-anchor="start" x="667.75" y="-428.25" font-family="Helvetica,sans-Serif" font-size="10.00">/Users/jonathan/Works</text>
<text text-anchor="start" x="667.75" y="-417" font-family="Helvetica,sans-Serif" font-size="10.00">/Tools/Triton/src/libtriton</text>
<text text-anchor="middle" x="745.75" y="-405.75" font-family="Helvetica,sans-Serif" font-size="10.00">/engines/symbolic/pathManager.cpp</text>
</a>
</g>
</g>
<!-- Node1&#45;&gt;Node2 -->
<g id="edge1_Node000001_Node000002" class="edge">
<title>Node1&#45;&gt;Node2</title>
<g id="a_edge1_Node000001_Node000002"><a xlink:title=" ">
<path fill="none" stroke="#63b8ff" d="M805.67,-470.16C794.22,-460.94 781.66,-450.81 771.01,-442.23"/>
<polygon fill="#63b8ff" stroke="#63b8ff" points="803.4,-472.83 813.38,-476.38 807.79,-467.38 803.4,-472.83"/>
</a>
</g>
</g>
<!-- Node3 -->
<g id="Node000003" class="node">
<title>Node3</title>
<g id="a_Node000003"><a xlink:href="symbolicEngine_8hpp.html" target="_top" xlink:title=" ">
<polygon fill="white" stroke="#666666" points="1020,-441.75 849.5,-441.75 849.5,-400 1020,-400 1020,-441.75"/>
<text text-anchor="start" x="857.5" y="-428.25" font-family="Helvetica,sans-Serif" font-size="10.00">/Users/jonathan/Works</text>
<text text-anchor="start" x="857.5" y="-417" font-family="Helvetica,sans-Serif" font-size="10.00">/Tools/Triton/src/libtriton</text>
<text text-anchor="middle" x="934.75" y="-405.75" font-family="Helvetica,sans-Serif" font-size="10.00">/includes/triton/symbolicEngine.hpp</text>
</a>
</g>
</g>
<!-- Node1&#45;&gt;Node3 -->
<g id="edge2_Node000001_Node000003" class="edge">
<title>Node1&#45;&gt;Node3</title>
<g id="a_edge2_Node000001_Node000003"><a xlink:title=" ">
<path fill="none" stroke="#63b8ff" d="M874.19,-470.16C885.76,-460.94 898.46,-450.81 909.22,-442.23"/>
<polygon fill="#63b8ff" stroke="#63b8ff" points="872.03,-467.41 866.39,-476.38 876.39,-472.88 872.03,-467.41"/>
</a>
</g>
</g>
<!-- Node4 -->
<g id="Node000004" class="node">
<title>Node4</title>
<g id="a_Node000004"><a xlink:href="symbolicEngine_8cpp.html" target="_top" xlink:title=" ">
<polygon fill="white" stroke="#666666" points="529.5,-364 344,-364 344,-322.25 529.5,-322.25 529.5,-364"/>
<text text-anchor="start" x="352" y="-350.5" font-family="Helvetica,sans-Serif" font-size="10.00">/Users/jonathan/Works</text>
<text text-anchor="start" x="352" y="-339.25" font-family="Helvetica,sans-Serif" font-size="10.00">/Tools/Triton/src/libtriton</text>
<text text-anchor="middle" x="436.75" y="-328" font-family="Helvetica,sans-Serif" font-size="10.00">/engines/symbolic/symbolicEngine.cpp</text>
</a>
</g>
</g>
<!-- Node3&#45;&gt;Node4 -->
<g id="edge3_Node000003_Node000004" class="edge">
<title>Node3&#45;&gt;Node4</title>
<g id="a_edge3_Node000003_Node000004"><a xlink:title=" ">
<path fill="none" stroke="#63b8ff" d="M837.79,-399.58C707.63,-378.53 671.59,-383.6 543.75,-364 539.17,-363.3 534.49,-362.55 529.77,-361.77"/>
<polygon fill="#63b8ff" stroke="#63b8ff" points="837.07,-403.01 847.51,-401.18 838.21,-396.1 837.07,-403.01"/>
</a>
</g>
</g>
<!-- Node5 -->
<g id="Node000005" class="node">
<title>Node5</title>
<g id="a_Node000005"><a xlink:href="aarch64Semantics_8hpp.html" target="_top" xlink:title=" ">
<polygon fill="white" stroke="#666666" points="201,-286.25 18.5,-286.25 18.5,-244.5 201,-244.5 201,-286.25"/>
<text text-anchor="start" x="26.5" y="-272.75" font-family="Helvetica,sans-Serif" font-size="10.00">/Users/jonathan/Works</text>
<text text-anchor="start" x="26.5" y="-261.5" font-family="Helvetica,sans-Serif" font-size="10.00">/Tools/Triton/src/libtriton</text>
<text text-anchor="middle" x="109.75" y="-250.25" font-family="Helvetica,sans-Serif" font-size="10.00">/includes/triton/aarch64Semantics.hpp</text>
</a>
</g>
</g>
<!-- Node3&#45;&gt;Node5 -->
<g id="edge4_Node000003_Node000005" class="edge">
<title>Node3&#45;&gt;Node5</title>
<g id="a_edge4_Node000003_Node000005"><a xlink:title=" ">
<path fill="none" stroke="#63b8ff" d="M837.9,-399.69C719.08,-382.09 673.4,-421.86 571.75,-364 551.19,-352.3 559.44,-333.7 538.75,-322.25 474.4,-286.64 282.44,-297.43 209.75,-286.25 206.95,-285.82 204.11,-285.37 201.25,-284.89"/>
<polygon fill="#63b8ff" stroke="#63b8ff" points="837.32,-403.14 847.75,-401.27 838.43,-396.23 837.32,-403.14"/>
</a>
</g>
</g>
<!-- Node8 -->
<g id="Node000008" class="node">
<title>Node8</title>
<g id="a_Node000008"><a xlink:href="arm32Semantics_8hpp.html" target="_top" xlink:title=" ">
<polygon fill="white" stroke="#666666" points="394.25,-286.25 219.25,-286.25 219.25,-244.5 394.25,-244.5 394.25,-286.25"/>
<text text-anchor="start" x="227.25" y="-272.75" font-family="Helvetica,sans-Serif" font-size="10.00">/Users/jonathan/Works</text>
<text text-anchor="start" x="227.25" y="-261.5" font-family="Helvetica,sans-Serif" font-size="10.00">/Tools/Triton/src/libtriton</text>
<text text-anchor="middle" x="306.75" y="-250.25" font-family="Helvetica,sans-Serif" font-size="10.00">/includes/triton/arm32Semantics.hpp</text>
</a>
</g>
</g>
<!-- Node3&#45;&gt;Node8 -->
<g id="edge7_Node000003_Node000008" class="edge">
<title>Node3&#45;&gt;Node8</title>
<g id="a_edge7_Node000003_Node000008"><a xlink:title=" ">
<path fill="none" stroke="#63b8ff" d="M838.13,-399.68C735.94,-383.34 698.13,-411.54 609.75,-364 587.65,-352.11 593.52,-334.72 571.75,-322.25 569.75,-321.11 470.85,-300.41 394.46,-284.54"/>
<polygon fill="#63b8ff" stroke="#63b8ff" points="837.29,-403.09 847.74,-401.33 838.48,-396.19 837.29,-403.09"/>
</a>
</g>
</g>
<!-- Node10 -->
<g id="Node000010" class="node">
<title>Node10</title>
<g id="a_Node000010"><a xlink:href="context_8hpp.html" target="_top" xlink:title=" ">
<polygon fill="white" stroke="#666666" points="1025.62,-208.5 891.88,-208.5 891.88,-166.75 1025.62,-166.75 1025.62,-208.5"/>
<text text-anchor="start" x="899.88" y="-195" font-family="Helvetica,sans-Serif" font-size="10.00">/Users/jonathan/Works</text>
<text text-anchor="start" x="899.88" y="-183.75" font-family="Helvetica,sans-Serif" font-size="10.00">/Tools/Triton/src/libtriton</text>
<text text-anchor="middle" x="958.75" y="-172.5" font-family="Helvetica,sans-Serif" font-size="10.00">/includes/triton/context.hpp</text>
</a>
</g>
</g>
<!-- Node3&#45;&gt;Node10 -->
<g id="edge10_Node000003_Node000010" class="edge">
<title>Node3&#45;&gt;Node10</title>
<g id="a_edge10_Node000003_Node000010"><a xlink:title=" ">
<path fill="none" stroke="#63b8ff" d="M938.01,-388.47C943.01,-340.24 952.46,-249.28 956.65,-208.86"/>
<polygon fill="#63b8ff" stroke="#63b8ff" points="934.55,-387.94 936.99,-398.25 941.51,-388.67 934.55,-387.94"/>
</a>
</g>
</g>
<!-- Node18 -->
<g id="Node000018" class="node">
<title>Node18</title>
<g id="a_Node000018"><a xlink:href="irBuilder_8hpp.html" target="_top" xlink:title=" ">
<polygon fill="white" stroke="#666666" points="930.75,-286.25 794.75,-286.25 794.75,-244.5 930.75,-244.5 930.75,-286.25"/>
<text text-anchor="start" x="802.75" y="-272.75" font-family="Helvetica,sans-Serif" font-size="10.00">/Users/jonathan/Works</text>
<text text-anchor="start" x="802.75" y="-261.5" font-family="Helvetica,sans-Serif" font-size="10.00">/Tools/Triton/src/libtriton</text>
<text text-anchor="middle" x="862.75" y="-250.25" font-family="Helvetica,sans-Serif" font-size="10.00">/includes/triton/irBuilder.hpp</text>
</a>
</g>
</g>
<!-- Node3&#45;&gt;Node18 -->
<g id="edge18_Node000003_Node000018" class="edge">
<title>Node3&#45;&gt;Node18</title>
<g id="a_edge18_Node000003_Node000018"><a xlink:title=" ">
<path fill="none" stroke="#63b8ff" d="M920.61,-389.72C906.28,-359.17 884.51,-312.77 872.17,-286.45"/>
<polygon fill="#63b8ff" stroke="#63b8ff" points="917.28,-390.87 924.69,-398.44 923.62,-387.9 917.28,-390.87"/>
</a>
</g>
</g>
<!-- Node19 -->
<g id="Node000019" class="node">
<title>Node19</title>
<g id="a_Node000019"><a xlink:href="liftingEngine_8hpp.html" target="_top" xlink:title=" ">
<polygon fill="white" stroke="#666666" points="1311.12,-286.25 1156.38,-286.25 1156.38,-244.5 1311.12,-244.5 1311.12,-286.25"/>
<text text-anchor="start" x="1164.38" y="-272.75" font-family="Helvetica,sans-Serif" font-size="10.00">/Users/jonathan/Works</text>
<text text-anchor="start" x="1164.38" y="-261.5" font-family="Helvetica,sans-Serif" font-size="10.00">/Tools/Triton/src/libtriton</text>
<text text-anchor="middle" x="1233.75" y="-250.25" font-family="Helvetica,sans-Serif" font-size="10.00">/includes/triton/liftingEngine.hpp</text>
</a>
</g>
</g>
<!-- Node3&#45;&gt;Node19 -->
<g id="edge21_Node000003_Node000019" class="edge">
<title>Node3&#45;&gt;Node19</title>
<g id="a_edge21_Node000003_Node000019"><a xlink:title=" ">
<path fill="none" stroke="#63b8ff" d="M1031.66,-406.98C1069.87,-398.8 1112.88,-385.51 1147.75,-364 1152.08,-361.33 1192.84,-314.15 1216.66,-286.37"/>
<polygon fill="#63b8ff" stroke="#63b8ff" points="1031.07,-403.53 1021.97,-408.96 1032.47,-410.39 1031.07,-403.53"/>
</a>
</g>
</g>
<!-- Node20 -->
<g id="Node000020" class="node">
<title>Node20</title>
<g id="a_Node000020"><a xlink:href="liftingToDot_8hpp.html" target="_top" xlink:title=" ">
<polygon fill="white" stroke="#666666" points="1138.25,-364 987.25,-364 987.25,-322.25 1138.25,-322.25 1138.25,-364"/>
<text text-anchor="start" x="995.25" y="-350.5" font-family="Helvetica,sans-Serif" font-size="10.00">/Users/jonathan/Works</text>
<text text-anchor="start" x="995.25" y="-339.25" font-family="Helvetica,sans-Serif" font-size="10.00">/Tools/Triton/src/libtriton</text>
<text text-anchor="middle" x="1062.75" y="-328" font-family="Helvetica,sans-Serif" font-size="10.00">/includes/triton/liftingToDot.hpp</text>
</a>
</g>
</g>
<!-- Node3&#45;&gt;Node20 -->
<g id="edge23_Node000003_Node000020" class="edge">
<title>Node3&#45;&gt;Node20</title>
<g id="a_edge23_Node000003_Node000020"><a xlink:title=" ">
<path fill="none" stroke="#63b8ff" d="M978.85,-393.78C995.05,-384.19 1013.13,-373.49 1028.35,-364.48"/>
<polygon fill="#63b8ff" stroke="#63b8ff" points="977.18,-390.7 970.35,-398.8 980.74,-396.72 977.18,-390.7"/>
</a>
</g>
</g>
<!-- Node22 -->
<g id="Node000022" class="node">
<title>Node22</title>
<g id="a_Node000022"><a xlink:href="liftingToPython_8hpp.html" target="_top" xlink:title=" ">
<polygon fill="white" stroke="#666666" points="1360.75,-364 1194.75,-364 1194.75,-322.25 1360.75,-322.25 1360.75,-364"/>
<text text-anchor="start" x="1202.75" y="-350.5" font-family="Helvetica,sans-Serif" font-size="10.00">/Users/jonathan/Works</text>
<text text-anchor="start" x="1202.75" y="-339.25" font-family="Helvetica,sans-Serif" font-size="10.00">/Tools/Triton/src/libtriton</text>
<text text-anchor="middle" x="1277.75" y="-328" font-family="Helvetica,sans-Serif" font-size="10.00">/includes/triton/liftingToPython.hpp</text>
</a>
</g>
</g>
<!-- Node3&#45;&gt;Node22 -->
<g id="edge26_Node000003_Node000022" class="edge">
<title>Node3&#45;&gt;Node22</title>
<g id="a_edge26_Node000003_Node000022"><a xlink:title=" ">
<path fill="none" stroke="#63b8ff" d="M1031.52,-398.5C1082.82,-387.17 1145.22,-373.39 1194.36,-362.54"/>
<polygon fill="#63b8ff" stroke="#63b8ff" points="1030.91,-395.05 1021.9,-400.63 1032.42,-401.89 1030.91,-395.05"/>
</a>
</g>
</g>
<!-- Node24 -->
<g id="Node000024" class="node">
<title>Node24</title>
<g id="a_Node000024"><a xlink:href="liftingToSMT_8hpp.html" target="_top" xlink:title=" ">
<polygon fill="white" stroke="#666666" points="1533.12,-364 1378.38,-364 1378.38,-322.25 1533.12,-322.25 1533.12,-364"/>
<text text-anchor="start" x="1386.38" y="-350.5" font-family="Helvetica,sans-Serif" font-size="10.00">/Users/jonathan/Works</text>
<text text-anchor="start" x="1386.38" y="-339.25" font-family="Helvetica,sans-Serif" font-size="10.00">/Tools/Triton/src/libtriton</text>
<text text-anchor="middle" x="1455.75" y="-328" font-family="Helvetica,sans-Serif" font-size="10.00">/includes/triton/liftingToSMT.hpp</text>
</a>
</g>
</g>
<!-- Node3&#45;&gt;Node24 -->
<g id="edge29_Node000003_Node000024" class="edge">
<title>Node3&#45;&gt;Node24</title>
<g id="a_edge29_Node000003_Node000024"><a xlink:title=" ">
<path fill="none" stroke="#63b8ff" d="M1031.51,-410.23C1119.94,-400.76 1254.15,-384.73 1369.75,-364 1372.47,-363.51 1375.22,-363 1378.01,-362.46"/>
<polygon fill="#63b8ff" stroke="#63b8ff" points="1031.23,-406.74 1021.66,-411.28 1031.97,-413.7 1031.23,-406.74"/>
</a>
</g>
</g>
<!-- Node26 -->
<g id="Node000026" class="node">
<title>Node26</title>
<g id="a_Node000026"><a xlink:href="synthesizer_8hpp.html" target="_top" xlink:title=" ">
<polygon fill="white" stroke="#666666" points="1770.25,-364 1619.25,-364 1619.25,-322.25 1770.25,-322.25 1770.25,-364"/>
<text text-anchor="start" x="1627.25" y="-350.5" font-family="Helvetica,sans-Serif" font-size="10.00">/Users/jonathan/Works</text>
<text text-anchor="start" x="1627.25" y="-339.25" font-family="Helvetica,sans-Serif" font-size="10.00">/Tools/Triton/src/libtriton</text>
<text text-anchor="middle" x="1694.75" y="-328" font-family="Helvetica,sans-Serif" font-size="10.00">/includes/triton/synthesizer.hpp</text>
</a>
</g>
</g>
<!-- Node3&#45;&gt;Node26 -->
<g id="edge32_Node000003_Node000026" class="edge">
<title>Node3&#45;&gt;Node26</title>
<g id="a_edge32_Node000003_Node000026"><a xlink:title=" ">
<path fill="none" stroke="#63b8ff" d="M1031.61,-412.08C1151.52,-402.18 1361.9,-383.95 1541.75,-364 1566.91,-361.21 1594.34,-357.77 1618.94,-354.54"/>
<polygon fill="#63b8ff" stroke="#63b8ff" points="1031.48,-408.58 1021.81,-412.89 1032.06,-415.56 1031.48,-408.58"/>
</a>
</g>
</g>
<!-- Node28 -->
<g id="Node000028" class="node">
<title>Node28</title>
<g id="a_Node000028"><a xlink:href="taintEngine_8hpp.html" target="_top" xlink:title=" ">
<polygon fill="white" stroke="#666666" points="811.88,-364 661.62,-364 661.62,-322.25 811.88,-322.25 811.88,-364"/>
<text text-anchor="start" x="669.62" y="-350.5" font-family="Helvetica,sans-Serif" font-size="10.00">/Users/jonathan/Works</text>
<text text-anchor="start" x="669.62" y="-339.25" font-family="Helvetica,sans-Serif" font-size="10.00">/Tools/Triton/src/libtriton</text>
<text text-anchor="middle" x="736.75" y="-328" font-family="Helvetica,sans-Serif" font-size="10.00">/includes/triton/taintEngine.hpp</text>
</a>
</g>
</g>
<!-- Node3&#45;&gt;Node28 -->
<g id="edge35_Node000003_Node000028" class="edge">
<title>Node3&#45;&gt;Node28</title>
<g id="a_edge35_Node000003_Node000028"><a xlink:title=" ">
<path fill="none" stroke="#63b8ff" d="M871.11,-395.53C844.93,-385.51 814.94,-374.04 789.96,-364.48"/>
<polygon fill="#63b8ff" stroke="#63b8ff" points="869.69,-398.73 880.28,-399.03 872.19,-392.19 869.69,-398.73"/>
</a>
</g>
</g>
<!-- Node30 -->
<g id="Node000030" class="node">
<title>Node30</title>
<g id="a_Node000030"><a xlink:href="x86Semantics_8hpp.html" target="_top" xlink:title=" ">
<polygon fill="white" stroke="#666666" points="575.62,-286.25 411.88,-286.25 411.88,-244.5 575.62,-244.5 575.62,-286.25"/>
<text text-anchor="start" x="419.88" y="-272.75" font-family="Helvetica,sans-Serif" font-size="10.00">/Users/jonathan/Works</text>
<text text-anchor="start" x="419.88" y="-261.5" font-family="Helvetica,sans-Serif" font-size="10.00">/Tools/Triton/src/libtriton</text>
<text text-anchor="middle" x="493.75" y="-250.25" font-family="Helvetica,sans-Serif" font-size="10.00">/includes/triton/x86Semantics.hpp</text>
</a>
</g>
</g>
<!-- Node3&#45;&gt;Node30 -->
<g id="edge44_Node000003_Node000030" class="edge">
<title>Node3&#45;&gt;Node30</title>
<g id="a_edge44_Node000003_Node000030"><a xlink:title=" ">
<path fill="none" stroke="#63b8ff" d="M837.96,-399.58C754.82,-384.78 725.04,-401.63 652.75,-364 629.12,-351.7 631.59,-337.5 609.75,-322.25 589.78,-308.3 565.78,-296.1 544.81,-286.68"/>
<polygon fill="#63b8ff" stroke="#63b8ff" points="837.24,-403.01 847.72,-401.43 838.55,-396.13 837.24,-403.01"/>
</a>
</g>
</g>
<!-- Node6 -->
<g id="Node000006" class="node">
<title>Node6</title>
<g id="a_Node000006"><a xlink:href="aarch64Semantics_8cpp.html" target="_top" xlink:title=" ">
<polygon fill="white" stroke="#666666" points="197.5,-208.5 0,-208.5 0,-166.75 197.5,-166.75 197.5,-208.5"/>
<text text-anchor="start" x="8" y="-195" font-family="Helvetica,sans-Serif" font-size="10.00">/Users/jonathan/Works</text>
<text text-anchor="start" x="8" y="-183.75" font-family="Helvetica,sans-Serif" font-size="10.00">/Tools/Triton/src/libtriton</text>
<text text-anchor="middle" x="98.75" y="-172.5" font-family="Helvetica,sans-Serif" font-size="10.00">/arch/arm/aarch64/aarch64Semantics.cpp</text>
</a>
</g>
</g>
<!-- Node5&#45;&gt;Node6 -->
<g id="edge5_Node000005_Node000006" class="edge">
<title>Node5&#45;&gt;Node6</title>
<g id="a_edge5_Node000005_Node000006"><a xlink:title=" ">
<path fill="none" stroke="#63b8ff" d="M105.16,-232.75C103.99,-224.71 102.77,-216.29 101.71,-208.98"/>
<polygon fill="#63b8ff" stroke="#63b8ff" points="101.68,-233.18 106.58,-242.58 108.61,-232.18 101.68,-233.18"/>
</a>
</g>
</g>
<!-- Node7 -->
<g id="Node000007" class="node">
<title>Node7</title>
<g id="a_Node000007"><a xlink:href="irBuilder_8cpp.html" target="_top" xlink:title=" ">
<polygon fill="white" stroke="#666666" points="537.25,-208.5 416.25,-208.5 416.25,-166.75 537.25,-166.75 537.25,-208.5"/>
<text text-anchor="start" x="424.25" y="-195" font-family="Helvetica,sans-Serif" font-size="10.00">/Users/jonathan/Works</text>
<text text-anchor="start" x="424.25" y="-183.75" font-family="Helvetica,sans-Serif" font-size="10.00">/Tools/Triton/src/libtriton</text>
<text text-anchor="middle" x="476.75" y="-172.5" font-family="Helvetica,sans-Serif" font-size="10.00">/arch/irBuilder.cpp</text>
</a>
</g>
</g>
<!-- Node5&#45;&gt;Node7 -->
<g id="edge6_Node000005_Node000007" class="edge">
<title>Node5&#45;&gt;Node7</title>
<g id="a_edge6_Node000005_Node000007"><a xlink:title=" ">
<path fill="none" stroke="#63b8ff" d="M212.47,-244.01C299.11,-227.86 323.53,-227.87 406.75,-208.5 409.7,-207.81 412.72,-207.08 415.76,-206.32"/>
<polygon fill="#63b8ff" stroke="#63b8ff" points="211.96,-240.55 202.78,-245.84 213.25,-247.43 211.96,-240.55"/>
</a>
</g>
</g>
<!-- Node8&#45;&gt;Node7 -->
<g id="edge9_Node000008_Node000007" class="edge">
<title>Node8&#45;&gt;Node7</title>
<g id="a_edge9_Node000008_Node000007"><a xlink:title=" ">
<path fill="none" stroke="#63b8ff" d="M362.59,-239.49C384.79,-229.6 409.99,-218.37 431.07,-208.98"/>
<polygon fill="#63b8ff" stroke="#63b8ff" points="361.4,-236.19 353.69,-243.46 364.25,-242.59 361.4,-236.19"/>
</a>
</g>
</g>
<!-- Node9 -->
<g id="Node000009" class="node">
<title>Node9</title>
<g id="a_Node000009"><a xlink:href="arm32Semantics_8cpp.html" target="_top" xlink:title=" ">
<polygon fill="white" stroke="#666666" points="398,-208.5 215.5,-208.5 215.5,-166.75 398,-166.75 398,-208.5"/>
<text text-anchor="start" x="223.5" y="-195" font-family="Helvetica,sans-Serif" font-size="10.00">/Users/jonathan/Works</text>
<text text-anchor="start" x="223.5" y="-183.75" font-family="Helvetica,sans-Serif" font-size="10.00">/Tools/Triton/src/libtriton</text>
<text text-anchor="middle" x="306.75" y="-172.5" font-family="Helvetica,sans-Serif" font-size="10.00">/arch/arm/arm32/arm32Semantics.cpp</text>
</a>
</g>
</g>
<!-- Node8&#45;&gt;Node9 -->
<g id="edge8_Node000008_Node000009" class="edge">
<title>Node8&#45;&gt;Node9</title>
<g id="a_edge8_Node000008_Node000009"><a xlink:title=" ">
<path fill="none" stroke="#63b8ff" d="M306.75,-232.75C306.75,-224.71 306.75,-216.29 306.75,-208.98"/>
<polygon fill="#63b8ff" stroke="#63b8ff" points="303.25,-232.56 306.75,-242.56 310.25,-232.56 303.25,-232.56"/>
</a>
</g>
</g>
<!-- Node11 -->
<g id="Node000011" class="node">
<title>Node11</title>
<g id="a_Node000011"><a xlink:href="pyTritonContext_8cpp.html" target="_top" xlink:title=" ">
<polygon fill="white" stroke="#666666" points="738.62,-130.75 616.88,-130.75 616.88,-77.75 738.62,-77.75 738.62,-130.75"/>
<text text-anchor="start" x="624.88" y="-117.25" font-family="Helvetica,sans-Serif" font-size="10.00">/Users/jonathan/Works</text>
<text text-anchor="start" x="624.88" y="-106" font-family="Helvetica,sans-Serif" font-size="10.00">/Tools/Triton/src/libtriton</text>
<text text-anchor="start" x="624.88" y="-94.75" font-family="Helvetica,sans-Serif" font-size="10.00">/bindings/python/objects</text>
<text text-anchor="middle" x="677.75" y="-83.5" font-family="Helvetica,sans-Serif" font-size="10.00">/pyTritonContext.cpp</text>
</a>
</g>
</g>
<!-- Node10&#45;&gt;Node11 -->
<g id="edge11_Node000010_Node000011" class="edge">
<title>Node10&#45;&gt;Node11</title>
<g id="a_edge11_Node000010_Node000011"><a xlink:title=" ">
<path fill="none" stroke="#63b8ff" d="M880.76,-167.77C840.75,-157.64 791.37,-144.44 747.75,-130.75 744.91,-129.86 742.02,-128.92 739.1,-127.96"/>
<polygon fill="#63b8ff" stroke="#63b8ff" points="879.77,-171.12 890.32,-170.17 881.47,-164.34 879.77,-171.12"/>
</a>
</g>
</g>
<!-- Node12 -->
<g id="Node000012" class="node">
<title>Node12</title>
<g id="a_Node000012"><a xlink:href="callbacks_8cpp.html" target="_top" xlink:title=" ">
<polygon fill="white" stroke="#666666" points="880.38,-125.12 757.12,-125.12 757.12,-83.38 880.38,-83.38 880.38,-125.12"/>
<text text-anchor="start" x="765.12" y="-111.62" font-family="Helvetica,sans-Serif" font-size="10.00">/Users/jonathan/Works</text>
<text text-anchor="start" x="765.12" y="-100.38" font-family="Helvetica,sans-Serif" font-size="10.00">/Tools/Triton/src/libtriton</text>
<text text-anchor="middle" x="818.75" y="-89.12" font-family="Helvetica,sans-Serif" font-size="10.00">/callbacks/callbacks.cpp</text>
</a>
</g>
</g>
<!-- Node10&#45;&gt;Node12 -->
<g id="edge12_Node000010_Node000012" class="edge">
<title>Node10&#45;&gt;Node12</title>
<g id="a_edge12_Node000010_Node000012"><a xlink:title=" ">
<path fill="none" stroke="#63b8ff" d="M913.91,-160.56C894.44,-149.24 871.97,-136.18 853.76,-125.6"/>
<polygon fill="#63b8ff" stroke="#63b8ff" points="912.07,-163.54 922.47,-165.54 915.59,-157.49 912.07,-163.54"/>
</a>
</g>
</g>
<!-- Node13 -->
<g id="Node000013" class="node">
<title>Node13</title>
<g id="a_Node000013"><a xlink:href="context_8cpp.html" target="_top" xlink:title=" ">
<polygon fill="white" stroke="#666666" points="1019.25,-125.12 898.25,-125.12 898.25,-83.38 1019.25,-83.38 1019.25,-125.12"/>
<text text-anchor="start" x="906.25" y="-111.62" font-family="Helvetica,sans-Serif" font-size="10.00">/Users/jonathan/Works</text>
<text text-anchor="start" x="906.25" y="-100.38" font-family="Helvetica,sans-Serif" font-size="10.00">/Tools/Triton/src/libtriton</text>
<text text-anchor="middle" x="958.75" y="-89.12" font-family="Helvetica,sans-Serif" font-size="10.00">/context/context.cpp</text>
</a>
</g>
</g>
<!-- Node10&#45;&gt;Node13 -->
<g id="edge13_Node000010_Node000013" class="edge">
<title>Node10&#45;&gt;Node13</title>
<g id="a_edge13_Node000010_Node000013"><a xlink:title=" ">
<path fill="none" stroke="#63b8ff" d="M958.75,-155.27C958.75,-145.24 958.75,-134.42 958.75,-125.42"/>
<polygon fill="#63b8ff" stroke="#63b8ff" points="955.25,-155 958.75,-165 962.25,-155 955.25,-155"/>
</a>
</g>
</g>
<!-- Node14 -->
<g id="Node000014" class="node">
<title>Node14</title>
<g id="a_Node000014"><a xlink:href="symbolicSimplification_8cpp.html" target="_top" xlink:title=" ">
<polygon fill="white" stroke="#666666" points="1251.75,-125.12 1037.75,-125.12 1037.75,-83.38 1251.75,-83.38 1251.75,-125.12"/>
<text text-anchor="start" x="1045.75" y="-111.62" font-family="Helvetica,sans-Serif" font-size="10.00">/Users/jonathan/Works</text>
<text text-anchor="start" x="1045.75" y="-100.38" font-family="Helvetica,sans-Serif" font-size="10.00">/Tools/Triton/src/libtriton</text>
<text text-anchor="middle" x="1144.75" y="-89.12" font-family="Helvetica,sans-Serif" font-size="10.00">/engines/symbolic/symbolicSimplification.cpp</text>
</a>
</g>
</g>
<!-- Node10&#45;&gt;Node14 -->
<g id="edge14_Node000010_Node000014" class="edge">
<title>Node10&#45;&gt;Node14</title>
<g id="a_edge14_Node000010_Node000014"><a xlink:title=" ">
<path fill="none" stroke="#63b8ff" d="M1015.49,-161.8C1041.99,-150.21 1073.16,-136.57 1098.24,-125.6"/>
<polygon fill="#63b8ff" stroke="#63b8ff" points="1014.35,-158.48 1006.59,-165.69 1017.16,-164.89 1014.35,-158.48"/>
</a>
</g>
</g>
<!-- Node15 -->
<g id="Node000015" class="node">
<title>Node15</title>
<g id="a_Node000015"><a xlink:href="llvmToTriton_8hpp.html" target="_top" xlink:title=" ">
<polygon fill="white" stroke="#666666" points="1424.12,-125.12 1269.38,-125.12 1269.38,-83.38 1424.12,-83.38 1424.12,-125.12"/>
<text text-anchor="start" x="1277.38" y="-111.62" font-family="Helvetica,sans-Serif" font-size="10.00">/Users/jonathan/Works</text>
<text text-anchor="start" x="1277.38" y="-100.38" font-family="Helvetica,sans-Serif" font-size="10.00">/Tools/Triton/src/libtriton</text>
<text text-anchor="middle" x="1346.75" y="-89.12" font-family="Helvetica,sans-Serif" font-size="10.00">/includes/triton/llvmToTriton.hpp</text>
</a>
</g>
</g>
<!-- Node10&#45;&gt;Node15 -->
<g id="edge15_Node000010_Node000015" class="edge">
<title>Node10&#45;&gt;Node15</title>
<g id="a_edge15_Node000010_Node000015"><a xlink:title=" ">
<path fill="none" stroke="#63b8ff" d="M1037.17,-174.44C1098.42,-164.37 1185.46,-148.82 1260.75,-130.75 1267.26,-129.19 1274.01,-127.43 1280.74,-125.59"/>
<polygon fill="#63b8ff" stroke="#63b8ff" points="1036.85,-170.95 1027.54,-176.02 1037.98,-177.86 1036.85,-170.95"/>
</a>
</g>
</g>
<!-- Node16 -->
<g id="Node000016" class="node">
<title>Node16</title>
<g id="a_Node000016"><a xlink:href="llvmToTriton_8cpp.html" target="_top" xlink:title=" ">
<polygon fill="white" stroke="#666666" points="1330,-41.75 1201.5,-41.75 1201.5,0 1330,0 1330,-41.75"/>
<text text-anchor="start" x="1209.5" y="-28.25" font-family="Helvetica,sans-Serif" font-size="10.00">/Users/jonathan/Works</text>
<text text-anchor="start" x="1209.5" y="-17" font-family="Helvetica,sans-Serif" font-size="10.00">/Tools/Triton/src/libtriton</text>
<text text-anchor="middle" x="1265.75" y="-5.75" font-family="Helvetica,sans-Serif" font-size="10.00">/ast/llvm/llvmToTriton.cpp</text>
</a>
</g>
</g>
<!-- Node15&#45;&gt;Node16 -->
<g id="edge16_Node000015_Node000016" class="edge">
<title>Node15&#45;&gt;Node16</title>
<g id="a_edge16_Node000015_Node000016"><a xlink:title=" ">
<path fill="none" stroke="#63b8ff" d="M1318.76,-75.13C1307.92,-64.24 1295.76,-52.02 1285.82,-42.04"/>
<polygon fill="#63b8ff" stroke="#63b8ff" points="1316.12,-77.44 1325.66,-82.06 1321.09,-72.51 1316.12,-77.44"/>
</a>
</g>
</g>
<!-- Node17 -->
<g id="Node000017" class="node">
<title>Node17</title>
<g id="a_Node000017"><a xlink:href="liftingToLLVM_8cpp.html" target="_top" xlink:title=" ">
<polygon fill="white" stroke="#666666" points="1507.75,-41.75 1347.75,-41.75 1347.75,0 1507.75,0 1507.75,-41.75"/>
<text text-anchor="start" x="1355.75" y="-28.25" font-family="Helvetica,sans-Serif" font-size="10.00">/Users/jonathan/Works</text>
<text text-anchor="start" x="1355.75" y="-17" font-family="Helvetica,sans-Serif" font-size="10.00">/Tools/Triton/src/libtriton</text>
<text text-anchor="middle" x="1427.75" y="-5.75" font-family="Helvetica,sans-Serif" font-size="10.00">/engines/lifters/liftingToLLVM.cpp</text>
</a>
</g>
</g>
<!-- Node15&#45;&gt;Node17 -->
<g id="edge17_Node000015_Node000017" class="edge">
<title>Node15&#45;&gt;Node17</title>
<g id="a_edge17_Node000015_Node000017"><a xlink:title=" ">
<path fill="none" stroke="#63b8ff" d="M1374.74,-75.13C1385.58,-64.24 1397.74,-52.02 1407.68,-42.04"/>
<polygon fill="#63b8ff" stroke="#63b8ff" points="1372.41,-72.51 1367.84,-82.06 1377.38,-77.44 1372.41,-72.51"/>
</a>
</g>
</g>
<!-- Node18&#45;&gt;Node7 -->
<g id="edge19_Node000018_Node000007" class="edge">
<title>Node18&#45;&gt;Node7</title>
<g id="a_edge19_Node000018_Node000007"><a xlink:title=" ">
<path fill="none" stroke="#63b8ff" d="M783.22,-250.52C693.44,-234.85 558.27,-211.15 546.75,-208.5 543.8,-207.82 540.78,-207.09 537.74,-206.34"/>
<polygon fill="#63b8ff" stroke="#63b8ff" points="782.53,-253.95 792.99,-252.22 783.74,-247.06 782.53,-253.95"/>
</a>
</g>
</g>
<!-- Node18&#45;&gt;Node10 -->
<g id="edge20_Node000018_Node000010" class="edge">
<title>Node18&#45;&gt;Node10</title>
<g id="a_edge20_Node000018_Node000010"><a xlink:title=" ">
<path fill="none" stroke="#63b8ff" d="M897.21,-237.19C908.99,-227.89 921.97,-217.65 932.95,-208.98"/>
<polygon fill="#63b8ff" stroke="#63b8ff" points="895.35,-234.2 889.66,-243.14 899.68,-239.69 895.35,-234.2"/>
</a>
</g>
</g>
<!-- Node19&#45;&gt;Node10 -->
<g id="edge22_Node000019_Node000010" class="edge">
<title>Node19&#45;&gt;Node10</title>
<g id="a_edge22_Node000019_Node000010"><a xlink:title=" ">
<path fill="none" stroke="#63b8ff" d="M1149.1,-241.06C1109.56,-230.17 1063.15,-217.38 1026.05,-207.16"/>
<polygon fill="#63b8ff" stroke="#63b8ff" points="1148.03,-244.39 1158.6,-243.67 1149.88,-237.64 1148.03,-244.39"/>
</a>
</g>
</g>
<!-- Node20&#45;&gt;Node19 -->
<g id="edge25_Node000020_Node000019" class="edge">
<title>Node20&#45;&gt;Node19</title>
<g id="a_edge25_Node000020_Node000019"><a xlink:title=" ">
<path fill="none" stroke="#63b8ff" d="M1118.92,-317.24C1141.25,-307.35 1166.6,-296.12 1187.8,-286.73"/>
<polygon fill="#63b8ff" stroke="#63b8ff" points="1117.68,-313.96 1109.96,-321.21 1120.52,-320.36 1117.68,-313.96"/>
</a>
</g>
</g>
<!-- Node21 -->
<g id="Node000021" class="node">
<title>Node21</title>
<g id="a_Node000021"><a xlink:href="liftingToDot_8cpp.html" target="_top" xlink:title=" ">
<polygon fill="white" stroke="#666666" points="1138.25,-286.25 987.25,-286.25 987.25,-244.5 1138.25,-244.5 1138.25,-286.25"/>
<text text-anchor="start" x="995.25" y="-272.75" font-family="Helvetica,sans-Serif" font-size="10.00">/Users/jonathan/Works</text>
<text text-anchor="start" x="995.25" y="-261.5" font-family="Helvetica,sans-Serif" font-size="10.00">/Tools/Triton/src/libtriton</text>
<text text-anchor="middle" x="1062.75" y="-250.25" font-family="Helvetica,sans-Serif" font-size="10.00">/engines/lifters/liftingToDot.cpp</text>
</a>
</g>
</g>
<!-- Node20&#45;&gt;Node21 -->
<g id="edge24_Node000020_Node000021" class="edge">
<title>Node20&#45;&gt;Node21</title>
<g id="a_edge24_Node000020_Node000021"><a xlink:title=" ">
<path fill="none" stroke="#63b8ff" d="M1062.75,-310.5C1062.75,-302.46 1062.75,-294.04 1062.75,-286.73"/>
<polygon fill="#63b8ff" stroke="#63b8ff" points="1059.25,-310.31 1062.75,-320.31 1066.25,-310.31 1059.25,-310.31"/>
</a>
</g>
</g>
<!-- Node22&#45;&gt;Node19 -->
<g id="edge28_Node000022_Node000019" class="edge">
<title>Node22&#45;&gt;Node19</title>
<g id="a_edge28_Node000022_Node000019"><a xlink:title=" ">
<path fill="none" stroke="#63b8ff" d="M1260.19,-311.9C1255.28,-303.45 1250.07,-294.46 1245.57,-286.73"/>
<polygon fill="#63b8ff" stroke="#63b8ff" points="1257.15,-313.63 1265.2,-320.52 1263.2,-310.11 1257.15,-313.63"/>
</a>
</g>
</g>
<!-- Node23 -->
<g id="Node000023" class="node">
<title>Node23</title>
<g id="a_Node000023"><a xlink:href="liftingToPython_8cpp.html" target="_top" xlink:title=" ">
<polygon fill="white" stroke="#666666" points="1494.75,-286.25 1328.75,-286.25 1328.75,-244.5 1494.75,-244.5 1494.75,-286.25"/>
<text text-anchor="start" x="1336.75" y="-272.75" font-family="Helvetica,sans-Serif" font-size="10.00">/Users/jonathan/Works</text>
<text text-anchor="start" x="1336.75" y="-261.5" font-family="Helvetica,sans-Serif" font-size="10.00">/Tools/Triton/src/libtriton</text>
<text text-anchor="middle" x="1411.75" y="-250.25" font-family="Helvetica,sans-Serif" font-size="10.00">/engines/lifters/liftingToPython.cpp</text>
</a>
</g>
</g>
<!-- Node22&#45;&gt;Node23 -->
<g id="edge27_Node000022_Node000023" class="edge">
<title>Node22&#45;&gt;Node23</title>
<g id="a_edge27_Node000022_Node000023"><a xlink:title=" ">
<path fill="none" stroke="#63b8ff" d="M1323.44,-316.3C1340.52,-306.64 1359.66,-295.82 1375.74,-286.73"/>
<polygon fill="#63b8ff" stroke="#63b8ff" points="1321.96,-313.11 1314.98,-321.08 1325.4,-319.21 1321.96,-313.11"/>
</a>
</g>
</g>
<!-- Node24&#45;&gt;Node19 -->
<g id="edge31_Node000024_Node000019" class="edge">
<title>Node24&#45;&gt;Node19</title>
<g id="a_edge31_Node000024_Node000019"><a xlink:title=" ">
<path fill="none" stroke="#63b8ff" d="M1385.56,-318.18C1355.93,-308.07 1321.8,-296.42 1293.41,-286.73"/>
<polygon fill="#63b8ff" stroke="#63b8ff" points="1384.23,-321.42 1394.83,-321.34 1386.49,-314.79 1384.23,-321.42"/>
</a>
</g>
</g>
<!-- Node25 -->
<g id="Node000025" class="node">
<title>Node25</title>
<g id="a_Node000025"><a xlink:href="liftingToSMT_8cpp.html" target="_top" xlink:title=" ">
<polygon fill="white" stroke="#666666" points="1667.12,-286.25 1512.38,-286.25 1512.38,-244.5 1667.12,-244.5 1667.12,-286.25"/>
<text text-anchor="start" x="1520.38" y="-272.75" font-family="Helvetica,sans-Serif" font-size="10.00">/Users/jonathan/Works</text>
<text text-anchor="start" x="1520.38" y="-261.5" font-family="Helvetica,sans-Serif" font-size="10.00">/Tools/Triton/src/libtriton</text>
<text text-anchor="middle" x="1589.75" y="-250.25" font-family="Helvetica,sans-Serif" font-size="10.00">/engines/lifters/liftingToSMT.cpp</text>
</a>
</g>
</g>
<!-- Node24&#45;&gt;Node25 -->
<g id="edge30_Node000024_Node000025" class="edge">
<title>Node24&#45;&gt;Node25</title>
<g id="a_edge30_Node000024_Node000025"><a xlink:title=" ">
<path fill="none" stroke="#63b8ff" d="M1501.44,-316.3C1518.52,-306.64 1537.66,-295.82 1553.74,-286.73"/>
<polygon fill="#63b8ff" stroke="#63b8ff" points="1499.96,-313.11 1492.98,-321.08 1503.4,-319.21 1499.96,-313.11"/>
</a>
</g>
</g>
<!-- Node26&#45;&gt;Node10 -->
<g id="edge34_Node000026_Node000010" class="edge">
<title>Node26&#45;&gt;Node10</title>
<g id="a_edge34_Node000026_Node000010"><a xlink:title=" ">
<path fill="none" stroke="#63b8ff" d="M1697.69,-310.49C1697.83,-288.64 1693.91,-260.69 1675.75,-244.5 1627.87,-201.81 1194.84,-191.65 1025.86,-189.31"/>
<polygon fill="#63b8ff" stroke="#63b8ff" points="1694.2,-310.25 1697.32,-320.38 1701.2,-310.52 1694.2,-310.25"/>
</a>
</g>
</g>
<!-- Node27 -->
<g id="Node000027" class="node">
<title>Node27</title>
<g id="a_Node000027"><a xlink:href="synthesizer_8cpp.html" target="_top" xlink:title=" ">
<polygon fill="white" stroke="#666666" points="1892.25,-286.25 1723.25,-286.25 1723.25,-244.5 1892.25,-244.5 1892.25,-286.25"/>
<text text-anchor="start" x="1731.25" y="-272.75" font-family="Helvetica,sans-Serif" font-size="10.00">/Users/jonathan/Works</text>
<text text-anchor="start" x="1731.25" y="-261.5" font-family="Helvetica,sans-Serif" font-size="10.00">/Tools/Triton/src/libtriton</text>
<text text-anchor="middle" x="1807.75" y="-250.25" font-family="Helvetica,sans-Serif" font-size="10.00">/engines/synthesis/synthesizer.cpp</text>
</a>
</g>
</g>
<!-- Node26&#45;&gt;Node27 -->
<g id="edge33_Node000026_Node000027" class="edge">
<title>Node26&#45;&gt;Node27</title>
<g id="a_edge33_Node000026_Node000027"><a xlink:title=" ">
<path fill="none" stroke="#63b8ff" d="M1734.49,-315.48C1748.58,-306.04 1764.2,-295.57 1777.38,-286.73"/>
<polygon fill="#63b8ff" stroke="#63b8ff" points="1732.65,-312.51 1726.29,-320.98 1736.54,-318.32 1732.65,-312.51"/>
</a>
</g>
</g>
<!-- Node28&#45;&gt;Node5 -->
<g id="edge37_Node000028_Node000005" class="edge">
<title>Node28&#45;&gt;Node5</title>
<g id="a_edge37_Node000028_Node000005"><a xlink:title=" ">
<path fill="none" stroke="#63b8ff" d="M649.83,-331.31C624.65,-328.27 597.12,-325.04 571.75,-322.25 411.04,-304.58 369.67,-310.04 209.75,-286.25 206.95,-285.83 204.11,-285.39 201.24,-284.93"/>
<polygon fill="#63b8ff" stroke="#63b8ff" points="649.37,-334.78 659.72,-332.51 650.21,-327.83 649.37,-334.78"/>
</a>
</g>
</g>
<!-- Node28&#45;&gt;Node8 -->
<g id="edge38_Node000028_Node000008" class="edge">
<title>Node28&#45;&gt;Node8</title>
<g id="a_edge38_Node000028_Node000008"><a xlink:title=" ">
<path fill="none" stroke="#63b8ff" d="M650.32,-328.6C582.79,-317.81 486.64,-301.95 402.75,-286.25 400.07,-285.75 397.36,-285.23 394.61,-284.71"/>
<polygon fill="#63b8ff" stroke="#63b8ff" points="649.4,-332 659.83,-330.12 650.51,-325.09 649.4,-332"/>
</a>
</g>
</g>
<!-- Node28&#45;&gt;Node10 -->
<g id="edge39_Node000028_Node000010" class="edge">
<title>Node28&#45;&gt;Node10</title>
<g id="a_edge39_Node000028_Node000010"><a xlink:title=" ">
<path fill="none" stroke="#63b8ff" d="M745.29,-311.13C752.7,-289.64 765.5,-261.87 785.75,-244.5 815.34,-219.12 856.64,-205.23 891.47,-197.64"/>
<polygon fill="#63b8ff" stroke="#63b8ff" points="741.98,-309.98 742.26,-320.57 748.65,-312.12 741.98,-309.98"/>
</a>
</g>
</g>
<!-- Node28&#45;&gt;Node18 -->
<g id="edge40_Node000028_Node000018" class="edge">
<title>Node28&#45;&gt;Node18</title>
<g id="a_edge40_Node000028_Node000018"><a xlink:title=" ">
<path fill="none" stroke="#63b8ff" d="M780.16,-316.03C796.11,-306.44 813.91,-295.74 828.89,-286.73"/>
<polygon fill="#63b8ff" stroke="#63b8ff" points="778.58,-312.89 771.81,-321.05 782.19,-318.89 778.58,-312.89"/>
</a>
</g>
</g>
<!-- Node29 -->
<g id="Node000029" class="node">
<title>Node29</title>
<g id="a_Node000029"><a xlink:href="taintEngine_8cpp.html" target="_top" xlink:title=" ">
<polygon fill="white" stroke="#666666" points="738.25,-286.25 593.25,-286.25 593.25,-244.5 738.25,-244.5 738.25,-286.25"/>
<text text-anchor="start" x="601.25" y="-272.75" font-family="Helvetica,sans-Serif" font-size="10.00">/Users/jonathan/Works</text>
<text text-anchor="start" x="601.25" y="-261.5" font-family="Helvetica,sans-Serif" font-size="10.00">/Tools/Triton/src/libtriton</text>
<text text-anchor="middle" x="665.75" y="-250.25" font-family="Helvetica,sans-Serif" font-size="10.00">/engines/taint/taintEngine.cpp</text>
</a>
</g>
</g>
<!-- Node28&#45;&gt;Node29 -->
<g id="edge36_Node000028_Node000029" class="edge">
<title>Node28&#45;&gt;Node29</title>
<g id="a_edge36_Node000028_Node000029"><a xlink:title=" ">
<path fill="none" stroke="#63b8ff" d="M709.98,-313.56C701.61,-304.64 692.56,-294.97 684.83,-286.73"/>
<polygon fill="#63b8ff" stroke="#63b8ff" points="707.3,-315.82 716.69,-320.72 712.4,-311.03 707.3,-315.82"/>
</a>
</g>
</g>
<!-- Node28&#45;&gt;Node30 -->
<g id="edge41_Node000028_Node000030" class="edge">
<title>Node28&#45;&gt;Node30</title>
<g id="a_edge41_Node000028_Node000030"><a xlink:title=" ">
<path fill="none" stroke="#63b8ff" d="M660.78,-318.44C628.15,-308.27 590.4,-296.5 559.05,-286.73"/>
<polygon fill="#63b8ff" stroke="#63b8ff" points="659.6,-321.74 670.19,-321.37 661.68,-315.06 659.6,-321.74"/>
</a>
</g>
</g>
<!-- Node30&#45;&gt;Node7 -->
<g id="edge42_Node000030_Node000007" class="edge">
<title>Node30&#45;&gt;Node7</title>
<g id="a_edge42_Node000030_Node000007"><a xlink:title=" ">
<path fill="none" stroke="#63b8ff" d="M486.72,-233.03C484.89,-224.91 482.98,-216.37 481.32,-208.98"/>
<polygon fill="#63b8ff" stroke="#63b8ff" points="483.26,-233.61 488.86,-242.6 490.09,-232.07 483.26,-233.61"/>
</a>
</g>
</g>
<!-- Node31 -->
<g id="Node000031" class="node">
<title>Node31</title>
<g id="a_Node000031"><a xlink:href="x86Semantics_8cpp.html" target="_top" xlink:title=" ">
<polygon fill="white" stroke="#666666" points="696,-208.5 555.5,-208.5 555.5,-166.75 696,-166.75 696,-208.5"/>
<text text-anchor="start" x="563.5" y="-195" font-family="Helvetica,sans-Serif" font-size="10.00">/Users/jonathan/Works</text>
<text text-anchor="start" x="563.5" y="-183.75" font-family="Helvetica,sans-Serif" font-size="10.00">/Tools/Triton/src/libtriton</text>
<text text-anchor="middle" x="625.75" y="-172.5" font-family="Helvetica,sans-Serif" font-size="10.00">/arch/x86/x86Semantics.cpp</text>
</a>
</g>
</g>
<!-- Node30&#45;&gt;Node31 -->
<g id="edge43_Node000030_Node000031" class="edge">
<title>Node30&#45;&gt;Node31</title>
<g id="a_edge43_Node000030_Node000031"><a xlink:title=" ">
<path fill="none" stroke="#63b8ff" d="M538.76,-238.55C555.58,-228.89 574.43,-218.07 590.28,-208.98"/>
<polygon fill="#63b8ff" stroke="#63b8ff" points="537.37,-235.31 530.44,-243.32 540.85,-241.38 537.37,-235.31"/>
</a>
</g>
</g>
</g>
</svg>
