<?xml version="1.0" encoding="UTF-8" standalone="no"?>
<!DOCTYPE svg PUBLIC "-//W3C//DTD SVG 1.1//EN"
 "http://www.w3.org/Graphics/SVG/1.1/DTD/svg11.dtd">
<!-- Generated by graphviz version 2.49.0 (20210828.1703)
 -->
<!-- Title: /home/jonathan/Works/Tools/Triton/src/libtriton/includes/triton/pathManager.hpp Pages: 1 -->
<svg width="2081pt" height="451pt"
 viewBox="0.00 0.00 2081.00 451.00" xmlns="http://www.w3.org/2000/svg" xmlns:xlink="http://www.w3.org/1999/xlink">
<g id="graph0" class="graph" transform="scale(1 1) rotate(0) translate(4 447)">
<title>/home/jonathan/Works/Tools/Triton/src/libtriton/includes/triton/pathManager.hpp</title>
<polygon fill="white" stroke="transparent" points="-4,4 -4,-447 2077,-447 2077,4 -4,4"/>
<!-- Node1 -->
<g id="node1" class="node">
<title>Node1</title>
<g id="a_node1"><a xlink:title=" ">
<polygon fill="#bfbfbf" stroke="black" points="833.5,-401.5 833.5,-442.5 1010.5,-442.5 1010.5,-401.5 833.5,-401.5"/>
<text text-anchor="start" x="841.5" y="-430.5" font-family="Helvetica,sans-Serif" font-size="10.00">/home/jonathan/Works</text>
<text text-anchor="start" x="841.5" y="-419.5" font-family="Helvetica,sans-Serif" font-size="10.00">/Tools/Triton/src/libtriton</text>
<text text-anchor="middle" x="922" y="-408.5" font-family="Helvetica,sans-Serif" font-size="10.00">/includes/triton/pathManager.hpp</text>
</a>
</g>
</g>
<!-- Node2 -->
<g id="node2" class="node">
<title>Node2</title>
<g id="a_node2"><a xlink:href="pathManager_8cpp.html" target="_top" xlink:title=" ">
<polygon fill="white" stroke="black" points="721,-323.5 721,-364.5 913,-364.5 913,-323.5 721,-323.5"/>
<text text-anchor="start" x="729" y="-352.5" font-family="Helvetica,sans-Serif" font-size="10.00">/home/jonathan/Works</text>
<text text-anchor="start" x="729" y="-341.5" font-family="Helvetica,sans-Serif" font-size="10.00">/Tools/Triton/src/libtriton</text>
<text text-anchor="middle" x="817" y="-330.5" font-family="Helvetica,sans-Serif" font-size="10.00">/engines/symbolic/pathManager.cpp</text>
</a>
</g>
</g>
<!-- Node1&#45;&gt;Node2 -->
<g id="edge1" class="edge">
<title>Node1&#45;&gt;Node2</title>
<path fill="none" stroke="midnightblue" d="M886.56,-395.35C872.64,-385.27 856.92,-373.89 843.95,-364.51"/>
<polygon fill="midnightblue" stroke="midnightblue" points="884.81,-398.4 894.96,-401.43 888.91,-392.73 884.81,-398.4"/>
</g>
<!-- Node3 -->
<g id="node3" class="node">
<title>Node3</title>
<g id="a_node3"><a xlink:href="symbolicEngine_8hpp.html" target="_top" xlink:title=" ">
<polygon fill="white" stroke="black" points="931.5,-323.5 931.5,-364.5 1122.5,-364.5 1122.5,-323.5 931.5,-323.5"/>
<text text-anchor="start" x="939.5" y="-352.5" font-family="Helvetica,sans-Serif" font-size="10.00">/home/jonathan/Works</text>
<text text-anchor="start" x="939.5" y="-341.5" font-family="Helvetica,sans-Serif" font-size="10.00">/Tools/Triton/src/libtriton</text>
<text text-anchor="middle" x="1027" y="-330.5" font-family="Helvetica,sans-Serif" font-size="10.00">/includes/triton/symbolicEngine.hpp</text>
</a>
</g>
</g>
<!-- Node1&#45;&gt;Node3 -->
<g id="edge2" class="edge">
<title>Node1&#45;&gt;Node3</title>
<path fill="none" stroke="midnightblue" d="M957.44,-395.35C971.36,-385.27 987.08,-373.89 1000.05,-364.51"/>
<polygon fill="midnightblue" stroke="midnightblue" points="955.09,-392.73 949.04,-401.43 959.19,-398.4 955.09,-392.73"/>
</g>
<!-- Node4 -->
<g id="node4" class="node">
<title>Node4</title>
<g id="a_node4"><a xlink:href="symbolicEngine_8cpp.html" target="_top" xlink:title=" ">
<polygon fill="white" stroke="black" points="390,-245.5 390,-286.5 596,-286.5 596,-245.5 390,-245.5"/>
<text text-anchor="start" x="398" y="-274.5" font-family="Helvetica,sans-Serif" font-size="10.00">/home/jonathan/Works</text>
<text text-anchor="start" x="398" y="-263.5" font-family="Helvetica,sans-Serif" font-size="10.00">/Tools/Triton/src/libtriton</text>
<text text-anchor="middle" x="493" y="-252.5" font-family="Helvetica,sans-Serif" font-size="10.00">/engines/symbolic/symbolicEngine.cpp</text>
</a>
</g>
</g>
<!-- Node3&#45;&gt;Node4 -->
<g id="edge3" class="edge">
<title>Node3&#45;&gt;Node4</title>
<path fill="none" stroke="midnightblue" d="M921.29,-322.96C782.28,-302.14 744.94,-306.3 610,-287 605.51,-286.36 600.93,-285.68 596.31,-284.97"/>
<polygon fill="midnightblue" stroke="midnightblue" points="921.07,-326.46 931.48,-324.5 922.12,-319.54 921.07,-326.46"/>
</g>
<!-- Node5 -->
<g id="node5" class="node">
<title>Node5</title>
<g id="a_node5"><a xlink:href="aarch64Semantics_8hpp.html" target="_top" xlink:title=" ">
<polygon fill="white" stroke="black" points="19.5,-167.5 19.5,-208.5 222.5,-208.5 222.5,-167.5 19.5,-167.5"/>
<text text-anchor="start" x="27.5" y="-196.5" font-family="Helvetica,sans-Serif" font-size="10.00">/home/jonathan/Works</text>
<text text-anchor="start" x="27.5" y="-185.5" font-family="Helvetica,sans-Serif" font-size="10.00">/Tools/Triton/src/libtriton</text>
<text text-anchor="middle" x="121" y="-174.5" font-family="Helvetica,sans-Serif" font-size="10.00">/includes/triton/aarch64Semantics.hpp</text>
</a>
</g>
</g>
<!-- Node3&#45;&gt;Node5 -->
<g id="edge4" class="edge">
<title>Node3&#45;&gt;Node5</title>
<path fill="none" stroke="midnightblue" d="M921.35,-323.04C793.88,-305.38 745.89,-348.12 638,-287 617.35,-275.3 625.83,-256.39 605,-245 531.74,-204.94 313.7,-220.48 231,-209 228.21,-208.61 225.39,-208.21 222.54,-207.78"/>
<polygon fill="midnightblue" stroke="midnightblue" points="921.07,-326.54 931.47,-324.54 922.1,-319.61 921.07,-326.54"/>
</g>
<!-- Node8 -->
<g id="node8" class="node">
<title>Node8</title>
<g id="a_node8"><a xlink:href="api_8hpp.html" target="_top" xlink:title=" ">
<polygon fill="white" stroke="black" points="987.5,-89.5 987.5,-130.5 1120.5,-130.5 1120.5,-89.5 987.5,-89.5"/>
<text text-anchor="start" x="995.5" y="-118.5" font-family="Helvetica,sans-Serif" font-size="10.00">/home/jonathan/Works</text>
<text text-anchor="start" x="995.5" y="-107.5" font-family="Helvetica,sans-Serif" font-size="10.00">/Tools/Triton/src/libtriton</text>
<text text-anchor="middle" x="1054" y="-96.5" font-family="Helvetica,sans-Serif" font-size="10.00">/includes/triton/api.hpp</text>
</a>
</g>
</g>
<!-- Node3&#45;&gt;Node8 -->
<g id="edge7" class="edge">
<title>Node3&#45;&gt;Node8</title>
<path fill="none" stroke="midnightblue" d="M1030.48,-313.11C1036.08,-264.94 1046.97,-171.44 1051.7,-130.73"/>
<polygon fill="midnightblue" stroke="midnightblue" points="1026.98,-312.88 1029.3,-323.22 1033.93,-313.69 1026.98,-312.88"/>
</g>
<!-- Node12 -->
<g id="node12" class="node">
<title>Node12</title>
<g id="a_node12"><a xlink:href="arm32Semantics_8hpp.html" target="_top" xlink:title=" ">
<polygon fill="white" stroke="black" points="240,-167.5 240,-208.5 436,-208.5 436,-167.5 240,-167.5"/>
<text text-anchor="start" x="248" y="-196.5" font-family="Helvetica,sans-Serif" font-size="10.00">/home/jonathan/Works</text>
<text text-anchor="start" x="248" y="-185.5" font-family="Helvetica,sans-Serif" font-size="10.00">/Tools/Triton/src/libtriton</text>
<text text-anchor="middle" x="338" y="-174.5" font-family="Helvetica,sans-Serif" font-size="10.00">/includes/triton/arm32Semantics.hpp</text>
</a>
</g>
</g>
<!-- Node3&#45;&gt;Node12 -->
<g id="edge11" class="edge">
<title>Node3&#45;&gt;Node12</title>
<path fill="none" stroke="midnightblue" d="M921.25,-323C810.67,-306.6 770.62,-337.51 676,-287 653.79,-275.15 659.97,-257.29 638,-245 561.84,-202.41 530.77,-225.02 445,-209 442.12,-208.46 439.2,-207.92 436.25,-207.37"/>
<polygon fill="midnightblue" stroke="midnightblue" points="921.04,-326.51 931.46,-324.62 922.13,-319.6 921.04,-326.51"/>
</g>
<!-- Node14 -->
<g id="node14" class="node">
<title>Node14</title>
<g id="a_node14"><a xlink:href="irBuilder_8hpp.html" target="_top" xlink:title=" ">
<polygon fill="white" stroke="black" points="872,-167.5 872,-208.5 1026,-208.5 1026,-167.5 872,-167.5"/>
<text text-anchor="start" x="880" y="-196.5" font-family="Helvetica,sans-Serif" font-size="10.00">/home/jonathan/Works</text>
<text text-anchor="start" x="880" y="-185.5" font-family="Helvetica,sans-Serif" font-size="10.00">/Tools/Triton/src/libtriton</text>
<text text-anchor="middle" x="949" y="-174.5" font-family="Helvetica,sans-Serif" font-size="10.00">/includes/triton/irBuilder.hpp</text>
</a>
</g>
</g>
<!-- Node3&#45;&gt;Node14 -->
<g id="edge14" class="edge">
<title>Node3&#45;&gt;Node14</title>
<path fill="none" stroke="midnightblue" d="M1012.6,-314.56C997.04,-283.85 972.66,-235.71 959.04,-208.83"/>
<polygon fill="midnightblue" stroke="midnightblue" points="1009.48,-316.16 1017.12,-323.5 1015.73,-312.99 1009.48,-316.16"/>
</g>
<!-- Node15 -->
<g id="node15" class="node">
<title>Node15</title>
<g id="a_node15"><a xlink:href="liftingEngine_8hpp.html" target="_top" xlink:title=" ">
<polygon fill="white" stroke="black" points="1267,-167.5 1267,-208.5 1441,-208.5 1441,-167.5 1267,-167.5"/>
<text text-anchor="start" x="1275" y="-196.5" font-family="Helvetica,sans-Serif" font-size="10.00">/home/jonathan/Works</text>
<text text-anchor="start" x="1275" y="-185.5" font-family="Helvetica,sans-Serif" font-size="10.00">/Tools/Triton/src/libtriton</text>
<text text-anchor="middle" x="1354" y="-174.5" font-family="Helvetica,sans-Serif" font-size="10.00">/includes/triton/liftingEngine.hpp</text>
</a>
</g>
</g>
<!-- Node3&#45;&gt;Node15 -->
<g id="edge17" class="edge">
<title>Node3&#45;&gt;Node15</title>
<path fill="none" stroke="midnightblue" d="M1132.52,-331.48C1174.14,-323.48 1220.98,-309.93 1259,-287 1280.3,-274.15 1278.82,-262.99 1296,-245 1307.89,-232.55 1321.75,-219.14 1332.93,-208.56"/>
<polygon fill="midnightblue" stroke="midnightblue" points="1131.83,-328.05 1122.62,-333.3 1133.09,-334.93 1131.83,-328.05"/>
</g>
<!-- Node16 -->
<g id="node16" class="node">
<title>Node16</title>
<g id="a_node16"><a xlink:href="liftingToDot_8hpp.html" target="_top" xlink:title=" ">
<polygon fill="white" stroke="black" points="1080.5,-245.5 1080.5,-286.5 1249.5,-286.5 1249.5,-245.5 1080.5,-245.5"/>
<text text-anchor="start" x="1088.5" y="-274.5" font-family="Helvetica,sans-Serif" font-size="10.00">/home/jonathan/Works</text>
<text text-anchor="start" x="1088.5" y="-263.5" font-family="Helvetica,sans-Serif" font-size="10.00">/Tools/Triton/src/libtriton</text>
<text text-anchor="middle" x="1165" y="-252.5" font-family="Helvetica,sans-Serif" font-size="10.00">/includes/triton/liftingToDot.hpp</text>
</a>
</g>
</g>
<!-- Node3&#45;&gt;Node16 -->
<g id="edge19" class="edge">
<title>Node3&#45;&gt;Node16</title>
<path fill="none" stroke="midnightblue" d="M1071.51,-318.49C1090.31,-308.13 1111.89,-296.25 1129.58,-286.51"/>
<polygon fill="midnightblue" stroke="midnightblue" points="1069.61,-315.54 1062.54,-323.43 1072.99,-321.67 1069.61,-315.54"/>
</g>
<!-- Node18 -->
<g id="node18" class="node">
<title>Node18</title>
<g id="a_node18"><a xlink:href="liftingToPython_8hpp.html" target="_top" xlink:title=" ">
<polygon fill="white" stroke="black" points="1304.5,-245.5 1304.5,-286.5 1489.5,-286.5 1489.5,-245.5 1304.5,-245.5"/>
<text text-anchor="start" x="1312.5" y="-274.5" font-family="Helvetica,sans-Serif" font-size="10.00">/home/jonathan/Works</text>
<text text-anchor="start" x="1312.5" y="-263.5" font-family="Helvetica,sans-Serif" font-size="10.00">/Tools/Triton/src/libtriton</text>
<text text-anchor="middle" x="1397" y="-252.5" font-family="Helvetica,sans-Serif" font-size="10.00">/includes/triton/liftingToPython.hpp</text>
</a>
</g>
</g>
<!-- Node3&#45;&gt;Node18 -->
<g id="edge22" class="edge">
<title>Node3&#45;&gt;Node18</title>
<path fill="none" stroke="midnightblue" d="M1132.27,-321.38C1186.48,-310.24 1251.99,-296.79 1304.28,-286.05"/>
<polygon fill="midnightblue" stroke="midnightblue" points="1131.38,-317.99 1122.28,-323.43 1132.78,-324.84 1131.38,-317.99"/>
</g>
<!-- Node20 -->
<g id="node20" class="node">
<title>Node20</title>
<g id="a_node20"><a xlink:href="liftingToSMT_8hpp.html" target="_top" xlink:title=" ">
<polygon fill="white" stroke="black" points="1508,-245.5 1508,-286.5 1680,-286.5 1680,-245.5 1508,-245.5"/>
<text text-anchor="start" x="1516" y="-274.5" font-family="Helvetica,sans-Serif" font-size="10.00">/home/jonathan/Works</text>
<text text-anchor="start" x="1516" y="-263.5" font-family="Helvetica,sans-Serif" font-size="10.00">/Tools/Triton/src/libtriton</text>
<text text-anchor="middle" x="1594" y="-252.5" font-family="Helvetica,sans-Serif" font-size="10.00">/includes/triton/liftingToSMT.hpp</text>
</a>
</g>
</g>
<!-- Node3&#45;&gt;Node20 -->
<g id="edge25" class="edge">
<title>Node3&#45;&gt;Node20</title>
<path fill="none" stroke="midnightblue" d="M1132.72,-333.19C1228.63,-323.64 1373.76,-307.57 1499,-287 1501.91,-286.52 1504.87,-286.02 1507.85,-285.49"/>
<polygon fill="midnightblue" stroke="midnightblue" points="1132.33,-329.71 1122.73,-334.18 1133.02,-336.67 1132.33,-329.71"/>
</g>
<!-- Node22 -->
<g id="node22" class="node">
<title>Node22</title>
<g id="a_node22"><a xlink:href="synthesizer_8hpp.html" target="_top" xlink:title=" ">
<polygon fill="white" stroke="black" points="1774.5,-245.5 1774.5,-286.5 1943.5,-286.5 1943.5,-245.5 1774.5,-245.5"/>
<text text-anchor="start" x="1782.5" y="-274.5" font-family="Helvetica,sans-Serif" font-size="10.00">/home/jonathan/Works</text>
<text text-anchor="start" x="1782.5" y="-263.5" font-family="Helvetica,sans-Serif" font-size="10.00">/Tools/Triton/src/libtriton</text>
<text text-anchor="middle" x="1859" y="-252.5" font-family="Helvetica,sans-Serif" font-size="10.00">/includes/triton/synthesizer.hpp</text>
</a>
</g>
</g>
<!-- Node3&#45;&gt;Node22 -->
<g id="edge28" class="edge">
<title>Node3&#45;&gt;Node22</title>
<path fill="none" stroke="midnightblue" d="M1132.76,-335.13C1263.53,-325.14 1492.86,-306.83 1689,-287 1716.79,-284.19 1747.1,-280.75 1774.32,-277.52"/>
<polygon fill="midnightblue" stroke="midnightblue" points="1132.45,-331.64 1122.74,-335.89 1132.98,-338.62 1132.45,-331.64"/>
</g>
<!-- Node24 -->
<g id="node24" class="node">
<title>Node24</title>
<g id="a_node24"><a xlink:href="taintEngine_8hpp.html" target="_top" xlink:title=" ">
<polygon fill="white" stroke="black" points="727.5,-245.5 727.5,-286.5 896.5,-286.5 896.5,-245.5 727.5,-245.5"/>
<text text-anchor="start" x="735.5" y="-274.5" font-family="Helvetica,sans-Serif" font-size="10.00">/home/jonathan/Works</text>
<text text-anchor="start" x="735.5" y="-263.5" font-family="Helvetica,sans-Serif" font-size="10.00">/Tools/Triton/src/libtriton</text>
<text text-anchor="middle" x="812" y="-252.5" font-family="Helvetica,sans-Serif" font-size="10.00">/includes/triton/taintEngine.hpp</text>
</a>
</g>
</g>
<!-- Node3&#45;&gt;Node24 -->
<g id="edge31" class="edge">
<title>Node3&#45;&gt;Node24</title>
<path fill="none" stroke="midnightblue" d="M962.01,-320.03C931.74,-309.33 896.12,-296.73 867.18,-286.51"/>
<polygon fill="midnightblue" stroke="midnightblue" points="961.04,-323.4 971.63,-323.43 963.37,-316.8 961.04,-323.4"/>
</g>
<!-- Node26 -->
<g id="node26" class="node">
<title>Node26</title>
<g id="a_node26"><a xlink:href="x86Semantics_8hpp.html" target="_top" xlink:title=" ">
<polygon fill="white" stroke="black" points="454,-167.5 454,-208.5 636,-208.5 636,-167.5 454,-167.5"/>
<text text-anchor="start" x="462" y="-196.5" font-family="Helvetica,sans-Serif" font-size="10.00">/home/jonathan/Works</text>
<text text-anchor="start" x="462" y="-185.5" font-family="Helvetica,sans-Serif" font-size="10.00">/Tools/Triton/src/libtriton</text>
<text text-anchor="middle" x="545" y="-174.5" font-family="Helvetica,sans-Serif" font-size="10.00">/includes/triton/x86Semantics.hpp</text>
</a>
</g>
</g>
<!-- Node3&#45;&gt;Node26 -->
<g id="edge40" class="edge">
<title>Node3&#45;&gt;Node26</title>
<path fill="none" stroke="midnightblue" d="M921.42,-323C829.21,-307.89 796.87,-328.06 718,-287 694.58,-274.81 697.87,-259.79 676,-245 653.87,-230.03 627.1,-217.73 603.54,-208.5"/>
<polygon fill="midnightblue" stroke="midnightblue" points="920.99,-326.48 931.44,-324.74 922.19,-319.58 920.99,-326.48"/>
</g>
<!-- Node6 -->
<g id="node6" class="node">
<title>Node6</title>
<g id="a_node6"><a xlink:href="aarch64Semantics_8cpp.html" target="_top" xlink:title=" ">
<polygon fill="white" stroke="black" points="0,-89.5 0,-130.5 218,-130.5 218,-89.5 0,-89.5"/>
<text text-anchor="start" x="8" y="-118.5" font-family="Helvetica,sans-Serif" font-size="10.00">/home/jonathan/Works</text>
<text text-anchor="start" x="8" y="-107.5" font-family="Helvetica,sans-Serif" font-size="10.00">/Tools/Triton/src/libtriton</text>
<text text-anchor="middle" x="109" y="-96.5" font-family="Helvetica,sans-Serif" font-size="10.00">/arch/arm/aarch64/aarch64Semantics.cpp</text>
</a>
</g>
</g>
<!-- Node5&#45;&gt;Node6 -->
<g id="edge5" class="edge">
<title>Node5&#45;&gt;Node6</title>
<path fill="none" stroke="midnightblue" d="M116.31,-157.3C114.89,-148.3 113.37,-138.65 112.08,-130.51"/>
<polygon fill="midnightblue" stroke="midnightblue" points="112.89,-158.1 117.91,-167.43 119.81,-157 112.89,-158.1"/>
</g>
<!-- Node7 -->
<g id="node7" class="node">
<title>Node7</title>
<g id="a_node7"><a xlink:href="irBuilder_8cpp.html" target="_top" xlink:title=" ">
<polygon fill="white" stroke="black" points="457.5,-89.5 457.5,-130.5 590.5,-130.5 590.5,-89.5 457.5,-89.5"/>
<text text-anchor="start" x="465.5" y="-118.5" font-family="Helvetica,sans-Serif" font-size="10.00">/home/jonathan/Works</text>
<text text-anchor="start" x="465.5" y="-107.5" font-family="Helvetica,sans-Serif" font-size="10.00">/Tools/Triton/src/libtriton</text>
<text text-anchor="middle" x="524" y="-96.5" font-family="Helvetica,sans-Serif" font-size="10.00">/arch/irBuilder.cpp</text>
</a>
</g>
</g>
<!-- Node5&#45;&gt;Node7 -->
<g id="edge6" class="edge">
<title>Node5&#45;&gt;Node7</title>
<path fill="none" stroke="midnightblue" d="M232.46,-166.77C329.01,-150.31 355.48,-150.8 448,-131 451.07,-130.34 454.2,-129.64 457.36,-128.91"/>
<polygon fill="midnightblue" stroke="midnightblue" points="231.84,-163.33 222.58,-168.47 233.03,-170.22 231.84,-163.33"/>
</g>
<!-- Node9 -->
<g id="node9" class="node">
<title>Node9</title>
<g id="a_node9"><a xlink:href="api_8cpp.html" target="_top" xlink:title=" ">
<polygon fill="white" stroke="black" points="834.5,-6 834.5,-47 967.5,-47 967.5,-6 834.5,-6"/>
<text text-anchor="start" x="842.5" y="-35" font-family="Helvetica,sans-Serif" font-size="10.00">/home/jonathan/Works</text>
<text text-anchor="start" x="842.5" y="-24" font-family="Helvetica,sans-Serif" font-size="10.00">/Tools/Triton/src/libtriton</text>
<text text-anchor="middle" x="901" y="-13" font-family="Helvetica,sans-Serif" font-size="10.00">/api/api.cpp</text>
</a>
</g>
</g>
<!-- Node8&#45;&gt;Node9 -->
<g id="edge8" class="edge">
<title>Node8&#45;&gt;Node9</title>
<path fill="none" stroke="midnightblue" d="M1008.29,-84.65C985.7,-72.62 958.82,-58.3 937.61,-47"/>
<polygon fill="midnightblue" stroke="midnightblue" points="1006.88,-87.87 1017.35,-89.48 1010.17,-81.69 1006.88,-87.87"/>
</g>
<!-- Node10 -->
<g id="node10" class="node">
<title>Node10</title>
<g id="a_node10"><a xlink:href="pyTritonContext_8cpp.html" target="_top" xlink:title=" ">
<polygon fill="white" stroke="black" points="986,-0.5 986,-52.5 1122,-52.5 1122,-0.5 986,-0.5"/>
<text text-anchor="start" x="994" y="-40.5" font-family="Helvetica,sans-Serif" font-size="10.00">/home/jonathan/Works</text>
<text text-anchor="start" x="994" y="-29.5" font-family="Helvetica,sans-Serif" font-size="10.00">/Tools/Triton/src/libtriton</text>
<text text-anchor="start" x="994" y="-18.5" font-family="Helvetica,sans-Serif" font-size="10.00">/bindings/python/objects</text>
<text text-anchor="middle" x="1054" y="-7.5" font-family="Helvetica,sans-Serif" font-size="10.00">/pyTritonContext.cpp</text>
</a>
</g>
</g>
<!-- Node8&#45;&gt;Node10 -->
<g id="edge9" class="edge">
<title>Node8&#45;&gt;Node10</title>
<path fill="none" stroke="midnightblue" d="M1054,-79.12C1054,-70.41 1054,-60.99 1054,-52.61"/>
<polygon fill="midnightblue" stroke="midnightblue" points="1050.5,-79.27 1054,-89.27 1057.5,-79.27 1050.5,-79.27"/>
</g>
<!-- Node11 -->
<g id="node11" class="node">
<title>Node11</title>
<g id="a_node11"><a xlink:href="callbacks_8cpp.html" target="_top" xlink:title=" ">
<polygon fill="white" stroke="black" points="1140,-6 1140,-47 1274,-47 1274,-6 1140,-6"/>
<text text-anchor="start" x="1148" y="-35" font-family="Helvetica,sans-Serif" font-size="10.00">/home/jonathan/Works</text>
<text text-anchor="start" x="1148" y="-24" font-family="Helvetica,sans-Serif" font-size="10.00">/Tools/Triton/src/libtriton</text>
<text text-anchor="middle" x="1207" y="-13" font-family="Helvetica,sans-Serif" font-size="10.00">/callbacks/callbacks.cpp</text>
</a>
</g>
</g>
<!-- Node8&#45;&gt;Node11 -->
<g id="edge10" class="edge">
<title>Node8&#45;&gt;Node11</title>
<path fill="none" stroke="midnightblue" d="M1099.71,-84.65C1122.3,-72.62 1149.18,-58.3 1170.39,-47"/>
<polygon fill="midnightblue" stroke="midnightblue" points="1097.83,-81.69 1090.65,-89.48 1101.12,-87.87 1097.83,-81.69"/>
</g>
<!-- Node12&#45;&gt;Node7 -->
<g id="edge13" class="edge">
<title>Node12&#45;&gt;Node7</title>
<path fill="none" stroke="midnightblue" d="M395.25,-163.61C421.21,-153 451.55,-140.6 476.26,-130.51"/>
<polygon fill="midnightblue" stroke="midnightblue" points="393.83,-160.41 385.9,-167.43 396.48,-166.89 393.83,-160.41"/>
</g>
<!-- Node13 -->
<g id="node13" class="node">
<title>Node13</title>
<g id="a_node13"><a xlink:href="arm32Semantics_8cpp.html" target="_top" xlink:title=" ">
<polygon fill="white" stroke="black" points="236.5,-89.5 236.5,-130.5 439.5,-130.5 439.5,-89.5 236.5,-89.5"/>
<text text-anchor="start" x="244.5" y="-118.5" font-family="Helvetica,sans-Serif" font-size="10.00">/home/jonathan/Works</text>
<text text-anchor="start" x="244.5" y="-107.5" font-family="Helvetica,sans-Serif" font-size="10.00">/Tools/Triton/src/libtriton</text>
<text text-anchor="middle" x="338" y="-96.5" font-family="Helvetica,sans-Serif" font-size="10.00">/arch/arm/arm32/arm32Semantics.cpp</text>
</a>
</g>
</g>
<!-- Node12&#45;&gt;Node13 -->
<g id="edge12" class="edge">
<title>Node12&#45;&gt;Node13</title>
<path fill="none" stroke="midnightblue" d="M338,-157.3C338,-148.3 338,-138.65 338,-130.51"/>
<polygon fill="midnightblue" stroke="midnightblue" points="334.5,-157.43 338,-167.43 341.5,-157.43 334.5,-157.43"/>
</g>
<!-- Node14&#45;&gt;Node7 -->
<g id="edge15" class="edge">
<title>Node14&#45;&gt;Node7</title>
<path fill="none" stroke="midnightblue" d="M862.03,-172.96C849.6,-170.96 836.98,-168.92 825,-167 725.01,-150.94 699.09,-151.91 600,-131 596.93,-130.35 593.8,-129.66 590.64,-128.93"/>
<polygon fill="midnightblue" stroke="midnightblue" points="861.51,-176.42 871.94,-174.56 862.63,-169.51 861.51,-176.42"/>
</g>
<!-- Node14&#45;&gt;Node8 -->
<g id="edge16" class="edge">
<title>Node14&#45;&gt;Node8</title>
<path fill="none" stroke="midnightblue" d="M984.44,-161.35C998.36,-151.27 1014.08,-139.89 1027.05,-130.51"/>
<polygon fill="midnightblue" stroke="midnightblue" points="982.09,-158.73 976.04,-167.43 986.19,-164.4 982.09,-158.73"/>
</g>
<!-- Node15&#45;&gt;Node8 -->
<g id="edge18" class="edge">
<title>Node15&#45;&gt;Node8</title>
<path fill="none" stroke="midnightblue" d="M1266.96,-164.95C1220.38,-153.15 1163.89,-138.84 1120.81,-127.92"/>
<polygon fill="midnightblue" stroke="midnightblue" points="1266.19,-168.37 1276.74,-167.43 1267.91,-161.58 1266.19,-168.37"/>
</g>
<!-- Node16&#45;&gt;Node15 -->
<g id="edge21" class="edge">
<title>Node16&#45;&gt;Node15</title>
<path fill="none" stroke="midnightblue" d="M1223.17,-241.61C1249.55,-231 1280.39,-218.6 1305.49,-208.51"/>
<polygon fill="midnightblue" stroke="midnightblue" points="1221.64,-238.45 1213.67,-245.43 1224.26,-244.94 1221.64,-238.45"/>
</g>
<!-- Node17 -->
<g id="node17" class="node">
<title>Node17</title>
<g id="a_node17"><a xlink:href="liftingToDot_8cpp.html" target="_top" xlink:title=" ">
<polygon fill="white" stroke="black" points="1081.5,-167.5 1081.5,-208.5 1248.5,-208.5 1248.5,-167.5 1081.5,-167.5"/>
<text text-anchor="start" x="1089.5" y="-196.5" font-family="Helvetica,sans-Serif" font-size="10.00">/home/jonathan/Works</text>
<text text-anchor="start" x="1089.5" y="-185.5" font-family="Helvetica,sans-Serif" font-size="10.00">/Tools/Triton/src/libtriton</text>
<text text-anchor="middle" x="1165" y="-174.5" font-family="Helvetica,sans-Serif" font-size="10.00">/engines/lifters/liftingToDot.cpp</text>
</a>
</g>
</g>
<!-- Node16&#45;&gt;Node17 -->
<g id="edge20" class="edge">
<title>Node16&#45;&gt;Node17</title>
<path fill="none" stroke="midnightblue" d="M1165,-235.3C1165,-226.3 1165,-216.65 1165,-208.51"/>
<polygon fill="midnightblue" stroke="midnightblue" points="1161.5,-235.43 1165,-245.43 1168.5,-235.43 1161.5,-235.43"/>
</g>
<!-- Node18&#45;&gt;Node15 -->
<g id="edge24" class="edge">
<title>Node18&#45;&gt;Node15</title>
<path fill="none" stroke="midnightblue" d="M1380.86,-236.47C1375.58,-227.14 1369.85,-217.01 1365.04,-208.51"/>
<polygon fill="midnightblue" stroke="midnightblue" points="1377.96,-238.45 1385.93,-245.43 1384.05,-235 1377.96,-238.45"/>
</g>
<!-- Node19 -->
<g id="node19" class="node">
<title>Node19</title>
<g id="a_node19"><a xlink:href="liftingToPython_8cpp.html" target="_top" xlink:title=" ">
<polygon fill="white" stroke="black" points="1459,-167.5 1459,-208.5 1643,-208.5 1643,-167.5 1459,-167.5"/>
<text text-anchor="start" x="1467" y="-196.5" font-family="Helvetica,sans-Serif" font-size="10.00">/home/jonathan/Works</text>
<text text-anchor="start" x="1467" y="-185.5" font-family="Helvetica,sans-Serif" font-size="10.00">/Tools/Triton/src/libtriton</text>
<text text-anchor="middle" x="1551" y="-174.5" font-family="Helvetica,sans-Serif" font-size="10.00">/engines/lifters/liftingToPython.cpp</text>
</a>
</g>
</g>
<!-- Node18&#45;&gt;Node19 -->
<g id="edge23" class="edge">
<title>Node18&#45;&gt;Node19</title>
<path fill="none" stroke="midnightblue" d="M1445.82,-240.91C1466.99,-230.46 1491.47,-218.38 1511.48,-208.51"/>
<polygon fill="midnightblue" stroke="midnightblue" points="1444.08,-237.86 1436.66,-245.43 1447.18,-244.14 1444.08,-237.86"/>
</g>
<!-- Node20&#45;&gt;Node15 -->
<g id="edge27" class="edge">
<title>Node20&#45;&gt;Node15</title>
<path fill="none" stroke="midnightblue" d="M1522.33,-242.3C1488.36,-231.55 1448.18,-218.82 1415.6,-208.51"/>
<polygon fill="midnightblue" stroke="midnightblue" points="1521.6,-245.75 1532.19,-245.43 1523.72,-239.07 1521.6,-245.75"/>
</g>
<!-- Node21 -->
<g id="node21" class="node">
<title>Node21</title>
<g id="a_node21"><a xlink:href="liftingToSMT_8cpp.html" target="_top" xlink:title=" ">
<polygon fill="white" stroke="black" points="1661,-167.5 1661,-208.5 1831,-208.5 1831,-167.5 1661,-167.5"/>
<text text-anchor="start" x="1669" y="-196.5" font-family="Helvetica,sans-Serif" font-size="10.00">/home/jonathan/Works</text>
<text text-anchor="start" x="1669" y="-185.5" font-family="Helvetica,sans-Serif" font-size="10.00">/Tools/Triton/src/libtriton</text>
<text text-anchor="middle" x="1746" y="-174.5" font-family="Helvetica,sans-Serif" font-size="10.00">/engines/lifters/liftingToSMT.cpp</text>
</a>
</g>
</g>
<!-- Node20&#45;&gt;Node21 -->
<g id="edge26" class="edge">
<title>Node20&#45;&gt;Node21</title>
<path fill="none" stroke="midnightblue" d="M1642.18,-240.91C1663.08,-230.46 1687.24,-218.38 1706.99,-208.51"/>
<polygon fill="midnightblue" stroke="midnightblue" points="1640.52,-237.83 1633.14,-245.43 1643.65,-244.09 1640.52,-237.83"/>
</g>
<!-- Node22&#45;&gt;Node8 -->
<g id="edge30" class="edge">
<title>Node22&#45;&gt;Node8</title>
<path fill="none" stroke="midnightblue" d="M1861.99,-235.21C1862.42,-212.99 1858.84,-183.7 1840,-167 1786.73,-119.79 1300.57,-112.33 1120.6,-111.19"/>
<polygon fill="midnightblue" stroke="midnightblue" points="1858.48,-235.32 1861.5,-245.47 1865.47,-235.64 1858.48,-235.32"/>
</g>
<!-- Node23 -->
<g id="node23" class="node">
<title>Node23</title>
<g id="a_node23"><a xlink:href="synthesizer_8cpp.html" target="_top" xlink:title=" ">
<polygon fill="white" stroke="black" points="1887,-167.5 1887,-208.5 2073,-208.5 2073,-167.5 1887,-167.5"/>
<text text-anchor="start" x="1895" y="-196.5" font-family="Helvetica,sans-Serif" font-size="10.00">/home/jonathan/Works</text>
<text text-anchor="start" x="1895" y="-185.5" font-family="Helvetica,sans-Serif" font-size="10.00">/Tools/Triton/src/libtriton</text>
<text text-anchor="middle" x="1980" y="-174.5" font-family="Helvetica,sans-Serif" font-size="10.00">/engines/synthesis/synthesizer.cpp</text>
</a>
</g>
</g>
<!-- Node22&#45;&gt;Node23 -->
<g id="edge29" class="edge">
<title>Node22&#45;&gt;Node23</title>
<path fill="none" stroke="midnightblue" d="M1898.93,-239.92C1915.2,-229.7 1933.72,-218.07 1948.95,-208.51"/>
<polygon fill="midnightblue" stroke="midnightblue" points="1896.77,-237.15 1890.16,-245.43 1900.49,-243.07 1896.77,-237.15"/>
</g>
<!-- Node24&#45;&gt;Node5 -->
<g id="edge33" class="edge">
<title>Node24&#45;&gt;Node5</title>
<path fill="none" stroke="midnightblue" d="M717,-253.62C691.37,-250.68 663.64,-247.61 638,-245 457.34,-226.63 410.97,-233.27 231,-209 228.21,-208.62 225.38,-208.23 222.53,-207.81"/>
<polygon fill="midnightblue" stroke="midnightblue" points="716.75,-257.12 727.09,-254.79 717.55,-250.16 716.75,-257.12"/>
</g>
<!-- Node24&#45;&gt;Node8 -->
<g id="edge34" class="edge">
<title>Node24&#45;&gt;Node8</title>
<path fill="none" stroke="midnightblue" d="M820.33,-235.68C828,-213.77 841.51,-184.67 863,-167 898.1,-138.14 947.54,-124.16 987.32,-117.38"/>
<polygon fill="midnightblue" stroke="midnightblue" points="816.91,-234.88 817.11,-245.47 823.56,-237.07 816.91,-234.88"/>
</g>
<!-- Node24&#45;&gt;Node12 -->
<g id="edge35" class="edge">
<title>Node24&#45;&gt;Node12</title>
<path fill="none" stroke="midnightblue" d="M717.33,-250.92C626.49,-237.35 495.84,-217.63 445,-209 442.11,-208.51 439.18,-208.01 436.22,-207.49"/>
<polygon fill="midnightblue" stroke="midnightblue" points="716.96,-254.41 727.37,-252.42 718,-247.48 716.96,-254.41"/>
</g>
<!-- Node24&#45;&gt;Node14 -->
<g id="edge36" class="edge">
<title>Node24&#45;&gt;Node14</title>
<path fill="none" stroke="midnightblue" d="M856.19,-240.49C874.85,-230.13 896.28,-218.25 913.84,-208.51"/>
<polygon fill="midnightblue" stroke="midnightblue" points="854.33,-237.52 847.28,-245.43 857.72,-243.64 854.33,-237.52"/>
</g>
<!-- Node25 -->
<g id="node25" class="node">
<title>Node25</title>
<g id="a_node25"><a xlink:href="taintEngine_8cpp.html" target="_top" xlink:title=" ">
<polygon fill="white" stroke="black" points="654,-167.5 654,-208.5 816,-208.5 816,-167.5 654,-167.5"/>
<text text-anchor="start" x="662" y="-196.5" font-family="Helvetica,sans-Serif" font-size="10.00">/home/jonathan/Works</text>
<text text-anchor="start" x="662" y="-185.5" font-family="Helvetica,sans-Serif" font-size="10.00">/Tools/Triton/src/libtriton</text>
<text text-anchor="middle" x="735" y="-174.5" font-family="Helvetica,sans-Serif" font-size="10.00">/engines/taint/taintEngine.cpp</text>
</a>
</g>
</g>
<!-- Node24&#45;&gt;Node25 -->
<g id="edge32" class="edge">
<title>Node24&#45;&gt;Node25</title>
<path fill="none" stroke="midnightblue" d="M784.85,-238.2C774.93,-228.42 763.91,-217.54 754.76,-208.51"/>
<polygon fill="midnightblue" stroke="midnightblue" points="782.59,-240.89 792.17,-245.43 787.51,-235.91 782.59,-240.89"/>
</g>
<!-- Node24&#45;&gt;Node26 -->
<g id="edge37" class="edge">
<title>Node24&#45;&gt;Node26</title>
<path fill="none" stroke="midnightblue" d="M733.24,-242.58C695.24,-231.76 650.08,-218.91 613.53,-208.51"/>
<polygon fill="midnightblue" stroke="midnightblue" points="732.66,-246.06 743.24,-245.43 734.58,-239.32 732.66,-246.06"/>
</g>
<!-- Node26&#45;&gt;Node7 -->
<g id="edge38" class="edge">
<title>Node26&#45;&gt;Node7</title>
<path fill="none" stroke="midnightblue" d="M536.87,-157.59C534.36,-148.51 531.67,-138.74 529.39,-130.51"/>
<polygon fill="midnightblue" stroke="midnightblue" points="533.55,-158.72 539.59,-167.43 540.3,-156.86 533.55,-158.72"/>
</g>
<!-- Node27 -->
<g id="node27" class="node">
<title>Node27</title>
<g id="a_node27"><a xlink:href="x86Semantics_8cpp.html" target="_top" xlink:title=" ">
<polygon fill="white" stroke="black" points="609,-89.5 609,-130.5 763,-130.5 763,-89.5 609,-89.5"/>
<text text-anchor="start" x="617" y="-118.5" font-family="Helvetica,sans-Serif" font-size="10.00">/home/jonathan/Works</text>
<text text-anchor="start" x="617" y="-107.5" font-family="Helvetica,sans-Serif" font-size="10.00">/Tools/Triton/src/libtriton</text>
<text text-anchor="middle" x="686" y="-96.5" font-family="Helvetica,sans-Serif" font-size="10.00">/arch/x86/x86Semantics.cpp</text>
</a>
</g>
</g>
<!-- Node26&#45;&gt;Node27 -->
<g id="edge39" class="edge">
<title>Node26&#45;&gt;Node27</title>
<path fill="none" stroke="midnightblue" d="M590.22,-162.63C609.49,-152.24 631.66,-140.29 649.81,-130.51"/>
<polygon fill="midnightblue" stroke="midnightblue" points="588.45,-159.6 581.31,-167.43 591.77,-165.76 588.45,-159.6"/>
</g>
</g>
</svg>
