<?xml version="1.0" encoding="UTF-8" standalone="no"?>
<!DOCTYPE svg PUBLIC "-//W3C//DTD SVG 1.1//EN"
 "http://www.w3.org/Graphics/SVG/1.1/DTD/svg11.dtd">
<!-- Generated by graphviz version 2.49.0 (20210828.1703)
 -->
<!-- Title: /home/jonathan/Works/Tools/Triton/src/libtriton/includes/triton/pathManager.hpp Pages: 1 -->
<svg width="1896pt" height="451pt"
 viewBox="0.00 0.00 1896.00 451.00" xmlns="http://www.w3.org/2000/svg" xmlns:xlink="http://www.w3.org/1999/xlink">
<g id="graph0" class="graph" transform="scale(1 1) rotate(0) translate(4 447)">
<title>/home/jonathan/Works/Tools/Triton/src/libtriton/includes/triton/pathManager.hpp</title>
<polygon fill="white" stroke="transparent" points="-4,4 -4,-447 1892,-447 1892,4 -4,4"/>
<!-- Node1 -->
<g id="node1" class="node">
<title>Node1</title>
<g id="a_node1"><a xlink:title=" ">
<polygon fill="#bfbfbf" stroke="black" points="755.5,-401.5 755.5,-442.5 932.5,-442.5 932.5,-401.5 755.5,-401.5"/>
<text text-anchor="start" x="763.5" y="-430.5" font-family="Helvetica,sans-Serif" font-size="10.00">/home/jonathan/Works</text>
<text text-anchor="start" x="763.5" y="-419.5" font-family="Helvetica,sans-Serif" font-size="10.00">/Tools/Triton/src/libtriton</text>
<text text-anchor="middle" x="844" y="-408.5" font-family="Helvetica,sans-Serif" font-size="10.00">/includes/triton/pathManager.hpp</text>
</a>
</g>
</g>
<!-- Node2 -->
<g id="node2" class="node">
<title>Node2</title>
<g id="a_node2"><a xlink:href="pathManager_8cpp.html" target="_top" xlink:title=" ">
<polygon fill="white" stroke="black" points="643,-323.5 643,-364.5 835,-364.5 835,-323.5 643,-323.5"/>
<text text-anchor="start" x="651" y="-352.5" font-family="Helvetica,sans-Serif" font-size="10.00">/home/jonathan/Works</text>
<text text-anchor="start" x="651" y="-341.5" font-family="Helvetica,sans-Serif" font-size="10.00">/Tools/Triton/src/libtriton</text>
<text text-anchor="middle" x="739" y="-330.5" font-family="Helvetica,sans-Serif" font-size="10.00">/engines/symbolic/pathManager.cpp</text>
</a>
</g>
</g>
<!-- Node1&#45;&gt;Node2 -->
<g id="edge1" class="edge">
<title>Node1&#45;&gt;Node2</title>
<path fill="none" stroke="midnightblue" d="M808.56,-395.35C794.64,-385.27 778.92,-373.89 765.95,-364.51"/>
<polygon fill="midnightblue" stroke="midnightblue" points="806.81,-398.4 816.96,-401.43 810.91,-392.73 806.81,-398.4"/>
</g>
<!-- Node3 -->
<g id="node3" class="node">
<title>Node3</title>
<g id="a_node3"><a xlink:href="symbolicEngine_8hpp.html" target="_top" xlink:title=" ">
<polygon fill="white" stroke="black" points="853.5,-323.5 853.5,-364.5 1044.5,-364.5 1044.5,-323.5 853.5,-323.5"/>
<text text-anchor="start" x="861.5" y="-352.5" font-family="Helvetica,sans-Serif" font-size="10.00">/home/jonathan/Works</text>
<text text-anchor="start" x="861.5" y="-341.5" font-family="Helvetica,sans-Serif" font-size="10.00">/Tools/Triton/src/libtriton</text>
<text text-anchor="middle" x="949" y="-330.5" font-family="Helvetica,sans-Serif" font-size="10.00">/includes/triton/symbolicEngine.hpp</text>
</a>
</g>
</g>
<!-- Node1&#45;&gt;Node3 -->
<g id="edge2" class="edge">
<title>Node1&#45;&gt;Node3</title>
<path fill="none" stroke="midnightblue" d="M879.44,-395.35C893.36,-385.27 909.08,-373.89 922.05,-364.51"/>
<polygon fill="midnightblue" stroke="midnightblue" points="877.09,-392.73 871.04,-401.43 881.19,-398.4 877.09,-392.73"/>
</g>
<!-- Node4 -->
<g id="node4" class="node">
<title>Node4</title>
<g id="a_node4"><a xlink:href="symbolicEngine_8cpp.html" target="_top" xlink:title=" ">
<polygon fill="white" stroke="black" points="364,-245.5 364,-286.5 570,-286.5 570,-245.5 364,-245.5"/>
<text text-anchor="start" x="372" y="-274.5" font-family="Helvetica,sans-Serif" font-size="10.00">/home/jonathan/Works</text>
<text text-anchor="start" x="372" y="-263.5" font-family="Helvetica,sans-Serif" font-size="10.00">/Tools/Triton/src/libtriton</text>
<text text-anchor="middle" x="467" y="-252.5" font-family="Helvetica,sans-Serif" font-size="10.00">/engines/symbolic/symbolicEngine.cpp</text>
</a>
</g>
</g>
<!-- Node3&#45;&gt;Node4 -->
<g id="edge3" class="edge">
<title>Node3&#45;&gt;Node4</title>
<path fill="none" stroke="midnightblue" d="M843.46,-322.96C727.2,-304.11 696.13,-304.34 584,-287 579.42,-286.29 574.74,-285.55 570.01,-284.79"/>
<polygon fill="midnightblue" stroke="midnightblue" points="843.03,-326.43 853.47,-324.59 844.16,-319.52 843.03,-326.43"/>
</g>
<!-- Node5 -->
<g id="node5" class="node">
<title>Node5</title>
<g id="a_node5"><a xlink:href="aarch64Semantics_8hpp.html" target="_top" xlink:title=" ">
<polygon fill="white" stroke="black" points="19.5,-167.5 19.5,-208.5 222.5,-208.5 222.5,-167.5 19.5,-167.5"/>
<text text-anchor="start" x="27.5" y="-196.5" font-family="Helvetica,sans-Serif" font-size="10.00">/home/jonathan/Works</text>
<text text-anchor="start" x="27.5" y="-185.5" font-family="Helvetica,sans-Serif" font-size="10.00">/Tools/Triton/src/libtriton</text>
<text text-anchor="middle" x="121" y="-174.5" font-family="Helvetica,sans-Serif" font-size="10.00">/includes/triton/aarch64Semantics.hpp</text>
</a>
</g>
</g>
<!-- Node3&#45;&gt;Node5 -->
<g id="edge4" class="edge">
<title>Node3&#45;&gt;Node5</title>
<path fill="none" stroke="midnightblue" d="M843.46,-323.04C738.76,-307.24 699.34,-338.1 612,-287 591.51,-275.01 599.79,-256.46 579,-245 510.92,-207.46 307.97,-219.96 231,-209 228.21,-208.6 225.39,-208.19 222.54,-207.76"/>
<polygon fill="midnightblue" stroke="midnightblue" points="843.02,-326.51 853.46,-324.66 844.14,-319.6 843.02,-326.51"/>
</g>
<!-- Node8 -->
<g id="node8" class="node">
<title>Node8</title>
<g id="a_node8"><a xlink:href="api_8hpp.html" target="_top" xlink:title=" ">
<polygon fill="white" stroke="black" points="987.5,-89.5 987.5,-130.5 1120.5,-130.5 1120.5,-89.5 987.5,-89.5"/>
<text text-anchor="start" x="995.5" y="-118.5" font-family="Helvetica,sans-Serif" font-size="10.00">/home/jonathan/Works</text>
<text text-anchor="start" x="995.5" y="-107.5" font-family="Helvetica,sans-Serif" font-size="10.00">/Tools/Triton/src/libtriton</text>
<text text-anchor="middle" x="1054" y="-96.5" font-family="Helvetica,sans-Serif" font-size="10.00">/includes/triton/api.hpp</text>
</a>
</g>
</g>
<!-- Node3&#45;&gt;Node8 -->
<g id="edge7" class="edge">
<title>Node3&#45;&gt;Node8</title>
<path fill="none" stroke="midnightblue" d="M971.34,-315.22C991.07,-289.26 1019.11,-248.65 1035,-209 1045.38,-183.1 1050.22,-151.02 1052.38,-130.77"/>
<polygon fill="midnightblue" stroke="midnightblue" points="968.33,-313.39 964.99,-323.44 973.87,-317.66 968.33,-313.39"/>
</g>
<!-- Node12 -->
<g id="node12" class="node">
<title>Node12</title>
<g id="a_node12"><a xlink:href="arm32Semantics_8hpp.html" target="_top" xlink:title=" ">
<polygon fill="white" stroke="black" points="240,-167.5 240,-208.5 436,-208.5 436,-167.5 240,-167.5"/>
<text text-anchor="start" x="248" y="-196.5" font-family="Helvetica,sans-Serif" font-size="10.00">/home/jonathan/Works</text>
<text text-anchor="start" x="248" y="-185.5" font-family="Helvetica,sans-Serif" font-size="10.00">/Tools/Triton/src/libtriton</text>
<text text-anchor="middle" x="338" y="-174.5" font-family="Helvetica,sans-Serif" font-size="10.00">/includes/triton/arm32Semantics.hpp</text>
</a>
</g>
</g>
<!-- Node3&#45;&gt;Node12 -->
<g id="edge11" class="edge">
<title>Node3&#45;&gt;Node12</title>
<path fill="none" stroke="midnightblue" d="M843.58,-323.03C755.56,-308.33 723.87,-328.26 650,-287 628.02,-274.72 633.86,-257.47 612,-245 604.11,-240.5 511.69,-222.1 436.34,-207.6"/>
<polygon fill="midnightblue" stroke="midnightblue" points="842.98,-326.47 853.43,-324.78 844.2,-319.58 842.98,-326.47"/>
</g>
<!-- Node14 -->
<g id="node14" class="node">
<title>Node14</title>
<g id="a_node14"><a xlink:href="irBuilder_8hpp.html" target="_top" xlink:title=" ">
<polygon fill="white" stroke="black" points="872,-167.5 872,-208.5 1026,-208.5 1026,-167.5 872,-167.5"/>
<text text-anchor="start" x="880" y="-196.5" font-family="Helvetica,sans-Serif" font-size="10.00">/home/jonathan/Works</text>
<text text-anchor="start" x="880" y="-185.5" font-family="Helvetica,sans-Serif" font-size="10.00">/Tools/Triton/src/libtriton</text>
<text text-anchor="middle" x="949" y="-174.5" font-family="Helvetica,sans-Serif" font-size="10.00">/includes/triton/irBuilder.hpp</text>
</a>
</g>
</g>
<!-- Node3&#45;&gt;Node14 -->
<g id="edge14" class="edge">
<title>Node3&#45;&gt;Node14</title>
<path fill="none" stroke="midnightblue" d="M949,-313.36C949,-282.61 949,-235.36 949,-208.83"/>
<polygon fill="midnightblue" stroke="midnightblue" points="945.5,-313.5 949,-323.5 952.5,-313.5 945.5,-313.5"/>
</g>
<!-- Node15 -->
<g id="node15" class="node">
<title>Node15</title>
<g id="a_node15"><a xlink:href="liftingEngine_8hpp.html" target="_top" xlink:title=" ">
<polygon fill="white" stroke="black" points="1284,-167.5 1284,-208.5 1458,-208.5 1458,-167.5 1284,-167.5"/>
<text text-anchor="start" x="1292" y="-196.5" font-family="Helvetica,sans-Serif" font-size="10.00">/home/jonathan/Works</text>
<text text-anchor="start" x="1292" y="-185.5" font-family="Helvetica,sans-Serif" font-size="10.00">/Tools/Triton/src/libtriton</text>
<text text-anchor="middle" x="1371" y="-174.5" font-family="Helvetica,sans-Serif" font-size="10.00">/includes/triton/liftingEngine.hpp</text>
</a>
</g>
</g>
<!-- Node3&#45;&gt;Node15 -->
<g id="edge17" class="edge">
<title>Node3&#45;&gt;Node15</title>
<path fill="none" stroke="midnightblue" d="M1054.75,-332.59C1135.41,-323.23 1238.8,-307.76 1276,-287 1297.72,-274.88 1295.82,-262.99 1313,-245 1324.89,-232.55 1338.75,-219.14 1349.93,-208.56"/>
<polygon fill="midnightblue" stroke="midnightblue" points="1054.07,-329.14 1044.53,-333.75 1054.86,-336.1 1054.07,-329.14"/>
</g>
<!-- Node16 -->
<g id="node16" class="node">
<title>Node16</title>
<g id="a_node16"><a xlink:href="liftingToPython_8hpp.html" target="_top" xlink:title=" ">
<polygon fill="white" stroke="black" points="1081.5,-245.5 1081.5,-286.5 1266.5,-286.5 1266.5,-245.5 1081.5,-245.5"/>
<text text-anchor="start" x="1089.5" y="-274.5" font-family="Helvetica,sans-Serif" font-size="10.00">/home/jonathan/Works</text>
<text text-anchor="start" x="1089.5" y="-263.5" font-family="Helvetica,sans-Serif" font-size="10.00">/Tools/Triton/src/libtriton</text>
<text text-anchor="middle" x="1174" y="-252.5" font-family="Helvetica,sans-Serif" font-size="10.00">/includes/triton/liftingToPython.hpp</text>
</a>
</g>
</g>
<!-- Node3&#45;&gt;Node16 -->
<g id="edge19" class="edge">
<title>Node3&#45;&gt;Node16</title>
<path fill="none" stroke="midnightblue" d="M1016.6,-320.17C1048.37,-309.44 1085.84,-296.78 1116.25,-286.51"/>
<polygon fill="midnightblue" stroke="midnightblue" points="1015.3,-316.91 1006.94,-323.43 1017.54,-323.54 1015.3,-316.91"/>
</g>
<!-- Node18 -->
<g id="node18" class="node">
<title>Node18</title>
<g id="a_node18"><a xlink:href="liftingToSMT_8hpp.html" target="_top" xlink:title=" ">
<polygon fill="white" stroke="black" points="1322,-245.5 1322,-286.5 1494,-286.5 1494,-245.5 1322,-245.5"/>
<text text-anchor="start" x="1330" y="-274.5" font-family="Helvetica,sans-Serif" font-size="10.00">/home/jonathan/Works</text>
<text text-anchor="start" x="1330" y="-263.5" font-family="Helvetica,sans-Serif" font-size="10.00">/Tools/Triton/src/libtriton</text>
<text text-anchor="middle" x="1408" y="-252.5" font-family="Helvetica,sans-Serif" font-size="10.00">/includes/triton/liftingToSMT.hpp</text>
</a>
</g>
</g>
<!-- Node3&#45;&gt;Node18 -->
<g id="edge22" class="edge">
<title>Node3&#45;&gt;Node18</title>
<path fill="none" stroke="midnightblue" d="M1054.74,-327.72C1126.35,-317.07 1223.03,-302.12 1308,-287 1312.53,-286.19 1317.18,-285.34 1321.86,-284.47"/>
<polygon fill="midnightblue" stroke="midnightblue" points="1054.18,-324.26 1044.8,-329.19 1055.21,-331.19 1054.18,-324.26"/>
</g>
<!-- Node20 -->
<g id="node20" class="node">
<title>Node20</title>
<g id="a_node20"><a xlink:href="synthesizer_8hpp.html" target="_top" xlink:title=" ">
<polygon fill="white" stroke="black" points="1589.5,-245.5 1589.5,-286.5 1758.5,-286.5 1758.5,-245.5 1589.5,-245.5"/>
<text text-anchor="start" x="1597.5" y="-274.5" font-family="Helvetica,sans-Serif" font-size="10.00">/home/jonathan/Works</text>
<text text-anchor="start" x="1597.5" y="-263.5" font-family="Helvetica,sans-Serif" font-size="10.00">/Tools/Triton/src/libtriton</text>
<text text-anchor="middle" x="1674" y="-252.5" font-family="Helvetica,sans-Serif" font-size="10.00">/includes/triton/synthesizer.hpp</text>
</a>
</g>
</g>
<!-- Node3&#45;&gt;Node20 -->
<g id="edge25" class="edge">
<title>Node3&#45;&gt;Node20</title>
<path fill="none" stroke="midnightblue" d="M1054.87,-332.8C1166.4,-321.93 1347.14,-303.99 1503,-287 1531.08,-283.94 1561.73,-280.41 1589.23,-277.18"/>
<polygon fill="midnightblue" stroke="midnightblue" points="1054.25,-329.34 1044.63,-333.79 1054.92,-336.31 1054.25,-329.34"/>
</g>
<!-- Node22 -->
<g id="node22" class="node">
<title>Node22</title>
<g id="a_node22"><a xlink:href="taintEngine_8hpp.html" target="_top" xlink:title=" ">
<polygon fill="white" stroke="black" points="701.5,-245.5 701.5,-286.5 870.5,-286.5 870.5,-245.5 701.5,-245.5"/>
<text text-anchor="start" x="709.5" y="-274.5" font-family="Helvetica,sans-Serif" font-size="10.00">/home/jonathan/Works</text>
<text text-anchor="start" x="709.5" y="-263.5" font-family="Helvetica,sans-Serif" font-size="10.00">/Tools/Triton/src/libtriton</text>
<text text-anchor="middle" x="786" y="-252.5" font-family="Helvetica,sans-Serif" font-size="10.00">/includes/triton/taintEngine.hpp</text>
</a>
</g>
</g>
<!-- Node3&#45;&gt;Node22 -->
<g id="edge28" class="edge">
<title>Node3&#45;&gt;Node22</title>
<path fill="none" stroke="midnightblue" d="M897.93,-319.19C875.38,-308.67 849.2,-296.47 827.83,-286.51"/>
<polygon fill="midnightblue" stroke="midnightblue" points="896.48,-322.37 907.02,-323.43 899.44,-316.03 896.48,-322.37"/>
</g>
<!-- Node24 -->
<g id="node24" class="node">
<title>Node24</title>
<g id="a_node24"><a xlink:href="x86Semantics_8hpp.html" target="_top" xlink:title=" ">
<polygon fill="white" stroke="black" points="454,-167.5 454,-208.5 636,-208.5 636,-167.5 454,-167.5"/>
<text text-anchor="start" x="462" y="-196.5" font-family="Helvetica,sans-Serif" font-size="10.00">/home/jonathan/Works</text>
<text text-anchor="start" x="462" y="-185.5" font-family="Helvetica,sans-Serif" font-size="10.00">/Tools/Triton/src/libtriton</text>
<text text-anchor="middle" x="545" y="-174.5" font-family="Helvetica,sans-Serif" font-size="10.00">/includes/triton/x86Semantics.hpp</text>
</a>
</g>
</g>
<!-- Node3&#45;&gt;Node24 -->
<g id="edge37" class="edge">
<title>Node3&#45;&gt;Node24</title>
<path fill="none" stroke="midnightblue" d="M843.34,-321.39C775.6,-307.3 699.03,-290.84 692,-287 668.83,-274.34 671.21,-260.72 650,-245 630.99,-230.92 607.98,-218.23 588.35,-208.51"/>
<polygon fill="midnightblue" stroke="midnightblue" points="842.76,-324.84 853.26,-323.45 844.18,-317.99 842.76,-324.84"/>
</g>
<!-- Node6 -->
<g id="node6" class="node">
<title>Node6</title>
<g id="a_node6"><a xlink:href="aarch64Semantics_8cpp.html" target="_top" xlink:title=" ">
<polygon fill="white" stroke="black" points="0,-89.5 0,-130.5 218,-130.5 218,-89.5 0,-89.5"/>
<text text-anchor="start" x="8" y="-118.5" font-family="Helvetica,sans-Serif" font-size="10.00">/home/jonathan/Works</text>
<text text-anchor="start" x="8" y="-107.5" font-family="Helvetica,sans-Serif" font-size="10.00">/Tools/Triton/src/libtriton</text>
<text text-anchor="middle" x="109" y="-96.5" font-family="Helvetica,sans-Serif" font-size="10.00">/arch/arm/aarch64/aarch64Semantics.cpp</text>
</a>
</g>
</g>
<!-- Node5&#45;&gt;Node6 -->
<g id="edge5" class="edge">
<title>Node5&#45;&gt;Node6</title>
<path fill="none" stroke="midnightblue" d="M116.31,-157.3C114.89,-148.3 113.37,-138.65 112.08,-130.51"/>
<polygon fill="midnightblue" stroke="midnightblue" points="112.89,-158.1 117.91,-167.43 119.81,-157 112.89,-158.1"/>
</g>
<!-- Node7 -->
<g id="node7" class="node">
<title>Node7</title>
<g id="a_node7"><a xlink:href="irBuilder_8cpp.html" target="_top" xlink:title=" ">
<polygon fill="white" stroke="black" points="457.5,-89.5 457.5,-130.5 590.5,-130.5 590.5,-89.5 457.5,-89.5"/>
<text text-anchor="start" x="465.5" y="-118.5" font-family="Helvetica,sans-Serif" font-size="10.00">/home/jonathan/Works</text>
<text text-anchor="start" x="465.5" y="-107.5" font-family="Helvetica,sans-Serif" font-size="10.00">/Tools/Triton/src/libtriton</text>
<text text-anchor="middle" x="524" y="-96.5" font-family="Helvetica,sans-Serif" font-size="10.00">/arch/irBuilder.cpp</text>
</a>
</g>
</g>
<!-- Node5&#45;&gt;Node7 -->
<g id="edge6" class="edge">
<title>Node5&#45;&gt;Node7</title>
<path fill="none" stroke="midnightblue" d="M232.46,-166.77C329.01,-150.31 355.48,-150.8 448,-131 451.07,-130.34 454.2,-129.64 457.36,-128.91"/>
<polygon fill="midnightblue" stroke="midnightblue" points="231.84,-163.33 222.58,-168.47 233.03,-170.22 231.84,-163.33"/>
</g>
<!-- Node9 -->
<g id="node9" class="node">
<title>Node9</title>
<g id="a_node9"><a xlink:href="api_8cpp.html" target="_top" xlink:title=" ">
<polygon fill="white" stroke="black" points="834.5,-6 834.5,-47 967.5,-47 967.5,-6 834.5,-6"/>
<text text-anchor="start" x="842.5" y="-35" font-family="Helvetica,sans-Serif" font-size="10.00">/home/jonathan/Works</text>
<text text-anchor="start" x="842.5" y="-24" font-family="Helvetica,sans-Serif" font-size="10.00">/Tools/Triton/src/libtriton</text>
<text text-anchor="middle" x="901" y="-13" font-family="Helvetica,sans-Serif" font-size="10.00">/api/api.cpp</text>
</a>
</g>
</g>
<!-- Node8&#45;&gt;Node9 -->
<g id="edge8" class="edge">
<title>Node8&#45;&gt;Node9</title>
<path fill="none" stroke="midnightblue" d="M1008.29,-84.65C985.7,-72.62 958.82,-58.3 937.61,-47"/>
<polygon fill="midnightblue" stroke="midnightblue" points="1006.88,-87.87 1017.35,-89.48 1010.17,-81.69 1006.88,-87.87"/>
</g>
<!-- Node10 -->
<g id="node10" class="node">
<title>Node10</title>
<g id="a_node10"><a xlink:href="pyTritonContext_8cpp.html" target="_top" xlink:title=" ">
<polygon fill="white" stroke="black" points="986,-0.5 986,-52.5 1122,-52.5 1122,-0.5 986,-0.5"/>
<text text-anchor="start" x="994" y="-40.5" font-family="Helvetica,sans-Serif" font-size="10.00">/home/jonathan/Works</text>
<text text-anchor="start" x="994" y="-29.5" font-family="Helvetica,sans-Serif" font-size="10.00">/Tools/Triton/src/libtriton</text>
<text text-anchor="start" x="994" y="-18.5" font-family="Helvetica,sans-Serif" font-size="10.00">/bindings/python/objects</text>
<text text-anchor="middle" x="1054" y="-7.5" font-family="Helvetica,sans-Serif" font-size="10.00">/pyTritonContext.cpp</text>
</a>
</g>
</g>
<!-- Node8&#45;&gt;Node10 -->
<g id="edge9" class="edge">
<title>Node8&#45;&gt;Node10</title>
<path fill="none" stroke="midnightblue" d="M1054,-79.12C1054,-70.41 1054,-60.99 1054,-52.61"/>
<polygon fill="midnightblue" stroke="midnightblue" points="1050.5,-79.27 1054,-89.27 1057.5,-79.27 1050.5,-79.27"/>
</g>
<!-- Node11 -->
<g id="node11" class="node">
<title>Node11</title>
<g id="a_node11"><a xlink:href="callbacks_8cpp.html" target="_top" xlink:title=" ">
<polygon fill="white" stroke="black" points="1140,-6 1140,-47 1274,-47 1274,-6 1140,-6"/>
<text text-anchor="start" x="1148" y="-35" font-family="Helvetica,sans-Serif" font-size="10.00">/home/jonathan/Works</text>
<text text-anchor="start" x="1148" y="-24" font-family="Helvetica,sans-Serif" font-size="10.00">/Tools/Triton/src/libtriton</text>
<text text-anchor="middle" x="1207" y="-13" font-family="Helvetica,sans-Serif" font-size="10.00">/callbacks/callbacks.cpp</text>
</a>
</g>
</g>
<!-- Node8&#45;&gt;Node11 -->
<g id="edge10" class="edge">
<title>Node8&#45;&gt;Node11</title>
<path fill="none" stroke="midnightblue" d="M1099.71,-84.65C1122.3,-72.62 1149.18,-58.3 1170.39,-47"/>
<polygon fill="midnightblue" stroke="midnightblue" points="1097.83,-81.69 1090.65,-89.48 1101.12,-87.87 1097.83,-81.69"/>
</g>
<!-- Node12&#45;&gt;Node7 -->
<g id="edge13" class="edge">
<title>Node12&#45;&gt;Node7</title>
<path fill="none" stroke="midnightblue" d="M395.25,-163.61C421.21,-153 451.55,-140.6 476.26,-130.51"/>
<polygon fill="midnightblue" stroke="midnightblue" points="393.83,-160.41 385.9,-167.43 396.48,-166.89 393.83,-160.41"/>
</g>
<!-- Node13 -->
<g id="node13" class="node">
<title>Node13</title>
<g id="a_node13"><a xlink:href="arm32Semantics_8cpp.html" target="_top" xlink:title=" ">
<polygon fill="white" stroke="black" points="236.5,-89.5 236.5,-130.5 439.5,-130.5 439.5,-89.5 236.5,-89.5"/>
<text text-anchor="start" x="244.5" y="-118.5" font-family="Helvetica,sans-Serif" font-size="10.00">/home/jonathan/Works</text>
<text text-anchor="start" x="244.5" y="-107.5" font-family="Helvetica,sans-Serif" font-size="10.00">/Tools/Triton/src/libtriton</text>
<text text-anchor="middle" x="338" y="-96.5" font-family="Helvetica,sans-Serif" font-size="10.00">/arch/arm/arm32/arm32Semantics.cpp</text>
</a>
</g>
</g>
<!-- Node12&#45;&gt;Node13 -->
<g id="edge12" class="edge">
<title>Node12&#45;&gt;Node13</title>
<path fill="none" stroke="midnightblue" d="M338,-157.3C338,-148.3 338,-138.65 338,-130.51"/>
<polygon fill="midnightblue" stroke="midnightblue" points="334.5,-157.43 338,-167.43 341.5,-157.43 334.5,-157.43"/>
</g>
<!-- Node14&#45;&gt;Node7 -->
<g id="edge15" class="edge">
<title>Node14&#45;&gt;Node7</title>
<path fill="none" stroke="midnightblue" d="M862.03,-172.96C849.6,-170.96 836.98,-168.92 825,-167 725.01,-150.94 699.09,-151.91 600,-131 596.93,-130.35 593.8,-129.66 590.64,-128.93"/>
<polygon fill="midnightblue" stroke="midnightblue" points="861.51,-176.42 871.94,-174.56 862.63,-169.51 861.51,-176.42"/>
</g>
<!-- Node14&#45;&gt;Node8 -->
<g id="edge16" class="edge">
<title>Node14&#45;&gt;Node8</title>
<path fill="none" stroke="midnightblue" d="M984.44,-161.35C998.36,-151.27 1014.08,-139.89 1027.05,-130.51"/>
<polygon fill="midnightblue" stroke="midnightblue" points="982.09,-158.73 976.04,-167.43 986.19,-164.4 982.09,-158.73"/>
</g>
<!-- Node15&#45;&gt;Node8 -->
<g id="edge18" class="edge">
<title>Node15&#45;&gt;Node8</title>
<path fill="none" stroke="midnightblue" d="M1279.38,-165.03C1228.67,-152.88 1166.77,-138.04 1120.68,-126.99"/>
<polygon fill="midnightblue" stroke="midnightblue" points="1278.82,-168.5 1289.36,-167.43 1280.46,-161.69 1278.82,-168.5"/>
</g>
<!-- Node16&#45;&gt;Node15 -->
<g id="edge21" class="edge">
<title>Node16&#45;&gt;Node15</title>
<path fill="none" stroke="midnightblue" d="M1234.27,-241.75C1261.85,-231.11 1294.16,-218.65 1320.44,-208.51"/>
<polygon fill="midnightblue" stroke="midnightblue" points="1232.8,-238.56 1224.73,-245.43 1235.32,-245.09 1232.8,-238.56"/>
</g>
<!-- Node17 -->
<g id="node17" class="node">
<title>Node17</title>
<g id="a_node17"><a xlink:href="liftingToPython_8cpp.html" target="_top" xlink:title=" ">
<polygon fill="white" stroke="black" points="1082,-167.5 1082,-208.5 1266,-208.5 1266,-167.5 1082,-167.5"/>
<text text-anchor="start" x="1090" y="-196.5" font-family="Helvetica,sans-Serif" font-size="10.00">/home/jonathan/Works</text>
<text text-anchor="start" x="1090" y="-185.5" font-family="Helvetica,sans-Serif" font-size="10.00">/Tools/Triton/src/libtriton</text>
<text text-anchor="middle" x="1174" y="-174.5" font-family="Helvetica,sans-Serif" font-size="10.00">/engines/lifters/liftingToPython.cpp</text>
</a>
</g>
</g>
<!-- Node16&#45;&gt;Node17 -->
<g id="edge20" class="edge">
<title>Node16&#45;&gt;Node17</title>
<path fill="none" stroke="midnightblue" d="M1174,-235.3C1174,-226.3 1174,-216.65 1174,-208.51"/>
<polygon fill="midnightblue" stroke="midnightblue" points="1170.5,-235.43 1174,-245.43 1177.5,-235.43 1170.5,-235.43"/>
</g>
<!-- Node18&#45;&gt;Node15 -->
<g id="edge24" class="edge">
<title>Node18&#45;&gt;Node15</title>
<path fill="none" stroke="midnightblue" d="M1393.97,-236.17C1389.47,-226.93 1384.59,-216.92 1380.5,-208.51"/>
<polygon fill="midnightblue" stroke="midnightblue" points="1390.95,-237.97 1398.47,-245.43 1397.24,-234.9 1390.95,-237.97"/>
</g>
<!-- Node19 -->
<g id="node19" class="node">
<title>Node19</title>
<g id="a_node19"><a xlink:href="liftingToSMT_8cpp.html" target="_top" xlink:title=" ">
<polygon fill="white" stroke="black" points="1476,-167.5 1476,-208.5 1646,-208.5 1646,-167.5 1476,-167.5"/>
<text text-anchor="start" x="1484" y="-196.5" font-family="Helvetica,sans-Serif" font-size="10.00">/home/jonathan/Works</text>
<text text-anchor="start" x="1484" y="-185.5" font-family="Helvetica,sans-Serif" font-size="10.00">/Tools/Triton/src/libtriton</text>
<text text-anchor="middle" x="1561" y="-174.5" font-family="Helvetica,sans-Serif" font-size="10.00">/engines/lifters/liftingToSMT.cpp</text>
</a>
</g>
</g>
<!-- Node18&#45;&gt;Node19 -->
<g id="edge23" class="edge">
<title>Node18&#45;&gt;Node19</title>
<path fill="none" stroke="midnightblue" d="M1456.5,-240.91C1477.54,-230.46 1501.85,-218.38 1521.73,-208.51"/>
<polygon fill="midnightblue" stroke="midnightblue" points="1454.8,-237.84 1447.4,-245.43 1457.91,-244.11 1454.8,-237.84"/>
</g>
<!-- Node20&#45;&gt;Node8 -->
<g id="edge27" class="edge">
<title>Node20&#45;&gt;Node8</title>
<path fill="none" stroke="midnightblue" d="M1676.89,-234.93C1677.21,-212.82 1673.54,-183.8 1655,-167 1616.05,-131.71 1269.03,-117.34 1120.73,-112.77"/>
<polygon fill="midnightblue" stroke="midnightblue" points="1673.38,-235.01 1676.46,-245.15 1680.38,-235.31 1673.38,-235.01"/>
</g>
<!-- Node21 -->
<g id="node21" class="node">
<title>Node21</title>
<g id="a_node21"><a xlink:href="synthesizer_8cpp.html" target="_top" xlink:title=" ">
<polygon fill="white" stroke="black" points="1702,-167.5 1702,-208.5 1888,-208.5 1888,-167.5 1702,-167.5"/>
<text text-anchor="start" x="1710" y="-196.5" font-family="Helvetica,sans-Serif" font-size="10.00">/home/jonathan/Works</text>
<text text-anchor="start" x="1710" y="-185.5" font-family="Helvetica,sans-Serif" font-size="10.00">/Tools/Triton/src/libtriton</text>
<text text-anchor="middle" x="1795" y="-174.5" font-family="Helvetica,sans-Serif" font-size="10.00">/engines/synthesis/synthesizer.cpp</text>
</a>
</g>
</g>
<!-- Node20&#45;&gt;Node21 -->
<g id="edge26" class="edge">
<title>Node20&#45;&gt;Node21</title>
<path fill="none" stroke="midnightblue" d="M1713.93,-239.92C1730.2,-229.7 1748.72,-218.07 1763.95,-208.51"/>
<polygon fill="midnightblue" stroke="midnightblue" points="1711.77,-237.15 1705.16,-245.43 1715.49,-243.07 1711.77,-237.15"/>
</g>
<!-- Node22&#45;&gt;Node5 -->
<g id="edge30" class="edge">
<title>Node22&#45;&gt;Node5</title>
<path fill="none" stroke="midnightblue" d="M690.99,-253.73C665.36,-250.78 637.63,-247.68 612,-245 442.84,-227.29 399.49,-232.23 231,-209 228.21,-208.62 225.39,-208.21 222.54,-207.79"/>
<polygon fill="midnightblue" stroke="midnightblue" points="690.74,-257.22 701.08,-254.89 691.54,-250.27 690.74,-257.22"/>
</g>
<!-- Node22&#45;&gt;Node8 -->
<g id="edge31" class="edge">
<title>Node22&#45;&gt;Node8</title>
<path fill="none" stroke="midnightblue" d="M804.95,-237.18C822.79,-211.72 848.83,-176.59 863,-167 900.06,-141.92 948.5,-127.88 987.33,-120.13"/>
<polygon fill="midnightblue" stroke="midnightblue" points="802.07,-235.19 799.24,-245.4 807.82,-239.18 802.07,-235.19"/>
</g>
<!-- Node22&#45;&gt;Node12 -->
<g id="edge32" class="edge">
<title>Node22&#45;&gt;Node12</title>
<path fill="none" stroke="midnightblue" d="M691.57,-250.06C623.06,-239.09 528.21,-223.61 445,-209 442.11,-208.49 439.19,-207.98 436.23,-207.45"/>
<polygon fill="midnightblue" stroke="midnightblue" points="691.05,-253.53 701.48,-251.65 692.16,-246.61 691.05,-253.53"/>
</g>
<!-- Node22&#45;&gt;Node14 -->
<g id="edge33" class="edge">
<title>Node22&#45;&gt;Node14</title>
<path fill="none" stroke="midnightblue" d="M837.07,-241.19C859.62,-230.67 885.8,-218.47 907.17,-208.51"/>
<polygon fill="midnightblue" stroke="midnightblue" points="835.56,-238.03 827.98,-245.43 838.52,-244.37 835.56,-238.03"/>
</g>
<!-- Node23 -->
<g id="node23" class="node">
<title>Node23</title>
<g id="a_node23"><a xlink:href="taintEngine_8cpp.html" target="_top" xlink:title=" ">
<polygon fill="white" stroke="black" points="654,-167.5 654,-208.5 816,-208.5 816,-167.5 654,-167.5"/>
<text text-anchor="start" x="662" y="-196.5" font-family="Helvetica,sans-Serif" font-size="10.00">/home/jonathan/Works</text>
<text text-anchor="start" x="662" y="-185.5" font-family="Helvetica,sans-Serif" font-size="10.00">/Tools/Triton/src/libtriton</text>
<text text-anchor="middle" x="735" y="-174.5" font-family="Helvetica,sans-Serif" font-size="10.00">/engines/taint/taintEngine.cpp</text>
</a>
</g>
</g>
<!-- Node22&#45;&gt;Node23 -->
<g id="edge29" class="edge">
<title>Node22&#45;&gt;Node23</title>
<path fill="none" stroke="midnightblue" d="M767.24,-237.05C760.88,-227.57 753.91,-217.18 748.09,-208.51"/>
<polygon fill="midnightblue" stroke="midnightblue" points="764.39,-239.07 772.87,-245.43 770.2,-235.17 764.39,-239.07"/>
</g>
<!-- Node22&#45;&gt;Node24 -->
<g id="edge34" class="edge">
<title>Node22&#45;&gt;Node24</title>
<path fill="none" stroke="midnightblue" d="M714.03,-242.3C679.91,-231.55 639.57,-218.82 606.85,-208.51"/>
<polygon fill="midnightblue" stroke="midnightblue" points="713.35,-245.76 723.94,-245.43 715.45,-239.08 713.35,-245.76"/>
</g>
<!-- Node24&#45;&gt;Node7 -->
<g id="edge35" class="edge">
<title>Node24&#45;&gt;Node7</title>
<path fill="none" stroke="midnightblue" d="M536.87,-157.59C534.36,-148.51 531.67,-138.74 529.39,-130.51"/>
<polygon fill="midnightblue" stroke="midnightblue" points="533.55,-158.72 539.59,-167.43 540.3,-156.86 533.55,-158.72"/>
</g>
<!-- Node25 -->
<g id="node25" class="node">
<title>Node25</title>
<g id="a_node25"><a xlink:href="x86Semantics_8cpp.html" target="_top" xlink:title=" ">
<polygon fill="white" stroke="black" points="609,-89.5 609,-130.5 763,-130.5 763,-89.5 609,-89.5"/>
<text text-anchor="start" x="617" y="-118.5" font-family="Helvetica,sans-Serif" font-size="10.00">/home/jonathan/Works</text>
<text text-anchor="start" x="617" y="-107.5" font-family="Helvetica,sans-Serif" font-size="10.00">/Tools/Triton/src/libtriton</text>
<text text-anchor="middle" x="686" y="-96.5" font-family="Helvetica,sans-Serif" font-size="10.00">/arch/x86/x86Semantics.cpp</text>
</a>
</g>
</g>
<!-- Node24&#45;&gt;Node25 -->
<g id="edge36" class="edge">
<title>Node24&#45;&gt;Node25</title>
<path fill="none" stroke="midnightblue" d="M590.22,-162.63C609.49,-152.24 631.66,-140.29 649.81,-130.51"/>
<polygon fill="midnightblue" stroke="midnightblue" points="588.45,-159.6 581.31,-167.43 591.77,-165.76 588.45,-159.6"/>
</g>
</g>
</svg>
