<?xml version="1.0" encoding="UTF-8" standalone="no"?>
<!DOCTYPE svg PUBLIC "-//W3C//DTD SVG 1.1//EN"
 "http://www.w3.org/Graphics/SVG/1.1/DTD/svg11.dtd">
<!-- Generated by graphviz version 2.49.0 (20210828.1703)
 -->
<!-- Title: /home/jonathan/Works/Tools/Triton/src/libtriton/includes/triton/pythonUtils.hpp Pages: 1 -->
<svg width="5444pt" height="139pt"
 viewBox="0.00 0.00 5443.50 139.00" xmlns="http://www.w3.org/2000/svg" xmlns:xlink="http://www.w3.org/1999/xlink">
<g id="graph0" class="graph" transform="scale(1 1) rotate(0) translate(4 135)">
<title>/home/jonathan/Works/Tools/Triton/src/libtriton/includes/triton/pythonUtils.hpp</title>
<polygon fill="white" stroke="transparent" points="-4,4 -4,-135 5439.5,-135 5439.5,4 -4,4"/>
<!-- Node1 -->
<g id="node1" class="node">
<title>Node1</title>
<g id="a_node1"><a xlink:title=" ">
<polygon fill="#bfbfbf" stroke="black" points="2819.5,-89.5 2819.5,-130.5 2989.5,-130.5 2989.5,-89.5 2819.5,-89.5"/>
<text text-anchor="start" x="2827.5" y="-118.5" font-family="Helvetica,sans-Serif" font-size="10.00">/home/jonathan/Works</text>
<text text-anchor="start" x="2827.5" y="-107.5" font-family="Helvetica,sans-Serif" font-size="10.00">/Tools/Triton/src/libtriton</text>
<text text-anchor="middle" x="2904.5" y="-96.5" font-family="Helvetica,sans-Serif" font-size="10.00">/includes/triton/pythonUtils.hpp</text>
</a>
</g>
</g>
<!-- Node2 -->
<g id="node2" class="node">
<title>Node2</title>
<g id="a_node2"><a xlink:href="tritonCallbacks_8cpp.html" target="_top" xlink:title=" ">
<polygon fill="white" stroke="black" points="0,-0.5 0,-52.5 143,-52.5 143,-0.5 0,-0.5"/>
<text text-anchor="start" x="8" y="-40.5" font-family="Helvetica,sans-Serif" font-size="10.00">/home/jonathan/Works</text>
<text text-anchor="start" x="8" y="-29.5" font-family="Helvetica,sans-Serif" font-size="10.00">/Tools/Triton/src/libtriton</text>
<text text-anchor="start" x="8" y="-18.5" font-family="Helvetica,sans-Serif" font-size="10.00">/bindings/python/modules</text>
<text text-anchor="middle" x="71.5" y="-7.5" font-family="Helvetica,sans-Serif" font-size="10.00">/tritonCallbacks.cpp</text>
</a>
</g>
</g>
<!-- Node1&#45;&gt;Node2 -->
<g id="edge1" class="edge">
<title>Node1&#45;&gt;Node2</title>
<path fill="none" stroke="midnightblue" d="M2809.25,-108.67C2354.87,-106.87 418.6,-96.67 152.5,-53 149.44,-52.5 146.35,-51.91 143.23,-51.25"/>
<polygon fill="midnightblue" stroke="midnightblue" points="2809.37,-112.17 2819.38,-108.71 2809.4,-105.17 2809.37,-112.17"/>
</g>
<!-- Node3 -->
<g id="node3" class="node">
<title>Node3</title>
<g id="a_node3"><a xlink:href="initArchNamespace_8cpp.html" target="_top" xlink:title=" ">
<polygon fill="white" stroke="black" points="161.5,-0.5 161.5,-52.5 323.5,-52.5 323.5,-0.5 161.5,-0.5"/>
<text text-anchor="start" x="169.5" y="-40.5" font-family="Helvetica,sans-Serif" font-size="10.00">/home/jonathan/Works</text>
<text text-anchor="start" x="169.5" y="-29.5" font-family="Helvetica,sans-Serif" font-size="10.00">/Tools/Triton/src/libtriton</text>
<text text-anchor="start" x="169.5" y="-18.5" font-family="Helvetica,sans-Serif" font-size="10.00">/bindings/python/namespaces</text>
<text text-anchor="middle" x="242.5" y="-7.5" font-family="Helvetica,sans-Serif" font-size="10.00">/initArchNamespace.cpp</text>
</a>
</g>
</g>
<!-- Node1&#45;&gt;Node3 -->
<g id="edge2" class="edge">
<title>Node1&#45;&gt;Node3</title>
<path fill="none" stroke="midnightblue" d="M2809.14,-108.36C2373.19,-105.23 580.52,-90.21 332.5,-53 329.61,-52.57 326.68,-52.07 323.73,-51.51"/>
<polygon fill="midnightblue" stroke="midnightblue" points="2809.16,-111.86 2819.18,-108.43 2809.21,-104.86 2809.16,-111.86"/>
</g>
<!-- Node4 -->
<g id="node4" class="node">
<title>Node4</title>
<g id="a_node4"><a xlink:href="initAstNodeNamespace_8cpp.html" target="_top" xlink:title=" ">
<polygon fill="white" stroke="black" points="341.5,-0.5 341.5,-52.5 503.5,-52.5 503.5,-0.5 341.5,-0.5"/>
<text text-anchor="start" x="349.5" y="-40.5" font-family="Helvetica,sans-Serif" font-size="10.00">/home/jonathan/Works</text>
<text text-anchor="start" x="349.5" y="-29.5" font-family="Helvetica,sans-Serif" font-size="10.00">/Tools/Triton/src/libtriton</text>
<text text-anchor="start" x="349.5" y="-18.5" font-family="Helvetica,sans-Serif" font-size="10.00">/bindings/python/namespaces</text>
<text text-anchor="middle" x="422.5" y="-7.5" font-family="Helvetica,sans-Serif" font-size="10.00">/initAstNodeNamespace.cpp</text>
</a>
</g>
</g>
<!-- Node1&#45;&gt;Node4 -->
<g id="edge3" class="edge">
<title>Node1&#45;&gt;Node4</title>
<path fill="none" stroke="midnightblue" d="M2809.06,-108.19C2392.21,-104.46 741.88,-87.61 512.5,-53 509.61,-52.56 506.68,-52.06 503.73,-51.51"/>
<polygon fill="midnightblue" stroke="midnightblue" points="2809.24,-111.69 2819.27,-108.28 2809.3,-104.69 2809.24,-111.69"/>
</g>
<!-- Node5 -->
<g id="node5" class="node">
<title>Node5</title>
<g id="a_node5"><a xlink:href="initAstRepresentationNamespace_8cpp.html" target="_top" xlink:title=" ">
<polygon fill="white" stroke="black" points="522,-0.5 522,-52.5 725,-52.5 725,-0.5 522,-0.5"/>
<text text-anchor="start" x="530" y="-40.5" font-family="Helvetica,sans-Serif" font-size="10.00">/home/jonathan/Works</text>
<text text-anchor="start" x="530" y="-29.5" font-family="Helvetica,sans-Serif" font-size="10.00">/Tools/Triton/src/libtriton</text>
<text text-anchor="start" x="530" y="-18.5" font-family="Helvetica,sans-Serif" font-size="10.00">/bindings/python/namespaces</text>
<text text-anchor="middle" x="623.5" y="-7.5" font-family="Helvetica,sans-Serif" font-size="10.00">/initAstRepresentationNamespace.cpp</text>
</a>
</g>
</g>
<!-- Node1&#45;&gt;Node5 -->
<g id="edge4" class="edge">
<title>Node1&#45;&gt;Node5</title>
<path fill="none" stroke="midnightblue" d="M2809.22,-109.07C2445.54,-108.96 1144.63,-104.87 734.5,-53 731.46,-52.62 728.38,-52.18 725.28,-51.71"/>
<polygon fill="midnightblue" stroke="midnightblue" points="2809.45,-112.57 2819.45,-109.08 2809.45,-105.57 2809.45,-112.57"/>
</g>
<!-- Node6 -->
<g id="node6" class="node">
<title>Node6</title>
<g id="a_node6"><a xlink:href="initCallbackNamespace_8cpp.html" target="_top" xlink:title=" ">
<polygon fill="white" stroke="black" points="743.5,-0.5 743.5,-52.5 905.5,-52.5 905.5,-0.5 743.5,-0.5"/>
<text text-anchor="start" x="751.5" y="-40.5" font-family="Helvetica,sans-Serif" font-size="10.00">/home/jonathan/Works</text>
<text text-anchor="start" x="751.5" y="-29.5" font-family="Helvetica,sans-Serif" font-size="10.00">/Tools/Triton/src/libtriton</text>
<text text-anchor="start" x="751.5" y="-18.5" font-family="Helvetica,sans-Serif" font-size="10.00">/bindings/python/namespaces</text>
<text text-anchor="middle" x="824.5" y="-7.5" font-family="Helvetica,sans-Serif" font-size="10.00">/initCallbackNamespace.cpp</text>
</a>
</g>
</g>
<!-- Node1&#45;&gt;Node6 -->
<g id="edge5" class="edge">
<title>Node1&#45;&gt;Node6</title>
<path fill="none" stroke="midnightblue" d="M2809.05,-109.44C2464.59,-110.55 1286.32,-110 914.5,-53 911.61,-52.56 908.68,-52.05 905.74,-51.49"/>
<polygon fill="midnightblue" stroke="midnightblue" points="2809.25,-112.94 2819.24,-109.41 2809.23,-105.94 2809.25,-112.94"/>
</g>
<!-- Node7 -->
<g id="node7" class="node">
<title>Node7</title>
<g id="a_node7"><a xlink:href="initConditionsNamespace_8cpp.html" target="_top" xlink:title=" ">
<polygon fill="white" stroke="black" points="924,-0.5 924,-52.5 1089,-52.5 1089,-0.5 924,-0.5"/>
<text text-anchor="start" x="932" y="-40.5" font-family="Helvetica,sans-Serif" font-size="10.00">/home/jonathan/Works</text>
<text text-anchor="start" x="932" y="-29.5" font-family="Helvetica,sans-Serif" font-size="10.00">/Tools/Triton/src/libtriton</text>
<text text-anchor="start" x="932" y="-18.5" font-family="Helvetica,sans-Serif" font-size="10.00">/bindings/python/namespaces</text>
<text text-anchor="middle" x="1006.5" y="-7.5" font-family="Helvetica,sans-Serif" font-size="10.00">/initConditionsNamespace.cpp</text>
</a>
</g>
</g>
<!-- Node1&#45;&gt;Node7 -->
<g id="edge6" class="edge">
<title>Node1&#45;&gt;Node7</title>
<path fill="none" stroke="midnightblue" d="M2809,-109.05C2485.55,-108.75 1432.92,-103.78 1098.5,-53 1095.39,-52.53 1092.23,-51.98 1089.05,-51.38"/>
<polygon fill="midnightblue" stroke="midnightblue" points="2809.28,-112.55 2819.28,-109.06 2809.28,-105.55 2809.28,-112.55"/>
</g>
<!-- Node8 -->
<g id="node8" class="node">
<title>Node8</title>
<g id="a_node8"><a xlink:href="initCpuSizeNamespace_8cpp.html" target="_top" xlink:title=" ">
<polygon fill="white" stroke="black" points="1107.5,-0.5 1107.5,-52.5 1269.5,-52.5 1269.5,-0.5 1107.5,-0.5"/>
<text text-anchor="start" x="1115.5" y="-40.5" font-family="Helvetica,sans-Serif" font-size="10.00">/home/jonathan/Works</text>
<text text-anchor="start" x="1115.5" y="-29.5" font-family="Helvetica,sans-Serif" font-size="10.00">/Tools/Triton/src/libtriton</text>
<text text-anchor="start" x="1115.5" y="-18.5" font-family="Helvetica,sans-Serif" font-size="10.00">/bindings/python/namespaces</text>
<text text-anchor="middle" x="1188.5" y="-7.5" font-family="Helvetica,sans-Serif" font-size="10.00">/initCpuSizeNamespace.cpp</text>
</a>
</g>
</g>
<!-- Node1&#45;&gt;Node8 -->
<g id="edge7" class="edge">
<title>Node1&#45;&gt;Node8</title>
<path fill="none" stroke="midnightblue" d="M2809.36,-108.74C2507.91,-107.43 1576.33,-99.62 1278.5,-53 1275.61,-52.55 1272.69,-52.03 1269.74,-51.47"/>
<polygon fill="midnightblue" stroke="midnightblue" points="2809.37,-112.24 2819.38,-108.78 2809.4,-105.24 2809.37,-112.24"/>
</g>
<!-- Node9 -->
<g id="node9" class="node">
<title>Node9</title>
<g id="a_node9"><a xlink:href="initExtendNamespace_8cpp.html" target="_top" xlink:title=" ">
<polygon fill="white" stroke="black" points="1287.5,-0.5 1287.5,-52.5 1449.5,-52.5 1449.5,-0.5 1287.5,-0.5"/>
<text text-anchor="start" x="1295.5" y="-40.5" font-family="Helvetica,sans-Serif" font-size="10.00">/home/jonathan/Works</text>
<text text-anchor="start" x="1295.5" y="-29.5" font-family="Helvetica,sans-Serif" font-size="10.00">/Tools/Triton/src/libtriton</text>
<text text-anchor="start" x="1295.5" y="-18.5" font-family="Helvetica,sans-Serif" font-size="10.00">/bindings/python/namespaces</text>
<text text-anchor="middle" x="1368.5" y="-7.5" font-family="Helvetica,sans-Serif" font-size="10.00">/initExtendNamespace.cpp</text>
</a>
</g>
</g>
<!-- Node1&#45;&gt;Node9 -->
<g id="edge8" class="edge">
<title>Node1&#45;&gt;Node9</title>
<path fill="none" stroke="midnightblue" d="M2809.03,-108.26C2530.13,-105.61 1719.83,-94.48 1458.5,-53 1455.61,-52.54 1452.69,-52.02 1449.74,-51.45"/>
<polygon fill="midnightblue" stroke="midnightblue" points="2809.1,-111.76 2819.13,-108.35 2809.16,-104.76 2809.1,-111.76"/>
</g>
<!-- Node10 -->
<g id="node10" class="node">
<title>Node10</title>
<g id="a_node10"><a xlink:href="initModeNamespace_8cpp.html" target="_top" xlink:title=" ">
<polygon fill="white" stroke="black" points="1467.5,-0.5 1467.5,-52.5 1629.5,-52.5 1629.5,-0.5 1467.5,-0.5"/>
<text text-anchor="start" x="1475.5" y="-40.5" font-family="Helvetica,sans-Serif" font-size="10.00">/home/jonathan/Works</text>
<text text-anchor="start" x="1475.5" y="-29.5" font-family="Helvetica,sans-Serif" font-size="10.00">/Tools/Triton/src/libtriton</text>
<text text-anchor="start" x="1475.5" y="-18.5" font-family="Helvetica,sans-Serif" font-size="10.00">/bindings/python/namespaces</text>
<text text-anchor="middle" x="1548.5" y="-7.5" font-family="Helvetica,sans-Serif" font-size="10.00">/initModeNamespace.cpp</text>
</a>
</g>
</g>
<!-- Node1&#45;&gt;Node10 -->
<g id="edge9" class="edge">
<title>Node1&#45;&gt;Node10</title>
<path fill="none" stroke="midnightblue" d="M2808.75,-107.64C2553.97,-103.55 1863.57,-89.36 1638.5,-53 1635.61,-52.53 1632.69,-52.01 1629.74,-51.43"/>
<polygon fill="midnightblue" stroke="midnightblue" points="2809.04,-111.14 2819.09,-107.8 2809.15,-104.14 2809.04,-111.14"/>
</g>
<!-- Node11 -->
<g id="node11" class="node">
<title>Node11</title>
<g id="a_node11"><a xlink:href="initOpcodesNamespace_8cpp.html" target="_top" xlink:title=" ">
<polygon fill="white" stroke="black" points="1647.5,-0.5 1647.5,-52.5 1809.5,-52.5 1809.5,-0.5 1647.5,-0.5"/>
<text text-anchor="start" x="1655.5" y="-40.5" font-family="Helvetica,sans-Serif" font-size="10.00">/home/jonathan/Works</text>
<text text-anchor="start" x="1655.5" y="-29.5" font-family="Helvetica,sans-Serif" font-size="10.00">/Tools/Triton/src/libtriton</text>
<text text-anchor="start" x="1655.5" y="-18.5" font-family="Helvetica,sans-Serif" font-size="10.00">/bindings/python/namespaces</text>
<text text-anchor="middle" x="1728.5" y="-7.5" font-family="Helvetica,sans-Serif" font-size="10.00">/initOpcodesNamespace.cpp</text>
</a>
</g>
</g>
<!-- Node1&#45;&gt;Node11 -->
<g id="edge10" class="edge">
<title>Node1&#45;&gt;Node11</title>
<path fill="none" stroke="midnightblue" d="M2808.87,-106.82C2580.38,-101.17 2007.68,-84.27 1818.5,-53 1815.62,-52.52 1812.69,-51.99 1809.75,-51.4"/>
<polygon fill="midnightblue" stroke="midnightblue" points="2809.08,-110.33 2819.16,-107.07 2809.25,-103.33 2809.08,-110.33"/>
</g>
<!-- Node12 -->
<g id="node12" class="node">
<title>Node12</title>
<g id="a_node12"><a xlink:href="initOperandNamespace_8cpp.html" target="_top" xlink:title=" ">
<polygon fill="white" stroke="black" points="1827.5,-0.5 1827.5,-52.5 1989.5,-52.5 1989.5,-0.5 1827.5,-0.5"/>
<text text-anchor="start" x="1835.5" y="-40.5" font-family="Helvetica,sans-Serif" font-size="10.00">/home/jonathan/Works</text>
<text text-anchor="start" x="1835.5" y="-29.5" font-family="Helvetica,sans-Serif" font-size="10.00">/Tools/Triton/src/libtriton</text>
<text text-anchor="start" x="1835.5" y="-18.5" font-family="Helvetica,sans-Serif" font-size="10.00">/bindings/python/namespaces</text>
<text text-anchor="middle" x="1908.5" y="-7.5" font-family="Helvetica,sans-Serif" font-size="10.00">/initOperandNamespace.cpp</text>
</a>
</g>
</g>
<!-- Node1&#45;&gt;Node12 -->
<g id="edge11" class="edge">
<title>Node1&#45;&gt;Node12</title>
<path fill="none" stroke="midnightblue" d="M2809.32,-109.79C2643.42,-109.68 2291.03,-102.89 1998.5,-53 1995.62,-52.51 1992.7,-51.96 1989.76,-51.37"/>
<polygon fill="midnightblue" stroke="midnightblue" points="2809.49,-113.29 2819.49,-109.79 2809.49,-106.29 2809.49,-113.29"/>
</g>
<!-- Node13 -->
<g id="node13" class="node">
<title>Node13</title>
<g id="a_node13"><a xlink:href="initPrefixesNamespace_8cpp.html" target="_top" xlink:title=" ">
<polygon fill="white" stroke="black" points="2007.5,-0.5 2007.5,-52.5 2169.5,-52.5 2169.5,-0.5 2007.5,-0.5"/>
<text text-anchor="start" x="2015.5" y="-40.5" font-family="Helvetica,sans-Serif" font-size="10.00">/home/jonathan/Works</text>
<text text-anchor="start" x="2015.5" y="-29.5" font-family="Helvetica,sans-Serif" font-size="10.00">/Tools/Triton/src/libtriton</text>
<text text-anchor="start" x="2015.5" y="-18.5" font-family="Helvetica,sans-Serif" font-size="10.00">/bindings/python/namespaces</text>
<text text-anchor="middle" x="2088.5" y="-7.5" font-family="Helvetica,sans-Serif" font-size="10.00">/initPrefixesNamespace.cpp</text>
</a>
</g>
</g>
<!-- Node1&#45;&gt;Node13 -->
<g id="edge12" class="edge">
<title>Node1&#45;&gt;Node13</title>
<path fill="none" stroke="midnightblue" d="M2809.19,-107.68C2669.69,-104.38 2402.2,-92.91 2178.5,-53 2175.62,-52.49 2172.7,-51.92 2169.77,-51.31"/>
<polygon fill="midnightblue" stroke="midnightblue" points="2809.34,-111.18 2819.42,-107.91 2809.5,-104.18 2809.34,-111.18"/>
</g>
<!-- Node14 -->
<g id="node14" class="node">
<title>Node14</title>
<g id="a_node14"><a xlink:href="initRegNamespace_8cpp.html" target="_top" xlink:title=" ">
<polygon fill="white" stroke="black" points="2187.5,-0.5 2187.5,-52.5 2349.5,-52.5 2349.5,-0.5 2187.5,-0.5"/>
<text text-anchor="start" x="2195.5" y="-40.5" font-family="Helvetica,sans-Serif" font-size="10.00">/home/jonathan/Works</text>
<text text-anchor="start" x="2195.5" y="-29.5" font-family="Helvetica,sans-Serif" font-size="10.00">/Tools/Triton/src/libtriton</text>
<text text-anchor="start" x="2195.5" y="-18.5" font-family="Helvetica,sans-Serif" font-size="10.00">/bindings/python/namespaces</text>
<text text-anchor="middle" x="2268.5" y="-7.5" font-family="Helvetica,sans-Serif" font-size="10.00">/initRegNamespace.cpp</text>
</a>
</g>
</g>
<!-- Node1&#45;&gt;Node14 -->
<g id="edge13" class="edge">
<title>Node1&#45;&gt;Node14</title>
<path fill="none" stroke="midnightblue" d="M2809.15,-104.25C2699.6,-97.64 2514.83,-82.93 2358.5,-53 2355.63,-52.45 2352.72,-51.85 2349.78,-51.21"/>
<polygon fill="midnightblue" stroke="midnightblue" points="2809,-107.75 2819.19,-104.85 2809.41,-100.76 2809,-107.75"/>
</g>
<!-- Node15 -->
<g id="node15" class="node">
<title>Node15</title>
<g id="a_node15"><a xlink:href="initShiftsNamespace_8cpp.html" target="_top" xlink:title=" ">
<polygon fill="white" stroke="black" points="2367.5,-0.5 2367.5,-52.5 2529.5,-52.5 2529.5,-0.5 2367.5,-0.5"/>
<text text-anchor="start" x="2375.5" y="-40.5" font-family="Helvetica,sans-Serif" font-size="10.00">/home/jonathan/Works</text>
<text text-anchor="start" x="2375.5" y="-29.5" font-family="Helvetica,sans-Serif" font-size="10.00">/Tools/Triton/src/libtriton</text>
<text text-anchor="start" x="2375.5" y="-18.5" font-family="Helvetica,sans-Serif" font-size="10.00">/bindings/python/namespaces</text>
<text text-anchor="middle" x="2448.5" y="-7.5" font-family="Helvetica,sans-Serif" font-size="10.00">/initShiftsNamespace.cpp</text>
</a>
</g>
</g>
<!-- Node1&#45;&gt;Node15 -->
<g id="edge14" class="edge">
<title>Node1&#45;&gt;Node15</title>
<path fill="none" stroke="midnightblue" d="M2809.01,-97.69C2734.81,-88.11 2629.54,-72.78 2538.5,-53 2535.64,-52.38 2532.74,-51.72 2529.82,-51.03"/>
<polygon fill="midnightblue" stroke="midnightblue" points="2808.91,-101.21 2819.27,-99.01 2809.8,-94.27 2808.91,-101.21"/>
</g>
<!-- Node16 -->
<g id="node16" class="node">
<title>Node16</title>
<g id="a_node16"><a xlink:href="initSolverNamespace_8cpp.html" target="_top" xlink:title=" ">
<polygon fill="white" stroke="black" points="2547.5,-0.5 2547.5,-52.5 2709.5,-52.5 2709.5,-0.5 2547.5,-0.5"/>
<text text-anchor="start" x="2555.5" y="-40.5" font-family="Helvetica,sans-Serif" font-size="10.00">/home/jonathan/Works</text>
<text text-anchor="start" x="2555.5" y="-29.5" font-family="Helvetica,sans-Serif" font-size="10.00">/Tools/Triton/src/libtriton</text>
<text text-anchor="start" x="2555.5" y="-18.5" font-family="Helvetica,sans-Serif" font-size="10.00">/bindings/python/namespaces</text>
<text text-anchor="middle" x="2628.5" y="-7.5" font-family="Helvetica,sans-Serif" font-size="10.00">/initSolverNamespace.cpp</text>
</a>
</g>
</g>
<!-- Node1&#45;&gt;Node16 -->
<g id="edge15" class="edge">
<title>Node1&#45;&gt;Node16</title>
<path fill="none" stroke="midnightblue" d="M2828.67,-86.61C2791.71,-75.7 2747.23,-62.56 2709.59,-51.45"/>
<polygon fill="midnightblue" stroke="midnightblue" points="2827.81,-90 2838.39,-89.48 2829.79,-83.29 2827.81,-90"/>
</g>
<!-- Node17 -->
<g id="node17" class="node">
<title>Node17</title>
<g id="a_node17"><a xlink:href="initSolverStateNamespace_8cpp.html" target="_top" xlink:title=" ">
<polygon fill="white" stroke="black" points="2727.5,-0.5 2727.5,-52.5 2897.5,-52.5 2897.5,-0.5 2727.5,-0.5"/>
<text text-anchor="start" x="2735.5" y="-40.5" font-family="Helvetica,sans-Serif" font-size="10.00">/home/jonathan/Works</text>
<text text-anchor="start" x="2735.5" y="-29.5" font-family="Helvetica,sans-Serif" font-size="10.00">/Tools/Triton/src/libtriton</text>
<text text-anchor="start" x="2735.5" y="-18.5" font-family="Helvetica,sans-Serif" font-size="10.00">/bindings/python/namespaces</text>
<text text-anchor="middle" x="2812.5" y="-7.5" font-family="Helvetica,sans-Serif" font-size="10.00">/initSolverStateNamespace.cpp</text>
</a>
</g>
</g>
<!-- Node1&#45;&gt;Node17 -->
<g id="edge16" class="edge">
<title>Node1&#45;&gt;Node17</title>
<path fill="none" stroke="midnightblue" d="M2874.61,-82.52C2863.77,-72.92 2851.55,-62.09 2840.84,-52.61"/>
<polygon fill="midnightblue" stroke="midnightblue" points="2872.42,-85.26 2882.23,-89.27 2877.06,-80.02 2872.42,-85.26"/>
</g>
<!-- Node18 -->
<g id="node18" class="node">
<title>Node18</title>
<g id="a_node18"><a xlink:href="initSymbolicNamespace_8cpp.html" target="_top" xlink:title=" ">
<polygon fill="white" stroke="black" points="2915.5,-0.5 2915.5,-52.5 3077.5,-52.5 3077.5,-0.5 2915.5,-0.5"/>
<text text-anchor="start" x="2923.5" y="-40.5" font-family="Helvetica,sans-Serif" font-size="10.00">/home/jonathan/Works</text>
<text text-anchor="start" x="2923.5" y="-29.5" font-family="Helvetica,sans-Serif" font-size="10.00">/Tools/Triton/src/libtriton</text>
<text text-anchor="start" x="2923.5" y="-18.5" font-family="Helvetica,sans-Serif" font-size="10.00">/bindings/python/namespaces</text>
<text text-anchor="middle" x="2996.5" y="-7.5" font-family="Helvetica,sans-Serif" font-size="10.00">/initSymbolicNamespace.cpp</text>
</a>
</g>
</g>
<!-- Node1&#45;&gt;Node18 -->
<g id="edge17" class="edge">
<title>Node1&#45;&gt;Node18</title>
<path fill="none" stroke="midnightblue" d="M2934.39,-82.52C2945.23,-72.92 2957.45,-62.09 2968.16,-52.61"/>
<polygon fill="midnightblue" stroke="midnightblue" points="2931.94,-80.02 2926.77,-89.27 2936.58,-85.26 2931.94,-80.02"/>
</g>
<!-- Node19 -->
<g id="node19" class="node">
<title>Node19</title>
<g id="a_node19"><a xlink:href="initVersionNamespace_8cpp.html" target="_top" xlink:title=" ">
<polygon fill="white" stroke="black" points="3095.5,-0.5 3095.5,-52.5 3257.5,-52.5 3257.5,-0.5 3095.5,-0.5"/>
<text text-anchor="start" x="3103.5" y="-40.5" font-family="Helvetica,sans-Serif" font-size="10.00">/home/jonathan/Works</text>
<text text-anchor="start" x="3103.5" y="-29.5" font-family="Helvetica,sans-Serif" font-size="10.00">/Tools/Triton/src/libtriton</text>
<text text-anchor="start" x="3103.5" y="-18.5" font-family="Helvetica,sans-Serif" font-size="10.00">/bindings/python/namespaces</text>
<text text-anchor="middle" x="3176.5" y="-7.5" font-family="Helvetica,sans-Serif" font-size="10.00">/initVersionNamespace.cpp</text>
</a>
</g>
</g>
<!-- Node1&#45;&gt;Node19 -->
<g id="edge18" class="edge">
<title>Node1&#45;&gt;Node19</title>
<path fill="none" stroke="midnightblue" d="M2979.59,-86.5C3015.53,-75.73 3058.63,-62.82 3095.33,-51.82"/>
<polygon fill="midnightblue" stroke="midnightblue" points="2978.23,-83.26 2969.65,-89.48 2980.23,-89.96 2978.23,-83.26"/>
</g>
<!-- Node20 -->
<g id="node20" class="node">
<title>Node20</title>
<g id="a_node20"><a xlink:href="pyAstContext_8cpp.html" target="_top" xlink:title=" ">
<polygon fill="white" stroke="black" points="3275.5,-0.5 3275.5,-52.5 3411.5,-52.5 3411.5,-0.5 3275.5,-0.5"/>
<text text-anchor="start" x="3283.5" y="-40.5" font-family="Helvetica,sans-Serif" font-size="10.00">/home/jonathan/Works</text>
<text text-anchor="start" x="3283.5" y="-29.5" font-family="Helvetica,sans-Serif" font-size="10.00">/Tools/Triton/src/libtriton</text>
<text text-anchor="start" x="3283.5" y="-18.5" font-family="Helvetica,sans-Serif" font-size="10.00">/bindings/python/objects</text>
<text text-anchor="middle" x="3343.5" y="-7.5" font-family="Helvetica,sans-Serif" font-size="10.00">/pyAstContext.cpp</text>
</a>
</g>
</g>
<!-- Node1&#45;&gt;Node20 -->
<g id="edge19" class="edge">
<title>Node1&#45;&gt;Node20</title>
<path fill="none" stroke="midnightblue" d="M2999.92,-98.64C3073.41,-89.6 3177.19,-74.54 3266.5,-53 3269.37,-52.31 3272.3,-51.56 3275.24,-50.76"/>
<polygon fill="midnightblue" stroke="midnightblue" points="2999.26,-95.19 2989.76,-99.87 3000.11,-102.14 2999.26,-95.19"/>
</g>
<!-- Node21 -->
<g id="node21" class="node">
<title>Node21</title>
<g id="a_node21"><a xlink:href="pyAstNode_8cpp.html" target="_top" xlink:title=" ">
<polygon fill="white" stroke="black" points="3429.5,-0.5 3429.5,-52.5 3565.5,-52.5 3565.5,-0.5 3429.5,-0.5"/>
<text text-anchor="start" x="3437.5" y="-40.5" font-family="Helvetica,sans-Serif" font-size="10.00">/home/jonathan/Works</text>
<text text-anchor="start" x="3437.5" y="-29.5" font-family="Helvetica,sans-Serif" font-size="10.00">/Tools/Triton/src/libtriton</text>
<text text-anchor="start" x="3437.5" y="-18.5" font-family="Helvetica,sans-Serif" font-size="10.00">/bindings/python/objects</text>
<text text-anchor="middle" x="3497.5" y="-7.5" font-family="Helvetica,sans-Serif" font-size="10.00">/pyAstNode.cpp</text>
</a>
</g>
</g>
<!-- Node1&#45;&gt;Node21 -->
<g id="edge20" class="edge">
<title>Node1&#45;&gt;Node21</title>
<path fill="none" stroke="midnightblue" d="M3000.04,-104.69C3104.36,-98.58 3275.84,-84.43 3420.5,-53 3423.39,-52.37 3426.32,-51.68 3429.27,-50.93"/>
<polygon fill="midnightblue" stroke="midnightblue" points="2999.63,-101.21 2989.85,-105.27 3000.03,-108.2 2999.63,-101.21"/>
</g>
<!-- Node22 -->
<g id="node22" class="node">
<title>Node22</title>
<g id="a_node22"><a xlink:href="pyBasicBlock_8cpp.html" target="_top" xlink:title=" ">
<polygon fill="white" stroke="black" points="3583.5,-0.5 3583.5,-52.5 3719.5,-52.5 3719.5,-0.5 3583.5,-0.5"/>
<text text-anchor="start" x="3591.5" y="-40.5" font-family="Helvetica,sans-Serif" font-size="10.00">/home/jonathan/Works</text>
<text text-anchor="start" x="3591.5" y="-29.5" font-family="Helvetica,sans-Serif" font-size="10.00">/Tools/Triton/src/libtriton</text>
<text text-anchor="start" x="3591.5" y="-18.5" font-family="Helvetica,sans-Serif" font-size="10.00">/bindings/python/objects</text>
<text text-anchor="middle" x="3651.5" y="-7.5" font-family="Helvetica,sans-Serif" font-size="10.00">/pyBasicBlock.cpp</text>
</a>
</g>
</g>
<!-- Node1&#45;&gt;Node22 -->
<g id="edge21" class="edge">
<title>Node1&#45;&gt;Node22</title>
<path fill="none" stroke="midnightblue" d="M3000.15,-108.08C3131.07,-105.22 3372.82,-94.22 3574.5,-53 3577.4,-52.41 3580.34,-51.74 3583.29,-51.02"/>
<polygon fill="midnightblue" stroke="midnightblue" points="2999.69,-104.59 2989.76,-108.29 2999.83,-111.59 2999.69,-104.59"/>
</g>
<!-- Node23 -->
<g id="node23" class="node">
<title>Node23</title>
<g id="a_node23"><a xlink:href="pyBitsVector_8cpp.html" target="_top" xlink:title=" ">
<polygon fill="white" stroke="black" points="3737.5,-0.5 3737.5,-52.5 3873.5,-52.5 3873.5,-0.5 3737.5,-0.5"/>
<text text-anchor="start" x="3745.5" y="-40.5" font-family="Helvetica,sans-Serif" font-size="10.00">/home/jonathan/Works</text>
<text text-anchor="start" x="3745.5" y="-29.5" font-family="Helvetica,sans-Serif" font-size="10.00">/Tools/Triton/src/libtriton</text>
<text text-anchor="start" x="3745.5" y="-18.5" font-family="Helvetica,sans-Serif" font-size="10.00">/bindings/python/objects</text>
<text text-anchor="middle" x="3805.5" y="-7.5" font-family="Helvetica,sans-Serif" font-size="10.00">/pyBitsVector.cpp</text>
</a>
</g>
</g>
<!-- Node1&#45;&gt;Node23 -->
<g id="edge22" class="edge">
<title>Node1&#45;&gt;Node23</title>
<path fill="none" stroke="midnightblue" d="M2999.79,-105.54C3185.9,-98.29 3591.46,-79.9 3728.5,-53 3731.4,-52.43 3734.35,-51.78 3737.31,-51.07"/>
<polygon fill="midnightblue" stroke="midnightblue" points="2999.6,-102.04 2989.74,-105.93 2999.87,-109.04 2999.6,-102.04"/>
</g>
<!-- Node24 -->
<g id="node24" class="node">
<title>Node24</title>
<g id="a_node24"><a xlink:href="pyImmediate_8cpp.html" target="_top" xlink:title=" ">
<polygon fill="white" stroke="black" points="3891.5,-0.5 3891.5,-52.5 4027.5,-52.5 4027.5,-0.5 3891.5,-0.5"/>
<text text-anchor="start" x="3899.5" y="-40.5" font-family="Helvetica,sans-Serif" font-size="10.00">/home/jonathan/Works</text>
<text text-anchor="start" x="3899.5" y="-29.5" font-family="Helvetica,sans-Serif" font-size="10.00">/Tools/Triton/src/libtriton</text>
<text text-anchor="start" x="3899.5" y="-18.5" font-family="Helvetica,sans-Serif" font-size="10.00">/bindings/python/objects</text>
<text text-anchor="middle" x="3959.5" y="-7.5" font-family="Helvetica,sans-Serif" font-size="10.00">/pyImmediate.cpp</text>
</a>
</g>
</g>
<!-- Node1&#45;&gt;Node24 -->
<g id="edge23" class="edge">
<title>Node1&#45;&gt;Node24</title>
<path fill="none" stroke="midnightblue" d="M2999.74,-106.73C3211.38,-101.16 3715.26,-84.9 3882.5,-53 3885.4,-52.45 3888.35,-51.81 3891.31,-51.11"/>
<polygon fill="midnightblue" stroke="midnightblue" points="2999.48,-103.23 2989.58,-106.99 2999.67,-110.23 2999.48,-103.23"/>
</g>
<!-- Node25 -->
<g id="node25" class="node">
<title>Node25</title>
<g id="a_node25"><a xlink:href="pyInstruction_8cpp.html" target="_top" xlink:title=" ">
<polygon fill="white" stroke="black" points="4045.5,-0.5 4045.5,-52.5 4181.5,-52.5 4181.5,-0.5 4045.5,-0.5"/>
<text text-anchor="start" x="4053.5" y="-40.5" font-family="Helvetica,sans-Serif" font-size="10.00">/home/jonathan/Works</text>
<text text-anchor="start" x="4053.5" y="-29.5" font-family="Helvetica,sans-Serif" font-size="10.00">/Tools/Triton/src/libtriton</text>
<text text-anchor="start" x="4053.5" y="-18.5" font-family="Helvetica,sans-Serif" font-size="10.00">/bindings/python/objects</text>
<text text-anchor="middle" x="4113.5" y="-7.5" font-family="Helvetica,sans-Serif" font-size="10.00">/pyInstruction.cpp</text>
</a>
</g>
</g>
<!-- Node1&#45;&gt;Node25 -->
<g id="edge24" class="edge">
<title>Node1&#45;&gt;Node25</title>
<path fill="none" stroke="midnightblue" d="M3000.05,-107.59C3235.53,-103.57 3838.88,-89.9 4036.5,-53 4039.41,-52.46 4042.36,-51.83 4045.32,-51.14"/>
<polygon fill="midnightblue" stroke="midnightblue" points="2999.74,-104.09 2989.8,-107.76 2999.86,-111.09 2999.74,-104.09"/>
</g>
<!-- Node26 -->
<g id="node26" class="node">
<title>Node26</title>
<g id="a_node26"><a xlink:href="pyMemoryAccess_8cpp.html" target="_top" xlink:title=" ">
<polygon fill="white" stroke="black" points="4199.5,-0.5 4199.5,-52.5 4335.5,-52.5 4335.5,-0.5 4199.5,-0.5"/>
<text text-anchor="start" x="4207.5" y="-40.5" font-family="Helvetica,sans-Serif" font-size="10.00">/home/jonathan/Works</text>
<text text-anchor="start" x="4207.5" y="-29.5" font-family="Helvetica,sans-Serif" font-size="10.00">/Tools/Triton/src/libtriton</text>
<text text-anchor="start" x="4207.5" y="-18.5" font-family="Helvetica,sans-Serif" font-size="10.00">/bindings/python/objects</text>
<text text-anchor="middle" x="4267.5" y="-7.5" font-family="Helvetica,sans-Serif" font-size="10.00">/pyMemoryAccess.cpp</text>
</a>
</g>
</g>
<!-- Node1&#45;&gt;Node26 -->
<g id="edge25" class="edge">
<title>Node1&#45;&gt;Node26</title>
<path fill="none" stroke="midnightblue" d="M2999.63,-108.25C3256.85,-105.7 3962.08,-94.96 4190.5,-53 4193.41,-52.47 4196.36,-51.85 4199.32,-51.16"/>
<polygon fill="midnightblue" stroke="midnightblue" points="2999.53,-104.76 2989.57,-108.35 2999.6,-111.76 2999.53,-104.76"/>
</g>
<!-- Node27 -->
<g id="node27" class="node">
<title>Node27</title>
<g id="a_node27"><a xlink:href="pyPathConstraint_8cpp.html" target="_top" xlink:title=" ">
<polygon fill="white" stroke="black" points="4353.5,-0.5 4353.5,-52.5 4489.5,-52.5 4489.5,-0.5 4353.5,-0.5"/>
<text text-anchor="start" x="4361.5" y="-40.5" font-family="Helvetica,sans-Serif" font-size="10.00">/home/jonathan/Works</text>
<text text-anchor="start" x="4361.5" y="-29.5" font-family="Helvetica,sans-Serif" font-size="10.00">/Tools/Triton/src/libtriton</text>
<text text-anchor="start" x="4361.5" y="-18.5" font-family="Helvetica,sans-Serif" font-size="10.00">/bindings/python/objects</text>
<text text-anchor="middle" x="4421.5" y="-7.5" font-family="Helvetica,sans-Serif" font-size="10.00">/pyPathConstraint.cpp</text>
</a>
</g>
</g>
<!-- Node1&#45;&gt;Node27 -->
<g id="edge26" class="edge">
<title>Node1&#45;&gt;Node27</title>
<path fill="none" stroke="midnightblue" d="M2999.66,-108.78C3277.66,-107.57 4085.22,-100 4344.5,-53 4347.41,-52.47 4350.36,-51.86 4353.33,-51.18"/>
<polygon fill="midnightblue" stroke="midnightblue" points="2999.58,-105.28 2989.6,-108.82 2999.61,-112.28 2999.58,-105.28"/>
</g>
<!-- Node28 -->
<g id="node28" class="node">
<title>Node28</title>
<g id="a_node28"><a xlink:href="pyRegister_8cpp.html" target="_top" xlink:title=" ">
<polygon fill="white" stroke="black" points="4507.5,-0.5 4507.5,-52.5 4643.5,-52.5 4643.5,-0.5 4507.5,-0.5"/>
<text text-anchor="start" x="4515.5" y="-40.5" font-family="Helvetica,sans-Serif" font-size="10.00">/home/jonathan/Works</text>
<text text-anchor="start" x="4515.5" y="-29.5" font-family="Helvetica,sans-Serif" font-size="10.00">/Tools/Triton/src/libtriton</text>
<text text-anchor="start" x="4515.5" y="-18.5" font-family="Helvetica,sans-Serif" font-size="10.00">/bindings/python/objects</text>
<text text-anchor="middle" x="4575.5" y="-7.5" font-family="Helvetica,sans-Serif" font-size="10.00">/pyRegister.cpp</text>
</a>
</g>
</g>
<!-- Node1&#45;&gt;Node28 -->
<g id="edge27" class="edge">
<title>Node1&#45;&gt;Node28</title>
<path fill="none" stroke="midnightblue" d="M2999.85,-109.2C3297.72,-109.26 4208.26,-105.05 4498.5,-53 4501.41,-52.48 4504.36,-51.87 4507.33,-51.19"/>
<polygon fill="midnightblue" stroke="midnightblue" points="2999.51,-105.7 2989.51,-109.19 2999.51,-112.7 2999.51,-105.7"/>
</g>
<!-- Node29 -->
<g id="node29" class="node">
<title>Node29</title>
<g id="a_node29"><a xlink:href="pySolverModel_8cpp.html" target="_top" xlink:title=" ">
<polygon fill="white" stroke="black" points="4661.5,-0.5 4661.5,-52.5 4797.5,-52.5 4797.5,-0.5 4661.5,-0.5"/>
<text text-anchor="start" x="4669.5" y="-40.5" font-family="Helvetica,sans-Serif" font-size="10.00">/home/jonathan/Works</text>
<text text-anchor="start" x="4669.5" y="-29.5" font-family="Helvetica,sans-Serif" font-size="10.00">/Tools/Triton/src/libtriton</text>
<text text-anchor="start" x="4669.5" y="-18.5" font-family="Helvetica,sans-Serif" font-size="10.00">/bindings/python/objects</text>
<text text-anchor="middle" x="4729.5" y="-7.5" font-family="Helvetica,sans-Serif" font-size="10.00">/pySolverModel.cpp</text>
</a>
</g>
</g>
<!-- Node1&#45;&gt;Node29 -->
<g id="edge28" class="edge">
<title>Node1&#45;&gt;Node29</title>
<path fill="none" stroke="midnightblue" d="M2999.74,-109.55C3316.26,-110.8 4331.08,-110.13 4652.5,-53 4655.41,-52.48 4658.36,-51.88 4661.33,-51.21"/>
<polygon fill="midnightblue" stroke="midnightblue" points="2999.69,-106.05 2989.68,-109.5 2999.67,-113.05 2999.69,-106.05"/>
</g>
<!-- Node30 -->
<g id="node30" class="node">
<title>Node30</title>
<g id="a_node30"><a xlink:href="pySymbolicExpression_8cpp.html" target="_top" xlink:title=" ">
<polygon fill="white" stroke="black" points="4815.5,-0.5 4815.5,-52.5 4965.5,-52.5 4965.5,-0.5 4815.5,-0.5"/>
<text text-anchor="start" x="4823.5" y="-40.5" font-family="Helvetica,sans-Serif" font-size="10.00">/home/jonathan/Works</text>
<text text-anchor="start" x="4823.5" y="-29.5" font-family="Helvetica,sans-Serif" font-size="10.00">/Tools/Triton/src/libtriton</text>
<text text-anchor="start" x="4823.5" y="-18.5" font-family="Helvetica,sans-Serif" font-size="10.00">/bindings/python/objects</text>
<text text-anchor="middle" x="4890.5" y="-7.5" font-family="Helvetica,sans-Serif" font-size="10.00">/pySymbolicExpression.cpp</text>
</a>
</g>
</g>
<!-- Node1&#45;&gt;Node30 -->
<g id="edge29" class="edge">
<title>Node1&#45;&gt;Node30</title>
<path fill="none" stroke="midnightblue" d="M2999.7,-109.53C3333.99,-110.86 4453.07,-110.79 4806.5,-53 4809.36,-52.53 4812.25,-51.99 4815.17,-51.4"/>
<polygon fill="midnightblue" stroke="midnightblue" points="2999.58,-106.03 2989.56,-109.49 2999.55,-113.03 2999.58,-106.03"/>
</g>
<!-- Node31 -->
<g id="node31" class="node">
<title>Node31</title>
<g id="a_node31"><a xlink:href="pySymbolicVariable_8cpp.html" target="_top" xlink:title=" ">
<polygon fill="white" stroke="black" points="4984,-0.5 4984,-52.5 5121,-52.5 5121,-0.5 4984,-0.5"/>
<text text-anchor="start" x="4992" y="-40.5" font-family="Helvetica,sans-Serif" font-size="10.00">/home/jonathan/Works</text>
<text text-anchor="start" x="4992" y="-29.5" font-family="Helvetica,sans-Serif" font-size="10.00">/Tools/Triton/src/libtriton</text>
<text text-anchor="start" x="4992" y="-18.5" font-family="Helvetica,sans-Serif" font-size="10.00">/bindings/python/objects</text>
<text text-anchor="middle" x="5052.5" y="-7.5" font-family="Helvetica,sans-Serif" font-size="10.00">/pySymbolicVariable.cpp</text>
</a>
</g>
</g>
<!-- Node1&#45;&gt;Node31 -->
<g id="edge30" class="edge">
<title>Node1&#45;&gt;Node31</title>
<path fill="none" stroke="midnightblue" d="M2999.74,-108.04C3380.06,-103.98 4778.91,-86.88 4974.5,-53 4977.59,-52.47 4980.72,-51.83 4983.87,-51.13"/>
<polygon fill="midnightblue" stroke="midnightblue" points="2999.55,-104.54 2989.59,-108.15 2999.63,-111.54 2999.55,-104.54"/>
</g>
<!-- Node32 -->
<g id="node32" class="node">
<title>Node32</title>
<g id="a_node32"><a xlink:href="pyTritonContext_8cpp.html" target="_top" xlink:title=" ">
<polygon fill="white" stroke="black" points="5139.5,-0.5 5139.5,-52.5 5275.5,-52.5 5275.5,-0.5 5139.5,-0.5"/>
<text text-anchor="start" x="5147.5" y="-40.5" font-family="Helvetica,sans-Serif" font-size="10.00">/home/jonathan/Works</text>
<text text-anchor="start" x="5147.5" y="-29.5" font-family="Helvetica,sans-Serif" font-size="10.00">/Tools/Triton/src/libtriton</text>
<text text-anchor="start" x="5147.5" y="-18.5" font-family="Helvetica,sans-Serif" font-size="10.00">/bindings/python/objects</text>
<text text-anchor="middle" x="5207.5" y="-7.5" font-family="Helvetica,sans-Serif" font-size="10.00">/pyTritonContext.cpp</text>
</a>
</g>
</g>
<!-- Node1&#45;&gt;Node32 -->
<g id="edge31" class="edge">
<title>Node1&#45;&gt;Node32</title>
<path fill="none" stroke="midnightblue" d="M2999.55,-108.26C3397.5,-104.92 4918.93,-89.86 5130.5,-53 5133.41,-52.49 5136.37,-51.9 5139.33,-51.23"/>
<polygon fill="midnightblue" stroke="midnightblue" points="2999.48,-104.76 2989.51,-108.34 2999.54,-111.76 2999.48,-104.76"/>
</g>
<!-- Node33 -->
<g id="node33" class="node">
<title>Node33</title>
<g id="a_node33"><a xlink:href="utils_8cpp.html" target="_top" xlink:title=" ">
<polygon fill="white" stroke="black" points="5293.5,-6 5293.5,-47 5435.5,-47 5435.5,-6 5293.5,-6"/>
<text text-anchor="start" x="5301.5" y="-35" font-family="Helvetica,sans-Serif" font-size="10.00">/home/jonathan/Works</text>
<text text-anchor="start" x="5301.5" y="-24" font-family="Helvetica,sans-Serif" font-size="10.00">/Tools/Triton/src/libtriton</text>
<text text-anchor="middle" x="5364.5" y="-13" font-family="Helvetica,sans-Serif" font-size="10.00">/bindings/python/utils.cpp</text>
</a>
</g>
</g>
<!-- Node1&#45;&gt;Node33 -->
<g id="edge32" class="edge">
<title>Node1&#45;&gt;Node33</title>
<path fill="none" stroke="midnightblue" d="M2999.84,-108.36C3415.28,-105.35 5056.93,-91.14 5284.5,-53 5292.98,-51.58 5301.8,-49.46 5310.36,-47.04"/>
<polygon fill="midnightblue" stroke="midnightblue" points="2999.64,-104.86 2989.66,-108.43 2999.69,-111.86 2999.64,-104.86"/>
</g>
</g>
</svg>
