<?xml version="1.0" encoding="UTF-8" standalone="no"?>
<!DOCTYPE svg PUBLIC "-//W3C//DTD SVG 1.1//EN"
 "http://www.w3.org/Graphics/SVG/1.1/DTD/svg11.dtd">
<!-- Generated by graphviz version 2.50.0 (20211204.2007)
 -->
<!-- Title: /home/jonathan/Works/Tools/Triton/src/libtriton/includes/triton/pythonUtils.hpp Pages: 1 -->
<svg width="5804pt" height="139pt"
 viewBox="0.00 0.00 5803.50 139.00" xmlns="http://www.w3.org/2000/svg" xmlns:xlink="http://www.w3.org/1999/xlink">
<g id="graph0" class="graph" transform="scale(1 1) rotate(0) translate(4 135)">
<title>/home/jonathan/Works/Tools/Triton/src/libtriton/includes/triton/pythonUtils.hpp</title>
<polygon fill="white" stroke="transparent" points="-4,4 -4,-135 5799.5,-135 5799.5,4 -4,4"/>
<!-- Node1 -->
<g id="node1" class="node">
<title>Node1</title>
<g id="a_node1"><a xlink:title=" ">
<polygon fill="#bfbfbf" stroke="black" points="2999.5,-89.5 2999.5,-130.5 3169.5,-130.5 3169.5,-89.5 2999.5,-89.5"/>
<text text-anchor="start" x="3007.5" y="-118.5" font-family="Helvetica,sans-Serif" font-size="10.00">/home/jonathan/Works</text>
<text text-anchor="start" x="3007.5" y="-107.5" font-family="Helvetica,sans-Serif" font-size="10.00">/Tools/Triton/src/libtriton</text>
<text text-anchor="middle" x="3084.5" y="-96.5" font-family="Helvetica,sans-Serif" font-size="10.00">/includes/triton/pythonUtils.hpp</text>
</a>
</g>
</g>
<!-- Node2 -->
<g id="node2" class="node">
<title>Node2</title>
<g id="a_node2"><a xlink:href="tritonCallbacks_8cpp.html" target="_top" xlink:title=" ">
<polygon fill="white" stroke="black" points="0,-0.5 0,-52.5 143,-52.5 143,-0.5 0,-0.5"/>
<text text-anchor="start" x="8" y="-40.5" font-family="Helvetica,sans-Serif" font-size="10.00">/home/jonathan/Works</text>
<text text-anchor="start" x="8" y="-29.5" font-family="Helvetica,sans-Serif" font-size="10.00">/Tools/Triton/src/libtriton</text>
<text text-anchor="start" x="8" y="-18.5" font-family="Helvetica,sans-Serif" font-size="10.00">/bindings/python/modules</text>
<text text-anchor="middle" x="71.5" y="-7.5" font-family="Helvetica,sans-Serif" font-size="10.00">/tritonCallbacks.cpp</text>
</a>
</g>
</g>
<!-- Node1&#45;&gt;Node2 -->
<g id="edge1" class="edge">
<title>Node1&#45;&gt;Node2</title>
<path fill="none" stroke="midnightblue" d="M2989.27,-108.8C2516.98,-107.57 437.27,-99.55 152.5,-53 149.44,-52.5 146.35,-51.91 143.23,-51.25"/>
<polygon fill="midnightblue" stroke="midnightblue" points="2989.46,-112.3 2999.46,-108.82 2989.47,-105.3 2989.46,-112.3"/>
</g>
<!-- Node3 -->
<g id="node3" class="node">
<title>Node3</title>
<g id="a_node3"><a xlink:href="initArchNamespace_8cpp.html" target="_top" xlink:title=" ">
<polygon fill="white" stroke="black" points="161.5,-0.5 161.5,-52.5 323.5,-52.5 323.5,-0.5 161.5,-0.5"/>
<text text-anchor="start" x="169.5" y="-40.5" font-family="Helvetica,sans-Serif" font-size="10.00">/home/jonathan/Works</text>
<text text-anchor="start" x="169.5" y="-29.5" font-family="Helvetica,sans-Serif" font-size="10.00">/Tools/Triton/src/libtriton</text>
<text text-anchor="start" x="169.5" y="-18.5" font-family="Helvetica,sans-Serif" font-size="10.00">/bindings/python/namespaces</text>
<text text-anchor="middle" x="242.5" y="-7.5" font-family="Helvetica,sans-Serif" font-size="10.00">/initArchNamespace.cpp</text>
</a>
</g>
</g>
<!-- Node1&#45;&gt;Node3 -->
<g id="edge2" class="edge">
<title>Node1&#45;&gt;Node3</title>
<path fill="none" stroke="midnightblue" d="M2989.27,-108.51C2535.01,-105.96 599.2,-92.82 332.5,-53 329.61,-52.57 326.68,-52.07 323.73,-51.52"/>
<polygon fill="midnightblue" stroke="midnightblue" points="2989.39,-112.01 2999.41,-108.56 2989.43,-105.01 2989.39,-112.01"/>
</g>
<!-- Node4 -->
<g id="node4" class="node">
<title>Node4</title>
<g id="a_node4"><a xlink:href="initAstNodeNamespace_8cpp.html" target="_top" xlink:title=" ">
<polygon fill="white" stroke="black" points="341.5,-0.5 341.5,-52.5 503.5,-52.5 503.5,-0.5 341.5,-0.5"/>
<text text-anchor="start" x="349.5" y="-40.5" font-family="Helvetica,sans-Serif" font-size="10.00">/home/jonathan/Works</text>
<text text-anchor="start" x="349.5" y="-29.5" font-family="Helvetica,sans-Serif" font-size="10.00">/Tools/Triton/src/libtriton</text>
<text text-anchor="start" x="349.5" y="-18.5" font-family="Helvetica,sans-Serif" font-size="10.00">/bindings/python/namespaces</text>
<text text-anchor="middle" x="422.5" y="-7.5" font-family="Helvetica,sans-Serif" font-size="10.00">/initAstNodeNamespace.cpp</text>
</a>
</g>
</g>
<!-- Node1&#45;&gt;Node4 -->
<g id="edge3" class="edge">
<title>Node1&#45;&gt;Node4</title>
<path fill="none" stroke="midnightblue" d="M2989.14,-108.36C2553.19,-105.23 760.52,-90.21 512.5,-53 509.61,-52.57 506.68,-52.07 503.73,-51.51"/>
<polygon fill="midnightblue" stroke="midnightblue" points="2989.16,-111.86 2999.18,-108.43 2989.21,-104.86 2989.16,-111.86"/>
</g>
<!-- Node5 -->
<g id="node5" class="node">
<title>Node5</title>
<g id="a_node5"><a xlink:href="initAstRepresentationNamespace_8cpp.html" target="_top" xlink:title=" ">
<polygon fill="white" stroke="black" points="522,-0.5 522,-52.5 725,-52.5 725,-0.5 522,-0.5"/>
<text text-anchor="start" x="530" y="-40.5" font-family="Helvetica,sans-Serif" font-size="10.00">/home/jonathan/Works</text>
<text text-anchor="start" x="530" y="-29.5" font-family="Helvetica,sans-Serif" font-size="10.00">/Tools/Triton/src/libtriton</text>
<text text-anchor="start" x="530" y="-18.5" font-family="Helvetica,sans-Serif" font-size="10.00">/bindings/python/namespaces</text>
<text text-anchor="middle" x="623.5" y="-7.5" font-family="Helvetica,sans-Serif" font-size="10.00">/initAstRepresentationNamespace.cpp</text>
</a>
</g>
</g>
<!-- Node1&#45;&gt;Node5 -->
<g id="edge4" class="edge">
<title>Node1&#45;&gt;Node5</title>
<path fill="none" stroke="midnightblue" d="M2989.11,-109.3C2606.41,-110.08 1181.66,-109.11 734.5,-53 731.46,-52.62 728.38,-52.19 725.28,-51.72"/>
<polygon fill="midnightblue" stroke="midnightblue" points="2989.32,-112.8 2999.31,-109.27 2989.3,-105.8 2989.32,-112.8"/>
</g>
<!-- Node6 -->
<g id="node6" class="node">
<title>Node6</title>
<g id="a_node6"><a xlink:href="initCallbackNamespace_8cpp.html" target="_top" xlink:title=" ">
<polygon fill="white" stroke="black" points="743.5,-0.5 743.5,-52.5 905.5,-52.5 905.5,-0.5 743.5,-0.5"/>
<text text-anchor="start" x="751.5" y="-40.5" font-family="Helvetica,sans-Serif" font-size="10.00">/home/jonathan/Works</text>
<text text-anchor="start" x="751.5" y="-29.5" font-family="Helvetica,sans-Serif" font-size="10.00">/Tools/Triton/src/libtriton</text>
<text text-anchor="start" x="751.5" y="-18.5" font-family="Helvetica,sans-Serif" font-size="10.00">/bindings/python/namespaces</text>
<text text-anchor="middle" x="824.5" y="-7.5" font-family="Helvetica,sans-Serif" font-size="10.00">/initCallbackNamespace.cpp</text>
</a>
</g>
</g>
<!-- Node1&#45;&gt;Node6 -->
<g id="edge5" class="edge">
<title>Node1&#45;&gt;Node6</title>
<path fill="none" stroke="midnightblue" d="M2989.31,-107.95C2597.59,-103.42 1121.02,-84.41 914.5,-53 911.61,-52.56 908.68,-52.06 905.73,-51.5"/>
<polygon fill="midnightblue" stroke="midnightblue" points="2989.43,-111.45 2999.47,-108.06 2989.51,-104.45 2989.43,-111.45"/>
</g>
<!-- Node7 -->
<g id="node7" class="node">
<title>Node7</title>
<g id="a_node7"><a xlink:href="initConditionsNamespace_8cpp.html" target="_top" xlink:title=" ">
<polygon fill="white" stroke="black" points="924,-0.5 924,-52.5 1089,-52.5 1089,-0.5 924,-0.5"/>
<text text-anchor="start" x="932" y="-40.5" font-family="Helvetica,sans-Serif" font-size="10.00">/home/jonathan/Works</text>
<text text-anchor="start" x="932" y="-29.5" font-family="Helvetica,sans-Serif" font-size="10.00">/Tools/Triton/src/libtriton</text>
<text text-anchor="start" x="932" y="-18.5" font-family="Helvetica,sans-Serif" font-size="10.00">/bindings/python/namespaces</text>
<text text-anchor="middle" x="1006.5" y="-7.5" font-family="Helvetica,sans-Serif" font-size="10.00">/initConditionsNamespace.cpp</text>
</a>
</g>
</g>
<!-- Node1&#45;&gt;Node7 -->
<g id="edge6" class="edge">
<title>Node1&#45;&gt;Node7</title>
<path fill="none" stroke="midnightblue" d="M2989.25,-109.36C2645.52,-110.21 1469.73,-108.84 1098.5,-53 1095.39,-52.53 1092.23,-51.99 1089.05,-51.4"/>
<polygon fill="midnightblue" stroke="midnightblue" points="2989.43,-112.86 2999.42,-109.34 2989.41,-105.86 2989.43,-112.86"/>
</g>
<!-- Node8 -->
<g id="node8" class="node">
<title>Node8</title>
<g id="a_node8"><a xlink:href="initCpuSizeNamespace_8cpp.html" target="_top" xlink:title=" ">
<polygon fill="white" stroke="black" points="1107.5,-0.5 1107.5,-52.5 1269.5,-52.5 1269.5,-0.5 1107.5,-0.5"/>
<text text-anchor="start" x="1115.5" y="-40.5" font-family="Helvetica,sans-Serif" font-size="10.00">/home/jonathan/Works</text>
<text text-anchor="start" x="1115.5" y="-29.5" font-family="Helvetica,sans-Serif" font-size="10.00">/Tools/Triton/src/libtriton</text>
<text text-anchor="start" x="1115.5" y="-18.5" font-family="Helvetica,sans-Serif" font-size="10.00">/bindings/python/namespaces</text>
<text text-anchor="middle" x="1188.5" y="-7.5" font-family="Helvetica,sans-Serif" font-size="10.00">/initCpuSizeNamespace.cpp</text>
</a>
</g>
</g>
<!-- Node1&#45;&gt;Node8 -->
<g id="edge7" class="edge">
<title>Node1&#45;&gt;Node8</title>
<path fill="none" stroke="midnightblue" d="M2988.99,-109.12C2665.5,-109.05 1612.77,-104.73 1278.5,-53 1275.61,-52.55 1272.68,-52.04 1269.74,-51.48"/>
<polygon fill="midnightblue" stroke="midnightblue" points="2989.27,-112.62 2999.27,-109.12 2989.27,-105.62 2989.27,-112.62"/>
</g>
<!-- Node9 -->
<g id="node9" class="node">
<title>Node9</title>
<g id="a_node9"><a xlink:href="initExceptionNamespace_8cpp.html" target="_top" xlink:title=" ">
<polygon fill="white" stroke="black" points="1287.5,-0.5 1287.5,-52.5 1449.5,-52.5 1449.5,-0.5 1287.5,-0.5"/>
<text text-anchor="start" x="1295.5" y="-40.5" font-family="Helvetica,sans-Serif" font-size="10.00">/home/jonathan/Works</text>
<text text-anchor="start" x="1295.5" y="-29.5" font-family="Helvetica,sans-Serif" font-size="10.00">/Tools/Triton/src/libtriton</text>
<text text-anchor="start" x="1295.5" y="-18.5" font-family="Helvetica,sans-Serif" font-size="10.00">/bindings/python/namespaces</text>
<text text-anchor="middle" x="1368.5" y="-7.5" font-family="Helvetica,sans-Serif" font-size="10.00">/initExceptionNamespace.cpp</text>
</a>
</g>
</g>
<!-- Node1&#45;&gt;Node9 -->
<g id="edge8" class="edge">
<title>Node1&#45;&gt;Node9</title>
<path fill="none" stroke="midnightblue" d="M2989.36,-108.74C2687.91,-107.43 1756.33,-99.62 1458.5,-53 1455.61,-52.55 1452.69,-52.03 1449.74,-51.47"/>
<polygon fill="midnightblue" stroke="midnightblue" points="2989.37,-112.24 2999.38,-108.78 2989.4,-105.24 2989.37,-112.24"/>
</g>
<!-- Node10 -->
<g id="node10" class="node">
<title>Node10</title>
<g id="a_node10"><a xlink:href="initExtendNamespace_8cpp.html" target="_top" xlink:title=" ">
<polygon fill="white" stroke="black" points="1467.5,-0.5 1467.5,-52.5 1629.5,-52.5 1629.5,-0.5 1467.5,-0.5"/>
<text text-anchor="start" x="1475.5" y="-40.5" font-family="Helvetica,sans-Serif" font-size="10.00">/home/jonathan/Works</text>
<text text-anchor="start" x="1475.5" y="-29.5" font-family="Helvetica,sans-Serif" font-size="10.00">/Tools/Triton/src/libtriton</text>
<text text-anchor="start" x="1475.5" y="-18.5" font-family="Helvetica,sans-Serif" font-size="10.00">/bindings/python/namespaces</text>
<text text-anchor="middle" x="1548.5" y="-7.5" font-family="Helvetica,sans-Serif" font-size="10.00">/initExtendNamespace.cpp</text>
</a>
</g>
</g>
<!-- Node1&#45;&gt;Node10 -->
<g id="edge9" class="edge">
<title>Node1&#45;&gt;Node10</title>
<path fill="none" stroke="midnightblue" d="M2989.03,-108.26C2710.13,-105.61 1899.83,-94.48 1638.5,-53 1635.61,-52.54 1632.69,-52.02 1629.74,-51.45"/>
<polygon fill="midnightblue" stroke="midnightblue" points="2989.1,-111.76 2999.13,-108.35 2989.16,-104.76 2989.1,-111.76"/>
</g>
<!-- Node11 -->
<g id="node11" class="node">
<title>Node11</title>
<g id="a_node11"><a xlink:href="initModeNamespace_8cpp.html" target="_top" xlink:title=" ">
<polygon fill="white" stroke="black" points="1647.5,-0.5 1647.5,-52.5 1809.5,-52.5 1809.5,-0.5 1647.5,-0.5"/>
<text text-anchor="start" x="1655.5" y="-40.5" font-family="Helvetica,sans-Serif" font-size="10.00">/home/jonathan/Works</text>
<text text-anchor="start" x="1655.5" y="-29.5" font-family="Helvetica,sans-Serif" font-size="10.00">/Tools/Triton/src/libtriton</text>
<text text-anchor="start" x="1655.5" y="-18.5" font-family="Helvetica,sans-Serif" font-size="10.00">/bindings/python/namespaces</text>
<text text-anchor="middle" x="1728.5" y="-7.5" font-family="Helvetica,sans-Serif" font-size="10.00">/initModeNamespace.cpp</text>
</a>
</g>
</g>
<!-- Node1&#45;&gt;Node11 -->
<g id="edge10" class="edge">
<title>Node1&#45;&gt;Node11</title>
<path fill="none" stroke="midnightblue" d="M2988.75,-107.64C2733.97,-103.55 2043.57,-89.36 1818.5,-53 1815.61,-52.53 1812.69,-52.01 1809.74,-51.43"/>
<polygon fill="midnightblue" stroke="midnightblue" points="2989.04,-111.14 2999.09,-107.8 2989.15,-104.14 2989.04,-111.14"/>
</g>
<!-- Node12 -->
<g id="node12" class="node">
<title>Node12</title>
<g id="a_node12"><a xlink:href="initOpcodesNamespace_8cpp.html" target="_top" xlink:title=" ">
<polygon fill="white" stroke="black" points="1827.5,-0.5 1827.5,-52.5 1989.5,-52.5 1989.5,-0.5 1827.5,-0.5"/>
<text text-anchor="start" x="1835.5" y="-40.5" font-family="Helvetica,sans-Serif" font-size="10.00">/home/jonathan/Works</text>
<text text-anchor="start" x="1835.5" y="-29.5" font-family="Helvetica,sans-Serif" font-size="10.00">/Tools/Triton/src/libtriton</text>
<text text-anchor="start" x="1835.5" y="-18.5" font-family="Helvetica,sans-Serif" font-size="10.00">/bindings/python/namespaces</text>
<text text-anchor="middle" x="1908.5" y="-7.5" font-family="Helvetica,sans-Serif" font-size="10.00">/initOpcodesNamespace.cpp</text>
</a>
</g>
</g>
<!-- Node1&#45;&gt;Node12 -->
<g id="edge11" class="edge">
<title>Node1&#45;&gt;Node12</title>
<path fill="none" stroke="midnightblue" d="M2988.87,-106.82C2760.38,-101.17 2187.68,-84.27 1998.5,-53 1995.62,-52.52 1992.69,-51.99 1989.75,-51.4"/>
<polygon fill="midnightblue" stroke="midnightblue" points="2989.08,-110.33 2999.16,-107.07 2989.25,-103.33 2989.08,-110.33"/>
</g>
<!-- Node13 -->
<g id="node13" class="node">
<title>Node13</title>
<g id="a_node13"><a xlink:href="initOperandNamespace_8cpp.html" target="_top" xlink:title=" ">
<polygon fill="white" stroke="black" points="2007.5,-0.5 2007.5,-52.5 2169.5,-52.5 2169.5,-0.5 2007.5,-0.5"/>
<text text-anchor="start" x="2015.5" y="-40.5" font-family="Helvetica,sans-Serif" font-size="10.00">/home/jonathan/Works</text>
<text text-anchor="start" x="2015.5" y="-29.5" font-family="Helvetica,sans-Serif" font-size="10.00">/Tools/Triton/src/libtriton</text>
<text text-anchor="start" x="2015.5" y="-18.5" font-family="Helvetica,sans-Serif" font-size="10.00">/bindings/python/namespaces</text>
<text text-anchor="middle" x="2088.5" y="-7.5" font-family="Helvetica,sans-Serif" font-size="10.00">/initOperandNamespace.cpp</text>
</a>
</g>
</g>
<!-- Node1&#45;&gt;Node13 -->
<g id="edge12" class="edge">
<title>Node1&#45;&gt;Node13</title>
<path fill="none" stroke="midnightblue" d="M2989.32,-109.79C2823.42,-109.68 2471.03,-102.89 2178.5,-53 2175.62,-52.51 2172.7,-51.96 2169.76,-51.37"/>
<polygon fill="midnightblue" stroke="midnightblue" points="2989.49,-113.29 2999.49,-109.79 2989.49,-106.29 2989.49,-113.29"/>
</g>
<!-- Node14 -->
<g id="node14" class="node">
<title>Node14</title>
<g id="a_node14"><a xlink:href="initPrefixesNamespace_8cpp.html" target="_top" xlink:title=" ">
<polygon fill="white" stroke="black" points="2187.5,-0.5 2187.5,-52.5 2349.5,-52.5 2349.5,-0.5 2187.5,-0.5"/>
<text text-anchor="start" x="2195.5" y="-40.5" font-family="Helvetica,sans-Serif" font-size="10.00">/home/jonathan/Works</text>
<text text-anchor="start" x="2195.5" y="-29.5" font-family="Helvetica,sans-Serif" font-size="10.00">/Tools/Triton/src/libtriton</text>
<text text-anchor="start" x="2195.5" y="-18.5" font-family="Helvetica,sans-Serif" font-size="10.00">/bindings/python/namespaces</text>
<text text-anchor="middle" x="2268.5" y="-7.5" font-family="Helvetica,sans-Serif" font-size="10.00">/initPrefixesNamespace.cpp</text>
</a>
</g>
</g>
<!-- Node1&#45;&gt;Node14 -->
<g id="edge13" class="edge">
<title>Node1&#45;&gt;Node14</title>
<path fill="none" stroke="midnightblue" d="M2989.19,-107.68C2849.69,-104.38 2582.2,-92.91 2358.5,-53 2355.62,-52.49 2352.7,-51.92 2349.77,-51.31"/>
<polygon fill="midnightblue" stroke="midnightblue" points="2989.34,-111.18 2999.42,-107.91 2989.5,-104.18 2989.34,-111.18"/>
</g>
<!-- Node15 -->
<g id="node15" class="node">
<title>Node15</title>
<g id="a_node15"><a xlink:href="initRegNamespace_8cpp.html" target="_top" xlink:title=" ">
<polygon fill="white" stroke="black" points="2367.5,-0.5 2367.5,-52.5 2529.5,-52.5 2529.5,-0.5 2367.5,-0.5"/>
<text text-anchor="start" x="2375.5" y="-40.5" font-family="Helvetica,sans-Serif" font-size="10.00">/home/jonathan/Works</text>
<text text-anchor="start" x="2375.5" y="-29.5" font-family="Helvetica,sans-Serif" font-size="10.00">/Tools/Triton/src/libtriton</text>
<text text-anchor="start" x="2375.5" y="-18.5" font-family="Helvetica,sans-Serif" font-size="10.00">/bindings/python/namespaces</text>
<text text-anchor="middle" x="2448.5" y="-7.5" font-family="Helvetica,sans-Serif" font-size="10.00">/initRegNamespace.cpp</text>
</a>
</g>
</g>
<!-- Node1&#45;&gt;Node15 -->
<g id="edge14" class="edge">
<title>Node1&#45;&gt;Node15</title>
<path fill="none" stroke="midnightblue" d="M2989.15,-104.25C2879.6,-97.64 2694.83,-82.93 2538.5,-53 2535.63,-52.45 2532.72,-51.85 2529.78,-51.21"/>
<polygon fill="midnightblue" stroke="midnightblue" points="2989,-107.75 2999.19,-104.85 2989.41,-100.76 2989,-107.75"/>
</g>
<!-- Node16 -->
<g id="node16" class="node">
<title>Node16</title>
<g id="a_node16"><a xlink:href="initShiftsNamespace_8cpp.html" target="_top" xlink:title=" ">
<polygon fill="white" stroke="black" points="2547.5,-0.5 2547.5,-52.5 2709.5,-52.5 2709.5,-0.5 2547.5,-0.5"/>
<text text-anchor="start" x="2555.5" y="-40.5" font-family="Helvetica,sans-Serif" font-size="10.00">/home/jonathan/Works</text>
<text text-anchor="start" x="2555.5" y="-29.5" font-family="Helvetica,sans-Serif" font-size="10.00">/Tools/Triton/src/libtriton</text>
<text text-anchor="start" x="2555.5" y="-18.5" font-family="Helvetica,sans-Serif" font-size="10.00">/bindings/python/namespaces</text>
<text text-anchor="middle" x="2628.5" y="-7.5" font-family="Helvetica,sans-Serif" font-size="10.00">/initShiftsNamespace.cpp</text>
</a>
</g>
</g>
<!-- Node1&#45;&gt;Node16 -->
<g id="edge15" class="edge">
<title>Node1&#45;&gt;Node16</title>
<path fill="none" stroke="midnightblue" d="M2989.01,-97.69C2914.81,-88.11 2809.54,-72.78 2718.5,-53 2715.64,-52.38 2712.74,-51.72 2709.82,-51.03"/>
<polygon fill="midnightblue" stroke="midnightblue" points="2988.91,-101.21 2999.27,-99.01 2989.8,-94.27 2988.91,-101.21"/>
</g>
<!-- Node17 -->
<g id="node17" class="node">
<title>Node17</title>
<g id="a_node17"><a xlink:href="initSolverNamespace_8cpp.html" target="_top" xlink:title=" ">
<polygon fill="white" stroke="black" points="2727.5,-0.5 2727.5,-52.5 2889.5,-52.5 2889.5,-0.5 2727.5,-0.5"/>
<text text-anchor="start" x="2735.5" y="-40.5" font-family="Helvetica,sans-Serif" font-size="10.00">/home/jonathan/Works</text>
<text text-anchor="start" x="2735.5" y="-29.5" font-family="Helvetica,sans-Serif" font-size="10.00">/Tools/Triton/src/libtriton</text>
<text text-anchor="start" x="2735.5" y="-18.5" font-family="Helvetica,sans-Serif" font-size="10.00">/bindings/python/namespaces</text>
<text text-anchor="middle" x="2808.5" y="-7.5" font-family="Helvetica,sans-Serif" font-size="10.00">/initSolverNamespace.cpp</text>
</a>
</g>
</g>
<!-- Node1&#45;&gt;Node17 -->
<g id="edge16" class="edge">
<title>Node1&#45;&gt;Node17</title>
<path fill="none" stroke="midnightblue" d="M3008.67,-86.61C2971.71,-75.7 2927.23,-62.56 2889.59,-51.45"/>
<polygon fill="midnightblue" stroke="midnightblue" points="3007.81,-90 3018.39,-89.48 3009.79,-83.29 3007.81,-90"/>
</g>
<!-- Node18 -->
<g id="node18" class="node">
<title>Node18</title>
<g id="a_node18"><a xlink:href="initSolverStateNamespace_8cpp.html" target="_top" xlink:title=" ">
<polygon fill="white" stroke="black" points="2907.5,-0.5 2907.5,-52.5 3077.5,-52.5 3077.5,-0.5 2907.5,-0.5"/>
<text text-anchor="start" x="2915.5" y="-40.5" font-family="Helvetica,sans-Serif" font-size="10.00">/home/jonathan/Works</text>
<text text-anchor="start" x="2915.5" y="-29.5" font-family="Helvetica,sans-Serif" font-size="10.00">/Tools/Triton/src/libtriton</text>
<text text-anchor="start" x="2915.5" y="-18.5" font-family="Helvetica,sans-Serif" font-size="10.00">/bindings/python/namespaces</text>
<text text-anchor="middle" x="2992.5" y="-7.5" font-family="Helvetica,sans-Serif" font-size="10.00">/initSolverStateNamespace.cpp</text>
</a>
</g>
</g>
<!-- Node1&#45;&gt;Node18 -->
<g id="edge17" class="edge">
<title>Node1&#45;&gt;Node18</title>
<path fill="none" stroke="midnightblue" d="M3054.61,-82.52C3043.77,-72.92 3031.55,-62.09 3020.84,-52.61"/>
<polygon fill="midnightblue" stroke="midnightblue" points="3052.42,-85.26 3062.23,-89.27 3057.06,-80.02 3052.42,-85.26"/>
</g>
<!-- Node19 -->
<g id="node19" class="node">
<title>Node19</title>
<g id="a_node19"><a xlink:href="initStubsNamespace_8cpp.html" target="_top" xlink:title=" ">
<polygon fill="white" stroke="black" points="3095.5,-0.5 3095.5,-52.5 3257.5,-52.5 3257.5,-0.5 3095.5,-0.5"/>
<text text-anchor="start" x="3103.5" y="-40.5" font-family="Helvetica,sans-Serif" font-size="10.00">/home/jonathan/Works</text>
<text text-anchor="start" x="3103.5" y="-29.5" font-family="Helvetica,sans-Serif" font-size="10.00">/Tools/Triton/src/libtriton</text>
<text text-anchor="start" x="3103.5" y="-18.5" font-family="Helvetica,sans-Serif" font-size="10.00">/bindings/python/namespaces</text>
<text text-anchor="middle" x="3176.5" y="-7.5" font-family="Helvetica,sans-Serif" font-size="10.00">/initStubsNamespace.cpp</text>
</a>
</g>
</g>
<!-- Node1&#45;&gt;Node19 -->
<g id="edge18" class="edge">
<title>Node1&#45;&gt;Node19</title>
<path fill="none" stroke="midnightblue" d="M3114.39,-82.52C3125.23,-72.92 3137.45,-62.09 3148.16,-52.61"/>
<polygon fill="midnightblue" stroke="midnightblue" points="3111.94,-80.02 3106.77,-89.27 3116.58,-85.26 3111.94,-80.02"/>
</g>
<!-- Node20 -->
<g id="node20" class="node">
<title>Node20</title>
<g id="a_node20"><a xlink:href="initSymbolicNamespace_8cpp.html" target="_top" xlink:title=" ">
<polygon fill="white" stroke="black" points="3275.5,-0.5 3275.5,-52.5 3437.5,-52.5 3437.5,-0.5 3275.5,-0.5"/>
<text text-anchor="start" x="3283.5" y="-40.5" font-family="Helvetica,sans-Serif" font-size="10.00">/home/jonathan/Works</text>
<text text-anchor="start" x="3283.5" y="-29.5" font-family="Helvetica,sans-Serif" font-size="10.00">/Tools/Triton/src/libtriton</text>
<text text-anchor="start" x="3283.5" y="-18.5" font-family="Helvetica,sans-Serif" font-size="10.00">/bindings/python/namespaces</text>
<text text-anchor="middle" x="3356.5" y="-7.5" font-family="Helvetica,sans-Serif" font-size="10.00">/initSymbolicNamespace.cpp</text>
</a>
</g>
</g>
<!-- Node1&#45;&gt;Node20 -->
<g id="edge19" class="edge">
<title>Node1&#45;&gt;Node20</title>
<path fill="none" stroke="midnightblue" d="M3159.59,-86.5C3195.53,-75.73 3238.63,-62.82 3275.33,-51.82"/>
<polygon fill="midnightblue" stroke="midnightblue" points="3158.23,-83.26 3149.65,-89.48 3160.23,-89.96 3158.23,-83.26"/>
</g>
<!-- Node21 -->
<g id="node21" class="node">
<title>Node21</title>
<g id="a_node21"><a xlink:href="initVersionNamespace_8cpp.html" target="_top" xlink:title=" ">
<polygon fill="white" stroke="black" points="3455.5,-0.5 3455.5,-52.5 3617.5,-52.5 3617.5,-0.5 3455.5,-0.5"/>
<text text-anchor="start" x="3463.5" y="-40.5" font-family="Helvetica,sans-Serif" font-size="10.00">/home/jonathan/Works</text>
<text text-anchor="start" x="3463.5" y="-29.5" font-family="Helvetica,sans-Serif" font-size="10.00">/Tools/Triton/src/libtriton</text>
<text text-anchor="start" x="3463.5" y="-18.5" font-family="Helvetica,sans-Serif" font-size="10.00">/bindings/python/namespaces</text>
<text text-anchor="middle" x="3536.5" y="-7.5" font-family="Helvetica,sans-Serif" font-size="10.00">/initVersionNamespace.cpp</text>
</a>
</g>
</g>
<!-- Node1&#45;&gt;Node21 -->
<g id="edge20" class="edge">
<title>Node1&#45;&gt;Node21</title>
<path fill="none" stroke="midnightblue" d="M3179.67,-97.52C3253.02,-87.89 3356.74,-72.58 3446.5,-53 3449.36,-52.38 3452.26,-51.72 3455.18,-51.02"/>
<polygon fill="midnightblue" stroke="midnightblue" points="3178.99,-94.08 3169.52,-98.84 3179.89,-101.02 3178.99,-94.08"/>
</g>
<!-- Node22 -->
<g id="node22" class="node">
<title>Node22</title>
<g id="a_node22"><a xlink:href="pyAstContext_8cpp.html" target="_top" xlink:title=" ">
<polygon fill="white" stroke="black" points="3635.5,-0.5 3635.5,-52.5 3771.5,-52.5 3771.5,-0.5 3635.5,-0.5"/>
<text text-anchor="start" x="3643.5" y="-40.5" font-family="Helvetica,sans-Serif" font-size="10.00">/home/jonathan/Works</text>
<text text-anchor="start" x="3643.5" y="-29.5" font-family="Helvetica,sans-Serif" font-size="10.00">/Tools/Triton/src/libtriton</text>
<text text-anchor="start" x="3643.5" y="-18.5" font-family="Helvetica,sans-Serif" font-size="10.00">/bindings/python/objects</text>
<text text-anchor="middle" x="3703.5" y="-7.5" font-family="Helvetica,sans-Serif" font-size="10.00">/pyAstContext.cpp</text>
</a>
</g>
</g>
<!-- Node1&#45;&gt;Node22 -->
<g id="edge21" class="edge">
<title>Node1&#45;&gt;Node22</title>
<path fill="none" stroke="midnightblue" d="M3179.88,-105.4C3288.91,-99.84 3472.23,-86.1 3626.5,-53 3629.39,-52.38 3632.33,-51.69 3635.28,-50.94"/>
<polygon fill="midnightblue" stroke="midnightblue" points="3179.7,-101.9 3169.88,-105.9 3180.05,-108.89 3179.7,-101.9"/>
</g>
<!-- Node23 -->
<g id="node23" class="node">
<title>Node23</title>
<g id="a_node23"><a xlink:href="pyAstNode_8cpp.html" target="_top" xlink:title=" ">
<polygon fill="white" stroke="black" points="3789.5,-0.5 3789.5,-52.5 3925.5,-52.5 3925.5,-0.5 3789.5,-0.5"/>
<text text-anchor="start" x="3797.5" y="-40.5" font-family="Helvetica,sans-Serif" font-size="10.00">/home/jonathan/Works</text>
<text text-anchor="start" x="3797.5" y="-29.5" font-family="Helvetica,sans-Serif" font-size="10.00">/Tools/Triton/src/libtriton</text>
<text text-anchor="start" x="3797.5" y="-18.5" font-family="Helvetica,sans-Serif" font-size="10.00">/bindings/python/objects</text>
<text text-anchor="middle" x="3857.5" y="-7.5" font-family="Helvetica,sans-Serif" font-size="10.00">/pyAstNode.cpp</text>
</a>
</g>
</g>
<!-- Node1&#45;&gt;Node23 -->
<g id="edge22" class="edge">
<title>Node1&#45;&gt;Node23</title>
<path fill="none" stroke="midnightblue" d="M3179.82,-108.52C3314.83,-106.22 3568.89,-95.9 3780.5,-53 3783.4,-52.41 3786.34,-51.75 3789.3,-51.03"/>
<polygon fill="midnightblue" stroke="midnightblue" points="3179.45,-105.02 3169.51,-108.68 3179.57,-112.02 3179.45,-105.02"/>
</g>
<!-- Node24 -->
<g id="node24" class="node">
<title>Node24</title>
<g id="a_node24"><a xlink:href="pyBasicBlock_8cpp.html" target="_top" xlink:title=" ">
<polygon fill="white" stroke="black" points="3943.5,-0.5 3943.5,-52.5 4079.5,-52.5 4079.5,-0.5 3943.5,-0.5"/>
<text text-anchor="start" x="3951.5" y="-40.5" font-family="Helvetica,sans-Serif" font-size="10.00">/home/jonathan/Works</text>
<text text-anchor="start" x="3951.5" y="-29.5" font-family="Helvetica,sans-Serif" font-size="10.00">/Tools/Triton/src/libtriton</text>
<text text-anchor="start" x="3951.5" y="-18.5" font-family="Helvetica,sans-Serif" font-size="10.00">/bindings/python/objects</text>
<text text-anchor="middle" x="4011.5" y="-7.5" font-family="Helvetica,sans-Serif" font-size="10.00">/pyBasicBlock.cpp</text>
</a>
</g>
</g>
<!-- Node1&#45;&gt;Node24 -->
<g id="edge23" class="edge">
<title>Node1&#45;&gt;Node24</title>
<path fill="none" stroke="midnightblue" d="M3179.63,-105.78C3370.13,-98.82 3792.35,-80.75 3934.5,-53 3937.4,-52.43 3940.35,-51.79 3943.31,-51.08"/>
<polygon fill="midnightblue" stroke="midnightblue" points="3179.49,-102.28 3169.63,-106.14 3179.75,-109.27 3179.49,-102.28"/>
</g>
<!-- Node25 -->
<g id="node25" class="node">
<title>Node25</title>
<g id="a_node25"><a xlink:href="pyBitsVector_8cpp.html" target="_top" xlink:title=" ">
<polygon fill="white" stroke="black" points="4097.5,-0.5 4097.5,-52.5 4233.5,-52.5 4233.5,-0.5 4097.5,-0.5"/>
<text text-anchor="start" x="4105.5" y="-40.5" font-family="Helvetica,sans-Serif" font-size="10.00">/home/jonathan/Works</text>
<text text-anchor="start" x="4105.5" y="-29.5" font-family="Helvetica,sans-Serif" font-size="10.00">/Tools/Triton/src/libtriton</text>
<text text-anchor="start" x="4105.5" y="-18.5" font-family="Helvetica,sans-Serif" font-size="10.00">/bindings/python/objects</text>
<text text-anchor="middle" x="4165.5" y="-7.5" font-family="Helvetica,sans-Serif" font-size="10.00">/pyBitsVector.cpp</text>
</a>
</g>
</g>
<!-- Node1&#45;&gt;Node25 -->
<g id="edge24" class="edge">
<title>Node1&#45;&gt;Node25</title>
<path fill="none" stroke="midnightblue" d="M3179.56,-106.9C3395.2,-101.6 3916.08,-85.76 4088.5,-53 4091.41,-52.45 4094.35,-51.81 4097.31,-51.12"/>
<polygon fill="midnightblue" stroke="midnightblue" points="3179.43,-103.4 3169.52,-107.14 3179.6,-110.4 3179.43,-103.4"/>
</g>
<!-- Node26 -->
<g id="node26" class="node">
<title>Node26</title>
<g id="a_node26"><a xlink:href="pyImmediate_8cpp.html" target="_top" xlink:title=" ">
<polygon fill="white" stroke="black" points="4251.5,-0.5 4251.5,-52.5 4387.5,-52.5 4387.5,-0.5 4251.5,-0.5"/>
<text text-anchor="start" x="4259.5" y="-40.5" font-family="Helvetica,sans-Serif" font-size="10.00">/home/jonathan/Works</text>
<text text-anchor="start" x="4259.5" y="-29.5" font-family="Helvetica,sans-Serif" font-size="10.00">/Tools/Triton/src/libtriton</text>
<text text-anchor="start" x="4259.5" y="-18.5" font-family="Helvetica,sans-Serif" font-size="10.00">/bindings/python/objects</text>
<text text-anchor="middle" x="4319.5" y="-7.5" font-family="Helvetica,sans-Serif" font-size="10.00">/pyImmediate.cpp</text>
</a>
</g>
</g>
<!-- Node1&#45;&gt;Node26 -->
<g id="edge25" class="edge">
<title>Node1&#45;&gt;Node26</title>
<path fill="none" stroke="midnightblue" d="M3179.72,-107.72C3418.79,-103.96 4039.62,-90.77 4242.5,-53 4245.41,-52.46 4248.36,-51.83 4251.32,-51.15"/>
<polygon fill="midnightblue" stroke="midnightblue" points="3179.61,-104.22 3169.66,-107.87 3179.71,-111.22 3179.61,-104.22"/>
</g>
<!-- Node27 -->
<g id="node27" class="node">
<title>Node27</title>
<g id="a_node27"><a xlink:href="pyInstruction_8cpp.html" target="_top" xlink:title=" ">
<polygon fill="white" stroke="black" points="4405.5,-0.5 4405.5,-52.5 4541.5,-52.5 4541.5,-0.5 4405.5,-0.5"/>
<text text-anchor="start" x="4413.5" y="-40.5" font-family="Helvetica,sans-Serif" font-size="10.00">/home/jonathan/Works</text>
<text text-anchor="start" x="4413.5" y="-29.5" font-family="Helvetica,sans-Serif" font-size="10.00">/Tools/Triton/src/libtriton</text>
<text text-anchor="start" x="4413.5" y="-18.5" font-family="Helvetica,sans-Serif" font-size="10.00">/bindings/python/objects</text>
<text text-anchor="middle" x="4473.5" y="-7.5" font-family="Helvetica,sans-Serif" font-size="10.00">/pyInstruction.cpp</text>
</a>
</g>
</g>
<!-- Node1&#45;&gt;Node27 -->
<g id="edge26" class="edge">
<title>Node1&#45;&gt;Node27</title>
<path fill="none" stroke="midnightblue" d="M3180.16,-108.35C3441.4,-106.02 4163.03,-95.78 4396.5,-53 4399.41,-52.47 4402.36,-51.85 4405.32,-51.17"/>
<polygon fill="midnightblue" stroke="midnightblue" points="3179.9,-104.85 3169.94,-108.44 3179.97,-111.85 3179.9,-104.85"/>
</g>
<!-- Node28 -->
<g id="node28" class="node">
<title>Node28</title>
<g id="a_node28"><a xlink:href="pyMemoryAccess_8cpp.html" target="_top" xlink:title=" ">
<polygon fill="white" stroke="black" points="4559.5,-0.5 4559.5,-52.5 4695.5,-52.5 4695.5,-0.5 4559.5,-0.5"/>
<text text-anchor="start" x="4567.5" y="-40.5" font-family="Helvetica,sans-Serif" font-size="10.00">/home/jonathan/Works</text>
<text text-anchor="start" x="4567.5" y="-29.5" font-family="Helvetica,sans-Serif" font-size="10.00">/Tools/Triton/src/libtriton</text>
<text text-anchor="start" x="4567.5" y="-18.5" font-family="Helvetica,sans-Serif" font-size="10.00">/bindings/python/objects</text>
<text text-anchor="middle" x="4627.5" y="-7.5" font-family="Helvetica,sans-Serif" font-size="10.00">/pyMemoryAccess.cpp</text>
</a>
</g>
</g>
<!-- Node1&#45;&gt;Node28 -->
<g id="edge27" class="edge">
<title>Node1&#45;&gt;Node28</title>
<path fill="none" stroke="midnightblue" d="M3179.89,-108.85C3461.5,-107.86 4286.06,-100.84 4550.5,-53 4553.41,-52.47 4556.36,-51.86 4559.33,-51.18"/>
<polygon fill="midnightblue" stroke="midnightblue" points="3179.69,-105.35 3169.7,-108.89 3179.71,-112.35 3179.69,-105.35"/>
</g>
<!-- Node29 -->
<g id="node29" class="node">
<title>Node29</title>
<g id="a_node29"><a xlink:href="pyPathConstraint_8cpp.html" target="_top" xlink:title=" ">
<polygon fill="white" stroke="black" points="4713.5,-0.5 4713.5,-52.5 4849.5,-52.5 4849.5,-0.5 4713.5,-0.5"/>
<text text-anchor="start" x="4721.5" y="-40.5" font-family="Helvetica,sans-Serif" font-size="10.00">/home/jonathan/Works</text>
<text text-anchor="start" x="4721.5" y="-29.5" font-family="Helvetica,sans-Serif" font-size="10.00">/Tools/Triton/src/libtriton</text>
<text text-anchor="start" x="4721.5" y="-18.5" font-family="Helvetica,sans-Serif" font-size="10.00">/bindings/python/objects</text>
<text text-anchor="middle" x="4781.5" y="-7.5" font-family="Helvetica,sans-Serif" font-size="10.00">/pyPathConstraint.cpp</text>
</a>
</g>
</g>
<!-- Node1&#45;&gt;Node29 -->
<g id="edge28" class="edge">
<title>Node1&#45;&gt;Node29</title>
<path fill="none" stroke="midnightblue" d="M3179.64,-109.26C3480.52,-109.53 4408.94,-105.92 4704.5,-53 4707.41,-52.48 4710.36,-51.87 4713.33,-51.2"/>
<polygon fill="midnightblue" stroke="midnightblue" points="3179.64,-105.76 3169.63,-109.25 3179.63,-112.76 3179.64,-105.76"/>
</g>
<!-- Node30 -->
<g id="node30" class="node">
<title>Node30</title>
<g id="a_node30"><a xlink:href="pyRegister_8cpp.html" target="_top" xlink:title=" ">
<polygon fill="white" stroke="black" points="4867.5,-0.5 4867.5,-52.5 5003.5,-52.5 5003.5,-0.5 4867.5,-0.5"/>
<text text-anchor="start" x="4875.5" y="-40.5" font-family="Helvetica,sans-Serif" font-size="10.00">/home/jonathan/Works</text>
<text text-anchor="start" x="4875.5" y="-29.5" font-family="Helvetica,sans-Serif" font-size="10.00">/Tools/Triton/src/libtriton</text>
<text text-anchor="start" x="4875.5" y="-18.5" font-family="Helvetica,sans-Serif" font-size="10.00">/bindings/python/objects</text>
<text text-anchor="middle" x="4935.5" y="-7.5" font-family="Helvetica,sans-Serif" font-size="10.00">/pyRegister.cpp</text>
</a>
</g>
</g>
<!-- Node1&#45;&gt;Node30 -->
<g id="edge29" class="edge">
<title>Node1&#45;&gt;Node30</title>
<path fill="none" stroke="midnightblue" d="M3179.78,-109.6C3499.42,-111.04 4531.82,-110.99 4858.5,-53 4861.41,-52.48 4864.36,-51.88 4867.33,-51.21"/>
<polygon fill="midnightblue" stroke="midnightblue" points="3179.63,-106.1 3169.62,-109.55 3179.6,-113.1 3179.63,-106.1"/>
</g>
<!-- Node31 -->
<g id="node31" class="node">
<title>Node31</title>
<g id="a_node31"><a xlink:href="pySolverModel_8cpp.html" target="_top" xlink:title=" ">
<polygon fill="white" stroke="black" points="5021.5,-0.5 5021.5,-52.5 5157.5,-52.5 5157.5,-0.5 5021.5,-0.5"/>
<text text-anchor="start" x="5029.5" y="-40.5" font-family="Helvetica,sans-Serif" font-size="10.00">/home/jonathan/Works</text>
<text text-anchor="start" x="5029.5" y="-29.5" font-family="Helvetica,sans-Serif" font-size="10.00">/Tools/Triton/src/libtriton</text>
<text text-anchor="start" x="5029.5" y="-18.5" font-family="Helvetica,sans-Serif" font-size="10.00">/bindings/python/objects</text>
<text text-anchor="middle" x="5089.5" y="-7.5" font-family="Helvetica,sans-Serif" font-size="10.00">/pySolverModel.cpp</text>
</a>
</g>
</g>
<!-- Node1&#45;&gt;Node31 -->
<g id="edge30" class="edge">
<title>Node1&#45;&gt;Node31</title>
<path fill="none" stroke="midnightblue" d="M3179.79,-107.86C3543.31,-103.27 4831.52,-84.89 5012.5,-53 5015.41,-52.49 5018.37,-51.89 5021.33,-51.22"/>
<polygon fill="midnightblue" stroke="midnightblue" points="3179.52,-104.36 3169.57,-107.98 3179.61,-111.36 3179.52,-104.36"/>
</g>
<!-- Node32 -->
<g id="node32" class="node">
<title>Node32</title>
<g id="a_node32"><a xlink:href="pySymbolicExpression_8cpp.html" target="_top" xlink:title=" ">
<polygon fill="white" stroke="black" points="5175.5,-0.5 5175.5,-52.5 5325.5,-52.5 5325.5,-0.5 5175.5,-0.5"/>
<text text-anchor="start" x="5183.5" y="-40.5" font-family="Helvetica,sans-Serif" font-size="10.00">/home/jonathan/Works</text>
<text text-anchor="start" x="5183.5" y="-29.5" font-family="Helvetica,sans-Serif" font-size="10.00">/Tools/Triton/src/libtriton</text>
<text text-anchor="start" x="5183.5" y="-18.5" font-family="Helvetica,sans-Serif" font-size="10.00">/bindings/python/objects</text>
<text text-anchor="middle" x="5250.5" y="-7.5" font-family="Helvetica,sans-Serif" font-size="10.00">/pySymbolicExpression.cpp</text>
</a>
</g>
</g>
<!-- Node1&#45;&gt;Node32 -->
<g id="edge31" class="edge">
<title>Node1&#45;&gt;Node32</title>
<path fill="none" stroke="midnightblue" d="M3179.95,-107.94C3561.93,-103.47 4969.37,-84.98 5166.5,-53 5169.36,-52.54 5172.26,-52 5175.17,-51.41"/>
<polygon fill="midnightblue" stroke="midnightblue" points="3179.72,-104.44 3169.76,-108.05 3179.8,-111.44 3179.72,-104.44"/>
</g>
<!-- Node33 -->
<g id="node33" class="node">
<title>Node33</title>
<g id="a_node33"><a xlink:href="pySymbolicVariable_8cpp.html" target="_top" xlink:title=" ">
<polygon fill="white" stroke="black" points="5344,-0.5 5344,-52.5 5481,-52.5 5481,-0.5 5344,-0.5"/>
<text text-anchor="start" x="5352" y="-40.5" font-family="Helvetica,sans-Serif" font-size="10.00">/home/jonathan/Works</text>
<text text-anchor="start" x="5352" y="-29.5" font-family="Helvetica,sans-Serif" font-size="10.00">/Tools/Triton/src/libtriton</text>
<text text-anchor="start" x="5352" y="-18.5" font-family="Helvetica,sans-Serif" font-size="10.00">/bindings/python/objects</text>
<text text-anchor="middle" x="5412.5" y="-7.5" font-family="Helvetica,sans-Serif" font-size="10.00">/pySymbolicVariable.cpp</text>
</a>
</g>
</g>
<!-- Node1&#45;&gt;Node33 -->
<g id="edge32" class="edge">
<title>Node1&#45;&gt;Node33</title>
<path fill="none" stroke="midnightblue" d="M3179.9,-108.26C3581.08,-104.93 5120.46,-89.84 5334.5,-53 5337.59,-52.47 5340.72,-51.84 5343.87,-51.13"/>
<polygon fill="midnightblue" stroke="midnightblue" points="3179.75,-104.76 3169.78,-108.34 3179.81,-111.76 3179.75,-104.76"/>
</g>
<!-- Node34 -->
<g id="node34" class="node">
<title>Node34</title>
<g id="a_node34"><a xlink:href="pyTritonContext_8cpp.html" target="_top" xlink:title=" ">
<polygon fill="white" stroke="black" points="5499.5,-0.5 5499.5,-52.5 5635.5,-52.5 5635.5,-0.5 5499.5,-0.5"/>
<text text-anchor="start" x="5507.5" y="-40.5" font-family="Helvetica,sans-Serif" font-size="10.00">/home/jonathan/Works</text>
<text text-anchor="start" x="5507.5" y="-29.5" font-family="Helvetica,sans-Serif" font-size="10.00">/Tools/Triton/src/libtriton</text>
<text text-anchor="start" x="5507.5" y="-18.5" font-family="Helvetica,sans-Serif" font-size="10.00">/bindings/python/objects</text>
<text text-anchor="middle" x="5567.5" y="-7.5" font-family="Helvetica,sans-Serif" font-size="10.00">/pyTritonContext.cpp</text>
</a>
</g>
</g>
<!-- Node1&#45;&gt;Node34 -->
<g id="edge33" class="edge">
<title>Node1&#45;&gt;Node34</title>
<path fill="none" stroke="midnightblue" d="M3179.84,-108.45C3598.15,-105.8 5260.46,-92.85 5490.5,-53 5493.41,-52.5 5496.37,-51.9 5499.34,-51.24"/>
<polygon fill="midnightblue" stroke="midnightblue" points="3179.58,-104.95 3169.6,-108.51 3179.62,-111.95 3179.58,-104.95"/>
</g>
<!-- Node35 -->
<g id="node35" class="node">
<title>Node35</title>
<g id="a_node35"><a xlink:href="utils_8cpp.html" target="_top" xlink:title=" ">
<polygon fill="white" stroke="black" points="5653.5,-6 5653.5,-47 5795.5,-47 5795.5,-6 5653.5,-6"/>
<text text-anchor="start" x="5661.5" y="-35" font-family="Helvetica,sans-Serif" font-size="10.00">/home/jonathan/Works</text>
<text text-anchor="start" x="5661.5" y="-24" font-family="Helvetica,sans-Serif" font-size="10.00">/Tools/Triton/src/libtriton</text>
<text text-anchor="middle" x="5724.5" y="-13" font-family="Helvetica,sans-Serif" font-size="10.00">/bindings/python/utils.cpp</text>
</a>
</g>
</g>
<!-- Node1&#45;&gt;Node35 -->
<g id="edge34" class="edge">
<title>Node1&#45;&gt;Node35</title>
<path fill="none" stroke="midnightblue" d="M3179.8,-108.53C3614.47,-106.17 5398.34,-94.04 5644.5,-53 5652.98,-51.59 5661.81,-49.47 5670.36,-47.05"/>
<polygon fill="midnightblue" stroke="midnightblue" points="3179.77,-105.03 3169.79,-108.58 3179.81,-112.03 3179.77,-105.03"/>
</g>
</g>
</svg>
