<?xml version="1.0" encoding="UTF-8" standalone="no"?>
<!DOCTYPE svg PUBLIC "-//W3C//DTD SVG 1.1//EN"
 "http://www.w3.org/Graphics/SVG/1.1/DTD/svg11.dtd">
<!-- Generated by graphviz version 9.0.0 (20230911.1827)
 -->
<!-- Title: /Users/jonathan/Works/Tools/Triton/src/libtriton/includes/triton/pythonXFunctions.hpp Pages: 1 -->
<svg width="5627pt" height="139pt"
 viewBox="0.00 0.00 5627.38 138.75" xmlns="http://www.w3.org/2000/svg" xmlns:xlink="http://www.w3.org/1999/xlink">
<g id="graph0" class="graph" transform="scale(1 1) rotate(0) translate(4 134.75)">
<title>/Users/jonathan/Works/Tools/Triton/src/libtriton/includes/triton/pythonXFunctions.hpp</title>
<!-- Node1 -->
<g id="Node000001" class="node">
<title>Node1</title>
<g id="a_Node000001"><a xlink:title=" ">
<polygon fill="#999999" stroke="#666666" points="3037,-130.75 2856.75,-130.75 2856.75,-89 3037,-89 3037,-130.75"/>
<text text-anchor="start" x="2864.75" y="-117.25" font-family="Helvetica,sans-Serif" font-size="10.00">/Users/jonathan/Works</text>
<text text-anchor="start" x="2864.75" y="-106" font-family="Helvetica,sans-Serif" font-size="10.00">/Tools/Triton/src/libtriton</text>
<text text-anchor="middle" x="2946.88" y="-94.75" font-family="Helvetica,sans-Serif" font-size="10.00">/includes/triton/pythonXFunctions.hpp</text>
</a>
</g>
</g>
<!-- Node2 -->
<g id="Node000002" class="node">
<title>Node2</title>
<g id="a_Node000002"><a xlink:href="init_8cpp.html" target="_top" xlink:title=" ">
<polygon fill="white" stroke="#666666" points="121.75,-47.38 0,-47.38 0,-5.62 121.75,-5.62 121.75,-47.38"/>
<text text-anchor="start" x="8" y="-33.88" font-family="Helvetica,sans-Serif" font-size="10.00">/Users/jonathan/Works</text>
<text text-anchor="start" x="8" y="-22.62" font-family="Helvetica,sans-Serif" font-size="10.00">/Tools/Triton/src/libtriton</text>
<text text-anchor="middle" x="60.88" y="-11.38" font-family="Helvetica,sans-Serif" font-size="10.00">/bindings/python/init.cpp</text>
</a>
</g>
</g>
<!-- Node1&#45;&gt;Node2 -->
<g id="edge1_Node000001_Node000002" class="edge">
<title>Node1&#45;&gt;Node2</title>
<g id="a_edge1_Node000001_Node000002"><a xlink:title=" ">
<path fill="none" stroke="#63b8ff" d="M2845.15,-108.86C2372.24,-108.55 400.29,-104.14 129.88,-53 123.22,-51.74 116.37,-49.91 109.68,-47.8"/>
<polygon fill="#63b8ff" stroke="#63b8ff" points="2844.86,-112.36 2854.86,-108.87 2844.86,-105.36 2844.86,-112.36"/>
</a>
</g>
</g>
<!-- Node3 -->
<g id="Node000003" class="node">
<title>Node3</title>
<g id="a_Node000003"><a xlink:href="tritonCallbacks_8cpp.html" target="_top" xlink:title=" ">
<polygon fill="white" stroke="#666666" points="266.38,-53 139.38,-53 139.38,0 266.38,0 266.38,-53"/>
<text text-anchor="start" x="147.38" y="-39.5" font-family="Helvetica,sans-Serif" font-size="10.00">/Users/jonathan/Works</text>
<text text-anchor="start" x="147.38" y="-28.25" font-family="Helvetica,sans-Serif" font-size="10.00">/Tools/Triton/src/libtriton</text>
<text text-anchor="start" x="147.38" y="-17" font-family="Helvetica,sans-Serif" font-size="10.00">/bindings/python/modules</text>
<text text-anchor="middle" x="202.88" y="-5.75" font-family="Helvetica,sans-Serif" font-size="10.00">/tritonCallbacks.cpp</text>
</a>
</g>
</g>
<!-- Node1&#45;&gt;Node3 -->
<g id="edge2_Node000001_Node000003" class="edge">
<title>Node1&#45;&gt;Node3</title>
<g id="a_edge2_Node000001_Node000003"><a xlink:title=" ">
<path fill="none" stroke="#63b8ff" d="M2845.19,-108.67C2387.61,-107.46 530.69,-99.72 274.88,-53 272.14,-52.5 269.36,-51.91 266.58,-51.25"/>
<polygon fill="#63b8ff" stroke="#63b8ff" points="2844.86,-112.16 2854.87,-108.69 2844.88,-105.16 2844.86,-112.16"/>
</a>
</g>
</g>
<!-- Node4 -->
<g id="Node000004" class="node">
<title>Node4</title>
<g id="a_Node000004"><a xlink:href="initArchNamespace_8cpp.html" target="_top" xlink:title=" ">
<polygon fill="white" stroke="#666666" points="429.75,-53 284,-53 284,0 429.75,0 429.75,-53"/>
<text text-anchor="start" x="292" y="-39.5" font-family="Helvetica,sans-Serif" font-size="10.00">/Users/jonathan/Works</text>
<text text-anchor="start" x="292" y="-28.25" font-family="Helvetica,sans-Serif" font-size="10.00">/Tools/Triton/src/libtriton</text>
<text text-anchor="start" x="292" y="-17" font-family="Helvetica,sans-Serif" font-size="10.00">/bindings/python/namespaces</text>
<text text-anchor="middle" x="356.88" y="-5.75" font-family="Helvetica,sans-Serif" font-size="10.00">/initArchNamespace.cpp</text>
</a>
</g>
</g>
<!-- Node1&#45;&gt;Node4 -->
<g id="edge3_Node000001_Node000004" class="edge">
<title>Node1&#45;&gt;Node4</title>
<g id="a_edge3_Node000001_Node000004"><a xlink:title=" ">
<path fill="none" stroke="#63b8ff" d="M2845.04,-108.28C2405.04,-105.5 678.6,-92.15 438.88,-53 435.93,-52.52 432.95,-51.96 429.95,-51.33"/>
<polygon fill="#63b8ff" stroke="#63b8ff" points="2844.9,-111.78 2854.93,-108.35 2844.95,-104.78 2844.9,-111.78"/>
</a>
</g>
</g>
<!-- Node5 -->
<g id="Node000005" class="node">
<title>Node5</title>
<g id="a_Node000005"><a xlink:href="initAstNodeNamespace_8cpp.html" target="_top" xlink:title=" ">
<polygon fill="white" stroke="#666666" points="593.75,-53 448,-53 448,0 593.75,0 593.75,-53"/>
<text text-anchor="start" x="456" y="-39.5" font-family="Helvetica,sans-Serif" font-size="10.00">/Users/jonathan/Works</text>
<text text-anchor="start" x="456" y="-28.25" font-family="Helvetica,sans-Serif" font-size="10.00">/Tools/Triton/src/libtriton</text>
<text text-anchor="start" x="456" y="-17" font-family="Helvetica,sans-Serif" font-size="10.00">/bindings/python/namespaces</text>
<text text-anchor="middle" x="520.88" y="-5.75" font-family="Helvetica,sans-Serif" font-size="10.00">/initAstNodeNamespace.cpp</text>
</a>
</g>
</g>
<!-- Node1&#45;&gt;Node5 -->
<g id="edge4_Node000001_Node000005" class="edge">
<title>Node1&#45;&gt;Node5</title>
<g id="a_edge4_Node000001_Node000005"><a xlink:title=" ">
<path fill="none" stroke="#63b8ff" d="M2845.13,-108.11C2423.58,-104.73 825.73,-89.57 602.88,-53 599.93,-52.52 596.95,-51.95 593.95,-51.33"/>
<polygon fill="#63b8ff" stroke="#63b8ff" points="2844.82,-111.61 2854.85,-108.19 2844.88,-104.61 2844.82,-111.61"/>
</a>
</g>
</g>
<!-- Node6 -->
<g id="Node000006" class="node">
<title>Node6</title>
<g id="a_Node000006"><a xlink:href="initAstRepresentationNamespace_8cpp.html" target="_top" xlink:title=" ">
<polygon fill="white" stroke="#666666" points="795.88,-53 611.88,-53 611.88,0 795.88,0 795.88,-53"/>
<text text-anchor="start" x="619.88" y="-39.5" font-family="Helvetica,sans-Serif" font-size="10.00">/Users/jonathan/Works</text>
<text text-anchor="start" x="619.88" y="-28.25" font-family="Helvetica,sans-Serif" font-size="10.00">/Tools/Triton/src/libtriton</text>
<text text-anchor="start" x="619.88" y="-17" font-family="Helvetica,sans-Serif" font-size="10.00">/bindings/python/namespaces</text>
<text text-anchor="middle" x="703.88" y="-5.75" font-family="Helvetica,sans-Serif" font-size="10.00">/initAstRepresentationNamespace.cpp</text>
</a>
</g>
</g>
<!-- Node1&#45;&gt;Node6 -->
<g id="edge5_Node000001_Node000006" class="edge">
<title>Node1&#45;&gt;Node6</title>
<g id="a_edge5_Node000001_Node000006"><a xlink:title=" ">
<path fill="none" stroke="#63b8ff" d="M2844.91,-109.2C2475.25,-109.92 1206.23,-108.21 804.88,-53 802.01,-52.61 799.11,-52.16 796.18,-51.67"/>
<polygon fill="#63b8ff" stroke="#63b8ff" points="2844.86,-112.7 2854.85,-109.18 2844.85,-105.7 2844.86,-112.7"/>
</a>
</g>
</g>
<!-- Node7 -->
<g id="Node000007" class="node">
<title>Node7</title>
<g id="a_Node000007"><a xlink:href="initCallbackNamespace_8cpp.html" target="_top" xlink:title=" ">
<polygon fill="white" stroke="#666666" points="959.75,-53 814,-53 814,0 959.75,0 959.75,-53"/>
<text text-anchor="start" x="822" y="-39.5" font-family="Helvetica,sans-Serif" font-size="10.00">/Users/jonathan/Works</text>
<text text-anchor="start" x="822" y="-28.25" font-family="Helvetica,sans-Serif" font-size="10.00">/Tools/Triton/src/libtriton</text>
<text text-anchor="start" x="822" y="-17" font-family="Helvetica,sans-Serif" font-size="10.00">/bindings/python/namespaces</text>
<text text-anchor="middle" x="886.88" y="-5.75" font-family="Helvetica,sans-Serif" font-size="10.00">/initCallbackNamespace.cpp</text>
</a>
</g>
</g>
<!-- Node1&#45;&gt;Node7 -->
<g id="edge6_Node000001_Node000007" class="edge">
<title>Node1&#45;&gt;Node7</title>
<g id="a_edge6_Node000001_Node000007"><a xlink:title=" ">
<path fill="none" stroke="#63b8ff" d="M2844.79,-107.62C2466.12,-102.76 1154.13,-83.82 968.88,-53 965.93,-52.51 962.95,-51.94 959.95,-51.31"/>
<polygon fill="#63b8ff" stroke="#63b8ff" points="2844.7,-111.12 2854.74,-107.75 2844.79,-104.12 2844.7,-111.12"/>
</a>
</g>
</g>
<!-- Node8 -->
<g id="Node000008" class="node">
<title>Node8</title>
<g id="a_Node000008"><a xlink:href="initConditionsNamespace_8cpp.html" target="_top" xlink:title=" ">
<polygon fill="white" stroke="#666666" points="1127.62,-53 978.12,-53 978.12,0 1127.62,0 1127.62,-53"/>
<text text-anchor="start" x="986.12" y="-39.5" font-family="Helvetica,sans-Serif" font-size="10.00">/Users/jonathan/Works</text>
<text text-anchor="start" x="986.12" y="-28.25" font-family="Helvetica,sans-Serif" font-size="10.00">/Tools/Triton/src/libtriton</text>
<text text-anchor="start" x="986.12" y="-17" font-family="Helvetica,sans-Serif" font-size="10.00">/bindings/python/namespaces</text>
<text text-anchor="middle" x="1052.88" y="-5.75" font-family="Helvetica,sans-Serif" font-size="10.00">/initConditionsNamespace.cpp</text>
</a>
</g>
</g>
<!-- Node1&#45;&gt;Node8 -->
<g id="edge7_Node000001_Node000008" class="edge">
<title>Node1&#45;&gt;Node8</title>
<g id="a_edge7_Node000001_Node000008"><a xlink:title=" ">
<path fill="none" stroke="#63b8ff" d="M2844.77,-109.26C2513.25,-109.94 1469.24,-107.59 1136.88,-53 1133.87,-52.51 1130.82,-51.93 1127.75,-51.3"/>
<polygon fill="#63b8ff" stroke="#63b8ff" points="2844.76,-112.76 2854.75,-109.23 2844.74,-105.76 2844.76,-112.76"/>
</a>
</g>
</g>
<!-- Node9 -->
<g id="Node000009" class="node">
<title>Node9</title>
<g id="a_Node000009"><a xlink:href="initCpuSizeNamespace_8cpp.html" target="_top" xlink:title=" ">
<polygon fill="white" stroke="#666666" points="1291.75,-53 1146,-53 1146,0 1291.75,0 1291.75,-53"/>
<text text-anchor="start" x="1154" y="-39.5" font-family="Helvetica,sans-Serif" font-size="10.00">/Users/jonathan/Works</text>
<text text-anchor="start" x="1154" y="-28.25" font-family="Helvetica,sans-Serif" font-size="10.00">/Tools/Triton/src/libtriton</text>
<text text-anchor="start" x="1154" y="-17" font-family="Helvetica,sans-Serif" font-size="10.00">/bindings/python/namespaces</text>
<text text-anchor="middle" x="1218.88" y="-5.75" font-family="Helvetica,sans-Serif" font-size="10.00">/initCpuSizeNamespace.cpp</text>
</a>
</g>
</g>
<!-- Node1&#45;&gt;Node9 -->
<g id="edge8_Node000001_Node000009" class="edge">
<title>Node1&#45;&gt;Node9</title>
<g id="a_edge8_Node000001_Node000009"><a xlink:title=" ">
<path fill="none" stroke="#63b8ff" d="M2845.04,-108.98C2534.09,-108.72 1599.97,-103.64 1300.88,-53 1297.94,-52.5 1294.95,-51.93 1291.96,-51.29"/>
<polygon fill="#63b8ff" stroke="#63b8ff" points="2844.76,-112.47 2854.76,-108.98 2844.77,-105.47 2844.76,-112.47"/>
</a>
</g>
</g>
<!-- Node10 -->
<g id="Node000010" class="node">
<title>Node10</title>
<g id="a_Node000010"><a xlink:href="initExceptionNamespace_8cpp.html" target="_top" xlink:title=" ">
<polygon fill="white" stroke="#666666" points="1456.12,-53 1309.62,-53 1309.62,0 1456.12,0 1456.12,-53"/>
<text text-anchor="start" x="1317.62" y="-39.5" font-family="Helvetica,sans-Serif" font-size="10.00">/Users/jonathan/Works</text>
<text text-anchor="start" x="1317.62" y="-28.25" font-family="Helvetica,sans-Serif" font-size="10.00">/Tools/Triton/src/libtriton</text>
<text text-anchor="start" x="1317.62" y="-17" font-family="Helvetica,sans-Serif" font-size="10.00">/bindings/python/namespaces</text>
<text text-anchor="middle" x="1382.88" y="-5.75" font-family="Helvetica,sans-Serif" font-size="10.00">/initExceptionNamespace.cpp</text>
</a>
</g>
</g>
<!-- Node1&#45;&gt;Node10 -->
<g id="edge9_Node000001_Node000010" class="edge">
<title>Node1&#45;&gt;Node10</title>
<g id="a_edge9_Node000001_Node000010"><a xlink:title=" ">
<path fill="none" stroke="#63b8ff" d="M2845.09,-108.52C2555.52,-106.97 1730.96,-98.56 1464.88,-53 1462.08,-52.52 1459.25,-51.97 1456.41,-51.37"/>
<polygon fill="#63b8ff" stroke="#63b8ff" points="2844.87,-112.02 2854.89,-108.57 2844.91,-105.02 2844.87,-112.02"/>
</a>
</g>
</g>
<!-- Node11 -->
<g id="Node000011" class="node">
<title>Node11</title>
<g id="a_Node000011"><a xlink:href="initExtendNamespace_8cpp.html" target="_top" xlink:title=" ">
<polygon fill="white" stroke="#666666" points="1619.75,-53 1474,-53 1474,0 1619.75,0 1619.75,-53"/>
<text text-anchor="start" x="1482" y="-39.5" font-family="Helvetica,sans-Serif" font-size="10.00">/Users/jonathan/Works</text>
<text text-anchor="start" x="1482" y="-28.25" font-family="Helvetica,sans-Serif" font-size="10.00">/Tools/Triton/src/libtriton</text>
<text text-anchor="start" x="1482" y="-17" font-family="Helvetica,sans-Serif" font-size="10.00">/bindings/python/namespaces</text>
<text text-anchor="middle" x="1546.88" y="-5.75" font-family="Helvetica,sans-Serif" font-size="10.00">/initExtendNamespace.cpp</text>
</a>
</g>
</g>
<!-- Node1&#45;&gt;Node11 -->
<g id="edge10_Node000001_Node000011" class="edge">
<title>Node1&#45;&gt;Node11</title>
<g id="a_edge10_Node000001_Node000011"><a xlink:title=" ">
<path fill="none" stroke="#63b8ff" d="M2845.32,-107.97C2578.49,-105.03 1862.17,-93.51 1628.88,-53 1625.94,-52.49 1622.96,-51.9 1619.96,-51.26"/>
<polygon fill="#63b8ff" stroke="#63b8ff" points="2844.98,-111.46 2855.02,-108.07 2845.06,-104.46 2844.98,-111.46"/>
</a>
</g>
</g>
<!-- Node12 -->
<g id="Node000012" class="node">
<title>Node12</title>
<g id="a_Node000012"><a xlink:href="initModeNamespace_8cpp.html" target="_top" xlink:title=" ">
<polygon fill="white" stroke="#666666" points="1783.75,-53 1638,-53 1638,0 1783.75,0 1783.75,-53"/>
<text text-anchor="start" x="1646" y="-39.5" font-family="Helvetica,sans-Serif" font-size="10.00">/Users/jonathan/Works</text>
<text text-anchor="start" x="1646" y="-28.25" font-family="Helvetica,sans-Serif" font-size="10.00">/Tools/Triton/src/libtriton</text>
<text text-anchor="start" x="1646" y="-17" font-family="Helvetica,sans-Serif" font-size="10.00">/bindings/python/namespaces</text>
<text text-anchor="middle" x="1710.88" y="-5.75" font-family="Helvetica,sans-Serif" font-size="10.00">/initModeNamespace.cpp</text>
</a>
</g>
</g>
<!-- Node1&#45;&gt;Node12 -->
<g id="edge11_Node000001_Node000012" class="edge">
<title>Node1&#45;&gt;Node12</title>
<g id="a_edge11_Node000001_Node000012"><a xlink:title=" ">
<path fill="none" stroke="#63b8ff" d="M2845.29,-107.25C2602.42,-102.83 1993.51,-88.46 1792.88,-53 1789.94,-52.48 1786.96,-51.89 1783.97,-51.23"/>
<polygon fill="#63b8ff" stroke="#63b8ff" points="2845,-110.74 2855.06,-107.42 2845.12,-103.74 2845,-110.74"/>
</a>
</g>
</g>
<!-- Node13 -->
<g id="Node000013" class="node">
<title>Node13</title>
<g id="a_Node000013"><a xlink:href="initOpcodesNamespace_8cpp.html" target="_top" xlink:title=" ">
<polygon fill="white" stroke="#666666" points="1947.75,-53 1802,-53 1802,0 1947.75,0 1947.75,-53"/>
<text text-anchor="start" x="1810" y="-39.5" font-family="Helvetica,sans-Serif" font-size="10.00">/Users/jonathan/Works</text>
<text text-anchor="start" x="1810" y="-28.25" font-family="Helvetica,sans-Serif" font-size="10.00">/Tools/Triton/src/libtriton</text>
<text text-anchor="start" x="1810" y="-17" font-family="Helvetica,sans-Serif" font-size="10.00">/bindings/python/namespaces</text>
<text text-anchor="middle" x="1874.88" y="-5.75" font-family="Helvetica,sans-Serif" font-size="10.00">/initOpcodesNamespace.cpp</text>
</a>
</g>
</g>
<!-- Node1&#45;&gt;Node13 -->
<g id="edge12_Node000001_Node000013" class="edge">
<title>Node1&#45;&gt;Node13</title>
<g id="a_edge12_Node000001_Node000013"><a xlink:title=" ">
<path fill="none" stroke="#63b8ff" d="M2845.16,-106.29C2627.98,-100.27 2125.07,-83.42 1956.88,-53 1953.94,-52.47 1950.96,-51.87 1947.97,-51.2"/>
<polygon fill="#63b8ff" stroke="#63b8ff" points="2844.93,-109.79 2855.03,-106.57 2845.13,-102.79 2844.93,-109.79"/>
</a>
</g>
</g>
<!-- Node14 -->
<g id="Node000014" class="node">
<title>Node14</title>
<g id="a_Node000014"><a xlink:href="initOperandNamespace_8cpp.html" target="_top" xlink:title=" ">
<polygon fill="white" stroke="#666666" points="2111.75,-53 1966,-53 1966,0 2111.75,0 2111.75,-53"/>
<text text-anchor="start" x="1974" y="-39.5" font-family="Helvetica,sans-Serif" font-size="10.00">/Users/jonathan/Works</text>
<text text-anchor="start" x="1974" y="-28.25" font-family="Helvetica,sans-Serif" font-size="10.00">/Tools/Triton/src/libtriton</text>
<text text-anchor="start" x="1974" y="-17" font-family="Helvetica,sans-Serif" font-size="10.00">/bindings/python/namespaces</text>
<text text-anchor="middle" x="2038.88" y="-5.75" font-family="Helvetica,sans-Serif" font-size="10.00">/initOperandNamespace.cpp</text>
</a>
</g>
</g>
<!-- Node1&#45;&gt;Node14 -->
<g id="edge13_Node000001_Node000014" class="edge">
<title>Node1&#45;&gt;Node14</title>
<g id="a_edge13_Node000001_Node000014"><a xlink:title=" ">
<path fill="none" stroke="#63b8ff" d="M2844.99,-109.6C2688.09,-109.02 2378.47,-101.08 2120.88,-53 2117.94,-52.45 2114.97,-51.84 2111.98,-51.16"/>
<polygon fill="#63b8ff" stroke="#63b8ff" points="2844.96,-113.1 2854.97,-109.63 2844.98,-106.1 2844.96,-113.1"/>
</a>
</g>
</g>
<!-- Node15 -->
<g id="Node000015" class="node">
<title>Node15</title>
<g id="a_Node000015"><a xlink:href="initPrefixesNamespace_8cpp.html" target="_top" xlink:title=" ">
<polygon fill="white" stroke="#666666" points="2275.75,-53 2130,-53 2130,0 2275.75,0 2275.75,-53"/>
<text text-anchor="start" x="2138" y="-39.5" font-family="Helvetica,sans-Serif" font-size="10.00">/Users/jonathan/Works</text>
<text text-anchor="start" x="2138" y="-28.25" font-family="Helvetica,sans-Serif" font-size="10.00">/Tools/Triton/src/libtriton</text>
<text text-anchor="start" x="2138" y="-17" font-family="Helvetica,sans-Serif" font-size="10.00">/bindings/python/namespaces</text>
<text text-anchor="middle" x="2202.88" y="-5.75" font-family="Helvetica,sans-Serif" font-size="10.00">/initPrefixesNamespace.cpp</text>
</a>
</g>
</g>
<!-- Node1&#45;&gt;Node15 -->
<g id="edge14_Node000001_Node000015" class="edge">
<title>Node1&#45;&gt;Node15</title>
<g id="a_edge14_Node000001_Node000015"><a xlink:title=" ">
<path fill="none" stroke="#63b8ff" d="M2845.18,-107.13C2714.4,-103.33 2480.8,-91.26 2284.88,-53 2281.95,-52.43 2278.98,-51.79 2275.99,-51.1"/>
<polygon fill="#63b8ff" stroke="#63b8ff" points="2844.74,-110.62 2854.83,-107.4 2844.93,-103.62 2844.74,-110.62"/>
</a>
</g>
</g>
<!-- Node16 -->
<g id="Node000016" class="node">
<title>Node16</title>
<g id="a_Node000016"><a xlink:href="initRegNamespace_8cpp.html" target="_top" xlink:title=" ">
<polygon fill="white" stroke="#666666" points="2439.75,-53 2294,-53 2294,0 2439.75,0 2439.75,-53"/>
<text text-anchor="start" x="2302" y="-39.5" font-family="Helvetica,sans-Serif" font-size="10.00">/Users/jonathan/Works</text>
<text text-anchor="start" x="2302" y="-28.25" font-family="Helvetica,sans-Serif" font-size="10.00">/Tools/Triton/src/libtriton</text>
<text text-anchor="start" x="2302" y="-17" font-family="Helvetica,sans-Serif" font-size="10.00">/bindings/python/namespaces</text>
<text text-anchor="middle" x="2366.88" y="-5.75" font-family="Helvetica,sans-Serif" font-size="10.00">/initRegNamespace.cpp</text>
</a>
</g>
</g>
<!-- Node1&#45;&gt;Node16 -->
<g id="edge15_Node000001_Node000016" class="edge">
<title>Node1&#45;&gt;Node16</title>
<g id="a_edge15_Node000001_Node000016"><a xlink:title=" ">
<path fill="none" stroke="#63b8ff" d="M2845.1,-103.13C2743.82,-96.08 2584.36,-81.4 2448.88,-53 2445.96,-52.39 2442.99,-51.72 2440.01,-51"/>
<polygon fill="#63b8ff" stroke="#63b8ff" points="2844.82,-106.62 2855.04,-103.8 2845.3,-99.63 2844.82,-106.62"/>
</a>
</g>
</g>
<!-- Node17 -->
<g id="Node000017" class="node">
<title>Node17</title>
<g id="a_Node000017"><a xlink:href="initShiftsNamespace_8cpp.html" target="_top" xlink:title=" ">
<polygon fill="white" stroke="#666666" points="2603.75,-53 2458,-53 2458,0 2603.75,0 2603.75,-53"/>
<text text-anchor="start" x="2466" y="-39.5" font-family="Helvetica,sans-Serif" font-size="10.00">/Users/jonathan/Works</text>
<text text-anchor="start" x="2466" y="-28.25" font-family="Helvetica,sans-Serif" font-size="10.00">/Tools/Triton/src/libtriton</text>
<text text-anchor="start" x="2466" y="-17" font-family="Helvetica,sans-Serif" font-size="10.00">/bindings/python/namespaces</text>
<text text-anchor="middle" x="2530.88" y="-5.75" font-family="Helvetica,sans-Serif" font-size="10.00">/initShiftsNamespace.cpp</text>
</a>
</g>
</g>
<!-- Node1&#45;&gt;Node17 -->
<g id="edge16_Node000001_Node000017" class="edge">
<title>Node1&#45;&gt;Node17</title>
<g id="a_edge16_Node000001_Node000017"><a xlink:title=" ">
<path fill="none" stroke="#63b8ff" d="M2845.23,-95.53C2778.67,-85.9 2690.06,-71.37 2612.88,-53 2609.97,-52.31 2607.03,-51.57 2604.06,-50.8"/>
<polygon fill="#63b8ff" stroke="#63b8ff" points="2844.65,-98.98 2855.05,-96.94 2845.65,-92.05 2844.65,-98.98"/>
</a>
</g>
</g>
<!-- Node18 -->
<g id="Node000018" class="node">
<title>Node18</title>
<g id="a_Node000018"><a xlink:href="initSolverNamespace_8cpp.html" target="_top" xlink:title=" ">
<polygon fill="white" stroke="#666666" points="2767.75,-53 2622,-53 2622,0 2767.75,0 2767.75,-53"/>
<text text-anchor="start" x="2630" y="-39.5" font-family="Helvetica,sans-Serif" font-size="10.00">/Users/jonathan/Works</text>
<text text-anchor="start" x="2630" y="-28.25" font-family="Helvetica,sans-Serif" font-size="10.00">/Tools/Triton/src/libtriton</text>
<text text-anchor="start" x="2630" y="-17" font-family="Helvetica,sans-Serif" font-size="10.00">/bindings/python/namespaces</text>
<text text-anchor="middle" x="2694.88" y="-5.75" font-family="Helvetica,sans-Serif" font-size="10.00">/initSolverNamespace.cpp</text>
</a>
</g>
</g>
<!-- Node1&#45;&gt;Node18 -->
<g id="edge17_Node000001_Node000018" class="edge">
<title>Node1&#45;&gt;Node18</title>
<g id="a_edge17_Node000001_Node000018"><a xlink:title=" ">
<path fill="none" stroke="#63b8ff" d="M2873.4,-85.15C2840.29,-74.46 2801.27,-61.86 2768.18,-51.17"/>
<polygon fill="#63b8ff" stroke="#63b8ff" points="2871.9,-88.34 2882.49,-88.09 2874.05,-81.68 2871.9,-88.34"/>
</a>
</g>
</g>
<!-- Node19 -->
<g id="Node000019" class="node">
<title>Node19</title>
<g id="a_Node000019"><a xlink:href="initSolverStateNamespace_8cpp.html" target="_top" xlink:title=" ">
<polygon fill="white" stroke="#666666" points="2939.88,-53 2785.88,-53 2785.88,0 2939.88,0 2939.88,-53"/>
<text text-anchor="start" x="2793.88" y="-39.5" font-family="Helvetica,sans-Serif" font-size="10.00">/Users/jonathan/Works</text>
<text text-anchor="start" x="2793.88" y="-28.25" font-family="Helvetica,sans-Serif" font-size="10.00">/Tools/Triton/src/libtriton</text>
<text text-anchor="start" x="2793.88" y="-17" font-family="Helvetica,sans-Serif" font-size="10.00">/bindings/python/namespaces</text>
<text text-anchor="middle" x="2862.88" y="-5.75" font-family="Helvetica,sans-Serif" font-size="10.00">/initSolverStateNamespace.cpp</text>
</a>
</g>
</g>
<!-- Node1&#45;&gt;Node19 -->
<g id="edge18_Node000001_Node000019" class="edge">
<title>Node1&#45;&gt;Node19</title>
<g id="a_edge18_Node000001_Node000019"><a xlink:title=" ">
<path fill="none" stroke="#63b8ff" d="M2917.94,-80.84C2908.69,-71.89 2898.51,-62.02 2889.44,-53.23"/>
<polygon fill="#63b8ff" stroke="#63b8ff" points="2915.41,-83.26 2925.02,-87.71 2920.28,-78.23 2915.41,-83.26"/>
</a>
</g>
</g>
<!-- Node20 -->
<g id="Node000020" class="node">
<title>Node20</title>
<g id="a_Node000020"><a xlink:href="initStubsNamespace_8cpp.html" target="_top" xlink:title=" ">
<polygon fill="white" stroke="#666666" points="3103.75,-53 2958,-53 2958,0 3103.75,0 3103.75,-53"/>
<text text-anchor="start" x="2966" y="-39.5" font-family="Helvetica,sans-Serif" font-size="10.00">/Users/jonathan/Works</text>
<text text-anchor="start" x="2966" y="-28.25" font-family="Helvetica,sans-Serif" font-size="10.00">/Tools/Triton/src/libtriton</text>
<text text-anchor="start" x="2966" y="-17" font-family="Helvetica,sans-Serif" font-size="10.00">/bindings/python/namespaces</text>
<text text-anchor="middle" x="3030.88" y="-5.75" font-family="Helvetica,sans-Serif" font-size="10.00">/initStubsNamespace.cpp</text>
</a>
</g>
</g>
<!-- Node1&#45;&gt;Node20 -->
<g id="edge19_Node000001_Node000020" class="edge">
<title>Node1&#45;&gt;Node20</title>
<g id="a_edge19_Node000001_Node000020"><a xlink:title=" ">
<path fill="none" stroke="#63b8ff" d="M2975.81,-80.84C2985.06,-71.89 2995.24,-62.02 3004.31,-53.23"/>
<polygon fill="#63b8ff" stroke="#63b8ff" points="2973.47,-78.23 2968.73,-87.71 2978.34,-83.26 2973.47,-78.23"/>
</a>
</g>
</g>
<!-- Node21 -->
<g id="Node000021" class="node">
<title>Node21</title>
<g id="a_Node000021"><a xlink:href="initSymbolicNamespace_8cpp.html" target="_top" xlink:title=" ">
<polygon fill="white" stroke="#666666" points="3267.75,-53 3122,-53 3122,0 3267.75,0 3267.75,-53"/>
<text text-anchor="start" x="3130" y="-39.5" font-family="Helvetica,sans-Serif" font-size="10.00">/Users/jonathan/Works</text>
<text text-anchor="start" x="3130" y="-28.25" font-family="Helvetica,sans-Serif" font-size="10.00">/Tools/Triton/src/libtriton</text>
<text text-anchor="start" x="3130" y="-17" font-family="Helvetica,sans-Serif" font-size="10.00">/bindings/python/namespaces</text>
<text text-anchor="middle" x="3194.88" y="-5.75" font-family="Helvetica,sans-Serif" font-size="10.00">/initSymbolicNamespace.cpp</text>
</a>
</g>
</g>
<!-- Node1&#45;&gt;Node21 -->
<g id="edge20_Node000001_Node000021" class="edge">
<title>Node1&#45;&gt;Node21</title>
<g id="a_edge20_Node000001_Node000021"><a xlink:title=" ">
<path fill="none" stroke="#63b8ff" d="M3019.51,-85.04C3051.73,-74.47 3089.57,-62.05 3121.84,-51.47"/>
<polygon fill="#63b8ff" stroke="#63b8ff" points="3018.66,-81.64 3010.25,-88.08 3020.85,-88.29 3018.66,-81.64"/>
</a>
</g>
</g>
<!-- Node22 -->
<g id="Node000022" class="node">
<title>Node22</title>
<g id="a_Node000022"><a xlink:href="initVASNamespace_8cpp.html" target="_top" xlink:title=" ">
<polygon fill="white" stroke="#666666" points="3431.75,-53 3286,-53 3286,0 3431.75,0 3431.75,-53"/>
<text text-anchor="start" x="3294" y="-39.5" font-family="Helvetica,sans-Serif" font-size="10.00">/Users/jonathan/Works</text>
<text text-anchor="start" x="3294" y="-28.25" font-family="Helvetica,sans-Serif" font-size="10.00">/Tools/Triton/src/libtriton</text>
<text text-anchor="start" x="3294" y="-17" font-family="Helvetica,sans-Serif" font-size="10.00">/bindings/python/namespaces</text>
<text text-anchor="middle" x="3358.88" y="-5.75" font-family="Helvetica,sans-Serif" font-size="10.00">/initVASNamespace.cpp</text>
</a>
</g>
</g>
<!-- Node1&#45;&gt;Node22 -->
<g id="edge21_Node000001_Node000022" class="edge">
<title>Node1&#45;&gt;Node22</title>
<g id="a_edge21_Node000001_Node000022"><a xlink:title=" ">
<path fill="none" stroke="#63b8ff" d="M3048.34,-95.28C3113.97,-85.61 3201.01,-71.13 3276.88,-53 3279.78,-52.31 3282.72,-51.57 3285.69,-50.79"/>
<polygon fill="#63b8ff" stroke="#63b8ff" points="3048.06,-91.79 3038.67,-96.7 3049.07,-98.71 3048.06,-91.79"/>
</a>
</g>
</g>
<!-- Node23 -->
<g id="Node000023" class="node">
<title>Node23</title>
<g id="a_Node000023"><a xlink:href="initVersionNamespace_8cpp.html" target="_top" xlink:title=" ">
<polygon fill="white" stroke="#666666" points="3595.75,-53 3450,-53 3450,0 3595.75,0 3595.75,-53"/>
<text text-anchor="start" x="3458" y="-39.5" font-family="Helvetica,sans-Serif" font-size="10.00">/Users/jonathan/Works</text>
<text text-anchor="start" x="3458" y="-28.25" font-family="Helvetica,sans-Serif" font-size="10.00">/Tools/Triton/src/libtriton</text>
<text text-anchor="start" x="3458" y="-17" font-family="Helvetica,sans-Serif" font-size="10.00">/bindings/python/namespaces</text>
<text text-anchor="middle" x="3522.88" y="-5.75" font-family="Helvetica,sans-Serif" font-size="10.00">/initVersionNamespace.cpp</text>
</a>
</g>
</g>
<!-- Node1&#45;&gt;Node23 -->
<g id="edge22_Node000001_Node000023" class="edge">
<title>Node1&#45;&gt;Node23</title>
<g id="a_edge22_Node000001_Node000023"><a xlink:title=" ">
<path fill="none" stroke="#63b8ff" d="M3048.74,-102.99C3149.26,-95.87 3306.88,-81.15 3440.88,-53 3443.79,-52.39 3446.76,-51.71 3449.74,-50.99"/>
<polygon fill="#63b8ff" stroke="#63b8ff" points="3048.62,-99.49 3038.89,-103.68 3049.11,-106.47 3048.62,-99.49"/>
</a>
</g>
</g>
<!-- Node24 -->
<g id="Node000024" class="node">
<title>Node24</title>
<g id="a_Node000024"><a xlink:href="pyAstContext_8cpp.html" target="_top" xlink:title=" ">
<polygon fill="white" stroke="#666666" points="3735.75,-53 3614,-53 3614,0 3735.75,0 3735.75,-53"/>
<text text-anchor="start" x="3622" y="-39.5" font-family="Helvetica,sans-Serif" font-size="10.00">/Users/jonathan/Works</text>
<text text-anchor="start" x="3622" y="-28.25" font-family="Helvetica,sans-Serif" font-size="10.00">/Tools/Triton/src/libtriton</text>
<text text-anchor="start" x="3622" y="-17" font-family="Helvetica,sans-Serif" font-size="10.00">/bindings/python/objects</text>
<text text-anchor="middle" x="3674.88" y="-5.75" font-family="Helvetica,sans-Serif" font-size="10.00">/pyAstContext.cpp</text>
</a>
</g>
</g>
<!-- Node1&#45;&gt;Node24 -->
<g id="edge23_Node000001_Node000024" class="edge">
<title>Node1&#45;&gt;Node24</title>
<g id="a_edge23_Node000001_Node000024"><a xlink:title=" ">
<path fill="none" stroke="#63b8ff" d="M3048.54,-108.53C3178.9,-106.21 3411.23,-95.7 3604.88,-53 3607.78,-52.36 3610.73,-51.63 3613.69,-50.83"/>
<polygon fill="#63b8ff" stroke="#63b8ff" points="3048.86,-105.02 3038.92,-108.69 3048.97,-112.02 3048.86,-105.02"/>
</a>
</g>
</g>
<!-- Node25 -->
<g id="Node000025" class="node">
<title>Node25</title>
<g id="a_Node000025"><a xlink:href="pyAstNode_8cpp.html" target="_top" xlink:title=" ">
<polygon fill="white" stroke="#666666" points="3875.75,-53 3754,-53 3754,0 3875.75,0 3875.75,-53"/>
<text text-anchor="start" x="3762" y="-39.5" font-family="Helvetica,sans-Serif" font-size="10.00">/Users/jonathan/Works</text>
<text text-anchor="start" x="3762" y="-28.25" font-family="Helvetica,sans-Serif" font-size="10.00">/Tools/Triton/src/libtriton</text>
<text text-anchor="start" x="3762" y="-17" font-family="Helvetica,sans-Serif" font-size="10.00">/bindings/python/objects</text>
<text text-anchor="middle" x="3814.88" y="-5.75" font-family="Helvetica,sans-Serif" font-size="10.00">/pyAstNode.cpp</text>
</a>
</g>
</g>
<!-- Node1&#45;&gt;Node25 -->
<g id="edge24_Node000001_Node000025" class="edge">
<title>Node1&#45;&gt;Node25</title>
<g id="a_edge24_Node000001_Node000025"><a xlink:title=" ">
<path fill="none" stroke="#63b8ff" d="M3048.58,-105.29C3232.83,-98.21 3614.81,-80.67 3744.88,-53 3747.78,-52.38 3750.74,-51.67 3753.7,-50.88"/>
<polygon fill="#63b8ff" stroke="#63b8ff" points="3048.64,-101.79 3038.78,-105.66 3048.91,-108.78 3048.64,-101.79"/>
</a>
</g>
</g>
<!-- Node26 -->
<g id="Node000026" class="node">
<title>Node26</title>
<g id="a_Node000026"><a xlink:href="pyBasicBlock_8cpp.html" target="_top" xlink:title=" ">
<polygon fill="white" stroke="#666666" points="4015.75,-53 3894,-53 3894,0 4015.75,0 4015.75,-53"/>
<text text-anchor="start" x="3902" y="-39.5" font-family="Helvetica,sans-Serif" font-size="10.00">/Users/jonathan/Works</text>
<text text-anchor="start" x="3902" y="-28.25" font-family="Helvetica,sans-Serif" font-size="10.00">/Tools/Triton/src/libtriton</text>
<text text-anchor="start" x="3902" y="-17" font-family="Helvetica,sans-Serif" font-size="10.00">/bindings/python/objects</text>
<text text-anchor="middle" x="3954.88" y="-5.75" font-family="Helvetica,sans-Serif" font-size="10.00">/pyBasicBlock.cpp</text>
</a>
</g>
</g>
<!-- Node1&#45;&gt;Node26 -->
<g id="edge25_Node000001_Node000026" class="edge">
<title>Node1&#45;&gt;Node26</title>
<g id="a_edge25_Node000001_Node000026"><a xlink:title=" ">
<path fill="none" stroke="#63b8ff" d="M3048.69,-106.53C3257.47,-101.1 3727.63,-85.6 3884.88,-53 3887.79,-52.4 3890.74,-51.69 3893.71,-50.92"/>
<polygon fill="#63b8ff" stroke="#63b8ff" points="3048.86,-103.02 3038.95,-106.78 3049.04,-110.02 3048.86,-103.02"/>
</a>
</g>
</g>
<!-- Node27 -->
<g id="Node000027" class="node">
<title>Node27</title>
<g id="a_Node000027"><a xlink:href="pyBitsVector_8cpp.html" target="_top" xlink:title=" ">
<polygon fill="white" stroke="#666666" points="4155.75,-53 4034,-53 4034,0 4155.75,0 4155.75,-53"/>
<text text-anchor="start" x="4042" y="-39.5" font-family="Helvetica,sans-Serif" font-size="10.00">/Users/jonathan/Works</text>
<text text-anchor="start" x="4042" y="-28.25" font-family="Helvetica,sans-Serif" font-size="10.00">/Tools/Triton/src/libtriton</text>
<text text-anchor="start" x="4042" y="-17" font-family="Helvetica,sans-Serif" font-size="10.00">/bindings/python/objects</text>
<text text-anchor="middle" x="4094.88" y="-5.75" font-family="Helvetica,sans-Serif" font-size="10.00">/pyBitsVector.cpp</text>
</a>
</g>
</g>
<!-- Node1&#45;&gt;Node27 -->
<g id="edge26_Node000001_Node000027" class="edge">
<title>Node1&#45;&gt;Node27</title>
<g id="a_edge26_Node000001_Node000027"><a xlink:title=" ">
<path fill="none" stroke="#63b8ff" d="M3048.85,-107.45C3280.43,-103.58 3840.21,-90.54 4024.88,-53 4027.79,-52.41 4030.75,-51.72 4033.71,-50.95"/>
<polygon fill="#63b8ff" stroke="#63b8ff" points="3048.86,-103.95 3038.92,-107.61 3048.97,-110.95 3048.86,-103.95"/>
</a>
</g>
</g>
<!-- Node28 -->
<g id="Node000028" class="node">
<title>Node28</title>
<g id="a_Node000028"><a xlink:href="pyImmediate_8cpp.html" target="_top" xlink:title=" ">
<polygon fill="white" stroke="#666666" points="4295.75,-53 4174,-53 4174,0 4295.75,0 4295.75,-53"/>
<text text-anchor="start" x="4182" y="-39.5" font-family="Helvetica,sans-Serif" font-size="10.00">/Users/jonathan/Works</text>
<text text-anchor="start" x="4182" y="-28.25" font-family="Helvetica,sans-Serif" font-size="10.00">/Tools/Triton/src/libtriton</text>
<text text-anchor="start" x="4182" y="-17" font-family="Helvetica,sans-Serif" font-size="10.00">/bindings/python/objects</text>
<text text-anchor="middle" x="4234.88" y="-5.75" font-family="Helvetica,sans-Serif" font-size="10.00">/pyImmediate.cpp</text>
</a>
</g>
</g>
<!-- Node1&#45;&gt;Node28 -->
<g id="edge27_Node000001_Node000028" class="edge">
<title>Node1&#45;&gt;Node28</title>
<g id="a_edge27_Node000001_Node000028"><a xlink:title=" ">
<path fill="none" stroke="#63b8ff" d="M3048.76,-108.16C3301.58,-105.76 3952.53,-95.51 4164.88,-53 4167.79,-52.42 4170.75,-51.73 4173.72,-50.97"/>
<polygon fill="#63b8ff" stroke="#63b8ff" points="3048.87,-104.66 3038.9,-108.25 3048.94,-111.66 3048.87,-104.66"/>
</a>
</g>
</g>
<!-- Node29 -->
<g id="Node000029" class="node">
<title>Node29</title>
<g id="a_Node000029"><a xlink:href="pyInstruction_8cpp.html" target="_top" xlink:title=" ">
<polygon fill="white" stroke="#666666" points="4435.75,-53 4314,-53 4314,0 4435.75,0 4435.75,-53"/>
<text text-anchor="start" x="4322" y="-39.5" font-family="Helvetica,sans-Serif" font-size="10.00">/Users/jonathan/Works</text>
<text text-anchor="start" x="4322" y="-28.25" font-family="Helvetica,sans-Serif" font-size="10.00">/Tools/Triton/src/libtriton</text>
<text text-anchor="start" x="4322" y="-17" font-family="Helvetica,sans-Serif" font-size="10.00">/bindings/python/objects</text>
<text text-anchor="middle" x="4374.88" y="-5.75" font-family="Helvetica,sans-Serif" font-size="10.00">/pyInstruction.cpp</text>
</a>
</g>
</g>
<!-- Node1&#45;&gt;Node29 -->
<g id="edge28_Node000001_Node000029" class="edge">
<title>Node1&#45;&gt;Node29</title>
<g id="a_edge28_Node000001_Node000029"><a xlink:title=" ">
<path fill="none" stroke="#63b8ff" d="M3048.7,-108.73C3321.55,-107.71 4064.69,-100.5 4304.88,-53 4307.79,-52.42 4310.75,-51.74 4313.72,-50.99"/>
<polygon fill="#63b8ff" stroke="#63b8ff" points="3048.73,-105.23 3038.75,-108.77 3048.76,-112.23 3048.73,-105.23"/>
</a>
</g>
</g>
<!-- Node30 -->
<g id="Node000030" class="node">
<title>Node30</title>
<g id="a_Node000030"><a xlink:href="pyMemoryAccess_8cpp.html" target="_top" xlink:title=" ">
<polygon fill="white" stroke="#666666" points="4575.75,-53 4454,-53 4454,0 4575.75,0 4575.75,-53"/>
<text text-anchor="start" x="4462" y="-39.5" font-family="Helvetica,sans-Serif" font-size="10.00">/Users/jonathan/Works</text>
<text text-anchor="start" x="4462" y="-28.25" font-family="Helvetica,sans-Serif" font-size="10.00">/Tools/Triton/src/libtriton</text>
<text text-anchor="start" x="4462" y="-17" font-family="Helvetica,sans-Serif" font-size="10.00">/bindings/python/objects</text>
<text text-anchor="middle" x="4514.88" y="-5.75" font-family="Helvetica,sans-Serif" font-size="10.00">/pyMemoryAccess.cpp</text>
</a>
</g>
</g>
<!-- Node1&#45;&gt;Node30 -->
<g id="edge29_Node000001_Node000030" class="edge">
<title>Node1&#45;&gt;Node30</title>
<g id="a_edge29_Node000001_Node000030"><a xlink:title=" ">
<path fill="none" stroke="#63b8ff" d="M3048.85,-109.2C3340.91,-109.46 4176.77,-105.48 4444.88,-53 4447.79,-52.43 4450.75,-51.75 4453.72,-51"/>
<polygon fill="#63b8ff" stroke="#63b8ff" points="3048.95,-105.7 3038.95,-109.19 3048.94,-112.7 3048.95,-105.7"/>
</a>
</g>
</g>
<!-- Node31 -->
<g id="Node000031" class="node">
<title>Node31</title>
<g id="a_Node000031"><a xlink:href="pyPathConstraint_8cpp.html" target="_top" xlink:title=" ">
<polygon fill="white" stroke="#666666" points="4715.75,-53 4594,-53 4594,0 4715.75,0 4715.75,-53"/>
<text text-anchor="start" x="4602" y="-39.5" font-family="Helvetica,sans-Serif" font-size="10.00">/Users/jonathan/Works</text>
<text text-anchor="start" x="4602" y="-28.25" font-family="Helvetica,sans-Serif" font-size="10.00">/Tools/Triton/src/libtriton</text>
<text text-anchor="start" x="4602" y="-17" font-family="Helvetica,sans-Serif" font-size="10.00">/bindings/python/objects</text>
<text text-anchor="middle" x="4654.88" y="-5.75" font-family="Helvetica,sans-Serif" font-size="10.00">/pyPathConstraint.cpp</text>
</a>
</g>
</g>
<!-- Node1&#45;&gt;Node31 -->
<g id="edge30_Node000001_Node000031" class="edge">
<title>Node1&#45;&gt;Node31</title>
<g id="a_edge30_Node000001_Node000031"><a xlink:title=" ">
<path fill="none" stroke="#63b8ff" d="M3048.5,-107.27C3382.7,-101.72 4434.83,-82.13 4584.88,-53 4587.8,-52.43 4590.76,-51.76 4593.73,-51.01"/>
<polygon fill="#63b8ff" stroke="#63b8ff" points="3048.85,-103.76 3038.91,-107.43 3048.97,-110.76 3048.85,-103.76"/>
</a>
</g>
</g>
<!-- Node32 -->
<g id="Node000032" class="node">
<title>Node32</title>
<g id="a_Node000032"><a xlink:href="pyRegister_8cpp.html" target="_top" xlink:title=" ">
<polygon fill="white" stroke="#666666" points="4855.75,-53 4734,-53 4734,0 4855.75,0 4855.75,-53"/>
<text text-anchor="start" x="4742" y="-39.5" font-family="Helvetica,sans-Serif" font-size="10.00">/Users/jonathan/Works</text>
<text text-anchor="start" x="4742" y="-28.25" font-family="Helvetica,sans-Serif" font-size="10.00">/Tools/Triton/src/libtriton</text>
<text text-anchor="start" x="4742" y="-17" font-family="Helvetica,sans-Serif" font-size="10.00">/bindings/python/objects</text>
<text text-anchor="middle" x="4794.88" y="-5.75" font-family="Helvetica,sans-Serif" font-size="10.00">/pyRegister.cpp</text>
</a>
</g>
</g>
<!-- Node1&#45;&gt;Node32 -->
<g id="edge31_Node000001_Node000032" class="edge">
<title>Node1&#45;&gt;Node32</title>
<g id="a_edge31_Node000001_Node000032"><a xlink:title=" ">
<path fill="none" stroke="#63b8ff" d="M3048.92,-107.56C3402.23,-102.73 4560.71,-84.64 4724.88,-53 4727.8,-52.44 4730.76,-51.77 4733.73,-51.02"/>
<polygon fill="#63b8ff" stroke="#63b8ff" points="3048.91,-104.06 3038.96,-107.69 3049.01,-111.06 3048.91,-104.06"/>
</a>
</g>
</g>
<!-- Node33 -->
<g id="Node000033" class="node">
<title>Node33</title>
<g id="a_Node000033"><a xlink:href="pySolverModel_8cpp.html" target="_top" xlink:title=" ">
<polygon fill="white" stroke="#666666" points="4995.75,-53 4874,-53 4874,0 4995.75,0 4995.75,-53"/>
<text text-anchor="start" x="4882" y="-39.5" font-family="Helvetica,sans-Serif" font-size="10.00">/Users/jonathan/Works</text>
<text text-anchor="start" x="4882" y="-28.25" font-family="Helvetica,sans-Serif" font-size="10.00">/Tools/Triton/src/libtriton</text>
<text text-anchor="start" x="4882" y="-17" font-family="Helvetica,sans-Serif" font-size="10.00">/bindings/python/objects</text>
<text text-anchor="middle" x="4934.88" y="-5.75" font-family="Helvetica,sans-Serif" font-size="10.00">/pySolverModel.cpp</text>
</a>
</g>
</g>
<!-- Node1&#45;&gt;Node33 -->
<g id="edge32_Node000001_Node000033" class="edge">
<title>Node1&#45;&gt;Node33</title>
<g id="a_edge32_Node000001_Node000033"><a xlink:title=" ">
<path fill="none" stroke="#63b8ff" d="M3048.73,-107.81C3419.74,-103.67 4686.47,-87.17 4864.88,-53 4867.8,-52.44 4870.76,-51.78 4873.73,-51.03"/>
<polygon fill="#63b8ff" stroke="#63b8ff" points="3048.97,-104.31 3039.01,-107.92 3049.05,-111.31 3048.97,-104.31"/>
</a>
</g>
</g>
<!-- Node34 -->
<g id="Node000034" class="node">
<title>Node34</title>
<g id="a_Node000034"><a xlink:href="pySymbolicExpression_8cpp.html" target="_top" xlink:title=" ">
<polygon fill="white" stroke="#666666" points="5151.62,-53 5014.12,-53 5014.12,0 5151.62,0 5151.62,-53"/>
<text text-anchor="start" x="5022.12" y="-39.5" font-family="Helvetica,sans-Serif" font-size="10.00">/Users/jonathan/Works</text>
<text text-anchor="start" x="5022.12" y="-28.25" font-family="Helvetica,sans-Serif" font-size="10.00">/Tools/Triton/src/libtriton</text>
<text text-anchor="start" x="5022.12" y="-17" font-family="Helvetica,sans-Serif" font-size="10.00">/bindings/python/objects</text>
<text text-anchor="middle" x="5082.88" y="-5.75" font-family="Helvetica,sans-Serif" font-size="10.00">/pySymbolicExpression.cpp</text>
</a>
</g>
</g>
<!-- Node1&#45;&gt;Node34 -->
<g id="edge33_Node000001_Node000034" class="edge">
<title>Node1&#45;&gt;Node34</title>
<g id="a_edge33_Node000001_Node000034"><a xlink:title=" ">
<path fill="none" stroke="#63b8ff" d="M3048.83,-107.83C3437.18,-103.62 4811.65,-86.48 5004.88,-53 5007.82,-52.49 5010.81,-51.89 5013.82,-51.22"/>
<polygon fill="#63b8ff" stroke="#63b8ff" points="3048.84,-104.33 3038.87,-107.94 3048.91,-111.33 3048.84,-104.33"/>
</a>
</g>
</g>
<!-- Node35 -->
<g id="Node000035" class="node">
<title>Node35</title>
<g id="a_Node000035"><a xlink:href="pySymbolicVariable_8cpp.html" target="_top" xlink:title=" ">
<polygon fill="white" stroke="#666666" points="5292.5,-53 5169.25,-53 5169.25,0 5292.5,0 5292.5,-53"/>
<text text-anchor="start" x="5177.25" y="-39.5" font-family="Helvetica,sans-Serif" font-size="10.00">/Users/jonathan/Works</text>
<text text-anchor="start" x="5177.25" y="-28.25" font-family="Helvetica,sans-Serif" font-size="10.00">/Tools/Triton/src/libtriton</text>
<text text-anchor="start" x="5177.25" y="-17" font-family="Helvetica,sans-Serif" font-size="10.00">/bindings/python/objects</text>
<text text-anchor="middle" x="5230.88" y="-5.75" font-family="Helvetica,sans-Serif" font-size="10.00">/pySymbolicVariable.cpp</text>
</a>
</g>
</g>
<!-- Node1&#45;&gt;Node35 -->
<g id="edge34_Node000001_Node000035" class="edge">
<title>Node1&#45;&gt;Node35</title>
<g id="a_edge34_Node000001_Node000035"><a xlink:title=" ">
<path fill="none" stroke="#63b8ff" d="M3048.69,-108.24C3455.48,-105.44 4952.27,-92.53 5160.88,-53 5163.54,-52.49 5166.25,-51.9 5168.96,-51.23"/>
<polygon fill="#63b8ff" stroke="#63b8ff" points="3048.75,-104.74 3038.77,-108.31 3048.8,-111.74 3048.75,-104.74"/>
</a>
</g>
</g>
<!-- Node36 -->
<g id="Node000036" class="node">
<title>Node36</title>
<g id="a_Node000036"><a xlink:href="pyTritonContext_8cpp.html" target="_top" xlink:title=" ">
<polygon fill="white" stroke="#666666" points="5432.75,-53 5311,-53 5311,0 5432.75,0 5432.75,-53"/>
<text text-anchor="start" x="5319" y="-39.5" font-family="Helvetica,sans-Serif" font-size="10.00">/Users/jonathan/Works</text>
<text text-anchor="start" x="5319" y="-28.25" font-family="Helvetica,sans-Serif" font-size="10.00">/Tools/Triton/src/libtriton</text>
<text text-anchor="start" x="5319" y="-17" font-family="Helvetica,sans-Serif" font-size="10.00">/bindings/python/objects</text>
<text text-anchor="middle" x="5371.88" y="-5.75" font-family="Helvetica,sans-Serif" font-size="10.00">/pyTritonContext.cpp</text>
</a>
</g>
</g>
<!-- Node1&#45;&gt;Node36 -->
<g id="edge35_Node000001_Node000036" class="edge">
<title>Node1&#45;&gt;Node36</title>
<g id="a_edge35_Node000001_Node000036"><a xlink:title=" ">
<path fill="none" stroke="#63b8ff" d="M3048.44,-108.41C3471.08,-106.2 5078.8,-95.1 5301.88,-53 5304.8,-52.45 5307.76,-51.79 5310.73,-51.05"/>
<polygon fill="#63b8ff" stroke="#63b8ff" points="3048.67,-104.91 3038.69,-108.46 3048.71,-111.91 3048.67,-104.91"/>
</a>
</g>
</g>
<!-- Node37 -->
<g id="Node000037" class="node">
<title>Node37</title>
<g id="a_Node000037"><a xlink:href="pyXFunctions_8cpp.html" target="_top" xlink:title=" ">
<polygon fill="white" stroke="#666666" points="5619.38,-47.38 5450.38,-47.38 5450.38,-5.62 5619.38,-5.62 5619.38,-47.38"/>
<text text-anchor="start" x="5458.38" y="-33.88" font-family="Helvetica,sans-Serif" font-size="10.00">/Users/jonathan/Works</text>
<text text-anchor="start" x="5458.38" y="-22.62" font-family="Helvetica,sans-Serif" font-size="10.00">/Tools/Triton/src/libtriton</text>
<text text-anchor="middle" x="5534.88" y="-11.38" font-family="Helvetica,sans-Serif" font-size="10.00">/bindings/python/pyXFunctions.cpp</text>
</a>
</g>
</g>
<!-- Node1&#45;&gt;Node37 -->
<g id="edge36_Node000001_Node000037" class="edge">
<title>Node1&#45;&gt;Node37</title>
<g id="a_edge36_Node000001_Node000037"><a xlink:title=" ">
<path fill="none" stroke="#63b8ff" d="M3048.52,-108.07C3486.69,-104.4 5202.84,-87.91 5441.88,-53 5450.49,-51.74 5459.44,-49.94 5468.24,-47.87"/>
<polygon fill="#63b8ff" stroke="#63b8ff" points="3048.65,-104.57 3038.68,-108.15 3048.71,-111.57 3048.65,-104.57"/>
</a>
</g>
</g>
</g>
</svg>
