<?xml version="1.0" encoding="UTF-8" standalone="no"?>
<!DOCTYPE svg PUBLIC "-//W3C//DTD SVG 1.1//EN"
 "http://www.w3.org/Graphics/SVG/1.1/DTD/svg11.dtd">
<!-- Generated by graphviz version 5.0.1 (20220820.1526)
 -->
<!-- Title: /home/jonathan/Works/Tools/Triton/src/libtriton/includes/triton/pythonUtils.hpp Pages: 1 -->
<svg width="5984pt" height="139pt"
 viewBox="0.00 0.00 5983.50 139.00" xmlns="http://www.w3.org/2000/svg" xmlns:xlink="http://www.w3.org/1999/xlink">
<g id="graph0" class="graph" transform="scale(1 1) rotate(0) translate(4 135)">
<title>/home/jonathan/Works/Tools/Triton/src/libtriton/includes/triton/pythonUtils.hpp</title>
<polygon fill="white" stroke="none" points="-4,4 -4,-135 5979.5,-135 5979.5,4 -4,4"/>
<!-- Node1 -->
<g id="node1" class="node">
<title>Node1</title>
<g id="a_node1"><a xlink:title=" ">
<polygon fill="#bfbfbf" stroke="black" points="3091.5,-89.5 3091.5,-130.5 3261.5,-130.5 3261.5,-89.5 3091.5,-89.5"/>
<text text-anchor="start" x="3099.5" y="-118.5" font-family="Helvetica,sans-Serif" font-size="10.00">/home/jonathan/Works</text>
<text text-anchor="start" x="3099.5" y="-107.5" font-family="Helvetica,sans-Serif" font-size="10.00">/Tools/Triton/src/libtriton</text>
<text text-anchor="middle" x="3176.5" y="-96.5" font-family="Helvetica,sans-Serif" font-size="10.00">/includes/triton/pythonUtils.hpp</text>
</a>
</g>
</g>
<!-- Node2 -->
<g id="node2" class="node">
<title>Node2</title>
<g id="a_node2"><a xlink:href="tritonCallbacks_8cpp.html" target="_top" xlink:title=" ">
<polygon fill="white" stroke="black" points="0,-0.5 0,-52.5 143,-52.5 143,-0.5 0,-0.5"/>
<text text-anchor="start" x="8" y="-40.5" font-family="Helvetica,sans-Serif" font-size="10.00">/home/jonathan/Works</text>
<text text-anchor="start" x="8" y="-29.5" font-family="Helvetica,sans-Serif" font-size="10.00">/Tools/Triton/src/libtriton</text>
<text text-anchor="start" x="8" y="-18.5" font-family="Helvetica,sans-Serif" font-size="10.00">/bindings/python/modules</text>
<text text-anchor="middle" x="71.5" y="-7.5" font-family="Helvetica,sans-Serif" font-size="10.00">/tritonCallbacks.cpp</text>
</a>
</g>
</g>
<!-- Node1&#45;&gt;Node2 -->
<g id="edge1" class="edge">
<title>Node1&#45;&gt;Node2</title>
<path fill="none" stroke="midnightblue" d="M3081.42,-108.86C2600.46,-107.92 446.85,-101.03 152.5,-53 149.44,-52.5 146.35,-51.91 143.23,-51.25"/>
<polygon fill="midnightblue" stroke="midnightblue" points="3081.45,-112.36 3091.45,-108.88 3081.46,-105.36 3081.45,-112.36"/>
</g>
<!-- Node3 -->
<g id="node3" class="node">
<title>Node3</title>
<g id="a_node3"><a xlink:href="initArchNamespace_8cpp.html" target="_top" xlink:title=" ">
<polygon fill="white" stroke="black" points="161.5,-0.5 161.5,-52.5 323.5,-52.5 323.5,-0.5 161.5,-0.5"/>
<text text-anchor="start" x="169.5" y="-40.5" font-family="Helvetica,sans-Serif" font-size="10.00">/home/jonathan/Works</text>
<text text-anchor="start" x="169.5" y="-29.5" font-family="Helvetica,sans-Serif" font-size="10.00">/Tools/Triton/src/libtriton</text>
<text text-anchor="start" x="169.5" y="-18.5" font-family="Helvetica,sans-Serif" font-size="10.00">/bindings/python/namespaces</text>
<text text-anchor="middle" x="242.5" y="-7.5" font-family="Helvetica,sans-Serif" font-size="10.00">/initArchNamespace.cpp</text>
</a>
</g>
</g>
<!-- Node1&#45;&gt;Node3 -->
<g id="edge2" class="edge">
<title>Node1&#45;&gt;Node3</title>
<path fill="none" stroke="midnightblue" d="M3081.13,-108.57C2617.33,-106.3 608.73,-94.15 332.5,-53 329.61,-52.57 326.68,-52.07 323.73,-51.52"/>
<polygon fill="midnightblue" stroke="midnightblue" points="3081.12,-112.07 3091.14,-108.62 3081.15,-105.07 3081.12,-112.07"/>
</g>
<!-- Node4 -->
<g id="node4" class="node">
<title>Node4</title>
<g id="a_node4"><a xlink:href="initAstNodeNamespace_8cpp.html" target="_top" xlink:title=" ">
<polygon fill="white" stroke="black" points="341.5,-0.5 341.5,-52.5 503.5,-52.5 503.5,-0.5 341.5,-0.5"/>
<text text-anchor="start" x="349.5" y="-40.5" font-family="Helvetica,sans-Serif" font-size="10.00">/home/jonathan/Works</text>
<text text-anchor="start" x="349.5" y="-29.5" font-family="Helvetica,sans-Serif" font-size="10.00">/Tools/Triton/src/libtriton</text>
<text text-anchor="start" x="349.5" y="-18.5" font-family="Helvetica,sans-Serif" font-size="10.00">/bindings/python/namespaces</text>
<text text-anchor="middle" x="422.5" y="-7.5" font-family="Helvetica,sans-Serif" font-size="10.00">/initAstNodeNamespace.cpp</text>
</a>
</g>
</g>
<!-- Node1&#45;&gt;Node4 -->
<g id="edge3" class="edge">
<title>Node1&#45;&gt;Node4</title>
<path fill="none" stroke="midnightblue" d="M3081.07,-108.44C2635.43,-105.61 770.04,-91.54 512.5,-53 509.61,-52.57 506.68,-52.07 503.73,-51.52"/>
<polygon fill="midnightblue" stroke="midnightblue" points="3081.31,-111.94 3091.33,-108.5 3081.35,-104.94 3081.31,-111.94"/>
</g>
<!-- Node5 -->
<g id="node5" class="node">
<title>Node5</title>
<g id="a_node5"><a xlink:href="initAstRepresentationNamespace_8cpp.html" target="_top" xlink:title=" ">
<polygon fill="white" stroke="black" points="522,-0.5 522,-52.5 725,-52.5 725,-0.5 522,-0.5"/>
<text text-anchor="start" x="530" y="-40.5" font-family="Helvetica,sans-Serif" font-size="10.00">/home/jonathan/Works</text>
<text text-anchor="start" x="530" y="-29.5" font-family="Helvetica,sans-Serif" font-size="10.00">/Tools/Triton/src/libtriton</text>
<text text-anchor="start" x="530" y="-18.5" font-family="Helvetica,sans-Serif" font-size="10.00">/bindings/python/namespaces</text>
<text text-anchor="middle" x="623.5" y="-7.5" font-family="Helvetica,sans-Serif" font-size="10.00">/initAstRepresentationNamespace.cpp</text>
</a>
</g>
</g>
<!-- Node1&#45;&gt;Node5 -->
<g id="edge4" class="edge">
<title>Node1&#45;&gt;Node5</title>
<path fill="none" stroke="midnightblue" d="M3081.31,-109.4C2689.58,-110.63 1200.74,-111.29 734.5,-53 731.46,-52.62 728.38,-52.19 725.28,-51.72"/>
<polygon fill="midnightblue" stroke="midnightblue" points="3081.48,-112.9 3091.47,-109.36 3081.46,-105.9 3081.48,-112.9"/>
</g>
<!-- Node6 -->
<g id="node6" class="node">
<title>Node6</title>
<g id="a_node6"><a xlink:href="initCallbackNamespace_8cpp.html" target="_top" xlink:title=" ">
<polygon fill="white" stroke="black" points="743.5,-0.5 743.5,-52.5 905.5,-52.5 905.5,-0.5 743.5,-0.5"/>
<text text-anchor="start" x="751.5" y="-40.5" font-family="Helvetica,sans-Serif" font-size="10.00">/home/jonathan/Works</text>
<text text-anchor="start" x="751.5" y="-29.5" font-family="Helvetica,sans-Serif" font-size="10.00">/Tools/Triton/src/libtriton</text>
<text text-anchor="start" x="751.5" y="-18.5" font-family="Helvetica,sans-Serif" font-size="10.00">/bindings/python/namespaces</text>
<text text-anchor="middle" x="824.5" y="-7.5" font-family="Helvetica,sans-Serif" font-size="10.00">/initCallbackNamespace.cpp</text>
</a>
</g>
</g>
<!-- Node1&#45;&gt;Node6 -->
<g id="edge5" class="edge">
<title>Node1&#45;&gt;Node6</title>
<path fill="none" stroke="midnightblue" d="M3081.3,-108.05C2679.18,-103.87 1130.5,-85.74 914.5,-53 911.61,-52.56 908.68,-52.06 905.73,-51.5"/>
<polygon fill="midnightblue" stroke="midnightblue" points="3081.41,-111.56 3091.44,-108.16 3081.48,-104.56 3081.41,-111.56"/>
</g>
<!-- Node7 -->
<g id="node7" class="node">
<title>Node7</title>
<g id="a_node7"><a xlink:href="initConditionsNamespace_8cpp.html" target="_top" xlink:title=" ">
<polygon fill="white" stroke="black" points="924,-0.5 924,-52.5 1089,-52.5 1089,-0.5 924,-0.5"/>
<text text-anchor="start" x="932" y="-40.5" font-family="Helvetica,sans-Serif" font-size="10.00">/home/jonathan/Works</text>
<text text-anchor="start" x="932" y="-29.5" font-family="Helvetica,sans-Serif" font-size="10.00">/Tools/Triton/src/libtriton</text>
<text text-anchor="start" x="932" y="-18.5" font-family="Helvetica,sans-Serif" font-size="10.00">/bindings/python/namespaces</text>
<text text-anchor="middle" x="1006.5" y="-7.5" font-family="Helvetica,sans-Serif" font-size="10.00">/initConditionsNamespace.cpp</text>
</a>
</g>
</g>
<!-- Node1&#45;&gt;Node7 -->
<g id="edge6" class="edge">
<title>Node1&#45;&gt;Node7</title>
<path fill="none" stroke="midnightblue" d="M3081.05,-109.51C2726.9,-110.9 1488.49,-111.41 1098.5,-53 1095.39,-52.53 1092.23,-52 1089.05,-51.4"/>
<polygon fill="midnightblue" stroke="midnightblue" points="3081.29,-113.01 3091.27,-109.46 3081.26,-106.01 3081.29,-113.01"/>
</g>
<!-- Node8 -->
<g id="node8" class="node">
<title>Node8</title>
<g id="a_node8"><a xlink:href="initCpuSizeNamespace_8cpp.html" target="_top" xlink:title=" ">
<polygon fill="white" stroke="black" points="1107.5,-0.5 1107.5,-52.5 1269.5,-52.5 1269.5,-0.5 1107.5,-0.5"/>
<text text-anchor="start" x="1115.5" y="-40.5" font-family="Helvetica,sans-Serif" font-size="10.00">/home/jonathan/Works</text>
<text text-anchor="start" x="1115.5" y="-29.5" font-family="Helvetica,sans-Serif" font-size="10.00">/Tools/Triton/src/libtriton</text>
<text text-anchor="start" x="1115.5" y="-18.5" font-family="Helvetica,sans-Serif" font-size="10.00">/bindings/python/namespaces</text>
<text text-anchor="middle" x="1188.5" y="-7.5" font-family="Helvetica,sans-Serif" font-size="10.00">/initCpuSizeNamespace.cpp</text>
</a>
</g>
</g>
<!-- Node1&#45;&gt;Node8 -->
<g id="edge7" class="edge">
<title>Node1&#45;&gt;Node8</title>
<path fill="none" stroke="midnightblue" d="M3081.25,-109.29C2747.43,-109.82 1631.61,-107.38 1278.5,-53 1275.61,-52.56 1272.68,-52.05 1269.74,-51.49"/>
<polygon fill="midnightblue" stroke="midnightblue" points="3081.38,-112.79 3091.38,-109.27 3081.37,-105.79 3081.38,-112.79"/>
</g>
<!-- Node9 -->
<g id="node9" class="node">
<title>Node9</title>
<g id="a_node9"><a xlink:href="initExceptionNamespace_8cpp.html" target="_top" xlink:title=" ">
<polygon fill="white" stroke="black" points="1287.5,-0.5 1287.5,-52.5 1449.5,-52.5 1449.5,-0.5 1287.5,-0.5"/>
<text text-anchor="start" x="1295.5" y="-40.5" font-family="Helvetica,sans-Serif" font-size="10.00">/home/jonathan/Works</text>
<text text-anchor="start" x="1295.5" y="-29.5" font-family="Helvetica,sans-Serif" font-size="10.00">/Tools/Triton/src/libtriton</text>
<text text-anchor="start" x="1295.5" y="-18.5" font-family="Helvetica,sans-Serif" font-size="10.00">/bindings/python/namespaces</text>
<text text-anchor="middle" x="1368.5" y="-7.5" font-family="Helvetica,sans-Serif" font-size="10.00">/initExceptionNamespace.cpp</text>
</a>
</g>
</g>
<!-- Node1&#45;&gt;Node9 -->
<g id="edge8" class="edge">
<title>Node1&#45;&gt;Node9</title>
<path fill="none" stroke="midnightblue" d="M3080.9,-108.94C2767.76,-108.27 1774.85,-102.22 1458.5,-53 1455.61,-52.55 1452.68,-52.04 1449.74,-51.47"/>
<polygon fill="midnightblue" stroke="midnightblue" points="3081.3,-112.44 3091.31,-108.96 3081.31,-105.44 3081.3,-112.44"/>
</g>
<!-- Node10 -->
<g id="node10" class="node">
<title>Node10</title>
<g id="a_node10"><a xlink:href="initExtendNamespace_8cpp.html" target="_top" xlink:title=" ">
<polygon fill="white" stroke="black" points="1467.5,-0.5 1467.5,-52.5 1629.5,-52.5 1629.5,-0.5 1467.5,-0.5"/>
<text text-anchor="start" x="1475.5" y="-40.5" font-family="Helvetica,sans-Serif" font-size="10.00">/home/jonathan/Works</text>
<text text-anchor="start" x="1475.5" y="-29.5" font-family="Helvetica,sans-Serif" font-size="10.00">/Tools/Triton/src/libtriton</text>
<text text-anchor="start" x="1475.5" y="-18.5" font-family="Helvetica,sans-Serif" font-size="10.00">/bindings/python/namespaces</text>
<text text-anchor="middle" x="1548.5" y="-7.5" font-family="Helvetica,sans-Serif" font-size="10.00">/initExtendNamespace.cpp</text>
</a>
</g>
</g>
<!-- Node1&#45;&gt;Node10 -->
<g id="edge9" class="edge">
<title>Node1&#45;&gt;Node10</title>
<path fill="none" stroke="midnightblue" d="M3081.06,-108.51C2790.32,-106.56 1918.42,-97.1 1638.5,-53 1635.61,-52.55 1632.69,-52.03 1629.74,-51.46"/>
<polygon fill="midnightblue" stroke="midnightblue" points="3081.13,-112.02 3091.16,-108.58 3081.18,-105.02 3081.13,-112.02"/>
</g>
<!-- Node11 -->
<g id="node11" class="node">
<title>Node11</title>
<g id="a_node11"><a xlink:href="initModeNamespace_8cpp.html" target="_top" xlink:title=" ">
<polygon fill="white" stroke="black" points="1647.5,-0.5 1647.5,-52.5 1809.5,-52.5 1809.5,-0.5 1647.5,-0.5"/>
<text text-anchor="start" x="1655.5" y="-40.5" font-family="Helvetica,sans-Serif" font-size="10.00">/home/jonathan/Works</text>
<text text-anchor="start" x="1655.5" y="-29.5" font-family="Helvetica,sans-Serif" font-size="10.00">/Tools/Triton/src/libtriton</text>
<text text-anchor="start" x="1655.5" y="-18.5" font-family="Helvetica,sans-Serif" font-size="10.00">/bindings/python/namespaces</text>
<text text-anchor="middle" x="1728.5" y="-7.5" font-family="Helvetica,sans-Serif" font-size="10.00">/initModeNamespace.cpp</text>
</a>
</g>
</g>
<!-- Node1&#45;&gt;Node11 -->
<g id="edge10" class="edge">
<title>Node1&#45;&gt;Node11</title>
<path fill="none" stroke="midnightblue" d="M3081.32,-107.98C2814.37,-104.65 2062.2,-91.99 1818.5,-53 1815.61,-52.54 1812.69,-52.02 1809.74,-51.44"/>
<polygon fill="midnightblue" stroke="midnightblue" points="3081.33,-111.48 3091.37,-108.1 3081.42,-104.48 3081.33,-111.48"/>
</g>
<!-- Node12 -->
<g id="node12" class="node">
<title>Node12</title>
<g id="a_node12"><a xlink:href="initOpcodesNamespace_8cpp.html" target="_top" xlink:title=" ">
<polygon fill="white" stroke="black" points="1827.5,-0.5 1827.5,-52.5 1989.5,-52.5 1989.5,-0.5 1827.5,-0.5"/>
<text text-anchor="start" x="1835.5" y="-40.5" font-family="Helvetica,sans-Serif" font-size="10.00">/home/jonathan/Works</text>
<text text-anchor="start" x="1835.5" y="-29.5" font-family="Helvetica,sans-Serif" font-size="10.00">/Tools/Triton/src/libtriton</text>
<text text-anchor="start" x="1835.5" y="-18.5" font-family="Helvetica,sans-Serif" font-size="10.00">/bindings/python/namespaces</text>
<text text-anchor="middle" x="1908.5" y="-7.5" font-family="Helvetica,sans-Serif" font-size="10.00">/initOpcodesNamespace.cpp</text>
</a>
</g>
</g>
<!-- Node1&#45;&gt;Node12 -->
<g id="edge11" class="edge">
<title>Node1&#45;&gt;Node12</title>
<path fill="none" stroke="midnightblue" d="M3081.04,-107.27C2839.03,-102.44 2206.05,-86.88 1998.5,-53 1995.61,-52.53 1992.69,-52 1989.75,-51.42"/>
<polygon fill="midnightblue" stroke="midnightblue" points="3081.15,-110.78 3091.22,-107.47 3081.29,-103.78 3081.15,-110.78"/>
</g>
<!-- Node13 -->
<g id="node13" class="node">
<title>Node13</title>
<g id="a_node13"><a xlink:href="initOperandNamespace_8cpp.html" target="_top" xlink:title=" ">
<polygon fill="white" stroke="black" points="2007.5,-0.5 2007.5,-52.5 2169.5,-52.5 2169.5,-0.5 2007.5,-0.5"/>
<text text-anchor="start" x="2015.5" y="-40.5" font-family="Helvetica,sans-Serif" font-size="10.00">/home/jonathan/Works</text>
<text text-anchor="start" x="2015.5" y="-29.5" font-family="Helvetica,sans-Serif" font-size="10.00">/Tools/Triton/src/libtriton</text>
<text text-anchor="start" x="2015.5" y="-18.5" font-family="Helvetica,sans-Serif" font-size="10.00">/bindings/python/namespaces</text>
<text text-anchor="middle" x="2088.5" y="-7.5" font-family="Helvetica,sans-Serif" font-size="10.00">/initOperandNamespace.cpp</text>
</a>
</g>
</g>
<!-- Node1&#45;&gt;Node13 -->
<g id="edge12" class="edge">
<title>Node1&#45;&gt;Node13</title>
<path fill="none" stroke="midnightblue" d="M3081,-106.32C2866.17,-99.86 2350.26,-81.79 2178.5,-53 2175.62,-52.52 2172.69,-51.98 2169.75,-51.39"/>
<polygon fill="midnightblue" stroke="midnightblue" points="3081.2,-109.83 3091.3,-106.63 3081.41,-102.83 3081.2,-109.83"/>
</g>
<!-- Node14 -->
<g id="node14" class="node">
<title>Node14</title>
<g id="a_node14"><a xlink:href="initPrefixesNamespace_8cpp.html" target="_top" xlink:title=" ">
<polygon fill="white" stroke="black" points="2187.5,-0.5 2187.5,-52.5 2349.5,-52.5 2349.5,-0.5 2187.5,-0.5"/>
<text text-anchor="start" x="2195.5" y="-40.5" font-family="Helvetica,sans-Serif" font-size="10.00">/home/jonathan/Works</text>
<text text-anchor="start" x="2195.5" y="-29.5" font-family="Helvetica,sans-Serif" font-size="10.00">/Tools/Triton/src/libtriton</text>
<text text-anchor="start" x="2195.5" y="-18.5" font-family="Helvetica,sans-Serif" font-size="10.00">/bindings/python/namespaces</text>
<text text-anchor="middle" x="2268.5" y="-7.5" font-family="Helvetica,sans-Serif" font-size="10.00">/initPrefixesNamespace.cpp</text>
</a>
</g>
</g>
<!-- Node1&#45;&gt;Node14 -->
<g id="edge13" class="edge">
<title>Node1&#45;&gt;Node14</title>
<path fill="none" stroke="midnightblue" d="M3080.99,-108.86C2927.54,-107.22 2617.09,-97.98 2358.5,-53 2355.62,-52.5 2352.7,-51.94 2349.76,-51.34"/>
<polygon fill="midnightblue" stroke="midnightblue" points="3081.28,-112.37 3091.31,-108.97 3081.35,-105.37 3081.28,-112.37"/>
</g>
<!-- Node15 -->
<g id="node15" class="node">
<title>Node15</title>
<g id="a_node15"><a xlink:href="initRegNamespace_8cpp.html" target="_top" xlink:title=" ">
<polygon fill="white" stroke="black" points="2367.5,-0.5 2367.5,-52.5 2529.5,-52.5 2529.5,-0.5 2367.5,-0.5"/>
<text text-anchor="start" x="2375.5" y="-40.5" font-family="Helvetica,sans-Serif" font-size="10.00">/home/jonathan/Works</text>
<text text-anchor="start" x="2375.5" y="-29.5" font-family="Helvetica,sans-Serif" font-size="10.00">/Tools/Triton/src/libtriton</text>
<text text-anchor="start" x="2375.5" y="-18.5" font-family="Helvetica,sans-Serif" font-size="10.00">/bindings/python/namespaces</text>
<text text-anchor="middle" x="2448.5" y="-7.5" font-family="Helvetica,sans-Serif" font-size="10.00">/initRegNamespace.cpp</text>
</a>
</g>
</g>
<!-- Node1&#45;&gt;Node15 -->
<g id="edge14" class="edge">
<title>Node1&#45;&gt;Node15</title>
<path fill="none" stroke="midnightblue" d="M3081.12,-106.23C2955.73,-101.32 2729.03,-88.03 2538.5,-53 2535.62,-52.47 2532.71,-51.89 2529.77,-51.27"/>
<polygon fill="midnightblue" stroke="midnightblue" points="3081.32,-109.74 3091.45,-106.63 3081.59,-102.75 3081.32,-109.74"/>
</g>
<!-- Node16 -->
<g id="node16" class="node">
<title>Node16</title>
<g id="a_node16"><a xlink:href="initShiftsNamespace_8cpp.html" target="_top" xlink:title=" ">
<polygon fill="white" stroke="black" points="2547.5,-0.5 2547.5,-52.5 2709.5,-52.5 2709.5,-0.5 2547.5,-0.5"/>
<text text-anchor="start" x="2555.5" y="-40.5" font-family="Helvetica,sans-Serif" font-size="10.00">/home/jonathan/Works</text>
<text text-anchor="start" x="2555.5" y="-29.5" font-family="Helvetica,sans-Serif" font-size="10.00">/Tools/Triton/src/libtriton</text>
<text text-anchor="start" x="2555.5" y="-18.5" font-family="Helvetica,sans-Serif" font-size="10.00">/bindings/python/namespaces</text>
<text text-anchor="middle" x="2628.5" y="-7.5" font-family="Helvetica,sans-Serif" font-size="10.00">/initShiftsNamespace.cpp</text>
</a>
</g>
</g>
<!-- Node1&#45;&gt;Node16 -->
<g id="edge15" class="edge">
<title>Node1&#45;&gt;Node16</title>
<path fill="none" stroke="midnightblue" d="M3081.49,-101.69C2988.39,-93.52 2842.76,-78.04 2718.5,-53 2715.63,-52.42 2712.73,-51.8 2709.8,-51.14"/>
<polygon fill="midnightblue" stroke="midnightblue" points="3081.19,-105.18 3091.46,-102.56 3081.8,-98.21 3081.19,-105.18"/>
</g>
<!-- Node17 -->
<g id="node17" class="node">
<title>Node17</title>
<g id="a_node17"><a xlink:href="initSolverNamespace_8cpp.html" target="_top" xlink:title=" ">
<polygon fill="white" stroke="black" points="2727.5,-0.5 2727.5,-52.5 2889.5,-52.5 2889.5,-0.5 2727.5,-0.5"/>
<text text-anchor="start" x="2735.5" y="-40.5" font-family="Helvetica,sans-Serif" font-size="10.00">/home/jonathan/Works</text>
<text text-anchor="start" x="2735.5" y="-29.5" font-family="Helvetica,sans-Serif" font-size="10.00">/Tools/Triton/src/libtriton</text>
<text text-anchor="start" x="2735.5" y="-18.5" font-family="Helvetica,sans-Serif" font-size="10.00">/bindings/python/namespaces</text>
<text text-anchor="middle" x="2808.5" y="-7.5" font-family="Helvetica,sans-Serif" font-size="10.00">/initSolverNamespace.cpp</text>
</a>
</g>
</g>
<!-- Node1&#45;&gt;Node17 -->
<g id="edge16" class="edge">
<title>Node1&#45;&gt;Node17</title>
<path fill="none" stroke="midnightblue" d="M3081.38,-91.73C3027.5,-81.47 2958.98,-67.64 2898.5,-53 2895.66,-52.31 2892.77,-51.6 2889.86,-50.86"/>
<polygon fill="midnightblue" stroke="midnightblue" points="3080.79,-95.18 3091.26,-93.6 3082.09,-88.3 3080.79,-95.18"/>
</g>
<!-- Node18 -->
<g id="node18" class="node">
<title>Node18</title>
<g id="a_node18"><a xlink:href="initSolverStateNamespace_8cpp.html" target="_top" xlink:title=" ">
<polygon fill="white" stroke="black" points="2907.5,-0.5 2907.5,-52.5 3077.5,-52.5 3077.5,-0.5 2907.5,-0.5"/>
<text text-anchor="start" x="2915.5" y="-40.5" font-family="Helvetica,sans-Serif" font-size="10.00">/home/jonathan/Works</text>
<text text-anchor="start" x="2915.5" y="-29.5" font-family="Helvetica,sans-Serif" font-size="10.00">/Tools/Triton/src/libtriton</text>
<text text-anchor="start" x="2915.5" y="-18.5" font-family="Helvetica,sans-Serif" font-size="10.00">/bindings/python/namespaces</text>
<text text-anchor="middle" x="2992.5" y="-7.5" font-family="Helvetica,sans-Serif" font-size="10.00">/initSolverStateNamespace.cpp</text>
</a>
</g>
</g>
<!-- Node1&#45;&gt;Node18 -->
<g id="edge17" class="edge">
<title>Node1&#45;&gt;Node18</title>
<path fill="none" stroke="midnightblue" d="M3123.08,-85.34C3099.88,-75.06 3072.67,-63.01 3049.11,-52.58"/>
<polygon fill="midnightblue" stroke="midnightblue" points="3121.87,-88.63 3132.43,-89.48 3124.7,-82.23 3121.87,-88.63"/>
</g>
<!-- Node19 -->
<g id="node19" class="node">
<title>Node19</title>
<g id="a_node19"><a xlink:href="initStubsNamespace_8cpp.html" target="_top" xlink:title=" ">
<polygon fill="white" stroke="black" points="3095.5,-0.5 3095.5,-52.5 3257.5,-52.5 3257.5,-0.5 3095.5,-0.5"/>
<text text-anchor="start" x="3103.5" y="-40.5" font-family="Helvetica,sans-Serif" font-size="10.00">/home/jonathan/Works</text>
<text text-anchor="start" x="3103.5" y="-29.5" font-family="Helvetica,sans-Serif" font-size="10.00">/Tools/Triton/src/libtriton</text>
<text text-anchor="start" x="3103.5" y="-18.5" font-family="Helvetica,sans-Serif" font-size="10.00">/bindings/python/namespaces</text>
<text text-anchor="middle" x="3176.5" y="-7.5" font-family="Helvetica,sans-Serif" font-size="10.00">/initStubsNamespace.cpp</text>
</a>
</g>
</g>
<!-- Node1&#45;&gt;Node19 -->
<g id="edge18" class="edge">
<title>Node1&#45;&gt;Node19</title>
<path fill="none" stroke="midnightblue" d="M3176.5,-79.12C3176.5,-70.41 3176.5,-60.99 3176.5,-52.61"/>
<polygon fill="midnightblue" stroke="midnightblue" points="3173,-79.27 3176.5,-89.27 3180,-79.27 3173,-79.27"/>
</g>
<!-- Node20 -->
<g id="node20" class="node">
<title>Node20</title>
<g id="a_node20"><a xlink:href="initSymbolicNamespace_8cpp.html" target="_top" xlink:title=" ">
<polygon fill="white" stroke="black" points="3275.5,-0.5 3275.5,-52.5 3437.5,-52.5 3437.5,-0.5 3275.5,-0.5"/>
<text text-anchor="start" x="3283.5" y="-40.5" font-family="Helvetica,sans-Serif" font-size="10.00">/home/jonathan/Works</text>
<text text-anchor="start" x="3283.5" y="-29.5" font-family="Helvetica,sans-Serif" font-size="10.00">/Tools/Triton/src/libtriton</text>
<text text-anchor="start" x="3283.5" y="-18.5" font-family="Helvetica,sans-Serif" font-size="10.00">/bindings/python/namespaces</text>
<text text-anchor="middle" x="3356.5" y="-7.5" font-family="Helvetica,sans-Serif" font-size="10.00">/initSymbolicNamespace.cpp</text>
</a>
</g>
</g>
<!-- Node1&#45;&gt;Node20 -->
<g id="edge19" class="edge">
<title>Node1&#45;&gt;Node20</title>
<path fill="none" stroke="midnightblue" d="M3228.76,-85.34C3251.46,-75.06 3278.07,-63.01 3301.12,-52.58"/>
<polygon fill="midnightblue" stroke="midnightblue" points="3227.28,-82.17 3219.61,-89.48 3230.17,-88.54 3227.28,-82.17"/>
</g>
<!-- Node21 -->
<g id="node21" class="node">
<title>Node21</title>
<g id="a_node21"><a xlink:href="initVASNamespace_8cpp.html" target="_top" xlink:title=" ">
<polygon fill="white" stroke="black" points="3455.5,-0.5 3455.5,-52.5 3617.5,-52.5 3617.5,-0.5 3455.5,-0.5"/>
<text text-anchor="start" x="3463.5" y="-40.5" font-family="Helvetica,sans-Serif" font-size="10.00">/home/jonathan/Works</text>
<text text-anchor="start" x="3463.5" y="-29.5" font-family="Helvetica,sans-Serif" font-size="10.00">/Tools/Triton/src/libtriton</text>
<text text-anchor="start" x="3463.5" y="-18.5" font-family="Helvetica,sans-Serif" font-size="10.00">/bindings/python/namespaces</text>
<text text-anchor="middle" x="3536.5" y="-7.5" font-family="Helvetica,sans-Serif" font-size="10.00">/initVASNamespace.cpp</text>
</a>
</g>
</g>
<!-- Node1&#45;&gt;Node21 -->
<g id="edge20" class="edge">
<title>Node1&#45;&gt;Node21</title>
<path fill="none" stroke="midnightblue" d="M3271.53,-91.02C3323.44,-80.76 3388.73,-67.16 3446.5,-53 3449.34,-52.3 3452.22,-51.58 3455.13,-50.84"/>
<polygon fill="midnightblue" stroke="midnightblue" points="3270.81,-87.59 3261.67,-92.96 3272.16,-94.46 3270.81,-87.59"/>
</g>
<!-- Node22 -->
<g id="node22" class="node">
<title>Node22</title>
<g id="a_node22"><a xlink:href="initVersionNamespace_8cpp.html" target="_top" xlink:title=" ">
<polygon fill="white" stroke="black" points="3635.5,-0.5 3635.5,-52.5 3797.5,-52.5 3797.5,-0.5 3635.5,-0.5"/>
<text text-anchor="start" x="3643.5" y="-40.5" font-family="Helvetica,sans-Serif" font-size="10.00">/home/jonathan/Works</text>
<text text-anchor="start" x="3643.5" y="-29.5" font-family="Helvetica,sans-Serif" font-size="10.00">/Tools/Triton/src/libtriton</text>
<text text-anchor="start" x="3643.5" y="-18.5" font-family="Helvetica,sans-Serif" font-size="10.00">/bindings/python/namespaces</text>
<text text-anchor="middle" x="3716.5" y="-7.5" font-family="Helvetica,sans-Serif" font-size="10.00">/initVersionNamespace.cpp</text>
</a>
</g>
</g>
<!-- Node1&#45;&gt;Node22 -->
<g id="edge21" class="edge">
<title>Node1&#45;&gt;Node22</title>
<path fill="none" stroke="midnightblue" d="M3271.8,-101.38C3363.36,-93.07 3505.28,-77.57 3626.5,-53 3629.36,-52.42 3632.27,-51.79 3635.2,-51.13"/>
<polygon fill="midnightblue" stroke="midnightblue" points="3271.37,-97.91 3261.72,-102.29 3271.99,-104.88 3271.37,-97.91"/>
</g>
<!-- Node23 -->
<g id="node23" class="node">
<title>Node23</title>
<g id="a_node23"><a xlink:href="pyAstContext_8cpp.html" target="_top" xlink:title=" ">
<polygon fill="white" stroke="black" points="3815.5,-0.5 3815.5,-52.5 3951.5,-52.5 3951.5,-0.5 3815.5,-0.5"/>
<text text-anchor="start" x="3823.5" y="-40.5" font-family="Helvetica,sans-Serif" font-size="10.00">/home/jonathan/Works</text>
<text text-anchor="start" x="3823.5" y="-29.5" font-family="Helvetica,sans-Serif" font-size="10.00">/Tools/Triton/src/libtriton</text>
<text text-anchor="start" x="3823.5" y="-18.5" font-family="Helvetica,sans-Serif" font-size="10.00">/bindings/python/objects</text>
<text text-anchor="middle" x="3883.5" y="-7.5" font-family="Helvetica,sans-Serif" font-size="10.00">/pyAstContext.cpp</text>
</a>
</g>
</g>
<!-- Node1&#45;&gt;Node23 -->
<g id="edge22" class="edge">
<title>Node1&#45;&gt;Node23</title>
<path fill="none" stroke="midnightblue" d="M3271.97,-107.35C3396.27,-103.66 3619.69,-91.69 3806.5,-53 3809.4,-52.4 3812.33,-51.73 3815.29,-51"/>
<polygon fill="midnightblue" stroke="midnightblue" points="3271.63,-103.86 3261.73,-107.65 3271.83,-110.86 3271.63,-103.86"/>
</g>
<!-- Node24 -->
<g id="node24" class="node">
<title>Node24</title>
<g id="a_node24"><a xlink:href="pyAstNode_8cpp.html" target="_top" xlink:title=" ">
<polygon fill="white" stroke="black" points="3969.5,-0.5 3969.5,-52.5 4105.5,-52.5 4105.5,-0.5 3969.5,-0.5"/>
<text text-anchor="start" x="3977.5" y="-40.5" font-family="Helvetica,sans-Serif" font-size="10.00">/home/jonathan/Works</text>
<text text-anchor="start" x="3977.5" y="-29.5" font-family="Helvetica,sans-Serif" font-size="10.00">/Tools/Triton/src/libtriton</text>
<text text-anchor="start" x="3977.5" y="-18.5" font-family="Helvetica,sans-Serif" font-size="10.00">/bindings/python/objects</text>
<text text-anchor="middle" x="4037.5" y="-7.5" font-family="Helvetica,sans-Serif" font-size="10.00">/pyAstNode.cpp</text>
</a>
</g>
</g>
<!-- Node1&#45;&gt;Node24 -->
<g id="edge23" class="edge">
<title>Node1&#45;&gt;Node24</title>
<path fill="none" stroke="midnightblue" d="M3271.53,-109.77C3420.03,-109.29 3715.48,-101.53 3960.5,-53 3963.4,-52.43 3966.34,-51.77 3969.3,-51.06"/>
<polygon fill="midnightblue" stroke="midnightblue" points="3271.52,-106.27 3261.53,-109.8 3271.54,-113.27 3271.52,-106.27"/>
</g>
<!-- Node25 -->
<g id="node25" class="node">
<title>Node25</title>
<g id="a_node25"><a xlink:href="pyBasicBlock_8cpp.html" target="_top" xlink:title=" ">
<polygon fill="white" stroke="black" points="4123.5,-0.5 4123.5,-52.5 4259.5,-52.5 4259.5,-0.5 4123.5,-0.5"/>
<text text-anchor="start" x="4131.5" y="-40.5" font-family="Helvetica,sans-Serif" font-size="10.00">/home/jonathan/Works</text>
<text text-anchor="start" x="4131.5" y="-29.5" font-family="Helvetica,sans-Serif" font-size="10.00">/Tools/Triton/src/libtriton</text>
<text text-anchor="start" x="4131.5" y="-18.5" font-family="Helvetica,sans-Serif" font-size="10.00">/bindings/python/objects</text>
<text text-anchor="middle" x="4191.5" y="-7.5" font-family="Helvetica,sans-Serif" font-size="10.00">/pyBasicBlock.cpp</text>
</a>
</g>
</g>
<!-- Node1&#45;&gt;Node25 -->
<g id="edge24" class="edge">
<title>Node1&#45;&gt;Node25</title>
<path fill="none" stroke="midnightblue" d="M3271.92,-106.45C3477.23,-100.45 3955.18,-83.59 4114.5,-53 4117.4,-52.44 4120.35,-51.8 4123.31,-51.1"/>
<polygon fill="midnightblue" stroke="midnightblue" points="3271.66,-102.96 3261.76,-106.74 3271.86,-109.95 3271.66,-102.96"/>
</g>
<!-- Node26 -->
<g id="node26" class="node">
<title>Node26</title>
<g id="a_node26"><a xlink:href="pyBitsVector_8cpp.html" target="_top" xlink:title=" ">
<polygon fill="white" stroke="black" points="4277.5,-0.5 4277.5,-52.5 4413.5,-52.5 4413.5,-0.5 4277.5,-0.5"/>
<text text-anchor="start" x="4285.5" y="-40.5" font-family="Helvetica,sans-Serif" font-size="10.00">/home/jonathan/Works</text>
<text text-anchor="start" x="4285.5" y="-29.5" font-family="Helvetica,sans-Serif" font-size="10.00">/Tools/Triton/src/libtriton</text>
<text text-anchor="start" x="4285.5" y="-18.5" font-family="Helvetica,sans-Serif" font-size="10.00">/bindings/python/objects</text>
<text text-anchor="middle" x="4345.5" y="-7.5" font-family="Helvetica,sans-Serif" font-size="10.00">/pyBitsVector.cpp</text>
</a>
</g>
</g>
<!-- Node1&#45;&gt;Node26 -->
<g id="edge25" class="edge">
<title>Node1&#45;&gt;Node26</title>
<path fill="none" stroke="midnightblue" d="M3271.91,-107.39C3501.31,-102.98 4078.78,-88.61 4268.5,-53 4271.41,-52.45 4274.35,-51.83 4277.32,-51.13"/>
<polygon fill="midnightblue" stroke="midnightblue" points="3271.52,-103.89 3261.59,-107.58 3271.65,-110.89 3271.52,-103.89"/>
</g>
<!-- Node27 -->
<g id="node27" class="node">
<title>Node27</title>
<g id="a_node27"><a xlink:href="pyImmediate_8cpp.html" target="_top" xlink:title=" ">
<polygon fill="white" stroke="black" points="4431.5,-0.5 4431.5,-52.5 4567.5,-52.5 4567.5,-0.5 4431.5,-0.5"/>
<text text-anchor="start" x="4439.5" y="-40.5" font-family="Helvetica,sans-Serif" font-size="10.00">/home/jonathan/Works</text>
<text text-anchor="start" x="4439.5" y="-29.5" font-family="Helvetica,sans-Serif" font-size="10.00">/Tools/Triton/src/libtriton</text>
<text text-anchor="start" x="4439.5" y="-18.5" font-family="Helvetica,sans-Serif" font-size="10.00">/bindings/python/objects</text>
<text text-anchor="middle" x="4499.5" y="-7.5" font-family="Helvetica,sans-Serif" font-size="10.00">/pyImmediate.cpp</text>
</a>
</g>
</g>
<!-- Node1&#45;&gt;Node27 -->
<g id="edge26" class="edge">
<title>Node1&#45;&gt;Node27</title>
<path fill="none" stroke="midnightblue" d="M3271.73,-108.1C3523.43,-105.17 4202.09,-93.64 4422.5,-53 4425.41,-52.46 4428.36,-51.84 4431.32,-51.16"/>
<polygon fill="midnightblue" stroke="midnightblue" points="3271.47,-104.6 3261.51,-108.21 3271.55,-111.6 3271.47,-104.6"/>
</g>
<!-- Node28 -->
<g id="node28" class="node">
<title>Node28</title>
<g id="a_node28"><a xlink:href="pyInstruction_8cpp.html" target="_top" xlink:title=" ">
<polygon fill="white" stroke="black" points="4585.5,-0.5 4585.5,-52.5 4721.5,-52.5 4721.5,-0.5 4585.5,-0.5"/>
<text text-anchor="start" x="4593.5" y="-40.5" font-family="Helvetica,sans-Serif" font-size="10.00">/home/jonathan/Works</text>
<text text-anchor="start" x="4593.5" y="-29.5" font-family="Helvetica,sans-Serif" font-size="10.00">/Tools/Triton/src/libtriton</text>
<text text-anchor="start" x="4593.5" y="-18.5" font-family="Helvetica,sans-Serif" font-size="10.00">/bindings/python/objects</text>
<text text-anchor="middle" x="4653.5" y="-7.5" font-family="Helvetica,sans-Serif" font-size="10.00">/pyInstruction.cpp</text>
</a>
</g>
</g>
<!-- Node1&#45;&gt;Node28 -->
<g id="edge27" class="edge">
<title>Node1&#45;&gt;Node28</title>
<path fill="none" stroke="midnightblue" d="M3271.81,-108.65C3544.67,-107.1 4325.3,-98.68 4576.5,-53 4579.41,-52.47 4582.36,-51.86 4585.32,-51.18"/>
<polygon fill="midnightblue" stroke="midnightblue" points="3271.52,-105.15 3261.54,-108.71 3271.56,-112.15 3271.52,-105.15"/>
</g>
<!-- Node29 -->
<g id="node29" class="node">
<title>Node29</title>
<g id="a_node29"><a xlink:href="pyMemoryAccess_8cpp.html" target="_top" xlink:title=" ">
<polygon fill="white" stroke="black" points="4739.5,-0.5 4739.5,-52.5 4875.5,-52.5 4875.5,-0.5 4739.5,-0.5"/>
<text text-anchor="start" x="4747.5" y="-40.5" font-family="Helvetica,sans-Serif" font-size="10.00">/home/jonathan/Works</text>
<text text-anchor="start" x="4747.5" y="-29.5" font-family="Helvetica,sans-Serif" font-size="10.00">/Tools/Triton/src/libtriton</text>
<text text-anchor="start" x="4747.5" y="-18.5" font-family="Helvetica,sans-Serif" font-size="10.00">/bindings/python/objects</text>
<text text-anchor="middle" x="4807.5" y="-7.5" font-family="Helvetica,sans-Serif" font-size="10.00">/pyMemoryAccess.cpp</text>
</a>
</g>
</g>
<!-- Node1&#45;&gt;Node29 -->
<g id="edge28" class="edge">
<title>Node1&#45;&gt;Node29</title>
<path fill="none" stroke="midnightblue" d="M3272,-109.1C3565,-108.83 4448.38,-103.73 4730.5,-53 4733.41,-52.48 4736.36,-51.87 4739.33,-51.19"/>
<polygon fill="midnightblue" stroke="midnightblue" points="3271.82,-105.6 3261.82,-109.1 3271.83,-112.6 3271.82,-105.6"/>
</g>
<!-- Node30 -->
<g id="node30" class="node">
<title>Node30</title>
<g id="a_node30"><a xlink:href="pyPathConstraint_8cpp.html" target="_top" xlink:title=" ">
<polygon fill="white" stroke="black" points="4893.5,-0.5 4893.5,-52.5 5029.5,-52.5 5029.5,-0.5 4893.5,-0.5"/>
<text text-anchor="start" x="4901.5" y="-40.5" font-family="Helvetica,sans-Serif" font-size="10.00">/home/jonathan/Works</text>
<text text-anchor="start" x="4901.5" y="-29.5" font-family="Helvetica,sans-Serif" font-size="10.00">/Tools/Triton/src/libtriton</text>
<text text-anchor="start" x="4901.5" y="-18.5" font-family="Helvetica,sans-Serif" font-size="10.00">/bindings/python/objects</text>
<text text-anchor="middle" x="4961.5" y="-7.5" font-family="Helvetica,sans-Serif" font-size="10.00">/pyPathConstraint.cpp</text>
</a>
</g>
</g>
<!-- Node1&#45;&gt;Node30 -->
<g id="edge29" class="edge">
<title>Node1&#45;&gt;Node30</title>
<path fill="none" stroke="midnightblue" d="M3271.9,-109.46C3583.8,-110.41 4571.23,-108.8 4884.5,-53 4887.41,-52.48 4890.36,-51.88 4893.33,-51.2"/>
<polygon fill="midnightblue" stroke="midnightblue" points="3271.55,-105.96 3261.54,-109.43 3271.53,-112.96 3271.55,-105.96"/>
</g>
<!-- Node31 -->
<g id="node31" class="node">
<title>Node31</title>
<g id="a_node31"><a xlink:href="pyRegister_8cpp.html" target="_top" xlink:title=" ">
<polygon fill="white" stroke="black" points="5047.5,-0.5 5047.5,-52.5 5183.5,-52.5 5183.5,-0.5 5047.5,-0.5"/>
<text text-anchor="start" x="5055.5" y="-40.5" font-family="Helvetica,sans-Serif" font-size="10.00">/home/jonathan/Works</text>
<text text-anchor="start" x="5055.5" y="-29.5" font-family="Helvetica,sans-Serif" font-size="10.00">/Tools/Triton/src/libtriton</text>
<text text-anchor="start" x="5055.5" y="-18.5" font-family="Helvetica,sans-Serif" font-size="10.00">/bindings/python/objects</text>
<text text-anchor="middle" x="5115.5" y="-7.5" font-family="Helvetica,sans-Serif" font-size="10.00">/pyRegister.cpp</text>
</a>
</g>
</g>
<!-- Node1&#45;&gt;Node31 -->
<g id="edge30" class="edge">
<title>Node1&#45;&gt;Node31</title>
<path fill="none" stroke="midnightblue" d="M3271.79,-107.75C3627.23,-102.86 4864.26,-83.79 5038.5,-53 5041.41,-52.49 5044.36,-51.88 5047.33,-51.21"/>
<polygon fill="midnightblue" stroke="midnightblue" points="3271.48,-104.25 3261.53,-107.89 3271.58,-111.25 3271.48,-104.25"/>
</g>
<!-- Node32 -->
<g id="node32" class="node">
<title>Node32</title>
<g id="a_node32"><a xlink:href="pySolverModel_8cpp.html" target="_top" xlink:title=" ">
<polygon fill="white" stroke="black" points="5201.5,-0.5 5201.5,-52.5 5337.5,-52.5 5337.5,-0.5 5201.5,-0.5"/>
<text text-anchor="start" x="5209.5" y="-40.5" font-family="Helvetica,sans-Serif" font-size="10.00">/home/jonathan/Works</text>
<text text-anchor="start" x="5209.5" y="-29.5" font-family="Helvetica,sans-Serif" font-size="10.00">/Tools/Triton/src/libtriton</text>
<text text-anchor="start" x="5209.5" y="-18.5" font-family="Helvetica,sans-Serif" font-size="10.00">/bindings/python/objects</text>
<text text-anchor="middle" x="5269.5" y="-7.5" font-family="Helvetica,sans-Serif" font-size="10.00">/pySolverModel.cpp</text>
</a>
</g>
</g>
<!-- Node1&#45;&gt;Node32 -->
<g id="edge31" class="edge">
<title>Node1&#45;&gt;Node32</title>
<path fill="none" stroke="midnightblue" d="M3272.04,-107.98C3646.45,-103.77 5002.56,-86.35 5192.5,-53 5195.41,-52.49 5198.37,-51.89 5201.33,-51.22"/>
<polygon fill="midnightblue" stroke="midnightblue" points="3271.74,-104.49 3261.78,-108.1 3271.82,-111.49 3271.74,-104.49"/>
</g>
<!-- Node33 -->
<g id="node33" class="node">
<title>Node33</title>
<g id="a_node33"><a xlink:href="pySymbolicExpression_8cpp.html" target="_top" xlink:title=" ">
<polygon fill="white" stroke="black" points="5355.5,-0.5 5355.5,-52.5 5505.5,-52.5 5505.5,-0.5 5355.5,-0.5"/>
<text text-anchor="start" x="5363.5" y="-40.5" font-family="Helvetica,sans-Serif" font-size="10.00">/home/jonathan/Works</text>
<text text-anchor="start" x="5363.5" y="-29.5" font-family="Helvetica,sans-Serif" font-size="10.00">/Tools/Triton/src/libtriton</text>
<text text-anchor="start" x="5363.5" y="-18.5" font-family="Helvetica,sans-Serif" font-size="10.00">/bindings/python/objects</text>
<text text-anchor="middle" x="5430.5" y="-7.5" font-family="Helvetica,sans-Serif" font-size="10.00">/pySymbolicExpression.cpp</text>
</a>
</g>
</g>
<!-- Node1&#45;&gt;Node33 -->
<g id="edge32" class="edge">
<title>Node1&#45;&gt;Node33</title>
<path fill="none" stroke="midnightblue" d="M3271.71,-108.05C3663.5,-103.93 5140.28,-86.34 5346.5,-53 5349.36,-52.54 5352.26,-52 5355.17,-51.41"/>
<polygon fill="midnightblue" stroke="midnightblue" points="3271.51,-104.55 3261.54,-108.16 3271.58,-111.55 3271.51,-104.55"/>
</g>
<!-- Node34 -->
<g id="node34" class="node">
<title>Node34</title>
<g id="a_node34"><a xlink:href="pySymbolicVariable_8cpp.html" target="_top" xlink:title=" ">
<polygon fill="white" stroke="black" points="5524,-0.5 5524,-52.5 5661,-52.5 5661,-0.5 5524,-0.5"/>
<text text-anchor="start" x="5532" y="-40.5" font-family="Helvetica,sans-Serif" font-size="10.00">/home/jonathan/Works</text>
<text text-anchor="start" x="5532" y="-29.5" font-family="Helvetica,sans-Serif" font-size="10.00">/Tools/Triton/src/libtriton</text>
<text text-anchor="start" x="5532" y="-18.5" font-family="Helvetica,sans-Serif" font-size="10.00">/bindings/python/objects</text>
<text text-anchor="middle" x="5592.5" y="-7.5" font-family="Helvetica,sans-Serif" font-size="10.00">/pySymbolicVariable.cpp</text>
</a>
</g>
</g>
<!-- Node1&#45;&gt;Node34 -->
<g id="edge33" class="edge">
<title>Node1&#45;&gt;Node34</title>
<path fill="none" stroke="midnightblue" d="M3271.87,-108.36C3682.78,-105.36 5291.4,-91.29 5514.5,-53 5517.59,-52.47 5520.72,-51.84 5523.87,-51.14"/>
<polygon fill="midnightblue" stroke="midnightblue" points="3271.78,-104.86 3261.8,-108.43 3271.83,-111.86 3271.78,-104.86"/>
</g>
<!-- Node35 -->
<g id="node35" class="node">
<title>Node35</title>
<g id="a_node35"><a xlink:href="pyTritonContext_8cpp.html" target="_top" xlink:title=" ">
<polygon fill="white" stroke="black" points="5679.5,-0.5 5679.5,-52.5 5815.5,-52.5 5815.5,-0.5 5679.5,-0.5"/>
<text text-anchor="start" x="5687.5" y="-40.5" font-family="Helvetica,sans-Serif" font-size="10.00">/home/jonathan/Works</text>
<text text-anchor="start" x="5687.5" y="-29.5" font-family="Helvetica,sans-Serif" font-size="10.00">/Tools/Triton/src/libtriton</text>
<text text-anchor="start" x="5687.5" y="-18.5" font-family="Helvetica,sans-Serif" font-size="10.00">/bindings/python/objects</text>
<text text-anchor="middle" x="5747.5" y="-7.5" font-family="Helvetica,sans-Serif" font-size="10.00">/pyTritonContext.cpp</text>
</a>
</g>
</g>
<!-- Node1&#45;&gt;Node35 -->
<g id="edge34" class="edge">
<title>Node1&#45;&gt;Node35</title>
<path fill="none" stroke="midnightblue" d="M3271.79,-108.53C3699.47,-106.21 5431.38,-94.32 5670.5,-53 5673.41,-52.5 5676.37,-51.9 5679.34,-51.24"/>
<polygon fill="midnightblue" stroke="midnightblue" points="3271.61,-105.03 3261.63,-108.59 3271.65,-112.03 3271.61,-105.03"/>
</g>
<!-- Node36 -->
<g id="node36" class="node">
<title>Node36</title>
<g id="a_node36"><a xlink:href="utils_8cpp.html" target="_top" xlink:title=" ">
<polygon fill="white" stroke="black" points="5833.5,-6 5833.5,-47 5975.5,-47 5975.5,-6 5833.5,-6"/>
<text text-anchor="start" x="5841.5" y="-35" font-family="Helvetica,sans-Serif" font-size="10.00">/home/jonathan/Works</text>
<text text-anchor="start" x="5841.5" y="-24" font-family="Helvetica,sans-Serif" font-size="10.00">/Tools/Triton/src/libtriton</text>
<text text-anchor="middle" x="5904.5" y="-13" font-family="Helvetica,sans-Serif" font-size="10.00">/bindings/python/utils.cpp</text>
</a>
</g>
</g>
<!-- Node1&#45;&gt;Node36 -->
<g id="edge35" class="edge">
<title>Node1&#45;&gt;Node36</title>
<path fill="none" stroke="midnightblue" d="M3271.75,-108.61C3715.5,-106.55 5569.24,-95.47 5824.5,-53 5832.98,-51.59 5841.81,-49.47 5850.36,-47.05"/>
<polygon fill="midnightblue" stroke="midnightblue" points="3271.52,-105.11 3261.53,-108.65 3271.55,-112.11 3271.52,-105.11"/>
</g>
</g>
</svg>
