<?xml version="1.0" encoding="UTF-8" standalone="no"?>
<!DOCTYPE svg PUBLIC "-//W3C//DTD SVG 1.1//EN"
 "http://www.w3.org/Graphics/SVG/1.1/DTD/svg11.dtd">
<!-- Generated by graphviz version 7.0.0 (20221023.0053)
 -->
<!-- Title: /Users/jonathan/Works/Tools/Triton/src/libtriton/includes/triton/pythonXFunctions.hpp Pages: 1 -->
<svg width="5638pt" height="137pt"
 viewBox="0.00 0.00 5638.00 137.00" xmlns="http://www.w3.org/2000/svg" xmlns:xlink="http://www.w3.org/1999/xlink">
<g id="graph0" class="graph" transform="scale(1 1) rotate(0) translate(4 133)">
<title>/Users/jonathan/Works/Tools/Triton/src/libtriton/includes/triton/pythonXFunctions.hpp</title>
<!-- Node1 -->
<g id="node1" class="node">
<title>Node1</title>
<g id="a_node1"><a xlink:title=" ">
<polygon fill="#999999" stroke="#666666" points="3044.5,-129 2863.5,-129 2863.5,-88 3044.5,-88 3044.5,-129"/>
<text text-anchor="start" x="2871.5" y="-117" font-family="Helvetica,sans-Serif" font-size="10.00">/Users/jonathan/Works</text>
<text text-anchor="start" x="2871.5" y="-106" font-family="Helvetica,sans-Serif" font-size="10.00">/Tools/Triton/src/libtriton</text>
<text text-anchor="middle" x="2954" y="-95" font-family="Helvetica,sans-Serif" font-size="10.00">/includes/triton/pythonXFunctions.hpp</text>
</a>
</g>
</g>
<!-- Node2 -->
<g id="node2" class="node">
<title>Node2</title>
<g id="a_node2"><a xlink:href="init_8cpp.html" target="_top" xlink:title=" ">
<polygon fill="white" stroke="#666666" points="122,-46.5 0,-46.5 0,-5.5 122,-5.5 122,-46.5"/>
<text text-anchor="start" x="8" y="-34.5" font-family="Helvetica,sans-Serif" font-size="10.00">/Users/jonathan/Works</text>
<text text-anchor="start" x="8" y="-23.5" font-family="Helvetica,sans-Serif" font-size="10.00">/Tools/Triton/src/libtriton</text>
<text text-anchor="middle" x="61" y="-12.5" font-family="Helvetica,sans-Serif" font-size="10.00">/bindings/python/init.cpp</text>
</a>
</g>
</g>
<!-- Node1&#45;&gt;Node2 -->
<g id="edge1" class="edge">
<title>Node1&#45;&gt;Node2</title>
<path fill="none" stroke="#63b8ff" d="M2852.07,-107.44C2378.21,-106.92 402.27,-101.74 131,-52 124.27,-50.77 117.33,-48.97 110.55,-46.9"/>
<polygon fill="#63b8ff" stroke="#63b8ff" points="2851.8,-110.94 2861.8,-107.45 2851.81,-103.94 2851.8,-110.94"/>
</g>
<!-- Node3 -->
<g id="node3" class="node">
<title>Node3</title>
<g id="a_node3"><a xlink:href="tritonCallbacks_8cpp.html" target="_top" xlink:title=" ">
<polygon fill="white" stroke="#666666" points="268,-52 140,-52 140,0 268,0 268,-52"/>
<text text-anchor="start" x="148" y="-40" font-family="Helvetica,sans-Serif" font-size="10.00">/Users/jonathan/Works</text>
<text text-anchor="start" x="148" y="-29" font-family="Helvetica,sans-Serif" font-size="10.00">/Tools/Triton/src/libtriton</text>
<text text-anchor="start" x="148" y="-18" font-family="Helvetica,sans-Serif" font-size="10.00">/bindings/python/modules</text>
<text text-anchor="middle" x="204" y="-7" font-family="Helvetica,sans-Serif" font-size="10.00">/tritonCallbacks.cpp</text>
</a>
</g>
</g>
<!-- Node1&#45;&gt;Node3 -->
<g id="edge2" class="edge">
<title>Node1&#45;&gt;Node3</title>
<path fill="none" stroke="#63b8ff" d="M2852.13,-107.25C2393.75,-105.86 533.54,-97.45 277,-52 274.1,-51.49 271.16,-50.88 268.2,-50.19"/>
<polygon fill="#63b8ff" stroke="#63b8ff" points="2851.82,-110.75 2861.83,-107.28 2851.84,-103.75 2851.82,-110.75"/>
</g>
<!-- Node4 -->
<g id="node4" class="node">
<title>Node4</title>
<g id="a_node4"><a xlink:href="initArchNamespace_8cpp.html" target="_top" xlink:title=" ">
<polygon fill="white" stroke="#666666" points="432,-52 286,-52 286,0 432,0 432,-52"/>
<text text-anchor="start" x="294" y="-40" font-family="Helvetica,sans-Serif" font-size="10.00">/Users/jonathan/Works</text>
<text text-anchor="start" x="294" y="-29" font-family="Helvetica,sans-Serif" font-size="10.00">/Tools/Triton/src/libtriton</text>
<text text-anchor="start" x="294" y="-18" font-family="Helvetica,sans-Serif" font-size="10.00">/bindings/python/namespaces</text>
<text text-anchor="middle" x="359" y="-7" font-family="Helvetica,sans-Serif" font-size="10.00">/initArchNamespace.cpp</text>
</a>
</g>
</g>
<!-- Node1&#45;&gt;Node4 -->
<g id="edge3" class="edge">
<title>Node1&#45;&gt;Node4</title>
<path fill="none" stroke="#63b8ff" d="M2851.6,-106.89C2410.15,-104.05 681.24,-90.52 441,-52 438.06,-51.53 435.08,-50.98 432.08,-50.36"/>
<polygon fill="#63b8ff" stroke="#63b8ff" points="2851.5,-110.39 2861.52,-106.96 2851.55,-103.39 2851.5,-110.39"/>
</g>
<!-- Node5 -->
<g id="node5" class="node">
<title>Node5</title>
<g id="a_node5"><a xlink:href="initAstNodeNamespace_8cpp.html" target="_top" xlink:title=" ">
<polygon fill="white" stroke="#666666" points="596,-52 450,-52 450,0 596,0 596,-52"/>
<text text-anchor="start" x="458" y="-40" font-family="Helvetica,sans-Serif" font-size="10.00">/Users/jonathan/Works</text>
<text text-anchor="start" x="458" y="-29" font-family="Helvetica,sans-Serif" font-size="10.00">/Tools/Triton/src/libtriton</text>
<text text-anchor="start" x="458" y="-18" font-family="Helvetica,sans-Serif" font-size="10.00">/bindings/python/namespaces</text>
<text text-anchor="middle" x="523" y="-7" font-family="Helvetica,sans-Serif" font-size="10.00">/initAstNodeNamespace.cpp</text>
</a>
</g>
</g>
<!-- Node1&#45;&gt;Node5 -->
<g id="edge4" class="edge">
<title>Node1&#45;&gt;Node5</title>
<path fill="none" stroke="#63b8ff" d="M2852.04,-106.73C2429.62,-103.29 828.43,-88.01 605,-52 602.06,-51.53 599.08,-50.97 596.08,-50.36"/>
<polygon fill="#63b8ff" stroke="#63b8ff" points="2851.76,-110.22 2861.79,-106.8 2851.81,-103.22 2851.76,-110.22"/>
</g>
<!-- Node6 -->
<g id="node6" class="node">
<title>Node6</title>
<g id="a_node6"><a xlink:href="initAstRepresentationNamespace_8cpp.html" target="_top" xlink:title=" ">
<polygon fill="white" stroke="#666666" points="799.5,-52 614.5,-52 614.5,0 799.5,0 799.5,-52"/>
<text text-anchor="start" x="622.5" y="-40" font-family="Helvetica,sans-Serif" font-size="10.00">/Users/jonathan/Works</text>
<text text-anchor="start" x="622.5" y="-29" font-family="Helvetica,sans-Serif" font-size="10.00">/Tools/Triton/src/libtriton</text>
<text text-anchor="start" x="622.5" y="-18" font-family="Helvetica,sans-Serif" font-size="10.00">/bindings/python/namespaces</text>
<text text-anchor="middle" x="707" y="-7" font-family="Helvetica,sans-Serif" font-size="10.00">/initAstRepresentationNamespace.cpp</text>
</a>
</g>
</g>
<!-- Node1&#45;&gt;Node6 -->
<g id="edge5" class="edge">
<title>Node1&#45;&gt;Node6</title>
<path fill="none" stroke="#63b8ff" d="M2851.59,-107.76C2481.05,-108.24 1211,-105.83 809,-52 806.02,-51.6 803,-51.15 799.95,-50.65"/>
<polygon fill="#63b8ff" stroke="#63b8ff" points="2851.56,-111.26 2861.56,-107.74 2851.55,-104.26 2851.56,-111.26"/>
</g>
<!-- Node7 -->
<g id="node7" class="node">
<title>Node7</title>
<g id="a_node7"><a xlink:href="initCallbackNamespace_8cpp.html" target="_top" xlink:title=" ">
<polygon fill="white" stroke="#666666" points="964,-52 818,-52 818,0 964,0 964,-52"/>
<text text-anchor="start" x="826" y="-40" font-family="Helvetica,sans-Serif" font-size="10.00">/Users/jonathan/Works</text>
<text text-anchor="start" x="826" y="-29" font-family="Helvetica,sans-Serif" font-size="10.00">/Tools/Triton/src/libtriton</text>
<text text-anchor="start" x="826" y="-18" font-family="Helvetica,sans-Serif" font-size="10.00">/bindings/python/namespaces</text>
<text text-anchor="middle" x="891" y="-7" font-family="Helvetica,sans-Serif" font-size="10.00">/initCallbackNamespace.cpp</text>
</a>
</g>
</g>
<!-- Node1&#45;&gt;Node7 -->
<g id="edge6" class="edge">
<title>Node1&#45;&gt;Node7</title>
<path fill="none" stroke="#63b8ff" d="M2851.77,-106.24C2472.54,-101.34 1158.63,-82.33 973,-52 970.06,-51.52 967.08,-50.96 964.09,-50.34"/>
<polygon fill="#63b8ff" stroke="#63b8ff" points="2851.69,-109.74 2861.74,-106.37 2851.78,-102.74 2851.69,-109.74"/>
</g>
<!-- Node8 -->
<g id="node8" class="node">
<title>Node8</title>
<g id="a_node8"><a xlink:href="initConditionsNamespace_8cpp.html" target="_top" xlink:title=" ">
<polygon fill="white" stroke="#666666" points="1132,-52 982,-52 982,0 1132,0 1132,-52"/>
<text text-anchor="start" x="990" y="-40" font-family="Helvetica,sans-Serif" font-size="10.00">/Users/jonathan/Works</text>
<text text-anchor="start" x="990" y="-29" font-family="Helvetica,sans-Serif" font-size="10.00">/Tools/Triton/src/libtriton</text>
<text text-anchor="start" x="990" y="-18" font-family="Helvetica,sans-Serif" font-size="10.00">/bindings/python/namespaces</text>
<text text-anchor="middle" x="1057" y="-7" font-family="Helvetica,sans-Serif" font-size="10.00">/initConditionsNamespace.cpp</text>
</a>
</g>
</g>
<!-- Node1&#45;&gt;Node8 -->
<g id="edge7" class="edge">
<title>Node1&#45;&gt;Node8</title>
<path fill="none" stroke="#63b8ff" d="M2851.74,-107.84C2519.71,-108.4 1474.07,-105.73 1141,-52 1138.15,-51.54 1135.25,-51.01 1132.34,-50.42"/>
<polygon fill="#63b8ff" stroke="#63b8ff" points="2851.74,-111.34 2861.74,-107.82 2851.73,-104.34 2851.74,-111.34"/>
</g>
<!-- Node9 -->
<g id="node9" class="node">
<title>Node9</title>
<g id="a_node9"><a xlink:href="initCpuSizeNamespace_8cpp.html" target="_top" xlink:title=" ">
<polygon fill="white" stroke="#666666" points="1296,-52 1150,-52 1150,0 1296,0 1296,-52"/>
<text text-anchor="start" x="1158" y="-40" font-family="Helvetica,sans-Serif" font-size="10.00">/Users/jonathan/Works</text>
<text text-anchor="start" x="1158" y="-29" font-family="Helvetica,sans-Serif" font-size="10.00">/Tools/Triton/src/libtriton</text>
<text text-anchor="start" x="1158" y="-18" font-family="Helvetica,sans-Serif" font-size="10.00">/bindings/python/namespaces</text>
<text text-anchor="middle" x="1223" y="-7" font-family="Helvetica,sans-Serif" font-size="10.00">/initCpuSizeNamespace.cpp</text>
</a>
</g>
</g>
<!-- Node1&#45;&gt;Node9 -->
<g id="edge8" class="edge">
<title>Node1&#45;&gt;Node9</title>
<path fill="none" stroke="#63b8ff" d="M2851.99,-107.56C2540.51,-107.19 1604.79,-101.85 1305,-52 1302.06,-51.51 1299.09,-50.95 1296.09,-50.32"/>
<polygon fill="#63b8ff" stroke="#63b8ff" points="2851.73,-111.06 2861.74,-107.57 2851.74,-104.06 2851.73,-111.06"/>
</g>
<!-- Node10 -->
<g id="node10" class="node">
<title>Node10</title>
<g id="a_node10"><a xlink:href="initExceptionNamespace_8cpp.html" target="_top" xlink:title=" ">
<polygon fill="white" stroke="#666666" points="1461.5,-52 1314.5,-52 1314.5,0 1461.5,0 1461.5,-52"/>
<text text-anchor="start" x="1322.5" y="-40" font-family="Helvetica,sans-Serif" font-size="10.00">/Users/jonathan/Works</text>
<text text-anchor="start" x="1322.5" y="-29" font-family="Helvetica,sans-Serif" font-size="10.00">/Tools/Triton/src/libtriton</text>
<text text-anchor="start" x="1322.5" y="-18" font-family="Helvetica,sans-Serif" font-size="10.00">/bindings/python/namespaces</text>
<text text-anchor="middle" x="1388" y="-7" font-family="Helvetica,sans-Serif" font-size="10.00">/initExceptionNamespace.cpp</text>
</a>
</g>
</g>
<!-- Node1&#45;&gt;Node10 -->
<g id="edge9" class="edge">
<title>Node1&#45;&gt;Node10</title>
<path fill="none" stroke="#63b8ff" d="M2852.16,-107.06C2562.46,-105.29 1737.47,-96.37 1471,-52 1468.03,-51.51 1465.02,-50.94 1461.99,-50.31"/>
<polygon fill="#63b8ff" stroke="#63b8ff" points="2851.95,-110.56 2861.97,-107.12 2851.99,-103.56 2851.95,-110.56"/>
</g>
<!-- Node11 -->
<g id="node11" class="node">
<title>Node11</title>
<g id="a_node11"><a xlink:href="initExtendNamespace_8cpp.html" target="_top" xlink:title=" ">
<polygon fill="white" stroke="#666666" points="1626,-52 1480,-52 1480,0 1626,0 1626,-52"/>
<text text-anchor="start" x="1488" y="-40" font-family="Helvetica,sans-Serif" font-size="10.00">/Users/jonathan/Works</text>
<text text-anchor="start" x="1488" y="-29" font-family="Helvetica,sans-Serif" font-size="10.00">/Tools/Triton/src/libtriton</text>
<text text-anchor="start" x="1488" y="-18" font-family="Helvetica,sans-Serif" font-size="10.00">/bindings/python/namespaces</text>
<text text-anchor="middle" x="1553" y="-7" font-family="Helvetica,sans-Serif" font-size="10.00">/initExtendNamespace.cpp</text>
</a>
</g>
</g>
<!-- Node1&#45;&gt;Node11 -->
<g id="edge10" class="edge">
<title>Node1&#45;&gt;Node11</title>
<path fill="none" stroke="#63b8ff" d="M2851.9,-106.55C2584.53,-103.52 1868.45,-91.83 1635,-52 1632.07,-51.5 1629.09,-50.92 1626.1,-50.29"/>
<polygon fill="#63b8ff" stroke="#63b8ff" points="2851.59,-110.05 2861.63,-106.66 2851.67,-103.05 2851.59,-110.05"/>
</g>
<!-- Node12 -->
<g id="node12" class="node">
<title>Node12</title>
<g id="a_node12"><a xlink:href="initModeNamespace_8cpp.html" target="_top" xlink:title=" ">
<polygon fill="white" stroke="#666666" points="1790,-52 1644,-52 1644,0 1790,0 1790,-52"/>
<text text-anchor="start" x="1652" y="-40" font-family="Helvetica,sans-Serif" font-size="10.00">/Users/jonathan/Works</text>
<text text-anchor="start" x="1652" y="-29" font-family="Helvetica,sans-Serif" font-size="10.00">/Tools/Triton/src/libtriton</text>
<text text-anchor="start" x="1652" y="-18" font-family="Helvetica,sans-Serif" font-size="10.00">/bindings/python/namespaces</text>
<text text-anchor="middle" x="1717" y="-7" font-family="Helvetica,sans-Serif" font-size="10.00">/initModeNamespace.cpp</text>
</a>
</g>
</g>
<!-- Node1&#45;&gt;Node12 -->
<g id="edge11" class="edge">
<title>Node1&#45;&gt;Node12</title>
<path fill="none" stroke="#63b8ff" d="M2851.89,-105.83C2608.55,-101.34 1999.78,-86.87 1799,-52 1796.07,-51.49 1793.09,-50.91 1790.1,-50.27"/>
<polygon fill="#63b8ff" stroke="#63b8ff" points="2851.63,-109.33 2861.69,-106.01 2851.76,-102.33 2851.63,-109.33"/>
</g>
<!-- Node13 -->
<g id="node13" class="node">
<title>Node13</title>
<g id="a_node13"><a xlink:href="initOpcodesNamespace_8cpp.html" target="_top" xlink:title=" ">
<polygon fill="white" stroke="#666666" points="1954,-52 1808,-52 1808,0 1954,0 1954,-52"/>
<text text-anchor="start" x="1816" y="-40" font-family="Helvetica,sans-Serif" font-size="10.00">/Users/jonathan/Works</text>
<text text-anchor="start" x="1816" y="-29" font-family="Helvetica,sans-Serif" font-size="10.00">/Tools/Triton/src/libtriton</text>
<text text-anchor="start" x="1816" y="-18" font-family="Helvetica,sans-Serif" font-size="10.00">/bindings/python/namespaces</text>
<text text-anchor="middle" x="1881" y="-7" font-family="Helvetica,sans-Serif" font-size="10.00">/initOpcodesNamespace.cpp</text>
</a>
</g>
</g>
<!-- Node1&#45;&gt;Node13 -->
<g id="edge12" class="edge">
<title>Node1&#45;&gt;Node13</title>
<path fill="none" stroke="#63b8ff" d="M2851.79,-104.88C2634.2,-98.81 2131.34,-81.93 1963,-52 1960.07,-51.48 1957.1,-50.89 1954.1,-50.24"/>
<polygon fill="#63b8ff" stroke="#63b8ff" points="2851.59,-108.38 2861.68,-105.16 2851.78,-101.38 2851.59,-108.38"/>
</g>
<!-- Node14 -->
<g id="node14" class="node">
<title>Node14</title>
<g id="a_node14"><a xlink:href="initOperandNamespace_8cpp.html" target="_top" xlink:title=" ">
<polygon fill="white" stroke="#666666" points="2118,-52 1972,-52 1972,0 2118,0 2118,-52"/>
<text text-anchor="start" x="1980" y="-40" font-family="Helvetica,sans-Serif" font-size="10.00">/Users/jonathan/Works</text>
<text text-anchor="start" x="1980" y="-29" font-family="Helvetica,sans-Serif" font-size="10.00">/Tools/Triton/src/libtriton</text>
<text text-anchor="start" x="1980" y="-18" font-family="Helvetica,sans-Serif" font-size="10.00">/bindings/python/namespaces</text>
<text text-anchor="middle" x="2045" y="-7" font-family="Helvetica,sans-Serif" font-size="10.00">/initOperandNamespace.cpp</text>
</a>
</g>
</g>
<!-- Node1&#45;&gt;Node14 -->
<g id="edge13" class="edge">
<title>Node1&#45;&gt;Node14</title>
<path fill="none" stroke="#63b8ff" d="M2851.71,-108.12C2694.56,-107.39 2384.87,-99.31 2127,-52 2124.07,-51.46 2121.1,-50.86 2118.11,-50.2"/>
<polygon fill="#63b8ff" stroke="#63b8ff" points="2851.69,-111.62 2861.7,-108.15 2851.72,-104.62 2851.69,-111.62"/>
</g>
<!-- Node15 -->
<g id="node15" class="node">
<title>Node15</title>
<g id="a_node15"><a xlink:href="initPrefixesNamespace_8cpp.html" target="_top" xlink:title=" ">
<polygon fill="white" stroke="#666666" points="2282,-52 2136,-52 2136,0 2282,0 2282,-52"/>
<text text-anchor="start" x="2144" y="-40" font-family="Helvetica,sans-Serif" font-size="10.00">/Users/jonathan/Works</text>
<text text-anchor="start" x="2144" y="-29" font-family="Helvetica,sans-Serif" font-size="10.00">/Tools/Triton/src/libtriton</text>
<text text-anchor="start" x="2144" y="-18" font-family="Helvetica,sans-Serif" font-size="10.00">/bindings/python/namespaces</text>
<text text-anchor="middle" x="2209" y="-7" font-family="Helvetica,sans-Serif" font-size="10.00">/initPrefixesNamespace.cpp</text>
</a>
</g>
</g>
<!-- Node1&#45;&gt;Node15 -->
<g id="edge14" class="edge">
<title>Node1&#45;&gt;Node15</title>
<path fill="none" stroke="#63b8ff" d="M2851.9,-105.66C2720.92,-101.78 2487.19,-89.68 2291,-52 2288.08,-51.44 2285.11,-50.81 2282.12,-50.13"/>
<polygon fill="#63b8ff" stroke="#63b8ff" points="2851.48,-109.15 2861.58,-105.94 2851.68,-102.15 2851.48,-109.15"/>
</g>
<!-- Node16 -->
<g id="node16" class="node">
<title>Node16</title>
<g id="a_node16"><a xlink:href="initRegNamespace_8cpp.html" target="_top" xlink:title=" ">
<polygon fill="white" stroke="#666666" points="2446,-52 2300,-52 2300,0 2446,0 2446,-52"/>
<text text-anchor="start" x="2308" y="-40" font-family="Helvetica,sans-Serif" font-size="10.00">/Users/jonathan/Works</text>
<text text-anchor="start" x="2308" y="-29" font-family="Helvetica,sans-Serif" font-size="10.00">/Tools/Triton/src/libtriton</text>
<text text-anchor="start" x="2308" y="-18" font-family="Helvetica,sans-Serif" font-size="10.00">/bindings/python/namespaces</text>
<text text-anchor="middle" x="2373" y="-7" font-family="Helvetica,sans-Serif" font-size="10.00">/initRegNamespace.cpp</text>
</a>
</g>
</g>
<!-- Node1&#45;&gt;Node16 -->
<g id="edge15" class="edge">
<title>Node1&#45;&gt;Node16</title>
<path fill="none" stroke="#63b8ff" d="M2851.59,-101.67C2750.11,-94.6 2590.63,-79.97 2455,-52 2452.08,-51.4 2449.12,-50.74 2446.14,-50.03"/>
<polygon fill="#63b8ff" stroke="#63b8ff" points="2851.34,-105.16 2861.56,-102.35 2851.82,-98.18 2851.34,-105.16"/>
</g>
<!-- Node17 -->
<g id="node17" class="node">
<title>Node17</title>
<g id="a_node17"><a xlink:href="initShiftsNamespace_8cpp.html" target="_top" xlink:title=" ">
<polygon fill="white" stroke="#666666" points="2610,-52 2464,-52 2464,0 2610,0 2610,-52"/>
<text text-anchor="start" x="2472" y="-40" font-family="Helvetica,sans-Serif" font-size="10.00">/Users/jonathan/Works</text>
<text text-anchor="start" x="2472" y="-29" font-family="Helvetica,sans-Serif" font-size="10.00">/Tools/Triton/src/libtriton</text>
<text text-anchor="start" x="2472" y="-18" font-family="Helvetica,sans-Serif" font-size="10.00">/bindings/python/namespaces</text>
<text text-anchor="middle" x="2537" y="-7" font-family="Helvetica,sans-Serif" font-size="10.00">/initShiftsNamespace.cpp</text>
</a>
</g>
</g>
<!-- Node1&#45;&gt;Node17 -->
<g id="edge16" class="edge">
<title>Node1&#45;&gt;Node17</title>
<path fill="none" stroke="#63b8ff" d="M2851.73,-94.12C2785.03,-84.53 2696.32,-70.11 2619,-52 2616.1,-51.32 2613.16,-50.6 2610.19,-49.84"/>
<polygon fill="#63b8ff" stroke="#63b8ff" points="2851.18,-97.58 2861.58,-95.53 2852.17,-90.65 2851.18,-97.58"/>
</g>
<!-- Node18 -->
<g id="node18" class="node">
<title>Node18</title>
<g id="a_node18"><a xlink:href="initSolverNamespace_8cpp.html" target="_top" xlink:title=" ">
<polygon fill="white" stroke="#666666" points="2774,-52 2628,-52 2628,0 2774,0 2774,-52"/>
<text text-anchor="start" x="2636" y="-40" font-family="Helvetica,sans-Serif" font-size="10.00">/Users/jonathan/Works</text>
<text text-anchor="start" x="2636" y="-29" font-family="Helvetica,sans-Serif" font-size="10.00">/Tools/Triton/src/libtriton</text>
<text text-anchor="start" x="2636" y="-18" font-family="Helvetica,sans-Serif" font-size="10.00">/bindings/python/namespaces</text>
<text text-anchor="middle" x="2701" y="-7" font-family="Helvetica,sans-Serif" font-size="10.00">/initSolverNamespace.cpp</text>
</a>
</g>
</g>
<!-- Node1&#45;&gt;Node18 -->
<g id="edge17" class="edge">
<title>Node1&#45;&gt;Node18</title>
<path fill="none" stroke="#63b8ff" d="M2880.84,-84.22C2847.43,-73.59 2807.94,-61.03 2774.49,-50.38"/>
<polygon fill="#63b8ff" stroke="#63b8ff" points="2879.43,-87.45 2890.02,-87.14 2881.55,-80.77 2879.43,-87.45"/>
</g>
<!-- Node19 -->
<g id="node19" class="node">
<title>Node19</title>
<g id="a_node19"><a xlink:href="initSolverStateNamespace_8cpp.html" target="_top" xlink:title=" ">
<polygon fill="white" stroke="#666666" points="2947.5,-52 2792.5,-52 2792.5,0 2947.5,0 2947.5,-52"/>
<text text-anchor="start" x="2800.5" y="-40" font-family="Helvetica,sans-Serif" font-size="10.00">/Users/jonathan/Works</text>
<text text-anchor="start" x="2800.5" y="-29" font-family="Helvetica,sans-Serif" font-size="10.00">/Tools/Triton/src/libtriton</text>
<text text-anchor="start" x="2800.5" y="-18" font-family="Helvetica,sans-Serif" font-size="10.00">/bindings/python/namespaces</text>
<text text-anchor="middle" x="2870" y="-7" font-family="Helvetica,sans-Serif" font-size="10.00">/initSolverStateNamespace.cpp</text>
</a>
</g>
</g>
<!-- Node1&#45;&gt;Node19 -->
<g id="edge18" class="edge">
<title>Node1&#45;&gt;Node19</title>
<path fill="none" stroke="#63b8ff" d="M2925.07,-79.77C2915.82,-70.91 2905.63,-61.15 2896.56,-52.45"/>
<polygon fill="#63b8ff" stroke="#63b8ff" points="2922.5,-82.16 2932.14,-86.55 2927.34,-77.11 2922.5,-82.16"/>
</g>
<!-- Node20 -->
<g id="node20" class="node">
<title>Node20</title>
<g id="a_node20"><a xlink:href="initStubsNamespace_8cpp.html" target="_top" xlink:title=" ">
<polygon fill="white" stroke="#666666" points="3112,-52 2966,-52 2966,0 3112,0 3112,-52"/>
<text text-anchor="start" x="2974" y="-40" font-family="Helvetica,sans-Serif" font-size="10.00">/Users/jonathan/Works</text>
<text text-anchor="start" x="2974" y="-29" font-family="Helvetica,sans-Serif" font-size="10.00">/Tools/Triton/src/libtriton</text>
<text text-anchor="start" x="2974" y="-18" font-family="Helvetica,sans-Serif" font-size="10.00">/bindings/python/namespaces</text>
<text text-anchor="middle" x="3039" y="-7" font-family="Helvetica,sans-Serif" font-size="10.00">/initStubsNamespace.cpp</text>
</a>
</g>
</g>
<!-- Node1&#45;&gt;Node20 -->
<g id="edge19" class="edge">
<title>Node1&#45;&gt;Node20</title>
<path fill="none" stroke="#63b8ff" d="M2983.28,-79.77C2992.64,-70.91 3002.95,-61.15 3012.12,-52.45"/>
<polygon fill="#63b8ff" stroke="#63b8ff" points="2980.96,-77.14 2976.11,-86.56 2985.78,-82.23 2980.96,-77.14"/>
</g>
<!-- Node21 -->
<g id="node21" class="node">
<title>Node21</title>
<g id="a_node21"><a xlink:href="initSymbolicNamespace_8cpp.html" target="_top" xlink:title=" ">
<polygon fill="white" stroke="#666666" points="3276,-52 3130,-52 3130,0 3276,0 3276,-52"/>
<text text-anchor="start" x="3138" y="-40" font-family="Helvetica,sans-Serif" font-size="10.00">/Users/jonathan/Works</text>
<text text-anchor="start" x="3138" y="-29" font-family="Helvetica,sans-Serif" font-size="10.00">/Tools/Triton/src/libtriton</text>
<text text-anchor="start" x="3138" y="-18" font-family="Helvetica,sans-Serif" font-size="10.00">/bindings/python/namespaces</text>
<text text-anchor="middle" x="3203" y="-7" font-family="Helvetica,sans-Serif" font-size="10.00">/initSymbolicNamespace.cpp</text>
</a>
</g>
</g>
<!-- Node1&#45;&gt;Node21 -->
<g id="edge20" class="edge">
<title>Node1&#45;&gt;Node21</title>
<path fill="none" stroke="#63b8ff" d="M3026.34,-84.11C3058.85,-73.6 3097.15,-61.22 3129.76,-50.68"/>
<polygon fill="#63b8ff" stroke="#63b8ff" points="3025.43,-80.73 3016.99,-87.14 3027.58,-87.39 3025.43,-80.73"/>
</g>
<!-- Node22 -->
<g id="node22" class="node">
<title>Node22</title>
<g id="a_node22"><a xlink:href="initVASNamespace_8cpp.html" target="_top" xlink:title=" ">
<polygon fill="white" stroke="#666666" points="3440,-52 3294,-52 3294,0 3440,0 3440,-52"/>
<text text-anchor="start" x="3302" y="-40" font-family="Helvetica,sans-Serif" font-size="10.00">/Users/jonathan/Works</text>
<text text-anchor="start" x="3302" y="-29" font-family="Helvetica,sans-Serif" font-size="10.00">/Tools/Triton/src/libtriton</text>
<text text-anchor="start" x="3302" y="-18" font-family="Helvetica,sans-Serif" font-size="10.00">/bindings/python/namespaces</text>
<text text-anchor="middle" x="3367" y="-7" font-family="Helvetica,sans-Serif" font-size="10.00">/initVASNamespace.cpp</text>
</a>
</g>
</g>
<!-- Node1&#45;&gt;Node22 -->
<g id="edge21" class="edge">
<title>Node1&#45;&gt;Node22</title>
<path fill="none" stroke="#63b8ff" d="M3056.09,-93.88C3121.87,-84.25 3209,-69.88 3285,-52 3287.9,-51.32 3290.84,-50.59 3293.81,-49.83"/>
<polygon fill="#63b8ff" stroke="#63b8ff" points="3055.79,-90.39 3046.39,-95.29 3056.79,-97.32 3055.79,-90.39"/>
</g>
<!-- Node23 -->
<g id="node23" class="node">
<title>Node23</title>
<g id="a_node23"><a xlink:href="initVersionNamespace_8cpp.html" target="_top" xlink:title=" ">
<polygon fill="white" stroke="#666666" points="3604,-52 3458,-52 3458,0 3604,0 3604,-52"/>
<text text-anchor="start" x="3466" y="-40" font-family="Helvetica,sans-Serif" font-size="10.00">/Users/jonathan/Works</text>
<text text-anchor="start" x="3466" y="-29" font-family="Helvetica,sans-Serif" font-size="10.00">/Tools/Triton/src/libtriton</text>
<text text-anchor="start" x="3466" y="-18" font-family="Helvetica,sans-Serif" font-size="10.00">/bindings/python/namespaces</text>
<text text-anchor="middle" x="3531" y="-7" font-family="Helvetica,sans-Serif" font-size="10.00">/initVersionNamespace.cpp</text>
</a>
</g>
</g>
<!-- Node1&#45;&gt;Node23 -->
<g id="edge22" class="edge">
<title>Node1&#45;&gt;Node23</title>
<path fill="none" stroke="#63b8ff" d="M3056.04,-101.57C3156.73,-94.43 3314.66,-79.76 3449,-52 3451.92,-51.4 3454.88,-50.74 3457.86,-50.03"/>
<polygon fill="#63b8ff" stroke="#63b8ff" points="3055.9,-98.07 3046.17,-102.26 3056.39,-105.05 3055.9,-98.07"/>
</g>
<!-- Node24 -->
<g id="node24" class="node">
<title>Node24</title>
<g id="a_node24"><a xlink:href="pyAstContext_8cpp.html" target="_top" xlink:title=" ">
<polygon fill="white" stroke="#666666" points="3744,-52 3622,-52 3622,0 3744,0 3744,-52"/>
<text text-anchor="start" x="3630" y="-40" font-family="Helvetica,sans-Serif" font-size="10.00">/Users/jonathan/Works</text>
<text text-anchor="start" x="3630" y="-29" font-family="Helvetica,sans-Serif" font-size="10.00">/Tools/Triton/src/libtriton</text>
<text text-anchor="start" x="3630" y="-18" font-family="Helvetica,sans-Serif" font-size="10.00">/bindings/python/objects</text>
<text text-anchor="middle" x="3683" y="-7" font-family="Helvetica,sans-Serif" font-size="10.00">/pyAstContext.cpp</text>
</a>
</g>
</g>
<!-- Node1&#45;&gt;Node24 -->
<g id="edge23" class="edge">
<title>Node1&#45;&gt;Node24</title>
<path fill="none" stroke="#63b8ff" d="M3056.05,-107.05C3186.61,-104.62 3419.06,-94.05 3613,-52 3615.9,-51.37 3618.85,-50.65 3621.8,-49.87"/>
<polygon fill="#63b8ff" stroke="#63b8ff" points="3056.35,-103.54 3046.41,-107.21 3056.47,-110.54 3056.35,-103.54"/>
</g>
<!-- Node25 -->
<g id="node25" class="node">
<title>Node25</title>
<g id="a_node25"><a xlink:href="pyAstNode_8cpp.html" target="_top" xlink:title=" ">
<polygon fill="white" stroke="#666666" points="3884,-52 3762,-52 3762,0 3884,0 3884,-52"/>
<text text-anchor="start" x="3770" y="-40" font-family="Helvetica,sans-Serif" font-size="10.00">/Users/jonathan/Works</text>
<text text-anchor="start" x="3770" y="-29" font-family="Helvetica,sans-Serif" font-size="10.00">/Tools/Triton/src/libtriton</text>
<text text-anchor="start" x="3770" y="-18" font-family="Helvetica,sans-Serif" font-size="10.00">/bindings/python/objects</text>
<text text-anchor="middle" x="3823" y="-7" font-family="Helvetica,sans-Serif" font-size="10.00">/pyAstNode.cpp</text>
</a>
</g>
</g>
<!-- Node1&#45;&gt;Node25 -->
<g id="edge24" class="edge">
<title>Node1&#45;&gt;Node25</title>
<path fill="none" stroke="#63b8ff" d="M3056.17,-103.88C3240.76,-96.77 3622.77,-79.24 3753,-52 3755.91,-51.39 3758.85,-50.69 3761.81,-49.92"/>
<polygon fill="#63b8ff" stroke="#63b8ff" points="3056.21,-100.38 3046.35,-104.26 3056.47,-107.37 3056.21,-100.38"/>
</g>
<!-- Node26 -->
<g id="node26" class="node">
<title>Node26</title>
<g id="a_node26"><a xlink:href="pyBasicBlock_8cpp.html" target="_top" xlink:title=" ">
<polygon fill="white" stroke="#666666" points="4024,-52 3902,-52 3902,0 4024,0 4024,-52"/>
<text text-anchor="start" x="3910" y="-40" font-family="Helvetica,sans-Serif" font-size="10.00">/Users/jonathan/Works</text>
<text text-anchor="start" x="3910" y="-29" font-family="Helvetica,sans-Serif" font-size="10.00">/Tools/Triton/src/libtriton</text>
<text text-anchor="start" x="3910" y="-18" font-family="Helvetica,sans-Serif" font-size="10.00">/bindings/python/objects</text>
<text text-anchor="middle" x="3963" y="-7" font-family="Helvetica,sans-Serif" font-size="10.00">/pyBasicBlock.cpp</text>
</a>
</g>
</g>
<!-- Node1&#45;&gt;Node26 -->
<g id="edge25" class="edge">
<title>Node1&#45;&gt;Node26</title>
<path fill="none" stroke="#63b8ff" d="M3055.91,-105.12C3264.88,-99.65 3735.48,-84.1 3893,-52 3895.91,-51.41 3898.86,-50.72 3901.82,-49.96"/>
<polygon fill="#63b8ff" stroke="#63b8ff" points="3056.07,-101.62 3046.16,-105.38 3056.25,-108.62 3056.07,-101.62"/>
</g>
<!-- Node27 -->
<g id="node27" class="node">
<title>Node27</title>
<g id="a_node27"><a xlink:href="pyBitsVector_8cpp.html" target="_top" xlink:title=" ">
<polygon fill="white" stroke="#666666" points="4164,-52 4042,-52 4042,0 4164,0 4164,-52"/>
<text text-anchor="start" x="4050" y="-40" font-family="Helvetica,sans-Serif" font-size="10.00">/Users/jonathan/Works</text>
<text text-anchor="start" x="4050" y="-29" font-family="Helvetica,sans-Serif" font-size="10.00">/Tools/Triton/src/libtriton</text>
<text text-anchor="start" x="4050" y="-18" font-family="Helvetica,sans-Serif" font-size="10.00">/bindings/python/objects</text>
<text text-anchor="middle" x="4103" y="-7" font-family="Helvetica,sans-Serif" font-size="10.00">/pyBitsVector.cpp</text>
</a>
</g>
</g>
<!-- Node1&#45;&gt;Node27 -->
<g id="edge26" class="edge">
<title>Node1&#45;&gt;Node27</title>
<path fill="none" stroke="#63b8ff" d="M3056.05,-106.04C3287.81,-102.1 3848.05,-88.95 4033,-52 4035.91,-51.42 4038.86,-50.74 4041.83,-49.99"/>
<polygon fill="#63b8ff" stroke="#63b8ff" points="3056.05,-102.54 3046.11,-106.2 3056.17,-109.53 3056.05,-102.54"/>
</g>
<!-- Node28 -->
<g id="node28" class="node">
<title>Node28</title>
<g id="a_node28"><a xlink:href="pyImmediate_8cpp.html" target="_top" xlink:title=" ">
<polygon fill="white" stroke="#666666" points="4304,-52 4182,-52 4182,0 4304,0 4304,-52"/>
<text text-anchor="start" x="4190" y="-40" font-family="Helvetica,sans-Serif" font-size="10.00">/Users/jonathan/Works</text>
<text text-anchor="start" x="4190" y="-29" font-family="Helvetica,sans-Serif" font-size="10.00">/Tools/Triton/src/libtriton</text>
<text text-anchor="start" x="4190" y="-18" font-family="Helvetica,sans-Serif" font-size="10.00">/bindings/python/objects</text>
<text text-anchor="middle" x="4243" y="-7" font-family="Helvetica,sans-Serif" font-size="10.00">/pyImmediate.cpp</text>
</a>
</g>
</g>
<!-- Node1&#45;&gt;Node28 -->
<g id="edge27" class="edge">
<title>Node1&#45;&gt;Node28</title>
<path fill="none" stroke="#63b8ff" d="M3055.95,-106.75C3308.94,-104.25 3960.35,-93.84 4173,-52 4175.91,-51.43 4178.87,-50.76 4181.83,-50.01"/>
<polygon fill="#63b8ff" stroke="#63b8ff" points="3056.05,-103.24 3046.09,-106.84 3056.12,-110.24 3056.05,-103.24"/>
</g>
<!-- Node29 -->
<g id="node29" class="node">
<title>Node29</title>
<g id="a_node29"><a xlink:href="pyInstruction_8cpp.html" target="_top" xlink:title=" ">
<polygon fill="white" stroke="#666666" points="4444,-52 4322,-52 4322,0 4444,0 4444,-52"/>
<text text-anchor="start" x="4330" y="-40" font-family="Helvetica,sans-Serif" font-size="10.00">/Users/jonathan/Works</text>
<text text-anchor="start" x="4330" y="-29" font-family="Helvetica,sans-Serif" font-size="10.00">/Tools/Triton/src/libtriton</text>
<text text-anchor="start" x="4330" y="-18" font-family="Helvetica,sans-Serif" font-size="10.00">/bindings/python/objects</text>
<text text-anchor="middle" x="4383" y="-7" font-family="Helvetica,sans-Serif" font-size="10.00">/pyInstruction.cpp</text>
</a>
</g>
</g>
<!-- Node1&#45;&gt;Node29 -->
<g id="edge28" class="edge">
<title>Node1&#45;&gt;Node29</title>
<path fill="none" stroke="#63b8ff" d="M3056.37,-107.31C3329.78,-106.16 4072.63,-98.71 4313,-52 4315.91,-51.43 4318.87,-50.77 4321.83,-50.02"/>
<polygon fill="#63b8ff" stroke="#63b8ff" points="3056.38,-103.81 3046.39,-107.35 3056.41,-110.81 3056.38,-103.81"/>
</g>
<!-- Node30 -->
<g id="node30" class="node">
<title>Node30</title>
<g id="a_node30"><a xlink:href="pyMemoryAccess_8cpp.html" target="_top" xlink:title=" ">
<polygon fill="white" stroke="#666666" points="4584,-52 4462,-52 4462,0 4584,0 4584,-52"/>
<text text-anchor="start" x="4470" y="-40" font-family="Helvetica,sans-Serif" font-size="10.00">/Users/jonathan/Works</text>
<text text-anchor="start" x="4470" y="-29" font-family="Helvetica,sans-Serif" font-size="10.00">/Tools/Triton/src/libtriton</text>
<text text-anchor="start" x="4470" y="-18" font-family="Helvetica,sans-Serif" font-size="10.00">/bindings/python/objects</text>
<text text-anchor="middle" x="4523" y="-7" font-family="Helvetica,sans-Serif" font-size="10.00">/pyMemoryAccess.cpp</text>
</a>
</g>
</g>
<!-- Node1&#45;&gt;Node30 -->
<g id="edge29" class="edge">
<title>Node1&#45;&gt;Node30</title>
<path fill="none" stroke="#63b8ff" d="M3056.02,-107.77C3348.24,-107.9 4184.55,-103.63 4453,-52 4455.91,-51.44 4458.87,-50.78 4461.84,-50.04"/>
<polygon fill="#63b8ff" stroke="#63b8ff" points="3056.12,-104.27 3046.12,-107.76 3056.12,-111.27 3056.12,-104.27"/>
</g>
<!-- Node31 -->
<g id="node31" class="node">
<title>Node31</title>
<g id="a_node31"><a xlink:href="pyPathConstraint_8cpp.html" target="_top" xlink:title=" ">
<polygon fill="white" stroke="#666666" points="4724,-52 4602,-52 4602,0 4724,0 4724,-52"/>
<text text-anchor="start" x="4610" y="-40" font-family="Helvetica,sans-Serif" font-size="10.00">/Users/jonathan/Works</text>
<text text-anchor="start" x="4610" y="-29" font-family="Helvetica,sans-Serif" font-size="10.00">/Tools/Triton/src/libtriton</text>
<text text-anchor="start" x="4610" y="-18" font-family="Helvetica,sans-Serif" font-size="10.00">/bindings/python/objects</text>
<text text-anchor="middle" x="4663" y="-7" font-family="Helvetica,sans-Serif" font-size="10.00">/pyPathConstraint.cpp</text>
</a>
</g>
</g>
<!-- Node1&#45;&gt;Node31 -->
<g id="edge30" class="edge">
<title>Node1&#45;&gt;Node31</title>
<path fill="none" stroke="#63b8ff" d="M3056.04,-108.15C3366.5,-109.5 4296.45,-108.55 4593,-52 4595.92,-51.44 4598.87,-50.79 4601.84,-50.05"/>
<polygon fill="#63b8ff" stroke="#63b8ff" points="3056.35,-104.66 3046.33,-108.11 3056.32,-111.66 3056.35,-104.66"/>
</g>
<!-- Node32 -->
<g id="node32" class="node">
<title>Node32</title>
<g id="a_node32"><a xlink:href="pyRegister_8cpp.html" target="_top" xlink:title=" ">
<polygon fill="white" stroke="#666666" points="4864,-52 4742,-52 4742,0 4864,0 4864,-52"/>
<text text-anchor="start" x="4750" y="-40" font-family="Helvetica,sans-Serif" font-size="10.00">/Users/jonathan/Works</text>
<text text-anchor="start" x="4750" y="-29" font-family="Helvetica,sans-Serif" font-size="10.00">/Tools/Triton/src/libtriton</text>
<text text-anchor="start" x="4750" y="-18" font-family="Helvetica,sans-Serif" font-size="10.00">/bindings/python/objects</text>
<text text-anchor="middle" x="4803" y="-7" font-family="Helvetica,sans-Serif" font-size="10.00">/pyRegister.cpp</text>
</a>
</g>
</g>
<!-- Node1&#45;&gt;Node32 -->
<g id="edge31" class="edge">
<title>Node1&#45;&gt;Node32</title>
<path fill="none" stroke="#63b8ff" d="M3056.4,-106.16C3410.24,-101.29 4568.69,-83.11 4733,-52 4735.92,-51.45 4738.87,-50.79 4741.84,-50.06"/>
<polygon fill="#63b8ff" stroke="#63b8ff" points="3056.37,-102.66 3046.42,-106.3 3056.47,-109.66 3056.37,-102.66"/>
</g>
<!-- Node33 -->
<g id="node33" class="node">
<title>Node33</title>
<g id="a_node33"><a xlink:href="pySolverModel_8cpp.html" target="_top" xlink:title=" ">
<polygon fill="white" stroke="#666666" points="5004,-52 4882,-52 4882,0 5004,0 5004,-52"/>
<text text-anchor="start" x="4890" y="-40" font-family="Helvetica,sans-Serif" font-size="10.00">/Users/jonathan/Works</text>
<text text-anchor="start" x="4890" y="-29" font-family="Helvetica,sans-Serif" font-size="10.00">/Tools/Triton/src/libtriton</text>
<text text-anchor="start" x="4890" y="-18" font-family="Helvetica,sans-Serif" font-size="10.00">/bindings/python/objects</text>
<text text-anchor="middle" x="4943" y="-7" font-family="Helvetica,sans-Serif" font-size="10.00">/pySolverModel.cpp</text>
</a>
</g>
</g>
<!-- Node1&#45;&gt;Node33 -->
<g id="edge32" class="edge">
<title>Node1&#45;&gt;Node33</title>
<path fill="none" stroke="#63b8ff" d="M3056.22,-106.42C3427.8,-102.23 4694.44,-85.59 4873,-52 4875.92,-51.45 4878.87,-50.8 4881.84,-50.07"/>
<polygon fill="#63b8ff" stroke="#63b8ff" points="3056.44,-102.91 3046.48,-106.53 3056.52,-109.91 3056.44,-102.91"/>
</g>
<!-- Node34 -->
<g id="node34" class="node">
<title>Node34</title>
<g id="a_node34"><a xlink:href="pySymbolicExpression_8cpp.html" target="_top" xlink:title=" ">
<polygon fill="white" stroke="#666666" points="5160,-52 5022,-52 5022,0 5160,0 5160,-52"/>
<text text-anchor="start" x="5030" y="-40" font-family="Helvetica,sans-Serif" font-size="10.00">/Users/jonathan/Works</text>
<text text-anchor="start" x="5030" y="-29" font-family="Helvetica,sans-Serif" font-size="10.00">/Tools/Triton/src/libtriton</text>
<text text-anchor="start" x="5030" y="-18" font-family="Helvetica,sans-Serif" font-size="10.00">/bindings/python/objects</text>
<text text-anchor="middle" x="5091" y="-7" font-family="Helvetica,sans-Serif" font-size="10.00">/pySymbolicExpression.cpp</text>
</a>
</g>
</g>
<!-- Node1&#45;&gt;Node34 -->
<g id="edge33" class="edge">
<title>Node1&#45;&gt;Node34</title>
<path fill="none" stroke="#63b8ff" d="M3056.33,-106.44C3445.29,-102.17 4819.63,-84.91 5013,-52 5015.8,-51.52 5018.65,-50.97 5021.5,-50.35"/>
<polygon fill="#63b8ff" stroke="#63b8ff" points="3056.31,-102.94 3046.35,-106.55 3056.39,-109.94 3056.31,-102.94"/>
</g>
<!-- Node35 -->
<g id="node35" class="node">
<title>Node35</title>
<g id="a_node35"><a xlink:href="pySymbolicVariable_8cpp.html" target="_top" xlink:title=" ">
<polygon fill="white" stroke="#666666" points="5302,-52 5178,-52 5178,0 5302,0 5302,-52"/>
<text text-anchor="start" x="5186" y="-40" font-family="Helvetica,sans-Serif" font-size="10.00">/Users/jonathan/Works</text>
<text text-anchor="start" x="5186" y="-29" font-family="Helvetica,sans-Serif" font-size="10.00">/Tools/Triton/src/libtriton</text>
<text text-anchor="start" x="5186" y="-18" font-family="Helvetica,sans-Serif" font-size="10.00">/bindings/python/objects</text>
<text text-anchor="middle" x="5240" y="-7" font-family="Helvetica,sans-Serif" font-size="10.00">/pySymbolicVariable.cpp</text>
</a>
</g>
</g>
<!-- Node1&#45;&gt;Node35 -->
<g id="edge34" class="edge">
<title>Node1&#45;&gt;Node35</title>
<path fill="none" stroke="#63b8ff" d="M3056.19,-106.82C3463.62,-103.85 4960.15,-90.39 5169,-52 5171.83,-51.48 5174.69,-50.87 5177.57,-50.17"/>
<polygon fill="#63b8ff" stroke="#63b8ff" points="3056.23,-103.32 3046.26,-106.89 3056.28,-110.32 3056.23,-103.32"/>
</g>
<!-- Node36 -->
<g id="node36" class="node">
<title>Node36</title>
<g id="a_node36"><a xlink:href="pyTritonContext_8cpp.html" target="_top" xlink:title=" ">
<polygon fill="white" stroke="#666666" points="5442,-52 5320,-52 5320,0 5442,0 5442,-52"/>
<text text-anchor="start" x="5328" y="-40" font-family="Helvetica,sans-Serif" font-size="10.00">/Users/jonathan/Works</text>
<text text-anchor="start" x="5328" y="-29" font-family="Helvetica,sans-Serif" font-size="10.00">/Tools/Triton/src/libtriton</text>
<text text-anchor="start" x="5328" y="-18" font-family="Helvetica,sans-Serif" font-size="10.00">/bindings/python/objects</text>
<text text-anchor="middle" x="5381" y="-7" font-family="Helvetica,sans-Serif" font-size="10.00">/pyTritonContext.cpp</text>
</a>
</g>
</g>
<!-- Node1&#45;&gt;Node36 -->
<g id="edge35" class="edge">
<title>Node1&#45;&gt;Node36</title>
<path fill="none" stroke="#63b8ff" d="M3056,-107.01C3479.51,-104.73 5087.66,-93.4 5311,-52 5313.92,-51.46 5316.88,-50.81 5319.85,-50.09"/>
<polygon fill="#63b8ff" stroke="#63b8ff" points="3056.21,-103.51 3046.23,-107.07 3056.24,-110.51 3056.21,-103.51"/>
</g>
<!-- Node37 -->
<g id="node37" class="node">
<title>Node37</title>
<g id="a_node37"><a xlink:href="pyXFunctions_8cpp.html" target="_top" xlink:title=" ">
<polygon fill="white" stroke="#666666" points="5630,-46.5 5460,-46.5 5460,-5.5 5630,-5.5 5630,-46.5"/>
<text text-anchor="start" x="5468" y="-34.5" font-family="Helvetica,sans-Serif" font-size="10.00">/Users/jonathan/Works</text>
<text text-anchor="start" x="5468" y="-23.5" font-family="Helvetica,sans-Serif" font-size="10.00">/Tools/Triton/src/libtriton</text>
<text text-anchor="middle" x="5545" y="-12.5" font-family="Helvetica,sans-Serif" font-size="10.00">/bindings/python/pyXFunctions.cpp</text>
</a>
</g>
</g>
<!-- Node1&#45;&gt;Node37 -->
<g id="edge36" class="edge">
<title>Node1&#45;&gt;Node37</title>
<path fill="none" stroke="#63b8ff" d="M3056.08,-106.66C3495.17,-102.87 5211.7,-85.99 5451,-52 5459.69,-50.77 5468.73,-49 5477.62,-46.97"/>
<polygon fill="#63b8ff" stroke="#63b8ff" points="3056.19,-103.16 3046.22,-106.75 3056.25,-110.16 3056.19,-103.16"/>
</g>
</g>
</svg>
