<?xml version="1.0" encoding="UTF-8" standalone="no"?>
<!DOCTYPE svg PUBLIC "-//W3C//DTD SVG 1.1//EN"
 "http://www.w3.org/Graphics/SVG/1.1/DTD/svg11.dtd">
<!-- Generated by graphviz version 2.50.0 (20211204.2007)
 -->
<!-- Title: /home/jonathan/Works/Tools/Triton/src/libtriton/includes/triton/pythonUtils.hpp Pages: 1 -->
<svg width="5624pt" height="139pt"
 viewBox="0.00 0.00 5623.50 139.00" xmlns="http://www.w3.org/2000/svg" xmlns:xlink="http://www.w3.org/1999/xlink">
<g id="graph0" class="graph" transform="scale(1 1) rotate(0) translate(4 135)">
<title>/home/jonathan/Works/Tools/Triton/src/libtriton/includes/triton/pythonUtils.hpp</title>
<polygon fill="white" stroke="transparent" points="-4,4 -4,-135 5619.5,-135 5619.5,4 -4,4"/>
<!-- Node1 -->
<g id="node1" class="node">
<title>Node1</title>
<g id="a_node1"><a xlink:title=" ">
<polygon fill="#bfbfbf" stroke="black" points="2907.5,-89.5 2907.5,-130.5 3077.5,-130.5 3077.5,-89.5 2907.5,-89.5"/>
<text text-anchor="start" x="2915.5" y="-118.5" font-family="Helvetica,sans-Serif" font-size="10.00">/home/jonathan/Works</text>
<text text-anchor="start" x="2915.5" y="-107.5" font-family="Helvetica,sans-Serif" font-size="10.00">/Tools/Triton/src/libtriton</text>
<text text-anchor="middle" x="2992.5" y="-96.5" font-family="Helvetica,sans-Serif" font-size="10.00">/includes/triton/pythonUtils.hpp</text>
</a>
</g>
</g>
<!-- Node2 -->
<g id="node2" class="node">
<title>Node2</title>
<g id="a_node2"><a xlink:href="tritonCallbacks_8cpp.html" target="_top" xlink:title=" ">
<polygon fill="white" stroke="black" points="0,-0.5 0,-52.5 143,-52.5 143,-0.5 0,-0.5"/>
<text text-anchor="start" x="8" y="-40.5" font-family="Helvetica,sans-Serif" font-size="10.00">/home/jonathan/Works</text>
<text text-anchor="start" x="8" y="-29.5" font-family="Helvetica,sans-Serif" font-size="10.00">/Tools/Triton/src/libtriton</text>
<text text-anchor="start" x="8" y="-18.5" font-family="Helvetica,sans-Serif" font-size="10.00">/bindings/python/modules</text>
<text text-anchor="middle" x="71.5" y="-7.5" font-family="Helvetica,sans-Serif" font-size="10.00">/tritonCallbacks.cpp</text>
</a>
</g>
</g>
<!-- Node1&#45;&gt;Node2 -->
<g id="edge1" class="edge">
<title>Node1&#45;&gt;Node2</title>
<path fill="none" stroke="midnightblue" d="M2897.23,-108.73C2433.97,-107.22 427.72,-98.08 152.5,-53 149.44,-52.5 146.35,-51.91 143.23,-51.25"/>
<polygon fill="midnightblue" stroke="midnightblue" points="2897.22,-112.23 2907.24,-108.77 2897.25,-105.23 2897.22,-112.23"/>
</g>
<!-- Node3 -->
<g id="node3" class="node">
<title>Node3</title>
<g id="a_node3"><a xlink:href="initArchNamespace_8cpp.html" target="_top" xlink:title=" ">
<polygon fill="white" stroke="black" points="161.5,-0.5 161.5,-52.5 323.5,-52.5 323.5,-0.5 161.5,-0.5"/>
<text text-anchor="start" x="169.5" y="-40.5" font-family="Helvetica,sans-Serif" font-size="10.00">/home/jonathan/Works</text>
<text text-anchor="start" x="169.5" y="-29.5" font-family="Helvetica,sans-Serif" font-size="10.00">/Tools/Triton/src/libtriton</text>
<text text-anchor="start" x="169.5" y="-18.5" font-family="Helvetica,sans-Serif" font-size="10.00">/bindings/python/namespaces</text>
<text text-anchor="middle" x="242.5" y="-7.5" font-family="Helvetica,sans-Serif" font-size="10.00">/initArchNamespace.cpp</text>
</a>
</g>
</g>
<!-- Node1&#45;&gt;Node3 -->
<g id="edge2" class="edge">
<title>Node1&#45;&gt;Node3</title>
<path fill="none" stroke="midnightblue" d="M2897.21,-108.43C2452.24,-105.59 589.65,-91.49 332.5,-53 329.61,-52.57 326.68,-52.07 323.73,-51.52"/>
<polygon fill="midnightblue" stroke="midnightblue" points="2897.44,-111.93 2907.46,-108.5 2897.48,-104.94 2897.44,-111.93"/>
</g>
<!-- Node4 -->
<g id="node4" class="node">
<title>Node4</title>
<g id="a_node4"><a xlink:href="initAstNodeNamespace_8cpp.html" target="_top" xlink:title=" ">
<polygon fill="white" stroke="black" points="341.5,-0.5 341.5,-52.5 503.5,-52.5 503.5,-0.5 341.5,-0.5"/>
<text text-anchor="start" x="349.5" y="-40.5" font-family="Helvetica,sans-Serif" font-size="10.00">/home/jonathan/Works</text>
<text text-anchor="start" x="349.5" y="-29.5" font-family="Helvetica,sans-Serif" font-size="10.00">/Tools/Triton/src/libtriton</text>
<text text-anchor="start" x="349.5" y="-18.5" font-family="Helvetica,sans-Serif" font-size="10.00">/bindings/python/namespaces</text>
<text text-anchor="middle" x="422.5" y="-7.5" font-family="Helvetica,sans-Serif" font-size="10.00">/initAstNodeNamespace.cpp</text>
</a>
</g>
</g>
<!-- Node1&#45;&gt;Node4 -->
<g id="edge3" class="edge">
<title>Node1&#45;&gt;Node4</title>
<path fill="none" stroke="midnightblue" d="M2897.08,-108.28C2470.77,-104.84 750.98,-88.88 512.5,-53 509.61,-52.57 506.68,-52.07 503.73,-51.51"/>
<polygon fill="midnightblue" stroke="midnightblue" points="2897.18,-111.78 2907.21,-108.36 2897.24,-104.78 2897.18,-111.78"/>
</g>
<!-- Node5 -->
<g id="node5" class="node">
<title>Node5</title>
<g id="a_node5"><a xlink:href="initAstRepresentationNamespace_8cpp.html" target="_top" xlink:title=" ">
<polygon fill="white" stroke="black" points="522,-0.5 522,-52.5 725,-52.5 725,-0.5 522,-0.5"/>
<text text-anchor="start" x="530" y="-40.5" font-family="Helvetica,sans-Serif" font-size="10.00">/home/jonathan/Works</text>
<text text-anchor="start" x="530" y="-29.5" font-family="Helvetica,sans-Serif" font-size="10.00">/Tools/Triton/src/libtriton</text>
<text text-anchor="start" x="530" y="-18.5" font-family="Helvetica,sans-Serif" font-size="10.00">/bindings/python/namespaces</text>
<text text-anchor="middle" x="623.5" y="-7.5" font-family="Helvetica,sans-Serif" font-size="10.00">/initAstRepresentationNamespace.cpp</text>
</a>
</g>
</g>
<!-- Node1&#45;&gt;Node5 -->
<g id="edge4" class="edge">
<title>Node1&#45;&gt;Node5</title>
<path fill="none" stroke="midnightblue" d="M2897.13,-109.19C2524.02,-109.52 1162.71,-106.94 734.5,-53 731.46,-52.62 728.38,-52.19 725.28,-51.72"/>
<polygon fill="midnightblue" stroke="midnightblue" points="2897.36,-112.69 2907.35,-109.18 2897.35,-105.69 2897.36,-112.69"/>
</g>
<!-- Node6 -->
<g id="node6" class="node">
<title>Node6</title>
<g id="a_node6"><a xlink:href="initCallbackNamespace_8cpp.html" target="_top" xlink:title=" ">
<polygon fill="white" stroke="black" points="743.5,-0.5 743.5,-52.5 905.5,-52.5 905.5,-0.5 743.5,-0.5"/>
<text text-anchor="start" x="751.5" y="-40.5" font-family="Helvetica,sans-Serif" font-size="10.00">/home/jonathan/Works</text>
<text text-anchor="start" x="751.5" y="-29.5" font-family="Helvetica,sans-Serif" font-size="10.00">/Tools/Triton/src/libtriton</text>
<text text-anchor="start" x="751.5" y="-18.5" font-family="Helvetica,sans-Serif" font-size="10.00">/bindings/python/namespaces</text>
<text text-anchor="middle" x="824.5" y="-7.5" font-family="Helvetica,sans-Serif" font-size="10.00">/initCallbackNamespace.cpp</text>
</a>
</g>
</g>
<!-- Node1&#45;&gt;Node6 -->
<g id="edge5" class="edge">
<title>Node1&#45;&gt;Node6</title>
<path fill="none" stroke="midnightblue" d="M2897.25,-107.83C2516.07,-102.95 1111.54,-83.09 914.5,-53 911.61,-52.56 908.68,-52.05 905.73,-51.5"/>
<polygon fill="midnightblue" stroke="midnightblue" points="2897.38,-111.33 2907.42,-107.96 2897.47,-104.33 2897.38,-111.33"/>
</g>
<!-- Node7 -->
<g id="node7" class="node">
<title>Node7</title>
<g id="a_node7"><a xlink:href="initConditionsNamespace_8cpp.html" target="_top" xlink:title=" ">
<polygon fill="white" stroke="black" points="924,-0.5 924,-52.5 1089,-52.5 1089,-0.5 924,-0.5"/>
<text text-anchor="start" x="932" y="-40.5" font-family="Helvetica,sans-Serif" font-size="10.00">/home/jonathan/Works</text>
<text text-anchor="start" x="932" y="-29.5" font-family="Helvetica,sans-Serif" font-size="10.00">/Tools/Triton/src/libtriton</text>
<text text-anchor="start" x="932" y="-18.5" font-family="Helvetica,sans-Serif" font-size="10.00">/bindings/python/namespaces</text>
<text text-anchor="middle" x="1006.5" y="-7.5" font-family="Helvetica,sans-Serif" font-size="10.00">/initConditionsNamespace.cpp</text>
</a>
</g>
</g>
<!-- Node1&#45;&gt;Node7 -->
<g id="edge6" class="edge">
<title>Node1&#45;&gt;Node7</title>
<path fill="none" stroke="midnightblue" d="M2897.18,-109.21C2563.75,-109.48 1450.92,-106.25 1098.5,-53 1095.39,-52.53 1092.23,-51.99 1089.05,-51.39"/>
<polygon fill="midnightblue" stroke="midnightblue" points="2897.29,-112.71 2907.29,-109.2 2897.29,-105.71 2897.29,-112.71"/>
</g>
<!-- Node8 -->
<g id="node8" class="node">
<title>Node8</title>
<g id="a_node8"><a xlink:href="initCpuSizeNamespace_8cpp.html" target="_top" xlink:title=" ">
<polygon fill="white" stroke="black" points="1107.5,-0.5 1107.5,-52.5 1269.5,-52.5 1269.5,-0.5 1107.5,-0.5"/>
<text text-anchor="start" x="1115.5" y="-40.5" font-family="Helvetica,sans-Serif" font-size="10.00">/home/jonathan/Works</text>
<text text-anchor="start" x="1115.5" y="-29.5" font-family="Helvetica,sans-Serif" font-size="10.00">/Tools/Triton/src/libtriton</text>
<text text-anchor="start" x="1115.5" y="-18.5" font-family="Helvetica,sans-Serif" font-size="10.00">/bindings/python/namespaces</text>
<text text-anchor="middle" x="1188.5" y="-7.5" font-family="Helvetica,sans-Serif" font-size="10.00">/initCpuSizeNamespace.cpp</text>
</a>
</g>
</g>
<!-- Node1&#45;&gt;Node8 -->
<g id="edge7" class="edge">
<title>Node1&#45;&gt;Node8</title>
<path fill="none" stroke="midnightblue" d="M2896.85,-108.93C2584.14,-108.23 1594.02,-102.1 1278.5,-53 1275.61,-52.55 1272.68,-52.04 1269.74,-51.47"/>
<polygon fill="midnightblue" stroke="midnightblue" points="2897.24,-112.43 2907.25,-108.95 2897.25,-105.43 2897.24,-112.43"/>
</g>
<!-- Node9 -->
<g id="node9" class="node">
<title>Node9</title>
<g id="a_node9"><a xlink:href="initExceptionNamespace_8cpp.html" target="_top" xlink:title=" ">
<polygon fill="white" stroke="black" points="1287.5,-0.5 1287.5,-52.5 1449.5,-52.5 1449.5,-0.5 1287.5,-0.5"/>
<text text-anchor="start" x="1295.5" y="-40.5" font-family="Helvetica,sans-Serif" font-size="10.00">/home/jonathan/Works</text>
<text text-anchor="start" x="1295.5" y="-29.5" font-family="Helvetica,sans-Serif" font-size="10.00">/Tools/Triton/src/libtriton</text>
<text text-anchor="start" x="1295.5" y="-18.5" font-family="Helvetica,sans-Serif" font-size="10.00">/bindings/python/namespaces</text>
<text text-anchor="middle" x="1368.5" y="-7.5" font-family="Helvetica,sans-Serif" font-size="10.00">/initExceptionNamespace.cpp</text>
</a>
</g>
</g>
<!-- Node1&#45;&gt;Node9 -->
<g id="edge8" class="edge">
<title>Node1&#45;&gt;Node9</title>
<path fill="none" stroke="midnightblue" d="M2897.31,-108.51C2607.33,-106.53 1737.69,-96.99 1458.5,-53 1455.61,-52.54 1452.69,-52.03 1449.74,-51.46"/>
<polygon fill="midnightblue" stroke="midnightblue" points="2897.36,-112.01 2907.38,-108.57 2897.4,-105.01 2897.36,-112.01"/>
</g>
<!-- Node10 -->
<g id="node10" class="node">
<title>Node10</title>
<g id="a_node10"><a xlink:href="initExtendNamespace_8cpp.html" target="_top" xlink:title=" ">
<polygon fill="white" stroke="black" points="1467.5,-0.5 1467.5,-52.5 1629.5,-52.5 1629.5,-0.5 1467.5,-0.5"/>
<text text-anchor="start" x="1475.5" y="-40.5" font-family="Helvetica,sans-Serif" font-size="10.00">/home/jonathan/Works</text>
<text text-anchor="start" x="1475.5" y="-29.5" font-family="Helvetica,sans-Serif" font-size="10.00">/Tools/Triton/src/libtriton</text>
<text text-anchor="start" x="1475.5" y="-18.5" font-family="Helvetica,sans-Serif" font-size="10.00">/bindings/python/namespaces</text>
<text text-anchor="middle" x="1548.5" y="-7.5" font-family="Helvetica,sans-Serif" font-size="10.00">/initExtendNamespace.cpp</text>
</a>
</g>
</g>
<!-- Node1&#45;&gt;Node10 -->
<g id="edge9" class="edge">
<title>Node1&#45;&gt;Node10</title>
<path fill="none" stroke="midnightblue" d="M2897.13,-107.96C2630.55,-104.6 1881.34,-91.87 1638.5,-53 1635.61,-52.54 1632.69,-52.01 1629.74,-51.44"/>
<polygon fill="midnightblue" stroke="midnightblue" points="2897.13,-111.46 2907.17,-108.09 2897.21,-104.46 2897.13,-111.46"/>
</g>
<!-- Node11 -->
<g id="node11" class="node">
<title>Node11</title>
<g id="a_node11"><a xlink:href="initModeNamespace_8cpp.html" target="_top" xlink:title=" ">
<polygon fill="white" stroke="black" points="1647.5,-0.5 1647.5,-52.5 1809.5,-52.5 1809.5,-0.5 1647.5,-0.5"/>
<text text-anchor="start" x="1655.5" y="-40.5" font-family="Helvetica,sans-Serif" font-size="10.00">/home/jonathan/Works</text>
<text text-anchor="start" x="1655.5" y="-29.5" font-family="Helvetica,sans-Serif" font-size="10.00">/Tools/Triton/src/libtriton</text>
<text text-anchor="start" x="1655.5" y="-18.5" font-family="Helvetica,sans-Serif" font-size="10.00">/bindings/python/namespaces</text>
<text text-anchor="middle" x="1728.5" y="-7.5" font-family="Helvetica,sans-Serif" font-size="10.00">/initModeNamespace.cpp</text>
</a>
</g>
</g>
<!-- Node1&#45;&gt;Node11 -->
<g id="edge10" class="edge">
<title>Node1&#45;&gt;Node11</title>
<path fill="none" stroke="midnightblue" d="M2896.93,-107.25C2655.42,-102.39 2025.22,-86.76 1818.5,-53 1815.62,-52.53 1812.69,-52 1809.75,-51.42"/>
<polygon fill="midnightblue" stroke="midnightblue" points="2897.02,-110.76 2907.09,-107.46 2897.16,-103.76 2897.02,-110.76"/>
</g>
<!-- Node12 -->
<g id="node12" class="node">
<title>Node12</title>
<g id="a_node12"><a xlink:href="initOpcodesNamespace_8cpp.html" target="_top" xlink:title=" ">
<polygon fill="white" stroke="black" points="1827.5,-0.5 1827.5,-52.5 1989.5,-52.5 1989.5,-0.5 1827.5,-0.5"/>
<text text-anchor="start" x="1835.5" y="-40.5" font-family="Helvetica,sans-Serif" font-size="10.00">/home/jonathan/Works</text>
<text text-anchor="start" x="1835.5" y="-29.5" font-family="Helvetica,sans-Serif" font-size="10.00">/Tools/Triton/src/libtriton</text>
<text text-anchor="start" x="1835.5" y="-18.5" font-family="Helvetica,sans-Serif" font-size="10.00">/bindings/python/namespaces</text>
<text text-anchor="middle" x="1908.5" y="-7.5" font-family="Helvetica,sans-Serif" font-size="10.00">/initOpcodesNamespace.cpp</text>
</a>
</g>
</g>
<!-- Node1&#45;&gt;Node12 -->
<g id="edge11" class="edge">
<title>Node1&#45;&gt;Node12</title>
<path fill="none" stroke="midnightblue" d="M2896.98,-106.3C2682.78,-99.8 2169.46,-81.68 1998.5,-53 1995.62,-52.52 1992.69,-51.97 1989.75,-51.39"/>
<polygon fill="midnightblue" stroke="midnightblue" points="2897.16,-109.8 2907.26,-106.61 2897.37,-102.81 2897.16,-109.8"/>
</g>
<!-- Node13 -->
<g id="node13" class="node">
<title>Node13</title>
<g id="a_node13"><a xlink:href="initOperandNamespace_8cpp.html" target="_top" xlink:title=" ">
<polygon fill="white" stroke="black" points="2007.5,-0.5 2007.5,-52.5 2169.5,-52.5 2169.5,-0.5 2007.5,-0.5"/>
<text text-anchor="start" x="2015.5" y="-40.5" font-family="Helvetica,sans-Serif" font-size="10.00">/home/jonathan/Works</text>
<text text-anchor="start" x="2015.5" y="-29.5" font-family="Helvetica,sans-Serif" font-size="10.00">/Tools/Triton/src/libtriton</text>
<text text-anchor="start" x="2015.5" y="-18.5" font-family="Helvetica,sans-Serif" font-size="10.00">/bindings/python/namespaces</text>
<text text-anchor="middle" x="2088.5" y="-7.5" font-family="Helvetica,sans-Serif" font-size="10.00">/initOperandNamespace.cpp</text>
</a>
</g>
</g>
<!-- Node1&#45;&gt;Node13 -->
<g id="edge12" class="edge">
<title>Node1&#45;&gt;Node13</title>
<path fill="none" stroke="midnightblue" d="M2897.15,-108.82C2744.34,-107.11 2435.65,-97.78 2178.5,-53 2175.62,-52.5 2172.7,-51.94 2169.76,-51.34"/>
<polygon fill="midnightblue" stroke="midnightblue" points="2897.4,-112.32 2907.43,-108.93 2897.47,-105.32 2897.4,-112.32"/>
</g>
<!-- Node14 -->
<g id="node14" class="node">
<title>Node14</title>
<g id="a_node14"><a xlink:href="initPrefixesNamespace_8cpp.html" target="_top" xlink:title=" ">
<polygon fill="white" stroke="black" points="2187.5,-0.5 2187.5,-52.5 2349.5,-52.5 2349.5,-0.5 2187.5,-0.5"/>
<text text-anchor="start" x="2195.5" y="-40.5" font-family="Helvetica,sans-Serif" font-size="10.00">/home/jonathan/Works</text>
<text text-anchor="start" x="2195.5" y="-29.5" font-family="Helvetica,sans-Serif" font-size="10.00">/Tools/Triton/src/libtriton</text>
<text text-anchor="start" x="2195.5" y="-18.5" font-family="Helvetica,sans-Serif" font-size="10.00">/bindings/python/namespaces</text>
<text text-anchor="middle" x="2268.5" y="-7.5" font-family="Helvetica,sans-Serif" font-size="10.00">/initPrefixesNamespace.cpp</text>
</a>
</g>
</g>
<!-- Node1&#45;&gt;Node14 -->
<g id="edge13" class="edge">
<title>Node1&#45;&gt;Node14</title>
<path fill="none" stroke="midnightblue" d="M2897.19,-106.16C2772.48,-101.17 2547.57,-87.81 2358.5,-53 2355.63,-52.47 2352.71,-51.89 2349.77,-51.27"/>
<polygon fill="midnightblue" stroke="midnightblue" points="2897.34,-109.67 2907.47,-106.56 2897.61,-102.67 2897.34,-109.67"/>
</g>
<!-- Node15 -->
<g id="node15" class="node">
<title>Node15</title>
<g id="a_node15"><a xlink:href="initRegNamespace_8cpp.html" target="_top" xlink:title=" ">
<polygon fill="white" stroke="black" points="2367.5,-0.5 2367.5,-52.5 2529.5,-52.5 2529.5,-0.5 2367.5,-0.5"/>
<text text-anchor="start" x="2375.5" y="-40.5" font-family="Helvetica,sans-Serif" font-size="10.00">/home/jonathan/Works</text>
<text text-anchor="start" x="2375.5" y="-29.5" font-family="Helvetica,sans-Serif" font-size="10.00">/Tools/Triton/src/libtriton</text>
<text text-anchor="start" x="2375.5" y="-18.5" font-family="Helvetica,sans-Serif" font-size="10.00">/bindings/python/namespaces</text>
<text text-anchor="middle" x="2448.5" y="-7.5" font-family="Helvetica,sans-Serif" font-size="10.00">/initRegNamespace.cpp</text>
</a>
</g>
</g>
<!-- Node1&#45;&gt;Node15 -->
<g id="edge14" class="edge">
<title>Node1&#45;&gt;Node15</title>
<path fill="none" stroke="midnightblue" d="M2897.2,-101.53C2804.86,-93.28 2661.17,-77.79 2538.5,-53 2535.63,-52.42 2532.73,-51.8 2529.8,-51.14"/>
<polygon fill="midnightblue" stroke="midnightblue" points="2897.09,-105.03 2907.36,-102.42 2897.71,-98.06 2897.09,-105.03"/>
</g>
<!-- Node16 -->
<g id="node16" class="node">
<title>Node16</title>
<g id="a_node16"><a xlink:href="initShiftsNamespace_8cpp.html" target="_top" xlink:title=" ">
<polygon fill="white" stroke="black" points="2547.5,-0.5 2547.5,-52.5 2709.5,-52.5 2709.5,-0.5 2547.5,-0.5"/>
<text text-anchor="start" x="2555.5" y="-40.5" font-family="Helvetica,sans-Serif" font-size="10.00">/home/jonathan/Works</text>
<text text-anchor="start" x="2555.5" y="-29.5" font-family="Helvetica,sans-Serif" font-size="10.00">/Tools/Triton/src/libtriton</text>
<text text-anchor="start" x="2555.5" y="-18.5" font-family="Helvetica,sans-Serif" font-size="10.00">/bindings/python/namespaces</text>
<text text-anchor="middle" x="2628.5" y="-7.5" font-family="Helvetica,sans-Serif" font-size="10.00">/initShiftsNamespace.cpp</text>
</a>
</g>
</g>
<!-- Node1&#45;&gt;Node16 -->
<g id="edge15" class="edge">
<title>Node1&#45;&gt;Node16</title>
<path fill="none" stroke="midnightblue" d="M2897.24,-91.34C2844.37,-81.09 2777.55,-67.38 2718.5,-53 2715.66,-52.31 2712.77,-51.59 2709.86,-50.85"/>
<polygon fill="midnightblue" stroke="midnightblue" points="2896.8,-94.82 2907.28,-93.28 2898.13,-87.95 2896.8,-94.82"/>
</g>
<!-- Node17 -->
<g id="node17" class="node">
<title>Node17</title>
<g id="a_node17"><a xlink:href="initSolverNamespace_8cpp.html" target="_top" xlink:title=" ">
<polygon fill="white" stroke="black" points="2727.5,-0.5 2727.5,-52.5 2889.5,-52.5 2889.5,-0.5 2727.5,-0.5"/>
<text text-anchor="start" x="2735.5" y="-40.5" font-family="Helvetica,sans-Serif" font-size="10.00">/home/jonathan/Works</text>
<text text-anchor="start" x="2735.5" y="-29.5" font-family="Helvetica,sans-Serif" font-size="10.00">/Tools/Triton/src/libtriton</text>
<text text-anchor="start" x="2735.5" y="-18.5" font-family="Helvetica,sans-Serif" font-size="10.00">/bindings/python/namespaces</text>
<text text-anchor="middle" x="2808.5" y="-7.5" font-family="Helvetica,sans-Serif" font-size="10.00">/initSolverNamespace.cpp</text>
</a>
</g>
</g>
<!-- Node1&#45;&gt;Node17 -->
<g id="edge16" class="edge">
<title>Node1&#45;&gt;Node17</title>
<path fill="none" stroke="midnightblue" d="M2939.08,-85.34C2915.88,-75.06 2888.67,-63.01 2865.11,-52.58"/>
<polygon fill="midnightblue" stroke="midnightblue" points="2937.87,-88.63 2948.43,-89.48 2940.7,-82.23 2937.87,-88.63"/>
</g>
<!-- Node18 -->
<g id="node18" class="node">
<title>Node18</title>
<g id="a_node18"><a xlink:href="initSolverStateNamespace_8cpp.html" target="_top" xlink:title=" ">
<polygon fill="white" stroke="black" points="2907.5,-0.5 2907.5,-52.5 3077.5,-52.5 3077.5,-0.5 2907.5,-0.5"/>
<text text-anchor="start" x="2915.5" y="-40.5" font-family="Helvetica,sans-Serif" font-size="10.00">/home/jonathan/Works</text>
<text text-anchor="start" x="2915.5" y="-29.5" font-family="Helvetica,sans-Serif" font-size="10.00">/Tools/Triton/src/libtriton</text>
<text text-anchor="start" x="2915.5" y="-18.5" font-family="Helvetica,sans-Serif" font-size="10.00">/bindings/python/namespaces</text>
<text text-anchor="middle" x="2992.5" y="-7.5" font-family="Helvetica,sans-Serif" font-size="10.00">/initSolverStateNamespace.cpp</text>
</a>
</g>
</g>
<!-- Node1&#45;&gt;Node18 -->
<g id="edge17" class="edge">
<title>Node1&#45;&gt;Node18</title>
<path fill="none" stroke="midnightblue" d="M2992.5,-79.12C2992.5,-70.41 2992.5,-60.99 2992.5,-52.61"/>
<polygon fill="midnightblue" stroke="midnightblue" points="2989,-79.27 2992.5,-89.27 2996,-79.27 2989,-79.27"/>
</g>
<!-- Node19 -->
<g id="node19" class="node">
<title>Node19</title>
<g id="a_node19"><a xlink:href="initSymbolicNamespace_8cpp.html" target="_top" xlink:title=" ">
<polygon fill="white" stroke="black" points="3095.5,-0.5 3095.5,-52.5 3257.5,-52.5 3257.5,-0.5 3095.5,-0.5"/>
<text text-anchor="start" x="3103.5" y="-40.5" font-family="Helvetica,sans-Serif" font-size="10.00">/home/jonathan/Works</text>
<text text-anchor="start" x="3103.5" y="-29.5" font-family="Helvetica,sans-Serif" font-size="10.00">/Tools/Triton/src/libtriton</text>
<text text-anchor="start" x="3103.5" y="-18.5" font-family="Helvetica,sans-Serif" font-size="10.00">/bindings/python/namespaces</text>
<text text-anchor="middle" x="3176.5" y="-7.5" font-family="Helvetica,sans-Serif" font-size="10.00">/initSymbolicNamespace.cpp</text>
</a>
</g>
</g>
<!-- Node1&#45;&gt;Node19 -->
<g id="edge18" class="edge">
<title>Node1&#45;&gt;Node19</title>
<path fill="none" stroke="midnightblue" d="M3045.92,-85.34C3069.12,-75.06 3096.33,-63.01 3119.89,-52.58"/>
<polygon fill="midnightblue" stroke="midnightblue" points="3044.3,-82.23 3036.57,-89.48 3047.13,-88.63 3044.3,-82.23"/>
</g>
<!-- Node20 -->
<g id="node20" class="node">
<title>Node20</title>
<g id="a_node20"><a xlink:href="initVersionNamespace_8cpp.html" target="_top" xlink:title=" ">
<polygon fill="white" stroke="black" points="3275.5,-0.5 3275.5,-52.5 3437.5,-52.5 3437.5,-0.5 3275.5,-0.5"/>
<text text-anchor="start" x="3283.5" y="-40.5" font-family="Helvetica,sans-Serif" font-size="10.00">/home/jonathan/Works</text>
<text text-anchor="start" x="3283.5" y="-29.5" font-family="Helvetica,sans-Serif" font-size="10.00">/Tools/Triton/src/libtriton</text>
<text text-anchor="start" x="3283.5" y="-18.5" font-family="Helvetica,sans-Serif" font-size="10.00">/bindings/python/namespaces</text>
<text text-anchor="middle" x="3356.5" y="-7.5" font-family="Helvetica,sans-Serif" font-size="10.00">/initVersionNamespace.cpp</text>
</a>
</g>
</g>
<!-- Node1&#45;&gt;Node20 -->
<g id="edge19" class="edge">
<title>Node1&#45;&gt;Node20</title>
<path fill="none" stroke="midnightblue" d="M3087.76,-91.34C3140.63,-81.09 3207.45,-67.38 3266.5,-53 3269.34,-52.31 3272.23,-51.59 3275.14,-50.85"/>
<polygon fill="midnightblue" stroke="midnightblue" points="3086.87,-87.95 3077.72,-93.28 3088.2,-94.82 3086.87,-87.95"/>
</g>
<!-- Node21 -->
<g id="node21" class="node">
<title>Node21</title>
<g id="a_node21"><a xlink:href="pyAstContext_8cpp.html" target="_top" xlink:title=" ">
<polygon fill="white" stroke="black" points="3455.5,-0.5 3455.5,-52.5 3591.5,-52.5 3591.5,-0.5 3455.5,-0.5"/>
<text text-anchor="start" x="3463.5" y="-40.5" font-family="Helvetica,sans-Serif" font-size="10.00">/home/jonathan/Works</text>
<text text-anchor="start" x="3463.5" y="-29.5" font-family="Helvetica,sans-Serif" font-size="10.00">/Tools/Triton/src/libtriton</text>
<text text-anchor="start" x="3463.5" y="-18.5" font-family="Helvetica,sans-Serif" font-size="10.00">/bindings/python/objects</text>
<text text-anchor="middle" x="3523.5" y="-7.5" font-family="Helvetica,sans-Serif" font-size="10.00">/pyAstContext.cpp</text>
</a>
</g>
</g>
<!-- Node1&#45;&gt;Node21 -->
<g id="edge20" class="edge">
<title>Node1&#45;&gt;Node21</title>
<path fill="none" stroke="midnightblue" d="M3088.05,-102.71C3180.58,-95.34 3324.4,-80.47 3446.5,-53 3449.39,-52.35 3452.32,-51.64 3455.26,-50.87"/>
<polygon fill="midnightblue" stroke="midnightblue" points="3087.56,-99.24 3077.87,-103.51 3088.11,-106.22 3087.56,-99.24"/>
</g>
<!-- Node22 -->
<g id="node22" class="node">
<title>Node22</title>
<g id="a_node22"><a xlink:href="pyAstNode_8cpp.html" target="_top" xlink:title=" ">
<polygon fill="white" stroke="black" points="3609.5,-0.5 3609.5,-52.5 3745.5,-52.5 3745.5,-0.5 3609.5,-0.5"/>
<text text-anchor="start" x="3617.5" y="-40.5" font-family="Helvetica,sans-Serif" font-size="10.00">/home/jonathan/Works</text>
<text text-anchor="start" x="3617.5" y="-29.5" font-family="Helvetica,sans-Serif" font-size="10.00">/Tools/Triton/src/libtriton</text>
<text text-anchor="start" x="3617.5" y="-18.5" font-family="Helvetica,sans-Serif" font-size="10.00">/bindings/python/objects</text>
<text text-anchor="middle" x="3677.5" y="-7.5" font-family="Helvetica,sans-Serif" font-size="10.00">/pyAstNode.cpp</text>
</a>
</g>
</g>
<!-- Node1&#45;&gt;Node22 -->
<g id="edge21" class="edge">
<title>Node1&#45;&gt;Node22</title>
<path fill="none" stroke="midnightblue" d="M3088.05,-106.91C3208.64,-102.75 3421.91,-90.29 3600.5,-53 3603.39,-52.4 3606.33,-51.72 3609.29,-50.99"/>
<polygon fill="midnightblue" stroke="midnightblue" points="3087.62,-103.42 3077.74,-107.26 3087.85,-110.42 3087.62,-103.42"/>
</g>
<!-- Node23 -->
<g id="node23" class="node">
<title>Node23</title>
<g id="a_node23"><a xlink:href="pyBasicBlock_8cpp.html" target="_top" xlink:title=" ">
<polygon fill="white" stroke="black" points="3763.5,-0.5 3763.5,-52.5 3899.5,-52.5 3899.5,-0.5 3763.5,-0.5"/>
<text text-anchor="start" x="3771.5" y="-40.5" font-family="Helvetica,sans-Serif" font-size="10.00">/home/jonathan/Works</text>
<text text-anchor="start" x="3771.5" y="-29.5" font-family="Helvetica,sans-Serif" font-size="10.00">/Tools/Triton/src/libtriton</text>
<text text-anchor="start" x="3771.5" y="-18.5" font-family="Helvetica,sans-Serif" font-size="10.00">/bindings/python/objects</text>
<text text-anchor="middle" x="3831.5" y="-7.5" font-family="Helvetica,sans-Serif" font-size="10.00">/pyBasicBlock.cpp</text>
</a>
</g>
</g>
<!-- Node1&#45;&gt;Node23 -->
<g id="edge22" class="edge">
<title>Node1&#45;&gt;Node23</title>
<path fill="none" stroke="midnightblue" d="M3087.92,-109.48C3233.22,-108.54 3518.04,-100.09 3754.5,-53 3757.4,-52.42 3760.34,-51.77 3763.3,-51.05"/>
<polygon fill="midnightblue" stroke="midnightblue" points="3087.68,-105.99 3077.7,-109.54 3087.72,-112.98 3087.68,-105.99"/>
</g>
<!-- Node24 -->
<g id="node24" class="node">
<title>Node24</title>
<g id="a_node24"><a xlink:href="pyBitsVector_8cpp.html" target="_top" xlink:title=" ">
<polygon fill="white" stroke="black" points="3917.5,-0.5 3917.5,-52.5 4053.5,-52.5 4053.5,-0.5 3917.5,-0.5"/>
<text text-anchor="start" x="3925.5" y="-40.5" font-family="Helvetica,sans-Serif" font-size="10.00">/home/jonathan/Works</text>
<text text-anchor="start" x="3925.5" y="-29.5" font-family="Helvetica,sans-Serif" font-size="10.00">/Tools/Triton/src/libtriton</text>
<text text-anchor="start" x="3925.5" y="-18.5" font-family="Helvetica,sans-Serif" font-size="10.00">/bindings/python/objects</text>
<text text-anchor="middle" x="3985.5" y="-7.5" font-family="Helvetica,sans-Serif" font-size="10.00">/pyBitsVector.cpp</text>
</a>
</g>
</g>
<!-- Node1&#45;&gt;Node24 -->
<g id="edge23" class="edge">
<title>Node1&#45;&gt;Node24</title>
<path fill="none" stroke="midnightblue" d="M3087.85,-106.29C3289.52,-100.06 3753.48,-82.88 3908.5,-53 3911.4,-52.44 3914.35,-51.8 3917.31,-51.1"/>
<polygon fill="midnightblue" stroke="midnightblue" points="3087.46,-102.8 3077.57,-106.61 3087.68,-109.8 3087.46,-102.8"/>
</g>
<!-- Node25 -->
<g id="node25" class="node">
<title>Node25</title>
<g id="a_node25"><a xlink:href="pyImmediate_8cpp.html" target="_top" xlink:title=" ">
<polygon fill="white" stroke="black" points="4071.5,-0.5 4071.5,-52.5 4207.5,-52.5 4207.5,-0.5 4071.5,-0.5"/>
<text text-anchor="start" x="4079.5" y="-40.5" font-family="Helvetica,sans-Serif" font-size="10.00">/home/jonathan/Works</text>
<text text-anchor="start" x="4079.5" y="-29.5" font-family="Helvetica,sans-Serif" font-size="10.00">/Tools/Triton/src/libtriton</text>
<text text-anchor="start" x="4079.5" y="-18.5" font-family="Helvetica,sans-Serif" font-size="10.00">/bindings/python/objects</text>
<text text-anchor="middle" x="4139.5" y="-7.5" font-family="Helvetica,sans-Serif" font-size="10.00">/pyImmediate.cpp</text>
</a>
</g>
</g>
<!-- Node1&#45;&gt;Node25 -->
<g id="edge24" class="edge">
<title>Node1&#45;&gt;Node25</title>
<path fill="none" stroke="midnightblue" d="M3088.04,-107.27C3314.2,-102.64 3877.17,-87.88 4062.5,-53 4065.41,-52.45 4068.35,-51.82 4071.32,-51.13"/>
<polygon fill="midnightblue" stroke="midnightblue" points="3087.78,-103.77 3077.86,-107.47 3087.93,-110.77 3087.78,-103.77"/>
</g>
<!-- Node26 -->
<g id="node26" class="node">
<title>Node26</title>
<g id="a_node26"><a xlink:href="pyInstruction_8cpp.html" target="_top" xlink:title=" ">
<polygon fill="white" stroke="black" points="4225.5,-0.5 4225.5,-52.5 4361.5,-52.5 4361.5,-0.5 4225.5,-0.5"/>
<text text-anchor="start" x="4233.5" y="-40.5" font-family="Helvetica,sans-Serif" font-size="10.00">/home/jonathan/Works</text>
<text text-anchor="start" x="4233.5" y="-29.5" font-family="Helvetica,sans-Serif" font-size="10.00">/Tools/Triton/src/libtriton</text>
<text text-anchor="start" x="4233.5" y="-18.5" font-family="Helvetica,sans-Serif" font-size="10.00">/bindings/python/objects</text>
<text text-anchor="middle" x="4293.5" y="-7.5" font-family="Helvetica,sans-Serif" font-size="10.00">/pyInstruction.cpp</text>
</a>
</g>
</g>
<!-- Node1&#45;&gt;Node26 -->
<g id="edge25" class="edge">
<title>Node1&#45;&gt;Node26</title>
<path fill="none" stroke="midnightblue" d="M3087.82,-108.01C3336.48,-104.88 4000.51,-92.92 4216.5,-53 4219.41,-52.46 4222.36,-51.84 4225.32,-51.15"/>
<polygon fill="midnightblue" stroke="midnightblue" points="3087.68,-104.51 3077.72,-108.13 3087.77,-111.51 3087.68,-104.51"/>
</g>
<!-- Node27 -->
<g id="node27" class="node">
<title>Node27</title>
<g id="a_node27"><a xlink:href="pyMemoryAccess_8cpp.html" target="_top" xlink:title=" ">
<polygon fill="white" stroke="black" points="4379.5,-0.5 4379.5,-52.5 4515.5,-52.5 4515.5,-0.5 4379.5,-0.5"/>
<text text-anchor="start" x="4387.5" y="-40.5" font-family="Helvetica,sans-Serif" font-size="10.00">/home/jonathan/Works</text>
<text text-anchor="start" x="4387.5" y="-29.5" font-family="Helvetica,sans-Serif" font-size="10.00">/Tools/Triton/src/libtriton</text>
<text text-anchor="start" x="4387.5" y="-18.5" font-family="Helvetica,sans-Serif" font-size="10.00">/bindings/python/objects</text>
<text text-anchor="middle" x="4447.5" y="-7.5" font-family="Helvetica,sans-Serif" font-size="10.00">/pyMemoryAccess.cpp</text>
</a>
</g>
</g>
<!-- Node1&#45;&gt;Node27 -->
<g id="edge26" class="edge">
<title>Node1&#45;&gt;Node27</title>
<path fill="none" stroke="midnightblue" d="M3087.74,-108.58C3357.59,-106.84 4123.69,-97.97 4370.5,-53 4373.41,-52.47 4376.36,-51.86 4379.32,-51.17"/>
<polygon fill="midnightblue" stroke="midnightblue" points="3087.56,-105.08 3077.58,-108.64 3087.6,-112.08 3087.56,-105.08"/>
</g>
<!-- Node28 -->
<g id="node28" class="node">
<title>Node28</title>
<g id="a_node28"><a xlink:href="pyPathConstraint_8cpp.html" target="_top" xlink:title=" ">
<polygon fill="white" stroke="black" points="4533.5,-0.5 4533.5,-52.5 4669.5,-52.5 4669.5,-0.5 4533.5,-0.5"/>
<text text-anchor="start" x="4541.5" y="-40.5" font-family="Helvetica,sans-Serif" font-size="10.00">/home/jonathan/Works</text>
<text text-anchor="start" x="4541.5" y="-29.5" font-family="Helvetica,sans-Serif" font-size="10.00">/Tools/Triton/src/libtriton</text>
<text text-anchor="start" x="4541.5" y="-18.5" font-family="Helvetica,sans-Serif" font-size="10.00">/bindings/python/objects</text>
<text text-anchor="middle" x="4601.5" y="-7.5" font-family="Helvetica,sans-Serif" font-size="10.00">/pyPathConstraint.cpp</text>
</a>
</g>
</g>
<!-- Node1&#45;&gt;Node28 -->
<g id="edge27" class="edge">
<title>Node1&#45;&gt;Node28</title>
<path fill="none" stroke="midnightblue" d="M3087.66,-109.04C3377.52,-108.6 4246.7,-103.03 4524.5,-53 4527.41,-52.48 4530.36,-51.87 4533.33,-51.19"/>
<polygon fill="midnightblue" stroke="midnightblue" points="3087.59,-105.54 3077.59,-109.05 3087.6,-112.54 3087.59,-105.54"/>
</g>
<!-- Node29 -->
<g id="node29" class="node">
<title>Node29</title>
<g id="a_node29"><a xlink:href="pyRegister_8cpp.html" target="_top" xlink:title=" ">
<polygon fill="white" stroke="black" points="4687.5,-0.5 4687.5,-52.5 4823.5,-52.5 4823.5,-0.5 4687.5,-0.5"/>
<text text-anchor="start" x="4695.5" y="-40.5" font-family="Helvetica,sans-Serif" font-size="10.00">/home/jonathan/Works</text>
<text text-anchor="start" x="4695.5" y="-29.5" font-family="Helvetica,sans-Serif" font-size="10.00">/Tools/Triton/src/libtriton</text>
<text text-anchor="start" x="4695.5" y="-18.5" font-family="Helvetica,sans-Serif" font-size="10.00">/bindings/python/objects</text>
<text text-anchor="middle" x="4755.5" y="-7.5" font-family="Helvetica,sans-Serif" font-size="10.00">/pyRegister.cpp</text>
</a>
</g>
</g>
<!-- Node1&#45;&gt;Node29 -->
<g id="edge28" class="edge">
<title>Node1&#45;&gt;Node29</title>
<path fill="none" stroke="midnightblue" d="M3088.01,-109.41C3397.37,-110.19 4369.72,-108.07 4678.5,-53 4681.41,-52.48 4684.36,-51.88 4687.33,-51.2"/>
<polygon fill="midnightblue" stroke="midnightblue" points="3087.73,-105.91 3077.72,-109.39 3087.72,-112.91 3087.73,-105.91"/>
</g>
<!-- Node30 -->
<g id="node30" class="node">
<title>Node30</title>
<g id="a_node30"><a xlink:href="pySolverModel_8cpp.html" target="_top" xlink:title=" ">
<polygon fill="white" stroke="black" points="4841.5,-0.5 4841.5,-52.5 4977.5,-52.5 4977.5,-0.5 4841.5,-0.5"/>
<text text-anchor="start" x="4849.5" y="-40.5" font-family="Helvetica,sans-Serif" font-size="10.00">/home/jonathan/Works</text>
<text text-anchor="start" x="4849.5" y="-29.5" font-family="Helvetica,sans-Serif" font-size="10.00">/Tools/Triton/src/libtriton</text>
<text text-anchor="start" x="4849.5" y="-18.5" font-family="Helvetica,sans-Serif" font-size="10.00">/bindings/python/objects</text>
<text text-anchor="middle" x="4909.5" y="-7.5" font-family="Helvetica,sans-Serif" font-size="10.00">/pySolverModel.cpp</text>
</a>
</g>
</g>
<!-- Node1&#45;&gt;Node30 -->
<g id="edge29" class="edge">
<title>Node1&#45;&gt;Node30</title>
<path fill="none" stroke="midnightblue" d="M3087.86,-107.71C3440.67,-102.72 4660.52,-83.43 4832.5,-53 4835.41,-52.48 4838.36,-51.88 4841.33,-51.21"/>
<polygon fill="midnightblue" stroke="midnightblue" points="3087.62,-104.21 3077.67,-107.85 3087.72,-111.21 3087.62,-104.21"/>
</g>
<!-- Node31 -->
<g id="node31" class="node">
<title>Node31</title>
<g id="a_node31"><a xlink:href="pySymbolicExpression_8cpp.html" target="_top" xlink:title=" ">
<polygon fill="white" stroke="black" points="4995.5,-0.5 4995.5,-52.5 5145.5,-52.5 5145.5,-0.5 4995.5,-0.5"/>
<text text-anchor="start" x="5003.5" y="-40.5" font-family="Helvetica,sans-Serif" font-size="10.00">/home/jonathan/Works</text>
<text text-anchor="start" x="5003.5" y="-29.5" font-family="Helvetica,sans-Serif" font-size="10.00">/Tools/Triton/src/libtriton</text>
<text text-anchor="start" x="5003.5" y="-18.5" font-family="Helvetica,sans-Serif" font-size="10.00">/bindings/python/objects</text>
<text text-anchor="middle" x="5070.5" y="-7.5" font-family="Helvetica,sans-Serif" font-size="10.00">/pySymbolicExpression.cpp</text>
</a>
</g>
</g>
<!-- Node1&#45;&gt;Node31 -->
<g id="edge30" class="edge">
<title>Node1&#45;&gt;Node31</title>
<path fill="none" stroke="midnightblue" d="M3087.91,-107.81C3459.47,-102.99 4798.39,-83.63 4986.5,-53 4989.36,-52.53 4992.25,-52 4995.17,-51.4"/>
<polygon fill="midnightblue" stroke="midnightblue" points="3087.68,-104.32 3077.73,-107.95 3087.78,-111.32 3087.68,-104.32"/>
</g>
<!-- Node32 -->
<g id="node32" class="node">
<title>Node32</title>
<g id="a_node32"><a xlink:href="pySymbolicVariable_8cpp.html" target="_top" xlink:title=" ">
<polygon fill="white" stroke="black" points="5164,-0.5 5164,-52.5 5301,-52.5 5301,-0.5 5164,-0.5"/>
<text text-anchor="start" x="5172" y="-40.5" font-family="Helvetica,sans-Serif" font-size="10.00">/home/jonathan/Works</text>
<text text-anchor="start" x="5172" y="-29.5" font-family="Helvetica,sans-Serif" font-size="10.00">/Tools/Triton/src/libtriton</text>
<text text-anchor="start" x="5172" y="-18.5" font-family="Helvetica,sans-Serif" font-size="10.00">/bindings/python/objects</text>
<text text-anchor="middle" x="5232.5" y="-7.5" font-family="Helvetica,sans-Serif" font-size="10.00">/pySymbolicVariable.cpp</text>
</a>
</g>
</g>
<!-- Node1&#45;&gt;Node32 -->
<g id="edge31" class="edge">
<title>Node1&#45;&gt;Node32</title>
<path fill="none" stroke="midnightblue" d="M3087.7,-108.16C3478.62,-104.48 4949.46,-88.39 5154.5,-53 5157.59,-52.47 5160.72,-51.84 5163.87,-51.13"/>
<polygon fill="midnightblue" stroke="midnightblue" points="3087.53,-104.66 3077.56,-108.25 3087.59,-111.66 3087.53,-104.66"/>
</g>
<!-- Node33 -->
<g id="node33" class="node">
<title>Node33</title>
<g id="a_node33"><a xlink:href="pyTritonContext_8cpp.html" target="_top" xlink:title=" ">
<polygon fill="white" stroke="black" points="5319.5,-0.5 5319.5,-52.5 5455.5,-52.5 5455.5,-0.5 5319.5,-0.5"/>
<text text-anchor="start" x="5327.5" y="-40.5" font-family="Helvetica,sans-Serif" font-size="10.00">/home/jonathan/Works</text>
<text text-anchor="start" x="5327.5" y="-29.5" font-family="Helvetica,sans-Serif" font-size="10.00">/Tools/Triton/src/libtriton</text>
<text text-anchor="start" x="5327.5" y="-18.5" font-family="Helvetica,sans-Serif" font-size="10.00">/bindings/python/objects</text>
<text text-anchor="middle" x="5387.5" y="-7.5" font-family="Helvetica,sans-Serif" font-size="10.00">/pyTritonContext.cpp</text>
</a>
</g>
</g>
<!-- Node1&#45;&gt;Node33 -->
<g id="edge32" class="edge">
<title>Node1&#45;&gt;Node33</title>
<path fill="none" stroke="midnightblue" d="M3087.74,-108.36C3496.24,-105.38 5089.5,-91.39 5310.5,-53 5313.41,-52.49 5316.37,-51.9 5319.34,-51.23"/>
<polygon fill="midnightblue" stroke="midnightblue" points="3087.7,-104.86 3077.73,-108.43 3087.75,-111.86 3087.7,-104.86"/>
</g>
<!-- Node34 -->
<g id="node34" class="node">
<title>Node34</title>
<g id="a_node34"><a xlink:href="utils_8cpp.html" target="_top" xlink:title=" ">
<polygon fill="white" stroke="black" points="5473.5,-6 5473.5,-47 5615.5,-47 5615.5,-6 5473.5,-6"/>
<text text-anchor="start" x="5481.5" y="-35" font-family="Helvetica,sans-Serif" font-size="10.00">/home/jonathan/Works</text>
<text text-anchor="start" x="5481.5" y="-24" font-family="Helvetica,sans-Serif" font-size="10.00">/Tools/Triton/src/libtriton</text>
<text text-anchor="middle" x="5544.5" y="-13" font-family="Helvetica,sans-Serif" font-size="10.00">/bindings/python/utils.cpp</text>
</a>
</g>
</g>
<!-- Node1&#45;&gt;Node34 -->
<g id="edge33" class="edge">
<title>Node1&#45;&gt;Node34</title>
<path fill="none" stroke="midnightblue" d="M3087.64,-108.45C3512.7,-105.78 5227.4,-92.63 5464.5,-53 5472.98,-51.58 5481.81,-49.46 5490.36,-47.04"/>
<polygon fill="midnightblue" stroke="midnightblue" points="3087.52,-104.95 3077.54,-108.51 3087.56,-111.95 3087.52,-104.95"/>
</g>
</g>
</svg>
