<?xml version="1.0" encoding="UTF-8" standalone="no"?>
<!DOCTYPE svg PUBLIC "-//W3C//DTD SVG 1.1//EN"
 "http://www.w3.org/Graphics/SVG/1.1/DTD/svg11.dtd">
<!-- Generated by graphviz version 2.49.0 (20210828.1703)
 -->
<!-- Title: /home/jonathan/Works/Tools/Triton/src/libtriton/includes/triton/pythonObjects.hpp Pages: 1 -->
<svg width="2196pt" height="139pt"
 viewBox="0.00 0.00 2195.50 139.00" xmlns="http://www.w3.org/2000/svg" xmlns:xlink="http://www.w3.org/1999/xlink">
<g id="graph0" class="graph" transform="scale(1 1) rotate(0) translate(4 135)">
<title>/home/jonathan/Works/Tools/Triton/src/libtriton/includes/triton/pythonObjects.hpp</title>
<polygon fill="white" stroke="transparent" points="-4,4 -4,-135 2191.5,-135 2191.5,4 -4,4"/>
<!-- Node1 -->
<g id="node1" class="node">
<title>Node1</title>
<g id="a_node1"><a xlink:title=" ">
<polygon fill="#bfbfbf" stroke="black" points="1010.5,-89.5 1010.5,-130.5 1194.5,-130.5 1194.5,-89.5 1010.5,-89.5"/>
<text text-anchor="start" x="1018.5" y="-118.5" font-family="Helvetica,sans-Serif" font-size="10.00">/home/jonathan/Works</text>
<text text-anchor="start" x="1018.5" y="-107.5" font-family="Helvetica,sans-Serif" font-size="10.00">/Tools/Triton/src/libtriton</text>
<text text-anchor="middle" x="1102.5" y="-96.5" font-family="Helvetica,sans-Serif" font-size="10.00">/includes/triton/pythonObjects.hpp</text>
</a>
</g>
</g>
<!-- Node2 -->
<g id="node2" class="node">
<title>Node2</title>
<g id="a_node2"><a xlink:href="tritonCallbacks_8cpp.html" target="_top" xlink:title=" ">
<polygon fill="white" stroke="black" points="0,-0.5 0,-52.5 143,-52.5 143,-0.5 0,-0.5"/>
<text text-anchor="start" x="8" y="-40.5" font-family="Helvetica,sans-Serif" font-size="10.00">/home/jonathan/Works</text>
<text text-anchor="start" x="8" y="-29.5" font-family="Helvetica,sans-Serif" font-size="10.00">/Tools/Triton/src/libtriton</text>
<text text-anchor="start" x="8" y="-18.5" font-family="Helvetica,sans-Serif" font-size="10.00">/bindings/python/modules</text>
<text text-anchor="middle" x="71.5" y="-7.5" font-family="Helvetica,sans-Serif" font-size="10.00">/tritonCallbacks.cpp</text>
</a>
</g>
</g>
<!-- Node1&#45;&gt;Node2 -->
<g id="edge1" class="edge">
<title>Node1&#45;&gt;Node2</title>
<path fill="none" stroke="midnightblue" d="M1000.35,-106.15C789.55,-99.76 312.67,-82.47 152.5,-53 149.46,-52.44 146.36,-51.8 143.26,-51.1"/>
<polygon fill="midnightblue" stroke="midnightblue" points="1000.39,-109.66 1010.49,-106.46 1000.6,-102.66 1000.39,-109.66"/>
</g>
<!-- Node3 -->
<g id="node3" class="node">
<title>Node3</title>
<g id="a_node3"><a xlink:href="initRegNamespace_8cpp.html" target="_top" xlink:title=" ">
<polygon fill="white" stroke="black" points="161.5,-0.5 161.5,-52.5 323.5,-52.5 323.5,-0.5 161.5,-0.5"/>
<text text-anchor="start" x="169.5" y="-40.5" font-family="Helvetica,sans-Serif" font-size="10.00">/home/jonathan/Works</text>
<text text-anchor="start" x="169.5" y="-29.5" font-family="Helvetica,sans-Serif" font-size="10.00">/Tools/Triton/src/libtriton</text>
<text text-anchor="start" x="169.5" y="-18.5" font-family="Helvetica,sans-Serif" font-size="10.00">/bindings/python/namespaces</text>
<text text-anchor="middle" x="242.5" y="-7.5" font-family="Helvetica,sans-Serif" font-size="10.00">/initRegNamespace.cpp</text>
</a>
</g>
</g>
<!-- Node1&#45;&gt;Node3 -->
<g id="edge2" class="edge">
<title>Node1&#45;&gt;Node3</title>
<path fill="none" stroke="midnightblue" d="M1000.49,-108.16C852.29,-105.46 569.28,-94.71 332.5,-53 329.62,-52.49 326.7,-51.93 323.76,-51.32"/>
<polygon fill="midnightblue" stroke="midnightblue" points="1000.43,-111.66 1010.49,-108.34 1000.55,-104.66 1000.43,-111.66"/>
</g>
<!-- Node4 -->
<g id="node4" class="node">
<title>Node4</title>
<g id="a_node4"><a xlink:href="pyAstContext_8cpp.html" target="_top" xlink:title=" ">
<polygon fill="white" stroke="black" points="341.5,-0.5 341.5,-52.5 477.5,-52.5 477.5,-0.5 341.5,-0.5"/>
<text text-anchor="start" x="349.5" y="-40.5" font-family="Helvetica,sans-Serif" font-size="10.00">/home/jonathan/Works</text>
<text text-anchor="start" x="349.5" y="-29.5" font-family="Helvetica,sans-Serif" font-size="10.00">/Tools/Triton/src/libtriton</text>
<text text-anchor="start" x="349.5" y="-18.5" font-family="Helvetica,sans-Serif" font-size="10.00">/bindings/python/objects</text>
<text text-anchor="middle" x="409.5" y="-7.5" font-family="Helvetica,sans-Serif" font-size="10.00">/pyAstContext.cpp</text>
</a>
</g>
</g>
<!-- Node1&#45;&gt;Node4 -->
<g id="edge3" class="edge">
<title>Node1&#45;&gt;Node4</title>
<path fill="none" stroke="midnightblue" d="M1000.31,-106.85C877.24,-102.63 664.81,-90.12 486.5,-53 483.6,-52.4 480.67,-51.72 477.71,-50.99"/>
<polygon fill="midnightblue" stroke="midnightblue" points="1000.36,-110.36 1010.47,-107.19 1000.59,-103.36 1000.36,-110.36"/>
</g>
<!-- Node5 -->
<g id="node5" class="node">
<title>Node5</title>
<g id="a_node5"><a xlink:href="pyAstNode_8cpp.html" target="_top" xlink:title=" ">
<polygon fill="white" stroke="black" points="495.5,-0.5 495.5,-52.5 631.5,-52.5 631.5,-0.5 495.5,-0.5"/>
<text text-anchor="start" x="503.5" y="-40.5" font-family="Helvetica,sans-Serif" font-size="10.00">/home/jonathan/Works</text>
<text text-anchor="start" x="503.5" y="-29.5" font-family="Helvetica,sans-Serif" font-size="10.00">/Tools/Triton/src/libtriton</text>
<text text-anchor="start" x="503.5" y="-18.5" font-family="Helvetica,sans-Serif" font-size="10.00">/bindings/python/objects</text>
<text text-anchor="middle" x="563.5" y="-7.5" font-family="Helvetica,sans-Serif" font-size="10.00">/pyAstNode.cpp</text>
</a>
</g>
</g>
<!-- Node1&#45;&gt;Node5 -->
<g id="edge4" class="edge">
<title>Node1&#45;&gt;Node5</title>
<path fill="none" stroke="midnightblue" d="M1000.31,-102.48C906.03,-95.09 762.6,-80.33 640.5,-53 637.61,-52.35 634.68,-51.64 631.74,-50.88"/>
<polygon fill="midnightblue" stroke="midnightblue" points="1000.18,-105.98 1010.42,-103.26 1000.72,-99 1000.18,-105.98"/>
</g>
<!-- Node6 -->
<g id="node6" class="node">
<title>Node6</title>
<g id="a_node6"><a xlink:href="pyBitsVector_8cpp.html" target="_top" xlink:title=" ">
<polygon fill="white" stroke="black" points="649.5,-0.5 649.5,-52.5 785.5,-52.5 785.5,-0.5 649.5,-0.5"/>
<text text-anchor="start" x="657.5" y="-40.5" font-family="Helvetica,sans-Serif" font-size="10.00">/home/jonathan/Works</text>
<text text-anchor="start" x="657.5" y="-29.5" font-family="Helvetica,sans-Serif" font-size="10.00">/Tools/Triton/src/libtriton</text>
<text text-anchor="start" x="657.5" y="-18.5" font-family="Helvetica,sans-Serif" font-size="10.00">/bindings/python/objects</text>
<text text-anchor="middle" x="717.5" y="-7.5" font-family="Helvetica,sans-Serif" font-size="10.00">/pyBitsVector.cpp</text>
</a>
</g>
</g>
<!-- Node1&#45;&gt;Node6 -->
<g id="edge5" class="edge">
<title>Node1&#45;&gt;Node6</title>
<path fill="none" stroke="midnightblue" d="M1000.55,-94.14C940.19,-84.43 862.47,-70.34 794.5,-53 791.63,-52.27 788.72,-51.49 785.79,-50.67"/>
<polygon fill="midnightblue" stroke="midnightblue" points="1000.04,-97.6 1010.47,-95.72 1001.14,-90.69 1000.04,-97.6"/>
</g>
<!-- Node7 -->
<g id="node7" class="node">
<title>Node7</title>
<g id="a_node7"><a xlink:href="pyImmediate_8cpp.html" target="_top" xlink:title=" ">
<polygon fill="white" stroke="black" points="803.5,-0.5 803.5,-52.5 939.5,-52.5 939.5,-0.5 803.5,-0.5"/>
<text text-anchor="start" x="811.5" y="-40.5" font-family="Helvetica,sans-Serif" font-size="10.00">/home/jonathan/Works</text>
<text text-anchor="start" x="811.5" y="-29.5" font-family="Helvetica,sans-Serif" font-size="10.00">/Tools/Triton/src/libtriton</text>
<text text-anchor="start" x="811.5" y="-18.5" font-family="Helvetica,sans-Serif" font-size="10.00">/bindings/python/objects</text>
<text text-anchor="middle" x="871.5" y="-7.5" font-family="Helvetica,sans-Serif" font-size="10.00">/pyImmediate.cpp</text>
</a>
</g>
</g>
<!-- Node1&#45;&gt;Node7 -->
<g id="edge6" class="edge">
<title>Node1&#45;&gt;Node7</title>
<path fill="none" stroke="midnightblue" d="M1037.47,-86.06C1006.92,-75.28 970.51,-62.43 939.59,-51.52"/>
<polygon fill="midnightblue" stroke="midnightblue" points="1036.57,-89.45 1047.17,-89.48 1038.9,-82.85 1036.57,-89.45"/>
</g>
<!-- Node8 -->
<g id="node8" class="node">
<title>Node8</title>
<g id="a_node8"><a xlink:href="pyInstruction_8cpp.html" target="_top" xlink:title=" ">
<polygon fill="white" stroke="black" points="957.5,-0.5 957.5,-52.5 1093.5,-52.5 1093.5,-0.5 957.5,-0.5"/>
<text text-anchor="start" x="965.5" y="-40.5" font-family="Helvetica,sans-Serif" font-size="10.00">/home/jonathan/Works</text>
<text text-anchor="start" x="965.5" y="-29.5" font-family="Helvetica,sans-Serif" font-size="10.00">/Tools/Triton/src/libtriton</text>
<text text-anchor="start" x="965.5" y="-18.5" font-family="Helvetica,sans-Serif" font-size="10.00">/bindings/python/objects</text>
<text text-anchor="middle" x="1025.5" y="-7.5" font-family="Helvetica,sans-Serif" font-size="10.00">/pyInstruction.cpp</text>
</a>
</g>
</g>
<!-- Node1&#45;&gt;Node8 -->
<g id="edge7" class="edge">
<title>Node1&#45;&gt;Node8</title>
<path fill="none" stroke="midnightblue" d="M1076.96,-81.96C1068.01,-72.5 1058.01,-61.91 1049.22,-52.61"/>
<polygon fill="midnightblue" stroke="midnightblue" points="1074.45,-84.41 1083.86,-89.27 1079.54,-79.6 1074.45,-84.41"/>
</g>
<!-- Node9 -->
<g id="node9" class="node">
<title>Node9</title>
<g id="a_node9"><a xlink:href="pyMemoryAccess_8cpp.html" target="_top" xlink:title=" ">
<polygon fill="white" stroke="black" points="1111.5,-0.5 1111.5,-52.5 1247.5,-52.5 1247.5,-0.5 1111.5,-0.5"/>
<text text-anchor="start" x="1119.5" y="-40.5" font-family="Helvetica,sans-Serif" font-size="10.00">/home/jonathan/Works</text>
<text text-anchor="start" x="1119.5" y="-29.5" font-family="Helvetica,sans-Serif" font-size="10.00">/Tools/Triton/src/libtriton</text>
<text text-anchor="start" x="1119.5" y="-18.5" font-family="Helvetica,sans-Serif" font-size="10.00">/bindings/python/objects</text>
<text text-anchor="middle" x="1179.5" y="-7.5" font-family="Helvetica,sans-Serif" font-size="10.00">/pyMemoryAccess.cpp</text>
</a>
</g>
</g>
<!-- Node1&#45;&gt;Node9 -->
<g id="edge8" class="edge">
<title>Node1&#45;&gt;Node9</title>
<path fill="none" stroke="midnightblue" d="M1128.04,-81.96C1136.99,-72.5 1146.99,-61.91 1155.78,-52.61"/>
<polygon fill="midnightblue" stroke="midnightblue" points="1125.46,-79.6 1121.14,-89.27 1130.55,-84.41 1125.46,-79.6"/>
</g>
<!-- Node10 -->
<g id="node10" class="node">
<title>Node10</title>
<g id="a_node10"><a xlink:href="pyPathConstraint_8cpp.html" target="_top" xlink:title=" ">
<polygon fill="white" stroke="black" points="1265.5,-0.5 1265.5,-52.5 1401.5,-52.5 1401.5,-0.5 1265.5,-0.5"/>
<text text-anchor="start" x="1273.5" y="-40.5" font-family="Helvetica,sans-Serif" font-size="10.00">/home/jonathan/Works</text>
<text text-anchor="start" x="1273.5" y="-29.5" font-family="Helvetica,sans-Serif" font-size="10.00">/Tools/Triton/src/libtriton</text>
<text text-anchor="start" x="1273.5" y="-18.5" font-family="Helvetica,sans-Serif" font-size="10.00">/bindings/python/objects</text>
<text text-anchor="middle" x="1333.5" y="-7.5" font-family="Helvetica,sans-Serif" font-size="10.00">/pyPathConstraint.cpp</text>
</a>
</g>
</g>
<!-- Node1&#45;&gt;Node10 -->
<g id="edge9" class="edge">
<title>Node1&#45;&gt;Node10</title>
<path fill="none" stroke="midnightblue" d="M1167.53,-86.06C1198.08,-75.28 1234.49,-62.43 1265.41,-51.52"/>
<polygon fill="midnightblue" stroke="midnightblue" points="1166.1,-82.85 1157.83,-89.48 1168.43,-89.45 1166.1,-82.85"/>
</g>
<!-- Node11 -->
<g id="node11" class="node">
<title>Node11</title>
<g id="a_node11"><a xlink:href="pyRegister_8cpp.html" target="_top" xlink:title=" ">
<polygon fill="white" stroke="black" points="1419.5,-0.5 1419.5,-52.5 1555.5,-52.5 1555.5,-0.5 1419.5,-0.5"/>
<text text-anchor="start" x="1427.5" y="-40.5" font-family="Helvetica,sans-Serif" font-size="10.00">/home/jonathan/Works</text>
<text text-anchor="start" x="1427.5" y="-29.5" font-family="Helvetica,sans-Serif" font-size="10.00">/Tools/Triton/src/libtriton</text>
<text text-anchor="start" x="1427.5" y="-18.5" font-family="Helvetica,sans-Serif" font-size="10.00">/bindings/python/objects</text>
<text text-anchor="middle" x="1487.5" y="-7.5" font-family="Helvetica,sans-Serif" font-size="10.00">/pyRegister.cpp</text>
</a>
</g>
</g>
<!-- Node1&#45;&gt;Node11 -->
<g id="edge10" class="edge">
<title>Node1&#45;&gt;Node11</title>
<path fill="none" stroke="midnightblue" d="M1204.45,-94.14C1264.81,-84.43 1342.53,-70.34 1410.5,-53 1413.37,-52.27 1416.28,-51.49 1419.21,-50.67"/>
<polygon fill="midnightblue" stroke="midnightblue" points="1203.86,-90.69 1194.53,-95.72 1204.96,-97.6 1203.86,-90.69"/>
</g>
<!-- Node12 -->
<g id="node12" class="node">
<title>Node12</title>
<g id="a_node12"><a xlink:href="pySolverModel_8cpp.html" target="_top" xlink:title=" ">
<polygon fill="white" stroke="black" points="1573.5,-0.5 1573.5,-52.5 1709.5,-52.5 1709.5,-0.5 1573.5,-0.5"/>
<text text-anchor="start" x="1581.5" y="-40.5" font-family="Helvetica,sans-Serif" font-size="10.00">/home/jonathan/Works</text>
<text text-anchor="start" x="1581.5" y="-29.5" font-family="Helvetica,sans-Serif" font-size="10.00">/Tools/Triton/src/libtriton</text>
<text text-anchor="start" x="1581.5" y="-18.5" font-family="Helvetica,sans-Serif" font-size="10.00">/bindings/python/objects</text>
<text text-anchor="middle" x="1641.5" y="-7.5" font-family="Helvetica,sans-Serif" font-size="10.00">/pySolverModel.cpp</text>
</a>
</g>
</g>
<!-- Node1&#45;&gt;Node12 -->
<g id="edge11" class="edge">
<title>Node1&#45;&gt;Node12</title>
<path fill="none" stroke="midnightblue" d="M1204.69,-102.48C1298.97,-95.09 1442.4,-80.33 1564.5,-53 1567.39,-52.35 1570.32,-51.64 1573.26,-50.88"/>
<polygon fill="midnightblue" stroke="midnightblue" points="1204.28,-99 1194.58,-103.26 1204.82,-105.98 1204.28,-99"/>
</g>
<!-- Node13 -->
<g id="node13" class="node">
<title>Node13</title>
<g id="a_node13"><a xlink:href="pySymbolicExpression_8cpp.html" target="_top" xlink:title=" ">
<polygon fill="white" stroke="black" points="1727.5,-0.5 1727.5,-52.5 1877.5,-52.5 1877.5,-0.5 1727.5,-0.5"/>
<text text-anchor="start" x="1735.5" y="-40.5" font-family="Helvetica,sans-Serif" font-size="10.00">/home/jonathan/Works</text>
<text text-anchor="start" x="1735.5" y="-29.5" font-family="Helvetica,sans-Serif" font-size="10.00">/Tools/Triton/src/libtriton</text>
<text text-anchor="start" x="1735.5" y="-18.5" font-family="Helvetica,sans-Serif" font-size="10.00">/bindings/python/objects</text>
<text text-anchor="middle" x="1802.5" y="-7.5" font-family="Helvetica,sans-Serif" font-size="10.00">/pySymbolicExpression.cpp</text>
</a>
</g>
</g>
<!-- Node1&#45;&gt;Node13 -->
<g id="edge12" class="edge">
<title>Node1&#45;&gt;Node13</title>
<path fill="none" stroke="midnightblue" d="M1204.8,-106.08C1327.76,-101.1 1539.87,-87.85 1718.5,-53 1721.34,-52.45 1724.23,-51.83 1727.13,-51.17"/>
<polygon fill="midnightblue" stroke="midnightblue" points="1204.5,-102.59 1194.65,-106.48 1204.78,-109.58 1204.5,-102.59"/>
</g>
<!-- Node14 -->
<g id="node14" class="node">
<title>Node14</title>
<g id="a_node14"><a xlink:href="pySymbolicVariable_8cpp.html" target="_top" xlink:title=" ">
<polygon fill="white" stroke="black" points="1896,-0.5 1896,-52.5 2033,-52.5 2033,-0.5 1896,-0.5"/>
<text text-anchor="start" x="1904" y="-40.5" font-family="Helvetica,sans-Serif" font-size="10.00">/home/jonathan/Works</text>
<text text-anchor="start" x="1904" y="-29.5" font-family="Helvetica,sans-Serif" font-size="10.00">/Tools/Triton/src/libtriton</text>
<text text-anchor="start" x="1904" y="-18.5" font-family="Helvetica,sans-Serif" font-size="10.00">/bindings/python/objects</text>
<text text-anchor="middle" x="1964.5" y="-7.5" font-family="Helvetica,sans-Serif" font-size="10.00">/pySymbolicVariable.cpp</text>
</a>
</g>
</g>
<!-- Node1&#45;&gt;Node14 -->
<g id="edge13" class="edge">
<title>Node1&#45;&gt;Node14</title>
<path fill="none" stroke="midnightblue" d="M1204.76,-109.62C1355.43,-108.76 1645.32,-100.3 1886.5,-53 1889.58,-52.4 1892.7,-51.71 1895.84,-50.96"/>
<polygon fill="midnightblue" stroke="midnightblue" points="1204.58,-106.12 1194.59,-109.67 1204.61,-113.12 1204.58,-106.12"/>
</g>
<!-- Node15 -->
<g id="node15" class="node">
<title>Node15</title>
<g id="a_node15"><a xlink:href="pyTritonContext_8cpp.html" target="_top" xlink:title=" ">
<polygon fill="white" stroke="black" points="2051.5,-0.5 2051.5,-52.5 2187.5,-52.5 2187.5,-0.5 2051.5,-0.5"/>
<text text-anchor="start" x="2059.5" y="-40.5" font-family="Helvetica,sans-Serif" font-size="10.00">/home/jonathan/Works</text>
<text text-anchor="start" x="2059.5" y="-29.5" font-family="Helvetica,sans-Serif" font-size="10.00">/Tools/Triton/src/libtriton</text>
<text text-anchor="start" x="2059.5" y="-18.5" font-family="Helvetica,sans-Serif" font-size="10.00">/bindings/python/objects</text>
<text text-anchor="middle" x="2119.5" y="-7.5" font-family="Helvetica,sans-Serif" font-size="10.00">/pyTritonContext.cpp</text>
</a>
</g>
</g>
<!-- Node1&#45;&gt;Node15 -->
<g id="edge14" class="edge">
<title>Node1&#45;&gt;Node15</title>
<path fill="none" stroke="midnightblue" d="M1204.78,-106.26C1414.02,-100.12 1884.53,-83.32 2042.5,-53 2045.4,-52.44 2048.35,-51.8 2051.31,-51.1"/>
<polygon fill="midnightblue" stroke="midnightblue" points="1204.61,-102.77 1194.71,-106.56 1204.81,-109.76 1204.61,-102.77"/>
</g>
</g>
</svg>
