<?xml version="1.0" encoding="UTF-8" standalone="no"?>
<!DOCTYPE svg PUBLIC "-//W3C//DTD SVG 1.1//EN"
 "http://www.w3.org/Graphics/SVG/1.1/DTD/svg11.dtd">
<!-- Generated by graphviz version 11.0.0 (20240428.1522)
 -->
<!-- Title: /Users/jonathan/Works/Tools/Triton/src/libtriton/includes/triton/pythonUtils.hpp Pages: 1 -->
<svg width="5446pt" height="139pt"
 viewBox="0.00 0.00 5446.00 138.75" xmlns="http://www.w3.org/2000/svg" xmlns:xlink="http://www.w3.org/1999/xlink">
<g id="graph0" class="graph" transform="scale(1 1) rotate(0) translate(4 134.75)">
<title>/Users/jonathan/Works/Tools/Triton/src/libtriton/includes/triton/pythonUtils.hpp</title>
<!-- Node1 -->
<g id="Node000001" class="node">
<title>Node1</title>
<g id="a_Node000001"><a xlink:title=" ">
<polygon fill="#999999" stroke="#666666" points="2967,-130.75 2816,-130.75 2816,-89 2967,-89 2967,-130.75"/>
<text text-anchor="start" x="2824" y="-117.25" font-family="Helvetica,sans-Serif" font-size="10.00">/Users/jonathan/Works</text>
<text text-anchor="start" x="2824" y="-106" font-family="Helvetica,sans-Serif" font-size="10.00">/Tools/Triton/src/libtriton</text>
<text text-anchor="middle" x="2891.5" y="-94.75" font-family="Helvetica,sans-Serif" font-size="10.00">/includes/triton/pythonUtils.hpp</text>
</a>
</g>
</g>
<!-- Node2 -->
<g id="Node000002" class="node">
<title>Node2</title>
<g id="a_Node000002"><a xlink:href="tritonCallbacks_8cpp.html" target="_top" xlink:title=" ">
<polygon fill="white" stroke="#666666" points="127,-53 0,-53 0,0 127,0 127,-53"/>
<text text-anchor="start" x="8" y="-39.5" font-family="Helvetica,sans-Serif" font-size="10.00">/Users/jonathan/Works</text>
<text text-anchor="start" x="8" y="-28.25" font-family="Helvetica,sans-Serif" font-size="10.00">/Tools/Triton/src/libtriton</text>
<text text-anchor="start" x="8" y="-17" font-family="Helvetica,sans-Serif" font-size="10.00">/bindings/python/modules</text>
<text text-anchor="middle" x="63.5" y="-5.75" font-family="Helvetica,sans-Serif" font-size="10.00">/tritonCallbacks.cpp</text>
</a>
</g>
</g>
<!-- Node1&#45;&gt;Node2 -->
<g id="edge1_Node000001_Node000002" class="edge">
<title>Node1&#45;&gt;Node2</title>
<g id="a_edge1_Node000001_Node000002"><a xlink:title=" ">
<path fill="none" stroke="#63b8ff" d="M2804.35,-108.76C2364.92,-107.97 402.82,-101.73 135.5,-53 132.76,-52.5 129.99,-51.91 127.2,-51.25"/>
<polygon fill="#63b8ff" stroke="#63b8ff" points="2804.15,-112.26 2814.16,-108.78 2804.17,-105.26 2804.15,-112.26"/>
</a>
</g>
</g>
<!-- Node3 -->
<g id="Node000003" class="node">
<title>Node3</title>
<g id="a_Node000003"><a xlink:href="initArchNamespace_8cpp.html" target="_top" xlink:title=" ">
<polygon fill="white" stroke="#666666" points="290.38,-53 144.62,-53 144.62,0 290.38,0 290.38,-53"/>
<text text-anchor="start" x="152.62" y="-39.5" font-family="Helvetica,sans-Serif" font-size="10.00">/Users/jonathan/Works</text>
<text text-anchor="start" x="152.62" y="-28.25" font-family="Helvetica,sans-Serif" font-size="10.00">/Tools/Triton/src/libtriton</text>
<text text-anchor="start" x="152.62" y="-17" font-family="Helvetica,sans-Serif" font-size="10.00">/bindings/python/namespaces</text>
<text text-anchor="middle" x="217.5" y="-5.75" font-family="Helvetica,sans-Serif" font-size="10.00">/initArchNamespace.cpp</text>
</a>
</g>
</g>
<!-- Node1&#45;&gt;Node3 -->
<g id="edge2_Node000001_Node000003" class="edge">
<title>Node1&#45;&gt;Node3</title>
<g id="a_edge2_Node000001_Node000003"><a xlink:title=" ">
<path fill="none" stroke="#63b8ff" d="M2804.46,-108.44C2381.47,-106.15 550.71,-93.93 299.5,-53 296.56,-52.52 293.57,-51.96 290.57,-51.33"/>
<polygon fill="#63b8ff" stroke="#63b8ff" points="2804.14,-111.94 2814.16,-108.5 2804.17,-104.94 2804.14,-111.94"/>
</a>
</g>
</g>
<!-- Node4 -->
<g id="Node000004" class="node">
<title>Node4</title>
<g id="a_Node000004"><a xlink:href="initAstNodeNamespace_8cpp.html" target="_top" xlink:title=" ">
<polygon fill="white" stroke="#666666" points="454.38,-53 308.62,-53 308.62,0 454.38,0 454.38,-53"/>
<text text-anchor="start" x="316.62" y="-39.5" font-family="Helvetica,sans-Serif" font-size="10.00">/Users/jonathan/Works</text>
<text text-anchor="start" x="316.62" y="-28.25" font-family="Helvetica,sans-Serif" font-size="10.00">/Tools/Triton/src/libtriton</text>
<text text-anchor="start" x="316.62" y="-17" font-family="Helvetica,sans-Serif" font-size="10.00">/bindings/python/namespaces</text>
<text text-anchor="middle" x="381.5" y="-5.75" font-family="Helvetica,sans-Serif" font-size="10.00">/initAstNodeNamespace.cpp</text>
</a>
</g>
</g>
<!-- Node1&#45;&gt;Node4 -->
<g id="edge3_Node000001_Node000004" class="edge">
<title>Node1&#45;&gt;Node4</title>
<g id="a_edge3_Node000001_Node000004"><a xlink:title=" ">
<path fill="none" stroke="#63b8ff" d="M2804.41,-108.31C2397.99,-105.46 697.71,-91.34 463.5,-53 460.56,-52.52 457.57,-51.96 454.57,-51.33"/>
<polygon fill="#63b8ff" stroke="#63b8ff" points="2804.23,-111.81 2814.26,-108.37 2804.28,-104.81 2804.23,-111.81"/>
</a>
</g>
</g>
<!-- Node5 -->
<g id="Node000005" class="node">
<title>Node5</title>
<g id="a_Node000005"><a xlink:href="initAstRepresentationNamespace_8cpp.html" target="_top" xlink:title=" ">
<polygon fill="white" stroke="#666666" points="656.5,-53 472.5,-53 472.5,0 656.5,0 656.5,-53"/>
<text text-anchor="start" x="480.5" y="-39.5" font-family="Helvetica,sans-Serif" font-size="10.00">/Users/jonathan/Works</text>
<text text-anchor="start" x="480.5" y="-28.25" font-family="Helvetica,sans-Serif" font-size="10.00">/Tools/Triton/src/libtriton</text>
<text text-anchor="start" x="480.5" y="-17" font-family="Helvetica,sans-Serif" font-size="10.00">/bindings/python/namespaces</text>
<text text-anchor="middle" x="564.5" y="-5.75" font-family="Helvetica,sans-Serif" font-size="10.00">/initAstRepresentationNamespace.cpp</text>
</a>
</g>
</g>
<!-- Node1&#45;&gt;Node5 -->
<g id="edge4_Node000001_Node000005" class="edge">
<title>Node1&#45;&gt;Node5</title>
<g id="a_edge4_Node000001_Node000005"><a xlink:title=" ">
<path fill="none" stroke="#63b8ff" d="M2804.38,-109.27C2446.67,-110.5 1089.73,-111.14 665.5,-53 662.63,-52.61 659.73,-52.16 656.81,-51.68"/>
<polygon fill="#63b8ff" stroke="#63b8ff" points="2804.17,-112.77 2814.16,-109.24 2804.15,-105.77 2804.17,-112.77"/>
</a>
</g>
</g>
<!-- Node6 -->
<g id="Node000006" class="node">
<title>Node6</title>
<g id="a_Node000006"><a xlink:href="initCallbackNamespace_8cpp.html" target="_top" xlink:title=" ">
<polygon fill="white" stroke="#666666" points="820.38,-53 674.62,-53 674.62,0 820.38,0 820.38,-53"/>
<text text-anchor="start" x="682.62" y="-39.5" font-family="Helvetica,sans-Serif" font-size="10.00">/Users/jonathan/Works</text>
<text text-anchor="start" x="682.62" y="-28.25" font-family="Helvetica,sans-Serif" font-size="10.00">/Tools/Triton/src/libtriton</text>
<text text-anchor="start" x="682.62" y="-17" font-family="Helvetica,sans-Serif" font-size="10.00">/bindings/python/namespaces</text>
<text text-anchor="middle" x="747.5" y="-5.75" font-family="Helvetica,sans-Serif" font-size="10.00">/initCallbackNamespace.cpp</text>
</a>
</g>
</g>
<!-- Node1&#45;&gt;Node6 -->
<g id="edge5_Node000001_Node000006" class="edge">
<title>Node1&#45;&gt;Node6</title>
<g id="a_edge5_Node000001_Node000006"><a xlink:title=" ">
<path fill="none" stroke="#63b8ff" d="M2804.37,-107.92C2437.19,-103.72 1025.92,-85.56 829.5,-53 826.56,-52.51 823.58,-51.95 820.58,-51.31"/>
<polygon fill="#63b8ff" stroke="#63b8ff" points="2804.14,-111.42 2814.18,-108.03 2804.22,-104.42 2804.14,-111.42"/>
</a>
</g>
</g>
<!-- Node7 -->
<g id="Node000007" class="node">
<title>Node7</title>
<g id="a_Node000007"><a xlink:href="initConditionsNamespace_8cpp.html" target="_top" xlink:title=" ">
<polygon fill="white" stroke="#666666" points="988.25,-53 838.75,-53 838.75,0 988.25,0 988.25,-53"/>
<text text-anchor="start" x="846.75" y="-39.5" font-family="Helvetica,sans-Serif" font-size="10.00">/Users/jonathan/Works</text>
<text text-anchor="start" x="846.75" y="-28.25" font-family="Helvetica,sans-Serif" font-size="10.00">/Tools/Triton/src/libtriton</text>
<text text-anchor="start" x="846.75" y="-17" font-family="Helvetica,sans-Serif" font-size="10.00">/bindings/python/namespaces</text>
<text text-anchor="middle" x="913.5" y="-5.75" font-family="Helvetica,sans-Serif" font-size="10.00">/initConditionsNamespace.cpp</text>
</a>
</g>
</g>
<!-- Node1&#45;&gt;Node7 -->
<g id="edge6_Node000001_Node000007" class="edge">
<title>Node1&#45;&gt;Node7</title>
<g id="a_edge6_Node000001_Node000007"><a xlink:title=" ">
<path fill="none" stroke="#63b8ff" d="M2804.47,-109.36C2481.52,-110.7 1352.23,-111.02 997.5,-53 994.49,-52.51 991.44,-51.94 988.37,-51.3"/>
<polygon fill="#63b8ff" stroke="#63b8ff" points="2804.11,-112.86 2814.1,-109.32 2804.08,-105.86 2804.11,-112.86"/>
</a>
</g>
</g>
<!-- Node8 -->
<g id="Node000008" class="node">
<title>Node8</title>
<g id="a_Node000008"><a xlink:href="initCpuSizeNamespace_8cpp.html" target="_top" xlink:title=" ">
<polygon fill="white" stroke="#666666" points="1152.38,-53 1006.62,-53 1006.62,0 1152.38,0 1152.38,-53"/>
<text text-anchor="start" x="1014.62" y="-39.5" font-family="Helvetica,sans-Serif" font-size="10.00">/Users/jonathan/Works</text>
<text text-anchor="start" x="1014.62" y="-28.25" font-family="Helvetica,sans-Serif" font-size="10.00">/Tools/Triton/src/libtriton</text>
<text text-anchor="start" x="1014.62" y="-17" font-family="Helvetica,sans-Serif" font-size="10.00">/bindings/python/namespaces</text>
<text text-anchor="middle" x="1079.5" y="-5.75" font-family="Helvetica,sans-Serif" font-size="10.00">/initCpuSizeNamespace.cpp</text>
</a>
</g>
</g>
<!-- Node1&#45;&gt;Node8 -->
<g id="edge7_Node000001_Node000008" class="edge">
<title>Node1&#45;&gt;Node8</title>
<g id="a_edge7_Node000001_Node000008"><a xlink:title=" ">
<path fill="none" stroke="#63b8ff" d="M2804.46,-109.15C2499.81,-109.64 1482.59,-107.09 1161.5,-53 1158.56,-52.5 1155.58,-51.93 1152.58,-51.29"/>
<polygon fill="#63b8ff" stroke="#63b8ff" points="2804.35,-112.65 2814.34,-109.14 2804.34,-105.65 2804.35,-112.65"/>
</a>
</g>
</g>
<!-- Node9 -->
<g id="Node000009" class="node">
<title>Node9</title>
<g id="a_Node000009"><a xlink:href="initExceptionNamespace_8cpp.html" target="_top" xlink:title=" ">
<polygon fill="white" stroke="#666666" points="1316.75,-53 1170.25,-53 1170.25,0 1316.75,0 1316.75,-53"/>
<text text-anchor="start" x="1178.25" y="-39.5" font-family="Helvetica,sans-Serif" font-size="10.00">/Users/jonathan/Works</text>
<text text-anchor="start" x="1178.25" y="-28.25" font-family="Helvetica,sans-Serif" font-size="10.00">/Tools/Triton/src/libtriton</text>
<text text-anchor="start" x="1178.25" y="-17" font-family="Helvetica,sans-Serif" font-size="10.00">/bindings/python/namespaces</text>
<text text-anchor="middle" x="1243.5" y="-5.75" font-family="Helvetica,sans-Serif" font-size="10.00">/initExceptionNamespace.cpp</text>
</a>
</g>
</g>
<!-- Node1&#45;&gt;Node9 -->
<g id="edge8_Node000001_Node000009" class="edge">
<title>Node1&#45;&gt;Node9</title>
<g id="a_edge8_Node000001_Node000009"><a xlink:title=" ">
<path fill="none" stroke="#63b8ff" d="M2804.59,-108.81C2519.3,-108.11 1613.31,-101.98 1325.5,-53 1322.71,-52.52 1319.88,-51.98 1317.03,-51.38"/>
<polygon fill="#63b8ff" stroke="#63b8ff" points="2804.17,-112.31 2814.17,-108.83 2804.18,-105.31 2804.17,-112.31"/>
</a>
</g>
</g>
<!-- Node10 -->
<g id="Node000010" class="node">
<title>Node10</title>
<g id="a_Node000010"><a xlink:href="initExtendNamespace_8cpp.html" target="_top" xlink:title=" ">
<polygon fill="white" stroke="#666666" points="1480.38,-53 1334.62,-53 1334.62,0 1480.38,0 1480.38,-53"/>
<text text-anchor="start" x="1342.62" y="-39.5" font-family="Helvetica,sans-Serif" font-size="10.00">/Users/jonathan/Works</text>
<text text-anchor="start" x="1342.62" y="-28.25" font-family="Helvetica,sans-Serif" font-size="10.00">/Tools/Triton/src/libtriton</text>
<text text-anchor="start" x="1342.62" y="-17" font-family="Helvetica,sans-Serif" font-size="10.00">/bindings/python/namespaces</text>
<text text-anchor="middle" x="1407.5" y="-5.75" font-family="Helvetica,sans-Serif" font-size="10.00">/initExtendNamespace.cpp</text>
</a>
</g>
</g>
<!-- Node1&#45;&gt;Node10 -->
<g id="edge9_Node000001_Node000010" class="edge">
<title>Node1&#45;&gt;Node10</title>
<g id="a_edge9_Node000001_Node000010"><a xlink:title=" ">
<path fill="none" stroke="#63b8ff" d="M2804.4,-108.38C2539.18,-106.4 1744.08,-96.87 1489.5,-53 1486.56,-52.49 1483.58,-51.91 1480.59,-51.27"/>
<polygon fill="#63b8ff" stroke="#63b8ff" points="2804.34,-111.88 2814.36,-108.45 2804.39,-104.88 2804.34,-111.88"/>
</a>
</g>
</g>
<!-- Node11 -->
<g id="Node000011" class="node">
<title>Node11</title>
<g id="a_Node000011"><a xlink:href="initModeNamespace_8cpp.html" target="_top" xlink:title=" ">
<polygon fill="white" stroke="#666666" points="1644.38,-53 1498.62,-53 1498.62,0 1644.38,0 1644.38,-53"/>
<text text-anchor="start" x="1506.62" y="-39.5" font-family="Helvetica,sans-Serif" font-size="10.00">/Users/jonathan/Works</text>
<text text-anchor="start" x="1506.62" y="-28.25" font-family="Helvetica,sans-Serif" font-size="10.00">/Tools/Triton/src/libtriton</text>
<text text-anchor="start" x="1506.62" y="-17" font-family="Helvetica,sans-Serif" font-size="10.00">/bindings/python/namespaces</text>
<text text-anchor="middle" x="1571.5" y="-5.75" font-family="Helvetica,sans-Serif" font-size="10.00">/initModeNamespace.cpp</text>
</a>
</g>
</g>
<!-- Node1&#45;&gt;Node11 -->
<g id="edge10_Node000001_Node000011" class="edge">
<title>Node1&#45;&gt;Node11</title>
<g id="a_edge10_Node000001_Node000011"><a xlink:title=" ">
<path fill="none" stroke="#63b8ff" d="M2804.23,-107.84C2560.34,-104.48 1875.02,-91.78 1653.5,-53 1650.56,-52.49 1647.58,-51.9 1644.59,-51.25"/>
<polygon fill="#63b8ff" stroke="#63b8ff" points="2803.94,-111.34 2813.99,-107.97 2804.04,-104.34 2803.94,-111.34"/>
</a>
</g>
</g>
<!-- Node12 -->
<g id="Node000012" class="node">
<title>Node12</title>
<g id="a_Node000012"><a xlink:href="initOpcodesNamespace_8cpp.html" target="_top" xlink:title=" ">
<polygon fill="white" stroke="#666666" points="1808.38,-53 1662.62,-53 1662.62,0 1808.38,0 1808.38,-53"/>
<text text-anchor="start" x="1670.62" y="-39.5" font-family="Helvetica,sans-Serif" font-size="10.00">/Users/jonathan/Works</text>
<text text-anchor="start" x="1670.62" y="-28.25" font-family="Helvetica,sans-Serif" font-size="10.00">/Tools/Triton/src/libtriton</text>
<text text-anchor="start" x="1670.62" y="-17" font-family="Helvetica,sans-Serif" font-size="10.00">/bindings/python/namespaces</text>
<text text-anchor="middle" x="1735.5" y="-5.75" font-family="Helvetica,sans-Serif" font-size="10.00">/initOpcodesNamespace.cpp</text>
</a>
</g>
</g>
<!-- Node1&#45;&gt;Node12 -->
<g id="edge11_Node000001_Node000012" class="edge">
<title>Node1&#45;&gt;Node12</title>
<g id="a_edge11_Node000001_Node000012"><a xlink:title=" ">
<path fill="none" stroke="#63b8ff" d="M2804.42,-107.14C2583.67,-102.3 2006.29,-86.72 1817.5,-53 1814.56,-52.48 1811.59,-51.88 1808.59,-51.22"/>
<polygon fill="#63b8ff" stroke="#63b8ff" points="2804.03,-110.63 2814.1,-107.35 2804.18,-103.64 2804.03,-110.63"/>
</a>
</g>
</g>
<!-- Node13 -->
<g id="Node000013" class="node">
<title>Node13</title>
<g id="a_Node000013"><a xlink:href="initOperandNamespace_8cpp.html" target="_top" xlink:title=" ">
<polygon fill="white" stroke="#666666" points="1972.38,-53 1826.62,-53 1826.62,0 1972.38,0 1972.38,-53"/>
<text text-anchor="start" x="1834.62" y="-39.5" font-family="Helvetica,sans-Serif" font-size="10.00">/Users/jonathan/Works</text>
<text text-anchor="start" x="1834.62" y="-28.25" font-family="Helvetica,sans-Serif" font-size="10.00">/Tools/Triton/src/libtriton</text>
<text text-anchor="start" x="1834.62" y="-17" font-family="Helvetica,sans-Serif" font-size="10.00">/bindings/python/namespaces</text>
<text text-anchor="middle" x="1899.5" y="-5.75" font-family="Helvetica,sans-Serif" font-size="10.00">/initOperandNamespace.cpp</text>
</a>
</g>
</g>
<!-- Node1&#45;&gt;Node13 -->
<g id="edge12_Node000001_Node000013" class="edge">
<title>Node1&#45;&gt;Node13</title>
<g id="a_edge12_Node000001_Node000013"><a xlink:title=" ">
<path fill="none" stroke="#63b8ff" d="M2804.12,-106.18C2607.98,-99.71 2137.68,-81.65 1981.5,-53 1978.57,-52.46 1975.59,-51.85 1972.6,-51.19"/>
<polygon fill="#63b8ff" stroke="#63b8ff" points="2803.89,-109.68 2813.99,-106.51 2804.11,-102.68 2803.89,-109.68"/>
</a>
</g>
</g>
<!-- Node14 -->
<g id="Node000014" class="node">
<title>Node14</title>
<g id="a_Node000014"><a xlink:href="initPrefixesNamespace_8cpp.html" target="_top" xlink:title=" ">
<polygon fill="white" stroke="#666666" points="2136.38,-53 1990.62,-53 1990.62,0 2136.38,0 2136.38,-53"/>
<text text-anchor="start" x="1998.62" y="-39.5" font-family="Helvetica,sans-Serif" font-size="10.00">/Users/jonathan/Works</text>
<text text-anchor="start" x="1998.62" y="-28.25" font-family="Helvetica,sans-Serif" font-size="10.00">/Tools/Triton/src/libtriton</text>
<text text-anchor="start" x="1998.62" y="-17" font-family="Helvetica,sans-Serif" font-size="10.00">/bindings/python/namespaces</text>
<text text-anchor="middle" x="2063.5" y="-5.75" font-family="Helvetica,sans-Serif" font-size="10.00">/initPrefixesNamespace.cpp</text>
</a>
</g>
</g>
<!-- Node1&#45;&gt;Node14 -->
<g id="edge13_Node000001_Node000014" class="edge">
<title>Node1&#45;&gt;Node14</title>
<g id="a_edge13_Node000001_Node000014"><a xlink:title=" ">
<path fill="none" stroke="#63b8ff" d="M2804.1,-108.72C2663.91,-107.04 2380.66,-97.77 2145.5,-53 2142.57,-52.44 2139.6,-51.82 2136.61,-51.14"/>
<polygon fill="#63b8ff" stroke="#63b8ff" points="2804.03,-112.22 2814.07,-108.82 2804.1,-105.22 2804.03,-112.22"/>
</a>
</g>
</g>
<!-- Node15 -->
<g id="Node000015" class="node">
<title>Node15</title>
<g id="a_Node000015"><a xlink:href="initRegNamespace_8cpp.html" target="_top" xlink:title=" ">
<polygon fill="white" stroke="#666666" points="2300.38,-53 2154.62,-53 2154.62,0 2300.38,0 2300.38,-53"/>
<text text-anchor="start" x="2162.62" y="-39.5" font-family="Helvetica,sans-Serif" font-size="10.00">/Users/jonathan/Works</text>
<text text-anchor="start" x="2162.62" y="-28.25" font-family="Helvetica,sans-Serif" font-size="10.00">/Tools/Triton/src/libtriton</text>
<text text-anchor="start" x="2162.62" y="-17" font-family="Helvetica,sans-Serif" font-size="10.00">/bindings/python/namespaces</text>
<text text-anchor="middle" x="2227.5" y="-5.75" font-family="Helvetica,sans-Serif" font-size="10.00">/initRegNamespace.cpp</text>
</a>
</g>
</g>
<!-- Node1&#45;&gt;Node15 -->
<g id="edge14_Node000001_Node000015" class="edge">
<title>Node1&#45;&gt;Node15</title>
<g id="a_edge14_Node000001_Node000015"><a xlink:title=" ">
<path fill="none" stroke="#63b8ff" d="M2804.43,-106.1C2689.92,-101.18 2482.91,-87.9 2309.5,-53 2306.58,-52.41 2303.61,-51.76 2300.62,-51.06"/>
<polygon fill="#63b8ff" stroke="#63b8ff" points="2804.25,-109.59 2814.39,-106.51 2804.54,-102.6 2804.25,-109.59"/>
</a>
</g>
</g>
<!-- Node16 -->
<g id="Node000016" class="node">
<title>Node16</title>
<g id="a_Node000016"><a xlink:href="initShiftsNamespace_8cpp.html" target="_top" xlink:title=" ">
<polygon fill="white" stroke="#666666" points="2464.38,-53 2318.62,-53 2318.62,0 2464.38,0 2464.38,-53"/>
<text text-anchor="start" x="2326.62" y="-39.5" font-family="Helvetica,sans-Serif" font-size="10.00">/Users/jonathan/Works</text>
<text text-anchor="start" x="2326.62" y="-28.25" font-family="Helvetica,sans-Serif" font-size="10.00">/Tools/Triton/src/libtriton</text>
<text text-anchor="start" x="2326.62" y="-17" font-family="Helvetica,sans-Serif" font-size="10.00">/bindings/python/namespaces</text>
<text text-anchor="middle" x="2391.5" y="-5.75" font-family="Helvetica,sans-Serif" font-size="10.00">/initShiftsNamespace.cpp</text>
</a>
</g>
</g>
<!-- Node1&#45;&gt;Node16 -->
<g id="edge15_Node000001_Node000016" class="edge">
<title>Node1&#45;&gt;Node16</title>
<g id="a_edge15_Node000001_Node000016"><a xlink:title=" ">
<path fill="none" stroke="#63b8ff" d="M2804.27,-101.54C2719.19,-93.37 2586.45,-77.93 2473.5,-53 2470.59,-52.36 2467.63,-51.66 2464.65,-50.92"/>
<polygon fill="#63b8ff" stroke="#63b8ff" points="2803.91,-105.02 2814.19,-102.47 2804.57,-98.05 2803.91,-105.02"/>
</a>
</g>
</g>
<!-- Node17 -->
<g id="Node000017" class="node">
<title>Node17</title>
<g id="a_Node000017"><a xlink:href="initSolverNamespace_8cpp.html" target="_top" xlink:title=" ">
<polygon fill="white" stroke="#666666" points="2628.38,-53 2482.62,-53 2482.62,0 2628.38,0 2628.38,-53"/>
<text text-anchor="start" x="2490.62" y="-39.5" font-family="Helvetica,sans-Serif" font-size="10.00">/Users/jonathan/Works</text>
<text text-anchor="start" x="2490.62" y="-28.25" font-family="Helvetica,sans-Serif" font-size="10.00">/Tools/Triton/src/libtriton</text>
<text text-anchor="start" x="2490.62" y="-17" font-family="Helvetica,sans-Serif" font-size="10.00">/bindings/python/namespaces</text>
<text text-anchor="middle" x="2555.5" y="-5.75" font-family="Helvetica,sans-Serif" font-size="10.00">/initSolverNamespace.cpp</text>
</a>
</g>
</g>
<!-- Node1&#45;&gt;Node17 -->
<g id="edge16_Node000001_Node000017" class="edge">
<title>Node1&#45;&gt;Node17</title>
<g id="a_edge16_Node000001_Node000017"><a xlink:title=" ">
<path fill="none" stroke="#63b8ff" d="M2804.27,-91.6C2755.05,-81.37 2692.57,-67.59 2637.5,-53 2634.62,-52.24 2631.69,-51.44 2628.73,-50.61"/>
<polygon fill="#63b8ff" stroke="#63b8ff" points="2803.53,-95.02 2814.04,-93.61 2804.95,-88.16 2803.53,-95.02"/>
</a>
</g>
</g>
<!-- Node18 -->
<g id="Node000018" class="node">
<title>Node18</title>
<g id="a_Node000018"><a xlink:href="initSolverStateNamespace_8cpp.html" target="_top" xlink:title=" ">
<polygon fill="white" stroke="#666666" points="2800.5,-53 2646.5,-53 2646.5,0 2800.5,0 2800.5,-53"/>
<text text-anchor="start" x="2654.5" y="-39.5" font-family="Helvetica,sans-Serif" font-size="10.00">/Users/jonathan/Works</text>
<text text-anchor="start" x="2654.5" y="-28.25" font-family="Helvetica,sans-Serif" font-size="10.00">/Tools/Triton/src/libtriton</text>
<text text-anchor="start" x="2654.5" y="-17" font-family="Helvetica,sans-Serif" font-size="10.00">/bindings/python/namespaces</text>
<text text-anchor="middle" x="2723.5" y="-5.75" font-family="Helvetica,sans-Serif" font-size="10.00">/initSolverStateNamespace.cpp</text>
</a>
</g>
</g>
<!-- Node1&#45;&gt;Node18 -->
<g id="edge17_Node000001_Node000018" class="edge">
<title>Node1&#45;&gt;Node18</title>
<g id="a_edge17_Node000001_Node000018"><a xlink:title=" ">
<path fill="none" stroke="#63b8ff" d="M2839.45,-83.66C2819.6,-74.05 2796.96,-63.08 2776.99,-53.41"/>
<polygon fill="#63b8ff" stroke="#63b8ff" points="2837.65,-86.68 2848.18,-87.89 2840.7,-80.38 2837.65,-86.68"/>
</a>
</g>
</g>
<!-- Node19 -->
<g id="Node000019" class="node">
<title>Node19</title>
<g id="a_Node000019"><a xlink:href="initStubsNamespace_8cpp.html" target="_top" xlink:title=" ">
<polygon fill="white" stroke="#666666" points="2964.38,-53 2818.62,-53 2818.62,0 2964.38,0 2964.38,-53"/>
<text text-anchor="start" x="2826.62" y="-39.5" font-family="Helvetica,sans-Serif" font-size="10.00">/Users/jonathan/Works</text>
<text text-anchor="start" x="2826.62" y="-28.25" font-family="Helvetica,sans-Serif" font-size="10.00">/Tools/Triton/src/libtriton</text>
<text text-anchor="start" x="2826.62" y="-17" font-family="Helvetica,sans-Serif" font-size="10.00">/bindings/python/namespaces</text>
<text text-anchor="middle" x="2891.5" y="-5.75" font-family="Helvetica,sans-Serif" font-size="10.00">/initStubsNamespace.cpp</text>
</a>
</g>
</g>
<!-- Node1&#45;&gt;Node19 -->
<g id="edge18_Node000001_Node000019" class="edge">
<title>Node1&#45;&gt;Node19</title>
<g id="a_edge18_Node000001_Node000019"><a xlink:title=" ">
<path fill="none" stroke="#63b8ff" d="M2891.5,-77.52C2891.5,-69.49 2891.5,-60.94 2891.5,-53.23"/>
<polygon fill="#63b8ff" stroke="#63b8ff" points="2888,-77.25 2891.5,-87.25 2895,-77.25 2888,-77.25"/>
</a>
</g>
</g>
<!-- Node20 -->
<g id="Node000020" class="node">
<title>Node20</title>
<g id="a_Node000020"><a xlink:href="initSymbolicNamespace_8cpp.html" target="_top" xlink:title=" ">
<polygon fill="white" stroke="#666666" points="3128.38,-53 2982.62,-53 2982.62,0 3128.38,0 3128.38,-53"/>
<text text-anchor="start" x="2990.62" y="-39.5" font-family="Helvetica,sans-Serif" font-size="10.00">/Users/jonathan/Works</text>
<text text-anchor="start" x="2990.62" y="-28.25" font-family="Helvetica,sans-Serif" font-size="10.00">/Tools/Triton/src/libtriton</text>
<text text-anchor="start" x="2990.62" y="-17" font-family="Helvetica,sans-Serif" font-size="10.00">/bindings/python/namespaces</text>
<text text-anchor="middle" x="3055.5" y="-5.75" font-family="Helvetica,sans-Serif" font-size="10.00">/initSymbolicNamespace.cpp</text>
</a>
</g>
</g>
<!-- Node1&#45;&gt;Node20 -->
<g id="edge19_Node000001_Node000020" class="edge">
<title>Node1&#45;&gt;Node20</title>
<g id="a_edge19_Node000001_Node000020"><a xlink:title=" ">
<path fill="none" stroke="#63b8ff" d="M2942.58,-83.53C2961.89,-73.95 2983.88,-63.04 3003.29,-53.41"/>
<polygon fill="#63b8ff" stroke="#63b8ff" points="2941.22,-80.3 2933.82,-87.88 2944.33,-86.57 2941.22,-80.3"/>
</a>
</g>
</g>
<!-- Node21 -->
<g id="Node000021" class="node">
<title>Node21</title>
<g id="a_Node000021"><a xlink:href="initVASNamespace_8cpp.html" target="_top" xlink:title=" ">
<polygon fill="white" stroke="#666666" points="3292.38,-53 3146.62,-53 3146.62,0 3292.38,0 3292.38,-53"/>
<text text-anchor="start" x="3154.62" y="-39.5" font-family="Helvetica,sans-Serif" font-size="10.00">/Users/jonathan/Works</text>
<text text-anchor="start" x="3154.62" y="-28.25" font-family="Helvetica,sans-Serif" font-size="10.00">/Tools/Triton/src/libtriton</text>
<text text-anchor="start" x="3154.62" y="-17" font-family="Helvetica,sans-Serif" font-size="10.00">/bindings/python/namespaces</text>
<text text-anchor="middle" x="3219.5" y="-5.75" font-family="Helvetica,sans-Serif" font-size="10.00">/initVASNamespace.cpp</text>
</a>
</g>
</g>
<!-- Node1&#45;&gt;Node21 -->
<g id="edge20_Node000001_Node000021" class="edge">
<title>Node1&#45;&gt;Node21</title>
<g id="a_edge20_Node000001_Node000021"><a xlink:title=" ">
<path fill="none" stroke="#63b8ff" d="M2978.37,-90.88C3025.64,-80.65 3085.03,-67.09 3137.5,-53 3140.38,-52.23 3143.31,-51.42 3146.27,-50.59"/>
<polygon fill="#63b8ff" stroke="#63b8ff" points="2977.76,-87.43 2968.72,-92.95 2979.23,-94.27 2977.76,-87.43"/>
</a>
</g>
</g>
<!-- Node22 -->
<g id="Node000022" class="node">
<title>Node22</title>
<g id="a_Node000022"><a xlink:href="initVersionNamespace_8cpp.html" target="_top" xlink:title=" ">
<polygon fill="white" stroke="#666666" points="3456.38,-53 3310.62,-53 3310.62,0 3456.38,0 3456.38,-53"/>
<text text-anchor="start" x="3318.62" y="-39.5" font-family="Helvetica,sans-Serif" font-size="10.00">/Users/jonathan/Works</text>
<text text-anchor="start" x="3318.62" y="-28.25" font-family="Helvetica,sans-Serif" font-size="10.00">/Tools/Triton/src/libtriton</text>
<text text-anchor="start" x="3318.62" y="-17" font-family="Helvetica,sans-Serif" font-size="10.00">/bindings/python/namespaces</text>
<text text-anchor="middle" x="3383.5" y="-5.75" font-family="Helvetica,sans-Serif" font-size="10.00">/initVersionNamespace.cpp</text>
</a>
</g>
</g>
<!-- Node1&#45;&gt;Node22 -->
<g id="edge21_Node000001_Node000022" class="edge">
<title>Node1&#45;&gt;Node22</title>
<g id="a_edge21_Node000001_Node000022"><a xlink:title=" ">
<path fill="none" stroke="#63b8ff" d="M2978.57,-101.24C3062.08,-92.93 3191.37,-77.45 3301.5,-53 3304.41,-52.35 3307.37,-51.65 3310.34,-50.91"/>
<polygon fill="#63b8ff" stroke="#63b8ff" points="2978.47,-97.73 2968.86,-102.2 2979.16,-104.7 2978.47,-97.73"/>
</a>
</g>
</g>
<!-- Node23 -->
<g id="Node000023" class="node">
<title>Node23</title>
<g id="a_Node000023"><a xlink:href="pyAstContext_8cpp.html" target="_top" xlink:title=" ">
<polygon fill="white" stroke="#666666" points="3596.38,-53 3474.62,-53 3474.62,0 3596.38,0 3596.38,-53"/>
<text text-anchor="start" x="3482.62" y="-39.5" font-family="Helvetica,sans-Serif" font-size="10.00">/Users/jonathan/Works</text>
<text text-anchor="start" x="3482.62" y="-28.25" font-family="Helvetica,sans-Serif" font-size="10.00">/Tools/Triton/src/libtriton</text>
<text text-anchor="start" x="3482.62" y="-17" font-family="Helvetica,sans-Serif" font-size="10.00">/bindings/python/objects</text>
<text text-anchor="middle" x="3535.5" y="-5.75" font-family="Helvetica,sans-Serif" font-size="10.00">/pyAstContext.cpp</text>
</a>
</g>
</g>
<!-- Node1&#45;&gt;Node23 -->
<g id="edge22_Node000001_Node000023" class="edge">
<title>Node1&#45;&gt;Node23</title>
<g id="a_edge22_Node000001_Node000023"><a xlink:title=" ">
<path fill="none" stroke="#63b8ff" d="M2978.58,-107.2C3092,-103.49 3295.82,-91.51 3465.5,-53 3468.4,-52.34 3471.35,-51.6 3474.3,-50.78"/>
<polygon fill="#63b8ff" stroke="#63b8ff" points="2978.62,-103.7 2968.74,-107.51 2978.84,-110.7 2978.62,-103.7"/>
</a>
</g>
</g>
<!-- Node24 -->
<g id="Node000024" class="node">
<title>Node24</title>
<g id="a_Node000024"><a xlink:href="pyAstNode_8cpp.html" target="_top" xlink:title=" ">
<polygon fill="white" stroke="#666666" points="3736.38,-53 3614.62,-53 3614.62,0 3736.38,0 3736.38,-53"/>
<text text-anchor="start" x="3622.62" y="-39.5" font-family="Helvetica,sans-Serif" font-size="10.00">/Users/jonathan/Works</text>
<text text-anchor="start" x="3622.62" y="-28.25" font-family="Helvetica,sans-Serif" font-size="10.00">/Tools/Triton/src/libtriton</text>
<text text-anchor="start" x="3622.62" y="-17" font-family="Helvetica,sans-Serif" font-size="10.00">/bindings/python/objects</text>
<text text-anchor="middle" x="3675.5" y="-5.75" font-family="Helvetica,sans-Serif" font-size="10.00">/pyAstNode.cpp</text>
</a>
</g>
</g>
<!-- Node1&#45;&gt;Node24 -->
<g id="edge23_Node000001_Node000024" class="edge">
<title>Node1&#45;&gt;Node24</title>
<g id="a_edge23_Node000001_Node000024"><a xlink:title=" ">
<path fill="none" stroke="#63b8ff" d="M2978.36,-109.61C3113.89,-109.07 3383.16,-101.26 3605.5,-53 3608.41,-52.37 3611.36,-51.65 3614.32,-50.85"/>
<polygon fill="#63b8ff" stroke="#63b8ff" points="2978.76,-106.11 2968.77,-109.63 2978.78,-113.11 2978.76,-106.11"/>
</a>
</g>
</g>
<!-- Node25 -->
<g id="Node000025" class="node">
<title>Node25</title>
<g id="a_Node000025"><a xlink:href="pyBasicBlock_8cpp.html" target="_top" xlink:title=" ">
<polygon fill="white" stroke="#666666" points="3876.38,-53 3754.62,-53 3754.62,0 3876.38,0 3876.38,-53"/>
<text text-anchor="start" x="3762.62" y="-39.5" font-family="Helvetica,sans-Serif" font-size="10.00">/Users/jonathan/Works</text>
<text text-anchor="start" x="3762.62" y="-28.25" font-family="Helvetica,sans-Serif" font-size="10.00">/Tools/Triton/src/libtriton</text>
<text text-anchor="start" x="3762.62" y="-17" font-family="Helvetica,sans-Serif" font-size="10.00">/bindings/python/objects</text>
<text text-anchor="middle" x="3815.5" y="-5.75" font-family="Helvetica,sans-Serif" font-size="10.00">/pyBasicBlock.cpp</text>
</a>
</g>
</g>
<!-- Node1&#45;&gt;Node25 -->
<g id="edge24_Node000001_Node000025" class="edge">
<title>Node1&#45;&gt;Node25</title>
<g id="a_edge24_Node000001_Node000025"><a xlink:title=" ">
<path fill="none" stroke="#63b8ff" d="M2978.6,-106.31C3165.75,-100.29 3600.95,-83.41 3745.5,-53 3748.41,-52.39 3751.36,-51.68 3754.33,-50.9"/>
<polygon fill="#63b8ff" stroke="#63b8ff" points="2978.58,-102.81 2968.69,-106.63 2978.8,-109.81 2978.58,-102.81"/>
</a>
</g>
</g>
<!-- Node26 -->
<g id="Node000026" class="node">
<title>Node26</title>
<g id="a_Node000026"><a xlink:href="pyBitsVector_8cpp.html" target="_top" xlink:title=" ">
<polygon fill="white" stroke="#666666" points="4016.38,-53 3894.62,-53 3894.62,0 4016.38,0 4016.38,-53"/>
<text text-anchor="start" x="3902.62" y="-39.5" font-family="Helvetica,sans-Serif" font-size="10.00">/Users/jonathan/Works</text>
<text text-anchor="start" x="3902.62" y="-28.25" font-family="Helvetica,sans-Serif" font-size="10.00">/Tools/Triton/src/libtriton</text>
<text text-anchor="start" x="3902.62" y="-17" font-family="Helvetica,sans-Serif" font-size="10.00">/bindings/python/objects</text>
<text text-anchor="middle" x="3955.5" y="-5.75" font-family="Helvetica,sans-Serif" font-size="10.00">/pyBitsVector.cpp</text>
</a>
</g>
</g>
<!-- Node1&#45;&gt;Node26 -->
<g id="edge25_Node000001_Node000026" class="edge">
<title>Node1&#45;&gt;Node26</title>
<g id="a_edge25_Node000001_Node000026"><a xlink:title=" ">
<path fill="none" stroke="#63b8ff" d="M2978.39,-107.25C3187.34,-102.82 3713.33,-88.39 3885.5,-53 3888.41,-52.4 3891.37,-51.7 3894.34,-50.93"/>
<polygon fill="#63b8ff" stroke="#63b8ff" points="2978.62,-103.74 2968.7,-107.45 2978.77,-110.74 2978.62,-103.74"/>
</a>
</g>
</g>
<!-- Node27 -->
<g id="Node000027" class="node">
<title>Node27</title>
<g id="a_Node000027"><a xlink:href="pyImmediate_8cpp.html" target="_top" xlink:title=" ">
<polygon fill="white" stroke="#666666" points="4156.38,-53 4034.62,-53 4034.62,0 4156.38,0 4156.38,-53"/>
<text text-anchor="start" x="4042.62" y="-39.5" font-family="Helvetica,sans-Serif" font-size="10.00">/Users/jonathan/Works</text>
<text text-anchor="start" x="4042.62" y="-28.25" font-family="Helvetica,sans-Serif" font-size="10.00">/Tools/Triton/src/libtriton</text>
<text text-anchor="start" x="4042.62" y="-17" font-family="Helvetica,sans-Serif" font-size="10.00">/bindings/python/objects</text>
<text text-anchor="middle" x="4095.5" y="-5.75" font-family="Helvetica,sans-Serif" font-size="10.00">/pyImmediate.cpp</text>
</a>
</g>
</g>
<!-- Node1&#45;&gt;Node27 -->
<g id="edge26_Node000001_Node000027" class="edge">
<title>Node1&#45;&gt;Node27</title>
<g id="a_edge26_Node000001_Node000027"><a xlink:title=" ">
<path fill="none" stroke="#63b8ff" d="M2978.64,-107.95C3208.21,-104.98 3825.64,-93.37 4025.5,-53 4028.42,-52.41 4031.37,-51.72 4034.34,-50.96"/>
<polygon fill="#63b8ff" stroke="#63b8ff" points="2978.82,-104.45 2968.87,-108.08 2978.91,-111.45 2978.82,-104.45"/>
</a>
</g>
</g>
<!-- Node28 -->
<g id="Node000028" class="node">
<title>Node28</title>
<g id="a_Node000028"><a xlink:href="pyInstruction_8cpp.html" target="_top" xlink:title=" ">
<polygon fill="white" stroke="#666666" points="4296.38,-53 4174.62,-53 4174.62,0 4296.38,0 4296.38,-53"/>
<text text-anchor="start" x="4182.62" y="-39.5" font-family="Helvetica,sans-Serif" font-size="10.00">/Users/jonathan/Works</text>
<text text-anchor="start" x="4182.62" y="-28.25" font-family="Helvetica,sans-Serif" font-size="10.00">/Tools/Triton/src/libtriton</text>
<text text-anchor="start" x="4182.62" y="-17" font-family="Helvetica,sans-Serif" font-size="10.00">/bindings/python/objects</text>
<text text-anchor="middle" x="4235.5" y="-5.75" font-family="Helvetica,sans-Serif" font-size="10.00">/pyInstruction.cpp</text>
</a>
</g>
</g>
<!-- Node1&#45;&gt;Node28 -->
<g id="edge27_Node000001_Node000028" class="edge">
<title>Node1&#45;&gt;Node28</title>
<g id="a_edge27_Node000001_Node000028"><a xlink:title=" ">
<path fill="none" stroke="#63b8ff" d="M2978.77,-108.5C3227.67,-106.9 3937.74,-98.36 4165.5,-53 4168.42,-52.42 4171.38,-51.74 4174.34,-50.98"/>
<polygon fill="#63b8ff" stroke="#63b8ff" points="2978.76,-105 2968.78,-108.57 2978.8,-112 2978.76,-105"/>
</a>
</g>
</g>
<!-- Node29 -->
<g id="Node000029" class="node">
<title>Node29</title>
<g id="a_Node000029"><a xlink:href="pyMemoryAccess_8cpp.html" target="_top" xlink:title=" ">
<polygon fill="white" stroke="#666666" points="4436.38,-53 4314.62,-53 4314.62,0 4436.38,0 4436.38,-53"/>
<text text-anchor="start" x="4322.62" y="-39.5" font-family="Helvetica,sans-Serif" font-size="10.00">/Users/jonathan/Works</text>
<text text-anchor="start" x="4322.62" y="-28.25" font-family="Helvetica,sans-Serif" font-size="10.00">/Tools/Triton/src/libtriton</text>
<text text-anchor="start" x="4322.62" y="-17" font-family="Helvetica,sans-Serif" font-size="10.00">/bindings/python/objects</text>
<text text-anchor="middle" x="4375.5" y="-5.75" font-family="Helvetica,sans-Serif" font-size="10.00">/pyMemoryAccess.cpp</text>
</a>
</g>
</g>
<!-- Node1&#45;&gt;Node29 -->
<g id="edge28_Node000001_Node000029" class="edge">
<title>Node1&#45;&gt;Node29</title>
<g id="a_edge28_Node000001_Node000029"><a xlink:title=" ">
<path fill="none" stroke="#63b8ff" d="M2978.58,-108.95C3245.5,-108.63 4049.6,-103.39 4305.5,-53 4308.42,-52.43 4311.38,-51.75 4314.35,-50.99"/>
<polygon fill="#63b8ff" stroke="#63b8ff" points="2978.92,-105.45 2968.93,-108.96 2978.93,-112.45 2978.92,-105.45"/>
</a>
</g>
</g>
<!-- Node30 -->
<g id="Node000030" class="node">
<title>Node30</title>
<g id="a_Node000030"><a xlink:href="pyPathConstraint_8cpp.html" target="_top" xlink:title=" ">
<polygon fill="white" stroke="#666666" points="4576.38,-53 4454.62,-53 4454.62,0 4576.38,0 4576.38,-53"/>
<text text-anchor="start" x="4462.62" y="-39.5" font-family="Helvetica,sans-Serif" font-size="10.00">/Users/jonathan/Works</text>
<text text-anchor="start" x="4462.62" y="-28.25" font-family="Helvetica,sans-Serif" font-size="10.00">/Tools/Triton/src/libtriton</text>
<text text-anchor="start" x="4462.62" y="-17" font-family="Helvetica,sans-Serif" font-size="10.00">/bindings/python/objects</text>
<text text-anchor="middle" x="4515.5" y="-5.75" font-family="Helvetica,sans-Serif" font-size="10.00">/pyPathConstraint.cpp</text>
</a>
</g>
</g>
<!-- Node1&#45;&gt;Node30 -->
<g id="edge29_Node000001_Node000030" class="edge">
<title>Node1&#45;&gt;Node30</title>
<g id="a_edge29_Node000001_Node000030"><a xlink:title=" ">
<path fill="none" stroke="#63b8ff" d="M2978.76,-109.32C3263.17,-110.2 4161.45,-108.41 4445.5,-53 4448.42,-52.43 4451.38,-51.76 4454.35,-51"/>
<polygon fill="#63b8ff" stroke="#63b8ff" points="2978.81,-105.82 2968.8,-109.28 2978.79,-112.82 2978.81,-105.82"/>
</a>
</g>
</g>
<!-- Node31 -->
<g id="Node000031" class="node">
<title>Node31</title>
<g id="a_Node000031"><a xlink:href="pyRegister_8cpp.html" target="_top" xlink:title=" ">
<polygon fill="white" stroke="#666666" points="4716.38,-53 4594.62,-53 4594.62,0 4716.38,0 4716.38,-53"/>
<text text-anchor="start" x="4602.62" y="-39.5" font-family="Helvetica,sans-Serif" font-size="10.00">/Users/jonathan/Works</text>
<text text-anchor="start" x="4602.62" y="-28.25" font-family="Helvetica,sans-Serif" font-size="10.00">/Tools/Triton/src/libtriton</text>
<text text-anchor="start" x="4602.62" y="-17" font-family="Helvetica,sans-Serif" font-size="10.00">/bindings/python/objects</text>
<text text-anchor="middle" x="4655.5" y="-5.75" font-family="Helvetica,sans-Serif" font-size="10.00">/pyRegister.cpp</text>
</a>
</g>
</g>
<!-- Node1&#45;&gt;Node31 -->
<g id="edge30_Node000001_Node000031" class="edge">
<title>Node1&#45;&gt;Node31</title>
<g id="a_edge30_Node000001_Node000031"><a xlink:title=" ">
<path fill="none" stroke="#63b8ff" d="M2978.49,-107.61C3302.32,-102.7 4427.49,-83.58 4585.5,-53 4588.42,-52.43 4591.38,-51.77 4594.35,-51.01"/>
<polygon fill="#63b8ff" stroke="#63b8ff" points="2978.77,-104.11 2968.82,-107.76 2978.88,-111.11 2978.77,-104.11"/>
</a>
</g>
</g>
<!-- Node32 -->
<g id="Node000032" class="node">
<title>Node32</title>
<g id="a_Node000032"><a xlink:href="pySolverModel_8cpp.html" target="_top" xlink:title=" ">
<polygon fill="white" stroke="#666666" points="4856.38,-53 4734.62,-53 4734.62,0 4856.38,0 4856.38,-53"/>
<text text-anchor="start" x="4742.62" y="-39.5" font-family="Helvetica,sans-Serif" font-size="10.00">/Users/jonathan/Works</text>
<text text-anchor="start" x="4742.62" y="-28.25" font-family="Helvetica,sans-Serif" font-size="10.00">/Tools/Triton/src/libtriton</text>
<text text-anchor="start" x="4742.62" y="-17" font-family="Helvetica,sans-Serif" font-size="10.00">/bindings/python/objects</text>
<text text-anchor="middle" x="4795.5" y="-5.75" font-family="Helvetica,sans-Serif" font-size="10.00">/pySolverModel.cpp</text>
</a>
</g>
</g>
<!-- Node1&#45;&gt;Node32 -->
<g id="edge31_Node000001_Node000032" class="edge">
<title>Node1&#45;&gt;Node32</title>
<g id="a_edge31_Node000001_Node000032"><a xlink:title=" ">
<path fill="none" stroke="#63b8ff" d="M2978.74,-107.85C3319.87,-103.61 4553.25,-86.11 4725.5,-53 4728.42,-52.44 4731.38,-51.77 4734.35,-51.02"/>
<polygon fill="#63b8ff" stroke="#63b8ff" points="2978.93,-104.34 2968.98,-107.97 2979.02,-111.34 2978.93,-104.34"/>
</a>
</g>
</g>
<!-- Node33 -->
<g id="Node000033" class="node">
<title>Node33</title>
<g id="a_Node000033"><a xlink:href="pySymbolicExpression_8cpp.html" target="_top" xlink:title=" ">
<polygon fill="white" stroke="#666666" points="5012.25,-53 4874.75,-53 4874.75,0 5012.25,0 5012.25,-53"/>
<text text-anchor="start" x="4882.75" y="-39.5" font-family="Helvetica,sans-Serif" font-size="10.00">/Users/jonathan/Works</text>
<text text-anchor="start" x="4882.75" y="-28.25" font-family="Helvetica,sans-Serif" font-size="10.00">/Tools/Triton/src/libtriton</text>
<text text-anchor="start" x="4882.75" y="-17" font-family="Helvetica,sans-Serif" font-size="10.00">/bindings/python/objects</text>
<text text-anchor="middle" x="4943.5" y="-5.75" font-family="Helvetica,sans-Serif" font-size="10.00">/pySymbolicExpression.cpp</text>
</a>
</g>
</g>
<!-- Node1&#45;&gt;Node33 -->
<g id="edge32_Node000001_Node000033" class="edge">
<title>Node1&#45;&gt;Node33</title>
<g id="a_edge32_Node000001_Node000033"><a xlink:title=" ">
<path fill="none" stroke="#63b8ff" d="M2978.75,-107.88C3336.15,-103.61 4678.38,-85.53 4865.5,-53 4868.45,-52.49 4871.44,-51.89 4874.44,-51.22"/>
<polygon fill="#63b8ff" stroke="#63b8ff" points="2978.92,-104.38 2968.97,-108 2979.01,-111.38 2978.92,-104.38"/>
</a>
</g>
</g>
<!-- Node34 -->
<g id="Node000034" class="node">
<title>Node34</title>
<g id="a_Node000034"><a xlink:href="pySymbolicVariable_8cpp.html" target="_top" xlink:title=" ">
<polygon fill="white" stroke="#666666" points="5153.12,-53 5029.88,-53 5029.88,0 5153.12,0 5153.12,-53"/>
<text text-anchor="start" x="5037.88" y="-39.5" font-family="Helvetica,sans-Serif" font-size="10.00">/Users/jonathan/Works</text>
<text text-anchor="start" x="5037.88" y="-28.25" font-family="Helvetica,sans-Serif" font-size="10.00">/Tools/Triton/src/libtriton</text>
<text text-anchor="start" x="5037.88" y="-17" font-family="Helvetica,sans-Serif" font-size="10.00">/bindings/python/objects</text>
<text text-anchor="middle" x="5091.5" y="-5.75" font-family="Helvetica,sans-Serif" font-size="10.00">/pySymbolicVariable.cpp</text>
</a>
</g>
</g>
<!-- Node1&#45;&gt;Node34 -->
<g id="edge33_Node000001_Node000034" class="edge">
<title>Node1&#45;&gt;Node34</title>
<g id="a_edge33_Node000001_Node000034"><a xlink:title=" ">
<path fill="none" stroke="#63b8ff" d="M2978.76,-108.25C3353.8,-105.32 4818.95,-91.49 5021.5,-53 5024.17,-52.49 5026.87,-51.9 5029.58,-51.23"/>
<polygon fill="#63b8ff" stroke="#63b8ff" points="2978.94,-104.74 2968.97,-108.32 2979,-111.74 2978.94,-104.74"/>
</a>
</g>
</g>
<!-- Node35 -->
<g id="Node000035" class="node">
<title>Node35</title>
<g id="a_Node000035"><a xlink:href="pyTritonContext_8cpp.html" target="_top" xlink:title=" ">
<polygon fill="white" stroke="#666666" points="5293.38,-53 5171.62,-53 5171.62,0 5293.38,0 5293.38,-53"/>
<text text-anchor="start" x="5179.62" y="-39.5" font-family="Helvetica,sans-Serif" font-size="10.00">/Users/jonathan/Works</text>
<text text-anchor="start" x="5179.62" y="-28.25" font-family="Helvetica,sans-Serif" font-size="10.00">/Tools/Triton/src/libtriton</text>
<text text-anchor="start" x="5179.62" y="-17" font-family="Helvetica,sans-Serif" font-size="10.00">/bindings/python/objects</text>
<text text-anchor="middle" x="5232.5" y="-5.75" font-family="Helvetica,sans-Serif" font-size="10.00">/pyTritonContext.cpp</text>
</a>
</g>
</g>
<!-- Node1&#45;&gt;Node35 -->
<g id="edge34_Node000001_Node000035" class="edge">
<title>Node1&#45;&gt;Node35</title>
<g id="a_edge34_Node000001_Node000035"><a xlink:title=" ">
<path fill="none" stroke="#63b8ff" d="M2978.66,-108.4C3368.85,-106.05 4945.45,-94.06 5162.5,-53 5165.42,-52.45 5168.39,-51.79 5171.36,-51.05"/>
<polygon fill="#63b8ff" stroke="#63b8ff" points="2978.69,-104.9 2968.71,-108.46 2978.73,-111.9 2978.69,-104.9"/>
</a>
</g>
</g>
<!-- Node36 -->
<g id="Node000036" class="node">
<title>Node36</title>
<g id="a_Node000036"><a xlink:href="utils_8cpp.html" target="_top" xlink:title=" ">
<polygon fill="white" stroke="#666666" points="5438,-47.38 5311,-47.38 5311,-5.62 5438,-5.62 5438,-47.38"/>
<text text-anchor="start" x="5319" y="-33.88" font-family="Helvetica,sans-Serif" font-size="10.00">/Users/jonathan/Works</text>
<text text-anchor="start" x="5319" y="-22.62" font-family="Helvetica,sans-Serif" font-size="10.00">/Tools/Triton/src/libtriton</text>
<text text-anchor="middle" x="5374.5" y="-11.38" font-family="Helvetica,sans-Serif" font-size="10.00">/bindings/python/utils.cpp</text>
</a>
</g>
</g>
<!-- Node1&#45;&gt;Node36 -->
<g id="edge35_Node000001_Node000036" class="edge">
<title>Node1&#45;&gt;Node36</title>
<g id="a_edge35_Node000001_Node000036"><a xlink:title=" ">
<path fill="none" stroke="#63b8ff" d="M2978.68,-108.49C3383.6,-106.48 5070.84,-95.58 5302.5,-53 5309.41,-51.73 5316.55,-49.89 5323.52,-47.78"/>
<polygon fill="#63b8ff" stroke="#63b8ff" points="2978.86,-104.99 2968.87,-108.54 2978.89,-111.99 2978.86,-104.99"/>
</a>
</g>
</g>
</g>
</svg>
