<?xml version="1.0" encoding="UTF-8" standalone="no"?>
<!DOCTYPE svg PUBLIC "-//W3C//DTD SVG 1.1//EN"
 "http://www.w3.org/Graphics/SVG/1.1/DTD/svg11.dtd">
<!-- Generated by graphviz version 5.0.1 (20220820.1526)
 -->
<!-- Title: /home/jonathan/Works/Tools/Triton/src/libtriton/includes/triton/pythonXFunctions.hpp Pages: 1 -->
<svg width="6183pt" height="139pt"
 viewBox="0.00 0.00 6182.50 139.00" xmlns="http://www.w3.org/2000/svg" xmlns:xlink="http://www.w3.org/1999/xlink">
<g id="graph0" class="graph" transform="scale(1 1) rotate(0) translate(4 135)">
<title>/home/jonathan/Works/Tools/Triton/src/libtriton/includes/triton/pythonXFunctions.hpp</title>
<polygon fill="white" stroke="none" points="-4,4 -4,-135 6178.5,-135 6178.5,4 -4,4"/>
<!-- Node1 -->
<g id="node1" class="node">
<title>Node1</title>
<g id="a_node1"><a xlink:title=" ">
<polygon fill="#bfbfbf" stroke="black" points="3139.5,-89.5 3139.5,-130.5 3339.5,-130.5 3339.5,-89.5 3139.5,-89.5"/>
<text text-anchor="start" x="3147.5" y="-118.5" font-family="Helvetica,sans-Serif" font-size="10.00">/home/jonathan/Works</text>
<text text-anchor="start" x="3147.5" y="-107.5" font-family="Helvetica,sans-Serif" font-size="10.00">/Tools/Triton/src/libtriton</text>
<text text-anchor="middle" x="3239.5" y="-96.5" font-family="Helvetica,sans-Serif" font-size="10.00">/includes/triton/pythonXFunctions.hpp</text>
</a>
</g>
</g>
<!-- Node2 -->
<g id="node2" class="node">
<title>Node2</title>
<g id="a_node2"><a xlink:href="init_8cpp.html" target="_top" xlink:title=" ">
<polygon fill="white" stroke="black" points="0,-6 0,-47 137,-47 137,-6 0,-6"/>
<text text-anchor="start" x="8" y="-35" font-family="Helvetica,sans-Serif" font-size="10.00">/home/jonathan/Works</text>
<text text-anchor="start" x="8" y="-24" font-family="Helvetica,sans-Serif" font-size="10.00">/Tools/Triton/src/libtriton</text>
<text text-anchor="middle" x="68.5" y="-13" font-family="Helvetica,sans-Serif" font-size="10.00">/bindings/python/init.cpp</text>
</a>
</g>
</g>
<!-- Node1&#45;&gt;Node2 -->
<g id="edge1" class="edge">
<title>Node1&#45;&gt;Node2</title>
<path fill="none" stroke="midnightblue" d="M3129.25,-108.97C2612.6,-108.58 443.73,-103.87 145.5,-53 137.31,-51.6 128.8,-49.5 120.57,-47.08"/>
<polygon fill="midnightblue" stroke="midnightblue" points="3129.31,-112.47 3139.31,-108.98 3129.32,-105.47 3129.31,-112.47"/>
</g>
<!-- Node3 -->
<g id="node3" class="node">
<title>Node3</title>
<g id="a_node3"><a xlink:href="tritonCallbacks_8cpp.html" target="_top" xlink:title=" ">
<polygon fill="white" stroke="black" points="155,-0.5 155,-52.5 298,-52.5 298,-0.5 155,-0.5"/>
<text text-anchor="start" x="163" y="-40.5" font-family="Helvetica,sans-Serif" font-size="10.00">/home/jonathan/Works</text>
<text text-anchor="start" x="163" y="-29.5" font-family="Helvetica,sans-Serif" font-size="10.00">/Tools/Triton/src/libtriton</text>
<text text-anchor="start" x="163" y="-18.5" font-family="Helvetica,sans-Serif" font-size="10.00">/bindings/python/modules</text>
<text text-anchor="middle" x="226.5" y="-7.5" font-family="Helvetica,sans-Serif" font-size="10.00">/tritonCallbacks.cpp</text>
</a>
</g>
</g>
<!-- Node1&#45;&gt;Node3 -->
<g id="edge2" class="edge">
<title>Node1&#45;&gt;Node3</title>
<path fill="none" stroke="midnightblue" d="M3129.34,-108.76C2629.8,-107.4 589.37,-99.08 307.5,-53 304.44,-52.5 301.35,-51.91 298.23,-51.25"/>
<polygon fill="midnightblue" stroke="midnightblue" points="3129.43,-112.26 3139.44,-108.78 3129.45,-105.26 3129.43,-112.26"/>
</g>
<!-- Node4 -->
<g id="node4" class="node">
<title>Node4</title>
<g id="a_node4"><a xlink:href="initArchNamespace_8cpp.html" target="_top" xlink:title=" ">
<polygon fill="white" stroke="black" points="316.5,-0.5 316.5,-52.5 478.5,-52.5 478.5,-0.5 316.5,-0.5"/>
<text text-anchor="start" x="324.5" y="-40.5" font-family="Helvetica,sans-Serif" font-size="10.00">/home/jonathan/Works</text>
<text text-anchor="start" x="324.5" y="-29.5" font-family="Helvetica,sans-Serif" font-size="10.00">/Tools/Triton/src/libtriton</text>
<text text-anchor="start" x="324.5" y="-18.5" font-family="Helvetica,sans-Serif" font-size="10.00">/bindings/python/namespaces</text>
<text text-anchor="middle" x="397.5" y="-7.5" font-family="Helvetica,sans-Serif" font-size="10.00">/initArchNamespace.cpp</text>
</a>
</g>
</g>
<!-- Node1&#45;&gt;Node4 -->
<g id="edge3" class="edge">
<title>Node1&#45;&gt;Node4</title>
<path fill="none" stroke="midnightblue" d="M3129.07,-108.42C2648.47,-105.67 751.33,-92.39 487.5,-53 484.61,-52.57 481.68,-52.07 478.73,-51.52"/>
<polygon fill="midnightblue" stroke="midnightblue" points="3129.11,-111.92 3139.13,-108.48 3129.15,-104.92 3129.11,-111.92"/>
</g>
<!-- Node5 -->
<g id="node5" class="node">
<title>Node5</title>
<g id="a_node5"><a xlink:href="initAstNodeNamespace_8cpp.html" target="_top" xlink:title=" ">
<polygon fill="white" stroke="black" points="496.5,-0.5 496.5,-52.5 658.5,-52.5 658.5,-0.5 496.5,-0.5"/>
<text text-anchor="start" x="504.5" y="-40.5" font-family="Helvetica,sans-Serif" font-size="10.00">/home/jonathan/Works</text>
<text text-anchor="start" x="504.5" y="-29.5" font-family="Helvetica,sans-Serif" font-size="10.00">/Tools/Triton/src/libtriton</text>
<text text-anchor="start" x="504.5" y="-18.5" font-family="Helvetica,sans-Serif" font-size="10.00">/bindings/python/namespaces</text>
<text text-anchor="middle" x="577.5" y="-7.5" font-family="Helvetica,sans-Serif" font-size="10.00">/initAstNodeNamespace.cpp</text>
</a>
</g>
</g>
<!-- Node1&#45;&gt;Node5 -->
<g id="edge4" class="edge">
<title>Node1&#45;&gt;Node5</title>
<path fill="none" stroke="midnightblue" d="M3129.16,-108.25C2668.67,-104.9 912.77,-89.8 667.5,-53 664.61,-52.57 661.68,-52.07 658.73,-51.51"/>
<polygon fill="midnightblue" stroke="midnightblue" points="3129.44,-111.75 3139.47,-108.33 3129.49,-104.75 3129.44,-111.75"/>
</g>
<!-- Node6 -->
<g id="node6" class="node">
<title>Node6</title>
<g id="a_node6"><a xlink:href="initAstRepresentationNamespace_8cpp.html" target="_top" xlink:title=" ">
<polygon fill="white" stroke="black" points="677,-0.5 677,-52.5 880,-52.5 880,-0.5 677,-0.5"/>
<text text-anchor="start" x="685" y="-40.5" font-family="Helvetica,sans-Serif" font-size="10.00">/home/jonathan/Works</text>
<text text-anchor="start" x="685" y="-29.5" font-family="Helvetica,sans-Serif" font-size="10.00">/Tools/Triton/src/libtriton</text>
<text text-anchor="start" x="685" y="-18.5" font-family="Helvetica,sans-Serif" font-size="10.00">/bindings/python/namespaces</text>
<text text-anchor="middle" x="778.5" y="-7.5" font-family="Helvetica,sans-Serif" font-size="10.00">/initAstRepresentationNamespace.cpp</text>
</a>
</g>
</g>
<!-- Node1&#45;&gt;Node6 -->
<g id="edge5" class="edge">
<title>Node1&#45;&gt;Node6</title>
<path fill="none" stroke="midnightblue" d="M3129.03,-109.32C2725.4,-110.05 1330.99,-108.39 889.5,-53 886.46,-52.62 883.38,-52.19 880.28,-51.72"/>
<polygon fill="midnightblue" stroke="midnightblue" points="3129.25,-112.82 3139.25,-109.31 3129.24,-105.82 3129.25,-112.82"/>
</g>
<!-- Node7 -->
<g id="node7" class="node">
<title>Node7</title>
<g id="a_node7"><a xlink:href="initCallbackNamespace_8cpp.html" target="_top" xlink:title=" ">
<polygon fill="white" stroke="black" points="898.5,-0.5 898.5,-52.5 1060.5,-52.5 1060.5,-0.5 898.5,-0.5"/>
<text text-anchor="start" x="906.5" y="-40.5" font-family="Helvetica,sans-Serif" font-size="10.00">/home/jonathan/Works</text>
<text text-anchor="start" x="906.5" y="-29.5" font-family="Helvetica,sans-Serif" font-size="10.00">/Tools/Triton/src/libtriton</text>
<text text-anchor="start" x="906.5" y="-18.5" font-family="Helvetica,sans-Serif" font-size="10.00">/bindings/python/namespaces</text>
<text text-anchor="middle" x="979.5" y="-7.5" font-family="Helvetica,sans-Serif" font-size="10.00">/initCallbackNamespace.cpp</text>
</a>
</g>
</g>
<!-- Node1&#45;&gt;Node7 -->
<g id="edge6" class="edge">
<title>Node1&#45;&gt;Node7</title>
<path fill="none" stroke="midnightblue" d="M3129.28,-107.77C2716.26,-102.95 1273.47,-84.02 1069.5,-53 1066.61,-52.56 1063.68,-52.06 1060.73,-51.5"/>
<polygon fill="midnightblue" stroke="midnightblue" points="3129.4,-111.27 3139.44,-107.89 3129.48,-104.27 3129.4,-111.27"/>
</g>
<!-- Node8 -->
<g id="node8" class="node">
<title>Node8</title>
<g id="a_node8"><a xlink:href="initConditionsNamespace_8cpp.html" target="_top" xlink:title=" ">
<polygon fill="white" stroke="black" points="1079,-0.5 1079,-52.5 1244,-52.5 1244,-0.5 1079,-0.5"/>
<text text-anchor="start" x="1087" y="-40.5" font-family="Helvetica,sans-Serif" font-size="10.00">/home/jonathan/Works</text>
<text text-anchor="start" x="1087" y="-29.5" font-family="Helvetica,sans-Serif" font-size="10.00">/Tools/Triton/src/libtriton</text>
<text text-anchor="start" x="1087" y="-18.5" font-family="Helvetica,sans-Serif" font-size="10.00">/bindings/python/namespaces</text>
<text text-anchor="middle" x="1161.5" y="-7.5" font-family="Helvetica,sans-Serif" font-size="10.00">/initConditionsNamespace.cpp</text>
</a>
</g>
</g>
<!-- Node1&#45;&gt;Node8 -->
<g id="edge7" class="edge">
<title>Node1&#45;&gt;Node8</title>
<path fill="none" stroke="midnightblue" d="M3129.01,-109.4C2767.07,-110.16 1619.43,-108.04 1253.5,-53 1250.39,-52.53 1247.23,-51.99 1244.05,-51.4"/>
<polygon fill="midnightblue" stroke="midnightblue" points="3129.23,-112.9 3139.22,-109.38 3129.22,-105.9 3129.23,-112.9"/>
</g>
<!-- Node9 -->
<g id="node9" class="node">
<title>Node9</title>
<g id="a_node9"><a xlink:href="initCpuSizeNamespace_8cpp.html" target="_top" xlink:title=" ">
<polygon fill="white" stroke="black" points="1262.5,-0.5 1262.5,-52.5 1424.5,-52.5 1424.5,-0.5 1262.5,-0.5"/>
<text text-anchor="start" x="1270.5" y="-40.5" font-family="Helvetica,sans-Serif" font-size="10.00">/home/jonathan/Works</text>
<text text-anchor="start" x="1270.5" y="-29.5" font-family="Helvetica,sans-Serif" font-size="10.00">/Tools/Triton/src/libtriton</text>
<text text-anchor="start" x="1270.5" y="-18.5" font-family="Helvetica,sans-Serif" font-size="10.00">/bindings/python/namespaces</text>
<text text-anchor="middle" x="1343.5" y="-7.5" font-family="Helvetica,sans-Serif" font-size="10.00">/initCpuSizeNamespace.cpp</text>
</a>
</g>
</g>
<!-- Node1&#45;&gt;Node9 -->
<g id="edge8" class="edge">
<title>Node1&#45;&gt;Node9</title>
<path fill="none" stroke="midnightblue" d="M3129.2,-109.11C2789.6,-108.91 1762.84,-103.97 1433.5,-53 1430.61,-52.55 1427.68,-52.04 1424.74,-51.48"/>
<polygon fill="midnightblue" stroke="midnightblue" points="3129.29,-112.61 3139.29,-109.12 3129.29,-105.61 3129.29,-112.61"/>
</g>
<!-- Node10 -->
<g id="node10" class="node">
<title>Node10</title>
<g id="a_node10"><a xlink:href="initExceptionNamespace_8cpp.html" target="_top" xlink:title=" ">
<polygon fill="white" stroke="black" points="1442.5,-0.5 1442.5,-52.5 1604.5,-52.5 1604.5,-0.5 1442.5,-0.5"/>
<text text-anchor="start" x="1450.5" y="-40.5" font-family="Helvetica,sans-Serif" font-size="10.00">/home/jonathan/Works</text>
<text text-anchor="start" x="1450.5" y="-29.5" font-family="Helvetica,sans-Serif" font-size="10.00">/Tools/Triton/src/libtriton</text>
<text text-anchor="start" x="1450.5" y="-18.5" font-family="Helvetica,sans-Serif" font-size="10.00">/bindings/python/namespaces</text>
<text text-anchor="middle" x="1523.5" y="-7.5" font-family="Helvetica,sans-Serif" font-size="10.00">/initExceptionNamespace.cpp</text>
</a>
</g>
</g>
<!-- Node1&#45;&gt;Node10 -->
<g id="edge9" class="edge">
<title>Node1&#45;&gt;Node10</title>
<path fill="none" stroke="midnightblue" d="M3129.39,-108.67C2813.23,-107.17 1906.56,-98.87 1613.5,-53 1610.61,-52.55 1607.69,-52.03 1604.74,-51.47"/>
<polygon fill="midnightblue" stroke="midnightblue" points="3129.47,-112.17 3139.48,-108.72 3129.5,-105.17 3129.47,-112.17"/>
</g>
<!-- Node11 -->
<g id="node11" class="node">
<title>Node11</title>
<g id="a_node11"><a xlink:href="initExtendNamespace_8cpp.html" target="_top" xlink:title=" ">
<polygon fill="white" stroke="black" points="1622.5,-0.5 1622.5,-52.5 1784.5,-52.5 1784.5,-0.5 1622.5,-0.5"/>
<text text-anchor="start" x="1630.5" y="-40.5" font-family="Helvetica,sans-Serif" font-size="10.00">/home/jonathan/Works</text>
<text text-anchor="start" x="1630.5" y="-29.5" font-family="Helvetica,sans-Serif" font-size="10.00">/Tools/Triton/src/libtriton</text>
<text text-anchor="start" x="1630.5" y="-18.5" font-family="Helvetica,sans-Serif" font-size="10.00">/bindings/python/namespaces</text>
<text text-anchor="middle" x="1703.5" y="-7.5" font-family="Helvetica,sans-Serif" font-size="10.00">/initExtendNamespace.cpp</text>
</a>
</g>
</g>
<!-- Node1&#45;&gt;Node11 -->
<g id="edge10" class="edge">
<title>Node1&#45;&gt;Node11</title>
<path fill="none" stroke="midnightblue" d="M3129.27,-108.11C2837.58,-105.22 2050.36,-93.77 1793.5,-53 1790.61,-52.54 1787.69,-52.02 1784.74,-51.45"/>
<polygon fill="midnightblue" stroke="midnightblue" points="3129.4,-111.61 3139.43,-108.21 3129.47,-104.61 3129.4,-111.61"/>
</g>
<!-- Node12 -->
<g id="node12" class="node">
<title>Node12</title>
<g id="a_node12"><a xlink:href="initModeNamespace_8cpp.html" target="_top" xlink:title=" ">
<polygon fill="white" stroke="black" points="1802.5,-0.5 1802.5,-52.5 1964.5,-52.5 1964.5,-0.5 1802.5,-0.5"/>
<text text-anchor="start" x="1810.5" y="-40.5" font-family="Helvetica,sans-Serif" font-size="10.00">/home/jonathan/Works</text>
<text text-anchor="start" x="1810.5" y="-29.5" font-family="Helvetica,sans-Serif" font-size="10.00">/Tools/Triton/src/libtriton</text>
<text text-anchor="start" x="1810.5" y="-18.5" font-family="Helvetica,sans-Serif" font-size="10.00">/bindings/python/namespaces</text>
<text text-anchor="middle" x="1883.5" y="-7.5" font-family="Helvetica,sans-Serif" font-size="10.00">/initModeNamespace.cpp</text>
</a>
</g>
</g>
<!-- Node1&#45;&gt;Node12 -->
<g id="edge11" class="edge">
<title>Node1&#45;&gt;Node12</title>
<path fill="none" stroke="midnightblue" d="M3129.04,-107.4C2863.37,-103.01 2194.37,-88.68 1973.5,-53 1970.61,-52.53 1967.69,-52.01 1964.74,-51.43"/>
<polygon fill="midnightblue" stroke="midnightblue" points="3129.03,-110.9 3139.08,-107.56 3129.14,-103.9 3129.03,-110.9"/>
</g>
<!-- Node13 -->
<g id="node13" class="node">
<title>Node13</title>
<g id="a_node13"><a xlink:href="initOpcodesNamespace_8cpp.html" target="_top" xlink:title=" ">
<polygon fill="white" stroke="black" points="1982.5,-0.5 1982.5,-52.5 2144.5,-52.5 2144.5,-0.5 1982.5,-0.5"/>
<text text-anchor="start" x="1990.5" y="-40.5" font-family="Helvetica,sans-Serif" font-size="10.00">/home/jonathan/Works</text>
<text text-anchor="start" x="1990.5" y="-29.5" font-family="Helvetica,sans-Serif" font-size="10.00">/Tools/Triton/src/libtriton</text>
<text text-anchor="start" x="1990.5" y="-18.5" font-family="Helvetica,sans-Serif" font-size="10.00">/bindings/python/namespaces</text>
<text text-anchor="middle" x="2063.5" y="-7.5" font-family="Helvetica,sans-Serif" font-size="10.00">/initOpcodesNamespace.cpp</text>
</a>
</g>
</g>
<!-- Node1&#45;&gt;Node13 -->
<g id="edge12" class="edge">
<title>Node1&#45;&gt;Node13</title>
<path fill="none" stroke="midnightblue" d="M3129.14,-106.45C2891.67,-100.46 2338.73,-83.62 2153.5,-53 2150.62,-52.52 2147.69,-51.99 2144.75,-51.4"/>
<polygon fill="midnightblue" stroke="midnightblue" points="3129.09,-109.95 3139.17,-106.71 3129.27,-102.96 3129.09,-109.95"/>
</g>
<!-- Node14 -->
<g id="node14" class="node">
<title>Node14</title>
<g id="a_node14"><a xlink:href="initOperandNamespace_8cpp.html" target="_top" xlink:title=" ">
<polygon fill="white" stroke="black" points="2162.5,-0.5 2162.5,-52.5 2324.5,-52.5 2324.5,-0.5 2162.5,-0.5"/>
<text text-anchor="start" x="2170.5" y="-40.5" font-family="Helvetica,sans-Serif" font-size="10.00">/home/jonathan/Works</text>
<text text-anchor="start" x="2170.5" y="-29.5" font-family="Helvetica,sans-Serif" font-size="10.00">/Tools/Triton/src/libtriton</text>
<text text-anchor="start" x="2170.5" y="-18.5" font-family="Helvetica,sans-Serif" font-size="10.00">/bindings/python/namespaces</text>
<text text-anchor="middle" x="2243.5" y="-7.5" font-family="Helvetica,sans-Serif" font-size="10.00">/initOperandNamespace.cpp</text>
</a>
</g>
</g>
<!-- Node1&#45;&gt;Node14 -->
<g id="edge13" class="edge">
<title>Node1&#45;&gt;Node14</title>
<path fill="none" stroke="midnightblue" d="M3129.45,-109.76C2958.07,-109.25 2617.57,-101.44 2333.5,-53 2330.62,-52.51 2327.7,-51.96 2324.76,-51.37"/>
<polygon fill="midnightblue" stroke="midnightblue" points="3129.48,-113.26 3139.49,-109.78 3129.5,-106.26 3129.48,-113.26"/>
</g>
<!-- Node15 -->
<g id="node15" class="node">
<title>Node15</title>
<g id="a_node15"><a xlink:href="initPrefixesNamespace_8cpp.html" target="_top" xlink:title=" ">
<polygon fill="white" stroke="black" points="2342.5,-0.5 2342.5,-52.5 2504.5,-52.5 2504.5,-0.5 2342.5,-0.5"/>
<text text-anchor="start" x="2350.5" y="-40.5" font-family="Helvetica,sans-Serif" font-size="10.00">/home/jonathan/Works</text>
<text text-anchor="start" x="2350.5" y="-29.5" font-family="Helvetica,sans-Serif" font-size="10.00">/Tools/Triton/src/libtriton</text>
<text text-anchor="start" x="2350.5" y="-18.5" font-family="Helvetica,sans-Serif" font-size="10.00">/bindings/python/namespaces</text>
<text text-anchor="middle" x="2423.5" y="-7.5" font-family="Helvetica,sans-Serif" font-size="10.00">/initPrefixesNamespace.cpp</text>
</a>
</g>
</g>
<!-- Node1&#45;&gt;Node15 -->
<g id="edge14" class="edge">
<title>Node1&#45;&gt;Node15</title>
<path fill="none" stroke="midnightblue" d="M3129.38,-107.31C2986.39,-103.56 2729.53,-91.54 2513.5,-53 2510.62,-52.49 2507.7,-51.92 2504.77,-51.31"/>
<polygon fill="midnightblue" stroke="midnightblue" points="3129.39,-110.81 3139.48,-107.56 3129.57,-103.81 3129.39,-110.81"/>
</g>
<!-- Node16 -->
<g id="node16" class="node">
<title>Node16</title>
<g id="a_node16"><a xlink:href="initRegNamespace_8cpp.html" target="_top" xlink:title=" ">
<polygon fill="white" stroke="black" points="2522.5,-0.5 2522.5,-52.5 2684.5,-52.5 2684.5,-0.5 2522.5,-0.5"/>
<text text-anchor="start" x="2530.5" y="-40.5" font-family="Helvetica,sans-Serif" font-size="10.00">/home/jonathan/Works</text>
<text text-anchor="start" x="2530.5" y="-29.5" font-family="Helvetica,sans-Serif" font-size="10.00">/Tools/Triton/src/libtriton</text>
<text text-anchor="start" x="2530.5" y="-18.5" font-family="Helvetica,sans-Serif" font-size="10.00">/bindings/python/namespaces</text>
<text text-anchor="middle" x="2603.5" y="-7.5" font-family="Helvetica,sans-Serif" font-size="10.00">/initRegNamespace.cpp</text>
</a>
</g>
</g>
<!-- Node1&#45;&gt;Node16 -->
<g id="edge15" class="edge">
<title>Node1&#45;&gt;Node16</title>
<path fill="none" stroke="midnightblue" d="M3129.17,-103.33C3018.3,-96.31 2842.91,-81.6 2693.5,-53 2690.63,-52.45 2687.72,-51.85 2684.78,-51.21"/>
<polygon fill="midnightblue" stroke="midnightblue" points="3129.16,-106.83 3139.36,-103.96 3129.6,-99.85 3129.16,-106.83"/>
</g>
<!-- Node17 -->
<g id="node17" class="node">
<title>Node17</title>
<g id="a_node17"><a xlink:href="initShiftsNamespace_8cpp.html" target="_top" xlink:title=" ">
<polygon fill="white" stroke="black" points="2702.5,-0.5 2702.5,-52.5 2864.5,-52.5 2864.5,-0.5 2702.5,-0.5"/>
<text text-anchor="start" x="2710.5" y="-40.5" font-family="Helvetica,sans-Serif" font-size="10.00">/home/jonathan/Works</text>
<text text-anchor="start" x="2710.5" y="-29.5" font-family="Helvetica,sans-Serif" font-size="10.00">/Tools/Triton/src/libtriton</text>
<text text-anchor="start" x="2710.5" y="-18.5" font-family="Helvetica,sans-Serif" font-size="10.00">/bindings/python/namespaces</text>
<text text-anchor="middle" x="2783.5" y="-7.5" font-family="Helvetica,sans-Serif" font-size="10.00">/initShiftsNamespace.cpp</text>
</a>
</g>
</g>
<!-- Node1&#45;&gt;Node17 -->
<g id="edge16" class="edge">
<title>Node1&#45;&gt;Node17</title>
<path fill="none" stroke="midnightblue" d="M3129.34,-95.78C3056.34,-86.13 2958.69,-71.51 2873.5,-53 2870.64,-52.38 2867.74,-51.72 2864.82,-51.03"/>
<polygon fill="midnightblue" stroke="midnightblue" points="3129.1,-99.28 3139.47,-97.11 3130.01,-92.34 3129.1,-99.28"/>
</g>
<!-- Node18 -->
<g id="node18" class="node">
<title>Node18</title>
<g id="a_node18"><a xlink:href="initSolverNamespace_8cpp.html" target="_top" xlink:title=" ">
<polygon fill="white" stroke="black" points="2882.5,-0.5 2882.5,-52.5 3044.5,-52.5 3044.5,-0.5 2882.5,-0.5"/>
<text text-anchor="start" x="2890.5" y="-40.5" font-family="Helvetica,sans-Serif" font-size="10.00">/home/jonathan/Works</text>
<text text-anchor="start" x="2890.5" y="-29.5" font-family="Helvetica,sans-Serif" font-size="10.00">/Tools/Triton/src/libtriton</text>
<text text-anchor="start" x="2890.5" y="-18.5" font-family="Helvetica,sans-Serif" font-size="10.00">/bindings/python/namespaces</text>
<text text-anchor="middle" x="2963.5" y="-7.5" font-family="Helvetica,sans-Serif" font-size="10.00">/initSolverNamespace.cpp</text>
</a>
</g>
</g>
<!-- Node1&#45;&gt;Node18 -->
<g id="edge17" class="edge">
<title>Node1&#45;&gt;Node18</title>
<path fill="none" stroke="midnightblue" d="M3163.67,-86.61C3126.71,-75.7 3082.23,-62.56 3044.59,-51.45"/>
<polygon fill="midnightblue" stroke="midnightblue" points="3162.81,-90 3173.39,-89.48 3164.79,-83.29 3162.81,-90"/>
</g>
<!-- Node19 -->
<g id="node19" class="node">
<title>Node19</title>
<g id="a_node19"><a xlink:href="initSolverStateNamespace_8cpp.html" target="_top" xlink:title=" ">
<polygon fill="white" stroke="black" points="3062.5,-0.5 3062.5,-52.5 3232.5,-52.5 3232.5,-0.5 3062.5,-0.5"/>
<text text-anchor="start" x="3070.5" y="-40.5" font-family="Helvetica,sans-Serif" font-size="10.00">/home/jonathan/Works</text>
<text text-anchor="start" x="3070.5" y="-29.5" font-family="Helvetica,sans-Serif" font-size="10.00">/Tools/Triton/src/libtriton</text>
<text text-anchor="start" x="3070.5" y="-18.5" font-family="Helvetica,sans-Serif" font-size="10.00">/bindings/python/namespaces</text>
<text text-anchor="middle" x="3147.5" y="-7.5" font-family="Helvetica,sans-Serif" font-size="10.00">/initSolverStateNamespace.cpp</text>
</a>
</g>
</g>
<!-- Node1&#45;&gt;Node19 -->
<g id="edge18" class="edge">
<title>Node1&#45;&gt;Node19</title>
<path fill="none" stroke="midnightblue" d="M3209.61,-82.52C3198.77,-72.92 3186.55,-62.09 3175.84,-52.61"/>
<polygon fill="midnightblue" stroke="midnightblue" points="3207.42,-85.26 3217.23,-89.27 3212.06,-80.02 3207.42,-85.26"/>
</g>
<!-- Node20 -->
<g id="node20" class="node">
<title>Node20</title>
<g id="a_node20"><a xlink:href="initStubsNamespace_8cpp.html" target="_top" xlink:title=" ">
<polygon fill="white" stroke="black" points="3250.5,-0.5 3250.5,-52.5 3412.5,-52.5 3412.5,-0.5 3250.5,-0.5"/>
<text text-anchor="start" x="3258.5" y="-40.5" font-family="Helvetica,sans-Serif" font-size="10.00">/home/jonathan/Works</text>
<text text-anchor="start" x="3258.5" y="-29.5" font-family="Helvetica,sans-Serif" font-size="10.00">/Tools/Triton/src/libtriton</text>
<text text-anchor="start" x="3258.5" y="-18.5" font-family="Helvetica,sans-Serif" font-size="10.00">/bindings/python/namespaces</text>
<text text-anchor="middle" x="3331.5" y="-7.5" font-family="Helvetica,sans-Serif" font-size="10.00">/initStubsNamespace.cpp</text>
</a>
</g>
</g>
<!-- Node1&#45;&gt;Node20 -->
<g id="edge19" class="edge">
<title>Node1&#45;&gt;Node20</title>
<path fill="none" stroke="midnightblue" d="M3269.39,-82.52C3280.23,-72.92 3292.45,-62.09 3303.16,-52.61"/>
<polygon fill="midnightblue" stroke="midnightblue" points="3266.94,-80.02 3261.77,-89.27 3271.58,-85.26 3266.94,-80.02"/>
</g>
<!-- Node21 -->
<g id="node21" class="node">
<title>Node21</title>
<g id="a_node21"><a xlink:href="initSymbolicNamespace_8cpp.html" target="_top" xlink:title=" ">
<polygon fill="white" stroke="black" points="3430.5,-0.5 3430.5,-52.5 3592.5,-52.5 3592.5,-0.5 3430.5,-0.5"/>
<text text-anchor="start" x="3438.5" y="-40.5" font-family="Helvetica,sans-Serif" font-size="10.00">/home/jonathan/Works</text>
<text text-anchor="start" x="3438.5" y="-29.5" font-family="Helvetica,sans-Serif" font-size="10.00">/Tools/Triton/src/libtriton</text>
<text text-anchor="start" x="3438.5" y="-18.5" font-family="Helvetica,sans-Serif" font-size="10.00">/bindings/python/namespaces</text>
<text text-anchor="middle" x="3511.5" y="-7.5" font-family="Helvetica,sans-Serif" font-size="10.00">/initSymbolicNamespace.cpp</text>
</a>
</g>
</g>
<!-- Node1&#45;&gt;Node21 -->
<g id="edge20" class="edge">
<title>Node1&#45;&gt;Node21</title>
<path fill="none" stroke="midnightblue" d="M3314.59,-86.5C3350.53,-75.73 3393.63,-62.82 3430.33,-51.82"/>
<polygon fill="midnightblue" stroke="midnightblue" points="3313.23,-83.26 3304.65,-89.48 3315.23,-89.96 3313.23,-83.26"/>
</g>
<!-- Node22 -->
<g id="node22" class="node">
<title>Node22</title>
<g id="a_node22"><a xlink:href="initVASNamespace_8cpp.html" target="_top" xlink:title=" ">
<polygon fill="white" stroke="black" points="3610.5,-0.5 3610.5,-52.5 3772.5,-52.5 3772.5,-0.5 3610.5,-0.5"/>
<text text-anchor="start" x="3618.5" y="-40.5" font-family="Helvetica,sans-Serif" font-size="10.00">/home/jonathan/Works</text>
<text text-anchor="start" x="3618.5" y="-29.5" font-family="Helvetica,sans-Serif" font-size="10.00">/Tools/Triton/src/libtriton</text>
<text text-anchor="start" x="3618.5" y="-18.5" font-family="Helvetica,sans-Serif" font-size="10.00">/bindings/python/namespaces</text>
<text text-anchor="middle" x="3691.5" y="-7.5" font-family="Helvetica,sans-Serif" font-size="10.00">/initVASNamespace.cpp</text>
</a>
</g>
</g>
<!-- Node1&#45;&gt;Node22 -->
<g id="edge21" class="edge">
<title>Node1&#45;&gt;Node22</title>
<path fill="none" stroke="midnightblue" d="M3349.6,-95.54C3421.67,-85.85 3517.68,-71.29 3601.5,-53 3604.36,-52.38 3607.26,-51.72 3610.18,-51.02"/>
<polygon fill="midnightblue" stroke="midnightblue" points="3349.04,-92.08 3339.6,-96.87 3349.97,-99.02 3349.04,-92.08"/>
</g>
<!-- Node23 -->
<g id="node23" class="node">
<title>Node23</title>
<g id="a_node23"><a xlink:href="initVersionNamespace_8cpp.html" target="_top" xlink:title=" ">
<polygon fill="white" stroke="black" points="3790.5,-0.5 3790.5,-52.5 3952.5,-52.5 3952.5,-0.5 3790.5,-0.5"/>
<text text-anchor="start" x="3798.5" y="-40.5" font-family="Helvetica,sans-Serif" font-size="10.00">/home/jonathan/Works</text>
<text text-anchor="start" x="3798.5" y="-29.5" font-family="Helvetica,sans-Serif" font-size="10.00">/Tools/Triton/src/libtriton</text>
<text text-anchor="start" x="3798.5" y="-18.5" font-family="Helvetica,sans-Serif" font-size="10.00">/bindings/python/namespaces</text>
<text text-anchor="middle" x="3871.5" y="-7.5" font-family="Helvetica,sans-Serif" font-size="10.00">/initVersionNamespace.cpp</text>
</a>
</g>
</g>
<!-- Node1&#45;&gt;Node23 -->
<g id="edge22" class="edge">
<title>Node1&#45;&gt;Node23</title>
<path fill="none" stroke="midnightblue" d="M3349.78,-103.21C3459.87,-96.13 3633.52,-81.39 3781.5,-53 3784.37,-52.45 3787.28,-51.85 3790.22,-51.21"/>
<polygon fill="midnightblue" stroke="midnightblue" points="3349.41,-99.73 3339.65,-103.86 3349.85,-106.72 3349.41,-99.73"/>
</g>
<!-- Node24 -->
<g id="node24" class="node">
<title>Node24</title>
<g id="a_node24"><a xlink:href="pyAstContext_8cpp.html" target="_top" xlink:title=" ">
<polygon fill="white" stroke="black" points="3970.5,-0.5 3970.5,-52.5 4106.5,-52.5 4106.5,-0.5 3970.5,-0.5"/>
<text text-anchor="start" x="3978.5" y="-40.5" font-family="Helvetica,sans-Serif" font-size="10.00">/home/jonathan/Works</text>
<text text-anchor="start" x="3978.5" y="-29.5" font-family="Helvetica,sans-Serif" font-size="10.00">/Tools/Triton/src/libtriton</text>
<text text-anchor="start" x="3978.5" y="-18.5" font-family="Helvetica,sans-Serif" font-size="10.00">/bindings/python/objects</text>
<text text-anchor="middle" x="4038.5" y="-7.5" font-family="Helvetica,sans-Serif" font-size="10.00">/pyAstContext.cpp</text>
</a>
</g>
</g>
<!-- Node1&#45;&gt;Node24 -->
<g id="edge23" class="edge">
<title>Node1&#45;&gt;Node24</title>
<path fill="none" stroke="midnightblue" d="M3349.59,-108.71C3492.15,-106.46 3747.7,-96.03 3961.5,-53 3964.4,-52.42 3967.34,-51.76 3970.3,-51.04"/>
<polygon fill="midnightblue" stroke="midnightblue" points="3349.47,-105.21 3339.52,-108.86 3349.57,-112.21 3349.47,-105.21"/>
</g>
<!-- Node25 -->
<g id="node25" class="node">
<title>Node25</title>
<g id="a_node25"><a xlink:href="pyAstNode_8cpp.html" target="_top" xlink:title=" ">
<polygon fill="white" stroke="black" points="4124.5,-0.5 4124.5,-52.5 4260.5,-52.5 4260.5,-0.5 4124.5,-0.5"/>
<text text-anchor="start" x="4132.5" y="-40.5" font-family="Helvetica,sans-Serif" font-size="10.00">/home/jonathan/Works</text>
<text text-anchor="start" x="4132.5" y="-29.5" font-family="Helvetica,sans-Serif" font-size="10.00">/Tools/Triton/src/libtriton</text>
<text text-anchor="start" x="4132.5" y="-18.5" font-family="Helvetica,sans-Serif" font-size="10.00">/bindings/python/objects</text>
<text text-anchor="middle" x="4192.5" y="-7.5" font-family="Helvetica,sans-Serif" font-size="10.00">/pyAstNode.cpp</text>
</a>
</g>
</g>
<!-- Node1&#45;&gt;Node25 -->
<g id="edge24" class="edge">
<title>Node1&#45;&gt;Node25</title>
<path fill="none" stroke="midnightblue" d="M3349.81,-105.47C3551.44,-98.42 3971.97,-80.87 4115.5,-53 4118.4,-52.44 4121.35,-51.79 4124.31,-51.09"/>
<polygon fill="midnightblue" stroke="midnightblue" points="3349.66,-101.97 3339.79,-105.81 3349.9,-108.97 3349.66,-101.97"/>
</g>
<!-- Node26 -->
<g id="node26" class="node">
<title>Node26</title>
<g id="a_node26"><a xlink:href="pyBasicBlock_8cpp.html" target="_top" xlink:title=" ">
<polygon fill="white" stroke="black" points="4278.5,-0.5 4278.5,-52.5 4414.5,-52.5 4414.5,-0.5 4278.5,-0.5"/>
<text text-anchor="start" x="4286.5" y="-40.5" font-family="Helvetica,sans-Serif" font-size="10.00">/home/jonathan/Works</text>
<text text-anchor="start" x="4286.5" y="-29.5" font-family="Helvetica,sans-Serif" font-size="10.00">/Tools/Triton/src/libtriton</text>
<text text-anchor="start" x="4286.5" y="-18.5" font-family="Helvetica,sans-Serif" font-size="10.00">/bindings/python/objects</text>
<text text-anchor="middle" x="4346.5" y="-7.5" font-family="Helvetica,sans-Serif" font-size="10.00">/pyBasicBlock.cpp</text>
</a>
</g>
</g>
<!-- Node1&#45;&gt;Node26 -->
<g id="edge25" class="edge">
<title>Node1&#45;&gt;Node26</title>
<path fill="none" stroke="midnightblue" d="M3350.03,-106.69C3578.52,-101.32 4095.99,-85.84 4269.5,-53 4272.41,-52.45 4275.35,-51.82 4278.31,-51.12"/>
<polygon fill="midnightblue" stroke="midnightblue" points="3349.62,-103.2 3339.7,-106.93 3349.78,-110.2 3349.62,-103.2"/>
</g>
<!-- Node27 -->
<g id="node27" class="node">
<title>Node27</title>
<g id="a_node27"><a xlink:href="pyBitsVector_8cpp.html" target="_top" xlink:title=" ">
<polygon fill="white" stroke="black" points="4432.5,-0.5 4432.5,-52.5 4568.5,-52.5 4568.5,-0.5 4432.5,-0.5"/>
<text text-anchor="start" x="4440.5" y="-40.5" font-family="Helvetica,sans-Serif" font-size="10.00">/home/jonathan/Works</text>
<text text-anchor="start" x="4440.5" y="-29.5" font-family="Helvetica,sans-Serif" font-size="10.00">/Tools/Triton/src/libtriton</text>
<text text-anchor="start" x="4440.5" y="-18.5" font-family="Helvetica,sans-Serif" font-size="10.00">/bindings/python/objects</text>
<text text-anchor="middle" x="4500.5" y="-7.5" font-family="Helvetica,sans-Serif" font-size="10.00">/pyBitsVector.cpp</text>
</a>
</g>
</g>
<!-- Node1&#45;&gt;Node27 -->
<g id="edge26" class="edge">
<title>Node1&#45;&gt;Node27</title>
<path fill="none" stroke="midnightblue" d="M3350.08,-107.61C3603.43,-103.8 4219.7,-90.83 4423.5,-53 4426.41,-52.46 4429.36,-51.84 4432.32,-51.15"/>
<polygon fill="midnightblue" stroke="midnightblue" points="3349.7,-104.11 3339.76,-107.76 3349.81,-111.11 3349.7,-104.11"/>
</g>
<!-- Node28 -->
<g id="node28" class="node">
<title>Node28</title>
<g id="a_node28"><a xlink:href="pyImmediate_8cpp.html" target="_top" xlink:title=" ">
<polygon fill="white" stroke="black" points="4586.5,-0.5 4586.5,-52.5 4722.5,-52.5 4722.5,-0.5 4586.5,-0.5"/>
<text text-anchor="start" x="4594.5" y="-40.5" font-family="Helvetica,sans-Serif" font-size="10.00">/home/jonathan/Works</text>
<text text-anchor="start" x="4594.5" y="-29.5" font-family="Helvetica,sans-Serif" font-size="10.00">/Tools/Triton/src/libtriton</text>
<text text-anchor="start" x="4594.5" y="-18.5" font-family="Helvetica,sans-Serif" font-size="10.00">/bindings/python/objects</text>
<text text-anchor="middle" x="4654.5" y="-7.5" font-family="Helvetica,sans-Serif" font-size="10.00">/pyImmediate.cpp</text>
</a>
</g>
</g>
<!-- Node1&#45;&gt;Node28 -->
<g id="edge27" class="edge">
<title>Node1&#45;&gt;Node28</title>
<path fill="none" stroke="midnightblue" d="M3349.87,-108.32C3626.33,-105.98 4343.12,-95.85 4577.5,-53 4580.41,-52.47 4583.36,-51.85 4586.32,-51.17"/>
<polygon fill="midnightblue" stroke="midnightblue" points="3349.8,-104.82 3339.83,-108.4 3349.85,-111.82 3349.8,-104.82"/>
</g>
<!-- Node29 -->
<g id="node29" class="node">
<title>Node29</title>
<g id="a_node29"><a xlink:href="pyInstruction_8cpp.html" target="_top" xlink:title=" ">
<polygon fill="white" stroke="black" points="4740.5,-0.5 4740.5,-52.5 4876.5,-52.5 4876.5,-0.5 4740.5,-0.5"/>
<text text-anchor="start" x="4748.5" y="-40.5" font-family="Helvetica,sans-Serif" font-size="10.00">/home/jonathan/Works</text>
<text text-anchor="start" x="4748.5" y="-29.5" font-family="Helvetica,sans-Serif" font-size="10.00">/Tools/Triton/src/libtriton</text>
<text text-anchor="start" x="4748.5" y="-18.5" font-family="Helvetica,sans-Serif" font-size="10.00">/bindings/python/objects</text>
<text text-anchor="middle" x="4808.5" y="-7.5" font-family="Helvetica,sans-Serif" font-size="10.00">/pyInstruction.cpp</text>
</a>
</g>
</g>
<!-- Node1&#45;&gt;Node29 -->
<g id="edge28" class="edge">
<title>Node1&#45;&gt;Node29</title>
<path fill="none" stroke="midnightblue" d="M3350.13,-108.88C3648.75,-107.92 4466.49,-100.86 4731.5,-53 4734.41,-52.47 4737.36,-51.86 4740.33,-51.18"/>
<polygon fill="midnightblue" stroke="midnightblue" points="3349.72,-105.38 3339.73,-108.91 3349.74,-112.38 3349.72,-105.38"/>
</g>
<!-- Node30 -->
<g id="node30" class="node">
<title>Node30</title>
<g id="a_node30"><a xlink:href="pyMemoryAccess_8cpp.html" target="_top" xlink:title=" ">
<polygon fill="white" stroke="black" points="4894.5,-0.5 4894.5,-52.5 5030.5,-52.5 5030.5,-0.5 4894.5,-0.5"/>
<text text-anchor="start" x="4902.5" y="-40.5" font-family="Helvetica,sans-Serif" font-size="10.00">/home/jonathan/Works</text>
<text text-anchor="start" x="4902.5" y="-29.5" font-family="Helvetica,sans-Serif" font-size="10.00">/Tools/Triton/src/libtriton</text>
<text text-anchor="start" x="4902.5" y="-18.5" font-family="Helvetica,sans-Serif" font-size="10.00">/bindings/python/objects</text>
<text text-anchor="middle" x="4962.5" y="-7.5" font-family="Helvetica,sans-Serif" font-size="10.00">/pyMemoryAccess.cpp</text>
</a>
</g>
</g>
<!-- Node1&#45;&gt;Node30 -->
<g id="edge29" class="edge">
<title>Node1&#45;&gt;Node30</title>
<path fill="none" stroke="midnightblue" d="M3349.94,-109.34C3669.23,-109.68 4589.57,-105.91 4885.5,-53 4888.41,-52.48 4891.36,-51.87 4894.33,-51.2"/>
<polygon fill="midnightblue" stroke="midnightblue" points="3349.75,-105.84 3339.75,-109.33 3349.74,-112.84 3349.75,-105.84"/>
</g>
<!-- Node31 -->
<g id="node31" class="node">
<title>Node31</title>
<g id="a_node31"><a xlink:href="pyPathConstraint_8cpp.html" target="_top" xlink:title=" ">
<polygon fill="white" stroke="black" points="5048.5,-0.5 5048.5,-52.5 5184.5,-52.5 5184.5,-0.5 5048.5,-0.5"/>
<text text-anchor="start" x="5056.5" y="-40.5" font-family="Helvetica,sans-Serif" font-size="10.00">/home/jonathan/Works</text>
<text text-anchor="start" x="5056.5" y="-29.5" font-family="Helvetica,sans-Serif" font-size="10.00">/Tools/Triton/src/libtriton</text>
<text text-anchor="start" x="5056.5" y="-18.5" font-family="Helvetica,sans-Serif" font-size="10.00">/bindings/python/objects</text>
<text text-anchor="middle" x="5116.5" y="-7.5" font-family="Helvetica,sans-Serif" font-size="10.00">/pyPathConstraint.cpp</text>
</a>
</g>
</g>
<!-- Node1&#45;&gt;Node31 -->
<g id="edge30" class="edge">
<title>Node1&#45;&gt;Node31</title>
<path fill="none" stroke="midnightblue" d="M3349.61,-107.42C3715.03,-101.93 4873.9,-82.36 5039.5,-53 5042.41,-52.48 5045.36,-51.88 5048.33,-51.21"/>
<polygon fill="midnightblue" stroke="midnightblue" points="3349.5,-103.92 3339.55,-107.57 3349.6,-110.92 3349.5,-103.92"/>
</g>
<!-- Node32 -->
<g id="node32" class="node">
<title>Node32</title>
<g id="a_node32"><a xlink:href="pyRegister_8cpp.html" target="_top" xlink:title=" ">
<polygon fill="white" stroke="black" points="5202.5,-0.5 5202.5,-52.5 5338.5,-52.5 5338.5,-0.5 5202.5,-0.5"/>
<text text-anchor="start" x="5210.5" y="-40.5" font-family="Helvetica,sans-Serif" font-size="10.00">/home/jonathan/Works</text>
<text text-anchor="start" x="5210.5" y="-29.5" font-family="Helvetica,sans-Serif" font-size="10.00">/Tools/Triton/src/libtriton</text>
<text text-anchor="start" x="5210.5" y="-18.5" font-family="Helvetica,sans-Serif" font-size="10.00">/bindings/python/objects</text>
<text text-anchor="middle" x="5270.5" y="-7.5" font-family="Helvetica,sans-Serif" font-size="10.00">/pyRegister.cpp</text>
</a>
</g>
</g>
<!-- Node1&#45;&gt;Node32 -->
<g id="edge31" class="edge">
<title>Node1&#45;&gt;Node32</title>
<path fill="none" stroke="midnightblue" d="M3349.7,-107.71C3735.57,-102.94 5012.27,-84.9 5193.5,-53 5196.41,-52.49 5199.37,-51.89 5202.33,-51.22"/>
<polygon fill="midnightblue" stroke="midnightblue" points="3349.6,-104.21 3339.64,-107.84 3349.69,-111.21 3349.6,-104.21"/>
</g>
<!-- Node33 -->
<g id="node33" class="node">
<title>Node33</title>
<g id="a_node33"><a xlink:href="pySolverModel_8cpp.html" target="_top" xlink:title=" ">
<polygon fill="white" stroke="black" points="5356.5,-0.5 5356.5,-52.5 5492.5,-52.5 5492.5,-0.5 5356.5,-0.5"/>
<text text-anchor="start" x="5364.5" y="-40.5" font-family="Helvetica,sans-Serif" font-size="10.00">/home/jonathan/Works</text>
<text text-anchor="start" x="5364.5" y="-29.5" font-family="Helvetica,sans-Serif" font-size="10.00">/Tools/Triton/src/libtriton</text>
<text text-anchor="start" x="5364.5" y="-18.5" font-family="Helvetica,sans-Serif" font-size="10.00">/bindings/python/objects</text>
<text text-anchor="middle" x="5424.5" y="-7.5" font-family="Helvetica,sans-Serif" font-size="10.00">/pySolverModel.cpp</text>
</a>
</g>
</g>
<!-- Node1&#45;&gt;Node33 -->
<g id="edge32" class="edge">
<title>Node1&#45;&gt;Node33</title>
<path fill="none" stroke="midnightblue" d="M3350,-107.96C3755.82,-103.87 5150.63,-87.44 5347.5,-53 5350.41,-52.49 5353.37,-51.89 5356.33,-51.23"/>
<polygon fill="midnightblue" stroke="midnightblue" points="3349.69,-104.46 3339.73,-108.06 3349.76,-111.46 3349.69,-104.46"/>
</g>
<!-- Node34 -->
<g id="node34" class="node">
<title>Node34</title>
<g id="a_node34"><a xlink:href="pySymbolicExpression_8cpp.html" target="_top" xlink:title=" ">
<polygon fill="white" stroke="black" points="5510.5,-0.5 5510.5,-52.5 5660.5,-52.5 5660.5,-0.5 5510.5,-0.5"/>
<text text-anchor="start" x="5518.5" y="-40.5" font-family="Helvetica,sans-Serif" font-size="10.00">/home/jonathan/Works</text>
<text text-anchor="start" x="5518.5" y="-29.5" font-family="Helvetica,sans-Serif" font-size="10.00">/Tools/Triton/src/libtriton</text>
<text text-anchor="start" x="5518.5" y="-18.5" font-family="Helvetica,sans-Serif" font-size="10.00">/bindings/python/objects</text>
<text text-anchor="middle" x="5585.5" y="-7.5" font-family="Helvetica,sans-Serif" font-size="10.00">/pySymbolicExpression.cpp</text>
</a>
</g>
</g>
<!-- Node1&#45;&gt;Node34 -->
<g id="edge33" class="edge">
<title>Node1&#45;&gt;Node34</title>
<path fill="none" stroke="midnightblue" d="M3349.75,-108.02C3774.03,-103.99 5288.41,-87.33 5501.5,-53 5504.36,-52.54 5507.26,-52.01 5510.17,-51.42"/>
<polygon fill="midnightblue" stroke="midnightblue" points="3349.59,-104.52 3339.62,-108.11 3349.66,-111.52 3349.59,-104.52"/>
</g>
<!-- Node35 -->
<g id="node35" class="node">
<title>Node35</title>
<g id="a_node35"><a xlink:href="pySymbolicVariable_8cpp.html" target="_top" xlink:title=" ">
<polygon fill="white" stroke="black" points="5679,-0.5 5679,-52.5 5816,-52.5 5816,-0.5 5679,-0.5"/>
<text text-anchor="start" x="5687" y="-40.5" font-family="Helvetica,sans-Serif" font-size="10.00">/home/jonathan/Works</text>
<text text-anchor="start" x="5687" y="-29.5" font-family="Helvetica,sans-Serif" font-size="10.00">/Tools/Triton/src/libtriton</text>
<text text-anchor="start" x="5687" y="-18.5" font-family="Helvetica,sans-Serif" font-size="10.00">/bindings/python/objects</text>
<text text-anchor="middle" x="5747.5" y="-7.5" font-family="Helvetica,sans-Serif" font-size="10.00">/pySymbolicVariable.cpp</text>
</a>
</g>
</g>
<!-- Node1&#45;&gt;Node35 -->
<g id="edge34" class="edge">
<title>Node1&#45;&gt;Node35</title>
<path fill="none" stroke="midnightblue" d="M3350.02,-108.35C3794.63,-105.5 5439.62,-92.34 5669.5,-53 5672.59,-52.47 5675.72,-51.85 5678.87,-51.14"/>
<polygon fill="midnightblue" stroke="midnightblue" points="3349.72,-104.86 3339.75,-108.42 3349.77,-111.86 3349.72,-104.86"/>
</g>
<!-- Node36 -->
<g id="node36" class="node">
<title>Node36</title>
<g id="a_node36"><a xlink:href="pyTritonContext_8cpp.html" target="_top" xlink:title=" ">
<polygon fill="white" stroke="black" points="5834.5,-0.5 5834.5,-52.5 5970.5,-52.5 5970.5,-0.5 5834.5,-0.5"/>
<text text-anchor="start" x="5842.5" y="-40.5" font-family="Helvetica,sans-Serif" font-size="10.00">/home/jonathan/Works</text>
<text text-anchor="start" x="5842.5" y="-29.5" font-family="Helvetica,sans-Serif" font-size="10.00">/Tools/Triton/src/libtriton</text>
<text text-anchor="start" x="5842.5" y="-18.5" font-family="Helvetica,sans-Serif" font-size="10.00">/bindings/python/objects</text>
<text text-anchor="middle" x="5902.5" y="-7.5" font-family="Helvetica,sans-Serif" font-size="10.00">/pyTritonContext.cpp</text>
</a>
</g>
</g>
<!-- Node1&#45;&gt;Node36 -->
<g id="edge35" class="edge">
<title>Node1&#45;&gt;Node36</title>
<path fill="none" stroke="midnightblue" d="M3349.76,-108.55C3811.81,-106.38 5579.63,-95.39 5825.5,-53 5828.41,-52.5 5831.37,-51.91 5834.34,-51.24"/>
<polygon fill="midnightblue" stroke="midnightblue" points="3349.73,-105.05 3339.75,-108.59 3349.76,-112.05 3349.73,-105.05"/>
</g>
<!-- Node37 -->
<g id="node37" class="node">
<title>Node37</title>
<g id="a_node37"><a xlink:href="pyXFunctions_8cpp.html" target="_top" xlink:title=" ">
<polygon fill="white" stroke="black" points="5988.5,-6 5988.5,-47 6174.5,-47 6174.5,-6 5988.5,-6"/>
<text text-anchor="start" x="5996.5" y="-35" font-family="Helvetica,sans-Serif" font-size="10.00">/home/jonathan/Works</text>
<text text-anchor="start" x="5996.5" y="-24" font-family="Helvetica,sans-Serif" font-size="10.00">/Tools/Triton/src/libtriton</text>
<text text-anchor="middle" x="6081.5" y="-13" font-family="Helvetica,sans-Serif" font-size="10.00">/bindings/python/pyXFunctions.cpp</text>
</a>
</g>
</g>
<!-- Node1&#45;&gt;Node37 -->
<g id="edge36" class="edge">
<title>Node1&#45;&gt;Node37</title>
<path fill="none" stroke="midnightblue" d="M3349.82,-108.21C3828.86,-104.57 5716.32,-88.13 5979.5,-53 5990.17,-51.58 6001.35,-49.45 6012.22,-47.03"/>
<polygon fill="midnightblue" stroke="midnightblue" points="3349.76,-104.71 3339.79,-108.28 3349.81,-111.71 3349.76,-104.71"/>
</g>
</g>
</svg>
