<?xml version="1.0" encoding="UTF-8" standalone="no"?>
<!DOCTYPE svg PUBLIC "-//W3C//DTD SVG 1.1//EN"
 "http://www.w3.org/Graphics/SVG/1.1/DTD/svg11.dtd">
<!-- Generated by graphviz version 12.1.0 (20240811.2233)
 -->
<!-- Title: /Users/jonathan/Works/Tools/Triton/src/libtriton/includes/triton/riscvSpecifications.hpp Pages: 1 -->
<svg width="951pt" height="217pt"
 viewBox="0.00 0.00 951.38 216.50" xmlns="http://www.w3.org/2000/svg" xmlns:xlink="http://www.w3.org/1999/xlink">
<g id="graph0" class="graph" transform="scale(1 1) rotate(0) translate(4 212.5)">
<title>/Users/jonathan/Works/Tools/Triton/src/libtriton/includes/triton/riscvSpecifications.hpp</title>
<!-- Node1 -->
<g id="Node000001" class="node">
<title>Node1</title>
<g id="a_Node000001"><a xlink:title=" ">
<polygon fill="#999999" stroke="#666666" points="526.5,-208.5 342.5,-208.5 342.5,-166.75 526.5,-166.75 526.5,-208.5"/>
<text text-anchor="start" x="350.5" y="-195" font-family="Helvetica,sans-Serif" font-size="10.00">/Users/jonathan/Works</text>
<text text-anchor="start" x="350.5" y="-183.75" font-family="Helvetica,sans-Serif" font-size="10.00">/Tools/Triton/src/libtriton</text>
<text text-anchor="middle" x="434.5" y="-172.5" font-family="Helvetica,sans-Serif" font-size="10.00">/includes/triton/riscvSpecifications.hpp</text>
</a>
</g>
</g>
<!-- Node2 -->
<g id="Node000002" class="node">
<title>Node2</title>
<g id="a_Node000002"><a xlink:href="architecture_8cpp.html" target="_top" xlink:title=" ">
<polygon fill="white" stroke="#666666" points="121,-41.75 0,-41.75 0,0 121,0 121,-41.75"/>
<text text-anchor="start" x="8" y="-28.25" font-family="Helvetica,sans-Serif" font-size="10.00">/Users/jonathan/Works</text>
<text text-anchor="start" x="8" y="-17" font-family="Helvetica,sans-Serif" font-size="10.00">/Tools/Triton/src/libtriton</text>
<text text-anchor="middle" x="60.5" y="-5.75" font-family="Helvetica,sans-Serif" font-size="10.00">/arch/architecture.cpp</text>
</a>
</g>
</g>
<!-- Node1&#45;&gt;Node2 -->
<g id="edge1_Node000001_Node000002" class="edge">
<title>Node1&#45;&gt;Node2</title>
<g id="a_edge1_Node000001_Node000002"><a xlink:title=" ">
<path fill="none" stroke="#63b8ff" d="M330.94,-180.98C245.18,-174.27 132.01,-160.04 97.5,-130.75 71.32,-108.53 63.62,-67.02 61.38,-42.17"/>
<polygon fill="#63b8ff" stroke="#63b8ff" points="330.57,-184.46 340.81,-181.72 331.1,-177.48 330.57,-184.46"/>
</a>
</g>
</g>
<!-- Node3 -->
<g id="Node000003" class="node">
<title>Node3</title>
<g id="a_Node000003"><a xlink:href="riscvSemantics_8cpp.html" target="_top" xlink:title=" ">
<polygon fill="white" stroke="#666666" points="595,-125.12 444,-125.12 444,-83.38 595,-83.38 595,-125.12"/>
<text text-anchor="start" x="452" y="-111.62" font-family="Helvetica,sans-Serif" font-size="10.00">/Users/jonathan/Works</text>
<text text-anchor="start" x="452" y="-100.38" font-family="Helvetica,sans-Serif" font-size="10.00">/Tools/Triton/src/libtriton</text>
<text text-anchor="middle" x="519.5" y="-89.12" font-family="Helvetica,sans-Serif" font-size="10.00">/arch/riscv/riscvSemantics.cpp</text>
</a>
</g>
</g>
<!-- Node1&#45;&gt;Node3 -->
<g id="edge2_Node000001_Node000003" class="edge">
<title>Node1&#45;&gt;Node3</title>
<g id="a_edge2_Node000001_Node000003"><a xlink:title=" ">
<path fill="none" stroke="#63b8ff" d="M463.54,-158.82C475,-147.86 487.9,-135.5 498.44,-125.42"/>
<polygon fill="#63b8ff" stroke="#63b8ff" points="461.41,-156.02 456.6,-165.46 466.25,-161.08 461.41,-156.02"/>
</a>
</g>
</g>
<!-- Node4 -->
<g id="Node000004" class="node">
<title>Node4</title>
<g id="a_Node000004"><a xlink:href="riscvSpecifications_8cpp.html" target="_top" xlink:title=" ">
<polygon fill="white" stroke="#666666" points="779.5,-125.12 613.5,-125.12 613.5,-83.38 779.5,-83.38 779.5,-125.12"/>
<text text-anchor="start" x="621.5" y="-111.62" font-family="Helvetica,sans-Serif" font-size="10.00">/Users/jonathan/Works</text>
<text text-anchor="start" x="621.5" y="-100.38" font-family="Helvetica,sans-Serif" font-size="10.00">/Tools/Triton/src/libtriton</text>
<text text-anchor="middle" x="696.5" y="-89.12" font-family="Helvetica,sans-Serif" font-size="10.00">/arch/riscv/riscvSpecifications.cpp</text>
</a>
</g>
</g>
<!-- Node1&#45;&gt;Node4 -->
<g id="edge3_Node000001_Node000004" class="edge">
<title>Node1&#45;&gt;Node4</title>
<g id="a_edge3_Node000001_Node000004"><a xlink:title=" ">
<path fill="none" stroke="#63b8ff" d="M510.48,-163.03C548.64,-151.17 594.4,-136.96 630.99,-125.6"/>
<polygon fill="#63b8ff" stroke="#63b8ff" points="509.9,-159.54 501.38,-165.85 511.97,-166.23 509.9,-159.54"/>
</a>
</g>
</g>
<!-- Node5 -->
<g id="Node000005" class="node">
<title>Node5</title>
<g id="a_Node000005"><a xlink:href="initOpcodesNamespace_8cpp.html" target="_top" xlink:title=" ">
<polygon fill="white" stroke="#666666" points="943.38,-130.75 797.62,-130.75 797.62,-77.75 943.38,-77.75 943.38,-130.75"/>
<text text-anchor="start" x="805.62" y="-117.25" font-family="Helvetica,sans-Serif" font-size="10.00">/Users/jonathan/Works</text>
<text text-anchor="start" x="805.62" y="-106" font-family="Helvetica,sans-Serif" font-size="10.00">/Tools/Triton/src/libtriton</text>
<text text-anchor="start" x="805.62" y="-94.75" font-family="Helvetica,sans-Serif" font-size="10.00">/bindings/python/namespaces</text>
<text text-anchor="middle" x="870.5" y="-83.5" font-family="Helvetica,sans-Serif" font-size="10.00">/initOpcodesNamespace.cpp</text>
</a>
</g>
</g>
<!-- Node1&#45;&gt;Node5 -->
<g id="edge4_Node000001_Node000005" class="edge">
<title>Node1&#45;&gt;Node5</title>
<g id="a_edge4_Node000001_Node000005"><a xlink:title=" ">
<path fill="none" stroke="#63b8ff" d="M538.06,-174.3C609.05,-164.88 705.1,-150.19 788.5,-130.75 791.4,-130.07 794.35,-129.35 797.33,-128.58"/>
<polygon fill="#63b8ff" stroke="#63b8ff" points="537.85,-170.8 528.39,-175.58 538.76,-177.74 537.85,-170.8"/>
</a>
</g>
</g>
<!-- Node6 -->
<g id="Node000006" class="node">
<title>Node6</title>
<g id="a_Node000006"><a xlink:href="riscv32Cpu_8hpp.html" target="_top" xlink:title=" ">
<polygon fill="white" stroke="#666666" points="257,-125.12 106,-125.12 106,-83.38 257,-83.38 257,-125.12"/>
<text text-anchor="start" x="114" y="-111.62" font-family="Helvetica,sans-Serif" font-size="10.00">/Users/jonathan/Works</text>
<text text-anchor="start" x="114" y="-100.38" font-family="Helvetica,sans-Serif" font-size="10.00">/Tools/Triton/src/libtriton</text>
<text text-anchor="middle" x="181.5" y="-89.12" font-family="Helvetica,sans-Serif" font-size="10.00">/includes/triton/riscv32Cpu.hpp</text>
</a>
</g>
</g>
<!-- Node1&#45;&gt;Node6 -->
<g id="edge5_Node000001_Node000006" class="edge">
<title>Node1&#45;&gt;Node6</title>
<g id="a_edge5_Node000001_Node000006"><a xlink:title=" ">
<path fill="none" stroke="#63b8ff" d="M360.65,-162.87C323.91,-151.05 279.94,-136.91 244.76,-125.6"/>
<polygon fill="#63b8ff" stroke="#63b8ff" points="359.28,-166.11 369.87,-165.84 361.42,-159.44 359.28,-166.11"/>
</a>
</g>
</g>
<!-- Node9 -->
<g id="Node000009" class="node">
<title>Node9</title>
<g id="a_Node000009"><a xlink:href="riscv64Cpu_8hpp.html" target="_top" xlink:title=" ">
<polygon fill="white" stroke="#666666" points="426,-125.12 275,-125.12 275,-83.38 426,-83.38 426,-125.12"/>
<text text-anchor="start" x="283" y="-111.62" font-family="Helvetica,sans-Serif" font-size="10.00">/Users/jonathan/Works</text>
<text text-anchor="start" x="283" y="-100.38" font-family="Helvetica,sans-Serif" font-size="10.00">/Tools/Triton/src/libtriton</text>
<text text-anchor="middle" x="350.5" y="-89.12" font-family="Helvetica,sans-Serif" font-size="10.00">/includes/triton/riscv64Cpu.hpp</text>
</a>
</g>
</g>
<!-- Node1&#45;&gt;Node9 -->
<g id="edge9_Node000001_Node000009" class="edge">
<title>Node1&#45;&gt;Node9</title>
<g id="a_edge9_Node000001_Node000009"><a xlink:title=" ">
<path fill="none" stroke="#63b8ff" d="M405.47,-158.5C394.23,-147.62 381.62,-135.4 371.32,-125.42"/>
<polygon fill="#63b8ff" stroke="#63b8ff" points="403.03,-161.01 412.65,-165.46 407.9,-155.98 403.03,-161.01"/>
</a>
</g>
</g>
<!-- Node6&#45;&gt;Node2 -->
<g id="edge6_Node000006_Node000002" class="edge">
<title>Node6&#45;&gt;Node2</title>
<g id="a_edge6_Node000006_Node000002"><a xlink:title=" ">
<path fill="none" stroke="#63b8ff" d="M141.82,-76.56C125.21,-65.39 106.21,-52.61 90.76,-42.22"/>
<polygon fill="#63b8ff" stroke="#63b8ff" points="139.77,-79.4 150.02,-82.08 143.68,-73.6 139.77,-79.4"/>
</a>
</g>
</g>
<!-- Node7 -->
<g id="Node000007" class="node">
<title>Node7</title>
<g id="a_Node000007"><a xlink:href="riscv32Cpu_8cpp.html" target="_top" xlink:title=" ">
<polygon fill="white" stroke="#666666" points="272,-41.75 139,-41.75 139,0 272,0 272,-41.75"/>
<text text-anchor="start" x="147" y="-28.25" font-family="Helvetica,sans-Serif" font-size="10.00">/Users/jonathan/Works</text>
<text text-anchor="start" x="147" y="-17" font-family="Helvetica,sans-Serif" font-size="10.00">/Tools/Triton/src/libtriton</text>
<text text-anchor="middle" x="205.5" y="-5.75" font-family="Helvetica,sans-Serif" font-size="10.00">/arch/riscv/riscv32Cpu.cpp</text>
</a>
</g>
</g>
<!-- Node6&#45;&gt;Node7 -->
<g id="edge7_Node000006_Node000007" class="edge">
<title>Node6&#45;&gt;Node7</title>
<g id="a_edge7_Node000006_Node000007"><a xlink:title=" ">
<path fill="none" stroke="#63b8ff" d="M190.65,-72.22C193.64,-62.1 196.87,-51.14 199.55,-42.04"/>
<polygon fill="#63b8ff" stroke="#63b8ff" points="187.33,-71.1 187.86,-81.68 194.05,-73.08 187.33,-71.1"/>
</a>
</g>
</g>
<!-- Node8 -->
<g id="Node000008" class="node">
<title>Node8</title>
<g id="a_Node000008"><a xlink:href="context_8cpp.html" target="_top" xlink:title=" ">
<polygon fill="white" stroke="#666666" points="411,-41.75 290,-41.75 290,0 411,0 411,-41.75"/>
<text text-anchor="start" x="298" y="-28.25" font-family="Helvetica,sans-Serif" font-size="10.00">/Users/jonathan/Works</text>
<text text-anchor="start" x="298" y="-17" font-family="Helvetica,sans-Serif" font-size="10.00">/Tools/Triton/src/libtriton</text>
<text text-anchor="middle" x="350.5" y="-5.75" font-family="Helvetica,sans-Serif" font-size="10.00">/context/context.cpp</text>
</a>
</g>
</g>
<!-- Node6&#45;&gt;Node8 -->
<g id="edge8_Node000006_Node000008" class="edge">
<title>Node6&#45;&gt;Node8</title>
<g id="a_edge8_Node000006_Node000008"><a xlink:title=" ">
<path fill="none" stroke="#63b8ff" d="M234.01,-77.96C257.89,-66.47 285.75,-53.05 308.24,-42.22"/>
<polygon fill="#63b8ff" stroke="#63b8ff" points="232.57,-74.78 225.07,-82.27 235.6,-81.08 232.57,-74.78"/>
</a>
</g>
</g>
<!-- Node9&#45;&gt;Node2 -->
<g id="edge10_Node000009_Node000002" class="edge">
<title>Node9&#45;&gt;Node2</title>
<g id="a_edge10_Node000009_Node000002"><a xlink:title=" ">
<path fill="none" stroke="#63b8ff" d="M273.74,-79.83C271.3,-79.12 268.88,-78.43 266.5,-77.75 206.35,-60.67 190.8,-58.29 130.5,-41.75 127.45,-40.91 124.34,-40.05 121.19,-39.18"/>
<polygon fill="#63b8ff" stroke="#63b8ff" points="272.5,-83.11 283.08,-82.56 274.47,-76.39 272.5,-83.11"/>
</a>
</g>
</g>
<!-- Node9&#45;&gt;Node8 -->
<g id="edge12_Node000009_Node000008" class="edge">
<title>Node9&#45;&gt;Node8</title>
<g id="a_edge12_Node000009_Node000008"><a xlink:title=" ">
<path fill="none" stroke="#63b8ff" d="M350.5,-71.89C350.5,-61.87 350.5,-51.05 350.5,-42.04"/>
<polygon fill="#63b8ff" stroke="#63b8ff" points="347,-71.62 350.5,-81.62 354,-71.62 347,-71.62"/>
</a>
</g>
</g>
<!-- Node10 -->
<g id="Node000010" class="node">
<title>Node10</title>
<g id="a_Node000010"><a xlink:href="riscv64Cpu_8cpp.html" target="_top" xlink:title=" ">
<polygon fill="white" stroke="#666666" points="562,-41.75 429,-41.75 429,0 562,0 562,-41.75"/>
<text text-anchor="start" x="437" y="-28.25" font-family="Helvetica,sans-Serif" font-size="10.00">/Users/jonathan/Works</text>
<text text-anchor="start" x="437" y="-17" font-family="Helvetica,sans-Serif" font-size="10.00">/Tools/Triton/src/libtriton</text>
<text text-anchor="middle" x="495.5" y="-5.75" font-family="Helvetica,sans-Serif" font-size="10.00">/arch/riscv/riscv64Cpu.cpp</text>
</a>
</g>
</g>
<!-- Node9&#45;&gt;Node10 -->
<g id="edge11_Node000009_Node000010" class="edge">
<title>Node9&#45;&gt;Node10</title>
<g id="a_edge11_Node000009_Node000010"><a xlink:title=" ">
<path fill="none" stroke="#63b8ff" d="M396.66,-77.34C416.89,-65.99 440.29,-52.86 459.24,-42.22"/>
<polygon fill="#63b8ff" stroke="#63b8ff" points="395.04,-74.24 388.04,-82.18 398.47,-80.34 395.04,-74.24"/>
</a>
</g>
</g>
</g>
</svg>
