<?xml version="1.0" encoding="UTF-8" standalone="no"?>
<!DOCTYPE svg PUBLIC "-//W3C//DTD SVG 1.1//EN"
 "http://www.w3.org/Graphics/SVG/1.1/DTD/svg11.dtd">
<!-- Generated by graphviz version 11.0.0 (20240428.1522)
 -->
<!-- Title: /Users/jonathan/Works/Tools/Triton/src/libtriton/includes/triton/riscvSpecifications.hpp Pages: 1 -->
<svg width="682pt" height="205pt"
 viewBox="0.00 0.00 682.00 205.25" xmlns="http://www.w3.org/2000/svg" xmlns:xlink="http://www.w3.org/1999/xlink">
<g id="graph0" class="graph" transform="scale(1 1) rotate(0) translate(4 201.25)">
<title>/Users/jonathan/Works/Tools/Triton/src/libtriton/includes/triton/riscvSpecifications.hpp</title>
<!-- Node1 -->
<g id="Node000001" class="node">
<title>Node1</title>
<g id="a_Node000001"><a xlink:title=" ">
<polygon fill="#999999" stroke="#666666" points="432.5,-197.25 248.5,-197.25 248.5,-155.5 432.5,-155.5 432.5,-197.25"/>
<text text-anchor="start" x="256.5" y="-183.75" font-family="Helvetica,sans-Serif" font-size="10.00">/Users/jonathan/Works</text>
<text text-anchor="start" x="256.5" y="-172.5" font-family="Helvetica,sans-Serif" font-size="10.00">/Tools/Triton/src/libtriton</text>
<text text-anchor="middle" x="340.5" y="-161.25" font-family="Helvetica,sans-Serif" font-size="10.00">/includes/triton/riscvSpecifications.hpp</text>
</a>
</g>
</g>
<!-- Node2 -->
<g id="Node000002" class="node">
<title>Node2</title>
<g id="a_Node000002"><a xlink:href="riscvSemantics_8cpp.html" target="_top" xlink:title=" ">
<polygon fill="white" stroke="#666666" points="151,-119.5 0,-119.5 0,-77.75 151,-77.75 151,-119.5"/>
<text text-anchor="start" x="8" y="-106" font-family="Helvetica,sans-Serif" font-size="10.00">/Users/jonathan/Works</text>
<text text-anchor="start" x="8" y="-94.75" font-family="Helvetica,sans-Serif" font-size="10.00">/Tools/Triton/src/libtriton</text>
<text text-anchor="middle" x="75.5" y="-83.5" font-family="Helvetica,sans-Serif" font-size="10.00">/arch/riscv/riscvSemantics.cpp</text>
</a>
</g>
</g>
<!-- Node1&#45;&gt;Node2 -->
<g id="edge1_Node000001_Node000002" class="edge">
<title>Node1&#45;&gt;Node2</title>
<g id="a_edge1_Node000001_Node000002"><a xlink:title=" ">
<path fill="none" stroke="#63b8ff" d="M258.58,-151.96C222.78,-141.73 181.2,-129.84 146.71,-119.98"/>
<polygon fill="#63b8ff" stroke="#63b8ff" points="257.45,-155.28 268.03,-154.66 259.38,-148.55 257.45,-155.28"/>
</a>
</g>
</g>
<!-- Node3 -->
<g id="Node000003" class="node">
<title>Node3</title>
<g id="a_Node000003"><a xlink:href="riscvSpecifications_8cpp.html" target="_top" xlink:title=" ">
<polygon fill="white" stroke="#666666" points="335.5,-119.5 169.5,-119.5 169.5,-77.75 335.5,-77.75 335.5,-119.5"/>
<text text-anchor="start" x="177.5" y="-106" font-family="Helvetica,sans-Serif" font-size="10.00">/Users/jonathan/Works</text>
<text text-anchor="start" x="177.5" y="-94.75" font-family="Helvetica,sans-Serif" font-size="10.00">/Tools/Triton/src/libtriton</text>
<text text-anchor="middle" x="252.5" y="-83.5" font-family="Helvetica,sans-Serif" font-size="10.00">/arch/riscv/riscvSpecifications.cpp</text>
</a>
</g>
</g>
<!-- Node1&#45;&gt;Node3 -->
<g id="edge2_Node000001_Node000003" class="edge">
<title>Node1&#45;&gt;Node3</title>
<g id="a_edge2_Node000001_Node000003"><a xlink:title=" ">
<path fill="none" stroke="#63b8ff" d="M308.28,-147.64C297.64,-138.48 286.02,-128.48 276.15,-119.98"/>
<polygon fill="#63b8ff" stroke="#63b8ff" points="305.91,-150.22 315.77,-154.09 310.47,-144.91 305.91,-150.22"/>
</a>
</g>
</g>
<!-- Node4 -->
<g id="Node000004" class="node">
<title>Node4</title>
<g id="a_Node000004"><a xlink:href="riscv32Cpu_8hpp.html" target="_top" xlink:title=" ">
<polygon fill="white" stroke="#666666" points="505,-119.5 354,-119.5 354,-77.75 505,-77.75 505,-119.5"/>
<text text-anchor="start" x="362" y="-106" font-family="Helvetica,sans-Serif" font-size="10.00">/Users/jonathan/Works</text>
<text text-anchor="start" x="362" y="-94.75" font-family="Helvetica,sans-Serif" font-size="10.00">/Tools/Triton/src/libtriton</text>
<text text-anchor="middle" x="429.5" y="-83.5" font-family="Helvetica,sans-Serif" font-size="10.00">/includes/triton/riscv32Cpu.hpp</text>
</a>
</g>
</g>
<!-- Node1&#45;&gt;Node4 -->
<g id="edge3_Node000001_Node000004" class="edge">
<title>Node1&#45;&gt;Node4</title>
<g id="a_edge3_Node000001_Node000004"><a xlink:title=" ">
<path fill="none" stroke="#63b8ff" d="M373.09,-147.64C383.84,-138.48 395.6,-128.48 405.58,-119.98"/>
<polygon fill="#63b8ff" stroke="#63b8ff" points="370.85,-144.95 365.5,-154.09 375.39,-150.28 370.85,-144.95"/>
</a>
</g>
</g>
<!-- Node6 -->
<g id="Node000006" class="node">
<title>Node6</title>
<g id="a_Node000006"><a xlink:href="riscv64Cpu_8hpp.html" target="_top" xlink:title=" ">
<polygon fill="white" stroke="#666666" points="674,-119.5 523,-119.5 523,-77.75 674,-77.75 674,-119.5"/>
<text text-anchor="start" x="531" y="-106" font-family="Helvetica,sans-Serif" font-size="10.00">/Users/jonathan/Works</text>
<text text-anchor="start" x="531" y="-94.75" font-family="Helvetica,sans-Serif" font-size="10.00">/Tools/Triton/src/libtriton</text>
<text text-anchor="middle" x="598.5" y="-83.5" font-family="Helvetica,sans-Serif" font-size="10.00">/includes/triton/riscv64Cpu.hpp</text>
</a>
</g>
</g>
<!-- Node1&#45;&gt;Node6 -->
<g id="edge5_Node000001_Node000006" class="edge">
<title>Node1&#45;&gt;Node6</title>
<g id="a_edge5_Node000001_Node000006"><a xlink:title=" ">
<path fill="none" stroke="#63b8ff" d="M420.26,-151.96C455.11,-141.73 495.6,-129.84 529.17,-119.98"/>
<polygon fill="#63b8ff" stroke="#63b8ff" points="419.7,-148.47 411.09,-154.65 421.67,-155.19 419.7,-148.47"/>
</a>
</g>
</g>
<!-- Node5 -->
<g id="Node000005" class="node">
<title>Node5</title>
<g id="a_Node000005"><a xlink:href="riscv32Cpu_8cpp.html" target="_top" xlink:title=" ">
<polygon fill="white" stroke="#666666" points="496,-41.75 363,-41.75 363,0 496,0 496,-41.75"/>
<text text-anchor="start" x="371" y="-28.25" font-family="Helvetica,sans-Serif" font-size="10.00">/Users/jonathan/Works</text>
<text text-anchor="start" x="371" y="-17" font-family="Helvetica,sans-Serif" font-size="10.00">/Tools/Triton/src/libtriton</text>
<text text-anchor="middle" x="429.5" y="-5.75" font-family="Helvetica,sans-Serif" font-size="10.00">/arch/riscv/riscv32Cpu.cpp</text>
</a>
</g>
</g>
<!-- Node4&#45;&gt;Node5 -->
<g id="edge4_Node000004_Node000005" class="edge">
<title>Node4&#45;&gt;Node5</title>
<g id="a_edge4_Node000004_Node000005"><a xlink:title=" ">
<path fill="none" stroke="#63b8ff" d="M429.5,-66C429.5,-57.96 429.5,-49.54 429.5,-42.23"/>
<polygon fill="#63b8ff" stroke="#63b8ff" points="426,-65.81 429.5,-75.81 433,-65.81 426,-65.81"/>
</a>
</g>
</g>
<!-- Node7 -->
<g id="Node000007" class="node">
<title>Node7</title>
<g id="a_Node000007"><a xlink:href="riscv64Cpu_8cpp.html" target="_top" xlink:title=" ">
<polygon fill="white" stroke="#666666" points="665,-41.75 532,-41.75 532,0 665,0 665,-41.75"/>
<text text-anchor="start" x="540" y="-28.25" font-family="Helvetica,sans-Serif" font-size="10.00">/Users/jonathan/Works</text>
<text text-anchor="start" x="540" y="-17" font-family="Helvetica,sans-Serif" font-size="10.00">/Tools/Triton/src/libtriton</text>
<text text-anchor="middle" x="598.5" y="-5.75" font-family="Helvetica,sans-Serif" font-size="10.00">/arch/riscv/riscv64Cpu.cpp</text>
</a>
</g>
</g>
<!-- Node6&#45;&gt;Node7 -->
<g id="edge6_Node000006_Node000007" class="edge">
<title>Node6&#45;&gt;Node7</title>
<g id="a_edge6_Node000006_Node000007"><a xlink:title=" ">
<path fill="none" stroke="#63b8ff" d="M598.5,-66C598.5,-57.96 598.5,-49.54 598.5,-42.23"/>
<polygon fill="#63b8ff" stroke="#63b8ff" points="595,-65.81 598.5,-75.81 602,-65.81 595,-65.81"/>
</a>
</g>
</g>
</g>
</svg>
