<?xml version="1.0" encoding="UTF-8" standalone="no"?>
<!DOCTYPE svg PUBLIC "-//W3C//DTD SVG 1.1//EN"
 "http://www.w3.org/Graphics/SVG/1.1/DTD/svg11.dtd">
<!-- Generated by graphviz version 2.50.0 (20211204.2007)
 -->
<!-- Title: /home/jonathan/Works/Tools/Triton/src/libtriton/includes/triton/semanticsInterface.hpp Pages: 1 -->
<svg width="1296pt" height="373pt"
 viewBox="0.00 0.00 1296.00 373.00" xmlns="http://www.w3.org/2000/svg" xmlns:xlink="http://www.w3.org/1999/xlink">
<g id="graph0" class="graph" transform="scale(1 1) rotate(0) translate(4 369)">
<title>/home/jonathan/Works/Tools/Triton/src/libtriton/includes/triton/semanticsInterface.hpp</title>
<polygon fill="white" stroke="transparent" points="-4,4 -4,-369 1292,-369 1292,4 -4,4"/>
<!-- Node1 -->
<g id="node1" class="node">
<title>Node1</title>
<g id="a_node1"><a xlink:title=" ">
<polygon fill="#bfbfbf" stroke="black" points="398.5,-323.5 398.5,-364.5 605.5,-364.5 605.5,-323.5 398.5,-323.5"/>
<text text-anchor="start" x="406.5" y="-352.5" font-family="Helvetica,sans-Serif" font-size="10.00">/home/jonathan/Works</text>
<text text-anchor="start" x="406.5" y="-341.5" font-family="Helvetica,sans-Serif" font-size="10.00">/Tools/Triton/src/libtriton</text>
<text text-anchor="middle" x="502" y="-330.5" font-family="Helvetica,sans-Serif" font-size="10.00">/includes/triton/semanticsInterface.hpp</text>
</a>
</g>
</g>
<!-- Node2 -->
<g id="node2" class="node">
<title>Node2</title>
<g id="a_node2"><a xlink:href="aarch64Semantics_8hpp.html" target="_top" xlink:title=" ">
<polygon fill="white" stroke="black" points="87.5,-245.5 87.5,-286.5 290.5,-286.5 290.5,-245.5 87.5,-245.5"/>
<text text-anchor="start" x="95.5" y="-274.5" font-family="Helvetica,sans-Serif" font-size="10.00">/home/jonathan/Works</text>
<text text-anchor="start" x="95.5" y="-263.5" font-family="Helvetica,sans-Serif" font-size="10.00">/Tools/Triton/src/libtriton</text>
<text text-anchor="middle" x="189" y="-252.5" font-family="Helvetica,sans-Serif" font-size="10.00">/includes/triton/aarch64Semantics.hpp</text>
</a>
</g>
</g>
<!-- Node1&#45;&gt;Node2 -->
<g id="edge1" class="edge">
<title>Node1&#45;&gt;Node2</title>
<path fill="none" stroke="midnightblue" d="M411.65,-321.06C366.7,-310.15 312.83,-297.07 269.33,-286.51"/>
<polygon fill="midnightblue" stroke="midnightblue" points="410.85,-324.47 421.39,-323.43 412.5,-317.67 410.85,-324.47"/>
</g>
<!-- Node5 -->
<g id="node5" class="node">
<title>Node5</title>
<g id="a_node5"><a xlink:href="arm32Semantics_8hpp.html" target="_top" xlink:title=" ">
<polygon fill="white" stroke="black" points="308,-245.5 308,-286.5 504,-286.5 504,-245.5 308,-245.5"/>
<text text-anchor="start" x="316" y="-274.5" font-family="Helvetica,sans-Serif" font-size="10.00">/home/jonathan/Works</text>
<text text-anchor="start" x="316" y="-263.5" font-family="Helvetica,sans-Serif" font-size="10.00">/Tools/Triton/src/libtriton</text>
<text text-anchor="middle" x="406" y="-252.5" font-family="Helvetica,sans-Serif" font-size="10.00">/includes/triton/arm32Semantics.hpp</text>
</a>
</g>
</g>
<!-- Node1&#45;&gt;Node5 -->
<g id="edge4" class="edge">
<title>Node1&#45;&gt;Node5</title>
<path fill="none" stroke="midnightblue" d="M469.24,-317.06C456.6,-307.06 442.38,-295.8 430.64,-286.51"/>
<polygon fill="midnightblue" stroke="midnightblue" points="467.26,-319.97 477.28,-323.43 471.61,-314.48 467.26,-319.97"/>
</g>
<!-- Node7 -->
<g id="node7" class="node">
<title>Node7</title>
<g id="a_node7"><a xlink:href="irBuilder_8hpp.html" target="_top" xlink:title=" ">
<polygon fill="white" stroke="black" points="522,-245.5 522,-286.5 676,-286.5 676,-245.5 522,-245.5"/>
<text text-anchor="start" x="530" y="-274.5" font-family="Helvetica,sans-Serif" font-size="10.00">/home/jonathan/Works</text>
<text text-anchor="start" x="530" y="-263.5" font-family="Helvetica,sans-Serif" font-size="10.00">/Tools/Triton/src/libtriton</text>
<text text-anchor="middle" x="599" y="-252.5" font-family="Helvetica,sans-Serif" font-size="10.00">/includes/triton/irBuilder.hpp</text>
</a>
</g>
</g>
<!-- Node1&#45;&gt;Node7 -->
<g id="edge7" class="edge">
<title>Node1&#45;&gt;Node7</title>
<path fill="none" stroke="midnightblue" d="M535.1,-317.06C547.87,-307.06 562.24,-295.8 574.1,-286.51"/>
<polygon fill="midnightblue" stroke="midnightblue" points="532.69,-314.51 526.98,-323.43 537.01,-320.02 532.69,-314.51"/>
</g>
<!-- Node16 -->
<g id="node16" class="node">
<title>Node16</title>
<g id="a_node16"><a xlink:href="x86Semantics_8hpp.html" target="_top" xlink:title=" ">
<polygon fill="white" stroke="black" points="694,-245.5 694,-286.5 876,-286.5 876,-245.5 694,-245.5"/>
<text text-anchor="start" x="702" y="-274.5" font-family="Helvetica,sans-Serif" font-size="10.00">/home/jonathan/Works</text>
<text text-anchor="start" x="702" y="-263.5" font-family="Helvetica,sans-Serif" font-size="10.00">/Tools/Triton/src/libtriton</text>
<text text-anchor="middle" x="785" y="-252.5" font-family="Helvetica,sans-Serif" font-size="10.00">/includes/triton/x86Semantics.hpp</text>
</a>
</g>
</g>
<!-- Node1&#45;&gt;Node16 -->
<g id="edge17" class="edge">
<title>Node1&#45;&gt;Node16</title>
<path fill="none" stroke="midnightblue" d="M584.71,-320.79C625.15,-309.93 673.37,-296.98 712.37,-286.51"/>
<polygon fill="midnightblue" stroke="midnightblue" points="583.63,-317.45 574.88,-323.43 585.45,-324.21 583.63,-317.45"/>
</g>
<!-- Node3 -->
<g id="node3" class="node">
<title>Node3</title>
<g id="a_node3"><a xlink:href="aarch64Semantics_8cpp.html" target="_top" xlink:title=" ">
<polygon fill="white" stroke="black" points="0,-167.5 0,-208.5 218,-208.5 218,-167.5 0,-167.5"/>
<text text-anchor="start" x="8" y="-196.5" font-family="Helvetica,sans-Serif" font-size="10.00">/home/jonathan/Works</text>
<text text-anchor="start" x="8" y="-185.5" font-family="Helvetica,sans-Serif" font-size="10.00">/Tools/Triton/src/libtriton</text>
<text text-anchor="middle" x="109" y="-174.5" font-family="Helvetica,sans-Serif" font-size="10.00">/arch/arm/aarch64/aarch64Semantics.cpp</text>
</a>
</g>
</g>
<!-- Node2&#45;&gt;Node3 -->
<g id="edge2" class="edge">
<title>Node2&#45;&gt;Node3</title>
<path fill="none" stroke="midnightblue" d="M161.1,-238.49C150.72,-228.63 139.13,-217.63 129.53,-208.51"/>
<polygon fill="midnightblue" stroke="midnightblue" points="158.74,-241.08 168.4,-245.43 163.56,-236 158.74,-241.08"/>
</g>
<!-- Node4 -->
<g id="node4" class="node">
<title>Node4</title>
<g id="a_node4"><a xlink:href="irBuilder_8cpp.html" target="_top" xlink:title=" ">
<polygon fill="white" stroke="black" points="457.5,-167.5 457.5,-208.5 590.5,-208.5 590.5,-167.5 457.5,-167.5"/>
<text text-anchor="start" x="465.5" y="-196.5" font-family="Helvetica,sans-Serif" font-size="10.00">/home/jonathan/Works</text>
<text text-anchor="start" x="465.5" y="-185.5" font-family="Helvetica,sans-Serif" font-size="10.00">/Tools/Triton/src/libtriton</text>
<text text-anchor="middle" x="524" y="-174.5" font-family="Helvetica,sans-Serif" font-size="10.00">/arch/irBuilder.cpp</text>
</a>
</g>
</g>
<!-- Node2&#45;&gt;Node4 -->
<g id="edge3" class="edge">
<title>Node2&#45;&gt;Node4</title>
<path fill="none" stroke="midnightblue" d="M294.17,-243.37C341.33,-233.38 397.57,-221.08 448,-209 451.05,-208.27 454.17,-207.51 457.31,-206.73"/>
<polygon fill="midnightblue" stroke="midnightblue" points="293.32,-239.97 284.25,-245.46 294.76,-246.82 293.32,-239.97"/>
</g>
<!-- Node5&#45;&gt;Node4 -->
<g id="edge6" class="edge">
<title>Node5&#45;&gt;Node4</title>
<path fill="none" stroke="midnightblue" d="M444.94,-239.92C460.8,-229.7 478.86,-218.07 493.72,-208.51"/>
<polygon fill="midnightblue" stroke="midnightblue" points="442.9,-237.07 436.39,-245.43 446.69,-242.96 442.9,-237.07"/>
</g>
<!-- Node6 -->
<g id="node6" class="node">
<title>Node6</title>
<g id="a_node6"><a xlink:href="arm32Semantics_8cpp.html" target="_top" xlink:title=" ">
<polygon fill="white" stroke="black" points="236.5,-167.5 236.5,-208.5 439.5,-208.5 439.5,-167.5 236.5,-167.5"/>
<text text-anchor="start" x="244.5" y="-196.5" font-family="Helvetica,sans-Serif" font-size="10.00">/home/jonathan/Works</text>
<text text-anchor="start" x="244.5" y="-185.5" font-family="Helvetica,sans-Serif" font-size="10.00">/Tools/Triton/src/libtriton</text>
<text text-anchor="middle" x="338" y="-174.5" font-family="Helvetica,sans-Serif" font-size="10.00">/arch/arm/arm32/arm32Semantics.cpp</text>
</a>
</g>
</g>
<!-- Node5&#45;&gt;Node6 -->
<g id="edge5" class="edge">
<title>Node5&#45;&gt;Node6</title>
<path fill="none" stroke="midnightblue" d="M381.77,-237.92C373.08,-228.2 363.46,-217.45 355.45,-208.51"/>
<polygon fill="midnightblue" stroke="midnightblue" points="379.21,-240.31 388.49,-245.43 384.43,-235.64 379.21,-240.31"/>
</g>
<!-- Node7&#45;&gt;Node4 -->
<g id="edge8" class="edge">
<title>Node7&#45;&gt;Node4</title>
<path fill="none" stroke="midnightblue" d="M572.56,-238.2C562.9,-228.42 552.16,-217.54 543.25,-208.51"/>
<polygon fill="midnightblue" stroke="midnightblue" points="570.17,-240.77 579.69,-245.43 575.15,-235.85 570.17,-240.77"/>
</g>
<!-- Node8 -->
<g id="node8" class="node">
<title>Node8</title>
<g id="a_node8"><a xlink:href="context_8hpp.html" target="_top" xlink:title=" ">
<polygon fill="white" stroke="black" points="609,-167.5 609,-208.5 759,-208.5 759,-167.5 609,-167.5"/>
<text text-anchor="start" x="617" y="-196.5" font-family="Helvetica,sans-Serif" font-size="10.00">/home/jonathan/Works</text>
<text text-anchor="start" x="617" y="-185.5" font-family="Helvetica,sans-Serif" font-size="10.00">/Tools/Triton/src/libtriton</text>
<text text-anchor="middle" x="684" y="-174.5" font-family="Helvetica,sans-Serif" font-size="10.00">/includes/triton/context.hpp</text>
</a>
</g>
</g>
<!-- Node7&#45;&gt;Node8 -->
<g id="edge9" class="edge">
<title>Node7&#45;&gt;Node8</title>
<path fill="none" stroke="midnightblue" d="M628.65,-238.49C639.68,-228.63 651.98,-217.63 662.18,-208.51"/>
<polygon fill="midnightblue" stroke="midnightblue" points="626.01,-236.15 620.89,-245.43 630.68,-241.37 626.01,-236.15"/>
</g>
<!-- Node9 -->
<g id="node9" class="node">
<title>Node9</title>
<g id="a_node9"><a xlink:href="pyTritonContext_8cpp.html" target="_top" xlink:title=" ">
<polygon fill="white" stroke="black" points="311,-78.5 311,-130.5 447,-130.5 447,-78.5 311,-78.5"/>
<text text-anchor="start" x="319" y="-118.5" font-family="Helvetica,sans-Serif" font-size="10.00">/home/jonathan/Works</text>
<text text-anchor="start" x="319" y="-107.5" font-family="Helvetica,sans-Serif" font-size="10.00">/Tools/Triton/src/libtriton</text>
<text text-anchor="start" x="319" y="-96.5" font-family="Helvetica,sans-Serif" font-size="10.00">/bindings/python/objects</text>
<text text-anchor="middle" x="379" y="-85.5" font-family="Helvetica,sans-Serif" font-size="10.00">/pyTritonContext.cpp</text>
</a>
</g>
</g>
<!-- Node8&#45;&gt;Node9 -->
<g id="edge10" class="edge">
<title>Node8&#45;&gt;Node9</title>
<path fill="none" stroke="midnightblue" d="M599.09,-166.88C546,-154.16 482.78,-138.71 456,-131 453.16,-130.18 450.26,-129.33 447.35,-128.45"/>
<polygon fill="midnightblue" stroke="midnightblue" points="598.34,-170.3 608.88,-169.22 599.97,-163.49 598.34,-170.3"/>
</g>
<!-- Node10 -->
<g id="node10" class="node">
<title>Node10</title>
<g id="a_node10"><a xlink:href="callbacks_8cpp.html" target="_top" xlink:title=" ">
<polygon fill="white" stroke="black" points="465,-84 465,-125 599,-125 599,-84 465,-84"/>
<text text-anchor="start" x="473" y="-113" font-family="Helvetica,sans-Serif" font-size="10.00">/home/jonathan/Works</text>
<text text-anchor="start" x="473" y="-102" font-family="Helvetica,sans-Serif" font-size="10.00">/Tools/Triton/src/libtriton</text>
<text text-anchor="middle" x="532" y="-91" font-family="Helvetica,sans-Serif" font-size="10.00">/callbacks/callbacks.cpp</text>
</a>
</g>
</g>
<!-- Node8&#45;&gt;Node10 -->
<g id="edge11" class="edge">
<title>Node8&#45;&gt;Node10</title>
<path fill="none" stroke="midnightblue" d="M638.59,-162.65C616.15,-150.62 589.44,-136.3 568.37,-125"/>
<polygon fill="midnightblue" stroke="midnightblue" points="637.13,-165.84 647.59,-167.48 640.43,-159.67 637.13,-165.84"/>
</g>
<!-- Node11 -->
<g id="node11" class="node">
<title>Node11</title>
<g id="a_node11"><a xlink:href="context_8cpp.html" target="_top" xlink:title=" ">
<polygon fill="white" stroke="black" points="617.5,-84 617.5,-125 750.5,-125 750.5,-84 617.5,-84"/>
<text text-anchor="start" x="625.5" y="-113" font-family="Helvetica,sans-Serif" font-size="10.00">/home/jonathan/Works</text>
<text text-anchor="start" x="625.5" y="-102" font-family="Helvetica,sans-Serif" font-size="10.00">/Tools/Triton/src/libtriton</text>
<text text-anchor="middle" x="684" y="-91" font-family="Helvetica,sans-Serif" font-size="10.00">/context/context.cpp</text>
</a>
</g>
</g>
<!-- Node8&#45;&gt;Node11 -->
<g id="edge12" class="edge">
<title>Node8&#45;&gt;Node11</title>
<path fill="none" stroke="midnightblue" d="M684,-157.06C684,-146.38 684,-134.63 684,-125.05"/>
<polygon fill="midnightblue" stroke="midnightblue" points="680.5,-157.27 684,-167.27 687.5,-157.27 680.5,-157.27"/>
</g>
<!-- Node12 -->
<g id="node12" class="node">
<title>Node12</title>
<g id="a_node12"><a xlink:href="symbolicSimplification_8cpp.html" target="_top" xlink:title=" ">
<polygon fill="white" stroke="black" points="768.5,-84 768.5,-125 1007.5,-125 1007.5,-84 768.5,-84"/>
<text text-anchor="start" x="776.5" y="-113" font-family="Helvetica,sans-Serif" font-size="10.00">/home/jonathan/Works</text>
<text text-anchor="start" x="776.5" y="-102" font-family="Helvetica,sans-Serif" font-size="10.00">/Tools/Triton/src/libtriton</text>
<text text-anchor="middle" x="888" y="-91" font-family="Helvetica,sans-Serif" font-size="10.00">/engines/symbolic/symbolicSimplification.cpp</text>
</a>
</g>
</g>
<!-- Node8&#45;&gt;Node12 -->
<g id="edge13" class="edge">
<title>Node8&#45;&gt;Node12</title>
<path fill="none" stroke="midnightblue" d="M742.16,-163.77C772.83,-151.51 810.03,-136.65 839.18,-125"/>
<polygon fill="midnightblue" stroke="midnightblue" points="740.85,-160.52 732.86,-167.48 743.45,-167.02 740.85,-160.52"/>
</g>
<!-- Node13 -->
<g id="node13" class="node">
<title>Node13</title>
<g id="a_node13"><a xlink:href="llvmToTriton_8hpp.html" target="_top" xlink:title=" ">
<polygon fill="white" stroke="black" points="1025.5,-84 1025.5,-125 1198.5,-125 1198.5,-84 1025.5,-84"/>
<text text-anchor="start" x="1033.5" y="-113" font-family="Helvetica,sans-Serif" font-size="10.00">/home/jonathan/Works</text>
<text text-anchor="start" x="1033.5" y="-102" font-family="Helvetica,sans-Serif" font-size="10.00">/Tools/Triton/src/libtriton</text>
<text text-anchor="middle" x="1112" y="-91" font-family="Helvetica,sans-Serif" font-size="10.00">/includes/triton/llvmToTriton.hpp</text>
</a>
</g>
</g>
<!-- Node8&#45;&gt;Node13 -->
<g id="edge14" class="edge">
<title>Node8&#45;&gt;Node13</title>
<path fill="none" stroke="midnightblue" d="M768.92,-166.92C879.58,-146.43 910.58,-152.9 1017,-131 1025.45,-129.26 1034.26,-127.22 1042.96,-125.05"/>
<polygon fill="midnightblue" stroke="midnightblue" points="768.21,-163.49 759.03,-168.78 769.51,-170.37 768.21,-163.49"/>
</g>
<!-- Node14 -->
<g id="node14" class="node">
<title>Node14</title>
<g id="a_node14"><a xlink:href="llvmToTriton_8cpp.html" target="_top" xlink:title=" ">
<polygon fill="white" stroke="black" points="952,-0.5 952,-41.5 1094,-41.5 1094,-0.5 952,-0.5"/>
<text text-anchor="start" x="960" y="-29.5" font-family="Helvetica,sans-Serif" font-size="10.00">/home/jonathan/Works</text>
<text text-anchor="start" x="960" y="-18.5" font-family="Helvetica,sans-Serif" font-size="10.00">/Tools/Triton/src/libtriton</text>
<text text-anchor="middle" x="1023" y="-7.5" font-family="Helvetica,sans-Serif" font-size="10.00">/ast/llvm/llvmToTriton.cpp</text>
</a>
</g>
</g>
<!-- Node13&#45;&gt;Node14 -->
<g id="edge15" class="edge">
<title>Node13&#45;&gt;Node14</title>
<path fill="none" stroke="midnightblue" d="M1082.91,-76.86C1070.34,-65.35 1055.9,-52.13 1044.35,-41.55"/>
<polygon fill="midnightblue" stroke="midnightblue" points="1080.72,-79.6 1090.46,-83.77 1085.44,-74.44 1080.72,-79.6"/>
</g>
<!-- Node15 -->
<g id="node15" class="node">
<title>Node15</title>
<g id="a_node15"><a xlink:href="liftingToLLVM_8cpp.html" target="_top" xlink:title=" ">
<polygon fill="white" stroke="black" points="1112,-0.5 1112,-41.5 1288,-41.5 1288,-0.5 1112,-0.5"/>
<text text-anchor="start" x="1120" y="-29.5" font-family="Helvetica,sans-Serif" font-size="10.00">/home/jonathan/Works</text>
<text text-anchor="start" x="1120" y="-18.5" font-family="Helvetica,sans-Serif" font-size="10.00">/Tools/Triton/src/libtriton</text>
<text text-anchor="middle" x="1200" y="-7.5" font-family="Helvetica,sans-Serif" font-size="10.00">/engines/lifters/liftingToLLVM.cpp</text>
</a>
</g>
</g>
<!-- Node13&#45;&gt;Node15 -->
<g id="edge16" class="edge">
<title>Node13&#45;&gt;Node15</title>
<path fill="none" stroke="midnightblue" d="M1140.76,-76.86C1153.19,-65.35 1167.47,-52.13 1178.89,-41.55"/>
<polygon fill="midnightblue" stroke="midnightblue" points="1138.26,-74.41 1133.3,-83.77 1143.02,-79.54 1138.26,-74.41"/>
</g>
<!-- Node16&#45;&gt;Node4 -->
<g id="edge18" class="edge">
<title>Node16&#45;&gt;Node4</title>
<path fill="none" stroke="midnightblue" d="M707.97,-242.57C670.67,-231.71 626.34,-218.8 590.53,-208.37"/>
<polygon fill="midnightblue" stroke="midnightblue" points="707.21,-245.99 717.79,-245.43 709.16,-239.27 707.21,-245.99"/>
</g>
<!-- Node17 -->
<g id="node17" class="node">
<title>Node17</title>
<g id="a_node17"><a xlink:href="x86Semantics_8cpp.html" target="_top" xlink:title=" ">
<polygon fill="white" stroke="black" points="777,-167.5 777,-208.5 931,-208.5 931,-167.5 777,-167.5"/>
<text text-anchor="start" x="785" y="-196.5" font-family="Helvetica,sans-Serif" font-size="10.00">/home/jonathan/Works</text>
<text text-anchor="start" x="785" y="-185.5" font-family="Helvetica,sans-Serif" font-size="10.00">/Tools/Triton/src/libtriton</text>
<text text-anchor="middle" x="854" y="-174.5" font-family="Helvetica,sans-Serif" font-size="10.00">/arch/x86/x86Semantics.cpp</text>
</a>
</g>
</g>
<!-- Node16&#45;&gt;Node17 -->
<g id="edge19" class="edge">
<title>Node16&#45;&gt;Node17</title>
<path fill="none" stroke="midnightblue" d="M809.59,-237.92C818.41,-228.2 828.17,-217.45 836.29,-208.51"/>
<polygon fill="midnightblue" stroke="midnightblue" points="806.9,-235.67 802.77,-245.43 812.08,-240.38 806.9,-235.67"/>
</g>
</g>
</svg>
