<?xml version="1.0" encoding="UTF-8" standalone="no"?>
<!DOCTYPE svg PUBLIC "-//W3C//DTD SVG 1.1//EN"
 "http://www.w3.org/Graphics/SVG/1.1/DTD/svg11.dtd">
<!-- Generated by graphviz version 12.1.0 (20240811.2233)
 -->
<!-- Title: /Users/jonathan/Works/Tools/Triton/src/libtriton/includes/triton/semanticsInterface.hpp Pages: 1 -->
<svg width="1179pt" height="372pt"
 viewBox="0.00 0.00 1178.75 372.00" xmlns="http://www.w3.org/2000/svg" xmlns:xlink="http://www.w3.org/1999/xlink">
<g id="graph0" class="graph" transform="scale(1 1) rotate(0) translate(4 368)">
<title>/Users/jonathan/Works/Tools/Triton/src/libtriton/includes/triton/semanticsInterface.hpp</title>
<!-- Node1 -->
<g id="Node000001" class="node">
<title>Node1</title>
<g id="a_Node000001"><a xlink:title=" ">
<polygon fill="#999999" stroke="#666666" points="628.12,-364 443.38,-364 443.38,-322.25 628.12,-322.25 628.12,-364"/>
<text text-anchor="start" x="451.38" y="-350.5" font-family="Helvetica,sans-Serif" font-size="10.00">/Users/jonathan/Works</text>
<text text-anchor="start" x="451.38" y="-339.25" font-family="Helvetica,sans-Serif" font-size="10.00">/Tools/Triton/src/libtriton</text>
<text text-anchor="middle" x="535.75" y="-328" font-family="Helvetica,sans-Serif" font-size="10.00">/includes/triton/semanticsInterface.hpp</text>
</a>
</g>
</g>
<!-- Node2 -->
<g id="Node000002" class="node">
<title>Node2</title>
<g id="a_Node000002"><a xlink:href="aarch64Semantics_8hpp.html" target="_top" xlink:title=" ">
<polygon fill="white" stroke="#666666" points="256,-286.25 73.5,-286.25 73.5,-244.5 256,-244.5 256,-286.25"/>
<text text-anchor="start" x="81.5" y="-272.75" font-family="Helvetica,sans-Serif" font-size="10.00">/Users/jonathan/Works</text>
<text text-anchor="start" x="81.5" y="-261.5" font-family="Helvetica,sans-Serif" font-size="10.00">/Tools/Triton/src/libtriton</text>
<text text-anchor="middle" x="164.75" y="-250.25" font-family="Helvetica,sans-Serif" font-size="10.00">/includes/triton/aarch64Semantics.hpp</text>
</a>
</g>
</g>
<!-- Node1&#45;&gt;Node2 -->
<g id="edge1_Node000001_Node000002" class="edge">
<title>Node1&#45;&gt;Node2</title>
<g id="a_edge1_Node000001_Node000002"><a xlink:title=" ">
<path fill="none" stroke="#63b8ff" d="M431.86,-320.91C376.67,-309.64 309.44,-295.92 256.23,-285.05"/>
<polygon fill="#63b8ff" stroke="#63b8ff" points="431.11,-324.33 441.61,-322.9 432.51,-317.47 431.11,-324.33"/>
</a>
</g>
</g>
<!-- Node5 -->
<g id="Node000005" class="node">
<title>Node5</title>
<g id="a_Node000005"><a xlink:href="arm32Semantics_8hpp.html" target="_top" xlink:title=" ">
<polygon fill="white" stroke="#666666" points="449.25,-286.25 274.25,-286.25 274.25,-244.5 449.25,-244.5 449.25,-286.25"/>
<text text-anchor="start" x="282.25" y="-272.75" font-family="Helvetica,sans-Serif" font-size="10.00">/Users/jonathan/Works</text>
<text text-anchor="start" x="282.25" y="-261.5" font-family="Helvetica,sans-Serif" font-size="10.00">/Tools/Triton/src/libtriton</text>
<text text-anchor="middle" x="361.75" y="-250.25" font-family="Helvetica,sans-Serif" font-size="10.00">/includes/triton/arm32Semantics.hpp</text>
</a>
</g>
</g>
<!-- Node1&#45;&gt;Node5 -->
<g id="edge4_Node000001_Node000005" class="edge">
<title>Node1&#45;&gt;Node5</title>
<g id="a_edge4_Node000001_Node000005"><a xlink:title=" ">
<path fill="none" stroke="#63b8ff" d="M478.59,-317.24C455.88,-307.35 430.08,-296.12 408.51,-286.73"/>
<polygon fill="#63b8ff" stroke="#63b8ff" points="477.17,-320.44 487.73,-321.22 479.96,-314.02 477.17,-320.44"/>
</a>
</g>
</g>
<!-- Node7 -->
<g id="Node000007" class="node">
<title>Node7</title>
<g id="a_Node000007"><a xlink:href="irBuilder_8hpp.html" target="_top" xlink:title=" ">
<polygon fill="white" stroke="#666666" points="603.75,-286.25 467.75,-286.25 467.75,-244.5 603.75,-244.5 603.75,-286.25"/>
<text text-anchor="start" x="475.75" y="-272.75" font-family="Helvetica,sans-Serif" font-size="10.00">/Users/jonathan/Works</text>
<text text-anchor="start" x="475.75" y="-261.5" font-family="Helvetica,sans-Serif" font-size="10.00">/Tools/Triton/src/libtriton</text>
<text text-anchor="middle" x="535.75" y="-250.25" font-family="Helvetica,sans-Serif" font-size="10.00">/includes/triton/irBuilder.hpp</text>
</a>
</g>
</g>
<!-- Node1&#45;&gt;Node7 -->
<g id="edge7_Node000001_Node000007" class="edge">
<title>Node1&#45;&gt;Node7</title>
<g id="a_edge7_Node000001_Node000007"><a xlink:title=" ">
<path fill="none" stroke="#63b8ff" d="M535.75,-310.5C535.75,-302.46 535.75,-294.04 535.75,-286.73"/>
<polygon fill="#63b8ff" stroke="#63b8ff" points="532.25,-310.31 535.75,-320.31 539.25,-310.31 532.25,-310.31"/>
</a>
</g>
</g>
<!-- Node16 -->
<g id="Node000016" class="node">
<title>Node16</title>
<g id="a_Node000016"><a xlink:href="riscvSemantics_8hpp.html" target="_top" xlink:title=" ">
<polygon fill="white" stroke="#666666" points="791.25,-286.25 622.25,-286.25 622.25,-244.5 791.25,-244.5 791.25,-286.25"/>
<text text-anchor="start" x="630.25" y="-272.75" font-family="Helvetica,sans-Serif" font-size="10.00">/Users/jonathan/Works</text>
<text text-anchor="start" x="630.25" y="-261.5" font-family="Helvetica,sans-Serif" font-size="10.00">/Tools/Triton/src/libtriton</text>
<text text-anchor="middle" x="706.75" y="-250.25" font-family="Helvetica,sans-Serif" font-size="10.00">/includes/triton/riscvSemantics.hpp</text>
</a>
</g>
</g>
<!-- Node1&#45;&gt;Node16 -->
<g id="edge17_Node000001_Node000016" class="edge">
<title>Node1&#45;&gt;Node16</title>
<g id="a_edge17_Node000001_Node000016"><a xlink:title=" ">
<path fill="none" stroke="#63b8ff" d="M591.92,-317.24C614.25,-307.35 639.6,-296.12 660.8,-286.73"/>
<polygon fill="#63b8ff" stroke="#63b8ff" points="590.68,-313.96 582.96,-321.21 593.52,-320.36 590.68,-313.96"/>
</a>
</g>
</g>
<!-- Node18 -->
<g id="Node000018" class="node">
<title>Node18</title>
<g id="a_Node000018"><a xlink:href="x86Semantics_8hpp.html" target="_top" xlink:title=" ">
<polygon fill="white" stroke="#666666" points="972.62,-286.25 808.88,-286.25 808.88,-244.5 972.62,-244.5 972.62,-286.25"/>
<text text-anchor="start" x="816.88" y="-272.75" font-family="Helvetica,sans-Serif" font-size="10.00">/Users/jonathan/Works</text>
<text text-anchor="start" x="816.88" y="-261.5" font-family="Helvetica,sans-Serif" font-size="10.00">/Tools/Triton/src/libtriton</text>
<text text-anchor="middle" x="890.75" y="-250.25" font-family="Helvetica,sans-Serif" font-size="10.00">/includes/triton/x86Semantics.hpp</text>
</a>
</g>
</g>
<!-- Node1&#45;&gt;Node18 -->
<g id="edge20_Node000001_Node000018" class="edge">
<title>Node1&#45;&gt;Node18</title>
<g id="a_edge20_Node000001_Node000018"><a xlink:title=" ">
<path fill="none" stroke="#63b8ff" d="M639.63,-320.46C688.54,-310.2 747.66,-297.71 800.75,-286.25 803.41,-285.68 806.11,-285.09 808.84,-284.5"/>
<polygon fill="#63b8ff" stroke="#63b8ff" points="638.94,-317.03 629.87,-322.51 640.38,-323.88 638.94,-317.03"/>
</a>
</g>
</g>
<!-- Node3 -->
<g id="Node000003" class="node">
<title>Node3</title>
<g id="a_Node000003"><a xlink:href="aarch64Semantics_8cpp.html" target="_top" xlink:title=" ">
<polygon fill="white" stroke="#666666" points="197.5,-208.5 0,-208.5 0,-166.75 197.5,-166.75 197.5,-208.5"/>
<text text-anchor="start" x="8" y="-195" font-family="Helvetica,sans-Serif" font-size="10.00">/Users/jonathan/Works</text>
<text text-anchor="start" x="8" y="-183.75" font-family="Helvetica,sans-Serif" font-size="10.00">/Tools/Triton/src/libtriton</text>
<text text-anchor="middle" x="98.75" y="-172.5" font-family="Helvetica,sans-Serif" font-size="10.00">/arch/arm/aarch64/aarch64Semantics.cpp</text>
</a>
</g>
</g>
<!-- Node2&#45;&gt;Node3 -->
<g id="edge2_Node000002_Node000003" class="edge">
<title>Node2&#45;&gt;Node3</title>
<g id="a_edge2_Node000002_Node000003"><a xlink:title=" ">
<path fill="none" stroke="#63b8ff" d="M139.62,-235.54C131.91,-226.69 123.59,-217.14 116.49,-208.98"/>
<polygon fill="#63b8ff" stroke="#63b8ff" points="136.86,-237.69 146.07,-242.93 142.14,-233.1 136.86,-237.69"/>
</a>
</g>
</g>
<!-- Node4 -->
<g id="Node000004" class="node">
<title>Node4</title>
<g id="a_Node000004"><a xlink:href="irBuilder_8cpp.html" target="_top" xlink:title=" ">
<polygon fill="white" stroke="#666666" points="537.25,-208.5 416.25,-208.5 416.25,-166.75 537.25,-166.75 537.25,-208.5"/>
<text text-anchor="start" x="424.25" y="-195" font-family="Helvetica,sans-Serif" font-size="10.00">/Users/jonathan/Works</text>
<text text-anchor="start" x="424.25" y="-183.75" font-family="Helvetica,sans-Serif" font-size="10.00">/Tools/Triton/src/libtriton</text>
<text text-anchor="middle" x="476.75" y="-172.5" font-family="Helvetica,sans-Serif" font-size="10.00">/arch/irBuilder.cpp</text>
</a>
</g>
</g>
<!-- Node2&#45;&gt;Node4 -->
<g id="edge3_Node000002_Node000004" class="edge">
<title>Node2&#45;&gt;Node4</title>
<g id="a_edge3_Node000002_Node000004"><a xlink:title=" ">
<path fill="none" stroke="#63b8ff" d="M267.46,-241.85C310.59,-232.08 361.23,-220.21 406.75,-208.5 409.81,-207.71 412.94,-206.89 416.09,-206.05"/>
<polygon fill="#63b8ff" stroke="#63b8ff" points="266.83,-238.4 257.84,-244.02 268.37,-245.23 266.83,-238.4"/>
</a>
</g>
</g>
<!-- Node5&#45;&gt;Node4 -->
<g id="edge6_Node000005_Node000004" class="edge">
<title>Node5&#45;&gt;Node4</title>
<g id="a_edge6_Node000005_Node000004"><a xlink:title=" ">
<path fill="none" stroke="#63b8ff" d="M401.78,-238.01C416.23,-228.49 432.3,-217.9 445.85,-208.98"/>
<polygon fill="#63b8ff" stroke="#63b8ff" points="400.26,-234.82 393.83,-243.24 404.11,-240.66 400.26,-234.82"/>
</a>
</g>
</g>
<!-- Node6 -->
<g id="Node000006" class="node">
<title>Node6</title>
<g id="a_Node000006"><a xlink:href="arm32Semantics_8cpp.html" target="_top" xlink:title=" ">
<polygon fill="white" stroke="#666666" points="398,-208.5 215.5,-208.5 215.5,-166.75 398,-166.75 398,-208.5"/>
<text text-anchor="start" x="223.5" y="-195" font-family="Helvetica,sans-Serif" font-size="10.00">/Users/jonathan/Works</text>
<text text-anchor="start" x="223.5" y="-183.75" font-family="Helvetica,sans-Serif" font-size="10.00">/Tools/Triton/src/libtriton</text>
<text text-anchor="middle" x="306.75" y="-172.5" font-family="Helvetica,sans-Serif" font-size="10.00">/arch/arm/arm32/arm32Semantics.cpp</text>
</a>
</g>
</g>
<!-- Node5&#45;&gt;Node6 -->
<g id="edge5_Node000005_Node000006" class="edge">
<title>Node5&#45;&gt;Node6</title>
<g id="a_edge5_Node000005_Node000006"><a xlink:title=" ">
<path fill="none" stroke="#63b8ff" d="M340.41,-234.98C334.1,-226.29 327.33,-216.97 321.53,-208.98"/>
<polygon fill="#63b8ff" stroke="#63b8ff" points="337.41,-236.82 346.12,-242.85 343.08,-232.7 337.41,-236.82"/>
</a>
</g>
</g>
<!-- Node7&#45;&gt;Node4 -->
<g id="edge8_Node000007_Node000004" class="edge">
<title>Node7&#45;&gt;Node4</title>
<g id="a_edge8_Node000007_Node000004"><a xlink:title=" ">
<path fill="none" stroke="#63b8ff" d="M513.07,-235.26C506.24,-226.49 498.89,-217.05 492.6,-208.98"/>
<polygon fill="#63b8ff" stroke="#63b8ff" points="510.1,-237.14 519.01,-242.88 515.63,-232.84 510.1,-237.14"/>
</a>
</g>
</g>
<!-- Node8 -->
<g id="Node000008" class="node">
<title>Node8</title>
<g id="a_Node000008"><a xlink:href="context_8hpp.html" target="_top" xlink:title=" ">
<polygon fill="white" stroke="#666666" points="688.62,-208.5 554.88,-208.5 554.88,-166.75 688.62,-166.75 688.62,-208.5"/>
<text text-anchor="start" x="562.88" y="-195" font-family="Helvetica,sans-Serif" font-size="10.00">/Users/jonathan/Works</text>
<text text-anchor="start" x="562.88" y="-183.75" font-family="Helvetica,sans-Serif" font-size="10.00">/Tools/Triton/src/libtriton</text>
<text text-anchor="middle" x="621.75" y="-172.5" font-family="Helvetica,sans-Serif" font-size="10.00">/includes/triton/context.hpp</text>
</a>
</g>
</g>
<!-- Node7&#45;&gt;Node8 -->
<g id="edge9_Node000007_Node000008" class="edge">
<title>Node7&#45;&gt;Node8</title>
<g id="a_edge9_Node000007_Node000008"><a xlink:title=" ">
<path fill="none" stroke="#63b8ff" d="M567.24,-236.64C577.63,-227.48 588.99,-217.48 598.64,-208.98"/>
<polygon fill="#63b8ff" stroke="#63b8ff" points="565.12,-233.84 559.93,-243.07 569.75,-239.09 565.12,-233.84"/>
</a>
</g>
</g>
<!-- Node9 -->
<g id="Node000009" class="node">
<title>Node9</title>
<g id="a_Node000009"><a xlink:href="pyTritonContext_8cpp.html" target="_top" xlink:title=" ">
<polygon fill="white" stroke="#666666" points="401.62,-130.75 279.88,-130.75 279.88,-77.75 401.62,-77.75 401.62,-130.75"/>
<text text-anchor="start" x="287.88" y="-117.25" font-family="Helvetica,sans-Serif" font-size="10.00">/Users/jonathan/Works</text>
<text text-anchor="start" x="287.88" y="-106" font-family="Helvetica,sans-Serif" font-size="10.00">/Tools/Triton/src/libtriton</text>
<text text-anchor="start" x="287.88" y="-94.75" font-family="Helvetica,sans-Serif" font-size="10.00">/bindings/python/objects</text>
<text text-anchor="middle" x="340.75" y="-83.5" font-family="Helvetica,sans-Serif" font-size="10.00">/pyTritonContext.cpp</text>
</a>
</g>
</g>
<!-- Node8&#45;&gt;Node9 -->
<g id="edge10_Node000008_Node000009" class="edge">
<title>Node8&#45;&gt;Node9</title>
<g id="a_edge10_Node000008_Node000009"><a xlink:title=" ">
<path fill="none" stroke="#63b8ff" d="M543.56,-165.93C484.37,-150.54 467.03,-148.41 410.75,-130.75 407.91,-129.86 405.02,-128.92 402.1,-127.96"/>
<polygon fill="#63b8ff" stroke="#63b8ff" points="542.67,-169.32 553.23,-168.47 544.44,-162.55 542.67,-169.32"/>
</a>
</g>
</g>
<!-- Node10 -->
<g id="Node000010" class="node">
<title>Node10</title>
<g id="a_Node000010"><a xlink:href="callbacks_8cpp.html" target="_top" xlink:title=" ">
<polygon fill="white" stroke="#666666" points="543.38,-125.12 420.12,-125.12 420.12,-83.38 543.38,-83.38 543.38,-125.12"/>
<text text-anchor="start" x="428.12" y="-111.62" font-family="Helvetica,sans-Serif" font-size="10.00">/Users/jonathan/Works</text>
<text text-anchor="start" x="428.12" y="-100.38" font-family="Helvetica,sans-Serif" font-size="10.00">/Tools/Triton/src/libtriton</text>
<text text-anchor="middle" x="481.75" y="-89.12" font-family="Helvetica,sans-Serif" font-size="10.00">/callbacks/callbacks.cpp</text>
</a>
</g>
</g>
<!-- Node8&#45;&gt;Node10 -->
<g id="edge11_Node000008_Node000010" class="edge">
<title>Node8&#45;&gt;Node10</title>
<g id="a_edge11_Node000008_Node000010"><a xlink:title=" ">
<path fill="none" stroke="#63b8ff" d="M576.91,-160.56C557.44,-149.24 534.97,-136.18 516.76,-125.6"/>
<polygon fill="#63b8ff" stroke="#63b8ff" points="575.07,-163.54 585.47,-165.54 578.59,-157.49 575.07,-163.54"/>
</a>
</g>
</g>
<!-- Node11 -->
<g id="Node000011" class="node">
<title>Node11</title>
<g id="a_Node000011"><a xlink:href="context_8cpp.html" target="_top" xlink:title=" ">
<polygon fill="white" stroke="#666666" points="682.25,-125.12 561.25,-125.12 561.25,-83.38 682.25,-83.38 682.25,-125.12"/>
<text text-anchor="start" x="569.25" y="-111.62" font-family="Helvetica,sans-Serif" font-size="10.00">/Users/jonathan/Works</text>
<text text-anchor="start" x="569.25" y="-100.38" font-family="Helvetica,sans-Serif" font-size="10.00">/Tools/Triton/src/libtriton</text>
<text text-anchor="middle" x="621.75" y="-89.12" font-family="Helvetica,sans-Serif" font-size="10.00">/context/context.cpp</text>
</a>
</g>
</g>
<!-- Node8&#45;&gt;Node11 -->
<g id="edge12_Node000008_Node000011" class="edge">
<title>Node8&#45;&gt;Node11</title>
<g id="a_edge12_Node000008_Node000011"><a xlink:title=" ">
<path fill="none" stroke="#63b8ff" d="M621.75,-155.27C621.75,-145.24 621.75,-134.42 621.75,-125.42"/>
<polygon fill="#63b8ff" stroke="#63b8ff" points="618.25,-155 621.75,-165 625.25,-155 618.25,-155"/>
</a>
</g>
</g>
<!-- Node12 -->
<g id="Node000012" class="node">
<title>Node12</title>
<g id="a_Node000012"><a xlink:href="symbolicSimplification_8cpp.html" target="_top" xlink:title=" ">
<polygon fill="white" stroke="#666666" points="914.75,-125.12 700.75,-125.12 700.75,-83.38 914.75,-83.38 914.75,-125.12"/>
<text text-anchor="start" x="708.75" y="-111.62" font-family="Helvetica,sans-Serif" font-size="10.00">/Users/jonathan/Works</text>
<text text-anchor="start" x="708.75" y="-100.38" font-family="Helvetica,sans-Serif" font-size="10.00">/Tools/Triton/src/libtriton</text>
<text text-anchor="middle" x="807.75" y="-89.12" font-family="Helvetica,sans-Serif" font-size="10.00">/engines/symbolic/symbolicSimplification.cpp</text>
</a>
</g>
</g>
<!-- Node8&#45;&gt;Node12 -->
<g id="edge13_Node000008_Node000012" class="edge">
<title>Node8&#45;&gt;Node12</title>
<g id="a_edge13_Node000008_Node000012"><a xlink:title=" ">
<path fill="none" stroke="#63b8ff" d="M678.49,-161.8C704.99,-150.21 736.16,-136.57 761.24,-125.6"/>
<polygon fill="#63b8ff" stroke="#63b8ff" points="677.35,-158.48 669.59,-165.69 680.16,-164.89 677.35,-158.48"/>
</a>
</g>
</g>
<!-- Node13 -->
<g id="Node000013" class="node">
<title>Node13</title>
<g id="a_Node000013"><a xlink:href="llvmToTriton_8hpp.html" target="_top" xlink:title=" ">
<polygon fill="white" stroke="#666666" points="1087.12,-125.12 932.38,-125.12 932.38,-83.38 1087.12,-83.38 1087.12,-125.12"/>
<text text-anchor="start" x="940.38" y="-111.62" font-family="Helvetica,sans-Serif" font-size="10.00">/Users/jonathan/Works</text>
<text text-anchor="start" x="940.38" y="-100.38" font-family="Helvetica,sans-Serif" font-size="10.00">/Tools/Triton/src/libtriton</text>
<text text-anchor="middle" x="1009.75" y="-89.12" font-family="Helvetica,sans-Serif" font-size="10.00">/includes/triton/llvmToTriton.hpp</text>
</a>
</g>
</g>
<!-- Node8&#45;&gt;Node13 -->
<g id="edge14_Node000008_Node000013" class="edge">
<title>Node8&#45;&gt;Node13</title>
<g id="a_edge14_Node000008_Node000013"><a xlink:title=" ">
<path fill="none" stroke="#63b8ff" d="M699.95,-166.41C799.3,-146.34 828.05,-152.46 923.75,-130.75 930.58,-129.2 937.67,-127.41 944.72,-125.5"/>
<polygon fill="#63b8ff" stroke="#63b8ff" points="699.37,-162.95 690.28,-168.4 700.79,-169.81 699.37,-162.95"/>
</a>
</g>
</g>
<!-- Node14 -->
<g id="Node000014" class="node">
<title>Node14</title>
<g id="a_Node000014"><a xlink:href="llvmToTriton_8cpp.html" target="_top" xlink:title=" ">
<polygon fill="white" stroke="#666666" points="993,-41.75 864.5,-41.75 864.5,0 993,0 993,-41.75"/>
<text text-anchor="start" x="872.5" y="-28.25" font-family="Helvetica,sans-Serif" font-size="10.00">/Users/jonathan/Works</text>
<text text-anchor="start" x="872.5" y="-17" font-family="Helvetica,sans-Serif" font-size="10.00">/Tools/Triton/src/libtriton</text>
<text text-anchor="middle" x="928.75" y="-5.75" font-family="Helvetica,sans-Serif" font-size="10.00">/ast/llvm/llvmToTriton.cpp</text>
</a>
</g>
</g>
<!-- Node13&#45;&gt;Node14 -->
<g id="edge15_Node000013_Node000014" class="edge">
<title>Node13&#45;&gt;Node14</title>
<g id="a_edge15_Node000013_Node000014"><a xlink:title=" ">
<path fill="none" stroke="#63b8ff" d="M981.76,-75.13C970.92,-64.24 958.76,-52.02 948.82,-42.04"/>
<polygon fill="#63b8ff" stroke="#63b8ff" points="979.12,-77.44 988.66,-82.06 984.09,-72.51 979.12,-77.44"/>
</a>
</g>
</g>
<!-- Node15 -->
<g id="Node000015" class="node">
<title>Node15</title>
<g id="a_Node000015"><a xlink:href="liftingToLLVM_8cpp.html" target="_top" xlink:title=" ">
<polygon fill="white" stroke="#666666" points="1170.75,-41.75 1010.75,-41.75 1010.75,0 1170.75,0 1170.75,-41.75"/>
<text text-anchor="start" x="1018.75" y="-28.25" font-family="Helvetica,sans-Serif" font-size="10.00">/Users/jonathan/Works</text>
<text text-anchor="start" x="1018.75" y="-17" font-family="Helvetica,sans-Serif" font-size="10.00">/Tools/Triton/src/libtriton</text>
<text text-anchor="middle" x="1090.75" y="-5.75" font-family="Helvetica,sans-Serif" font-size="10.00">/engines/lifters/liftingToLLVM.cpp</text>
</a>
</g>
</g>
<!-- Node13&#45;&gt;Node15 -->
<g id="edge16_Node000013_Node000015" class="edge">
<title>Node13&#45;&gt;Node15</title>
<g id="a_edge16_Node000013_Node000015"><a xlink:title=" ">
<path fill="none" stroke="#63b8ff" d="M1037.74,-75.13C1048.58,-64.24 1060.74,-52.02 1070.68,-42.04"/>
<polygon fill="#63b8ff" stroke="#63b8ff" points="1035.41,-72.51 1030.84,-82.06 1040.38,-77.44 1035.41,-72.51"/>
</a>
</g>
</g>
<!-- Node16&#45;&gt;Node4 -->
<g id="edge18_Node000016_Node000004" class="edge">
<title>Node16&#45;&gt;Node4</title>
<g id="a_edge18_Node000016_Node000004"><a xlink:title=" ">
<path fill="none" stroke="#63b8ff" d="M634.31,-240.52C603.13,-230.25 567.09,-218.38 537.36,-208.59"/>
<polygon fill="#63b8ff" stroke="#63b8ff" points="633.08,-243.8 643.68,-243.6 635.27,-237.15 633.08,-243.8"/>
</a>
</g>
</g>
<!-- Node17 -->
<g id="Node000017" class="node">
<title>Node17</title>
<g id="a_Node000017"><a xlink:href="riscvSemantics_8cpp.html" target="_top" xlink:title=" ">
<polygon fill="white" stroke="#666666" points="857.25,-208.5 706.25,-208.5 706.25,-166.75 857.25,-166.75 857.25,-208.5"/>
<text text-anchor="start" x="714.25" y="-195" font-family="Helvetica,sans-Serif" font-size="10.00">/Users/jonathan/Works</text>
<text text-anchor="start" x="714.25" y="-183.75" font-family="Helvetica,sans-Serif" font-size="10.00">/Tools/Triton/src/libtriton</text>
<text text-anchor="middle" x="781.75" y="-172.5" font-family="Helvetica,sans-Serif" font-size="10.00">/arch/riscv/riscvSemantics.cpp</text>
</a>
</g>
</g>
<!-- Node16&#45;&gt;Node17 -->
<g id="edge19_Node000016_Node000017" class="edge">
<title>Node16&#45;&gt;Node17</title>
<g id="a_edge19_Node000016_Node000017"><a xlink:title=" ">
<path fill="none" stroke="#63b8ff" d="M734.76,-236.09C743.67,-227.09 753.35,-217.31 761.6,-208.98"/>
<polygon fill="#63b8ff" stroke="#63b8ff" points="732.46,-233.43 727.91,-243 737.44,-238.36 732.46,-233.43"/>
</a>
</g>
</g>
<!-- Node18&#45;&gt;Node4 -->
<g id="edge21_Node000018_Node000004" class="edge">
<title>Node18&#45;&gt;Node4</title>
<g id="a_edge21_Node000018_Node000004"><a xlink:title=" ">
<path fill="none" stroke="#63b8ff" d="M797.38,-243.97C686.14,-224.63 654.19,-231.65 545.75,-208.5 543.07,-207.93 540.34,-207.31 537.59,-206.65"/>
<polygon fill="#63b8ff" stroke="#63b8ff" points="796.46,-247.36 806.91,-245.66 797.68,-240.47 796.46,-247.36"/>
</a>
</g>
</g>
<!-- Node19 -->
<g id="Node000019" class="node">
<title>Node19</title>
<g id="a_Node000019"><a xlink:href="x86Semantics_8cpp.html" target="_top" xlink:title=" ">
<polygon fill="white" stroke="#666666" points="1016,-208.5 875.5,-208.5 875.5,-166.75 1016,-166.75 1016,-208.5"/>
<text text-anchor="start" x="883.5" y="-195" font-family="Helvetica,sans-Serif" font-size="10.00">/Users/jonathan/Works</text>
<text text-anchor="start" x="883.5" y="-183.75" font-family="Helvetica,sans-Serif" font-size="10.00">/Tools/Triton/src/libtriton</text>
<text text-anchor="middle" x="945.75" y="-172.5" font-family="Helvetica,sans-Serif" font-size="10.00">/arch/x86/x86Semantics.cpp</text>
</a>
</g>
</g>
<!-- Node18&#45;&gt;Node19 -->
<g id="edge22_Node000018_Node000019" class="edge">
<title>Node18&#45;&gt;Node19</title>
<g id="a_edge22_Node000018_Node000019"><a xlink:title=" ">
<path fill="none" stroke="#63b8ff" d="M912.09,-234.98C918.4,-226.29 925.17,-216.97 930.97,-208.98"/>
<polygon fill="#63b8ff" stroke="#63b8ff" points="909.42,-232.7 906.38,-242.85 915.09,-236.82 909.42,-232.7"/>
</a>
</g>
</g>
</g>
</svg>
