<?xml version="1.0" encoding="UTF-8" standalone="no"?>
<!DOCTYPE svg PUBLIC "-//W3C//DTD SVG 1.1//EN"
 "http://www.w3.org/Graphics/SVG/1.1/DTD/svg11.dtd">
<!-- Generated by graphviz version 2.49.0 (20210828.1703)
 -->
<!-- Title: /home/jonathan/Works/Tools/Triton/src/libtriton/includes/triton/semanticsInterface.hpp Pages: 1 -->
<svg width="1288pt" height="373pt"
 viewBox="0.00 0.00 1288.00 373.00" xmlns="http://www.w3.org/2000/svg" xmlns:xlink="http://www.w3.org/1999/xlink">
<g id="graph0" class="graph" transform="scale(1 1) rotate(0) translate(4 369)">
<title>/home/jonathan/Works/Tools/Triton/src/libtriton/includes/triton/semanticsInterface.hpp</title>
<polygon fill="white" stroke="transparent" points="-4,4 -4,-369 1284,-369 1284,4 -4,4"/>
<!-- Node1 -->
<g id="node1" class="node">
<title>Node1</title>
<g id="a_node1"><a xlink:title=" ">
<polygon fill="#bfbfbf" stroke="black" points="390.5,-323.5 390.5,-364.5 597.5,-364.5 597.5,-323.5 390.5,-323.5"/>
<text text-anchor="start" x="398.5" y="-352.5" font-family="Helvetica,sans-Serif" font-size="10.00">/home/jonathan/Works</text>
<text text-anchor="start" x="398.5" y="-341.5" font-family="Helvetica,sans-Serif" font-size="10.00">/Tools/Triton/src/libtriton</text>
<text text-anchor="middle" x="494" y="-330.5" font-family="Helvetica,sans-Serif" font-size="10.00">/includes/triton/semanticsInterface.hpp</text>
</a>
</g>
</g>
<!-- Node2 -->
<g id="node2" class="node">
<title>Node2</title>
<g id="a_node2"><a xlink:href="aarch64Semantics_8hpp.html" target="_top" xlink:title=" ">
<polygon fill="white" stroke="black" points="79.5,-245.5 79.5,-286.5 282.5,-286.5 282.5,-245.5 79.5,-245.5"/>
<text text-anchor="start" x="87.5" y="-274.5" font-family="Helvetica,sans-Serif" font-size="10.00">/home/jonathan/Works</text>
<text text-anchor="start" x="87.5" y="-263.5" font-family="Helvetica,sans-Serif" font-size="10.00">/Tools/Triton/src/libtriton</text>
<text text-anchor="middle" x="181" y="-252.5" font-family="Helvetica,sans-Serif" font-size="10.00">/includes/triton/aarch64Semantics.hpp</text>
</a>
</g>
</g>
<!-- Node1&#45;&gt;Node2 -->
<g id="edge1" class="edge">
<title>Node1&#45;&gt;Node2</title>
<path fill="none" stroke="midnightblue" d="M403.65,-321.06C358.7,-310.15 304.83,-297.07 261.33,-286.51"/>
<polygon fill="midnightblue" stroke="midnightblue" points="402.85,-324.47 413.39,-323.43 404.5,-317.67 402.85,-324.47"/>
</g>
<!-- Node5 -->
<g id="node5" class="node">
<title>Node5</title>
<g id="a_node5"><a xlink:href="arm32Semantics_8hpp.html" target="_top" xlink:title=" ">
<polygon fill="white" stroke="black" points="300,-245.5 300,-286.5 496,-286.5 496,-245.5 300,-245.5"/>
<text text-anchor="start" x="308" y="-274.5" font-family="Helvetica,sans-Serif" font-size="10.00">/home/jonathan/Works</text>
<text text-anchor="start" x="308" y="-263.5" font-family="Helvetica,sans-Serif" font-size="10.00">/Tools/Triton/src/libtriton</text>
<text text-anchor="middle" x="398" y="-252.5" font-family="Helvetica,sans-Serif" font-size="10.00">/includes/triton/arm32Semantics.hpp</text>
</a>
</g>
</g>
<!-- Node1&#45;&gt;Node5 -->
<g id="edge4" class="edge">
<title>Node1&#45;&gt;Node5</title>
<path fill="none" stroke="midnightblue" d="M461.24,-317.06C448.6,-307.06 434.38,-295.8 422.64,-286.51"/>
<polygon fill="midnightblue" stroke="midnightblue" points="459.26,-319.97 469.28,-323.43 463.61,-314.48 459.26,-319.97"/>
</g>
<!-- Node7 -->
<g id="node7" class="node">
<title>Node7</title>
<g id="a_node7"><a xlink:href="irBuilder_8hpp.html" target="_top" xlink:title=" ">
<polygon fill="white" stroke="black" points="514,-245.5 514,-286.5 668,-286.5 668,-245.5 514,-245.5"/>
<text text-anchor="start" x="522" y="-274.5" font-family="Helvetica,sans-Serif" font-size="10.00">/home/jonathan/Works</text>
<text text-anchor="start" x="522" y="-263.5" font-family="Helvetica,sans-Serif" font-size="10.00">/Tools/Triton/src/libtriton</text>
<text text-anchor="middle" x="591" y="-252.5" font-family="Helvetica,sans-Serif" font-size="10.00">/includes/triton/irBuilder.hpp</text>
</a>
</g>
</g>
<!-- Node1&#45;&gt;Node7 -->
<g id="edge7" class="edge">
<title>Node1&#45;&gt;Node7</title>
<path fill="none" stroke="midnightblue" d="M527.1,-317.06C539.87,-307.06 554.24,-295.8 566.1,-286.51"/>
<polygon fill="midnightblue" stroke="midnightblue" points="524.69,-314.51 518.98,-323.43 529.01,-320.02 524.69,-314.51"/>
</g>
<!-- Node16 -->
<g id="node16" class="node">
<title>Node16</title>
<g id="a_node16"><a xlink:href="x86Semantics_8hpp.html" target="_top" xlink:title=" ">
<polygon fill="white" stroke="black" points="686,-245.5 686,-286.5 868,-286.5 868,-245.5 686,-245.5"/>
<text text-anchor="start" x="694" y="-274.5" font-family="Helvetica,sans-Serif" font-size="10.00">/home/jonathan/Works</text>
<text text-anchor="start" x="694" y="-263.5" font-family="Helvetica,sans-Serif" font-size="10.00">/Tools/Triton/src/libtriton</text>
<text text-anchor="middle" x="777" y="-252.5" font-family="Helvetica,sans-Serif" font-size="10.00">/includes/triton/x86Semantics.hpp</text>
</a>
</g>
</g>
<!-- Node1&#45;&gt;Node16 -->
<g id="edge17" class="edge">
<title>Node1&#45;&gt;Node16</title>
<path fill="none" stroke="midnightblue" d="M576.71,-320.79C617.15,-309.93 665.37,-296.98 704.37,-286.51"/>
<polygon fill="midnightblue" stroke="midnightblue" points="575.63,-317.45 566.88,-323.43 577.45,-324.21 575.63,-317.45"/>
</g>
<!-- Node3 -->
<g id="node3" class="node">
<title>Node3</title>
<g id="a_node3"><a xlink:href="aarch64Semantics_8cpp.html" target="_top" xlink:title=" ">
<polygon fill="white" stroke="black" points="0,-167.5 0,-208.5 218,-208.5 218,-167.5 0,-167.5"/>
<text text-anchor="start" x="8" y="-196.5" font-family="Helvetica,sans-Serif" font-size="10.00">/home/jonathan/Works</text>
<text text-anchor="start" x="8" y="-185.5" font-family="Helvetica,sans-Serif" font-size="10.00">/Tools/Triton/src/libtriton</text>
<text text-anchor="middle" x="109" y="-174.5" font-family="Helvetica,sans-Serif" font-size="10.00">/arch/arm/aarch64/aarch64Semantics.cpp</text>
</a>
</g>
</g>
<!-- Node2&#45;&gt;Node3 -->
<g id="edge2" class="edge">
<title>Node2&#45;&gt;Node3</title>
<path fill="none" stroke="midnightblue" d="M155.34,-237.92C146.14,-228.2 135.95,-217.45 127.48,-208.51"/>
<polygon fill="midnightblue" stroke="midnightblue" points="153.04,-240.58 162.46,-245.43 158.12,-235.76 153.04,-240.58"/>
</g>
<!-- Node4 -->
<g id="node4" class="node">
<title>Node4</title>
<g id="a_node4"><a xlink:href="irBuilder_8cpp.html" target="_top" xlink:title=" ">
<polygon fill="white" stroke="black" points="457.5,-167.5 457.5,-208.5 590.5,-208.5 590.5,-167.5 457.5,-167.5"/>
<text text-anchor="start" x="465.5" y="-196.5" font-family="Helvetica,sans-Serif" font-size="10.00">/home/jonathan/Works</text>
<text text-anchor="start" x="465.5" y="-185.5" font-family="Helvetica,sans-Serif" font-size="10.00">/Tools/Triton/src/libtriton</text>
<text text-anchor="middle" x="524" y="-174.5" font-family="Helvetica,sans-Serif" font-size="10.00">/arch/irBuilder.cpp</text>
</a>
</g>
</g>
<!-- Node2&#45;&gt;Node4 -->
<g id="edge3" class="edge">
<title>Node2&#45;&gt;Node4</title>
<path fill="none" stroke="midnightblue" d="M290.05,-243.43C338.54,-233.5 396.25,-221.23 448,-209 451.05,-208.28 454.17,-207.53 457.32,-206.75"/>
<polygon fill="midnightblue" stroke="midnightblue" points="289.27,-240.02 280.17,-245.44 290.67,-246.87 289.27,-240.02"/>
</g>
<!-- Node5&#45;&gt;Node4 -->
<g id="edge6" class="edge">
<title>Node5&#45;&gt;Node4</title>
<path fill="none" stroke="midnightblue" d="M439.11,-240.2C456.16,-229.92 475.66,-218.16 491.66,-208.51"/>
<polygon fill="midnightblue" stroke="midnightblue" points="437.2,-237.27 430.45,-245.43 440.82,-243.26 437.2,-237.27"/>
</g>
<!-- Node6 -->
<g id="node6" class="node">
<title>Node6</title>
<g id="a_node6"><a xlink:href="arm32Semantics_8cpp.html" target="_top" xlink:title=" ">
<polygon fill="white" stroke="black" points="236.5,-167.5 236.5,-208.5 439.5,-208.5 439.5,-167.5 236.5,-167.5"/>
<text text-anchor="start" x="244.5" y="-196.5" font-family="Helvetica,sans-Serif" font-size="10.00">/home/jonathan/Works</text>
<text text-anchor="start" x="244.5" y="-185.5" font-family="Helvetica,sans-Serif" font-size="10.00">/Tools/Triton/src/libtriton</text>
<text text-anchor="middle" x="338" y="-174.5" font-family="Helvetica,sans-Serif" font-size="10.00">/arch/arm/arm32/arm32Semantics.cpp</text>
</a>
</g>
</g>
<!-- Node5&#45;&gt;Node6 -->
<g id="edge5" class="edge">
<title>Node5&#45;&gt;Node6</title>
<path fill="none" stroke="midnightblue" d="M376.16,-237.34C368.61,-227.78 360.32,-217.27 353.4,-208.51"/>
<polygon fill="midnightblue" stroke="midnightblue" points="373.6,-239.75 382.55,-245.43 379.1,-235.41 373.6,-239.75"/>
</g>
<!-- Node7&#45;&gt;Node4 -->
<g id="edge8" class="edge">
<title>Node7&#45;&gt;Node4</title>
<path fill="none" stroke="midnightblue" d="M567.12,-237.92C558.56,-228.2 549.08,-217.45 541.2,-208.51"/>
<polygon fill="midnightblue" stroke="midnightblue" points="564.51,-240.24 573.75,-245.43 569.76,-235.61 564.51,-240.24"/>
</g>
<!-- Node8 -->
<g id="node8" class="node">
<title>Node8</title>
<g id="a_node8"><a xlink:href="api_8hpp.html" target="_top" xlink:title=" ">
<polygon fill="white" stroke="black" points="608.5,-167.5 608.5,-208.5 741.5,-208.5 741.5,-167.5 608.5,-167.5"/>
<text text-anchor="start" x="616.5" y="-196.5" font-family="Helvetica,sans-Serif" font-size="10.00">/home/jonathan/Works</text>
<text text-anchor="start" x="616.5" y="-185.5" font-family="Helvetica,sans-Serif" font-size="10.00">/Tools/Triton/src/libtriton</text>
<text text-anchor="middle" x="675" y="-174.5" font-family="Helvetica,sans-Serif" font-size="10.00">/includes/triton/api.hpp</text>
</a>
</g>
</g>
<!-- Node7&#45;&gt;Node8 -->
<g id="edge9" class="edge">
<title>Node7&#45;&gt;Node8</title>
<path fill="none" stroke="midnightblue" d="M620.3,-238.49C631.2,-228.63 643.36,-217.63 653.44,-208.51"/>
<polygon fill="midnightblue" stroke="midnightblue" points="617.7,-236.12 612.63,-245.43 622.4,-241.31 617.7,-236.12"/>
</g>
<!-- Node9 -->
<g id="node9" class="node">
<title>Node9</title>
<g id="a_node9"><a xlink:href="api_8cpp.html" target="_top" xlink:title=" ">
<polygon fill="white" stroke="black" points="302.5,-84 302.5,-125 435.5,-125 435.5,-84 302.5,-84"/>
<text text-anchor="start" x="310.5" y="-113" font-family="Helvetica,sans-Serif" font-size="10.00">/home/jonathan/Works</text>
<text text-anchor="start" x="310.5" y="-102" font-family="Helvetica,sans-Serif" font-size="10.00">/Tools/Triton/src/libtriton</text>
<text text-anchor="middle" x="369" y="-91" font-family="Helvetica,sans-Serif" font-size="10.00">/api/api.cpp</text>
</a>
</g>
</g>
<!-- Node8&#45;&gt;Node9 -->
<g id="edge10" class="edge">
<title>Node8&#45;&gt;Node9</title>
<path fill="none" stroke="midnightblue" d="M598.2,-166.85C529.05,-150.03 509.58,-149.34 445,-131 438.57,-129.18 431.89,-127.14 425.26,-125.03"/>
<polygon fill="midnightblue" stroke="midnightblue" points="597.75,-170.34 608.3,-169.34 599.42,-163.55 597.75,-170.34"/>
</g>
<!-- Node10 -->
<g id="node10" class="node">
<title>Node10</title>
<g id="a_node10"><a xlink:href="pyTritonContext_8cpp.html" target="_top" xlink:title=" ">
<polygon fill="white" stroke="black" points="454,-78.5 454,-130.5 590,-130.5 590,-78.5 454,-78.5"/>
<text text-anchor="start" x="462" y="-118.5" font-family="Helvetica,sans-Serif" font-size="10.00">/home/jonathan/Works</text>
<text text-anchor="start" x="462" y="-107.5" font-family="Helvetica,sans-Serif" font-size="10.00">/Tools/Triton/src/libtriton</text>
<text text-anchor="start" x="462" y="-96.5" font-family="Helvetica,sans-Serif" font-size="10.00">/bindings/python/objects</text>
<text text-anchor="middle" x="522" y="-85.5" font-family="Helvetica,sans-Serif" font-size="10.00">/pyTritonContext.cpp</text>
</a>
</g>
</g>
<!-- Node8&#45;&gt;Node10 -->
<g id="edge11" class="edge">
<title>Node8&#45;&gt;Node10</title>
<path fill="none" stroke="midnightblue" d="M629.29,-162.65C610.28,-152.53 588.23,-140.78 569.08,-130.58"/>
<polygon fill="midnightblue" stroke="midnightblue" points="627.88,-165.87 638.35,-167.48 631.17,-159.69 627.88,-165.87"/>
</g>
<!-- Node11 -->
<g id="node11" class="node">
<title>Node11</title>
<g id="a_node11"><a xlink:href="callbacks_8cpp.html" target="_top" xlink:title=" ">
<polygon fill="white" stroke="black" points="608,-84 608,-125 742,-125 742,-84 608,-84"/>
<text text-anchor="start" x="616" y="-113" font-family="Helvetica,sans-Serif" font-size="10.00">/home/jonathan/Works</text>
<text text-anchor="start" x="616" y="-102" font-family="Helvetica,sans-Serif" font-size="10.00">/Tools/Triton/src/libtriton</text>
<text text-anchor="middle" x="675" y="-91" font-family="Helvetica,sans-Serif" font-size="10.00">/callbacks/callbacks.cpp</text>
</a>
</g>
</g>
<!-- Node8&#45;&gt;Node11 -->
<g id="edge12" class="edge">
<title>Node8&#45;&gt;Node11</title>
<path fill="none" stroke="midnightblue" d="M675,-157.06C675,-146.38 675,-134.63 675,-125.05"/>
<polygon fill="midnightblue" stroke="midnightblue" points="671.5,-157.27 675,-167.27 678.5,-157.27 671.5,-157.27"/>
</g>
<!-- Node12 -->
<g id="node12" class="node">
<title>Node12</title>
<g id="a_node12"><a xlink:href="symbolicSimplification_8cpp.html" target="_top" xlink:title=" ">
<polygon fill="white" stroke="black" points="760.5,-84 760.5,-125 999.5,-125 999.5,-84 760.5,-84"/>
<text text-anchor="start" x="768.5" y="-113" font-family="Helvetica,sans-Serif" font-size="10.00">/home/jonathan/Works</text>
<text text-anchor="start" x="768.5" y="-102" font-family="Helvetica,sans-Serif" font-size="10.00">/Tools/Triton/src/libtriton</text>
<text text-anchor="middle" x="880" y="-91" font-family="Helvetica,sans-Serif" font-size="10.00">/engines/symbolic/symbolicSimplification.cpp</text>
</a>
</g>
</g>
<!-- Node8&#45;&gt;Node12 -->
<g id="edge13" class="edge">
<title>Node8&#45;&gt;Node12</title>
<path fill="none" stroke="midnightblue" d="M733.44,-163.77C764.26,-151.51 801.65,-136.65 830.94,-125"/>
<polygon fill="midnightblue" stroke="midnightblue" points="732.1,-160.53 724.1,-167.48 734.69,-167.04 732.1,-160.53"/>
</g>
<!-- Node13 -->
<g id="node13" class="node">
<title>Node13</title>
<g id="a_node13"><a xlink:href="llvmToTriton_8hpp.html" target="_top" xlink:title=" ">
<polygon fill="white" stroke="black" points="1017.5,-84 1017.5,-125 1190.5,-125 1190.5,-84 1017.5,-84"/>
<text text-anchor="start" x="1025.5" y="-113" font-family="Helvetica,sans-Serif" font-size="10.00">/home/jonathan/Works</text>
<text text-anchor="start" x="1025.5" y="-102" font-family="Helvetica,sans-Serif" font-size="10.00">/Tools/Triton/src/libtriton</text>
<text text-anchor="middle" x="1104" y="-91" font-family="Helvetica,sans-Serif" font-size="10.00">/includes/triton/llvmToTriton.hpp</text>
</a>
</g>
</g>
<!-- Node8&#45;&gt;Node13 -->
<g id="edge14" class="edge">
<title>Node8&#45;&gt;Node13</title>
<path fill="none" stroke="midnightblue" d="M751.5,-167.03C866.27,-144.74 898.64,-153.42 1009,-131 1017.53,-129.27 1026.44,-127.21 1035.23,-125.03"/>
<polygon fill="midnightblue" stroke="midnightblue" points="750.75,-163.61 741.62,-168.99 752.11,-170.48 750.75,-163.61"/>
</g>
<!-- Node14 -->
<g id="node14" class="node">
<title>Node14</title>
<g id="a_node14"><a xlink:href="llvmToTriton_8cpp.html" target="_top" xlink:title=" ">
<polygon fill="white" stroke="black" points="944,-0.5 944,-41.5 1086,-41.5 1086,-0.5 944,-0.5"/>
<text text-anchor="start" x="952" y="-29.5" font-family="Helvetica,sans-Serif" font-size="10.00">/home/jonathan/Works</text>
<text text-anchor="start" x="952" y="-18.5" font-family="Helvetica,sans-Serif" font-size="10.00">/Tools/Triton/src/libtriton</text>
<text text-anchor="middle" x="1015" y="-7.5" font-family="Helvetica,sans-Serif" font-size="10.00">/ast/llvm/llvmToTriton.cpp</text>
</a>
</g>
</g>
<!-- Node13&#45;&gt;Node14 -->
<g id="edge15" class="edge">
<title>Node13&#45;&gt;Node14</title>
<path fill="none" stroke="midnightblue" d="M1074.91,-76.86C1062.34,-65.35 1047.9,-52.13 1036.35,-41.55"/>
<polygon fill="midnightblue" stroke="midnightblue" points="1072.72,-79.6 1082.46,-83.77 1077.44,-74.44 1072.72,-79.6"/>
</g>
<!-- Node15 -->
<g id="node15" class="node">
<title>Node15</title>
<g id="a_node15"><a xlink:href="liftingToLLVM_8cpp.html" target="_top" xlink:title=" ">
<polygon fill="white" stroke="black" points="1104,-0.5 1104,-41.5 1280,-41.5 1280,-0.5 1104,-0.5"/>
<text text-anchor="start" x="1112" y="-29.5" font-family="Helvetica,sans-Serif" font-size="10.00">/home/jonathan/Works</text>
<text text-anchor="start" x="1112" y="-18.5" font-family="Helvetica,sans-Serif" font-size="10.00">/Tools/Triton/src/libtriton</text>
<text text-anchor="middle" x="1192" y="-7.5" font-family="Helvetica,sans-Serif" font-size="10.00">/engines/lifters/liftingToLLVM.cpp</text>
</a>
</g>
</g>
<!-- Node13&#45;&gt;Node15 -->
<g id="edge16" class="edge">
<title>Node13&#45;&gt;Node15</title>
<path fill="none" stroke="midnightblue" d="M1132.76,-76.86C1145.19,-65.35 1159.47,-52.13 1170.89,-41.55"/>
<polygon fill="midnightblue" stroke="midnightblue" points="1130.26,-74.41 1125.3,-83.77 1135.02,-79.54 1130.26,-74.41"/>
</g>
<!-- Node16&#45;&gt;Node4 -->
<g id="edge18" class="edge">
<title>Node16&#45;&gt;Node4</title>
<path fill="none" stroke="midnightblue" d="M701.91,-242.44C666,-231.66 623.43,-218.87 588.93,-208.51"/>
<polygon fill="midnightblue" stroke="midnightblue" points="701.26,-245.9 711.85,-245.43 703.28,-239.2 701.26,-245.9"/>
</g>
<!-- Node17 -->
<g id="node17" class="node">
<title>Node17</title>
<g id="a_node17"><a xlink:href="x86Semantics_8cpp.html" target="_top" xlink:title=" ">
<polygon fill="white" stroke="black" points="760,-167.5 760,-208.5 914,-208.5 914,-167.5 760,-167.5"/>
<text text-anchor="start" x="768" y="-196.5" font-family="Helvetica,sans-Serif" font-size="10.00">/home/jonathan/Works</text>
<text text-anchor="start" x="768" y="-185.5" font-family="Helvetica,sans-Serif" font-size="10.00">/Tools/Triton/src/libtriton</text>
<text text-anchor="middle" x="837" y="-174.5" font-family="Helvetica,sans-Serif" font-size="10.00">/arch/x86/x86Semantics.cpp</text>
</a>
</g>
</g>
<!-- Node16&#45;&gt;Node17 -->
<g id="edge19" class="edge">
<title>Node16&#45;&gt;Node17</title>
<path fill="none" stroke="midnightblue" d="M798.84,-237.34C806.39,-227.78 814.68,-217.27 821.6,-208.51"/>
<polygon fill="midnightblue" stroke="midnightblue" points="795.9,-235.41 792.45,-245.43 801.4,-239.75 795.9,-235.41"/>
</g>
</g>
</svg>
