<?xml version="1.0" encoding="UTF-8" standalone="no"?>
<!DOCTYPE svg PUBLIC "-//W3C//DTD SVG 1.1//EN"
 "http://www.w3.org/Graphics/SVG/1.1/DTD/svg11.dtd">
<!-- Generated by graphviz version 2.50.0 (20211204.2007)
 -->
<!-- Title: /home/jonathan/Works/Tools/Triton/src/libtriton/includes/triton/solverEnums.hpp Pages: 1 -->
<svg width="1086pt" height="629pt"
 viewBox="0.00 0.00 1086.00 629.00" xmlns="http://www.w3.org/2000/svg" xmlns:xlink="http://www.w3.org/1999/xlink">
<g id="graph0" class="graph" transform="scale(1 1) rotate(0) translate(4 625)">
<title>/home/jonathan/Works/Tools/Triton/src/libtriton/includes/triton/solverEnums.hpp</title>
<polygon fill="white" stroke="transparent" points="-4,4 -4,-625 1082,-625 1082,4 -4,4"/>
<!-- Node1 -->
<g id="node1" class="node">
<title>Node1</title>
<g id="a_node1"><a xlink:title=" ">
<polygon fill="#bfbfbf" stroke="black" points="328,-579.5 328,-620.5 504,-620.5 504,-579.5 328,-579.5"/>
<text text-anchor="start" x="336" y="-608.5" font-family="Helvetica,sans-Serif" font-size="10.00">/home/jonathan/Works</text>
<text text-anchor="start" x="336" y="-597.5" font-family="Helvetica,sans-Serif" font-size="10.00">/Tools/Triton/src/libtriton</text>
<text text-anchor="middle" x="416" y="-586.5" font-family="Helvetica,sans-Serif" font-size="10.00">/includes/triton/solverEnums.hpp</text>
</a>
</g>
</g>
<!-- Node2 -->
<g id="node2" class="node">
<title>Node2</title>
<g id="a_node2"><a xlink:href="initSolverNamespace_8cpp.html" target="_top" xlink:title=" ">
<polygon fill="white" stroke="black" points="0,-490.5 0,-542.5 162,-542.5 162,-490.5 0,-490.5"/>
<text text-anchor="start" x="8" y="-530.5" font-family="Helvetica,sans-Serif" font-size="10.00">/home/jonathan/Works</text>
<text text-anchor="start" x="8" y="-519.5" font-family="Helvetica,sans-Serif" font-size="10.00">/Tools/Triton/src/libtriton</text>
<text text-anchor="start" x="8" y="-508.5" font-family="Helvetica,sans-Serif" font-size="10.00">/bindings/python/namespaces</text>
<text text-anchor="middle" x="81" y="-497.5" font-family="Helvetica,sans-Serif" font-size="10.00">/initSolverNamespace.cpp</text>
</a>
</g>
</g>
<!-- Node1&#45;&gt;Node2 -->
<g id="edge1" class="edge">
<title>Node1&#45;&gt;Node2</title>
<path fill="none" stroke="midnightblue" d="M317.83,-577.77C272.94,-567.75 219.14,-555.31 171,-543 168.17,-542.28 165.29,-541.53 162.38,-540.76"/>
<polygon fill="midnightblue" stroke="midnightblue" points="317.33,-581.25 327.85,-580 318.85,-574.41 317.33,-581.25"/>
</g>
<!-- Node3 -->
<g id="node3" class="node">
<title>Node3</title>
<g id="a_node3"><a xlink:href="initSolverStateNamespace_8cpp.html" target="_top" xlink:title=" ">
<polygon fill="white" stroke="black" points="180,-490.5 180,-542.5 350,-542.5 350,-490.5 180,-490.5"/>
<text text-anchor="start" x="188" y="-530.5" font-family="Helvetica,sans-Serif" font-size="10.00">/home/jonathan/Works</text>
<text text-anchor="start" x="188" y="-519.5" font-family="Helvetica,sans-Serif" font-size="10.00">/Tools/Triton/src/libtriton</text>
<text text-anchor="start" x="188" y="-508.5" font-family="Helvetica,sans-Serif" font-size="10.00">/bindings/python/namespaces</text>
<text text-anchor="middle" x="265" y="-497.5" font-family="Helvetica,sans-Serif" font-size="10.00">/initSolverStateNamespace.cpp</text>
</a>
</g>
</g>
<!-- Node1&#45;&gt;Node3 -->
<g id="edge2" class="edge">
<title>Node1&#45;&gt;Node3</title>
<path fill="none" stroke="midnightblue" d="M370.89,-574.65C352.13,-564.53 330.36,-552.78 311.46,-542.58"/>
<polygon fill="midnightblue" stroke="midnightblue" points="369.37,-577.81 379.83,-579.48 372.69,-571.65 369.37,-577.81"/>
</g>
<!-- Node4 -->
<g id="node4" class="node">
<title>Node4</title>
<g id="a_node4"><a xlink:href="bitwuzlaSolver_8hpp.html" target="_top" xlink:title=" ">
<polygon fill="white" stroke="black" points="406.5,-412.5 406.5,-453.5 591.5,-453.5 591.5,-412.5 406.5,-412.5"/>
<text text-anchor="start" x="414.5" y="-441.5" font-family="Helvetica,sans-Serif" font-size="10.00">/home/jonathan/Works</text>
<text text-anchor="start" x="414.5" y="-430.5" font-family="Helvetica,sans-Serif" font-size="10.00">/Tools/Triton/src/libtriton</text>
<text text-anchor="middle" x="499" y="-419.5" font-family="Helvetica,sans-Serif" font-size="10.00">/includes/triton/bitwuzlaSolver.hpp</text>
</a>
</g>
</g>
<!-- Node1&#45;&gt;Node4 -->
<g id="edge3" class="edge">
<title>Node1&#45;&gt;Node4</title>
<path fill="none" stroke="midnightblue" d="M415.54,-568.99C416.42,-546.01 420.38,-514.25 434,-490 442.1,-475.58 455.39,-463.14 467.85,-453.67"/>
<polygon fill="midnightblue" stroke="midnightblue" points="412.03,-569.1 415.33,-579.18 419.03,-569.25 412.03,-569.1"/>
</g>
<!-- Node6 -->
<g id="node6" class="node">
<title>Node6</title>
<g id="a_node6"><a xlink:href="solverEngine_8hpp.html" target="_top" xlink:title=" ">
<polygon fill="white" stroke="black" points="560,-329 560,-370 736,-370 736,-329 560,-329"/>
<text text-anchor="start" x="568" y="-358" font-family="Helvetica,sans-Serif" font-size="10.00">/home/jonathan/Works</text>
<text text-anchor="start" x="568" y="-347" font-family="Helvetica,sans-Serif" font-size="10.00">/Tools/Triton/src/libtriton</text>
<text text-anchor="middle" x="648" y="-336" font-family="Helvetica,sans-Serif" font-size="10.00">/includes/triton/solverEngine.hpp</text>
</a>
</g>
</g>
<!-- Node1&#45;&gt;Node6 -->
<g id="edge19" class="edge">
<title>Node1&#45;&gt;Node6</title>
<path fill="none" stroke="midnightblue" d="M514.23,-586.03C566.25,-576.98 622.7,-562.92 639,-543 680.1,-492.77 664.08,-408.12 653.9,-370.06"/>
<polygon fill="midnightblue" stroke="midnightblue" points="513.51,-582.6 504.24,-587.72 514.68,-589.5 513.51,-582.6"/>
</g>
<!-- Node8 -->
<g id="node8" class="node">
<title>Node8</title>
<g id="a_node8"><a xlink:href="context_8hpp.html" target="_top" xlink:title=" ">
<polygon fill="white" stroke="black" points="399,-167.5 399,-208.5 549,-208.5 549,-167.5 399,-167.5"/>
<text text-anchor="start" x="407" y="-196.5" font-family="Helvetica,sans-Serif" font-size="10.00">/home/jonathan/Works</text>
<text text-anchor="start" x="407" y="-185.5" font-family="Helvetica,sans-Serif" font-size="10.00">/Tools/Triton/src/libtriton</text>
<text text-anchor="middle" x="474" y="-174.5" font-family="Helvetica,sans-Serif" font-size="10.00">/includes/triton/context.hpp</text>
</a>
</g>
</g>
<!-- Node1&#45;&gt;Node8 -->
<g id="edge18" class="edge">
<title>Node1&#45;&gt;Node8</title>
<path fill="none" stroke="midnightblue" d="M404.94,-569.47C393.72,-536.81 378,-482.41 378,-434 378,-434 378,-434 378,-348.5 378,-291.29 423.89,-236.95 452.22,-208.85"/>
<polygon fill="midnightblue" stroke="midnightblue" points="401.77,-571.01 408.4,-579.27 408.38,-568.68 401.77,-571.01"/>
</g>
<!-- Node18 -->
<g id="node18" class="node">
<title>Node18</title>
<g id="a_node18"><a xlink:href="solverInterface_8hpp.html" target="_top" xlink:title=" ">
<polygon fill="white" stroke="black" points="443.5,-496 443.5,-537 630.5,-537 630.5,-496 443.5,-496"/>
<text text-anchor="start" x="451.5" y="-525" font-family="Helvetica,sans-Serif" font-size="10.00">/home/jonathan/Works</text>
<text text-anchor="start" x="451.5" y="-514" font-family="Helvetica,sans-Serif" font-size="10.00">/Tools/Triton/src/libtriton</text>
<text text-anchor="middle" x="537" y="-503" font-family="Helvetica,sans-Serif" font-size="10.00">/includes/triton/solverInterface.hpp</text>
</a>
</g>
</g>
<!-- Node1&#45;&gt;Node18 -->
<g id="edge20" class="edge">
<title>Node1&#45;&gt;Node18</title>
<path fill="none" stroke="midnightblue" d="M453.32,-573.87C470.86,-562.05 491.46,-548.17 507.83,-537.14"/>
<polygon fill="midnightblue" stroke="midnightblue" points="451.32,-570.99 444.98,-579.48 455.23,-576.8 451.32,-570.99"/>
</g>
<!-- Node19 -->
<g id="node19" class="node">
<title>Node19</title>
<g id="a_node19"><a xlink:href="z3Solver_8hpp.html" target="_top" xlink:title=" ">
<polygon fill="white" stroke="black" points="686.5,-412.5 686.5,-453.5 841.5,-453.5 841.5,-412.5 686.5,-412.5"/>
<text text-anchor="start" x="694.5" y="-441.5" font-family="Helvetica,sans-Serif" font-size="10.00">/home/jonathan/Works</text>
<text text-anchor="start" x="694.5" y="-430.5" font-family="Helvetica,sans-Serif" font-size="10.00">/Tools/Triton/src/libtriton</text>
<text text-anchor="middle" x="764" y="-419.5" font-family="Helvetica,sans-Serif" font-size="10.00">/includes/triton/z3Solver.hpp</text>
</a>
</g>
</g>
<!-- Node1&#45;&gt;Node19 -->
<g id="edge26" class="edge">
<title>Node1&#45;&gt;Node19</title>
<path fill="none" stroke="midnightblue" d="M514.39,-592.52C564.47,-585.63 624.61,-571.57 672,-543 708.9,-520.75 738.14,-478.39 753.09,-453.54"/>
<polygon fill="midnightblue" stroke="midnightblue" points="513.66,-589.09 504.19,-593.85 514.56,-596.03 513.66,-589.09"/>
</g>
<!-- Node5 -->
<g id="node5" class="node">
<title>Node5</title>
<g id="a_node5"><a xlink:href="bitwuzlaSolver_8cpp.html" target="_top" xlink:title=" ">
<polygon fill="white" stroke="black" points="406.5,-323.5 406.5,-375.5 541.5,-375.5 541.5,-323.5 406.5,-323.5"/>
<text text-anchor="start" x="414.5" y="-363.5" font-family="Helvetica,sans-Serif" font-size="10.00">/home/jonathan/Works</text>
<text text-anchor="start" x="414.5" y="-352.5" font-family="Helvetica,sans-Serif" font-size="10.00">/Tools/Triton/src/libtriton</text>
<text text-anchor="start" x="414.5" y="-341.5" font-family="Helvetica,sans-Serif" font-size="10.00">/engines/solver/bitwuzla</text>
<text text-anchor="middle" x="474" y="-330.5" font-family="Helvetica,sans-Serif" font-size="10.00">/bitwuzlaSolver.cpp</text>
</a>
</g>
</g>
<!-- Node4&#45;&gt;Node5 -->
<g id="edge4" class="edge">
<title>Node4&#45;&gt;Node5</title>
<path fill="none" stroke="midnightblue" d="M490.01,-402.69C487.29,-393.83 484.33,-384.17 481.7,-375.61"/>
<polygon fill="midnightblue" stroke="midnightblue" points="486.67,-403.74 492.95,-412.27 493.36,-401.68 486.67,-403.74"/>
</g>
<!-- Node4&#45;&gt;Node6 -->
<g id="edge5" class="edge">
<title>Node4&#45;&gt;Node6</title>
<path fill="none" stroke="midnightblue" d="M543.52,-407.65C565.51,-395.62 591.69,-381.3 612.34,-370"/>
<polygon fill="midnightblue" stroke="midnightblue" points="541.78,-404.61 534.69,-412.48 545.14,-410.75 541.78,-404.61"/>
</g>
<!-- Node7 -->
<g id="node7" class="node">
<title>Node7</title>
<g id="a_node7"><a xlink:href="solverEngine_8cpp.html" target="_top" xlink:title=" ">
<polygon fill="white" stroke="black" points="501.5,-245.5 501.5,-286.5 678.5,-286.5 678.5,-245.5 501.5,-245.5"/>
<text text-anchor="start" x="509.5" y="-274.5" font-family="Helvetica,sans-Serif" font-size="10.00">/home/jonathan/Works</text>
<text text-anchor="start" x="509.5" y="-263.5" font-family="Helvetica,sans-Serif" font-size="10.00">/Tools/Triton/src/libtriton</text>
<text text-anchor="middle" x="590" y="-252.5" font-family="Helvetica,sans-Serif" font-size="10.00">/engines/solver/solverEngine.cpp</text>
</a>
</g>
</g>
<!-- Node6&#45;&gt;Node7 -->
<g id="edge6" class="edge">
<title>Node6&#45;&gt;Node7</title>
<path fill="none" stroke="midnightblue" d="M628.11,-320.55C620.15,-309.36 611.16,-296.73 603.91,-286.55"/>
<polygon fill="midnightblue" stroke="midnightblue" points="625.31,-322.65 633.96,-328.77 631.01,-318.59 625.31,-322.65"/>
</g>
<!-- Node6&#45;&gt;Node8 -->
<g id="edge7" class="edge">
<title>Node6&#45;&gt;Node8</title>
<path fill="none" stroke="midnightblue" d="M570.28,-325.68C536.83,-314.33 502.9,-300.25 492,-287 473.76,-264.83 471.6,-230.2 472.35,-208.6"/>
<polygon fill="midnightblue" stroke="midnightblue" points="569.55,-329.12 580.14,-328.95 571.76,-322.48 569.55,-329.12"/>
</g>
<!-- Node16 -->
<g id="node16" class="node">
<title>Node16</title>
<g id="a_node16"><a xlink:href="synthesizer_8hpp.html" target="_top" xlink:title=" ">
<polygon fill="white" stroke="black" points="696.5,-245.5 696.5,-286.5 865.5,-286.5 865.5,-245.5 696.5,-245.5"/>
<text text-anchor="start" x="704.5" y="-274.5" font-family="Helvetica,sans-Serif" font-size="10.00">/home/jonathan/Works</text>
<text text-anchor="start" x="704.5" y="-263.5" font-family="Helvetica,sans-Serif" font-size="10.00">/Tools/Triton/src/libtriton</text>
<text text-anchor="middle" x="781" y="-252.5" font-family="Helvetica,sans-Serif" font-size="10.00">/includes/triton/synthesizer.hpp</text>
</a>
</g>
</g>
<!-- Node6&#45;&gt;Node16 -->
<g id="edge15" class="edge">
<title>Node6&#45;&gt;Node16</title>
<path fill="none" stroke="midnightblue" d="M688.49,-323.69C707.88,-311.8 730.78,-297.77 748.94,-286.64"/>
<polygon fill="midnightblue" stroke="midnightblue" points="686.55,-320.77 679.86,-328.98 690.21,-326.74 686.55,-320.77"/>
</g>
<!-- Node9 -->
<g id="node9" class="node">
<title>Node9</title>
<g id="a_node9"><a xlink:href="pyTritonContext_8cpp.html" target="_top" xlink:title=" ">
<polygon fill="white" stroke="black" points="101,-78.5 101,-130.5 237,-130.5 237,-78.5 101,-78.5"/>
<text text-anchor="start" x="109" y="-118.5" font-family="Helvetica,sans-Serif" font-size="10.00">/home/jonathan/Works</text>
<text text-anchor="start" x="109" y="-107.5" font-family="Helvetica,sans-Serif" font-size="10.00">/Tools/Triton/src/libtriton</text>
<text text-anchor="start" x="109" y="-96.5" font-family="Helvetica,sans-Serif" font-size="10.00">/bindings/python/objects</text>
<text text-anchor="middle" x="169" y="-85.5" font-family="Helvetica,sans-Serif" font-size="10.00">/pyTritonContext.cpp</text>
</a>
</g>
</g>
<!-- Node8&#45;&gt;Node9 -->
<g id="edge8" class="edge">
<title>Node8&#45;&gt;Node9</title>
<path fill="none" stroke="midnightblue" d="M389.03,-167.81C345.96,-157.66 292.97,-144.52 246,-131 243.16,-130.18 240.26,-129.33 237.35,-128.45"/>
<polygon fill="midnightblue" stroke="midnightblue" points="388.37,-171.25 398.9,-170.13 389.96,-164.44 388.37,-171.25"/>
</g>
<!-- Node10 -->
<g id="node10" class="node">
<title>Node10</title>
<g id="a_node10"><a xlink:href="callbacks_8cpp.html" target="_top" xlink:title=" ">
<polygon fill="white" stroke="black" points="255,-84 255,-125 389,-125 389,-84 255,-84"/>
<text text-anchor="start" x="263" y="-113" font-family="Helvetica,sans-Serif" font-size="10.00">/home/jonathan/Works</text>
<text text-anchor="start" x="263" y="-102" font-family="Helvetica,sans-Serif" font-size="10.00">/Tools/Triton/src/libtriton</text>
<text text-anchor="middle" x="322" y="-91" font-family="Helvetica,sans-Serif" font-size="10.00">/callbacks/callbacks.cpp</text>
</a>
</g>
</g>
<!-- Node8&#45;&gt;Node10 -->
<g id="edge9" class="edge">
<title>Node8&#45;&gt;Node10</title>
<path fill="none" stroke="midnightblue" d="M428.59,-162.65C406.15,-150.62 379.44,-136.3 358.37,-125"/>
<polygon fill="midnightblue" stroke="midnightblue" points="427.13,-165.84 437.59,-167.48 430.43,-159.67 427.13,-165.84"/>
</g>
<!-- Node11 -->
<g id="node11" class="node">
<title>Node11</title>
<g id="a_node11"><a xlink:href="context_8cpp.html" target="_top" xlink:title=" ">
<polygon fill="white" stroke="black" points="407.5,-84 407.5,-125 540.5,-125 540.5,-84 407.5,-84"/>
<text text-anchor="start" x="415.5" y="-113" font-family="Helvetica,sans-Serif" font-size="10.00">/home/jonathan/Works</text>
<text text-anchor="start" x="415.5" y="-102" font-family="Helvetica,sans-Serif" font-size="10.00">/Tools/Triton/src/libtriton</text>
<text text-anchor="middle" x="474" y="-91" font-family="Helvetica,sans-Serif" font-size="10.00">/context/context.cpp</text>
</a>
</g>
</g>
<!-- Node8&#45;&gt;Node11 -->
<g id="edge10" class="edge">
<title>Node8&#45;&gt;Node11</title>
<path fill="none" stroke="midnightblue" d="M474,-157.06C474,-146.38 474,-134.63 474,-125.05"/>
<polygon fill="midnightblue" stroke="midnightblue" points="470.5,-157.27 474,-167.27 477.5,-157.27 470.5,-157.27"/>
</g>
<!-- Node12 -->
<g id="node12" class="node">
<title>Node12</title>
<g id="a_node12"><a xlink:href="symbolicSimplification_8cpp.html" target="_top" xlink:title=" ">
<polygon fill="white" stroke="black" points="558.5,-84 558.5,-125 797.5,-125 797.5,-84 558.5,-84"/>
<text text-anchor="start" x="566.5" y="-113" font-family="Helvetica,sans-Serif" font-size="10.00">/home/jonathan/Works</text>
<text text-anchor="start" x="566.5" y="-102" font-family="Helvetica,sans-Serif" font-size="10.00">/Tools/Triton/src/libtriton</text>
<text text-anchor="middle" x="678" y="-91" font-family="Helvetica,sans-Serif" font-size="10.00">/engines/symbolic/symbolicSimplification.cpp</text>
</a>
</g>
</g>
<!-- Node8&#45;&gt;Node12 -->
<g id="edge11" class="edge">
<title>Node8&#45;&gt;Node12</title>
<path fill="none" stroke="midnightblue" d="M532.16,-163.77C562.83,-151.51 600.03,-136.65 629.18,-125"/>
<polygon fill="midnightblue" stroke="midnightblue" points="530.85,-160.52 522.86,-167.48 533.45,-167.02 530.85,-160.52"/>
</g>
<!-- Node13 -->
<g id="node13" class="node">
<title>Node13</title>
<g id="a_node13"><a xlink:href="llvmToTriton_8hpp.html" target="_top" xlink:title=" ">
<polygon fill="white" stroke="black" points="815.5,-84 815.5,-125 988.5,-125 988.5,-84 815.5,-84"/>
<text text-anchor="start" x="823.5" y="-113" font-family="Helvetica,sans-Serif" font-size="10.00">/home/jonathan/Works</text>
<text text-anchor="start" x="823.5" y="-102" font-family="Helvetica,sans-Serif" font-size="10.00">/Tools/Triton/src/libtriton</text>
<text text-anchor="middle" x="902" y="-91" font-family="Helvetica,sans-Serif" font-size="10.00">/includes/triton/llvmToTriton.hpp</text>
</a>
</g>
</g>
<!-- Node8&#45;&gt;Node13 -->
<g id="edge12" class="edge">
<title>Node8&#45;&gt;Node13</title>
<path fill="none" stroke="midnightblue" d="M559.34,-174.83C626.64,-164.69 722.73,-149.04 806,-131 814.26,-129.21 822.87,-127.17 831.4,-125.05"/>
<polygon fill="midnightblue" stroke="midnightblue" points="558.58,-171.4 549.21,-176.34 559.62,-178.33 558.58,-171.4"/>
</g>
<!-- Node14 -->
<g id="node14" class="node">
<title>Node14</title>
<g id="a_node14"><a xlink:href="llvmToTriton_8cpp.html" target="_top" xlink:title=" ">
<polygon fill="white" stroke="black" points="742,-0.5 742,-41.5 884,-41.5 884,-0.5 742,-0.5"/>
<text text-anchor="start" x="750" y="-29.5" font-family="Helvetica,sans-Serif" font-size="10.00">/home/jonathan/Works</text>
<text text-anchor="start" x="750" y="-18.5" font-family="Helvetica,sans-Serif" font-size="10.00">/Tools/Triton/src/libtriton</text>
<text text-anchor="middle" x="813" y="-7.5" font-family="Helvetica,sans-Serif" font-size="10.00">/ast/llvm/llvmToTriton.cpp</text>
</a>
</g>
</g>
<!-- Node13&#45;&gt;Node14 -->
<g id="edge13" class="edge">
<title>Node13&#45;&gt;Node14</title>
<path fill="none" stroke="midnightblue" d="M872.91,-76.86C860.34,-65.35 845.9,-52.13 834.35,-41.55"/>
<polygon fill="midnightblue" stroke="midnightblue" points="870.72,-79.6 880.46,-83.77 875.44,-74.44 870.72,-79.6"/>
</g>
<!-- Node15 -->
<g id="node15" class="node">
<title>Node15</title>
<g id="a_node15"><a xlink:href="liftingToLLVM_8cpp.html" target="_top" xlink:title=" ">
<polygon fill="white" stroke="black" points="902,-0.5 902,-41.5 1078,-41.5 1078,-0.5 902,-0.5"/>
<text text-anchor="start" x="910" y="-29.5" font-family="Helvetica,sans-Serif" font-size="10.00">/home/jonathan/Works</text>
<text text-anchor="start" x="910" y="-18.5" font-family="Helvetica,sans-Serif" font-size="10.00">/Tools/Triton/src/libtriton</text>
<text text-anchor="middle" x="990" y="-7.5" font-family="Helvetica,sans-Serif" font-size="10.00">/engines/lifters/liftingToLLVM.cpp</text>
</a>
</g>
</g>
<!-- Node13&#45;&gt;Node15 -->
<g id="edge14" class="edge">
<title>Node13&#45;&gt;Node15</title>
<path fill="none" stroke="midnightblue" d="M930.76,-76.86C943.19,-65.35 957.47,-52.13 968.89,-41.55"/>
<polygon fill="midnightblue" stroke="midnightblue" points="928.26,-74.41 923.3,-83.77 933.02,-79.54 928.26,-74.41"/>
</g>
<!-- Node16&#45;&gt;Node8 -->
<g id="edge17" class="edge">
<title>Node16&#45;&gt;Node8</title>
<path fill="none" stroke="midnightblue" d="M692.12,-243C646.8,-231.78 592.28,-218.28 549.09,-207.59"/>
<polygon fill="midnightblue" stroke="midnightblue" points="691.39,-246.42 701.94,-245.43 693.07,-239.63 691.39,-246.42"/>
</g>
<!-- Node17 -->
<g id="node17" class="node">
<title>Node17</title>
<g id="a_node17"><a xlink:href="synthesizer_8cpp.html" target="_top" xlink:title=" ">
<polygon fill="white" stroke="black" points="688,-167.5 688,-208.5 874,-208.5 874,-167.5 688,-167.5"/>
<text text-anchor="start" x="696" y="-196.5" font-family="Helvetica,sans-Serif" font-size="10.00">/home/jonathan/Works</text>
<text text-anchor="start" x="696" y="-185.5" font-family="Helvetica,sans-Serif" font-size="10.00">/Tools/Triton/src/libtriton</text>
<text text-anchor="middle" x="781" y="-174.5" font-family="Helvetica,sans-Serif" font-size="10.00">/engines/synthesis/synthesizer.cpp</text>
</a>
</g>
</g>
<!-- Node16&#45;&gt;Node17 -->
<g id="edge16" class="edge">
<title>Node16&#45;&gt;Node17</title>
<path fill="none" stroke="midnightblue" d="M781,-235.3C781,-226.3 781,-216.65 781,-208.51"/>
<polygon fill="midnightblue" stroke="midnightblue" points="777.5,-235.43 781,-245.43 784.5,-235.43 777.5,-235.43"/>
</g>
<!-- Node18&#45;&gt;Node4 -->
<g id="edge21" class="edge">
<title>Node18&#45;&gt;Node4</title>
<path fill="none" stroke="midnightblue" d="M523.51,-486.56C518.4,-475.62 512.72,-463.43 508.11,-453.55"/>
<polygon fill="midnightblue" stroke="midnightblue" points="520.4,-488.19 527.8,-495.77 526.75,-485.23 520.4,-488.19"/>
</g>
<!-- Node18&#45;&gt;Node6 -->
<g id="edge22" class="edge">
<title>Node18&#45;&gt;Node6</title>
<path fill="none" stroke="midnightblue" d="M568.65,-488.9C579.49,-478.73 591.12,-466.55 600,-454 618.88,-427.32 633.36,-392.04 641.27,-370.32"/>
<polygon fill="midnightblue" stroke="midnightblue" points="565.97,-486.6 560.94,-495.92 570.69,-491.77 565.97,-486.6"/>
</g>
<!-- Node18&#45;&gt;Node19 -->
<g id="edge23" class="edge">
<title>Node18&#45;&gt;Node19</title>
<path fill="none" stroke="midnightblue" d="M600.83,-492.58C635.13,-480.27 676.96,-465.25 709.68,-453.5"/>
<polygon fill="midnightblue" stroke="midnightblue" points="599.6,-489.31 591.37,-495.98 601.97,-495.89 599.6,-489.31"/>
</g>
<!-- Node19&#45;&gt;Node6 -->
<g id="edge25" class="edge">
<title>Node19&#45;&gt;Node6</title>
<path fill="none" stroke="midnightblue" d="M727.77,-406.54C711.05,-394.8 691.52,-381.07 675.96,-370.14"/>
<polygon fill="midnightblue" stroke="midnightblue" points="726.02,-409.59 736.22,-412.48 730.04,-403.87 726.02,-409.59"/>
</g>
<!-- Node20 -->
<g id="node20" class="node">
<title>Node20</title>
<g id="a_node20"><a xlink:href="z3Solver_8cpp.html" target="_top" xlink:title=" ">
<polygon fill="white" stroke="black" points="754,-329 754,-370 924,-370 924,-329 754,-329"/>
<text text-anchor="start" x="762" y="-358" font-family="Helvetica,sans-Serif" font-size="10.00">/home/jonathan/Works</text>
<text text-anchor="start" x="762" y="-347" font-family="Helvetica,sans-Serif" font-size="10.00">/Tools/Triton/src/libtriton</text>
<text text-anchor="middle" x="839" y="-336" font-family="Helvetica,sans-Serif" font-size="10.00">/engines/solver/z3/z3Solver.cpp</text>
</a>
</g>
</g>
<!-- Node19&#45;&gt;Node20 -->
<g id="edge24" class="edge">
<title>Node19&#45;&gt;Node20</title>
<path fill="none" stroke="midnightblue" d="M789.11,-404.71C799.56,-393.36 811.46,-380.43 821.01,-370.05"/>
<polygon fill="midnightblue" stroke="midnightblue" points="786.35,-402.54 782.16,-412.27 791.5,-407.28 786.35,-402.54"/>
</g>
</g>
</svg>
