<?xml version="1.0" encoding="UTF-8" standalone="no"?>
<!DOCTYPE svg PUBLIC "-//W3C//DTD SVG 1.1//EN"
 "http://www.w3.org/Graphics/SVG/1.1/DTD/svg11.dtd">
<!-- Generated by graphviz version 2.50.0 (20211204.2007)
 -->
<!-- Title: /home/jonathan/Works/Tools/Triton/src/libtriton/includes/triton/solverModel.hpp Pages: 1 -->
<svg width="3072pt" height="551pt"
 viewBox="0.00 0.00 3072.00 551.00" xmlns="http://www.w3.org/2000/svg" xmlns:xlink="http://www.w3.org/1999/xlink">
<g id="graph0" class="graph" transform="scale(1 1) rotate(0) translate(4 547)">
<title>/home/jonathan/Works/Tools/Triton/src/libtriton/includes/triton/solverModel.hpp</title>
<polygon fill="white" stroke="transparent" points="-4,4 -4,-547 3068,-547 3068,4 -4,4"/>
<!-- Node1 -->
<g id="node1" class="node">
<title>Node1</title>
<g id="a_node1"><a xlink:title=" ">
<polygon fill="#bfbfbf" stroke="black" points="2408.5,-501.5 2408.5,-542.5 2581.5,-542.5 2581.5,-501.5 2408.5,-501.5"/>
<text text-anchor="start" x="2416.5" y="-530.5" font-family="Helvetica,sans-Serif" font-size="10.00">/home/jonathan/Works</text>
<text text-anchor="start" x="2416.5" y="-519.5" font-family="Helvetica,sans-Serif" font-size="10.00">/Tools/Triton/src/libtriton</text>
<text text-anchor="middle" x="2495" y="-508.5" font-family="Helvetica,sans-Serif" font-size="10.00">/includes/triton/solverModel.hpp</text>
</a>
</g>
</g>
<!-- Node2 -->
<g id="node2" class="node">
<title>Node2</title>
<g id="a_node2"><a xlink:href="pySolverModel_8cpp.html" target="_top" xlink:title=" ">
<polygon fill="white" stroke="black" points="0,-334.5 0,-386.5 136,-386.5 136,-334.5 0,-334.5"/>
<text text-anchor="start" x="8" y="-374.5" font-family="Helvetica,sans-Serif" font-size="10.00">/home/jonathan/Works</text>
<text text-anchor="start" x="8" y="-363.5" font-family="Helvetica,sans-Serif" font-size="10.00">/Tools/Triton/src/libtriton</text>
<text text-anchor="start" x="8" y="-352.5" font-family="Helvetica,sans-Serif" font-size="10.00">/bindings/python/objects</text>
<text text-anchor="middle" x="68" y="-341.5" font-family="Helvetica,sans-Serif" font-size="10.00">/pySolverModel.cpp</text>
</a>
</g>
</g>
<!-- Node1&#45;&gt;Node2 -->
<g id="edge1" class="edge">
<title>Node1&#45;&gt;Node2</title>
<path fill="none" stroke="midnightblue" d="M2398.05,-518.78C2166.06,-513.14 1560.66,-496.41 1056,-465 650.41,-439.76 543.06,-468.77 145,-387 142.1,-386.4 139.16,-385.74 136.21,-385.01"/>
<polygon fill="midnightblue" stroke="midnightblue" points="2398.07,-522.29 2408.15,-519.03 2398.24,-515.29 2398.07,-522.29"/>
</g>
<!-- Node3 -->
<g id="node3" class="node">
<title>Node3</title>
<g id="a_node3"><a xlink:href="bitwuzlaSolver_8cpp.html" target="_top" xlink:title=" ">
<polygon fill="white" stroke="black" points="2188.5,-245.5 2188.5,-297.5 2323.5,-297.5 2323.5,-245.5 2188.5,-245.5"/>
<text text-anchor="start" x="2196.5" y="-285.5" font-family="Helvetica,sans-Serif" font-size="10.00">/home/jonathan/Works</text>
<text text-anchor="start" x="2196.5" y="-274.5" font-family="Helvetica,sans-Serif" font-size="10.00">/Tools/Triton/src/libtriton</text>
<text text-anchor="start" x="2196.5" y="-263.5" font-family="Helvetica,sans-Serif" font-size="10.00">/engines/solver/bitwuzla</text>
<text text-anchor="middle" x="2256" y="-252.5" font-family="Helvetica,sans-Serif" font-size="10.00">/bitwuzlaSolver.cpp</text>
</a>
</g>
</g>
<!-- Node1&#45;&gt;Node3 -->
<g id="edge2" class="edge">
<title>Node1&#45;&gt;Node3</title>
<path fill="none" stroke="midnightblue" d="M2420.45,-497.86C2368.88,-477.54 2304,-442.42 2272,-387 2256.14,-359.54 2253.76,-322.36 2254.27,-297.92"/>
<polygon fill="midnightblue" stroke="midnightblue" points="2419.32,-501.17 2429.91,-501.48 2421.83,-494.63 2419.32,-501.17"/>
</g>
<!-- Node4 -->
<g id="node4" class="node">
<title>Node4</title>
<g id="a_node4"><a xlink:href="solverModel_8cpp.html" target="_top" xlink:title=" ">
<polygon fill="white" stroke="black" points="2890,-423.5 2890,-464.5 3064,-464.5 3064,-423.5 2890,-423.5"/>
<text text-anchor="start" x="2898" y="-452.5" font-family="Helvetica,sans-Serif" font-size="10.00">/home/jonathan/Works</text>
<text text-anchor="start" x="2898" y="-441.5" font-family="Helvetica,sans-Serif" font-size="10.00">/Tools/Triton/src/libtriton</text>
<text text-anchor="middle" x="2977" y="-430.5" font-family="Helvetica,sans-Serif" font-size="10.00">/engines/solver/solverModel.cpp</text>
</a>
</g>
</g>
<!-- Node1&#45;&gt;Node4 -->
<g id="edge3" class="edge">
<title>Node1&#45;&gt;Node4</title>
<path fill="none" stroke="midnightblue" d="M2592.01,-508.09C2669.13,-497.51 2779.69,-481.6 2876,-465 2880.49,-464.23 2885.09,-463.41 2889.73,-462.56"/>
<polygon fill="midnightblue" stroke="midnightblue" points="2591.26,-504.66 2581.82,-509.49 2592.21,-511.6 2591.26,-504.66"/>
</g>
<!-- Node5 -->
<g id="node5" class="node">
<title>Node5</title>
<g id="a_node5"><a xlink:href="z3Solver_8cpp.html" target="_top" xlink:title=" ">
<polygon fill="white" stroke="black" points="2774,-251 2774,-292 2944,-292 2944,-251 2774,-251"/>
<text text-anchor="start" x="2782" y="-280" font-family="Helvetica,sans-Serif" font-size="10.00">/home/jonathan/Works</text>
<text text-anchor="start" x="2782" y="-269" font-family="Helvetica,sans-Serif" font-size="10.00">/Tools/Triton/src/libtriton</text>
<text text-anchor="middle" x="2859" y="-258" font-family="Helvetica,sans-Serif" font-size="10.00">/engines/solver/z3/z3Solver.cpp</text>
</a>
</g>
</g>
<!-- Node1&#45;&gt;Node5 -->
<g id="edge4" class="edge">
<title>Node1&#45;&gt;Node5</title>
<path fill="none" stroke="midnightblue" d="M2591.75,-511.15C2672.36,-497.47 2783.3,-464.83 2843,-387 2864.13,-359.45 2864.01,-316.84 2861.71,-292.11"/>
<polygon fill="midnightblue" stroke="midnightblue" points="2590.89,-507.75 2581.58,-512.81 2592.01,-514.66 2590.89,-507.75"/>
</g>
<!-- Node6 -->
<g id="node6" class="node">
<title>Node6</title>
<g id="a_node6"><a xlink:href="bitwuzlaSolver_8hpp.html" target="_top" xlink:title=" ">
<polygon fill="white" stroke="black" points="2281.5,-340 2281.5,-381 2466.5,-381 2466.5,-340 2281.5,-340"/>
<text text-anchor="start" x="2289.5" y="-369" font-family="Helvetica,sans-Serif" font-size="10.00">/home/jonathan/Works</text>
<text text-anchor="start" x="2289.5" y="-358" font-family="Helvetica,sans-Serif" font-size="10.00">/Tools/Triton/src/libtriton</text>
<text text-anchor="middle" x="2374" y="-347" font-family="Helvetica,sans-Serif" font-size="10.00">/includes/triton/bitwuzlaSolver.hpp</text>
</a>
</g>
</g>
<!-- Node1&#45;&gt;Node6 -->
<g id="edge5" class="edge">
<title>Node1&#45;&gt;Node6</title>
<path fill="none" stroke="midnightblue" d="M2429.31,-496.72C2415.08,-488.64 2401.48,-478.21 2392,-465 2374.24,-440.26 2371.99,-403.75 2372.57,-381.36"/>
<polygon fill="midnightblue" stroke="midnightblue" points="2427.74,-499.85 2438.21,-501.46 2431.02,-493.67 2427.74,-499.85"/>
</g>
<!-- Node7 -->
<g id="node7" class="node">
<title>Node7</title>
<g id="a_node7"><a xlink:href="pythonObjects_8hpp.html" target="_top" xlink:title=" ">
<polygon fill="white" stroke="black" points="1065,-423.5 1065,-464.5 1249,-464.5 1249,-423.5 1065,-423.5"/>
<text text-anchor="start" x="1073" y="-452.5" font-family="Helvetica,sans-Serif" font-size="10.00">/home/jonathan/Works</text>
<text text-anchor="start" x="1073" y="-441.5" font-family="Helvetica,sans-Serif" font-size="10.00">/Tools/Triton/src/libtriton</text>
<text text-anchor="middle" x="1157" y="-430.5" font-family="Helvetica,sans-Serif" font-size="10.00">/includes/triton/pythonObjects.hpp</text>
</a>
</g>
</g>
<!-- Node1&#45;&gt;Node7 -->
<g id="edge7" class="edge">
<title>Node1&#45;&gt;Node7</title>
<path fill="none" stroke="midnightblue" d="M2398.42,-515.51C2150.25,-501.42 1492.75,-464.07 1249.33,-450.24"/>
<polygon fill="midnightblue" stroke="midnightblue" points="2398.32,-519.01 2408.5,-516.09 2398.71,-512.03 2398.32,-519.01"/>
</g>
<!-- Node22 -->
<g id="node22" class="node">
<title>Node22</title>
<g id="a_node22"><a xlink:href="solverEngine_8hpp.html" target="_top" xlink:title=" ">
<polygon fill="white" stroke="black" points="2484,-340 2484,-381 2660,-381 2660,-340 2484,-340"/>
<text text-anchor="start" x="2492" y="-369" font-family="Helvetica,sans-Serif" font-size="10.00">/home/jonathan/Works</text>
<text text-anchor="start" x="2492" y="-358" font-family="Helvetica,sans-Serif" font-size="10.00">/Tools/Triton/src/libtriton</text>
<text text-anchor="middle" x="2572" y="-347" font-family="Helvetica,sans-Serif" font-size="10.00">/includes/triton/solverEngine.hpp</text>
</a>
</g>
</g>
<!-- Node1&#45;&gt;Node22 -->
<g id="edge23" class="edge">
<title>Node1&#45;&gt;Node22</title>
<path fill="none" stroke="midnightblue" d="M2563.62,-496.56C2576.92,-488.59 2589.15,-478.26 2597,-465 2612.63,-438.59 2597.48,-402.91 2584.89,-381.09"/>
<polygon fill="midnightblue" stroke="midnightblue" points="2561.81,-493.56 2554.76,-501.47 2565.2,-499.69 2561.81,-493.56"/>
</g>
<!-- Node33 -->
<g id="node33" class="node">
<title>Node33</title>
<g id="a_node33"><a xlink:href="solverInterface_8hpp.html" target="_top" xlink:title=" ">
<polygon fill="white" stroke="black" points="2401.5,-423.5 2401.5,-464.5 2588.5,-464.5 2588.5,-423.5 2401.5,-423.5"/>
<text text-anchor="start" x="2409.5" y="-452.5" font-family="Helvetica,sans-Serif" font-size="10.00">/home/jonathan/Works</text>
<text text-anchor="start" x="2409.5" y="-441.5" font-family="Helvetica,sans-Serif" font-size="10.00">/Tools/Triton/src/libtriton</text>
<text text-anchor="middle" x="2495" y="-430.5" font-family="Helvetica,sans-Serif" font-size="10.00">/includes/triton/solverInterface.hpp</text>
</a>
</g>
</g>
<!-- Node1&#45;&gt;Node33 -->
<g id="edge36" class="edge">
<title>Node1&#45;&gt;Node33</title>
<path fill="none" stroke="midnightblue" d="M2495,-491.3C2495,-482.3 2495,-472.65 2495,-464.51"/>
<polygon fill="midnightblue" stroke="midnightblue" points="2491.5,-491.43 2495,-501.43 2498.5,-491.43 2491.5,-491.43"/>
</g>
<!-- Node34 -->
<g id="node34" class="node">
<title>Node34</title>
<g id="a_node34"><a xlink:href="z3Solver_8hpp.html" target="_top" xlink:title=" ">
<polygon fill="white" stroke="black" points="2678.5,-340 2678.5,-381 2833.5,-381 2833.5,-340 2678.5,-340"/>
<text text-anchor="start" x="2686.5" y="-369" font-family="Helvetica,sans-Serif" font-size="10.00">/home/jonathan/Works</text>
<text text-anchor="start" x="2686.5" y="-358" font-family="Helvetica,sans-Serif" font-size="10.00">/Tools/Triton/src/libtriton</text>
<text text-anchor="middle" x="2756" y="-347" font-family="Helvetica,sans-Serif" font-size="10.00">/includes/triton/z3Solver.hpp</text>
</a>
</g>
</g>
<!-- Node1&#45;&gt;Node34 -->
<g id="edge41" class="edge">
<title>Node1&#45;&gt;Node34</title>
<path fill="none" stroke="midnightblue" d="M2551.72,-497.3C2572.12,-488.06 2595.02,-476.84 2615,-465 2658.37,-439.3 2704.78,-403.41 2732.05,-381.35"/>
<polygon fill="midnightblue" stroke="midnightblue" points="2550.24,-494.12 2542.54,-501.4 2553.1,-500.51 2550.24,-494.12"/>
</g>
<!-- Node6&#45;&gt;Node3 -->
<g id="edge6" class="edge">
<title>Node6&#45;&gt;Node3</title>
<path fill="none" stroke="midnightblue" d="M2339.21,-333.85C2323.68,-322.4 2305.46,-308.96 2290.02,-297.58"/>
<polygon fill="midnightblue" stroke="midnightblue" points="2337.39,-336.86 2347.52,-339.98 2341.55,-331.22 2337.39,-336.86"/>
</g>
<!-- Node7&#45;&gt;Node2 -->
<g id="edge19" class="edge">
<title>Node7&#45;&gt;Node2</title>
<path fill="none" stroke="midnightblue" d="M1054.3,-440.76C832.94,-435.37 316.98,-419.64 145,-387 142.09,-386.45 139.15,-385.82 136.19,-385.12"/>
<polygon fill="midnightblue" stroke="midnightblue" points="1054.54,-444.27 1064.62,-441.01 1054.7,-437.27 1054.54,-444.27"/>
</g>
<!-- Node8 -->
<g id="node8" class="node">
<title>Node8</title>
<g id="a_node8"><a xlink:href="tritonCallbacks_8cpp.html" target="_top" xlink:title=" ">
<polygon fill="white" stroke="black" points="670.5,-334.5 670.5,-386.5 813.5,-386.5 813.5,-334.5 670.5,-334.5"/>
<text text-anchor="start" x="678.5" y="-374.5" font-family="Helvetica,sans-Serif" font-size="10.00">/home/jonathan/Works</text>
<text text-anchor="start" x="678.5" y="-363.5" font-family="Helvetica,sans-Serif" font-size="10.00">/Tools/Triton/src/libtriton</text>
<text text-anchor="start" x="678.5" y="-352.5" font-family="Helvetica,sans-Serif" font-size="10.00">/bindings/python/modules</text>
<text text-anchor="middle" x="742" y="-341.5" font-family="Helvetica,sans-Serif" font-size="10.00">/tritonCallbacks.cpp</text>
</a>
</g>
</g>
<!-- Node7&#45;&gt;Node8 -->
<g id="edge8" class="edge">
<title>Node7&#45;&gt;Node8</title>
<path fill="none" stroke="midnightblue" d="M1054.81,-429.62C988.31,-420 899.95,-405.47 823,-387 819.99,-386.28 816.93,-385.5 813.84,-384.69"/>
<polygon fill="midnightblue" stroke="midnightblue" points="1054.48,-433.11 1064.87,-431.07 1055.47,-426.18 1054.48,-433.11"/>
</g>
<!-- Node9 -->
<g id="node9" class="node">
<title>Node9</title>
<g id="a_node9"><a xlink:href="initRegNamespace_8cpp.html" target="_top" xlink:title=" ">
<polygon fill="white" stroke="black" points="832,-334.5 832,-386.5 994,-386.5 994,-334.5 832,-334.5"/>
<text text-anchor="start" x="840" y="-374.5" font-family="Helvetica,sans-Serif" font-size="10.00">/home/jonathan/Works</text>
<text text-anchor="start" x="840" y="-363.5" font-family="Helvetica,sans-Serif" font-size="10.00">/Tools/Triton/src/libtriton</text>
<text text-anchor="start" x="840" y="-352.5" font-family="Helvetica,sans-Serif" font-size="10.00">/bindings/python/namespaces</text>
<text text-anchor="middle" x="913" y="-341.5" font-family="Helvetica,sans-Serif" font-size="10.00">/initRegNamespace.cpp</text>
</a>
</g>
</g>
<!-- Node7&#45;&gt;Node9 -->
<g id="edge9" class="edge">
<title>Node7&#45;&gt;Node9</title>
<path fill="none" stroke="midnightblue" d="M1089.02,-420.29C1057.64,-409.81 1020.28,-397.33 988.08,-386.58"/>
<polygon fill="midnightblue" stroke="midnightblue" points="1087.96,-423.63 1098.56,-423.48 1090.18,-416.99 1087.96,-423.63"/>
</g>
<!-- Node10 -->
<g id="node10" class="node">
<title>Node10</title>
<g id="a_node10"><a xlink:href="pyAstContext_8cpp.html" target="_top" xlink:title=" ">
<polygon fill="white" stroke="black" points="1012,-334.5 1012,-386.5 1148,-386.5 1148,-334.5 1012,-334.5"/>
<text text-anchor="start" x="1020" y="-374.5" font-family="Helvetica,sans-Serif" font-size="10.00">/home/jonathan/Works</text>
<text text-anchor="start" x="1020" y="-363.5" font-family="Helvetica,sans-Serif" font-size="10.00">/Tools/Triton/src/libtriton</text>
<text text-anchor="start" x="1020" y="-352.5" font-family="Helvetica,sans-Serif" font-size="10.00">/bindings/python/objects</text>
<text text-anchor="middle" x="1080" y="-341.5" font-family="Helvetica,sans-Serif" font-size="10.00">/pyAstContext.cpp</text>
</a>
</g>
</g>
<!-- Node7&#45;&gt;Node10 -->
<g id="edge10" class="edge">
<title>Node7&#45;&gt;Node10</title>
<path fill="none" stroke="midnightblue" d="M1131.46,-415.96C1122.51,-406.5 1112.51,-395.91 1103.72,-386.61"/>
<polygon fill="midnightblue" stroke="midnightblue" points="1128.95,-418.41 1138.36,-423.27 1134.04,-413.6 1128.95,-418.41"/>
</g>
<!-- Node11 -->
<g id="node11" class="node">
<title>Node11</title>
<g id="a_node11"><a xlink:href="pyAstNode_8cpp.html" target="_top" xlink:title=" ">
<polygon fill="white" stroke="black" points="1166,-334.5 1166,-386.5 1302,-386.5 1302,-334.5 1166,-334.5"/>
<text text-anchor="start" x="1174" y="-374.5" font-family="Helvetica,sans-Serif" font-size="10.00">/home/jonathan/Works</text>
<text text-anchor="start" x="1174" y="-363.5" font-family="Helvetica,sans-Serif" font-size="10.00">/Tools/Triton/src/libtriton</text>
<text text-anchor="start" x="1174" y="-352.5" font-family="Helvetica,sans-Serif" font-size="10.00">/bindings/python/objects</text>
<text text-anchor="middle" x="1234" y="-341.5" font-family="Helvetica,sans-Serif" font-size="10.00">/pyAstNode.cpp</text>
</a>
</g>
</g>
<!-- Node7&#45;&gt;Node11 -->
<g id="edge11" class="edge">
<title>Node7&#45;&gt;Node11</title>
<path fill="none" stroke="midnightblue" d="M1182.54,-415.96C1191.49,-406.5 1201.49,-395.91 1210.28,-386.61"/>
<polygon fill="midnightblue" stroke="midnightblue" points="1179.96,-413.6 1175.64,-423.27 1185.05,-418.41 1179.96,-413.6"/>
</g>
<!-- Node12 -->
<g id="node12" class="node">
<title>Node12</title>
<g id="a_node12"><a xlink:href="pyBasicBlock_8cpp.html" target="_top" xlink:title=" ">
<polygon fill="white" stroke="black" points="1320,-334.5 1320,-386.5 1456,-386.5 1456,-334.5 1320,-334.5"/>
<text text-anchor="start" x="1328" y="-374.5" font-family="Helvetica,sans-Serif" font-size="10.00">/home/jonathan/Works</text>
<text text-anchor="start" x="1328" y="-363.5" font-family="Helvetica,sans-Serif" font-size="10.00">/Tools/Triton/src/libtriton</text>
<text text-anchor="start" x="1328" y="-352.5" font-family="Helvetica,sans-Serif" font-size="10.00">/bindings/python/objects</text>
<text text-anchor="middle" x="1388" y="-341.5" font-family="Helvetica,sans-Serif" font-size="10.00">/pyBasicBlock.cpp</text>
</a>
</g>
</g>
<!-- Node7&#45;&gt;Node12 -->
<g id="edge12" class="edge">
<title>Node7&#45;&gt;Node12</title>
<path fill="none" stroke="midnightblue" d="M1222.03,-420.06C1252.58,-409.28 1288.99,-396.43 1319.91,-385.52"/>
<polygon fill="midnightblue" stroke="midnightblue" points="1220.6,-416.85 1212.33,-423.48 1222.93,-423.45 1220.6,-416.85"/>
</g>
<!-- Node13 -->
<g id="node13" class="node">
<title>Node13</title>
<g id="a_node13"><a xlink:href="pyBitsVector_8cpp.html" target="_top" xlink:title=" ">
<polygon fill="white" stroke="black" points="1474,-334.5 1474,-386.5 1610,-386.5 1610,-334.5 1474,-334.5"/>
<text text-anchor="start" x="1482" y="-374.5" font-family="Helvetica,sans-Serif" font-size="10.00">/home/jonathan/Works</text>
<text text-anchor="start" x="1482" y="-363.5" font-family="Helvetica,sans-Serif" font-size="10.00">/Tools/Triton/src/libtriton</text>
<text text-anchor="start" x="1482" y="-352.5" font-family="Helvetica,sans-Serif" font-size="10.00">/bindings/python/objects</text>
<text text-anchor="middle" x="1542" y="-341.5" font-family="Helvetica,sans-Serif" font-size="10.00">/pyBitsVector.cpp</text>
</a>
</g>
</g>
<!-- Node7&#45;&gt;Node13 -->
<g id="edge13" class="edge">
<title>Node7&#45;&gt;Node13</title>
<path fill="none" stroke="midnightblue" d="M1258.95,-428.14C1319.31,-418.43 1397.03,-404.34 1465,-387 1467.87,-386.27 1470.78,-385.49 1473.71,-384.67"/>
<polygon fill="midnightblue" stroke="midnightblue" points="1258.36,-424.69 1249.03,-429.72 1259.46,-431.6 1258.36,-424.69"/>
</g>
<!-- Node14 -->
<g id="node14" class="node">
<title>Node14</title>
<g id="a_node14"><a xlink:href="pyImmediate_8cpp.html" target="_top" xlink:title=" ">
<polygon fill="white" stroke="black" points="1628,-334.5 1628,-386.5 1764,-386.5 1764,-334.5 1628,-334.5"/>
<text text-anchor="start" x="1636" y="-374.5" font-family="Helvetica,sans-Serif" font-size="10.00">/home/jonathan/Works</text>
<text text-anchor="start" x="1636" y="-363.5" font-family="Helvetica,sans-Serif" font-size="10.00">/Tools/Triton/src/libtriton</text>
<text text-anchor="start" x="1636" y="-352.5" font-family="Helvetica,sans-Serif" font-size="10.00">/bindings/python/objects</text>
<text text-anchor="middle" x="1696" y="-341.5" font-family="Helvetica,sans-Serif" font-size="10.00">/pyImmediate.cpp</text>
</a>
</g>
</g>
<!-- Node7&#45;&gt;Node14 -->
<g id="edge14" class="edge">
<title>Node7&#45;&gt;Node14</title>
<path fill="none" stroke="midnightblue" d="M1259.19,-436.48C1353.47,-429.09 1496.9,-414.33 1619,-387 1621.89,-386.35 1624.82,-385.64 1627.76,-384.88"/>
<polygon fill="midnightblue" stroke="midnightblue" points="1258.78,-433 1249.08,-437.26 1259.32,-439.98 1258.78,-433"/>
</g>
<!-- Node15 -->
<g id="node15" class="node">
<title>Node15</title>
<g id="a_node15"><a xlink:href="pyInstruction_8cpp.html" target="_top" xlink:title=" ">
<polygon fill="white" stroke="black" points="1782,-334.5 1782,-386.5 1918,-386.5 1918,-334.5 1782,-334.5"/>
<text text-anchor="start" x="1790" y="-374.5" font-family="Helvetica,sans-Serif" font-size="10.00">/home/jonathan/Works</text>
<text text-anchor="start" x="1790" y="-363.5" font-family="Helvetica,sans-Serif" font-size="10.00">/Tools/Triton/src/libtriton</text>
<text text-anchor="start" x="1790" y="-352.5" font-family="Helvetica,sans-Serif" font-size="10.00">/bindings/python/objects</text>
<text text-anchor="middle" x="1850" y="-341.5" font-family="Helvetica,sans-Serif" font-size="10.00">/pyInstruction.cpp</text>
</a>
</g>
</g>
<!-- Node7&#45;&gt;Node15 -->
<g id="edge15" class="edge">
<title>Node7&#45;&gt;Node15</title>
<path fill="none" stroke="midnightblue" d="M1259.19,-440.85C1382.26,-436.63 1594.69,-424.12 1773,-387 1775.9,-386.4 1778.83,-385.72 1781.79,-384.99"/>
<polygon fill="midnightblue" stroke="midnightblue" points="1258.91,-437.36 1249.03,-441.19 1259.14,-444.36 1258.91,-437.36"/>
</g>
<!-- Node16 -->
<g id="node16" class="node">
<title>Node16</title>
<g id="a_node16"><a xlink:href="pyMemoryAccess_8cpp.html" target="_top" xlink:title=" ">
<polygon fill="white" stroke="black" points="1936,-334.5 1936,-386.5 2072,-386.5 2072,-334.5 1936,-334.5"/>
<text text-anchor="start" x="1944" y="-374.5" font-family="Helvetica,sans-Serif" font-size="10.00">/home/jonathan/Works</text>
<text text-anchor="start" x="1944" y="-363.5" font-family="Helvetica,sans-Serif" font-size="10.00">/Tools/Triton/src/libtriton</text>
<text text-anchor="start" x="1944" y="-352.5" font-family="Helvetica,sans-Serif" font-size="10.00">/bindings/python/objects</text>
<text text-anchor="middle" x="2004" y="-341.5" font-family="Helvetica,sans-Serif" font-size="10.00">/pyMemoryAccess.cpp</text>
</a>
</g>
</g>
<!-- Node7&#45;&gt;Node16 -->
<g id="edge16" class="edge">
<title>Node7&#45;&gt;Node16</title>
<path fill="none" stroke="midnightblue" d="M1259.27,-443.55C1407.79,-442.55 1691.19,-433.87 1927,-387 1929.9,-386.42 1932.84,-385.77 1935.8,-385.06"/>
<polygon fill="midnightblue" stroke="midnightblue" points="1259.23,-440.05 1249.25,-443.61 1259.27,-447.05 1259.23,-440.05"/>
</g>
<!-- Node17 -->
<g id="node17" class="node">
<title>Node17</title>
<g id="a_node17"><a xlink:href="pyPathConstraint_8cpp.html" target="_top" xlink:title=" ">
<polygon fill="white" stroke="black" points="2090,-334.5 2090,-386.5 2226,-386.5 2226,-334.5 2090,-334.5"/>
<text text-anchor="start" x="2098" y="-374.5" font-family="Helvetica,sans-Serif" font-size="10.00">/home/jonathan/Works</text>
<text text-anchor="start" x="2098" y="-363.5" font-family="Helvetica,sans-Serif" font-size="10.00">/Tools/Triton/src/libtriton</text>
<text text-anchor="start" x="2098" y="-352.5" font-family="Helvetica,sans-Serif" font-size="10.00">/bindings/python/objects</text>
<text text-anchor="middle" x="2158" y="-341.5" font-family="Helvetica,sans-Serif" font-size="10.00">/pyPathConstraint.cpp</text>
</a>
</g>
</g>
<!-- Node7&#45;&gt;Node17 -->
<g id="edge17" class="edge">
<title>Node7&#45;&gt;Node17</title>
<path fill="none" stroke="midnightblue" d="M1259.4,-440.14C1465.99,-433.81 1926.19,-416.8 2081,-387 2083.9,-386.44 2086.85,-385.8 2089.81,-385.1"/>
<polygon fill="midnightblue" stroke="midnightblue" points="1259.04,-436.65 1249.15,-440.45 1259.26,-443.64 1259.04,-436.65"/>
</g>
<!-- Node18 -->
<g id="node18" class="node">
<title>Node18</title>
<g id="a_node18"><a xlink:href="pyRegister_8cpp.html" target="_top" xlink:title=" ">
<polygon fill="white" stroke="black" points="154,-334.5 154,-386.5 290,-386.5 290,-334.5 154,-334.5"/>
<text text-anchor="start" x="162" y="-374.5" font-family="Helvetica,sans-Serif" font-size="10.00">/home/jonathan/Works</text>
<text text-anchor="start" x="162" y="-363.5" font-family="Helvetica,sans-Serif" font-size="10.00">/Tools/Triton/src/libtriton</text>
<text text-anchor="start" x="162" y="-352.5" font-family="Helvetica,sans-Serif" font-size="10.00">/bindings/python/objects</text>
<text text-anchor="middle" x="222" y="-341.5" font-family="Helvetica,sans-Serif" font-size="10.00">/pyRegister.cpp</text>
</a>
</g>
</g>
<!-- Node7&#45;&gt;Node18 -->
<g id="edge18" class="edge">
<title>Node7&#45;&gt;Node18</title>
<path fill="none" stroke="midnightblue" d="M1054.38,-439.57C859.1,-432.51 440.87,-414.65 299,-387 296.1,-386.43 293.15,-385.79 290.19,-385.08"/>
<polygon fill="midnightblue" stroke="midnightblue" points="1054.53,-443.08 1064.65,-439.94 1054.78,-436.09 1054.53,-443.08"/>
</g>
<!-- Node19 -->
<g id="node19" class="node">
<title>Node19</title>
<g id="a_node19"><a xlink:href="pySymbolicExpression_8cpp.html" target="_top" xlink:title=" ">
<polygon fill="white" stroke="black" points="308,-334.5 308,-386.5 458,-386.5 458,-334.5 308,-334.5"/>
<text text-anchor="start" x="316" y="-374.5" font-family="Helvetica,sans-Serif" font-size="10.00">/home/jonathan/Works</text>
<text text-anchor="start" x="316" y="-363.5" font-family="Helvetica,sans-Serif" font-size="10.00">/Tools/Triton/src/libtriton</text>
<text text-anchor="start" x="316" y="-352.5" font-family="Helvetica,sans-Serif" font-size="10.00">/bindings/python/objects</text>
<text text-anchor="middle" x="383" y="-341.5" font-family="Helvetica,sans-Serif" font-size="10.00">/pySymbolicExpression.cpp</text>
</a>
</g>
</g>
<!-- Node7&#45;&gt;Node19 -->
<g id="edge20" class="edge">
<title>Node7&#45;&gt;Node19</title>
<path fill="none" stroke="midnightblue" d="M1054.55,-441.5C919,-437.97 673.12,-426.18 467,-387 464.16,-386.46 461.27,-385.86 458.37,-385.21"/>
<polygon fill="midnightblue" stroke="midnightblue" points="1054.84,-445.01 1064.92,-441.76 1055.01,-438.01 1054.84,-445.01"/>
</g>
<!-- Node20 -->
<g id="node20" class="node">
<title>Node20</title>
<g id="a_node20"><a xlink:href="pySymbolicVariable_8cpp.html" target="_top" xlink:title=" ">
<polygon fill="white" stroke="black" points="476.5,-334.5 476.5,-386.5 613.5,-386.5 613.5,-334.5 476.5,-334.5"/>
<text text-anchor="start" x="484.5" y="-374.5" font-family="Helvetica,sans-Serif" font-size="10.00">/home/jonathan/Works</text>
<text text-anchor="start" x="484.5" y="-363.5" font-family="Helvetica,sans-Serif" font-size="10.00">/Tools/Triton/src/libtriton</text>
<text text-anchor="start" x="484.5" y="-352.5" font-family="Helvetica,sans-Serif" font-size="10.00">/bindings/python/objects</text>
<text text-anchor="middle" x="545" y="-341.5" font-family="Helvetica,sans-Serif" font-size="10.00">/pySymbolicVariable.cpp</text>
</a>
</g>
</g>
<!-- Node7&#45;&gt;Node20 -->
<g id="edge21" class="edge">
<title>Node7&#45;&gt;Node20</title>
<path fill="none" stroke="midnightblue" d="M1054.74,-438.02C947.53,-431.45 774.6,-416.99 628,-387 623.27,-386.03 618.43,-384.91 613.58,-383.68"/>
<polygon fill="midnightblue" stroke="midnightblue" points="1054.72,-441.53 1064.91,-438.64 1055.14,-434.54 1054.72,-441.53"/>
</g>
<!-- Node21 -->
<g id="node21" class="node">
<title>Node21</title>
<g id="a_node21"><a xlink:href="pyTritonContext_8cpp.html" target="_top" xlink:title=" ">
<polygon fill="white" stroke="black" points="1277,-78.5 1277,-130.5 1413,-130.5 1413,-78.5 1277,-78.5"/>
<text text-anchor="start" x="1285" y="-118.5" font-family="Helvetica,sans-Serif" font-size="10.00">/home/jonathan/Works</text>
<text text-anchor="start" x="1285" y="-107.5" font-family="Helvetica,sans-Serif" font-size="10.00">/Tools/Triton/src/libtriton</text>
<text text-anchor="start" x="1285" y="-96.5" font-family="Helvetica,sans-Serif" font-size="10.00">/bindings/python/objects</text>
<text text-anchor="middle" x="1345" y="-85.5" font-family="Helvetica,sans-Serif" font-size="10.00">/pyTritonContext.cpp</text>
</a>
</g>
</g>
<!-- Node7&#45;&gt;Node21 -->
<g id="edge22" class="edge">
<title>Node7&#45;&gt;Node21</title>
<path fill="none" stroke="midnightblue" d="M1054.75,-438.61C917.2,-431.65 686.73,-415.8 661,-387 645.31,-369.43 647.23,-353.11 661,-334 735,-231.26 1119,-148.24 1276.99,-117.9"/>
<polygon fill="midnightblue" stroke="midnightblue" points="1054.73,-442.12 1064.89,-439.12 1055.08,-435.13 1054.73,-442.12"/>
</g>
<!-- Node23 -->
<g id="node23" class="node">
<title>Node23</title>
<g id="a_node23"><a xlink:href="solverEngine_8cpp.html" target="_top" xlink:title=" ">
<polygon fill="white" stroke="black" points="2350.5,-251 2350.5,-292 2527.5,-292 2527.5,-251 2350.5,-251"/>
<text text-anchor="start" x="2358.5" y="-280" font-family="Helvetica,sans-Serif" font-size="10.00">/home/jonathan/Works</text>
<text text-anchor="start" x="2358.5" y="-269" font-family="Helvetica,sans-Serif" font-size="10.00">/Tools/Triton/src/libtriton</text>
<text text-anchor="middle" x="2439" y="-258" font-family="Helvetica,sans-Serif" font-size="10.00">/engines/solver/solverEngine.cpp</text>
</a>
</g>
</g>
<!-- Node22&#45;&gt;Node23 -->
<g id="edge24" class="edge">
<title>Node22&#45;&gt;Node23</title>
<path fill="none" stroke="midnightblue" d="M2533.67,-334.43C2513.18,-321.02 2488.31,-304.76 2469.21,-292.26"/>
<polygon fill="midnightblue" stroke="midnightblue" points="2531.87,-337.43 2542.15,-339.98 2535.7,-331.57 2531.87,-337.43"/>
</g>
<!-- Node24 -->
<g id="node24" class="node">
<title>Node24</title>
<g id="a_node24"><a xlink:href="api_8hpp.html" target="_top" xlink:title=" ">
<polygon fill="white" stroke="black" points="2455.5,-167.5 2455.5,-208.5 2588.5,-208.5 2588.5,-167.5 2455.5,-167.5"/>
<text text-anchor="start" x="2463.5" y="-196.5" font-family="Helvetica,sans-Serif" font-size="10.00">/home/jonathan/Works</text>
<text text-anchor="start" x="2463.5" y="-185.5" font-family="Helvetica,sans-Serif" font-size="10.00">/Tools/Triton/src/libtriton</text>
<text text-anchor="middle" x="2522" y="-174.5" font-family="Helvetica,sans-Serif" font-size="10.00">/includes/triton/api.hpp</text>
</a>
</g>
</g>
<!-- Node22&#45;&gt;Node24 -->
<g id="edge25" class="edge">
<title>Node22&#45;&gt;Node24</title>
<path fill="none" stroke="midnightblue" d="M2563.32,-329.9C2553.12,-295.11 2536.47,-238.34 2527.75,-208.59"/>
<polygon fill="midnightblue" stroke="midnightblue" points="2560.09,-331.33 2566.26,-339.94 2566.81,-329.36 2560.09,-331.33"/>
</g>
<!-- Node31 -->
<g id="node31" class="node">
<title>Node31</title>
<g id="a_node31"><a xlink:href="synthesizer_8hpp.html" target="_top" xlink:title=" ">
<polygon fill="white" stroke="black" points="2582.5,-251 2582.5,-292 2751.5,-292 2751.5,-251 2582.5,-251"/>
<text text-anchor="start" x="2590.5" y="-280" font-family="Helvetica,sans-Serif" font-size="10.00">/home/jonathan/Works</text>
<text text-anchor="start" x="2590.5" y="-269" font-family="Helvetica,sans-Serif" font-size="10.00">/Tools/Triton/src/libtriton</text>
<text text-anchor="middle" x="2667" y="-258" font-family="Helvetica,sans-Serif" font-size="10.00">/includes/triton/synthesizer.hpp</text>
</a>
</g>
</g>
<!-- Node22&#45;&gt;Node31 -->
<g id="edge33" class="edge">
<title>Node22&#45;&gt;Node31</title>
<path fill="none" stroke="midnightblue" d="M2601.2,-332.76C2615.5,-319.66 2632.43,-304.16 2645.53,-292.16"/>
<polygon fill="midnightblue" stroke="midnightblue" points="2598.57,-330.42 2593.56,-339.76 2603.3,-335.59 2598.57,-330.42"/>
</g>
<!-- Node24&#45;&gt;Node21 -->
<g id="edge27" class="edge">
<title>Node24&#45;&gt;Node21</title>
<path fill="none" stroke="midnightblue" d="M2445.37,-181.69C2229.41,-166.74 1618.27,-124.42 1413.12,-110.22"/>
<polygon fill="midnightblue" stroke="midnightblue" points="2445.13,-185.19 2455.35,-182.38 2445.61,-178.2 2445.13,-185.19"/>
</g>
<!-- Node25 -->
<g id="node25" class="node">
<title>Node25</title>
<g id="a_node25"><a xlink:href="api_8cpp.html" target="_top" xlink:title=" ">
<polygon fill="white" stroke="black" points="2201.5,-84 2201.5,-125 2334.5,-125 2334.5,-84 2201.5,-84"/>
<text text-anchor="start" x="2209.5" y="-113" font-family="Helvetica,sans-Serif" font-size="10.00">/home/jonathan/Works</text>
<text text-anchor="start" x="2209.5" y="-102" font-family="Helvetica,sans-Serif" font-size="10.00">/Tools/Triton/src/libtriton</text>
<text text-anchor="middle" x="2268" y="-91" font-family="Helvetica,sans-Serif" font-size="10.00">/api/api.cpp</text>
</a>
</g>
</g>
<!-- Node24&#45;&gt;Node25 -->
<g id="edge26" class="edge">
<title>Node24&#45;&gt;Node25</title>
<path fill="none" stroke="midnightblue" d="M2449.09,-164.4C2416.84,-154.32 2378.48,-142.21 2344,-131 2338.18,-129.11 2332.11,-127.11 2326.05,-125.1"/>
<polygon fill="midnightblue" stroke="midnightblue" points="2448.3,-167.82 2458.89,-167.46 2450.39,-161.14 2448.3,-167.82"/>
</g>
<!-- Node26 -->
<g id="node26" class="node">
<title>Node26</title>
<g id="a_node26"><a xlink:href="callbacks_8cpp.html" target="_top" xlink:title=" ">
<polygon fill="white" stroke="black" points="2353,-84 2353,-125 2487,-125 2487,-84 2353,-84"/>
<text text-anchor="start" x="2361" y="-113" font-family="Helvetica,sans-Serif" font-size="10.00">/home/jonathan/Works</text>
<text text-anchor="start" x="2361" y="-102" font-family="Helvetica,sans-Serif" font-size="10.00">/Tools/Triton/src/libtriton</text>
<text text-anchor="middle" x="2420" y="-91" font-family="Helvetica,sans-Serif" font-size="10.00">/callbacks/callbacks.cpp</text>
</a>
</g>
</g>
<!-- Node24&#45;&gt;Node26 -->
<g id="edge28" class="edge">
<title>Node24&#45;&gt;Node26</title>
<path fill="none" stroke="midnightblue" d="M2489.74,-161.22C2475.13,-149.55 2458.14,-135.97 2444.59,-125.14"/>
<polygon fill="midnightblue" stroke="midnightblue" points="2487.57,-163.97 2497.57,-167.48 2491.94,-158.5 2487.57,-163.97"/>
</g>
<!-- Node27 -->
<g id="node27" class="node">
<title>Node27</title>
<g id="a_node27"><a xlink:href="symbolicSimplification_8cpp.html" target="_top" xlink:title=" ">
<polygon fill="white" stroke="black" points="2505.5,-84 2505.5,-125 2744.5,-125 2744.5,-84 2505.5,-84"/>
<text text-anchor="start" x="2513.5" y="-113" font-family="Helvetica,sans-Serif" font-size="10.00">/home/jonathan/Works</text>
<text text-anchor="start" x="2513.5" y="-102" font-family="Helvetica,sans-Serif" font-size="10.00">/Tools/Triton/src/libtriton</text>
<text text-anchor="middle" x="2625" y="-91" font-family="Helvetica,sans-Serif" font-size="10.00">/engines/symbolic/symbolicSimplification.cpp</text>
</a>
</g>
</g>
<!-- Node24&#45;&gt;Node27 -->
<g id="edge29" class="edge">
<title>Node24&#45;&gt;Node27</title>
<path fill="none" stroke="midnightblue" d="M2554.58,-161.22C2569.33,-149.55 2586.49,-135.97 2600.17,-125.14"/>
<polygon fill="midnightblue" stroke="midnightblue" points="2552.34,-158.53 2546.67,-167.48 2556.68,-164.02 2552.34,-158.53"/>
</g>
<!-- Node28 -->
<g id="node28" class="node">
<title>Node28</title>
<g id="a_node28"><a xlink:href="llvmToTriton_8hpp.html" target="_top" xlink:title=" ">
<polygon fill="white" stroke="black" points="2762.5,-84 2762.5,-125 2935.5,-125 2935.5,-84 2762.5,-84"/>
<text text-anchor="start" x="2770.5" y="-113" font-family="Helvetica,sans-Serif" font-size="10.00">/home/jonathan/Works</text>
<text text-anchor="start" x="2770.5" y="-102" font-family="Helvetica,sans-Serif" font-size="10.00">/Tools/Triton/src/libtriton</text>
<text text-anchor="middle" x="2849" y="-91" font-family="Helvetica,sans-Serif" font-size="10.00">/includes/triton/llvmToTriton.hpp</text>
</a>
</g>
</g>
<!-- Node24&#45;&gt;Node28 -->
<g id="edge30" class="edge">
<title>Node24&#45;&gt;Node28</title>
<path fill="none" stroke="midnightblue" d="M2598.42,-166.93C2668.27,-149.81 2687.32,-147.35 2753,-131 2760.61,-129.11 2768.55,-127.08 2776.46,-125.03"/>
<polygon fill="midnightblue" stroke="midnightblue" points="2597.57,-163.54 2588.7,-169.33 2599.25,-170.33 2597.57,-163.54"/>
</g>
<!-- Node29 -->
<g id="node29" class="node">
<title>Node29</title>
<g id="a_node29"><a xlink:href="llvmToTriton_8cpp.html" target="_top" xlink:title=" ">
<polygon fill="white" stroke="black" points="2689,-0.5 2689,-41.5 2831,-41.5 2831,-0.5 2689,-0.5"/>
<text text-anchor="start" x="2697" y="-29.5" font-family="Helvetica,sans-Serif" font-size="10.00">/home/jonathan/Works</text>
<text text-anchor="start" x="2697" y="-18.5" font-family="Helvetica,sans-Serif" font-size="10.00">/Tools/Triton/src/libtriton</text>
<text text-anchor="middle" x="2760" y="-7.5" font-family="Helvetica,sans-Serif" font-size="10.00">/ast/llvm/llvmToTriton.cpp</text>
</a>
</g>
</g>
<!-- Node28&#45;&gt;Node29 -->
<g id="edge31" class="edge">
<title>Node28&#45;&gt;Node29</title>
<path fill="none" stroke="midnightblue" d="M2819.91,-76.86C2807.34,-65.35 2792.9,-52.13 2781.35,-41.55"/>
<polygon fill="midnightblue" stroke="midnightblue" points="2817.72,-79.6 2827.46,-83.77 2822.44,-74.44 2817.72,-79.6"/>
</g>
<!-- Node30 -->
<g id="node30" class="node">
<title>Node30</title>
<g id="a_node30"><a xlink:href="liftingToLLVM_8cpp.html" target="_top" xlink:title=" ">
<polygon fill="white" stroke="black" points="2849,-0.5 2849,-41.5 3025,-41.5 3025,-0.5 2849,-0.5"/>
<text text-anchor="start" x="2857" y="-29.5" font-family="Helvetica,sans-Serif" font-size="10.00">/home/jonathan/Works</text>
<text text-anchor="start" x="2857" y="-18.5" font-family="Helvetica,sans-Serif" font-size="10.00">/Tools/Triton/src/libtriton</text>
<text text-anchor="middle" x="2937" y="-7.5" font-family="Helvetica,sans-Serif" font-size="10.00">/engines/lifters/liftingToLLVM.cpp</text>
</a>
</g>
</g>
<!-- Node28&#45;&gt;Node30 -->
<g id="edge32" class="edge">
<title>Node28&#45;&gt;Node30</title>
<path fill="none" stroke="midnightblue" d="M2877.76,-76.86C2890.19,-65.35 2904.47,-52.13 2915.89,-41.55"/>
<polygon fill="midnightblue" stroke="midnightblue" points="2875.26,-74.41 2870.3,-83.77 2880.02,-79.54 2875.26,-74.41"/>
</g>
<!-- Node31&#45;&gt;Node24 -->
<g id="edge35" class="edge">
<title>Node31&#45;&gt;Node24</title>
<path fill="none" stroke="midnightblue" d="M2623.39,-245.99C2602.05,-233.99 2576.71,-219.75 2556.7,-208.5"/>
<polygon fill="midnightblue" stroke="midnightblue" points="2621.84,-249.13 2632.27,-250.98 2625.27,-243.03 2621.84,-249.13"/>
</g>
<!-- Node32 -->
<g id="node32" class="node">
<title>Node32</title>
<g id="a_node32"><a xlink:href="synthesizer_8cpp.html" target="_top" xlink:title=" ">
<polygon fill="white" stroke="black" points="2607,-167.5 2607,-208.5 2793,-208.5 2793,-167.5 2607,-167.5"/>
<text text-anchor="start" x="2615" y="-196.5" font-family="Helvetica,sans-Serif" font-size="10.00">/home/jonathan/Works</text>
<text text-anchor="start" x="2615" y="-185.5" font-family="Helvetica,sans-Serif" font-size="10.00">/Tools/Triton/src/libtriton</text>
<text text-anchor="middle" x="2700" y="-174.5" font-family="Helvetica,sans-Serif" font-size="10.00">/engines/synthesis/synthesizer.cpp</text>
</a>
</g>
</g>
<!-- Node31&#45;&gt;Node32 -->
<g id="edge34" class="edge">
<title>Node31&#45;&gt;Node32</title>
<path fill="none" stroke="midnightblue" d="M2678.85,-241.23C2683.25,-230.37 2688.12,-218.33 2692.09,-208.55"/>
<polygon fill="midnightblue" stroke="midnightblue" points="2675.5,-240.19 2674.99,-250.77 2681.99,-242.82 2675.5,-240.19"/>
</g>
<!-- Node33&#45;&gt;Node6 -->
<g id="edge37" class="edge">
<title>Node33&#45;&gt;Node6</title>
<path fill="none" stroke="midnightblue" d="M2457.68,-417.87C2440.14,-406.05 2419.54,-392.17 2403.17,-381.14"/>
<polygon fill="midnightblue" stroke="midnightblue" points="2455.77,-420.8 2466.02,-423.48 2459.68,-414.99 2455.77,-420.8"/>
</g>
<!-- Node33&#45;&gt;Node22 -->
<g id="edge38" class="edge">
<title>Node33&#45;&gt;Node22</title>
<path fill="none" stroke="midnightblue" d="M2520.78,-415.71C2531.51,-404.36 2543.72,-391.43 2553.53,-381.05"/>
<polygon fill="midnightblue" stroke="midnightblue" points="2517.96,-413.6 2513.64,-423.27 2523.05,-418.41 2517.96,-413.6"/>
</g>
<!-- Node33&#45;&gt;Node34 -->
<g id="edge39" class="edge">
<title>Node33&#45;&gt;Node34</title>
<path fill="none" stroke="midnightblue" d="M2567.13,-420.48C2606.79,-408.09 2655.52,-392.88 2693.54,-381"/>
<polygon fill="midnightblue" stroke="midnightblue" points="2566.02,-417.16 2557.52,-423.48 2568.1,-423.84 2566.02,-417.16"/>
</g>
<!-- Node34&#45;&gt;Node5 -->
<g id="edge40" class="edge">
<title>Node34&#45;&gt;Node5</title>
<path fill="none" stroke="midnightblue" d="M2786.97,-333.34C2802.58,-320.15 2821.21,-304.42 2835.61,-292.26"/>
<polygon fill="midnightblue" stroke="midnightblue" points="2784.5,-330.85 2779.12,-339.98 2789.01,-336.2 2784.5,-330.85"/>
</g>
</g>
</svg>
