<?xml version="1.0" encoding="UTF-8" standalone="no"?>
<!DOCTYPE svg PUBLIC "-//W3C//DTD SVG 1.1//EN"
 "http://www.w3.org/Graphics/SVG/1.1/DTD/svg11.dtd">
<!-- Generated by graphviz version 2.49.0 (20210828.1703)
 -->
<!-- Title: /home/jonathan/Works/Tools/Triton/src/libtriton/includes/triton/solverEngine.hpp Pages: 1 -->
<svg width="986pt" height="373pt"
 viewBox="0.00 0.00 985.50 373.00" xmlns="http://www.w3.org/2000/svg" xmlns:xlink="http://www.w3.org/1999/xlink">
<g id="graph0" class="graph" transform="scale(1 1) rotate(0) translate(4 369)">
<title>/home/jonathan/Works/Tools/Triton/src/libtriton/includes/triton/solverEngine.hpp</title>
<polygon fill="white" stroke="transparent" points="-4,4 -4,-369 981.5,-369 981.5,4 -4,4"/>
<!-- Node1 -->
<g id="node1" class="node">
<title>Node1</title>
<g id="a_node1"><a xlink:title=" ">
<polygon fill="#bfbfbf" stroke="black" points="284.5,-323.5 284.5,-364.5 460.5,-364.5 460.5,-323.5 284.5,-323.5"/>
<text text-anchor="start" x="292.5" y="-352.5" font-family="Helvetica,sans-Serif" font-size="10.00">/home/jonathan/Works</text>
<text text-anchor="start" x="292.5" y="-341.5" font-family="Helvetica,sans-Serif" font-size="10.00">/Tools/Triton/src/libtriton</text>
<text text-anchor="middle" x="372.5" y="-330.5" font-family="Helvetica,sans-Serif" font-size="10.00">/includes/triton/solverEngine.hpp</text>
</a>
</g>
</g>
<!-- Node2 -->
<g id="node2" class="node">
<title>Node2</title>
<g id="a_node2"><a xlink:href="solverEngine_8cpp.html" target="_top" xlink:title=" ">
<polygon fill="white" stroke="black" points="168,-245.5 168,-286.5 345,-286.5 345,-245.5 168,-245.5"/>
<text text-anchor="start" x="176" y="-274.5" font-family="Helvetica,sans-Serif" font-size="10.00">/home/jonathan/Works</text>
<text text-anchor="start" x="176" y="-263.5" font-family="Helvetica,sans-Serif" font-size="10.00">/Tools/Triton/src/libtriton</text>
<text text-anchor="middle" x="256.5" y="-252.5" font-family="Helvetica,sans-Serif" font-size="10.00">/engines/solver/solverEngine.cpp</text>
</a>
</g>
</g>
<!-- Node1&#45;&gt;Node2 -->
<g id="edge1" class="edge">
<title>Node1&#45;&gt;Node2</title>
<path fill="none" stroke="midnightblue" d="M334.22,-317.92C318.62,-307.7 300.87,-296.07 286.27,-286.51"/>
<polygon fill="midnightblue" stroke="midnightblue" points="332.34,-320.88 342.63,-323.43 336.18,-315.02 332.34,-320.88"/>
</g>
<!-- Node3 -->
<g id="node3" class="node">
<title>Node3</title>
<g id="a_node3"><a xlink:href="api_8hpp.html" target="_top" xlink:title=" ">
<polygon fill="white" stroke="black" points="306,-167.5 306,-208.5 439,-208.5 439,-167.5 306,-167.5"/>
<text text-anchor="start" x="314" y="-196.5" font-family="Helvetica,sans-Serif" font-size="10.00">/home/jonathan/Works</text>
<text text-anchor="start" x="314" y="-185.5" font-family="Helvetica,sans-Serif" font-size="10.00">/Tools/Triton/src/libtriton</text>
<text text-anchor="middle" x="372.5" y="-174.5" font-family="Helvetica,sans-Serif" font-size="10.00">/includes/triton/api.hpp</text>
</a>
</g>
</g>
<!-- Node1&#45;&gt;Node3 -->
<g id="edge2" class="edge">
<title>Node1&#45;&gt;Node3</title>
<path fill="none" stroke="midnightblue" d="M372.5,-313.36C372.5,-282.61 372.5,-235.36 372.5,-208.83"/>
<polygon fill="midnightblue" stroke="midnightblue" points="369,-313.5 372.5,-323.5 376,-313.5 369,-313.5"/>
</g>
<!-- Node11 -->
<g id="node11" class="node">
<title>Node11</title>
<g id="a_node11"><a xlink:href="synthesizer_8hpp.html" target="_top" xlink:title=" ">
<polygon fill="white" stroke="black" points="400,-245.5 400,-286.5 569,-286.5 569,-245.5 400,-245.5"/>
<text text-anchor="start" x="408" y="-274.5" font-family="Helvetica,sans-Serif" font-size="10.00">/home/jonathan/Works</text>
<text text-anchor="start" x="408" y="-263.5" font-family="Helvetica,sans-Serif" font-size="10.00">/Tools/Triton/src/libtriton</text>
<text text-anchor="middle" x="484.5" y="-252.5" font-family="Helvetica,sans-Serif" font-size="10.00">/includes/triton/synthesizer.hpp</text>
</a>
</g>
</g>
<!-- Node1&#45;&gt;Node11 -->
<g id="edge10" class="edge">
<title>Node1&#45;&gt;Node11</title>
<path fill="none" stroke="midnightblue" d="M409.88,-317.64C424.84,-307.49 441.79,-295.98 455.75,-286.51"/>
<polygon fill="midnightblue" stroke="midnightblue" points="407.65,-314.92 401.34,-323.43 411.58,-320.71 407.65,-314.92"/>
</g>
<!-- Node4 -->
<g id="node4" class="node">
<title>Node4</title>
<g id="a_node4"><a xlink:href="api_8cpp.html" target="_top" xlink:title=" ">
<polygon fill="white" stroke="black" points="0,-84 0,-125 133,-125 133,-84 0,-84"/>
<text text-anchor="start" x="8" y="-113" font-family="Helvetica,sans-Serif" font-size="10.00">/home/jonathan/Works</text>
<text text-anchor="start" x="8" y="-102" font-family="Helvetica,sans-Serif" font-size="10.00">/Tools/Triton/src/libtriton</text>
<text text-anchor="middle" x="66.5" y="-91" font-family="Helvetica,sans-Serif" font-size="10.00">/api/api.cpp</text>
</a>
</g>
</g>
<!-- Node3&#45;&gt;Node4 -->
<g id="edge3" class="edge">
<title>Node3&#45;&gt;Node4</title>
<path fill="none" stroke="midnightblue" d="M295.71,-170.02C250.8,-159.67 193.15,-145.64 142.5,-131 136.22,-129.18 129.68,-127.18 123.19,-125.11"/>
<polygon fill="midnightblue" stroke="midnightblue" points="295.15,-173.48 305.68,-172.31 296.71,-166.66 295.15,-173.48"/>
</g>
<!-- Node5 -->
<g id="node5" class="node">
<title>Node5</title>
<g id="a_node5"><a xlink:href="pyTritonContext_8cpp.html" target="_top" xlink:title=" ">
<polygon fill="white" stroke="black" points="151.5,-78.5 151.5,-130.5 287.5,-130.5 287.5,-78.5 151.5,-78.5"/>
<text text-anchor="start" x="159.5" y="-118.5" font-family="Helvetica,sans-Serif" font-size="10.00">/home/jonathan/Works</text>
<text text-anchor="start" x="159.5" y="-107.5" font-family="Helvetica,sans-Serif" font-size="10.00">/Tools/Triton/src/libtriton</text>
<text text-anchor="start" x="159.5" y="-96.5" font-family="Helvetica,sans-Serif" font-size="10.00">/bindings/python/objects</text>
<text text-anchor="middle" x="219.5" y="-85.5" font-family="Helvetica,sans-Serif" font-size="10.00">/pyTritonContext.cpp</text>
</a>
</g>
</g>
<!-- Node3&#45;&gt;Node5 -->
<g id="edge4" class="edge">
<title>Node3&#45;&gt;Node5</title>
<path fill="none" stroke="midnightblue" d="M326.79,-162.65C307.78,-152.53 285.73,-140.78 266.58,-130.58"/>
<polygon fill="midnightblue" stroke="midnightblue" points="325.38,-165.87 335.85,-167.48 328.67,-159.69 325.38,-165.87"/>
</g>
<!-- Node6 -->
<g id="node6" class="node">
<title>Node6</title>
<g id="a_node6"><a xlink:href="callbacks_8cpp.html" target="_top" xlink:title=" ">
<polygon fill="white" stroke="black" points="305.5,-84 305.5,-125 439.5,-125 439.5,-84 305.5,-84"/>
<text text-anchor="start" x="313.5" y="-113" font-family="Helvetica,sans-Serif" font-size="10.00">/home/jonathan/Works</text>
<text text-anchor="start" x="313.5" y="-102" font-family="Helvetica,sans-Serif" font-size="10.00">/Tools/Triton/src/libtriton</text>
<text text-anchor="middle" x="372.5" y="-91" font-family="Helvetica,sans-Serif" font-size="10.00">/callbacks/callbacks.cpp</text>
</a>
</g>
</g>
<!-- Node3&#45;&gt;Node6 -->
<g id="edge5" class="edge">
<title>Node3&#45;&gt;Node6</title>
<path fill="none" stroke="midnightblue" d="M372.5,-157.06C372.5,-146.38 372.5,-134.63 372.5,-125.05"/>
<polygon fill="midnightblue" stroke="midnightblue" points="369,-157.27 372.5,-167.27 376,-157.27 369,-157.27"/>
</g>
<!-- Node7 -->
<g id="node7" class="node">
<title>Node7</title>
<g id="a_node7"><a xlink:href="symbolicSimplification_8cpp.html" target="_top" xlink:title=" ">
<polygon fill="white" stroke="black" points="458,-84 458,-125 697,-125 697,-84 458,-84"/>
<text text-anchor="start" x="466" y="-113" font-family="Helvetica,sans-Serif" font-size="10.00">/home/jonathan/Works</text>
<text text-anchor="start" x="466" y="-102" font-family="Helvetica,sans-Serif" font-size="10.00">/Tools/Triton/src/libtriton</text>
<text text-anchor="middle" x="577.5" y="-91" font-family="Helvetica,sans-Serif" font-size="10.00">/engines/symbolic/symbolicSimplification.cpp</text>
</a>
</g>
</g>
<!-- Node3&#45;&gt;Node7 -->
<g id="edge6" class="edge">
<title>Node3&#45;&gt;Node7</title>
<path fill="none" stroke="midnightblue" d="M430.94,-163.77C461.76,-151.51 499.15,-136.65 528.44,-125"/>
<polygon fill="midnightblue" stroke="midnightblue" points="429.6,-160.53 421.6,-167.48 432.19,-167.04 429.6,-160.53"/>
</g>
<!-- Node8 -->
<g id="node8" class="node">
<title>Node8</title>
<g id="a_node8"><a xlink:href="llvmToTriton_8hpp.html" target="_top" xlink:title=" ">
<polygon fill="white" stroke="black" points="715,-84 715,-125 888,-125 888,-84 715,-84"/>
<text text-anchor="start" x="723" y="-113" font-family="Helvetica,sans-Serif" font-size="10.00">/home/jonathan/Works</text>
<text text-anchor="start" x="723" y="-102" font-family="Helvetica,sans-Serif" font-size="10.00">/Tools/Triton/src/libtriton</text>
<text text-anchor="middle" x="801.5" y="-91" font-family="Helvetica,sans-Serif" font-size="10.00">/includes/triton/llvmToTriton.hpp</text>
</a>
</g>
</g>
<!-- Node3&#45;&gt;Node8 -->
<g id="edge7" class="edge">
<title>Node3&#45;&gt;Node8</title>
<path fill="none" stroke="midnightblue" d="M449,-167.03C563.77,-144.74 596.14,-153.42 706.5,-131 715.03,-129.27 723.94,-127.21 732.73,-125.03"/>
<polygon fill="midnightblue" stroke="midnightblue" points="448.25,-163.61 439.12,-168.99 449.61,-170.48 448.25,-163.61"/>
</g>
<!-- Node9 -->
<g id="node9" class="node">
<title>Node9</title>
<g id="a_node9"><a xlink:href="llvmToTriton_8cpp.html" target="_top" xlink:title=" ">
<polygon fill="white" stroke="black" points="641.5,-0.5 641.5,-41.5 783.5,-41.5 783.5,-0.5 641.5,-0.5"/>
<text text-anchor="start" x="649.5" y="-29.5" font-family="Helvetica,sans-Serif" font-size="10.00">/home/jonathan/Works</text>
<text text-anchor="start" x="649.5" y="-18.5" font-family="Helvetica,sans-Serif" font-size="10.00">/Tools/Triton/src/libtriton</text>
<text text-anchor="middle" x="712.5" y="-7.5" font-family="Helvetica,sans-Serif" font-size="10.00">/ast/llvm/llvmToTriton.cpp</text>
</a>
</g>
</g>
<!-- Node8&#45;&gt;Node9 -->
<g id="edge8" class="edge">
<title>Node8&#45;&gt;Node9</title>
<path fill="none" stroke="midnightblue" d="M772.41,-76.86C759.84,-65.35 745.4,-52.13 733.85,-41.55"/>
<polygon fill="midnightblue" stroke="midnightblue" points="770.22,-79.6 779.96,-83.77 774.94,-74.44 770.22,-79.6"/>
</g>
<!-- Node10 -->
<g id="node10" class="node">
<title>Node10</title>
<g id="a_node10"><a xlink:href="liftingToLLVM_8cpp.html" target="_top" xlink:title=" ">
<polygon fill="white" stroke="black" points="801.5,-0.5 801.5,-41.5 977.5,-41.5 977.5,-0.5 801.5,-0.5"/>
<text text-anchor="start" x="809.5" y="-29.5" font-family="Helvetica,sans-Serif" font-size="10.00">/home/jonathan/Works</text>
<text text-anchor="start" x="809.5" y="-18.5" font-family="Helvetica,sans-Serif" font-size="10.00">/Tools/Triton/src/libtriton</text>
<text text-anchor="middle" x="889.5" y="-7.5" font-family="Helvetica,sans-Serif" font-size="10.00">/engines/lifters/liftingToLLVM.cpp</text>
</a>
</g>
</g>
<!-- Node8&#45;&gt;Node10 -->
<g id="edge9" class="edge">
<title>Node8&#45;&gt;Node10</title>
<path fill="none" stroke="midnightblue" d="M830.26,-76.86C842.69,-65.35 856.97,-52.13 868.39,-41.55"/>
<polygon fill="midnightblue" stroke="midnightblue" points="827.76,-74.41 822.8,-83.77 832.52,-79.54 827.76,-74.41"/>
</g>
<!-- Node11&#45;&gt;Node3 -->
<g id="edge12" class="edge">
<title>Node11&#45;&gt;Node3</title>
<path fill="none" stroke="midnightblue" d="M447.12,-239.64C432.16,-229.49 415.21,-217.98 401.25,-208.51"/>
<polygon fill="midnightblue" stroke="midnightblue" points="445.42,-242.71 455.66,-245.43 449.35,-236.92 445.42,-242.71"/>
</g>
<!-- Node12 -->
<g id="node12" class="node">
<title>Node12</title>
<g id="a_node12"><a xlink:href="synthesizer_8cpp.html" target="_top" xlink:title=" ">
<polygon fill="white" stroke="black" points="457.5,-167.5 457.5,-208.5 643.5,-208.5 643.5,-167.5 457.5,-167.5"/>
<text text-anchor="start" x="465.5" y="-196.5" font-family="Helvetica,sans-Serif" font-size="10.00">/home/jonathan/Works</text>
<text text-anchor="start" x="465.5" y="-185.5" font-family="Helvetica,sans-Serif" font-size="10.00">/Tools/Triton/src/libtriton</text>
<text text-anchor="middle" x="550.5" y="-174.5" font-family="Helvetica,sans-Serif" font-size="10.00">/engines/synthesis/synthesizer.cpp</text>
</a>
</g>
</g>
<!-- Node11&#45;&gt;Node12 -->
<g id="edge11" class="edge">
<title>Node11&#45;&gt;Node12</title>
<path fill="none" stroke="midnightblue" d="M508.27,-237.63C516.64,-227.99 525.87,-217.36 533.56,-208.51"/>
<polygon fill="midnightblue" stroke="midnightblue" points="505.41,-235.58 501.5,-245.43 510.7,-240.17 505.41,-235.58"/>
</g>
</g>
</svg>
