<?xml version="1.0" encoding="UTF-8" standalone="no"?>
<!DOCTYPE svg PUBLIC "-//W3C//DTD SVG 1.1//EN"
 "http://www.w3.org/Graphics/SVG/1.1/DTD/svg11.dtd">
<!-- Generated by graphviz version 7.0.0 (20221023.0053)
 -->
<!-- Title: /Users/jonathan/Works/Tools/Triton/src/libtriton/includes/triton/solverModel.hpp Pages: 1 -->
<svg width="2769pt" height="621pt"
 viewBox="0.00 0.00 2768.50 621.00" xmlns="http://www.w3.org/2000/svg" xmlns:xlink="http://www.w3.org/1999/xlink">
<g id="graph0" class="graph" transform="scale(1 1) rotate(0) translate(4 617)">
<title>/Users/jonathan/Works/Tools/Triton/src/libtriton/includes/triton/solverModel.hpp</title>
<!-- Node1 -->
<g id="node1" class="node">
<title>Node1</title>
<g id="a_node1"><a xlink:title=" ">
<polygon fill="#999999" stroke="#666666" points="744,-613 589,-613 589,-572 744,-572 744,-613"/>
<text text-anchor="start" x="597" y="-601" font-family="Helvetica,sans-Serif" font-size="10.00">/Users/jonathan/Works</text>
<text text-anchor="start" x="597" y="-590" font-family="Helvetica,sans-Serif" font-size="10.00">/Tools/Triton/src/libtriton</text>
<text text-anchor="middle" x="666.5" y="-579" font-family="Helvetica,sans-Serif" font-size="10.00">/includes/triton/solverModel.hpp</text>
</a>
</g>
</g>
<!-- Node2 -->
<g id="node2" class="node">
<title>Node2</title>
<g id="a_node2"><a xlink:href="pySolverModel_8cpp.html" target="_top" xlink:title=" ">
<polygon fill="white" stroke="#666666" points="854.5,-459 732.5,-459 732.5,-407 854.5,-407 854.5,-459"/>
<text text-anchor="start" x="740.5" y="-447" font-family="Helvetica,sans-Serif" font-size="10.00">/Users/jonathan/Works</text>
<text text-anchor="start" x="740.5" y="-436" font-family="Helvetica,sans-Serif" font-size="10.00">/Tools/Triton/src/libtriton</text>
<text text-anchor="start" x="740.5" y="-425" font-family="Helvetica,sans-Serif" font-size="10.00">/bindings/python/objects</text>
<text text-anchor="middle" x="793.5" y="-414" font-family="Helvetica,sans-Serif" font-size="10.00">/pySolverModel.cpp</text>
</a>
</g>
</g>
<!-- Node1&#45;&gt;Node2 -->
<g id="edge1" class="edge">
<title>Node1&#45;&gt;Node2</title>
<path fill="none" stroke="#63b8ff" d="M693.96,-563.5C702.08,-554.87 710.84,-545.22 718.5,-536 739.43,-510.81 761.41,-480.39 776.12,-459.36"/>
<polygon fill="#63b8ff" stroke="#63b8ff" points="691.52,-560.98 687.16,-570.63 696.59,-565.81 691.52,-560.98"/>
</g>
<!-- Node3 -->
<g id="node3" class="node">
<title>Node3</title>
<g id="a_node3"><a xlink:href="bitwuzlaSolver_8cpp.html" target="_top" xlink:title=" ">
<polygon fill="white" stroke="#666666" points="608.5,-371 486.5,-371 486.5,-319 608.5,-319 608.5,-371"/>
<text text-anchor="start" x="494.5" y="-359" font-family="Helvetica,sans-Serif" font-size="10.00">/Users/jonathan/Works</text>
<text text-anchor="start" x="494.5" y="-348" font-family="Helvetica,sans-Serif" font-size="10.00">/Tools/Triton/src/libtriton</text>
<text text-anchor="start" x="494.5" y="-337" font-family="Helvetica,sans-Serif" font-size="10.00">/engines/solver/bitwuzla</text>
<text text-anchor="middle" x="547.5" y="-326" font-family="Helvetica,sans-Serif" font-size="10.00">/bitwuzlaSolver.cpp</text>
</a>
</g>
</g>
<!-- Node1&#45;&gt;Node3 -->
<g id="edge2" class="edge">
<title>Node1&#45;&gt;Node3</title>
<path fill="none" stroke="#63b8ff" d="M671.23,-560.26C675.47,-521.24 677.1,-453.91 647.5,-407 638.17,-392.21 623.82,-380.47 608.88,-371.4"/>
<polygon fill="#63b8ff" stroke="#63b8ff" points="667.76,-559.78 670.02,-570.13 674.71,-560.63 667.76,-559.78"/>
</g>
<!-- Node4 -->
<g id="node4" class="node">
<title>Node4</title>
<g id="a_node4"><a xlink:href="solverModel_8cpp.html" target="_top" xlink:title=" ">
<polygon fill="white" stroke="#666666" points="1899,-536 1742,-536 1742,-495 1899,-495 1899,-536"/>
<text text-anchor="start" x="1750" y="-524" font-family="Helvetica,sans-Serif" font-size="10.00">/Users/jonathan/Works</text>
<text text-anchor="start" x="1750" y="-513" font-family="Helvetica,sans-Serif" font-size="10.00">/Tools/Triton/src/libtriton</text>
<text text-anchor="middle" x="1820.5" y="-502" font-family="Helvetica,sans-Serif" font-size="10.00">/engines/solver/solverModel.cpp</text>
</a>
</g>
</g>
<!-- Node1&#45;&gt;Node4 -->
<g id="edge3" class="edge">
<title>Node1&#45;&gt;Node4</title>
<path fill="none" stroke="#63b8ff" d="M755.72,-591.92C939.54,-591.67 1373.44,-585.36 1733.5,-536 1736.26,-535.62 1739.06,-535.2 1741.89,-534.74"/>
<polygon fill="#63b8ff" stroke="#63b8ff" points="755.75,-588.42 745.75,-591.93 755.76,-595.42 755.75,-588.42"/>
</g>
<!-- Node5 -->
<g id="node5" class="node">
<title>Node5</title>
<g id="a_node5"><a xlink:href="z3Solver_8cpp.html" target="_top" xlink:title=" ">
<polygon fill="white" stroke="#666666" points="782,-365.5 627,-365.5 627,-324.5 782,-324.5 782,-365.5"/>
<text text-anchor="start" x="635" y="-353.5" font-family="Helvetica,sans-Serif" font-size="10.00">/Users/jonathan/Works</text>
<text text-anchor="start" x="635" y="-342.5" font-family="Helvetica,sans-Serif" font-size="10.00">/Tools/Triton/src/libtriton</text>
<text text-anchor="middle" x="704.5" y="-331.5" font-family="Helvetica,sans-Serif" font-size="10.00">/engines/solver/z3/z3Solver.cpp</text>
</a>
</g>
</g>
<!-- Node1&#45;&gt;Node5 -->
<g id="edge4" class="edge">
<title>Node1&#45;&gt;Node5</title>
<path fill="none" stroke="#63b8ff" d="M675.02,-560.52C677.01,-552.57 678.99,-544 680.5,-536 692.11,-474.41 699.64,-400.51 702.8,-365.82"/>
<polygon fill="#63b8ff" stroke="#63b8ff" points="671.65,-559.57 672.53,-570.13 678.43,-561.33 671.65,-559.57"/>
</g>
<!-- Node6 -->
<g id="node6" class="node">
<title>Node6</title>
<g id="a_node6"><a xlink:href="bitwuzlaSolver_8hpp.html" target="_top" xlink:title=" ">
<polygon fill="white" stroke="#666666" points="480,-453.5 315,-453.5 315,-412.5 480,-412.5 480,-453.5"/>
<text text-anchor="start" x="323" y="-441.5" font-family="Helvetica,sans-Serif" font-size="10.00">/Users/jonathan/Works</text>
<text text-anchor="start" x="323" y="-430.5" font-family="Helvetica,sans-Serif" font-size="10.00">/Tools/Triton/src/libtriton</text>
<text text-anchor="middle" x="397.5" y="-419.5" font-family="Helvetica,sans-Serif" font-size="10.00">/includes/triton/bitwuzlaSolver.hpp</text>
</a>
</g>
</g>
<!-- Node1&#45;&gt;Node6 -->
<g id="edge5" class="edge">
<title>Node1&#45;&gt;Node6</title>
<path fill="none" stroke="#63b8ff" d="M625.49,-565.48C594.01,-545.71 549.35,-518.08 509.5,-495 485.07,-480.85 457.19,-465.67 435.36,-453.99"/>
<polygon fill="#63b8ff" stroke="#63b8ff" points="623.61,-568.43 633.94,-570.8 627.34,-562.51 623.61,-568.43"/>
</g>
<!-- Node7 -->
<g id="node7" class="node">
<title>Node7</title>
<g id="a_node7"><a xlink:href="solverEngine_8hpp.html" target="_top" xlink:title=" ">
<polygon fill="white" stroke="#666666" points="468.5,-365.5 310.5,-365.5 310.5,-324.5 468.5,-324.5 468.5,-365.5"/>
<text text-anchor="start" x="318.5" y="-353.5" font-family="Helvetica,sans-Serif" font-size="10.00">/Users/jonathan/Works</text>
<text text-anchor="start" x="318.5" y="-342.5" font-family="Helvetica,sans-Serif" font-size="10.00">/Tools/Triton/src/libtriton</text>
<text text-anchor="middle" x="389.5" y="-331.5" font-family="Helvetica,sans-Serif" font-size="10.00">/includes/triton/solverEngine.hpp</text>
</a>
</g>
</g>
<!-- Node1&#45;&gt;Node7 -->
<g id="edge36" class="edge">
<title>Node1&#45;&gt;Node7</title>
<path fill="none" stroke="#63b8ff" d="M577.27,-586.84C489.25,-580.55 362.53,-566.41 324.5,-536 278.45,-499.18 265.11,-458.68 293.5,-407 303.39,-389 321.09,-375.56 338.62,-365.94"/>
<polygon fill="#63b8ff" stroke="#63b8ff" points="576.88,-590.32 587.1,-587.52 577.36,-583.34 576.88,-590.32"/>
</g>
<!-- Node19 -->
<g id="node19" class="node">
<title>Node19</title>
<g id="a_node19"><a xlink:href="pythonObjects_8hpp.html" target="_top" xlink:title=" ">
<polygon fill="white" stroke="#666666" points="1724,-536 1559,-536 1559,-495 1724,-495 1724,-536"/>
<text text-anchor="start" x="1567" y="-524" font-family="Helvetica,sans-Serif" font-size="10.00">/Users/jonathan/Works</text>
<text text-anchor="start" x="1567" y="-513" font-family="Helvetica,sans-Serif" font-size="10.00">/Tools/Triton/src/libtriton</text>
<text text-anchor="middle" x="1641.5" y="-502" font-family="Helvetica,sans-Serif" font-size="10.00">/includes/triton/pythonObjects.hpp</text>
</a>
</g>
</g>
<!-- Node1&#45;&gt;Node19 -->
<g id="edge20" class="edge">
<title>Node1&#45;&gt;Node19</title>
<path fill="none" stroke="#63b8ff" d="M755.69,-584.64C943.4,-570.2 1376.87,-536.86 1558.78,-522.86"/>
<polygon fill="#63b8ff" stroke="#63b8ff" points="755.44,-581.15 745.74,-585.4 755.98,-588.13 755.44,-581.15"/>
</g>
<!-- Node33 -->
<g id="node33" class="node">
<title>Node33</title>
<g id="a_node33"><a xlink:href="solverInterface_8hpp.html" target="_top" xlink:title=" ">
<polygon fill="white" stroke="#666666" points="501,-536 334,-536 334,-495 501,-495 501,-536"/>
<text text-anchor="start" x="342" y="-524" font-family="Helvetica,sans-Serif" font-size="10.00">/Users/jonathan/Works</text>
<text text-anchor="start" x="342" y="-513" font-family="Helvetica,sans-Serif" font-size="10.00">/Tools/Triton/src/libtriton</text>
<text text-anchor="middle" x="417.5" y="-502" font-family="Helvetica,sans-Serif" font-size="10.00">/includes/triton/solverInterface.hpp</text>
</a>
</g>
</g>
<!-- Node1&#45;&gt;Node33 -->
<g id="edge37" class="edge">
<title>Node1&#45;&gt;Node33</title>
<path fill="none" stroke="#63b8ff" d="M589.65,-568.35C555.8,-558.16 516.43,-546.3 483.88,-536.49"/>
<polygon fill="#63b8ff" stroke="#63b8ff" points="588.39,-571.63 598.98,-571.16 590.41,-564.93 588.39,-571.63"/>
</g>
<!-- Node34 -->
<g id="node34" class="node">
<title>Node34</title>
<g id="a_node34"><a xlink:href="z3Solver_8hpp.html" target="_top" xlink:title=" ">
<polygon fill="white" stroke="#666666" points="638.5,-453.5 498.5,-453.5 498.5,-412.5 638.5,-412.5 638.5,-453.5"/>
<text text-anchor="start" x="506.5" y="-441.5" font-family="Helvetica,sans-Serif" font-size="10.00">/Users/jonathan/Works</text>
<text text-anchor="start" x="506.5" y="-430.5" font-family="Helvetica,sans-Serif" font-size="10.00">/Tools/Triton/src/libtriton</text>
<text text-anchor="middle" x="568.5" y="-419.5" font-family="Helvetica,sans-Serif" font-size="10.00">/includes/triton/z3Solver.hpp</text>
</a>
</g>
</g>
<!-- Node1&#45;&gt;Node34 -->
<g id="edge43" class="edge">
<title>Node1&#45;&gt;Node34</title>
<path fill="none" stroke="#63b8ff" d="M648.12,-561.96C628.44,-530.33 597.77,-481.04 580.81,-453.79"/>
<polygon fill="#63b8ff" stroke="#63b8ff" points="645.03,-563.63 653.29,-570.27 650.98,-559.93 645.03,-563.63"/>
</g>
<!-- Node6&#45;&gt;Node3 -->
<g id="edge6" class="edge">
<title>Node6&#45;&gt;Node3</title>
<path fill="none" stroke="#63b8ff" d="M442.06,-406.45C461.37,-395.38 483.92,-382.45 503.21,-371.4"/>
<polygon fill="#63b8ff" stroke="#63b8ff" points="440.54,-403.29 433.6,-411.3 444.02,-409.36 440.54,-403.29"/>
</g>
<!-- Node6&#45;&gt;Node7 -->
<g id="edge7" class="edge">
<title>Node6&#45;&gt;Node7</title>
<path fill="none" stroke="#63b8ff" d="M394.61,-400.92C393.52,-389.22 392.31,-376.24 391.35,-365.84"/>
<polygon fill="#63b8ff" stroke="#63b8ff" points="391.09,-400.91 395.5,-410.55 398.06,-400.27 391.09,-400.91"/>
</g>
<!-- Node8 -->
<g id="node8" class="node">
<title>Node8</title>
<g id="a_node8"><a xlink:href="solverEngine_8cpp.html" target="_top" xlink:title=" ">
<polygon fill="white" stroke="#666666" points="697,-283 536,-283 536,-242 697,-242 697,-283"/>
<text text-anchor="start" x="544" y="-271" font-family="Helvetica,sans-Serif" font-size="10.00">/Users/jonathan/Works</text>
<text text-anchor="start" x="544" y="-260" font-family="Helvetica,sans-Serif" font-size="10.00">/Tools/Triton/src/libtriton</text>
<text text-anchor="middle" x="616.5" y="-249" font-family="Helvetica,sans-Serif" font-size="10.00">/engines/solver/solverEngine.cpp</text>
</a>
</g>
</g>
<!-- Node7&#45;&gt;Node8 -->
<g id="edge8" class="edge">
<title>Node7&#45;&gt;Node8</title>
<path fill="none" stroke="#63b8ff" d="M456.11,-320.38C489.18,-308.65 528.71,-294.63 560.25,-283.45"/>
<polygon fill="#63b8ff" stroke="#63b8ff" points="455.29,-316.95 447.04,-323.6 457.63,-323.55 455.29,-316.95"/>
</g>
<!-- Node9 -->
<g id="node9" class="node">
<title>Node9</title>
<g id="a_node9"><a xlink:href="context_8hpp.html" target="_top" xlink:title=" ">
<polygon fill="white" stroke="#666666" points="456.5,-206 322.5,-206 322.5,-165 456.5,-165 456.5,-206"/>
<text text-anchor="start" x="330.5" y="-194" font-family="Helvetica,sans-Serif" font-size="10.00">/Users/jonathan/Works</text>
<text text-anchor="start" x="330.5" y="-183" font-family="Helvetica,sans-Serif" font-size="10.00">/Tools/Triton/src/libtriton</text>
<text text-anchor="middle" x="389.5" y="-172" font-family="Helvetica,sans-Serif" font-size="10.00">/includes/triton/context.hpp</text>
</a>
</g>
</g>
<!-- Node7&#45;&gt;Node9 -->
<g id="edge9" class="edge">
<title>Node7&#45;&gt;Node9</title>
<path fill="none" stroke="#63b8ff" d="M369.66,-314.36C364.3,-304.76 359.23,-293.8 356.5,-283 352.03,-265.34 351.67,-259.57 356.5,-242 360.01,-229.25 367.29,-216.46 374.13,-206.38"/>
<polygon fill="#63b8ff" stroke="#63b8ff" points="366.6,-316.06 374.72,-322.86 372.62,-312.48 366.6,-316.06"/>
</g>
<!-- Node17 -->
<g id="node17" class="node">
<title>Node17</title>
<g id="a_node17"><a xlink:href="synthesizer_8hpp.html" target="_top" xlink:title=" ">
<polygon fill="white" stroke="#666666" points="517.5,-283 365.5,-283 365.5,-242 517.5,-242 517.5,-283"/>
<text text-anchor="start" x="373.5" y="-271" font-family="Helvetica,sans-Serif" font-size="10.00">/Users/jonathan/Works</text>
<text text-anchor="start" x="373.5" y="-260" font-family="Helvetica,sans-Serif" font-size="10.00">/Tools/Triton/src/libtriton</text>
<text text-anchor="middle" x="441.5" y="-249" font-family="Helvetica,sans-Serif" font-size="10.00">/includes/triton/synthesizer.hpp</text>
</a>
</g>
</g>
<!-- Node7&#45;&gt;Node17 -->
<g id="edge17" class="edge">
<title>Node7&#45;&gt;Node17</title>
<path fill="none" stroke="#63b8ff" d="M408.5,-314.59C415.19,-304.23 422.55,-292.84 428.61,-283.45"/>
<polygon fill="#63b8ff" stroke="#63b8ff" points="405.66,-312.53 403.18,-322.83 411.54,-316.33 405.66,-312.53"/>
</g>
<!-- Node10 -->
<g id="node10" class="node">
<title>Node10</title>
<g id="a_node10"><a xlink:href="pyTritonContext_8cpp.html" target="_top" xlink:title=" ">
<polygon fill="white" stroke="#666666" points="1376.5,-129 1254.5,-129 1254.5,-77 1376.5,-77 1376.5,-129"/>
<text text-anchor="start" x="1262.5" y="-117" font-family="Helvetica,sans-Serif" font-size="10.00">/Users/jonathan/Works</text>
<text text-anchor="start" x="1262.5" y="-106" font-family="Helvetica,sans-Serif" font-size="10.00">/Tools/Triton/src/libtriton</text>
<text text-anchor="start" x="1262.5" y="-95" font-family="Helvetica,sans-Serif" font-size="10.00">/bindings/python/objects</text>
<text text-anchor="middle" x="1315.5" y="-84" font-family="Helvetica,sans-Serif" font-size="10.00">/pyTritonContext.cpp</text>
</a>
</g>
</g>
<!-- Node9&#45;&gt;Node10 -->
<g id="edge10" class="edge">
<title>Node9&#45;&gt;Node10</title>
<path fill="none" stroke="#63b8ff" d="M467.97,-164.75C766.93,-117.08 1115.56,-106.88 1254.25,-104.64"/>
<polygon fill="#63b8ff" stroke="#63b8ff" points="467.72,-161.24 458.41,-166.29 468.84,-168.16 467.72,-161.24"/>
</g>
<!-- Node11 -->
<g id="node11" class="node">
<title>Node11</title>
<g id="a_node11"><a xlink:href="callbacks_8cpp.html" target="_top" xlink:title=" ">
<polygon fill="white" stroke="#666666" points="530.5,-123.5 406.5,-123.5 406.5,-82.5 530.5,-82.5 530.5,-123.5"/>
<text text-anchor="start" x="414.5" y="-111.5" font-family="Helvetica,sans-Serif" font-size="10.00">/Users/jonathan/Works</text>
<text text-anchor="start" x="414.5" y="-100.5" font-family="Helvetica,sans-Serif" font-size="10.00">/Tools/Triton/src/libtriton</text>
<text text-anchor="middle" x="468.5" y="-89.5" font-family="Helvetica,sans-Serif" font-size="10.00">/callbacks/callbacks.cpp</text>
</a>
</g>
</g>
<!-- Node9&#45;&gt;Node11 -->
<g id="edge11" class="edge">
<title>Node9&#45;&gt;Node11</title>
<path fill="none" stroke="#63b8ff" d="M416.8,-156.68C427.37,-145.91 439.23,-133.83 448.92,-123.95"/>
<polygon fill="#63b8ff" stroke="#63b8ff" points="414.59,-153.93 410.09,-163.52 419.59,-158.84 414.59,-153.93"/>
</g>
<!-- Node12 -->
<g id="node12" class="node">
<title>Node12</title>
<g id="a_node12"><a xlink:href="context_8cpp.html" target="_top" xlink:title=" ">
<polygon fill="white" stroke="#666666" points="670.5,-123.5 548.5,-123.5 548.5,-82.5 670.5,-82.5 670.5,-123.5"/>
<text text-anchor="start" x="556.5" y="-111.5" font-family="Helvetica,sans-Serif" font-size="10.00">/Users/jonathan/Works</text>
<text text-anchor="start" x="556.5" y="-100.5" font-family="Helvetica,sans-Serif" font-size="10.00">/Tools/Triton/src/libtriton</text>
<text text-anchor="middle" x="609.5" y="-89.5" font-family="Helvetica,sans-Serif" font-size="10.00">/context/context.cpp</text>
</a>
</g>
</g>
<!-- Node9&#45;&gt;Node12 -->
<g id="edge12" class="edge">
<title>Node9&#45;&gt;Node12</title>
<path fill="none" stroke="#63b8ff" d="M454.47,-160.73C486.44,-149.03 524.55,-135.08 554.98,-123.95"/>
<polygon fill="#63b8ff" stroke="#63b8ff" points="453.49,-157.36 445.3,-164.08 455.9,-163.93 453.49,-157.36"/>
</g>
<!-- Node13 -->
<g id="node13" class="node">
<title>Node13</title>
<g id="a_node13"><a xlink:href="symbolicSimplification_8cpp.html" target="_top" xlink:title=" ">
<polygon fill="white" stroke="#666666" points="215,-123.5 0,-123.5 0,-82.5 215,-82.5 215,-123.5"/>
<text text-anchor="start" x="8" y="-111.5" font-family="Helvetica,sans-Serif" font-size="10.00">/Users/jonathan/Works</text>
<text text-anchor="start" x="8" y="-100.5" font-family="Helvetica,sans-Serif" font-size="10.00">/Tools/Triton/src/libtriton</text>
<text text-anchor="middle" x="107.5" y="-89.5" font-family="Helvetica,sans-Serif" font-size="10.00">/engines/symbolic/symbolicSimplification.cpp</text>
</a>
</g>
</g>
<!-- Node9&#45;&gt;Node13 -->
<g id="edge13" class="edge">
<title>Node9&#45;&gt;Node13</title>
<path fill="none" stroke="#63b8ff" d="M311.27,-162.17C269.21,-150.16 217.79,-135.48 177.12,-123.87"/>
<polygon fill="#63b8ff" stroke="#63b8ff" points="310.28,-165.53 320.86,-164.91 312.2,-158.79 310.28,-165.53"/>
</g>
<!-- Node14 -->
<g id="node14" class="node">
<title>Node14</title>
<g id="a_node14"><a xlink:href="llvmToTriton_8hpp.html" target="_top" xlink:title=" ">
<polygon fill="white" stroke="#666666" points="388,-123.5 233,-123.5 233,-82.5 388,-82.5 388,-123.5"/>
<text text-anchor="start" x="241" y="-111.5" font-family="Helvetica,sans-Serif" font-size="10.00">/Users/jonathan/Works</text>
<text text-anchor="start" x="241" y="-100.5" font-family="Helvetica,sans-Serif" font-size="10.00">/Tools/Triton/src/libtriton</text>
<text text-anchor="middle" x="310.5" y="-89.5" font-family="Helvetica,sans-Serif" font-size="10.00">/includes/triton/llvmToTriton.hpp</text>
</a>
</g>
</g>
<!-- Node9&#45;&gt;Node14 -->
<g id="edge14" class="edge">
<title>Node9&#45;&gt;Node14</title>
<path fill="none" stroke="#63b8ff" d="M362.2,-156.68C351.63,-145.91 339.77,-133.83 330.08,-123.95"/>
<polygon fill="#63b8ff" stroke="#63b8ff" points="359.41,-158.84 368.91,-163.52 364.41,-153.93 359.41,-158.84"/>
</g>
<!-- Node15 -->
<g id="node15" class="node">
<title>Node15</title>
<g id="a_node15"><a xlink:href="llvmToTriton_8cpp.html" target="_top" xlink:title=" ">
<polygon fill="white" stroke="#666666" points="293,-41 164,-41 164,0 293,0 293,-41"/>
<text text-anchor="start" x="172" y="-29" font-family="Helvetica,sans-Serif" font-size="10.00">/Users/jonathan/Works</text>
<text text-anchor="start" x="172" y="-18" font-family="Helvetica,sans-Serif" font-size="10.00">/Tools/Triton/src/libtriton</text>
<text text-anchor="middle" x="228.5" y="-7" font-family="Helvetica,sans-Serif" font-size="10.00">/ast/llvm/llvmToTriton.cpp</text>
</a>
</g>
</g>
<!-- Node14&#45;&gt;Node15 -->
<g id="edge15" class="edge">
<title>Node14&#45;&gt;Node15</title>
<path fill="none" stroke="#63b8ff" d="M282.16,-74.18C271.19,-63.41 258.88,-51.33 248.82,-41.45"/>
<polygon fill="#63b8ff" stroke="#63b8ff" points="279.56,-76.53 289.15,-81.04 284.47,-71.54 279.56,-76.53"/>
</g>
<!-- Node16 -->
<g id="node16" class="node">
<title>Node16</title>
<g id="a_node16"><a xlink:href="liftingToLLVM_8cpp.html" target="_top" xlink:title=" ">
<polygon fill="white" stroke="#666666" points="472,-41 311,-41 311,0 472,0 472,-41"/>
<text text-anchor="start" x="319" y="-29" font-family="Helvetica,sans-Serif" font-size="10.00">/Users/jonathan/Works</text>
<text text-anchor="start" x="319" y="-18" font-family="Helvetica,sans-Serif" font-size="10.00">/Tools/Triton/src/libtriton</text>
<text text-anchor="middle" x="391.5" y="-7" font-family="Helvetica,sans-Serif" font-size="10.00">/engines/lifters/liftingToLLVM.cpp</text>
</a>
</g>
</g>
<!-- Node14&#45;&gt;Node16 -->
<g id="edge16" class="edge">
<title>Node14&#45;&gt;Node16</title>
<path fill="none" stroke="#63b8ff" d="M338.49,-74.18C349.33,-63.41 361.49,-51.33 371.43,-41.45"/>
<polygon fill="#63b8ff" stroke="#63b8ff" points="336.22,-71.5 331.6,-81.03 341.16,-76.47 336.22,-71.5"/>
</g>
<!-- Node17&#45;&gt;Node9 -->
<g id="edge19" class="edge">
<title>Node17&#45;&gt;Node9</title>
<path fill="none" stroke="#63b8ff" d="M421.28,-232.34C415.25,-223.63 408.77,-214.3 403.25,-206.33"/>
<polygon fill="#63b8ff" stroke="#63b8ff" points="418.4,-234.33 426.98,-240.55 424.15,-230.34 418.4,-234.33"/>
</g>
<!-- Node18 -->
<g id="node18" class="node">
<title>Node18</title>
<g id="a_node18"><a xlink:href="synthesizer_8cpp.html" target="_top" xlink:title=" ">
<polygon fill="white" stroke="#666666" points="644.5,-206 474.5,-206 474.5,-165 644.5,-165 644.5,-206"/>
<text text-anchor="start" x="482.5" y="-194" font-family="Helvetica,sans-Serif" font-size="10.00">/Users/jonathan/Works</text>
<text text-anchor="start" x="482.5" y="-183" font-family="Helvetica,sans-Serif" font-size="10.00">/Tools/Triton/src/libtriton</text>
<text text-anchor="middle" x="559.5" y="-172" font-family="Helvetica,sans-Serif" font-size="10.00">/engines/synthesis/synthesizer.cpp</text>
</a>
</g>
</g>
<!-- Node17&#45;&gt;Node18 -->
<g id="edge18" class="edge">
<title>Node17&#45;&gt;Node18</title>
<path fill="none" stroke="#63b8ff" d="M482.35,-235.53C497.32,-226.02 514.02,-215.41 528.04,-206.49"/>
<polygon fill="#63b8ff" stroke="#63b8ff" points="480.65,-232.47 474.09,-240.79 484.41,-238.38 480.65,-232.47"/>
</g>
<!-- Node19&#45;&gt;Node2 -->
<g id="edge32" class="edge">
<title>Node19&#45;&gt;Node2</title>
<path fill="none" stroke="#63b8ff" d="M1547.28,-510.98C1369.64,-503.82 991.55,-485.91 863.5,-459 860.6,-458.39 857.65,-457.69 854.69,-456.91"/>
<polygon fill="#63b8ff" stroke="#63b8ff" points="1547.04,-514.47 1557.18,-511.38 1547.32,-507.48 1547.04,-514.47"/>
</g>
<!-- Node19&#45;&gt;Node10 -->
<g id="edge35" class="edge">
<title>Node19&#45;&gt;Node10</title>
<path fill="none" stroke="#63b8ff" d="M1735.28,-493.28C1793.01,-479.81 1856.88,-464.01 1861.5,-459 1896.03,-421.57 1880.5,-396.93 1880.5,-346 1880.5,-346 1880.5,-346 1880.5,-261.5 1880.5,-157.82 1523.04,-119.43 1376.77,-108.06"/>
<polygon fill="#63b8ff" stroke="#63b8ff" points="1734.63,-489.83 1725.69,-495.51 1736.22,-496.65 1734.63,-489.83"/>
</g>
<!-- Node20 -->
<g id="node20" class="node">
<title>Node20</title>
<g id="a_node20"><a xlink:href="tritonCallbacks_8cpp.html" target="_top" xlink:title=" ">
<polygon fill="white" stroke="#666666" points="2036.5,-459 1908.5,-459 1908.5,-407 2036.5,-407 2036.5,-459"/>
<text text-anchor="start" x="1916.5" y="-447" font-family="Helvetica,sans-Serif" font-size="10.00">/Users/jonathan/Works</text>
<text text-anchor="start" x="1916.5" y="-436" font-family="Helvetica,sans-Serif" font-size="10.00">/Tools/Triton/src/libtriton</text>
<text text-anchor="start" x="1916.5" y="-425" font-family="Helvetica,sans-Serif" font-size="10.00">/bindings/python/modules</text>
<text text-anchor="middle" x="1972.5" y="-414" font-family="Helvetica,sans-Serif" font-size="10.00">/tritonCallbacks.cpp</text>
</a>
</g>
</g>
<!-- Node19&#45;&gt;Node20 -->
<g id="edge21" class="edge">
<title>Node19&#45;&gt;Node20</title>
<path fill="none" stroke="#63b8ff" d="M1735.53,-494.32C1800.85,-480.23 1878.88,-463.21 1894.5,-459 1899.03,-457.78 1903.69,-456.46 1908.37,-455.08"/>
<polygon fill="#63b8ff" stroke="#63b8ff" points="1734.85,-490.89 1725.82,-496.42 1736.33,-497.73 1734.85,-490.89"/>
</g>
<!-- Node21 -->
<g id="node21" class="node">
<title>Node21</title>
<g id="a_node21"><a xlink:href="initRegNamespace_8cpp.html" target="_top" xlink:title=" ">
<polygon fill="white" stroke="#666666" points="2200.5,-459 2054.5,-459 2054.5,-407 2200.5,-407 2200.5,-459"/>
<text text-anchor="start" x="2062.5" y="-447" font-family="Helvetica,sans-Serif" font-size="10.00">/Users/jonathan/Works</text>
<text text-anchor="start" x="2062.5" y="-436" font-family="Helvetica,sans-Serif" font-size="10.00">/Tools/Triton/src/libtriton</text>
<text text-anchor="start" x="2062.5" y="-425" font-family="Helvetica,sans-Serif" font-size="10.00">/bindings/python/namespaces</text>
<text text-anchor="middle" x="2127.5" y="-414" font-family="Helvetica,sans-Serif" font-size="10.00">/initRegNamespace.cpp</text>
</a>
</g>
</g>
<!-- Node19&#45;&gt;Node21 -->
<g id="edge22" class="edge">
<title>Node19&#45;&gt;Node21</title>
<path fill="none" stroke="#63b8ff" d="M1735.18,-494.83C1873.23,-473.24 1912.32,-486.75 2045.5,-459 2048.41,-458.39 2051.37,-457.73 2054.35,-457.02"/>
<polygon fill="#63b8ff" stroke="#63b8ff" points="1735,-491.32 1725.68,-496.35 1736.11,-498.23 1735,-491.32"/>
</g>
<!-- Node22 -->
<g id="node22" class="node">
<title>Node22</title>
<g id="a_node22"><a xlink:href="pyAstContext_8cpp.html" target="_top" xlink:title=" ">
<polygon fill="white" stroke="#666666" points="2340.5,-459 2218.5,-459 2218.5,-407 2340.5,-407 2340.5,-459"/>
<text text-anchor="start" x="2226.5" y="-447" font-family="Helvetica,sans-Serif" font-size="10.00">/Users/jonathan/Works</text>
<text text-anchor="start" x="2226.5" y="-436" font-family="Helvetica,sans-Serif" font-size="10.00">/Tools/Triton/src/libtriton</text>
<text text-anchor="start" x="2226.5" y="-425" font-family="Helvetica,sans-Serif" font-size="10.00">/bindings/python/objects</text>
<text text-anchor="middle" x="2279.5" y="-414" font-family="Helvetica,sans-Serif" font-size="10.00">/pyAstContext.cpp</text>
</a>
</g>
</g>
<!-- Node19&#45;&gt;Node22 -->
<g id="edge23" class="edge">
<title>Node19&#45;&gt;Node22</title>
<path fill="none" stroke="#63b8ff" d="M1735.27,-494.88C1945.56,-466.22 2005.52,-502.32 2209.5,-459 2212.4,-458.38 2215.35,-457.68 2218.31,-456.9"/>
<polygon fill="#63b8ff" stroke="#63b8ff" points="1735.08,-491.37 1725.66,-496.23 1736.05,-498.31 1735.08,-491.37"/>
</g>
<!-- Node23 -->
<g id="node23" class="node">
<title>Node23</title>
<g id="a_node23"><a xlink:href="pyAstNode_8cpp.html" target="_top" xlink:title=" ">
<polygon fill="white" stroke="#666666" points="2480.5,-459 2358.5,-459 2358.5,-407 2480.5,-407 2480.5,-459"/>
<text text-anchor="start" x="2366.5" y="-447" font-family="Helvetica,sans-Serif" font-size="10.00">/Users/jonathan/Works</text>
<text text-anchor="start" x="2366.5" y="-436" font-family="Helvetica,sans-Serif" font-size="10.00">/Tools/Triton/src/libtriton</text>
<text text-anchor="start" x="2366.5" y="-425" font-family="Helvetica,sans-Serif" font-size="10.00">/bindings/python/objects</text>
<text text-anchor="middle" x="2419.5" y="-414" font-family="Helvetica,sans-Serif" font-size="10.00">/pyAstNode.cpp</text>
</a>
</g>
</g>
<!-- Node19&#45;&gt;Node23 -->
<g id="edge24" class="edge">
<title>Node19&#45;&gt;Node23</title>
<path fill="none" stroke="#63b8ff" d="M1735.16,-494.92C2007.32,-459.9 2084.3,-512.95 2349.5,-459 2352.41,-458.41 2355.36,-457.72 2358.32,-456.96"/>
<polygon fill="#63b8ff" stroke="#63b8ff" points="1735.11,-491.39 1725.65,-496.17 1736.02,-498.33 1735.11,-491.39"/>
</g>
<!-- Node24 -->
<g id="node24" class="node">
<title>Node24</title>
<g id="a_node24"><a xlink:href="pyBasicBlock_8cpp.html" target="_top" xlink:title=" ">
<polygon fill="white" stroke="#666666" points="2620.5,-459 2498.5,-459 2498.5,-407 2620.5,-407 2620.5,-459"/>
<text text-anchor="start" x="2506.5" y="-447" font-family="Helvetica,sans-Serif" font-size="10.00">/Users/jonathan/Works</text>
<text text-anchor="start" x="2506.5" y="-436" font-family="Helvetica,sans-Serif" font-size="10.00">/Tools/Triton/src/libtriton</text>
<text text-anchor="start" x="2506.5" y="-425" font-family="Helvetica,sans-Serif" font-size="10.00">/bindings/python/objects</text>
<text text-anchor="middle" x="2559.5" y="-414" font-family="Helvetica,sans-Serif" font-size="10.00">/pyBasicBlock.cpp</text>
</a>
</g>
</g>
<!-- Node19&#45;&gt;Node24 -->
<g id="edge25" class="edge">
<title>Node19&#45;&gt;Node24</title>
<path fill="none" stroke="#63b8ff" d="M1735.11,-494.94C2069.13,-453.52 2163.06,-523.58 2489.5,-459 2492.41,-458.42 2495.37,-457.75 2498.33,-457"/>
<polygon fill="#63b8ff" stroke="#63b8ff" points="1735.13,-491.41 1725.65,-496.14 1736.01,-498.35 1735.13,-491.41"/>
</g>
<!-- Node25 -->
<g id="node25" class="node">
<title>Node25</title>
<g id="a_node25"><a xlink:href="pyBitsVector_8cpp.html" target="_top" xlink:title=" ">
<polygon fill="white" stroke="#666666" points="2760.5,-459 2638.5,-459 2638.5,-407 2760.5,-407 2760.5,-459"/>
<text text-anchor="start" x="2646.5" y="-447" font-family="Helvetica,sans-Serif" font-size="10.00">/Users/jonathan/Works</text>
<text text-anchor="start" x="2646.5" y="-436" font-family="Helvetica,sans-Serif" font-size="10.00">/Tools/Triton/src/libtriton</text>
<text text-anchor="start" x="2646.5" y="-425" font-family="Helvetica,sans-Serif" font-size="10.00">/bindings/python/objects</text>
<text text-anchor="middle" x="2699.5" y="-414" font-family="Helvetica,sans-Serif" font-size="10.00">/pyBitsVector.cpp</text>
</a>
</g>
</g>
<!-- Node19&#45;&gt;Node25 -->
<g id="edge26" class="edge">
<title>Node19&#45;&gt;Node25</title>
<path fill="none" stroke="#63b8ff" d="M1735.33,-494.92C2131.01,-447.15 2241.88,-534.19 2629.5,-459 2632.41,-458.43 2635.37,-457.77 2638.33,-457.03"/>
<polygon fill="#63b8ff" stroke="#63b8ff" points="1735.14,-491.42 1725.64,-496.11 1736,-498.36 1735.14,-491.42"/>
</g>
<!-- Node26 -->
<g id="node26" class="node">
<title>Node26</title>
<g id="a_node26"><a xlink:href="pyImmediate_8cpp.html" target="_top" xlink:title=" ">
<polygon fill="white" stroke="#666666" points="994.5,-459 872.5,-459 872.5,-407 994.5,-407 994.5,-459"/>
<text text-anchor="start" x="880.5" y="-447" font-family="Helvetica,sans-Serif" font-size="10.00">/Users/jonathan/Works</text>
<text text-anchor="start" x="880.5" y="-436" font-family="Helvetica,sans-Serif" font-size="10.00">/Tools/Triton/src/libtriton</text>
<text text-anchor="start" x="880.5" y="-425" font-family="Helvetica,sans-Serif" font-size="10.00">/bindings/python/objects</text>
<text text-anchor="middle" x="933.5" y="-414" font-family="Helvetica,sans-Serif" font-size="10.00">/pyImmediate.cpp</text>
</a>
</g>
</g>
<!-- Node19&#45;&gt;Node26 -->
<g id="edge27" class="edge">
<title>Node19&#45;&gt;Node26</title>
<path fill="none" stroke="#63b8ff" d="M1547.21,-513.8C1421.71,-511.18 1193.5,-500.47 1003.5,-459 1000.6,-458.37 997.66,-457.65 994.7,-456.86"/>
<polygon fill="#63b8ff" stroke="#63b8ff" points="1547.08,-517.3 1557.15,-514 1547.22,-510.3 1547.08,-517.3"/>
</g>
<!-- Node27 -->
<g id="node27" class="node">
<title>Node27</title>
<g id="a_node27"><a xlink:href="pyInstruction_8cpp.html" target="_top" xlink:title=" ">
<polygon fill="white" stroke="#666666" points="1134.5,-459 1012.5,-459 1012.5,-407 1134.5,-407 1134.5,-459"/>
<text text-anchor="start" x="1020.5" y="-447" font-family="Helvetica,sans-Serif" font-size="10.00">/Users/jonathan/Works</text>
<text text-anchor="start" x="1020.5" y="-436" font-family="Helvetica,sans-Serif" font-size="10.00">/Tools/Triton/src/libtriton</text>
<text text-anchor="start" x="1020.5" y="-425" font-family="Helvetica,sans-Serif" font-size="10.00">/bindings/python/objects</text>
<text text-anchor="middle" x="1073.5" y="-414" font-family="Helvetica,sans-Serif" font-size="10.00">/pyInstruction.cpp</text>
</a>
</g>
</g>
<!-- Node19&#45;&gt;Node27 -->
<g id="edge28" class="edge">
<title>Node19&#45;&gt;Node27</title>
<path fill="none" stroke="#63b8ff" d="M1547.17,-510.51C1446.2,-504.72 1281.84,-490.95 1143.5,-459 1140.61,-458.33 1137.67,-457.58 1134.72,-456.77"/>
<polygon fill="#63b8ff" stroke="#63b8ff" points="1546.87,-513.99 1557.05,-511.06 1547.26,-507 1546.87,-513.99"/>
</g>
<!-- Node28 -->
<g id="node28" class="node">
<title>Node28</title>
<g id="a_node28"><a xlink:href="pyMemoryAccess_8cpp.html" target="_top" xlink:title=" ">
<polygon fill="white" stroke="#666666" points="1274.5,-459 1152.5,-459 1152.5,-407 1274.5,-407 1274.5,-459"/>
<text text-anchor="start" x="1160.5" y="-447" font-family="Helvetica,sans-Serif" font-size="10.00">/Users/jonathan/Works</text>
<text text-anchor="start" x="1160.5" y="-436" font-family="Helvetica,sans-Serif" font-size="10.00">/Tools/Triton/src/libtriton</text>
<text text-anchor="start" x="1160.5" y="-425" font-family="Helvetica,sans-Serif" font-size="10.00">/bindings/python/objects</text>
<text text-anchor="middle" x="1213.5" y="-414" font-family="Helvetica,sans-Serif" font-size="10.00">/pyMemoryAccess.cpp</text>
</a>
</g>
</g>
<!-- Node19&#45;&gt;Node28 -->
<g id="edge29" class="edge">
<title>Node19&#45;&gt;Node28</title>
<path fill="none" stroke="#63b8ff" d="M1547.44,-504.85C1474.66,-496.2 1371.75,-481.38 1283.5,-459 1280.62,-458.27 1277.7,-457.47 1274.76,-456.62"/>
<polygon fill="#63b8ff" stroke="#63b8ff" points="1547.01,-508.32 1557.35,-506.01 1547.83,-501.37 1547.01,-508.32"/>
</g>
<!-- Node29 -->
<g id="node29" class="node">
<title>Node29</title>
<g id="a_node29"><a xlink:href="pyPathConstraint_8cpp.html" target="_top" xlink:title=" ">
<polygon fill="white" stroke="#666666" points="1414.5,-459 1292.5,-459 1292.5,-407 1414.5,-407 1414.5,-459"/>
<text text-anchor="start" x="1300.5" y="-447" font-family="Helvetica,sans-Serif" font-size="10.00">/Users/jonathan/Works</text>
<text text-anchor="start" x="1300.5" y="-436" font-family="Helvetica,sans-Serif" font-size="10.00">/Tools/Triton/src/libtriton</text>
<text text-anchor="start" x="1300.5" y="-425" font-family="Helvetica,sans-Serif" font-size="10.00">/bindings/python/objects</text>
<text text-anchor="middle" x="1353.5" y="-414" font-family="Helvetica,sans-Serif" font-size="10.00">/pyPathConstraint.cpp</text>
</a>
</g>
</g>
<!-- Node19&#45;&gt;Node29 -->
<g id="edge30" class="edge">
<title>Node19&#45;&gt;Node29</title>
<path fill="none" stroke="#63b8ff" d="M1547.95,-492.73C1509.21,-483.18 1463.96,-471.35 1423.5,-459 1420.66,-458.13 1417.77,-457.22 1414.85,-456.28"/>
<polygon fill="#63b8ff" stroke="#63b8ff" points="1546.68,-496.02 1557.23,-495 1548.35,-489.22 1546.68,-496.02"/>
</g>
<!-- Node30 -->
<g id="node30" class="node">
<title>Node30</title>
<g id="a_node30"><a xlink:href="pyRegister_8cpp.html" target="_top" xlink:title=" ">
<polygon fill="white" stroke="#666666" points="1554.5,-459 1432.5,-459 1432.5,-407 1554.5,-407 1554.5,-459"/>
<text text-anchor="start" x="1440.5" y="-447" font-family="Helvetica,sans-Serif" font-size="10.00">/Users/jonathan/Works</text>
<text text-anchor="start" x="1440.5" y="-436" font-family="Helvetica,sans-Serif" font-size="10.00">/Tools/Triton/src/libtriton</text>
<text text-anchor="start" x="1440.5" y="-425" font-family="Helvetica,sans-Serif" font-size="10.00">/bindings/python/objects</text>
<text text-anchor="middle" x="1493.5" y="-414" font-family="Helvetica,sans-Serif" font-size="10.00">/pyRegister.cpp</text>
</a>
</g>
</g>
<!-- Node19&#45;&gt;Node30 -->
<g id="edge31" class="edge">
<title>Node19&#45;&gt;Node30</title>
<path fill="none" stroke="#63b8ff" d="M1594.96,-489.19C1577.54,-479.71 1557.75,-468.94 1540.3,-459.45"/>
<polygon fill="#63b8ff" stroke="#63b8ff" points="1593.13,-492.17 1603.59,-493.88 1596.47,-486.03 1593.13,-492.17"/>
</g>
<!-- Node31 -->
<g id="node31" class="node">
<title>Node31</title>
<g id="a_node31"><a xlink:href="pySymbolicExpression_8cpp.html" target="_top" xlink:title=" ">
<polygon fill="white" stroke="#666666" points="1710.5,-459 1572.5,-459 1572.5,-407 1710.5,-407 1710.5,-459"/>
<text text-anchor="start" x="1580.5" y="-447" font-family="Helvetica,sans-Serif" font-size="10.00">/Users/jonathan/Works</text>
<text text-anchor="start" x="1580.5" y="-436" font-family="Helvetica,sans-Serif" font-size="10.00">/Tools/Triton/src/libtriton</text>
<text text-anchor="start" x="1580.5" y="-425" font-family="Helvetica,sans-Serif" font-size="10.00">/bindings/python/objects</text>
<text text-anchor="middle" x="1641.5" y="-414" font-family="Helvetica,sans-Serif" font-size="10.00">/pySymbolicExpression.cpp</text>
</a>
</g>
</g>
<!-- Node19&#45;&gt;Node31 -->
<g id="edge33" class="edge">
<title>Node19&#45;&gt;Node31</title>
<path fill="none" stroke="#63b8ff" d="M1641.5,-483.2C1641.5,-475.34 1641.5,-466.99 1641.5,-459.45"/>
<polygon fill="#63b8ff" stroke="#63b8ff" points="1638,-483.09 1641.5,-493.09 1645,-483.09 1638,-483.09"/>
</g>
<!-- Node32 -->
<g id="node32" class="node">
<title>Node32</title>
<g id="a_node32"><a xlink:href="pySymbolicVariable_8cpp.html" target="_top" xlink:title=" ">
<polygon fill="white" stroke="#666666" points="1852.5,-459 1728.5,-459 1728.5,-407 1852.5,-407 1852.5,-459"/>
<text text-anchor="start" x="1736.5" y="-447" font-family="Helvetica,sans-Serif" font-size="10.00">/Users/jonathan/Works</text>
<text text-anchor="start" x="1736.5" y="-436" font-family="Helvetica,sans-Serif" font-size="10.00">/Tools/Triton/src/libtriton</text>
<text text-anchor="start" x="1736.5" y="-425" font-family="Helvetica,sans-Serif" font-size="10.00">/bindings/python/objects</text>
<text text-anchor="middle" x="1790.5" y="-414" font-family="Helvetica,sans-Serif" font-size="10.00">/pySymbolicVariable.cpp</text>
</a>
</g>
</g>
<!-- Node19&#45;&gt;Node32 -->
<g id="edge34" class="edge">
<title>Node19&#45;&gt;Node32</title>
<path fill="none" stroke="#63b8ff" d="M1688.35,-489.19C1705.89,-479.71 1725.82,-468.94 1743.39,-459.45"/>
<polygon fill="#63b8ff" stroke="#63b8ff" points="1686.8,-486.05 1679.66,-493.88 1690.12,-492.21 1686.8,-486.05"/>
</g>
<!-- Node33&#45;&gt;Node6 -->
<g id="edge38" class="edge">
<title>Node33&#45;&gt;Node6</title>
<path fill="none" stroke="#63b8ff" d="M409.79,-483.48C407.33,-473.56 404.67,-462.86 402.46,-453.95"/>
<polygon fill="#63b8ff" stroke="#63b8ff" points="406.38,-484.27 412.19,-493.13 413.18,-482.58 406.38,-484.27"/>
</g>
<!-- Node33&#45;&gt;Node7 -->
<g id="edge39" class="edge">
<title>Node33&#45;&gt;Node7</title>
<path fill="none" stroke="#63b8ff" d="M337.9,-489.13C325.01,-481.49 313.34,-471.64 305.5,-459 293.31,-439.36 295.01,-427.59 305.5,-407 314.42,-389.5 330.97,-375.84 347.04,-365.93"/>
<polygon fill="#63b8ff" stroke="#63b8ff" points="336.15,-492.17 346.61,-493.84 339.48,-486.01 336.15,-492.17"/>
</g>
<!-- Node33&#45;&gt;Node34 -->
<g id="edge40" class="edge">
<title>Node33&#45;&gt;Node34</title>
<path fill="none" stroke="#63b8ff" d="M464.98,-489.19C486.3,-477.82 511.1,-464.6 531.08,-453.95"/>
<polygon fill="#63b8ff" stroke="#63b8ff" points="463.34,-486.1 456.16,-493.89 466.63,-492.27 463.34,-486.1"/>
</g>
<!-- Node34&#45;&gt;Node5 -->
<g id="edge41" class="edge">
<title>Node34&#45;&gt;Node5</title>
<path fill="none" stroke="#63b8ff" d="M609.7,-405.95C630.08,-393.06 654.28,-377.76 673.13,-365.84"/>
<polygon fill="#63b8ff" stroke="#63b8ff" points="607.9,-402.94 601.32,-411.24 611.64,-408.86 607.9,-402.94"/>
</g>
<!-- Node34&#45;&gt;Node7 -->
<g id="edge42" class="edge">
<title>Node34&#45;&gt;Node7</title>
<path fill="none" stroke="#63b8ff" d="M516.86,-407.19C489.63,-394.11 456.67,-378.27 431.1,-365.99"/>
<polygon fill="#63b8ff" stroke="#63b8ff" points="515.09,-410.22 525.62,-411.4 518.12,-403.91 515.09,-410.22"/>
</g>
</g>
</svg>
