<?xml version="1.0" encoding="UTF-8" standalone="no"?>
<!DOCTYPE svg PUBLIC "-//W3C//DTD SVG 1.1//EN"
 "http://www.w3.org/Graphics/SVG/1.1/DTD/svg11.dtd">
<!-- Generated by graphviz version 2.49.0 (20210828.1703)
 -->
<!-- Title: /home/jonathan/Works/Tools/Triton/src/libtriton/includes/triton/solverModel.hpp Pages: 1 -->
<svg width="2918pt" height="551pt"
 viewBox="0.00 0.00 2918.00 551.00" xmlns="http://www.w3.org/2000/svg" xmlns:xlink="http://www.w3.org/1999/xlink">
<g id="graph0" class="graph" transform="scale(1 1) rotate(0) translate(4 547)">
<title>/home/jonathan/Works/Tools/Triton/src/libtriton/includes/triton/solverModel.hpp</title>
<polygon fill="white" stroke="transparent" points="-4,4 -4,-547 2914,-547 2914,4 -4,4"/>
<!-- Node1 -->
<g id="node1" class="node">
<title>Node1</title>
<g id="a_node1"><a xlink:title=" ">
<polygon fill="#bfbfbf" stroke="black" points="2210.5,-501.5 2210.5,-542.5 2383.5,-542.5 2383.5,-501.5 2210.5,-501.5"/>
<text text-anchor="start" x="2218.5" y="-530.5" font-family="Helvetica,sans-Serif" font-size="10.00">/home/jonathan/Works</text>
<text text-anchor="start" x="2218.5" y="-519.5" font-family="Helvetica,sans-Serif" font-size="10.00">/Tools/Triton/src/libtriton</text>
<text text-anchor="middle" x="2297" y="-508.5" font-family="Helvetica,sans-Serif" font-size="10.00">/includes/triton/solverModel.hpp</text>
</a>
</g>
</g>
<!-- Node2 -->
<g id="node2" class="node">
<title>Node2</title>
<g id="a_node2"><a xlink:href="pySolverModel_8cpp.html" target="_top" xlink:title=" ">
<polygon fill="white" stroke="black" points="0,-334.5 0,-386.5 136,-386.5 136,-334.5 0,-334.5"/>
<text text-anchor="start" x="8" y="-374.5" font-family="Helvetica,sans-Serif" font-size="10.00">/home/jonathan/Works</text>
<text text-anchor="start" x="8" y="-363.5" font-family="Helvetica,sans-Serif" font-size="10.00">/Tools/Triton/src/libtriton</text>
<text text-anchor="start" x="8" y="-352.5" font-family="Helvetica,sans-Serif" font-size="10.00">/bindings/python/objects</text>
<text text-anchor="middle" x="68" y="-341.5" font-family="Helvetica,sans-Serif" font-size="10.00">/pySolverModel.cpp</text>
</a>
</g>
</g>
<!-- Node1&#45;&gt;Node2 -->
<g id="edge1" class="edge">
<title>Node1&#45;&gt;Node2</title>
<path fill="none" stroke="midnightblue" d="M2200.08,-518.57C1835.46,-508.87 546.45,-469.39 145,-387 142.1,-386.41 139.16,-385.74 136.21,-385.01"/>
<polygon fill="midnightblue" stroke="midnightblue" points="2200.25,-522.08 2210.34,-518.84 2200.44,-515.08 2200.25,-522.08"/>
</g>
<!-- Node3 -->
<g id="node3" class="node">
<title>Node3</title>
<g id="a_node3"><a xlink:href="bitwuzlaSolver_8cpp.html" target="_top" xlink:title=" ">
<polygon fill="white" stroke="black" points="2034.5,-245.5 2034.5,-297.5 2169.5,-297.5 2169.5,-245.5 2034.5,-245.5"/>
<text text-anchor="start" x="2042.5" y="-285.5" font-family="Helvetica,sans-Serif" font-size="10.00">/home/jonathan/Works</text>
<text text-anchor="start" x="2042.5" y="-274.5" font-family="Helvetica,sans-Serif" font-size="10.00">/Tools/Triton/src/libtriton</text>
<text text-anchor="start" x="2042.5" y="-263.5" font-family="Helvetica,sans-Serif" font-size="10.00">/engines/solver/bitwuzla</text>
<text text-anchor="middle" x="2102" y="-252.5" font-family="Helvetica,sans-Serif" font-size="10.00">/bitwuzlaSolver.cpp</text>
</a>
</g>
</g>
<!-- Node1&#45;&gt;Node3 -->
<g id="edge2" class="edge">
<title>Node1&#45;&gt;Node3</title>
<path fill="none" stroke="midnightblue" d="M2245.19,-496.68C2203.62,-474.29 2147.52,-436.98 2118,-387 2101.77,-359.52 2099.53,-322.01 2100.16,-297.52"/>
<polygon fill="midnightblue" stroke="midnightblue" points="2243.6,-499.8 2254.08,-501.37 2246.87,-493.61 2243.6,-499.8"/>
</g>
<!-- Node4 -->
<g id="node4" class="node">
<title>Node4</title>
<g id="a_node4"><a xlink:href="solverModel_8cpp.html" target="_top" xlink:title=" ">
<polygon fill="white" stroke="black" points="2736,-423.5 2736,-464.5 2910,-464.5 2910,-423.5 2736,-423.5"/>
<text text-anchor="start" x="2744" y="-452.5" font-family="Helvetica,sans-Serif" font-size="10.00">/home/jonathan/Works</text>
<text text-anchor="start" x="2744" y="-441.5" font-family="Helvetica,sans-Serif" font-size="10.00">/Tools/Triton/src/libtriton</text>
<text text-anchor="middle" x="2823" y="-430.5" font-family="Helvetica,sans-Serif" font-size="10.00">/engines/solver/solverModel.cpp</text>
</a>
</g>
</g>
<!-- Node1&#45;&gt;Node4 -->
<g id="edge3" class="edge">
<title>Node1&#45;&gt;Node4</title>
<path fill="none" stroke="midnightblue" d="M2393.57,-510.08C2479.88,-499.88 2609.69,-483.5 2722,-465 2726.5,-464.26 2731.1,-463.47 2735.75,-462.64"/>
<polygon fill="midnightblue" stroke="midnightblue" points="2393.05,-506.61 2383.52,-511.26 2393.86,-513.56 2393.05,-506.61"/>
</g>
<!-- Node5 -->
<g id="node5" class="node">
<title>Node5</title>
<g id="a_node5"><a xlink:href="z3Solver_8cpp.html" target="_top" xlink:title=" ">
<polygon fill="white" stroke="black" points="2620,-251 2620,-292 2790,-292 2790,-251 2620,-251"/>
<text text-anchor="start" x="2628" y="-280" font-family="Helvetica,sans-Serif" font-size="10.00">/home/jonathan/Works</text>
<text text-anchor="start" x="2628" y="-269" font-family="Helvetica,sans-Serif" font-size="10.00">/Tools/Triton/src/libtriton</text>
<text text-anchor="middle" x="2705" y="-258" font-family="Helvetica,sans-Serif" font-size="10.00">/engines/solver/z3/z3Solver.cpp</text>
</a>
</g>
</g>
<!-- Node1&#45;&gt;Node5 -->
<g id="edge4" class="edge">
<title>Node1&#45;&gt;Node5</title>
<path fill="none" stroke="midnightblue" d="M2393.75,-518.98C2487.6,-511.14 2624.95,-482.74 2689,-387 2708.2,-358.31 2708.82,-316.48 2707.16,-292.13"/>
<polygon fill="midnightblue" stroke="midnightblue" points="2393.37,-515.49 2383.67,-519.75 2393.91,-522.47 2393.37,-515.49"/>
</g>
<!-- Node6 -->
<g id="node6" class="node">
<title>Node6</title>
<g id="a_node6"><a xlink:href="bitwuzlaSolver_8hpp.html" target="_top" xlink:title=" ">
<polygon fill="white" stroke="black" points="2127.5,-340 2127.5,-381 2312.5,-381 2312.5,-340 2127.5,-340"/>
<text text-anchor="start" x="2135.5" y="-369" font-family="Helvetica,sans-Serif" font-size="10.00">/home/jonathan/Works</text>
<text text-anchor="start" x="2135.5" y="-358" font-family="Helvetica,sans-Serif" font-size="10.00">/Tools/Triton/src/libtriton</text>
<text text-anchor="middle" x="2220" y="-347" font-family="Helvetica,sans-Serif" font-size="10.00">/includes/triton/bitwuzlaSolver.hpp</text>
</a>
</g>
</g>
<!-- Node1&#45;&gt;Node6 -->
<g id="edge5" class="edge">
<title>Node1&#45;&gt;Node6</title>
<path fill="none" stroke="midnightblue" d="M2283.06,-492.13C2267.57,-460.03 2242.95,-409.05 2229.52,-381.22"/>
<polygon fill="midnightblue" stroke="midnightblue" points="2280.06,-493.96 2287.56,-501.44 2286.36,-490.92 2280.06,-493.96"/>
</g>
<!-- Node7 -->
<g id="node7" class="node">
<title>Node7</title>
<g id="a_node7"><a xlink:href="pythonObjects_8hpp.html" target="_top" xlink:title=" ">
<polygon fill="white" stroke="black" points="1069,-423.5 1069,-464.5 1253,-464.5 1253,-423.5 1069,-423.5"/>
<text text-anchor="start" x="1077" y="-452.5" font-family="Helvetica,sans-Serif" font-size="10.00">/home/jonathan/Works</text>
<text text-anchor="start" x="1077" y="-441.5" font-family="Helvetica,sans-Serif" font-size="10.00">/Tools/Triton/src/libtriton</text>
<text text-anchor="middle" x="1161" y="-430.5" font-family="Helvetica,sans-Serif" font-size="10.00">/includes/triton/pythonObjects.hpp</text>
</a>
</g>
</g>
<!-- Node1&#45;&gt;Node7 -->
<g id="edge7" class="edge">
<title>Node1&#45;&gt;Node7</title>
<path fill="none" stroke="midnightblue" d="M2200.16,-514.52C1984.12,-500.07 1465.19,-465.35 1253.39,-451.18"/>
<polygon fill="midnightblue" stroke="midnightblue" points="2200,-518.02 2210.22,-515.19 2200.47,-511.03 2200,-518.02"/>
</g>
<!-- Node21 -->
<g id="node21" class="node">
<title>Node21</title>
<g id="a_node21"><a xlink:href="solverEngine_8hpp.html" target="_top" xlink:title=" ">
<polygon fill="white" stroke="black" points="2330,-340 2330,-381 2506,-381 2506,-340 2330,-340"/>
<text text-anchor="start" x="2338" y="-369" font-family="Helvetica,sans-Serif" font-size="10.00">/home/jonathan/Works</text>
<text text-anchor="start" x="2338" y="-358" font-family="Helvetica,sans-Serif" font-size="10.00">/Tools/Triton/src/libtriton</text>
<text text-anchor="middle" x="2418" y="-347" font-family="Helvetica,sans-Serif" font-size="10.00">/includes/triton/solverEngine.hpp</text>
</a>
</g>
</g>
<!-- Node1&#45;&gt;Node21 -->
<g id="edge22" class="edge">
<title>Node1&#45;&gt;Node21</title>
<path fill="none" stroke="midnightblue" d="M2296.23,-490.97C2297.12,-470.2 2301.22,-442.84 2315,-423 2327.77,-404.61 2347.98,-390.82 2367.13,-381.01"/>
<polygon fill="midnightblue" stroke="midnightblue" points="2292.73,-491.09 2296.03,-501.15 2299.73,-491.23 2292.73,-491.09"/>
</g>
<!-- Node31 -->
<g id="node31" class="node">
<title>Node31</title>
<g id="a_node31"><a xlink:href="solverInterface_8hpp.html" target="_top" xlink:title=" ">
<polygon fill="white" stroke="black" points="2324.5,-423.5 2324.5,-464.5 2511.5,-464.5 2511.5,-423.5 2324.5,-423.5"/>
<text text-anchor="start" x="2332.5" y="-452.5" font-family="Helvetica,sans-Serif" font-size="10.00">/home/jonathan/Works</text>
<text text-anchor="start" x="2332.5" y="-441.5" font-family="Helvetica,sans-Serif" font-size="10.00">/Tools/Triton/src/libtriton</text>
<text text-anchor="middle" x="2418" y="-430.5" font-family="Helvetica,sans-Serif" font-size="10.00">/includes/triton/solverInterface.hpp</text>
</a>
</g>
</g>
<!-- Node1&#45;&gt;Node31 -->
<g id="edge34" class="edge">
<title>Node1&#45;&gt;Node31</title>
<path fill="none" stroke="midnightblue" d="M2336.93,-495.92C2353.2,-485.7 2371.72,-474.07 2386.95,-464.51"/>
<polygon fill="midnightblue" stroke="midnightblue" points="2334.77,-493.15 2328.16,-501.43 2338.49,-499.07 2334.77,-493.15"/>
</g>
<!-- Node32 -->
<g id="node32" class="node">
<title>Node32</title>
<g id="a_node32"><a xlink:href="z3Solver_8hpp.html" target="_top" xlink:title=" ">
<polygon fill="white" stroke="black" points="2524.5,-340 2524.5,-381 2679.5,-381 2679.5,-340 2524.5,-340"/>
<text text-anchor="start" x="2532.5" y="-369" font-family="Helvetica,sans-Serif" font-size="10.00">/home/jonathan/Works</text>
<text text-anchor="start" x="2532.5" y="-358" font-family="Helvetica,sans-Serif" font-size="10.00">/Tools/Triton/src/libtriton</text>
<text text-anchor="middle" x="2602" y="-347" font-family="Helvetica,sans-Serif" font-size="10.00">/includes/triton/z3Solver.hpp</text>
</a>
</g>
</g>
<!-- Node1&#45;&gt;Node32 -->
<g id="edge39" class="edge">
<title>Node1&#45;&gt;Node32</title>
<path fill="none" stroke="midnightblue" d="M2393.37,-510.85C2434.85,-503.07 2482.36,-489.31 2520,-465 2552.93,-443.73 2578.46,-404.7 2591.77,-381.12"/>
<polygon fill="midnightblue" stroke="midnightblue" points="2392.75,-507.41 2383.52,-512.61 2393.98,-514.3 2392.75,-507.41"/>
</g>
<!-- Node6&#45;&gt;Node3 -->
<g id="edge6" class="edge">
<title>Node6&#45;&gt;Node3</title>
<path fill="none" stroke="midnightblue" d="M2185.21,-333.85C2169.68,-322.4 2151.46,-308.96 2136.02,-297.58"/>
<polygon fill="midnightblue" stroke="midnightblue" points="2183.39,-336.86 2193.52,-339.98 2187.55,-331.22 2183.39,-336.86"/>
</g>
<!-- Node7&#45;&gt;Node2 -->
<g id="edge18" class="edge">
<title>Node7&#45;&gt;Node2</title>
<path fill="none" stroke="midnightblue" d="M1058.7,-438.9C818.67,-429.06 232.96,-403.68 145,-387 142.09,-386.45 139.15,-385.82 136.19,-385.12"/>
<polygon fill="midnightblue" stroke="midnightblue" points="1058.69,-442.4 1068.82,-439.31 1058.98,-435.41 1058.69,-442.4"/>
</g>
<!-- Node8 -->
<g id="node8" class="node">
<title>Node8</title>
<g id="a_node8"><a xlink:href="tritonCallbacks_8cpp.html" target="_top" xlink:title=" ">
<polygon fill="white" stroke="black" points="1286.5,-334.5 1286.5,-386.5 1429.5,-386.5 1429.5,-334.5 1286.5,-334.5"/>
<text text-anchor="start" x="1294.5" y="-374.5" font-family="Helvetica,sans-Serif" font-size="10.00">/home/jonathan/Works</text>
<text text-anchor="start" x="1294.5" y="-363.5" font-family="Helvetica,sans-Serif" font-size="10.00">/Tools/Triton/src/libtriton</text>
<text text-anchor="start" x="1294.5" y="-352.5" font-family="Helvetica,sans-Serif" font-size="10.00">/bindings/python/modules</text>
<text text-anchor="middle" x="1358" y="-341.5" font-family="Helvetica,sans-Serif" font-size="10.00">/tritonCallbacks.cpp</text>
</a>
</g>
</g>
<!-- Node7&#45;&gt;Node8 -->
<g id="edge8" class="edge">
<title>Node7&#45;&gt;Node8</title>
<path fill="none" stroke="midnightblue" d="M1217.53,-419.61C1242.52,-409.28 1271.94,-397.1 1297.39,-386.58"/>
<polygon fill="midnightblue" stroke="midnightblue" points="1216.09,-416.42 1208.19,-423.48 1218.76,-422.89 1216.09,-416.42"/>
</g>
<!-- Node9 -->
<g id="node9" class="node">
<title>Node9</title>
<g id="a_node9"><a xlink:href="initRegNamespace_8cpp.html" target="_top" xlink:title=" ">
<polygon fill="white" stroke="black" points="1448,-334.5 1448,-386.5 1610,-386.5 1610,-334.5 1448,-334.5"/>
<text text-anchor="start" x="1456" y="-374.5" font-family="Helvetica,sans-Serif" font-size="10.00">/home/jonathan/Works</text>
<text text-anchor="start" x="1456" y="-363.5" font-family="Helvetica,sans-Serif" font-size="10.00">/Tools/Triton/src/libtriton</text>
<text text-anchor="start" x="1456" y="-352.5" font-family="Helvetica,sans-Serif" font-size="10.00">/bindings/python/namespaces</text>
<text text-anchor="middle" x="1529" y="-341.5" font-family="Helvetica,sans-Serif" font-size="10.00">/initRegNamespace.cpp</text>
</a>
</g>
</g>
<!-- Node7&#45;&gt;Node9 -->
<g id="edge9" class="edge">
<title>Node7&#45;&gt;Node9</title>
<path fill="none" stroke="midnightblue" d="M1263.06,-424.23C1315.55,-414.11 1380.42,-400.87 1438,-387 1441.19,-386.23 1444.44,-385.43 1447.71,-384.6"/>
<polygon fill="midnightblue" stroke="midnightblue" points="1262.24,-420.83 1253.08,-426.15 1263.56,-427.7 1262.24,-420.83"/>
</g>
<!-- Node10 -->
<g id="node10" class="node">
<title>Node10</title>
<g id="a_node10"><a xlink:href="pyAstContext_8cpp.html" target="_top" xlink:title=" ">
<polygon fill="white" stroke="black" points="1628,-334.5 1628,-386.5 1764,-386.5 1764,-334.5 1628,-334.5"/>
<text text-anchor="start" x="1636" y="-374.5" font-family="Helvetica,sans-Serif" font-size="10.00">/home/jonathan/Works</text>
<text text-anchor="start" x="1636" y="-363.5" font-family="Helvetica,sans-Serif" font-size="10.00">/Tools/Triton/src/libtriton</text>
<text text-anchor="start" x="1636" y="-352.5" font-family="Helvetica,sans-Serif" font-size="10.00">/bindings/python/objects</text>
<text text-anchor="middle" x="1696" y="-341.5" font-family="Helvetica,sans-Serif" font-size="10.00">/pyAstContext.cpp</text>
</a>
</g>
</g>
<!-- Node7&#45;&gt;Node10 -->
<g id="edge10" class="edge">
<title>Node7&#45;&gt;Node10</title>
<path fill="none" stroke="midnightblue" d="M1263.18,-436.33C1356.65,-428.86 1498.34,-414.08 1619,-387 1621.89,-386.35 1624.82,-385.64 1627.76,-384.88"/>
<polygon fill="midnightblue" stroke="midnightblue" points="1262.85,-432.85 1253.15,-437.12 1263.4,-439.83 1262.85,-432.85"/>
</g>
<!-- Node11 -->
<g id="node11" class="node">
<title>Node11</title>
<g id="a_node11"><a xlink:href="pyAstNode_8cpp.html" target="_top" xlink:title=" ">
<polygon fill="white" stroke="black" points="1782,-334.5 1782,-386.5 1918,-386.5 1918,-334.5 1782,-334.5"/>
<text text-anchor="start" x="1790" y="-374.5" font-family="Helvetica,sans-Serif" font-size="10.00">/home/jonathan/Works</text>
<text text-anchor="start" x="1790" y="-363.5" font-family="Helvetica,sans-Serif" font-size="10.00">/Tools/Triton/src/libtriton</text>
<text text-anchor="start" x="1790" y="-352.5" font-family="Helvetica,sans-Serif" font-size="10.00">/bindings/python/objects</text>
<text text-anchor="middle" x="1850" y="-341.5" font-family="Helvetica,sans-Serif" font-size="10.00">/pyAstNode.cpp</text>
</a>
</g>
</g>
<!-- Node7&#45;&gt;Node11 -->
<g id="edge11" class="edge">
<title>Node7&#45;&gt;Node11</title>
<path fill="none" stroke="midnightblue" d="M1263.32,-440.76C1385.71,-436.45 1596.23,-423.85 1773,-387 1775.89,-386.4 1778.83,-385.72 1781.79,-384.99"/>
<polygon fill="midnightblue" stroke="midnightblue" points="1263.08,-437.27 1253.21,-441.11 1263.32,-444.26 1263.08,-437.27"/>
</g>
<!-- Node12 -->
<g id="node12" class="node">
<title>Node12</title>
<g id="a_node12"><a xlink:href="pyBitsVector_8cpp.html" target="_top" xlink:title=" ">
<polygon fill="white" stroke="black" points="1936,-334.5 1936,-386.5 2072,-386.5 2072,-334.5 1936,-334.5"/>
<text text-anchor="start" x="1944" y="-374.5" font-family="Helvetica,sans-Serif" font-size="10.00">/home/jonathan/Works</text>
<text text-anchor="start" x="1944" y="-363.5" font-family="Helvetica,sans-Serif" font-size="10.00">/Tools/Triton/src/libtriton</text>
<text text-anchor="start" x="1944" y="-352.5" font-family="Helvetica,sans-Serif" font-size="10.00">/bindings/python/objects</text>
<text text-anchor="middle" x="2004" y="-341.5" font-family="Helvetica,sans-Serif" font-size="10.00">/pyBitsVector.cpp</text>
</a>
</g>
</g>
<!-- Node7&#45;&gt;Node12 -->
<g id="edge12" class="edge">
<title>Node7&#45;&gt;Node12</title>
<path fill="none" stroke="midnightblue" d="M1263.48,-443.49C1411.43,-442.4 1692.81,-433.59 1927,-387 1929.9,-386.42 1932.84,-385.77 1935.8,-385.05"/>
<polygon fill="midnightblue" stroke="midnightblue" points="1263.04,-439.99 1253.07,-443.56 1263.09,-446.99 1263.04,-439.99"/>
</g>
<!-- Node13 -->
<g id="node13" class="node">
<title>Node13</title>
<g id="a_node13"><a xlink:href="pyImmediate_8cpp.html" target="_top" xlink:title=" ">
<polygon fill="white" stroke="black" points="154,-334.5 154,-386.5 290,-386.5 290,-334.5 154,-334.5"/>
<text text-anchor="start" x="162" y="-374.5" font-family="Helvetica,sans-Serif" font-size="10.00">/home/jonathan/Works</text>
<text text-anchor="start" x="162" y="-363.5" font-family="Helvetica,sans-Serif" font-size="10.00">/Tools/Triton/src/libtriton</text>
<text text-anchor="start" x="162" y="-352.5" font-family="Helvetica,sans-Serif" font-size="10.00">/bindings/python/objects</text>
<text text-anchor="middle" x="222" y="-341.5" font-family="Helvetica,sans-Serif" font-size="10.00">/pyImmediate.cpp</text>
</a>
</g>
</g>
<!-- Node7&#45;&gt;Node13 -->
<g id="edge13" class="edge">
<title>Node7&#45;&gt;Node13</title>
<path fill="none" stroke="midnightblue" d="M1058.94,-439.63C863.2,-432.63 441.79,-414.81 299,-387 296.1,-386.43 293.15,-385.79 290.19,-385.08"/>
<polygon fill="midnightblue" stroke="midnightblue" points="1058.82,-443.13 1068.94,-439.99 1059.07,-436.13 1058.82,-443.13"/>
</g>
<!-- Node14 -->
<g id="node14" class="node">
<title>Node14</title>
<g id="a_node14"><a xlink:href="pyInstruction_8cpp.html" target="_top" xlink:title=" ">
<polygon fill="white" stroke="black" points="308,-334.5 308,-386.5 444,-386.5 444,-334.5 308,-334.5"/>
<text text-anchor="start" x="316" y="-374.5" font-family="Helvetica,sans-Serif" font-size="10.00">/home/jonathan/Works</text>
<text text-anchor="start" x="316" y="-363.5" font-family="Helvetica,sans-Serif" font-size="10.00">/Tools/Triton/src/libtriton</text>
<text text-anchor="start" x="316" y="-352.5" font-family="Helvetica,sans-Serif" font-size="10.00">/bindings/python/objects</text>
<text text-anchor="middle" x="376" y="-341.5" font-family="Helvetica,sans-Serif" font-size="10.00">/pyInstruction.cpp</text>
</a>
</g>
</g>
<!-- Node7&#45;&gt;Node14 -->
<g id="edge14" class="edge">
<title>Node7&#45;&gt;Node14</title>
<path fill="none" stroke="midnightblue" d="M1058.75,-442.6C920.15,-440.31 665.53,-429.94 453,-387 450.1,-386.41 447.16,-385.75 444.2,-385.03"/>
<polygon fill="midnightblue" stroke="midnightblue" points="1058.89,-446.1 1068.94,-442.75 1058.99,-439.1 1058.89,-446.1"/>
</g>
<!-- Node15 -->
<g id="node15" class="node">
<title>Node15</title>
<g id="a_node15"><a xlink:href="pyMemoryAccess_8cpp.html" target="_top" xlink:title=" ">
<polygon fill="white" stroke="black" points="462,-334.5 462,-386.5 598,-386.5 598,-334.5 462,-334.5"/>
<text text-anchor="start" x="470" y="-374.5" font-family="Helvetica,sans-Serif" font-size="10.00">/home/jonathan/Works</text>
<text text-anchor="start" x="470" y="-363.5" font-family="Helvetica,sans-Serif" font-size="10.00">/Tools/Triton/src/libtriton</text>
<text text-anchor="start" x="470" y="-352.5" font-family="Helvetica,sans-Serif" font-size="10.00">/bindings/python/objects</text>
<text text-anchor="middle" x="530" y="-341.5" font-family="Helvetica,sans-Serif" font-size="10.00">/pyMemoryAccess.cpp</text>
</a>
</g>
</g>
<!-- Node7&#45;&gt;Node15 -->
<g id="edge15" class="edge">
<title>Node7&#45;&gt;Node15</title>
<path fill="none" stroke="midnightblue" d="M1058.61,-439.36C946.63,-433.83 762.4,-420.17 607,-387 604.11,-386.38 601.17,-385.7 598.22,-384.95"/>
<polygon fill="midnightblue" stroke="midnightblue" points="1058.72,-442.87 1068.88,-439.85 1059.06,-435.88 1058.72,-442.87"/>
</g>
<!-- Node16 -->
<g id="node16" class="node">
<title>Node16</title>
<g id="a_node16"><a xlink:href="pyPathConstraint_8cpp.html" target="_top" xlink:title=" ">
<polygon fill="white" stroke="black" points="616,-334.5 616,-386.5 752,-386.5 752,-334.5 616,-334.5"/>
<text text-anchor="start" x="624" y="-374.5" font-family="Helvetica,sans-Serif" font-size="10.00">/home/jonathan/Works</text>
<text text-anchor="start" x="624" y="-363.5" font-family="Helvetica,sans-Serif" font-size="10.00">/Tools/Triton/src/libtriton</text>
<text text-anchor="start" x="624" y="-352.5" font-family="Helvetica,sans-Serif" font-size="10.00">/bindings/python/objects</text>
<text text-anchor="middle" x="684" y="-341.5" font-family="Helvetica,sans-Serif" font-size="10.00">/pyPathConstraint.cpp</text>
</a>
</g>
</g>
<!-- Node7&#45;&gt;Node16 -->
<g id="edge16" class="edge">
<title>Node7&#45;&gt;Node16</title>
<path fill="none" stroke="midnightblue" d="M1058.54,-433.81C977.17,-425.27 860.86,-410.32 761,-387 758.12,-386.33 755.19,-385.59 752.25,-384.81"/>
<polygon fill="midnightblue" stroke="midnightblue" points="1058.48,-437.32 1068.78,-434.87 1059.2,-430.36 1058.48,-437.32"/>
</g>
<!-- Node17 -->
<g id="node17" class="node">
<title>Node17</title>
<g id="a_node17"><a xlink:href="pyRegister_8cpp.html" target="_top" xlink:title=" ">
<polygon fill="white" stroke="black" points="770,-334.5 770,-386.5 906,-386.5 906,-334.5 770,-334.5"/>
<text text-anchor="start" x="778" y="-374.5" font-family="Helvetica,sans-Serif" font-size="10.00">/home/jonathan/Works</text>
<text text-anchor="start" x="778" y="-363.5" font-family="Helvetica,sans-Serif" font-size="10.00">/Tools/Triton/src/libtriton</text>
<text text-anchor="start" x="778" y="-352.5" font-family="Helvetica,sans-Serif" font-size="10.00">/bindings/python/objects</text>
<text text-anchor="middle" x="838" y="-341.5" font-family="Helvetica,sans-Serif" font-size="10.00">/pyRegister.cpp</text>
</a>
</g>
</g>
<!-- Node7&#45;&gt;Node17 -->
<g id="edge17" class="edge">
<title>Node7&#45;&gt;Node17</title>
<path fill="none" stroke="midnightblue" d="M1058.83,-422.04C1014.4,-412.34 961.88,-400.06 915,-387 912.15,-386.21 909.25,-385.37 906.33,-384.51"/>
<polygon fill="midnightblue" stroke="midnightblue" points="1058.26,-425.5 1068.77,-424.2 1059.74,-418.66 1058.26,-425.5"/>
</g>
<!-- Node18 -->
<g id="node18" class="node">
<title>Node18</title>
<g id="a_node18"><a xlink:href="pySymbolicExpression_8cpp.html" target="_top" xlink:title=" ">
<polygon fill="white" stroke="black" points="924,-334.5 924,-386.5 1074,-386.5 1074,-334.5 924,-334.5"/>
<text text-anchor="start" x="932" y="-374.5" font-family="Helvetica,sans-Serif" font-size="10.00">/home/jonathan/Works</text>
<text text-anchor="start" x="932" y="-363.5" font-family="Helvetica,sans-Serif" font-size="10.00">/Tools/Triton/src/libtriton</text>
<text text-anchor="start" x="932" y="-352.5" font-family="Helvetica,sans-Serif" font-size="10.00">/bindings/python/objects</text>
<text text-anchor="middle" x="999" y="-341.5" font-family="Helvetica,sans-Serif" font-size="10.00">/pySymbolicExpression.cpp</text>
</a>
</g>
</g>
<!-- Node7&#45;&gt;Node18 -->
<g id="edge19" class="edge">
<title>Node7&#45;&gt;Node18</title>
<path fill="none" stroke="midnightblue" d="M1113.15,-418.93C1092.9,-408.74 1069.31,-396.87 1048.85,-386.58"/>
<polygon fill="midnightblue" stroke="midnightblue" points="1111.69,-422.11 1122.2,-423.48 1114.84,-415.86 1111.69,-422.11"/>
</g>
<!-- Node19 -->
<g id="node19" class="node">
<title>Node19</title>
<g id="a_node19"><a xlink:href="pySymbolicVariable_8cpp.html" target="_top" xlink:title=" ">
<polygon fill="white" stroke="black" points="1092.5,-334.5 1092.5,-386.5 1229.5,-386.5 1229.5,-334.5 1092.5,-334.5"/>
<text text-anchor="start" x="1100.5" y="-374.5" font-family="Helvetica,sans-Serif" font-size="10.00">/home/jonathan/Works</text>
<text text-anchor="start" x="1100.5" y="-363.5" font-family="Helvetica,sans-Serif" font-size="10.00">/Tools/Triton/src/libtriton</text>
<text text-anchor="start" x="1100.5" y="-352.5" font-family="Helvetica,sans-Serif" font-size="10.00">/bindings/python/objects</text>
<text text-anchor="middle" x="1161" y="-341.5" font-family="Helvetica,sans-Serif" font-size="10.00">/pySymbolicVariable.cpp</text>
</a>
</g>
</g>
<!-- Node7&#45;&gt;Node19 -->
<g id="edge20" class="edge">
<title>Node7&#45;&gt;Node19</title>
<path fill="none" stroke="midnightblue" d="M1161,-413.12C1161,-404.41 1161,-394.99 1161,-386.61"/>
<polygon fill="midnightblue" stroke="midnightblue" points="1157.5,-413.27 1161,-423.27 1164.5,-413.27 1157.5,-413.27"/>
</g>
<!-- Node20 -->
<g id="node20" class="node">
<title>Node20</title>
<g id="a_node20"><a xlink:href="pyTritonContext_8cpp.html" target="_top" xlink:title=" ">
<polygon fill="white" stroke="black" points="1610,-78.5 1610,-130.5 1746,-130.5 1746,-78.5 1610,-78.5"/>
<text text-anchor="start" x="1618" y="-118.5" font-family="Helvetica,sans-Serif" font-size="10.00">/home/jonathan/Works</text>
<text text-anchor="start" x="1618" y="-107.5" font-family="Helvetica,sans-Serif" font-size="10.00">/Tools/Triton/src/libtriton</text>
<text text-anchor="start" x="1618" y="-96.5" font-family="Helvetica,sans-Serif" font-size="10.00">/bindings/python/objects</text>
<text text-anchor="middle" x="1678" y="-85.5" font-family="Helvetica,sans-Serif" font-size="10.00">/pyTritonContext.cpp</text>
</a>
</g>
</g>
<!-- Node7&#45;&gt;Node20 -->
<g id="edge21" class="edge">
<title>Node7&#45;&gt;Node20</title>
<path fill="none" stroke="midnightblue" d="M1200.82,-417.57C1213.37,-408.65 1226.86,-398.08 1238,-387 1258.74,-366.38 1255.15,-353.44 1277,-334 1382.8,-239.85 1533.66,-166.79 1616.92,-130.57"/>
<polygon fill="midnightblue" stroke="midnightblue" points="1198.55,-414.89 1192.32,-423.46 1202.53,-420.64 1198.55,-414.89"/>
</g>
<!-- Node22 -->
<g id="node22" class="node">
<title>Node22</title>
<g id="a_node22"><a xlink:href="solverEngine_8cpp.html" target="_top" xlink:title=" ">
<polygon fill="white" stroke="black" points="2196.5,-251 2196.5,-292 2373.5,-292 2373.5,-251 2196.5,-251"/>
<text text-anchor="start" x="2204.5" y="-280" font-family="Helvetica,sans-Serif" font-size="10.00">/home/jonathan/Works</text>
<text text-anchor="start" x="2204.5" y="-269" font-family="Helvetica,sans-Serif" font-size="10.00">/Tools/Triton/src/libtriton</text>
<text text-anchor="middle" x="2285" y="-258" font-family="Helvetica,sans-Serif" font-size="10.00">/engines/solver/solverEngine.cpp</text>
</a>
</g>
</g>
<!-- Node21&#45;&gt;Node22 -->
<g id="edge23" class="edge">
<title>Node21&#45;&gt;Node22</title>
<path fill="none" stroke="midnightblue" d="M2379.67,-334.43C2359.18,-321.02 2334.31,-304.76 2315.21,-292.26"/>
<polygon fill="midnightblue" stroke="midnightblue" points="2377.87,-337.43 2388.15,-339.98 2381.7,-331.57 2377.87,-337.43"/>
</g>
<!-- Node23 -->
<g id="node23" class="node">
<title>Node23</title>
<g id="a_node23"><a xlink:href="api_8hpp.html" target="_top" xlink:title=" ">
<polygon fill="white" stroke="black" points="2301.5,-167.5 2301.5,-208.5 2434.5,-208.5 2434.5,-167.5 2301.5,-167.5"/>
<text text-anchor="start" x="2309.5" y="-196.5" font-family="Helvetica,sans-Serif" font-size="10.00">/home/jonathan/Works</text>
<text text-anchor="start" x="2309.5" y="-185.5" font-family="Helvetica,sans-Serif" font-size="10.00">/Tools/Triton/src/libtriton</text>
<text text-anchor="middle" x="2368" y="-174.5" font-family="Helvetica,sans-Serif" font-size="10.00">/includes/triton/api.hpp</text>
</a>
</g>
</g>
<!-- Node21&#45;&gt;Node23 -->
<g id="edge24" class="edge">
<title>Node21&#45;&gt;Node23</title>
<path fill="none" stroke="midnightblue" d="M2409.32,-329.9C2399.12,-295.11 2382.47,-238.34 2373.75,-208.59"/>
<polygon fill="midnightblue" stroke="midnightblue" points="2406.09,-331.33 2412.26,-339.94 2412.81,-329.36 2406.09,-331.33"/>
</g>
<!-- Node29 -->
<g id="node29" class="node">
<title>Node29</title>
<g id="a_node29"><a xlink:href="synthesizer_8hpp.html" target="_top" xlink:title=" ">
<polygon fill="white" stroke="black" points="2428.5,-251 2428.5,-292 2597.5,-292 2597.5,-251 2428.5,-251"/>
<text text-anchor="start" x="2436.5" y="-280" font-family="Helvetica,sans-Serif" font-size="10.00">/home/jonathan/Works</text>
<text text-anchor="start" x="2436.5" y="-269" font-family="Helvetica,sans-Serif" font-size="10.00">/Tools/Triton/src/libtriton</text>
<text text-anchor="middle" x="2513" y="-258" font-family="Helvetica,sans-Serif" font-size="10.00">/includes/triton/synthesizer.hpp</text>
</a>
</g>
</g>
<!-- Node21&#45;&gt;Node29 -->
<g id="edge31" class="edge">
<title>Node21&#45;&gt;Node29</title>
<path fill="none" stroke="midnightblue" d="M2447.2,-332.76C2461.5,-319.66 2478.43,-304.16 2491.53,-292.16"/>
<polygon fill="midnightblue" stroke="midnightblue" points="2444.57,-330.42 2439.56,-339.76 2449.3,-335.59 2444.57,-330.42"/>
</g>
<!-- Node23&#45;&gt;Node20 -->
<g id="edge26" class="edge">
<title>Node23&#45;&gt;Node20</title>
<path fill="none" stroke="midnightblue" d="M2290.89,-177.89C2155.05,-161.85 1875.26,-128.8 1746.1,-113.54"/>
<polygon fill="midnightblue" stroke="midnightblue" points="2290.87,-181.41 2301.21,-179.11 2291.69,-174.46 2290.87,-181.41"/>
</g>
<!-- Node24 -->
<g id="node24" class="node">
<title>Node24</title>
<g id="a_node24"><a xlink:href="api_8cpp.html" target="_top" xlink:title=" ">
<polygon fill="white" stroke="black" points="2149.5,-84 2149.5,-125 2282.5,-125 2282.5,-84 2149.5,-84"/>
<text text-anchor="start" x="2157.5" y="-113" font-family="Helvetica,sans-Serif" font-size="10.00">/home/jonathan/Works</text>
<text text-anchor="start" x="2157.5" y="-102" font-family="Helvetica,sans-Serif" font-size="10.00">/Tools/Triton/src/libtriton</text>
<text text-anchor="middle" x="2216" y="-91" font-family="Helvetica,sans-Serif" font-size="10.00">/api/api.cpp</text>
</a>
</g>
</g>
<!-- Node23&#45;&gt;Node24 -->
<g id="edge25" class="edge">
<title>Node23&#45;&gt;Node24</title>
<path fill="none" stroke="midnightblue" d="M2322.59,-162.65C2300.15,-150.62 2273.44,-136.3 2252.37,-125"/>
<polygon fill="midnightblue" stroke="midnightblue" points="2321.13,-165.84 2331.59,-167.48 2324.43,-159.67 2321.13,-165.84"/>
</g>
<!-- Node25 -->
<g id="node25" class="node">
<title>Node25</title>
<g id="a_node25"><a xlink:href="callbacks_8cpp.html" target="_top" xlink:title=" ">
<polygon fill="white" stroke="black" points="2301,-84 2301,-125 2435,-125 2435,-84 2301,-84"/>
<text text-anchor="start" x="2309" y="-113" font-family="Helvetica,sans-Serif" font-size="10.00">/home/jonathan/Works</text>
<text text-anchor="start" x="2309" y="-102" font-family="Helvetica,sans-Serif" font-size="10.00">/Tools/Triton/src/libtriton</text>
<text text-anchor="middle" x="2368" y="-91" font-family="Helvetica,sans-Serif" font-size="10.00">/callbacks/callbacks.cpp</text>
</a>
</g>
</g>
<!-- Node23&#45;&gt;Node25 -->
<g id="edge27" class="edge">
<title>Node23&#45;&gt;Node25</title>
<path fill="none" stroke="midnightblue" d="M2368,-157.06C2368,-146.38 2368,-134.63 2368,-125.05"/>
<polygon fill="midnightblue" stroke="midnightblue" points="2364.5,-157.27 2368,-167.27 2371.5,-157.27 2364.5,-157.27"/>
</g>
<!-- Node26 -->
<g id="node26" class="node">
<title>Node26</title>
<g id="a_node26"><a xlink:href="llvmToTriton_8hpp.html" target="_top" xlink:title=" ">
<polygon fill="white" stroke="black" points="2453.5,-84 2453.5,-125 2626.5,-125 2626.5,-84 2453.5,-84"/>
<text text-anchor="start" x="2461.5" y="-113" font-family="Helvetica,sans-Serif" font-size="10.00">/home/jonathan/Works</text>
<text text-anchor="start" x="2461.5" y="-102" font-family="Helvetica,sans-Serif" font-size="10.00">/Tools/Triton/src/libtriton</text>
<text text-anchor="middle" x="2540" y="-91" font-family="Helvetica,sans-Serif" font-size="10.00">/includes/triton/llvmToTriton.hpp</text>
</a>
</g>
</g>
<!-- Node23&#45;&gt;Node26 -->
<g id="edge28" class="edge">
<title>Node23&#45;&gt;Node26</title>
<path fill="none" stroke="midnightblue" d="M2418.38,-163.13C2443.97,-151 2474.68,-136.45 2498.84,-125"/>
<polygon fill="midnightblue" stroke="midnightblue" points="2416.74,-160.03 2409.2,-167.48 2419.73,-166.36 2416.74,-160.03"/>
</g>
<!-- Node27 -->
<g id="node27" class="node">
<title>Node27</title>
<g id="a_node27"><a xlink:href="llvmToTriton_8cpp.html" target="_top" xlink:title=" ">
<polygon fill="white" stroke="black" points="2380,-0.5 2380,-41.5 2522,-41.5 2522,-0.5 2380,-0.5"/>
<text text-anchor="start" x="2388" y="-29.5" font-family="Helvetica,sans-Serif" font-size="10.00">/home/jonathan/Works</text>
<text text-anchor="start" x="2388" y="-18.5" font-family="Helvetica,sans-Serif" font-size="10.00">/Tools/Triton/src/libtriton</text>
<text text-anchor="middle" x="2451" y="-7.5" font-family="Helvetica,sans-Serif" font-size="10.00">/ast/llvm/llvmToTriton.cpp</text>
</a>
</g>
</g>
<!-- Node26&#45;&gt;Node27 -->
<g id="edge29" class="edge">
<title>Node26&#45;&gt;Node27</title>
<path fill="none" stroke="midnightblue" d="M2510.91,-76.86C2498.34,-65.35 2483.9,-52.13 2472.35,-41.55"/>
<polygon fill="midnightblue" stroke="midnightblue" points="2508.72,-79.6 2518.46,-83.77 2513.44,-74.44 2508.72,-79.6"/>
</g>
<!-- Node28 -->
<g id="node28" class="node">
<title>Node28</title>
<g id="a_node28"><a xlink:href="liftingToLLVM_8cpp.html" target="_top" xlink:title=" ">
<polygon fill="white" stroke="black" points="2540,-0.5 2540,-41.5 2716,-41.5 2716,-0.5 2540,-0.5"/>
<text text-anchor="start" x="2548" y="-29.5" font-family="Helvetica,sans-Serif" font-size="10.00">/home/jonathan/Works</text>
<text text-anchor="start" x="2548" y="-18.5" font-family="Helvetica,sans-Serif" font-size="10.00">/Tools/Triton/src/libtriton</text>
<text text-anchor="middle" x="2628" y="-7.5" font-family="Helvetica,sans-Serif" font-size="10.00">/engines/lifters/liftingToLLVM.cpp</text>
</a>
</g>
</g>
<!-- Node26&#45;&gt;Node28 -->
<g id="edge30" class="edge">
<title>Node26&#45;&gt;Node28</title>
<path fill="none" stroke="midnightblue" d="M2568.76,-76.86C2581.19,-65.35 2595.47,-52.13 2606.89,-41.55"/>
<polygon fill="midnightblue" stroke="midnightblue" points="2566.26,-74.41 2561.3,-83.77 2571.02,-79.54 2566.26,-74.41"/>
</g>
<!-- Node29&#45;&gt;Node23 -->
<g id="edge33" class="edge">
<title>Node29&#45;&gt;Node23</title>
<path fill="none" stroke="midnightblue" d="M2469.39,-245.99C2448.05,-233.99 2422.71,-219.75 2402.7,-208.5"/>
<polygon fill="midnightblue" stroke="midnightblue" points="2467.84,-249.13 2478.27,-250.98 2471.27,-243.03 2467.84,-249.13"/>
</g>
<!-- Node30 -->
<g id="node30" class="node">
<title>Node30</title>
<g id="a_node30"><a xlink:href="synthesizer_8cpp.html" target="_top" xlink:title=" ">
<polygon fill="white" stroke="black" points="2453,-167.5 2453,-208.5 2639,-208.5 2639,-167.5 2453,-167.5"/>
<text text-anchor="start" x="2461" y="-196.5" font-family="Helvetica,sans-Serif" font-size="10.00">/home/jonathan/Works</text>
<text text-anchor="start" x="2461" y="-185.5" font-family="Helvetica,sans-Serif" font-size="10.00">/Tools/Triton/src/libtriton</text>
<text text-anchor="middle" x="2546" y="-174.5" font-family="Helvetica,sans-Serif" font-size="10.00">/engines/synthesis/synthesizer.cpp</text>
</a>
</g>
</g>
<!-- Node29&#45;&gt;Node30 -->
<g id="edge32" class="edge">
<title>Node29&#45;&gt;Node30</title>
<path fill="none" stroke="midnightblue" d="M2524.85,-241.23C2529.25,-230.37 2534.12,-218.33 2538.09,-208.55"/>
<polygon fill="midnightblue" stroke="midnightblue" points="2521.5,-240.19 2520.99,-250.77 2527.99,-242.82 2521.5,-240.19"/>
</g>
<!-- Node31&#45;&gt;Node6 -->
<g id="edge35" class="edge">
<title>Node31&#45;&gt;Node6</title>
<path fill="none" stroke="midnightblue" d="M2361.17,-419.61C2331.48,-407.39 2295.56,-392.6 2267.38,-381"/>
<polygon fill="midnightblue" stroke="midnightblue" points="2359.99,-422.91 2370.57,-423.48 2362.66,-416.44 2359.99,-422.91"/>
</g>
<!-- Node31&#45;&gt;Node21 -->
<g id="edge36" class="edge">
<title>Node31&#45;&gt;Node21</title>
<path fill="none" stroke="midnightblue" d="M2418,-413.06C2418,-402.38 2418,-390.63 2418,-381.05"/>
<polygon fill="midnightblue" stroke="midnightblue" points="2414.5,-413.27 2418,-423.27 2421.5,-413.27 2414.5,-413.27"/>
</g>
<!-- Node31&#45;&gt;Node32 -->
<g id="edge37" class="edge">
<title>Node31&#45;&gt;Node32</title>
<path fill="none" stroke="midnightblue" d="M2471.53,-419.29C2498.98,-407.13 2532.01,-392.5 2557.97,-381"/>
<polygon fill="midnightblue" stroke="midnightblue" points="2469.8,-416.23 2462.07,-423.48 2472.63,-422.63 2469.8,-416.23"/>
</g>
<!-- Node32&#45;&gt;Node5 -->
<g id="edge38" class="edge">
<title>Node32&#45;&gt;Node5</title>
<path fill="none" stroke="midnightblue" d="M2632.97,-333.34C2648.58,-320.15 2667.21,-304.42 2681.61,-292.26"/>
<polygon fill="midnightblue" stroke="midnightblue" points="2630.5,-330.85 2625.12,-339.98 2635.01,-336.2 2630.5,-330.85"/>
</g>
</g>
</svg>
