<?xml version="1.0" encoding="UTF-8" standalone="no"?>
<!DOCTYPE svg PUBLIC "-//W3C//DTD SVG 1.1//EN"
 "http://www.w3.org/Graphics/SVG/1.1/DTD/svg11.dtd">
<!-- Generated by graphviz version 7.0.0 (20221023.0053)
 -->
<!-- Title: /Users/jonathan/Works/Tools/Triton/src/libtriton/includes/triton/solverEnums.hpp Pages: 1 -->
<svg width="996pt" height="621pt"
 viewBox="0.00 0.00 995.50 621.00" xmlns="http://www.w3.org/2000/svg" xmlns:xlink="http://www.w3.org/1999/xlink">
<g id="graph0" class="graph" transform="scale(1 1) rotate(0) translate(4 617)">
<title>/Users/jonathan/Works/Tools/Triton/src/libtriton/includes/triton/solverEnums.hpp</title>
<!-- Node1 -->
<g id="node1" class="node">
<title>Node1</title>
<g id="a_node1"><a xlink:title=" ">
<polygon fill="#999999" stroke="#666666" points="465.5,-613 306.5,-613 306.5,-572 465.5,-572 465.5,-613"/>
<text text-anchor="start" x="314.5" y="-601" font-family="Helvetica,sans-Serif" font-size="10.00">/Users/jonathan/Works</text>
<text text-anchor="start" x="314.5" y="-590" font-family="Helvetica,sans-Serif" font-size="10.00">/Tools/Triton/src/libtriton</text>
<text text-anchor="middle" x="386" y="-579" font-family="Helvetica,sans-Serif" font-size="10.00">/includes/triton/solverEnums.hpp</text>
</a>
</g>
</g>
<!-- Node2 -->
<g id="node2" class="node">
<title>Node2</title>
<g id="a_node2"><a xlink:href="initSolverNamespace_8cpp.html" target="_top" xlink:title=" ">
<polygon fill="white" stroke="#666666" points="146,-536 0,-536 0,-484 146,-484 146,-536"/>
<text text-anchor="start" x="8" y="-524" font-family="Helvetica,sans-Serif" font-size="10.00">/Users/jonathan/Works</text>
<text text-anchor="start" x="8" y="-513" font-family="Helvetica,sans-Serif" font-size="10.00">/Tools/Triton/src/libtriton</text>
<text text-anchor="start" x="8" y="-502" font-family="Helvetica,sans-Serif" font-size="10.00">/bindings/python/namespaces</text>
<text text-anchor="middle" x="73" y="-491" font-family="Helvetica,sans-Serif" font-size="10.00">/initSolverNamespace.cpp</text>
</a>
</g>
</g>
<!-- Node1&#45;&gt;Node2 -->
<g id="edge1" class="edge">
<title>Node1&#45;&gt;Node2</title>
<path fill="none" stroke="#63b8ff" d="M294.84,-570.93C252.21,-560.97 200.85,-548.48 155,-536 152.13,-535.22 149.2,-534.41 146.25,-533.57"/>
<polygon fill="#63b8ff" stroke="#63b8ff" points="294.05,-574.34 304.58,-573.2 295.63,-567.52 294.05,-574.34"/>
</g>
<!-- Node3 -->
<g id="node3" class="node">
<title>Node3</title>
<g id="a_node3"><a xlink:href="initSolverStateNamespace_8cpp.html" target="_top" xlink:title=" ">
<polygon fill="white" stroke="#666666" points="319.5,-536 164.5,-536 164.5,-484 319.5,-484 319.5,-536"/>
<text text-anchor="start" x="172.5" y="-524" font-family="Helvetica,sans-Serif" font-size="10.00">/Users/jonathan/Works</text>
<text text-anchor="start" x="172.5" y="-513" font-family="Helvetica,sans-Serif" font-size="10.00">/Tools/Triton/src/libtriton</text>
<text text-anchor="start" x="172.5" y="-502" font-family="Helvetica,sans-Serif" font-size="10.00">/bindings/python/namespaces</text>
<text text-anchor="middle" x="242" y="-491" font-family="Helvetica,sans-Serif" font-size="10.00">/initSolverStateNamespace.cpp</text>
</a>
</g>
</g>
<!-- Node1&#45;&gt;Node3 -->
<g id="edge2" class="edge">
<title>Node1&#45;&gt;Node3</title>
<path fill="none" stroke="#63b8ff" d="M340.72,-566.19C323.77,-556.71 304.51,-545.94 287.53,-536.45"/>
<polygon fill="#63b8ff" stroke="#63b8ff" points="338.65,-569.04 349.08,-570.86 342.06,-562.93 338.65,-569.04"/>
</g>
<!-- Node4 -->
<g id="node4" class="node">
<title>Node4</title>
<g id="a_node4"><a xlink:href="bitwuzlaSolver_8hpp.html" target="_top" xlink:title=" ">
<polygon fill="white" stroke="#666666" points="542.5,-448 377.5,-448 377.5,-407 542.5,-407 542.5,-448"/>
<text text-anchor="start" x="385.5" y="-436" font-family="Helvetica,sans-Serif" font-size="10.00">/Users/jonathan/Works</text>
<text text-anchor="start" x="385.5" y="-425" font-family="Helvetica,sans-Serif" font-size="10.00">/Tools/Triton/src/libtriton</text>
<text text-anchor="middle" x="460" y="-414" font-family="Helvetica,sans-Serif" font-size="10.00">/includes/triton/bitwuzlaSolver.hpp</text>
</a>
</g>
</g>
<!-- Node1&#45;&gt;Node4 -->
<g id="edge3" class="edge">
<title>Node1&#45;&gt;Node4</title>
<path fill="none" stroke="#63b8ff" d="M386.6,-560.54C388.16,-538.17 392.66,-507.82 405,-484 412.05,-470.39 423.59,-457.98 434.29,-448.36"/>
<polygon fill="#63b8ff" stroke="#63b8ff" points="383.12,-560.07 386.09,-570.23 390.11,-560.43 383.12,-560.07"/>
</g>
<!-- Node6 -->
<g id="node6" class="node">
<title>Node6</title>
<g id="a_node6"><a xlink:href="solverEngine_8hpp.html" target="_top" xlink:title=" ">
<polygon fill="white" stroke="#666666" points="674,-365.5 516,-365.5 516,-324.5 674,-324.5 674,-365.5"/>
<text text-anchor="start" x="524" y="-353.5" font-family="Helvetica,sans-Serif" font-size="10.00">/Users/jonathan/Works</text>
<text text-anchor="start" x="524" y="-342.5" font-family="Helvetica,sans-Serif" font-size="10.00">/Tools/Triton/src/libtriton</text>
<text text-anchor="middle" x="595" y="-331.5" font-family="Helvetica,sans-Serif" font-size="10.00">/includes/triton/solverEngine.hpp</text>
</a>
</g>
</g>
<!-- Node1&#45;&gt;Node6 -->
<g id="edge19" class="edge">
<title>Node1&#45;&gt;Node6</title>
<path fill="none" stroke="#63b8ff" d="M477.13,-577.6C524.5,-568.35 575.49,-554.47 590,-536 629.33,-485.91 612.2,-403.36 601.39,-365.76"/>
<polygon fill="#63b8ff" stroke="#63b8ff" points="476.49,-574.16 467.32,-579.46 477.79,-581.04 476.49,-574.16"/>
</g>
<!-- Node8 -->
<g id="node8" class="node">
<title>Node8</title>
<g id="a_node8"><a xlink:href="context_8hpp.html" target="_top" xlink:title=" ">
<polygon fill="white" stroke="#666666" points="503,-206 369,-206 369,-165 503,-165 503,-206"/>
<text text-anchor="start" x="377" y="-194" font-family="Helvetica,sans-Serif" font-size="10.00">/Users/jonathan/Works</text>
<text text-anchor="start" x="377" y="-183" font-family="Helvetica,sans-Serif" font-size="10.00">/Tools/Triton/src/libtriton</text>
<text text-anchor="middle" x="436" y="-172" font-family="Helvetica,sans-Serif" font-size="10.00">/includes/triton/context.hpp</text>
</a>
</g>
</g>
<!-- Node1&#45;&gt;Node8 -->
<g id="edge18" class="edge">
<title>Node1&#45;&gt;Node8</title>
<path fill="none" stroke="#63b8ff" d="M374.47,-560.96C363.28,-528.58 348,-475.68 348,-428.5 348,-428.5 348,-428.5 348,-344 348,-288.56 390.07,-234.49 416.03,-206.4"/>
<polygon fill="#63b8ff" stroke="#63b8ff" points="371.06,-561.84 377.71,-570.09 377.66,-559.5 371.06,-561.84"/>
</g>
<!-- Node18 -->
<g id="node18" class="node">
<title>Node18</title>
<g id="a_node18"><a xlink:href="solverInterface_8hpp.html" target="_top" xlink:title=" ">
<polygon fill="white" stroke="#666666" points="581.5,-530.5 414.5,-530.5 414.5,-489.5 581.5,-489.5 581.5,-530.5"/>
<text text-anchor="start" x="422.5" y="-518.5" font-family="Helvetica,sans-Serif" font-size="10.00">/Users/jonathan/Works</text>
<text text-anchor="start" x="422.5" y="-507.5" font-family="Helvetica,sans-Serif" font-size="10.00">/Tools/Triton/src/libtriton</text>
<text text-anchor="middle" x="498" y="-496.5" font-family="Helvetica,sans-Serif" font-size="10.00">/includes/triton/solverInterface.hpp</text>
</a>
</g>
</g>
<!-- Node1&#45;&gt;Node18 -->
<g id="edge20" class="edge">
<title>Node1&#45;&gt;Node18</title>
<path fill="none" stroke="#63b8ff" d="M422.95,-564.94C438.36,-553.86 455.96,-541.21 470.24,-530.95"/>
<polygon fill="#63b8ff" stroke="#63b8ff" points="420.99,-562.04 414.91,-570.72 425.08,-567.72 420.99,-562.04"/>
</g>
<!-- Node19 -->
<g id="node19" class="node">
<title>Node19</title>
<g id="a_node19"><a xlink:href="z3Solver_8hpp.html" target="_top" xlink:title=" ">
<polygon fill="white" stroke="#666666" points="778,-448 638,-448 638,-407 778,-407 778,-448"/>
<text text-anchor="start" x="646" y="-436" font-family="Helvetica,sans-Serif" font-size="10.00">/Users/jonathan/Works</text>
<text text-anchor="start" x="646" y="-425" font-family="Helvetica,sans-Serif" font-size="10.00">/Tools/Triton/src/libtriton</text>
<text text-anchor="middle" x="708" y="-414" font-family="Helvetica,sans-Serif" font-size="10.00">/includes/triton/z3Solver.hpp</text>
</a>
</g>
</g>
<!-- Node1&#45;&gt;Node19 -->
<g id="edge26" class="edge">
<title>Node1&#45;&gt;Node19</title>
<path fill="none" stroke="#63b8ff" d="M477.3,-584.73C524.11,-577.81 580.31,-563.9 624,-536 658.53,-513.95 684.75,-472.61 698.13,-448.12"/>
<polygon fill="#63b8ff" stroke="#63b8ff" points="476.85,-581.26 467.42,-586.09 477.81,-588.19 476.85,-581.26"/>
</g>
<!-- Node5 -->
<g id="node5" class="node">
<title>Node5</title>
<g id="a_node5"><a xlink:href="bitwuzlaSolver_8cpp.html" target="_top" xlink:title=" ">
<polygon fill="white" stroke="#666666" points="498,-371 376,-371 376,-319 498,-319 498,-371"/>
<text text-anchor="start" x="384" y="-359" font-family="Helvetica,sans-Serif" font-size="10.00">/Users/jonathan/Works</text>
<text text-anchor="start" x="384" y="-348" font-family="Helvetica,sans-Serif" font-size="10.00">/Tools/Triton/src/libtriton</text>
<text text-anchor="start" x="384" y="-337" font-family="Helvetica,sans-Serif" font-size="10.00">/engines/solver/bitwuzla</text>
<text text-anchor="middle" x="437" y="-326" font-family="Helvetica,sans-Serif" font-size="10.00">/bitwuzlaSolver.cpp</text>
</a>
</g>
</g>
<!-- Node4&#45;&gt;Node5 -->
<g id="edge4" class="edge">
<title>Node4&#45;&gt;Node5</title>
<path fill="none" stroke="#63b8ff" d="M451.22,-395.76C448.92,-387.73 446.48,-379.17 444.27,-371.45"/>
<polygon fill="#63b8ff" stroke="#63b8ff" points="447.79,-396.49 453.9,-405.15 454.52,-394.57 447.79,-396.49"/>
</g>
<!-- Node4&#45;&gt;Node6 -->
<g id="edge5" class="edge">
<title>Node4&#45;&gt;Node6</title>
<path fill="none" stroke="#63b8ff" d="M503.23,-400.72C522.12,-389.46 543.93,-376.45 561.55,-365.95"/>
<polygon fill="#63b8ff" stroke="#63b8ff" points="501.47,-397.7 494.67,-405.83 505.05,-403.71 501.47,-397.7"/>
</g>
<!-- Node7 -->
<g id="node7" class="node">
<title>Node7</title>
<g id="a_node7"><a xlink:href="solverEngine_8cpp.html" target="_top" xlink:title=" ">
<polygon fill="white" stroke="#666666" points="625.5,-283 464.5,-283 464.5,-242 625.5,-242 625.5,-283"/>
<text text-anchor="start" x="472.5" y="-271" font-family="Helvetica,sans-Serif" font-size="10.00">/Users/jonathan/Works</text>
<text text-anchor="start" x="472.5" y="-260" font-family="Helvetica,sans-Serif" font-size="10.00">/Tools/Triton/src/libtriton</text>
<text text-anchor="middle" x="545" y="-249" font-family="Helvetica,sans-Serif" font-size="10.00">/engines/solver/solverEngine.cpp</text>
</a>
</g>
</g>
<!-- Node6&#45;&gt;Node7 -->
<g id="edge6" class="edge">
<title>Node6&#45;&gt;Node7</title>
<path fill="none" stroke="#63b8ff" d="M576.73,-314.59C570.3,-304.23 563.22,-292.84 557.39,-283.45"/>
<polygon fill="#63b8ff" stroke="#63b8ff" points="573.59,-316.17 581.84,-322.82 579.54,-312.47 573.59,-316.17"/>
</g>
<!-- Node6&#45;&gt;Node8 -->
<g id="edge7" class="edge">
<title>Node6&#45;&gt;Node8</title>
<path fill="none" stroke="#63b8ff" d="M524.39,-320.19C494.66,-308.81 464.7,-295.06 455,-283 437.45,-261.18 434.59,-227.71 434.8,-206.48"/>
<polygon fill="#63b8ff" stroke="#63b8ff" points="522.86,-323.35 533.45,-323.58 525.31,-316.8 522.86,-323.35"/>
</g>
<!-- Node16 -->
<g id="node16" class="node">
<title>Node16</title>
<g id="a_node16"><a xlink:href="synthesizer_8hpp.html" target="_top" xlink:title=" ">
<polygon fill="white" stroke="#666666" points="796,-283 644,-283 644,-242 796,-242 796,-283"/>
<text text-anchor="start" x="652" y="-271" font-family="Helvetica,sans-Serif" font-size="10.00">/Users/jonathan/Works</text>
<text text-anchor="start" x="652" y="-260" font-family="Helvetica,sans-Serif" font-size="10.00">/Tools/Triton/src/libtriton</text>
<text text-anchor="middle" x="720" y="-249" font-family="Helvetica,sans-Serif" font-size="10.00">/includes/triton/synthesizer.hpp</text>
</a>
</g>
</g>
<!-- Node6&#45;&gt;Node16 -->
<g id="edge15" class="edge">
<title>Node6&#45;&gt;Node16</title>
<path fill="none" stroke="#63b8ff" d="M635.27,-318.07C652.7,-306.84 672.78,-293.91 689.02,-283.45"/>
<polygon fill="#63b8ff" stroke="#63b8ff" points="633.68,-314.92 627.17,-323.28 637.47,-320.81 633.68,-314.92"/>
</g>
<!-- Node9 -->
<g id="node9" class="node">
<title>Node9</title>
<g id="a_node9"><a xlink:href="pyTritonContext_8cpp.html" target="_top" xlink:title=" ">
<polygon fill="white" stroke="#666666" points="215,-129 93,-129 93,-77 215,-77 215,-129"/>
<text text-anchor="start" x="101" y="-117" font-family="Helvetica,sans-Serif" font-size="10.00">/Users/jonathan/Works</text>
<text text-anchor="start" x="101" y="-106" font-family="Helvetica,sans-Serif" font-size="10.00">/Tools/Triton/src/libtriton</text>
<text text-anchor="start" x="101" y="-95" font-family="Helvetica,sans-Serif" font-size="10.00">/bindings/python/objects</text>
<text text-anchor="middle" x="154" y="-84" font-family="Helvetica,sans-Serif" font-size="10.00">/pyTritonContext.cpp</text>
</a>
</g>
</g>
<!-- Node8&#45;&gt;Node9 -->
<g id="edge8" class="edge">
<title>Node8&#45;&gt;Node9</title>
<path fill="none" stroke="#63b8ff" d="M357.67,-165.72C317.47,-155.65 267.86,-142.55 224,-129 221.16,-128.12 218.27,-127.2 215.36,-126.25"/>
<polygon fill="#63b8ff" stroke="#63b8ff" points="356.72,-169.09 367.27,-168.11 358.41,-162.3 356.72,-169.09"/>
</g>
<!-- Node10 -->
<g id="node10" class="node">
<title>Node10</title>
<g id="a_node10"><a xlink:href="callbacks_8cpp.html" target="_top" xlink:title=" ">
<polygon fill="white" stroke="#666666" points="357,-123.5 233,-123.5 233,-82.5 357,-82.5 357,-123.5"/>
<text text-anchor="start" x="241" y="-111.5" font-family="Helvetica,sans-Serif" font-size="10.00">/Users/jonathan/Works</text>
<text text-anchor="start" x="241" y="-100.5" font-family="Helvetica,sans-Serif" font-size="10.00">/Tools/Triton/src/libtriton</text>
<text text-anchor="middle" x="295" y="-89.5" font-family="Helvetica,sans-Serif" font-size="10.00">/callbacks/callbacks.cpp</text>
</a>
</g>
</g>
<!-- Node8&#45;&gt;Node10 -->
<g id="edge9" class="edge">
<title>Node8&#45;&gt;Node10</title>
<path fill="none" stroke="#63b8ff" d="M391.39,-159.03C371.54,-147.7 348.51,-134.55 329.94,-123.95"/>
<polygon fill="#63b8ff" stroke="#63b8ff" points="389.41,-161.93 399.83,-163.85 392.88,-155.85 389.41,-161.93"/>
</g>
<!-- Node11 -->
<g id="node11" class="node">
<title>Node11</title>
<g id="a_node11"><a xlink:href="context_8cpp.html" target="_top" xlink:title=" ">
<polygon fill="white" stroke="#666666" points="497,-123.5 375,-123.5 375,-82.5 497,-82.5 497,-123.5"/>
<text text-anchor="start" x="383" y="-111.5" font-family="Helvetica,sans-Serif" font-size="10.00">/Users/jonathan/Works</text>
<text text-anchor="start" x="383" y="-100.5" font-family="Helvetica,sans-Serif" font-size="10.00">/Tools/Triton/src/libtriton</text>
<text text-anchor="middle" x="436" y="-89.5" font-family="Helvetica,sans-Serif" font-size="10.00">/context/context.cpp</text>
</a>
</g>
</g>
<!-- Node8&#45;&gt;Node11 -->
<g id="edge10" class="edge">
<title>Node8&#45;&gt;Node11</title>
<path fill="none" stroke="#63b8ff" d="M436,-153.16C436,-143.33 436,-132.76 436,-123.95"/>
<polygon fill="#63b8ff" stroke="#63b8ff" points="432.5,-153.09 436,-163.09 439.5,-153.09 432.5,-153.09"/>
</g>
<!-- Node12 -->
<g id="node12" class="node">
<title>Node12</title>
<g id="a_node12"><a xlink:href="symbolicSimplification_8cpp.html" target="_top" xlink:title=" ">
<polygon fill="white" stroke="#666666" points="730.5,-123.5 515.5,-123.5 515.5,-82.5 730.5,-82.5 730.5,-123.5"/>
<text text-anchor="start" x="523.5" y="-111.5" font-family="Helvetica,sans-Serif" font-size="10.00">/Users/jonathan/Works</text>
<text text-anchor="start" x="523.5" y="-100.5" font-family="Helvetica,sans-Serif" font-size="10.00">/Tools/Triton/src/libtriton</text>
<text text-anchor="middle" x="623" y="-89.5" font-family="Helvetica,sans-Serif" font-size="10.00">/engines/symbolic/symbolicSimplification.cpp</text>
</a>
</g>
</g>
<!-- Node8&#45;&gt;Node12 -->
<g id="edge11" class="edge">
<title>Node8&#45;&gt;Node12</title>
<path fill="none" stroke="#63b8ff" d="M492.65,-160.11C519.53,-148.54 551.24,-134.89 576.66,-123.95"/>
<polygon fill="#63b8ff" stroke="#63b8ff" points="491.42,-156.83 483.61,-164 494.18,-163.26 491.42,-156.83"/>
</g>
<!-- Node13 -->
<g id="node13" class="node">
<title>Node13</title>
<g id="a_node13"><a xlink:href="llvmToTriton_8hpp.html" target="_top" xlink:title=" ">
<polygon fill="white" stroke="#666666" points="903.5,-123.5 748.5,-123.5 748.5,-82.5 903.5,-82.5 903.5,-123.5"/>
<text text-anchor="start" x="756.5" y="-111.5" font-family="Helvetica,sans-Serif" font-size="10.00">/Users/jonathan/Works</text>
<text text-anchor="start" x="756.5" y="-100.5" font-family="Helvetica,sans-Serif" font-size="10.00">/Tools/Triton/src/libtriton</text>
<text text-anchor="middle" x="826" y="-89.5" font-family="Helvetica,sans-Serif" font-size="10.00">/includes/triton/llvmToTriton.hpp</text>
</a>
</g>
</g>
<!-- Node8&#45;&gt;Node13 -->
<g id="edge12" class="edge">
<title>Node8&#45;&gt;Node13</title>
<path fill="none" stroke="#63b8ff" d="M514.62,-172.42C576.27,-162.39 664.05,-146.92 740,-129 746.51,-127.46 753.25,-125.74 759.98,-123.93"/>
<polygon fill="#63b8ff" stroke="#63b8ff" points="514.23,-168.93 504.92,-173.98 515.35,-175.84 514.23,-168.93"/>
</g>
<!-- Node14 -->
<g id="node14" class="node">
<title>Node14</title>
<g id="a_node14"><a xlink:href="llvmToTriton_8cpp.html" target="_top" xlink:title=" ">
<polygon fill="white" stroke="#666666" points="808.5,-41 679.5,-41 679.5,0 808.5,0 808.5,-41"/>
<text text-anchor="start" x="687.5" y="-29" font-family="Helvetica,sans-Serif" font-size="10.00">/Users/jonathan/Works</text>
<text text-anchor="start" x="687.5" y="-18" font-family="Helvetica,sans-Serif" font-size="10.00">/Tools/Triton/src/libtriton</text>
<text text-anchor="middle" x="744" y="-7" font-family="Helvetica,sans-Serif" font-size="10.00">/ast/llvm/llvmToTriton.cpp</text>
</a>
</g>
</g>
<!-- Node13&#45;&gt;Node14 -->
<g id="edge13" class="edge">
<title>Node13&#45;&gt;Node14</title>
<path fill="none" stroke="#63b8ff" d="M797.66,-74.18C786.69,-63.41 774.38,-51.33 764.32,-41.45"/>
<polygon fill="#63b8ff" stroke="#63b8ff" points="795.06,-76.53 804.65,-81.04 799.97,-71.54 795.06,-76.53"/>
</g>
<!-- Node15 -->
<g id="node15" class="node">
<title>Node15</title>
<g id="a_node15"><a xlink:href="liftingToLLVM_8cpp.html" target="_top" xlink:title=" ">
<polygon fill="white" stroke="#666666" points="987.5,-41 826.5,-41 826.5,0 987.5,0 987.5,-41"/>
<text text-anchor="start" x="834.5" y="-29" font-family="Helvetica,sans-Serif" font-size="10.00">/Users/jonathan/Works</text>
<text text-anchor="start" x="834.5" y="-18" font-family="Helvetica,sans-Serif" font-size="10.00">/Tools/Triton/src/libtriton</text>
<text text-anchor="middle" x="907" y="-7" font-family="Helvetica,sans-Serif" font-size="10.00">/engines/lifters/liftingToLLVM.cpp</text>
</a>
</g>
</g>
<!-- Node13&#45;&gt;Node15 -->
<g id="edge14" class="edge">
<title>Node13&#45;&gt;Node15</title>
<path fill="none" stroke="#63b8ff" d="M853.99,-74.18C864.83,-63.41 876.99,-51.33 886.93,-41.45"/>
<polygon fill="#63b8ff" stroke="#63b8ff" points="851.72,-71.5 847.1,-81.03 856.66,-76.47 851.72,-71.5"/>
</g>
<!-- Node16&#45;&gt;Node8 -->
<g id="edge17" class="edge">
<title>Node16&#45;&gt;Node8</title>
<path fill="none" stroke="#63b8ff" d="M633.63,-238.69C591.85,-227.66 542.43,-214.61 503.46,-204.32"/>
<polygon fill="#63b8ff" stroke="#63b8ff" points="632.61,-242.04 643.18,-241.21 634.4,-235.27 632.61,-242.04"/>
</g>
<!-- Node17 -->
<g id="node17" class="node">
<title>Node17</title>
<g id="a_node17"><a xlink:href="synthesizer_8cpp.html" target="_top" xlink:title=" ">
<polygon fill="white" stroke="#666666" points="805,-206 635,-206 635,-165 805,-165 805,-206"/>
<text text-anchor="start" x="643" y="-194" font-family="Helvetica,sans-Serif" font-size="10.00">/Users/jonathan/Works</text>
<text text-anchor="start" x="643" y="-183" font-family="Helvetica,sans-Serif" font-size="10.00">/Tools/Triton/src/libtriton</text>
<text text-anchor="middle" x="720" y="-172" font-family="Helvetica,sans-Serif" font-size="10.00">/engines/synthesis/synthesizer.cpp</text>
</a>
</g>
</g>
<!-- Node16&#45;&gt;Node17 -->
<g id="edge16" class="edge">
<title>Node16&#45;&gt;Node17</title>
<path fill="none" stroke="#63b8ff" d="M720,-230.36C720,-222.24 720,-213.7 720,-206.33"/>
<polygon fill="#63b8ff" stroke="#63b8ff" points="716.5,-230.28 720,-240.28 723.5,-230.28 716.5,-230.28"/>
</g>
<!-- Node18&#45;&gt;Node4 -->
<g id="edge21" class="edge">
<title>Node18&#45;&gt;Node4</title>
<path fill="none" stroke="#63b8ff" d="M483.81,-478.95C479.01,-468.76 473.76,-457.65 469.42,-448.45"/>
<polygon fill="#63b8ff" stroke="#63b8ff" points="480.53,-480.18 487.96,-487.73 486.86,-477.2 480.53,-480.18"/>
</g>
<!-- Node18&#45;&gt;Node6 -->
<g id="edge22" class="edge">
<title>Node18&#45;&gt;Node6</title>
<path fill="none" stroke="#63b8ff" d="M525.64,-480.87C534.45,-470.99 543.78,-459.48 551,-448 567.84,-421.22 581.16,-386.89 588.56,-365.68"/>
<polygon fill="#63b8ff" stroke="#63b8ff" points="523.31,-478.24 519.12,-487.98 528.46,-482.98 523.31,-478.24"/>
</g>
<!-- Node18&#45;&gt;Node19 -->
<g id="edge23" class="edge">
<title>Node18&#45;&gt;Node19</title>
<path fill="none" stroke="#63b8ff" d="M560.41,-485.07C590.85,-473.41 627.04,-459.54 655.96,-448.45"/>
<polygon fill="#63b8ff" stroke="#63b8ff" points="559.41,-481.71 551.32,-488.56 561.91,-488.25 559.41,-481.71"/>
</g>
<!-- Node19&#45;&gt;Node6 -->
<g id="edge25" class="edge">
<title>Node19&#45;&gt;Node6</title>
<path fill="none" stroke="#63b8ff" d="M670.72,-399.94C655.17,-388.86 637.41,-376.21 623,-365.95"/>
<polygon fill="#63b8ff" stroke="#63b8ff" points="668.66,-402.77 678.83,-405.72 672.72,-397.07 668.66,-402.77"/>
</g>
<!-- Node20 -->
<g id="node20" class="node">
<title>Node20</title>
<g id="a_node20"><a xlink:href="z3Solver_8cpp.html" target="_top" xlink:title=" ">
<polygon fill="white" stroke="#666666" points="847.5,-365.5 692.5,-365.5 692.5,-324.5 847.5,-324.5 847.5,-365.5"/>
<text text-anchor="start" x="700.5" y="-353.5" font-family="Helvetica,sans-Serif" font-size="10.00">/Users/jonathan/Works</text>
<text text-anchor="start" x="700.5" y="-342.5" font-family="Helvetica,sans-Serif" font-size="10.00">/Tools/Triton/src/libtriton</text>
<text text-anchor="middle" x="770" y="-331.5" font-family="Helvetica,sans-Serif" font-size="10.00">/engines/solver/z3/z3Solver.cpp</text>
</a>
</g>
</g>
<!-- Node19&#45;&gt;Node20 -->
<g id="edge24" class="edge">
<title>Node19&#45;&gt;Node20</title>
<path fill="none" stroke="#63b8ff" d="M730.16,-397.73C738.27,-387.2 747.25,-375.54 754.64,-365.95"/>
<polygon fill="#63b8ff" stroke="#63b8ff" points="727.58,-395.34 724.25,-405.4 733.12,-399.62 727.58,-395.34"/>
</g>
</g>
</svg>
