<?xml version="1.0" encoding="UTF-8" standalone="no"?>
<!DOCTYPE svg PUBLIC "-//W3C//DTD SVG 1.1//EN"
 "http://www.w3.org/Graphics/SVG/1.1/DTD/svg11.dtd">
<!-- Generated by graphviz version 11.0.0 (20240428.1522)
 -->
<!-- Title: /Users/jonathan/Works/Tools/Triton/src/libtriton/includes/triton/solverEnums.hpp Pages: 1 -->
<svg width="991pt" height="628pt"
 viewBox="0.00 0.00 990.88 627.75" xmlns="http://www.w3.org/2000/svg" xmlns:xlink="http://www.w3.org/1999/xlink">
<g id="graph0" class="graph" transform="scale(1 1) rotate(0) translate(4 623.75)">
<title>/Users/jonathan/Works/Tools/Triton/src/libtriton/includes/triton/solverEnums.hpp</title>
<!-- Node1 -->
<g id="Node000001" class="node">
<title>Node1</title>
<g id="a_Node000001"><a xlink:title=" ">
<polygon fill="#999999" stroke="#666666" points="463.12,-619.75 304.62,-619.75 304.62,-578 463.12,-578 463.12,-619.75"/>
<text text-anchor="start" x="312.62" y="-606.25" font-family="Helvetica,sans-Serif" font-size="10.00">/Users/jonathan/Works</text>
<text text-anchor="start" x="312.62" y="-595" font-family="Helvetica,sans-Serif" font-size="10.00">/Tools/Triton/src/libtriton</text>
<text text-anchor="middle" x="383.88" y="-583.75" font-family="Helvetica,sans-Serif" font-size="10.00">/includes/triton/solverEnums.hpp</text>
</a>
</g>
</g>
<!-- Node2 -->
<g id="Node000002" class="node">
<title>Node2</title>
<g id="a_Node000002"><a xlink:href="initSolverNamespace_8cpp.html" target="_top" xlink:title=" ">
<polygon fill="white" stroke="#666666" points="145.75,-542 0,-542 0,-489 145.75,-489 145.75,-542"/>
<text text-anchor="start" x="8" y="-528.5" font-family="Helvetica,sans-Serif" font-size="10.00">/Users/jonathan/Works</text>
<text text-anchor="start" x="8" y="-517.25" font-family="Helvetica,sans-Serif" font-size="10.00">/Tools/Triton/src/libtriton</text>
<text text-anchor="start" x="8" y="-506" font-family="Helvetica,sans-Serif" font-size="10.00">/bindings/python/namespaces</text>
<text text-anchor="middle" x="72.88" y="-494.75" font-family="Helvetica,sans-Serif" font-size="10.00">/initSolverNamespace.cpp</text>
</a>
</g>
</g>
<!-- Node1&#45;&gt;Node2 -->
<g id="edge1_Node000001_Node000002" class="edge">
<title>Node1&#45;&gt;Node2</title>
<g id="a_edge1_Node000001_Node000002"><a xlink:title=" ">
<path fill="none" stroke="#63b8ff" d="M293.24,-577.13C251.02,-567.12 200.22,-554.57 154.88,-542 152,-541.2 149.08,-540.38 146.13,-539.53"/>
<polygon fill="#63b8ff" stroke="#63b8ff" points="292.33,-580.51 302.87,-579.4 293.94,-573.7 292.33,-580.51"/>
</a>
</g>
</g>
<!-- Node3 -->
<g id="Node000003" class="node">
<title>Node3</title>
<g id="a_Node000003"><a xlink:href="initSolverStateNamespace_8cpp.html" target="_top" xlink:title=" ">
<polygon fill="white" stroke="#666666" points="317.88,-542 163.88,-542 163.88,-489 317.88,-489 317.88,-542"/>
<text text-anchor="start" x="171.88" y="-528.5" font-family="Helvetica,sans-Serif" font-size="10.00">/Users/jonathan/Works</text>
<text text-anchor="start" x="171.88" y="-517.25" font-family="Helvetica,sans-Serif" font-size="10.00">/Tools/Triton/src/libtriton</text>
<text text-anchor="start" x="171.88" y="-506" font-family="Helvetica,sans-Serif" font-size="10.00">/bindings/python/namespaces</text>
<text text-anchor="middle" x="240.88" y="-494.75" font-family="Helvetica,sans-Serif" font-size="10.00">/initSolverStateNamespace.cpp</text>
</a>
</g>
</g>
<!-- Node1&#45;&gt;Node3 -->
<g id="edge2_Node000001_Node000003" class="edge">
<title>Node1&#45;&gt;Node3</title>
<g id="a_edge2_Node000001_Node000003"><a xlink:title=" ">
<path fill="none" stroke="#63b8ff" d="M338.17,-571.86C321.62,-562.45 302.94,-551.82 286.4,-542.41"/>
<polygon fill="#63b8ff" stroke="#63b8ff" points="336.42,-574.9 346.84,-576.8 339.88,-568.81 336.42,-574.9"/>
</a>
</g>
</g>
<!-- Node4 -->
<g id="Node000004" class="node">
<title>Node4</title>
<g id="a_Node000004"><a xlink:href="bitwuzlaSolver_8hpp.html" target="_top" xlink:title=" ">
<polygon fill="white" stroke="#666666" points="539.12,-453 374.62,-453 374.62,-411.25 539.12,-411.25 539.12,-453"/>
<text text-anchor="start" x="382.62" y="-439.5" font-family="Helvetica,sans-Serif" font-size="10.00">/Users/jonathan/Works</text>
<text text-anchor="start" x="382.62" y="-428.25" font-family="Helvetica,sans-Serif" font-size="10.00">/Tools/Triton/src/libtriton</text>
<text text-anchor="middle" x="456.88" y="-417" font-family="Helvetica,sans-Serif" font-size="10.00">/includes/triton/bitwuzlaSolver.hpp</text>
</a>
</g>
</g>
<!-- Node1&#45;&gt;Node4 -->
<g id="edge3_Node000001_Node000004" class="edge">
<title>Node1&#45;&gt;Node4</title>
<g id="a_edge3_Node000001_Node000004"><a xlink:title=" ">
<path fill="none" stroke="#63b8ff" d="M384.49,-566.57C386.06,-543.94 390.56,-513.21 402.88,-489 409.73,-475.53 420.92,-463.15 431.34,-453.49"/>
<polygon fill="#63b8ff" stroke="#63b8ff" points="381,-566.22 383.98,-576.39 387.99,-566.59 381,-566.22"/>
</a>
</g>
</g>
<!-- Node6 -->
<g id="Node000006" class="node">
<title>Node6</title>
<g id="a_Node000006"><a xlink:href="solverEngine_8hpp.html" target="_top" xlink:title=" ">
<polygon fill="white" stroke="#666666" points="670.75,-369.62 513,-369.62 513,-327.88 670.75,-327.88 670.75,-369.62"/>
<text text-anchor="start" x="521" y="-356.12" font-family="Helvetica,sans-Serif" font-size="10.00">/Users/jonathan/Works</text>
<text text-anchor="start" x="521" y="-344.88" font-family="Helvetica,sans-Serif" font-size="10.00">/Tools/Triton/src/libtriton</text>
<text text-anchor="middle" x="591.88" y="-333.62" font-family="Helvetica,sans-Serif" font-size="10.00">/includes/triton/solverEngine.hpp</text>
</a>
</g>
</g>
<!-- Node1&#45;&gt;Node6 -->
<g id="edge19_Node000001_Node000006" class="edge">
<title>Node1&#45;&gt;Node6</title>
<g id="a_edge19_Node000001_Node000006"><a xlink:title=" ">
<path fill="none" stroke="#63b8ff" d="M474.83,-583.7C521.9,-574.34 572.48,-560.39 586.88,-542 626.49,-491.39 609.35,-408.19 598.42,-370.03"/>
<polygon fill="#63b8ff" stroke="#63b8ff" points="474.24,-580.25 465.08,-585.58 475.56,-587.12 474.24,-580.25"/>
</a>
</g>
</g>
<!-- Node8 -->
<g id="Node000008" class="node">
<title>Node8</title>
<g id="a_Node000008"><a xlink:href="context_8hpp.html" target="_top" xlink:title=" ">
<polygon fill="white" stroke="#666666" points="500.75,-208.5 367,-208.5 367,-166.75 500.75,-166.75 500.75,-208.5"/>
<text text-anchor="start" x="375" y="-195" font-family="Helvetica,sans-Serif" font-size="10.00">/Users/jonathan/Works</text>
<text text-anchor="start" x="375" y="-183.75" font-family="Helvetica,sans-Serif" font-size="10.00">/Tools/Triton/src/libtriton</text>
<text text-anchor="middle" x="433.88" y="-172.5" font-family="Helvetica,sans-Serif" font-size="10.00">/includes/triton/context.hpp</text>
</a>
</g>
</g>
<!-- Node1&#45;&gt;Node8 -->
<g id="edge18_Node000001_Node000008" class="edge">
<title>Node1&#45;&gt;Node8</title>
<g id="a_edge18_Node000001_Node000008"><a xlink:title=" ">
<path fill="none" stroke="#63b8ff" d="M372.34,-567C361.16,-534.26 345.88,-480.78 345.88,-433.12 345.88,-433.12 345.88,-433.12 345.88,-347.75 345.88,-291.87 387.94,-237.19 413.91,-208.77"/>
<polygon fill="#63b8ff" stroke="#63b8ff" points="368.97,-567.97 375.59,-576.25 375.58,-565.65 368.97,-567.97"/>
</a>
</g>
</g>
<!-- Node18 -->
<g id="Node000018" class="node">
<title>Node18</title>
<g id="a_Node000018"><a xlink:href="solverInterface_8hpp.html" target="_top" xlink:title=" ">
<polygon fill="white" stroke="#666666" points="577.88,-536.38 411.88,-536.38 411.88,-494.62 577.88,-494.62 577.88,-536.38"/>
<text text-anchor="start" x="419.88" y="-522.88" font-family="Helvetica,sans-Serif" font-size="10.00">/Users/jonathan/Works</text>
<text text-anchor="start" x="419.88" y="-511.62" font-family="Helvetica,sans-Serif" font-size="10.00">/Tools/Triton/src/libtriton</text>
<text text-anchor="middle" x="494.88" y="-500.38" font-family="Helvetica,sans-Serif" font-size="10.00">/includes/triton/solverInterface.hpp</text>
</a>
</g>
</g>
<!-- Node1&#45;&gt;Node18 -->
<g id="edge20_Node000001_Node000018" class="edge">
<title>Node1&#45;&gt;Node18</title>
<g id="a_edge20_Node000001_Node000018"><a xlink:title=" ">
<path fill="none" stroke="#63b8ff" d="M420.71,-570.87C435.84,-559.78 453.08,-547.14 467.12,-536.85"/>
<polygon fill="#63b8ff" stroke="#63b8ff" points="418.81,-567.92 412.82,-576.66 422.95,-573.57 418.81,-567.92"/>
</a>
</g>
</g>
<!-- Node19 -->
<g id="Node000019" class="node">
<title>Node19</title>
<g id="a_Node000019"><a xlink:href="z3Solver_8hpp.html" target="_top" xlink:title=" ">
<polygon fill="white" stroke="#666666" points="773.38,-453 634.38,-453 634.38,-411.25 773.38,-411.25 773.38,-453"/>
<text text-anchor="start" x="642.38" y="-439.5" font-family="Helvetica,sans-Serif" font-size="10.00">/Users/jonathan/Works</text>
<text text-anchor="start" x="642.38" y="-428.25" font-family="Helvetica,sans-Serif" font-size="10.00">/Tools/Triton/src/libtriton</text>
<text text-anchor="middle" x="703.88" y="-417" font-family="Helvetica,sans-Serif" font-size="10.00">/includes/triton/z3Solver.hpp</text>
</a>
</g>
</g>
<!-- Node1&#45;&gt;Node19 -->
<g id="edge26_Node000001_Node000019" class="edge">
<title>Node1&#45;&gt;Node19</title>
<g id="a_edge26_Node000001_Node000019"><a xlink:title=" ">
<path fill="none" stroke="#63b8ff" d="M474.75,-590.86C521.14,-583.84 576.73,-569.84 619.88,-542 654.38,-519.74 680.44,-478.24 693.82,-453.41"/>
<polygon fill="#63b8ff" stroke="#63b8ff" points="474.38,-587.38 464.97,-592.25 475.37,-594.31 474.38,-587.38"/>
</a>
</g>
</g>
<!-- Node5 -->
<g id="Node000005" class="node">
<title>Node5</title>
<g id="a_Node000005"><a xlink:href="bitwuzlaSolver_8cpp.html" target="_top" xlink:title=" ">
<polygon fill="white" stroke="#666666" points="495.38,-375.25 374.38,-375.25 374.38,-322.25 495.38,-322.25 495.38,-375.25"/>
<text text-anchor="start" x="382.38" y="-361.75" font-family="Helvetica,sans-Serif" font-size="10.00">/Users/jonathan/Works</text>
<text text-anchor="start" x="382.38" y="-350.5" font-family="Helvetica,sans-Serif" font-size="10.00">/Tools/Triton/src/libtriton</text>
<text text-anchor="start" x="382.38" y="-339.25" font-family="Helvetica,sans-Serif" font-size="10.00">/engines/solver/bitwuzla</text>
<text text-anchor="middle" x="434.88" y="-328" font-family="Helvetica,sans-Serif" font-size="10.00">/bitwuzlaSolver.cpp</text>
</a>
</g>
</g>
<!-- Node4&#45;&gt;Node5 -->
<g id="edge4_Node000004_Node000005" class="edge">
<title>Node4&#45;&gt;Node5</title>
<g id="a_edge4_Node000004_Node000005"><a xlink:title=" ">
<path fill="none" stroke="#63b8ff" d="M448.47,-400.05C446.28,-391.93 443.94,-383.28 441.83,-375.48"/>
<polygon fill="#63b8ff" stroke="#63b8ff" points="445.05,-400.81 451.04,-409.55 451.81,-398.98 445.05,-400.81"/>
</a>
</g>
</g>
<!-- Node4&#45;&gt;Node6 -->
<g id="edge5_Node000004_Node000006" class="edge">
<title>Node4&#45;&gt;Node6</title>
<g id="a_edge5_Node000004_Node000006"><a xlink:title=" ">
<path fill="none" stroke="#63b8ff" d="M500.37,-404.91C519.09,-393.62 540.64,-380.64 558.12,-370.1"/>
<polygon fill="#63b8ff" stroke="#63b8ff" points="498.65,-401.86 491.89,-410.02 502.26,-407.85 498.65,-401.86"/>
</a>
</g>
</g>
<!-- Node7 -->
<g id="Node000007" class="node">
<title>Node7</title>
<g id="a_Node000007"><a xlink:href="solverEngine_8cpp.html" target="_top" xlink:title=" ">
<polygon fill="white" stroke="#666666" points="621.88,-286.25 461.88,-286.25 461.88,-244.5 621.88,-244.5 621.88,-286.25"/>
<text text-anchor="start" x="469.88" y="-272.75" font-family="Helvetica,sans-Serif" font-size="10.00">/Users/jonathan/Works</text>
<text text-anchor="start" x="469.88" y="-261.5" font-family="Helvetica,sans-Serif" font-size="10.00">/Tools/Triton/src/libtriton</text>
<text text-anchor="middle" x="541.88" y="-250.25" font-family="Helvetica,sans-Serif" font-size="10.00">/engines/solver/solverEngine.cpp</text>
</a>
</g>
</g>
<!-- Node6&#45;&gt;Node7 -->
<g id="edge6_Node000006_Node000007" class="edge">
<title>Node6&#45;&gt;Node7</title>
<g id="a_edge6_Node000006_Node000007"><a xlink:title=" ">
<path fill="none" stroke="#63b8ff" d="M573.61,-318.02C567.17,-307.55 560.1,-296.04 554.27,-286.54"/>
<polygon fill="#63b8ff" stroke="#63b8ff" points="570.51,-319.66 578.72,-326.35 576.47,-315.99 570.51,-319.66"/>
</a>
</g>
</g>
<!-- Node6&#45;&gt;Node8 -->
<g id="edge7_Node000006_Node000008" class="edge">
<title>Node6&#45;&gt;Node8</title>
<g id="a_edge7_Node000006_Node000008"><a xlink:title=" ">
<path fill="none" stroke="#63b8ff" d="M521.03,-323.36C491.74,-311.91 462.4,-298.19 452.88,-286.25 435.22,-264.11 432.39,-230.27 432.63,-208.81"/>
<polygon fill="#63b8ff" stroke="#63b8ff" points="519.77,-326.63 530.36,-326.93 522.27,-320.09 519.77,-326.63"/>
</a>
</g>
</g>
<!-- Node16 -->
<g id="Node000016" class="node">
<title>Node16</title>
<g id="a_Node000016"><a xlink:href="synthesizer_8hpp.html" target="_top" xlink:title=" ">
<polygon fill="white" stroke="#666666" points="791.38,-286.25 640.38,-286.25 640.38,-244.5 791.38,-244.5 791.38,-286.25"/>
<text text-anchor="start" x="648.38" y="-272.75" font-family="Helvetica,sans-Serif" font-size="10.00">/Users/jonathan/Works</text>
<text text-anchor="start" x="648.38" y="-261.5" font-family="Helvetica,sans-Serif" font-size="10.00">/Tools/Triton/src/libtriton</text>
<text text-anchor="middle" x="715.88" y="-250.25" font-family="Helvetica,sans-Serif" font-size="10.00">/includes/triton/synthesizer.hpp</text>
</a>
</g>
</g>
<!-- Node6&#45;&gt;Node16 -->
<g id="edge15_Node000006_Node000016" class="edge">
<title>Node6&#45;&gt;Node16</title>
<g id="a_edge15_Node000006_Node000016"><a xlink:title=" ">
<path fill="none" stroke="#63b8ff" d="M632.06,-321.38C649.2,-310.13 668.89,-297.21 684.87,-286.72"/>
<polygon fill="#63b8ff" stroke="#63b8ff" points="630.55,-318.18 624.11,-326.6 634.39,-324.03 630.55,-318.18"/>
</a>
</g>
</g>
<!-- Node9 -->
<g id="Node000009" class="node">
<title>Node9</title>
<g id="a_Node000009"><a xlink:href="pyTritonContext_8cpp.html" target="_top" xlink:title=" ">
<polygon fill="white" stroke="#666666" points="213.75,-130.75 92,-130.75 92,-77.75 213.75,-77.75 213.75,-130.75"/>
<text text-anchor="start" x="100" y="-117.25" font-family="Helvetica,sans-Serif" font-size="10.00">/Users/jonathan/Works</text>
<text text-anchor="start" x="100" y="-106" font-family="Helvetica,sans-Serif" font-size="10.00">/Tools/Triton/src/libtriton</text>
<text text-anchor="start" x="100" y="-94.75" font-family="Helvetica,sans-Serif" font-size="10.00">/bindings/python/objects</text>
<text text-anchor="middle" x="152.88" y="-83.5" font-family="Helvetica,sans-Serif" font-size="10.00">/pyTritonContext.cpp</text>
</a>
</g>
</g>
<!-- Node8&#45;&gt;Node9 -->
<g id="edge8_Node000008_Node000009" class="edge">
<title>Node8&#45;&gt;Node9</title>
<g id="a_edge8_Node000008_Node000009"><a xlink:title=" ">
<path fill="none" stroke="#63b8ff" d="M355.89,-167.77C315.87,-157.64 266.5,-144.44 222.88,-130.75 220.04,-129.86 217.14,-128.92 214.23,-127.96"/>
<polygon fill="#63b8ff" stroke="#63b8ff" points="354.89,-171.12 365.44,-170.17 356.6,-164.34 354.89,-171.12"/>
</a>
</g>
</g>
<!-- Node10 -->
<g id="Node000010" class="node">
<title>Node10</title>
<g id="a_Node000010"><a xlink:href="callbacks_8cpp.html" target="_top" xlink:title=" ">
<polygon fill="white" stroke="#666666" points="355.5,-125.12 232.25,-125.12 232.25,-83.38 355.5,-83.38 355.5,-125.12"/>
<text text-anchor="start" x="240.25" y="-111.62" font-family="Helvetica,sans-Serif" font-size="10.00">/Users/jonathan/Works</text>
<text text-anchor="start" x="240.25" y="-100.38" font-family="Helvetica,sans-Serif" font-size="10.00">/Tools/Triton/src/libtriton</text>
<text text-anchor="middle" x="293.88" y="-89.12" font-family="Helvetica,sans-Serif" font-size="10.00">/callbacks/callbacks.cpp</text>
</a>
</g>
</g>
<!-- Node8&#45;&gt;Node10 -->
<g id="edge9_Node000008_Node000010" class="edge">
<title>Node8&#45;&gt;Node10</title>
<g id="a_edge9_Node000008_Node000010"><a xlink:title=" ">
<path fill="none" stroke="#63b8ff" d="M389.04,-160.56C369.56,-149.24 347.09,-136.18 328.88,-125.6"/>
<polygon fill="#63b8ff" stroke="#63b8ff" points="387.2,-163.54 397.6,-165.54 390.71,-157.49 387.2,-163.54"/>
</a>
</g>
</g>
<!-- Node11 -->
<g id="Node000011" class="node">
<title>Node11</title>
<g id="a_Node000011"><a xlink:href="context_8cpp.html" target="_top" xlink:title=" ">
<polygon fill="white" stroke="#666666" points="494.38,-125.12 373.38,-125.12 373.38,-83.38 494.38,-83.38 494.38,-125.12"/>
<text text-anchor="start" x="381.38" y="-111.62" font-family="Helvetica,sans-Serif" font-size="10.00">/Users/jonathan/Works</text>
<text text-anchor="start" x="381.38" y="-100.38" font-family="Helvetica,sans-Serif" font-size="10.00">/Tools/Triton/src/libtriton</text>
<text text-anchor="middle" x="433.88" y="-89.12" font-family="Helvetica,sans-Serif" font-size="10.00">/context/context.cpp</text>
</a>
</g>
</g>
<!-- Node8&#45;&gt;Node11 -->
<g id="edge10_Node000008_Node000011" class="edge">
<title>Node8&#45;&gt;Node11</title>
<g id="a_edge10_Node000008_Node000011"><a xlink:title=" ">
<path fill="none" stroke="#63b8ff" d="M433.88,-155.27C433.88,-145.24 433.88,-134.42 433.88,-125.42"/>
<polygon fill="#63b8ff" stroke="#63b8ff" points="430.38,-155 433.88,-165 437.38,-155 430.38,-155"/>
</a>
</g>
</g>
<!-- Node12 -->
<g id="Node000012" class="node">
<title>Node12</title>
<g id="a_Node000012"><a xlink:href="symbolicSimplification_8cpp.html" target="_top" xlink:title=" ">
<polygon fill="white" stroke="#666666" points="726.88,-125.12 512.88,-125.12 512.88,-83.38 726.88,-83.38 726.88,-125.12"/>
<text text-anchor="start" x="520.88" y="-111.62" font-family="Helvetica,sans-Serif" font-size="10.00">/Users/jonathan/Works</text>
<text text-anchor="start" x="520.88" y="-100.38" font-family="Helvetica,sans-Serif" font-size="10.00">/Tools/Triton/src/libtriton</text>
<text text-anchor="middle" x="619.88" y="-89.12" font-family="Helvetica,sans-Serif" font-size="10.00">/engines/symbolic/symbolicSimplification.cpp</text>
</a>
</g>
</g>
<!-- Node8&#45;&gt;Node12 -->
<g id="edge11_Node000008_Node000012" class="edge">
<title>Node8&#45;&gt;Node12</title>
<g id="a_edge11_Node000008_Node000012"><a xlink:title=" ">
<path fill="none" stroke="#63b8ff" d="M490.61,-161.8C517.12,-150.21 548.28,-136.57 573.37,-125.6"/>
<polygon fill="#63b8ff" stroke="#63b8ff" points="489.48,-158.48 481.72,-165.69 492.28,-164.89 489.48,-158.48"/>
</a>
</g>
</g>
<!-- Node13 -->
<g id="Node000013" class="node">
<title>Node13</title>
<g id="a_Node000013"><a xlink:href="llvmToTriton_8hpp.html" target="_top" xlink:title=" ">
<polygon fill="white" stroke="#666666" points="899.25,-125.12 744.5,-125.12 744.5,-83.38 899.25,-83.38 899.25,-125.12"/>
<text text-anchor="start" x="752.5" y="-111.62" font-family="Helvetica,sans-Serif" font-size="10.00">/Users/jonathan/Works</text>
<text text-anchor="start" x="752.5" y="-100.38" font-family="Helvetica,sans-Serif" font-size="10.00">/Tools/Triton/src/libtriton</text>
<text text-anchor="middle" x="821.88" y="-89.12" font-family="Helvetica,sans-Serif" font-size="10.00">/includes/triton/llvmToTriton.hpp</text>
</a>
</g>
</g>
<!-- Node8&#45;&gt;Node13 -->
<g id="edge12_Node000008_Node000013" class="edge">
<title>Node8&#45;&gt;Node13</title>
<g id="a_edge12_Node000008_Node000013"><a xlink:title=" ">
<path fill="none" stroke="#63b8ff" d="M512.3,-174.44C573.54,-164.37 660.59,-148.82 735.88,-130.75 742.39,-129.19 749.14,-127.43 755.86,-125.59"/>
<polygon fill="#63b8ff" stroke="#63b8ff" points="511.97,-170.95 502.67,-176.02 513.1,-177.86 511.97,-170.95"/>
</a>
</g>
</g>
<!-- Node14 -->
<g id="Node000014" class="node">
<title>Node14</title>
<g id="a_Node000014"><a xlink:href="llvmToTriton_8cpp.html" target="_top" xlink:title=" ">
<polygon fill="white" stroke="#666666" points="805.12,-41.75 676.62,-41.75 676.62,0 805.12,0 805.12,-41.75"/>
<text text-anchor="start" x="684.62" y="-28.25" font-family="Helvetica,sans-Serif" font-size="10.00">/Users/jonathan/Works</text>
<text text-anchor="start" x="684.62" y="-17" font-family="Helvetica,sans-Serif" font-size="10.00">/Tools/Triton/src/libtriton</text>
<text text-anchor="middle" x="740.88" y="-5.75" font-family="Helvetica,sans-Serif" font-size="10.00">/ast/llvm/llvmToTriton.cpp</text>
</a>
</g>
</g>
<!-- Node13&#45;&gt;Node14 -->
<g id="edge13_Node000013_Node000014" class="edge">
<title>Node13&#45;&gt;Node14</title>
<g id="a_edge13_Node000013_Node000014"><a xlink:title=" ">
<path fill="none" stroke="#63b8ff" d="M793.88,-75.13C783.05,-64.24 770.89,-52.02 760.95,-42.04"/>
<polygon fill="#63b8ff" stroke="#63b8ff" points="791.25,-77.44 800.78,-82.06 796.21,-72.51 791.25,-77.44"/>
</a>
</g>
</g>
<!-- Node15 -->
<g id="Node000015" class="node">
<title>Node15</title>
<g id="a_Node000015"><a xlink:href="liftingToLLVM_8cpp.html" target="_top" xlink:title=" ">
<polygon fill="white" stroke="#666666" points="982.88,-41.75 822.88,-41.75 822.88,0 982.88,0 982.88,-41.75"/>
<text text-anchor="start" x="830.88" y="-28.25" font-family="Helvetica,sans-Serif" font-size="10.00">/Users/jonathan/Works</text>
<text text-anchor="start" x="830.88" y="-17" font-family="Helvetica,sans-Serif" font-size="10.00">/Tools/Triton/src/libtriton</text>
<text text-anchor="middle" x="902.88" y="-5.75" font-family="Helvetica,sans-Serif" font-size="10.00">/engines/lifters/liftingToLLVM.cpp</text>
</a>
</g>
</g>
<!-- Node13&#45;&gt;Node15 -->
<g id="edge14_Node000013_Node000015" class="edge">
<title>Node13&#45;&gt;Node15</title>
<g id="a_edge14_Node000013_Node000015"><a xlink:title=" ">
<path fill="none" stroke="#63b8ff" d="M849.87,-75.13C860.7,-64.24 872.86,-52.02 882.8,-42.04"/>
<polygon fill="#63b8ff" stroke="#63b8ff" points="847.54,-72.51 842.97,-82.06 852.5,-77.44 847.54,-72.51"/>
</a>
</g>
</g>
<!-- Node16&#45;&gt;Node8 -->
<g id="edge17_Node000016_Node000008" class="edge">
<title>Node16&#45;&gt;Node8</title>
<g id="a_edge17_Node000016_Node000008"><a xlink:title=" ">
<path fill="none" stroke="#63b8ff" d="M629.42,-241.15C588.13,-230.06 539.45,-216.98 500.99,-206.65"/>
<polygon fill="#63b8ff" stroke="#63b8ff" points="628.28,-244.47 638.84,-243.68 630.09,-237.71 628.28,-244.47"/>
</a>
</g>
</g>
<!-- Node17 -->
<g id="Node000017" class="node">
<title>Node17</title>
<g id="a_Node000017"><a xlink:href="synthesizer_8cpp.html" target="_top" xlink:title=" ">
<polygon fill="white" stroke="#666666" points="800.38,-208.5 631.38,-208.5 631.38,-166.75 800.38,-166.75 800.38,-208.5"/>
<text text-anchor="start" x="639.38" y="-195" font-family="Helvetica,sans-Serif" font-size="10.00">/Users/jonathan/Works</text>
<text text-anchor="start" x="639.38" y="-183.75" font-family="Helvetica,sans-Serif" font-size="10.00">/Tools/Triton/src/libtriton</text>
<text text-anchor="middle" x="715.88" y="-172.5" font-family="Helvetica,sans-Serif" font-size="10.00">/engines/synthesis/synthesizer.cpp</text>
</a>
</g>
</g>
<!-- Node16&#45;&gt;Node17 -->
<g id="edge16_Node000016_Node000017" class="edge">
<title>Node16&#45;&gt;Node17</title>
<g id="a_edge16_Node000016_Node000017"><a xlink:title=" ">
<path fill="none" stroke="#63b8ff" d="M715.88,-232.75C715.88,-224.71 715.88,-216.29 715.88,-208.98"/>
<polygon fill="#63b8ff" stroke="#63b8ff" points="712.38,-232.56 715.88,-242.56 719.38,-232.56 712.38,-232.56"/>
</a>
</g>
</g>
<!-- Node18&#45;&gt;Node4 -->
<g id="edge21_Node000018_Node000004" class="edge">
<title>Node18&#45;&gt;Node4</title>
<g id="a_edge21_Node000018_Node000004"><a xlink:title=" ">
<path fill="none" stroke="#63b8ff" d="M480.69,-484.12C475.88,-473.83 470.63,-462.59 466.29,-453.29"/>
<polygon fill="#63b8ff" stroke="#63b8ff" points="477.44,-485.43 484.84,-493.01 483.78,-482.47 477.44,-485.43"/>
</a>
</g>
</g>
<!-- Node18&#45;&gt;Node6 -->
<g id="edge22_Node000018_Node000006" class="edge">
<title>Node18&#45;&gt;Node6</title>
<g id="a_edge22_Node000018_Node000006"><a xlink:title=" ">
<path fill="none" stroke="#63b8ff" d="M522.75,-485.89C531.5,-475.98 540.73,-464.47 547.88,-453 564.67,-426.04 577.91,-391.55 585.32,-370.05"/>
<polygon fill="#63b8ff" stroke="#63b8ff" points="520.4,-483.27 516.26,-493.02 525.58,-487.98 520.4,-483.27"/>
</a>
</g>
</g>
<!-- Node18&#45;&gt;Node19 -->
<g id="edge23_Node000018_Node000019" class="edge">
<title>Node18&#45;&gt;Node19</title>
<g id="a_edge23_Node000018_Node000019"><a xlink:title=" ">
<path fill="none" stroke="#63b8ff" d="M557.45,-490.14C587.48,-478.44 623.05,-464.59 651.62,-453.47"/>
<polygon fill="#63b8ff" stroke="#63b8ff" points="556.53,-486.74 548.49,-493.63 559.07,-493.26 556.53,-486.74"/>
</a>
</g>
</g>
<!-- Node19&#45;&gt;Node6 -->
<g id="edge25_Node000019_Node000006" class="edge">
<title>Node19&#45;&gt;Node6</title>
<g id="a_edge25_Node000019_Node000006"><a xlink:title=" ">
<path fill="none" stroke="#63b8ff" d="M666.71,-404.12C651.44,-393.03 634.05,-380.39 619.88,-370.1"/>
<polygon fill="#63b8ff" stroke="#63b8ff" points="664.53,-406.86 674.68,-409.91 668.64,-401.2 664.53,-406.86"/>
</a>
</g>
</g>
<!-- Node20 -->
<g id="Node000020" class="node">
<title>Node20</title>
<g id="a_Node000020"><a xlink:href="z3Solver_8cpp.html" target="_top" xlink:title=" ">
<polygon fill="white" stroke="#666666" points="843.25,-369.62 688.5,-369.62 688.5,-327.88 843.25,-327.88 843.25,-369.62"/>
<text text-anchor="start" x="696.5" y="-356.12" font-family="Helvetica,sans-Serif" font-size="10.00">/Users/jonathan/Works</text>
<text text-anchor="start" x="696.5" y="-344.88" font-family="Helvetica,sans-Serif" font-size="10.00">/Tools/Triton/src/libtriton</text>
<text text-anchor="middle" x="765.88" y="-333.62" font-family="Helvetica,sans-Serif" font-size="10.00">/engines/solver/z3/z3Solver.cpp</text>
</a>
</g>
</g>
<!-- Node19&#45;&gt;Node20 -->
<g id="edge24_Node000019_Node000020" class="edge">
<title>Node19&#45;&gt;Node20</title>
<g id="a_edge24_Node000019_Node000020"><a xlink:title=" ">
<path fill="none" stroke="#63b8ff" d="M726.04,-402.04C734.14,-391.4 743.13,-379.61 750.51,-369.92"/>
<polygon fill="#63b8ff" stroke="#63b8ff" points="723.39,-399.73 720.12,-409.81 728.96,-403.97 723.39,-399.73"/>
</a>
</g>
</g>
</g>
</svg>
