<?xml version="1.0" encoding="UTF-8" standalone="no"?>
<!DOCTYPE svg PUBLIC "-//W3C//DTD SVG 1.1//EN"
 "http://www.w3.org/Graphics/SVG/1.1/DTD/svg11.dtd">
<!-- Generated by graphviz version 11.0.0 (20240428.1522)
 -->
<!-- Title: /Users/jonathan/Works/Tools/Triton/src/libtriton/includes/triton/solverModel.hpp Pages: 1 -->
<svg width="2762pt" height="628pt"
 viewBox="0.00 0.00 2761.88 627.75" xmlns="http://www.w3.org/2000/svg" xmlns:xlink="http://www.w3.org/1999/xlink">
<g id="graph0" class="graph" transform="scale(1 1) rotate(0) translate(4 623.75)">
<title>/Users/jonathan/Works/Tools/Triton/src/libtriton/includes/triton/solverModel.hpp</title>
<!-- Node1 -->
<g id="Node000001" class="node">
<title>Node1</title>
<g id="a_Node000001"><a xlink:title=" ">
<polygon fill="#999999" stroke="#666666" points="739,-619.75 585,-619.75 585,-578 739,-578 739,-619.75"/>
<text text-anchor="start" x="593" y="-606.25" font-family="Helvetica,sans-Serif" font-size="10.00">/Users/jonathan/Works</text>
<text text-anchor="start" x="593" y="-595" font-family="Helvetica,sans-Serif" font-size="10.00">/Tools/Triton/src/libtriton</text>
<text text-anchor="middle" x="662" y="-583.75" font-family="Helvetica,sans-Serif" font-size="10.00">/includes/triton/solverModel.hpp</text>
</a>
</g>
</g>
<!-- Node2 -->
<g id="Node000002" class="node">
<title>Node2</title>
<g id="a_Node000002"><a xlink:href="pySolverModel_8cpp.html" target="_top" xlink:title=" ">
<polygon fill="white" stroke="#666666" points="849.88,-464.25 728.12,-464.25 728.12,-411.25 849.88,-411.25 849.88,-464.25"/>
<text text-anchor="start" x="736.12" y="-450.75" font-family="Helvetica,sans-Serif" font-size="10.00">/Users/jonathan/Works</text>
<text text-anchor="start" x="736.12" y="-439.5" font-family="Helvetica,sans-Serif" font-size="10.00">/Tools/Triton/src/libtriton</text>
<text text-anchor="start" x="736.12" y="-428.25" font-family="Helvetica,sans-Serif" font-size="10.00">/bindings/python/objects</text>
<text text-anchor="middle" x="789" y="-417" font-family="Helvetica,sans-Serif" font-size="10.00">/pySolverModel.cpp</text>
</a>
</g>
</g>
<!-- Node1&#45;&gt;Node2 -->
<g id="edge1_Node000001_Node000002" class="edge">
<title>Node1&#45;&gt;Node2</title>
<g id="a_edge1_Node000001_Node000002"><a xlink:title=" ">
<path fill="none" stroke="#63b8ff" d="M689.68,-569.48C697.74,-560.85 706.42,-551.21 714,-542 734.98,-516.52 756.95,-485.72 771.64,-464.43"/>
<polygon fill="#63b8ff" stroke="#63b8ff" points="687.25,-566.95 682.92,-576.62 692.33,-571.76 687.25,-566.95"/>
</a>
</g>
</g>
<!-- Node3 -->
<g id="Node000003" class="node">
<title>Node3</title>
<g id="a_Node000003"><a xlink:href="bitwuzlaSolver_8cpp.html" target="_top" xlink:title=" ">
<polygon fill="white" stroke="#666666" points="604.5,-375.25 483.5,-375.25 483.5,-322.25 604.5,-322.25 604.5,-375.25"/>
<text text-anchor="start" x="491.5" y="-361.75" font-family="Helvetica,sans-Serif" font-size="10.00">/Users/jonathan/Works</text>
<text text-anchor="start" x="491.5" y="-350.5" font-family="Helvetica,sans-Serif" font-size="10.00">/Tools/Triton/src/libtriton</text>
<text text-anchor="start" x="491.5" y="-339.25" font-family="Helvetica,sans-Serif" font-size="10.00">/engines/solver/bitwuzla</text>
<text text-anchor="middle" x="544" y="-328" font-family="Helvetica,sans-Serif" font-size="10.00">/bitwuzlaSolver.cpp</text>
</a>
</g>
</g>
<!-- Node1&#45;&gt;Node3 -->
<g id="edge2_Node000001_Node000003" class="edge">
<title>Node1&#45;&gt;Node3</title>
<g id="a_edge2_Node000001_Node000003"><a xlink:title=" ">
<path fill="none" stroke="#63b8ff" d="M666.77,-566.26C671.04,-526.82 672.7,-458.82 643,-411.25 633.78,-396.49 619.59,-384.71 604.8,-375.57"/>
<polygon fill="#63b8ff" stroke="#63b8ff" points="663.32,-565.67 665.58,-576.02 670.27,-566.52 663.32,-565.67"/>
</a>
</g>
</g>
<!-- Node4 -->
<g id="Node000004" class="node">
<title>Node4</title>
<g id="a_Node000004"><a xlink:href="solverModel_8cpp.html" target="_top" xlink:title=" ">
<polygon fill="white" stroke="#666666" points="1893.12,-542 1736.88,-542 1736.88,-500.25 1893.12,-500.25 1893.12,-542"/>
<text text-anchor="start" x="1744.88" y="-528.5" font-family="Helvetica,sans-Serif" font-size="10.00">/Users/jonathan/Works</text>
<text text-anchor="start" x="1744.88" y="-517.25" font-family="Helvetica,sans-Serif" font-size="10.00">/Tools/Triton/src/libtriton</text>
<text text-anchor="middle" x="1815" y="-506" font-family="Helvetica,sans-Serif" font-size="10.00">/engines/solver/solverModel.cpp</text>
</a>
</g>
</g>
<!-- Node1&#45;&gt;Node4 -->
<g id="edge3_Node000001_Node000004" class="edge">
<title>Node1&#45;&gt;Node4</title>
<g id="a_edge3_Node000001_Node000004"><a xlink:title=" ">
<path fill="none" stroke="#63b8ff" d="M750.81,-598.37C934.29,-598.26 1368.16,-592.15 1728,-542 1730.76,-541.62 1733.57,-541.19 1736.39,-540.72"/>
<polygon fill="#63b8ff" stroke="#63b8ff" points="750.87,-594.87 740.87,-598.37 750.87,-601.87 750.87,-594.87"/>
</a>
</g>
</g>
<!-- Node5 -->
<g id="Node000005" class="node">
<title>Node5</title>
<g id="a_Node000005"><a xlink:href="z3Solver_8cpp.html" target="_top" xlink:title=" ">
<polygon fill="white" stroke="#666666" points="777.38,-369.62 622.62,-369.62 622.62,-327.88 777.38,-327.88 777.38,-369.62"/>
<text text-anchor="start" x="630.62" y="-356.12" font-family="Helvetica,sans-Serif" font-size="10.00">/Users/jonathan/Works</text>
<text text-anchor="start" x="630.62" y="-344.88" font-family="Helvetica,sans-Serif" font-size="10.00">/Tools/Triton/src/libtriton</text>
<text text-anchor="middle" x="700" y="-333.62" font-family="Helvetica,sans-Serif" font-size="10.00">/engines/solver/z3/z3Solver.cpp</text>
</a>
</g>
</g>
<!-- Node1&#45;&gt;Node5 -->
<g id="edge4_Node000001_Node000005" class="edge">
<title>Node1&#45;&gt;Node5</title>
<g id="a_edge4_Node000001_Node000005"><a xlink:title=" ">
<path fill="none" stroke="#63b8ff" d="M670.57,-566.49C672.55,-558.54 674.51,-549.99 676,-542 687.62,-479.84 695.12,-405.3 698.28,-370.08"/>
<polygon fill="#63b8ff" stroke="#63b8ff" points="667.2,-565.55 668.1,-576.11 673.98,-567.3 667.2,-565.55"/>
</a>
</g>
</g>
<!-- Node6 -->
<g id="Node000006" class="node">
<title>Node6</title>
<g id="a_Node000006"><a xlink:href="bitwuzlaSolver_8hpp.html" target="_top" xlink:title=" ">
<polygon fill="white" stroke="#666666" points="476.25,-458.62 311.75,-458.62 311.75,-416.88 476.25,-416.88 476.25,-458.62"/>
<text text-anchor="start" x="319.75" y="-445.12" font-family="Helvetica,sans-Serif" font-size="10.00">/Users/jonathan/Works</text>
<text text-anchor="start" x="319.75" y="-433.88" font-family="Helvetica,sans-Serif" font-size="10.00">/Tools/Triton/src/libtriton</text>
<text text-anchor="middle" x="394" y="-422.62" font-family="Helvetica,sans-Serif" font-size="10.00">/includes/triton/bitwuzlaSolver.hpp</text>
</a>
</g>
</g>
<!-- Node1&#45;&gt;Node6 -->
<g id="edge5_Node000001_Node000006" class="edge">
<title>Node1&#45;&gt;Node6</title>
<g id="a_edge5_Node000001_Node000006"><a xlink:title=" ">
<path fill="none" stroke="#63b8ff" d="M620.99,-571.32C589.75,-551.31 545.53,-523.45 506,-500.25 481.7,-485.99 453.95,-470.74 432.15,-459"/>
<polygon fill="#63b8ff" stroke="#63b8ff" points="619.07,-574.25 629.38,-576.7 622.86,-568.36 619.07,-574.25"/>
</a>
</g>
</g>
<!-- Node7 -->
<g id="Node000007" class="node">
<title>Node7</title>
<g id="a_Node000007"><a xlink:href="solverEngine_8hpp.html" target="_top" xlink:title=" ">
<polygon fill="white" stroke="#666666" points="465.88,-369.62 308.12,-369.62 308.12,-327.88 465.88,-327.88 465.88,-369.62"/>
<text text-anchor="start" x="316.12" y="-356.12" font-family="Helvetica,sans-Serif" font-size="10.00">/Users/jonathan/Works</text>
<text text-anchor="start" x="316.12" y="-344.88" font-family="Helvetica,sans-Serif" font-size="10.00">/Tools/Triton/src/libtriton</text>
<text text-anchor="middle" x="387" y="-333.62" font-family="Helvetica,sans-Serif" font-size="10.00">/includes/triton/solverEngine.hpp</text>
</a>
</g>
</g>
<!-- Node1&#45;&gt;Node7 -->
<g id="edge36_Node000001_Node000007" class="edge">
<title>Node1&#45;&gt;Node7</title>
<g id="a_edge36_Node000001_Node000007"><a xlink:title=" ">
<path fill="none" stroke="#63b8ff" d="M573.26,-593.08C485.74,-586.65 359.74,-572.34 322,-542 275.45,-504.58 262.34,-463.65 291,-411.25 300.83,-393.28 318.4,-379.78 335.85,-370.09"/>
<polygon fill="#63b8ff" stroke="#63b8ff" points="572.8,-596.55 583.03,-593.77 573.3,-589.57 572.8,-596.55"/>
</a>
</g>
</g>
<!-- Node19 -->
<g id="Node000019" class="node">
<title>Node19</title>
<g id="a_Node000019"><a xlink:href="pythonObjects_8hpp.html" target="_top" xlink:title=" ">
<polygon fill="white" stroke="#666666" points="1719.25,-542 1554.75,-542 1554.75,-500.25 1719.25,-500.25 1719.25,-542"/>
<text text-anchor="start" x="1562.75" y="-528.5" font-family="Helvetica,sans-Serif" font-size="10.00">/Users/jonathan/Works</text>
<text text-anchor="start" x="1562.75" y="-517.25" font-family="Helvetica,sans-Serif" font-size="10.00">/Tools/Triton/src/libtriton</text>
<text text-anchor="middle" x="1637" y="-506" font-family="Helvetica,sans-Serif" font-size="10.00">/includes/triton/pythonObjects.hpp</text>
</a>
</g>
</g>
<!-- Node1&#45;&gt;Node19 -->
<g id="edge20_Node000001_Node000019" class="edge">
<title>Node1&#45;&gt;Node19</title>
<g id="a_edge20_Node000001_Node000019"><a xlink:title=" ">
<path fill="none" stroke="#63b8ff" d="M750.77,-590.98C938.34,-576.41 1372.64,-542.66 1554.53,-528.53"/>
<polygon fill="#63b8ff" stroke="#63b8ff" points="750.53,-587.49 740.83,-591.75 751.07,-594.47 750.53,-587.49"/>
</a>
</g>
</g>
<!-- Node33 -->
<g id="Node000033" class="node">
<title>Node33</title>
<g id="a_Node000033"><a xlink:href="solverInterface_8hpp.html" target="_top" xlink:title=" ">
<polygon fill="white" stroke="#666666" points="497,-542 331,-542 331,-500.25 497,-500.25 497,-542"/>
<text text-anchor="start" x="339" y="-528.5" font-family="Helvetica,sans-Serif" font-size="10.00">/Users/jonathan/Works</text>
<text text-anchor="start" x="339" y="-517.25" font-family="Helvetica,sans-Serif" font-size="10.00">/Tools/Triton/src/libtriton</text>
<text text-anchor="middle" x="414" y="-506" font-family="Helvetica,sans-Serif" font-size="10.00">/includes/triton/solverInterface.hpp</text>
</a>
</g>
</g>
<!-- Node1&#45;&gt;Node33 -->
<g id="edge37_Node000001_Node000033" class="edge">
<title>Node1&#45;&gt;Node33</title>
<g id="a_edge37_Node000001_Node000033"><a xlink:title=" ">
<path fill="none" stroke="#63b8ff" d="M584.9,-574.32C551.5,-564.12 512.78,-552.3 480.64,-542.48"/>
<polygon fill="#63b8ff" stroke="#63b8ff" points="583.51,-577.56 594.09,-577.13 585.55,-570.86 583.51,-577.56"/>
</a>
</g>
</g>
<!-- Node34 -->
<g id="Node000034" class="node">
<title>Node34</title>
<g id="a_Node000034"><a xlink:href="z3Solver_8hpp.html" target="_top" xlink:title=" ">
<polygon fill="white" stroke="#666666" points="633.5,-458.62 494.5,-458.62 494.5,-416.88 633.5,-416.88 633.5,-458.62"/>
<text text-anchor="start" x="502.5" y="-445.12" font-family="Helvetica,sans-Serif" font-size="10.00">/Users/jonathan/Works</text>
<text text-anchor="start" x="502.5" y="-433.88" font-family="Helvetica,sans-Serif" font-size="10.00">/Tools/Triton/src/libtriton</text>
<text text-anchor="middle" x="564" y="-422.62" font-family="Helvetica,sans-Serif" font-size="10.00">/includes/triton/z3Solver.hpp</text>
</a>
</g>
</g>
<!-- Node1&#45;&gt;Node34 -->
<g id="edge43_Node000001_Node000034" class="edge">
<title>Node1&#45;&gt;Node34</title>
<g id="a_edge43_Node000001_Node000034"><a xlink:title=" ">
<path fill="none" stroke="#63b8ff" d="M643.63,-568.05C624.02,-536.2 593.46,-486.58 576.47,-458.99"/>
<polygon fill="#63b8ff" stroke="#63b8ff" points="640.57,-569.75 648.79,-576.43 646.53,-566.08 640.57,-569.75"/>
</a>
</g>
</g>
<!-- Node6&#45;&gt;Node3 -->
<g id="edge6_Node000006_Node000003" class="edge">
<title>Node6&#45;&gt;Node3</title>
<g id="a_edge6_Node000006_Node000003"><a xlink:title=" ">
<path fill="none" stroke="#63b8ff" d="M438.52,-410.93C457.74,-399.78 480.19,-386.76 499.43,-375.6"/>
<polygon fill="#63b8ff" stroke="#63b8ff" points="436.99,-407.77 430.1,-415.81 440.51,-413.82 436.99,-407.77"/>
</a>
</g>
</g>
<!-- Node6&#45;&gt;Node7 -->
<g id="edge7_Node000006_Node000007" class="edge">
<title>Node6&#45;&gt;Node7</title>
<g id="a_edge7_Node000006_Node000007"><a xlink:title=" ">
<path fill="none" stroke="#63b8ff" d="M391.48,-405.39C390.53,-393.65 389.48,-380.62 388.64,-370.12"/>
<polygon fill="#63b8ff" stroke="#63b8ff" points="387.96,-405.38 392.26,-415.06 394.94,-404.81 387.96,-405.38"/>
</a>
</g>
</g>
<!-- Node8 -->
<g id="Node000008" class="node">
<title>Node8</title>
<g id="a_Node000008"><a xlink:href="solverEngine_8cpp.html" target="_top" xlink:title=" ">
<polygon fill="white" stroke="#666666" points="693,-286.25 533,-286.25 533,-244.5 693,-244.5 693,-286.25"/>
<text text-anchor="start" x="541" y="-272.75" font-family="Helvetica,sans-Serif" font-size="10.00">/Users/jonathan/Works</text>
<text text-anchor="start" x="541" y="-261.5" font-family="Helvetica,sans-Serif" font-size="10.00">/Tools/Triton/src/libtriton</text>
<text text-anchor="middle" x="613" y="-250.25" font-family="Helvetica,sans-Serif" font-size="10.00">/engines/solver/solverEngine.cpp</text>
</a>
</g>
</g>
<!-- Node7&#45;&gt;Node8 -->
<g id="edge8_Node000007_Node000008" class="edge">
<title>Node7&#45;&gt;Node8</title>
<g id="a_edge8_Node000007_Node000008"><a xlink:title=" ">
<path fill="none" stroke="#63b8ff" d="M454.24,-323.54C486.8,-311.81 525.47,-297.89 556.49,-286.72"/>
<polygon fill="#63b8ff" stroke="#63b8ff" points="453.09,-320.23 444.87,-326.91 455.46,-326.82 453.09,-320.23"/>
</a>
</g>
</g>
<!-- Node9 -->
<g id="Node000009" class="node">
<title>Node9</title>
<g id="a_Node000009"><a xlink:href="context_8hpp.html" target="_top" xlink:title=" ">
<polygon fill="white" stroke="#666666" points="453.88,-208.5 320.12,-208.5 320.12,-166.75 453.88,-166.75 453.88,-208.5"/>
<text text-anchor="start" x="328.12" y="-195" font-family="Helvetica,sans-Serif" font-size="10.00">/Users/jonathan/Works</text>
<text text-anchor="start" x="328.12" y="-183.75" font-family="Helvetica,sans-Serif" font-size="10.00">/Tools/Triton/src/libtriton</text>
<text text-anchor="middle" x="387" y="-172.5" font-family="Helvetica,sans-Serif" font-size="10.00">/includes/triton/context.hpp</text>
</a>
</g>
</g>
<!-- Node7&#45;&gt;Node9 -->
<g id="edge9_Node000007_Node000009" class="edge">
<title>Node7&#45;&gt;Node9</title>
<g id="a_edge9_Node000007_Node000009"><a xlink:title=" ">
<path fill="none" stroke="#63b8ff" d="M367.63,-317.55C362.48,-307.93 357.63,-296.98 355,-286.25 350.59,-268.23 350.23,-262.43 355,-244.5 358.36,-231.86 365.34,-219.1 371.92,-208.98"/>
<polygon fill="#63b8ff" stroke="#63b8ff" points="364.5,-319.13 372.5,-326.08 370.59,-315.66 364.5,-319.13"/>
</a>
</g>
</g>
<!-- Node17 -->
<g id="Node000017" class="node">
<title>Node17</title>
<g id="a_Node000017"><a xlink:href="synthesizer_8hpp.html" target="_top" xlink:title=" ">
<polygon fill="white" stroke="#666666" points="514.5,-286.25 363.5,-286.25 363.5,-244.5 514.5,-244.5 514.5,-286.25"/>
<text text-anchor="start" x="371.5" y="-272.75" font-family="Helvetica,sans-Serif" font-size="10.00">/Users/jonathan/Works</text>
<text text-anchor="start" x="371.5" y="-261.5" font-family="Helvetica,sans-Serif" font-size="10.00">/Tools/Triton/src/libtriton</text>
<text text-anchor="middle" x="439" y="-250.25" font-family="Helvetica,sans-Serif" font-size="10.00">/includes/triton/synthesizer.hpp</text>
</a>
</g>
</g>
<!-- Node7&#45;&gt;Node17 -->
<g id="edge17_Node000007_Node000017" class="edge">
<title>Node7&#45;&gt;Node17</title>
<g id="a_edge17_Node000007_Node000017"><a xlink:title=" ">
<path fill="none" stroke="#63b8ff" d="M406,-318.02C412.69,-307.55 420.05,-296.04 426.11,-286.54"/>
<polygon fill="#63b8ff" stroke="#63b8ff" points="403.1,-316.05 400.67,-326.36 409,-319.82 403.1,-316.05"/>
</a>
</g>
</g>
<!-- Node10 -->
<g id="Node000010" class="node">
<title>Node10</title>
<g id="a_Node000010"><a xlink:href="pyTritonContext_8cpp.html" target="_top" xlink:title=" ">
<polygon fill="white" stroke="#666666" points="1370.88,-130.75 1249.12,-130.75 1249.12,-77.75 1370.88,-77.75 1370.88,-130.75"/>
<text text-anchor="start" x="1257.12" y="-117.25" font-family="Helvetica,sans-Serif" font-size="10.00">/Users/jonathan/Works</text>
<text text-anchor="start" x="1257.12" y="-106" font-family="Helvetica,sans-Serif" font-size="10.00">/Tools/Triton/src/libtriton</text>
<text text-anchor="start" x="1257.12" y="-94.75" font-family="Helvetica,sans-Serif" font-size="10.00">/bindings/python/objects</text>
<text text-anchor="middle" x="1310" y="-83.5" font-family="Helvetica,sans-Serif" font-size="10.00">/pyTritonContext.cpp</text>
</a>
</g>
</g>
<!-- Node9&#45;&gt;Node10 -->
<g id="edge10_Node000009_Node000010" class="edge">
<title>Node9&#45;&gt;Node10</title>
<g id="a_edge10_Node000009_Node000010"><a xlink:title=" ">
<path fill="none" stroke="#63b8ff" d="M465.02,-166.58C763.07,-118.23 1110.28,-108.07 1248.69,-105.86"/>
<polygon fill="#63b8ff" stroke="#63b8ff" points="464.79,-163.07 455.49,-168.15 465.92,-169.98 464.79,-163.07"/>
</a>
</g>
</g>
<!-- Node11 -->
<g id="Node000011" class="node">
<title>Node11</title>
<g id="a_Node000011"><a xlink:href="callbacks_8cpp.html" target="_top" xlink:title=" ">
<polygon fill="white" stroke="#666666" points="527.62,-125.12 404.38,-125.12 404.38,-83.38 527.62,-83.38 527.62,-125.12"/>
<text text-anchor="start" x="412.38" y="-111.62" font-family="Helvetica,sans-Serif" font-size="10.00">/Users/jonathan/Works</text>
<text text-anchor="start" x="412.38" y="-100.38" font-family="Helvetica,sans-Serif" font-size="10.00">/Tools/Triton/src/libtriton</text>
<text text-anchor="middle" x="466" y="-89.12" font-family="Helvetica,sans-Serif" font-size="10.00">/callbacks/callbacks.cpp</text>
</a>
</g>
</g>
<!-- Node9&#45;&gt;Node11 -->
<g id="edge11_Node000009_Node000011" class="edge">
<title>Node9&#45;&gt;Node11</title>
<g id="a_edge11_Node000009_Node000011"><a xlink:title=" ">
<path fill="none" stroke="#63b8ff" d="M414.3,-158.5C424.87,-147.62 436.73,-135.4 446.42,-125.42"/>
<polygon fill="#63b8ff" stroke="#63b8ff" points="412.04,-155.81 407.58,-165.42 417.06,-160.69 412.04,-155.81"/>
</a>
</g>
</g>
<!-- Node12 -->
<g id="Node000012" class="node">
<title>Node12</title>
<g id="a_Node000012"><a xlink:href="context_8cpp.html" target="_top" xlink:title=" ">
<polygon fill="white" stroke="#666666" points="666.5,-125.12 545.5,-125.12 545.5,-83.38 666.5,-83.38 666.5,-125.12"/>
<text text-anchor="start" x="553.5" y="-111.62" font-family="Helvetica,sans-Serif" font-size="10.00">/Users/jonathan/Works</text>
<text text-anchor="start" x="553.5" y="-100.38" font-family="Helvetica,sans-Serif" font-size="10.00">/Tools/Triton/src/libtriton</text>
<text text-anchor="middle" x="606" y="-89.12" font-family="Helvetica,sans-Serif" font-size="10.00">/context/context.cpp</text>
</a>
</g>
</g>
<!-- Node9&#45;&gt;Node12 -->
<g id="edge12_Node000009_Node000012" class="edge">
<title>Node9&#45;&gt;Node12</title>
<g id="a_edge12_Node000009_Node000012"><a xlink:title=" ">
<path fill="none" stroke="#63b8ff" d="M452.15,-162.42C483.71,-150.69 521.18,-136.77 551.24,-125.6"/>
<polygon fill="#63b8ff" stroke="#63b8ff" points="451.27,-159.01 443.12,-165.77 453.71,-165.57 451.27,-159.01"/>
</a>
</g>
</g>
<!-- Node13 -->
<g id="Node000013" class="node">
<title>Node13</title>
<g id="a_Node000013"><a xlink:href="symbolicSimplification_8cpp.html" target="_top" xlink:title=" ">
<polygon fill="white" stroke="#666666" points="214,-125.12 0,-125.12 0,-83.38 214,-83.38 214,-125.12"/>
<text text-anchor="start" x="8" y="-111.62" font-family="Helvetica,sans-Serif" font-size="10.00">/Users/jonathan/Works</text>
<text text-anchor="start" x="8" y="-100.38" font-family="Helvetica,sans-Serif" font-size="10.00">/Tools/Triton/src/libtriton</text>
<text text-anchor="middle" x="107" y="-89.12" font-family="Helvetica,sans-Serif" font-size="10.00">/engines/symbolic/symbolicSimplification.cpp</text>
</a>
</g>
</g>
<!-- Node9&#45;&gt;Node13 -->
<g id="edge13_Node000009_Node000013" class="edge">
<title>Node9&#45;&gt;Node13</title>
<g id="a_edge13_Node000009_Node000013"><a xlink:title=" ">
<path fill="none" stroke="#63b8ff" d="M309.06,-163.97C267.62,-151.93 217.1,-137.25 176.93,-125.57"/>
<polygon fill="#63b8ff" stroke="#63b8ff" points="307.9,-167.28 318.48,-166.71 309.85,-160.56 307.9,-167.28"/>
</a>
</g>
</g>
<!-- Node14 -->
<g id="Node000014" class="node">
<title>Node14</title>
<g id="a_Node000014"><a xlink:href="llvmToTriton_8hpp.html" target="_top" xlink:title=" ">
<polygon fill="white" stroke="#666666" points="386.38,-125.12 231.62,-125.12 231.62,-83.38 386.38,-83.38 386.38,-125.12"/>
<text text-anchor="start" x="239.62" y="-111.62" font-family="Helvetica,sans-Serif" font-size="10.00">/Users/jonathan/Works</text>
<text text-anchor="start" x="239.62" y="-100.38" font-family="Helvetica,sans-Serif" font-size="10.00">/Tools/Triton/src/libtriton</text>
<text text-anchor="middle" x="309" y="-89.12" font-family="Helvetica,sans-Serif" font-size="10.00">/includes/triton/llvmToTriton.hpp</text>
</a>
</g>
</g>
<!-- Node9&#45;&gt;Node14 -->
<g id="edge14_Node000009_Node000014" class="edge">
<title>Node9&#45;&gt;Node14</title>
<g id="a_edge14_Node000009_Node000014"><a xlink:title=" ">
<path fill="none" stroke="#63b8ff" d="M360.04,-158.5C349.61,-147.62 337.9,-135.4 328.33,-125.42"/>
<polygon fill="#63b8ff" stroke="#63b8ff" points="357.23,-160.62 366.67,-165.42 362.28,-155.78 357.23,-160.62"/>
</a>
</g>
</g>
<!-- Node15 -->
<g id="Node000015" class="node">
<title>Node15</title>
<g id="a_Node000015"><a xlink:href="llvmToTriton_8cpp.html" target="_top" xlink:title=" ">
<polygon fill="white" stroke="#666666" points="292.25,-41.75 163.75,-41.75 163.75,0 292.25,0 292.25,-41.75"/>
<text text-anchor="start" x="171.75" y="-28.25" font-family="Helvetica,sans-Serif" font-size="10.00">/Users/jonathan/Works</text>
<text text-anchor="start" x="171.75" y="-17" font-family="Helvetica,sans-Serif" font-size="10.00">/Tools/Triton/src/libtriton</text>
<text text-anchor="middle" x="228" y="-5.75" font-family="Helvetica,sans-Serif" font-size="10.00">/ast/llvm/llvmToTriton.cpp</text>
</a>
</g>
</g>
<!-- Node14&#45;&gt;Node15 -->
<g id="edge15_Node000014_Node000015" class="edge">
<title>Node14&#45;&gt;Node15</title>
<g id="a_edge15_Node000014_Node000015"><a xlink:title=" ">
<path fill="none" stroke="#63b8ff" d="M281.01,-75.13C270.17,-64.24 258.01,-52.02 248.07,-42.04"/>
<polygon fill="#63b8ff" stroke="#63b8ff" points="278.37,-77.44 287.91,-82.06 283.34,-72.51 278.37,-77.44"/>
</a>
</g>
</g>
<!-- Node16 -->
<g id="Node000016" class="node">
<title>Node16</title>
<g id="a_Node000016"><a xlink:href="liftingToLLVM_8cpp.html" target="_top" xlink:title=" ">
<polygon fill="white" stroke="#666666" points="470,-41.75 310,-41.75 310,0 470,0 470,-41.75"/>
<text text-anchor="start" x="318" y="-28.25" font-family="Helvetica,sans-Serif" font-size="10.00">/Users/jonathan/Works</text>
<text text-anchor="start" x="318" y="-17" font-family="Helvetica,sans-Serif" font-size="10.00">/Tools/Triton/src/libtriton</text>
<text text-anchor="middle" x="390" y="-5.75" font-family="Helvetica,sans-Serif" font-size="10.00">/engines/lifters/liftingToLLVM.cpp</text>
</a>
</g>
</g>
<!-- Node14&#45;&gt;Node16 -->
<g id="edge16_Node000014_Node000016" class="edge">
<title>Node14&#45;&gt;Node16</title>
<g id="a_edge16_Node000014_Node000016"><a xlink:title=" ">
<path fill="none" stroke="#63b8ff" d="M336.99,-75.13C347.83,-64.24 359.99,-52.02 369.93,-42.04"/>
<polygon fill="#63b8ff" stroke="#63b8ff" points="334.66,-72.51 330.09,-82.06 339.63,-77.44 334.66,-72.51"/>
</a>
</g>
</g>
<!-- Node17&#45;&gt;Node9 -->
<g id="edge19_Node000017_Node000009" class="edge">
<title>Node17&#45;&gt;Node9</title>
<g id="a_edge19_Node000017_Node000009"><a xlink:title=" ">
<path fill="none" stroke="#63b8ff" d="M418.63,-234.7C412.72,-226.09 406.4,-216.88 400.97,-208.98"/>
<polygon fill="#63b8ff" stroke="#63b8ff" points="415.66,-236.56 424.21,-242.83 421.43,-232.6 415.66,-236.56"/>
</a>
</g>
</g>
<!-- Node18 -->
<g id="Node000018" class="node">
<title>Node18</title>
<g id="a_Node000018"><a xlink:href="synthesizer_8cpp.html" target="_top" xlink:title=" ">
<polygon fill="white" stroke="#666666" points="640.5,-208.5 471.5,-208.5 471.5,-166.75 640.5,-166.75 640.5,-208.5"/>
<text text-anchor="start" x="479.5" y="-195" font-family="Helvetica,sans-Serif" font-size="10.00">/Users/jonathan/Works</text>
<text text-anchor="start" x="479.5" y="-183.75" font-family="Helvetica,sans-Serif" font-size="10.00">/Tools/Triton/src/libtriton</text>
<text text-anchor="middle" x="556" y="-172.5" font-family="Helvetica,sans-Serif" font-size="10.00">/engines/synthesis/synthesizer.cpp</text>
</a>
</g>
</g>
<!-- Node17&#45;&gt;Node18 -->
<g id="edge18_Node000017_Node000018" class="edge">
<title>Node17&#45;&gt;Node18</title>
<g id="a_edge18_Node000017_Node000018"><a xlink:title=" ">
<path fill="none" stroke="#63b8ff" d="M479.73,-238.01C494.43,-228.49 510.78,-217.9 524.56,-208.98"/>
<polygon fill="#63b8ff" stroke="#63b8ff" points="478.12,-234.88 471.62,-243.25 481.92,-240.76 478.12,-234.88"/>
</a>
</g>
</g>
<!-- Node19&#45;&gt;Node2 -->
<g id="edge32_Node000019_Node000002" class="edge">
<title>Node19&#45;&gt;Node2</title>
<g id="a_edge32_Node000019_Node000002"><a xlink:title=" ">
<path fill="none" stroke="#63b8ff" d="M1543.1,-516.64C1365.58,-509.52 987.04,-491.61 859,-464.25 856.09,-463.63 853.14,-462.91 850.18,-462.12"/>
<polygon fill="#63b8ff" stroke="#63b8ff" points="1542.86,-520.14 1552.99,-517.04 1543.14,-513.14 1542.86,-520.14"/>
</a>
</g>
</g>
<!-- Node19&#45;&gt;Node10 -->
<g id="edge35_Node000019_Node000010" class="edge">
<title>Node19&#45;&gt;Node10</title>
<g id="a_edge35_Node000019_Node000010"><a xlink:title=" ">
<path fill="none" stroke="#63b8ff" d="M1730.65,-498.66C1788.05,-485.11 1851.42,-469.24 1856,-464.25 1890.89,-426.25 1875,-401.33 1875,-349.75 1875,-349.75 1875,-349.75 1875,-264.38 1875,-160.62 1517.54,-121.25 1371.27,-109.48"/>
<polygon fill="#63b8ff" stroke="#63b8ff" points="1730.05,-495.21 1721.12,-500.9 1731.66,-502.02 1730.05,-495.21"/>
</a>
</g>
</g>
<!-- Node20 -->
<g id="Node000020" class="node">
<title>Node20</title>
<g id="a_Node000020"><a xlink:href="tritonCallbacks_8cpp.html" target="_top" xlink:title=" ">
<polygon fill="white" stroke="#666666" points="2030.5,-464.25 1903.5,-464.25 1903.5,-411.25 2030.5,-411.25 2030.5,-464.25"/>
<text text-anchor="start" x="1911.5" y="-450.75" font-family="Helvetica,sans-Serif" font-size="10.00">/Users/jonathan/Works</text>
<text text-anchor="start" x="1911.5" y="-439.5" font-family="Helvetica,sans-Serif" font-size="10.00">/Tools/Triton/src/libtriton</text>
<text text-anchor="start" x="1911.5" y="-428.25" font-family="Helvetica,sans-Serif" font-size="10.00">/bindings/python/modules</text>
<text text-anchor="middle" x="1967" y="-417" font-family="Helvetica,sans-Serif" font-size="10.00">/tritonCallbacks.cpp</text>
</a>
</g>
</g>
<!-- Node19&#45;&gt;Node20 -->
<g id="edge21_Node000019_Node000020" class="edge">
<title>Node19&#45;&gt;Node20</title>
<g id="a_edge21_Node000019_Node000020"><a xlink:title=" ">
<path fill="none" stroke="#63b8ff" d="M1730.32,-499.66C1798.74,-484.61 1881.04,-466.43 1889,-464.25 1893.67,-462.97 1898.48,-461.58 1903.3,-460.14"/>
<polygon fill="#63b8ff" stroke="#63b8ff" points="1729.97,-496.15 1720.95,-501.72 1731.47,-502.99 1729.97,-496.15"/>
</a>
</g>
</g>
<!-- Node21 -->
<g id="Node000021" class="node">
<title>Node21</title>
<g id="a_Node000021"><a xlink:href="initRegNamespace_8cpp.html" target="_top" xlink:title=" ">
<polygon fill="white" stroke="#666666" points="2193.88,-464.25 2048.12,-464.25 2048.12,-411.25 2193.88,-411.25 2193.88,-464.25"/>
<text text-anchor="start" x="2056.12" y="-450.75" font-family="Helvetica,sans-Serif" font-size="10.00">/Users/jonathan/Works</text>
<text text-anchor="start" x="2056.12" y="-439.5" font-family="Helvetica,sans-Serif" font-size="10.00">/Tools/Triton/src/libtriton</text>
<text text-anchor="start" x="2056.12" y="-428.25" font-family="Helvetica,sans-Serif" font-size="10.00">/bindings/python/namespaces</text>
<text text-anchor="middle" x="2121" y="-417" font-family="Helvetica,sans-Serif" font-size="10.00">/initRegNamespace.cpp</text>
</a>
</g>
</g>
<!-- Node19&#45;&gt;Node21 -->
<g id="edge22_Node000019_Node000021" class="edge">
<title>Node19&#45;&gt;Node21</title>
<g id="a_edge22_Node000019_Node000021"><a xlink:title=" ">
<path fill="none" stroke="#63b8ff" d="M1730.63,-499.92C1867.75,-478.14 1907.08,-492.57 2040,-464.25 2042.6,-463.7 2045.23,-463.1 2047.87,-462.46"/>
<polygon fill="#63b8ff" stroke="#63b8ff" points="1730.07,-496.46 1720.76,-501.53 1731.2,-503.37 1730.07,-496.46"/>
</a>
</g>
</g>
<!-- Node22 -->
<g id="Node000022" class="node">
<title>Node22</title>
<g id="a_Node000022"><a xlink:href="pyAstContext_8cpp.html" target="_top" xlink:title=" ">
<polygon fill="white" stroke="#666666" points="2333.88,-464.25 2212.12,-464.25 2212.12,-411.25 2333.88,-411.25 2333.88,-464.25"/>
<text text-anchor="start" x="2220.12" y="-450.75" font-family="Helvetica,sans-Serif" font-size="10.00">/Users/jonathan/Works</text>
<text text-anchor="start" x="2220.12" y="-439.5" font-family="Helvetica,sans-Serif" font-size="10.00">/Tools/Triton/src/libtriton</text>
<text text-anchor="start" x="2220.12" y="-428.25" font-family="Helvetica,sans-Serif" font-size="10.00">/bindings/python/objects</text>
<text text-anchor="middle" x="2273" y="-417" font-family="Helvetica,sans-Serif" font-size="10.00">/pyAstContext.cpp</text>
</a>
</g>
</g>
<!-- Node19&#45;&gt;Node22 -->
<g id="edge23_Node000019_Node000022" class="edge">
<title>Node19&#45;&gt;Node22</title>
<g id="a_edge23_Node000019_Node000022"><a xlink:title=" ">
<path fill="none" stroke="#63b8ff" d="M1731.07,-499.92C1939.59,-470.94 1999.68,-508.12 2203,-464.25 2205.91,-463.62 2208.86,-462.9 2211.82,-462.11"/>
<polygon fill="#63b8ff" stroke="#63b8ff" points="1730.64,-496.45 1721.24,-501.33 1731.63,-503.38 1730.64,-496.45"/>
</a>
</g>
</g>
<!-- Node23 -->
<g id="Node000023" class="node">
<title>Node23</title>
<g id="a_Node000023"><a xlink:href="pyAstNode_8cpp.html" target="_top" xlink:title=" ">
<polygon fill="white" stroke="#666666" points="2473.88,-464.25 2352.12,-464.25 2352.12,-411.25 2473.88,-411.25 2473.88,-464.25"/>
<text text-anchor="start" x="2360.12" y="-450.75" font-family="Helvetica,sans-Serif" font-size="10.00">/Users/jonathan/Works</text>
<text text-anchor="start" x="2360.12" y="-439.5" font-family="Helvetica,sans-Serif" font-size="10.00">/Tools/Triton/src/libtriton</text>
<text text-anchor="start" x="2360.12" y="-428.25" font-family="Helvetica,sans-Serif" font-size="10.00">/bindings/python/objects</text>
<text text-anchor="middle" x="2413" y="-417" font-family="Helvetica,sans-Serif" font-size="10.00">/pyAstNode.cpp</text>
</a>
</g>
</g>
<!-- Node19&#45;&gt;Node23 -->
<g id="edge24_Node000019_Node000023" class="edge">
<title>Node19&#45;&gt;Node23</title>
<g id="a_edge24_Node000019_Node000023"><a xlink:title=" ">
<path fill="none" stroke="#63b8ff" d="M1731.08,-499.95C2001.35,-464.46 2078.54,-518.94 2343,-464.25 2345.91,-463.65 2348.87,-462.95 2351.83,-462.17"/>
<polygon fill="#63b8ff" stroke="#63b8ff" points="1730.67,-496.48 1721.23,-501.28 1731.61,-503.41 1730.67,-496.48"/>
</a>
</g>
</g>
<!-- Node24 -->
<g id="Node000024" class="node">
<title>Node24</title>
<g id="a_Node000024"><a xlink:href="pyBasicBlock_8cpp.html" target="_top" xlink:title=" ">
<polygon fill="white" stroke="#666666" points="2613.88,-464.25 2492.12,-464.25 2492.12,-411.25 2613.88,-411.25 2613.88,-464.25"/>
<text text-anchor="start" x="2500.12" y="-450.75" font-family="Helvetica,sans-Serif" font-size="10.00">/Users/jonathan/Works</text>
<text text-anchor="start" x="2500.12" y="-439.5" font-family="Helvetica,sans-Serif" font-size="10.00">/Tools/Triton/src/libtriton</text>
<text text-anchor="start" x="2500.12" y="-428.25" font-family="Helvetica,sans-Serif" font-size="10.00">/bindings/python/objects</text>
<text text-anchor="middle" x="2553" y="-417" font-family="Helvetica,sans-Serif" font-size="10.00">/pyBasicBlock.cpp</text>
</a>
</g>
</g>
<!-- Node19&#45;&gt;Node24 -->
<g id="edge25_Node000019_Node000024" class="edge">
<title>Node19&#45;&gt;Node24</title>
<g id="a_edge25_Node000019_Node000024"><a xlink:title=" ">
<path fill="none" stroke="#63b8ff" d="M1731.13,-499.97C2063.15,-457.91 2157.36,-529.75 2483,-464.25 2485.92,-463.66 2488.87,-462.98 2491.84,-462.21"/>
<polygon fill="#63b8ff" stroke="#63b8ff" points="1730.69,-496.49 1721.22,-501.25 1731.59,-503.43 1730.69,-496.49"/>
</a>
</g>
</g>
<!-- Node25 -->
<g id="Node000025" class="node">
<title>Node25</title>
<g id="a_Node000025"><a xlink:href="pyBitsVector_8cpp.html" target="_top" xlink:title=" ">
<polygon fill="white" stroke="#666666" points="2753.88,-464.25 2632.12,-464.25 2632.12,-411.25 2753.88,-411.25 2753.88,-464.25"/>
<text text-anchor="start" x="2640.12" y="-450.75" font-family="Helvetica,sans-Serif" font-size="10.00">/Users/jonathan/Works</text>
<text text-anchor="start" x="2640.12" y="-439.5" font-family="Helvetica,sans-Serif" font-size="10.00">/Tools/Triton/src/libtriton</text>
<text text-anchor="start" x="2640.12" y="-428.25" font-family="Helvetica,sans-Serif" font-size="10.00">/bindings/python/objects</text>
<text text-anchor="middle" x="2693" y="-417" font-family="Helvetica,sans-Serif" font-size="10.00">/pyBitsVector.cpp</text>
</a>
</g>
</g>
<!-- Node19&#45;&gt;Node25 -->
<g id="edge26_Node000019_Node000025" class="edge">
<title>Node19&#45;&gt;Node25</title>
<g id="a_edge26_Node000019_Node000025"><a xlink:title=" ">
<path fill="none" stroke="#63b8ff" d="M1730.86,-500.01C2124.92,-451.27 2236.05,-540.58 2623,-464.25 2625.92,-463.67 2628.88,-463 2631.85,-462.24"/>
<polygon fill="#63b8ff" stroke="#63b8ff" points="1730.7,-496.5 1721.22,-501.23 1731.58,-503.45 1730.7,-496.5"/>
</a>
</g>
</g>
<!-- Node26 -->
<g id="Node000026" class="node">
<title>Node26</title>
<g id="a_Node000026"><a xlink:href="pyImmediate_8cpp.html" target="_top" xlink:title=" ">
<polygon fill="white" stroke="#666666" points="989.88,-464.25 868.12,-464.25 868.12,-411.25 989.88,-411.25 989.88,-464.25"/>
<text text-anchor="start" x="876.12" y="-450.75" font-family="Helvetica,sans-Serif" font-size="10.00">/Users/jonathan/Works</text>
<text text-anchor="start" x="876.12" y="-439.5" font-family="Helvetica,sans-Serif" font-size="10.00">/Tools/Triton/src/libtriton</text>
<text text-anchor="start" x="876.12" y="-428.25" font-family="Helvetica,sans-Serif" font-size="10.00">/bindings/python/objects</text>
<text text-anchor="middle" x="929" y="-417" font-family="Helvetica,sans-Serif" font-size="10.00">/pyImmediate.cpp</text>
</a>
</g>
</g>
<!-- Node19&#45;&gt;Node26 -->
<g id="edge27_Node000019_Node000026" class="edge">
<title>Node19&#45;&gt;Node26</title>
<g id="a_edge27_Node000019_Node000026"><a xlink:title=" ">
<path fill="none" stroke="#63b8ff" d="M1542.93,-519.54C1417.44,-517.04 1189,-506.41 999,-464.25 996.1,-463.61 993.15,-462.87 990.19,-462.07"/>
<polygon fill="#63b8ff" stroke="#63b8ff" points="1542.8,-523.04 1552.87,-519.73 1542.93,-516.04 1542.8,-523.04"/>
</a>
</g>
</g>
<!-- Node27 -->
<g id="Node000027" class="node">
<title>Node27</title>
<g id="a_Node000027"><a xlink:href="pyInstruction_8cpp.html" target="_top" xlink:title=" ">
<polygon fill="white" stroke="#666666" points="1129.88,-464.25 1008.12,-464.25 1008.12,-411.25 1129.88,-411.25 1129.88,-464.25"/>
<text text-anchor="start" x="1016.12" y="-450.75" font-family="Helvetica,sans-Serif" font-size="10.00">/Users/jonathan/Works</text>
<text text-anchor="start" x="1016.12" y="-439.5" font-family="Helvetica,sans-Serif" font-size="10.00">/Tools/Triton/src/libtriton</text>
<text text-anchor="start" x="1016.12" y="-428.25" font-family="Helvetica,sans-Serif" font-size="10.00">/bindings/python/objects</text>
<text text-anchor="middle" x="1069" y="-417" font-family="Helvetica,sans-Serif" font-size="10.00">/pyInstruction.cpp</text>
</a>
</g>
</g>
<!-- Node19&#45;&gt;Node27 -->
<g id="edge28_Node000019_Node000027" class="edge">
<title>Node19&#45;&gt;Node27</title>
<g id="a_edge28_Node000019_Node000027"><a xlink:title=" ">
<path fill="none" stroke="#63b8ff" d="M1543.08,-516.24C1442.11,-510.52 1277.44,-496.74 1139,-464.25 1136.1,-463.57 1133.16,-462.81 1130.21,-461.98"/>
<polygon fill="#63b8ff" stroke="#63b8ff" points="1542.78,-519.73 1552.95,-516.78 1543.16,-512.74 1542.78,-519.73"/>
</a>
</g>
</g>
<!-- Node28 -->
<g id="Node000028" class="node">
<title>Node28</title>
<g id="a_Node000028"><a xlink:href="pyMemoryAccess_8cpp.html" target="_top" xlink:title=" ">
<polygon fill="white" stroke="#666666" points="1269.88,-464.25 1148.12,-464.25 1148.12,-411.25 1269.88,-411.25 1269.88,-464.25"/>
<text text-anchor="start" x="1156.12" y="-450.75" font-family="Helvetica,sans-Serif" font-size="10.00">/Users/jonathan/Works</text>
<text text-anchor="start" x="1156.12" y="-439.5" font-family="Helvetica,sans-Serif" font-size="10.00">/Tools/Triton/src/libtriton</text>
<text text-anchor="start" x="1156.12" y="-428.25" font-family="Helvetica,sans-Serif" font-size="10.00">/bindings/python/objects</text>
<text text-anchor="middle" x="1209" y="-417" font-family="Helvetica,sans-Serif" font-size="10.00">/pyMemoryAccess.cpp</text>
</a>
</g>
</g>
<!-- Node19&#45;&gt;Node28 -->
<g id="edge29_Node000019_Node000028" class="edge">
<title>Node19&#45;&gt;Node28</title>
<g id="a_edge29_Node000019_Node000028"><a xlink:title=" ">
<path fill="none" stroke="#63b8ff" d="M1542.9,-510.51C1470.1,-501.85 1367.18,-486.96 1279,-464.25 1276.12,-463.51 1273.19,-462.69 1270.25,-461.83"/>
<polygon fill="#63b8ff" stroke="#63b8ff" points="1542.48,-513.98 1552.82,-511.67 1543.29,-507.03 1542.48,-513.98"/>
</a>
</g>
</g>
<!-- Node29 -->
<g id="Node000029" class="node">
<title>Node29</title>
<g id="a_Node000029"><a xlink:href="pyPathConstraint_8cpp.html" target="_top" xlink:title=" ">
<polygon fill="white" stroke="#666666" points="1409.88,-464.25 1288.12,-464.25 1288.12,-411.25 1409.88,-411.25 1409.88,-464.25"/>
<text text-anchor="start" x="1296.12" y="-450.75" font-family="Helvetica,sans-Serif" font-size="10.00">/Users/jonathan/Works</text>
<text text-anchor="start" x="1296.12" y="-439.5" font-family="Helvetica,sans-Serif" font-size="10.00">/Tools/Triton/src/libtriton</text>
<text text-anchor="start" x="1296.12" y="-428.25" font-family="Helvetica,sans-Serif" font-size="10.00">/bindings/python/objects</text>
<text text-anchor="middle" x="1349" y="-417" font-family="Helvetica,sans-Serif" font-size="10.00">/pyPathConstraint.cpp</text>
</a>
</g>
</g>
<!-- Node19&#45;&gt;Node29 -->
<g id="edge30_Node000019_Node000029" class="edge">
<title>Node19&#45;&gt;Node29</title>
<g id="a_edge30_Node000019_Node000029"><a xlink:title=" ">
<path fill="none" stroke="#63b8ff" d="M1543.66,-498.35C1504.86,-488.74 1459.51,-476.79 1419,-464.25 1416.16,-463.37 1413.26,-462.44 1410.34,-461.48"/>
<polygon fill="#63b8ff" stroke="#63b8ff" points="1542.41,-501.64 1552.96,-500.63 1544.08,-494.84 1542.41,-501.64"/>
</a>
</g>
</g>
<!-- Node30 -->
<g id="Node000030" class="node">
<title>Node30</title>
<g id="a_Node000030"><a xlink:href="pyRegister_8cpp.html" target="_top" xlink:title=" ">
<polygon fill="white" stroke="#666666" points="1549.88,-464.25 1428.12,-464.25 1428.12,-411.25 1549.88,-411.25 1549.88,-464.25"/>
<text text-anchor="start" x="1436.12" y="-450.75" font-family="Helvetica,sans-Serif" font-size="10.00">/Users/jonathan/Works</text>
<text text-anchor="start" x="1436.12" y="-439.5" font-family="Helvetica,sans-Serif" font-size="10.00">/Tools/Triton/src/libtriton</text>
<text text-anchor="start" x="1436.12" y="-428.25" font-family="Helvetica,sans-Serif" font-size="10.00">/bindings/python/objects</text>
<text text-anchor="middle" x="1489" y="-417" font-family="Helvetica,sans-Serif" font-size="10.00">/pyRegister.cpp</text>
</a>
</g>
</g>
<!-- Node19&#45;&gt;Node30 -->
<g id="edge31_Node000019_Node000030" class="edge">
<title>Node19&#45;&gt;Node30</title>
<g id="a_edge31_Node000019_Node000030"><a xlink:title=" ">
<path fill="none" stroke="#63b8ff" d="M1590.18,-494.38C1572.93,-484.9 1553.39,-474.16 1536.12,-464.66"/>
<polygon fill="#63b8ff" stroke="#63b8ff" points="1588.26,-497.32 1598.71,-499.07 1591.63,-491.19 1588.26,-497.32"/>
</a>
</g>
</g>
<!-- Node31 -->
<g id="Node000031" class="node">
<title>Node31</title>
<g id="a_Node000031"><a xlink:href="pySymbolicExpression_8cpp.html" target="_top" xlink:title=" ">
<polygon fill="white" stroke="#666666" points="1705.75,-464.25 1568.25,-464.25 1568.25,-411.25 1705.75,-411.25 1705.75,-464.25"/>
<text text-anchor="start" x="1576.25" y="-450.75" font-family="Helvetica,sans-Serif" font-size="10.00">/Users/jonathan/Works</text>
<text text-anchor="start" x="1576.25" y="-439.5" font-family="Helvetica,sans-Serif" font-size="10.00">/Tools/Triton/src/libtriton</text>
<text text-anchor="start" x="1576.25" y="-428.25" font-family="Helvetica,sans-Serif" font-size="10.00">/bindings/python/objects</text>
<text text-anchor="middle" x="1637" y="-417" font-family="Helvetica,sans-Serif" font-size="10.00">/pySymbolicExpression.cpp</text>
</a>
</g>
</g>
<!-- Node19&#45;&gt;Node31 -->
<g id="edge33_Node000019_Node000031" class="edge">
<title>Node19&#45;&gt;Node31</title>
<g id="a_edge33_Node000019_Node000031"><a xlink:title=" ">
<path fill="none" stroke="#63b8ff" d="M1637,-488.77C1637,-480.74 1637,-472.19 1637,-464.48"/>
<polygon fill="#63b8ff" stroke="#63b8ff" points="1633.5,-488.5 1637,-498.5 1640.5,-488.5 1633.5,-488.5"/>
</a>
</g>
</g>
<!-- Node32 -->
<g id="Node000032" class="node">
<title>Node32</title>
<g id="a_Node000032"><a xlink:href="pySymbolicVariable_8cpp.html" target="_top" xlink:title=" ">
<polygon fill="white" stroke="#666666" points="1846.62,-464.25 1723.38,-464.25 1723.38,-411.25 1846.62,-411.25 1846.62,-464.25"/>
<text text-anchor="start" x="1731.38" y="-450.75" font-family="Helvetica,sans-Serif" font-size="10.00">/Users/jonathan/Works</text>
<text text-anchor="start" x="1731.38" y="-439.5" font-family="Helvetica,sans-Serif" font-size="10.00">/Tools/Triton/src/libtriton</text>
<text text-anchor="start" x="1731.38" y="-428.25" font-family="Helvetica,sans-Serif" font-size="10.00">/bindings/python/objects</text>
<text text-anchor="middle" x="1785" y="-417" font-family="Helvetica,sans-Serif" font-size="10.00">/pySymbolicVariable.cpp</text>
</a>
</g>
</g>
<!-- Node19&#45;&gt;Node32 -->
<g id="edge34_Node000019_Node000032" class="edge">
<title>Node19&#45;&gt;Node32</title>
<g id="a_edge34_Node000019_Node000032"><a xlink:title=" ">
<path fill="none" stroke="#63b8ff" d="M1683.82,-494.38C1701.07,-484.9 1720.61,-474.16 1737.88,-464.66"/>
<polygon fill="#63b8ff" stroke="#63b8ff" points="1682.37,-491.19 1675.29,-499.07 1685.74,-497.32 1682.37,-491.19"/>
</a>
</g>
</g>
<!-- Node33&#45;&gt;Node6 -->
<g id="edge38_Node000033_Node000006" class="edge">
<title>Node33&#45;&gt;Node6</title>
<g id="a_edge38_Node000033_Node000006"><a xlink:title=" ">
<path fill="none" stroke="#63b8ff" d="M406.37,-489.09C403.89,-478.98 401.19,-468.02 398.96,-458.92"/>
<polygon fill="#63b8ff" stroke="#63b8ff" points="402.91,-489.66 408.69,-498.54 409.71,-487.99 402.91,-489.66"/>
</a>
</g>
</g>
<!-- Node33&#45;&gt;Node7 -->
<g id="edge39_Node000033_Node000007" class="edge">
<title>Node33&#45;&gt;Node7</title>
<g id="a_edge39_Node000033_Node000007"><a xlink:title=" ">
<path fill="none" stroke="#63b8ff" d="M335.08,-494.37C322.31,-486.69 310.76,-476.84 303,-464.25 290.64,-444.2 292.34,-432.26 303,-411.25 311.91,-393.68 328.46,-379.92 344.53,-369.92"/>
<polygon fill="#63b8ff" stroke="#63b8ff" points="333.26,-497.36 343.71,-499.1 336.63,-491.22 333.26,-497.36"/>
</a>
</g>
</g>
<!-- Node33&#45;&gt;Node34 -->
<g id="edge40_Node000033_Node000034" class="edge">
<title>Node33&#45;&gt;Node34</title>
<g id="a_edge40_Node000033_Node000034"><a xlink:title=" ">
<path fill="none" stroke="#63b8ff" d="M461.47,-494.37C482.46,-482.98 506.8,-469.78 526.49,-459.1"/>
<polygon fill="#63b8ff" stroke="#63b8ff" points="459.92,-491.23 452.79,-499.08 463.25,-497.39 459.92,-491.23"/>
</a>
</g>
</g>
<!-- Node34&#45;&gt;Node5 -->
<g id="edge41_Node000034_Node000005" class="edge">
<title>Node34&#45;&gt;Node5</title>
<g id="a_edge41_Node000034_Node000005"><a xlink:title=" ">
<path fill="none" stroke="#63b8ff" d="M605.13,-410.44C625.35,-397.5 649.35,-382.15 668.16,-370.12"/>
<polygon fill="#63b8ff" stroke="#63b8ff" points="603.36,-407.42 596.82,-415.76 607.13,-413.32 603.36,-407.42"/>
</a>
</g>
</g>
<!-- Node34&#45;&gt;Node7 -->
<g id="edge42_Node000034_Node000007" class="edge">
<title>Node34&#45;&gt;Node7</title>
<g id="a_edge42_Node000034_Node000007"><a xlink:title=" ">
<path fill="none" stroke="#63b8ff" d="M512.62,-411.49C485.86,-398.34 453.58,-382.48 428.44,-370.12"/>
<polygon fill="#63b8ff" stroke="#63b8ff" points="511.07,-414.63 521.59,-415.9 514.16,-408.35 511.07,-414.63"/>
</a>
</g>
</g>
</g>
</svg>
