<?xml version="1.0" encoding="UTF-8" standalone="no"?>
<!DOCTYPE svg PUBLIC "-//W3C//DTD SVG 1.1//EN"
 "http://www.w3.org/Graphics/SVG/1.1/DTD/svg11.dtd">
<!-- Generated by graphviz version 2.50.0 (20211204.2007)
 -->
<!-- Title: /home/jonathan/Works/Tools/Triton/src/libtriton/includes/triton/solverEnums.hpp Pages: 1 -->
<svg width="1165pt" height="551pt"
 viewBox="0.00 0.00 1165.00 551.00" xmlns="http://www.w3.org/2000/svg" xmlns:xlink="http://www.w3.org/1999/xlink">
<g id="graph0" class="graph" transform="scale(1 1) rotate(0) translate(4 547)">
<title>/home/jonathan/Works/Tools/Triton/src/libtriton/includes/triton/solverEnums.hpp</title>
<polygon fill="white" stroke="transparent" points="-4,4 -4,-547 1161,-547 1161,4 -4,4"/>
<!-- Node1 -->
<g id="node1" class="node">
<title>Node1</title>
<g id="a_node1"><a xlink:title=" ">
<polygon fill="#bfbfbf" stroke="black" points="366,-501.5 366,-542.5 542,-542.5 542,-501.5 366,-501.5"/>
<text text-anchor="start" x="374" y="-530.5" font-family="Helvetica,sans-Serif" font-size="10.00">/home/jonathan/Works</text>
<text text-anchor="start" x="374" y="-519.5" font-family="Helvetica,sans-Serif" font-size="10.00">/Tools/Triton/src/libtriton</text>
<text text-anchor="middle" x="454" y="-508.5" font-family="Helvetica,sans-Serif" font-size="10.00">/includes/triton/solverEnums.hpp</text>
</a>
</g>
</g>
<!-- Node2 -->
<g id="node2" class="node">
<title>Node2</title>
<g id="a_node2"><a xlink:href="initSolverNamespace_8cpp.html" target="_top" xlink:title=" ">
<polygon fill="white" stroke="black" points="0,-412.5 0,-464.5 162,-464.5 162,-412.5 0,-412.5"/>
<text text-anchor="start" x="8" y="-452.5" font-family="Helvetica,sans-Serif" font-size="10.00">/home/jonathan/Works</text>
<text text-anchor="start" x="8" y="-441.5" font-family="Helvetica,sans-Serif" font-size="10.00">/Tools/Triton/src/libtriton</text>
<text text-anchor="start" x="8" y="-430.5" font-family="Helvetica,sans-Serif" font-size="10.00">/bindings/python/namespaces</text>
<text text-anchor="middle" x="81" y="-419.5" font-family="Helvetica,sans-Serif" font-size="10.00">/initSolverNamespace.cpp</text>
</a>
</g>
</g>
<!-- Node1&#45;&gt;Node2 -->
<g id="edge1" class="edge">
<title>Node1&#45;&gt;Node2</title>
<path fill="none" stroke="midnightblue" d="M355.93,-503.61C301.26,-493.41 232.09,-479.67 171,-465 168.16,-464.32 165.27,-463.6 162.36,-462.87"/>
<polygon fill="midnightblue" stroke="midnightblue" points="355.49,-507.09 365.96,-505.47 356.77,-500.21 355.49,-507.09"/>
</g>
<!-- Node3 -->
<g id="node3" class="node">
<title>Node3</title>
<g id="a_node3"><a xlink:href="initSolverStateNamespace_8cpp.html" target="_top" xlink:title=" ">
<polygon fill="white" stroke="black" points="180,-412.5 180,-464.5 350,-464.5 350,-412.5 180,-412.5"/>
<text text-anchor="start" x="188" y="-452.5" font-family="Helvetica,sans-Serif" font-size="10.00">/home/jonathan/Works</text>
<text text-anchor="start" x="188" y="-441.5" font-family="Helvetica,sans-Serif" font-size="10.00">/Tools/Triton/src/libtriton</text>
<text text-anchor="start" x="188" y="-430.5" font-family="Helvetica,sans-Serif" font-size="10.00">/bindings/python/namespaces</text>
<text text-anchor="middle" x="265" y="-419.5" font-family="Helvetica,sans-Serif" font-size="10.00">/initSolverStateNamespace.cpp</text>
</a>
</g>
</g>
<!-- Node1&#45;&gt;Node3 -->
<g id="edge2" class="edge">
<title>Node1&#45;&gt;Node3</title>
<path fill="none" stroke="midnightblue" d="M399.45,-497.48C375.54,-487.17 347.46,-475.06 323.15,-464.58"/>
<polygon fill="midnightblue" stroke="midnightblue" points="398.16,-500.73 408.73,-501.48 400.93,-494.31 398.16,-500.73"/>
</g>
<!-- Node4 -->
<g id="node4" class="node">
<title>Node4</title>
<g id="a_node4"><a xlink:href="bitwuzlaSolver_8hpp.html" target="_top" xlink:title=" ">
<polygon fill="white" stroke="black" points="405.5,-334.5 405.5,-375.5 590.5,-375.5 590.5,-334.5 405.5,-334.5"/>
<text text-anchor="start" x="413.5" y="-363.5" font-family="Helvetica,sans-Serif" font-size="10.00">/home/jonathan/Works</text>
<text text-anchor="start" x="413.5" y="-352.5" font-family="Helvetica,sans-Serif" font-size="10.00">/Tools/Triton/src/libtriton</text>
<text text-anchor="middle" x="498" y="-341.5" font-family="Helvetica,sans-Serif" font-size="10.00">/includes/triton/bitwuzlaSolver.hpp</text>
</a>
</g>
</g>
<!-- Node1&#45;&gt;Node4 -->
<g id="edge3" class="edge">
<title>Node1&#45;&gt;Node4</title>
<path fill="none" stroke="midnightblue" d="M456.72,-491.2C459.27,-469 463.94,-438.15 472,-412 475.85,-399.5 481.94,-386.2 487.25,-375.7"/>
<polygon fill="midnightblue" stroke="midnightblue" points="453.22,-491.02 455.63,-501.34 460.18,-491.77 453.22,-491.02"/>
</g>
<!-- Node6 -->
<g id="node6" class="node">
<title>Node6</title>
<g id="a_node6"><a xlink:href="context_8hpp.html" target="_top" xlink:title=" ">
<polygon fill="white" stroke="black" points="465,-167.5 465,-208.5 615,-208.5 615,-167.5 465,-167.5"/>
<text text-anchor="start" x="473" y="-196.5" font-family="Helvetica,sans-Serif" font-size="10.00">/home/jonathan/Works</text>
<text text-anchor="start" x="473" y="-185.5" font-family="Helvetica,sans-Serif" font-size="10.00">/Tools/Triton/src/libtriton</text>
<text text-anchor="middle" x="540" y="-174.5" font-family="Helvetica,sans-Serif" font-size="10.00">/includes/triton/context.hpp</text>
</a>
</g>
</g>
<!-- Node1&#45;&gt;Node6 -->
<g id="edge5" class="edge">
<title>Node1&#45;&gt;Node6</title>
<path fill="none" stroke="midnightblue" d="M436.2,-492.7C404.89,-438.92 348.3,-320.61 404,-245 418.69,-225.06 441.77,-212.19 464.78,-203.9"/>
<polygon fill="midnightblue" stroke="midnightblue" points="433.24,-494.56 441.36,-501.36 439.25,-490.98 433.24,-494.56"/>
</g>
<!-- Node14 -->
<g id="node14" class="node">
<title>Node14</title>
<g id="a_node14"><a xlink:href="solverEngine_8hpp.html" target="_top" xlink:title=" ">
<polygon fill="white" stroke="black" points="608,-334.5 608,-375.5 784,-375.5 784,-334.5 608,-334.5"/>
<text text-anchor="start" x="616" y="-363.5" font-family="Helvetica,sans-Serif" font-size="10.00">/home/jonathan/Works</text>
<text text-anchor="start" x="616" y="-352.5" font-family="Helvetica,sans-Serif" font-size="10.00">/Tools/Triton/src/libtriton</text>
<text text-anchor="middle" x="696" y="-341.5" font-family="Helvetica,sans-Serif" font-size="10.00">/includes/triton/solverEngine.hpp</text>
</a>
</g>
</g>
<!-- Node1&#45;&gt;Node14 -->
<g id="edge13" class="edge">
<title>Node1&#45;&gt;Node14</title>
<path fill="none" stroke="midnightblue" d="M552.17,-507.09C603.66,-497.77 659.58,-483.75 677,-465 699.49,-440.8 700.34,-399.91 698.47,-375.69"/>
<polygon fill="midnightblue" stroke="midnightblue" points="551.53,-503.65 542.29,-508.83 552.74,-510.54 551.53,-503.65"/>
</g>
<!-- Node18 -->
<g id="node18" class="node">
<title>Node18</title>
<g id="a_node18"><a xlink:href="solverInterface_8hpp.html" target="_top" xlink:title=" ">
<polygon fill="white" stroke="black" points="481.5,-418 481.5,-459 668.5,-459 668.5,-418 481.5,-418"/>
<text text-anchor="start" x="489.5" y="-447" font-family="Helvetica,sans-Serif" font-size="10.00">/home/jonathan/Works</text>
<text text-anchor="start" x="489.5" y="-436" font-family="Helvetica,sans-Serif" font-size="10.00">/Tools/Triton/src/libtriton</text>
<text text-anchor="middle" x="575" y="-425" font-family="Helvetica,sans-Serif" font-size="10.00">/includes/triton/solverInterface.hpp</text>
</a>
</g>
</g>
<!-- Node1&#45;&gt;Node18 -->
<g id="edge19" class="edge">
<title>Node1&#45;&gt;Node18</title>
<path fill="none" stroke="midnightblue" d="M491.32,-495.87C508.86,-484.05 529.46,-470.17 545.83,-459.14"/>
<polygon fill="midnightblue" stroke="midnightblue" points="489.32,-492.99 482.98,-501.48 493.23,-498.8 489.32,-492.99"/>
</g>
<!-- Node19 -->
<g id="node19" class="node">
<title>Node19</title>
<g id="a_node19"><a xlink:href="z3Solver_8hpp.html" target="_top" xlink:title=" ">
<polygon fill="white" stroke="black" points="802.5,-334.5 802.5,-375.5 957.5,-375.5 957.5,-334.5 802.5,-334.5"/>
<text text-anchor="start" x="810.5" y="-363.5" font-family="Helvetica,sans-Serif" font-size="10.00">/home/jonathan/Works</text>
<text text-anchor="start" x="810.5" y="-352.5" font-family="Helvetica,sans-Serif" font-size="10.00">/Tools/Triton/src/libtriton</text>
<text text-anchor="middle" x="880" y="-341.5" font-family="Helvetica,sans-Serif" font-size="10.00">/includes/triton/z3Solver.hpp</text>
</a>
</g>
</g>
<!-- Node1&#45;&gt;Node19 -->
<g id="edge24" class="edge">
<title>Node1&#45;&gt;Node19</title>
<path fill="none" stroke="midnightblue" d="M552.28,-506.46C598.76,-497.67 654.37,-484.34 702,-465 760.08,-441.41 820.95,-399.93 854.32,-375.51"/>
<polygon fill="midnightblue" stroke="midnightblue" points="551.4,-503.07 542.2,-508.32 552.67,-509.95 551.4,-503.07"/>
</g>
<!-- Node5 -->
<g id="node5" class="node">
<title>Node5</title>
<g id="a_node5"><a xlink:href="bitwuzlaSolver_8cpp.html" target="_top" xlink:title=" ">
<polygon fill="white" stroke="black" points="413.5,-245.5 413.5,-297.5 548.5,-297.5 548.5,-245.5 413.5,-245.5"/>
<text text-anchor="start" x="421.5" y="-285.5" font-family="Helvetica,sans-Serif" font-size="10.00">/home/jonathan/Works</text>
<text text-anchor="start" x="421.5" y="-274.5" font-family="Helvetica,sans-Serif" font-size="10.00">/Tools/Triton/src/libtriton</text>
<text text-anchor="start" x="421.5" y="-263.5" font-family="Helvetica,sans-Serif" font-size="10.00">/engines/solver/bitwuzla</text>
<text text-anchor="middle" x="481" y="-252.5" font-family="Helvetica,sans-Serif" font-size="10.00">/bitwuzlaSolver.cpp</text>
</a>
</g>
</g>
<!-- Node4&#45;&gt;Node5 -->
<g id="edge4" class="edge">
<title>Node4&#45;&gt;Node5</title>
<path fill="none" stroke="midnightblue" d="M491.83,-324.41C489.99,-315.62 488,-306.08 486.24,-297.61"/>
<polygon fill="midnightblue" stroke="midnightblue" points="488.42,-325.2 493.88,-334.27 495.27,-323.77 488.42,-325.2"/>
</g>
<!-- Node7 -->
<g id="node7" class="node">
<title>Node7</title>
<g id="a_node7"><a xlink:href="pyTritonContext_8cpp.html" target="_top" xlink:title=" ">
<polygon fill="white" stroke="black" points="167,-78.5 167,-130.5 303,-130.5 303,-78.5 167,-78.5"/>
<text text-anchor="start" x="175" y="-118.5" font-family="Helvetica,sans-Serif" font-size="10.00">/home/jonathan/Works</text>
<text text-anchor="start" x="175" y="-107.5" font-family="Helvetica,sans-Serif" font-size="10.00">/Tools/Triton/src/libtriton</text>
<text text-anchor="start" x="175" y="-96.5" font-family="Helvetica,sans-Serif" font-size="10.00">/bindings/python/objects</text>
<text text-anchor="middle" x="235" y="-85.5" font-family="Helvetica,sans-Serif" font-size="10.00">/pyTritonContext.cpp</text>
</a>
</g>
</g>
<!-- Node6&#45;&gt;Node7 -->
<g id="edge6" class="edge">
<title>Node6&#45;&gt;Node7</title>
<path fill="none" stroke="midnightblue" d="M455.03,-167.81C411.96,-157.66 358.97,-144.52 312,-131 309.16,-130.18 306.26,-129.33 303.35,-128.45"/>
<polygon fill="midnightblue" stroke="midnightblue" points="454.37,-171.25 464.9,-170.13 455.96,-164.44 454.37,-171.25"/>
</g>
<!-- Node8 -->
<g id="node8" class="node">
<title>Node8</title>
<g id="a_node8"><a xlink:href="callbacks_8cpp.html" target="_top" xlink:title=" ">
<polygon fill="white" stroke="black" points="321,-84 321,-125 455,-125 455,-84 321,-84"/>
<text text-anchor="start" x="329" y="-113" font-family="Helvetica,sans-Serif" font-size="10.00">/home/jonathan/Works</text>
<text text-anchor="start" x="329" y="-102" font-family="Helvetica,sans-Serif" font-size="10.00">/Tools/Triton/src/libtriton</text>
<text text-anchor="middle" x="388" y="-91" font-family="Helvetica,sans-Serif" font-size="10.00">/callbacks/callbacks.cpp</text>
</a>
</g>
</g>
<!-- Node6&#45;&gt;Node8 -->
<g id="edge7" class="edge">
<title>Node6&#45;&gt;Node8</title>
<path fill="none" stroke="midnightblue" d="M494.59,-162.65C472.15,-150.62 445.44,-136.3 424.37,-125"/>
<polygon fill="midnightblue" stroke="midnightblue" points="493.13,-165.84 503.59,-167.48 496.43,-159.67 493.13,-165.84"/>
</g>
<!-- Node9 -->
<g id="node9" class="node">
<title>Node9</title>
<g id="a_node9"><a xlink:href="context_8cpp.html" target="_top" xlink:title=" ">
<polygon fill="white" stroke="black" points="473.5,-84 473.5,-125 606.5,-125 606.5,-84 473.5,-84"/>
<text text-anchor="start" x="481.5" y="-113" font-family="Helvetica,sans-Serif" font-size="10.00">/home/jonathan/Works</text>
<text text-anchor="start" x="481.5" y="-102" font-family="Helvetica,sans-Serif" font-size="10.00">/Tools/Triton/src/libtriton</text>
<text text-anchor="middle" x="540" y="-91" font-family="Helvetica,sans-Serif" font-size="10.00">/context/context.cpp</text>
</a>
</g>
</g>
<!-- Node6&#45;&gt;Node9 -->
<g id="edge8" class="edge">
<title>Node6&#45;&gt;Node9</title>
<path fill="none" stroke="midnightblue" d="M540,-157.06C540,-146.38 540,-134.63 540,-125.05"/>
<polygon fill="midnightblue" stroke="midnightblue" points="536.5,-157.27 540,-167.27 543.5,-157.27 536.5,-157.27"/>
</g>
<!-- Node10 -->
<g id="node10" class="node">
<title>Node10</title>
<g id="a_node10"><a xlink:href="symbolicSimplification_8cpp.html" target="_top" xlink:title=" ">
<polygon fill="white" stroke="black" points="624.5,-84 624.5,-125 863.5,-125 863.5,-84 624.5,-84"/>
<text text-anchor="start" x="632.5" y="-113" font-family="Helvetica,sans-Serif" font-size="10.00">/home/jonathan/Works</text>
<text text-anchor="start" x="632.5" y="-102" font-family="Helvetica,sans-Serif" font-size="10.00">/Tools/Triton/src/libtriton</text>
<text text-anchor="middle" x="744" y="-91" font-family="Helvetica,sans-Serif" font-size="10.00">/engines/symbolic/symbolicSimplification.cpp</text>
</a>
</g>
</g>
<!-- Node6&#45;&gt;Node10 -->
<g id="edge9" class="edge">
<title>Node6&#45;&gt;Node10</title>
<path fill="none" stroke="midnightblue" d="M598.16,-163.77C628.83,-151.51 666.03,-136.65 695.18,-125"/>
<polygon fill="midnightblue" stroke="midnightblue" points="596.85,-160.52 588.86,-167.48 599.45,-167.02 596.85,-160.52"/>
</g>
<!-- Node11 -->
<g id="node11" class="node">
<title>Node11</title>
<g id="a_node11"><a xlink:href="llvmToTriton_8hpp.html" target="_top" xlink:title=" ">
<polygon fill="white" stroke="black" points="881.5,-84 881.5,-125 1054.5,-125 1054.5,-84 881.5,-84"/>
<text text-anchor="start" x="889.5" y="-113" font-family="Helvetica,sans-Serif" font-size="10.00">/home/jonathan/Works</text>
<text text-anchor="start" x="889.5" y="-102" font-family="Helvetica,sans-Serif" font-size="10.00">/Tools/Triton/src/libtriton</text>
<text text-anchor="middle" x="968" y="-91" font-family="Helvetica,sans-Serif" font-size="10.00">/includes/triton/llvmToTriton.hpp</text>
</a>
</g>
</g>
<!-- Node6&#45;&gt;Node11 -->
<g id="edge10" class="edge">
<title>Node6&#45;&gt;Node11</title>
<path fill="none" stroke="midnightblue" d="M624.88,-166.92C735.13,-146.47 765.97,-152.7 872,-131 880.53,-129.25 889.43,-127.2 898.23,-125.04"/>
<polygon fill="midnightblue" stroke="midnightblue" points="624.21,-163.49 615.03,-168.78 625.51,-170.37 624.21,-163.49"/>
</g>
<!-- Node12 -->
<g id="node12" class="node">
<title>Node12</title>
<g id="a_node12"><a xlink:href="llvmToTriton_8cpp.html" target="_top" xlink:title=" ">
<polygon fill="white" stroke="black" points="808,-0.5 808,-41.5 950,-41.5 950,-0.5 808,-0.5"/>
<text text-anchor="start" x="816" y="-29.5" font-family="Helvetica,sans-Serif" font-size="10.00">/home/jonathan/Works</text>
<text text-anchor="start" x="816" y="-18.5" font-family="Helvetica,sans-Serif" font-size="10.00">/Tools/Triton/src/libtriton</text>
<text text-anchor="middle" x="879" y="-7.5" font-family="Helvetica,sans-Serif" font-size="10.00">/ast/llvm/llvmToTriton.cpp</text>
</a>
</g>
</g>
<!-- Node11&#45;&gt;Node12 -->
<g id="edge11" class="edge">
<title>Node11&#45;&gt;Node12</title>
<path fill="none" stroke="midnightblue" d="M938.91,-76.86C926.34,-65.35 911.9,-52.13 900.35,-41.55"/>
<polygon fill="midnightblue" stroke="midnightblue" points="936.72,-79.6 946.46,-83.77 941.44,-74.44 936.72,-79.6"/>
</g>
<!-- Node13 -->
<g id="node13" class="node">
<title>Node13</title>
<g id="a_node13"><a xlink:href="liftingToLLVM_8cpp.html" target="_top" xlink:title=" ">
<polygon fill="white" stroke="black" points="968,-0.5 968,-41.5 1144,-41.5 1144,-0.5 968,-0.5"/>
<text text-anchor="start" x="976" y="-29.5" font-family="Helvetica,sans-Serif" font-size="10.00">/home/jonathan/Works</text>
<text text-anchor="start" x="976" y="-18.5" font-family="Helvetica,sans-Serif" font-size="10.00">/Tools/Triton/src/libtriton</text>
<text text-anchor="middle" x="1056" y="-7.5" font-family="Helvetica,sans-Serif" font-size="10.00">/engines/lifters/liftingToLLVM.cpp</text>
</a>
</g>
</g>
<!-- Node11&#45;&gt;Node13 -->
<g id="edge12" class="edge">
<title>Node11&#45;&gt;Node13</title>
<path fill="none" stroke="midnightblue" d="M996.76,-76.86C1009.19,-65.35 1023.47,-52.13 1034.89,-41.55"/>
<polygon fill="midnightblue" stroke="midnightblue" points="994.26,-74.41 989.3,-83.77 999.02,-79.54 994.26,-74.41"/>
</g>
<!-- Node14&#45;&gt;Node6 -->
<g id="edge15" class="edge">
<title>Node14&#45;&gt;Node6</title>
<path fill="none" stroke="midnightblue" d="M638.28,-329.67C622.91,-321.25 607.2,-310.68 595,-298 570.02,-272.03 553.96,-232.48 545.99,-208.85"/>
<polygon fill="midnightblue" stroke="midnightblue" points="636.78,-332.83 647.27,-334.37 640.03,-326.63 636.78,-332.83"/>
</g>
<!-- Node15 -->
<g id="node15" class="node">
<title>Node15</title>
<g id="a_node15"><a xlink:href="solverEngine_8cpp.html" target="_top" xlink:title=" ">
<polygon fill="white" stroke="black" points="791.5,-251 791.5,-292 968.5,-292 968.5,-251 791.5,-251"/>
<text text-anchor="start" x="799.5" y="-280" font-family="Helvetica,sans-Serif" font-size="10.00">/home/jonathan/Works</text>
<text text-anchor="start" x="799.5" y="-269" font-family="Helvetica,sans-Serif" font-size="10.00">/Tools/Triton/src/libtriton</text>
<text text-anchor="middle" x="880" y="-258" font-family="Helvetica,sans-Serif" font-size="10.00">/engines/solver/solverEngine.cpp</text>
</a>
</g>
</g>
<!-- Node14&#45;&gt;Node15 -->
<g id="edge14" class="edge">
<title>Node14&#45;&gt;Node15</title>
<path fill="none" stroke="midnightblue" d="M749.53,-330.29C776.98,-318.13 810.01,-303.5 835.97,-292"/>
<polygon fill="midnightblue" stroke="midnightblue" points="747.8,-327.23 740.07,-334.48 750.63,-333.63 747.8,-327.23"/>
</g>
<!-- Node16 -->
<g id="node16" class="node">
<title>Node16</title>
<g id="a_node16"><a xlink:href="synthesizer_8hpp.html" target="_top" xlink:title=" ">
<polygon fill="white" stroke="black" points="604.5,-251 604.5,-292 773.5,-292 773.5,-251 604.5,-251"/>
<text text-anchor="start" x="612.5" y="-280" font-family="Helvetica,sans-Serif" font-size="10.00">/home/jonathan/Works</text>
<text text-anchor="start" x="612.5" y="-269" font-family="Helvetica,sans-Serif" font-size="10.00">/Tools/Triton/src/libtriton</text>
<text text-anchor="middle" x="689" y="-258" font-family="Helvetica,sans-Serif" font-size="10.00">/includes/triton/synthesizer.hpp</text>
</a>
</g>
</g>
<!-- Node14&#45;&gt;Node16 -->
<g id="edge16" class="edge">
<title>Node14&#45;&gt;Node16</title>
<path fill="none" stroke="midnightblue" d="M693.43,-324.06C692.51,-313.38 691.5,-301.63 690.68,-292.05"/>
<polygon fill="midnightblue" stroke="midnightblue" points="689.96,-324.61 694.31,-334.27 696.94,-324.01 689.96,-324.61"/>
</g>
<!-- Node16&#45;&gt;Node6 -->
<g id="edge18" class="edge">
<title>Node16&#45;&gt;Node6</title>
<path fill="none" stroke="midnightblue" d="M644.48,-246.15C622.49,-234.12 596.31,-219.8 575.66,-208.5"/>
<polygon fill="midnightblue" stroke="midnightblue" points="642.86,-249.25 653.31,-250.98 646.22,-243.11 642.86,-249.25"/>
</g>
<!-- Node17 -->
<g id="node17" class="node">
<title>Node17</title>
<g id="a_node17"><a xlink:href="synthesizer_8cpp.html" target="_top" xlink:title=" ">
<polygon fill="white" stroke="black" points="633,-167.5 633,-208.5 819,-208.5 819,-167.5 633,-167.5"/>
<text text-anchor="start" x="641" y="-196.5" font-family="Helvetica,sans-Serif" font-size="10.00">/home/jonathan/Works</text>
<text text-anchor="start" x="641" y="-185.5" font-family="Helvetica,sans-Serif" font-size="10.00">/Tools/Triton/src/libtriton</text>
<text text-anchor="middle" x="726" y="-174.5" font-family="Helvetica,sans-Serif" font-size="10.00">/engines/synthesis/synthesizer.cpp</text>
</a>
</g>
</g>
<!-- Node16&#45;&gt;Node17 -->
<g id="edge17" class="edge">
<title>Node16&#45;&gt;Node17</title>
<path fill="none" stroke="midnightblue" d="M702.14,-241.56C707.11,-230.62 712.64,-218.43 717.13,-208.55"/>
<polygon fill="midnightblue" stroke="midnightblue" points="698.9,-240.22 697.96,-250.77 705.28,-243.11 698.9,-240.22"/>
</g>
<!-- Node18&#45;&gt;Node4 -->
<g id="edge20" class="edge">
<title>Node18&#45;&gt;Node4</title>
<path fill="none" stroke="midnightblue" d="M549.22,-410.21C538.49,-398.86 526.28,-385.93 516.47,-375.55"/>
<polygon fill="midnightblue" stroke="midnightblue" points="546.95,-412.91 556.36,-417.77 552.04,-408.1 546.95,-412.91"/>
</g>
<!-- Node18&#45;&gt;Node14 -->
<g id="edge21" class="edge">
<title>Node18&#45;&gt;Node14</title>
<path fill="none" stroke="midnightblue" d="M612.32,-412.37C629.86,-400.55 650.46,-386.67 666.83,-375.64"/>
<polygon fill="midnightblue" stroke="midnightblue" points="610.32,-409.49 603.98,-417.98 614.23,-415.3 610.32,-409.49"/>
</g>
<!-- Node18&#45;&gt;Node19 -->
<g id="edge22" class="edge">
<title>Node18&#45;&gt;Node19</title>
<path fill="none" stroke="midnightblue" d="M657.82,-415.37C704.44,-402.91 762.11,-387.5 807.01,-375.5"/>
<polygon fill="midnightblue" stroke="midnightblue" points="656.81,-412.02 648.06,-417.98 658.62,-418.78 656.81,-412.02"/>
</g>
<!-- Node20 -->
<g id="node20" class="node">
<title>Node20</title>
<g id="a_node20"><a xlink:href="z3Solver_8cpp.html" target="_top" xlink:title=" ">
<polygon fill="white" stroke="black" points="987,-251 987,-292 1157,-292 1157,-251 987,-251"/>
<text text-anchor="start" x="995" y="-280" font-family="Helvetica,sans-Serif" font-size="10.00">/home/jonathan/Works</text>
<text text-anchor="start" x="995" y="-269" font-family="Helvetica,sans-Serif" font-size="10.00">/Tools/Triton/src/libtriton</text>
<text text-anchor="middle" x="1072" y="-258" font-family="Helvetica,sans-Serif" font-size="10.00">/engines/solver/z3/z3Solver.cpp</text>
</a>
</g>
</g>
<!-- Node19&#45;&gt;Node20 -->
<g id="edge23" class="edge">
<title>Node19&#45;&gt;Node20</title>
<path fill="none" stroke="midnightblue" d="M935.48,-330.45C964.2,-318.26 998.85,-303.55 1026.05,-292"/>
<polygon fill="midnightblue" stroke="midnightblue" points="933.83,-327.35 925.99,-334.48 936.56,-333.79 933.83,-327.35"/>
</g>
</g>
</svg>
