<?xml version="1.0" encoding="UTF-8" standalone="no"?>
<!DOCTYPE svg PUBLIC "-//W3C//DTD SVG 1.1//EN"
 "http://www.w3.org/Graphics/SVG/1.1/DTD/svg11.dtd">
<!-- Generated by graphviz version 2.50.0 (20211204.2007)
 -->
<!-- Title: /home/jonathan/Works/Tools/Triton/src/libtriton/includes/triton/solverModel.hpp Pages: 1 -->
<svg width="3037pt" height="629pt"
 viewBox="0.00 0.00 3036.50 629.00" xmlns="http://www.w3.org/2000/svg" xmlns:xlink="http://www.w3.org/1999/xlink">
<g id="graph0" class="graph" transform="scale(1 1) rotate(0) translate(4 625)">
<title>/home/jonathan/Works/Tools/Triton/src/libtriton/includes/triton/solverModel.hpp</title>
<polygon fill="white" stroke="transparent" points="-4,4 -4,-625 3032.5,-625 3032.5,4 -4,4"/>
<!-- Node1 -->
<g id="node1" class="node">
<title>Node1</title>
<g id="a_node1"><a xlink:title=" ">
<polygon fill="#bfbfbf" stroke="black" points="650,-579.5 650,-620.5 823,-620.5 823,-579.5 650,-579.5"/>
<text text-anchor="start" x="658" y="-608.5" font-family="Helvetica,sans-Serif" font-size="10.00">/home/jonathan/Works</text>
<text text-anchor="start" x="658" y="-597.5" font-family="Helvetica,sans-Serif" font-size="10.00">/Tools/Triton/src/libtriton</text>
<text text-anchor="middle" x="736.5" y="-586.5" font-family="Helvetica,sans-Serif" font-size="10.00">/includes/triton/solverModel.hpp</text>
</a>
</g>
</g>
<!-- Node2 -->
<g id="node2" class="node">
<title>Node2</title>
<g id="a_node2"><a xlink:href="pySolverModel_8cpp.html" target="_top" xlink:title=" ">
<polygon fill="white" stroke="black" points="802.5,-412.5 802.5,-464.5 938.5,-464.5 938.5,-412.5 802.5,-412.5"/>
<text text-anchor="start" x="810.5" y="-452.5" font-family="Helvetica,sans-Serif" font-size="10.00">/home/jonathan/Works</text>
<text text-anchor="start" x="810.5" y="-441.5" font-family="Helvetica,sans-Serif" font-size="10.00">/Tools/Triton/src/libtriton</text>
<text text-anchor="start" x="810.5" y="-430.5" font-family="Helvetica,sans-Serif" font-size="10.00">/bindings/python/objects</text>
<text text-anchor="middle" x="870.5" y="-419.5" font-family="Helvetica,sans-Serif" font-size="10.00">/pySolverModel.cpp</text>
</a>
</g>
</g>
<!-- Node1&#45;&gt;Node2 -->
<g id="edge1" class="edge">
<title>Node1&#45;&gt;Node2</title>
<path fill="none" stroke="midnightblue" d="M762.3,-572.07C770.8,-562.98 780.2,-552.68 788.5,-543 810.89,-516.9 835.2,-485.86 851.48,-464.62"/>
<polygon fill="midnightblue" stroke="midnightblue" points="759.72,-569.71 755.42,-579.39 764.82,-574.5 759.72,-569.71"/>
</g>
<!-- Node3 -->
<g id="node3" class="node">
<title>Node3</title>
<g id="a_node3"><a xlink:href="bitwuzlaSolver_8cpp.html" target="_top" xlink:title=" ">
<polygon fill="white" stroke="black" points="536,-323.5 536,-375.5 671,-375.5 671,-323.5 536,-323.5"/>
<text text-anchor="start" x="544" y="-363.5" font-family="Helvetica,sans-Serif" font-size="10.00">/home/jonathan/Works</text>
<text text-anchor="start" x="544" y="-352.5" font-family="Helvetica,sans-Serif" font-size="10.00">/Tools/Triton/src/libtriton</text>
<text text-anchor="start" x="544" y="-341.5" font-family="Helvetica,sans-Serif" font-size="10.00">/engines/solver/bitwuzla</text>
<text text-anchor="middle" x="603.5" y="-330.5" font-family="Helvetica,sans-Serif" font-size="10.00">/bitwuzlaSolver.cpp</text>
</a>
</g>
</g>
<!-- Node1&#45;&gt;Node3 -->
<g id="edge2" class="edge">
<title>Node1&#45;&gt;Node3</title>
<path fill="none" stroke="midnightblue" d="M741.49,-569.23C746.43,-529.77 749.28,-459.61 717.5,-412 706.32,-395.26 689.03,-382.71 671.26,-373.46"/>
<polygon fill="midnightblue" stroke="midnightblue" points="738,-568.88 740.1,-579.27 744.93,-569.84 738,-568.88"/>
</g>
<!-- Node4 -->
<g id="node4" class="node">
<title>Node4</title>
<g id="a_node4"><a xlink:href="solverModel_8cpp.html" target="_top" xlink:title=" ">
<polygon fill="white" stroke="black" points="1911.5,-501.5 1911.5,-542.5 2085.5,-542.5 2085.5,-501.5 1911.5,-501.5"/>
<text text-anchor="start" x="1919.5" y="-530.5" font-family="Helvetica,sans-Serif" font-size="10.00">/home/jonathan/Works</text>
<text text-anchor="start" x="1919.5" y="-519.5" font-family="Helvetica,sans-Serif" font-size="10.00">/Tools/Triton/src/libtriton</text>
<text text-anchor="middle" x="1998.5" y="-508.5" font-family="Helvetica,sans-Serif" font-size="10.00">/engines/solver/solverModel.cpp</text>
</a>
</g>
</g>
<!-- Node1&#45;&gt;Node4 -->
<g id="edge3" class="edge">
<title>Node1&#45;&gt;Node4</title>
<path fill="none" stroke="midnightblue" d="M833.41,-599.48C1033.87,-599.36 1508.28,-593.21 1902.5,-543 1905.46,-542.62 1908.46,-542.21 1911.48,-541.75"/>
<polygon fill="midnightblue" stroke="midnightblue" points="833.21,-595.98 823.21,-599.49 833.21,-602.98 833.21,-595.98"/>
</g>
<!-- Node5 -->
<g id="node5" class="node">
<title>Node5</title>
<g id="a_node5"><a xlink:href="z3Solver_8cpp.html" target="_top" xlink:title=" ">
<polygon fill="white" stroke="black" points="689.5,-329 689.5,-370 859.5,-370 859.5,-329 689.5,-329"/>
<text text-anchor="start" x="697.5" y="-358" font-family="Helvetica,sans-Serif" font-size="10.00">/home/jonathan/Works</text>
<text text-anchor="start" x="697.5" y="-347" font-family="Helvetica,sans-Serif" font-size="10.00">/Tools/Triton/src/libtriton</text>
<text text-anchor="middle" x="774.5" y="-336" font-family="Helvetica,sans-Serif" font-size="10.00">/engines/solver/z3/z3Solver.cpp</text>
</a>
</g>
</g>
<!-- Node1&#45;&gt;Node5 -->
<g id="edge4" class="edge">
<title>Node1&#45;&gt;Node5</title>
<path fill="none" stroke="midnightblue" d="M744.57,-569.55C746.71,-561.03 748.88,-551.68 750.5,-543 762.21,-480.26 769.73,-404.93 772.85,-370.02"/>
<polygon fill="midnightblue" stroke="midnightblue" points="741.13,-568.87 742.01,-579.43 747.91,-570.63 741.13,-568.87"/>
</g>
<!-- Node6 -->
<g id="node6" class="node">
<title>Node6</title>
<g id="a_node6"><a xlink:href="bitwuzlaSolver_8hpp.html" target="_top" xlink:title=" ">
<polygon fill="white" stroke="black" points="350,-418 350,-459 535,-459 535,-418 350,-418"/>
<text text-anchor="start" x="358" y="-447" font-family="Helvetica,sans-Serif" font-size="10.00">/home/jonathan/Works</text>
<text text-anchor="start" x="358" y="-436" font-family="Helvetica,sans-Serif" font-size="10.00">/Tools/Triton/src/libtriton</text>
<text text-anchor="middle" x="442.5" y="-425" font-family="Helvetica,sans-Serif" font-size="10.00">/includes/triton/bitwuzlaSolver.hpp</text>
</a>
</g>
</g>
<!-- Node1&#45;&gt;Node6 -->
<g id="edge5" class="edge">
<title>Node1&#45;&gt;Node6</title>
<path fill="none" stroke="midnightblue" d="M696.04,-574.27C662.31,-553.92 612.78,-524.68 568.5,-501 540.92,-486.25 509.28,-470.81 484.61,-459.09"/>
<polygon fill="midnightblue" stroke="midnightblue" points="694.32,-577.32 704.69,-579.5 697.95,-571.33 694.32,-577.32"/>
</g>
<!-- Node7 -->
<g id="node7" class="node">
<title>Node7</title>
<g id="a_node7"><a xlink:href="solverEngine_8hpp.html" target="_top" xlink:title=" ">
<polygon fill="white" stroke="black" points="341.5,-329 341.5,-370 517.5,-370 517.5,-329 341.5,-329"/>
<text text-anchor="start" x="349.5" y="-358" font-family="Helvetica,sans-Serif" font-size="10.00">/home/jonathan/Works</text>
<text text-anchor="start" x="349.5" y="-347" font-family="Helvetica,sans-Serif" font-size="10.00">/Tools/Triton/src/libtriton</text>
<text text-anchor="middle" x="429.5" y="-336" font-family="Helvetica,sans-Serif" font-size="10.00">/includes/triton/solverEngine.hpp</text>
</a>
</g>
</g>
<!-- Node1&#45;&gt;Node7 -->
<g id="edge36" class="edge">
<title>Node1&#45;&gt;Node7</title>
<path fill="none" stroke="midnightblue" d="M639.68,-594.86C543.93,-588.97 405.76,-575.06 363.5,-543 315.49,-506.58 298.98,-464.54 328.5,-412 338.96,-393.39 357.59,-379.75 376.02,-370.11"/>
<polygon fill="midnightblue" stroke="midnightblue" points="639.49,-598.36 649.68,-595.46 639.91,-591.37 639.49,-598.36"/>
</g>
<!-- Node19 -->
<g id="node19" class="node">
<title>Node19</title>
<g id="a_node19"><a xlink:href="pythonObjects_8hpp.html" target="_top" xlink:title=" ">
<polygon fill="white" stroke="black" points="1709.5,-501.5 1709.5,-542.5 1893.5,-542.5 1893.5,-501.5 1709.5,-501.5"/>
<text text-anchor="start" x="1717.5" y="-530.5" font-family="Helvetica,sans-Serif" font-size="10.00">/home/jonathan/Works</text>
<text text-anchor="start" x="1717.5" y="-519.5" font-family="Helvetica,sans-Serif" font-size="10.00">/Tools/Triton/src/libtriton</text>
<text text-anchor="middle" x="1801.5" y="-508.5" font-family="Helvetica,sans-Serif" font-size="10.00">/includes/triton/pythonObjects.hpp</text>
</a>
</g>
</g>
<!-- Node1&#45;&gt;Node19 -->
<g id="edge20" class="edge">
<title>Node1&#45;&gt;Node19</title>
<path fill="none" stroke="midnightblue" d="M833.3,-592.09C1037.36,-577.53 1509.27,-543.85 1709.26,-529.58"/>
<polygon fill="midnightblue" stroke="midnightblue" points="832.93,-588.61 823.2,-592.81 833.43,-595.59 832.93,-588.61"/>
</g>
<!-- Node33 -->
<g id="node33" class="node">
<title>Node33</title>
<g id="a_node33"><a xlink:href="solverInterface_8hpp.html" target="_top" xlink:title=" ">
<polygon fill="white" stroke="black" points="373,-501.5 373,-542.5 560,-542.5 560,-501.5 373,-501.5"/>
<text text-anchor="start" x="381" y="-530.5" font-family="Helvetica,sans-Serif" font-size="10.00">/home/jonathan/Works</text>
<text text-anchor="start" x="381" y="-519.5" font-family="Helvetica,sans-Serif" font-size="10.00">/Tools/Triton/src/libtriton</text>
<text text-anchor="middle" x="466.5" y="-508.5" font-family="Helvetica,sans-Serif" font-size="10.00">/includes/triton/solverInterface.hpp</text>
</a>
</g>
</g>
<!-- Node1&#45;&gt;Node33 -->
<g id="edge37" class="edge">
<title>Node1&#45;&gt;Node33</title>
<path fill="none" stroke="midnightblue" d="M657.34,-576.72C618.81,-565.87 572.92,-552.96 535.8,-542.51"/>
<polygon fill="midnightblue" stroke="midnightblue" points="656.39,-580.09 666.97,-579.43 658.29,-573.35 656.39,-580.09"/>
</g>
<!-- Node34 -->
<g id="node34" class="node">
<title>Node34</title>
<g id="a_node34"><a xlink:href="z3Solver_8hpp.html" target="_top" xlink:title=" ">
<polygon fill="white" stroke="black" points="553,-418 553,-459 708,-459 708,-418 553,-418"/>
<text text-anchor="start" x="561" y="-447" font-family="Helvetica,sans-Serif" font-size="10.00">/home/jonathan/Works</text>
<text text-anchor="start" x="561" y="-436" font-family="Helvetica,sans-Serif" font-size="10.00">/Tools/Triton/src/libtriton</text>
<text text-anchor="middle" x="630.5" y="-425" font-family="Helvetica,sans-Serif" font-size="10.00">/includes/triton/z3Solver.hpp</text>
</a>
</g>
</g>
<!-- Node1&#45;&gt;Node34 -->
<g id="edge43" class="edge">
<title>Node1&#45;&gt;Node34</title>
<path fill="none" stroke="midnightblue" d="M717.86,-570.96C696.57,-538.91 662.26,-487.29 643.6,-459.22"/>
<polygon fill="midnightblue" stroke="midnightblue" points="715.05,-573.05 723.5,-579.44 720.88,-569.18 715.05,-573.05"/>
</g>
<!-- Node6&#45;&gt;Node3 -->
<g id="edge6" class="edge">
<title>Node6&#45;&gt;Node3</title>
<path fill="none" stroke="midnightblue" d="M487.63,-413.11C509.3,-401.4 535.24,-387.38 557.08,-375.58"/>
<polygon fill="midnightblue" stroke="midnightblue" points="485.77,-410.14 478.63,-417.98 489.09,-416.3 485.77,-410.14"/>
</g>
<!-- Node6&#45;&gt;Node7 -->
<g id="edge7" class="edge">
<title>Node6&#45;&gt;Node7</title>
<path fill="none" stroke="midnightblue" d="M438.06,-407.81C436.21,-395.38 434.1,-381.27 432.44,-370.16"/>
<polygon fill="midnightblue" stroke="midnightblue" points="434.61,-408.39 439.55,-417.76 441.53,-407.35 434.61,-408.39"/>
</g>
<!-- Node8 -->
<g id="node8" class="node">
<title>Node8</title>
<g id="a_node8"><a xlink:href="solverEngine_8cpp.html" target="_top" xlink:title=" ">
<polygon fill="white" stroke="black" points="588,-245.5 588,-286.5 765,-286.5 765,-245.5 588,-245.5"/>
<text text-anchor="start" x="596" y="-274.5" font-family="Helvetica,sans-Serif" font-size="10.00">/home/jonathan/Works</text>
<text text-anchor="start" x="596" y="-263.5" font-family="Helvetica,sans-Serif" font-size="10.00">/Tools/Triton/src/libtriton</text>
<text text-anchor="middle" x="676.5" y="-252.5" font-family="Helvetica,sans-Serif" font-size="10.00">/engines/solver/solverEngine.cpp</text>
</a>
</g>
</g>
<!-- Node7&#45;&gt;Node8 -->
<g id="edge8" class="edge">
<title>Node7&#45;&gt;Node8</title>
<path fill="none" stroke="midnightblue" d="M498.48,-325.74C535.88,-313.4 581.64,-298.3 617.39,-286.5"/>
<polygon fill="midnightblue" stroke="midnightblue" points="497.06,-322.52 488.66,-328.98 499.26,-329.17 497.06,-322.52"/>
</g>
<!-- Node9 -->
<g id="node9" class="node">
<title>Node9</title>
<g id="a_node9"><a xlink:href="context_8hpp.html" target="_top" xlink:title=" ">
<polygon fill="white" stroke="black" points="354.5,-167.5 354.5,-208.5 504.5,-208.5 504.5,-167.5 354.5,-167.5"/>
<text text-anchor="start" x="362.5" y="-196.5" font-family="Helvetica,sans-Serif" font-size="10.00">/home/jonathan/Works</text>
<text text-anchor="start" x="362.5" y="-185.5" font-family="Helvetica,sans-Serif" font-size="10.00">/Tools/Triton/src/libtriton</text>
<text text-anchor="middle" x="429.5" y="-174.5" font-family="Helvetica,sans-Serif" font-size="10.00">/includes/triton/context.hpp</text>
</a>
</g>
</g>
<!-- Node7&#45;&gt;Node9 -->
<g id="edge9" class="edge">
<title>Node7&#45;&gt;Node9</title>
<path fill="none" stroke="midnightblue" d="M407.67,-320.49C401.15,-310.49 394.84,-298.77 391.5,-287 386.4,-269.04 386.02,-262.84 391.5,-245 395.57,-231.75 403.96,-218.81 411.83,-208.72"/>
<polygon fill="midnightblue" stroke="midnightblue" points="404.84,-322.55 413.4,-328.8 410.61,-318.58 404.84,-322.55"/>
</g>
<!-- Node17 -->
<g id="node17" class="node">
<title>Node17</title>
<g id="a_node17"><a xlink:href="synthesizer_8hpp.html" target="_top" xlink:title=" ">
<polygon fill="white" stroke="black" points="401,-245.5 401,-286.5 570,-286.5 570,-245.5 401,-245.5"/>
<text text-anchor="start" x="409" y="-274.5" font-family="Helvetica,sans-Serif" font-size="10.00">/home/jonathan/Works</text>
<text text-anchor="start" x="409" y="-263.5" font-family="Helvetica,sans-Serif" font-size="10.00">/Tools/Triton/src/libtriton</text>
<text text-anchor="middle" x="485.5" y="-252.5" font-family="Helvetica,sans-Serif" font-size="10.00">/includes/triton/synthesizer.hpp</text>
</a>
</g>
</g>
<!-- Node7&#45;&gt;Node17 -->
<g id="edge17" class="edge">
<title>Node7&#45;&gt;Node17</title>
<path fill="none" stroke="midnightblue" d="M448.93,-320.22C456.56,-309.11 465.14,-296.63 472.07,-286.55"/>
<polygon fill="midnightblue" stroke="midnightblue" points="445.83,-318.55 443.06,-328.77 451.6,-322.51 445.83,-318.55"/>
</g>
<!-- Node10 -->
<g id="node10" class="node">
<title>Node10</title>
<g id="a_node10"><a xlink:href="pyTritonContext_8cpp.html" target="_top" xlink:title=" ">
<polygon fill="white" stroke="black" points="1372.5,-78.5 1372.5,-130.5 1508.5,-130.5 1508.5,-78.5 1372.5,-78.5"/>
<text text-anchor="start" x="1380.5" y="-118.5" font-family="Helvetica,sans-Serif" font-size="10.00">/home/jonathan/Works</text>
<text text-anchor="start" x="1380.5" y="-107.5" font-family="Helvetica,sans-Serif" font-size="10.00">/Tools/Triton/src/libtriton</text>
<text text-anchor="start" x="1380.5" y="-96.5" font-family="Helvetica,sans-Serif" font-size="10.00">/bindings/python/objects</text>
<text text-anchor="middle" x="1440.5" y="-85.5" font-family="Helvetica,sans-Serif" font-size="10.00">/pyTritonContext.cpp</text>
</a>
</g>
</g>
<!-- Node9&#45;&gt;Node10 -->
<g id="edge10" class="edge">
<title>Node9&#45;&gt;Node10</title>
<path fill="none" stroke="midnightblue" d="M515.03,-166.9C840.15,-118.61 1219.94,-108.36 1372.33,-106.13"/>
<polygon fill="midnightblue" stroke="midnightblue" points="514.31,-163.46 504.94,-168.41 515.35,-170.39 514.31,-163.46"/>
</g>
<!-- Node11 -->
<g id="node11" class="node">
<title>Node11</title>
<g id="a_node11"><a xlink:href="callbacks_8cpp.html" target="_top" xlink:title=" ">
<polygon fill="white" stroke="black" points="448.5,-84 448.5,-125 582.5,-125 582.5,-84 448.5,-84"/>
<text text-anchor="start" x="456.5" y="-113" font-family="Helvetica,sans-Serif" font-size="10.00">/home/jonathan/Works</text>
<text text-anchor="start" x="456.5" y="-102" font-family="Helvetica,sans-Serif" font-size="10.00">/Tools/Triton/src/libtriton</text>
<text text-anchor="middle" x="515.5" y="-91" font-family="Helvetica,sans-Serif" font-size="10.00">/callbacks/callbacks.cpp</text>
</a>
</g>
</g>
<!-- Node9&#45;&gt;Node11 -->
<g id="edge11" class="edge">
<title>Node9&#45;&gt;Node11</title>
<path fill="none" stroke="midnightblue" d="M457.61,-160.36C469.75,-148.85 483.71,-135.63 494.87,-125.05"/>
<polygon fill="midnightblue" stroke="midnightblue" points="455.17,-157.85 450.32,-167.27 459.98,-162.93 455.17,-157.85"/>
</g>
<!-- Node12 -->
<g id="node12" class="node">
<title>Node12</title>
<g id="a_node12"><a xlink:href="context_8cpp.html" target="_top" xlink:title=" ">
<polygon fill="white" stroke="black" points="601,-84 601,-125 734,-125 734,-84 601,-84"/>
<text text-anchor="start" x="609" y="-113" font-family="Helvetica,sans-Serif" font-size="10.00">/home/jonathan/Works</text>
<text text-anchor="start" x="609" y="-102" font-family="Helvetica,sans-Serif" font-size="10.00">/Tools/Triton/src/libtriton</text>
<text text-anchor="middle" x="667.5" y="-91" font-family="Helvetica,sans-Serif" font-size="10.00">/context/context.cpp</text>
</a>
</g>
</g>
<!-- Node9&#45;&gt;Node12 -->
<g id="edge12" class="edge">
<title>Node9&#45;&gt;Node12</title>
<path fill="none" stroke="midnightblue" d="M496.42,-164.08C532.38,-151.77 576.24,-136.75 610.55,-125"/>
<polygon fill="midnightblue" stroke="midnightblue" points="494.83,-160.93 486.51,-167.48 497.1,-167.55 494.83,-160.93"/>
</g>
<!-- Node13 -->
<g id="node13" class="node">
<title>Node13</title>
<g id="a_node13"><a xlink:href="symbolicSimplification_8cpp.html" target="_top" xlink:title=" ">
<polygon fill="white" stroke="black" points="0,-84 0,-125 239,-125 239,-84 0,-84"/>
<text text-anchor="start" x="8" y="-113" font-family="Helvetica,sans-Serif" font-size="10.00">/home/jonathan/Works</text>
<text text-anchor="start" x="8" y="-102" font-family="Helvetica,sans-Serif" font-size="10.00">/Tools/Triton/src/libtriton</text>
<text text-anchor="middle" x="119.5" y="-91" font-family="Helvetica,sans-Serif" font-size="10.00">/engines/symbolic/symbolicSimplification.cpp</text>
</a>
</g>
</g>
<!-- Node9&#45;&gt;Node13 -->
<g id="edge13" class="edge">
<title>Node9&#45;&gt;Node13</title>
<path fill="none" stroke="midnightblue" d="M345.32,-164.87C297.94,-152.41 239.32,-137 193.68,-125"/>
<polygon fill="midnightblue" stroke="midnightblue" points="344.69,-168.32 355.25,-167.48 346.47,-161.55 344.69,-168.32"/>
</g>
<!-- Node14 -->
<g id="node14" class="node">
<title>Node14</title>
<g id="a_node14"><a xlink:href="llvmToTriton_8hpp.html" target="_top" xlink:title=" ">
<polygon fill="white" stroke="black" points="257,-84 257,-125 430,-125 430,-84 257,-84"/>
<text text-anchor="start" x="265" y="-113" font-family="Helvetica,sans-Serif" font-size="10.00">/home/jonathan/Works</text>
<text text-anchor="start" x="265" y="-102" font-family="Helvetica,sans-Serif" font-size="10.00">/Tools/Triton/src/libtriton</text>
<text text-anchor="middle" x="343.5" y="-91" font-family="Helvetica,sans-Serif" font-size="10.00">/includes/triton/llvmToTriton.hpp</text>
</a>
</g>
</g>
<!-- Node9&#45;&gt;Node14 -->
<g id="edge14" class="edge">
<title>Node9&#45;&gt;Node14</title>
<path fill="none" stroke="midnightblue" d="M401.39,-160.36C389.25,-148.85 375.29,-135.63 364.13,-125.05"/>
<polygon fill="midnightblue" stroke="midnightblue" points="399.02,-162.93 408.68,-167.27 403.83,-157.85 399.02,-162.93"/>
</g>
<!-- Node15 -->
<g id="node15" class="node">
<title>Node15</title>
<g id="a_node15"><a xlink:href="llvmToTriton_8cpp.html" target="_top" xlink:title=" ">
<polygon fill="white" stroke="black" points="183.5,-0.5 183.5,-41.5 325.5,-41.5 325.5,-0.5 183.5,-0.5"/>
<text text-anchor="start" x="191.5" y="-29.5" font-family="Helvetica,sans-Serif" font-size="10.00">/home/jonathan/Works</text>
<text text-anchor="start" x="191.5" y="-18.5" font-family="Helvetica,sans-Serif" font-size="10.00">/Tools/Triton/src/libtriton</text>
<text text-anchor="middle" x="254.5" y="-7.5" font-family="Helvetica,sans-Serif" font-size="10.00">/ast/llvm/llvmToTriton.cpp</text>
</a>
</g>
</g>
<!-- Node14&#45;&gt;Node15 -->
<g id="edge15" class="edge">
<title>Node14&#45;&gt;Node15</title>
<path fill="none" stroke="midnightblue" d="M314.41,-76.86C301.84,-65.35 287.4,-52.13 275.85,-41.55"/>
<polygon fill="midnightblue" stroke="midnightblue" points="312.22,-79.6 321.96,-83.77 316.94,-74.44 312.22,-79.6"/>
</g>
<!-- Node16 -->
<g id="node16" class="node">
<title>Node16</title>
<g id="a_node16"><a xlink:href="liftingToLLVM_8cpp.html" target="_top" xlink:title=" ">
<polygon fill="white" stroke="black" points="343.5,-0.5 343.5,-41.5 519.5,-41.5 519.5,-0.5 343.5,-0.5"/>
<text text-anchor="start" x="351.5" y="-29.5" font-family="Helvetica,sans-Serif" font-size="10.00">/home/jonathan/Works</text>
<text text-anchor="start" x="351.5" y="-18.5" font-family="Helvetica,sans-Serif" font-size="10.00">/Tools/Triton/src/libtriton</text>
<text text-anchor="middle" x="431.5" y="-7.5" font-family="Helvetica,sans-Serif" font-size="10.00">/engines/lifters/liftingToLLVM.cpp</text>
</a>
</g>
</g>
<!-- Node14&#45;&gt;Node16 -->
<g id="edge16" class="edge">
<title>Node14&#45;&gt;Node16</title>
<path fill="none" stroke="midnightblue" d="M372.26,-76.86C384.69,-65.35 398.97,-52.13 410.39,-41.55"/>
<polygon fill="midnightblue" stroke="midnightblue" points="369.76,-74.41 364.8,-83.77 374.52,-79.54 369.76,-74.41"/>
</g>
<!-- Node17&#45;&gt;Node9 -->
<g id="edge19" class="edge">
<title>Node17&#45;&gt;Node9</title>
<path fill="none" stroke="midnightblue" d="M465.12,-237.34C458.07,-227.78 450.33,-217.27 443.87,-208.51"/>
<polygon fill="midnightblue" stroke="midnightblue" points="462.33,-239.45 471.08,-245.43 467.96,-235.3 462.33,-239.45"/>
</g>
<!-- Node18 -->
<g id="node18" class="node">
<title>Node18</title>
<g id="a_node18"><a xlink:href="synthesizer_8cpp.html" target="_top" xlink:title=" ">
<polygon fill="white" stroke="black" points="522.5,-167.5 522.5,-208.5 708.5,-208.5 708.5,-167.5 522.5,-167.5"/>
<text text-anchor="start" x="530.5" y="-196.5" font-family="Helvetica,sans-Serif" font-size="10.00">/home/jonathan/Works</text>
<text text-anchor="start" x="530.5" y="-185.5" font-family="Helvetica,sans-Serif" font-size="10.00">/Tools/Triton/src/libtriton</text>
<text text-anchor="middle" x="615.5" y="-174.5" font-family="Helvetica,sans-Serif" font-size="10.00">/engines/synthesis/synthesizer.cpp</text>
</a>
</g>
</g>
<!-- Node17&#45;&gt;Node18 -->
<g id="edge18" class="edge">
<title>Node17&#45;&gt;Node18</title>
<path fill="none" stroke="midnightblue" d="M527.92,-240.2C545.51,-229.92 565.62,-218.16 582.14,-208.51"/>
<polygon fill="midnightblue" stroke="midnightblue" points="525.84,-237.36 518.98,-245.43 529.38,-243.4 525.84,-237.36"/>
</g>
<!-- Node19&#45;&gt;Node2 -->
<g id="edge32" class="edge">
<title>Node19&#45;&gt;Node2</title>
<path fill="none" stroke="midnightblue" d="M1698.99,-517.54C1504.46,-510.44 1088.62,-492.53 947.5,-465 944.6,-464.43 941.65,-463.79 938.69,-463.08"/>
<polygon fill="midnightblue" stroke="midnightblue" points="1699.1,-521.05 1709.22,-517.91 1699.35,-514.05 1699.1,-521.05"/>
</g>
<!-- Node19&#45;&gt;Node10 -->
<g id="edge35" class="edge">
<title>Node19&#45;&gt;Node10</title>
<path fill="none" stroke="midnightblue" d="M1903.77,-499.81C1966.76,-486.32 2036.44,-470.4 2041.5,-465 2076.78,-427.36 2060.5,-402.08 2060.5,-350.5 2060.5,-350.5 2060.5,-350.5 2060.5,-265 2060.5,-152.05 1669.68,-117.91 1508.62,-108.64"/>
<polygon fill="midnightblue" stroke="midnightblue" points="1902.78,-496.44 1893.73,-501.95 1904.24,-503.29 1902.78,-496.44"/>
</g>
<!-- Node20 -->
<g id="node20" class="node">
<title>Node20</title>
<g id="a_node20"><a xlink:href="tritonCallbacks_8cpp.html" target="_top" xlink:title=" ">
<polygon fill="white" stroke="black" points="2089,-412.5 2089,-464.5 2232,-464.5 2232,-412.5 2089,-412.5"/>
<text text-anchor="start" x="2097" y="-452.5" font-family="Helvetica,sans-Serif" font-size="10.00">/home/jonathan/Works</text>
<text text-anchor="start" x="2097" y="-441.5" font-family="Helvetica,sans-Serif" font-size="10.00">/Tools/Triton/src/libtriton</text>
<text text-anchor="start" x="2097" y="-430.5" font-family="Helvetica,sans-Serif" font-size="10.00">/bindings/python/modules</text>
<text text-anchor="middle" x="2160.5" y="-419.5" font-family="Helvetica,sans-Serif" font-size="10.00">/tritonCallbacks.cpp</text>
</a>
</g>
</g>
<!-- Node19&#45;&gt;Node20 -->
<g id="edge21" class="edge">
<title>Node19&#45;&gt;Node20</title>
<path fill="none" stroke="midnightblue" d="M1903.57,-500.5C1973.92,-486.3 2057.66,-469.21 2074.5,-465 2079.18,-463.83 2083.99,-462.57 2088.83,-461.25"/>
<polygon fill="midnightblue" stroke="midnightblue" points="1902.85,-497.08 1893.74,-502.49 1904.24,-503.94 1902.85,-497.08"/>
</g>
<!-- Node21 -->
<g id="node21" class="node">
<title>Node21</title>
<g id="a_node21"><a xlink:href="initRegNamespace_8cpp.html" target="_top" xlink:title=" ">
<polygon fill="white" stroke="black" points="2250.5,-412.5 2250.5,-464.5 2412.5,-464.5 2412.5,-412.5 2250.5,-412.5"/>
<text text-anchor="start" x="2258.5" y="-452.5" font-family="Helvetica,sans-Serif" font-size="10.00">/home/jonathan/Works</text>
<text text-anchor="start" x="2258.5" y="-441.5" font-family="Helvetica,sans-Serif" font-size="10.00">/Tools/Triton/src/libtriton</text>
<text text-anchor="start" x="2258.5" y="-430.5" font-family="Helvetica,sans-Serif" font-size="10.00">/bindings/python/namespaces</text>
<text text-anchor="middle" x="2331.5" y="-419.5" font-family="Helvetica,sans-Serif" font-size="10.00">/initRegNamespace.cpp</text>
</a>
</g>
</g>
<!-- Node19&#45;&gt;Node21 -->
<g id="edge22" class="edge">
<title>Node19&#45;&gt;Node21</title>
<path fill="none" stroke="midnightblue" d="M1903.7,-500.9C2054.09,-478.91 2095.94,-493.14 2241.5,-465 2244.37,-464.45 2247.28,-463.84 2250.21,-463.2"/>
<polygon fill="midnightblue" stroke="midnightblue" points="1903.01,-497.46 1893.64,-502.4 1904.05,-504.39 1903.01,-497.46"/>
</g>
<!-- Node22 -->
<g id="node22" class="node">
<title>Node22</title>
<g id="a_node22"><a xlink:href="pyAstContext_8cpp.html" target="_top" xlink:title=" ">
<polygon fill="white" stroke="black" points="2430.5,-412.5 2430.5,-464.5 2566.5,-464.5 2566.5,-412.5 2430.5,-412.5"/>
<text text-anchor="start" x="2438.5" y="-452.5" font-family="Helvetica,sans-Serif" font-size="10.00">/home/jonathan/Works</text>
<text text-anchor="start" x="2438.5" y="-441.5" font-family="Helvetica,sans-Serif" font-size="10.00">/Tools/Triton/src/libtriton</text>
<text text-anchor="start" x="2438.5" y="-430.5" font-family="Helvetica,sans-Serif" font-size="10.00">/bindings/python/objects</text>
<text text-anchor="middle" x="2498.5" y="-419.5" font-family="Helvetica,sans-Serif" font-size="10.00">/pyAstContext.cpp</text>
</a>
</g>
</g>
<!-- Node19&#45;&gt;Node22 -->
<g id="edge23" class="edge">
<title>Node19&#45;&gt;Node22</title>
<path fill="none" stroke="midnightblue" d="M1903.63,-500.95C2133.51,-471.58 2197.85,-509.06 2421.5,-465 2424.4,-464.43 2427.35,-463.78 2430.3,-463.07"/>
<polygon fill="midnightblue" stroke="midnightblue" points="1903.08,-497.49 1893.62,-502.26 1903.99,-504.44 1903.08,-497.49"/>
</g>
<!-- Node23 -->
<g id="node23" class="node">
<title>Node23</title>
<g id="a_node23"><a xlink:href="pyAstNode_8cpp.html" target="_top" xlink:title=" ">
<polygon fill="white" stroke="black" points="2584.5,-412.5 2584.5,-464.5 2720.5,-464.5 2720.5,-412.5 2584.5,-412.5"/>
<text text-anchor="start" x="2592.5" y="-452.5" font-family="Helvetica,sans-Serif" font-size="10.00">/home/jonathan/Works</text>
<text text-anchor="start" x="2592.5" y="-441.5" font-family="Helvetica,sans-Serif" font-size="10.00">/Tools/Triton/src/libtriton</text>
<text text-anchor="start" x="2592.5" y="-430.5" font-family="Helvetica,sans-Serif" font-size="10.00">/bindings/python/objects</text>
<text text-anchor="middle" x="2652.5" y="-419.5" font-family="Helvetica,sans-Serif" font-size="10.00">/pyAstNode.cpp</text>
</a>
</g>
</g>
<!-- Node19&#45;&gt;Node23 -->
<g id="edge24" class="edge">
<title>Node19&#45;&gt;Node23</title>
<path fill="none" stroke="midnightblue" d="M1903.84,-500.94C2201.58,-465.07 2284.47,-519.95 2575.5,-465 2578.41,-464.45 2581.35,-463.82 2584.32,-463.13"/>
<polygon fill="midnightblue" stroke="midnightblue" points="1903.11,-497.51 1893.61,-502.2 1903.96,-504.45 1903.11,-497.51"/>
</g>
<!-- Node24 -->
<g id="node24" class="node">
<title>Node24</title>
<g id="a_node24"><a xlink:href="pyBasicBlock_8cpp.html" target="_top" xlink:title=" ">
<polygon fill="white" stroke="black" points="2738.5,-412.5 2738.5,-464.5 2874.5,-464.5 2874.5,-412.5 2738.5,-412.5"/>
<text text-anchor="start" x="2746.5" y="-452.5" font-family="Helvetica,sans-Serif" font-size="10.00">/home/jonathan/Works</text>
<text text-anchor="start" x="2746.5" y="-441.5" font-family="Helvetica,sans-Serif" font-size="10.00">/Tools/Triton/src/libtriton</text>
<text text-anchor="start" x="2746.5" y="-430.5" font-family="Helvetica,sans-Serif" font-size="10.00">/bindings/python/objects</text>
<text text-anchor="middle" x="2806.5" y="-419.5" font-family="Helvetica,sans-Serif" font-size="10.00">/pyBasicBlock.cpp</text>
</a>
</g>
</g>
<!-- Node19&#45;&gt;Node24 -->
<g id="edge25" class="edge">
<title>Node19&#45;&gt;Node24</title>
<path fill="none" stroke="midnightblue" d="M1903.68,-500.97C2269.61,-458.47 2370.92,-530.86 2729.5,-465 2732.41,-464.47 2735.36,-463.85 2738.32,-463.16"/>
<polygon fill="midnightblue" stroke="midnightblue" points="1903.13,-497.51 1893.61,-502.16 1903.95,-504.46 1903.13,-497.51"/>
</g>
<!-- Node25 -->
<g id="node25" class="node">
<title>Node25</title>
<g id="a_node25"><a xlink:href="pyBitsVector_8cpp.html" target="_top" xlink:title=" ">
<polygon fill="white" stroke="black" points="2892.5,-412.5 2892.5,-464.5 3028.5,-464.5 3028.5,-412.5 2892.5,-412.5"/>
<text text-anchor="start" x="2900.5" y="-452.5" font-family="Helvetica,sans-Serif" font-size="10.00">/home/jonathan/Works</text>
<text text-anchor="start" x="2900.5" y="-441.5" font-family="Helvetica,sans-Serif" font-size="10.00">/Tools/Triton/src/libtriton</text>
<text text-anchor="start" x="2900.5" y="-430.5" font-family="Helvetica,sans-Serif" font-size="10.00">/bindings/python/objects</text>
<text text-anchor="middle" x="2960.5" y="-419.5" font-family="Helvetica,sans-Serif" font-size="10.00">/pyBitsVector.cpp</text>
</a>
</g>
</g>
<!-- Node19&#45;&gt;Node25 -->
<g id="edge26" class="edge">
<title>Node19&#45;&gt;Node25</title>
<path fill="none" stroke="midnightblue" d="M1903.59,-500.99C2337.66,-451.85 2457.37,-541.77 2883.5,-465 2886.41,-464.48 2889.36,-463.87 2892.33,-463.19"/>
<polygon fill="midnightblue" stroke="midnightblue" points="1903.14,-497.52 1893.6,-502.14 1903.94,-504.47 1903.14,-497.52"/>
</g>
<!-- Node26 -->
<g id="node26" class="node">
<title>Node26</title>
<g id="a_node26"><a xlink:href="pyImmediate_8cpp.html" target="_top" xlink:title=" ">
<polygon fill="white" stroke="black" points="956.5,-412.5 956.5,-464.5 1092.5,-464.5 1092.5,-412.5 956.5,-412.5"/>
<text text-anchor="start" x="964.5" y="-452.5" font-family="Helvetica,sans-Serif" font-size="10.00">/home/jonathan/Works</text>
<text text-anchor="start" x="964.5" y="-441.5" font-family="Helvetica,sans-Serif" font-size="10.00">/Tools/Triton/src/libtriton</text>
<text text-anchor="start" x="964.5" y="-430.5" font-family="Helvetica,sans-Serif" font-size="10.00">/bindings/python/objects</text>
<text text-anchor="middle" x="1024.5" y="-419.5" font-family="Helvetica,sans-Serif" font-size="10.00">/pyImmediate.cpp</text>
</a>
</g>
</g>
<!-- Node19&#45;&gt;Node26 -->
<g id="edge27" class="edge">
<title>Node19&#45;&gt;Node26</title>
<path fill="none" stroke="midnightblue" d="M1699.26,-520.46C1561.97,-518.01 1311.04,-507.44 1101.5,-465 1098.6,-464.41 1095.66,-463.75 1092.7,-463.03"/>
<polygon fill="midnightblue" stroke="midnightblue" points="1699.3,-523.96 1709.36,-520.63 1699.42,-516.96 1699.3,-523.96"/>
</g>
<!-- Node27 -->
<g id="node27" class="node">
<title>Node27</title>
<g id="a_node27"><a xlink:href="pyInstruction_8cpp.html" target="_top" xlink:title=" ">
<polygon fill="white" stroke="black" points="1110.5,-412.5 1110.5,-464.5 1246.5,-464.5 1246.5,-412.5 1110.5,-412.5"/>
<text text-anchor="start" x="1118.5" y="-452.5" font-family="Helvetica,sans-Serif" font-size="10.00">/home/jonathan/Works</text>
<text text-anchor="start" x="1118.5" y="-441.5" font-family="Helvetica,sans-Serif" font-size="10.00">/Tools/Triton/src/libtriton</text>
<text text-anchor="start" x="1118.5" y="-430.5" font-family="Helvetica,sans-Serif" font-size="10.00">/bindings/python/objects</text>
<text text-anchor="middle" x="1178.5" y="-419.5" font-family="Helvetica,sans-Serif" font-size="10.00">/pyInstruction.cpp</text>
</a>
</g>
</g>
<!-- Node19&#45;&gt;Node27 -->
<g id="edge28" class="edge">
<title>Node19&#45;&gt;Node27</title>
<path fill="none" stroke="midnightblue" d="M1699.12,-517.15C1588.62,-511.45 1407.97,-497.66 1255.5,-465 1252.61,-464.38 1249.67,-463.69 1246.72,-462.95"/>
<polygon fill="midnightblue" stroke="midnightblue" points="1699.09,-520.65 1709.26,-517.66 1699.44,-513.66 1699.09,-520.65"/>
</g>
<!-- Node28 -->
<g id="node28" class="node">
<title>Node28</title>
<g id="a_node28"><a xlink:href="pyMemoryAccess_8cpp.html" target="_top" xlink:title=" ">
<polygon fill="white" stroke="black" points="1264.5,-412.5 1264.5,-464.5 1400.5,-464.5 1400.5,-412.5 1264.5,-412.5"/>
<text text-anchor="start" x="1272.5" y="-452.5" font-family="Helvetica,sans-Serif" font-size="10.00">/home/jonathan/Works</text>
<text text-anchor="start" x="1272.5" y="-441.5" font-family="Helvetica,sans-Serif" font-size="10.00">/Tools/Triton/src/libtriton</text>
<text text-anchor="start" x="1272.5" y="-430.5" font-family="Helvetica,sans-Serif" font-size="10.00">/bindings/python/objects</text>
<text text-anchor="middle" x="1332.5" y="-419.5" font-family="Helvetica,sans-Serif" font-size="10.00">/pyMemoryAccess.cpp</text>
</a>
</g>
</g>
<!-- Node19&#45;&gt;Node28 -->
<g id="edge29" class="edge">
<title>Node19&#45;&gt;Node28</title>
<path fill="none" stroke="midnightblue" d="M1699.12,-511.42C1619.48,-502.75 1506.57,-487.82 1409.5,-465 1406.62,-464.32 1403.7,-463.59 1400.75,-462.8"/>
<polygon fill="midnightblue" stroke="midnightblue" points="1698.84,-514.91 1709.16,-512.49 1699.59,-507.95 1698.84,-514.91"/>
</g>
<!-- Node29 -->
<g id="node29" class="node">
<title>Node29</title>
<g id="a_node29"><a xlink:href="pyPathConstraint_8cpp.html" target="_top" xlink:title=" ">
<polygon fill="white" stroke="black" points="1418.5,-412.5 1418.5,-464.5 1554.5,-464.5 1554.5,-412.5 1418.5,-412.5"/>
<text text-anchor="start" x="1426.5" y="-452.5" font-family="Helvetica,sans-Serif" font-size="10.00">/home/jonathan/Works</text>
<text text-anchor="start" x="1426.5" y="-441.5" font-family="Helvetica,sans-Serif" font-size="10.00">/Tools/Triton/src/libtriton</text>
<text text-anchor="start" x="1426.5" y="-430.5" font-family="Helvetica,sans-Serif" font-size="10.00">/bindings/python/objects</text>
<text text-anchor="middle" x="1486.5" y="-419.5" font-family="Helvetica,sans-Serif" font-size="10.00">/pyPathConstraint.cpp</text>
</a>
</g>
</g>
<!-- Node19&#45;&gt;Node29 -->
<g id="edge30" class="edge">
<title>Node19&#45;&gt;Node29</title>
<path fill="none" stroke="midnightblue" d="M1700.25,-499.26C1657.79,-489.61 1608.03,-477.58 1563.5,-465 1560.65,-464.2 1557.76,-463.35 1554.84,-462.48"/>
<polygon fill="midnightblue" stroke="midnightblue" points="1699.51,-502.68 1710.04,-501.47 1701.05,-495.85 1699.51,-502.68"/>
</g>
<!-- Node30 -->
<g id="node30" class="node">
<title>Node30</title>
<g id="a_node30"><a xlink:href="pyRegister_8cpp.html" target="_top" xlink:title=" ">
<polygon fill="white" stroke="black" points="1572.5,-412.5 1572.5,-464.5 1708.5,-464.5 1708.5,-412.5 1572.5,-412.5"/>
<text text-anchor="start" x="1580.5" y="-452.5" font-family="Helvetica,sans-Serif" font-size="10.00">/home/jonathan/Works</text>
<text text-anchor="start" x="1580.5" y="-441.5" font-family="Helvetica,sans-Serif" font-size="10.00">/Tools/Triton/src/libtriton</text>
<text text-anchor="start" x="1580.5" y="-430.5" font-family="Helvetica,sans-Serif" font-size="10.00">/bindings/python/objects</text>
<text text-anchor="middle" x="1640.5" y="-419.5" font-family="Helvetica,sans-Serif" font-size="10.00">/pyRegister.cpp</text>
</a>
</g>
</g>
<!-- Node19&#45;&gt;Node30 -->
<g id="edge31" class="edge">
<title>Node19&#45;&gt;Node30</title>
<path fill="none" stroke="midnightblue" d="M1753.95,-496.93C1733.82,-486.74 1710.37,-474.87 1690.04,-464.58"/>
<polygon fill="midnightblue" stroke="midnightblue" points="1752.43,-500.08 1762.94,-501.48 1755.6,-493.84 1752.43,-500.08"/>
</g>
<!-- Node31 -->
<g id="node31" class="node">
<title>Node31</title>
<g id="a_node31"><a xlink:href="pySymbolicExpression_8cpp.html" target="_top" xlink:title=" ">
<polygon fill="white" stroke="black" points="1726.5,-412.5 1726.5,-464.5 1876.5,-464.5 1876.5,-412.5 1726.5,-412.5"/>
<text text-anchor="start" x="1734.5" y="-452.5" font-family="Helvetica,sans-Serif" font-size="10.00">/home/jonathan/Works</text>
<text text-anchor="start" x="1734.5" y="-441.5" font-family="Helvetica,sans-Serif" font-size="10.00">/Tools/Triton/src/libtriton</text>
<text text-anchor="start" x="1734.5" y="-430.5" font-family="Helvetica,sans-Serif" font-size="10.00">/bindings/python/objects</text>
<text text-anchor="middle" x="1801.5" y="-419.5" font-family="Helvetica,sans-Serif" font-size="10.00">/pySymbolicExpression.cpp</text>
</a>
</g>
</g>
<!-- Node19&#45;&gt;Node31 -->
<g id="edge33" class="edge">
<title>Node19&#45;&gt;Node31</title>
<path fill="none" stroke="midnightblue" d="M1801.5,-491.12C1801.5,-482.41 1801.5,-472.99 1801.5,-464.61"/>
<polygon fill="midnightblue" stroke="midnightblue" points="1798,-491.27 1801.5,-501.27 1805,-491.27 1798,-491.27"/>
</g>
<!-- Node32 -->
<g id="node32" class="node">
<title>Node32</title>
<g id="a_node32"><a xlink:href="pySymbolicVariable_8cpp.html" target="_top" xlink:title=" ">
<polygon fill="white" stroke="black" points="1895,-412.5 1895,-464.5 2032,-464.5 2032,-412.5 1895,-412.5"/>
<text text-anchor="start" x="1903" y="-452.5" font-family="Helvetica,sans-Serif" font-size="10.00">/home/jonathan/Works</text>
<text text-anchor="start" x="1903" y="-441.5" font-family="Helvetica,sans-Serif" font-size="10.00">/Tools/Triton/src/libtriton</text>
<text text-anchor="start" x="1903" y="-430.5" font-family="Helvetica,sans-Serif" font-size="10.00">/bindings/python/objects</text>
<text text-anchor="middle" x="1963.5" y="-419.5" font-family="Helvetica,sans-Serif" font-size="10.00">/pySymbolicVariable.cpp</text>
</a>
</g>
</g>
<!-- Node19&#45;&gt;Node32 -->
<g id="edge34" class="edge">
<title>Node19&#45;&gt;Node32</title>
<path fill="none" stroke="midnightblue" d="M1849.35,-496.93C1869.6,-486.74 1893.19,-474.87 1913.65,-464.58"/>
<polygon fill="midnightblue" stroke="midnightblue" points="1847.66,-493.86 1840.3,-501.48 1850.81,-500.11 1847.66,-493.86"/>
</g>
<!-- Node33&#45;&gt;Node6 -->
<g id="edge38" class="edge">
<title>Node33&#45;&gt;Node6</title>
<path fill="none" stroke="midnightblue" d="M457.78,-491.4C454.61,-480.63 451.11,-468.73 448.26,-459.05"/>
<polygon fill="midnightblue" stroke="midnightblue" points="454.51,-492.67 460.69,-501.27 461.22,-490.69 454.51,-492.67"/>
</g>
<!-- Node33&#45;&gt;Node7 -->
<g id="edge39" class="edge">
<title>Node33&#45;&gt;Node7</title>
<path fill="none" stroke="midnightblue" d="M376.74,-496.8C362.38,-488.97 349.36,-478.63 340.5,-465 327.66,-445.25 329.56,-432.86 340.5,-412 350.01,-393.87 367.56,-380.03 384.57,-370.11"/>
<polygon fill="midnightblue" stroke="midnightblue" points="375.32,-500.01 385.83,-501.37 378.46,-493.75 375.32,-500.01"/>
</g>
<!-- Node33&#45;&gt;Node34 -->
<g id="edge40" class="edge">
<title>Node33&#45;&gt;Node34</title>
<path fill="none" stroke="midnightblue" d="M514.85,-496.97C539.2,-484.87 568.32,-470.4 591.25,-459"/>
<polygon fill="midnightblue" stroke="midnightblue" points="513.18,-493.89 505.78,-501.48 516.29,-500.16 513.18,-493.89"/>
</g>
<!-- Node34&#45;&gt;Node5 -->
<g id="edge41" class="edge">
<title>Node34&#45;&gt;Node5</title>
<path fill="none" stroke="midnightblue" d="M671.41,-412.78C693.7,-399.31 720.92,-382.87 741.79,-370.26"/>
<polygon fill="midnightblue" stroke="midnightblue" points="669.57,-409.81 662.82,-417.98 673.19,-415.8 669.57,-409.81"/>
</g>
<!-- Node34&#45;&gt;Node7 -->
<g id="edge42" class="edge">
<title>Node34&#45;&gt;Node7</title>
<path fill="none" stroke="midnightblue" d="M575.83,-413.84C544.15,-400.12 504.74,-383.07 474.81,-370.11"/>
<polygon fill="midnightblue" stroke="midnightblue" points="574.82,-417.22 585.39,-417.98 577.6,-410.79 574.82,-417.22"/>
</g>
</g>
</svg>
