<?xml version="1.0" encoding="UTF-8" standalone="no"?>
<!DOCTYPE svg PUBLIC "-//W3C//DTD SVG 1.1//EN"
 "http://www.w3.org/Graphics/SVG/1.1/DTD/svg11.dtd">
<!-- Generated by graphviz version 2.50.0 (20211204.2007)
 -->
<!-- Title: /home/jonathan/Works/Tools/Triton/src/libtriton/includes/triton/solverInterface.hpp Pages: 1 -->
<svg width="985pt" height="462pt"
 viewBox="0.00 0.00 985.00 462.00" xmlns="http://www.w3.org/2000/svg" xmlns:xlink="http://www.w3.org/1999/xlink">
<g id="graph0" class="graph" transform="scale(1 1) rotate(0) translate(4 458)">
<title>/home/jonathan/Works/Tools/Triton/src/libtriton/includes/triton/solverInterface.hpp</title>
<polygon fill="white" stroke="transparent" points="-4,4 -4,-458 981,-458 981,4 -4,4"/>
<!-- Node1 -->
<g id="node1" class="node">
<title>Node1</title>
<g id="a_node1"><a xlink:title=" ">
<polygon fill="#bfbfbf" stroke="black" points="279.5,-412.5 279.5,-453.5 466.5,-453.5 466.5,-412.5 279.5,-412.5"/>
<text text-anchor="start" x="287.5" y="-441.5" font-family="Helvetica,sans-Serif" font-size="10.00">/home/jonathan/Works</text>
<text text-anchor="start" x="287.5" y="-430.5" font-family="Helvetica,sans-Serif" font-size="10.00">/Tools/Triton/src/libtriton</text>
<text text-anchor="middle" x="373" y="-419.5" font-family="Helvetica,sans-Serif" font-size="10.00">/includes/triton/solverInterface.hpp</text>
</a>
</g>
</g>
<!-- Node2 -->
<g id="node2" class="node">
<title>Node2</title>
<g id="a_node2"><a xlink:href="bitwuzlaSolver_8hpp.html" target="_top" xlink:title=" ">
<polygon fill="white" stroke="black" points="36.5,-334.5 36.5,-375.5 221.5,-375.5 221.5,-334.5 36.5,-334.5"/>
<text text-anchor="start" x="44.5" y="-363.5" font-family="Helvetica,sans-Serif" font-size="10.00">/home/jonathan/Works</text>
<text text-anchor="start" x="44.5" y="-352.5" font-family="Helvetica,sans-Serif" font-size="10.00">/Tools/Triton/src/libtriton</text>
<text text-anchor="middle" x="129" y="-341.5" font-family="Helvetica,sans-Serif" font-size="10.00">/includes/triton/bitwuzlaSolver.hpp</text>
</a>
</g>
</g>
<!-- Node1&#45;&gt;Node2 -->
<g id="edge1" class="edge">
<title>Node1&#45;&gt;Node2</title>
<path fill="none" stroke="midnightblue" d="M300.58,-409.44C265.95,-398.66 224.89,-385.87 191.62,-375.51"/>
<polygon fill="midnightblue" stroke="midnightblue" points="299.58,-412.8 310.16,-412.43 301.66,-406.11 299.58,-412.8"/>
</g>
<!-- Node4 -->
<g id="node4" class="node">
<title>Node4</title>
<g id="a_node4"><a xlink:href="solverEngine_8hpp.html" target="_top" xlink:title=" ">
<polygon fill="white" stroke="black" points="285,-334.5 285,-375.5 461,-375.5 461,-334.5 285,-334.5"/>
<text text-anchor="start" x="293" y="-363.5" font-family="Helvetica,sans-Serif" font-size="10.00">/home/jonathan/Works</text>
<text text-anchor="start" x="293" y="-352.5" font-family="Helvetica,sans-Serif" font-size="10.00">/Tools/Triton/src/libtriton</text>
<text text-anchor="middle" x="373" y="-341.5" font-family="Helvetica,sans-Serif" font-size="10.00">/includes/triton/solverEngine.hpp</text>
</a>
</g>
</g>
<!-- Node1&#45;&gt;Node4 -->
<g id="edge3" class="edge">
<title>Node1&#45;&gt;Node4</title>
<path fill="none" stroke="midnightblue" d="M373,-402.3C373,-393.3 373,-383.65 373,-375.51"/>
<polygon fill="midnightblue" stroke="midnightblue" points="369.5,-402.43 373,-412.43 376.5,-402.43 369.5,-402.43"/>
</g>
<!-- Node16 -->
<g id="node16" class="node">
<title>Node16</title>
<g id="a_node16"><a xlink:href="z3Solver_8hpp.html" target="_top" xlink:title=" ">
<polygon fill="white" stroke="black" points="537.5,-334.5 537.5,-375.5 692.5,-375.5 692.5,-334.5 537.5,-334.5"/>
<text text-anchor="start" x="545.5" y="-363.5" font-family="Helvetica,sans-Serif" font-size="10.00">/home/jonathan/Works</text>
<text text-anchor="start" x="545.5" y="-352.5" font-family="Helvetica,sans-Serif" font-size="10.00">/Tools/Triton/src/libtriton</text>
<text text-anchor="middle" x="615" y="-341.5" font-family="Helvetica,sans-Serif" font-size="10.00">/includes/triton/z3Solver.hpp</text>
</a>
</g>
</g>
<!-- Node1&#45;&gt;Node16 -->
<g id="edge16" class="edge">
<title>Node1&#45;&gt;Node16</title>
<path fill="none" stroke="midnightblue" d="M445.27,-409.3C479.53,-398.55 520.04,-385.82 552.89,-375.51"/>
<polygon fill="midnightblue" stroke="midnightblue" points="443.81,-406.09 435.32,-412.43 445.91,-412.77 443.81,-406.09"/>
</g>
<!-- Node3 -->
<g id="node3" class="node">
<title>Node3</title>
<g id="a_node3"><a xlink:href="bitwuzlaSolver_8cpp.html" target="_top" xlink:title=" ">
<polygon fill="white" stroke="black" points="15.5,-245.5 15.5,-297.5 150.5,-297.5 150.5,-245.5 15.5,-245.5"/>
<text text-anchor="start" x="23.5" y="-285.5" font-family="Helvetica,sans-Serif" font-size="10.00">/home/jonathan/Works</text>
<text text-anchor="start" x="23.5" y="-274.5" font-family="Helvetica,sans-Serif" font-size="10.00">/Tools/Triton/src/libtriton</text>
<text text-anchor="start" x="23.5" y="-263.5" font-family="Helvetica,sans-Serif" font-size="10.00">/engines/solver/bitwuzla</text>
<text text-anchor="middle" x="83" y="-252.5" font-family="Helvetica,sans-Serif" font-size="10.00">/bitwuzlaSolver.cpp</text>
</a>
</g>
</g>
<!-- Node2&#45;&gt;Node3 -->
<g id="edge2" class="edge">
<title>Node2&#45;&gt;Node3</title>
<path fill="none" stroke="midnightblue" d="M112.94,-325.55C107.81,-316.45 102.16,-306.45 97.17,-297.61"/>
<polygon fill="midnightblue" stroke="midnightblue" points="109.9,-327.28 117.86,-334.27 116,-323.84 109.9,-327.28"/>
</g>
<!-- Node5 -->
<g id="node5" class="node">
<title>Node5</title>
<g id="a_node5"><a xlink:href="solverEngine_8cpp.html" target="_top" xlink:title=" ">
<polygon fill="white" stroke="black" points="168.5,-251 168.5,-292 345.5,-292 345.5,-251 168.5,-251"/>
<text text-anchor="start" x="176.5" y="-280" font-family="Helvetica,sans-Serif" font-size="10.00">/home/jonathan/Works</text>
<text text-anchor="start" x="176.5" y="-269" font-family="Helvetica,sans-Serif" font-size="10.00">/Tools/Triton/src/libtriton</text>
<text text-anchor="middle" x="257" y="-258" font-family="Helvetica,sans-Serif" font-size="10.00">/engines/solver/solverEngine.cpp</text>
</a>
</g>
</g>
<!-- Node4&#45;&gt;Node5 -->
<g id="edge4" class="edge">
<title>Node4&#45;&gt;Node5</title>
<path fill="none" stroke="midnightblue" d="M336.77,-328.54C320.05,-316.8 300.52,-303.07 284.96,-292.14"/>
<polygon fill="midnightblue" stroke="midnightblue" points="335.02,-331.59 345.22,-334.48 339.04,-325.87 335.02,-331.59"/>
</g>
<!-- Node6 -->
<g id="node6" class="node">
<title>Node6</title>
<g id="a_node6"><a xlink:href="context_8hpp.html" target="_top" xlink:title=" ">
<polygon fill="white" stroke="black" points="298,-167.5 298,-208.5 448,-208.5 448,-167.5 298,-167.5"/>
<text text-anchor="start" x="306" y="-196.5" font-family="Helvetica,sans-Serif" font-size="10.00">/home/jonathan/Works</text>
<text text-anchor="start" x="306" y="-185.5" font-family="Helvetica,sans-Serif" font-size="10.00">/Tools/Triton/src/libtriton</text>
<text text-anchor="middle" x="373" y="-174.5" font-family="Helvetica,sans-Serif" font-size="10.00">/includes/triton/context.hpp</text>
</a>
</g>
</g>
<!-- Node4&#45;&gt;Node6 -->
<g id="edge5" class="edge">
<title>Node4&#45;&gt;Node6</title>
<path fill="none" stroke="midnightblue" d="M373,-324.3C373,-290.78 373,-237.19 373,-208.55"/>
<polygon fill="midnightblue" stroke="midnightblue" points="369.5,-324.42 373,-334.42 376.5,-324.42 369.5,-324.42"/>
</g>
<!-- Node14 -->
<g id="node14" class="node">
<title>Node14</title>
<g id="a_node14"><a xlink:href="synthesizer_8hpp.html" target="_top" xlink:title=" ">
<polygon fill="white" stroke="black" points="400.5,-251 400.5,-292 569.5,-292 569.5,-251 400.5,-251"/>
<text text-anchor="start" x="408.5" y="-280" font-family="Helvetica,sans-Serif" font-size="10.00">/home/jonathan/Works</text>
<text text-anchor="start" x="408.5" y="-269" font-family="Helvetica,sans-Serif" font-size="10.00">/Tools/Triton/src/libtriton</text>
<text text-anchor="middle" x="485" y="-258" font-family="Helvetica,sans-Serif" font-size="10.00">/includes/triton/synthesizer.hpp</text>
</a>
</g>
</g>
<!-- Node4&#45;&gt;Node14 -->
<g id="edge13" class="edge">
<title>Node4&#45;&gt;Node14</title>
<path fill="none" stroke="midnightblue" d="M407.98,-328.54C424.12,-316.8 442.99,-303.07 458,-292.14"/>
<polygon fill="midnightblue" stroke="midnightblue" points="405.85,-325.76 399.83,-334.48 409.97,-331.42 405.85,-325.76"/>
</g>
<!-- Node7 -->
<g id="node7" class="node">
<title>Node7</title>
<g id="a_node7"><a xlink:href="pyTritonContext_8cpp.html" target="_top" xlink:title=" ">
<polygon fill="white" stroke="black" points="0,-78.5 0,-130.5 136,-130.5 136,-78.5 0,-78.5"/>
<text text-anchor="start" x="8" y="-118.5" font-family="Helvetica,sans-Serif" font-size="10.00">/home/jonathan/Works</text>
<text text-anchor="start" x="8" y="-107.5" font-family="Helvetica,sans-Serif" font-size="10.00">/Tools/Triton/src/libtriton</text>
<text text-anchor="start" x="8" y="-96.5" font-family="Helvetica,sans-Serif" font-size="10.00">/bindings/python/objects</text>
<text text-anchor="middle" x="68" y="-85.5" font-family="Helvetica,sans-Serif" font-size="10.00">/pyTritonContext.cpp</text>
</a>
</g>
</g>
<!-- Node6&#45;&gt;Node7 -->
<g id="edge6" class="edge">
<title>Node6&#45;&gt;Node7</title>
<path fill="none" stroke="midnightblue" d="M288.03,-167.81C244.96,-157.66 191.97,-144.52 145,-131 142.16,-130.18 139.26,-129.33 136.35,-128.45"/>
<polygon fill="midnightblue" stroke="midnightblue" points="287.37,-171.25 297.9,-170.13 288.96,-164.44 287.37,-171.25"/>
</g>
<!-- Node8 -->
<g id="node8" class="node">
<title>Node8</title>
<g id="a_node8"><a xlink:href="callbacks_8cpp.html" target="_top" xlink:title=" ">
<polygon fill="white" stroke="black" points="154,-84 154,-125 288,-125 288,-84 154,-84"/>
<text text-anchor="start" x="162" y="-113" font-family="Helvetica,sans-Serif" font-size="10.00">/home/jonathan/Works</text>
<text text-anchor="start" x="162" y="-102" font-family="Helvetica,sans-Serif" font-size="10.00">/Tools/Triton/src/libtriton</text>
<text text-anchor="middle" x="221" y="-91" font-family="Helvetica,sans-Serif" font-size="10.00">/callbacks/callbacks.cpp</text>
</a>
</g>
</g>
<!-- Node6&#45;&gt;Node8 -->
<g id="edge7" class="edge">
<title>Node6&#45;&gt;Node8</title>
<path fill="none" stroke="midnightblue" d="M327.59,-162.65C305.15,-150.62 278.44,-136.3 257.37,-125"/>
<polygon fill="midnightblue" stroke="midnightblue" points="326.13,-165.84 336.59,-167.48 329.43,-159.67 326.13,-165.84"/>
</g>
<!-- Node9 -->
<g id="node9" class="node">
<title>Node9</title>
<g id="a_node9"><a xlink:href="context_8cpp.html" target="_top" xlink:title=" ">
<polygon fill="white" stroke="black" points="306.5,-84 306.5,-125 439.5,-125 439.5,-84 306.5,-84"/>
<text text-anchor="start" x="314.5" y="-113" font-family="Helvetica,sans-Serif" font-size="10.00">/home/jonathan/Works</text>
<text text-anchor="start" x="314.5" y="-102" font-family="Helvetica,sans-Serif" font-size="10.00">/Tools/Triton/src/libtriton</text>
<text text-anchor="middle" x="373" y="-91" font-family="Helvetica,sans-Serif" font-size="10.00">/context/context.cpp</text>
</a>
</g>
</g>
<!-- Node6&#45;&gt;Node9 -->
<g id="edge8" class="edge">
<title>Node6&#45;&gt;Node9</title>
<path fill="none" stroke="midnightblue" d="M373,-157.06C373,-146.38 373,-134.63 373,-125.05"/>
<polygon fill="midnightblue" stroke="midnightblue" points="369.5,-157.27 373,-167.27 376.5,-157.27 369.5,-157.27"/>
</g>
<!-- Node10 -->
<g id="node10" class="node">
<title>Node10</title>
<g id="a_node10"><a xlink:href="symbolicSimplification_8cpp.html" target="_top" xlink:title=" ">
<polygon fill="white" stroke="black" points="457.5,-84 457.5,-125 696.5,-125 696.5,-84 457.5,-84"/>
<text text-anchor="start" x="465.5" y="-113" font-family="Helvetica,sans-Serif" font-size="10.00">/home/jonathan/Works</text>
<text text-anchor="start" x="465.5" y="-102" font-family="Helvetica,sans-Serif" font-size="10.00">/Tools/Triton/src/libtriton</text>
<text text-anchor="middle" x="577" y="-91" font-family="Helvetica,sans-Serif" font-size="10.00">/engines/symbolic/symbolicSimplification.cpp</text>
</a>
</g>
</g>
<!-- Node6&#45;&gt;Node10 -->
<g id="edge9" class="edge">
<title>Node6&#45;&gt;Node10</title>
<path fill="none" stroke="midnightblue" d="M431.16,-163.77C461.83,-151.51 499.03,-136.65 528.18,-125"/>
<polygon fill="midnightblue" stroke="midnightblue" points="429.85,-160.52 421.86,-167.48 432.45,-167.02 429.85,-160.52"/>
</g>
<!-- Node11 -->
<g id="node11" class="node">
<title>Node11</title>
<g id="a_node11"><a xlink:href="llvmToTriton_8hpp.html" target="_top" xlink:title=" ">
<polygon fill="white" stroke="black" points="714.5,-84 714.5,-125 887.5,-125 887.5,-84 714.5,-84"/>
<text text-anchor="start" x="722.5" y="-113" font-family="Helvetica,sans-Serif" font-size="10.00">/home/jonathan/Works</text>
<text text-anchor="start" x="722.5" y="-102" font-family="Helvetica,sans-Serif" font-size="10.00">/Tools/Triton/src/libtriton</text>
<text text-anchor="middle" x="801" y="-91" font-family="Helvetica,sans-Serif" font-size="10.00">/includes/triton/llvmToTriton.hpp</text>
</a>
</g>
</g>
<!-- Node6&#45;&gt;Node11 -->
<g id="edge10" class="edge">
<title>Node6&#45;&gt;Node11</title>
<path fill="none" stroke="midnightblue" d="M457.88,-166.92C568.13,-146.47 598.97,-152.7 705,-131 713.53,-129.25 722.43,-127.2 731.23,-125.04"/>
<polygon fill="midnightblue" stroke="midnightblue" points="457.21,-163.49 448.03,-168.78 458.51,-170.37 457.21,-163.49"/>
</g>
<!-- Node12 -->
<g id="node12" class="node">
<title>Node12</title>
<g id="a_node12"><a xlink:href="llvmToTriton_8cpp.html" target="_top" xlink:title=" ">
<polygon fill="white" stroke="black" points="641,-0.5 641,-41.5 783,-41.5 783,-0.5 641,-0.5"/>
<text text-anchor="start" x="649" y="-29.5" font-family="Helvetica,sans-Serif" font-size="10.00">/home/jonathan/Works</text>
<text text-anchor="start" x="649" y="-18.5" font-family="Helvetica,sans-Serif" font-size="10.00">/Tools/Triton/src/libtriton</text>
<text text-anchor="middle" x="712" y="-7.5" font-family="Helvetica,sans-Serif" font-size="10.00">/ast/llvm/llvmToTriton.cpp</text>
</a>
</g>
</g>
<!-- Node11&#45;&gt;Node12 -->
<g id="edge11" class="edge">
<title>Node11&#45;&gt;Node12</title>
<path fill="none" stroke="midnightblue" d="M771.91,-76.86C759.34,-65.35 744.9,-52.13 733.35,-41.55"/>
<polygon fill="midnightblue" stroke="midnightblue" points="769.72,-79.6 779.46,-83.77 774.44,-74.44 769.72,-79.6"/>
</g>
<!-- Node13 -->
<g id="node13" class="node">
<title>Node13</title>
<g id="a_node13"><a xlink:href="liftingToLLVM_8cpp.html" target="_top" xlink:title=" ">
<polygon fill="white" stroke="black" points="801,-0.5 801,-41.5 977,-41.5 977,-0.5 801,-0.5"/>
<text text-anchor="start" x="809" y="-29.5" font-family="Helvetica,sans-Serif" font-size="10.00">/home/jonathan/Works</text>
<text text-anchor="start" x="809" y="-18.5" font-family="Helvetica,sans-Serif" font-size="10.00">/Tools/Triton/src/libtriton</text>
<text text-anchor="middle" x="889" y="-7.5" font-family="Helvetica,sans-Serif" font-size="10.00">/engines/lifters/liftingToLLVM.cpp</text>
</a>
</g>
</g>
<!-- Node11&#45;&gt;Node13 -->
<g id="edge12" class="edge">
<title>Node11&#45;&gt;Node13</title>
<path fill="none" stroke="midnightblue" d="M829.76,-76.86C842.19,-65.35 856.47,-52.13 867.89,-41.55"/>
<polygon fill="midnightblue" stroke="midnightblue" points="827.26,-74.41 822.3,-83.77 832.02,-79.54 827.26,-74.41"/>
</g>
<!-- Node14&#45;&gt;Node6 -->
<g id="edge15" class="edge">
<title>Node14&#45;&gt;Node6</title>
<path fill="none" stroke="midnightblue" d="M450.02,-245.04C433.88,-233.3 415.01,-219.57 400,-208.64"/>
<polygon fill="midnightblue" stroke="midnightblue" points="448.03,-247.92 458.17,-250.98 452.15,-242.26 448.03,-247.92"/>
</g>
<!-- Node15 -->
<g id="node15" class="node">
<title>Node15</title>
<g id="a_node15"><a xlink:href="synthesizer_8cpp.html" target="_top" xlink:title=" ">
<polygon fill="white" stroke="black" points="466,-167.5 466,-208.5 652,-208.5 652,-167.5 466,-167.5"/>
<text text-anchor="start" x="474" y="-196.5" font-family="Helvetica,sans-Serif" font-size="10.00">/home/jonathan/Works</text>
<text text-anchor="start" x="474" y="-185.5" font-family="Helvetica,sans-Serif" font-size="10.00">/Tools/Triton/src/libtriton</text>
<text text-anchor="middle" x="559" y="-174.5" font-family="Helvetica,sans-Serif" font-size="10.00">/engines/synthesis/synthesizer.cpp</text>
</a>
</g>
</g>
<!-- Node14&#45;&gt;Node15 -->
<g id="edge14" class="edge">
<title>Node14&#45;&gt;Node15</title>
<path fill="none" stroke="midnightblue" d="M509.78,-243.21C520.09,-231.86 531.83,-218.93 541.25,-208.55"/>
<polygon fill="midnightblue" stroke="midnightblue" points="507.04,-241.01 502.91,-250.77 512.23,-245.72 507.04,-241.01"/>
</g>
<!-- Node17 -->
<g id="node17" class="node">
<title>Node17</title>
<g id="a_node17"><a xlink:href="z3Solver_8cpp.html" target="_top" xlink:title=" ">
<polygon fill="white" stroke="black" points="588,-251 588,-292 758,-292 758,-251 588,-251"/>
<text text-anchor="start" x="596" y="-280" font-family="Helvetica,sans-Serif" font-size="10.00">/home/jonathan/Works</text>
<text text-anchor="start" x="596" y="-269" font-family="Helvetica,sans-Serif" font-size="10.00">/Tools/Triton/src/libtriton</text>
<text text-anchor="middle" x="673" y="-258" font-family="Helvetica,sans-Serif" font-size="10.00">/engines/solver/z3/z3Solver.cpp</text>
</a>
</g>
</g>
<!-- Node16&#45;&gt;Node17 -->
<g id="edge17" class="edge">
<title>Node16&#45;&gt;Node17</title>
<path fill="none" stroke="midnightblue" d="M634.89,-326.05C642.85,-314.86 651.84,-302.23 659.09,-292.05"/>
<polygon fill="midnightblue" stroke="midnightblue" points="631.99,-324.09 629.04,-334.27 637.69,-328.15 631.99,-324.09"/>
</g>
</g>
</svg>
