<?xml version="1.0" encoding="UTF-8" standalone="no"?>
<!DOCTYPE svg PUBLIC "-//W3C//DTD SVG 1.1//EN"
 "http://www.w3.org/Graphics/SVG/1.1/DTD/svg11.dtd">
<!-- Generated by graphviz version 2.49.0 (20210828.1703)
 -->
<!-- Title: /home/jonathan/Works/Tools/Triton/src/libtriton/includes/triton/solverModel.hpp Pages: 1 -->
<svg width="2918pt" height="473pt"
 viewBox="0.00 0.00 2918.00 473.00" xmlns="http://www.w3.org/2000/svg" xmlns:xlink="http://www.w3.org/1999/xlink">
<g id="graph0" class="graph" transform="scale(1 1) rotate(0) translate(4 469)">
<title>/home/jonathan/Works/Tools/Triton/src/libtriton/includes/triton/solverModel.hpp</title>
<polygon fill="white" stroke="transparent" points="-4,4 -4,-469 2914,-469 2914,4 -4,4"/>
<!-- Node1 -->
<g id="node1" class="node">
<title>Node1</title>
<g id="a_node1"><a xlink:title=" ">
<polygon fill="#bfbfbf" stroke="black" points="2210.5,-423.5 2210.5,-464.5 2383.5,-464.5 2383.5,-423.5 2210.5,-423.5"/>
<text text-anchor="start" x="2218.5" y="-452.5" font-family="Helvetica,sans-Serif" font-size="10.00">/home/jonathan/Works</text>
<text text-anchor="start" x="2218.5" y="-441.5" font-family="Helvetica,sans-Serif" font-size="10.00">/Tools/Triton/src/libtriton</text>
<text text-anchor="middle" x="2297" y="-430.5" font-family="Helvetica,sans-Serif" font-size="10.00">/includes/triton/solverModel.hpp</text>
</a>
</g>
</g>
<!-- Node2 -->
<g id="node2" class="node">
<title>Node2</title>
<g id="a_node2"><a xlink:href="pySolverModel_8cpp.html" target="_top" xlink:title=" ">
<polygon fill="white" stroke="black" points="0,-256.5 0,-308.5 136,-308.5 136,-256.5 0,-256.5"/>
<text text-anchor="start" x="8" y="-296.5" font-family="Helvetica,sans-Serif" font-size="10.00">/home/jonathan/Works</text>
<text text-anchor="start" x="8" y="-285.5" font-family="Helvetica,sans-Serif" font-size="10.00">/Tools/Triton/src/libtriton</text>
<text text-anchor="start" x="8" y="-274.5" font-family="Helvetica,sans-Serif" font-size="10.00">/bindings/python/objects</text>
<text text-anchor="middle" x="68" y="-263.5" font-family="Helvetica,sans-Serif" font-size="10.00">/pySolverModel.cpp</text>
</a>
</g>
</g>
<!-- Node1&#45;&gt;Node2 -->
<g id="edge1" class="edge">
<title>Node1&#45;&gt;Node2</title>
<path fill="none" stroke="midnightblue" d="M2200.08,-440.57C1835.46,-430.87 546.45,-391.39 145,-309 142.1,-308.41 139.16,-307.74 136.21,-307.01"/>
<polygon fill="midnightblue" stroke="midnightblue" points="2200.25,-444.08 2210.34,-440.84 2200.44,-437.08 2200.25,-444.08"/>
</g>
<!-- Node3 -->
<g id="node3" class="node">
<title>Node3</title>
<g id="a_node3"><a xlink:href="bitwuzlaSolver_8cpp.html" target="_top" xlink:title=" ">
<polygon fill="white" stroke="black" points="2034.5,-167.5 2034.5,-219.5 2169.5,-219.5 2169.5,-167.5 2034.5,-167.5"/>
<text text-anchor="start" x="2042.5" y="-207.5" font-family="Helvetica,sans-Serif" font-size="10.00">/home/jonathan/Works</text>
<text text-anchor="start" x="2042.5" y="-196.5" font-family="Helvetica,sans-Serif" font-size="10.00">/Tools/Triton/src/libtriton</text>
<text text-anchor="start" x="2042.5" y="-185.5" font-family="Helvetica,sans-Serif" font-size="10.00">/engines/solver/bitwuzla</text>
<text text-anchor="middle" x="2102" y="-174.5" font-family="Helvetica,sans-Serif" font-size="10.00">/bitwuzlaSolver.cpp</text>
</a>
</g>
</g>
<!-- Node1&#45;&gt;Node3 -->
<g id="edge2" class="edge">
<title>Node1&#45;&gt;Node3</title>
<path fill="none" stroke="midnightblue" d="M2245.19,-418.68C2203.62,-396.29 2147.52,-358.98 2118,-309 2101.77,-281.52 2099.53,-244.01 2100.16,-219.52"/>
<polygon fill="midnightblue" stroke="midnightblue" points="2243.6,-421.8 2254.08,-423.37 2246.87,-415.61 2243.6,-421.8"/>
</g>
<!-- Node4 -->
<g id="node4" class="node">
<title>Node4</title>
<g id="a_node4"><a xlink:href="solverModel_8cpp.html" target="_top" xlink:title=" ">
<polygon fill="white" stroke="black" points="2736,-345.5 2736,-386.5 2910,-386.5 2910,-345.5 2736,-345.5"/>
<text text-anchor="start" x="2744" y="-374.5" font-family="Helvetica,sans-Serif" font-size="10.00">/home/jonathan/Works</text>
<text text-anchor="start" x="2744" y="-363.5" font-family="Helvetica,sans-Serif" font-size="10.00">/Tools/Triton/src/libtriton</text>
<text text-anchor="middle" x="2823" y="-352.5" font-family="Helvetica,sans-Serif" font-size="10.00">/engines/solver/solverModel.cpp</text>
</a>
</g>
</g>
<!-- Node1&#45;&gt;Node4 -->
<g id="edge3" class="edge">
<title>Node1&#45;&gt;Node4</title>
<path fill="none" stroke="midnightblue" d="M2393.57,-432.08C2479.88,-421.88 2609.69,-405.5 2722,-387 2726.5,-386.26 2731.1,-385.47 2735.75,-384.64"/>
<polygon fill="midnightblue" stroke="midnightblue" points="2393.05,-428.61 2383.52,-433.26 2393.86,-435.56 2393.05,-428.61"/>
</g>
<!-- Node5 -->
<g id="node5" class="node">
<title>Node5</title>
<g id="a_node5"><a xlink:href="z3Solver_8cpp.html" target="_top" xlink:title=" ">
<polygon fill="white" stroke="black" points="2620,-173 2620,-214 2790,-214 2790,-173 2620,-173"/>
<text text-anchor="start" x="2628" y="-202" font-family="Helvetica,sans-Serif" font-size="10.00">/home/jonathan/Works</text>
<text text-anchor="start" x="2628" y="-191" font-family="Helvetica,sans-Serif" font-size="10.00">/Tools/Triton/src/libtriton</text>
<text text-anchor="middle" x="2705" y="-180" font-family="Helvetica,sans-Serif" font-size="10.00">/engines/solver/z3/z3Solver.cpp</text>
</a>
</g>
</g>
<!-- Node1&#45;&gt;Node5 -->
<g id="edge4" class="edge">
<title>Node1&#45;&gt;Node5</title>
<path fill="none" stroke="midnightblue" d="M2393.75,-440.98C2487.6,-433.14 2624.95,-404.74 2689,-309 2708.2,-280.31 2708.82,-238.48 2707.16,-214.13"/>
<polygon fill="midnightblue" stroke="midnightblue" points="2393.37,-437.49 2383.67,-441.75 2393.91,-444.47 2393.37,-437.49"/>
</g>
<!-- Node6 -->
<g id="node6" class="node">
<title>Node6</title>
<g id="a_node6"><a xlink:href="bitwuzlaSolver_8hpp.html" target="_top" xlink:title=" ">
<polygon fill="white" stroke="black" points="2127.5,-262 2127.5,-303 2312.5,-303 2312.5,-262 2127.5,-262"/>
<text text-anchor="start" x="2135.5" y="-291" font-family="Helvetica,sans-Serif" font-size="10.00">/home/jonathan/Works</text>
<text text-anchor="start" x="2135.5" y="-280" font-family="Helvetica,sans-Serif" font-size="10.00">/Tools/Triton/src/libtriton</text>
<text text-anchor="middle" x="2220" y="-269" font-family="Helvetica,sans-Serif" font-size="10.00">/includes/triton/bitwuzlaSolver.hpp</text>
</a>
</g>
</g>
<!-- Node1&#45;&gt;Node6 -->
<g id="edge5" class="edge">
<title>Node1&#45;&gt;Node6</title>
<path fill="none" stroke="midnightblue" d="M2283.06,-414.13C2267.57,-382.03 2242.95,-331.05 2229.52,-303.22"/>
<polygon fill="midnightblue" stroke="midnightblue" points="2280.06,-415.96 2287.56,-423.44 2286.36,-412.92 2280.06,-415.96"/>
</g>
<!-- Node7 -->
<g id="node7" class="node">
<title>Node7</title>
<g id="a_node7"><a xlink:href="pythonObjects_8hpp.html" target="_top" xlink:title=" ">
<polygon fill="white" stroke="black" points="1069,-345.5 1069,-386.5 1253,-386.5 1253,-345.5 1069,-345.5"/>
<text text-anchor="start" x="1077" y="-374.5" font-family="Helvetica,sans-Serif" font-size="10.00">/home/jonathan/Works</text>
<text text-anchor="start" x="1077" y="-363.5" font-family="Helvetica,sans-Serif" font-size="10.00">/Tools/Triton/src/libtriton</text>
<text text-anchor="middle" x="1161" y="-352.5" font-family="Helvetica,sans-Serif" font-size="10.00">/includes/triton/pythonObjects.hpp</text>
</a>
</g>
</g>
<!-- Node1&#45;&gt;Node7 -->
<g id="edge7" class="edge">
<title>Node1&#45;&gt;Node7</title>
<path fill="none" stroke="midnightblue" d="M2200.16,-436.52C1984.12,-422.07 1465.19,-387.35 1253.39,-373.18"/>
<polygon fill="midnightblue" stroke="midnightblue" points="2200,-440.02 2210.22,-437.19 2200.47,-433.03 2200,-440.02"/>
</g>
<!-- Node21 -->
<g id="node21" class="node">
<title>Node21</title>
<g id="a_node21"><a xlink:href="solverEngine_8hpp.html" target="_top" xlink:title=" ">
<polygon fill="white" stroke="black" points="2330,-262 2330,-303 2506,-303 2506,-262 2330,-262"/>
<text text-anchor="start" x="2338" y="-291" font-family="Helvetica,sans-Serif" font-size="10.00">/home/jonathan/Works</text>
<text text-anchor="start" x="2338" y="-280" font-family="Helvetica,sans-Serif" font-size="10.00">/Tools/Triton/src/libtriton</text>
<text text-anchor="middle" x="2418" y="-269" font-family="Helvetica,sans-Serif" font-size="10.00">/includes/triton/solverEngine.hpp</text>
</a>
</g>
</g>
<!-- Node1&#45;&gt;Node21 -->
<g id="edge22" class="edge">
<title>Node1&#45;&gt;Node21</title>
<path fill="none" stroke="midnightblue" d="M2296.23,-412.97C2297.12,-392.2 2301.22,-364.84 2315,-345 2327.77,-326.61 2347.98,-312.82 2367.13,-303.01"/>
<polygon fill="midnightblue" stroke="midnightblue" points="2292.73,-413.09 2296.03,-423.15 2299.73,-413.23 2292.73,-413.09"/>
</g>
<!-- Node28 -->
<g id="node28" class="node">
<title>Node28</title>
<g id="a_node28"><a xlink:href="solverInterface_8hpp.html" target="_top" xlink:title=" ">
<polygon fill="white" stroke="black" points="2324.5,-345.5 2324.5,-386.5 2511.5,-386.5 2511.5,-345.5 2324.5,-345.5"/>
<text text-anchor="start" x="2332.5" y="-374.5" font-family="Helvetica,sans-Serif" font-size="10.00">/home/jonathan/Works</text>
<text text-anchor="start" x="2332.5" y="-363.5" font-family="Helvetica,sans-Serif" font-size="10.00">/Tools/Triton/src/libtriton</text>
<text text-anchor="middle" x="2418" y="-352.5" font-family="Helvetica,sans-Serif" font-size="10.00">/includes/triton/solverInterface.hpp</text>
</a>
</g>
</g>
<!-- Node1&#45;&gt;Node28 -->
<g id="edge31" class="edge">
<title>Node1&#45;&gt;Node28</title>
<path fill="none" stroke="midnightblue" d="M2336.93,-417.92C2353.2,-407.7 2371.72,-396.07 2386.95,-386.51"/>
<polygon fill="midnightblue" stroke="midnightblue" points="2334.77,-415.15 2328.16,-423.43 2338.49,-421.07 2334.77,-415.15"/>
</g>
<!-- Node29 -->
<g id="node29" class="node">
<title>Node29</title>
<g id="a_node29"><a xlink:href="z3Solver_8hpp.html" target="_top" xlink:title=" ">
<polygon fill="white" stroke="black" points="2524.5,-262 2524.5,-303 2679.5,-303 2679.5,-262 2524.5,-262"/>
<text text-anchor="start" x="2532.5" y="-291" font-family="Helvetica,sans-Serif" font-size="10.00">/home/jonathan/Works</text>
<text text-anchor="start" x="2532.5" y="-280" font-family="Helvetica,sans-Serif" font-size="10.00">/Tools/Triton/src/libtriton</text>
<text text-anchor="middle" x="2602" y="-269" font-family="Helvetica,sans-Serif" font-size="10.00">/includes/triton/z3Solver.hpp</text>
</a>
</g>
</g>
<!-- Node1&#45;&gt;Node29 -->
<g id="edge36" class="edge">
<title>Node1&#45;&gt;Node29</title>
<path fill="none" stroke="midnightblue" d="M2393.37,-432.85C2434.85,-425.07 2482.36,-411.31 2520,-387 2552.93,-365.73 2578.46,-326.7 2591.77,-303.12"/>
<polygon fill="midnightblue" stroke="midnightblue" points="2392.75,-429.41 2383.52,-434.61 2393.98,-436.3 2392.75,-429.41"/>
</g>
<!-- Node6&#45;&gt;Node3 -->
<g id="edge6" class="edge">
<title>Node6&#45;&gt;Node3</title>
<path fill="none" stroke="midnightblue" d="M2185.21,-255.85C2169.68,-244.4 2151.46,-230.96 2136.02,-219.58"/>
<polygon fill="midnightblue" stroke="midnightblue" points="2183.39,-258.86 2193.52,-261.98 2187.55,-253.22 2183.39,-258.86"/>
</g>
<!-- Node7&#45;&gt;Node2 -->
<g id="edge18" class="edge">
<title>Node7&#45;&gt;Node2</title>
<path fill="none" stroke="midnightblue" d="M1058.7,-360.9C818.67,-351.06 232.96,-325.68 145,-309 142.09,-308.45 139.15,-307.82 136.19,-307.12"/>
<polygon fill="midnightblue" stroke="midnightblue" points="1058.69,-364.4 1068.82,-361.31 1058.98,-357.41 1058.69,-364.4"/>
</g>
<!-- Node8 -->
<g id="node8" class="node">
<title>Node8</title>
<g id="a_node8"><a xlink:href="tritonCallbacks_8cpp.html" target="_top" xlink:title=" ">
<polygon fill="white" stroke="black" points="1286.5,-256.5 1286.5,-308.5 1429.5,-308.5 1429.5,-256.5 1286.5,-256.5"/>
<text text-anchor="start" x="1294.5" y="-296.5" font-family="Helvetica,sans-Serif" font-size="10.00">/home/jonathan/Works</text>
<text text-anchor="start" x="1294.5" y="-285.5" font-family="Helvetica,sans-Serif" font-size="10.00">/Tools/Triton/src/libtriton</text>
<text text-anchor="start" x="1294.5" y="-274.5" font-family="Helvetica,sans-Serif" font-size="10.00">/bindings/python/modules</text>
<text text-anchor="middle" x="1358" y="-263.5" font-family="Helvetica,sans-Serif" font-size="10.00">/tritonCallbacks.cpp</text>
</a>
</g>
</g>
<!-- Node7&#45;&gt;Node8 -->
<g id="edge8" class="edge">
<title>Node7&#45;&gt;Node8</title>
<path fill="none" stroke="midnightblue" d="M1217.53,-341.61C1242.52,-331.28 1271.94,-319.1 1297.39,-308.58"/>
<polygon fill="midnightblue" stroke="midnightblue" points="1216.09,-338.42 1208.19,-345.48 1218.76,-344.89 1216.09,-338.42"/>
</g>
<!-- Node9 -->
<g id="node9" class="node">
<title>Node9</title>
<g id="a_node9"><a xlink:href="initRegNamespace_8cpp.html" target="_top" xlink:title=" ">
<polygon fill="white" stroke="black" points="1448,-256.5 1448,-308.5 1610,-308.5 1610,-256.5 1448,-256.5"/>
<text text-anchor="start" x="1456" y="-296.5" font-family="Helvetica,sans-Serif" font-size="10.00">/home/jonathan/Works</text>
<text text-anchor="start" x="1456" y="-285.5" font-family="Helvetica,sans-Serif" font-size="10.00">/Tools/Triton/src/libtriton</text>
<text text-anchor="start" x="1456" y="-274.5" font-family="Helvetica,sans-Serif" font-size="10.00">/bindings/python/namespaces</text>
<text text-anchor="middle" x="1529" y="-263.5" font-family="Helvetica,sans-Serif" font-size="10.00">/initRegNamespace.cpp</text>
</a>
</g>
</g>
<!-- Node7&#45;&gt;Node9 -->
<g id="edge9" class="edge">
<title>Node7&#45;&gt;Node9</title>
<path fill="none" stroke="midnightblue" d="M1263.06,-346.23C1315.55,-336.11 1380.42,-322.87 1438,-309 1441.19,-308.23 1444.44,-307.43 1447.71,-306.6"/>
<polygon fill="midnightblue" stroke="midnightblue" points="1262.24,-342.83 1253.08,-348.15 1263.56,-349.7 1262.24,-342.83"/>
</g>
<!-- Node10 -->
<g id="node10" class="node">
<title>Node10</title>
<g id="a_node10"><a xlink:href="pyAstContext_8cpp.html" target="_top" xlink:title=" ">
<polygon fill="white" stroke="black" points="1628,-256.5 1628,-308.5 1764,-308.5 1764,-256.5 1628,-256.5"/>
<text text-anchor="start" x="1636" y="-296.5" font-family="Helvetica,sans-Serif" font-size="10.00">/home/jonathan/Works</text>
<text text-anchor="start" x="1636" y="-285.5" font-family="Helvetica,sans-Serif" font-size="10.00">/Tools/Triton/src/libtriton</text>
<text text-anchor="start" x="1636" y="-274.5" font-family="Helvetica,sans-Serif" font-size="10.00">/bindings/python/objects</text>
<text text-anchor="middle" x="1696" y="-263.5" font-family="Helvetica,sans-Serif" font-size="10.00">/pyAstContext.cpp</text>
</a>
</g>
</g>
<!-- Node7&#45;&gt;Node10 -->
<g id="edge10" class="edge">
<title>Node7&#45;&gt;Node10</title>
<path fill="none" stroke="midnightblue" d="M1263.18,-358.33C1356.65,-350.86 1498.34,-336.08 1619,-309 1621.89,-308.35 1624.82,-307.64 1627.76,-306.88"/>
<polygon fill="midnightblue" stroke="midnightblue" points="1262.85,-354.85 1253.15,-359.12 1263.4,-361.83 1262.85,-354.85"/>
</g>
<!-- Node11 -->
<g id="node11" class="node">
<title>Node11</title>
<g id="a_node11"><a xlink:href="pyAstNode_8cpp.html" target="_top" xlink:title=" ">
<polygon fill="white" stroke="black" points="1782,-256.5 1782,-308.5 1918,-308.5 1918,-256.5 1782,-256.5"/>
<text text-anchor="start" x="1790" y="-296.5" font-family="Helvetica,sans-Serif" font-size="10.00">/home/jonathan/Works</text>
<text text-anchor="start" x="1790" y="-285.5" font-family="Helvetica,sans-Serif" font-size="10.00">/Tools/Triton/src/libtriton</text>
<text text-anchor="start" x="1790" y="-274.5" font-family="Helvetica,sans-Serif" font-size="10.00">/bindings/python/objects</text>
<text text-anchor="middle" x="1850" y="-263.5" font-family="Helvetica,sans-Serif" font-size="10.00">/pyAstNode.cpp</text>
</a>
</g>
</g>
<!-- Node7&#45;&gt;Node11 -->
<g id="edge11" class="edge">
<title>Node7&#45;&gt;Node11</title>
<path fill="none" stroke="midnightblue" d="M1263.32,-362.76C1385.71,-358.45 1596.23,-345.85 1773,-309 1775.89,-308.4 1778.83,-307.72 1781.79,-306.99"/>
<polygon fill="midnightblue" stroke="midnightblue" points="1263.08,-359.27 1253.21,-363.11 1263.32,-366.26 1263.08,-359.27"/>
</g>
<!-- Node12 -->
<g id="node12" class="node">
<title>Node12</title>
<g id="a_node12"><a xlink:href="pyBitsVector_8cpp.html" target="_top" xlink:title=" ">
<polygon fill="white" stroke="black" points="1936,-256.5 1936,-308.5 2072,-308.5 2072,-256.5 1936,-256.5"/>
<text text-anchor="start" x="1944" y="-296.5" font-family="Helvetica,sans-Serif" font-size="10.00">/home/jonathan/Works</text>
<text text-anchor="start" x="1944" y="-285.5" font-family="Helvetica,sans-Serif" font-size="10.00">/Tools/Triton/src/libtriton</text>
<text text-anchor="start" x="1944" y="-274.5" font-family="Helvetica,sans-Serif" font-size="10.00">/bindings/python/objects</text>
<text text-anchor="middle" x="2004" y="-263.5" font-family="Helvetica,sans-Serif" font-size="10.00">/pyBitsVector.cpp</text>
</a>
</g>
</g>
<!-- Node7&#45;&gt;Node12 -->
<g id="edge12" class="edge">
<title>Node7&#45;&gt;Node12</title>
<path fill="none" stroke="midnightblue" d="M1263.48,-365.49C1411.43,-364.4 1692.81,-355.59 1927,-309 1929.9,-308.42 1932.84,-307.77 1935.8,-307.05"/>
<polygon fill="midnightblue" stroke="midnightblue" points="1263.04,-361.99 1253.07,-365.56 1263.09,-368.99 1263.04,-361.99"/>
</g>
<!-- Node13 -->
<g id="node13" class="node">
<title>Node13</title>
<g id="a_node13"><a xlink:href="pyImmediate_8cpp.html" target="_top" xlink:title=" ">
<polygon fill="white" stroke="black" points="154,-256.5 154,-308.5 290,-308.5 290,-256.5 154,-256.5"/>
<text text-anchor="start" x="162" y="-296.5" font-family="Helvetica,sans-Serif" font-size="10.00">/home/jonathan/Works</text>
<text text-anchor="start" x="162" y="-285.5" font-family="Helvetica,sans-Serif" font-size="10.00">/Tools/Triton/src/libtriton</text>
<text text-anchor="start" x="162" y="-274.5" font-family="Helvetica,sans-Serif" font-size="10.00">/bindings/python/objects</text>
<text text-anchor="middle" x="222" y="-263.5" font-family="Helvetica,sans-Serif" font-size="10.00">/pyImmediate.cpp</text>
</a>
</g>
</g>
<!-- Node7&#45;&gt;Node13 -->
<g id="edge13" class="edge">
<title>Node7&#45;&gt;Node13</title>
<path fill="none" stroke="midnightblue" d="M1058.94,-361.63C863.2,-354.63 441.79,-336.81 299,-309 296.1,-308.43 293.15,-307.79 290.19,-307.08"/>
<polygon fill="midnightblue" stroke="midnightblue" points="1058.82,-365.13 1068.94,-361.99 1059.07,-358.13 1058.82,-365.13"/>
</g>
<!-- Node14 -->
<g id="node14" class="node">
<title>Node14</title>
<g id="a_node14"><a xlink:href="pyInstruction_8cpp.html" target="_top" xlink:title=" ">
<polygon fill="white" stroke="black" points="308,-256.5 308,-308.5 444,-308.5 444,-256.5 308,-256.5"/>
<text text-anchor="start" x="316" y="-296.5" font-family="Helvetica,sans-Serif" font-size="10.00">/home/jonathan/Works</text>
<text text-anchor="start" x="316" y="-285.5" font-family="Helvetica,sans-Serif" font-size="10.00">/Tools/Triton/src/libtriton</text>
<text text-anchor="start" x="316" y="-274.5" font-family="Helvetica,sans-Serif" font-size="10.00">/bindings/python/objects</text>
<text text-anchor="middle" x="376" y="-263.5" font-family="Helvetica,sans-Serif" font-size="10.00">/pyInstruction.cpp</text>
</a>
</g>
</g>
<!-- Node7&#45;&gt;Node14 -->
<g id="edge14" class="edge">
<title>Node7&#45;&gt;Node14</title>
<path fill="none" stroke="midnightblue" d="M1058.75,-364.6C920.15,-362.31 665.53,-351.94 453,-309 450.1,-308.41 447.16,-307.75 444.2,-307.03"/>
<polygon fill="midnightblue" stroke="midnightblue" points="1058.89,-368.1 1068.94,-364.75 1058.99,-361.1 1058.89,-368.1"/>
</g>
<!-- Node15 -->
<g id="node15" class="node">
<title>Node15</title>
<g id="a_node15"><a xlink:href="pyMemoryAccess_8cpp.html" target="_top" xlink:title=" ">
<polygon fill="white" stroke="black" points="462,-256.5 462,-308.5 598,-308.5 598,-256.5 462,-256.5"/>
<text text-anchor="start" x="470" y="-296.5" font-family="Helvetica,sans-Serif" font-size="10.00">/home/jonathan/Works</text>
<text text-anchor="start" x="470" y="-285.5" font-family="Helvetica,sans-Serif" font-size="10.00">/Tools/Triton/src/libtriton</text>
<text text-anchor="start" x="470" y="-274.5" font-family="Helvetica,sans-Serif" font-size="10.00">/bindings/python/objects</text>
<text text-anchor="middle" x="530" y="-263.5" font-family="Helvetica,sans-Serif" font-size="10.00">/pyMemoryAccess.cpp</text>
</a>
</g>
</g>
<!-- Node7&#45;&gt;Node15 -->
<g id="edge15" class="edge">
<title>Node7&#45;&gt;Node15</title>
<path fill="none" stroke="midnightblue" d="M1058.61,-361.36C946.63,-355.83 762.4,-342.17 607,-309 604.11,-308.38 601.17,-307.7 598.22,-306.95"/>
<polygon fill="midnightblue" stroke="midnightblue" points="1058.72,-364.87 1068.88,-361.85 1059.06,-357.88 1058.72,-364.87"/>
</g>
<!-- Node16 -->
<g id="node16" class="node">
<title>Node16</title>
<g id="a_node16"><a xlink:href="pyPathConstraint_8cpp.html" target="_top" xlink:title=" ">
<polygon fill="white" stroke="black" points="616,-256.5 616,-308.5 752,-308.5 752,-256.5 616,-256.5"/>
<text text-anchor="start" x="624" y="-296.5" font-family="Helvetica,sans-Serif" font-size="10.00">/home/jonathan/Works</text>
<text text-anchor="start" x="624" y="-285.5" font-family="Helvetica,sans-Serif" font-size="10.00">/Tools/Triton/src/libtriton</text>
<text text-anchor="start" x="624" y="-274.5" font-family="Helvetica,sans-Serif" font-size="10.00">/bindings/python/objects</text>
<text text-anchor="middle" x="684" y="-263.5" font-family="Helvetica,sans-Serif" font-size="10.00">/pyPathConstraint.cpp</text>
</a>
</g>
</g>
<!-- Node7&#45;&gt;Node16 -->
<g id="edge16" class="edge">
<title>Node7&#45;&gt;Node16</title>
<path fill="none" stroke="midnightblue" d="M1058.54,-355.81C977.17,-347.27 860.86,-332.32 761,-309 758.12,-308.33 755.19,-307.59 752.25,-306.81"/>
<polygon fill="midnightblue" stroke="midnightblue" points="1058.48,-359.32 1068.78,-356.87 1059.2,-352.36 1058.48,-359.32"/>
</g>
<!-- Node17 -->
<g id="node17" class="node">
<title>Node17</title>
<g id="a_node17"><a xlink:href="pyRegister_8cpp.html" target="_top" xlink:title=" ">
<polygon fill="white" stroke="black" points="770,-256.5 770,-308.5 906,-308.5 906,-256.5 770,-256.5"/>
<text text-anchor="start" x="778" y="-296.5" font-family="Helvetica,sans-Serif" font-size="10.00">/home/jonathan/Works</text>
<text text-anchor="start" x="778" y="-285.5" font-family="Helvetica,sans-Serif" font-size="10.00">/Tools/Triton/src/libtriton</text>
<text text-anchor="start" x="778" y="-274.5" font-family="Helvetica,sans-Serif" font-size="10.00">/bindings/python/objects</text>
<text text-anchor="middle" x="838" y="-263.5" font-family="Helvetica,sans-Serif" font-size="10.00">/pyRegister.cpp</text>
</a>
</g>
</g>
<!-- Node7&#45;&gt;Node17 -->
<g id="edge17" class="edge">
<title>Node7&#45;&gt;Node17</title>
<path fill="none" stroke="midnightblue" d="M1058.83,-344.04C1014.4,-334.34 961.88,-322.06 915,-309 912.15,-308.21 909.25,-307.37 906.33,-306.51"/>
<polygon fill="midnightblue" stroke="midnightblue" points="1058.26,-347.5 1068.77,-346.2 1059.74,-340.66 1058.26,-347.5"/>
</g>
<!-- Node18 -->
<g id="node18" class="node">
<title>Node18</title>
<g id="a_node18"><a xlink:href="pySymbolicExpression_8cpp.html" target="_top" xlink:title=" ">
<polygon fill="white" stroke="black" points="924,-256.5 924,-308.5 1074,-308.5 1074,-256.5 924,-256.5"/>
<text text-anchor="start" x="932" y="-296.5" font-family="Helvetica,sans-Serif" font-size="10.00">/home/jonathan/Works</text>
<text text-anchor="start" x="932" y="-285.5" font-family="Helvetica,sans-Serif" font-size="10.00">/Tools/Triton/src/libtriton</text>
<text text-anchor="start" x="932" y="-274.5" font-family="Helvetica,sans-Serif" font-size="10.00">/bindings/python/objects</text>
<text text-anchor="middle" x="999" y="-263.5" font-family="Helvetica,sans-Serif" font-size="10.00">/pySymbolicExpression.cpp</text>
</a>
</g>
</g>
<!-- Node7&#45;&gt;Node18 -->
<g id="edge19" class="edge">
<title>Node7&#45;&gt;Node18</title>
<path fill="none" stroke="midnightblue" d="M1113.15,-340.93C1092.9,-330.74 1069.31,-318.87 1048.85,-308.58"/>
<polygon fill="midnightblue" stroke="midnightblue" points="1111.69,-344.11 1122.2,-345.48 1114.84,-337.86 1111.69,-344.11"/>
</g>
<!-- Node19 -->
<g id="node19" class="node">
<title>Node19</title>
<g id="a_node19"><a xlink:href="pySymbolicVariable_8cpp.html" target="_top" xlink:title=" ">
<polygon fill="white" stroke="black" points="1092.5,-256.5 1092.5,-308.5 1229.5,-308.5 1229.5,-256.5 1092.5,-256.5"/>
<text text-anchor="start" x="1100.5" y="-296.5" font-family="Helvetica,sans-Serif" font-size="10.00">/home/jonathan/Works</text>
<text text-anchor="start" x="1100.5" y="-285.5" font-family="Helvetica,sans-Serif" font-size="10.00">/Tools/Triton/src/libtriton</text>
<text text-anchor="start" x="1100.5" y="-274.5" font-family="Helvetica,sans-Serif" font-size="10.00">/bindings/python/objects</text>
<text text-anchor="middle" x="1161" y="-263.5" font-family="Helvetica,sans-Serif" font-size="10.00">/pySymbolicVariable.cpp</text>
</a>
</g>
</g>
<!-- Node7&#45;&gt;Node19 -->
<g id="edge20" class="edge">
<title>Node7&#45;&gt;Node19</title>
<path fill="none" stroke="midnightblue" d="M1161,-335.12C1161,-326.41 1161,-316.99 1161,-308.61"/>
<polygon fill="midnightblue" stroke="midnightblue" points="1157.5,-335.27 1161,-345.27 1164.5,-335.27 1157.5,-335.27"/>
</g>
<!-- Node20 -->
<g id="node20" class="node">
<title>Node20</title>
<g id="a_node20"><a xlink:href="pyTritonContext_8cpp.html" target="_top" xlink:title=" ">
<polygon fill="white" stroke="black" points="1610,-0.5 1610,-52.5 1746,-52.5 1746,-0.5 1610,-0.5"/>
<text text-anchor="start" x="1618" y="-40.5" font-family="Helvetica,sans-Serif" font-size="10.00">/home/jonathan/Works</text>
<text text-anchor="start" x="1618" y="-29.5" font-family="Helvetica,sans-Serif" font-size="10.00">/Tools/Triton/src/libtriton</text>
<text text-anchor="start" x="1618" y="-18.5" font-family="Helvetica,sans-Serif" font-size="10.00">/bindings/python/objects</text>
<text text-anchor="middle" x="1678" y="-7.5" font-family="Helvetica,sans-Serif" font-size="10.00">/pyTritonContext.cpp</text>
</a>
</g>
</g>
<!-- Node7&#45;&gt;Node20 -->
<g id="edge21" class="edge">
<title>Node7&#45;&gt;Node20</title>
<path fill="none" stroke="midnightblue" d="M1200.82,-339.57C1213.37,-330.65 1226.86,-320.08 1238,-309 1258.74,-288.38 1255.15,-275.44 1277,-256 1382.8,-161.85 1533.66,-88.79 1616.92,-52.57"/>
<polygon fill="midnightblue" stroke="midnightblue" points="1198.55,-336.89 1192.32,-345.46 1202.53,-342.64 1198.55,-336.89"/>
</g>
<!-- Node22 -->
<g id="node22" class="node">
<title>Node22</title>
<g id="a_node22"><a xlink:href="solverEngine_8cpp.html" target="_top" xlink:title=" ">
<polygon fill="white" stroke="black" points="2196.5,-173 2196.5,-214 2373.5,-214 2373.5,-173 2196.5,-173"/>
<text text-anchor="start" x="2204.5" y="-202" font-family="Helvetica,sans-Serif" font-size="10.00">/home/jonathan/Works</text>
<text text-anchor="start" x="2204.5" y="-191" font-family="Helvetica,sans-Serif" font-size="10.00">/Tools/Triton/src/libtriton</text>
<text text-anchor="middle" x="2285" y="-180" font-family="Helvetica,sans-Serif" font-size="10.00">/engines/solver/solverEngine.cpp</text>
</a>
</g>
</g>
<!-- Node21&#45;&gt;Node22 -->
<g id="edge23" class="edge">
<title>Node21&#45;&gt;Node22</title>
<path fill="none" stroke="midnightblue" d="M2379.67,-256.43C2359.18,-243.02 2334.31,-226.76 2315.21,-214.26"/>
<polygon fill="midnightblue" stroke="midnightblue" points="2377.87,-259.43 2388.15,-261.98 2381.7,-253.57 2377.87,-259.43"/>
</g>
<!-- Node23 -->
<g id="node23" class="node">
<title>Node23</title>
<g id="a_node23"><a xlink:href="api_8hpp.html" target="_top" xlink:title=" ">
<polygon fill="white" stroke="black" points="2301.5,-89.5 2301.5,-130.5 2434.5,-130.5 2434.5,-89.5 2301.5,-89.5"/>
<text text-anchor="start" x="2309.5" y="-118.5" font-family="Helvetica,sans-Serif" font-size="10.00">/home/jonathan/Works</text>
<text text-anchor="start" x="2309.5" y="-107.5" font-family="Helvetica,sans-Serif" font-size="10.00">/Tools/Triton/src/libtriton</text>
<text text-anchor="middle" x="2368" y="-96.5" font-family="Helvetica,sans-Serif" font-size="10.00">/includes/triton/api.hpp</text>
</a>
</g>
</g>
<!-- Node21&#45;&gt;Node23 -->
<g id="edge24" class="edge">
<title>Node21&#45;&gt;Node23</title>
<path fill="none" stroke="midnightblue" d="M2409.32,-251.9C2399.12,-217.11 2382.47,-160.34 2373.75,-130.59"/>
<polygon fill="midnightblue" stroke="midnightblue" points="2406.09,-253.33 2412.26,-261.94 2412.81,-251.36 2406.09,-253.33"/>
</g>
<!-- Node26 -->
<g id="node26" class="node">
<title>Node26</title>
<g id="a_node26"><a xlink:href="synthesizer_8hpp.html" target="_top" xlink:title=" ">
<polygon fill="white" stroke="black" points="2428.5,-173 2428.5,-214 2597.5,-214 2597.5,-173 2428.5,-173"/>
<text text-anchor="start" x="2436.5" y="-202" font-family="Helvetica,sans-Serif" font-size="10.00">/home/jonathan/Works</text>
<text text-anchor="start" x="2436.5" y="-191" font-family="Helvetica,sans-Serif" font-size="10.00">/Tools/Triton/src/libtriton</text>
<text text-anchor="middle" x="2513" y="-180" font-family="Helvetica,sans-Serif" font-size="10.00">/includes/triton/synthesizer.hpp</text>
</a>
</g>
</g>
<!-- Node21&#45;&gt;Node26 -->
<g id="edge28" class="edge">
<title>Node21&#45;&gt;Node26</title>
<path fill="none" stroke="midnightblue" d="M2447.2,-254.76C2461.5,-241.66 2478.43,-226.16 2491.53,-214.16"/>
<polygon fill="midnightblue" stroke="midnightblue" points="2444.57,-252.42 2439.56,-261.76 2449.3,-257.59 2444.57,-252.42"/>
</g>
<!-- Node23&#45;&gt;Node20 -->
<g id="edge26" class="edge">
<title>Node23&#45;&gt;Node20</title>
<path fill="none" stroke="midnightblue" d="M2290.89,-99.89C2155.05,-83.85 1875.26,-50.8 1746.1,-35.54"/>
<polygon fill="midnightblue" stroke="midnightblue" points="2290.87,-103.41 2301.21,-101.11 2291.69,-96.46 2290.87,-103.41"/>
</g>
<!-- Node24 -->
<g id="node24" class="node">
<title>Node24</title>
<g id="a_node24"><a xlink:href="api_8cpp.html" target="_top" xlink:title=" ">
<polygon fill="white" stroke="black" points="2377.5,-6 2377.5,-47 2510.5,-47 2510.5,-6 2377.5,-6"/>
<text text-anchor="start" x="2385.5" y="-35" font-family="Helvetica,sans-Serif" font-size="10.00">/home/jonathan/Works</text>
<text text-anchor="start" x="2385.5" y="-24" font-family="Helvetica,sans-Serif" font-size="10.00">/Tools/Triton/src/libtriton</text>
<text text-anchor="middle" x="2444" y="-13" font-family="Helvetica,sans-Serif" font-size="10.00">/api/api.cpp</text>
</a>
</g>
</g>
<!-- Node23&#45;&gt;Node24 -->
<g id="edge25" class="edge">
<title>Node23&#45;&gt;Node24</title>
<path fill="none" stroke="midnightblue" d="M2393.45,-81.71C2404.04,-70.36 2416.09,-57.43 2425.77,-47.05"/>
<polygon fill="midnightblue" stroke="midnightblue" points="2390.66,-79.57 2386.4,-89.27 2395.78,-84.34 2390.66,-79.57"/>
</g>
<!-- Node25 -->
<g id="node25" class="node">
<title>Node25</title>
<g id="a_node25"><a xlink:href="callbacks_8cpp.html" target="_top" xlink:title=" ">
<polygon fill="white" stroke="black" points="2225,-6 2225,-47 2359,-47 2359,-6 2225,-6"/>
<text text-anchor="start" x="2233" y="-35" font-family="Helvetica,sans-Serif" font-size="10.00">/home/jonathan/Works</text>
<text text-anchor="start" x="2233" y="-24" font-family="Helvetica,sans-Serif" font-size="10.00">/Tools/Triton/src/libtriton</text>
<text text-anchor="middle" x="2292" y="-13" font-family="Helvetica,sans-Serif" font-size="10.00">/callbacks/callbacks.cpp</text>
</a>
</g>
</g>
<!-- Node23&#45;&gt;Node25 -->
<g id="edge27" class="edge">
<title>Node23&#45;&gt;Node25</title>
<path fill="none" stroke="midnightblue" d="M2342.55,-81.71C2331.96,-70.36 2319.91,-57.43 2310.23,-47.05"/>
<polygon fill="midnightblue" stroke="midnightblue" points="2340.22,-84.34 2349.6,-89.27 2345.34,-79.57 2340.22,-84.34"/>
</g>
<!-- Node26&#45;&gt;Node23 -->
<g id="edge30" class="edge">
<title>Node26&#45;&gt;Node23</title>
<path fill="none" stroke="midnightblue" d="M2469.39,-167.99C2448.05,-155.99 2422.71,-141.75 2402.7,-130.5"/>
<polygon fill="midnightblue" stroke="midnightblue" points="2467.84,-171.13 2478.27,-172.98 2471.27,-165.03 2467.84,-171.13"/>
</g>
<!-- Node27 -->
<g id="node27" class="node">
<title>Node27</title>
<g id="a_node27"><a xlink:href="synthesizer_8cpp.html" target="_top" xlink:title=" ">
<polygon fill="white" stroke="black" points="2453,-89.5 2453,-130.5 2639,-130.5 2639,-89.5 2453,-89.5"/>
<text text-anchor="start" x="2461" y="-118.5" font-family="Helvetica,sans-Serif" font-size="10.00">/home/jonathan/Works</text>
<text text-anchor="start" x="2461" y="-107.5" font-family="Helvetica,sans-Serif" font-size="10.00">/Tools/Triton/src/libtriton</text>
<text text-anchor="middle" x="2546" y="-96.5" font-family="Helvetica,sans-Serif" font-size="10.00">/engines/synthesis/synthesizer.cpp</text>
</a>
</g>
</g>
<!-- Node26&#45;&gt;Node27 -->
<g id="edge29" class="edge">
<title>Node26&#45;&gt;Node27</title>
<path fill="none" stroke="midnightblue" d="M2524.85,-163.23C2529.25,-152.37 2534.12,-140.33 2538.09,-130.55"/>
<polygon fill="midnightblue" stroke="midnightblue" points="2521.5,-162.19 2520.99,-172.77 2527.99,-164.82 2521.5,-162.19"/>
</g>
<!-- Node28&#45;&gt;Node6 -->
<g id="edge32" class="edge">
<title>Node28&#45;&gt;Node6</title>
<path fill="none" stroke="midnightblue" d="M2361.17,-341.61C2331.48,-329.39 2295.56,-314.6 2267.38,-303"/>
<polygon fill="midnightblue" stroke="midnightblue" points="2359.99,-344.91 2370.57,-345.48 2362.66,-338.44 2359.99,-344.91"/>
</g>
<!-- Node28&#45;&gt;Node21 -->
<g id="edge33" class="edge">
<title>Node28&#45;&gt;Node21</title>
<path fill="none" stroke="midnightblue" d="M2418,-335.06C2418,-324.38 2418,-312.63 2418,-303.05"/>
<polygon fill="midnightblue" stroke="midnightblue" points="2414.5,-335.27 2418,-345.27 2421.5,-335.27 2414.5,-335.27"/>
</g>
<!-- Node28&#45;&gt;Node29 -->
<g id="edge34" class="edge">
<title>Node28&#45;&gt;Node29</title>
<path fill="none" stroke="midnightblue" d="M2471.53,-341.29C2498.98,-329.13 2532.01,-314.5 2557.97,-303"/>
<polygon fill="midnightblue" stroke="midnightblue" points="2469.8,-338.23 2462.07,-345.48 2472.63,-344.63 2469.8,-338.23"/>
</g>
<!-- Node29&#45;&gt;Node5 -->
<g id="edge35" class="edge">
<title>Node29&#45;&gt;Node5</title>
<path fill="none" stroke="midnightblue" d="M2632.97,-255.34C2648.58,-242.15 2667.21,-226.42 2681.61,-214.26"/>
<polygon fill="midnightblue" stroke="midnightblue" points="2630.5,-252.85 2625.12,-261.98 2635.01,-258.2 2630.5,-252.85"/>
</g>
</g>
</svg>
