<?xml version="1.0" encoding="UTF-8" standalone="no"?>
<!DOCTYPE svg PUBLIC "-//W3C//DTD SVG 1.1//EN"
 "http://www.w3.org/Graphics/SVG/1.1/DTD/svg11.dtd">
<!-- Generated by graphviz version 2.49.0 (20210828.1703)
 -->
<!-- Title: math::wide_integer::is_integral&lt; math::wide_integer::uintwide_t&lt; Width2, LimbType, AllocatorType, IsSigned &gt; &gt; Pages: 1 -->
<svg width="181pt" height="139pt"
 viewBox="0.00 0.00 181.00 139.00" xmlns="http://www.w3.org/2000/svg" xmlns:xlink="http://www.w3.org/1999/xlink">
<g id="graph0" class="graph" transform="scale(1 1) rotate(0) translate(4 135)">
<title>math::wide_integer::is_integral&lt; math::wide_integer::uintwide_t&lt; Width2, LimbType, AllocatorType, IsSigned &gt; &gt;</title>
<polygon fill="white" stroke="transparent" points="-4,4 -4,-135 177,-135 177,4 -4,4"/>
<!-- Node1 -->
<g id="node1" class="node">
<title>Node1</title>
<g id="a_node1"><a xlink:title=" ">
<polygon fill="#bfbfbf" stroke="black" points="0,-0.5 0,-63.5 173,-63.5 173,-0.5 0,-0.5"/>
<text text-anchor="start" x="8" y="-51.5" font-family="Helvetica,sans-Serif" font-size="10.00">math::wide_integer</text>
<text text-anchor="start" x="8" y="-40.5" font-family="Helvetica,sans-Serif" font-size="10.00">::is_integral&lt; math</text>
<text text-anchor="start" x="8" y="-29.5" font-family="Helvetica,sans-Serif" font-size="10.00">::wide_integer::uintwide</text>
<text text-anchor="start" x="8" y="-18.5" font-family="Helvetica,sans-Serif" font-size="10.00">_t&lt; Width2, LimbType, Allocator</text>
<text text-anchor="middle" x="86.5" y="-7.5" font-family="Helvetica,sans-Serif" font-size="10.00">Type, IsSigned &gt; &gt;</text>
</a>
</g>
</g>
<!-- Node2 -->
<g id="node2" class="node">
<title>Node2</title>
<g id="a_node2"><a xlink:title=" ">
<polygon fill="white" stroke="#bfbfbf" points="25.5,-100.5 25.5,-130.5 147.5,-130.5 147.5,-100.5 25.5,-100.5"/>
<text text-anchor="start" x="33.5" y="-118.5" font-family="Helvetica,sans-Serif" font-size="10.00">std::integral_constant</text>
<text text-anchor="middle" x="86.5" y="-107.5" font-family="Helvetica,sans-Serif" font-size="10.00">&lt; bool, true &gt;</text>
</a>
</g>
</g>
<!-- Node2&#45;&gt;Node1 -->
<g id="edge1" class="edge">
<title>Node2&#45;&gt;Node1</title>
<path fill="none" stroke="midnightblue" d="M86.5,-90.12C86.5,-81.78 86.5,-72.34 86.5,-63.57"/>
<polygon fill="midnightblue" stroke="midnightblue" points="83,-90.3 86.5,-100.3 90,-90.3 83,-90.3"/>
</g>
</g>
</svg>
