<?xml version="1.0" encoding="UTF-8" standalone="no"?>
<!DOCTYPE svg PUBLIC "-//W3C//DTD SVG 1.1//EN"
 "http://www.w3.org/Graphics/SVG/1.1/DTD/svg11.dtd">
<!-- Generated by graphviz version 7.0.0 (20221023.0053)
 -->
<!-- Title: /Users/jonathan/Works/Tools/Triton/src/libtriton/includes/triton/stubs.hpp Pages: 1 -->
<svg width="766pt" height="137pt"
 viewBox="0.00 0.00 766.00 137.00" xmlns="http://www.w3.org/2000/svg" xmlns:xlink="http://www.w3.org/1999/xlink">
<g id="graph0" class="graph" transform="scale(1 1) rotate(0) translate(4 133)">
<title>/Users/jonathan/Works/Tools/Triton/src/libtriton/includes/triton/stubs.hpp</title>
<!-- Node1 -->
<g id="node1" class="node">
<title>Node1</title>
<g id="a_node1"><a xlink:title=" ">
<polygon fill="#999999" stroke="#666666" points="438,-129 312,-129 312,-88 438,-88 438,-129"/>
<text text-anchor="start" x="320" y="-117" font-family="Helvetica,sans-Serif" font-size="10.00">/Users/jonathan/Works</text>
<text text-anchor="start" x="320" y="-106" font-family="Helvetica,sans-Serif" font-size="10.00">/Tools/Triton/src/libtriton</text>
<text text-anchor="middle" x="375" y="-95" font-family="Helvetica,sans-Serif" font-size="10.00">/includes/triton/stubs.hpp</text>
</a>
</g>
</g>
<!-- Node2 -->
<g id="node2" class="node">
<title>Node2</title>
<g id="a_node2"><a xlink:href="initStubsNamespace_8cpp.html" target="_top" xlink:title=" ">
<polygon fill="white" stroke="#666666" points="146,-52 0,-52 0,0 146,0 146,-52"/>
<text text-anchor="start" x="8" y="-40" font-family="Helvetica,sans-Serif" font-size="10.00">/Users/jonathan/Works</text>
<text text-anchor="start" x="8" y="-29" font-family="Helvetica,sans-Serif" font-size="10.00">/Tools/Triton/src/libtriton</text>
<text text-anchor="start" x="8" y="-18" font-family="Helvetica,sans-Serif" font-size="10.00">/bindings/python/namespaces</text>
<text text-anchor="middle" x="73" y="-7" font-family="Helvetica,sans-Serif" font-size="10.00">/initStubsNamespace.cpp</text>
</a>
</g>
</g>
<!-- Node1&#45;&gt;Node2 -->
<g id="edge1" class="edge">
<title>Node1&#45;&gt;Node2</title>
<path fill="none" stroke="#63b8ff" d="M300.56,-89.68C257.83,-79.21 203.25,-65.43 155,-52 152.13,-51.2 149.21,-50.38 146.27,-49.53"/>
<polygon fill="#63b8ff" stroke="#63b8ff" points="299.71,-93.07 310.25,-92.05 301.37,-86.27 299.71,-93.07"/>
</g>
<!-- Node3 -->
<g id="node3" class="node">
<title>Node3</title>
<g id="a_node3"><a xlink:href="aarch64-libc_8cpp.html" target="_top" xlink:title=" ">
<polygon fill="white" stroke="#666666" points="286,-46.5 164,-46.5 164,-5.5 286,-5.5 286,-46.5"/>
<text text-anchor="start" x="172" y="-34.5" font-family="Helvetica,sans-Serif" font-size="10.00">/Users/jonathan/Works</text>
<text text-anchor="start" x="172" y="-23.5" font-family="Helvetica,sans-Serif" font-size="10.00">/Tools/Triton/src/libtriton</text>
<text text-anchor="middle" x="225" y="-12.5" font-family="Helvetica,sans-Serif" font-size="10.00">/stubs/aarch64&#45;libc.cpp</text>
</a>
</g>
</g>
<!-- Node1&#45;&gt;Node3 -->
<g id="edge2" class="edge">
<title>Node1&#45;&gt;Node3</title>
<path fill="none" stroke="#63b8ff" d="M327.84,-82.19C306.65,-70.82 282.02,-57.6 262.17,-46.95"/>
<polygon fill="#63b8ff" stroke="#63b8ff" points="326.12,-85.24 336.59,-86.89 329.43,-79.07 326.12,-85.24"/>
</g>
<!-- Node4 -->
<g id="node4" class="node">
<title>Node4</title>
<g id="a_node4"><a xlink:href="i386-systemv-libc_8cpp.html" target="_top" xlink:title=" ">
<polygon fill="white" stroke="#666666" points="446,-46.5 304,-46.5 304,-5.5 446,-5.5 446,-46.5"/>
<text text-anchor="start" x="312" y="-34.5" font-family="Helvetica,sans-Serif" font-size="10.00">/Users/jonathan/Works</text>
<text text-anchor="start" x="312" y="-23.5" font-family="Helvetica,sans-Serif" font-size="10.00">/Tools/Triton/src/libtriton</text>
<text text-anchor="middle" x="375" y="-12.5" font-family="Helvetica,sans-Serif" font-size="10.00">/stubs/i386&#45;systemv&#45;libc.cpp</text>
</a>
</g>
</g>
<!-- Node1&#45;&gt;Node4 -->
<g id="edge3" class="edge">
<title>Node1&#45;&gt;Node4</title>
<path fill="none" stroke="#63b8ff" d="M375,-76.16C375,-66.33 375,-55.76 375,-46.95"/>
<polygon fill="#63b8ff" stroke="#63b8ff" points="371.5,-76.09 375,-86.09 378.5,-76.09 371.5,-76.09"/>
</g>
<!-- Node5 -->
<g id="node5" class="node">
<title>Node5</title>
<g id="a_node5"><a xlink:href="x8664-ms-libc_8cpp.html" target="_top" xlink:title=" ">
<polygon fill="white" stroke="#666666" points="590,-46.5 464,-46.5 464,-5.5 590,-5.5 590,-46.5"/>
<text text-anchor="start" x="472" y="-34.5" font-family="Helvetica,sans-Serif" font-size="10.00">/Users/jonathan/Works</text>
<text text-anchor="start" x="472" y="-23.5" font-family="Helvetica,sans-Serif" font-size="10.00">/Tools/Triton/src/libtriton</text>
<text text-anchor="middle" x="527" y="-12.5" font-family="Helvetica,sans-Serif" font-size="10.00">/stubs/x8664&#45;ms&#45;libc.cpp</text>
</a>
</g>
</g>
<!-- Node1&#45;&gt;Node5 -->
<g id="edge4" class="edge">
<title>Node1&#45;&gt;Node5</title>
<path fill="none" stroke="#63b8ff" d="M422.5,-82.34C444.03,-70.94 469.13,-57.65 489.33,-46.95"/>
<polygon fill="#63b8ff" stroke="#63b8ff" points="421.11,-79.12 413.91,-86.89 424.39,-85.31 421.11,-79.12"/>
</g>
<!-- Node6 -->
<g id="node6" class="node">
<title>Node6</title>
<g id="a_node6"><a xlink:href="x8664-systemv-libc_8cpp.html" target="_top" xlink:title=" ">
<polygon fill="white" stroke="#666666" points="758,-46.5 608,-46.5 608,-5.5 758,-5.5 758,-46.5"/>
<text text-anchor="start" x="616" y="-34.5" font-family="Helvetica,sans-Serif" font-size="10.00">/Users/jonathan/Works</text>
<text text-anchor="start" x="616" y="-23.5" font-family="Helvetica,sans-Serif" font-size="10.00">/Tools/Triton/src/libtriton</text>
<text text-anchor="middle" x="683" y="-12.5" font-family="Helvetica,sans-Serif" font-size="10.00">/stubs/x8664&#45;systemv&#45;libc.cpp</text>
</a>
</g>
</g>
<!-- Node1&#45;&gt;Node6 -->
<g id="edge5" class="edge">
<title>Node1&#45;&gt;Node6</title>
<path fill="none" stroke="#63b8ff" d="M449.55,-89.94C493.23,-79.43 549.39,-65.52 599,-52 604.87,-50.4 610.96,-48.69 617.05,-46.94"/>
<polygon fill="#63b8ff" stroke="#63b8ff" points="448.82,-86.52 439.92,-92.26 450.46,-93.33 448.82,-86.52"/>
</g>
</g>
</svg>
