<?xml version="1.0" encoding="UTF-8" standalone="no"?>
<!DOCTYPE svg PUBLIC "-//W3C//DTD SVG 1.1//EN"
 "http://www.w3.org/Graphics/SVG/1.1/DTD/svg11.dtd">
<!-- Generated by graphviz version 9.0.0 (20230911.1827)
 -->
<!-- Title: /Users/jonathan/Works/Tools/Triton/src/libtriton/includes/triton/stubs.hpp Pages: 1 -->
<svg width="763pt" height="139pt"
 viewBox="0.00 0.00 762.62 138.75" xmlns="http://www.w3.org/2000/svg" xmlns:xlink="http://www.w3.org/1999/xlink">
<g id="graph0" class="graph" transform="scale(1 1) rotate(0) translate(4 134.75)">
<title>/Users/jonathan/Works/Tools/Triton/src/libtriton/includes/triton/stubs.hpp</title>
<!-- Node1 -->
<g id="Node000001" class="node">
<title>Node1</title>
<g id="a_Node000001"><a xlink:title=" ">
<polygon fill="#999999" stroke="#666666" points="435.62,-130.75 310.12,-130.75 310.12,-89 435.62,-89 435.62,-130.75"/>
<text text-anchor="start" x="318.12" y="-117.25" font-family="Helvetica,sans-Serif" font-size="10.00">/Users/jonathan/Works</text>
<text text-anchor="start" x="318.12" y="-106" font-family="Helvetica,sans-Serif" font-size="10.00">/Tools/Triton/src/libtriton</text>
<text text-anchor="middle" x="372.88" y="-94.75" font-family="Helvetica,sans-Serif" font-size="10.00">/includes/triton/stubs.hpp</text>
</a>
</g>
</g>
<!-- Node2 -->
<g id="Node000002" class="node">
<title>Node2</title>
<g id="a_Node000002"><a xlink:href="initStubsNamespace_8cpp.html" target="_top" xlink:title=" ">
<polygon fill="white" stroke="#666666" points="145.75,-53 0,-53 0,0 145.75,0 145.75,-53"/>
<text text-anchor="start" x="8" y="-39.5" font-family="Helvetica,sans-Serif" font-size="10.00">/Users/jonathan/Works</text>
<text text-anchor="start" x="8" y="-28.25" font-family="Helvetica,sans-Serif" font-size="10.00">/Tools/Triton/src/libtriton</text>
<text text-anchor="start" x="8" y="-17" font-family="Helvetica,sans-Serif" font-size="10.00">/bindings/python/namespaces</text>
<text text-anchor="middle" x="72.88" y="-5.75" font-family="Helvetica,sans-Serif" font-size="10.00">/initStubsNamespace.cpp</text>
</a>
</g>
</g>
<!-- Node1&#45;&gt;Node2 -->
<g id="edge1_Node000001_Node000002" class="edge">
<title>Node1&#45;&gt;Node2</title>
<g id="a_edge1_Node000001_Node000002"><a xlink:title=" ">
<path fill="none" stroke="#63b8ff" d="M298.74,-91.04C256.19,-80.54 201.86,-66.66 153.88,-53 151.32,-52.27 148.73,-51.52 146.11,-50.76"/>
<polygon fill="#63b8ff" stroke="#63b8ff" points="297.84,-94.42 308.38,-93.41 299.51,-87.62 297.84,-94.42"/>
</a>
</g>
</g>
<!-- Node3 -->
<g id="Node000003" class="node">
<title>Node3</title>
<g id="a_Node000003"><a xlink:href="aarch64-libc_8cpp.html" target="_top" xlink:title=" ">
<polygon fill="white" stroke="#666666" points="284.38,-47.38 163.38,-47.38 163.38,-5.62 284.38,-5.62 284.38,-47.38"/>
<text text-anchor="start" x="171.38" y="-33.88" font-family="Helvetica,sans-Serif" font-size="10.00">/Users/jonathan/Works</text>
<text text-anchor="start" x="171.38" y="-22.62" font-family="Helvetica,sans-Serif" font-size="10.00">/Tools/Triton/src/libtriton</text>
<text text-anchor="middle" x="223.88" y="-11.38" font-family="Helvetica,sans-Serif" font-size="10.00">/stubs/aarch64&#45;libc.cpp</text>
</a>
</g>
</g>
<!-- Node1&#45;&gt;Node3 -->
<g id="edge2_Node000001_Node000003" class="edge">
<title>Node1&#45;&gt;Node3</title>
<g id="a_edge2_Node000001_Node000003"><a xlink:title=" ">
<path fill="none" stroke="#63b8ff" d="M325.72,-83.12C304.87,-71.73 280.69,-58.53 261.13,-47.85"/>
<polygon fill="#63b8ff" stroke="#63b8ff" points="323.88,-86.1 334.33,-87.83 327.23,-79.96 323.88,-86.1"/>
</a>
</g>
</g>
<!-- Node4 -->
<g id="Node000004" class="node">
<title>Node4</title>
<g id="a_Node000004"><a xlink:href="i386-systemv-libc_8cpp.html" target="_top" xlink:title=" ">
<polygon fill="white" stroke="#666666" points="443.5,-47.38 302.25,-47.38 302.25,-5.62 443.5,-5.62 443.5,-47.38"/>
<text text-anchor="start" x="310.25" y="-33.88" font-family="Helvetica,sans-Serif" font-size="10.00">/Users/jonathan/Works</text>
<text text-anchor="start" x="310.25" y="-22.62" font-family="Helvetica,sans-Serif" font-size="10.00">/Tools/Triton/src/libtriton</text>
<text text-anchor="middle" x="372.88" y="-11.38" font-family="Helvetica,sans-Serif" font-size="10.00">/stubs/i386&#45;systemv&#45;libc.cpp</text>
</a>
</g>
</g>
<!-- Node1&#45;&gt;Node4 -->
<g id="edge3_Node000001_Node000004" class="edge">
<title>Node1&#45;&gt;Node4</title>
<g id="a_edge3_Node000001_Node000004"><a xlink:title=" ">
<path fill="none" stroke="#63b8ff" d="M372.88,-77.52C372.88,-67.49 372.88,-56.67 372.88,-47.67"/>
<polygon fill="#63b8ff" stroke="#63b8ff" points="369.38,-77.25 372.88,-87.25 376.38,-77.25 369.38,-77.25"/>
</a>
</g>
</g>
<!-- Node5 -->
<g id="Node000005" class="node">
<title>Node5</title>
<g id="a_Node000005"><a xlink:href="x8664-ms-libc_8cpp.html" target="_top" xlink:title=" ">
<polygon fill="white" stroke="#666666" points="586.62,-47.38 461.12,-47.38 461.12,-5.62 586.62,-5.62 586.62,-47.38"/>
<text text-anchor="start" x="469.12" y="-33.88" font-family="Helvetica,sans-Serif" font-size="10.00">/Users/jonathan/Works</text>
<text text-anchor="start" x="469.12" y="-22.62" font-family="Helvetica,sans-Serif" font-size="10.00">/Tools/Triton/src/libtriton</text>
<text text-anchor="middle" x="523.88" y="-11.38" font-family="Helvetica,sans-Serif" font-size="10.00">/stubs/x8664&#45;ms&#45;libc.cpp</text>
</a>
</g>
</g>
<!-- Node1&#45;&gt;Node5 -->
<g id="edge4_Node000001_Node000005" class="edge">
<title>Node1&#45;&gt;Node5</title>
<g id="a_edge4_Node000001_Node000005"><a xlink:title=" ">
<path fill="none" stroke="#63b8ff" d="M420.66,-83.12C441.79,-71.73 466.29,-58.53 486.12,-47.85"/>
<polygon fill="#63b8ff" stroke="#63b8ff" points="419.06,-80.01 411.92,-87.83 422.39,-86.17 419.06,-80.01"/>
</a>
</g>
</g>
<!-- Node6 -->
<g id="Node000006" class="node">
<title>Node6</title>
<g id="a_Node000006"><a xlink:href="x8664-systemv-libc_8cpp.html" target="_top" xlink:title=" ">
<polygon fill="white" stroke="#666666" points="754.62,-47.38 605.12,-47.38 605.12,-5.62 754.62,-5.62 754.62,-47.38"/>
<text text-anchor="start" x="613.12" y="-33.88" font-family="Helvetica,sans-Serif" font-size="10.00">/Users/jonathan/Works</text>
<text text-anchor="start" x="613.12" y="-22.62" font-family="Helvetica,sans-Serif" font-size="10.00">/Tools/Triton/src/libtriton</text>
<text text-anchor="middle" x="679.88" y="-11.38" font-family="Helvetica,sans-Serif" font-size="10.00">/stubs/x8664&#45;systemv&#45;libc.cpp</text>
</a>
</g>
</g>
<!-- Node1&#45;&gt;Node6 -->
<g id="edge5_Node000001_Node000006" class="edge">
<title>Node1&#45;&gt;Node6</title>
<g id="a_edge5_Node000001_Node000006"><a xlink:title=" ">
<path fill="none" stroke="#63b8ff" d="M447.11,-91.24C490.6,-80.67 546.51,-66.67 595.88,-53 601.75,-51.37 607.84,-49.63 613.93,-47.85"/>
<polygon fill="#63b8ff" stroke="#63b8ff" points="446.42,-87.81 437.52,-93.57 448.07,-94.61 446.42,-87.81"/>
</a>
</g>
</g>
</g>
</svg>
