<?xml version="1.0" encoding="UTF-8" standalone="no"?>
<!DOCTYPE svg PUBLIC "-//W3C//DTD SVG 1.1//EN"
 "http://www.w3.org/Graphics/SVG/1.1/DTD/svg11.dtd">
<!-- Generated by graphviz version 2.50.0 (20211204.2007)
 -->
<!-- Title: /home/jonathan/Works/Tools/Triton/src/libtriton/includes/triton/symbolicSimplification.hpp Pages: 1 -->
<svg width="2090pt" height="529pt"
 viewBox="0.00 0.00 2090.00 529.00" xmlns="http://www.w3.org/2000/svg" xmlns:xlink="http://www.w3.org/1999/xlink">
<g id="graph0" class="graph" transform="scale(1 1) rotate(0) translate(4 525)">
<title>/home/jonathan/Works/Tools/Triton/src/libtriton/includes/triton/symbolicSimplification.hpp</title>
<polygon fill="white" stroke="transparent" points="-4,4 -4,-525 2086,-525 2086,4 -4,4"/>
<!-- Node1 -->
<g id="node1" class="node">
<title>Node1</title>
<g id="a_node1"><a xlink:title=" ">
<polygon fill="#bfbfbf" stroke="black" points="356,-479.5 356,-520.5 580,-520.5 580,-479.5 356,-479.5"/>
<text text-anchor="start" x="364" y="-508.5" font-family="Helvetica,sans-Serif" font-size="10.00">/home/jonathan/Works</text>
<text text-anchor="start" x="364" y="-497.5" font-family="Helvetica,sans-Serif" font-size="10.00">/Tools/Triton/src/libtriton</text>
<text text-anchor="middle" x="468" y="-486.5" font-family="Helvetica,sans-Serif" font-size="10.00">/includes/triton/symbolicSimplification.hpp</text>
</a>
</g>
</g>
<!-- Node2 -->
<g id="node2" class="node">
<title>Node2</title>
<g id="a_node2"><a xlink:href="symbolicSimplification_8cpp.html" target="_top" xlink:title=" ">
<polygon fill="white" stroke="black" points="28.5,-84 28.5,-125 267.5,-125 267.5,-84 28.5,-84"/>
<text text-anchor="start" x="36.5" y="-113" font-family="Helvetica,sans-Serif" font-size="10.00">/home/jonathan/Works</text>
<text text-anchor="start" x="36.5" y="-102" font-family="Helvetica,sans-Serif" font-size="10.00">/Tools/Triton/src/libtriton</text>
<text text-anchor="middle" x="148" y="-91" font-family="Helvetica,sans-Serif" font-size="10.00">/engines/symbolic/symbolicSimplification.cpp</text>
</a>
</g>
</g>
<!-- Node1&#45;&gt;Node2 -->
<g id="edge1" class="edge">
<title>Node1&#45;&gt;Node2</title>
<path fill="none" stroke="midnightblue" d="M345.62,-483.24C206.96,-461.88 0,-417.81 0,-345 0,-345 0,-345 0,-265 0,-200.4 66.03,-150.94 109.89,-125.21"/>
<polygon fill="midnightblue" stroke="midnightblue" points="345.49,-486.76 355.9,-484.81 346.54,-479.84 345.49,-486.76"/>
</g>
<!-- Node3 -->
<g id="node3" class="node">
<title>Node3</title>
<g id="a_node3"><a xlink:href="symbolicEngine_8hpp.html" target="_top" xlink:title=" ">
<polygon fill="white" stroke="black" points="840.5,-401.5 840.5,-442.5 1031.5,-442.5 1031.5,-401.5 840.5,-401.5"/>
<text text-anchor="start" x="848.5" y="-430.5" font-family="Helvetica,sans-Serif" font-size="10.00">/home/jonathan/Works</text>
<text text-anchor="start" x="848.5" y="-419.5" font-family="Helvetica,sans-Serif" font-size="10.00">/Tools/Triton/src/libtriton</text>
<text text-anchor="middle" x="936" y="-408.5" font-family="Helvetica,sans-Serif" font-size="10.00">/includes/triton/symbolicEngine.hpp</text>
</a>
</g>
</g>
<!-- Node1&#45;&gt;Node3 -->
<g id="edge2" class="edge">
<title>Node1&#45;&gt;Node3</title>
<path fill="none" stroke="midnightblue" d="M589.99,-479.19C668.05,-466.51 767.89,-450.3 840.23,-438.55"/>
<polygon fill="midnightblue" stroke="midnightblue" points="589.41,-475.74 580.1,-480.8 590.53,-482.65 589.41,-475.74"/>
</g>
<!-- Node4 -->
<g id="node4" class="node">
<title>Node4</title>
<g id="a_node4"><a xlink:href="symbolicEngine_8cpp.html" target="_top" xlink:title=" ">
<polygon fill="white" stroke="black" points="833,-323.5 833,-364.5 1039,-364.5 1039,-323.5 833,-323.5"/>
<text text-anchor="start" x="841" y="-352.5" font-family="Helvetica,sans-Serif" font-size="10.00">/home/jonathan/Works</text>
<text text-anchor="start" x="841" y="-341.5" font-family="Helvetica,sans-Serif" font-size="10.00">/Tools/Triton/src/libtriton</text>
<text text-anchor="middle" x="936" y="-330.5" font-family="Helvetica,sans-Serif" font-size="10.00">/engines/symbolic/symbolicEngine.cpp</text>
</a>
</g>
</g>
<!-- Node3&#45;&gt;Node4 -->
<g id="edge3" class="edge">
<title>Node3&#45;&gt;Node4</title>
<path fill="none" stroke="midnightblue" d="M936,-391.3C936,-382.3 936,-372.65 936,-364.51"/>
<polygon fill="midnightblue" stroke="midnightblue" points="932.5,-391.43 936,-401.43 939.5,-391.43 932.5,-391.43"/>
</g>
<!-- Node5 -->
<g id="node5" class="node">
<title>Node5</title>
<g id="a_node5"><a xlink:href="aarch64Semantics_8hpp.html" target="_top" xlink:title=" ">
<polygon fill="white" stroke="black" points="1465.5,-245.5 1465.5,-286.5 1668.5,-286.5 1668.5,-245.5 1465.5,-245.5"/>
<text text-anchor="start" x="1473.5" y="-274.5" font-family="Helvetica,sans-Serif" font-size="10.00">/home/jonathan/Works</text>
<text text-anchor="start" x="1473.5" y="-263.5" font-family="Helvetica,sans-Serif" font-size="10.00">/Tools/Triton/src/libtriton</text>
<text text-anchor="middle" x="1567" y="-252.5" font-family="Helvetica,sans-Serif" font-size="10.00">/includes/triton/aarch64Semantics.hpp</text>
</a>
</g>
</g>
<!-- Node3&#45;&gt;Node5 -->
<g id="edge4" class="edge">
<title>Node3&#45;&gt;Node5</title>
<path fill="none" stroke="midnightblue" d="M1041.74,-417.39C1172.54,-411.6 1386.78,-397.4 1459,-365 1498.27,-347.38 1533.01,-309.95 1551.92,-286.78"/>
<polygon fill="midnightblue" stroke="midnightblue" points="1041.53,-413.9 1031.69,-417.83 1041.83,-420.89 1041.53,-413.9"/>
</g>
<!-- Node8 -->
<g id="node8" class="node">
<title>Node8</title>
<g id="a_node8"><a xlink:href="api_8hpp.html" target="_top" xlink:title=" ">
<polygon fill="white" stroke="black" points="757.5,-167.5 757.5,-208.5 890.5,-208.5 890.5,-167.5 757.5,-167.5"/>
<text text-anchor="start" x="765.5" y="-196.5" font-family="Helvetica,sans-Serif" font-size="10.00">/home/jonathan/Works</text>
<text text-anchor="start" x="765.5" y="-185.5" font-family="Helvetica,sans-Serif" font-size="10.00">/Tools/Triton/src/libtriton</text>
<text text-anchor="middle" x="824" y="-174.5" font-family="Helvetica,sans-Serif" font-size="10.00">/includes/triton/api.hpp</text>
</a>
</g>
</g>
<!-- Node3&#45;&gt;Node8 -->
<g id="edge7" class="edge">
<title>Node3&#45;&gt;Node8</title>
<path fill="none" stroke="midnightblue" d="M858.69,-396.63C844.9,-388.74 832.3,-378.43 824,-365 793.64,-315.87 808.11,-243.36 817.76,-208.76"/>
<polygon fill="midnightblue" stroke="midnightblue" points="857.41,-399.91 867.89,-401.47 860.67,-393.72 857.41,-399.91"/>
</g>
<!-- Node15 -->
<g id="node15" class="node">
<title>Node15</title>
<g id="a_node15"><a xlink:href="arm32Semantics_8hpp.html" target="_top" xlink:title=" ">
<polygon fill="white" stroke="black" points="1686,-245.5 1686,-286.5 1882,-286.5 1882,-245.5 1686,-245.5"/>
<text text-anchor="start" x="1694" y="-274.5" font-family="Helvetica,sans-Serif" font-size="10.00">/home/jonathan/Works</text>
<text text-anchor="start" x="1694" y="-263.5" font-family="Helvetica,sans-Serif" font-size="10.00">/Tools/Triton/src/libtriton</text>
<text text-anchor="middle" x="1784" y="-252.5" font-family="Helvetica,sans-Serif" font-size="10.00">/includes/triton/arm32Semantics.hpp</text>
</a>
</g>
</g>
<!-- Node3&#45;&gt;Node15 -->
<g id="edge15" class="edge">
<title>Node3&#45;&gt;Node15</title>
<path fill="none" stroke="midnightblue" d="M1041.82,-418.03C1156.61,-413.08 1344.65,-399.91 1503,-365 1588.52,-346.14 1683.98,-309.3 1738.73,-286.55"/>
<polygon fill="midnightblue" stroke="midnightblue" points="1041.48,-414.54 1031.64,-418.45 1041.77,-421.53 1041.48,-414.54"/>
</g>
<!-- Node17 -->
<g id="node17" class="node">
<title>Node17</title>
<g id="a_node17"><a xlink:href="irBuilder_8hpp.html" target="_top" xlink:title=" ">
<polygon fill="white" stroke="black" points="1075,-245.5 1075,-286.5 1229,-286.5 1229,-245.5 1075,-245.5"/>
<text text-anchor="start" x="1083" y="-274.5" font-family="Helvetica,sans-Serif" font-size="10.00">/home/jonathan/Works</text>
<text text-anchor="start" x="1083" y="-263.5" font-family="Helvetica,sans-Serif" font-size="10.00">/Tools/Triton/src/libtriton</text>
<text text-anchor="middle" x="1152" y="-252.5" font-family="Helvetica,sans-Serif" font-size="10.00">/includes/triton/irBuilder.hpp</text>
</a>
</g>
</g>
<!-- Node3&#45;&gt;Node17 -->
<g id="edge18" class="edge">
<title>Node3&#45;&gt;Node17</title>
<path fill="none" stroke="midnightblue" d="M1041.74,-415.19C1117.57,-408.56 1210.51,-394.51 1235,-365 1246.92,-350.64 1243.76,-339.48 1235,-323 1226.76,-307.5 1212.1,-295.51 1197.37,-286.68"/>
<polygon fill="midnightblue" stroke="midnightblue" points="1041.31,-411.72 1031.64,-416.04 1041.89,-418.69 1041.31,-411.72"/>
</g>
<!-- Node18 -->
<g id="node18" class="node">
<title>Node18</title>
<g id="a_node18"><a xlink:href="liftingEngine_8hpp.html" target="_top" xlink:title=" ">
<polygon fill="white" stroke="black" points="415,-245.5 415,-286.5 589,-286.5 589,-245.5 415,-245.5"/>
<text text-anchor="start" x="423" y="-274.5" font-family="Helvetica,sans-Serif" font-size="10.00">/home/jonathan/Works</text>
<text text-anchor="start" x="423" y="-263.5" font-family="Helvetica,sans-Serif" font-size="10.00">/Tools/Triton/src/libtriton</text>
<text text-anchor="middle" x="502" y="-252.5" font-family="Helvetica,sans-Serif" font-size="10.00">/includes/triton/liftingEngine.hpp</text>
</a>
</g>
</g>
<!-- Node3&#45;&gt;Node18 -->
<g id="edge21" class="edge">
<title>Node3&#45;&gt;Node18</title>
<path fill="none" stroke="midnightblue" d="M830.31,-411.27C745.92,-402.1 635.49,-386.54 596,-365 573.9,-352.95 575.35,-341.24 558,-323 546.34,-310.75 532.96,-297.34 522.2,-286.72"/>
<polygon fill="midnightblue" stroke="midnightblue" points="830.15,-414.77 840.46,-412.35 830.89,-407.81 830.15,-414.77"/>
</g>
<!-- Node19 -->
<g id="node19" class="node">
<title>Node19</title>
<g id="a_node19"><a xlink:href="liftingToDot_8hpp.html" target="_top" xlink:title=" ">
<polygon fill="white" stroke="black" points="177.5,-323.5 177.5,-364.5 346.5,-364.5 346.5,-323.5 177.5,-323.5"/>
<text text-anchor="start" x="185.5" y="-352.5" font-family="Helvetica,sans-Serif" font-size="10.00">/home/jonathan/Works</text>
<text text-anchor="start" x="185.5" y="-341.5" font-family="Helvetica,sans-Serif" font-size="10.00">/Tools/Triton/src/libtriton</text>
<text text-anchor="middle" x="262" y="-330.5" font-family="Helvetica,sans-Serif" font-size="10.00">/includes/triton/liftingToDot.hpp</text>
</a>
</g>
</g>
<!-- Node3&#45;&gt;Node19 -->
<g id="edge23" class="edge">
<title>Node3&#45;&gt;Node19</title>
<path fill="none" stroke="midnightblue" d="M830.46,-414.51C713.69,-406.48 520.17,-390.63 355,-365 352.23,-364.57 349.41,-364.11 346.57,-363.62"/>
<polygon fill="midnightblue" stroke="midnightblue" points="830.26,-418.01 840.47,-415.2 830.73,-411.02 830.26,-418.01"/>
</g>
<!-- Node21 -->
<g id="node21" class="node">
<title>Node21</title>
<g id="a_node21"><a xlink:href="liftingToPython_8hpp.html" target="_top" xlink:title=" ">
<polygon fill="white" stroke="black" points="364.5,-323.5 364.5,-364.5 549.5,-364.5 549.5,-323.5 364.5,-323.5"/>
<text text-anchor="start" x="372.5" y="-352.5" font-family="Helvetica,sans-Serif" font-size="10.00">/home/jonathan/Works</text>
<text text-anchor="start" x="372.5" y="-341.5" font-family="Helvetica,sans-Serif" font-size="10.00">/Tools/Triton/src/libtriton</text>
<text text-anchor="middle" x="457" y="-330.5" font-family="Helvetica,sans-Serif" font-size="10.00">/includes/triton/liftingToPython.hpp</text>
</a>
</g>
</g>
<!-- Node3&#45;&gt;Node21 -->
<g id="edge26" class="edge">
<title>Node3&#45;&gt;Node21</title>
<path fill="none" stroke="midnightblue" d="M830.5,-406.24C755.71,-395.51 653.06,-380.25 563,-365 558.66,-364.27 554.23,-363.5 549.75,-362.71"/>
<polygon fill="midnightblue" stroke="midnightblue" points="830.01,-409.7 840.4,-407.65 831,-402.77 830.01,-409.7"/>
</g>
<!-- Node23 -->
<g id="node23" class="node">
<title>Node23</title>
<g id="a_node23"><a xlink:href="liftingToSMT_8hpp.html" target="_top" xlink:title=" ">
<polygon fill="white" stroke="black" points="605,-323.5 605,-364.5 777,-364.5 777,-323.5 605,-323.5"/>
<text text-anchor="start" x="613" y="-352.5" font-family="Helvetica,sans-Serif" font-size="10.00">/home/jonathan/Works</text>
<text text-anchor="start" x="613" y="-341.5" font-family="Helvetica,sans-Serif" font-size="10.00">/Tools/Triton/src/libtriton</text>
<text text-anchor="middle" x="691" y="-330.5" font-family="Helvetica,sans-Serif" font-size="10.00">/includes/triton/liftingToSMT.hpp</text>
</a>
</g>
</g>
<!-- Node3&#45;&gt;Node23 -->
<g id="edge29" class="edge">
<title>Node3&#45;&gt;Node23</title>
<path fill="none" stroke="midnightblue" d="M863.28,-398.44C828.51,-387.66 787.28,-374.87 753.88,-364.51"/>
<polygon fill="midnightblue" stroke="midnightblue" points="862.32,-401.81 872.91,-401.43 864.39,-395.12 862.32,-401.81"/>
</g>
<!-- Node25 -->
<g id="node25" class="node">
<title>Node25</title>
<g id="a_node25"><a xlink:href="synthesizer_8hpp.html" target="_top" xlink:title=" ">
<polygon fill="white" stroke="black" points="1057.5,-323.5 1057.5,-364.5 1226.5,-364.5 1226.5,-323.5 1057.5,-323.5"/>
<text text-anchor="start" x="1065.5" y="-352.5" font-family="Helvetica,sans-Serif" font-size="10.00">/home/jonathan/Works</text>
<text text-anchor="start" x="1065.5" y="-341.5" font-family="Helvetica,sans-Serif" font-size="10.00">/Tools/Triton/src/libtriton</text>
<text text-anchor="middle" x="1142" y="-330.5" font-family="Helvetica,sans-Serif" font-size="10.00">/includes/triton/synthesizer.hpp</text>
</a>
</g>
</g>
<!-- Node3&#45;&gt;Node25 -->
<g id="edge32" class="edge">
<title>Node3&#45;&gt;Node25</title>
<path fill="none" stroke="midnightblue" d="M998.65,-397.89C1027.57,-387.22 1061.52,-374.69 1089.13,-364.51"/>
<polygon fill="midnightblue" stroke="midnightblue" points="997.22,-394.68 989.05,-401.43 999.64,-401.25 997.22,-394.68"/>
</g>
<!-- Node27 -->
<g id="node27" class="node">
<title>Node27</title>
<g id="a_node27"><a xlink:href="taintEngine_8hpp.html" target="_top" xlink:title=" ">
<polygon fill="white" stroke="black" points="1281.5,-323.5 1281.5,-364.5 1450.5,-364.5 1450.5,-323.5 1281.5,-323.5"/>
<text text-anchor="start" x="1289.5" y="-352.5" font-family="Helvetica,sans-Serif" font-size="10.00">/home/jonathan/Works</text>
<text text-anchor="start" x="1289.5" y="-341.5" font-family="Helvetica,sans-Serif" font-size="10.00">/Tools/Triton/src/libtriton</text>
<text text-anchor="middle" x="1366" y="-330.5" font-family="Helvetica,sans-Serif" font-size="10.00">/includes/triton/taintEngine.hpp</text>
</a>
</g>
</g>
<!-- Node3&#45;&gt;Node27 -->
<g id="edge35" class="edge">
<title>Node3&#45;&gt;Node27</title>
<path fill="none" stroke="midnightblue" d="M1041.58,-404.14C1106.9,-393.47 1192.43,-379.08 1268,-365 1272.35,-364.19 1276.81,-363.34 1281.31,-362.47"/>
<polygon fill="midnightblue" stroke="midnightblue" points="1040.99,-400.69 1031.68,-405.75 1042.11,-407.6 1040.99,-400.69"/>
</g>
<!-- Node29 -->
<g id="node29" class="node">
<title>Node29</title>
<g id="a_node29"><a xlink:href="x86Semantics_8hpp.html" target="_top" xlink:title=" ">
<polygon fill="white" stroke="black" points="1900,-245.5 1900,-286.5 2082,-286.5 2082,-245.5 1900,-245.5"/>
<text text-anchor="start" x="1908" y="-274.5" font-family="Helvetica,sans-Serif" font-size="10.00">/home/jonathan/Works</text>
<text text-anchor="start" x="1908" y="-263.5" font-family="Helvetica,sans-Serif" font-size="10.00">/Tools/Triton/src/libtriton</text>
<text text-anchor="middle" x="1991" y="-252.5" font-family="Helvetica,sans-Serif" font-size="10.00">/includes/triton/x86Semantics.hpp</text>
</a>
</g>
</g>
<!-- Node3&#45;&gt;Node29 -->
<g id="edge44" class="edge">
<title>Node3&#45;&gt;Node29</title>
<path fill="none" stroke="midnightblue" d="M1041.89,-416.88C1171.4,-410.7 1396.96,-396.24 1588,-365 1707.91,-345.39 1844.85,-309.05 1924.26,-286.56"/>
<polygon fill="midnightblue" stroke="midnightblue" points="1041.41,-413.4 1031.58,-417.37 1041.74,-420.39 1041.41,-413.4"/>
</g>
<!-- Node6 -->
<g id="node6" class="node">
<title>Node6</title>
<g id="a_node6"><a xlink:href="aarch64Semantics_8cpp.html" target="_top" xlink:title=" ">
<polygon fill="white" stroke="black" points="1300,-167.5 1300,-208.5 1518,-208.5 1518,-167.5 1300,-167.5"/>
<text text-anchor="start" x="1308" y="-196.5" font-family="Helvetica,sans-Serif" font-size="10.00">/home/jonathan/Works</text>
<text text-anchor="start" x="1308" y="-185.5" font-family="Helvetica,sans-Serif" font-size="10.00">/Tools/Triton/src/libtriton</text>
<text text-anchor="middle" x="1409" y="-174.5" font-family="Helvetica,sans-Serif" font-size="10.00">/arch/arm/aarch64/aarch64Semantics.cpp</text>
</a>
</g>
</g>
<!-- Node5&#45;&gt;Node6 -->
<g id="edge5" class="edge">
<title>Node5&#45;&gt;Node6</title>
<path fill="none" stroke="midnightblue" d="M1517.21,-241.05C1495.41,-230.57 1470.17,-218.42 1449.55,-208.51"/>
<polygon fill="midnightblue" stroke="midnightblue" points="1515.78,-244.25 1526.31,-245.43 1518.82,-237.94 1515.78,-244.25"/>
</g>
<!-- Node7 -->
<g id="node7" class="node">
<title>Node7</title>
<g id="a_node7"><a xlink:href="irBuilder_8cpp.html" target="_top" xlink:title=" ">
<polygon fill="white" stroke="black" points="1536.5,-167.5 1536.5,-208.5 1669.5,-208.5 1669.5,-167.5 1536.5,-167.5"/>
<text text-anchor="start" x="1544.5" y="-196.5" font-family="Helvetica,sans-Serif" font-size="10.00">/home/jonathan/Works</text>
<text text-anchor="start" x="1544.5" y="-185.5" font-family="Helvetica,sans-Serif" font-size="10.00">/Tools/Triton/src/libtriton</text>
<text text-anchor="middle" x="1603" y="-174.5" font-family="Helvetica,sans-Serif" font-size="10.00">/arch/irBuilder.cpp</text>
</a>
</g>
</g>
<!-- Node5&#45;&gt;Node7 -->
<g id="edge6" class="edge">
<title>Node5&#45;&gt;Node7</title>
<path fill="none" stroke="midnightblue" d="M1580.65,-236.17C1585.03,-226.93 1589.78,-216.92 1593.76,-208.51"/>
<polygon fill="midnightblue" stroke="midnightblue" points="1577.39,-234.89 1576.27,-245.43 1583.71,-237.89 1577.39,-234.89"/>
</g>
<!-- Node8&#45;&gt;Node2 -->
<g id="edge11" class="edge">
<title>Node8&#45;&gt;Node2</title>
<path fill="none" stroke="midnightblue" d="M747.38,-177.76C630.35,-163.65 406.11,-136.62 267.55,-119.91"/>
<polygon fill="midnightblue" stroke="midnightblue" points="746.99,-181.24 757.33,-178.96 747.82,-174.29 746.99,-181.24"/>
</g>
<!-- Node9 -->
<g id="node9" class="node">
<title>Node9</title>
<g id="a_node9"><a xlink:href="api_8cpp.html" target="_top" xlink:title=" ">
<polygon fill="white" stroke="black" points="681.5,-84 681.5,-125 814.5,-125 814.5,-84 681.5,-84"/>
<text text-anchor="start" x="689.5" y="-113" font-family="Helvetica,sans-Serif" font-size="10.00">/home/jonathan/Works</text>
<text text-anchor="start" x="689.5" y="-102" font-family="Helvetica,sans-Serif" font-size="10.00">/Tools/Triton/src/libtriton</text>
<text text-anchor="middle" x="748" y="-91" font-family="Helvetica,sans-Serif" font-size="10.00">/api/api.cpp</text>
</a>
</g>
</g>
<!-- Node8&#45;&gt;Node9 -->
<g id="edge8" class="edge">
<title>Node8&#45;&gt;Node9</title>
<path fill="none" stroke="midnightblue" d="M798.55,-159.71C787.96,-148.36 775.91,-135.43 766.23,-125.05"/>
<polygon fill="midnightblue" stroke="midnightblue" points="796.22,-162.34 805.6,-167.27 801.34,-157.57 796.22,-162.34"/>
</g>
<!-- Node10 -->
<g id="node10" class="node">
<title>Node10</title>
<g id="a_node10"><a xlink:href="pyTritonContext_8cpp.html" target="_top" xlink:title=" ">
<polygon fill="white" stroke="black" points="833,-78.5 833,-130.5 969,-130.5 969,-78.5 833,-78.5"/>
<text text-anchor="start" x="841" y="-118.5" font-family="Helvetica,sans-Serif" font-size="10.00">/home/jonathan/Works</text>
<text text-anchor="start" x="841" y="-107.5" font-family="Helvetica,sans-Serif" font-size="10.00">/Tools/Triton/src/libtriton</text>
<text text-anchor="start" x="841" y="-96.5" font-family="Helvetica,sans-Serif" font-size="10.00">/bindings/python/objects</text>
<text text-anchor="middle" x="901" y="-85.5" font-family="Helvetica,sans-Serif" font-size="10.00">/pyTritonContext.cpp</text>
</a>
</g>
</g>
<!-- Node8&#45;&gt;Node10 -->
<g id="edge9" class="edge">
<title>Node8&#45;&gt;Node10</title>
<path fill="none" stroke="midnightblue" d="M849.54,-159.96C858.49,-150.5 868.49,-139.91 877.28,-130.61"/>
<polygon fill="midnightblue" stroke="midnightblue" points="846.96,-157.6 842.64,-167.27 852.05,-162.41 846.96,-157.6"/>
</g>
<!-- Node11 -->
<g id="node11" class="node">
<title>Node11</title>
<g id="a_node11"><a xlink:href="callbacks_8cpp.html" target="_top" xlink:title=" ">
<polygon fill="white" stroke="black" points="987,-84 987,-125 1121,-125 1121,-84 987,-84"/>
<text text-anchor="start" x="995" y="-113" font-family="Helvetica,sans-Serif" font-size="10.00">/home/jonathan/Works</text>
<text text-anchor="start" x="995" y="-102" font-family="Helvetica,sans-Serif" font-size="10.00">/Tools/Triton/src/libtriton</text>
<text text-anchor="middle" x="1054" y="-91" font-family="Helvetica,sans-Serif" font-size="10.00">/callbacks/callbacks.cpp</text>
</a>
</g>
</g>
<!-- Node8&#45;&gt;Node11 -->
<g id="edge10" class="edge">
<title>Node8&#45;&gt;Node11</title>
<path fill="none" stroke="midnightblue" d="M888.67,-164.08C923.42,-151.77 965.81,-136.75 998.96,-125"/>
<polygon fill="midnightblue" stroke="midnightblue" points="887.35,-160.84 879.09,-167.48 889.69,-167.44 887.35,-160.84"/>
</g>
<!-- Node12 -->
<g id="node12" class="node">
<title>Node12</title>
<g id="a_node12"><a xlink:href="llvmToTriton_8hpp.html" target="_top" xlink:title=" ">
<polygon fill="white" stroke="black" points="490.5,-84 490.5,-125 663.5,-125 663.5,-84 490.5,-84"/>
<text text-anchor="start" x="498.5" y="-113" font-family="Helvetica,sans-Serif" font-size="10.00">/home/jonathan/Works</text>
<text text-anchor="start" x="498.5" y="-102" font-family="Helvetica,sans-Serif" font-size="10.00">/Tools/Triton/src/libtriton</text>
<text text-anchor="middle" x="577" y="-91" font-family="Helvetica,sans-Serif" font-size="10.00">/includes/triton/llvmToTriton.hpp</text>
</a>
</g>
</g>
<!-- Node8&#45;&gt;Node12 -->
<g id="edge12" class="edge">
<title>Node8&#45;&gt;Node12</title>
<path fill="none" stroke="midnightblue" d="M755.02,-164.24C717.62,-151.9 671.86,-136.8 636.11,-125"/>
<polygon fill="midnightblue" stroke="midnightblue" points="754.24,-167.67 764.84,-167.48 756.44,-161.02 754.24,-167.67"/>
</g>
<!-- Node13 -->
<g id="node13" class="node">
<title>Node13</title>
<g id="a_node13"><a xlink:href="llvmToTriton_8cpp.html" target="_top" xlink:title=" ">
<polygon fill="white" stroke="black" points="418,-0.5 418,-41.5 560,-41.5 560,-0.5 418,-0.5"/>
<text text-anchor="start" x="426" y="-29.5" font-family="Helvetica,sans-Serif" font-size="10.00">/home/jonathan/Works</text>
<text text-anchor="start" x="426" y="-18.5" font-family="Helvetica,sans-Serif" font-size="10.00">/Tools/Triton/src/libtriton</text>
<text text-anchor="middle" x="489" y="-7.5" font-family="Helvetica,sans-Serif" font-size="10.00">/ast/llvm/llvmToTriton.cpp</text>
</a>
</g>
</g>
<!-- Node12&#45;&gt;Node13 -->
<g id="edge13" class="edge">
<title>Node12&#45;&gt;Node13</title>
<path fill="none" stroke="midnightblue" d="M548.24,-76.86C535.81,-65.35 521.53,-52.13 510.11,-41.55"/>
<polygon fill="midnightblue" stroke="midnightblue" points="545.98,-79.54 555.7,-83.77 550.74,-74.41 545.98,-79.54"/>
</g>
<!-- Node14 -->
<g id="node14" class="node">
<title>Node14</title>
<g id="a_node14"><a xlink:href="liftingToLLVM_8cpp.html" target="_top" xlink:title=" ">
<polygon fill="white" stroke="black" points="578,-0.5 578,-41.5 754,-41.5 754,-0.5 578,-0.5"/>
<text text-anchor="start" x="586" y="-29.5" font-family="Helvetica,sans-Serif" font-size="10.00">/home/jonathan/Works</text>
<text text-anchor="start" x="586" y="-18.5" font-family="Helvetica,sans-Serif" font-size="10.00">/Tools/Triton/src/libtriton</text>
<text text-anchor="middle" x="666" y="-7.5" font-family="Helvetica,sans-Serif" font-size="10.00">/engines/lifters/liftingToLLVM.cpp</text>
</a>
</g>
</g>
<!-- Node12&#45;&gt;Node14 -->
<g id="edge14" class="edge">
<title>Node12&#45;&gt;Node14</title>
<path fill="none" stroke="midnightblue" d="M606.09,-76.86C618.66,-65.35 633.1,-52.13 644.65,-41.55"/>
<polygon fill="midnightblue" stroke="midnightblue" points="603.56,-74.44 598.54,-83.77 608.28,-79.6 603.56,-74.44"/>
</g>
<!-- Node15&#45;&gt;Node7 -->
<g id="edge17" class="edge">
<title>Node15&#45;&gt;Node7</title>
<path fill="none" stroke="midnightblue" d="M1727.96,-241.47C1702.77,-230.89 1673.39,-218.56 1649.45,-208.51"/>
<polygon fill="midnightblue" stroke="midnightblue" points="1726.81,-244.78 1737.39,-245.43 1729.52,-238.33 1726.81,-244.78"/>
</g>
<!-- Node16 -->
<g id="node16" class="node">
<title>Node16</title>
<g id="a_node16"><a xlink:href="arm32Semantics_8cpp.html" target="_top" xlink:title=" ">
<polygon fill="white" stroke="black" points="1687.5,-167.5 1687.5,-208.5 1890.5,-208.5 1890.5,-167.5 1687.5,-167.5"/>
<text text-anchor="start" x="1695.5" y="-196.5" font-family="Helvetica,sans-Serif" font-size="10.00">/home/jonathan/Works</text>
<text text-anchor="start" x="1695.5" y="-185.5" font-family="Helvetica,sans-Serif" font-size="10.00">/Tools/Triton/src/libtriton</text>
<text text-anchor="middle" x="1789" y="-174.5" font-family="Helvetica,sans-Serif" font-size="10.00">/arch/arm/arm32/arm32Semantics.cpp</text>
</a>
</g>
</g>
<!-- Node15&#45;&gt;Node16 -->
<g id="edge16" class="edge">
<title>Node15&#45;&gt;Node16</title>
<path fill="none" stroke="midnightblue" d="M1785.95,-235.3C1786.55,-226.3 1787.18,-216.65 1787.72,-208.51"/>
<polygon fill="midnightblue" stroke="midnightblue" points="1782.45,-235.22 1785.29,-245.43 1789.44,-235.68 1782.45,-235.22"/>
</g>
<!-- Node17&#45;&gt;Node7 -->
<g id="edge19" class="edge">
<title>Node17&#45;&gt;Node7</title>
<path fill="none" stroke="midnightblue" d="M1238.94,-250.78C1251.37,-248.8 1264.01,-246.83 1276,-245 1387.41,-228.03 1416.55,-231.38 1527,-209 1530.08,-208.38 1533.21,-207.7 1536.37,-207"/>
<polygon fill="midnightblue" stroke="midnightblue" points="1238.35,-247.33 1229.03,-252.36 1239.45,-254.24 1238.35,-247.33"/>
</g>
<!-- Node17&#45;&gt;Node8 -->
<g id="edge20" class="edge">
<title>Node17&#45;&gt;Node8</title>
<path fill="none" stroke="midnightblue" d="M1064.69,-244.7C1000.11,-229.72 936.76,-215.06 890.51,-204.37"/>
<polygon fill="midnightblue" stroke="midnightblue" points="1064.11,-248.16 1074.65,-247.01 1065.7,-241.34 1064.11,-248.16"/>
</g>
<!-- Node18&#45;&gt;Node8 -->
<g id="edge22" class="edge">
<title>Node18&#45;&gt;Node8</title>
<path fill="none" stroke="midnightblue" d="M594.81,-243.09C646.76,-230.83 710.32,-215.83 757.31,-204.74"/>
<polygon fill="midnightblue" stroke="midnightblue" points="593.85,-239.72 584.92,-245.43 595.46,-246.54 593.85,-239.72"/>
</g>
<!-- Node19&#45;&gt;Node18 -->
<g id="edge25" class="edge">
<title>Node19&#45;&gt;Node18</title>
<path fill="none" stroke="midnightblue" d="M333.67,-320.3C367.64,-309.55 407.82,-296.82 440.4,-286.51"/>
<polygon fill="midnightblue" stroke="midnightblue" points="332.28,-317.07 323.81,-323.43 334.4,-323.75 332.28,-317.07"/>
</g>
<!-- Node20 -->
<g id="node20" class="node">
<title>Node20</title>
<g id="a_node20"><a xlink:href="liftingToDot_8cpp.html" target="_top" xlink:title=" ">
<polygon fill="white" stroke="black" points="27.5,-245.5 27.5,-286.5 194.5,-286.5 194.5,-245.5 27.5,-245.5"/>
<text text-anchor="start" x="35.5" y="-274.5" font-family="Helvetica,sans-Serif" font-size="10.00">/home/jonathan/Works</text>
<text text-anchor="start" x="35.5" y="-263.5" font-family="Helvetica,sans-Serif" font-size="10.00">/Tools/Triton/src/libtriton</text>
<text text-anchor="middle" x="111" y="-252.5" font-family="Helvetica,sans-Serif" font-size="10.00">/engines/lifters/liftingToDot.cpp</text>
</a>
</g>
</g>
<!-- Node19&#45;&gt;Node20 -->
<g id="edge24" class="edge">
<title>Node19&#45;&gt;Node20</title>
<path fill="none" stroke="midnightblue" d="M214.13,-318.91C193.37,-308.46 169.37,-296.38 149.75,-286.51"/>
<polygon fill="midnightblue" stroke="midnightblue" points="212.61,-322.06 223.11,-323.43 215.75,-315.81 212.61,-322.06"/>
</g>
<!-- Node21&#45;&gt;Node18 -->
<g id="edge28" class="edge">
<title>Node21&#45;&gt;Node18</title>
<path fill="none" stroke="midnightblue" d="M473.72,-314.76C479.29,-305.35 485.36,-295.1 490.45,-286.51"/>
<polygon fill="midnightblue" stroke="midnightblue" points="470.67,-313.04 468.59,-323.43 476.7,-316.61 470.67,-313.04"/>
</g>
<!-- Node22 -->
<g id="node22" class="node">
<title>Node22</title>
<g id="a_node22"><a xlink:href="liftingToPython_8cpp.html" target="_top" xlink:title=" ">
<polygon fill="white" stroke="black" points="213,-245.5 213,-286.5 397,-286.5 397,-245.5 213,-245.5"/>
<text text-anchor="start" x="221" y="-274.5" font-family="Helvetica,sans-Serif" font-size="10.00">/home/jonathan/Works</text>
<text text-anchor="start" x="221" y="-263.5" font-family="Helvetica,sans-Serif" font-size="10.00">/Tools/Triton/src/libtriton</text>
<text text-anchor="middle" x="305" y="-252.5" font-family="Helvetica,sans-Serif" font-size="10.00">/engines/lifters/liftingToPython.cpp</text>
</a>
</g>
</g>
<!-- Node21&#45;&gt;Node22 -->
<g id="edge27" class="edge">
<title>Node21&#45;&gt;Node22</title>
<path fill="none" stroke="midnightblue" d="M408.82,-318.91C387.92,-308.46 363.76,-296.38 344.01,-286.51"/>
<polygon fill="midnightblue" stroke="midnightblue" points="407.35,-322.09 417.86,-323.43 410.48,-315.83 407.35,-322.09"/>
</g>
<!-- Node23&#45;&gt;Node18 -->
<g id="edge31" class="edge">
<title>Node23&#45;&gt;Node18</title>
<path fill="none" stroke="midnightblue" d="M632.83,-319.61C606.45,-309 575.61,-296.6 550.51,-286.51"/>
<polygon fill="midnightblue" stroke="midnightblue" points="631.74,-322.94 642.33,-323.43 634.36,-316.45 631.74,-322.94"/>
</g>
<!-- Node24 -->
<g id="node24" class="node">
<title>Node24</title>
<g id="a_node24"><a xlink:href="liftingToSMT_8cpp.html" target="_top" xlink:title=" ">
<polygon fill="white" stroke="black" points="607,-245.5 607,-286.5 777,-286.5 777,-245.5 607,-245.5"/>
<text text-anchor="start" x="615" y="-274.5" font-family="Helvetica,sans-Serif" font-size="10.00">/home/jonathan/Works</text>
<text text-anchor="start" x="615" y="-263.5" font-family="Helvetica,sans-Serif" font-size="10.00">/Tools/Triton/src/libtriton</text>
<text text-anchor="middle" x="692" y="-252.5" font-family="Helvetica,sans-Serif" font-size="10.00">/engines/lifters/liftingToSMT.cpp</text>
</a>
</g>
</g>
<!-- Node23&#45;&gt;Node24 -->
<g id="edge30" class="edge">
<title>Node23&#45;&gt;Node24</title>
<path fill="none" stroke="midnightblue" d="M691.39,-313.3C691.51,-304.3 691.64,-294.65 691.74,-286.51"/>
<polygon fill="midnightblue" stroke="midnightblue" points="687.89,-313.38 691.26,-323.43 694.89,-313.48 687.89,-313.38"/>
</g>
<!-- Node25&#45;&gt;Node8 -->
<g id="edge34" class="edge">
<title>Node25&#45;&gt;Node8</title>
<path fill="none" stroke="midnightblue" d="M1047.44,-323.07C962.56,-308.69 924.22,-338.98 862,-287 838.47,-267.34 829.46,-231.28 826.04,-208.81"/>
<polygon fill="midnightblue" stroke="midnightblue" points="1046.99,-326.55 1057.46,-324.94 1048.27,-319.66 1046.99,-326.55"/>
</g>
<!-- Node26 -->
<g id="node26" class="node">
<title>Node26</title>
<g id="a_node26"><a xlink:href="synthesizer_8cpp.html" target="_top" xlink:title=" ">
<polygon fill="white" stroke="black" points="871,-245.5 871,-286.5 1057,-286.5 1057,-245.5 871,-245.5"/>
<text text-anchor="start" x="879" y="-274.5" font-family="Helvetica,sans-Serif" font-size="10.00">/home/jonathan/Works</text>
<text text-anchor="start" x="879" y="-263.5" font-family="Helvetica,sans-Serif" font-size="10.00">/Tools/Triton/src/libtriton</text>
<text text-anchor="middle" x="964" y="-252.5" font-family="Helvetica,sans-Serif" font-size="10.00">/engines/synthesis/synthesizer.cpp</text>
</a>
</g>
</g>
<!-- Node25&#45;&gt;Node26 -->
<g id="edge33" class="edge">
<title>Node25&#45;&gt;Node26</title>
<path fill="none" stroke="midnightblue" d="M1086.89,-319.47C1062.12,-308.89 1033.23,-296.56 1009.68,-286.51"/>
<polygon fill="midnightblue" stroke="midnightblue" points="1085.59,-322.72 1096.16,-323.43 1088.34,-316.28 1085.59,-322.72"/>
</g>
<!-- Node27&#45;&gt;Node5 -->
<g id="edge37" class="edge">
<title>Node27&#45;&gt;Node5</title>
<path fill="none" stroke="midnightblue" d="M1427.13,-319.89C1455.34,-309.22 1488.48,-296.69 1515.41,-286.51"/>
<polygon fill="midnightblue" stroke="midnightblue" points="1425.88,-316.62 1417.76,-323.43 1428.35,-323.17 1425.88,-316.62"/>
</g>
<!-- Node27&#45;&gt;Node8 -->
<g id="edge38" class="edge">
<title>Node27&#45;&gt;Node8</title>
<path fill="none" stroke="midnightblue" d="M1320.39,-318.01C1305.62,-309.05 1289.57,-298.33 1276,-287 1256.68,-270.86 1260.27,-256.73 1238,-245 1179.13,-213.98 991.94,-198.66 890.64,-192.47"/>
<polygon fill="midnightblue" stroke="midnightblue" points="1319,-321.26 1329.39,-323.35 1322.58,-315.24 1319,-321.26"/>
</g>
<!-- Node27&#45;&gt;Node15 -->
<g id="edge39" class="edge">
<title>Node27&#45;&gt;Node15</title>
<path fill="none" stroke="midnightblue" d="M1460.6,-326.13C1522.25,-315.1 1604.42,-300.32 1677,-287 1679.88,-286.47 1682.81,-285.93 1685.76,-285.39"/>
<polygon fill="midnightblue" stroke="midnightblue" points="1459.73,-322.73 1450.51,-327.94 1460.97,-329.62 1459.73,-322.73"/>
</g>
<!-- Node27&#45;&gt;Node17 -->
<g id="edge40" class="edge">
<title>Node27&#45;&gt;Node17</title>
<path fill="none" stroke="midnightblue" d="M1301.31,-320.03C1271.19,-309.33 1235.73,-296.73 1206.92,-286.51"/>
<polygon fill="midnightblue" stroke="midnightblue" points="1300.29,-323.38 1310.89,-323.43 1302.64,-316.78 1300.29,-323.38"/>
</g>
<!-- Node28 -->
<g id="node28" class="node">
<title>Node28</title>
<g id="a_node28"><a xlink:href="taintEngine_8cpp.html" target="_top" xlink:title=" ">
<polygon fill="white" stroke="black" points="1285,-245.5 1285,-286.5 1447,-286.5 1447,-245.5 1285,-245.5"/>
<text text-anchor="start" x="1293" y="-274.5" font-family="Helvetica,sans-Serif" font-size="10.00">/home/jonathan/Works</text>
<text text-anchor="start" x="1293" y="-263.5" font-family="Helvetica,sans-Serif" font-size="10.00">/Tools/Triton/src/libtriton</text>
<text text-anchor="middle" x="1366" y="-252.5" font-family="Helvetica,sans-Serif" font-size="10.00">/engines/taint/taintEngine.cpp</text>
</a>
</g>
</g>
<!-- Node27&#45;&gt;Node28 -->
<g id="edge36" class="edge">
<title>Node27&#45;&gt;Node28</title>
<path fill="none" stroke="midnightblue" d="M1366,-313.3C1366,-304.3 1366,-294.65 1366,-286.51"/>
<polygon fill="midnightblue" stroke="midnightblue" points="1362.5,-313.43 1366,-323.43 1369.5,-313.43 1362.5,-313.43"/>
</g>
<!-- Node27&#45;&gt;Node29 -->
<g id="edge41" class="edge">
<title>Node27&#45;&gt;Node29</title>
<path fill="none" stroke="midnightblue" d="M1460.85,-335.5C1566.25,-326.56 1741.34,-309.9 1891,-287 1893.89,-286.56 1896.82,-286.09 1899.78,-285.6"/>
<polygon fill="midnightblue" stroke="midnightblue" points="1460.54,-332.02 1450.87,-336.34 1461.13,-338.99 1460.54,-332.02"/>
</g>
<!-- Node29&#45;&gt;Node7 -->
<g id="edge42" class="edge">
<title>Node29&#45;&gt;Node7</title>
<path fill="none" stroke="midnightblue" d="M1889.76,-244.81C1795.31,-227.71 1769.31,-228.51 1679,-209 1675.93,-208.34 1672.8,-207.63 1669.65,-206.9"/>
<polygon fill="midnightblue" stroke="midnightblue" points="1889.27,-248.27 1899.74,-246.63 1890.53,-241.39 1889.27,-248.27"/>
</g>
<!-- Node30 -->
<g id="node30" class="node">
<title>Node30</title>
<g id="a_node30"><a xlink:href="x86Semantics_8cpp.html" target="_top" xlink:title=" ">
<polygon fill="white" stroke="black" points="1914,-167.5 1914,-208.5 2068,-208.5 2068,-167.5 1914,-167.5"/>
<text text-anchor="start" x="1922" y="-196.5" font-family="Helvetica,sans-Serif" font-size="10.00">/home/jonathan/Works</text>
<text text-anchor="start" x="1922" y="-185.5" font-family="Helvetica,sans-Serif" font-size="10.00">/Tools/Triton/src/libtriton</text>
<text text-anchor="middle" x="1991" y="-174.5" font-family="Helvetica,sans-Serif" font-size="10.00">/arch/x86/x86Semantics.cpp</text>
</a>
</g>
</g>
<!-- Node29&#45;&gt;Node30 -->
<g id="edge43" class="edge">
<title>Node29&#45;&gt;Node30</title>
<path fill="none" stroke="midnightblue" d="M1991,-235.3C1991,-226.3 1991,-216.65 1991,-208.51"/>
<polygon fill="midnightblue" stroke="midnightblue" points="1987.5,-235.43 1991,-245.43 1994.5,-235.43 1987.5,-235.43"/>
</g>
</g>
</svg>
