<?xml version="1.0" encoding="UTF-8" standalone="no"?>
<!DOCTYPE svg PUBLIC "-//W3C//DTD SVG 1.1//EN"
 "http://www.w3.org/Graphics/SVG/1.1/DTD/svg11.dtd">
<!-- Generated by graphviz version 7.0.0 (20221023.0053)
 -->
<!-- Title: /Users/jonathan/Works/Tools/Triton/src/libtriton/includes/triton/symbolicSimplification.hpp Pages: 1 -->
<svg width="1920pt" height="522pt"
 viewBox="0.00 0.00 1920.00 522.00" xmlns="http://www.w3.org/2000/svg" xmlns:xlink="http://www.w3.org/1999/xlink">
<g id="graph0" class="graph" transform="scale(1 1) rotate(0) translate(4 518)">
<title>/Users/jonathan/Works/Tools/Triton/src/libtriton/includes/triton/symbolicSimplification.hpp</title>
<!-- Node1 -->
<g id="node1" class="node">
<title>Node1</title>
<g id="a_node1"><a xlink:title=" ">
<polygon fill="#999999" stroke="#666666" points="530,-514 330,-514 330,-473 530,-473 530,-514"/>
<text text-anchor="start" x="338" y="-502" font-family="Helvetica,sans-Serif" font-size="10.00">/Users/jonathan/Works</text>
<text text-anchor="start" x="338" y="-491" font-family="Helvetica,sans-Serif" font-size="10.00">/Tools/Triton/src/libtriton</text>
<text text-anchor="middle" x="430" y="-480" font-family="Helvetica,sans-Serif" font-size="10.00">/includes/triton/symbolicSimplification.hpp</text>
</a>
</g>
</g>
<!-- Node2 -->
<g id="node2" class="node">
<title>Node2</title>
<g id="a_node2"><a xlink:href="symbolicSimplification_8cpp.html" target="_top" xlink:title=" ">
<polygon fill="white" stroke="#666666" points="246.5,-123.5 31.5,-123.5 31.5,-82.5 246.5,-82.5 246.5,-123.5"/>
<text text-anchor="start" x="39.5" y="-111.5" font-family="Helvetica,sans-Serif" font-size="10.00">/Users/jonathan/Works</text>
<text text-anchor="start" x="39.5" y="-100.5" font-family="Helvetica,sans-Serif" font-size="10.00">/Tools/Triton/src/libtriton</text>
<text text-anchor="middle" x="139" y="-89.5" font-family="Helvetica,sans-Serif" font-size="10.00">/engines/symbolic/symbolicSimplification.cpp</text>
</a>
</g>
</g>
<!-- Node1&#45;&gt;Node2 -->
<g id="edge1" class="edge">
<title>Node1&#45;&gt;Node2</title>
<path fill="none" stroke="#63b8ff" d="M318.76,-475.66C191.35,-453.16 0,-408.11 0,-340.5 0,-340.5 0,-340.5 0,-261.5 0,-199.14 62.02,-149.81 103.2,-123.93"/>
<polygon fill="#63b8ff" stroke="#63b8ff" points="317.78,-479.04 328.24,-477.31 318.98,-472.14 317.78,-479.04"/>
</g>
<!-- Node3 -->
<g id="node3" class="node">
<title>Node3</title>
<g id="a_node3"><a xlink:href="symbolicEngine_8hpp.html" target="_top" xlink:title=" ">
<polygon fill="white" stroke="#666666" points="946.5,-437 775.5,-437 775.5,-396 946.5,-396 946.5,-437"/>
<text text-anchor="start" x="783.5" y="-425" font-family="Helvetica,sans-Serif" font-size="10.00">/Users/jonathan/Works</text>
<text text-anchor="start" x="783.5" y="-414" font-family="Helvetica,sans-Serif" font-size="10.00">/Tools/Triton/src/libtriton</text>
<text text-anchor="middle" x="861" y="-403" font-family="Helvetica,sans-Serif" font-size="10.00">/includes/triton/symbolicEngine.hpp</text>
</a>
</g>
</g>
<!-- Node1&#45;&gt;Node3 -->
<g id="edge2" class="edge">
<title>Node1&#45;&gt;Node3</title>
<path fill="none" stroke="#63b8ff" d="M541.29,-473.13C614.18,-460.45 708.02,-444.12 775.15,-432.44"/>
<polygon fill="#63b8ff" stroke="#63b8ff" points="540.98,-469.64 531.73,-474.8 542.18,-476.53 540.98,-469.64"/>
</g>
<!-- Node4 -->
<g id="node4" class="node">
<title>Node4</title>
<g id="a_node4"><a xlink:href="symbolicEngine_8cpp.html" target="_top" xlink:title=" ">
<polygon fill="white" stroke="#666666" points="954,-360 768,-360 768,-319 954,-319 954,-360"/>
<text text-anchor="start" x="776" y="-348" font-family="Helvetica,sans-Serif" font-size="10.00">/Users/jonathan/Works</text>
<text text-anchor="start" x="776" y="-337" font-family="Helvetica,sans-Serif" font-size="10.00">/Tools/Triton/src/libtriton</text>
<text text-anchor="middle" x="861" y="-326" font-family="Helvetica,sans-Serif" font-size="10.00">/engines/symbolic/symbolicEngine.cpp</text>
</a>
</g>
</g>
<!-- Node3&#45;&gt;Node4 -->
<g id="edge3" class="edge">
<title>Node3&#45;&gt;Node4</title>
<path fill="none" stroke="#63b8ff" d="M861,-384.36C861,-376.24 861,-367.7 861,-360.33"/>
<polygon fill="#63b8ff" stroke="#63b8ff" points="857.5,-384.28 861,-394.28 864.5,-384.28 857.5,-384.28"/>
</g>
<!-- Node5 -->
<g id="node5" class="node">
<title>Node5</title>
<g id="a_node5"><a xlink:href="aarch64Semantics_8hpp.html" target="_top" xlink:title=" ">
<polygon fill="white" stroke="#666666" points="1535.5,-283 1352.5,-283 1352.5,-242 1535.5,-242 1535.5,-283"/>
<text text-anchor="start" x="1360.5" y="-271" font-family="Helvetica,sans-Serif" font-size="10.00">/Users/jonathan/Works</text>
<text text-anchor="start" x="1360.5" y="-260" font-family="Helvetica,sans-Serif" font-size="10.00">/Tools/Triton/src/libtriton</text>
<text text-anchor="middle" x="1444" y="-249" font-family="Helvetica,sans-Serif" font-size="10.00">/includes/triton/aarch64Semantics.hpp</text>
</a>
</g>
</g>
<!-- Node3&#45;&gt;Node5 -->
<g id="edge4" class="edge">
<title>Node3&#45;&gt;Node5</title>
<path fill="none" stroke="#63b8ff" d="M958.44,-411.75C1079.63,-405.8 1278.67,-391.5 1345,-360 1381.64,-342.6 1413.05,-306.12 1430.17,-283.33"/>
<polygon fill="#63b8ff" stroke="#63b8ff" points="958.29,-408.25 948.47,-412.22 958.63,-415.24 958.29,-408.25"/>
</g>
<!-- Node8 -->
<g id="node8" class="node">
<title>Node8</title>
<g id="a_node8"><a xlink:href="arm32Semantics_8hpp.html" target="_top" xlink:title=" ">
<polygon fill="white" stroke="#666666" points="1730,-283 1554,-283 1554,-242 1730,-242 1730,-283"/>
<text text-anchor="start" x="1562" y="-271" font-family="Helvetica,sans-Serif" font-size="10.00">/Users/jonathan/Works</text>
<text text-anchor="start" x="1562" y="-260" font-family="Helvetica,sans-Serif" font-size="10.00">/Tools/Triton/src/libtriton</text>
<text text-anchor="middle" x="1642" y="-249" font-family="Helvetica,sans-Serif" font-size="10.00">/includes/triton/arm32Semantics.hpp</text>
</a>
</g>
</g>
<!-- Node3&#45;&gt;Node8 -->
<g id="edge7" class="edge">
<title>Node3&#45;&gt;Node8</title>
<path fill="none" stroke="#63b8ff" d="M958.03,-412.63C1064.34,-407.79 1239.3,-394.8 1386,-360 1463.64,-341.58 1549.63,-305.78 1599.57,-283.34"/>
<polygon fill="#63b8ff" stroke="#63b8ff" points="958.03,-409.13 948.2,-413.07 958.34,-416.12 958.03,-409.13"/>
</g>
<!-- Node10 -->
<g id="node10" class="node">
<title>Node10</title>
<g id="a_node10"><a xlink:href="context_8hpp.html" target="_top" xlink:title=" ">
<polygon fill="white" stroke="#666666" points="826,-206 692,-206 692,-165 826,-165 826,-206"/>
<text text-anchor="start" x="700" y="-194" font-family="Helvetica,sans-Serif" font-size="10.00">/Users/jonathan/Works</text>
<text text-anchor="start" x="700" y="-183" font-family="Helvetica,sans-Serif" font-size="10.00">/Tools/Triton/src/libtriton</text>
<text text-anchor="middle" x="759" y="-172" font-family="Helvetica,sans-Serif" font-size="10.00">/includes/triton/context.hpp</text>
</a>
</g>
</g>
<!-- Node3&#45;&gt;Node10 -->
<g id="edge10" class="edge">
<title>Node3&#45;&gt;Node10</title>
<path fill="none" stroke="#63b8ff" d="M790.22,-390.08C777.77,-382.36 766.43,-372.5 759,-360 730.07,-311.32 743.63,-240.57 752.88,-206.42"/>
<polygon fill="#63b8ff" stroke="#63b8ff" points="788.17,-392.94 798.6,-394.82 791.62,-386.85 788.17,-392.94"/>
</g>
<!-- Node17 -->
<g id="node17" class="node">
<title>Node17</title>
<g id="a_node17"><a xlink:href="irBuilder_8hpp.html" target="_top" xlink:title=" ">
<polygon fill="white" stroke="#666666" points="1131.5,-283 994.5,-283 994.5,-242 1131.5,-242 1131.5,-283"/>
<text text-anchor="start" x="1002.5" y="-271" font-family="Helvetica,sans-Serif" font-size="10.00">/Users/jonathan/Works</text>
<text text-anchor="start" x="1002.5" y="-260" font-family="Helvetica,sans-Serif" font-size="10.00">/Tools/Triton/src/libtriton</text>
<text text-anchor="middle" x="1063" y="-249" font-family="Helvetica,sans-Serif" font-size="10.00">/includes/triton/irBuilder.hpp</text>
</a>
</g>
</g>
<!-- Node3&#45;&gt;Node17 -->
<g id="edge18" class="edge">
<title>Node3&#45;&gt;Node17</title>
<path fill="none" stroke="#63b8ff" d="M958.04,-408.46C1026.93,-401.22 1110.95,-387.01 1133,-360 1144.53,-345.89 1140.93,-335.41 1133,-319 1125.91,-304.34 1112.86,-292.37 1099.94,-283.35"/>
<polygon fill="#63b8ff" stroke="#63b8ff" points="957.79,-404.97 948.19,-409.46 958.49,-411.94 957.79,-404.97"/>
</g>
<!-- Node18 -->
<g id="node18" class="node">
<title>Node18</title>
<g id="a_node18"><a xlink:href="liftingEngine_8hpp.html" target="_top" xlink:title=" ">
<polygon fill="white" stroke="#666666" points="538.5,-283 383.5,-283 383.5,-242 538.5,-242 538.5,-283"/>
<text text-anchor="start" x="391.5" y="-271" font-family="Helvetica,sans-Serif" font-size="10.00">/Users/jonathan/Works</text>
<text text-anchor="start" x="391.5" y="-260" font-family="Helvetica,sans-Serif" font-size="10.00">/Tools/Triton/src/libtriton</text>
<text text-anchor="middle" x="461" y="-249" font-family="Helvetica,sans-Serif" font-size="10.00">/includes/triton/liftingEngine.hpp</text>
</a>
</g>
</g>
<!-- Node3&#45;&gt;Node18 -->
<g id="edge21" class="edge">
<title>Node3&#45;&gt;Node18</title>
<path fill="none" stroke="#63b8ff" d="M764.02,-405.39C685.96,-395.98 583.46,-380.34 547,-360 542.59,-357.54 501.86,-310.83 478.07,-283.31"/>
<polygon fill="#63b8ff" stroke="#63b8ff" points="763.5,-408.86 773.85,-406.56 764.33,-401.91 763.5,-408.86"/>
</g>
<!-- Node19 -->
<g id="node19" class="node">
<title>Node19</title>
<g id="a_node19"><a xlink:href="liftingToDot_8hpp.html" target="_top" xlink:title=" ">
<polygon fill="white" stroke="#666666" points="314,-360 162,-360 162,-319 314,-319 314,-360"/>
<text text-anchor="start" x="170" y="-348" font-family="Helvetica,sans-Serif" font-size="10.00">/Users/jonathan/Works</text>
<text text-anchor="start" x="170" y="-337" font-family="Helvetica,sans-Serif" font-size="10.00">/Tools/Triton/src/libtriton</text>
<text text-anchor="middle" x="238" y="-326" font-family="Helvetica,sans-Serif" font-size="10.00">/includes/triton/liftingToDot.hpp</text>
</a>
</g>
</g>
<!-- Node3&#45;&gt;Node19 -->
<g id="edge23" class="edge">
<title>Node3&#45;&gt;Node19</title>
<path fill="none" stroke="#63b8ff" d="M764.11,-409.1C656.03,-401.13 476.22,-385.38 323,-360 320.16,-359.53 317.28,-359.02 314.37,-358.48"/>
<polygon fill="#63b8ff" stroke="#63b8ff" points="763.57,-412.57 773.8,-409.81 764.08,-405.59 763.57,-412.57"/>
</g>
<!-- Node21 -->
<g id="node21" class="node">
<title>Node21</title>
<g id="a_node21"><a xlink:href="liftingToPython_8hpp.html" target="_top" xlink:title=" ">
<polygon fill="white" stroke="#666666" points="499.5,-360 332.5,-360 332.5,-319 499.5,-319 499.5,-360"/>
<text text-anchor="start" x="340.5" y="-348" font-family="Helvetica,sans-Serif" font-size="10.00">/Users/jonathan/Works</text>
<text text-anchor="start" x="340.5" y="-337" font-family="Helvetica,sans-Serif" font-size="10.00">/Tools/Triton/src/libtriton</text>
<text text-anchor="middle" x="416" y="-326" font-family="Helvetica,sans-Serif" font-size="10.00">/includes/triton/liftingToPython.hpp</text>
</a>
</g>
</g>
<!-- Node3&#45;&gt;Node21 -->
<g id="edge26" class="edge">
<title>Node3&#45;&gt;Node21</title>
<path fill="none" stroke="#63b8ff" d="M764.33,-401.04C694.63,-390.37 598.36,-375.13 514,-360 509.39,-359.17 504.66,-358.3 499.89,-357.41"/>
<polygon fill="#63b8ff" stroke="#63b8ff" points="763.38,-404.44 773.79,-402.49 764.43,-397.52 763.38,-404.44"/>
</g>
<!-- Node23 -->
<g id="node23" class="node">
<title>Node23</title>
<g id="a_node23"><a xlink:href="liftingToSMT_8hpp.html" target="_top" xlink:title=" ">
<polygon fill="white" stroke="#666666" points="711.5,-360 556.5,-360 556.5,-319 711.5,-319 711.5,-360"/>
<text text-anchor="start" x="564.5" y="-348" font-family="Helvetica,sans-Serif" font-size="10.00">/Users/jonathan/Works</text>
<text text-anchor="start" x="564.5" y="-337" font-family="Helvetica,sans-Serif" font-size="10.00">/Tools/Triton/src/libtriton</text>
<text text-anchor="middle" x="634" y="-326" font-family="Helvetica,sans-Serif" font-size="10.00">/includes/triton/liftingToSMT.hpp</text>
</a>
</g>
</g>
<!-- Node3&#45;&gt;Node23 -->
<g id="edge29" class="edge">
<title>Node3&#45;&gt;Node23</title>
<path fill="none" stroke="#63b8ff" d="M790.14,-392.09C759.46,-381.95 723.93,-370.21 694.52,-360.49"/>
<polygon fill="#63b8ff" stroke="#63b8ff" points="788.73,-395.31 799.33,-395.12 790.93,-388.66 788.73,-395.31"/>
</g>
<!-- Node25 -->
<g id="node25" class="node">
<title>Node25</title>
<g id="a_node25"><a xlink:href="synthesizer_8hpp.html" target="_top" xlink:title=" ">
<polygon fill="white" stroke="#666666" points="1124,-360 972,-360 972,-319 1124,-319 1124,-360"/>
<text text-anchor="start" x="980" y="-348" font-family="Helvetica,sans-Serif" font-size="10.00">/Users/jonathan/Works</text>
<text text-anchor="start" x="980" y="-337" font-family="Helvetica,sans-Serif" font-size="10.00">/Tools/Triton/src/libtriton</text>
<text text-anchor="middle" x="1048" y="-326" font-family="Helvetica,sans-Serif" font-size="10.00">/includes/triton/synthesizer.hpp</text>
</a>
</g>
</g>
<!-- Node3&#45;&gt;Node25 -->
<g id="edge32" class="edge">
<title>Node3&#45;&gt;Node25</title>
<path fill="none" stroke="#63b8ff" d="M921.04,-391.42C945.92,-381.44 974.45,-370 998.15,-360.49"/>
<polygon fill="#63b8ff" stroke="#63b8ff" points="920,-388.06 912.03,-395.03 922.61,-394.56 920,-388.06"/>
</g>
<!-- Node27 -->
<g id="node27" class="node">
<title>Node27</title>
<g id="a_node27"><a xlink:href="taintEngine_8hpp.html" target="_top" xlink:title=" ">
<polygon fill="white" stroke="#666666" points="1336.5,-360 1185.5,-360 1185.5,-319 1336.5,-319 1336.5,-360"/>
<text text-anchor="start" x="1193.5" y="-348" font-family="Helvetica,sans-Serif" font-size="10.00">/Users/jonathan/Works</text>
<text text-anchor="start" x="1193.5" y="-337" font-family="Helvetica,sans-Serif" font-size="10.00">/Tools/Triton/src/libtriton</text>
<text text-anchor="middle" x="1261" y="-326" font-family="Helvetica,sans-Serif" font-size="10.00">/includes/triton/taintEngine.hpp</text>
</a>
</g>
</g>
<!-- Node3&#45;&gt;Node27 -->
<g id="edge35" class="edge">
<title>Node3&#45;&gt;Node27</title>
<path fill="none" stroke="#63b8ff" d="M957.86,-398.45C1017.87,-387.74 1096.48,-373.46 1166,-360 1172.2,-358.8 1178.62,-357.53 1185.07,-356.24"/>
<polygon fill="#63b8ff" stroke="#63b8ff" points="957.6,-394.94 948.37,-400.14 958.83,-401.83 957.6,-394.94"/>
</g>
<!-- Node29 -->
<g id="node29" class="node">
<title>Node29</title>
<g id="a_node29"><a xlink:href="x86Semantics_8hpp.html" target="_top" xlink:title=" ">
<polygon fill="white" stroke="#666666" points="1912,-283 1748,-283 1748,-242 1912,-242 1912,-283"/>
<text text-anchor="start" x="1756" y="-271" font-family="Helvetica,sans-Serif" font-size="10.00">/Users/jonathan/Works</text>
<text text-anchor="start" x="1756" y="-260" font-family="Helvetica,sans-Serif" font-size="10.00">/Tools/Triton/src/libtriton</text>
<text text-anchor="middle" x="1830" y="-249" font-family="Helvetica,sans-Serif" font-size="10.00">/includes/triton/x86Semantics.hpp</text>
</a>
</g>
</g>
<!-- Node3&#45;&gt;Node29 -->
<g id="edge44" class="edge">
<title>Node3&#45;&gt;Node29</title>
<path fill="none" stroke="#63b8ff" d="M958.28,-411.52C1078.02,-405.48 1287.23,-391.22 1464,-360 1572.07,-340.92 1694.89,-305.66 1767.23,-283.46"/>
<polygon fill="#63b8ff" stroke="#63b8ff" points="958.3,-408.01 948.49,-412 958.65,-415.01 958.3,-408.01"/>
</g>
<!-- Node6 -->
<g id="node6" class="node">
<title>Node6</title>
<g id="a_node6"><a xlink:href="aarch64Semantics_8cpp.html" target="_top" xlink:title=" ">
<polygon fill="white" stroke="#666666" points="1396,-206 1198,-206 1198,-165 1396,-165 1396,-206"/>
<text text-anchor="start" x="1206" y="-194" font-family="Helvetica,sans-Serif" font-size="10.00">/Users/jonathan/Works</text>
<text text-anchor="start" x="1206" y="-183" font-family="Helvetica,sans-Serif" font-size="10.00">/Tools/Triton/src/libtriton</text>
<text text-anchor="middle" x="1297" y="-172" font-family="Helvetica,sans-Serif" font-size="10.00">/arch/arm/aarch64/aarch64Semantics.cpp</text>
</a>
</g>
</g>
<!-- Node5&#45;&gt;Node6 -->
<g id="edge5" class="edge">
<title>Node5&#45;&gt;Node6</title>
<path fill="none" stroke="#63b8ff" d="M1394.96,-236.48C1375.85,-226.73 1354.24,-215.7 1336.19,-206.49"/>
<polygon fill="#63b8ff" stroke="#63b8ff" points="1393.15,-239.48 1403.64,-240.91 1396.33,-233.25 1393.15,-239.48"/>
</g>
<!-- Node7 -->
<g id="node7" class="node">
<title>Node7</title>
<g id="a_node7"><a xlink:href="irBuilder_8cpp.html" target="_top" xlink:title=" ">
<polygon fill="white" stroke="#666666" points="1536,-206 1414,-206 1414,-165 1536,-165 1536,-206"/>
<text text-anchor="start" x="1422" y="-194" font-family="Helvetica,sans-Serif" font-size="10.00">/Users/jonathan/Works</text>
<text text-anchor="start" x="1422" y="-183" font-family="Helvetica,sans-Serif" font-size="10.00">/Tools/Triton/src/libtriton</text>
<text text-anchor="middle" x="1475" y="-172" font-family="Helvetica,sans-Serif" font-size="10.00">/arch/irBuilder.cpp</text>
</a>
</g>
</g>
<!-- Node5&#45;&gt;Node7 -->
<g id="edge6" class="edge">
<title>Node5&#45;&gt;Node7</title>
<path fill="none" stroke="#63b8ff" d="M1456.52,-231.21C1459.98,-222.83 1463.65,-213.95 1466.8,-206.33"/>
<polygon fill="#63b8ff" stroke="#63b8ff" points="1453.31,-229.82 1452.72,-240.4 1459.78,-232.49 1453.31,-229.82"/>
</g>
<!-- Node8&#45;&gt;Node7 -->
<g id="edge9" class="edge">
<title>Node8&#45;&gt;Node7</title>
<path fill="none" stroke="#63b8ff" d="M1587.19,-236.88C1565.25,-227.03 1540.31,-215.83 1519.52,-206.49"/>
<polygon fill="#63b8ff" stroke="#63b8ff" points="1585.75,-240.07 1596.3,-240.98 1588.62,-233.69 1585.75,-240.07"/>
</g>
<!-- Node9 -->
<g id="node9" class="node">
<title>Node9</title>
<g id="a_node9"><a xlink:href="arm32Semantics_8cpp.html" target="_top" xlink:title=" ">
<polygon fill="white" stroke="#666666" points="1737.5,-206 1554.5,-206 1554.5,-165 1737.5,-165 1737.5,-206"/>
<text text-anchor="start" x="1562.5" y="-194" font-family="Helvetica,sans-Serif" font-size="10.00">/Users/jonathan/Works</text>
<text text-anchor="start" x="1562.5" y="-183" font-family="Helvetica,sans-Serif" font-size="10.00">/Tools/Triton/src/libtriton</text>
<text text-anchor="middle" x="1646" y="-172" font-family="Helvetica,sans-Serif" font-size="10.00">/arch/arm/arm32/arm32Semantics.cpp</text>
</a>
</g>
</g>
<!-- Node8&#45;&gt;Node9 -->
<g id="edge8" class="edge">
<title>Node8&#45;&gt;Node9</title>
<path fill="none" stroke="#63b8ff" d="M1643.66,-230.36C1644.09,-222.24 1644.55,-213.7 1644.94,-206.33"/>
<polygon fill="#63b8ff" stroke="#63b8ff" points="1640.17,-230.11 1643.13,-240.28 1647.16,-230.48 1640.17,-230.11"/>
</g>
<!-- Node10&#45;&gt;Node2 -->
<g id="edge14" class="edge">
<title>Node10&#45;&gt;Node2</title>
<path fill="none" stroke="#63b8ff" d="M680.44,-174.3C570.53,-160.03 370.48,-134.05 246.74,-117.99"/>
<polygon fill="#63b8ff" stroke="#63b8ff" points="679.9,-177.76 690.26,-175.58 680.8,-170.82 679.9,-177.76"/>
</g>
<!-- Node11 -->
<g id="node11" class="node">
<title>Node11</title>
<g id="a_node11"><a xlink:href="pyTritonContext_8cpp.html" target="_top" xlink:title=" ">
<polygon fill="white" stroke="#666666" points="750,-129 628,-129 628,-77 750,-77 750,-129"/>
<text text-anchor="start" x="636" y="-117" font-family="Helvetica,sans-Serif" font-size="10.00">/Users/jonathan/Works</text>
<text text-anchor="start" x="636" y="-106" font-family="Helvetica,sans-Serif" font-size="10.00">/Tools/Triton/src/libtriton</text>
<text text-anchor="start" x="636" y="-95" font-family="Helvetica,sans-Serif" font-size="10.00">/bindings/python/objects</text>
<text text-anchor="middle" x="689" y="-84" font-family="Helvetica,sans-Serif" font-size="10.00">/pyTritonContext.cpp</text>
</a>
</g>
</g>
<!-- Node10&#45;&gt;Node11 -->
<g id="edge11" class="edge">
<title>Node10&#45;&gt;Node11</title>
<path fill="none" stroke="#63b8ff" d="M734.18,-155.95C726.66,-147.31 718.46,-137.88 711.13,-129.45"/>
<polygon fill="#63b8ff" stroke="#63b8ff" points="731.5,-158.21 740.7,-163.46 736.78,-153.62 731.5,-158.21"/>
</g>
<!-- Node12 -->
<g id="node12" class="node">
<title>Node12</title>
<g id="a_node12"><a xlink:href="callbacks_8cpp.html" target="_top" xlink:title=" ">
<polygon fill="white" stroke="#666666" points="892,-123.5 768,-123.5 768,-82.5 892,-82.5 892,-123.5"/>
<text text-anchor="start" x="776" y="-111.5" font-family="Helvetica,sans-Serif" font-size="10.00">/Users/jonathan/Works</text>
<text text-anchor="start" x="776" y="-100.5" font-family="Helvetica,sans-Serif" font-size="10.00">/Tools/Triton/src/libtriton</text>
<text text-anchor="middle" x="830" y="-89.5" font-family="Helvetica,sans-Serif" font-size="10.00">/callbacks/callbacks.cpp</text>
</a>
</g>
</g>
<!-- Node10&#45;&gt;Node12 -->
<g id="edge12" class="edge">
<title>Node10&#45;&gt;Node12</title>
<path fill="none" stroke="#63b8ff" d="M784.1,-156.05C793.45,-145.44 803.87,-133.63 812.41,-123.95"/>
<polygon fill="#63b8ff" stroke="#63b8ff" points="781.54,-153.65 777.55,-163.47 786.79,-158.28 781.54,-153.65"/>
</g>
<!-- Node13 -->
<g id="node13" class="node">
<title>Node13</title>
<g id="a_node13"><a xlink:href="context_8cpp.html" target="_top" xlink:title=" ">
<polygon fill="white" stroke="#666666" points="1032,-123.5 910,-123.5 910,-82.5 1032,-82.5 1032,-123.5"/>
<text text-anchor="start" x="918" y="-111.5" font-family="Helvetica,sans-Serif" font-size="10.00">/Users/jonathan/Works</text>
<text text-anchor="start" x="918" y="-100.5" font-family="Helvetica,sans-Serif" font-size="10.00">/Tools/Triton/src/libtriton</text>
<text text-anchor="middle" x="971" y="-89.5" font-family="Helvetica,sans-Serif" font-size="10.00">/context/context.cpp</text>
</a>
</g>
</g>
<!-- Node10&#45;&gt;Node13 -->
<g id="edge13" class="edge">
<title>Node10&#45;&gt;Node13</title>
<path fill="none" stroke="#63b8ff" d="M822.01,-160.57C852.74,-148.91 889.27,-135.04 918.46,-123.95"/>
<polygon fill="#63b8ff" stroke="#63b8ff" points="820.93,-157.24 812.82,-164.06 823.41,-163.79 820.93,-157.24"/>
</g>
<!-- Node14 -->
<g id="node14" class="node">
<title>Node14</title>
<g id="a_node14"><a xlink:href="llvmToTriton_8hpp.html" target="_top" xlink:title=" ">
<polygon fill="white" stroke="#666666" points="609.5,-123.5 454.5,-123.5 454.5,-82.5 609.5,-82.5 609.5,-123.5"/>
<text text-anchor="start" x="462.5" y="-111.5" font-family="Helvetica,sans-Serif" font-size="10.00">/Users/jonathan/Works</text>
<text text-anchor="start" x="462.5" y="-100.5" font-family="Helvetica,sans-Serif" font-size="10.00">/Tools/Triton/src/libtriton</text>
<text text-anchor="middle" x="532" y="-89.5" font-family="Helvetica,sans-Serif" font-size="10.00">/includes/triton/llvmToTriton.hpp</text>
</a>
</g>
</g>
<!-- Node10&#45;&gt;Node14 -->
<g id="edge15" class="edge">
<title>Node10&#45;&gt;Node14</title>
<path fill="none" stroke="#63b8ff" d="M692.39,-160.88C659.32,-149.15 619.79,-135.13 588.25,-123.95"/>
<polygon fill="#63b8ff" stroke="#63b8ff" points="690.87,-164.05 701.46,-164.1 693.21,-157.45 690.87,-164.05"/>
</g>
<!-- Node15 -->
<g id="node15" class="node">
<title>Node15</title>
<g id="a_node15"><a xlink:href="llvmToTriton_8cpp.html" target="_top" xlink:title=" ">
<polygon fill="white" stroke="#666666" points="515.5,-41 386.5,-41 386.5,0 515.5,0 515.5,-41"/>
<text text-anchor="start" x="394.5" y="-29" font-family="Helvetica,sans-Serif" font-size="10.00">/Users/jonathan/Works</text>
<text text-anchor="start" x="394.5" y="-18" font-family="Helvetica,sans-Serif" font-size="10.00">/Tools/Triton/src/libtriton</text>
<text text-anchor="middle" x="451" y="-7" font-family="Helvetica,sans-Serif" font-size="10.00">/ast/llvm/llvmToTriton.cpp</text>
</a>
</g>
</g>
<!-- Node14&#45;&gt;Node15 -->
<g id="edge16" class="edge">
<title>Node14&#45;&gt;Node15</title>
<path fill="none" stroke="#63b8ff" d="M504.01,-74.18C493.17,-63.41 481.01,-51.33 471.07,-41.45"/>
<polygon fill="#63b8ff" stroke="#63b8ff" points="501.34,-76.47 510.9,-81.03 506.28,-71.5 501.34,-76.47"/>
</g>
<!-- Node16 -->
<g id="node16" class="node">
<title>Node16</title>
<g id="a_node16"><a xlink:href="liftingToLLVM_8cpp.html" target="_top" xlink:title=" ">
<polygon fill="white" stroke="#666666" points="694.5,-41 533.5,-41 533.5,0 694.5,0 694.5,-41"/>
<text text-anchor="start" x="541.5" y="-29" font-family="Helvetica,sans-Serif" font-size="10.00">/Users/jonathan/Works</text>
<text text-anchor="start" x="541.5" y="-18" font-family="Helvetica,sans-Serif" font-size="10.00">/Tools/Triton/src/libtriton</text>
<text text-anchor="middle" x="614" y="-7" font-family="Helvetica,sans-Serif" font-size="10.00">/engines/lifters/liftingToLLVM.cpp</text>
</a>
</g>
</g>
<!-- Node14&#45;&gt;Node16 -->
<g id="edge17" class="edge">
<title>Node14&#45;&gt;Node16</title>
<path fill="none" stroke="#63b8ff" d="M560.34,-74.18C571.31,-63.41 583.62,-51.33 593.68,-41.45"/>
<polygon fill="#63b8ff" stroke="#63b8ff" points="558.03,-71.54 553.35,-81.04 562.94,-76.53 558.03,-71.54"/>
</g>
<!-- Node17&#45;&gt;Node7 -->
<g id="edge19" class="edge">
<title>Node17&#45;&gt;Node7</title>
<path fill="none" stroke="#63b8ff" d="M1142.98,-247.96C1155.05,-245.95 1167.35,-243.91 1179,-242 1279.37,-225.57 1305.63,-227.68 1405,-206 1407.83,-205.38 1410.73,-204.72 1413.64,-204.02"/>
<polygon fill="#63b8ff" stroke="#63b8ff" points="1142.77,-244.45 1133.48,-249.55 1143.92,-251.35 1142.77,-244.45"/>
</g>
<!-- Node17&#45;&gt;Node10 -->
<g id="edge20" class="edge">
<title>Node17&#45;&gt;Node10</title>
<path fill="none" stroke="#63b8ff" d="M983.15,-241.55C924.64,-227.06 868.58,-213.3 826.26,-202.94"/>
<polygon fill="#63b8ff" stroke="#63b8ff" points="982.08,-244.89 992.63,-243.89 983.77,-238.09 982.08,-244.89"/>
</g>
<!-- Node18&#45;&gt;Node10 -->
<g id="edge22" class="edge">
<title>Node18&#45;&gt;Node10</title>
<path fill="none" stroke="#63b8ff" d="M549.95,-239.11C595.38,-227.68 649.76,-213.99 691.67,-203.45"/>
<polygon fill="#63b8ff" stroke="#63b8ff" points="549.22,-235.69 540.37,-241.52 550.93,-242.48 549.22,-235.69"/>
</g>
<!-- Node19&#45;&gt;Node18 -->
<g id="edge25" class="edge">
<title>Node19&#45;&gt;Node18</title>
<path fill="none" stroke="#63b8ff" d="M308.01,-314.95C338.05,-304.85 372.78,-293.17 401.55,-283.49"/>
<polygon fill="#63b8ff" stroke="#63b8ff" points="306.97,-311.61 298.61,-318.12 309.2,-318.25 306.97,-311.61"/>
</g>
<!-- Node20 -->
<g id="node20" class="node">
<title>Node20</title>
<g id="a_node20"><a xlink:href="liftingToDot_8cpp.html" target="_top" xlink:title=" ">
<polygon fill="white" stroke="#666666" points="180,-283 28,-283 28,-242 180,-242 180,-283"/>
<text text-anchor="start" x="36" y="-271" font-family="Helvetica,sans-Serif" font-size="10.00">/Users/jonathan/Works</text>
<text text-anchor="start" x="36" y="-260" font-family="Helvetica,sans-Serif" font-size="10.00">/Tools/Triton/src/libtriton</text>
<text text-anchor="middle" x="104" y="-249" font-family="Helvetica,sans-Serif" font-size="10.00">/engines/lifters/liftingToDot.cpp</text>
</a>
</g>
</g>
<!-- Node19&#45;&gt;Node20 -->
<g id="edge24" class="edge">
<title>Node19&#45;&gt;Node20</title>
<path fill="none" stroke="#63b8ff" d="M192.58,-313.08C175.33,-303.42 155.95,-292.58 139.72,-283.49"/>
<polygon fill="#63b8ff" stroke="#63b8ff" points="190.69,-316.03 201.12,-317.86 194.1,-309.92 190.69,-316.03"/>
</g>
<!-- Node21&#45;&gt;Node18 -->
<g id="edge28" class="edge">
<title>Node21&#45;&gt;Node18</title>
<path fill="none" stroke="#63b8ff" d="M433.66,-309.06C438.84,-300.43 444.37,-291.21 449.1,-283.33"/>
<polygon fill="#63b8ff" stroke="#63b8ff" points="430.75,-307.12 428.6,-317.5 436.75,-310.72 430.75,-307.12"/>
</g>
<!-- Node22 -->
<g id="node22" class="node">
<title>Node22</title>
<g id="a_node22"><a xlink:href="liftingToPython_8cpp.html" target="_top" xlink:title=" ">
<polygon fill="white" stroke="#666666" points="365.5,-283 198.5,-283 198.5,-242 365.5,-242 365.5,-283"/>
<text text-anchor="start" x="206.5" y="-271" font-family="Helvetica,sans-Serif" font-size="10.00">/Users/jonathan/Works</text>
<text text-anchor="start" x="206.5" y="-260" font-family="Helvetica,sans-Serif" font-size="10.00">/Tools/Triton/src/libtriton</text>
<text text-anchor="middle" x="282" y="-249" font-family="Helvetica,sans-Serif" font-size="10.00">/engines/lifters/liftingToPython.cpp</text>
</a>
</g>
</g>
<!-- Node21&#45;&gt;Node22 -->
<g id="edge27" class="edge">
<title>Node21&#45;&gt;Node22</title>
<path fill="none" stroke="#63b8ff" d="M370.58,-313.08C353.33,-303.42 333.95,-292.58 317.72,-283.49"/>
<polygon fill="#63b8ff" stroke="#63b8ff" points="368.69,-316.03 379.12,-317.86 372.1,-309.92 368.69,-316.03"/>
</g>
<!-- Node23&#45;&gt;Node18 -->
<g id="edge31" class="edge">
<title>Node23&#45;&gt;Node18</title>
<path fill="none" stroke="#63b8ff" d="M577.53,-314.02C554.73,-304.13 528.75,-292.87 507.12,-283.49"/>
<polygon fill="#63b8ff" stroke="#63b8ff" points="576.14,-317.23 586.7,-318 578.92,-310.81 576.14,-317.23"/>
</g>
<!-- Node24 -->
<g id="node24" class="node">
<title>Node24</title>
<g id="a_node24"><a xlink:href="liftingToSMT_8cpp.html" target="_top" xlink:title=" ">
<polygon fill="white" stroke="#666666" points="711.5,-283 556.5,-283 556.5,-242 711.5,-242 711.5,-283"/>
<text text-anchor="start" x="564.5" y="-271" font-family="Helvetica,sans-Serif" font-size="10.00">/Users/jonathan/Works</text>
<text text-anchor="start" x="564.5" y="-260" font-family="Helvetica,sans-Serif" font-size="10.00">/Tools/Triton/src/libtriton</text>
<text text-anchor="middle" x="634" y="-249" font-family="Helvetica,sans-Serif" font-size="10.00">/engines/lifters/liftingToSMT.cpp</text>
</a>
</g>
</g>
<!-- Node23&#45;&gt;Node24 -->
<g id="edge30" class="edge">
<title>Node23&#45;&gt;Node24</title>
<path fill="none" stroke="#63b8ff" d="M634,-307.36C634,-299.24 634,-290.7 634,-283.33"/>
<polygon fill="#63b8ff" stroke="#63b8ff" points="630.5,-307.28 634,-317.28 637.5,-307.28 630.5,-307.28"/>
</g>
<!-- Node25&#45;&gt;Node10 -->
<g id="edge34" class="edge">
<title>Node25&#45;&gt;Node10</title>
<path fill="none" stroke="#63b8ff" d="M960.3,-318.64C886.01,-305.14 851.82,-329.61 797,-283 774.09,-263.52 764.9,-228.39 761.28,-206.32"/>
<polygon fill="#63b8ff" stroke="#63b8ff" points="959.57,-322.06 970.07,-320.62 960.96,-315.2 959.57,-322.06"/>
</g>
<!-- Node26 -->
<g id="node26" class="node">
<title>Node26</title>
<g id="a_node26"><a xlink:href="synthesizer_8cpp.html" target="_top" xlink:title=" ">
<polygon fill="white" stroke="#666666" points="976,-283 806,-283 806,-242 976,-242 976,-283"/>
<text text-anchor="start" x="814" y="-271" font-family="Helvetica,sans-Serif" font-size="10.00">/Users/jonathan/Works</text>
<text text-anchor="start" x="814" y="-260" font-family="Helvetica,sans-Serif" font-size="10.00">/Tools/Triton/src/libtriton</text>
<text text-anchor="middle" x="891" y="-249" font-family="Helvetica,sans-Serif" font-size="10.00">/engines/synthesis/synthesizer.cpp</text>
</a>
</g>
</g>
<!-- Node25&#45;&gt;Node26 -->
<g id="edge33" class="edge">
<title>Node25&#45;&gt;Node26</title>
<path fill="none" stroke="#63b8ff" d="M996.19,-313.75C975.64,-303.93 952.31,-292.79 932.86,-283.49"/>
<polygon fill="#63b8ff" stroke="#63b8ff" points="994.44,-316.79 1004.97,-317.95 997.46,-310.48 994.44,-316.79"/>
</g>
<!-- Node27&#45;&gt;Node5 -->
<g id="edge37" class="edge">
<title>Node27&#45;&gt;Node5</title>
<path fill="none" stroke="#63b8ff" d="M1320.08,-314.29C1344.35,-304.34 1372.12,-292.96 1395.21,-283.49"/>
<polygon fill="#63b8ff" stroke="#63b8ff" points="1318.89,-310.99 1310.96,-318.02 1321.54,-317.47 1318.89,-310.99"/>
</g>
<!-- Node27&#45;&gt;Node8 -->
<g id="edge38" class="edge">
<title>Node27&#45;&gt;Node8</title>
<path fill="none" stroke="#63b8ff" d="M1348.28,-321.45C1404.23,-310.5 1478.4,-295.96 1544,-283 1547.15,-282.38 1550.35,-281.74 1553.59,-281.1"/>
<polygon fill="#63b8ff" stroke="#63b8ff" points="1347.61,-318.01 1338.47,-323.37 1348.95,-324.88 1347.61,-318.01"/>
</g>
<!-- Node27&#45;&gt;Node10 -->
<g id="edge39" class="edge">
<title>Node27&#45;&gt;Node10</title>
<path fill="none" stroke="#63b8ff" d="M1218.92,-312.54C1205.71,-303.73 1191.35,-293.46 1179,-283 1159.81,-266.75 1162.34,-253.56 1140,-242 1086.72,-214.43 920.84,-198.24 826.46,-191.02"/>
<polygon fill="#63b8ff" stroke="#63b8ff" points="1216.75,-315.3 1227.04,-317.85 1220.58,-309.44 1216.75,-315.3"/>
</g>
<!-- Node27&#45;&gt;Node17 -->
<g id="edge40" class="edge">
<title>Node27&#45;&gt;Node17</title>
<path fill="none" stroke="#63b8ff" d="M1197.78,-314.55C1171.35,-304.54 1140.99,-293.04 1115.79,-283.49"/>
<polygon fill="#63b8ff" stroke="#63b8ff" points="1196.45,-317.79 1207.04,-318.06 1198.93,-311.25 1196.45,-317.79"/>
</g>
<!-- Node28 -->
<g id="node28" class="node">
<title>Node28</title>
<g id="a_node28"><a xlink:href="taintEngine_8cpp.html" target="_top" xlink:title=" ">
<polygon fill="white" stroke="#666666" points="1334,-283 1188,-283 1188,-242 1334,-242 1334,-283"/>
<text text-anchor="start" x="1196" y="-271" font-family="Helvetica,sans-Serif" font-size="10.00">/Users/jonathan/Works</text>
<text text-anchor="start" x="1196" y="-260" font-family="Helvetica,sans-Serif" font-size="10.00">/Tools/Triton/src/libtriton</text>
<text text-anchor="middle" x="1261" y="-249" font-family="Helvetica,sans-Serif" font-size="10.00">/engines/taint/taintEngine.cpp</text>
</a>
</g>
</g>
<!-- Node27&#45;&gt;Node28 -->
<g id="edge36" class="edge">
<title>Node27&#45;&gt;Node28</title>
<path fill="none" stroke="#63b8ff" d="M1261,-307.36C1261,-299.24 1261,-290.7 1261,-283.33"/>
<polygon fill="#63b8ff" stroke="#63b8ff" points="1257.5,-307.28 1261,-317.28 1264.5,-307.28 1257.5,-307.28"/>
</g>
<!-- Node27&#45;&gt;Node29 -->
<g id="edge41" class="edge">
<title>Node27&#45;&gt;Node29</title>
<path fill="none" stroke="#63b8ff" d="M1348.05,-330.91C1444.12,-321.95 1603.15,-305.39 1739,-283 1741.87,-282.53 1744.79,-282.02 1747.73,-281.5"/>
<polygon fill="#63b8ff" stroke="#63b8ff" points="1347.79,-327.42 1338.16,-331.83 1348.44,-334.39 1347.79,-327.42"/>
</g>
<!-- Node29&#45;&gt;Node7 -->
<g id="edge42" class="edge">
<title>Node29&#45;&gt;Node7</title>
<path fill="none" stroke="#63b8ff" d="M1736.39,-241.52C1651.05,-224.86 1626.93,-224.97 1545,-206 1542.17,-205.35 1539.29,-204.65 1536.38,-203.93"/>
<polygon fill="#63b8ff" stroke="#63b8ff" points="1735.71,-244.95 1746.2,-243.46 1737.07,-238.09 1735.71,-244.95"/>
</g>
<!-- Node30 -->
<g id="node30" class="node">
<title>Node30</title>
<g id="a_node30"><a xlink:href="x86Semantics_8cpp.html" target="_top" xlink:title=" ">
<polygon fill="white" stroke="#666666" points="1900.5,-206 1759.5,-206 1759.5,-165 1900.5,-165 1900.5,-206"/>
<text text-anchor="start" x="1767.5" y="-194" font-family="Helvetica,sans-Serif" font-size="10.00">/Users/jonathan/Works</text>
<text text-anchor="start" x="1767.5" y="-183" font-family="Helvetica,sans-Serif" font-size="10.00">/Tools/Triton/src/libtriton</text>
<text text-anchor="middle" x="1830" y="-172" font-family="Helvetica,sans-Serif" font-size="10.00">/arch/x86/x86Semantics.cpp</text>
</a>
</g>
</g>
<!-- Node29&#45;&gt;Node30 -->
<g id="edge43" class="edge">
<title>Node29&#45;&gt;Node30</title>
<path fill="none" stroke="#63b8ff" d="M1830,-230.36C1830,-222.24 1830,-213.7 1830,-206.33"/>
<polygon fill="#63b8ff" stroke="#63b8ff" points="1826.5,-230.28 1830,-240.28 1833.5,-230.28 1826.5,-230.28"/>
</g>
</g>
</svg>
