<?xml version="1.0" encoding="UTF-8" standalone="no"?>
<!DOCTYPE svg PUBLIC "-//W3C//DTD SVG 1.1//EN"
 "http://www.w3.org/Graphics/SVG/1.1/DTD/svg11.dtd">
<!-- Generated by graphviz version 7.0.0 (20221023.0053)
 -->
<!-- Title: /Users/jonathan/Works/Tools/Triton/src/libtriton/includes/triton/symbolicEngine.hpp Pages: 1 -->
<svg width="1910pt" height="445pt"
 viewBox="0.00 0.00 1910.00 445.00" xmlns="http://www.w3.org/2000/svg" xmlns:xlink="http://www.w3.org/1999/xlink">
<g id="graph0" class="graph" transform="scale(1 1) rotate(0) translate(4 441)">
<title>/Users/jonathan/Works/Tools/Triton/src/libtriton/includes/triton/symbolicEngine.hpp</title>
<!-- Node1 -->
<g id="node1" class="node">
<title>Node1</title>
<g id="a_node1"><a xlink:title=" ">
<polygon fill="#999999" stroke="#666666" points="1024.5,-437 853.5,-437 853.5,-396 1024.5,-396 1024.5,-437"/>
<text text-anchor="start" x="861.5" y="-425" font-family="Helvetica,sans-Serif" font-size="10.00">/Users/jonathan/Works</text>
<text text-anchor="start" x="861.5" y="-414" font-family="Helvetica,sans-Serif" font-size="10.00">/Tools/Triton/src/libtriton</text>
<text text-anchor="middle" x="939" y="-403" font-family="Helvetica,sans-Serif" font-size="10.00">/includes/triton/symbolicEngine.hpp</text>
</a>
</g>
</g>
<!-- Node2 -->
<g id="node2" class="node">
<title>Node2</title>
<g id="a_node2"><a xlink:href="symbolicEngine_8cpp.html" target="_top" xlink:title=" ">
<polygon fill="white" stroke="#666666" points="532,-360 346,-360 346,-319 532,-319 532,-360"/>
<text text-anchor="start" x="354" y="-348" font-family="Helvetica,sans-Serif" font-size="10.00">/Users/jonathan/Works</text>
<text text-anchor="start" x="354" y="-337" font-family="Helvetica,sans-Serif" font-size="10.00">/Tools/Triton/src/libtriton</text>
<text text-anchor="middle" x="439" y="-326" font-family="Helvetica,sans-Serif" font-size="10.00">/engines/symbolic/symbolicEngine.cpp</text>
</a>
</g>
</g>
<!-- Node1&#45;&gt;Node2 -->
<g id="edge1" class="edge">
<title>Node1&#45;&gt;Node2</title>
<path fill="none" stroke="#63b8ff" d="M842.38,-402.95C762.73,-392.34 646.86,-376.31 546,-360 541.53,-359.28 536.95,-358.52 532.33,-357.74"/>
<polygon fill="#63b8ff" stroke="#63b8ff" points="841.5,-406.36 851.87,-404.21 842.42,-399.42 841.5,-406.36"/>
</g>
<!-- Node3 -->
<g id="node3" class="node">
<title>Node3</title>
<g id="a_node3"><a xlink:href="aarch64Semantics_8hpp.html" target="_top" xlink:title=" ">
<polygon fill="white" stroke="#666666" points="201.5,-283 18.5,-283 18.5,-242 201.5,-242 201.5,-283"/>
<text text-anchor="start" x="26.5" y="-271" font-family="Helvetica,sans-Serif" font-size="10.00">/Users/jonathan/Works</text>
<text text-anchor="start" x="26.5" y="-260" font-family="Helvetica,sans-Serif" font-size="10.00">/Tools/Triton/src/libtriton</text>
<text text-anchor="middle" x="110" y="-249" font-family="Helvetica,sans-Serif" font-size="10.00">/includes/triton/aarch64Semantics.hpp</text>
</a>
</g>
</g>
<!-- Node1&#45;&gt;Node3 -->
<g id="edge2" class="edge">
<title>Node1&#45;&gt;Node3</title>
<path fill="none" stroke="#63b8ff" d="M841.97,-408.7C749.64,-400.82 618.4,-385.54 574,-360 553.72,-348.34 561.52,-330.23 541,-319 476.29,-283.58 283.94,-294 211,-283 208,-282.55 204.95,-282.07 201.87,-281.57"/>
<polygon fill="#63b8ff" stroke="#63b8ff" points="841.55,-412.18 851.81,-409.52 842.13,-405.2 841.55,-412.18"/>
</g>
<!-- Node6 -->
<g id="node6" class="node">
<title>Node6</title>
<g id="a_node6"><a xlink:href="arm32Semantics_8hpp.html" target="_top" xlink:title=" ">
<polygon fill="white" stroke="#666666" points="396,-283 220,-283 220,-242 396,-242 396,-283"/>
<text text-anchor="start" x="228" y="-271" font-family="Helvetica,sans-Serif" font-size="10.00">/Users/jonathan/Works</text>
<text text-anchor="start" x="228" y="-260" font-family="Helvetica,sans-Serif" font-size="10.00">/Tools/Triton/src/libtriton</text>
<text text-anchor="middle" x="308" y="-249" font-family="Helvetica,sans-Serif" font-size="10.00">/includes/triton/arm32Semantics.hpp</text>
</a>
</g>
</g>
<!-- Node1&#45;&gt;Node6 -->
<g id="edge5" class="edge">
<title>Node1&#45;&gt;Node6</title>
<path fill="none" stroke="#63b8ff" d="M841.69,-405.96C760.06,-396.7 650.76,-380.96 612,-360 590.15,-348.18 595.63,-331.23 574,-319 570,-316.74 472.1,-296.62 396.22,-281.25"/>
<polygon fill="#63b8ff" stroke="#63b8ff" points="841.19,-409.43 851.51,-407.06 841.96,-402.47 841.19,-409.43"/>
</g>
<!-- Node8 -->
<g id="node8" class="node">
<title>Node8</title>
<g id="a_node8"><a xlink:href="context_8hpp.html" target="_top" xlink:title=" ">
<polygon fill="white" stroke="#666666" points="1031,-206 897,-206 897,-165 1031,-165 1031,-206"/>
<text text-anchor="start" x="905" y="-194" font-family="Helvetica,sans-Serif" font-size="10.00">/Users/jonathan/Works</text>
<text text-anchor="start" x="905" y="-183" font-family="Helvetica,sans-Serif" font-size="10.00">/Tools/Triton/src/libtriton</text>
<text text-anchor="middle" x="964" y="-172" font-family="Helvetica,sans-Serif" font-size="10.00">/includes/triton/context.hpp</text>
</a>
</g>
</g>
<!-- Node1&#45;&gt;Node8 -->
<g id="edge8" class="edge">
<title>Node1&#45;&gt;Node8</title>
<path fill="none" stroke="#63b8ff" d="M942.4,-384.37C947.63,-336.47 957.5,-246.06 961.85,-206.21"/>
<polygon fill="#63b8ff" stroke="#63b8ff" points="938.95,-383.75 941.34,-394.07 945.9,-384.51 938.95,-383.75"/>
</g>
<!-- Node16 -->
<g id="node16" class="node">
<title>Node16</title>
<g id="a_node16"><a xlink:href="irBuilder_8hpp.html" target="_top" xlink:title=" ">
<polygon fill="white" stroke="#666666" points="935.5,-283 798.5,-283 798.5,-242 935.5,-242 935.5,-283"/>
<text text-anchor="start" x="806.5" y="-271" font-family="Helvetica,sans-Serif" font-size="10.00">/Users/jonathan/Works</text>
<text text-anchor="start" x="806.5" y="-260" font-family="Helvetica,sans-Serif" font-size="10.00">/Tools/Triton/src/libtriton</text>
<text text-anchor="middle" x="867" y="-249" font-family="Helvetica,sans-Serif" font-size="10.00">/includes/triton/irBuilder.hpp</text>
</a>
</g>
</g>
<!-- Node1&#45;&gt;Node16 -->
<g id="edge16" class="edge">
<title>Node1&#45;&gt;Node16</title>
<path fill="none" stroke="#63b8ff" d="M924.67,-385.24C910.34,-354.99 888.71,-309.32 876.42,-283.38"/>
<polygon fill="#63b8ff" stroke="#63b8ff" points="921.5,-386.72 928.94,-394.26 927.82,-383.73 921.5,-386.72"/>
</g>
<!-- Node17 -->
<g id="node17" class="node">
<title>Node17</title>
<g id="a_node17"><a xlink:href="liftingEngine_8hpp.html" target="_top" xlink:title=" ">
<polygon fill="white" stroke="#666666" points="1317.5,-283 1162.5,-283 1162.5,-242 1317.5,-242 1317.5,-283"/>
<text text-anchor="start" x="1170.5" y="-271" font-family="Helvetica,sans-Serif" font-size="10.00">/Users/jonathan/Works</text>
<text text-anchor="start" x="1170.5" y="-260" font-family="Helvetica,sans-Serif" font-size="10.00">/Tools/Triton/src/libtriton</text>
<text text-anchor="middle" x="1240" y="-249" font-family="Helvetica,sans-Serif" font-size="10.00">/includes/triton/liftingEngine.hpp</text>
</a>
</g>
</g>
<!-- Node1&#45;&gt;Node17 -->
<g id="edge19" class="edge">
<title>Node1&#45;&gt;Node17</title>
<path fill="none" stroke="#63b8ff" d="M1035.99,-402.73C1074.42,-394.6 1117.76,-381.39 1153,-360 1157.34,-357.37 1198.59,-310.73 1222.7,-283.27"/>
<polygon fill="#63b8ff" stroke="#63b8ff" points="1035.36,-399.28 1026.24,-404.69 1036.74,-406.14 1035.36,-399.28"/>
</g>
<!-- Node18 -->
<g id="node18" class="node">
<title>Node18</title>
<g id="a_node18"><a xlink:href="liftingToDot_8hpp.html" target="_top" xlink:title=" ">
<polygon fill="white" stroke="#666666" points="1144,-360 992,-360 992,-319 1144,-319 1144,-360"/>
<text text-anchor="start" x="1000" y="-348" font-family="Helvetica,sans-Serif" font-size="10.00">/Users/jonathan/Works</text>
<text text-anchor="start" x="1000" y="-337" font-family="Helvetica,sans-Serif" font-size="10.00">/Tools/Triton/src/libtriton</text>
<text text-anchor="middle" x="1068" y="-326" font-family="Helvetica,sans-Serif" font-size="10.00">/includes/triton/liftingToDot.hpp</text>
</a>
</g>
</g>
<!-- Node1&#45;&gt;Node18 -->
<g id="edge21" class="edge">
<title>Node1&#45;&gt;Node18</title>
<path fill="none" stroke="#63b8ff" d="M982.73,-390.08C999.33,-380.42 1017.99,-369.58 1033.61,-360.49"/>
<polygon fill="#63b8ff" stroke="#63b8ff" points="981.43,-386.79 974.54,-394.84 984.94,-392.84 981.43,-386.79"/>
</g>
<!-- Node20 -->
<g id="node20" class="node">
<title>Node20</title>
<g id="a_node20"><a xlink:href="liftingToPython_8hpp.html" target="_top" xlink:title=" ">
<polygon fill="white" stroke="#666666" points="1367.5,-360 1200.5,-360 1200.5,-319 1367.5,-319 1367.5,-360"/>
<text text-anchor="start" x="1208.5" y="-348" font-family="Helvetica,sans-Serif" font-size="10.00">/Users/jonathan/Works</text>
<text text-anchor="start" x="1208.5" y="-337" font-family="Helvetica,sans-Serif" font-size="10.00">/Tools/Triton/src/libtriton</text>
<text text-anchor="middle" x="1284" y="-326" font-family="Helvetica,sans-Serif" font-size="10.00">/includes/triton/liftingToPython.hpp</text>
</a>
</g>
</g>
<!-- Node1&#45;&gt;Node20 -->
<g id="edge24" class="edge">
<title>Node1&#45;&gt;Node20</title>
<path fill="none" stroke="#63b8ff" d="M1035.91,-394.43C1087.63,-383.19 1150.63,-369.49 1200.21,-358.72"/>
<polygon fill="#63b8ff" stroke="#63b8ff" points="1035.23,-391 1026.2,-396.54 1036.72,-397.84 1035.23,-391"/>
</g>
<!-- Node22 -->
<g id="node22" class="node">
<title>Node22</title>
<g id="a_node22"><a xlink:href="liftingToSMT_8hpp.html" target="_top" xlink:title=" ">
<polygon fill="white" stroke="#666666" points="1540.5,-360 1385.5,-360 1385.5,-319 1540.5,-319 1540.5,-360"/>
<text text-anchor="start" x="1393.5" y="-348" font-family="Helvetica,sans-Serif" font-size="10.00">/Users/jonathan/Works</text>
<text text-anchor="start" x="1393.5" y="-337" font-family="Helvetica,sans-Serif" font-size="10.00">/Tools/Triton/src/libtriton</text>
<text text-anchor="middle" x="1463" y="-326" font-family="Helvetica,sans-Serif" font-size="10.00">/includes/triton/liftingToSMT.hpp</text>
</a>
</g>
</g>
<!-- Node1&#45;&gt;Node22 -->
<g id="edge27" class="edge">
<title>Node1&#45;&gt;Node22</title>
<path fill="none" stroke="#63b8ff" d="M1036.41,-405.89C1125.44,-396.47 1260.57,-380.53 1377,-360 1379.71,-359.52 1382.47,-359.01 1385.25,-358.48"/>
<polygon fill="#63b8ff" stroke="#63b8ff" points="1036.06,-402.41 1026.48,-406.94 1036.79,-409.37 1036.06,-402.41"/>
</g>
<!-- Node24 -->
<g id="node24" class="node">
<title>Node24</title>
<g id="a_node24"><a xlink:href="synthesizer_8hpp.html" target="_top" xlink:title=" ">
<polygon fill="white" stroke="#666666" points="1780,-360 1628,-360 1628,-319 1780,-319 1780,-360"/>
<text text-anchor="start" x="1636" y="-348" font-family="Helvetica,sans-Serif" font-size="10.00">/Users/jonathan/Works</text>
<text text-anchor="start" x="1636" y="-337" font-family="Helvetica,sans-Serif" font-size="10.00">/Tools/Triton/src/libtriton</text>
<text text-anchor="middle" x="1704" y="-326" font-family="Helvetica,sans-Serif" font-size="10.00">/includes/triton/synthesizer.hpp</text>
</a>
</g>
</g>
<!-- Node1&#45;&gt;Node24 -->
<g id="edge30" class="edge">
<title>Node1&#45;&gt;Node24</title>
<path fill="none" stroke="#63b8ff" d="M1036.24,-407.73C1156.88,-397.86 1368.82,-379.69 1550,-360 1575.32,-357.25 1602.93,-353.87 1627.69,-350.7"/>
<polygon fill="#63b8ff" stroke="#63b8ff" points="1036.04,-404.24 1026.36,-408.54 1036.61,-411.22 1036.04,-404.24"/>
</g>
<!-- Node26 -->
<g id="node26" class="node">
<title>Node26</title>
<g id="a_node26"><a xlink:href="taintEngine_8hpp.html" target="_top" xlink:title=" ">
<polygon fill="white" stroke="#666666" points="815.5,-360 664.5,-360 664.5,-319 815.5,-319 815.5,-360"/>
<text text-anchor="start" x="672.5" y="-348" font-family="Helvetica,sans-Serif" font-size="10.00">/Users/jonathan/Works</text>
<text text-anchor="start" x="672.5" y="-337" font-family="Helvetica,sans-Serif" font-size="10.00">/Tools/Triton/src/libtriton</text>
<text text-anchor="middle" x="740" y="-326" font-family="Helvetica,sans-Serif" font-size="10.00">/includes/triton/taintEngine.hpp</text>
</a>
</g>
</g>
<!-- Node1&#45;&gt;Node26 -->
<g id="edge33" class="edge">
<title>Node1&#45;&gt;Node26</title>
<path fill="none" stroke="#63b8ff" d="M875.46,-391.55C848.9,-381.54 818.39,-370.04 793.05,-360.49"/>
<polygon fill="#63b8ff" stroke="#63b8ff" points="874.19,-394.81 884.78,-395.06 876.65,-388.26 874.19,-394.81"/>
</g>
<!-- Node28 -->
<g id="node28" class="node">
<title>Node28</title>
<g id="a_node28"><a xlink:href="x86Semantics_8hpp.html" target="_top" xlink:title=" ">
<polygon fill="white" stroke="#666666" points="578,-283 414,-283 414,-242 578,-242 578,-283"/>
<text text-anchor="start" x="422" y="-271" font-family="Helvetica,sans-Serif" font-size="10.00">/Users/jonathan/Works</text>
<text text-anchor="start" x="422" y="-260" font-family="Helvetica,sans-Serif" font-size="10.00">/Tools/Triton/src/libtriton</text>
<text text-anchor="middle" x="496" y="-249" font-family="Helvetica,sans-Serif" font-size="10.00">/includes/triton/x86Semantics.hpp</text>
</a>
</g>
</g>
<!-- Node1&#45;&gt;Node28 -->
<g id="edge42" class="edge">
<title>Node1&#45;&gt;Node28</title>
<path fill="none" stroke="#63b8ff" d="M841.97,-410.15C784.91,-403.76 712.84,-389.91 655,-360 631.54,-347.87 633.74,-334 612,-319 591.79,-305.05 567.53,-292.85 546.43,-283.46"/>
<polygon fill="#63b8ff" stroke="#63b8ff" points="841.36,-413.6 851.67,-411.17 842.09,-406.64 841.36,-413.6"/>
</g>
<!-- Node4 -->
<g id="node4" class="node">
<title>Node4</title>
<g id="a_node4"><a xlink:href="aarch64Semantics_8cpp.html" target="_top" xlink:title=" ">
<polygon fill="white" stroke="#666666" points="198,-206 0,-206 0,-165 198,-165 198,-206"/>
<text text-anchor="start" x="8" y="-194" font-family="Helvetica,sans-Serif" font-size="10.00">/Users/jonathan/Works</text>
<text text-anchor="start" x="8" y="-183" font-family="Helvetica,sans-Serif" font-size="10.00">/Tools/Triton/src/libtriton</text>
<text text-anchor="middle" x="99" y="-172" font-family="Helvetica,sans-Serif" font-size="10.00">/arch/arm/aarch64/aarch64Semantics.cpp</text>
</a>
</g>
</g>
<!-- Node3&#45;&gt;Node4 -->
<g id="edge3" class="edge">
<title>Node3&#45;&gt;Node4</title>
<path fill="none" stroke="#63b8ff" d="M105.48,-230.65C104.27,-222.43 103,-213.78 101.91,-206.33"/>
<polygon fill="#63b8ff" stroke="#63b8ff" points="101.98,-230.91 106.89,-240.3 108.9,-229.9 101.98,-230.91"/>
</g>
<!-- Node5 -->
<g id="node5" class="node">
<title>Node5</title>
<g id="a_node5"><a xlink:href="irBuilder_8cpp.html" target="_top" xlink:title=" ">
<polygon fill="white" stroke="#666666" points="540,-206 418,-206 418,-165 540,-165 540,-206"/>
<text text-anchor="start" x="426" y="-194" font-family="Helvetica,sans-Serif" font-size="10.00">/Users/jonathan/Works</text>
<text text-anchor="start" x="426" y="-183" font-family="Helvetica,sans-Serif" font-size="10.00">/Tools/Triton/src/libtriton</text>
<text text-anchor="middle" x="479" y="-172" font-family="Helvetica,sans-Serif" font-size="10.00">/arch/irBuilder.cpp</text>
</a>
</g>
</g>
<!-- Node3&#45;&gt;Node5 -->
<g id="edge4" class="edge">
<title>Node3&#45;&gt;Node5</title>
<path fill="none" stroke="#63b8ff" d="M213.17,-241.62C300.4,-225.55 324.7,-225.01 408,-206 411.12,-205.29 414.3,-204.53 417.51,-203.74"/>
<polygon fill="#63b8ff" stroke="#63b8ff" points="212.6,-238.16 203.41,-243.44 213.88,-245.05 212.6,-238.16"/>
</g>
<!-- Node6&#45;&gt;Node5 -->
<g id="edge7" class="edge">
<title>Node6&#45;&gt;Node5</title>
<path fill="none" stroke="#63b8ff" d="M363.82,-237.02C386.35,-227.13 412.03,-215.87 433.41,-206.49"/>
<polygon fill="#63b8ff" stroke="#63b8ff" points="362.51,-233.77 354.76,-240.99 365.33,-240.18 362.51,-233.77"/>
</g>
<!-- Node7 -->
<g id="node7" class="node">
<title>Node7</title>
<g id="a_node7"><a xlink:href="arm32Semantics_8cpp.html" target="_top" xlink:title=" ">
<polygon fill="white" stroke="#666666" points="399.5,-206 216.5,-206 216.5,-165 399.5,-165 399.5,-206"/>
<text text-anchor="start" x="224.5" y="-194" font-family="Helvetica,sans-Serif" font-size="10.00">/Users/jonathan/Works</text>
<text text-anchor="start" x="224.5" y="-183" font-family="Helvetica,sans-Serif" font-size="10.00">/Tools/Triton/src/libtriton</text>
<text text-anchor="middle" x="308" y="-172" font-family="Helvetica,sans-Serif" font-size="10.00">/arch/arm/arm32/arm32Semantics.cpp</text>
</a>
</g>
</g>
<!-- Node6&#45;&gt;Node7 -->
<g id="edge6" class="edge">
<title>Node6&#45;&gt;Node7</title>
<path fill="none" stroke="#63b8ff" d="M308,-230.36C308,-222.24 308,-213.7 308,-206.33"/>
<polygon fill="#63b8ff" stroke="#63b8ff" points="304.5,-230.28 308,-240.28 311.5,-230.28 304.5,-230.28"/>
</g>
<!-- Node9 -->
<g id="node9" class="node">
<title>Node9</title>
<g id="a_node9"><a xlink:href="pyTritonContext_8cpp.html" target="_top" xlink:title=" ">
<polygon fill="white" stroke="#666666" points="743,-129 621,-129 621,-77 743,-77 743,-129"/>
<text text-anchor="start" x="629" y="-117" font-family="Helvetica,sans-Serif" font-size="10.00">/Users/jonathan/Works</text>
<text text-anchor="start" x="629" y="-106" font-family="Helvetica,sans-Serif" font-size="10.00">/Tools/Triton/src/libtriton</text>
<text text-anchor="start" x="629" y="-95" font-family="Helvetica,sans-Serif" font-size="10.00">/bindings/python/objects</text>
<text text-anchor="middle" x="682" y="-84" font-family="Helvetica,sans-Serif" font-size="10.00">/pyTritonContext.cpp</text>
</a>
</g>
</g>
<!-- Node8&#45;&gt;Node9 -->
<g id="edge9" class="edge">
<title>Node8&#45;&gt;Node9</title>
<path fill="none" stroke="#63b8ff" d="M885.67,-165.72C845.47,-155.65 795.86,-142.55 752,-129 749.16,-128.12 746.27,-127.2 743.36,-126.25"/>
<polygon fill="#63b8ff" stroke="#63b8ff" points="884.72,-169.09 895.27,-168.11 886.41,-162.3 884.72,-169.09"/>
</g>
<!-- Node10 -->
<g id="node10" class="node">
<title>Node10</title>
<g id="a_node10"><a xlink:href="callbacks_8cpp.html" target="_top" xlink:title=" ">
<polygon fill="white" stroke="#666666" points="885,-123.5 761,-123.5 761,-82.5 885,-82.5 885,-123.5"/>
<text text-anchor="start" x="769" y="-111.5" font-family="Helvetica,sans-Serif" font-size="10.00">/Users/jonathan/Works</text>
<text text-anchor="start" x="769" y="-100.5" font-family="Helvetica,sans-Serif" font-size="10.00">/Tools/Triton/src/libtriton</text>
<text text-anchor="middle" x="823" y="-89.5" font-family="Helvetica,sans-Serif" font-size="10.00">/callbacks/callbacks.cpp</text>
</a>
</g>
</g>
<!-- Node8&#45;&gt;Node10 -->
<g id="edge10" class="edge">
<title>Node8&#45;&gt;Node10</title>
<path fill="none" stroke="#63b8ff" d="M919.39,-159.03C899.54,-147.7 876.51,-134.55 857.94,-123.95"/>
<polygon fill="#63b8ff" stroke="#63b8ff" points="917.41,-161.93 927.83,-163.85 920.88,-155.85 917.41,-161.93"/>
</g>
<!-- Node11 -->
<g id="node11" class="node">
<title>Node11</title>
<g id="a_node11"><a xlink:href="context_8cpp.html" target="_top" xlink:title=" ">
<polygon fill="white" stroke="#666666" points="1025,-123.5 903,-123.5 903,-82.5 1025,-82.5 1025,-123.5"/>
<text text-anchor="start" x="911" y="-111.5" font-family="Helvetica,sans-Serif" font-size="10.00">/Users/jonathan/Works</text>
<text text-anchor="start" x="911" y="-100.5" font-family="Helvetica,sans-Serif" font-size="10.00">/Tools/Triton/src/libtriton</text>
<text text-anchor="middle" x="964" y="-89.5" font-family="Helvetica,sans-Serif" font-size="10.00">/context/context.cpp</text>
</a>
</g>
</g>
<!-- Node8&#45;&gt;Node11 -->
<g id="edge11" class="edge">
<title>Node8&#45;&gt;Node11</title>
<path fill="none" stroke="#63b8ff" d="M964,-153.16C964,-143.33 964,-132.76 964,-123.95"/>
<polygon fill="#63b8ff" stroke="#63b8ff" points="960.5,-153.09 964,-163.09 967.5,-153.09 960.5,-153.09"/>
</g>
<!-- Node12 -->
<g id="node12" class="node">
<title>Node12</title>
<g id="a_node12"><a xlink:href="symbolicSimplification_8cpp.html" target="_top" xlink:title=" ">
<polygon fill="white" stroke="#666666" points="1258.5,-123.5 1043.5,-123.5 1043.5,-82.5 1258.5,-82.5 1258.5,-123.5"/>
<text text-anchor="start" x="1051.5" y="-111.5" font-family="Helvetica,sans-Serif" font-size="10.00">/Users/jonathan/Works</text>
<text text-anchor="start" x="1051.5" y="-100.5" font-family="Helvetica,sans-Serif" font-size="10.00">/Tools/Triton/src/libtriton</text>
<text text-anchor="middle" x="1151" y="-89.5" font-family="Helvetica,sans-Serif" font-size="10.00">/engines/symbolic/symbolicSimplification.cpp</text>
</a>
</g>
</g>
<!-- Node8&#45;&gt;Node12 -->
<g id="edge12" class="edge">
<title>Node8&#45;&gt;Node12</title>
<path fill="none" stroke="#63b8ff" d="M1020.65,-160.11C1047.53,-148.54 1079.24,-134.89 1104.66,-123.95"/>
<polygon fill="#63b8ff" stroke="#63b8ff" points="1019.42,-156.83 1011.61,-164 1022.18,-163.26 1019.42,-156.83"/>
</g>
<!-- Node13 -->
<g id="node13" class="node">
<title>Node13</title>
<g id="a_node13"><a xlink:href="llvmToTriton_8hpp.html" target="_top" xlink:title=" ">
<polygon fill="white" stroke="#666666" points="1431.5,-123.5 1276.5,-123.5 1276.5,-82.5 1431.5,-82.5 1431.5,-123.5"/>
<text text-anchor="start" x="1284.5" y="-111.5" font-family="Helvetica,sans-Serif" font-size="10.00">/Users/jonathan/Works</text>
<text text-anchor="start" x="1284.5" y="-100.5" font-family="Helvetica,sans-Serif" font-size="10.00">/Tools/Triton/src/libtriton</text>
<text text-anchor="middle" x="1354" y="-89.5" font-family="Helvetica,sans-Serif" font-size="10.00">/includes/triton/llvmToTriton.hpp</text>
</a>
</g>
</g>
<!-- Node8&#45;&gt;Node13 -->
<g id="edge13" class="edge">
<title>Node8&#45;&gt;Node13</title>
<path fill="none" stroke="#63b8ff" d="M1042.62,-172.42C1104.27,-162.39 1192.05,-146.92 1268,-129 1274.51,-127.46 1281.25,-125.74 1287.98,-123.93"/>
<polygon fill="#63b8ff" stroke="#63b8ff" points="1042.23,-168.93 1032.92,-173.98 1043.35,-175.84 1042.23,-168.93"/>
</g>
<!-- Node14 -->
<g id="node14" class="node">
<title>Node14</title>
<g id="a_node14"><a xlink:href="llvmToTriton_8cpp.html" target="_top" xlink:title=" ">
<polygon fill="white" stroke="#666666" points="1337.5,-41 1208.5,-41 1208.5,0 1337.5,0 1337.5,-41"/>
<text text-anchor="start" x="1216.5" y="-29" font-family="Helvetica,sans-Serif" font-size="10.00">/Users/jonathan/Works</text>
<text text-anchor="start" x="1216.5" y="-18" font-family="Helvetica,sans-Serif" font-size="10.00">/Tools/Triton/src/libtriton</text>
<text text-anchor="middle" x="1273" y="-7" font-family="Helvetica,sans-Serif" font-size="10.00">/ast/llvm/llvmToTriton.cpp</text>
</a>
</g>
</g>
<!-- Node13&#45;&gt;Node14 -->
<g id="edge14" class="edge">
<title>Node13&#45;&gt;Node14</title>
<path fill="none" stroke="#63b8ff" d="M1326.01,-74.18C1315.17,-63.41 1303.01,-51.33 1293.07,-41.45"/>
<polygon fill="#63b8ff" stroke="#63b8ff" points="1323.34,-76.47 1332.9,-81.03 1328.28,-71.5 1323.34,-76.47"/>
</g>
<!-- Node15 -->
<g id="node15" class="node">
<title>Node15</title>
<g id="a_node15"><a xlink:href="liftingToLLVM_8cpp.html" target="_top" xlink:title=" ">
<polygon fill="white" stroke="#666666" points="1516.5,-41 1355.5,-41 1355.5,0 1516.5,0 1516.5,-41"/>
<text text-anchor="start" x="1363.5" y="-29" font-family="Helvetica,sans-Serif" font-size="10.00">/Users/jonathan/Works</text>
<text text-anchor="start" x="1363.5" y="-18" font-family="Helvetica,sans-Serif" font-size="10.00">/Tools/Triton/src/libtriton</text>
<text text-anchor="middle" x="1436" y="-7" font-family="Helvetica,sans-Serif" font-size="10.00">/engines/lifters/liftingToLLVM.cpp</text>
</a>
</g>
</g>
<!-- Node13&#45;&gt;Node15 -->
<g id="edge15" class="edge">
<title>Node13&#45;&gt;Node15</title>
<path fill="none" stroke="#63b8ff" d="M1382.34,-74.18C1393.31,-63.41 1405.62,-51.33 1415.68,-41.45"/>
<polygon fill="#63b8ff" stroke="#63b8ff" points="1380.03,-71.54 1375.35,-81.04 1384.94,-76.53 1380.03,-71.54"/>
</g>
<!-- Node16&#45;&gt;Node5 -->
<g id="edge17" class="edge">
<title>Node16&#45;&gt;Node5</title>
<path fill="none" stroke="#63b8ff" d="M786.96,-247.96C700.46,-233.25 571.85,-211.16 549,-206 546.17,-205.36 543.28,-204.68 540.37,-203.97"/>
<polygon fill="#63b8ff" stroke="#63b8ff" points="786.14,-251.37 796.59,-249.59 787.32,-244.47 786.14,-251.37"/>
</g>
<!-- Node16&#45;&gt;Node8 -->
<g id="edge18" class="edge">
<title>Node16&#45;&gt;Node8</title>
<path fill="none" stroke="#63b8ff" d="M901.64,-234.71C913.67,-225.41 926.94,-215.15 938.14,-206.49"/>
<polygon fill="#63b8ff" stroke="#63b8ff" points="899.71,-231.79 893.94,-240.67 903.99,-237.32 899.71,-231.79"/>
</g>
<!-- Node17&#45;&gt;Node8 -->
<g id="edge20" class="edge">
<title>Node17&#45;&gt;Node8</title>
<path fill="none" stroke="#63b8ff" d="M1155.72,-238.6C1115.85,-227.76 1068.89,-215 1031.42,-204.82"/>
<polygon fill="#63b8ff" stroke="#63b8ff" points="1154.73,-241.96 1165.3,-241.2 1156.57,-235.2 1154.73,-241.96"/>
</g>
<!-- Node18&#45;&gt;Node17 -->
<g id="edge23" class="edge">
<title>Node18&#45;&gt;Node17</title>
<path fill="none" stroke="#63b8ff" d="M1124.14,-314.02C1146.81,-304.13 1172.64,-292.87 1194.15,-283.49"/>
<polygon fill="#63b8ff" stroke="#63b8ff" points="1122.8,-310.79 1115.03,-317.99 1125.59,-317.2 1122.8,-310.79"/>
</g>
<!-- Node19 -->
<g id="node19" class="node">
<title>Node19</title>
<g id="a_node19"><a xlink:href="liftingToDot_8cpp.html" target="_top" xlink:title=" ">
<polygon fill="white" stroke="#666666" points="1144,-283 992,-283 992,-242 1144,-242 1144,-283"/>
<text text-anchor="start" x="1000" y="-271" font-family="Helvetica,sans-Serif" font-size="10.00">/Users/jonathan/Works</text>
<text text-anchor="start" x="1000" y="-260" font-family="Helvetica,sans-Serif" font-size="10.00">/Tools/Triton/src/libtriton</text>
<text text-anchor="middle" x="1068" y="-249" font-family="Helvetica,sans-Serif" font-size="10.00">/engines/lifters/liftingToDot.cpp</text>
</a>
</g>
</g>
<!-- Node18&#45;&gt;Node19 -->
<g id="edge22" class="edge">
<title>Node18&#45;&gt;Node19</title>
<path fill="none" stroke="#63b8ff" d="M1068,-307.36C1068,-299.24 1068,-290.7 1068,-283.33"/>
<polygon fill="#63b8ff" stroke="#63b8ff" points="1064.5,-307.28 1068,-317.28 1071.5,-307.28 1064.5,-307.28"/>
</g>
<!-- Node20&#45;&gt;Node17 -->
<g id="edge26" class="edge">
<title>Node20&#45;&gt;Node17</title>
<path fill="none" stroke="#63b8ff" d="M1266.73,-309.06C1261.67,-300.43 1256.26,-291.21 1251.64,-283.33"/>
<polygon fill="#63b8ff" stroke="#63b8ff" points="1263.59,-310.63 1271.67,-317.49 1269.63,-307.09 1263.59,-310.63"/>
</g>
<!-- Node21 -->
<g id="node21" class="node">
<title>Node21</title>
<g id="a_node21"><a xlink:href="liftingToPython_8cpp.html" target="_top" xlink:title=" ">
<polygon fill="white" stroke="#666666" points="1502.5,-283 1335.5,-283 1335.5,-242 1502.5,-242 1502.5,-283"/>
<text text-anchor="start" x="1343.5" y="-271" font-family="Helvetica,sans-Serif" font-size="10.00">/Users/jonathan/Works</text>
<text text-anchor="start" x="1343.5" y="-260" font-family="Helvetica,sans-Serif" font-size="10.00">/Tools/Triton/src/libtriton</text>
<text text-anchor="middle" x="1419" y="-249" font-family="Helvetica,sans-Serif" font-size="10.00">/engines/lifters/liftingToPython.cpp</text>
</a>
</g>
</g>
<!-- Node20&#45;&gt;Node21 -->
<g id="edge25" class="edge">
<title>Node20&#45;&gt;Node21</title>
<path fill="none" stroke="#63b8ff" d="M1329.76,-313.08C1347.14,-303.42 1366.66,-292.58 1383.01,-283.49"/>
<polygon fill="#63b8ff" stroke="#63b8ff" points="1328.19,-309.95 1321.15,-317.86 1331.59,-316.07 1328.19,-309.95"/>
</g>
<!-- Node22&#45;&gt;Node17 -->
<g id="edge29" class="edge">
<title>Node22&#45;&gt;Node17</title>
<path fill="none" stroke="#63b8ff" d="M1392.99,-314.95C1362.95,-304.85 1328.22,-293.17 1299.45,-283.49"/>
<polygon fill="#63b8ff" stroke="#63b8ff" points="1391.8,-318.25 1402.39,-318.12 1394.03,-311.61 1391.8,-318.25"/>
</g>
<!-- Node23 -->
<g id="node23" class="node">
<title>Node23</title>
<g id="a_node23"><a xlink:href="liftingToSMT_8cpp.html" target="_top" xlink:title=" ">
<polygon fill="white" stroke="#666666" points="1675.5,-283 1520.5,-283 1520.5,-242 1675.5,-242 1675.5,-283"/>
<text text-anchor="start" x="1528.5" y="-271" font-family="Helvetica,sans-Serif" font-size="10.00">/Users/jonathan/Works</text>
<text text-anchor="start" x="1528.5" y="-260" font-family="Helvetica,sans-Serif" font-size="10.00">/Tools/Triton/src/libtriton</text>
<text text-anchor="middle" x="1598" y="-249" font-family="Helvetica,sans-Serif" font-size="10.00">/engines/lifters/liftingToSMT.cpp</text>
</a>
</g>
</g>
<!-- Node22&#45;&gt;Node23 -->
<g id="edge28" class="edge">
<title>Node22&#45;&gt;Node23</title>
<path fill="none" stroke="#63b8ff" d="M1508.76,-313.08C1526.14,-303.42 1545.66,-292.58 1562.01,-283.49"/>
<polygon fill="#63b8ff" stroke="#63b8ff" points="1507.19,-309.95 1500.15,-317.86 1510.59,-316.07 1507.19,-309.95"/>
</g>
<!-- Node24&#45;&gt;Node8 -->
<g id="edge32" class="edge">
<title>Node24&#45;&gt;Node8</title>
<path fill="none" stroke="#63b8ff" d="M1706.83,-307.6C1706.97,-285.94 1703.09,-258.08 1685,-242 1636.79,-199.15 1201.38,-189.33 1031.47,-187.12"/>
<polygon fill="#63b8ff" stroke="#63b8ff" points="1703.35,-307.25 1706.47,-317.37 1710.34,-307.51 1703.35,-307.25"/>
</g>
<!-- Node25 -->
<g id="node25" class="node">
<title>Node25</title>
<g id="a_node25"><a xlink:href="synthesizer_8cpp.html" target="_top" xlink:title=" ">
<polygon fill="white" stroke="#666666" points="1902,-283 1732,-283 1732,-242 1902,-242 1902,-283"/>
<text text-anchor="start" x="1740" y="-271" font-family="Helvetica,sans-Serif" font-size="10.00">/Users/jonathan/Works</text>
<text text-anchor="start" x="1740" y="-260" font-family="Helvetica,sans-Serif" font-size="10.00">/Tools/Triton/src/libtriton</text>
<text text-anchor="middle" x="1817" y="-249" font-family="Helvetica,sans-Serif" font-size="10.00">/engines/synthesis/synthesizer.cpp</text>
</a>
</g>
</g>
<!-- Node24&#45;&gt;Node25 -->
<g id="edge31" class="edge">
<title>Node24&#45;&gt;Node25</title>
<path fill="none" stroke="#63b8ff" d="M1743.53,-312.26C1757.76,-302.82 1773.58,-292.32 1786.87,-283.49"/>
<polygon fill="#63b8ff" stroke="#63b8ff" points="1741.64,-309.32 1735.25,-317.76 1745.51,-315.15 1741.64,-309.32"/>
</g>
<!-- Node26&#45;&gt;Node3 -->
<g id="edge35" class="edge">
<title>Node26&#45;&gt;Node3</title>
<path fill="none" stroke="#63b8ff" d="M652.89,-327.97C627.47,-324.97 599.63,-321.78 574,-319 412.82,-301.54 371.43,-306.39 211,-283 208,-282.56 204.95,-282.1 201.87,-281.61"/>
<polygon fill="#63b8ff" stroke="#63b8ff" points="652.16,-331.4 662.5,-329.1 652.98,-324.45 652.16,-331.4"/>
</g>
<!-- Node26&#45;&gt;Node6 -->
<g id="edge36" class="edge">
<title>Node26&#45;&gt;Node6</title>
<path fill="none" stroke="#63b8ff" d="M653,-324.92C585.3,-314.16 489.04,-298.4 405,-283 402.13,-282.47 399.21,-281.93 396.26,-281.38"/>
<polygon fill="#63b8ff" stroke="#63b8ff" points="652.11,-328.33 662.54,-326.44 653.21,-321.41 652.11,-328.33"/>
</g>
<!-- Node26&#45;&gt;Node8 -->
<g id="edge37" class="edge">
<title>Node26&#45;&gt;Node8</title>
<path fill="none" stroke="#63b8ff" d="M748.6,-307.83C756.04,-286.57 768.85,-259.11 789,-242 819.25,-216.31 861.46,-202.48 896.86,-195.06"/>
<polygon fill="#63b8ff" stroke="#63b8ff" points="745.33,-306.56 745.56,-317.15 751.99,-308.73 745.33,-306.56"/>
</g>
<!-- Node26&#45;&gt;Node16 -->
<g id="edge38" class="edge">
<title>Node26&#45;&gt;Node16</title>
<path fill="none" stroke="#63b8ff" d="M783.51,-312.8C799.74,-303.22 817.91,-292.49 833.14,-283.49"/>
<polygon fill="#63b8ff" stroke="#63b8ff" points="781.83,-309.73 775,-317.83 785.39,-315.76 781.83,-309.73"/>
</g>
<!-- Node27 -->
<g id="node27" class="node">
<title>Node27</title>
<g id="a_node27"><a xlink:href="taintEngine_8cpp.html" target="_top" xlink:title=" ">
<polygon fill="white" stroke="#666666" points="742,-283 596,-283 596,-242 742,-242 742,-283"/>
<text text-anchor="start" x="604" y="-271" font-family="Helvetica,sans-Serif" font-size="10.00">/Users/jonathan/Works</text>
<text text-anchor="start" x="604" y="-260" font-family="Helvetica,sans-Serif" font-size="10.00">/Tools/Triton/src/libtriton</text>
<text text-anchor="middle" x="669" y="-249" font-family="Helvetica,sans-Serif" font-size="10.00">/engines/taint/taintEngine.cpp</text>
</a>
</g>
</g>
<!-- Node26&#45;&gt;Node27 -->
<g id="edge34" class="edge">
<title>Node26&#45;&gt;Node27</title>
<path fill="none" stroke="#63b8ff" d="M713.46,-310.46C704.92,-301.44 695.64,-291.64 687.78,-283.33"/>
<polygon fill="#63b8ff" stroke="#63b8ff" points="710.89,-312.84 720.31,-317.7 715.97,-308.03 710.89,-312.84"/>
</g>
<!-- Node26&#45;&gt;Node28 -->
<g id="edge39" class="edge">
<title>Node26&#45;&gt;Node28</title>
<path fill="none" stroke="#63b8ff" d="M664.26,-315.22C631.19,-305.06 592.8,-293.26 561.05,-283.49"/>
<polygon fill="#63b8ff" stroke="#63b8ff" points="663.22,-318.56 673.81,-318.15 665.28,-311.87 663.22,-318.56"/>
</g>
<!-- Node28&#45;&gt;Node5 -->
<g id="edge40" class="edge">
<title>Node28&#45;&gt;Node5</title>
<path fill="none" stroke="#63b8ff" d="M489.01,-230.65C487.15,-222.43 485.18,-213.78 483.5,-206.33"/>
<polygon fill="#63b8ff" stroke="#63b8ff" points="485.57,-231.34 491.2,-240.32 492.4,-229.79 485.57,-231.34"/>
</g>
<!-- Node29 -->
<g id="node29" class="node">
<title>Node29</title>
<g id="a_node29"><a xlink:href="x86Semantics_8cpp.html" target="_top" xlink:title=" ">
<polygon fill="white" stroke="#666666" points="699.5,-206 558.5,-206 558.5,-165 699.5,-165 699.5,-206"/>
<text text-anchor="start" x="566.5" y="-194" font-family="Helvetica,sans-Serif" font-size="10.00">/Users/jonathan/Works</text>
<text text-anchor="start" x="566.5" y="-183" font-family="Helvetica,sans-Serif" font-size="10.00">/Tools/Triton/src/libtriton</text>
<text text-anchor="middle" x="629" y="-172" font-family="Helvetica,sans-Serif" font-size="10.00">/arch/x86/x86Semantics.cpp</text>
</a>
</g>
</g>
<!-- Node28&#45;&gt;Node29 -->
<g id="edge41" class="edge">
<title>Node28&#45;&gt;Node29</title>
<path fill="none" stroke="#63b8ff" d="M541.09,-236.08C558.2,-226.42 577.44,-215.58 593.54,-206.49"/>
<polygon fill="#63b8ff" stroke="#63b8ff" points="539.6,-232.89 532.61,-240.85 543.04,-238.99 539.6,-232.89"/>
</g>
</g>
</svg>
