<?xml version="1.0" encoding="UTF-8" standalone="no"?>
<!DOCTYPE svg PUBLIC "-//W3C//DTD SVG 1.1//EN"
 "http://www.w3.org/Graphics/SVG/1.1/DTD/svg11.dtd">
<!-- Generated by graphviz version 2.50.0 (20211204.2007)
 -->
<!-- Title: /home/jonathan/Works/Tools/Triton/src/libtriton/includes/triton/symbolicEngine.hpp Pages: 1 -->
<svg width="2081pt" height="451pt"
 viewBox="0.00 0.00 2081.00 451.00" xmlns="http://www.w3.org/2000/svg" xmlns:xlink="http://www.w3.org/1999/xlink">
<g id="graph0" class="graph" transform="scale(1 1) rotate(0) translate(4 447)">
<title>/home/jonathan/Works/Tools/Triton/src/libtriton/includes/triton/symbolicEngine.hpp</title>
<polygon fill="white" stroke="transparent" points="-4,4 -4,-447 2077,-447 2077,4 -4,4"/>
<!-- Node1 -->
<g id="node1" class="node">
<title>Node1</title>
<g id="a_node1"><a xlink:title=" ">
<polygon fill="#bfbfbf" stroke="black" points="931.5,-401.5 931.5,-442.5 1122.5,-442.5 1122.5,-401.5 931.5,-401.5"/>
<text text-anchor="start" x="939.5" y="-430.5" font-family="Helvetica,sans-Serif" font-size="10.00">/home/jonathan/Works</text>
<text text-anchor="start" x="939.5" y="-419.5" font-family="Helvetica,sans-Serif" font-size="10.00">/Tools/Triton/src/libtriton</text>
<text text-anchor="middle" x="1027" y="-408.5" font-family="Helvetica,sans-Serif" font-size="10.00">/includes/triton/symbolicEngine.hpp</text>
</a>
</g>
</g>
<!-- Node2 -->
<g id="node2" class="node">
<title>Node2</title>
<g id="a_node2"><a xlink:href="symbolicEngine_8cpp.html" target="_top" xlink:title=" ">
<polygon fill="white" stroke="black" points="390,-323.5 390,-364.5 596,-364.5 596,-323.5 390,-323.5"/>
<text text-anchor="start" x="398" y="-352.5" font-family="Helvetica,sans-Serif" font-size="10.00">/home/jonathan/Works</text>
<text text-anchor="start" x="398" y="-341.5" font-family="Helvetica,sans-Serif" font-size="10.00">/Tools/Triton/src/libtriton</text>
<text text-anchor="middle" x="493" y="-330.5" font-family="Helvetica,sans-Serif" font-size="10.00">/engines/symbolic/symbolicEngine.cpp</text>
</a>
</g>
</g>
<!-- Node1&#45;&gt;Node2 -->
<g id="edge1" class="edge">
<title>Node1&#45;&gt;Node2</title>
<path fill="none" stroke="midnightblue" d="M921.11,-407.84C836.73,-397.1 715.65,-381.12 610,-365 605.42,-364.3 600.73,-363.57 596.01,-362.82"/>
<polygon fill="midnightblue" stroke="midnightblue" points="920.85,-411.34 931.21,-409.13 921.74,-404.39 920.85,-411.34"/>
</g>
<!-- Node3 -->
<g id="node3" class="node">
<title>Node3</title>
<g id="a_node3"><a xlink:href="aarch64Semantics_8hpp.html" target="_top" xlink:title=" ">
<polygon fill="white" stroke="black" points="19.5,-245.5 19.5,-286.5 222.5,-286.5 222.5,-245.5 19.5,-245.5"/>
<text text-anchor="start" x="27.5" y="-274.5" font-family="Helvetica,sans-Serif" font-size="10.00">/home/jonathan/Works</text>
<text text-anchor="start" x="27.5" y="-263.5" font-family="Helvetica,sans-Serif" font-size="10.00">/Tools/Triton/src/libtriton</text>
<text text-anchor="middle" x="121" y="-252.5" font-family="Helvetica,sans-Serif" font-size="10.00">/includes/triton/aarch64Semantics.hpp</text>
</a>
</g>
</g>
<!-- Node1&#45;&gt;Node3 -->
<g id="edge2" class="edge">
<title>Node1&#45;&gt;Node3</title>
<path fill="none" stroke="midnightblue" d="M921.18,-414.6C822.88,-407.08 684.84,-392.06 638,-365 617.44,-353.12 625.83,-334.39 605,-323 531.74,-282.94 313.7,-298.48 231,-287 228.21,-286.61 225.39,-286.21 222.54,-285.78"/>
<polygon fill="midnightblue" stroke="midnightblue" points="920.93,-418.09 931.16,-415.35 921.45,-411.11 920.93,-418.09"/>
</g>
<!-- Node6 -->
<g id="node6" class="node">
<title>Node6</title>
<g id="a_node6"><a xlink:href="arm32Semantics_8hpp.html" target="_top" xlink:title=" ">
<polygon fill="white" stroke="black" points="240,-245.5 240,-286.5 436,-286.5 436,-245.5 240,-245.5"/>
<text text-anchor="start" x="248" y="-274.5" font-family="Helvetica,sans-Serif" font-size="10.00">/home/jonathan/Works</text>
<text text-anchor="start" x="248" y="-263.5" font-family="Helvetica,sans-Serif" font-size="10.00">/Tools/Triton/src/libtriton</text>
<text text-anchor="middle" x="338" y="-252.5" font-family="Helvetica,sans-Serif" font-size="10.00">/includes/triton/arm32Semantics.hpp</text>
</a>
</g>
</g>
<!-- Node1&#45;&gt;Node6 -->
<g id="edge5" class="edge">
<title>Node1&#45;&gt;Node6</title>
<path fill="none" stroke="midnightblue" d="M921.35,-411.92C833.82,-402.98 717.33,-387.41 676,-365 653.87,-353 659.97,-335.29 638,-323 561.84,-280.41 530.77,-303.02 445,-287 442.12,-286.46 439.2,-285.92 436.25,-285.37"/>
<polygon fill="midnightblue" stroke="midnightblue" points="921.03,-415.4 931.33,-412.92 921.73,-408.44 921.03,-415.4"/>
</g>
<!-- Node8 -->
<g id="node8" class="node">
<title>Node8</title>
<g id="a_node8"><a xlink:href="context_8hpp.html" target="_top" xlink:title=" ">
<polygon fill="white" stroke="black" points="979,-167.5 979,-208.5 1129,-208.5 1129,-167.5 979,-167.5"/>
<text text-anchor="start" x="987" y="-196.5" font-family="Helvetica,sans-Serif" font-size="10.00">/home/jonathan/Works</text>
<text text-anchor="start" x="987" y="-185.5" font-family="Helvetica,sans-Serif" font-size="10.00">/Tools/Triton/src/libtriton</text>
<text text-anchor="middle" x="1054" y="-174.5" font-family="Helvetica,sans-Serif" font-size="10.00">/includes/triton/context.hpp</text>
</a>
</g>
</g>
<!-- Node1&#45;&gt;Node8 -->
<g id="edge8" class="edge">
<title>Node1&#45;&gt;Node8</title>
<path fill="none" stroke="midnightblue" d="M1030.48,-391.11C1036.08,-342.94 1046.97,-249.44 1051.7,-208.73"/>
<polygon fill="midnightblue" stroke="midnightblue" points="1026.98,-390.88 1029.3,-401.22 1033.93,-391.69 1026.98,-390.88"/>
</g>
<!-- Node16 -->
<g id="node16" class="node">
<title>Node16</title>
<g id="a_node16"><a xlink:href="irBuilder_8hpp.html" target="_top" xlink:title=" ">
<polygon fill="white" stroke="black" points="872,-245.5 872,-286.5 1026,-286.5 1026,-245.5 872,-245.5"/>
<text text-anchor="start" x="880" y="-274.5" font-family="Helvetica,sans-Serif" font-size="10.00">/home/jonathan/Works</text>
<text text-anchor="start" x="880" y="-263.5" font-family="Helvetica,sans-Serif" font-size="10.00">/Tools/Triton/src/libtriton</text>
<text text-anchor="middle" x="949" y="-252.5" font-family="Helvetica,sans-Serif" font-size="10.00">/includes/triton/irBuilder.hpp</text>
</a>
</g>
</g>
<!-- Node1&#45;&gt;Node16 -->
<g id="edge16" class="edge">
<title>Node1&#45;&gt;Node16</title>
<path fill="none" stroke="midnightblue" d="M1012.6,-392.56C997.04,-361.85 972.66,-313.71 959.04,-286.83"/>
<polygon fill="midnightblue" stroke="midnightblue" points="1009.48,-394.16 1017.12,-401.5 1015.73,-390.99 1009.48,-394.16"/>
</g>
<!-- Node17 -->
<g id="node17" class="node">
<title>Node17</title>
<g id="a_node17"><a xlink:href="liftingEngine_8hpp.html" target="_top" xlink:title=" ">
<polygon fill="white" stroke="black" points="1267,-245.5 1267,-286.5 1441,-286.5 1441,-245.5 1267,-245.5"/>
<text text-anchor="start" x="1275" y="-274.5" font-family="Helvetica,sans-Serif" font-size="10.00">/home/jonathan/Works</text>
<text text-anchor="start" x="1275" y="-263.5" font-family="Helvetica,sans-Serif" font-size="10.00">/Tools/Triton/src/libtriton</text>
<text text-anchor="middle" x="1354" y="-252.5" font-family="Helvetica,sans-Serif" font-size="10.00">/includes/triton/liftingEngine.hpp</text>
</a>
</g>
</g>
<!-- Node1&#45;&gt;Node17 -->
<g id="edge19" class="edge">
<title>Node1&#45;&gt;Node17</title>
<path fill="none" stroke="midnightblue" d="M1132.52,-409.48C1174.14,-401.48 1220.98,-387.93 1259,-365 1280.3,-352.15 1278.82,-340.99 1296,-323 1307.89,-310.55 1321.75,-297.14 1332.93,-286.56"/>
<polygon fill="midnightblue" stroke="midnightblue" points="1131.83,-406.05 1122.62,-411.3 1133.09,-412.93 1131.83,-406.05"/>
</g>
<!-- Node18 -->
<g id="node18" class="node">
<title>Node18</title>
<g id="a_node18"><a xlink:href="liftingToDot_8hpp.html" target="_top" xlink:title=" ">
<polygon fill="white" stroke="black" points="1080.5,-323.5 1080.5,-364.5 1249.5,-364.5 1249.5,-323.5 1080.5,-323.5"/>
<text text-anchor="start" x="1088.5" y="-352.5" font-family="Helvetica,sans-Serif" font-size="10.00">/home/jonathan/Works</text>
<text text-anchor="start" x="1088.5" y="-341.5" font-family="Helvetica,sans-Serif" font-size="10.00">/Tools/Triton/src/libtriton</text>
<text text-anchor="middle" x="1165" y="-330.5" font-family="Helvetica,sans-Serif" font-size="10.00">/includes/triton/liftingToDot.hpp</text>
</a>
</g>
</g>
<!-- Node1&#45;&gt;Node18 -->
<g id="edge21" class="edge">
<title>Node1&#45;&gt;Node18</title>
<path fill="none" stroke="midnightblue" d="M1071.51,-396.49C1090.31,-386.13 1111.89,-374.25 1129.58,-364.51"/>
<polygon fill="midnightblue" stroke="midnightblue" points="1069.61,-393.54 1062.54,-401.43 1072.99,-399.67 1069.61,-393.54"/>
</g>
<!-- Node20 -->
<g id="node20" class="node">
<title>Node20</title>
<g id="a_node20"><a xlink:href="liftingToPython_8hpp.html" target="_top" xlink:title=" ">
<polygon fill="white" stroke="black" points="1304.5,-323.5 1304.5,-364.5 1489.5,-364.5 1489.5,-323.5 1304.5,-323.5"/>
<text text-anchor="start" x="1312.5" y="-352.5" font-family="Helvetica,sans-Serif" font-size="10.00">/home/jonathan/Works</text>
<text text-anchor="start" x="1312.5" y="-341.5" font-family="Helvetica,sans-Serif" font-size="10.00">/Tools/Triton/src/libtriton</text>
<text text-anchor="middle" x="1397" y="-330.5" font-family="Helvetica,sans-Serif" font-size="10.00">/includes/triton/liftingToPython.hpp</text>
</a>
</g>
</g>
<!-- Node1&#45;&gt;Node20 -->
<g id="edge24" class="edge">
<title>Node1&#45;&gt;Node20</title>
<path fill="none" stroke="midnightblue" d="M1132.27,-399.38C1186.48,-388.24 1251.99,-374.79 1304.28,-364.05"/>
<polygon fill="midnightblue" stroke="midnightblue" points="1131.38,-395.99 1122.28,-401.43 1132.78,-402.84 1131.38,-395.99"/>
</g>
<!-- Node22 -->
<g id="node22" class="node">
<title>Node22</title>
<g id="a_node22"><a xlink:href="liftingToSMT_8hpp.html" target="_top" xlink:title=" ">
<polygon fill="white" stroke="black" points="1508,-323.5 1508,-364.5 1680,-364.5 1680,-323.5 1508,-323.5"/>
<text text-anchor="start" x="1516" y="-352.5" font-family="Helvetica,sans-Serif" font-size="10.00">/home/jonathan/Works</text>
<text text-anchor="start" x="1516" y="-341.5" font-family="Helvetica,sans-Serif" font-size="10.00">/Tools/Triton/src/libtriton</text>
<text text-anchor="middle" x="1594" y="-330.5" font-family="Helvetica,sans-Serif" font-size="10.00">/includes/triton/liftingToSMT.hpp</text>
</a>
</g>
</g>
<!-- Node1&#45;&gt;Node22 -->
<g id="edge27" class="edge">
<title>Node1&#45;&gt;Node22</title>
<path fill="none" stroke="midnightblue" d="M1132.72,-411.19C1228.63,-401.64 1373.76,-385.57 1499,-365 1501.91,-364.52 1504.87,-364.02 1507.85,-363.49"/>
<polygon fill="midnightblue" stroke="midnightblue" points="1132.33,-407.71 1122.73,-412.18 1133.02,-414.67 1132.33,-407.71"/>
</g>
<!-- Node24 -->
<g id="node24" class="node">
<title>Node24</title>
<g id="a_node24"><a xlink:href="synthesizer_8hpp.html" target="_top" xlink:title=" ">
<polygon fill="white" stroke="black" points="1774.5,-323.5 1774.5,-364.5 1943.5,-364.5 1943.5,-323.5 1774.5,-323.5"/>
<text text-anchor="start" x="1782.5" y="-352.5" font-family="Helvetica,sans-Serif" font-size="10.00">/home/jonathan/Works</text>
<text text-anchor="start" x="1782.5" y="-341.5" font-family="Helvetica,sans-Serif" font-size="10.00">/Tools/Triton/src/libtriton</text>
<text text-anchor="middle" x="1859" y="-330.5" font-family="Helvetica,sans-Serif" font-size="10.00">/includes/triton/synthesizer.hpp</text>
</a>
</g>
</g>
<!-- Node1&#45;&gt;Node24 -->
<g id="edge30" class="edge">
<title>Node1&#45;&gt;Node24</title>
<path fill="none" stroke="midnightblue" d="M1132.76,-413.13C1263.53,-403.14 1492.86,-384.83 1689,-365 1716.79,-362.19 1747.1,-358.75 1774.32,-355.52"/>
<polygon fill="midnightblue" stroke="midnightblue" points="1132.45,-409.64 1122.74,-413.89 1132.98,-416.62 1132.45,-409.64"/>
</g>
<!-- Node26 -->
<g id="node26" class="node">
<title>Node26</title>
<g id="a_node26"><a xlink:href="taintEngine_8hpp.html" target="_top" xlink:title=" ">
<polygon fill="white" stroke="black" points="727.5,-323.5 727.5,-364.5 896.5,-364.5 896.5,-323.5 727.5,-323.5"/>
<text text-anchor="start" x="735.5" y="-352.5" font-family="Helvetica,sans-Serif" font-size="10.00">/home/jonathan/Works</text>
<text text-anchor="start" x="735.5" y="-341.5" font-family="Helvetica,sans-Serif" font-size="10.00">/Tools/Triton/src/libtriton</text>
<text text-anchor="middle" x="812" y="-330.5" font-family="Helvetica,sans-Serif" font-size="10.00">/includes/triton/taintEngine.hpp</text>
</a>
</g>
</g>
<!-- Node1&#45;&gt;Node26 -->
<g id="edge33" class="edge">
<title>Node1&#45;&gt;Node26</title>
<path fill="none" stroke="midnightblue" d="M962.01,-398.03C931.74,-387.33 896.12,-374.73 867.18,-364.51"/>
<polygon fill="midnightblue" stroke="midnightblue" points="961.04,-401.4 971.63,-401.43 963.37,-394.8 961.04,-401.4"/>
</g>
<!-- Node28 -->
<g id="node28" class="node">
<title>Node28</title>
<g id="a_node28"><a xlink:href="x86Semantics_8hpp.html" target="_top" xlink:title=" ">
<polygon fill="white" stroke="black" points="454,-245.5 454,-286.5 636,-286.5 636,-245.5 454,-245.5"/>
<text text-anchor="start" x="462" y="-274.5" font-family="Helvetica,sans-Serif" font-size="10.00">/home/jonathan/Works</text>
<text text-anchor="start" x="462" y="-263.5" font-family="Helvetica,sans-Serif" font-size="10.00">/Tools/Triton/src/libtriton</text>
<text text-anchor="middle" x="545" y="-252.5" font-family="Helvetica,sans-Serif" font-size="10.00">/includes/triton/x86Semantics.hpp</text>
</a>
</g>
</g>
<!-- Node1&#45;&gt;Node28 -->
<g id="edge42" class="edge">
<title>Node1&#45;&gt;Node28</title>
<path fill="none" stroke="midnightblue" d="M921.09,-417.49C858.93,-411.7 780.57,-397.76 718,-365 694.61,-352.75 697.87,-337.79 676,-323 653.87,-308.03 627.1,-295.73 603.54,-286.5"/>
<polygon fill="midnightblue" stroke="midnightblue" points="921.05,-421 931.31,-418.38 921.66,-414.02 921.05,-421"/>
</g>
<!-- Node4 -->
<g id="node4" class="node">
<title>Node4</title>
<g id="a_node4"><a xlink:href="aarch64Semantics_8cpp.html" target="_top" xlink:title=" ">
<polygon fill="white" stroke="black" points="0,-167.5 0,-208.5 218,-208.5 218,-167.5 0,-167.5"/>
<text text-anchor="start" x="8" y="-196.5" font-family="Helvetica,sans-Serif" font-size="10.00">/home/jonathan/Works</text>
<text text-anchor="start" x="8" y="-185.5" font-family="Helvetica,sans-Serif" font-size="10.00">/Tools/Triton/src/libtriton</text>
<text text-anchor="middle" x="109" y="-174.5" font-family="Helvetica,sans-Serif" font-size="10.00">/arch/arm/aarch64/aarch64Semantics.cpp</text>
</a>
</g>
</g>
<!-- Node3&#45;&gt;Node4 -->
<g id="edge3" class="edge">
<title>Node3&#45;&gt;Node4</title>
<path fill="none" stroke="midnightblue" d="M116.31,-235.3C114.89,-226.3 113.37,-216.65 112.08,-208.51"/>
<polygon fill="midnightblue" stroke="midnightblue" points="112.89,-236.1 117.91,-245.43 119.81,-235 112.89,-236.1"/>
</g>
<!-- Node5 -->
<g id="node5" class="node">
<title>Node5</title>
<g id="a_node5"><a xlink:href="irBuilder_8cpp.html" target="_top" xlink:title=" ">
<polygon fill="white" stroke="black" points="457.5,-167.5 457.5,-208.5 590.5,-208.5 590.5,-167.5 457.5,-167.5"/>
<text text-anchor="start" x="465.5" y="-196.5" font-family="Helvetica,sans-Serif" font-size="10.00">/home/jonathan/Works</text>
<text text-anchor="start" x="465.5" y="-185.5" font-family="Helvetica,sans-Serif" font-size="10.00">/Tools/Triton/src/libtriton</text>
<text text-anchor="middle" x="524" y="-174.5" font-family="Helvetica,sans-Serif" font-size="10.00">/arch/irBuilder.cpp</text>
</a>
</g>
</g>
<!-- Node3&#45;&gt;Node5 -->
<g id="edge4" class="edge">
<title>Node3&#45;&gt;Node5</title>
<path fill="none" stroke="midnightblue" d="M232.46,-244.77C329.01,-228.31 355.48,-228.8 448,-209 451.07,-208.34 454.2,-207.64 457.36,-206.91"/>
<polygon fill="midnightblue" stroke="midnightblue" points="231.84,-241.33 222.58,-246.47 233.03,-248.22 231.84,-241.33"/>
</g>
<!-- Node6&#45;&gt;Node5 -->
<g id="edge7" class="edge">
<title>Node6&#45;&gt;Node5</title>
<path fill="none" stroke="midnightblue" d="M395.25,-241.61C421.21,-231 451.55,-218.6 476.26,-208.51"/>
<polygon fill="midnightblue" stroke="midnightblue" points="393.83,-238.41 385.9,-245.43 396.48,-244.89 393.83,-238.41"/>
</g>
<!-- Node7 -->
<g id="node7" class="node">
<title>Node7</title>
<g id="a_node7"><a xlink:href="arm32Semantics_8cpp.html" target="_top" xlink:title=" ">
<polygon fill="white" stroke="black" points="236.5,-167.5 236.5,-208.5 439.5,-208.5 439.5,-167.5 236.5,-167.5"/>
<text text-anchor="start" x="244.5" y="-196.5" font-family="Helvetica,sans-Serif" font-size="10.00">/home/jonathan/Works</text>
<text text-anchor="start" x="244.5" y="-185.5" font-family="Helvetica,sans-Serif" font-size="10.00">/Tools/Triton/src/libtriton</text>
<text text-anchor="middle" x="338" y="-174.5" font-family="Helvetica,sans-Serif" font-size="10.00">/arch/arm/arm32/arm32Semantics.cpp</text>
</a>
</g>
</g>
<!-- Node6&#45;&gt;Node7 -->
<g id="edge6" class="edge">
<title>Node6&#45;&gt;Node7</title>
<path fill="none" stroke="midnightblue" d="M338,-235.3C338,-226.3 338,-216.65 338,-208.51"/>
<polygon fill="midnightblue" stroke="midnightblue" points="334.5,-235.43 338,-245.43 341.5,-235.43 334.5,-235.43"/>
</g>
<!-- Node9 -->
<g id="node9" class="node">
<title>Node9</title>
<g id="a_node9"><a xlink:href="pyTritonContext_8cpp.html" target="_top" xlink:title=" ">
<polygon fill="white" stroke="black" points="681,-78.5 681,-130.5 817,-130.5 817,-78.5 681,-78.5"/>
<text text-anchor="start" x="689" y="-118.5" font-family="Helvetica,sans-Serif" font-size="10.00">/home/jonathan/Works</text>
<text text-anchor="start" x="689" y="-107.5" font-family="Helvetica,sans-Serif" font-size="10.00">/Tools/Triton/src/libtriton</text>
<text text-anchor="start" x="689" y="-96.5" font-family="Helvetica,sans-Serif" font-size="10.00">/bindings/python/objects</text>
<text text-anchor="middle" x="749" y="-85.5" font-family="Helvetica,sans-Serif" font-size="10.00">/pyTritonContext.cpp</text>
</a>
</g>
</g>
<!-- Node8&#45;&gt;Node9 -->
<g id="edge9" class="edge">
<title>Node8&#45;&gt;Node9</title>
<path fill="none" stroke="midnightblue" d="M969.03,-167.81C925.96,-157.66 872.97,-144.52 826,-131 823.16,-130.18 820.26,-129.33 817.35,-128.45"/>
<polygon fill="midnightblue" stroke="midnightblue" points="968.37,-171.25 978.9,-170.13 969.96,-164.44 968.37,-171.25"/>
</g>
<!-- Node10 -->
<g id="node10" class="node">
<title>Node10</title>
<g id="a_node10"><a xlink:href="callbacks_8cpp.html" target="_top" xlink:title=" ">
<polygon fill="white" stroke="black" points="835,-84 835,-125 969,-125 969,-84 835,-84"/>
<text text-anchor="start" x="843" y="-113" font-family="Helvetica,sans-Serif" font-size="10.00">/home/jonathan/Works</text>
<text text-anchor="start" x="843" y="-102" font-family="Helvetica,sans-Serif" font-size="10.00">/Tools/Triton/src/libtriton</text>
<text text-anchor="middle" x="902" y="-91" font-family="Helvetica,sans-Serif" font-size="10.00">/callbacks/callbacks.cpp</text>
</a>
</g>
</g>
<!-- Node8&#45;&gt;Node10 -->
<g id="edge10" class="edge">
<title>Node8&#45;&gt;Node10</title>
<path fill="none" stroke="midnightblue" d="M1008.59,-162.65C986.15,-150.62 959.44,-136.3 938.37,-125"/>
<polygon fill="midnightblue" stroke="midnightblue" points="1007.13,-165.84 1017.59,-167.48 1010.43,-159.67 1007.13,-165.84"/>
</g>
<!-- Node11 -->
<g id="node11" class="node">
<title>Node11</title>
<g id="a_node11"><a xlink:href="context_8cpp.html" target="_top" xlink:title=" ">
<polygon fill="white" stroke="black" points="987.5,-84 987.5,-125 1120.5,-125 1120.5,-84 987.5,-84"/>
<text text-anchor="start" x="995.5" y="-113" font-family="Helvetica,sans-Serif" font-size="10.00">/home/jonathan/Works</text>
<text text-anchor="start" x="995.5" y="-102" font-family="Helvetica,sans-Serif" font-size="10.00">/Tools/Triton/src/libtriton</text>
<text text-anchor="middle" x="1054" y="-91" font-family="Helvetica,sans-Serif" font-size="10.00">/context/context.cpp</text>
</a>
</g>
</g>
<!-- Node8&#45;&gt;Node11 -->
<g id="edge11" class="edge">
<title>Node8&#45;&gt;Node11</title>
<path fill="none" stroke="midnightblue" d="M1054,-157.06C1054,-146.38 1054,-134.63 1054,-125.05"/>
<polygon fill="midnightblue" stroke="midnightblue" points="1050.5,-157.27 1054,-167.27 1057.5,-157.27 1050.5,-157.27"/>
</g>
<!-- Node12 -->
<g id="node12" class="node">
<title>Node12</title>
<g id="a_node12"><a xlink:href="symbolicSimplification_8cpp.html" target="_top" xlink:title=" ">
<polygon fill="white" stroke="black" points="1138.5,-84 1138.5,-125 1377.5,-125 1377.5,-84 1138.5,-84"/>
<text text-anchor="start" x="1146.5" y="-113" font-family="Helvetica,sans-Serif" font-size="10.00">/home/jonathan/Works</text>
<text text-anchor="start" x="1146.5" y="-102" font-family="Helvetica,sans-Serif" font-size="10.00">/Tools/Triton/src/libtriton</text>
<text text-anchor="middle" x="1258" y="-91" font-family="Helvetica,sans-Serif" font-size="10.00">/engines/symbolic/symbolicSimplification.cpp</text>
</a>
</g>
</g>
<!-- Node8&#45;&gt;Node12 -->
<g id="edge12" class="edge">
<title>Node8&#45;&gt;Node12</title>
<path fill="none" stroke="midnightblue" d="M1112.16,-163.77C1142.83,-151.51 1180.03,-136.65 1209.18,-125"/>
<polygon fill="midnightblue" stroke="midnightblue" points="1110.85,-160.52 1102.86,-167.48 1113.45,-167.02 1110.85,-160.52"/>
</g>
<!-- Node13 -->
<g id="node13" class="node">
<title>Node13</title>
<g id="a_node13"><a xlink:href="llvmToTriton_8hpp.html" target="_top" xlink:title=" ">
<polygon fill="white" stroke="black" points="1395.5,-84 1395.5,-125 1568.5,-125 1568.5,-84 1395.5,-84"/>
<text text-anchor="start" x="1403.5" y="-113" font-family="Helvetica,sans-Serif" font-size="10.00">/home/jonathan/Works</text>
<text text-anchor="start" x="1403.5" y="-102" font-family="Helvetica,sans-Serif" font-size="10.00">/Tools/Triton/src/libtriton</text>
<text text-anchor="middle" x="1482" y="-91" font-family="Helvetica,sans-Serif" font-size="10.00">/includes/triton/llvmToTriton.hpp</text>
</a>
</g>
</g>
<!-- Node8&#45;&gt;Node13 -->
<g id="edge13" class="edge">
<title>Node8&#45;&gt;Node13</title>
<path fill="none" stroke="midnightblue" d="M1139.28,-174.96C1206.81,-164.87 1303.37,-149.21 1387,-131 1395.18,-129.22 1403.7,-127.19 1412.15,-125.06"/>
<polygon fill="midnightblue" stroke="midnightblue" points="1138.49,-171.53 1129.12,-176.47 1139.52,-178.46 1138.49,-171.53"/>
</g>
<!-- Node14 -->
<g id="node14" class="node">
<title>Node14</title>
<g id="a_node14"><a xlink:href="llvmToTriton_8cpp.html" target="_top" xlink:title=" ">
<polygon fill="white" stroke="black" points="1323,-0.5 1323,-41.5 1465,-41.5 1465,-0.5 1323,-0.5"/>
<text text-anchor="start" x="1331" y="-29.5" font-family="Helvetica,sans-Serif" font-size="10.00">/home/jonathan/Works</text>
<text text-anchor="start" x="1331" y="-18.5" font-family="Helvetica,sans-Serif" font-size="10.00">/Tools/Triton/src/libtriton</text>
<text text-anchor="middle" x="1394" y="-7.5" font-family="Helvetica,sans-Serif" font-size="10.00">/ast/llvm/llvmToTriton.cpp</text>
</a>
</g>
</g>
<!-- Node13&#45;&gt;Node14 -->
<g id="edge14" class="edge">
<title>Node13&#45;&gt;Node14</title>
<path fill="none" stroke="midnightblue" d="M1453.24,-76.86C1440.81,-65.35 1426.53,-52.13 1415.11,-41.55"/>
<polygon fill="midnightblue" stroke="midnightblue" points="1450.98,-79.54 1460.7,-83.77 1455.74,-74.41 1450.98,-79.54"/>
</g>
<!-- Node15 -->
<g id="node15" class="node">
<title>Node15</title>
<g id="a_node15"><a xlink:href="liftingToLLVM_8cpp.html" target="_top" xlink:title=" ">
<polygon fill="white" stroke="black" points="1483,-0.5 1483,-41.5 1659,-41.5 1659,-0.5 1483,-0.5"/>
<text text-anchor="start" x="1491" y="-29.5" font-family="Helvetica,sans-Serif" font-size="10.00">/home/jonathan/Works</text>
<text text-anchor="start" x="1491" y="-18.5" font-family="Helvetica,sans-Serif" font-size="10.00">/Tools/Triton/src/libtriton</text>
<text text-anchor="middle" x="1571" y="-7.5" font-family="Helvetica,sans-Serif" font-size="10.00">/engines/lifters/liftingToLLVM.cpp</text>
</a>
</g>
</g>
<!-- Node13&#45;&gt;Node15 -->
<g id="edge15" class="edge">
<title>Node13&#45;&gt;Node15</title>
<path fill="none" stroke="midnightblue" d="M1511.09,-76.86C1523.66,-65.35 1538.1,-52.13 1549.65,-41.55"/>
<polygon fill="midnightblue" stroke="midnightblue" points="1508.56,-74.44 1503.54,-83.77 1513.28,-79.6 1508.56,-74.44"/>
</g>
<!-- Node16&#45;&gt;Node5 -->
<g id="edge17" class="edge">
<title>Node16&#45;&gt;Node5</title>
<path fill="none" stroke="midnightblue" d="M862.03,-250.96C849.6,-248.96 836.98,-246.92 825,-245 725.01,-228.94 699.09,-229.91 600,-209 596.93,-208.35 593.8,-207.66 590.64,-206.93"/>
<polygon fill="midnightblue" stroke="midnightblue" points="861.51,-254.42 871.94,-252.56 862.63,-247.51 861.51,-254.42"/>
</g>
<!-- Node16&#45;&gt;Node8 -->
<g id="edge18" class="edge">
<title>Node16&#45;&gt;Node8</title>
<path fill="none" stroke="midnightblue" d="M984.44,-239.35C998.36,-229.27 1014.08,-217.89 1027.05,-208.51"/>
<polygon fill="midnightblue" stroke="midnightblue" points="982.09,-236.73 976.04,-245.43 986.19,-242.4 982.09,-236.73"/>
</g>
<!-- Node17&#45;&gt;Node8 -->
<g id="edge20" class="edge">
<title>Node17&#45;&gt;Node8</title>
<path fill="none" stroke="midnightblue" d="M1267,-242.96C1223.37,-231.91 1171.05,-218.65 1129.18,-208.05"/>
<polygon fill="midnightblue" stroke="midnightblue" points="1266.19,-246.37 1276.74,-245.43 1267.91,-239.58 1266.19,-246.37"/>
</g>
<!-- Node18&#45;&gt;Node17 -->
<g id="edge23" class="edge">
<title>Node18&#45;&gt;Node17</title>
<path fill="none" stroke="midnightblue" d="M1223.17,-319.61C1249.55,-309 1280.39,-296.6 1305.49,-286.51"/>
<polygon fill="midnightblue" stroke="midnightblue" points="1221.64,-316.45 1213.67,-323.43 1224.26,-322.94 1221.64,-316.45"/>
</g>
<!-- Node19 -->
<g id="node19" class="node">
<title>Node19</title>
<g id="a_node19"><a xlink:href="liftingToDot_8cpp.html" target="_top" xlink:title=" ">
<polygon fill="white" stroke="black" points="1081.5,-245.5 1081.5,-286.5 1248.5,-286.5 1248.5,-245.5 1081.5,-245.5"/>
<text text-anchor="start" x="1089.5" y="-274.5" font-family="Helvetica,sans-Serif" font-size="10.00">/home/jonathan/Works</text>
<text text-anchor="start" x="1089.5" y="-263.5" font-family="Helvetica,sans-Serif" font-size="10.00">/Tools/Triton/src/libtriton</text>
<text text-anchor="middle" x="1165" y="-252.5" font-family="Helvetica,sans-Serif" font-size="10.00">/engines/lifters/liftingToDot.cpp</text>
</a>
</g>
</g>
<!-- Node18&#45;&gt;Node19 -->
<g id="edge22" class="edge">
<title>Node18&#45;&gt;Node19</title>
<path fill="none" stroke="midnightblue" d="M1165,-313.3C1165,-304.3 1165,-294.65 1165,-286.51"/>
<polygon fill="midnightblue" stroke="midnightblue" points="1161.5,-313.43 1165,-323.43 1168.5,-313.43 1161.5,-313.43"/>
</g>
<!-- Node20&#45;&gt;Node17 -->
<g id="edge26" class="edge">
<title>Node20&#45;&gt;Node17</title>
<path fill="none" stroke="midnightblue" d="M1380.86,-314.47C1375.58,-305.14 1369.85,-295.01 1365.04,-286.51"/>
<polygon fill="midnightblue" stroke="midnightblue" points="1377.96,-316.45 1385.93,-323.43 1384.05,-313 1377.96,-316.45"/>
</g>
<!-- Node21 -->
<g id="node21" class="node">
<title>Node21</title>
<g id="a_node21"><a xlink:href="liftingToPython_8cpp.html" target="_top" xlink:title=" ">
<polygon fill="white" stroke="black" points="1459,-245.5 1459,-286.5 1643,-286.5 1643,-245.5 1459,-245.5"/>
<text text-anchor="start" x="1467" y="-274.5" font-family="Helvetica,sans-Serif" font-size="10.00">/home/jonathan/Works</text>
<text text-anchor="start" x="1467" y="-263.5" font-family="Helvetica,sans-Serif" font-size="10.00">/Tools/Triton/src/libtriton</text>
<text text-anchor="middle" x="1551" y="-252.5" font-family="Helvetica,sans-Serif" font-size="10.00">/engines/lifters/liftingToPython.cpp</text>
</a>
</g>
</g>
<!-- Node20&#45;&gt;Node21 -->
<g id="edge25" class="edge">
<title>Node20&#45;&gt;Node21</title>
<path fill="none" stroke="midnightblue" d="M1445.82,-318.91C1466.99,-308.46 1491.47,-296.38 1511.48,-286.51"/>
<polygon fill="midnightblue" stroke="midnightblue" points="1444.08,-315.86 1436.66,-323.43 1447.18,-322.14 1444.08,-315.86"/>
</g>
<!-- Node22&#45;&gt;Node17 -->
<g id="edge29" class="edge">
<title>Node22&#45;&gt;Node17</title>
<path fill="none" stroke="midnightblue" d="M1522.33,-320.3C1488.36,-309.55 1448.18,-296.82 1415.6,-286.51"/>
<polygon fill="midnightblue" stroke="midnightblue" points="1521.6,-323.75 1532.19,-323.43 1523.72,-317.07 1521.6,-323.75"/>
</g>
<!-- Node23 -->
<g id="node23" class="node">
<title>Node23</title>
<g id="a_node23"><a xlink:href="liftingToSMT_8cpp.html" target="_top" xlink:title=" ">
<polygon fill="white" stroke="black" points="1661,-245.5 1661,-286.5 1831,-286.5 1831,-245.5 1661,-245.5"/>
<text text-anchor="start" x="1669" y="-274.5" font-family="Helvetica,sans-Serif" font-size="10.00">/home/jonathan/Works</text>
<text text-anchor="start" x="1669" y="-263.5" font-family="Helvetica,sans-Serif" font-size="10.00">/Tools/Triton/src/libtriton</text>
<text text-anchor="middle" x="1746" y="-252.5" font-family="Helvetica,sans-Serif" font-size="10.00">/engines/lifters/liftingToSMT.cpp</text>
</a>
</g>
</g>
<!-- Node22&#45;&gt;Node23 -->
<g id="edge28" class="edge">
<title>Node22&#45;&gt;Node23</title>
<path fill="none" stroke="midnightblue" d="M1642.18,-318.91C1663.08,-308.46 1687.24,-296.38 1706.99,-286.51"/>
<polygon fill="midnightblue" stroke="midnightblue" points="1640.52,-315.83 1633.14,-323.43 1643.65,-322.09 1640.52,-315.83"/>
</g>
<!-- Node24&#45;&gt;Node8 -->
<g id="edge32" class="edge">
<title>Node24&#45;&gt;Node8</title>
<path fill="none" stroke="midnightblue" d="M1861.99,-313.21C1862.42,-290.99 1858.84,-261.7 1840,-245 1787.56,-198.52 1315.65,-190.57 1129.25,-189.25"/>
<polygon fill="midnightblue" stroke="midnightblue" points="1858.48,-313.32 1861.5,-323.47 1865.47,-313.64 1858.48,-313.32"/>
</g>
<!-- Node25 -->
<g id="node25" class="node">
<title>Node25</title>
<g id="a_node25"><a xlink:href="synthesizer_8cpp.html" target="_top" xlink:title=" ">
<polygon fill="white" stroke="black" points="1887,-245.5 1887,-286.5 2073,-286.5 2073,-245.5 1887,-245.5"/>
<text text-anchor="start" x="1895" y="-274.5" font-family="Helvetica,sans-Serif" font-size="10.00">/home/jonathan/Works</text>
<text text-anchor="start" x="1895" y="-263.5" font-family="Helvetica,sans-Serif" font-size="10.00">/Tools/Triton/src/libtriton</text>
<text text-anchor="middle" x="1980" y="-252.5" font-family="Helvetica,sans-Serif" font-size="10.00">/engines/synthesis/synthesizer.cpp</text>
</a>
</g>
</g>
<!-- Node24&#45;&gt;Node25 -->
<g id="edge31" class="edge">
<title>Node24&#45;&gt;Node25</title>
<path fill="none" stroke="midnightblue" d="M1898.93,-317.92C1915.2,-307.7 1933.72,-296.07 1948.95,-286.51"/>
<polygon fill="midnightblue" stroke="midnightblue" points="1896.77,-315.15 1890.16,-323.43 1900.49,-321.07 1896.77,-315.15"/>
</g>
<!-- Node26&#45;&gt;Node3 -->
<g id="edge35" class="edge">
<title>Node26&#45;&gt;Node3</title>
<path fill="none" stroke="midnightblue" d="M717,-331.62C691.37,-328.68 663.64,-325.61 638,-323 457.34,-304.63 410.97,-311.27 231,-287 228.21,-286.62 225.38,-286.23 222.53,-285.81"/>
<polygon fill="midnightblue" stroke="midnightblue" points="716.75,-335.12 727.09,-332.79 717.55,-328.16 716.75,-335.12"/>
</g>
<!-- Node26&#45;&gt;Node6 -->
<g id="edge36" class="edge">
<title>Node26&#45;&gt;Node6</title>
<path fill="none" stroke="midnightblue" d="M717.33,-328.92C626.49,-315.35 495.84,-295.63 445,-287 442.11,-286.51 439.18,-286.01 436.22,-285.49"/>
<polygon fill="midnightblue" stroke="midnightblue" points="716.96,-332.41 727.37,-330.42 718,-325.48 716.96,-332.41"/>
</g>
<!-- Node26&#45;&gt;Node8 -->
<g id="edge37" class="edge">
<title>Node26&#45;&gt;Node8</title>
<path fill="none" stroke="midnightblue" d="M820.33,-313.68C828,-291.77 841.51,-262.67 863,-245 895.57,-218.23 940.47,-204.25 978.56,-196.96"/>
<polygon fill="midnightblue" stroke="midnightblue" points="816.91,-312.88 817.11,-323.47 823.56,-315.07 816.91,-312.88"/>
</g>
<!-- Node26&#45;&gt;Node16 -->
<g id="edge38" class="edge">
<title>Node26&#45;&gt;Node16</title>
<path fill="none" stroke="midnightblue" d="M856.19,-318.49C874.85,-308.13 896.28,-296.25 913.84,-286.51"/>
<polygon fill="midnightblue" stroke="midnightblue" points="854.33,-315.52 847.28,-323.43 857.72,-321.64 854.33,-315.52"/>
</g>
<!-- Node27 -->
<g id="node27" class="node">
<title>Node27</title>
<g id="a_node27"><a xlink:href="taintEngine_8cpp.html" target="_top" xlink:title=" ">
<polygon fill="white" stroke="black" points="654,-245.5 654,-286.5 816,-286.5 816,-245.5 654,-245.5"/>
<text text-anchor="start" x="662" y="-274.5" font-family="Helvetica,sans-Serif" font-size="10.00">/home/jonathan/Works</text>
<text text-anchor="start" x="662" y="-263.5" font-family="Helvetica,sans-Serif" font-size="10.00">/Tools/Triton/src/libtriton</text>
<text text-anchor="middle" x="735" y="-252.5" font-family="Helvetica,sans-Serif" font-size="10.00">/engines/taint/taintEngine.cpp</text>
</a>
</g>
</g>
<!-- Node26&#45;&gt;Node27 -->
<g id="edge34" class="edge">
<title>Node26&#45;&gt;Node27</title>
<path fill="none" stroke="midnightblue" d="M784.85,-316.2C774.93,-306.42 763.91,-295.54 754.76,-286.51"/>
<polygon fill="midnightblue" stroke="midnightblue" points="782.59,-318.89 792.17,-323.43 787.51,-313.91 782.59,-318.89"/>
</g>
<!-- Node26&#45;&gt;Node28 -->
<g id="edge39" class="edge">
<title>Node26&#45;&gt;Node28</title>
<path fill="none" stroke="midnightblue" d="M733.24,-320.58C695.24,-309.76 650.08,-296.91 613.53,-286.51"/>
<polygon fill="midnightblue" stroke="midnightblue" points="732.66,-324.06 743.24,-323.43 734.58,-317.32 732.66,-324.06"/>
</g>
<!-- Node28&#45;&gt;Node5 -->
<g id="edge40" class="edge">
<title>Node28&#45;&gt;Node5</title>
<path fill="none" stroke="midnightblue" d="M536.87,-235.59C534.36,-226.51 531.67,-216.74 529.39,-208.51"/>
<polygon fill="midnightblue" stroke="midnightblue" points="533.55,-236.72 539.59,-245.43 540.3,-234.86 533.55,-236.72"/>
</g>
<!-- Node29 -->
<g id="node29" class="node">
<title>Node29</title>
<g id="a_node29"><a xlink:href="x86Semantics_8cpp.html" target="_top" xlink:title=" ">
<polygon fill="white" stroke="black" points="609,-167.5 609,-208.5 763,-208.5 763,-167.5 609,-167.5"/>
<text text-anchor="start" x="617" y="-196.5" font-family="Helvetica,sans-Serif" font-size="10.00">/home/jonathan/Works</text>
<text text-anchor="start" x="617" y="-185.5" font-family="Helvetica,sans-Serif" font-size="10.00">/Tools/Triton/src/libtriton</text>
<text text-anchor="middle" x="686" y="-174.5" font-family="Helvetica,sans-Serif" font-size="10.00">/arch/x86/x86Semantics.cpp</text>
</a>
</g>
</g>
<!-- Node28&#45;&gt;Node29 -->
<g id="edge41" class="edge">
<title>Node28&#45;&gt;Node29</title>
<path fill="none" stroke="midnightblue" d="M590.22,-240.63C609.49,-230.24 631.66,-218.29 649.81,-208.51"/>
<polygon fill="midnightblue" stroke="midnightblue" points="588.45,-237.6 581.31,-245.43 591.77,-243.76 588.45,-237.6"/>
</g>
</g>
</svg>
