<?xml version="1.0" encoding="UTF-8" standalone="no"?>
<!DOCTYPE svg PUBLIC "-//W3C//DTD SVG 1.1//EN"
 "http://www.w3.org/Graphics/SVG/1.1/DTD/svg11.dtd">
<!-- Generated by graphviz version 2.49.0 (20210828.1703)
 -->
<!-- Title: /home/jonathan/Works/Tools/Triton/src/libtriton/includes/triton/symbolicSimplification.hpp Pages: 1 -->
<svg width="1314pt" height="451pt"
 viewBox="0.00 0.00 1314.00 451.00" xmlns="http://www.w3.org/2000/svg" xmlns:xlink="http://www.w3.org/1999/xlink">
<g id="graph0" class="graph" transform="scale(1 1) rotate(0) translate(4 447)">
<title>/home/jonathan/Works/Tools/Triton/src/libtriton/includes/triton/symbolicSimplification.hpp</title>
<polygon fill="white" stroke="transparent" points="-4,4 -4,-447 1310,-447 1310,4 -4,4"/>
<!-- Node1 -->
<g id="node1" class="node">
<title>Node1</title>
<g id="a_node1"><a xlink:title=" ">
<polygon fill="#bfbfbf" stroke="black" points="411,-401.5 411,-442.5 635,-442.5 635,-401.5 411,-401.5"/>
<text text-anchor="start" x="419" y="-430.5" font-family="Helvetica,sans-Serif" font-size="10.00">/home/jonathan/Works</text>
<text text-anchor="start" x="419" y="-419.5" font-family="Helvetica,sans-Serif" font-size="10.00">/Tools/Triton/src/libtriton</text>
<text text-anchor="middle" x="523" y="-408.5" font-family="Helvetica,sans-Serif" font-size="10.00">/includes/triton/symbolicSimplification.hpp</text>
</a>
</g>
</g>
<!-- Node2 -->
<g id="node2" class="node">
<title>Node2</title>
<g id="a_node2"><a xlink:href="symbolicSimplification_8cpp.html" target="_top" xlink:title=" ">
<polygon fill="white" stroke="black" points="287.5,-323.5 287.5,-364.5 526.5,-364.5 526.5,-323.5 287.5,-323.5"/>
<text text-anchor="start" x="295.5" y="-352.5" font-family="Helvetica,sans-Serif" font-size="10.00">/home/jonathan/Works</text>
<text text-anchor="start" x="295.5" y="-341.5" font-family="Helvetica,sans-Serif" font-size="10.00">/Tools/Triton/src/libtriton</text>
<text text-anchor="middle" x="407" y="-330.5" font-family="Helvetica,sans-Serif" font-size="10.00">/engines/symbolic/symbolicSimplification.cpp</text>
</a>
</g>
</g>
<!-- Node1&#45;&gt;Node2 -->
<g id="edge1" class="edge">
<title>Node1&#45;&gt;Node2</title>
<path fill="none" stroke="midnightblue" d="M484.72,-395.92C469.12,-385.7 451.37,-374.07 436.77,-364.51"/>
<polygon fill="midnightblue" stroke="midnightblue" points="482.84,-398.88 493.13,-401.43 486.68,-393.02 482.84,-398.88"/>
</g>
<!-- Node3 -->
<g id="node3" class="node">
<title>Node3</title>
<g id="a_node3"><a xlink:href="symbolicEngine_8hpp.html" target="_top" xlink:title=" ">
<polygon fill="white" stroke="black" points="544.5,-323.5 544.5,-364.5 735.5,-364.5 735.5,-323.5 544.5,-323.5"/>
<text text-anchor="start" x="552.5" y="-352.5" font-family="Helvetica,sans-Serif" font-size="10.00">/home/jonathan/Works</text>
<text text-anchor="start" x="552.5" y="-341.5" font-family="Helvetica,sans-Serif" font-size="10.00">/Tools/Triton/src/libtriton</text>
<text text-anchor="middle" x="640" y="-330.5" font-family="Helvetica,sans-Serif" font-size="10.00">/includes/triton/symbolicEngine.hpp</text>
</a>
</g>
</g>
<!-- Node1&#45;&gt;Node3 -->
<g id="edge2" class="edge">
<title>Node1&#45;&gt;Node3</title>
<path fill="none" stroke="midnightblue" d="M561.61,-395.92C577.34,-385.7 595.25,-374.07 609.97,-364.51"/>
<polygon fill="midnightblue" stroke="midnightblue" points="559.61,-393.05 553.13,-401.43 563.42,-398.92 559.61,-393.05"/>
</g>
<!-- Node4 -->
<g id="node4" class="node">
<title>Node4</title>
<g id="a_node4"><a xlink:href="symbolicEngine_8cpp.html" target="_top" xlink:title=" ">
<polygon fill="white" stroke="black" points="274,-245.5 274,-286.5 480,-286.5 480,-245.5 274,-245.5"/>
<text text-anchor="start" x="282" y="-274.5" font-family="Helvetica,sans-Serif" font-size="10.00">/home/jonathan/Works</text>
<text text-anchor="start" x="282" y="-263.5" font-family="Helvetica,sans-Serif" font-size="10.00">/Tools/Triton/src/libtriton</text>
<text text-anchor="middle" x="377" y="-252.5" font-family="Helvetica,sans-Serif" font-size="10.00">/engines/symbolic/symbolicEngine.cpp</text>
</a>
</g>
</g>
<!-- Node3&#45;&gt;Node4 -->
<g id="edge3" class="edge">
<title>Node3&#45;&gt;Node4</title>
<path fill="none" stroke="midnightblue" d="M562.42,-320.58C524.99,-309.76 480.51,-296.91 444.5,-286.51"/>
<polygon fill="midnightblue" stroke="midnightblue" points="561.69,-324.01 572.27,-323.43 563.64,-317.29 561.69,-324.01"/>
</g>
<!-- Node5 -->
<g id="node5" class="node">
<title>Node5</title>
<g id="a_node5"><a xlink:href="aarch64Semantics_8hpp.html" target="_top" xlink:title=" ">
<polygon fill="white" stroke="black" points="19.5,-167.5 19.5,-208.5 222.5,-208.5 222.5,-167.5 19.5,-167.5"/>
<text text-anchor="start" x="27.5" y="-196.5" font-family="Helvetica,sans-Serif" font-size="10.00">/home/jonathan/Works</text>
<text text-anchor="start" x="27.5" y="-185.5" font-family="Helvetica,sans-Serif" font-size="10.00">/Tools/Triton/src/libtriton</text>
<text text-anchor="middle" x="121" y="-174.5" font-family="Helvetica,sans-Serif" font-size="10.00">/includes/triton/aarch64Semantics.hpp</text>
</a>
</g>
</g>
<!-- Node3&#45;&gt;Node5 -->
<g id="edge4" class="edge">
<title>Node3&#45;&gt;Node5</title>
<path fill="none" stroke="midnightblue" d="M576.29,-319.28C557.74,-310.7 538.14,-299.89 522,-287 503.45,-272.18 509.58,-256.83 489,-245 388.63,-187.3 345.31,-227.36 231,-209 228.22,-208.55 225.4,-208.09 222.56,-207.62"/>
<polygon fill="midnightblue" stroke="midnightblue" points="575.02,-322.54 585.58,-323.43 577.88,-316.15 575.02,-322.54"/>
</g>
<!-- Node8 -->
<g id="node8" class="node">
<title>Node8</title>
<g id="a_node8"><a xlink:href="api_8hpp.html" target="_top" xlink:title=" ">
<polygon fill="white" stroke="black" points="934.5,-89.5 934.5,-130.5 1067.5,-130.5 1067.5,-89.5 934.5,-89.5"/>
<text text-anchor="start" x="942.5" y="-118.5" font-family="Helvetica,sans-Serif" font-size="10.00">/home/jonathan/Works</text>
<text text-anchor="start" x="942.5" y="-107.5" font-family="Helvetica,sans-Serif" font-size="10.00">/Tools/Triton/src/libtriton</text>
<text text-anchor="middle" x="1001" y="-96.5" font-family="Helvetica,sans-Serif" font-size="10.00">/includes/triton/api.hpp</text>
</a>
</g>
</g>
<!-- Node3&#45;&gt;Node8 -->
<g id="edge7" class="edge">
<title>Node3&#45;&gt;Node8</title>
<path fill="none" stroke="midnightblue" d="M745.9,-340.32C839.9,-331.55 971.85,-302.09 1035,-209 1051.48,-184.71 1033.19,-151.62 1017.73,-130.79"/>
<polygon fill="midnightblue" stroke="midnightblue" points="745.44,-336.85 735.78,-341.2 746.04,-343.82 745.44,-336.85"/>
</g>
<!-- Node12 -->
<g id="node12" class="node">
<title>Node12</title>
<g id="a_node12"><a xlink:href="arm32Semantics_8hpp.html" target="_top" xlink:title=" ">
<polygon fill="white" stroke="black" points="240,-167.5 240,-208.5 436,-208.5 436,-167.5 240,-167.5"/>
<text text-anchor="start" x="248" y="-196.5" font-family="Helvetica,sans-Serif" font-size="10.00">/home/jonathan/Works</text>
<text text-anchor="start" x="248" y="-185.5" font-family="Helvetica,sans-Serif" font-size="10.00">/Tools/Triton/src/libtriton</text>
<text text-anchor="middle" x="338" y="-174.5" font-family="Helvetica,sans-Serif" font-size="10.00">/includes/triton/arm32Semantics.hpp</text>
</a>
</g>
</g>
<!-- Node3&#45;&gt;Node12 -->
<g id="edge11" class="edge">
<title>Node3&#45;&gt;Node12</title>
<path fill="none" stroke="midnightblue" d="M609.24,-316.94C575.95,-288.82 526.91,-247.65 522,-245 492.75,-229.24 458.44,-217.27 427.43,-208.53"/>
<polygon fill="midnightblue" stroke="midnightblue" points="607.02,-319.65 616.92,-323.43 611.54,-314.3 607.02,-319.65"/>
</g>
<!-- Node14 -->
<g id="node14" class="node">
<title>Node14</title>
<g id="a_node14"><a xlink:href="irBuilder_8hpp.html" target="_top" xlink:title=" ">
<polygon fill="white" stroke="black" points="872,-167.5 872,-208.5 1026,-208.5 1026,-167.5 872,-167.5"/>
<text text-anchor="start" x="880" y="-196.5" font-family="Helvetica,sans-Serif" font-size="10.00">/home/jonathan/Works</text>
<text text-anchor="start" x="880" y="-185.5" font-family="Helvetica,sans-Serif" font-size="10.00">/Tools/Triton/src/libtriton</text>
<text text-anchor="middle" x="949" y="-174.5" font-family="Helvetica,sans-Serif" font-size="10.00">/includes/triton/irBuilder.hpp</text>
</a>
</g>
</g>
<!-- Node3&#45;&gt;Node14 -->
<g id="edge14" class="edge">
<title>Node3&#45;&gt;Node14</title>
<path fill="none" stroke="midnightblue" d="M709.41,-320.01C734.89,-310.77 763.68,-299.37 789,-287 837.14,-263.47 889.48,-229.72 920.74,-208.59"/>
<polygon fill="midnightblue" stroke="midnightblue" points="708.06,-316.78 699.82,-323.45 710.42,-323.37 708.06,-316.78"/>
</g>
<!-- Node15 -->
<g id="node15" class="node">
<title>Node15</title>
<g id="a_node15"><a xlink:href="synthesizer_8hpp.html" target="_top" xlink:title=" ">
<polygon fill="white" stroke="black" points="1081.5,-245.5 1081.5,-286.5 1250.5,-286.5 1250.5,-245.5 1081.5,-245.5"/>
<text text-anchor="start" x="1089.5" y="-274.5" font-family="Helvetica,sans-Serif" font-size="10.00">/home/jonathan/Works</text>
<text text-anchor="start" x="1089.5" y="-263.5" font-family="Helvetica,sans-Serif" font-size="10.00">/Tools/Triton/src/libtriton</text>
<text text-anchor="middle" x="1166" y="-252.5" font-family="Helvetica,sans-Serif" font-size="10.00">/includes/triton/synthesizer.hpp</text>
</a>
</g>
</g>
<!-- Node3&#45;&gt;Node15 -->
<g id="edge17" class="edge">
<title>Node3&#45;&gt;Node15</title>
<path fill="none" stroke="midnightblue" d="M746.03,-331.26C832.83,-321.13 958.69,-305.28 1068,-287 1072.37,-286.27 1076.84,-285.49 1081.35,-284.67"/>
<polygon fill="midnightblue" stroke="midnightblue" points="745.44,-327.8 735.91,-332.43 746.24,-334.75 745.44,-327.8"/>
</g>
<!-- Node17 -->
<g id="node17" class="node">
<title>Node17</title>
<g id="a_node17"><a xlink:href="taintEngine_8hpp.html" target="_top" xlink:title=" ">
<polygon fill="white" stroke="black" points="611.5,-245.5 611.5,-286.5 780.5,-286.5 780.5,-245.5 611.5,-245.5"/>
<text text-anchor="start" x="619.5" y="-274.5" font-family="Helvetica,sans-Serif" font-size="10.00">/home/jonathan/Works</text>
<text text-anchor="start" x="619.5" y="-263.5" font-family="Helvetica,sans-Serif" font-size="10.00">/Tools/Triton/src/libtriton</text>
<text text-anchor="middle" x="696" y="-252.5" font-family="Helvetica,sans-Serif" font-size="10.00">/includes/triton/taintEngine.hpp</text>
</a>
</g>
</g>
<!-- Node3&#45;&gt;Node17 -->
<g id="edge20" class="edge">
<title>Node3&#45;&gt;Node17</title>
<path fill="none" stroke="midnightblue" d="M660.38,-315.34C667.43,-305.78 675.17,-295.27 681.63,-286.51"/>
<polygon fill="midnightblue" stroke="midnightblue" points="657.54,-313.3 654.42,-323.43 663.17,-317.45 657.54,-313.3"/>
</g>
<!-- Node19 -->
<g id="node19" class="node">
<title>Node19</title>
<g id="a_node19"><a xlink:href="x86Semantics_8hpp.html" target="_top" xlink:title=" ">
<polygon fill="white" stroke="black" points="454,-167.5 454,-208.5 636,-208.5 636,-167.5 454,-167.5"/>
<text text-anchor="start" x="462" y="-196.5" font-family="Helvetica,sans-Serif" font-size="10.00">/home/jonathan/Works</text>
<text text-anchor="start" x="462" y="-185.5" font-family="Helvetica,sans-Serif" font-size="10.00">/Tools/Triton/src/libtriton</text>
<text text-anchor="middle" x="545" y="-174.5" font-family="Helvetica,sans-Serif" font-size="10.00">/includes/triton/x86Semantics.hpp</text>
</a>
</g>
</g>
<!-- Node3&#45;&gt;Node19 -->
<g id="edge29" class="edge">
<title>Node3&#45;&gt;Node19</title>
<path fill="none" stroke="midnightblue" d="M620.33,-314.84C614.32,-306.01 607.77,-296.17 602,-287 585.23,-260.34 567.16,-228.73 555.96,-208.76"/>
<polygon fill="midnightblue" stroke="midnightblue" points="617.57,-317 626.12,-323.27 623.34,-313.04 617.57,-317"/>
</g>
<!-- Node6 -->
<g id="node6" class="node">
<title>Node6</title>
<g id="a_node6"><a xlink:href="aarch64Semantics_8cpp.html" target="_top" xlink:title=" ">
<polygon fill="white" stroke="black" points="0,-89.5 0,-130.5 218,-130.5 218,-89.5 0,-89.5"/>
<text text-anchor="start" x="8" y="-118.5" font-family="Helvetica,sans-Serif" font-size="10.00">/home/jonathan/Works</text>
<text text-anchor="start" x="8" y="-107.5" font-family="Helvetica,sans-Serif" font-size="10.00">/Tools/Triton/src/libtriton</text>
<text text-anchor="middle" x="109" y="-96.5" font-family="Helvetica,sans-Serif" font-size="10.00">/arch/arm/aarch64/aarch64Semantics.cpp</text>
</a>
</g>
</g>
<!-- Node5&#45;&gt;Node6 -->
<g id="edge5" class="edge">
<title>Node5&#45;&gt;Node6</title>
<path fill="none" stroke="midnightblue" d="M116.31,-157.3C114.89,-148.3 113.37,-138.65 112.08,-130.51"/>
<polygon fill="midnightblue" stroke="midnightblue" points="112.89,-158.1 117.91,-167.43 119.81,-157 112.89,-158.1"/>
</g>
<!-- Node7 -->
<g id="node7" class="node">
<title>Node7</title>
<g id="a_node7"><a xlink:href="irBuilder_8cpp.html" target="_top" xlink:title=" ">
<polygon fill="white" stroke="black" points="457.5,-89.5 457.5,-130.5 590.5,-130.5 590.5,-89.5 457.5,-89.5"/>
<text text-anchor="start" x="465.5" y="-118.5" font-family="Helvetica,sans-Serif" font-size="10.00">/home/jonathan/Works</text>
<text text-anchor="start" x="465.5" y="-107.5" font-family="Helvetica,sans-Serif" font-size="10.00">/Tools/Triton/src/libtriton</text>
<text text-anchor="middle" x="524" y="-96.5" font-family="Helvetica,sans-Serif" font-size="10.00">/arch/irBuilder.cpp</text>
</a>
</g>
</g>
<!-- Node5&#45;&gt;Node7 -->
<g id="edge6" class="edge">
<title>Node5&#45;&gt;Node7</title>
<path fill="none" stroke="midnightblue" d="M232.46,-166.77C329.01,-150.31 355.48,-150.8 448,-131 451.07,-130.34 454.2,-129.64 457.36,-128.91"/>
<polygon fill="midnightblue" stroke="midnightblue" points="231.84,-163.33 222.58,-168.47 233.03,-170.22 231.84,-163.33"/>
</g>
<!-- Node9 -->
<g id="node9" class="node">
<title>Node9</title>
<g id="a_node9"><a xlink:href="api_8cpp.html" target="_top" xlink:title=" ">
<polygon fill="white" stroke="black" points="781.5,-6 781.5,-47 914.5,-47 914.5,-6 781.5,-6"/>
<text text-anchor="start" x="789.5" y="-35" font-family="Helvetica,sans-Serif" font-size="10.00">/home/jonathan/Works</text>
<text text-anchor="start" x="789.5" y="-24" font-family="Helvetica,sans-Serif" font-size="10.00">/Tools/Triton/src/libtriton</text>
<text text-anchor="middle" x="848" y="-13" font-family="Helvetica,sans-Serif" font-size="10.00">/api/api.cpp</text>
</a>
</g>
</g>
<!-- Node8&#45;&gt;Node9 -->
<g id="edge8" class="edge">
<title>Node8&#45;&gt;Node9</title>
<path fill="none" stroke="midnightblue" d="M955.29,-84.65C932.7,-72.62 905.82,-58.3 884.61,-47"/>
<polygon fill="midnightblue" stroke="midnightblue" points="953.88,-87.87 964.35,-89.48 957.17,-81.69 953.88,-87.87"/>
</g>
<!-- Node10 -->
<g id="node10" class="node">
<title>Node10</title>
<g id="a_node10"><a xlink:href="pyTritonContext_8cpp.html" target="_top" xlink:title=" ">
<polygon fill="white" stroke="black" points="933,-0.5 933,-52.5 1069,-52.5 1069,-0.5 933,-0.5"/>
<text text-anchor="start" x="941" y="-40.5" font-family="Helvetica,sans-Serif" font-size="10.00">/home/jonathan/Works</text>
<text text-anchor="start" x="941" y="-29.5" font-family="Helvetica,sans-Serif" font-size="10.00">/Tools/Triton/src/libtriton</text>
<text text-anchor="start" x="941" y="-18.5" font-family="Helvetica,sans-Serif" font-size="10.00">/bindings/python/objects</text>
<text text-anchor="middle" x="1001" y="-7.5" font-family="Helvetica,sans-Serif" font-size="10.00">/pyTritonContext.cpp</text>
</a>
</g>
</g>
<!-- Node8&#45;&gt;Node10 -->
<g id="edge9" class="edge">
<title>Node8&#45;&gt;Node10</title>
<path fill="none" stroke="midnightblue" d="M1001,-79.12C1001,-70.41 1001,-60.99 1001,-52.61"/>
<polygon fill="midnightblue" stroke="midnightblue" points="997.5,-79.27 1001,-89.27 1004.5,-79.27 997.5,-79.27"/>
</g>
<!-- Node11 -->
<g id="node11" class="node">
<title>Node11</title>
<g id="a_node11"><a xlink:href="callbacks_8cpp.html" target="_top" xlink:title=" ">
<polygon fill="white" stroke="black" points="1087,-6 1087,-47 1221,-47 1221,-6 1087,-6"/>
<text text-anchor="start" x="1095" y="-35" font-family="Helvetica,sans-Serif" font-size="10.00">/home/jonathan/Works</text>
<text text-anchor="start" x="1095" y="-24" font-family="Helvetica,sans-Serif" font-size="10.00">/Tools/Triton/src/libtriton</text>
<text text-anchor="middle" x="1154" y="-13" font-family="Helvetica,sans-Serif" font-size="10.00">/callbacks/callbacks.cpp</text>
</a>
</g>
</g>
<!-- Node8&#45;&gt;Node11 -->
<g id="edge10" class="edge">
<title>Node8&#45;&gt;Node11</title>
<path fill="none" stroke="midnightblue" d="M1046.71,-84.65C1069.3,-72.62 1096.18,-58.3 1117.39,-47"/>
<polygon fill="midnightblue" stroke="midnightblue" points="1044.83,-81.69 1037.65,-89.48 1048.12,-87.87 1044.83,-81.69"/>
</g>
<!-- Node12&#45;&gt;Node7 -->
<g id="edge13" class="edge">
<title>Node12&#45;&gt;Node7</title>
<path fill="none" stroke="midnightblue" d="M395.25,-163.61C421.21,-153 451.55,-140.6 476.26,-130.51"/>
<polygon fill="midnightblue" stroke="midnightblue" points="393.83,-160.41 385.9,-167.43 396.48,-166.89 393.83,-160.41"/>
</g>
<!-- Node13 -->
<g id="node13" class="node">
<title>Node13</title>
<g id="a_node13"><a xlink:href="arm32Semantics_8cpp.html" target="_top" xlink:title=" ">
<polygon fill="white" stroke="black" points="236.5,-89.5 236.5,-130.5 439.5,-130.5 439.5,-89.5 236.5,-89.5"/>
<text text-anchor="start" x="244.5" y="-118.5" font-family="Helvetica,sans-Serif" font-size="10.00">/home/jonathan/Works</text>
<text text-anchor="start" x="244.5" y="-107.5" font-family="Helvetica,sans-Serif" font-size="10.00">/Tools/Triton/src/libtriton</text>
<text text-anchor="middle" x="338" y="-96.5" font-family="Helvetica,sans-Serif" font-size="10.00">/arch/arm/arm32/arm32Semantics.cpp</text>
</a>
</g>
</g>
<!-- Node12&#45;&gt;Node13 -->
<g id="edge12" class="edge">
<title>Node12&#45;&gt;Node13</title>
<path fill="none" stroke="midnightblue" d="M338,-157.3C338,-148.3 338,-138.65 338,-130.51"/>
<polygon fill="midnightblue" stroke="midnightblue" points="334.5,-157.43 338,-167.43 341.5,-157.43 334.5,-157.43"/>
</g>
<!-- Node14&#45;&gt;Node7 -->
<g id="edge15" class="edge">
<title>Node14&#45;&gt;Node7</title>
<path fill="none" stroke="midnightblue" d="M862.03,-172.96C849.6,-170.96 836.98,-168.92 825,-167 725.01,-150.94 699.09,-151.91 600,-131 596.93,-130.35 593.8,-129.66 590.64,-128.93"/>
<polygon fill="midnightblue" stroke="midnightblue" points="861.51,-176.42 871.94,-174.56 862.63,-169.51 861.51,-176.42"/>
</g>
<!-- Node14&#45;&gt;Node8 -->
<g id="edge16" class="edge">
<title>Node14&#45;&gt;Node8</title>
<path fill="none" stroke="midnightblue" d="M968.13,-159.05C974.61,-149.57 981.72,-139.18 987.65,-130.51"/>
<polygon fill="midnightblue" stroke="midnightblue" points="965.15,-157.2 962.39,-167.43 970.93,-161.15 965.15,-157.2"/>
</g>
<!-- Node15&#45;&gt;Node8 -->
<g id="edge19" class="edge">
<title>Node15&#45;&gt;Node8</title>
<path fill="none" stroke="midnightblue" d="M1139.52,-237.98C1115.55,-213.62 1081.92,-179.73 1068,-167 1054.35,-154.52 1038.5,-141.21 1025.64,-130.71"/>
<polygon fill="midnightblue" stroke="midnightblue" points="1137.11,-240.53 1146.62,-245.2 1142.1,-235.62 1137.11,-240.53"/>
</g>
<!-- Node16 -->
<g id="node16" class="node">
<title>Node16</title>
<g id="a_node16"><a xlink:href="synthesizer_8cpp.html" target="_top" xlink:title=" ">
<polygon fill="white" stroke="black" points="1120,-167.5 1120,-208.5 1306,-208.5 1306,-167.5 1120,-167.5"/>
<text text-anchor="start" x="1128" y="-196.5" font-family="Helvetica,sans-Serif" font-size="10.00">/home/jonathan/Works</text>
<text text-anchor="start" x="1128" y="-185.5" font-family="Helvetica,sans-Serif" font-size="10.00">/Tools/Triton/src/libtriton</text>
<text text-anchor="middle" x="1213" y="-174.5" font-family="Helvetica,sans-Serif" font-size="10.00">/engines/synthesis/synthesizer.cpp</text>
</a>
</g>
</g>
<!-- Node15&#45;&gt;Node16 -->
<g id="edge18" class="edge">
<title>Node15&#45;&gt;Node16</title>
<path fill="none" stroke="midnightblue" d="M1183.47,-236.76C1189.28,-227.35 1195.62,-217.1 1200.94,-208.51"/>
<polygon fill="midnightblue" stroke="midnightblue" points="1180.39,-235.08 1178.1,-245.43 1186.34,-238.76 1180.39,-235.08"/>
</g>
<!-- Node17&#45;&gt;Node5 -->
<g id="edge22" class="edge">
<title>Node17&#45;&gt;Node5</title>
<path fill="none" stroke="midnightblue" d="M601.33,-253.91C476.01,-239.18 266.64,-214.38 231,-209 228.22,-208.58 225.4,-208.14 222.55,-207.69"/>
<polygon fill="midnightblue" stroke="midnightblue" points="600.99,-257.39 611.33,-255.08 601.8,-250.44 600.99,-257.39"/>
</g>
<!-- Node17&#45;&gt;Node8 -->
<g id="edge23" class="edge">
<title>Node17&#45;&gt;Node8</title>
<path fill="none" stroke="midnightblue" d="M764.58,-241.6C784.99,-232.99 806.77,-222.08 825,-209 845.45,-194.32 842.37,-181.43 863,-167 884.93,-151.66 911.68,-139.57 935.78,-130.61"/>
<polygon fill="midnightblue" stroke="midnightblue" points="763.24,-238.37 755.31,-245.39 765.89,-244.85 763.24,-238.37"/>
</g>
<!-- Node17&#45;&gt;Node12 -->
<g id="edge24" class="edge">
<title>Node17&#45;&gt;Node12</title>
<path fill="none" stroke="midnightblue" d="M601.09,-244.85C548.16,-233.62 482.54,-219.68 430.08,-208.55"/>
<polygon fill="midnightblue" stroke="midnightblue" points="600.65,-248.34 611.16,-246.99 602.1,-241.49 600.65,-248.34"/>
</g>
<!-- Node17&#45;&gt;Node14 -->
<g id="edge25" class="edge">
<title>Node17&#45;&gt;Node14</title>
<path fill="none" stroke="midnightblue" d="M771.09,-242.44C807,-231.66 849.57,-218.87 884.07,-208.51"/>
<polygon fill="midnightblue" stroke="midnightblue" points="769.72,-239.2 761.15,-245.43 771.74,-245.9 769.72,-239.2"/>
</g>
<!-- Node18 -->
<g id="node18" class="node">
<title>Node18</title>
<g id="a_node18"><a xlink:href="taintEngine_8cpp.html" target="_top" xlink:title=" ">
<polygon fill="white" stroke="black" points="654,-167.5 654,-208.5 816,-208.5 816,-167.5 654,-167.5"/>
<text text-anchor="start" x="662" y="-196.5" font-family="Helvetica,sans-Serif" font-size="10.00">/home/jonathan/Works</text>
<text text-anchor="start" x="662" y="-185.5" font-family="Helvetica,sans-Serif" font-size="10.00">/Tools/Triton/src/libtriton</text>
<text text-anchor="middle" x="735" y="-174.5" font-family="Helvetica,sans-Serif" font-size="10.00">/engines/taint/taintEngine.cpp</text>
</a>
</g>
</g>
<!-- Node17&#45;&gt;Node18 -->
<g id="edge21" class="edge">
<title>Node17&#45;&gt;Node18</title>
<path fill="none" stroke="midnightblue" d="M710.64,-236.47C715.43,-227.14 720.63,-217.01 724.99,-208.51"/>
<polygon fill="midnightblue" stroke="midnightblue" points="707.5,-234.93 706.04,-245.43 713.72,-238.13 707.5,-234.93"/>
</g>
<!-- Node17&#45;&gt;Node19 -->
<g id="edge26" class="edge">
<title>Node17&#45;&gt;Node19</title>
<path fill="none" stroke="midnightblue" d="M648.13,-240.91C627.37,-230.46 603.37,-218.38 583.75,-208.51"/>
<polygon fill="midnightblue" stroke="midnightblue" points="646.61,-244.06 657.11,-245.43 649.75,-237.81 646.61,-244.06"/>
</g>
<!-- Node19&#45;&gt;Node7 -->
<g id="edge27" class="edge">
<title>Node19&#45;&gt;Node7</title>
<path fill="none" stroke="midnightblue" d="M536.87,-157.59C534.36,-148.51 531.67,-138.74 529.39,-130.51"/>
<polygon fill="midnightblue" stroke="midnightblue" points="533.55,-158.72 539.59,-167.43 540.3,-156.86 533.55,-158.72"/>
</g>
<!-- Node20 -->
<g id="node20" class="node">
<title>Node20</title>
<g id="a_node20"><a xlink:href="x86Semantics_8cpp.html" target="_top" xlink:title=" ">
<polygon fill="white" stroke="black" points="609,-89.5 609,-130.5 763,-130.5 763,-89.5 609,-89.5"/>
<text text-anchor="start" x="617" y="-118.5" font-family="Helvetica,sans-Serif" font-size="10.00">/home/jonathan/Works</text>
<text text-anchor="start" x="617" y="-107.5" font-family="Helvetica,sans-Serif" font-size="10.00">/Tools/Triton/src/libtriton</text>
<text text-anchor="middle" x="686" y="-96.5" font-family="Helvetica,sans-Serif" font-size="10.00">/arch/x86/x86Semantics.cpp</text>
</a>
</g>
</g>
<!-- Node19&#45;&gt;Node20 -->
<g id="edge28" class="edge">
<title>Node19&#45;&gt;Node20</title>
<path fill="none" stroke="midnightblue" d="M590.22,-162.63C609.49,-152.24 631.66,-140.29 649.81,-130.51"/>
<polygon fill="midnightblue" stroke="midnightblue" points="588.45,-159.6 581.31,-167.43 591.77,-165.76 588.45,-159.6"/>
</g>
</g>
</svg>
