<?xml version="1.0" encoding="UTF-8" standalone="no"?>
<!DOCTYPE svg PUBLIC "-//W3C//DTD SVG 1.1//EN"
 "http://www.w3.org/Graphics/SVG/1.1/DTD/svg11.dtd">
<!-- Generated by graphviz version 11.0.0 (20240428.1522)
 -->
<!-- Title: /Users/jonathan/Works/Tools/Triton/src/libtriton/includes/triton/symbolicSimplification.hpp Pages: 1 -->
<svg width="2098pt" height="528pt"
 viewBox="0.00 0.00 2097.50 527.50" xmlns="http://www.w3.org/2000/svg" xmlns:xlink="http://www.w3.org/1999/xlink">
<g id="graph0" class="graph" transform="scale(1 1) rotate(0) translate(4 523.5)">
<title>/Users/jonathan/Works/Tools/Triton/src/libtriton/includes/triton/symbolicSimplification.hpp</title>
<!-- Node1 -->
<g id="Node000001" class="node">
<title>Node1</title>
<g id="a_Node000001"><a xlink:title=" ">
<polygon fill="#999999" stroke="#666666" points="528.5,-519.5 329.5,-519.5 329.5,-477.75 528.5,-477.75 528.5,-519.5"/>
<text text-anchor="start" x="337.5" y="-506" font-family="Helvetica,sans-Serif" font-size="10.00">/Users/jonathan/Works</text>
<text text-anchor="start" x="337.5" y="-494.75" font-family="Helvetica,sans-Serif" font-size="10.00">/Tools/Triton/src/libtriton</text>
<text text-anchor="middle" x="429" y="-483.5" font-family="Helvetica,sans-Serif" font-size="10.00">/includes/triton/symbolicSimplification.hpp</text>
</a>
</g>
</g>
<!-- Node2 -->
<g id="Node000002" class="node">
<title>Node2</title>
<g id="a_Node000002"><a xlink:href="symbolicSimplification_8cpp.html" target="_top" xlink:title=" ">
<polygon fill="white" stroke="#666666" points="340,-125.12 126,-125.12 126,-83.38 340,-83.38 340,-125.12"/>
<text text-anchor="start" x="134" y="-111.62" font-family="Helvetica,sans-Serif" font-size="10.00">/Users/jonathan/Works</text>
<text text-anchor="start" x="134" y="-100.38" font-family="Helvetica,sans-Serif" font-size="10.00">/Tools/Triton/src/libtriton</text>
<text text-anchor="middle" x="233" y="-89.12" font-family="Helvetica,sans-Serif" font-size="10.00">/engines/symbolic/symbolicSimplification.cpp</text>
</a>
</g>
</g>
<!-- Node1&#45;&gt;Node2 -->
<g id="edge1_Node000001_Node000002" class="edge">
<title>Node1&#45;&gt;Node2</title>
<g id="a_edge1_Node000001_Node000002"><a xlink:title=" ">
<path fill="none" stroke="#63b8ff" d="M317.9,-480.35C190.79,-457.38 0,-411.65 0,-344.12 0,-344.12 0,-344.12 0,-264.38 0,-189.67 82.68,-147.5 149.54,-125.62"/>
<polygon fill="#63b8ff" stroke="#63b8ff" points="317.28,-483.8 327.74,-482.1 318.51,-476.9 317.28,-483.8"/>
</a>
</g>
</g>
<!-- Node3 -->
<g id="Node000003" class="node">
<title>Node3</title>
<g id="a_Node000003"><a xlink:href="symbolicEngine_8hpp.html" target="_top" xlink:title=" ">
<polygon fill="white" stroke="#666666" points="1036.25,-441.75 865.75,-441.75 865.75,-400 1036.25,-400 1036.25,-441.75"/>
<text text-anchor="start" x="873.75" y="-428.25" font-family="Helvetica,sans-Serif" font-size="10.00">/Users/jonathan/Works</text>
<text text-anchor="start" x="873.75" y="-417" font-family="Helvetica,sans-Serif" font-size="10.00">/Tools/Triton/src/libtriton</text>
<text text-anchor="middle" x="951" y="-405.75" font-family="Helvetica,sans-Serif" font-size="10.00">/includes/triton/symbolicEngine.hpp</text>
</a>
</g>
</g>
<!-- Node1&#45;&gt;Node3 -->
<g id="edge2_Node000001_Node000003" class="edge">
<title>Node1&#45;&gt;Node3</title>
<g id="a_edge2_Node000001_Node000003"><a xlink:title=" ">
<path fill="none" stroke="#63b8ff" d="M540.07,-481.51C637.34,-467.39 776.64,-447.18 865.46,-434.29"/>
<polygon fill="#63b8ff" stroke="#63b8ff" points="539.61,-478.04 530.22,-482.94 540.62,-484.96 539.61,-478.04"/>
</a>
</g>
</g>
<!-- Node4 -->
<g id="Node000004" class="node">
<title>Node4</title>
<g id="a_Node000004"><a xlink:href="symbolicEngine_8cpp.html" target="_top" xlink:title=" ">
<polygon fill="white" stroke="#666666" points="950.75,-364 765.25,-364 765.25,-322.25 950.75,-322.25 950.75,-364"/>
<text text-anchor="start" x="773.25" y="-350.5" font-family="Helvetica,sans-Serif" font-size="10.00">/Users/jonathan/Works</text>
<text text-anchor="start" x="773.25" y="-339.25" font-family="Helvetica,sans-Serif" font-size="10.00">/Tools/Triton/src/libtriton</text>
<text text-anchor="middle" x="858" y="-328" font-family="Helvetica,sans-Serif" font-size="10.00">/engines/symbolic/symbolicEngine.cpp</text>
</a>
</g>
</g>
<!-- Node3&#45;&gt;Node4 -->
<g id="edge3_Node000003_Node000004" class="edge">
<title>Node3&#45;&gt;Node4</title>
<g id="a_edge3_Node000003_Node000004"><a xlink:title=" ">
<path fill="none" stroke="#63b8ff" d="M917.28,-392.41C905.96,-383.19 893.53,-373.06 882.99,-364.48"/>
<polygon fill="#63b8ff" stroke="#63b8ff" points="914.94,-395.02 924.9,-398.62 919.36,-389.59 914.94,-395.02"/>
</a>
</g>
</g>
<!-- Node5 -->
<g id="Node000005" class="node">
<title>Node5</title>
<g id="a_Node000005"><a xlink:href="aarch64Semantics_8hpp.html" target="_top" xlink:title=" ">
<polygon fill="white" stroke="#666666" points="1365.25,-286.25 1182.75,-286.25 1182.75,-244.5 1365.25,-244.5 1365.25,-286.25"/>
<text text-anchor="start" x="1190.75" y="-272.75" font-family="Helvetica,sans-Serif" font-size="10.00">/Users/jonathan/Works</text>
<text text-anchor="start" x="1190.75" y="-261.5" font-family="Helvetica,sans-Serif" font-size="10.00">/Tools/Triton/src/libtriton</text>
<text text-anchor="middle" x="1274" y="-250.25" font-family="Helvetica,sans-Serif" font-size="10.00">/includes/triton/aarch64Semantics.hpp</text>
</a>
</g>
</g>
<!-- Node3&#45;&gt;Node5 -->
<g id="edge4_Node000003_Node000005" class="edge">
<title>Node3&#45;&gt;Node5</title>
<g id="a_edge4_Node000003_Node000005"><a xlink:title=" ">
<path fill="none" stroke="#63b8ff" d="M1047.42,-399.85C1079.73,-391.18 1115.32,-379.4 1146,-364 1187.46,-343.18 1228.97,-308.31 1253.04,-286.37"/>
<polygon fill="#63b8ff" stroke="#63b8ff" points="1046.86,-396.38 1038.06,-402.3 1048.62,-403.16 1046.86,-396.38"/>
</a>
</g>
</g>
<!-- Node8 -->
<g id="Node000008" class="node">
<title>Node8</title>
<g id="a_Node000008"><a xlink:href="arm32Semantics_8hpp.html" target="_top" xlink:title=" ">
<polygon fill="white" stroke="#666666" points="1721.5,-286.25 1546.5,-286.25 1546.5,-244.5 1721.5,-244.5 1721.5,-286.25"/>
<text text-anchor="start" x="1554.5" y="-272.75" font-family="Helvetica,sans-Serif" font-size="10.00">/Users/jonathan/Works</text>
<text text-anchor="start" x="1554.5" y="-261.5" font-family="Helvetica,sans-Serif" font-size="10.00">/Tools/Triton/src/libtriton</text>
<text text-anchor="middle" x="1634" y="-250.25" font-family="Helvetica,sans-Serif" font-size="10.00">/includes/triton/arm32Semantics.hpp</text>
</a>
</g>
</g>
<!-- Node3&#45;&gt;Node8 -->
<g id="edge7_Node000003_Node000008" class="edge">
<title>Node3&#45;&gt;Node8</title>
<g id="a_edge7_Node000003_Node000008"><a xlink:title=" ">
<path fill="none" stroke="#63b8ff" d="M1047.6,-414.85C1177.43,-407.19 1400.83,-390.64 1478,-364 1528.89,-346.43 1580.37,-309.7 1609.62,-286.64"/>
<polygon fill="#63b8ff" stroke="#63b8ff" points="1047.78,-411.33 1038,-415.4 1048.19,-418.32 1047.78,-411.33"/>
</a>
</g>
</g>
<!-- Node10 -->
<g id="Node000010" class="node">
<title>Node10</title>
<g id="a_Node000010"><a xlink:href="context_8hpp.html" target="_top" xlink:title=" ">
<polygon fill="white" stroke="#666666" points="916.88,-208.5 783.12,-208.5 783.12,-166.75 916.88,-166.75 916.88,-208.5"/>
<text text-anchor="start" x="791.12" y="-195" font-family="Helvetica,sans-Serif" font-size="10.00">/Users/jonathan/Works</text>
<text text-anchor="start" x="791.12" y="-183.75" font-family="Helvetica,sans-Serif" font-size="10.00">/Tools/Triton/src/libtriton</text>
<text text-anchor="middle" x="850" y="-172.5" font-family="Helvetica,sans-Serif" font-size="10.00">/includes/triton/context.hpp</text>
</a>
</g>
</g>
<!-- Node3&#45;&gt;Node10 -->
<g id="edge10_Node000003_Node000010" class="edge">
<title>Node3&#45;&gt;Node10</title>
<g id="a_edge10_Node000003_Node000010"><a xlink:title=" ">
<path fill="none" stroke="#63b8ff" d="M854.21,-403.4C811.73,-394.01 768.63,-380.75 756,-364 747.5,-352.73 742.75,-269.32 757,-244.5 765.82,-229.15 780.7,-217.53 796,-208.99"/>
<polygon fill="#63b8ff" stroke="#63b8ff" points="853.28,-406.78 863.79,-405.45 854.74,-399.94 853.28,-406.78"/>
</a>
</g>
</g>
<!-- Node17 -->
<g id="Node000017" class="node">
<title>Node17</title>
<g id="a_Node000017"><a xlink:href="irBuilder_8hpp.html" target="_top" xlink:title=" ">
<polygon fill="white" stroke="#666666" points="1165,-286.25 1029,-286.25 1029,-244.5 1165,-244.5 1165,-286.25"/>
<text text-anchor="start" x="1037" y="-272.75" font-family="Helvetica,sans-Serif" font-size="10.00">/Users/jonathan/Works</text>
<text text-anchor="start" x="1037" y="-261.5" font-family="Helvetica,sans-Serif" font-size="10.00">/Tools/Triton/src/libtriton</text>
<text text-anchor="middle" x="1097" y="-250.25" font-family="Helvetica,sans-Serif" font-size="10.00">/includes/triton/irBuilder.hpp</text>
</a>
</g>
</g>
<!-- Node3&#45;&gt;Node17 -->
<g id="edge18_Node000003_Node000017" class="edge">
<title>Node3&#45;&gt;Node17</title>
<g id="a_edge18_Node000003_Node000017"><a xlink:title=" ">
<path fill="none" stroke="#63b8ff" d="M1047.63,-411.94C1078.64,-404.27 1109.88,-390.04 1129,-364 1146.21,-340.57 1128.53,-307.4 1113.41,-286.39"/>
<polygon fill="#63b8ff" stroke="#63b8ff" points="1047.16,-408.46 1038.16,-414.06 1048.68,-415.29 1047.16,-408.46"/>
</a>
</g>
</g>
<!-- Node18 -->
<g id="Node000018" class="node">
<title>Node18</title>
<g id="a_Node000018"><a xlink:href="liftingEngine_8hpp.html" target="_top" xlink:title=" ">
<polygon fill="white" stroke="#666666" points="355.38,-286.25 200.62,-286.25 200.62,-244.5 355.38,-244.5 355.38,-286.25"/>
<text text-anchor="start" x="208.62" y="-272.75" font-family="Helvetica,sans-Serif" font-size="10.00">/Users/jonathan/Works</text>
<text text-anchor="start" x="208.62" y="-261.5" font-family="Helvetica,sans-Serif" font-size="10.00">/Tools/Triton/src/libtriton</text>
<text text-anchor="middle" x="278" y="-250.25" font-family="Helvetica,sans-Serif" font-size="10.00">/includes/triton/liftingEngine.hpp</text>
</a>
</g>
</g>
<!-- Node3&#45;&gt;Node18 -->
<g id="edge21_Node000003_Node000018" class="edge">
<title>Node3&#45;&gt;Node18</title>
<g id="a_edge21_Node000003_Node000018"><a xlink:title=" ">
<path fill="none" stroke="#63b8ff" d="M854.04,-419.2C709.91,-416.77 447.18,-406.44 364,-364 361.72,-362.84 319.68,-314.52 295.23,-286.3"/>
<polygon fill="#63b8ff" stroke="#63b8ff" points="853.92,-422.7 863.97,-419.35 854.03,-415.7 853.92,-422.7"/>
</a>
</g>
</g>
<!-- Node19 -->
<g id="Node000019" class="node">
<title>Node19</title>
<g id="a_Node000019"><a xlink:href="liftingToDot_8hpp.html" target="_top" xlink:title=" ">
<polygon fill="white" stroke="#666666" points="524.5,-364 373.5,-364 373.5,-322.25 524.5,-322.25 524.5,-364"/>
<text text-anchor="start" x="381.5" y="-350.5" font-family="Helvetica,sans-Serif" font-size="10.00">/Users/jonathan/Works</text>
<text text-anchor="start" x="381.5" y="-339.25" font-family="Helvetica,sans-Serif" font-size="10.00">/Tools/Triton/src/libtriton</text>
<text text-anchor="middle" x="449" y="-328" font-family="Helvetica,sans-Serif" font-size="10.00">/includes/triton/liftingToDot.hpp</text>
</a>
</g>
</g>
<!-- Node3&#45;&gt;Node19 -->
<g id="edge23_Node000003_Node000019" class="edge">
<title>Node3&#45;&gt;Node19</title>
<g id="a_edge23_Node000003_Node000019"><a xlink:title=" ">
<path fill="none" stroke="#63b8ff" d="M854.14,-409.58C769.36,-399.93 643.04,-384.01 534,-364 531.02,-363.45 527.98,-362.87 524.92,-362.26"/>
<polygon fill="#63b8ff" stroke="#63b8ff" points="853.73,-413.06 864.06,-410.7 854.52,-406.1 853.73,-413.06"/>
</a>
</g>
</g>
<!-- Node21 -->
<g id="Node000021" class="node">
<title>Node21</title>
<g id="a_Node000021"><a xlink:href="liftingToPython_8hpp.html" target="_top" xlink:title=" ">
<polygon fill="white" stroke="#666666" points="709,-364 543,-364 543,-322.25 709,-322.25 709,-364"/>
<text text-anchor="start" x="551" y="-350.5" font-family="Helvetica,sans-Serif" font-size="10.00">/Users/jonathan/Works</text>
<text text-anchor="start" x="551" y="-339.25" font-family="Helvetica,sans-Serif" font-size="10.00">/Tools/Triton/src/libtriton</text>
<text text-anchor="middle" x="626" y="-328" font-family="Helvetica,sans-Serif" font-size="10.00">/includes/triton/liftingToPython.hpp</text>
</a>
</g>
</g>
<!-- Node3&#45;&gt;Node21 -->
<g id="edge26_Node000003_Node000021" class="edge">
<title>Node3&#45;&gt;Node21</title>
<g id="a_edge26_Node000003_Node000021"><a xlink:title=" ">
<path fill="none" stroke="#63b8ff" d="M854.68,-397.43C808.52,-386.67 753.77,-373.91 709.42,-363.57"/>
<polygon fill="#63b8ff" stroke="#63b8ff" points="853.6,-400.77 864.14,-399.63 855.19,-393.95 853.6,-400.77"/>
</a>
</g>
</g>
<!-- Node23 -->
<g id="Node000023" class="node">
<title>Node23</title>
<g id="a_Node000023"><a xlink:href="liftingToSMT_8hpp.html" target="_top" xlink:title=" ">
<polygon fill="white" stroke="#666666" points="317.38,-364 162.62,-364 162.62,-322.25 317.38,-322.25 317.38,-364"/>
<text text-anchor="start" x="170.62" y="-350.5" font-family="Helvetica,sans-Serif" font-size="10.00">/Users/jonathan/Works</text>
<text text-anchor="start" x="170.62" y="-339.25" font-family="Helvetica,sans-Serif" font-size="10.00">/Tools/Triton/src/libtriton</text>
<text text-anchor="middle" x="240" y="-328" font-family="Helvetica,sans-Serif" font-size="10.00">/includes/triton/liftingToSMT.hpp</text>
</a>
</g>
</g>
<!-- Node3&#45;&gt;Node23 -->
<g id="edge29_Node000003_Node000023" class="edge">
<title>Node3&#45;&gt;Node23</title>
<g id="a_edge29_Node000003_Node000023"><a xlink:title=" ">
<path fill="none" stroke="#63b8ff" d="M854.16,-414.91C731.77,-407.77 514.87,-392.25 331,-364 326.68,-363.34 322.27,-362.59 317.82,-361.79"/>
<polygon fill="#63b8ff" stroke="#63b8ff" points="853.65,-418.39 863.83,-415.47 854.05,-411.4 853.65,-418.39"/>
</a>
</g>
</g>
<!-- Node25 -->
<g id="Node000025" class="node">
<title>Node25</title>
<g id="a_Node000025"><a xlink:href="riscvSemantics_8hpp.html" target="_top" xlink:title=" ">
<polygon fill="white" stroke="#666666" points="2089.5,-286.25 1920.5,-286.25 1920.5,-244.5 2089.5,-244.5 2089.5,-286.25"/>
<text text-anchor="start" x="1928.5" y="-272.75" font-family="Helvetica,sans-Serif" font-size="10.00">/Users/jonathan/Works</text>
<text text-anchor="start" x="1928.5" y="-261.5" font-family="Helvetica,sans-Serif" font-size="10.00">/Tools/Triton/src/libtriton</text>
<text text-anchor="middle" x="2005" y="-250.25" font-family="Helvetica,sans-Serif" font-size="10.00">/includes/triton/riscvSemantics.hpp</text>
</a>
</g>
</g>
<!-- Node3&#45;&gt;Node25 -->
<g id="edge32_Node000003_Node000025" class="edge">
<title>Node3&#45;&gt;Node25</title>
<g id="a_edge32_Node000003_Node000025"><a xlink:title=" ">
<path fill="none" stroke="#63b8ff" d="M1047.69,-416.73C1177.99,-411.37 1416.83,-397.57 1618,-364 1732.14,-344.95 1862.05,-309.21 1938.59,-286.66"/>
<polygon fill="#63b8ff" stroke="#63b8ff" points="1047.94,-413.22 1038.09,-417.12 1048.22,-420.21 1047.94,-413.22"/>
</a>
</g>
</g>
<!-- Node27 -->
<g id="Node000027" class="node">
<title>Node27</title>
<g id="a_Node000027"><a xlink:href="synthesizer_8hpp.html" target="_top" xlink:title=" ">
<polygon fill="white" stroke="#666666" points="1119.5,-364 968.5,-364 968.5,-322.25 1119.5,-322.25 1119.5,-364"/>
<text text-anchor="start" x="976.5" y="-350.5" font-family="Helvetica,sans-Serif" font-size="10.00">/Users/jonathan/Works</text>
<text text-anchor="start" x="976.5" y="-339.25" font-family="Helvetica,sans-Serif" font-size="10.00">/Tools/Triton/src/libtriton</text>
<text text-anchor="middle" x="1044" y="-328" font-family="Helvetica,sans-Serif" font-size="10.00">/includes/triton/synthesizer.hpp</text>
</a>
</g>
</g>
<!-- Node3&#45;&gt;Node27 -->
<g id="edge34_Node000003_Node000027" class="edge">
<title>Node3&#45;&gt;Node27</title>
<g id="a_edge34_Node000003_Node000027"><a xlink:title=" ">
<path fill="none" stroke="#63b8ff" d="M984.72,-392.41C996.04,-383.19 1008.47,-373.06 1019.01,-364.48"/>
<polygon fill="#63b8ff" stroke="#63b8ff" points="982.64,-389.59 977.1,-398.62 987.06,-395.02 982.64,-389.59"/>
</a>
</g>
</g>
<!-- Node29 -->
<g id="Node000029" class="node">
<title>Node29</title>
<g id="a_Node000029"><a xlink:href="taintEngine_8hpp.html" target="_top" xlink:title=" ">
<polygon fill="white" stroke="#666666" points="1469.12,-364 1318.88,-364 1318.88,-322.25 1469.12,-322.25 1469.12,-364"/>
<text text-anchor="start" x="1326.88" y="-350.5" font-family="Helvetica,sans-Serif" font-size="10.00">/Users/jonathan/Works</text>
<text text-anchor="start" x="1326.88" y="-339.25" font-family="Helvetica,sans-Serif" font-size="10.00">/Tools/Triton/src/libtriton</text>
<text text-anchor="middle" x="1394" y="-328" font-family="Helvetica,sans-Serif" font-size="10.00">/includes/triton/taintEngine.hpp</text>
</a>
</g>
</g>
<!-- Node3&#45;&gt;Node29 -->
<g id="edge37_Node000003_Node000029" class="edge">
<title>Node3&#45;&gt;Node29</title>
<g id="a_edge37_Node000003_Node000029"><a xlink:title=" ">
<path fill="none" stroke="#63b8ff" d="M1047.93,-403.3C1129.29,-389.39 1243.88,-369.8 1318.53,-357.03"/>
<polygon fill="#63b8ff" stroke="#63b8ff" points="1047.44,-399.83 1038.17,-404.97 1048.62,-406.73 1047.44,-399.83"/>
</a>
</g>
</g>
<!-- Node31 -->
<g id="Node000031" class="node">
<title>Node31</title>
<g id="a_Node000031"><a xlink:href="x86Semantics_8hpp.html" target="_top" xlink:title=" ">
<polygon fill="white" stroke="#666666" points="1902.88,-286.25 1739.12,-286.25 1739.12,-244.5 1902.88,-244.5 1902.88,-286.25"/>
<text text-anchor="start" x="1747.12" y="-272.75" font-family="Helvetica,sans-Serif" font-size="10.00">/Users/jonathan/Works</text>
<text text-anchor="start" x="1747.12" y="-261.5" font-family="Helvetica,sans-Serif" font-size="10.00">/Tools/Triton/src/libtriton</text>
<text text-anchor="middle" x="1821" y="-250.25" font-family="Helvetica,sans-Serif" font-size="10.00">/includes/triton/x86Semantics.hpp</text>
</a>
</g>
</g>
<!-- Node3&#45;&gt;Node31 -->
<g id="edge47_Node000003_Node000031" class="edge">
<title>Node3&#45;&gt;Node31</title>
<g id="a_edge47_Node000003_Node000031"><a xlink:title=" ">
<path fill="none" stroke="#63b8ff" d="M1047.93,-417.35C1164.12,-412.76 1364.18,-399.91 1532,-364 1618.74,-345.44 1715.7,-309.37 1772.36,-286.65"/>
<polygon fill="#63b8ff" stroke="#63b8ff" points="1047.98,-413.84 1038.12,-417.72 1048.25,-420.84 1047.98,-413.84"/>
</a>
</g>
</g>
<!-- Node6 -->
<g id="Node000006" class="node">
<title>Node6</title>
<g id="a_Node000006"><a xlink:href="aarch64Semantics_8cpp.html" target="_top" xlink:title=" ">
<polygon fill="white" stroke="#666666" points="1372.75,-208.5 1175.25,-208.5 1175.25,-166.75 1372.75,-166.75 1372.75,-208.5"/>
<text text-anchor="start" x="1183.25" y="-195" font-family="Helvetica,sans-Serif" font-size="10.00">/Users/jonathan/Works</text>
<text text-anchor="start" x="1183.25" y="-183.75" font-family="Helvetica,sans-Serif" font-size="10.00">/Tools/Triton/src/libtriton</text>
<text text-anchor="middle" x="1274" y="-172.5" font-family="Helvetica,sans-Serif" font-size="10.00">/arch/arm/aarch64/aarch64Semantics.cpp</text>
</a>
</g>
</g>
<!-- Node5&#45;&gt;Node6 -->
<g id="edge5_Node000005_Node000006" class="edge">
<title>Node5&#45;&gt;Node6</title>
<g id="a_edge5_Node000005_Node000006"><a xlink:title=" ">
<path fill="none" stroke="#63b8ff" d="M1274,-232.75C1274,-224.71 1274,-216.29 1274,-208.98"/>
<polygon fill="#63b8ff" stroke="#63b8ff" points="1270.5,-232.56 1274,-242.56 1277.5,-232.56 1270.5,-232.56"/>
</a>
</g>
</g>
<!-- Node7 -->
<g id="Node000007" class="node">
<title>Node7</title>
<g id="a_Node000007"><a xlink:href="irBuilder_8cpp.html" target="_top" xlink:title=" ">
<polygon fill="white" stroke="#666666" points="1518.5,-208.5 1397.5,-208.5 1397.5,-166.75 1518.5,-166.75 1518.5,-208.5"/>
<text text-anchor="start" x="1405.5" y="-195" font-family="Helvetica,sans-Serif" font-size="10.00">/Users/jonathan/Works</text>
<text text-anchor="start" x="1405.5" y="-183.75" font-family="Helvetica,sans-Serif" font-size="10.00">/Tools/Triton/src/libtriton</text>
<text text-anchor="middle" x="1458" y="-172.5" font-family="Helvetica,sans-Serif" font-size="10.00">/arch/irBuilder.cpp</text>
</a>
</g>
</g>
<!-- Node5&#45;&gt;Node7 -->
<g id="edge6_Node000005_Node000007" class="edge">
<title>Node5&#45;&gt;Node7</title>
<g id="a_edge6_Node000005_Node000007"><a xlink:title=" ">
<path fill="none" stroke="#63b8ff" d="M1333.79,-239.76C1357.97,-229.81 1385.54,-218.46 1408.56,-208.98"/>
<polygon fill="#63b8ff" stroke="#63b8ff" points="1332.62,-236.46 1324.71,-243.5 1335.29,-242.93 1332.62,-236.46"/>
</a>
</g>
</g>
<!-- Node8&#45;&gt;Node7 -->
<g id="edge9_Node000008_Node000007" class="edge">
<title>Node8&#45;&gt;Node7</title>
<g id="a_edge9_Node000008_Node000007"><a xlink:title=" ">
<path fill="none" stroke="#63b8ff" d="M1576.5,-239.63C1553.45,-229.7 1527.21,-218.41 1505.29,-208.98"/>
<polygon fill="#63b8ff" stroke="#63b8ff" points="1574.88,-242.74 1585.44,-243.48 1577.64,-236.31 1574.88,-242.74"/>
</a>
</g>
</g>
<!-- Node9 -->
<g id="Node000009" class="node">
<title>Node9</title>
<g id="a_Node000009"><a xlink:href="arm32Semantics_8cpp.html" target="_top" xlink:title=" ">
<polygon fill="white" stroke="#666666" points="1725.25,-208.5 1542.75,-208.5 1542.75,-166.75 1725.25,-166.75 1725.25,-208.5"/>
<text text-anchor="start" x="1550.75" y="-195" font-family="Helvetica,sans-Serif" font-size="10.00">/Users/jonathan/Works</text>
<text text-anchor="start" x="1550.75" y="-183.75" font-family="Helvetica,sans-Serif" font-size="10.00">/Tools/Triton/src/libtriton</text>
<text text-anchor="middle" x="1634" y="-172.5" font-family="Helvetica,sans-Serif" font-size="10.00">/arch/arm/arm32/arm32Semantics.cpp</text>
</a>
</g>
</g>
<!-- Node8&#45;&gt;Node9 -->
<g id="edge8_Node000008_Node000009" class="edge">
<title>Node8&#45;&gt;Node9</title>
<g id="a_edge8_Node000008_Node000009"><a xlink:title=" ">
<path fill="none" stroke="#63b8ff" d="M1634,-232.75C1634,-224.71 1634,-216.29 1634,-208.98"/>
<polygon fill="#63b8ff" stroke="#63b8ff" points="1630.5,-232.56 1634,-242.56 1637.5,-232.56 1630.5,-232.56"/>
</a>
</g>
</g>
<!-- Node10&#45;&gt;Node2 -->
<g id="edge14_Node000010_Node000002" class="edge">
<title>Node10&#45;&gt;Node2</title>
<g id="a_edge14_Node000010_Node000002"><a xlink:title=" ">
<path fill="none" stroke="#63b8ff" d="M771.52,-176.28C662.13,-161.85 463.42,-135.64 340.38,-119.41"/>
<polygon fill="#63b8ff" stroke="#63b8ff" points="770.92,-179.73 781.3,-177.56 771.84,-172.79 770.92,-179.73"/>
</a>
</g>
</g>
<!-- Node11 -->
<g id="Node000011" class="node">
<title>Node11</title>
<g id="a_Node000011"><a xlink:href="pyTritonContext_8cpp.html" target="_top" xlink:title=" ">
<polygon fill="white" stroke="#666666" points="840.88,-130.75 719.12,-130.75 719.12,-77.75 840.88,-77.75 840.88,-130.75"/>
<text text-anchor="start" x="727.12" y="-117.25" font-family="Helvetica,sans-Serif" font-size="10.00">/Users/jonathan/Works</text>
<text text-anchor="start" x="727.12" y="-106" font-family="Helvetica,sans-Serif" font-size="10.00">/Tools/Triton/src/libtriton</text>
<text text-anchor="start" x="727.12" y="-94.75" font-family="Helvetica,sans-Serif" font-size="10.00">/bindings/python/objects</text>
<text text-anchor="middle" x="780" y="-83.5" font-family="Helvetica,sans-Serif" font-size="10.00">/pyTritonContext.cpp</text>
</a>
</g>
</g>
<!-- Node10&#45;&gt;Node11 -->
<g id="edge11_Node000010_Node000011" class="edge">
<title>Node10&#45;&gt;Node11</title>
<g id="a_edge11_Node000010_Node000011"><a xlink:title=" ">
<path fill="none" stroke="#63b8ff" d="M825.42,-158.05C817.84,-149.23 809.54,-139.59 802.13,-130.98"/>
<polygon fill="#63b8ff" stroke="#63b8ff" points="822.53,-160.06 831.71,-165.36 827.84,-155.5 822.53,-160.06"/>
</a>
</g>
</g>
<!-- Node12 -->
<g id="Node000012" class="node">
<title>Node12</title>
<g id="a_Node000012"><a xlink:href="callbacks_8cpp.html" target="_top" xlink:title=" ">
<polygon fill="white" stroke="#666666" points="982.62,-125.12 859.38,-125.12 859.38,-83.38 982.62,-83.38 982.62,-125.12"/>
<text text-anchor="start" x="867.38" y="-111.62" font-family="Helvetica,sans-Serif" font-size="10.00">/Users/jonathan/Works</text>
<text text-anchor="start" x="867.38" y="-100.38" font-family="Helvetica,sans-Serif" font-size="10.00">/Tools/Triton/src/libtriton</text>
<text text-anchor="middle" x="921" y="-89.12" font-family="Helvetica,sans-Serif" font-size="10.00">/callbacks/callbacks.cpp</text>
</a>
</g>
</g>
<!-- Node10&#45;&gt;Node12 -->
<g id="edge12_Node000010_Node000012" class="edge">
<title>Node10&#45;&gt;Node12</title>
<g id="a_edge12_Node000010_Node000012"><a xlink:title=" ">
<path fill="none" stroke="#63b8ff" d="M875.1,-157.86C884.45,-147.14 894.87,-135.2 903.41,-125.42"/>
<polygon fill="#63b8ff" stroke="#63b8ff" points="872.48,-155.53 868.55,-165.37 877.76,-160.14 872.48,-155.53"/>
</a>
</g>
</g>
<!-- Node13 -->
<g id="Node000013" class="node">
<title>Node13</title>
<g id="a_Node000013"><a xlink:href="context_8cpp.html" target="_top" xlink:title=" ">
<polygon fill="white" stroke="#666666" points="1121.5,-125.12 1000.5,-125.12 1000.5,-83.38 1121.5,-83.38 1121.5,-125.12"/>
<text text-anchor="start" x="1008.5" y="-111.62" font-family="Helvetica,sans-Serif" font-size="10.00">/Users/jonathan/Works</text>
<text text-anchor="start" x="1008.5" y="-100.38" font-family="Helvetica,sans-Serif" font-size="10.00">/Tools/Triton/src/libtriton</text>
<text text-anchor="middle" x="1061" y="-89.12" font-family="Helvetica,sans-Serif" font-size="10.00">/context/context.cpp</text>
</a>
</g>
</g>
<!-- Node10&#45;&gt;Node13 -->
<g id="edge13_Node000010_Node000013" class="edge">
<title>Node10&#45;&gt;Node13</title>
<g id="a_edge13_Node000010_Node000013"><a xlink:title=" ">
<path fill="none" stroke="#63b8ff" d="M913.17,-162.26C943.49,-150.57 979.4,-136.72 1008.24,-125.6"/>
<polygon fill="#63b8ff" stroke="#63b8ff" points="912.18,-158.89 904.11,-165.76 914.7,-165.42 912.18,-158.89"/>
</a>
</g>
</g>
<!-- Node14 -->
<g id="Node000014" class="node">
<title>Node14</title>
<g id="a_Node000014"><a xlink:href="llvmToTriton_8hpp.html" target="_top" xlink:title=" ">
<polygon fill="white" stroke="#666666" points="701.38,-125.12 546.62,-125.12 546.62,-83.38 701.38,-83.38 701.38,-125.12"/>
<text text-anchor="start" x="554.62" y="-111.62" font-family="Helvetica,sans-Serif" font-size="10.00">/Users/jonathan/Works</text>
<text text-anchor="start" x="554.62" y="-100.38" font-family="Helvetica,sans-Serif" font-size="10.00">/Tools/Triton/src/libtriton</text>
<text text-anchor="middle" x="624" y="-89.12" font-family="Helvetica,sans-Serif" font-size="10.00">/includes/triton/llvmToTriton.hpp</text>
</a>
</g>
</g>
<!-- Node10&#45;&gt;Node14 -->
<g id="edge15_Node000010_Node000014" class="edge">
<title>Node10&#45;&gt;Node14</title>
<g id="a_edge15_Node000010_Node000014"><a xlink:title=" ">
<path fill="none" stroke="#63b8ff" d="M782.76,-162.42C750.2,-150.69 711.53,-136.77 680.51,-125.6"/>
<polygon fill="#63b8ff" stroke="#63b8ff" points="781.54,-165.69 792.13,-165.79 783.91,-159.11 781.54,-165.69"/>
</a>
</g>
</g>
<!-- Node15 -->
<g id="Node000015" class="node">
<title>Node15</title>
<g id="a_Node000015"><a xlink:href="llvmToTriton_8cpp.html" target="_top" xlink:title=" ">
<polygon fill="white" stroke="#666666" points="607.25,-41.75 478.75,-41.75 478.75,0 607.25,0 607.25,-41.75"/>
<text text-anchor="start" x="486.75" y="-28.25" font-family="Helvetica,sans-Serif" font-size="10.00">/Users/jonathan/Works</text>
<text text-anchor="start" x="486.75" y="-17" font-family="Helvetica,sans-Serif" font-size="10.00">/Tools/Triton/src/libtriton</text>
<text text-anchor="middle" x="543" y="-5.75" font-family="Helvetica,sans-Serif" font-size="10.00">/ast/llvm/llvmToTriton.cpp</text>
</a>
</g>
</g>
<!-- Node14&#45;&gt;Node15 -->
<g id="edge16_Node000014_Node000015" class="edge">
<title>Node14&#45;&gt;Node15</title>
<g id="a_edge16_Node000014_Node000015"><a xlink:title=" ">
<path fill="none" stroke="#63b8ff" d="M596.01,-75.13C585.17,-64.24 573.01,-52.02 563.07,-42.04"/>
<polygon fill="#63b8ff" stroke="#63b8ff" points="593.37,-77.44 602.91,-82.06 598.34,-72.51 593.37,-77.44"/>
</a>
</g>
</g>
<!-- Node16 -->
<g id="Node000016" class="node">
<title>Node16</title>
<g id="a_Node000016"><a xlink:href="liftingToLLVM_8cpp.html" target="_top" xlink:title=" ">
<polygon fill="white" stroke="#666666" points="785,-41.75 625,-41.75 625,0 785,0 785,-41.75"/>
<text text-anchor="start" x="633" y="-28.25" font-family="Helvetica,sans-Serif" font-size="10.00">/Users/jonathan/Works</text>
<text text-anchor="start" x="633" y="-17" font-family="Helvetica,sans-Serif" font-size="10.00">/Tools/Triton/src/libtriton</text>
<text text-anchor="middle" x="705" y="-5.75" font-family="Helvetica,sans-Serif" font-size="10.00">/engines/lifters/liftingToLLVM.cpp</text>
</a>
</g>
</g>
<!-- Node14&#45;&gt;Node16 -->
<g id="edge17_Node000014_Node000016" class="edge">
<title>Node14&#45;&gt;Node16</title>
<g id="a_edge17_Node000014_Node000016"><a xlink:title=" ">
<path fill="none" stroke="#63b8ff" d="M651.99,-75.13C662.83,-64.24 674.99,-52.02 684.93,-42.04"/>
<polygon fill="#63b8ff" stroke="#63b8ff" points="649.66,-72.51 645.09,-82.06 654.63,-77.44 649.66,-72.51"/>
</a>
</g>
</g>
<!-- Node17&#45;&gt;Node7 -->
<g id="edge19_Node000017_Node000007" class="edge">
<title>Node17&#45;&gt;Node7</title>
<g id="a_edge19_Node000017_Node000007"><a xlink:title=" ">
<path fill="none" stroke="#63b8ff" d="M1176.51,-244.05C1267.69,-225 1293.8,-227.63 1382,-208.5 1386.93,-207.43 1392.03,-206.25 1397.13,-205.03"/>
<polygon fill="#63b8ff" stroke="#63b8ff" points="1175.9,-240.61 1166.85,-246.11 1177.35,-247.45 1175.9,-240.61"/>
</a>
</g>
</g>
<!-- Node17&#45;&gt;Node10 -->
<g id="edge20_Node000017_Node000010" class="edge">
<title>Node17&#45;&gt;Node10</title>
<g id="a_edge20_Node000017_Node000010"><a xlink:title=" ">
<path fill="none" stroke="#63b8ff" d="M1020.21,-240.82C986.94,-230.62 948.38,-218.8 916.37,-208.98"/>
<polygon fill="#63b8ff" stroke="#63b8ff" points="1018.77,-244.05 1029.36,-243.63 1020.83,-237.35 1018.77,-244.05"/>
</a>
</g>
</g>
<!-- Node18&#45;&gt;Node10 -->
<g id="edge22_Node000018_Node000010" class="edge">
<title>Node18&#45;&gt;Node10</title>
<g id="a_edge22_Node000018_Node000010"><a xlink:title=" ">
<path fill="none" stroke="#63b8ff" d="M366.79,-244.11C520.77,-218.09 690.96,-201.74 782.84,-193.94"/>
<polygon fill="#63b8ff" stroke="#63b8ff" points="366.5,-240.61 357.23,-245.74 367.67,-247.51 366.5,-240.61"/>
</a>
</g>
</g>
<!-- Node19&#45;&gt;Node18 -->
<g id="edge25_Node000019_Node000018" class="edge">
<title>Node19&#45;&gt;Node18</title>
<g id="a_edge25_Node000019_Node000018"><a xlink:title=" ">
<path fill="none" stroke="#63b8ff" d="M392.83,-317.24C370.5,-307.35 345.15,-296.12 323.95,-286.73"/>
<polygon fill="#63b8ff" stroke="#63b8ff" points="391.23,-320.36 401.79,-321.21 394.07,-313.96 391.23,-320.36"/>
</a>
</g>
</g>
<!-- Node20 -->
<g id="Node000020" class="node">
<title>Node20</title>
<g id="a_Node000020"><a xlink:href="liftingToDot_8cpp.html" target="_top" xlink:title=" ">
<polygon fill="white" stroke="#666666" points="524.5,-286.25 373.5,-286.25 373.5,-244.5 524.5,-244.5 524.5,-286.25"/>
<text text-anchor="start" x="381.5" y="-272.75" font-family="Helvetica,sans-Serif" font-size="10.00">/Users/jonathan/Works</text>
<text text-anchor="start" x="381.5" y="-261.5" font-family="Helvetica,sans-Serif" font-size="10.00">/Tools/Triton/src/libtriton</text>
<text text-anchor="middle" x="449" y="-250.25" font-family="Helvetica,sans-Serif" font-size="10.00">/engines/lifters/liftingToDot.cpp</text>
</a>
</g>
</g>
<!-- Node19&#45;&gt;Node20 -->
<g id="edge24_Node000019_Node000020" class="edge">
<title>Node19&#45;&gt;Node20</title>
<g id="a_edge24_Node000019_Node000020"><a xlink:title=" ">
<path fill="none" stroke="#63b8ff" d="M449,-310.5C449,-302.46 449,-294.04 449,-286.73"/>
<polygon fill="#63b8ff" stroke="#63b8ff" points="445.5,-310.31 449,-320.31 452.5,-310.31 445.5,-310.31"/>
</a>
</g>
</g>
<!-- Node21&#45;&gt;Node18 -->
<g id="edge28_Node000021_Node000018" class="edge">
<title>Node21&#45;&gt;Node18</title>
<g id="a_edge28_Node000021_Node000018"><a xlink:title=" ">
<path fill="none" stroke="#63b8ff" d="M531.79,-322C456.08,-305.9 435.6,-302.15 364,-286.25 361.31,-285.65 358.57,-285.04 355.8,-284.42"/>
<polygon fill="#63b8ff" stroke="#63b8ff" points="530.86,-325.38 541.37,-324.04 532.32,-318.53 530.86,-325.38"/>
</a>
</g>
</g>
<!-- Node22 -->
<g id="Node000022" class="node">
<title>Node22</title>
<g id="a_Node000022"><a xlink:href="liftingToPython_8cpp.html" target="_top" xlink:title=" ">
<polygon fill="white" stroke="#666666" points="709,-286.25 543,-286.25 543,-244.5 709,-244.5 709,-286.25"/>
<text text-anchor="start" x="551" y="-272.75" font-family="Helvetica,sans-Serif" font-size="10.00">/Users/jonathan/Works</text>
<text text-anchor="start" x="551" y="-261.5" font-family="Helvetica,sans-Serif" font-size="10.00">/Tools/Triton/src/libtriton</text>
<text text-anchor="middle" x="626" y="-250.25" font-family="Helvetica,sans-Serif" font-size="10.00">/engines/lifters/liftingToPython.cpp</text>
</a>
</g>
</g>
<!-- Node21&#45;&gt;Node22 -->
<g id="edge27_Node000021_Node000022" class="edge">
<title>Node21&#45;&gt;Node22</title>
<g id="a_edge27_Node000021_Node000022"><a xlink:title=" ">
<path fill="none" stroke="#63b8ff" d="M626,-310.5C626,-302.46 626,-294.04 626,-286.73"/>
<polygon fill="#63b8ff" stroke="#63b8ff" points="622.5,-310.31 626,-320.31 629.5,-310.31 622.5,-310.31"/>
</a>
</g>
</g>
<!-- Node23&#45;&gt;Node18 -->
<g id="edge31_Node000023_Node000018" class="edge">
<title>Node23&#45;&gt;Node18</title>
<g id="a_edge31_Node000023_Node000018"><a xlink:title=" ">
<path fill="none" stroke="#63b8ff" d="M255.3,-311.62C259.5,-303.25 263.95,-294.38 267.79,-286.73"/>
<polygon fill="#63b8ff" stroke="#63b8ff" points="252.22,-309.96 250.86,-320.47 258.47,-313.1 252.22,-309.96"/>
</a>
</g>
</g>
<!-- Node24 -->
<g id="Node000024" class="node">
<title>Node24</title>
<g id="a_Node000024"><a xlink:href="liftingToSMT_8cpp.html" target="_top" xlink:title=" ">
<polygon fill="white" stroke="#666666" points="182.38,-286.25 27.62,-286.25 27.62,-244.5 182.38,-244.5 182.38,-286.25"/>
<text text-anchor="start" x="35.62" y="-272.75" font-family="Helvetica,sans-Serif" font-size="10.00">/Users/jonathan/Works</text>
<text text-anchor="start" x="35.62" y="-261.5" font-family="Helvetica,sans-Serif" font-size="10.00">/Tools/Triton/src/libtriton</text>
<text text-anchor="middle" x="105" y="-250.25" font-family="Helvetica,sans-Serif" font-size="10.00">/engines/lifters/liftingToSMT.cpp</text>
</a>
</g>
</g>
<!-- Node23&#45;&gt;Node24 -->
<g id="edge30_Node000023_Node000024" class="edge">
<title>Node23&#45;&gt;Node24</title>
<g id="a_edge30_Node000023_Node000024"><a xlink:title=" ">
<path fill="none" stroke="#63b8ff" d="M193.97,-316.3C176.77,-306.64 157.48,-295.82 141.28,-286.73"/>
<polygon fill="#63b8ff" stroke="#63b8ff" points="192.07,-319.24 202.5,-321.08 195.49,-313.14 192.07,-319.24"/>
</a>
</g>
</g>
<!-- Node26 -->
<g id="Node000026" class="node">
<title>Node26</title>
<g id="a_Node000026"><a xlink:href="riscvSemantics_8cpp.html" target="_top" xlink:title=" ">
<polygon fill="white" stroke="#666666" points="2080.5,-208.5 1929.5,-208.5 1929.5,-166.75 2080.5,-166.75 2080.5,-208.5"/>
<text text-anchor="start" x="1937.5" y="-195" font-family="Helvetica,sans-Serif" font-size="10.00">/Users/jonathan/Works</text>
<text text-anchor="start" x="1937.5" y="-183.75" font-family="Helvetica,sans-Serif" font-size="10.00">/Tools/Triton/src/libtriton</text>
<text text-anchor="middle" x="2005" y="-172.5" font-family="Helvetica,sans-Serif" font-size="10.00">/arch/riscv/riscvSemantics.cpp</text>
</a>
</g>
</g>
<!-- Node25&#45;&gt;Node26 -->
<g id="edge33_Node000025_Node000026" class="edge">
<title>Node25&#45;&gt;Node26</title>
<g id="a_edge33_Node000025_Node000026"><a xlink:title=" ">
<path fill="none" stroke="#63b8ff" d="M2005,-232.75C2005,-224.71 2005,-216.29 2005,-208.98"/>
<polygon fill="#63b8ff" stroke="#63b8ff" points="2001.5,-232.56 2005,-242.56 2008.5,-232.56 2001.5,-232.56"/>
</a>
</g>
</g>
<!-- Node27&#45;&gt;Node10 -->
<g id="edge36_Node000027_Node000010" class="edge">
<title>Node27&#45;&gt;Node10</title>
<g id="a_edge36_Node000027_Node000010"><a xlink:title=" ">
<path fill="none" stroke="#63b8ff" d="M1015.69,-314.41C986.47,-285.82 944.99,-245.26 944,-244.5 926.83,-231.32 906.32,-218.8 888.84,-208.96"/>
<polygon fill="#63b8ff" stroke="#63b8ff" points="1012.88,-316.56 1022.48,-321.05 1017.78,-311.56 1012.88,-316.56"/>
</a>
</g>
</g>
<!-- Node28 -->
<g id="Node000028" class="node">
<title>Node28</title>
<g id="a_Node000028"><a xlink:href="synthesizer_8cpp.html" target="_top" xlink:title=" ">
<polygon fill="white" stroke="#666666" points="934.5,-286.25 765.5,-286.25 765.5,-244.5 934.5,-244.5 934.5,-286.25"/>
<text text-anchor="start" x="773.5" y="-272.75" font-family="Helvetica,sans-Serif" font-size="10.00">/Users/jonathan/Works</text>
<text text-anchor="start" x="773.5" y="-261.5" font-family="Helvetica,sans-Serif" font-size="10.00">/Tools/Triton/src/libtriton</text>
<text text-anchor="middle" x="850" y="-250.25" font-family="Helvetica,sans-Serif" font-size="10.00">/engines/synthesis/synthesizer.cpp</text>
</a>
</g>
</g>
<!-- Node27&#45;&gt;Node28 -->
<g id="edge35_Node000027_Node000028" class="edge">
<title>Node27&#45;&gt;Node28</title>
<g id="a_edge35_Node000027_Node000028"><a xlink:title=" ">
<path fill="none" stroke="#63b8ff" d="M981.3,-317.64C955.73,-307.66 926.51,-296.25 902.13,-286.73"/>
<polygon fill="#63b8ff" stroke="#63b8ff" points="980.01,-320.9 990.6,-321.27 982.56,-314.38 980.01,-320.9"/>
</a>
</g>
</g>
<!-- Node29&#45;&gt;Node5 -->
<g id="edge39_Node000029_Node000005" class="edge">
<title>Node29&#45;&gt;Node5</title>
<g id="a_edge39_Node000029_Node000005"><a xlink:title=" ">
<path fill="none" stroke="#63b8ff" d="M1352.23,-315.76C1337.15,-306.24 1320.38,-295.65 1306.25,-286.73"/>
<polygon fill="#63b8ff" stroke="#63b8ff" points="1350.24,-318.64 1360.56,-321.02 1353.97,-312.72 1350.24,-318.64"/>
</a>
</g>
</g>
<!-- Node29&#45;&gt;Node8 -->
<g id="edge40_Node000029_Node000008" class="edge">
<title>Node29&#45;&gt;Node8</title>
<g id="a_edge40_Node000029_Node000008"><a xlink:title=" ">
<path fill="none" stroke="#63b8ff" d="M1469.03,-318.44C1501.26,-308.27 1538.55,-296.5 1569.51,-286.73"/>
<polygon fill="#63b8ff" stroke="#63b8ff" points="1468.24,-315.02 1459.76,-321.37 1470.35,-321.7 1468.24,-315.02"/>
</a>
</g>
</g>
<!-- Node29&#45;&gt;Node10 -->
<g id="edge41_Node000029_Node000010" class="edge">
<title>Node29&#45;&gt;Node10</title>
<g id="a_edge41_Node000029_Node000010"><a xlink:title=" ">
<path fill="none" stroke="#63b8ff" d="M1307.52,-335.47C1213.16,-327.12 1068.98,-310.84 1020,-286.25 996.48,-274.44 999.77,-259.3 978,-244.5 956.84,-230.12 931.39,-218.1 908.77,-208.94"/>
<polygon fill="#63b8ff" stroke="#63b8ff" points="1307,-338.94 1317.26,-336.32 1307.61,-331.97 1307,-338.94"/>
</a>
</g>
</g>
<!-- Node29&#45;&gt;Node17 -->
<g id="edge42_Node000029_Node000017" class="edge">
<title>Node29&#45;&gt;Node17</title>
<g id="a_edge42_Node000029_Node000017"><a xlink:title=" ">
<path fill="none" stroke="#63b8ff" d="M1307.45,-320.23C1266.92,-309.95 1217.97,-297.51 1174,-286.25 1171.19,-285.53 1168.33,-284.8 1165.43,-284.05"/>
<polygon fill="#63b8ff" stroke="#63b8ff" points="1306.36,-323.56 1316.91,-322.62 1308.08,-316.77 1306.36,-323.56"/>
</a>
</g>
</g>
<!-- Node29&#45;&gt;Node25 -->
<g id="edge43_Node000029_Node000025" class="edge">
<title>Node29&#45;&gt;Node25</title>
<g id="a_edge43_Node000029_Node000025"><a xlink:title=" ">
<path fill="none" stroke="#63b8ff" d="M1480.67,-335.52C1583.84,-327.03 1761.14,-310.44 1912,-286.25 1914.69,-285.82 1917.42,-285.36 1920.17,-284.88"/>
<polygon fill="#63b8ff" stroke="#63b8ff" points="1480.57,-332.02 1470.89,-336.32 1481.14,-339 1480.57,-332.02"/>
</a>
</g>
</g>
<!-- Node30 -->
<g id="Node000030" class="node">
<title>Node30</title>
<g id="a_Node000030"><a xlink:href="taintEngine_8cpp.html" target="_top" xlink:title=" ">
<polygon fill="white" stroke="#666666" points="1528.5,-286.25 1383.5,-286.25 1383.5,-244.5 1528.5,-244.5 1528.5,-286.25"/>
<text text-anchor="start" x="1391.5" y="-272.75" font-family="Helvetica,sans-Serif" font-size="10.00">/Users/jonathan/Works</text>
<text text-anchor="start" x="1391.5" y="-261.5" font-family="Helvetica,sans-Serif" font-size="10.00">/Tools/Triton/src/libtriton</text>
<text text-anchor="middle" x="1456" y="-250.25" font-family="Helvetica,sans-Serif" font-size="10.00">/engines/taint/taintEngine.cpp</text>
</a>
</g>
</g>
<!-- Node29&#45;&gt;Node30 -->
<g id="edge38_Node000029_Node000030" class="edge">
<title>Node29&#45;&gt;Node30</title>
<g id="a_edge38_Node000029_Node000030"><a xlink:title=" ">
<path fill="none" stroke="#63b8ff" d="M1417.83,-313.01C1425.01,-304.24 1432.73,-294.8 1439.34,-286.73"/>
<polygon fill="#63b8ff" stroke="#63b8ff" points="1415.2,-310.7 1411.57,-320.65 1420.62,-315.13 1415.2,-310.7"/>
</a>
</g>
</g>
<!-- Node29&#45;&gt;Node31 -->
<g id="edge44_Node000029_Node000031" class="edge">
<title>Node29&#45;&gt;Node31</title>
<g id="a_edge44_Node000029_Node000031"><a xlink:title=" ">
<path fill="none" stroke="#63b8ff" d="M1480.6,-329.06C1548.81,-318.46 1646.19,-302.63 1731,-286.25 1733.51,-285.76 1736.06,-285.26 1738.64,-284.75"/>
<polygon fill="#63b8ff" stroke="#63b8ff" points="1480.33,-325.56 1470.99,-330.55 1481.41,-332.48 1480.33,-325.56"/>
</a>
</g>
</g>
<!-- Node31&#45;&gt;Node7 -->
<g id="edge45_Node000031_Node000007" class="edge">
<title>Node31&#45;&gt;Node7</title>
<g id="a_edge45_Node000031_Node000007"><a xlink:title=" ">
<path fill="none" stroke="#63b8ff" d="M1727.57,-243.85C1641.82,-226.94 1617.41,-227 1534,-208.5 1529.07,-207.41 1523.98,-206.22 1518.88,-204.98"/>
<polygon fill="#63b8ff" stroke="#63b8ff" points="1726.65,-247.24 1737.14,-245.76 1728.02,-240.37 1726.65,-247.24"/>
</a>
</g>
</g>
<!-- Node32 -->
<g id="Node000032" class="node">
<title>Node32</title>
<g id="a_Node000032"><a xlink:href="x86Semantics_8cpp.html" target="_top" xlink:title=" ">
<polygon fill="white" stroke="#666666" points="1891.25,-208.5 1750.75,-208.5 1750.75,-166.75 1891.25,-166.75 1891.25,-208.5"/>
<text text-anchor="start" x="1758.75" y="-195" font-family="Helvetica,sans-Serif" font-size="10.00">/Users/jonathan/Works</text>
<text text-anchor="start" x="1758.75" y="-183.75" font-family="Helvetica,sans-Serif" font-size="10.00">/Tools/Triton/src/libtriton</text>
<text text-anchor="middle" x="1821" y="-172.5" font-family="Helvetica,sans-Serif" font-size="10.00">/arch/x86/x86Semantics.cpp</text>
</a>
</g>
</g>
<!-- Node31&#45;&gt;Node32 -->
<g id="edge46_Node000031_Node000032" class="edge">
<title>Node31&#45;&gt;Node32</title>
<g id="a_edge46_Node000031_Node000032"><a xlink:title=" ">
<path fill="none" stroke="#63b8ff" d="M1821,-232.75C1821,-224.71 1821,-216.29 1821,-208.98"/>
<polygon fill="#63b8ff" stroke="#63b8ff" points="1817.5,-232.56 1821,-242.56 1824.5,-232.56 1817.5,-232.56"/>
</a>
</g>
</g>
</g>
</svg>
