<?xml version="1.0" encoding="UTF-8" standalone="no"?>
<!DOCTYPE svg PUBLIC "-//W3C//DTD SVG 1.1//EN"
 "http://www.w3.org/Graphics/SVG/1.1/DTD/svg11.dtd">
<!-- Generated by graphviz version 12.1.0 (20240811.2233)
 -->
<!-- Title: /Users/jonathan/Works/Tools/Triton/src/libtriton/includes/triton/symbolicEngine.hpp Pages: 1 -->
<svg width="2064pt" height="450pt"
 viewBox="0.00 0.00 2064.49 449.75" xmlns="http://www.w3.org/2000/svg" xmlns:xlink="http://www.w3.org/1999/xlink">
<g id="graph0" class="graph" transform="scale(1 1) rotate(0) translate(4 445.75)">
<title>/Users/jonathan/Works/Tools/Triton/src/libtriton/includes/triton/symbolicEngine.hpp</title>
<!-- Node1 -->
<g id="Node000001" class="node">
<title>Node1</title>
<g id="a_Node000001"><a xlink:title=" ">
<polygon fill="#999999" stroke="#666666" points="1129,-441.75 958.5,-441.75 958.5,-400 1129,-400 1129,-441.75"/>
<text text-anchor="start" x="966.5" y="-428.25" font-family="Helvetica,sans-Serif" font-size="10.00">/Users/jonathan/Works</text>
<text text-anchor="start" x="966.5" y="-417" font-family="Helvetica,sans-Serif" font-size="10.00">/Tools/Triton/src/libtriton</text>
<text text-anchor="middle" x="1043.75" y="-405.75" font-family="Helvetica,sans-Serif" font-size="10.00">/includes/triton/symbolicEngine.hpp</text>
</a>
</g>
</g>
<!-- Node2 -->
<g id="Node000002" class="node">
<title>Node2</title>
<g id="a_Node000002"><a xlink:href="symbolicEngine_8cpp.html" target="_top" xlink:title=" ">
<polygon fill="white" stroke="#666666" points="634.5,-364 449,-364 449,-322.25 634.5,-322.25 634.5,-364"/>
<text text-anchor="start" x="457" y="-350.5" font-family="Helvetica,sans-Serif" font-size="10.00">/Users/jonathan/Works</text>
<text text-anchor="start" x="457" y="-339.25" font-family="Helvetica,sans-Serif" font-size="10.00">/Tools/Triton/src/libtriton</text>
<text text-anchor="middle" x="541.75" y="-328" font-family="Helvetica,sans-Serif" font-size="10.00">/engines/symbolic/symbolicEngine.cpp</text>
</a>
</g>
</g>
<!-- Node1&#45;&gt;Node2 -->
<g id="edge1_Node000001_Node000002" class="edge">
<title>Node1&#45;&gt;Node2</title>
<g id="a_edge1_Node000001_Node000002"><a xlink:title=" ">
<path fill="none" stroke="#63b8ff" d="M947.01,-407.38C866.93,-396.74 750.26,-380.6 648.75,-364 644.18,-363.25 639.51,-362.47 634.79,-361.66"/>
<polygon fill="#63b8ff" stroke="#63b8ff" points="946.19,-410.8 956.56,-408.64 947.11,-403.86 946.19,-410.8"/>
</a>
</g>
</g>
<!-- Node3 -->
<g id="Node000003" class="node">
<title>Node3</title>
<g id="a_Node000003"><a xlink:href="aarch64Semantics_8hpp.html" target="_top" xlink:title=" ">
<polygon fill="white" stroke="#666666" points="199,-286.25 16.5,-286.25 16.5,-244.5 199,-244.5 199,-286.25"/>
<text text-anchor="start" x="24.5" y="-272.75" font-family="Helvetica,sans-Serif" font-size="10.00">/Users/jonathan/Works</text>
<text text-anchor="start" x="24.5" y="-261.5" font-family="Helvetica,sans-Serif" font-size="10.00">/Tools/Triton/src/libtriton</text>
<text text-anchor="middle" x="107.75" y="-250.25" font-family="Helvetica,sans-Serif" font-size="10.00">/includes/triton/aarch64Semantics.hpp</text>
</a>
</g>
</g>
<!-- Node1&#45;&gt;Node3 -->
<g id="edge2_Node000001_Node000003" class="edge">
<title>Node1&#45;&gt;Node3</title>
<g id="a_edge2_Node000001_Node000003"><a xlink:title=" ">
<path fill="none" stroke="#63b8ff" d="M946.98,-413.17C854.06,-405.32 721.41,-389.96 676.75,-364 656.3,-352.11 664.59,-333.43 643.75,-322.25 558.07,-276.31 304.03,-299.75 207.75,-286.25 204.95,-285.86 202.1,-285.44 199.23,-284.99"/>
<polygon fill="#63b8ff" stroke="#63b8ff" points="946.63,-416.66 956.88,-413.99 947.2,-409.68 946.63,-416.66"/>
</a>
</g>
</g>
<!-- Node6 -->
<g id="Node000006" class="node">
<title>Node6</title>
<g id="a_Node000006"><a xlink:href="arm32Semantics_8hpp.html" target="_top" xlink:title=" ">
<polygon fill="white" stroke="#666666" points="392.25,-286.25 217.25,-286.25 217.25,-244.5 392.25,-244.5 392.25,-286.25"/>
<text text-anchor="start" x="225.25" y="-272.75" font-family="Helvetica,sans-Serif" font-size="10.00">/Users/jonathan/Works</text>
<text text-anchor="start" x="225.25" y="-261.5" font-family="Helvetica,sans-Serif" font-size="10.00">/Tools/Triton/src/libtriton</text>
<text text-anchor="middle" x="304.75" y="-250.25" font-family="Helvetica,sans-Serif" font-size="10.00">/includes/triton/arm32Semantics.hpp</text>
</a>
</g>
</g>
<!-- Node1&#45;&gt;Node6 -->
<g id="edge5_Node000001_Node000006" class="edge">
<title>Node1&#45;&gt;Node6</title>
<g id="a_edge5_Node000001_Node000006"><a xlink:title=" ">
<path fill="none" stroke="#63b8ff" d="M946.95,-410.48C864.66,-401.22 753.83,-385.37 714.75,-364 692.73,-351.96 698.99,-333.86 676.75,-322.25 567.49,-265.19 523.32,-306.63 401.75,-286.25 398.78,-285.75 395.77,-285.23 392.73,-284.69"/>
<polygon fill="#63b8ff" stroke="#63b8ff" points="946.53,-413.96 956.86,-411.58 947.3,-407 946.53,-413.96"/>
</a>
</g>
</g>
<!-- Node8 -->
<g id="Node000008" class="node">
<title>Node8</title>
<g id="a_Node000008"><a xlink:href="context_8hpp.html" target="_top" xlink:title=" ">
<polygon fill="white" stroke="#666666" points="1210.62,-208.5 1076.88,-208.5 1076.88,-166.75 1210.62,-166.75 1210.62,-208.5"/>
<text text-anchor="start" x="1084.88" y="-195" font-family="Helvetica,sans-Serif" font-size="10.00">/Users/jonathan/Works</text>
<text text-anchor="start" x="1084.88" y="-183.75" font-family="Helvetica,sans-Serif" font-size="10.00">/Tools/Triton/src/libtriton</text>
<text text-anchor="middle" x="1143.75" y="-172.5" font-family="Helvetica,sans-Serif" font-size="10.00">/includes/triton/context.hpp</text>
</a>
</g>
</g>
<!-- Node1&#45;&gt;Node8 -->
<g id="edge8_Node000001_Node000008" class="edge">
<title>Node1&#45;&gt;Node8</title>
<g id="a_edge8_Node000001_Node000008"><a xlink:title=" ">
<path fill="none" stroke="#63b8ff" d="M1140.91,-417.48C1328.51,-412.17 1734.1,-397.15 1869.75,-364 1953.61,-343.51 2000.48,-358.49 2047.75,-286.25 2057.91,-270.72 2060.46,-258.02 2047.75,-244.5 2019.16,-214.09 1415.85,-195.68 1211.07,-190.29"/>
<polygon fill="#63b8ff" stroke="#63b8ff" points="1140.83,-413.98 1130.93,-417.76 1141.02,-420.98 1140.83,-413.98"/>
</a>
</g>
</g>
<!-- Node16 -->
<g id="Node000016" class="node">
<title>Node16</title>
<g id="a_Node000016"><a xlink:href="irBuilder_8hpp.html" target="_top" xlink:title=" ">
<polygon fill="white" stroke="#666666" points="1115.75,-286.25 979.75,-286.25 979.75,-244.5 1115.75,-244.5 1115.75,-286.25"/>
<text text-anchor="start" x="987.75" y="-272.75" font-family="Helvetica,sans-Serif" font-size="10.00">/Users/jonathan/Works</text>
<text text-anchor="start" x="987.75" y="-261.5" font-family="Helvetica,sans-Serif" font-size="10.00">/Tools/Triton/src/libtriton</text>
<text text-anchor="middle" x="1047.75" y="-250.25" font-family="Helvetica,sans-Serif" font-size="10.00">/includes/triton/irBuilder.hpp</text>
</a>
</g>
</g>
<!-- Node1&#45;&gt;Node16 -->
<g id="edge16_Node000001_Node000016" class="edge">
<title>Node1&#45;&gt;Node16</title>
<g id="a_edge16_Node000001_Node000016"><a xlink:title=" ">
<path fill="none" stroke="#63b8ff" d="M1044.57,-388.51C1045.36,-357.96 1046.55,-312.42 1047.23,-286.45"/>
<polygon fill="#63b8ff" stroke="#63b8ff" points="1041.07,-388.21 1044.31,-398.29 1048.07,-388.39 1041.07,-388.21"/>
</a>
</g>
</g>
<!-- Node17 -->
<g id="Node000017" class="node">
<title>Node17</title>
<g id="a_Node000017"><a xlink:href="liftingEngine_8hpp.html" target="_top" xlink:title=" ">
<polygon fill="white" stroke="#666666" points="1683.12,-286.25 1528.38,-286.25 1528.38,-244.5 1683.12,-244.5 1683.12,-286.25"/>
<text text-anchor="start" x="1536.38" y="-272.75" font-family="Helvetica,sans-Serif" font-size="10.00">/Users/jonathan/Works</text>
<text text-anchor="start" x="1536.38" y="-261.5" font-family="Helvetica,sans-Serif" font-size="10.00">/Tools/Triton/src/libtriton</text>
<text text-anchor="middle" x="1605.75" y="-250.25" font-family="Helvetica,sans-Serif" font-size="10.00">/includes/triton/liftingEngine.hpp</text>
</a>
</g>
</g>
<!-- Node1&#45;&gt;Node17 -->
<g id="edge19_Node000001_Node000017" class="edge">
<title>Node1&#45;&gt;Node17</title>
<g id="a_edge19_Node000001_Node000017"><a xlink:title=" ">
<path fill="none" stroke="#63b8ff" d="M1140.78,-415.08C1249.9,-408.35 1419.24,-393.46 1475.75,-364 1498,-352.4 1494.38,-338.2 1513.75,-322.25 1530.05,-308.82 1549.88,-296.36 1566.96,-286.63"/>
<polygon fill="#63b8ff" stroke="#63b8ff" points="1140.72,-411.58 1130.94,-415.67 1141.14,-418.57 1140.72,-411.58"/>
</a>
</g>
</g>
<!-- Node18 -->
<g id="Node000018" class="node">
<title>Node18</title>
<g id="a_Node000018"><a xlink:href="liftingToDot_8hpp.html" target="_top" xlink:title=" ">
<polygon fill="white" stroke="#666666" points="1466.25,-364 1315.25,-364 1315.25,-322.25 1466.25,-322.25 1466.25,-364"/>
<text text-anchor="start" x="1323.25" y="-350.5" font-family="Helvetica,sans-Serif" font-size="10.00">/Users/jonathan/Works</text>
<text text-anchor="start" x="1323.25" y="-339.25" font-family="Helvetica,sans-Serif" font-size="10.00">/Tools/Triton/src/libtriton</text>
<text text-anchor="middle" x="1390.75" y="-328" font-family="Helvetica,sans-Serif" font-size="10.00">/includes/triton/liftingToDot.hpp</text>
</a>
</g>
</g>
<!-- Node1&#45;&gt;Node18 -->
<g id="edge21_Node000001_Node000018" class="edge">
<title>Node1&#45;&gt;Node18</title>
<g id="a_edge21_Node000001_Node000018"><a xlink:title=" ">
<path fill="none" stroke="#63b8ff" d="M1140.29,-398.8C1195.44,-386.76 1263.62,-371.88 1314.91,-360.68"/>
<polygon fill="#63b8ff" stroke="#63b8ff" points="1139.58,-395.37 1130.56,-400.92 1141.08,-402.21 1139.58,-395.37"/>
</a>
</g>
</g>
<!-- Node20 -->
<g id="Node000020" class="node">
<title>Node20</title>
<g id="a_Node000020"><a xlink:href="liftingToPython_8hpp.html" target="_top" xlink:title=" ">
<polygon fill="white" stroke="#666666" points="1688.75,-364 1522.75,-364 1522.75,-322.25 1688.75,-322.25 1688.75,-364"/>
<text text-anchor="start" x="1530.75" y="-350.5" font-family="Helvetica,sans-Serif" font-size="10.00">/Users/jonathan/Works</text>
<text text-anchor="start" x="1530.75" y="-339.25" font-family="Helvetica,sans-Serif" font-size="10.00">/Tools/Triton/src/libtriton</text>
<text text-anchor="middle" x="1605.75" y="-328" font-family="Helvetica,sans-Serif" font-size="10.00">/includes/triton/liftingToPython.hpp</text>
</a>
</g>
</g>
<!-- Node1&#45;&gt;Node20 -->
<g id="edge24_Node000001_Node000020" class="edge">
<title>Node1&#45;&gt;Node20</title>
<g id="a_edge24_Node000001_Node000020"><a xlink:title=" ">
<path fill="none" stroke="#63b8ff" d="M1140.55,-410.59C1234.84,-401 1382.07,-384.55 1508.75,-364 1513.25,-363.27 1517.85,-362.48 1522.49,-361.65"/>
<polygon fill="#63b8ff" stroke="#63b8ff" points="1140.43,-407.09 1130.83,-411.58 1141.13,-414.05 1140.43,-407.09"/>
</a>
</g>
</g>
<!-- Node22 -->
<g id="Node000022" class="node">
<title>Node22</title>
<g id="a_Node000022"><a xlink:href="liftingToSMT_8hpp.html" target="_top" xlink:title=" ">
<polygon fill="white" stroke="#666666" points="1861.12,-364 1706.38,-364 1706.38,-322.25 1861.12,-322.25 1861.12,-364"/>
<text text-anchor="start" x="1714.38" y="-350.5" font-family="Helvetica,sans-Serif" font-size="10.00">/Users/jonathan/Works</text>
<text text-anchor="start" x="1714.38" y="-339.25" font-family="Helvetica,sans-Serif" font-size="10.00">/Tools/Triton/src/libtriton</text>
<text text-anchor="middle" x="1783.75" y="-328" font-family="Helvetica,sans-Serif" font-size="10.00">/includes/triton/liftingToSMT.hpp</text>
</a>
</g>
</g>
<!-- Node1&#45;&gt;Node22 -->
<g id="edge27_Node000001_Node000022" class="edge">
<title>Node1&#45;&gt;Node22</title>
<g id="a_edge27_Node000001_Node000022"><a xlink:title=" ">
<path fill="none" stroke="#63b8ff" d="M1140.71,-415.89C1268.85,-409.65 1501.34,-394.93 1697.75,-364 1700.47,-363.57 1703.24,-363.1 1706.03,-362.61"/>
<polygon fill="#63b8ff" stroke="#63b8ff" points="1140.73,-412.39 1130.91,-416.36 1141.06,-419.38 1140.73,-412.39"/>
</a>
</g>
</g>
<!-- Node24 -->
<g id="Node000024" class="node">
<title>Node24</title>
<g id="a_Node000024"><a xlink:href="riscvSemantics_8hpp.html" target="_top" xlink:title=" ">
<polygon fill="white" stroke="#666666" points="579.25,-286.25 410.25,-286.25 410.25,-244.5 579.25,-244.5 579.25,-286.25"/>
<text text-anchor="start" x="418.25" y="-272.75" font-family="Helvetica,sans-Serif" font-size="10.00">/Users/jonathan/Works</text>
<text text-anchor="start" x="418.25" y="-261.5" font-family="Helvetica,sans-Serif" font-size="10.00">/Tools/Triton/src/libtriton</text>
<text text-anchor="middle" x="494.75" y="-250.25" font-family="Helvetica,sans-Serif" font-size="10.00">/includes/triton/riscvSemantics.hpp</text>
</a>
</g>
</g>
<!-- Node1&#45;&gt;Node24 -->
<g id="edge30_Node000001_Node000024" class="edge">
<title>Node1&#45;&gt;Node24</title>
<g id="a_edge30_Node000001_Node000024"><a xlink:title=" ">
<path fill="none" stroke="#63b8ff" d="M946.87,-414.79C889.22,-408.47 816.17,-394.55 757.75,-364 734.14,-351.66 738,-335.25 714.75,-322.25 702.54,-315.42 636.18,-298.98 579.51,-285.69"/>
<polygon fill="#63b8ff" stroke="#63b8ff" points="946.38,-418.25 956.68,-415.79 947.09,-411.29 946.38,-418.25"/>
</a>
</g>
</g>
<!-- Node26 -->
<g id="Node000026" class="node">
<title>Node26</title>
<g id="a_Node000026"><a xlink:href="synthesizer_8hpp.html" target="_top" xlink:title=" ">
<polygon fill="white" stroke="#666666" points="1223.25,-364 1072.25,-364 1072.25,-322.25 1223.25,-322.25 1223.25,-364"/>
<text text-anchor="start" x="1080.25" y="-350.5" font-family="Helvetica,sans-Serif" font-size="10.00">/Users/jonathan/Works</text>
<text text-anchor="start" x="1080.25" y="-339.25" font-family="Helvetica,sans-Serif" font-size="10.00">/Tools/Triton/src/libtriton</text>
<text text-anchor="middle" x="1147.75" y="-328" font-family="Helvetica,sans-Serif" font-size="10.00">/includes/triton/synthesizer.hpp</text>
</a>
</g>
</g>
<!-- Node1&#45;&gt;Node26 -->
<g id="edge33_Node000001_Node000026" class="edge">
<title>Node1&#45;&gt;Node26</title>
<g id="a_edge33_Node000001_Node000026"><a xlink:title=" ">
<path fill="none" stroke="#63b8ff" d="M1080.7,-392.96C1093.57,-383.59 1107.79,-373.23 1119.8,-364.48"/>
<polygon fill="#63b8ff" stroke="#63b8ff" points="1078.87,-389.97 1072.84,-398.68 1082.99,-395.63 1078.87,-389.97"/>
</a>
</g>
</g>
<!-- Node28 -->
<g id="Node000028" class="node">
<title>Node28</title>
<g id="a_Node000028"><a xlink:href="taintEngine_8hpp.html" target="_top" xlink:title=" ">
<polygon fill="white" stroke="#666666" points="916.88,-364 766.62,-364 766.62,-322.25 916.88,-322.25 916.88,-364"/>
<text text-anchor="start" x="774.62" y="-350.5" font-family="Helvetica,sans-Serif" font-size="10.00">/Users/jonathan/Works</text>
<text text-anchor="start" x="774.62" y="-339.25" font-family="Helvetica,sans-Serif" font-size="10.00">/Tools/Triton/src/libtriton</text>
<text text-anchor="middle" x="841.75" y="-328" font-family="Helvetica,sans-Serif" font-size="10.00">/includes/triton/taintEngine.hpp</text>
</a>
</g>
</g>
<!-- Node1&#45;&gt;Node28 -->
<g id="edge36_Node000001_Node000028" class="edge">
<title>Node1&#45;&gt;Node28</title>
<g id="a_edge36_Node000001_Node000028"><a xlink:title=" ">
<path fill="none" stroke="#63b8ff" d="M979.18,-395.66C952.38,-385.61 921.64,-374.08 896.03,-364.48"/>
<polygon fill="#63b8ff" stroke="#63b8ff" points="977.61,-398.81 988.2,-399.04 980.07,-392.26 977.61,-398.81"/>
</a>
</g>
</g>
<!-- Node30 -->
<g id="Node000030" class="node">
<title>Node30</title>
<g id="a_Node000030"><a xlink:href="x86Semantics_8hpp.html" target="_top" xlink:title=" ">
<polygon fill="white" stroke="#666666" points="923.62,-286.25 759.88,-286.25 759.88,-244.5 923.62,-244.5 923.62,-286.25"/>
<text text-anchor="start" x="767.88" y="-272.75" font-family="Helvetica,sans-Serif" font-size="10.00">/Users/jonathan/Works</text>
<text text-anchor="start" x="767.88" y="-261.5" font-family="Helvetica,sans-Serif" font-size="10.00">/Tools/Triton/src/libtriton</text>
<text text-anchor="middle" x="841.75" y="-250.25" font-family="Helvetica,sans-Serif" font-size="10.00">/includes/triton/x86Semantics.hpp</text>
</a>
</g>
</g>
<!-- Node1&#45;&gt;Node30 -->
<g id="edge46_Node000001_Node000030" class="edge">
<title>Node1&#45;&gt;Node30</title>
<g id="a_edge46_Node000001_Node000030"><a xlink:title=" ">
<path fill="none" stroke="#63b8ff" d="M1012.36,-392.38C988.99,-372.29 956.03,-344.75 925.75,-322.25 909.02,-309.82 889.69,-296.87 873.8,-286.57"/>
<polygon fill="#63b8ff" stroke="#63b8ff" points="1009.82,-394.81 1019.67,-398.7 1014.39,-389.52 1009.82,-394.81"/>
</a>
</g>
</g>
<!-- Node4 -->
<g id="Node000004" class="node">
<title>Node4</title>
<g id="a_Node000004"><a xlink:href="aarch64Semantics_8cpp.html" target="_top" xlink:title=" ">
<polygon fill="white" stroke="#666666" points="197.5,-208.5 0,-208.5 0,-166.75 197.5,-166.75 197.5,-208.5"/>
<text text-anchor="start" x="8" y="-195" font-family="Helvetica,sans-Serif" font-size="10.00">/Users/jonathan/Works</text>
<text text-anchor="start" x="8" y="-183.75" font-family="Helvetica,sans-Serif" font-size="10.00">/Tools/Triton/src/libtriton</text>
<text text-anchor="middle" x="98.75" y="-172.5" font-family="Helvetica,sans-Serif" font-size="10.00">/arch/arm/aarch64/aarch64Semantics.cpp</text>
</a>
</g>
</g>
<!-- Node3&#45;&gt;Node4 -->
<g id="edge3_Node000003_Node000004" class="edge">
<title>Node3&#45;&gt;Node4</title>
<g id="a_edge3_Node000003_Node000004"><a xlink:title=" ">
<path fill="none" stroke="#63b8ff" d="M103.99,-232.75C103.04,-224.71 102.04,-216.29 101.17,-208.98"/>
<polygon fill="#63b8ff" stroke="#63b8ff" points="100.5,-233.06 105.16,-242.57 107.46,-232.23 100.5,-233.06"/>
</a>
</g>
</g>
<!-- Node5 -->
<g id="Node000005" class="node">
<title>Node5</title>
<g id="a_Node000005"><a xlink:href="irBuilder_8cpp.html" target="_top" xlink:title=" ">
<polygon fill="white" stroke="#666666" points="708.25,-208.5 587.25,-208.5 587.25,-166.75 708.25,-166.75 708.25,-208.5"/>
<text text-anchor="start" x="595.25" y="-195" font-family="Helvetica,sans-Serif" font-size="10.00">/Users/jonathan/Works</text>
<text text-anchor="start" x="595.25" y="-183.75" font-family="Helvetica,sans-Serif" font-size="10.00">/Tools/Triton/src/libtriton</text>
<text text-anchor="middle" x="647.75" y="-172.5" font-family="Helvetica,sans-Serif" font-size="10.00">/arch/irBuilder.cpp</text>
</a>
</g>
</g>
<!-- Node3&#45;&gt;Node5 -->
<g id="edge4_Node000003_Node000005" class="edge">
<title>Node3&#45;&gt;Node5</title>
<g id="a_edge4_Node000003_Node000005"><a xlink:title=" ">
<path fill="none" stroke="#63b8ff" d="M210.18,-244.23C373.6,-221.13 419.52,-238.89 578.75,-208.5 581.44,-207.99 584.18,-207.41 586.94,-206.8"/>
<polygon fill="#63b8ff" stroke="#63b8ff" points="210.13,-240.7 200.74,-245.6 211.14,-247.63 210.13,-240.7"/>
</a>
</g>
</g>
<!-- Node6&#45;&gt;Node5 -->
<g id="edge7_Node000006_Node000005" class="edge">
<title>Node6&#45;&gt;Node5</title>
<g id="a_edge7_Node000006_Node000005"><a xlink:title=" ">
<path fill="none" stroke="#63b8ff" d="M403.48,-244.16C482.26,-228.34 504.13,-226.8 578.75,-208.5 581.41,-207.85 584.13,-207.16 586.87,-206.45"/>
<polygon fill="#63b8ff" stroke="#63b8ff" points="403.11,-240.67 394,-246.09 404.5,-247.53 403.11,-240.67"/>
</a>
</g>
</g>
<!-- Node7 -->
<g id="Node000007" class="node">
<title>Node7</title>
<g id="a_Node000007"><a xlink:href="arm32Semantics_8cpp.html" target="_top" xlink:title=" ">
<polygon fill="white" stroke="#666666" points="398,-208.5 215.5,-208.5 215.5,-166.75 398,-166.75 398,-208.5"/>
<text text-anchor="start" x="223.5" y="-195" font-family="Helvetica,sans-Serif" font-size="10.00">/Users/jonathan/Works</text>
<text text-anchor="start" x="223.5" y="-183.75" font-family="Helvetica,sans-Serif" font-size="10.00">/Tools/Triton/src/libtriton</text>
<text text-anchor="middle" x="306.75" y="-172.5" font-family="Helvetica,sans-Serif" font-size="10.00">/arch/arm/arm32/arm32Semantics.cpp</text>
</a>
</g>
</g>
<!-- Node6&#45;&gt;Node7 -->
<g id="edge6_Node000006_Node000007" class="edge">
<title>Node6&#45;&gt;Node7</title>
<g id="a_edge6_Node000006_Node000007"><a xlink:title=" ">
<path fill="none" stroke="#63b8ff" d="M305.58,-232.75C305.8,-224.71 306.02,-216.29 306.21,-208.98"/>
<polygon fill="#63b8ff" stroke="#63b8ff" points="302.09,-232.47 305.33,-242.56 309.09,-232.66 302.09,-232.47"/>
</a>
</g>
</g>
<!-- Node9 -->
<g id="Node000009" class="node">
<title>Node9</title>
<g id="a_Node000009"><a xlink:href="pyTritonContext_8cpp.html" target="_top" xlink:title=" ">
<polygon fill="white" stroke="#666666" points="923.62,-130.75 801.88,-130.75 801.88,-77.75 923.62,-77.75 923.62,-130.75"/>
<text text-anchor="start" x="809.88" y="-117.25" font-family="Helvetica,sans-Serif" font-size="10.00">/Users/jonathan/Works</text>
<text text-anchor="start" x="809.88" y="-106" font-family="Helvetica,sans-Serif" font-size="10.00">/Tools/Triton/src/libtriton</text>
<text text-anchor="start" x="809.88" y="-94.75" font-family="Helvetica,sans-Serif" font-size="10.00">/bindings/python/objects</text>
<text text-anchor="middle" x="862.75" y="-83.5" font-family="Helvetica,sans-Serif" font-size="10.00">/pyTritonContext.cpp</text>
</a>
</g>
</g>
<!-- Node8&#45;&gt;Node9 -->
<g id="edge9_Node000008_Node000009" class="edge">
<title>Node8&#45;&gt;Node9</title>
<g id="a_edge9_Node000008_Node000009"><a xlink:title=" ">
<path fill="none" stroke="#63b8ff" d="M1065.76,-167.77C1025.75,-157.64 976.37,-144.44 932.75,-130.75 929.91,-129.86 927.02,-128.92 924.1,-127.96"/>
<polygon fill="#63b8ff" stroke="#63b8ff" points="1064.77,-171.12 1075.32,-170.17 1066.47,-164.34 1064.77,-171.12"/>
</a>
</g>
</g>
<!-- Node10 -->
<g id="Node000010" class="node">
<title>Node10</title>
<g id="a_Node000010"><a xlink:href="callbacks_8cpp.html" target="_top" xlink:title=" ">
<polygon fill="white" stroke="#666666" points="1065.38,-125.12 942.12,-125.12 942.12,-83.38 1065.38,-83.38 1065.38,-125.12"/>
<text text-anchor="start" x="950.12" y="-111.62" font-family="Helvetica,sans-Serif" font-size="10.00">/Users/jonathan/Works</text>
<text text-anchor="start" x="950.12" y="-100.38" font-family="Helvetica,sans-Serif" font-size="10.00">/Tools/Triton/src/libtriton</text>
<text text-anchor="middle" x="1003.75" y="-89.12" font-family="Helvetica,sans-Serif" font-size="10.00">/callbacks/callbacks.cpp</text>
</a>
</g>
</g>
<!-- Node8&#45;&gt;Node10 -->
<g id="edge10_Node000008_Node000010" class="edge">
<title>Node8&#45;&gt;Node10</title>
<g id="a_edge10_Node000008_Node000010"><a xlink:title=" ">
<path fill="none" stroke="#63b8ff" d="M1098.91,-160.56C1079.44,-149.24 1056.97,-136.18 1038.76,-125.6"/>
<polygon fill="#63b8ff" stroke="#63b8ff" points="1097.07,-163.54 1107.47,-165.54 1100.59,-157.49 1097.07,-163.54"/>
</a>
</g>
</g>
<!-- Node11 -->
<g id="Node000011" class="node">
<title>Node11</title>
<g id="a_Node000011"><a xlink:href="context_8cpp.html" target="_top" xlink:title=" ">
<polygon fill="white" stroke="#666666" points="1204.25,-125.12 1083.25,-125.12 1083.25,-83.38 1204.25,-83.38 1204.25,-125.12"/>
<text text-anchor="start" x="1091.25" y="-111.62" font-family="Helvetica,sans-Serif" font-size="10.00">/Users/jonathan/Works</text>
<text text-anchor="start" x="1091.25" y="-100.38" font-family="Helvetica,sans-Serif" font-size="10.00">/Tools/Triton/src/libtriton</text>
<text text-anchor="middle" x="1143.75" y="-89.12" font-family="Helvetica,sans-Serif" font-size="10.00">/context/context.cpp</text>
</a>
</g>
</g>
<!-- Node8&#45;&gt;Node11 -->
<g id="edge11_Node000008_Node000011" class="edge">
<title>Node8&#45;&gt;Node11</title>
<g id="a_edge11_Node000008_Node000011"><a xlink:title=" ">
<path fill="none" stroke="#63b8ff" d="M1143.75,-155.27C1143.75,-145.24 1143.75,-134.42 1143.75,-125.42"/>
<polygon fill="#63b8ff" stroke="#63b8ff" points="1140.25,-155 1143.75,-165 1147.25,-155 1140.25,-155"/>
</a>
</g>
</g>
<!-- Node12 -->
<g id="Node000012" class="node">
<title>Node12</title>
<g id="a_Node000012"><a xlink:href="symbolicSimplification_8cpp.html" target="_top" xlink:title=" ">
<polygon fill="white" stroke="#666666" points="1436.75,-125.12 1222.75,-125.12 1222.75,-83.38 1436.75,-83.38 1436.75,-125.12"/>
<text text-anchor="start" x="1230.75" y="-111.62" font-family="Helvetica,sans-Serif" font-size="10.00">/Users/jonathan/Works</text>
<text text-anchor="start" x="1230.75" y="-100.38" font-family="Helvetica,sans-Serif" font-size="10.00">/Tools/Triton/src/libtriton</text>
<text text-anchor="middle" x="1329.75" y="-89.12" font-family="Helvetica,sans-Serif" font-size="10.00">/engines/symbolic/symbolicSimplification.cpp</text>
</a>
</g>
</g>
<!-- Node8&#45;&gt;Node12 -->
<g id="edge12_Node000008_Node000012" class="edge">
<title>Node8&#45;&gt;Node12</title>
<g id="a_edge12_Node000008_Node000012"><a xlink:title=" ">
<path fill="none" stroke="#63b8ff" d="M1200.49,-161.8C1226.99,-150.21 1258.16,-136.57 1283.24,-125.6"/>
<polygon fill="#63b8ff" stroke="#63b8ff" points="1199.35,-158.48 1191.59,-165.69 1202.16,-164.89 1199.35,-158.48"/>
</a>
</g>
</g>
<!-- Node13 -->
<g id="Node000013" class="node">
<title>Node13</title>
<g id="a_Node000013"><a xlink:href="llvmToTriton_8hpp.html" target="_top" xlink:title=" ">
<polygon fill="white" stroke="#666666" points="1609.12,-125.12 1454.38,-125.12 1454.38,-83.38 1609.12,-83.38 1609.12,-125.12"/>
<text text-anchor="start" x="1462.38" y="-111.62" font-family="Helvetica,sans-Serif" font-size="10.00">/Users/jonathan/Works</text>
<text text-anchor="start" x="1462.38" y="-100.38" font-family="Helvetica,sans-Serif" font-size="10.00">/Tools/Triton/src/libtriton</text>
<text text-anchor="middle" x="1531.75" y="-89.12" font-family="Helvetica,sans-Serif" font-size="10.00">/includes/triton/llvmToTriton.hpp</text>
</a>
</g>
</g>
<!-- Node8&#45;&gt;Node13 -->
<g id="edge13_Node000008_Node000013" class="edge">
<title>Node8&#45;&gt;Node13</title>
<g id="a_edge13_Node000008_Node000013"><a xlink:title=" ">
<path fill="none" stroke="#63b8ff" d="M1222.17,-174.44C1283.42,-164.37 1370.46,-148.82 1445.75,-130.75 1452.26,-129.19 1459.01,-127.43 1465.74,-125.59"/>
<polygon fill="#63b8ff" stroke="#63b8ff" points="1221.85,-170.95 1212.54,-176.02 1222.98,-177.86 1221.85,-170.95"/>
</a>
</g>
</g>
<!-- Node14 -->
<g id="Node000014" class="node">
<title>Node14</title>
<g id="a_Node000014"><a xlink:href="llvmToTriton_8cpp.html" target="_top" xlink:title=" ">
<polygon fill="white" stroke="#666666" points="1515,-41.75 1386.5,-41.75 1386.5,0 1515,0 1515,-41.75"/>
<text text-anchor="start" x="1394.5" y="-28.25" font-family="Helvetica,sans-Serif" font-size="10.00">/Users/jonathan/Works</text>
<text text-anchor="start" x="1394.5" y="-17" font-family="Helvetica,sans-Serif" font-size="10.00">/Tools/Triton/src/libtriton</text>
<text text-anchor="middle" x="1450.75" y="-5.75" font-family="Helvetica,sans-Serif" font-size="10.00">/ast/llvm/llvmToTriton.cpp</text>
</a>
</g>
</g>
<!-- Node13&#45;&gt;Node14 -->
<g id="edge14_Node000013_Node000014" class="edge">
<title>Node13&#45;&gt;Node14</title>
<g id="a_edge14_Node000013_Node000014"><a xlink:title=" ">
<path fill="none" stroke="#63b8ff" d="M1503.76,-75.13C1492.92,-64.24 1480.76,-52.02 1470.82,-42.04"/>
<polygon fill="#63b8ff" stroke="#63b8ff" points="1501.12,-77.44 1510.66,-82.06 1506.09,-72.51 1501.12,-77.44"/>
</a>
</g>
</g>
<!-- Node15 -->
<g id="Node000015" class="node">
<title>Node15</title>
<g id="a_Node000015"><a xlink:href="liftingToLLVM_8cpp.html" target="_top" xlink:title=" ">
<polygon fill="white" stroke="#666666" points="1692.75,-41.75 1532.75,-41.75 1532.75,0 1692.75,0 1692.75,-41.75"/>
<text text-anchor="start" x="1540.75" y="-28.25" font-family="Helvetica,sans-Serif" font-size="10.00">/Users/jonathan/Works</text>
<text text-anchor="start" x="1540.75" y="-17" font-family="Helvetica,sans-Serif" font-size="10.00">/Tools/Triton/src/libtriton</text>
<text text-anchor="middle" x="1612.75" y="-5.75" font-family="Helvetica,sans-Serif" font-size="10.00">/engines/lifters/liftingToLLVM.cpp</text>
</a>
</g>
</g>
<!-- Node13&#45;&gt;Node15 -->
<g id="edge15_Node000013_Node000015" class="edge">
<title>Node13&#45;&gt;Node15</title>
<g id="a_edge15_Node000013_Node000015"><a xlink:title=" ">
<path fill="none" stroke="#63b8ff" d="M1559.74,-75.13C1570.58,-64.24 1582.74,-52.02 1592.68,-42.04"/>
<polygon fill="#63b8ff" stroke="#63b8ff" points="1557.41,-72.51 1552.84,-82.06 1562.38,-77.44 1557.41,-72.51"/>
</a>
</g>
</g>
<!-- Node16&#45;&gt;Node5 -->
<g id="edge17_Node000016_Node000005" class="edge">
<title>Node16&#45;&gt;Node5</title>
<g id="a_edge17_Node000016_Node000005"><a xlink:title=" ">
<path fill="none" stroke="#63b8ff" d="M968.45,-249.36C892.04,-234.89 778.07,-213.3 708.57,-200.14"/>
<polygon fill="#63b8ff" stroke="#63b8ff" points="967.48,-252.74 977.95,-251.16 968.78,-245.86 967.48,-252.74"/>
</a>
</g>
</g>
<!-- Node16&#45;&gt;Node8 -->
<g id="edge18_Node000016_Node000008" class="edge">
<title>Node16&#45;&gt;Node8</title>
<g id="a_edge18_Node000016_Node000008"><a xlink:title=" ">
<path fill="none" stroke="#63b8ff" d="M1082.21,-237.19C1093.99,-227.89 1106.97,-217.65 1117.95,-208.98"/>
<polygon fill="#63b8ff" stroke="#63b8ff" points="1080.35,-234.2 1074.66,-243.14 1084.68,-239.69 1080.35,-234.2"/>
</a>
</g>
</g>
<!-- Node17&#45;&gt;Node8 -->
<g id="edge20_Node000017_Node000008" class="edge">
<title>Node17&#45;&gt;Node8</title>
<g id="a_edge20_Node000017_Node000008"><a xlink:title=" ">
<path fill="none" stroke="#63b8ff" d="M1516.78,-244C1404.21,-223.01 1283.92,-206.4 1210.92,-196.97"/>
<polygon fill="#63b8ff" stroke="#63b8ff" points="1516.03,-247.42 1526.51,-245.83 1517.33,-240.54 1516.03,-247.42"/>
</a>
</g>
</g>
<!-- Node18&#45;&gt;Node17 -->
<g id="edge23_Node000018_Node000017" class="edge">
<title>Node18&#45;&gt;Node17</title>
<g id="a_edge23_Node000018_Node000017"><a xlink:title=" ">
<path fill="none" stroke="#63b8ff" d="M1459.1,-318.04C1487.71,-307.96 1520.6,-296.38 1547.97,-286.73"/>
<polygon fill="#63b8ff" stroke="#63b8ff" points="1458.06,-314.7 1449.79,-321.32 1460.39,-321.3 1458.06,-314.7"/>
</a>
</g>
</g>
<!-- Node19 -->
<g id="Node000019" class="node">
<title>Node19</title>
<g id="a_Node000019"><a xlink:href="liftingToDot_8cpp.html" target="_top" xlink:title=" ">
<polygon fill="white" stroke="#666666" points="1510.25,-286.25 1359.25,-286.25 1359.25,-244.5 1510.25,-244.5 1510.25,-286.25"/>
<text text-anchor="start" x="1367.25" y="-272.75" font-family="Helvetica,sans-Serif" font-size="10.00">/Users/jonathan/Works</text>
<text text-anchor="start" x="1367.25" y="-261.5" font-family="Helvetica,sans-Serif" font-size="10.00">/Tools/Triton/src/libtriton</text>
<text text-anchor="middle" x="1434.75" y="-250.25" font-family="Helvetica,sans-Serif" font-size="10.00">/engines/lifters/liftingToDot.cpp</text>
</a>
</g>
</g>
<!-- Node18&#45;&gt;Node19 -->
<g id="edge22_Node000018_Node000019" class="edge">
<title>Node18&#45;&gt;Node19</title>
<g id="a_edge22_Node000018_Node000019"><a xlink:title=" ">
<path fill="none" stroke="#63b8ff" d="M1408.31,-311.9C1413.22,-303.45 1418.43,-294.46 1422.93,-286.73"/>
<polygon fill="#63b8ff" stroke="#63b8ff" points="1405.3,-310.11 1403.3,-320.52 1411.35,-313.63 1405.3,-310.11"/>
</a>
</g>
</g>
<!-- Node20&#45;&gt;Node17 -->
<g id="edge26_Node000020_Node000017" class="edge">
<title>Node20&#45;&gt;Node17</title>
<g id="a_edge26_Node000020_Node000017"><a xlink:title=" ">
<path fill="none" stroke="#63b8ff" d="M1605.75,-310.5C1605.75,-302.46 1605.75,-294.04 1605.75,-286.73"/>
<polygon fill="#63b8ff" stroke="#63b8ff" points="1602.25,-310.31 1605.75,-320.31 1609.25,-310.31 1602.25,-310.31"/>
</a>
</g>
</g>
<!-- Node21 -->
<g id="Node000021" class="node">
<title>Node21</title>
<g id="a_Node000021"><a xlink:href="liftingToPython_8cpp.html" target="_top" xlink:title=" ">
<polygon fill="white" stroke="#666666" points="1866.75,-286.25 1700.75,-286.25 1700.75,-244.5 1866.75,-244.5 1866.75,-286.25"/>
<text text-anchor="start" x="1708.75" y="-272.75" font-family="Helvetica,sans-Serif" font-size="10.00">/Users/jonathan/Works</text>
<text text-anchor="start" x="1708.75" y="-261.5" font-family="Helvetica,sans-Serif" font-size="10.00">/Tools/Triton/src/libtriton</text>
<text text-anchor="middle" x="1783.75" y="-250.25" font-family="Helvetica,sans-Serif" font-size="10.00">/engines/lifters/liftingToPython.cpp</text>
</a>
</g>
</g>
<!-- Node20&#45;&gt;Node21 -->
<g id="edge25_Node000020_Node000021" class="edge">
<title>Node20&#45;&gt;Node21</title>
<g id="a_edge25_Node000020_Node000021"><a xlink:title=" ">
<path fill="none" stroke="#63b8ff" d="M1663.91,-317.38C1687.22,-307.45 1713.75,-296.16 1735.92,-286.73"/>
<polygon fill="#63b8ff" stroke="#63b8ff" points="1662.67,-314.1 1654.84,-321.23 1665.42,-320.54 1662.67,-314.1"/>
</a>
</g>
</g>
<!-- Node22&#45;&gt;Node17 -->
<g id="edge29_Node000022_Node000017" class="edge">
<title>Node22&#45;&gt;Node17</title>
<g id="a_edge29_Node000022_Node000017"><a xlink:title=" ">
<path fill="none" stroke="#63b8ff" d="M1725.59,-317.38C1702.28,-307.45 1675.75,-296.16 1653.58,-286.73"/>
<polygon fill="#63b8ff" stroke="#63b8ff" points="1724.08,-320.54 1734.66,-321.23 1726.83,-314.1 1724.08,-320.54"/>
</a>
</g>
</g>
<!-- Node23 -->
<g id="Node000023" class="node">
<title>Node23</title>
<g id="a_Node000023"><a xlink:href="liftingToSMT_8cpp.html" target="_top" xlink:title=" ">
<polygon fill="white" stroke="#666666" points="2039.12,-286.25 1884.38,-286.25 1884.38,-244.5 2039.12,-244.5 2039.12,-286.25"/>
<text text-anchor="start" x="1892.38" y="-272.75" font-family="Helvetica,sans-Serif" font-size="10.00">/Users/jonathan/Works</text>
<text text-anchor="start" x="1892.38" y="-261.5" font-family="Helvetica,sans-Serif" font-size="10.00">/Tools/Triton/src/libtriton</text>
<text text-anchor="middle" x="1961.75" y="-250.25" font-family="Helvetica,sans-Serif" font-size="10.00">/engines/lifters/liftingToSMT.cpp</text>
</a>
</g>
</g>
<!-- Node22&#45;&gt;Node23 -->
<g id="edge28_Node000022_Node000023" class="edge">
<title>Node22&#45;&gt;Node23</title>
<g id="a_edge28_Node000022_Node000023"><a xlink:title=" ">
<path fill="none" stroke="#63b8ff" d="M1841.91,-317.38C1865.22,-307.45 1891.75,-296.16 1913.92,-286.73"/>
<polygon fill="#63b8ff" stroke="#63b8ff" points="1840.67,-314.1 1832.84,-321.23 1843.42,-320.54 1840.67,-314.1"/>
</a>
</g>
</g>
<!-- Node24&#45;&gt;Node5 -->
<g id="edge31_Node000024_Node000005" class="edge">
<title>Node24&#45;&gt;Node5</title>
<g id="a_edge31_Node000024_Node000005"><a xlink:title=" ">
<path fill="none" stroke="#63b8ff" d="M545.83,-239.09C565.6,-229.3 587.93,-218.24 606.64,-208.98"/>
<polygon fill="#63b8ff" stroke="#63b8ff" points="544.52,-235.83 537.11,-243.4 547.62,-242.1 544.52,-235.83"/>
</a>
</g>
</g>
<!-- Node25 -->
<g id="Node000025" class="node">
<title>Node25</title>
<g id="a_Node000025"><a xlink:href="riscvSemantics_8cpp.html" target="_top" xlink:title=" ">
<polygon fill="white" stroke="#666666" points="569.25,-208.5 418.25,-208.5 418.25,-166.75 569.25,-166.75 569.25,-208.5"/>
<text text-anchor="start" x="426.25" y="-195" font-family="Helvetica,sans-Serif" font-size="10.00">/Users/jonathan/Works</text>
<text text-anchor="start" x="426.25" y="-183.75" font-family="Helvetica,sans-Serif" font-size="10.00">/Tools/Triton/src/libtriton</text>
<text text-anchor="middle" x="493.75" y="-172.5" font-family="Helvetica,sans-Serif" font-size="10.00">/arch/riscv/riscvSemantics.cpp</text>
</a>
</g>
</g>
<!-- Node24&#45;&gt;Node25 -->
<g id="edge32_Node000024_Node000025" class="edge">
<title>Node24&#45;&gt;Node25</title>
<g id="a_edge32_Node000024_Node000025"><a xlink:title=" ">
<path fill="none" stroke="#63b8ff" d="M494.33,-232.75C494.23,-224.71 494.12,-216.29 494.02,-208.98"/>
<polygon fill="#63b8ff" stroke="#63b8ff" points="490.83,-232.61 494.46,-242.56 497.83,-232.52 490.83,-232.61"/>
</a>
</g>
</g>
<!-- Node26&#45;&gt;Node8 -->
<g id="edge35_Node000026_Node000008" class="edge">
<title>Node26&#45;&gt;Node8</title>
<g id="a_edge35_Node000026_Node000008"><a xlink:title=" ">
<path fill="none" stroke="#63b8ff" d="M1146.93,-310.76C1146.14,-280.21 1144.95,-234.67 1144.27,-208.7"/>
<polygon fill="#63b8ff" stroke="#63b8ff" points="1143.43,-310.64 1147.19,-320.54 1150.43,-310.46 1143.43,-310.64"/>
</a>
</g>
</g>
<!-- Node27 -->
<g id="Node000027" class="node">
<title>Node27</title>
<g id="a_Node000027"><a xlink:href="synthesizer_8cpp.html" target="_top" xlink:title=" ">
<polygon fill="white" stroke="#666666" points="1341.25,-286.25 1172.25,-286.25 1172.25,-244.5 1341.25,-244.5 1341.25,-286.25"/>
<text text-anchor="start" x="1180.25" y="-272.75" font-family="Helvetica,sans-Serif" font-size="10.00">/Users/jonathan/Works</text>
<text text-anchor="start" x="1180.25" y="-261.5" font-family="Helvetica,sans-Serif" font-size="10.00">/Tools/Triton/src/libtriton</text>
<text text-anchor="middle" x="1256.75" y="-250.25" font-family="Helvetica,sans-Serif" font-size="10.00">/engines/synthesis/synthesizer.cpp</text>
</a>
</g>
</g>
<!-- Node26&#45;&gt;Node27 -->
<g id="edge34_Node000026_Node000027" class="edge">
<title>Node26&#45;&gt;Node27</title>
<g id="a_edge34_Node000026_Node000027"><a xlink:title=" ">
<path fill="none" stroke="#63b8ff" d="M1186.09,-315.48C1199.68,-306.04 1214.74,-295.57 1227.46,-286.73"/>
<polygon fill="#63b8ff" stroke="#63b8ff" points="1184.42,-312.38 1178.2,-320.96 1188.41,-318.13 1184.42,-312.38"/>
</a>
</g>
</g>
<!-- Node28&#45;&gt;Node3 -->
<g id="edge38_Node000028_Node000003" class="edge">
<title>Node28&#45;&gt;Node3</title>
<g id="a_edge38_Node000028_Node000003"><a xlink:title=" ">
<path fill="none" stroke="#63b8ff" d="M754.87,-330.95C729.69,-327.9 702.15,-324.75 676.75,-322.25 468.7,-301.74 414.87,-314.68 207.75,-286.25 205.03,-285.88 202.28,-285.48 199.5,-285.05"/>
<polygon fill="#63b8ff" stroke="#63b8ff" points="754.4,-334.41 764.75,-332.15 755.25,-327.47 754.4,-334.41"/>
</a>
</g>
</g>
<!-- Node28&#45;&gt;Node6 -->
<g id="edge39_Node000028_Node000006" class="edge">
<title>Node28&#45;&gt;Node6</title>
<g id="a_edge39_Node000028_Node000006"><a xlink:title=" ">
<path fill="none" stroke="#63b8ff" d="M755.05,-328.07C741.57,-326.03 727.79,-324.02 714.75,-322.25 575.99,-303.42 540.03,-308.32 401.75,-286.25 398.78,-285.78 395.76,-285.27 392.72,-284.75"/>
<polygon fill="#63b8ff" stroke="#63b8ff" points="754.36,-331.51 764.78,-329.57 755.42,-324.59 754.36,-331.51"/>
</a>
</g>
</g>
<!-- Node28&#45;&gt;Node8 -->
<g id="edge40_Node000028_Node000008" class="edge">
<title>Node28&#45;&gt;Node8</title>
<g id="a_edge40_Node000028_Node000008"><a xlink:title=" ">
<path fill="none" stroke="#63b8ff" d="M889.85,-316.05C904.23,-307.36 919.64,-297.1 932.75,-286.25 952.08,-270.25 949.66,-258.09 970.75,-244.5 1002.72,-223.9 1042.92,-210.31 1076.53,-201.7"/>
<polygon fill="#63b8ff" stroke="#63b8ff" points="888.24,-312.94 881.41,-321.04 891.8,-318.96 888.24,-312.94"/>
</a>
</g>
</g>
<!-- Node28&#45;&gt;Node16 -->
<g id="edge41_Node000028_Node000016" class="edge">
<title>Node28&#45;&gt;Node16</title>
<g id="a_edge41_Node000028_Node000016"><a xlink:title=" ">
<path fill="none" stroke="#63b8ff" d="M907.6,-317.91C934.93,-307.86 966.28,-296.33 992.39,-286.73"/>
<polygon fill="#63b8ff" stroke="#63b8ff" points="906.55,-314.57 898.37,-321.3 908.97,-321.14 906.55,-314.57"/>
</a>
</g>
</g>
<!-- Node28&#45;&gt;Node24 -->
<g id="edge42_Node000028_Node000024" class="edge">
<title>Node28&#45;&gt;Node24</title>
<g id="a_edge42_Node000028_Node000024"><a xlink:title=" ">
<path fill="none" stroke="#63b8ff" d="M755.29,-322.81C754.44,-322.62 753.59,-322.43 752.75,-322.25 695.01,-309.55 629.95,-295.46 579.61,-284.61"/>
<polygon fill="#63b8ff" stroke="#63b8ff" points="754.5,-326.22 765.02,-324.96 756.01,-319.38 754.5,-326.22"/>
</a>
</g>
</g>
<!-- Node29 -->
<g id="Node000029" class="node">
<title>Node29</title>
<g id="a_Node000029"><a xlink:href="taintEngine_8cpp.html" target="_top" xlink:title=" ">
<polygon fill="white" stroke="#666666" points="742.25,-286.25 597.25,-286.25 597.25,-244.5 742.25,-244.5 742.25,-286.25"/>
<text text-anchor="start" x="605.25" y="-272.75" font-family="Helvetica,sans-Serif" font-size="10.00">/Users/jonathan/Works</text>
<text text-anchor="start" x="605.25" y="-261.5" font-family="Helvetica,sans-Serif" font-size="10.00">/Tools/Triton/src/libtriton</text>
<text text-anchor="middle" x="669.75" y="-250.25" font-family="Helvetica,sans-Serif" font-size="10.00">/engines/taint/taintEngine.cpp</text>
</a>
</g>
</g>
<!-- Node28&#45;&gt;Node29 -->
<g id="edge37_Node000028_Node000029" class="edge">
<title>Node28&#45;&gt;Node29</title>
<g id="a_edge37_Node000028_Node000029"><a xlink:title=" ">
<path fill="none" stroke="#63b8ff" d="M785.25,-317.24C762.8,-307.35 737.29,-296.12 715.97,-286.73"/>
<polygon fill="#63b8ff" stroke="#63b8ff" points="783.71,-320.39 794.27,-321.22 786.53,-313.98 783.71,-320.39"/>
</a>
</g>
</g>
<!-- Node28&#45;&gt;Node30 -->
<g id="edge43_Node000028_Node000030" class="edge">
<title>Node28&#45;&gt;Node30</title>
<g id="a_edge43_Node000028_Node000030"><a xlink:title=" ">
<path fill="none" stroke="#63b8ff" d="M841.75,-310.5C841.75,-302.46 841.75,-294.04 841.75,-286.73"/>
<polygon fill="#63b8ff" stroke="#63b8ff" points="838.25,-310.31 841.75,-320.31 845.25,-310.31 838.25,-310.31"/>
</a>
</g>
</g>
<!-- Node30&#45;&gt;Node5 -->
<g id="edge44_Node000030_Node000005" class="edge">
<title>Node30&#45;&gt;Node5</title>
<g id="a_edge44_Node000030_Node000005"><a xlink:title=" ">
<path fill="none" stroke="#63b8ff" d="M779.05,-239.89C753.48,-229.91 724.26,-218.5 699.88,-208.98"/>
<polygon fill="#63b8ff" stroke="#63b8ff" points="777.76,-243.15 788.35,-243.52 780.31,-236.63 777.76,-243.15"/>
</a>
</g>
</g>
<!-- Node31 -->
<g id="Node000031" class="node">
<title>Node31</title>
<g id="a_Node000031"><a xlink:href="x86Semantics_8cpp.html" target="_top" xlink:title=" ">
<polygon fill="white" stroke="#666666" points="912,-208.5 771.5,-208.5 771.5,-166.75 912,-166.75 912,-208.5"/>
<text text-anchor="start" x="779.5" y="-195" font-family="Helvetica,sans-Serif" font-size="10.00">/Users/jonathan/Works</text>
<text text-anchor="start" x="779.5" y="-183.75" font-family="Helvetica,sans-Serif" font-size="10.00">/Tools/Triton/src/libtriton</text>
<text text-anchor="middle" x="841.75" y="-172.5" font-family="Helvetica,sans-Serif" font-size="10.00">/arch/x86/x86Semantics.cpp</text>
</a>
</g>
</g>
<!-- Node30&#45;&gt;Node31 -->
<g id="edge45_Node000030_Node000031" class="edge">
<title>Node30&#45;&gt;Node31</title>
<g id="a_edge45_Node000030_Node000031"><a xlink:title=" ">
<path fill="none" stroke="#63b8ff" d="M841.75,-232.75C841.75,-224.71 841.75,-216.29 841.75,-208.98"/>
<polygon fill="#63b8ff" stroke="#63b8ff" points="838.25,-232.56 841.75,-242.56 845.25,-232.56 838.25,-232.56"/>
</a>
</g>
</g>
</g>
</svg>
