<?xml version="1.0" encoding="UTF-8" standalone="no"?>
<!DOCTYPE svg PUBLIC "-//W3C//DTD SVG 1.1//EN"
 "http://www.w3.org/Graphics/SVG/1.1/DTD/svg11.dtd">
<!-- Generated by graphviz version 2.50.0 (20211204.2007)
 -->
<!-- Title: /home/jonathan/Works/Tools/Triton/src/libtriton/includes/triton/synthesisResult.hpp Pages: 1 -->
<svg width="1016pt" height="373pt"
 viewBox="0.00 0.00 1016.00 373.00" xmlns="http://www.w3.org/2000/svg" xmlns:xlink="http://www.w3.org/1999/xlink">
<g id="graph0" class="graph" transform="scale(1 1) rotate(0) translate(4 369)">
<title>/home/jonathan/Works/Tools/Triton/src/libtriton/includes/triton/synthesisResult.hpp</title>
<polygon fill="white" stroke="transparent" points="-4,4 -4,-369 1012,-369 1012,4 -4,4"/>
<!-- Node1 -->
<g id="node1" class="node">
<title>Node1</title>
<g id="a_node1"><a xlink:title=" ">
<polygon fill="#bfbfbf" stroke="black" points="111.5,-323.5 111.5,-364.5 302.5,-364.5 302.5,-323.5 111.5,-323.5"/>
<text text-anchor="start" x="119.5" y="-352.5" font-family="Helvetica,sans-Serif" font-size="10.00">/home/jonathan/Works</text>
<text text-anchor="start" x="119.5" y="-341.5" font-family="Helvetica,sans-Serif" font-size="10.00">/Tools/Triton/src/libtriton</text>
<text text-anchor="middle" x="207" y="-330.5" font-family="Helvetica,sans-Serif" font-size="10.00">/includes/triton/synthesisResult.hpp</text>
</a>
</g>
</g>
<!-- Node2 -->
<g id="node2" class="node">
<title>Node2</title>
<g id="a_node2"><a xlink:href="synthesisResult_8cpp.html" target="_top" xlink:title=" ">
<polygon fill="white" stroke="black" points="0,-245.5 0,-286.5 208,-286.5 208,-245.5 0,-245.5"/>
<text text-anchor="start" x="8" y="-274.5" font-family="Helvetica,sans-Serif" font-size="10.00">/home/jonathan/Works</text>
<text text-anchor="start" x="8" y="-263.5" font-family="Helvetica,sans-Serif" font-size="10.00">/Tools/Triton/src/libtriton</text>
<text text-anchor="middle" x="104" y="-252.5" font-family="Helvetica,sans-Serif" font-size="10.00">/engines/synthesis/synthesisResult.cpp</text>
</a>
</g>
</g>
<!-- Node1&#45;&gt;Node2 -->
<g id="edge1" class="edge">
<title>Node1&#45;&gt;Node2</title>
<path fill="none" stroke="midnightblue" d="M172.24,-317.35C158.58,-307.27 143.16,-295.89 130.44,-286.51"/>
<polygon fill="midnightblue" stroke="midnightblue" points="170.35,-320.31 180.47,-323.43 174.51,-314.67 170.35,-320.31"/>
</g>
<!-- Node3 -->
<g id="node3" class="node">
<title>Node3</title>
<g id="a_node3"><a xlink:href="synthesizer_8hpp.html" target="_top" xlink:title=" ">
<polygon fill="white" stroke="black" points="226.5,-245.5 226.5,-286.5 395.5,-286.5 395.5,-245.5 226.5,-245.5"/>
<text text-anchor="start" x="234.5" y="-274.5" font-family="Helvetica,sans-Serif" font-size="10.00">/home/jonathan/Works</text>
<text text-anchor="start" x="234.5" y="-263.5" font-family="Helvetica,sans-Serif" font-size="10.00">/Tools/Triton/src/libtriton</text>
<text text-anchor="middle" x="311" y="-252.5" font-family="Helvetica,sans-Serif" font-size="10.00">/includes/triton/synthesizer.hpp</text>
</a>
</g>
</g>
<!-- Node1&#45;&gt;Node3 -->
<g id="edge2" class="edge">
<title>Node1&#45;&gt;Node3</title>
<path fill="none" stroke="midnightblue" d="M242.1,-317.35C255.89,-307.27 271.46,-295.89 284.31,-286.51"/>
<polygon fill="midnightblue" stroke="midnightblue" points="239.79,-314.7 233.78,-323.43 243.92,-320.35 239.79,-314.7"/>
</g>
<!-- Node4 -->
<g id="node4" class="node">
<title>Node4</title>
<g id="a_node4"><a xlink:href="synthesizer_8cpp.html" target="_top" xlink:title=" ">
<polygon fill="white" stroke="black" points="125,-167.5 125,-208.5 311,-208.5 311,-167.5 125,-167.5"/>
<text text-anchor="start" x="133" y="-196.5" font-family="Helvetica,sans-Serif" font-size="10.00">/home/jonathan/Works</text>
<text text-anchor="start" x="133" y="-185.5" font-family="Helvetica,sans-Serif" font-size="10.00">/Tools/Triton/src/libtriton</text>
<text text-anchor="middle" x="218" y="-174.5" font-family="Helvetica,sans-Serif" font-size="10.00">/engines/synthesis/synthesizer.cpp</text>
</a>
</g>
</g>
<!-- Node3&#45;&gt;Node4 -->
<g id="edge3" class="edge">
<title>Node3&#45;&gt;Node4</title>
<path fill="none" stroke="midnightblue" d="M279.26,-239.06C267.02,-229.06 253.25,-217.8 241.87,-208.51"/>
<polygon fill="midnightblue" stroke="midnightblue" points="277.09,-241.81 287.05,-245.43 281.52,-236.39 277.09,-241.81"/>
</g>
<!-- Node5 -->
<g id="node5" class="node">
<title>Node5</title>
<g id="a_node5"><a xlink:href="context_8hpp.html" target="_top" xlink:title=" ">
<polygon fill="white" stroke="black" points="329,-167.5 329,-208.5 479,-208.5 479,-167.5 329,-167.5"/>
<text text-anchor="start" x="337" y="-196.5" font-family="Helvetica,sans-Serif" font-size="10.00">/home/jonathan/Works</text>
<text text-anchor="start" x="337" y="-185.5" font-family="Helvetica,sans-Serif" font-size="10.00">/Tools/Triton/src/libtriton</text>
<text text-anchor="middle" x="404" y="-174.5" font-family="Helvetica,sans-Serif" font-size="10.00">/includes/triton/context.hpp</text>
</a>
</g>
</g>
<!-- Node3&#45;&gt;Node5 -->
<g id="edge4" class="edge">
<title>Node3&#45;&gt;Node5</title>
<path fill="none" stroke="midnightblue" d="M342.74,-239.06C354.98,-229.06 368.75,-217.8 380.13,-208.51"/>
<polygon fill="midnightblue" stroke="midnightblue" points="340.48,-236.39 334.95,-245.43 344.91,-241.81 340.48,-236.39"/>
</g>
<!-- Node6 -->
<g id="node6" class="node">
<title>Node6</title>
<g id="a_node6"><a xlink:href="pyTritonContext_8cpp.html" target="_top" xlink:title=" ">
<polygon fill="white" stroke="black" points="31,-78.5 31,-130.5 167,-130.5 167,-78.5 31,-78.5"/>
<text text-anchor="start" x="39" y="-118.5" font-family="Helvetica,sans-Serif" font-size="10.00">/home/jonathan/Works</text>
<text text-anchor="start" x="39" y="-107.5" font-family="Helvetica,sans-Serif" font-size="10.00">/Tools/Triton/src/libtriton</text>
<text text-anchor="start" x="39" y="-96.5" font-family="Helvetica,sans-Serif" font-size="10.00">/bindings/python/objects</text>
<text text-anchor="middle" x="99" y="-85.5" font-family="Helvetica,sans-Serif" font-size="10.00">/pyTritonContext.cpp</text>
</a>
</g>
</g>
<!-- Node5&#45;&gt;Node6 -->
<g id="edge5" class="edge">
<title>Node5&#45;&gt;Node6</title>
<path fill="none" stroke="midnightblue" d="M318.69,-166.39C259.94,-152.14 190.05,-135.04 176,-131 173.16,-130.18 170.26,-129.33 167.35,-128.45"/>
<polygon fill="midnightblue" stroke="midnightblue" points="318.21,-169.88 328.76,-168.83 319.86,-163.07 318.21,-169.88"/>
</g>
<!-- Node7 -->
<g id="node7" class="node">
<title>Node7</title>
<g id="a_node7"><a xlink:href="callbacks_8cpp.html" target="_top" xlink:title=" ">
<polygon fill="white" stroke="black" points="185,-84 185,-125 319,-125 319,-84 185,-84"/>
<text text-anchor="start" x="193" y="-113" font-family="Helvetica,sans-Serif" font-size="10.00">/home/jonathan/Works</text>
<text text-anchor="start" x="193" y="-102" font-family="Helvetica,sans-Serif" font-size="10.00">/Tools/Triton/src/libtriton</text>
<text text-anchor="middle" x="252" y="-91" font-family="Helvetica,sans-Serif" font-size="10.00">/callbacks/callbacks.cpp</text>
</a>
</g>
</g>
<!-- Node5&#45;&gt;Node7 -->
<g id="edge6" class="edge">
<title>Node5&#45;&gt;Node7</title>
<path fill="none" stroke="midnightblue" d="M358.59,-162.65C336.15,-150.62 309.44,-136.3 288.37,-125"/>
<polygon fill="midnightblue" stroke="midnightblue" points="357.13,-165.84 367.59,-167.48 360.43,-159.67 357.13,-165.84"/>
</g>
<!-- Node8 -->
<g id="node8" class="node">
<title>Node8</title>
<g id="a_node8"><a xlink:href="context_8cpp.html" target="_top" xlink:title=" ">
<polygon fill="white" stroke="black" points="337.5,-84 337.5,-125 470.5,-125 470.5,-84 337.5,-84"/>
<text text-anchor="start" x="345.5" y="-113" font-family="Helvetica,sans-Serif" font-size="10.00">/home/jonathan/Works</text>
<text text-anchor="start" x="345.5" y="-102" font-family="Helvetica,sans-Serif" font-size="10.00">/Tools/Triton/src/libtriton</text>
<text text-anchor="middle" x="404" y="-91" font-family="Helvetica,sans-Serif" font-size="10.00">/context/context.cpp</text>
</a>
</g>
</g>
<!-- Node5&#45;&gt;Node8 -->
<g id="edge7" class="edge">
<title>Node5&#45;&gt;Node8</title>
<path fill="none" stroke="midnightblue" d="M404,-157.06C404,-146.38 404,-134.63 404,-125.05"/>
<polygon fill="midnightblue" stroke="midnightblue" points="400.5,-157.27 404,-167.27 407.5,-157.27 400.5,-157.27"/>
</g>
<!-- Node9 -->
<g id="node9" class="node">
<title>Node9</title>
<g id="a_node9"><a xlink:href="symbolicSimplification_8cpp.html" target="_top" xlink:title=" ">
<polygon fill="white" stroke="black" points="488.5,-84 488.5,-125 727.5,-125 727.5,-84 488.5,-84"/>
<text text-anchor="start" x="496.5" y="-113" font-family="Helvetica,sans-Serif" font-size="10.00">/home/jonathan/Works</text>
<text text-anchor="start" x="496.5" y="-102" font-family="Helvetica,sans-Serif" font-size="10.00">/Tools/Triton/src/libtriton</text>
<text text-anchor="middle" x="608" y="-91" font-family="Helvetica,sans-Serif" font-size="10.00">/engines/symbolic/symbolicSimplification.cpp</text>
</a>
</g>
</g>
<!-- Node5&#45;&gt;Node9 -->
<g id="edge8" class="edge">
<title>Node5&#45;&gt;Node9</title>
<path fill="none" stroke="midnightblue" d="M462.16,-163.77C492.83,-151.51 530.03,-136.65 559.18,-125"/>
<polygon fill="midnightblue" stroke="midnightblue" points="460.85,-160.52 452.86,-167.48 463.45,-167.02 460.85,-160.52"/>
</g>
<!-- Node10 -->
<g id="node10" class="node">
<title>Node10</title>
<g id="a_node10"><a xlink:href="llvmToTriton_8hpp.html" target="_top" xlink:title=" ">
<polygon fill="white" stroke="black" points="745.5,-84 745.5,-125 918.5,-125 918.5,-84 745.5,-84"/>
<text text-anchor="start" x="753.5" y="-113" font-family="Helvetica,sans-Serif" font-size="10.00">/home/jonathan/Works</text>
<text text-anchor="start" x="753.5" y="-102" font-family="Helvetica,sans-Serif" font-size="10.00">/Tools/Triton/src/libtriton</text>
<text text-anchor="middle" x="832" y="-91" font-family="Helvetica,sans-Serif" font-size="10.00">/includes/triton/llvmToTriton.hpp</text>
</a>
</g>
</g>
<!-- Node5&#45;&gt;Node10 -->
<g id="edge9" class="edge">
<title>Node5&#45;&gt;Node10</title>
<path fill="none" stroke="midnightblue" d="M489.34,-174.83C556.64,-164.69 652.73,-149.04 736,-131 744.26,-129.21 752.87,-127.17 761.4,-125.05"/>
<polygon fill="midnightblue" stroke="midnightblue" points="488.58,-171.4 479.21,-176.34 489.62,-178.33 488.58,-171.4"/>
</g>
<!-- Node11 -->
<g id="node11" class="node">
<title>Node11</title>
<g id="a_node11"><a xlink:href="llvmToTriton_8cpp.html" target="_top" xlink:title=" ">
<polygon fill="white" stroke="black" points="672,-0.5 672,-41.5 814,-41.5 814,-0.5 672,-0.5"/>
<text text-anchor="start" x="680" y="-29.5" font-family="Helvetica,sans-Serif" font-size="10.00">/home/jonathan/Works</text>
<text text-anchor="start" x="680" y="-18.5" font-family="Helvetica,sans-Serif" font-size="10.00">/Tools/Triton/src/libtriton</text>
<text text-anchor="middle" x="743" y="-7.5" font-family="Helvetica,sans-Serif" font-size="10.00">/ast/llvm/llvmToTriton.cpp</text>
</a>
</g>
</g>
<!-- Node10&#45;&gt;Node11 -->
<g id="edge10" class="edge">
<title>Node10&#45;&gt;Node11</title>
<path fill="none" stroke="midnightblue" d="M802.91,-76.86C790.34,-65.35 775.9,-52.13 764.35,-41.55"/>
<polygon fill="midnightblue" stroke="midnightblue" points="800.72,-79.6 810.46,-83.77 805.44,-74.44 800.72,-79.6"/>
</g>
<!-- Node12 -->
<g id="node12" class="node">
<title>Node12</title>
<g id="a_node12"><a xlink:href="liftingToLLVM_8cpp.html" target="_top" xlink:title=" ">
<polygon fill="white" stroke="black" points="832,-0.5 832,-41.5 1008,-41.5 1008,-0.5 832,-0.5"/>
<text text-anchor="start" x="840" y="-29.5" font-family="Helvetica,sans-Serif" font-size="10.00">/home/jonathan/Works</text>
<text text-anchor="start" x="840" y="-18.5" font-family="Helvetica,sans-Serif" font-size="10.00">/Tools/Triton/src/libtriton</text>
<text text-anchor="middle" x="920" y="-7.5" font-family="Helvetica,sans-Serif" font-size="10.00">/engines/lifters/liftingToLLVM.cpp</text>
</a>
</g>
</g>
<!-- Node10&#45;&gt;Node12 -->
<g id="edge11" class="edge">
<title>Node10&#45;&gt;Node12</title>
<path fill="none" stroke="midnightblue" d="M860.76,-76.86C873.19,-65.35 887.47,-52.13 898.89,-41.55"/>
<polygon fill="midnightblue" stroke="midnightblue" points="858.26,-74.41 853.3,-83.77 863.02,-79.54 858.26,-74.41"/>
</g>
</g>
</svg>
