<?xml version="1.0" encoding="UTF-8" standalone="no"?>
<!DOCTYPE svg PUBLIC "-//W3C//DTD SVG 1.1//EN"
 "http://www.w3.org/Graphics/SVG/1.1/DTD/svg11.dtd">
<!-- Generated by graphviz version 2.49.0 (20210828.1703)
 -->
<!-- Title: /home/jonathan/Works/Tools/Triton/src/libtriton/includes/triton/synthesisResult.hpp Pages: 1 -->
<svg width="1013pt" height="373pt"
 viewBox="0.00 0.00 1013.00 373.00" xmlns="http://www.w3.org/2000/svg" xmlns:xlink="http://www.w3.org/1999/xlink">
<g id="graph0" class="graph" transform="scale(1 1) rotate(0) translate(4 369)">
<title>/home/jonathan/Works/Tools/Triton/src/libtriton/includes/triton/synthesisResult.hpp</title>
<polygon fill="white" stroke="transparent" points="-4,4 -4,-369 1009,-369 1009,4 -4,4"/>
<!-- Node1 -->
<g id="node1" class="node">
<title>Node1</title>
<g id="a_node1"><a xlink:title=" ">
<polygon fill="#bfbfbf" stroke="black" points="111.5,-323.5 111.5,-364.5 302.5,-364.5 302.5,-323.5 111.5,-323.5"/>
<text text-anchor="start" x="119.5" y="-352.5" font-family="Helvetica,sans-Serif" font-size="10.00">/home/jonathan/Works</text>
<text text-anchor="start" x="119.5" y="-341.5" font-family="Helvetica,sans-Serif" font-size="10.00">/Tools/Triton/src/libtriton</text>
<text text-anchor="middle" x="207" y="-330.5" font-family="Helvetica,sans-Serif" font-size="10.00">/includes/triton/synthesisResult.hpp</text>
</a>
</g>
</g>
<!-- Node2 -->
<g id="node2" class="node">
<title>Node2</title>
<g id="a_node2"><a xlink:href="synthesisResult_8cpp.html" target="_top" xlink:title=" ">
<polygon fill="white" stroke="black" points="0,-245.5 0,-286.5 208,-286.5 208,-245.5 0,-245.5"/>
<text text-anchor="start" x="8" y="-274.5" font-family="Helvetica,sans-Serif" font-size="10.00">/home/jonathan/Works</text>
<text text-anchor="start" x="8" y="-263.5" font-family="Helvetica,sans-Serif" font-size="10.00">/Tools/Triton/src/libtriton</text>
<text text-anchor="middle" x="104" y="-252.5" font-family="Helvetica,sans-Serif" font-size="10.00">/engines/synthesis/synthesisResult.cpp</text>
</a>
</g>
</g>
<!-- Node1&#45;&gt;Node2 -->
<g id="edge1" class="edge">
<title>Node1&#45;&gt;Node2</title>
<path fill="none" stroke="midnightblue" d="M172.24,-317.35C158.58,-307.27 143.16,-295.89 130.44,-286.51"/>
<polygon fill="midnightblue" stroke="midnightblue" points="170.35,-320.31 180.47,-323.43 174.51,-314.67 170.35,-320.31"/>
</g>
<!-- Node3 -->
<g id="node3" class="node">
<title>Node3</title>
<g id="a_node3"><a xlink:href="synthesizer_8hpp.html" target="_top" xlink:title=" ">
<polygon fill="white" stroke="black" points="226.5,-245.5 226.5,-286.5 395.5,-286.5 395.5,-245.5 226.5,-245.5"/>
<text text-anchor="start" x="234.5" y="-274.5" font-family="Helvetica,sans-Serif" font-size="10.00">/home/jonathan/Works</text>
<text text-anchor="start" x="234.5" y="-263.5" font-family="Helvetica,sans-Serif" font-size="10.00">/Tools/Triton/src/libtriton</text>
<text text-anchor="middle" x="311" y="-252.5" font-family="Helvetica,sans-Serif" font-size="10.00">/includes/triton/synthesizer.hpp</text>
</a>
</g>
</g>
<!-- Node1&#45;&gt;Node3 -->
<g id="edge2" class="edge">
<title>Node1&#45;&gt;Node3</title>
<path fill="none" stroke="midnightblue" d="M242.1,-317.35C255.89,-307.27 271.46,-295.89 284.31,-286.51"/>
<polygon fill="midnightblue" stroke="midnightblue" points="239.79,-314.7 233.78,-323.43 243.92,-320.35 239.79,-314.7"/>
</g>
<!-- Node4 -->
<g id="node4" class="node">
<title>Node4</title>
<g id="a_node4"><a xlink:href="synthesizer_8cpp.html" target="_top" xlink:title=" ">
<polygon fill="white" stroke="black" points="129,-167.5 129,-208.5 315,-208.5 315,-167.5 129,-167.5"/>
<text text-anchor="start" x="137" y="-196.5" font-family="Helvetica,sans-Serif" font-size="10.00">/home/jonathan/Works</text>
<text text-anchor="start" x="137" y="-185.5" font-family="Helvetica,sans-Serif" font-size="10.00">/Tools/Triton/src/libtriton</text>
<text text-anchor="middle" x="222" y="-174.5" font-family="Helvetica,sans-Serif" font-size="10.00">/engines/synthesis/synthesizer.cpp</text>
</a>
</g>
</g>
<!-- Node3&#45;&gt;Node4 -->
<g id="edge3" class="edge">
<title>Node3&#45;&gt;Node4</title>
<path fill="none" stroke="midnightblue" d="M280.29,-238.78C268.66,-228.84 255.63,-217.72 244.84,-208.51"/>
<polygon fill="midnightblue" stroke="midnightblue" points="278.2,-241.6 288.08,-245.43 282.75,-236.27 278.2,-241.6"/>
</g>
<!-- Node5 -->
<g id="node5" class="node">
<title>Node5</title>
<g id="a_node5"><a xlink:href="api_8hpp.html" target="_top" xlink:title=" ">
<polygon fill="white" stroke="black" points="333.5,-167.5 333.5,-208.5 466.5,-208.5 466.5,-167.5 333.5,-167.5"/>
<text text-anchor="start" x="341.5" y="-196.5" font-family="Helvetica,sans-Serif" font-size="10.00">/home/jonathan/Works</text>
<text text-anchor="start" x="341.5" y="-185.5" font-family="Helvetica,sans-Serif" font-size="10.00">/Tools/Triton/src/libtriton</text>
<text text-anchor="middle" x="400" y="-174.5" font-family="Helvetica,sans-Serif" font-size="10.00">/includes/triton/api.hpp</text>
</a>
</g>
</g>
<!-- Node3&#45;&gt;Node5 -->
<g id="edge4" class="edge">
<title>Node3&#45;&gt;Node5</title>
<path fill="none" stroke="midnightblue" d="M341.71,-238.78C353.34,-228.84 366.37,-217.72 377.16,-208.51"/>
<polygon fill="midnightblue" stroke="midnightblue" points="339.25,-236.27 333.92,-245.43 343.8,-241.6 339.25,-236.27"/>
</g>
<!-- Node6 -->
<g id="node6" class="node">
<title>Node6</title>
<g id="a_node6"><a xlink:href="api_8cpp.html" target="_top" xlink:title=" ">
<polygon fill="white" stroke="black" points="27.5,-84 27.5,-125 160.5,-125 160.5,-84 27.5,-84"/>
<text text-anchor="start" x="35.5" y="-113" font-family="Helvetica,sans-Serif" font-size="10.00">/home/jonathan/Works</text>
<text text-anchor="start" x="35.5" y="-102" font-family="Helvetica,sans-Serif" font-size="10.00">/Tools/Triton/src/libtriton</text>
<text text-anchor="middle" x="94" y="-91" font-family="Helvetica,sans-Serif" font-size="10.00">/api/api.cpp</text>
</a>
</g>
</g>
<!-- Node5&#45;&gt;Node6 -->
<g id="edge5" class="edge">
<title>Node5&#45;&gt;Node6</title>
<path fill="none" stroke="midnightblue" d="M323.2,-166.85C254.05,-150.03 234.58,-149.34 170,-131 163.57,-129.18 156.89,-127.14 150.26,-125.03"/>
<polygon fill="midnightblue" stroke="midnightblue" points="322.75,-170.34 333.3,-169.34 324.42,-163.55 322.75,-170.34"/>
</g>
<!-- Node7 -->
<g id="node7" class="node">
<title>Node7</title>
<g id="a_node7"><a xlink:href="pyTritonContext_8cpp.html" target="_top" xlink:title=" ">
<polygon fill="white" stroke="black" points="179,-78.5 179,-130.5 315,-130.5 315,-78.5 179,-78.5"/>
<text text-anchor="start" x="187" y="-118.5" font-family="Helvetica,sans-Serif" font-size="10.00">/home/jonathan/Works</text>
<text text-anchor="start" x="187" y="-107.5" font-family="Helvetica,sans-Serif" font-size="10.00">/Tools/Triton/src/libtriton</text>
<text text-anchor="start" x="187" y="-96.5" font-family="Helvetica,sans-Serif" font-size="10.00">/bindings/python/objects</text>
<text text-anchor="middle" x="247" y="-85.5" font-family="Helvetica,sans-Serif" font-size="10.00">/pyTritonContext.cpp</text>
</a>
</g>
</g>
<!-- Node5&#45;&gt;Node7 -->
<g id="edge6" class="edge">
<title>Node5&#45;&gt;Node7</title>
<path fill="none" stroke="midnightblue" d="M354.29,-162.65C335.28,-152.53 313.23,-140.78 294.08,-130.58"/>
<polygon fill="midnightblue" stroke="midnightblue" points="352.88,-165.87 363.35,-167.48 356.17,-159.69 352.88,-165.87"/>
</g>
<!-- Node8 -->
<g id="node8" class="node">
<title>Node8</title>
<g id="a_node8"><a xlink:href="callbacks_8cpp.html" target="_top" xlink:title=" ">
<polygon fill="white" stroke="black" points="333,-84 333,-125 467,-125 467,-84 333,-84"/>
<text text-anchor="start" x="341" y="-113" font-family="Helvetica,sans-Serif" font-size="10.00">/home/jonathan/Works</text>
<text text-anchor="start" x="341" y="-102" font-family="Helvetica,sans-Serif" font-size="10.00">/Tools/Triton/src/libtriton</text>
<text text-anchor="middle" x="400" y="-91" font-family="Helvetica,sans-Serif" font-size="10.00">/callbacks/callbacks.cpp</text>
</a>
</g>
</g>
<!-- Node5&#45;&gt;Node8 -->
<g id="edge7" class="edge">
<title>Node5&#45;&gt;Node8</title>
<path fill="none" stroke="midnightblue" d="M400,-157.06C400,-146.38 400,-134.63 400,-125.05"/>
<polygon fill="midnightblue" stroke="midnightblue" points="396.5,-157.27 400,-167.27 403.5,-157.27 396.5,-157.27"/>
</g>
<!-- Node9 -->
<g id="node9" class="node">
<title>Node9</title>
<g id="a_node9"><a xlink:href="symbolicSimplification_8cpp.html" target="_top" xlink:title=" ">
<polygon fill="white" stroke="black" points="485.5,-84 485.5,-125 724.5,-125 724.5,-84 485.5,-84"/>
<text text-anchor="start" x="493.5" y="-113" font-family="Helvetica,sans-Serif" font-size="10.00">/home/jonathan/Works</text>
<text text-anchor="start" x="493.5" y="-102" font-family="Helvetica,sans-Serif" font-size="10.00">/Tools/Triton/src/libtriton</text>
<text text-anchor="middle" x="605" y="-91" font-family="Helvetica,sans-Serif" font-size="10.00">/engines/symbolic/symbolicSimplification.cpp</text>
</a>
</g>
</g>
<!-- Node5&#45;&gt;Node9 -->
<g id="edge8" class="edge">
<title>Node5&#45;&gt;Node9</title>
<path fill="none" stroke="midnightblue" d="M458.44,-163.77C489.26,-151.51 526.65,-136.65 555.94,-125"/>
<polygon fill="midnightblue" stroke="midnightblue" points="457.1,-160.53 449.1,-167.48 459.69,-167.04 457.1,-160.53"/>
</g>
<!-- Node10 -->
<g id="node10" class="node">
<title>Node10</title>
<g id="a_node10"><a xlink:href="llvmToTriton_8hpp.html" target="_top" xlink:title=" ">
<polygon fill="white" stroke="black" points="742.5,-84 742.5,-125 915.5,-125 915.5,-84 742.5,-84"/>
<text text-anchor="start" x="750.5" y="-113" font-family="Helvetica,sans-Serif" font-size="10.00">/home/jonathan/Works</text>
<text text-anchor="start" x="750.5" y="-102" font-family="Helvetica,sans-Serif" font-size="10.00">/Tools/Triton/src/libtriton</text>
<text text-anchor="middle" x="829" y="-91" font-family="Helvetica,sans-Serif" font-size="10.00">/includes/triton/llvmToTriton.hpp</text>
</a>
</g>
</g>
<!-- Node5&#45;&gt;Node10 -->
<g id="edge9" class="edge">
<title>Node5&#45;&gt;Node10</title>
<path fill="none" stroke="midnightblue" d="M476.85,-176.15C544.59,-166.1 645.8,-149.87 733,-131 741.26,-129.21 749.87,-127.18 758.4,-125.05"/>
<polygon fill="midnightblue" stroke="midnightblue" points="476.07,-172.73 466.69,-177.65 477.09,-179.65 476.07,-172.73"/>
</g>
<!-- Node11 -->
<g id="node11" class="node">
<title>Node11</title>
<g id="a_node11"><a xlink:href="llvmToTriton_8cpp.html" target="_top" xlink:title=" ">
<polygon fill="white" stroke="black" points="669,-0.5 669,-41.5 811,-41.5 811,-0.5 669,-0.5"/>
<text text-anchor="start" x="677" y="-29.5" font-family="Helvetica,sans-Serif" font-size="10.00">/home/jonathan/Works</text>
<text text-anchor="start" x="677" y="-18.5" font-family="Helvetica,sans-Serif" font-size="10.00">/Tools/Triton/src/libtriton</text>
<text text-anchor="middle" x="740" y="-7.5" font-family="Helvetica,sans-Serif" font-size="10.00">/ast/llvm/llvmToTriton.cpp</text>
</a>
</g>
</g>
<!-- Node10&#45;&gt;Node11 -->
<g id="edge10" class="edge">
<title>Node10&#45;&gt;Node11</title>
<path fill="none" stroke="midnightblue" d="M799.91,-76.86C787.34,-65.35 772.9,-52.13 761.35,-41.55"/>
<polygon fill="midnightblue" stroke="midnightblue" points="797.72,-79.6 807.46,-83.77 802.44,-74.44 797.72,-79.6"/>
</g>
<!-- Node12 -->
<g id="node12" class="node">
<title>Node12</title>
<g id="a_node12"><a xlink:href="liftingToLLVM_8cpp.html" target="_top" xlink:title=" ">
<polygon fill="white" stroke="black" points="829,-0.5 829,-41.5 1005,-41.5 1005,-0.5 829,-0.5"/>
<text text-anchor="start" x="837" y="-29.5" font-family="Helvetica,sans-Serif" font-size="10.00">/home/jonathan/Works</text>
<text text-anchor="start" x="837" y="-18.5" font-family="Helvetica,sans-Serif" font-size="10.00">/Tools/Triton/src/libtriton</text>
<text text-anchor="middle" x="917" y="-7.5" font-family="Helvetica,sans-Serif" font-size="10.00">/engines/lifters/liftingToLLVM.cpp</text>
</a>
</g>
</g>
<!-- Node10&#45;&gt;Node12 -->
<g id="edge11" class="edge">
<title>Node10&#45;&gt;Node12</title>
<path fill="none" stroke="midnightblue" d="M857.76,-76.86C870.19,-65.35 884.47,-52.13 895.89,-41.55"/>
<polygon fill="midnightblue" stroke="midnightblue" points="855.26,-74.41 850.3,-83.77 860.02,-79.54 855.26,-74.41"/>
</g>
</g>
</svg>
