<?xml version="1.0" encoding="UTF-8" standalone="no"?>
<!DOCTYPE svg PUBLIC "-//W3C//DTD SVG 1.1//EN"
 "http://www.w3.org/Graphics/SVG/1.1/DTD/svg11.dtd">
<!-- Generated by graphviz version 2.49.0 (20210828.1703)
 -->
<!-- Title: /home/jonathan/Works/Tools/Triton/src/libtriton/includes/triton/synthesizer.hpp Pages: 1 -->
<svg width="729pt" height="295pt"
 viewBox="0.00 0.00 728.50 295.00" xmlns="http://www.w3.org/2000/svg" xmlns:xlink="http://www.w3.org/1999/xlink">
<g id="graph0" class="graph" transform="scale(1 1) rotate(0) translate(4 291)">
<title>/home/jonathan/Works/Tools/Triton/src/libtriton/includes/triton/synthesizer.hpp</title>
<polygon fill="white" stroke="transparent" points="-4,4 -4,-291 724.5,-291 724.5,4 -4,4"/>
<!-- Node1 -->
<g id="node1" class="node">
<title>Node1</title>
<g id="a_node1"><a xlink:title=" ">
<polygon fill="#bfbfbf" stroke="black" points="123,-245.5 123,-286.5 292,-286.5 292,-245.5 123,-245.5"/>
<text text-anchor="start" x="131" y="-274.5" font-family="Helvetica,sans-Serif" font-size="10.00">/home/jonathan/Works</text>
<text text-anchor="start" x="131" y="-263.5" font-family="Helvetica,sans-Serif" font-size="10.00">/Tools/Triton/src/libtriton</text>
<text text-anchor="middle" x="207.5" y="-252.5" font-family="Helvetica,sans-Serif" font-size="10.00">/includes/triton/synthesizer.hpp</text>
</a>
</g>
</g>
<!-- Node2 -->
<g id="node2" class="node">
<title>Node2</title>
<g id="a_node2"><a xlink:href="synthesizer_8cpp.html" target="_top" xlink:title=" ">
<polygon fill="white" stroke="black" points="25.5,-167.5 25.5,-208.5 211.5,-208.5 211.5,-167.5 25.5,-167.5"/>
<text text-anchor="start" x="33.5" y="-196.5" font-family="Helvetica,sans-Serif" font-size="10.00">/home/jonathan/Works</text>
<text text-anchor="start" x="33.5" y="-185.5" font-family="Helvetica,sans-Serif" font-size="10.00">/Tools/Triton/src/libtriton</text>
<text text-anchor="middle" x="118.5" y="-174.5" font-family="Helvetica,sans-Serif" font-size="10.00">/engines/synthesis/synthesizer.cpp</text>
</a>
</g>
</g>
<!-- Node1&#45;&gt;Node2 -->
<g id="edge1" class="edge">
<title>Node1&#45;&gt;Node2</title>
<path fill="none" stroke="midnightblue" d="M176.79,-238.78C165.16,-228.84 152.13,-217.72 141.34,-208.51"/>
<polygon fill="midnightblue" stroke="midnightblue" points="174.7,-241.6 184.58,-245.43 179.25,-236.27 174.7,-241.6"/>
</g>
<!-- Node3 -->
<g id="node3" class="node">
<title>Node3</title>
<g id="a_node3"><a xlink:href="api_8hpp.html" target="_top" xlink:title=" ">
<polygon fill="white" stroke="black" points="230,-167.5 230,-208.5 363,-208.5 363,-167.5 230,-167.5"/>
<text text-anchor="start" x="238" y="-196.5" font-family="Helvetica,sans-Serif" font-size="10.00">/home/jonathan/Works</text>
<text text-anchor="start" x="238" y="-185.5" font-family="Helvetica,sans-Serif" font-size="10.00">/Tools/Triton/src/libtriton</text>
<text text-anchor="middle" x="296.5" y="-174.5" font-family="Helvetica,sans-Serif" font-size="10.00">/includes/triton/api.hpp</text>
</a>
</g>
</g>
<!-- Node1&#45;&gt;Node3 -->
<g id="edge2" class="edge">
<title>Node1&#45;&gt;Node3</title>
<path fill="none" stroke="midnightblue" d="M238.21,-238.78C249.84,-228.84 262.87,-217.72 273.66,-208.51"/>
<polygon fill="midnightblue" stroke="midnightblue" points="235.75,-236.27 230.42,-245.43 240.3,-241.6 235.75,-236.27"/>
</g>
<!-- Node4 -->
<g id="node4" class="node">
<title>Node4</title>
<g id="a_node4"><a xlink:href="api_8cpp.html" target="_top" xlink:title=" ">
<polygon fill="white" stroke="black" points="0,-84 0,-125 133,-125 133,-84 0,-84"/>
<text text-anchor="start" x="8" y="-113" font-family="Helvetica,sans-Serif" font-size="10.00">/home/jonathan/Works</text>
<text text-anchor="start" x="8" y="-102" font-family="Helvetica,sans-Serif" font-size="10.00">/Tools/Triton/src/libtriton</text>
<text text-anchor="middle" x="66.5" y="-91" font-family="Helvetica,sans-Serif" font-size="10.00">/api/api.cpp</text>
</a>
</g>
</g>
<!-- Node3&#45;&gt;Node4 -->
<g id="edge3" class="edge">
<title>Node3&#45;&gt;Node4</title>
<path fill="none" stroke="midnightblue" d="M231.83,-164.08C197.08,-151.77 154.69,-136.75 121.54,-125"/>
<polygon fill="midnightblue" stroke="midnightblue" points="230.81,-167.44 241.41,-167.48 233.15,-160.84 230.81,-167.44"/>
</g>
<!-- Node5 -->
<g id="node5" class="node">
<title>Node5</title>
<g id="a_node5"><a xlink:href="pyTritonContext_8cpp.html" target="_top" xlink:title=" ">
<polygon fill="white" stroke="black" points="151.5,-78.5 151.5,-130.5 287.5,-130.5 287.5,-78.5 151.5,-78.5"/>
<text text-anchor="start" x="159.5" y="-118.5" font-family="Helvetica,sans-Serif" font-size="10.00">/home/jonathan/Works</text>
<text text-anchor="start" x="159.5" y="-107.5" font-family="Helvetica,sans-Serif" font-size="10.00">/Tools/Triton/src/libtriton</text>
<text text-anchor="start" x="159.5" y="-96.5" font-family="Helvetica,sans-Serif" font-size="10.00">/bindings/python/objects</text>
<text text-anchor="middle" x="219.5" y="-85.5" font-family="Helvetica,sans-Serif" font-size="10.00">/pyTritonContext.cpp</text>
</a>
</g>
</g>
<!-- Node3&#45;&gt;Node5 -->
<g id="edge4" class="edge">
<title>Node3&#45;&gt;Node5</title>
<path fill="none" stroke="midnightblue" d="M270.96,-159.96C262.01,-150.5 252.01,-139.91 243.22,-130.61"/>
<polygon fill="midnightblue" stroke="midnightblue" points="268.45,-162.41 277.86,-167.27 273.54,-157.6 268.45,-162.41"/>
</g>
<!-- Node6 -->
<g id="node6" class="node">
<title>Node6</title>
<g id="a_node6"><a xlink:href="callbacks_8cpp.html" target="_top" xlink:title=" ">
<polygon fill="white" stroke="black" points="305.5,-84 305.5,-125 439.5,-125 439.5,-84 305.5,-84"/>
<text text-anchor="start" x="313.5" y="-113" font-family="Helvetica,sans-Serif" font-size="10.00">/home/jonathan/Works</text>
<text text-anchor="start" x="313.5" y="-102" font-family="Helvetica,sans-Serif" font-size="10.00">/Tools/Triton/src/libtriton</text>
<text text-anchor="middle" x="372.5" y="-91" font-family="Helvetica,sans-Serif" font-size="10.00">/callbacks/callbacks.cpp</text>
</a>
</g>
</g>
<!-- Node3&#45;&gt;Node6 -->
<g id="edge5" class="edge">
<title>Node3&#45;&gt;Node6</title>
<path fill="none" stroke="midnightblue" d="M321.95,-159.71C332.54,-148.36 344.59,-135.43 354.27,-125.05"/>
<polygon fill="midnightblue" stroke="midnightblue" points="319.16,-157.57 314.9,-167.27 324.28,-162.34 319.16,-157.57"/>
</g>
<!-- Node7 -->
<g id="node7" class="node">
<title>Node7</title>
<g id="a_node7"><a xlink:href="llvmToTriton_8hpp.html" target="_top" xlink:title=" ">
<polygon fill="white" stroke="black" points="458,-84 458,-125 631,-125 631,-84 458,-84"/>
<text text-anchor="start" x="466" y="-113" font-family="Helvetica,sans-Serif" font-size="10.00">/home/jonathan/Works</text>
<text text-anchor="start" x="466" y="-102" font-family="Helvetica,sans-Serif" font-size="10.00">/Tools/Triton/src/libtriton</text>
<text text-anchor="middle" x="544.5" y="-91" font-family="Helvetica,sans-Serif" font-size="10.00">/includes/triton/llvmToTriton.hpp</text>
</a>
</g>
</g>
<!-- Node3&#45;&gt;Node7 -->
<g id="edge6" class="edge">
<title>Node3&#45;&gt;Node7</title>
<path fill="none" stroke="midnightblue" d="M365.76,-164.24C403.31,-151.9 449.25,-136.8 485.15,-125"/>
<polygon fill="midnightblue" stroke="midnightblue" points="364.31,-161.03 355.9,-167.48 366.5,-167.68 364.31,-161.03"/>
</g>
<!-- Node8 -->
<g id="node8" class="node">
<title>Node8</title>
<g id="a_node8"><a xlink:href="llvmToTriton_8cpp.html" target="_top" xlink:title=" ">
<polygon fill="white" stroke="black" points="384.5,-0.5 384.5,-41.5 526.5,-41.5 526.5,-0.5 384.5,-0.5"/>
<text text-anchor="start" x="392.5" y="-29.5" font-family="Helvetica,sans-Serif" font-size="10.00">/home/jonathan/Works</text>
<text text-anchor="start" x="392.5" y="-18.5" font-family="Helvetica,sans-Serif" font-size="10.00">/Tools/Triton/src/libtriton</text>
<text text-anchor="middle" x="455.5" y="-7.5" font-family="Helvetica,sans-Serif" font-size="10.00">/ast/llvm/llvmToTriton.cpp</text>
</a>
</g>
</g>
<!-- Node7&#45;&gt;Node8 -->
<g id="edge7" class="edge">
<title>Node7&#45;&gt;Node8</title>
<path fill="none" stroke="midnightblue" d="M515.41,-76.86C502.84,-65.35 488.4,-52.13 476.85,-41.55"/>
<polygon fill="midnightblue" stroke="midnightblue" points="513.22,-79.6 522.96,-83.77 517.94,-74.44 513.22,-79.6"/>
</g>
<!-- Node9 -->
<g id="node9" class="node">
<title>Node9</title>
<g id="a_node9"><a xlink:href="liftingToLLVM_8cpp.html" target="_top" xlink:title=" ">
<polygon fill="white" stroke="black" points="544.5,-0.5 544.5,-41.5 720.5,-41.5 720.5,-0.5 544.5,-0.5"/>
<text text-anchor="start" x="552.5" y="-29.5" font-family="Helvetica,sans-Serif" font-size="10.00">/home/jonathan/Works</text>
<text text-anchor="start" x="552.5" y="-18.5" font-family="Helvetica,sans-Serif" font-size="10.00">/Tools/Triton/src/libtriton</text>
<text text-anchor="middle" x="632.5" y="-7.5" font-family="Helvetica,sans-Serif" font-size="10.00">/engines/lifters/liftingToLLVM.cpp</text>
</a>
</g>
</g>
<!-- Node7&#45;&gt;Node9 -->
<g id="edge8" class="edge">
<title>Node7&#45;&gt;Node9</title>
<path fill="none" stroke="midnightblue" d="M573.26,-76.86C585.69,-65.35 599.97,-52.13 611.39,-41.55"/>
<polygon fill="midnightblue" stroke="midnightblue" points="570.76,-74.41 565.8,-83.77 575.52,-79.54 570.76,-74.41"/>
</g>
</g>
</svg>
