<?xml version="1.0" encoding="UTF-8" standalone="no"?>
<!DOCTYPE svg PUBLIC "-//W3C//DTD SVG 1.1//EN"
 "http://www.w3.org/Graphics/SVG/1.1/DTD/svg11.dtd">
<!-- Generated by graphviz version 11.0.0 (20240428.1522)
 -->
<!-- Title: /Users/jonathan/Works/Tools/Triton/src/libtriton/includes/triton/taintEngine.hpp Pages: 1 -->
<svg width="1460pt" height="372pt"
 viewBox="0.00 0.00 1459.50 372.00" xmlns="http://www.w3.org/2000/svg" xmlns:xlink="http://www.w3.org/1999/xlink">
<g id="graph0" class="graph" transform="scale(1 1) rotate(0) translate(4 368)">
<title>/Users/jonathan/Works/Tools/Triton/src/libtriton/includes/triton/taintEngine.hpp</title>
<!-- Node1 -->
<g id="Node000001" class="node">
<title>Node1</title>
<g id="a_Node000001"><a xlink:title=" ">
<polygon fill="#999999" stroke="#666666" points="619.62,-364 469.38,-364 469.38,-322.25 619.62,-322.25 619.62,-364"/>
<text text-anchor="start" x="477.38" y="-350.5" font-family="Helvetica,sans-Serif" font-size="10.00">/Users/jonathan/Works</text>
<text text-anchor="start" x="477.38" y="-339.25" font-family="Helvetica,sans-Serif" font-size="10.00">/Tools/Triton/src/libtriton</text>
<text text-anchor="middle" x="544.5" y="-328" font-family="Helvetica,sans-Serif" font-size="10.00">/includes/triton/taintEngine.hpp</text>
</a>
</g>
</g>
<!-- Node2 -->
<g id="Node000002" class="node">
<title>Node2</title>
<g id="a_Node000002"><a xlink:href="taintEngine_8cpp.html" target="_top" xlink:title=" ">
<polygon fill="white" stroke="#666666" points="145,-286.25 0,-286.25 0,-244.5 145,-244.5 145,-286.25"/>
<text text-anchor="start" x="8" y="-272.75" font-family="Helvetica,sans-Serif" font-size="10.00">/Users/jonathan/Works</text>
<text text-anchor="start" x="8" y="-261.5" font-family="Helvetica,sans-Serif" font-size="10.00">/Tools/Triton/src/libtriton</text>
<text text-anchor="middle" x="72.5" y="-250.25" font-family="Helvetica,sans-Serif" font-size="10.00">/engines/taint/taintEngine.cpp</text>
</a>
</g>
</g>
<!-- Node1&#45;&gt;Node2 -->
<g id="edge1_Node000001_Node000002" class="edge">
<title>Node1&#45;&gt;Node2</title>
<g id="a_edge1_Node000001_Node000002"><a xlink:title=" ">
<path fill="none" stroke="#63b8ff" d="M457.62,-332.09C378.32,-322.36 258.05,-306.17 154.5,-286.25 151.48,-285.67 148.4,-285.05 145.3,-284.4"/>
<polygon fill="#63b8ff" stroke="#63b8ff" points="457.16,-335.56 467.51,-333.3 458.01,-328.61 457.16,-335.56"/>
</a>
</g>
</g>
<!-- Node3 -->
<g id="Node000003" class="node">
<title>Node3</title>
<g id="a_Node000003"><a xlink:href="aarch64Semantics_8hpp.html" target="_top" xlink:title=" ">
<polygon fill="white" stroke="#666666" points="345.75,-286.25 163.25,-286.25 163.25,-244.5 345.75,-244.5 345.75,-286.25"/>
<text text-anchor="start" x="171.25" y="-272.75" font-family="Helvetica,sans-Serif" font-size="10.00">/Users/jonathan/Works</text>
<text text-anchor="start" x="171.25" y="-261.5" font-family="Helvetica,sans-Serif" font-size="10.00">/Tools/Triton/src/libtriton</text>
<text text-anchor="middle" x="254.5" y="-250.25" font-family="Helvetica,sans-Serif" font-size="10.00">/includes/triton/aarch64Semantics.hpp</text>
</a>
</g>
</g>
<!-- Node1&#45;&gt;Node3 -->
<g id="edge2_Node000001_Node000003" class="edge">
<title>Node1&#45;&gt;Node3</title>
<g id="a_edge2_Node000001_Node000003"><a xlink:title=" ">
<path fill="none" stroke="#63b8ff" d="M458.01,-319.53C418.11,-309.11 371.11,-296.84 332.34,-286.71"/>
<polygon fill="#63b8ff" stroke="#63b8ff" points="457.04,-322.9 467.6,-322.04 458.81,-316.12 457.04,-322.9"/>
</a>
</g>
</g>
<!-- Node6 -->
<g id="Node000006" class="node">
<title>Node6</title>
<g id="a_Node000006"><a xlink:href="arm32Semantics_8hpp.html" target="_top" xlink:title=" ">
<polygon fill="white" stroke="#666666" points="539,-286.25 364,-286.25 364,-244.5 539,-244.5 539,-286.25"/>
<text text-anchor="start" x="372" y="-272.75" font-family="Helvetica,sans-Serif" font-size="10.00">/Users/jonathan/Works</text>
<text text-anchor="start" x="372" y="-261.5" font-family="Helvetica,sans-Serif" font-size="10.00">/Tools/Triton/src/libtriton</text>
<text text-anchor="middle" x="451.5" y="-250.25" font-family="Helvetica,sans-Serif" font-size="10.00">/includes/triton/arm32Semantics.hpp</text>
</a>
</g>
</g>
<!-- Node1&#45;&gt;Node6 -->
<g id="edge5_Node000001_Node000006" class="edge">
<title>Node1&#45;&gt;Node6</title>
<g id="a_edge5_Node000001_Node000006"><a xlink:title=" ">
<path fill="none" stroke="#63b8ff" d="M510.78,-314.66C499.46,-305.44 487.03,-295.31 476.49,-286.73"/>
<polygon fill="#63b8ff" stroke="#63b8ff" points="508.44,-317.27 518.4,-320.87 512.86,-311.84 508.44,-317.27"/>
</a>
</g>
</g>
<!-- Node8 -->
<g id="Node000008" class="node">
<title>Node8</title>
<g id="a_Node000008"><a xlink:href="context_8hpp.html" target="_top" xlink:title=" ">
<polygon fill="white" stroke="#666666" points="969.38,-208.5 835.62,-208.5 835.62,-166.75 969.38,-166.75 969.38,-208.5"/>
<text text-anchor="start" x="843.62" y="-195" font-family="Helvetica,sans-Serif" font-size="10.00">/Users/jonathan/Works</text>
<text text-anchor="start" x="843.62" y="-183.75" font-family="Helvetica,sans-Serif" font-size="10.00">/Tools/Triton/src/libtriton</text>
<text text-anchor="middle" x="902.5" y="-172.5" font-family="Helvetica,sans-Serif" font-size="10.00">/includes/triton/context.hpp</text>
</a>
</g>
</g>
<!-- Node1&#45;&gt;Node8 -->
<g id="edge8_Node000001_Node000008" class="edge">
<title>Node1&#45;&gt;Node8</title>
<g id="a_edge8_Node000001_Node000008"><a xlink:title=" ">
<path fill="none" stroke="#63b8ff" d="M631.47,-338.83C719.82,-333.61 848.51,-320.25 883.5,-286.25 904.06,-266.28 905.94,-231.16 904.73,-208.93"/>
<polygon fill="#63b8ff" stroke="#63b8ff" points="631.39,-335.33 621.6,-339.38 631.78,-342.32 631.39,-335.33"/>
</a>
</g>
</g>
<!-- Node16 -->
<g id="Node000016" class="node">
<title>Node16</title>
<g id="a_Node000016"><a xlink:href="irBuilder_8hpp.html" target="_top" xlink:title=" ">
<polygon fill="white" stroke="#666666" points="874.5,-286.25 738.5,-286.25 738.5,-244.5 874.5,-244.5 874.5,-286.25"/>
<text text-anchor="start" x="746.5" y="-272.75" font-family="Helvetica,sans-Serif" font-size="10.00">/Users/jonathan/Works</text>
<text text-anchor="start" x="746.5" y="-261.5" font-family="Helvetica,sans-Serif" font-size="10.00">/Tools/Triton/src/libtriton</text>
<text text-anchor="middle" x="806.5" y="-250.25" font-family="Helvetica,sans-Serif" font-size="10.00">/includes/triton/irBuilder.hpp</text>
</a>
</g>
</g>
<!-- Node1&#45;&gt;Node16 -->
<g id="edge16_Node000001_Node000016" class="edge">
<title>Node1&#45;&gt;Node16</title>
<g id="a_edge16_Node000001_Node000016"><a xlink:title=" ">
<path fill="none" stroke="#63b8ff" d="M625.72,-318.64C661.84,-308.2 703.9,-296.04 738.36,-286.08"/>
<polygon fill="#63b8ff" stroke="#63b8ff" points="624.8,-315.27 616.17,-321.4 626.74,-321.99 624.8,-315.27"/>
</a>
</g>
</g>
<!-- Node17 -->
<g id="Node000017" class="node">
<title>Node17</title>
<g id="a_Node000017"><a xlink:href="x86Semantics_8hpp.html" target="_top" xlink:title=" ">
<polygon fill="white" stroke="#666666" points="720.38,-286.25 556.62,-286.25 556.62,-244.5 720.38,-244.5 720.38,-286.25"/>
<text text-anchor="start" x="564.62" y="-272.75" font-family="Helvetica,sans-Serif" font-size="10.00">/Users/jonathan/Works</text>
<text text-anchor="start" x="564.62" y="-261.5" font-family="Helvetica,sans-Serif" font-size="10.00">/Tools/Triton/src/libtriton</text>
<text text-anchor="middle" x="638.5" y="-250.25" font-family="Helvetica,sans-Serif" font-size="10.00">/includes/triton/x86Semantics.hpp</text>
</a>
</g>
</g>
<!-- Node1&#45;&gt;Node17 -->
<g id="edge19_Node000001_Node000017" class="edge">
<title>Node1&#45;&gt;Node17</title>
<g id="a_edge19_Node000001_Node000017"><a xlink:title=" ">
<path fill="none" stroke="#63b8ff" d="M578.58,-314.66C590.03,-305.44 602.59,-295.31 613.24,-286.73"/>
<polygon fill="#63b8ff" stroke="#63b8ff" points="576.46,-311.88 570.87,-320.88 580.85,-317.33 576.46,-311.88"/>
</a>
</g>
</g>
<!-- Node4 -->
<g id="Node000004" class="node">
<title>Node4</title>
<g id="a_Node000004"><a xlink:href="aarch64Semantics_8cpp.html" target="_top" xlink:title=" ">
<polygon fill="white" stroke="#666666" points="319.25,-208.5 121.75,-208.5 121.75,-166.75 319.25,-166.75 319.25,-208.5"/>
<text text-anchor="start" x="129.75" y="-195" font-family="Helvetica,sans-Serif" font-size="10.00">/Users/jonathan/Works</text>
<text text-anchor="start" x="129.75" y="-183.75" font-family="Helvetica,sans-Serif" font-size="10.00">/Tools/Triton/src/libtriton</text>
<text text-anchor="middle" x="220.5" y="-172.5" font-family="Helvetica,sans-Serif" font-size="10.00">/arch/arm/aarch64/aarch64Semantics.cpp</text>
</a>
</g>
</g>
<!-- Node3&#45;&gt;Node4 -->
<g id="edge3_Node000003_Node000004" class="edge">
<title>Node3&#45;&gt;Node4</title>
<g id="a_edge3_Node000003_Node000004"><a xlink:title=" ">
<path fill="none" stroke="#63b8ff" d="M240.68,-233.59C236.96,-225.3 233.03,-216.54 229.64,-208.98"/>
<polygon fill="#63b8ff" stroke="#63b8ff" points="237.48,-235 244.77,-242.69 243.87,-232.14 237.48,-235"/>
</a>
</g>
</g>
<!-- Node5 -->
<g id="Node000005" class="node">
<title>Node5</title>
<g id="a_Node000005"><a xlink:href="irBuilder_8cpp.html" target="_top" xlink:title=" ">
<polygon fill="white" stroke="#666666" points="659,-208.5 538,-208.5 538,-166.75 659,-166.75 659,-208.5"/>
<text text-anchor="start" x="546" y="-195" font-family="Helvetica,sans-Serif" font-size="10.00">/Users/jonathan/Works</text>
<text text-anchor="start" x="546" y="-183.75" font-family="Helvetica,sans-Serif" font-size="10.00">/Tools/Triton/src/libtriton</text>
<text text-anchor="middle" x="598.5" y="-172.5" font-family="Helvetica,sans-Serif" font-size="10.00">/arch/irBuilder.cpp</text>
</a>
</g>
</g>
<!-- Node3&#45;&gt;Node5 -->
<g id="edge4_Node000003_Node000005" class="edge">
<title>Node3&#45;&gt;Node5</title>
<g id="a_edge4_Node000003_Node000005"><a xlink:title=" ">
<path fill="none" stroke="#63b8ff" d="M357.18,-243.83C427.73,-229.64 511.6,-212.62 528.5,-208.5 531.57,-207.75 534.71,-206.96 537.87,-206.14"/>
<polygon fill="#63b8ff" stroke="#63b8ff" points="356.58,-240.38 347.47,-245.78 357.96,-247.24 356.58,-240.38"/>
</a>
</g>
</g>
<!-- Node6&#45;&gt;Node5 -->
<g id="edge7_Node000006_Node000005" class="edge">
<title>Node6&#45;&gt;Node5</title>
<g id="a_edge7_Node000006_Node000005"><a xlink:title=" ">
<path fill="none" stroke="#63b8ff" d="M501.1,-238.82C519.96,-229.1 541.19,-218.16 559,-208.98"/>
<polygon fill="#63b8ff" stroke="#63b8ff" points="499.52,-235.69 492.24,-243.38 502.73,-241.91 499.52,-235.69"/>
</a>
</g>
</g>
<!-- Node7 -->
<g id="Node000007" class="node">
<title>Node7</title>
<g id="a_Node000007"><a xlink:href="arm32Semantics_8cpp.html" target="_top" xlink:title=" ">
<polygon fill="white" stroke="#666666" points="519.75,-208.5 337.25,-208.5 337.25,-166.75 519.75,-166.75 519.75,-208.5"/>
<text text-anchor="start" x="345.25" y="-195" font-family="Helvetica,sans-Serif" font-size="10.00">/Users/jonathan/Works</text>
<text text-anchor="start" x="345.25" y="-183.75" font-family="Helvetica,sans-Serif" font-size="10.00">/Tools/Triton/src/libtriton</text>
<text text-anchor="middle" x="428.5" y="-172.5" font-family="Helvetica,sans-Serif" font-size="10.00">/arch/arm/arm32/arm32Semantics.cpp</text>
</a>
</g>
</g>
<!-- Node6&#45;&gt;Node7 -->
<g id="edge6_Node000006_Node000007" class="edge">
<title>Node6&#45;&gt;Node7</title>
<g id="a_edge6_Node000006_Node000007"><a xlink:title=" ">
<path fill="none" stroke="#63b8ff" d="M442.07,-233.31C439.58,-225.11 436.95,-216.46 434.68,-208.98"/>
<polygon fill="#63b8ff" stroke="#63b8ff" points="438.64,-234.08 444.9,-242.63 445.34,-232.04 438.64,-234.08"/>
</a>
</g>
</g>
<!-- Node9 -->
<g id="Node000009" class="node">
<title>Node9</title>
<g id="a_Node000009"><a xlink:href="pyTritonContext_8cpp.html" target="_top" xlink:title=" ">
<polygon fill="white" stroke="#666666" points="682.38,-130.75 560.62,-130.75 560.62,-77.75 682.38,-77.75 682.38,-130.75"/>
<text text-anchor="start" x="568.62" y="-117.25" font-family="Helvetica,sans-Serif" font-size="10.00">/Users/jonathan/Works</text>
<text text-anchor="start" x="568.62" y="-106" font-family="Helvetica,sans-Serif" font-size="10.00">/Tools/Triton/src/libtriton</text>
<text text-anchor="start" x="568.62" y="-94.75" font-family="Helvetica,sans-Serif" font-size="10.00">/bindings/python/objects</text>
<text text-anchor="middle" x="621.5" y="-83.5" font-family="Helvetica,sans-Serif" font-size="10.00">/pyTritonContext.cpp</text>
</a>
</g>
</g>
<!-- Node8&#45;&gt;Node9 -->
<g id="edge9_Node000008_Node000009" class="edge">
<title>Node8&#45;&gt;Node9</title>
<g id="a_edge9_Node000008_Node000009"><a xlink:title=" ">
<path fill="none" stroke="#63b8ff" d="M824.23,-166.08C766.97,-151.01 698.16,-132.84 691.5,-130.75 688.66,-129.86 685.77,-128.92 682.85,-127.96"/>
<polygon fill="#63b8ff" stroke="#63b8ff" points="823.12,-169.4 833.68,-168.56 824.9,-162.63 823.12,-169.4"/>
</a>
</g>
</g>
<!-- Node10 -->
<g id="Node000010" class="node">
<title>Node10</title>
<g id="a_Node000010"><a xlink:href="callbacks_8cpp.html" target="_top" xlink:title=" ">
<polygon fill="white" stroke="#666666" points="824.12,-125.12 700.88,-125.12 700.88,-83.38 824.12,-83.38 824.12,-125.12"/>
<text text-anchor="start" x="708.88" y="-111.62" font-family="Helvetica,sans-Serif" font-size="10.00">/Users/jonathan/Works</text>
<text text-anchor="start" x="708.88" y="-100.38" font-family="Helvetica,sans-Serif" font-size="10.00">/Tools/Triton/src/libtriton</text>
<text text-anchor="middle" x="762.5" y="-89.12" font-family="Helvetica,sans-Serif" font-size="10.00">/callbacks/callbacks.cpp</text>
</a>
</g>
</g>
<!-- Node8&#45;&gt;Node10 -->
<g id="edge10_Node000008_Node000010" class="edge">
<title>Node8&#45;&gt;Node10</title>
<g id="a_edge10_Node000008_Node000010"><a xlink:title=" ">
<path fill="none" stroke="#63b8ff" d="M857.66,-160.56C838.19,-149.24 815.72,-136.18 797.51,-125.6"/>
<polygon fill="#63b8ff" stroke="#63b8ff" points="855.82,-163.54 866.22,-165.54 859.34,-157.49 855.82,-163.54"/>
</a>
</g>
</g>
<!-- Node11 -->
<g id="Node000011" class="node">
<title>Node11</title>
<g id="a_Node000011"><a xlink:href="context_8cpp.html" target="_top" xlink:title=" ">
<polygon fill="white" stroke="#666666" points="963,-125.12 842,-125.12 842,-83.38 963,-83.38 963,-125.12"/>
<text text-anchor="start" x="850" y="-111.62" font-family="Helvetica,sans-Serif" font-size="10.00">/Users/jonathan/Works</text>
<text text-anchor="start" x="850" y="-100.38" font-family="Helvetica,sans-Serif" font-size="10.00">/Tools/Triton/src/libtriton</text>
<text text-anchor="middle" x="902.5" y="-89.12" font-family="Helvetica,sans-Serif" font-size="10.00">/context/context.cpp</text>
</a>
</g>
</g>
<!-- Node8&#45;&gt;Node11 -->
<g id="edge11_Node000008_Node000011" class="edge">
<title>Node8&#45;&gt;Node11</title>
<g id="a_edge11_Node000008_Node000011"><a xlink:title=" ">
<path fill="none" stroke="#63b8ff" d="M902.5,-155.27C902.5,-145.24 902.5,-134.42 902.5,-125.42"/>
<polygon fill="#63b8ff" stroke="#63b8ff" points="899,-155 902.5,-165 906,-155 899,-155"/>
</a>
</g>
</g>
<!-- Node12 -->
<g id="Node000012" class="node">
<title>Node12</title>
<g id="a_Node000012"><a xlink:href="symbolicSimplification_8cpp.html" target="_top" xlink:title=" ">
<polygon fill="white" stroke="#666666" points="1195.5,-125.12 981.5,-125.12 981.5,-83.38 1195.5,-83.38 1195.5,-125.12"/>
<text text-anchor="start" x="989.5" y="-111.62" font-family="Helvetica,sans-Serif" font-size="10.00">/Users/jonathan/Works</text>
<text text-anchor="start" x="989.5" y="-100.38" font-family="Helvetica,sans-Serif" font-size="10.00">/Tools/Triton/src/libtriton</text>
<text text-anchor="middle" x="1088.5" y="-89.12" font-family="Helvetica,sans-Serif" font-size="10.00">/engines/symbolic/symbolicSimplification.cpp</text>
</a>
</g>
</g>
<!-- Node8&#45;&gt;Node12 -->
<g id="edge12_Node000008_Node000012" class="edge">
<title>Node8&#45;&gt;Node12</title>
<g id="a_edge12_Node000008_Node000012"><a xlink:title=" ">
<path fill="none" stroke="#63b8ff" d="M959.24,-161.8C985.74,-150.21 1016.91,-136.57 1041.99,-125.6"/>
<polygon fill="#63b8ff" stroke="#63b8ff" points="958.1,-158.48 950.34,-165.69 960.91,-164.89 958.1,-158.48"/>
</a>
</g>
</g>
<!-- Node13 -->
<g id="Node000013" class="node">
<title>Node13</title>
<g id="a_Node000013"><a xlink:href="llvmToTriton_8hpp.html" target="_top" xlink:title=" ">
<polygon fill="white" stroke="#666666" points="1367.88,-125.12 1213.12,-125.12 1213.12,-83.38 1367.88,-83.38 1367.88,-125.12"/>
<text text-anchor="start" x="1221.12" y="-111.62" font-family="Helvetica,sans-Serif" font-size="10.00">/Users/jonathan/Works</text>
<text text-anchor="start" x="1221.12" y="-100.38" font-family="Helvetica,sans-Serif" font-size="10.00">/Tools/Triton/src/libtriton</text>
<text text-anchor="middle" x="1290.5" y="-89.12" font-family="Helvetica,sans-Serif" font-size="10.00">/includes/triton/llvmToTriton.hpp</text>
</a>
</g>
</g>
<!-- Node8&#45;&gt;Node13 -->
<g id="edge13_Node000008_Node000013" class="edge">
<title>Node8&#45;&gt;Node13</title>
<g id="a_edge13_Node000008_Node000013"><a xlink:title=" ">
<path fill="none" stroke="#63b8ff" d="M980.92,-174.44C1042.17,-164.37 1129.21,-148.82 1204.5,-130.75 1211.01,-129.19 1217.76,-127.43 1224.49,-125.59"/>
<polygon fill="#63b8ff" stroke="#63b8ff" points="980.6,-170.95 971.29,-176.02 981.73,-177.86 980.6,-170.95"/>
</a>
</g>
</g>
<!-- Node14 -->
<g id="Node000014" class="node">
<title>Node14</title>
<g id="a_Node000014"><a xlink:href="llvmToTriton_8cpp.html" target="_top" xlink:title=" ">
<polygon fill="white" stroke="#666666" points="1273.75,-41.75 1145.25,-41.75 1145.25,0 1273.75,0 1273.75,-41.75"/>
<text text-anchor="start" x="1153.25" y="-28.25" font-family="Helvetica,sans-Serif" font-size="10.00">/Users/jonathan/Works</text>
<text text-anchor="start" x="1153.25" y="-17" font-family="Helvetica,sans-Serif" font-size="10.00">/Tools/Triton/src/libtriton</text>
<text text-anchor="middle" x="1209.5" y="-5.75" font-family="Helvetica,sans-Serif" font-size="10.00">/ast/llvm/llvmToTriton.cpp</text>
</a>
</g>
</g>
<!-- Node13&#45;&gt;Node14 -->
<g id="edge14_Node000013_Node000014" class="edge">
<title>Node13&#45;&gt;Node14</title>
<g id="a_edge14_Node000013_Node000014"><a xlink:title=" ">
<path fill="none" stroke="#63b8ff" d="M1262.51,-75.13C1251.67,-64.24 1239.51,-52.02 1229.57,-42.04"/>
<polygon fill="#63b8ff" stroke="#63b8ff" points="1259.87,-77.44 1269.41,-82.06 1264.84,-72.51 1259.87,-77.44"/>
</a>
</g>
</g>
<!-- Node15 -->
<g id="Node000015" class="node">
<title>Node15</title>
<g id="a_Node000015"><a xlink:href="liftingToLLVM_8cpp.html" target="_top" xlink:title=" ">
<polygon fill="white" stroke="#666666" points="1451.5,-41.75 1291.5,-41.75 1291.5,0 1451.5,0 1451.5,-41.75"/>
<text text-anchor="start" x="1299.5" y="-28.25" font-family="Helvetica,sans-Serif" font-size="10.00">/Users/jonathan/Works</text>
<text text-anchor="start" x="1299.5" y="-17" font-family="Helvetica,sans-Serif" font-size="10.00">/Tools/Triton/src/libtriton</text>
<text text-anchor="middle" x="1371.5" y="-5.75" font-family="Helvetica,sans-Serif" font-size="10.00">/engines/lifters/liftingToLLVM.cpp</text>
</a>
</g>
</g>
<!-- Node13&#45;&gt;Node15 -->
<g id="edge15_Node000013_Node000015" class="edge">
<title>Node13&#45;&gt;Node15</title>
<g id="a_edge15_Node000013_Node000015"><a xlink:title=" ">
<path fill="none" stroke="#63b8ff" d="M1318.49,-75.13C1329.33,-64.24 1341.49,-52.02 1351.43,-42.04"/>
<polygon fill="#63b8ff" stroke="#63b8ff" points="1316.16,-72.51 1311.59,-82.06 1321.13,-77.44 1316.16,-72.51"/>
</a>
</g>
</g>
<!-- Node16&#45;&gt;Node5 -->
<g id="edge17_Node000016_Node000005" class="edge">
<title>Node16&#45;&gt;Node5</title>
<g id="a_edge17_Node000016_Node000005"><a xlink:title=" ">
<path fill="none" stroke="#63b8ff" d="M740.01,-240.16C712.42,-230.11 680.76,-218.58 654.39,-208.98"/>
<polygon fill="#63b8ff" stroke="#63b8ff" points="738.74,-243.42 749.34,-243.56 741.14,-236.85 738.74,-243.42"/>
</a>
</g>
</g>
<!-- Node16&#45;&gt;Node8 -->
<g id="edge18_Node000016_Node000008" class="edge">
<title>Node16&#45;&gt;Node8</title>
<g id="a_edge18_Node000016_Node000008"><a xlink:title=" ">
<path fill="none" stroke="#63b8ff" d="M840.96,-237.19C852.74,-227.89 865.72,-217.65 876.7,-208.98"/>
<polygon fill="#63b8ff" stroke="#63b8ff" points="839.1,-234.2 833.41,-243.14 843.43,-239.69 839.1,-234.2"/>
</a>
</g>
</g>
<!-- Node17&#45;&gt;Node5 -->
<g id="edge20_Node000017_Node000005" class="edge">
<title>Node17&#45;&gt;Node5</title>
<g id="a_edge20_Node000017_Node000005"><a xlink:title=" ">
<path fill="none" stroke="#63b8ff" d="M622.54,-234.15C618.08,-225.7 613.33,-216.71 609.25,-208.98"/>
<polygon fill="#63b8ff" stroke="#63b8ff" points="619.31,-235.53 627.07,-242.74 625.5,-232.26 619.31,-235.53"/>
</a>
</g>
</g>
<!-- Node18 -->
<g id="Node000018" class="node">
<title>Node18</title>
<g id="a_Node000018"><a xlink:href="x86Semantics_8cpp.html" target="_top" xlink:title=" ">
<polygon fill="white" stroke="#666666" points="817.75,-208.5 677.25,-208.5 677.25,-166.75 817.75,-166.75 817.75,-208.5"/>
<text text-anchor="start" x="685.25" y="-195" font-family="Helvetica,sans-Serif" font-size="10.00">/Users/jonathan/Works</text>
<text text-anchor="start" x="685.25" y="-183.75" font-family="Helvetica,sans-Serif" font-size="10.00">/Tools/Triton/src/libtriton</text>
<text text-anchor="middle" x="747.5" y="-172.5" font-family="Helvetica,sans-Serif" font-size="10.00">/arch/x86/x86Semantics.cpp</text>
</a>
</g>
</g>
<!-- Node17&#45;&gt;Node18 -->
<g id="edge21_Node000017_Node000018" class="edge">
<title>Node17&#45;&gt;Node18</title>
<g id="a_edge21_Node000017_Node000018"><a xlink:title=" ">
<path fill="none" stroke="#63b8ff" d="M676.84,-237.73C690.43,-228.29 705.49,-217.82 718.21,-208.98"/>
<polygon fill="#63b8ff" stroke="#63b8ff" points="675.17,-234.63 668.95,-243.21 679.16,-240.38 675.17,-234.63"/>
</a>
</g>
</g>
</g>
</svg>
