<?xml version="1.0" encoding="UTF-8" standalone="no"?>
<!DOCTYPE svg PUBLIC "-//W3C//DTD SVG 1.1//EN"
 "http://www.w3.org/Graphics/SVG/1.1/DTD/svg11.dtd">
<!-- Generated by graphviz version 7.0.0 (20221023.0053)
 -->
<!-- Title: /Users/jonathan/Works/Tools/Triton/src/libtriton/includes/triton/taintEngine.hpp Pages: 1 -->
<svg width="1468pt" height="368pt"
 viewBox="0.00 0.00 1467.50 368.00" xmlns="http://www.w3.org/2000/svg" xmlns:xlink="http://www.w3.org/1999/xlink">
<g id="graph0" class="graph" transform="scale(1 1) rotate(0) translate(4 364)">
<title>/Users/jonathan/Works/Tools/Triton/src/libtriton/includes/triton/taintEngine.hpp</title>
<!-- Node1 -->
<g id="node1" class="node">
<title>Node1</title>
<g id="a_node1"><a xlink:title=" ">
<polygon fill="#999999" stroke="#666666" points="623.5,-360 472.5,-360 472.5,-319 623.5,-319 623.5,-360"/>
<text text-anchor="start" x="480.5" y="-348" font-family="Helvetica,sans-Serif" font-size="10.00">/Users/jonathan/Works</text>
<text text-anchor="start" x="480.5" y="-337" font-family="Helvetica,sans-Serif" font-size="10.00">/Tools/Triton/src/libtriton</text>
<text text-anchor="middle" x="548" y="-326" font-family="Helvetica,sans-Serif" font-size="10.00">/includes/triton/taintEngine.hpp</text>
</a>
</g>
</g>
<!-- Node2 -->
<g id="node2" class="node">
<title>Node2</title>
<g id="a_node2"><a xlink:href="taintEngine_8cpp.html" target="_top" xlink:title=" ">
<polygon fill="white" stroke="#666666" points="146,-283 0,-283 0,-242 146,-242 146,-283"/>
<text text-anchor="start" x="8" y="-271" font-family="Helvetica,sans-Serif" font-size="10.00">/Users/jonathan/Works</text>
<text text-anchor="start" x="8" y="-260" font-family="Helvetica,sans-Serif" font-size="10.00">/Tools/Triton/src/libtriton</text>
<text text-anchor="middle" x="73" y="-249" font-family="Helvetica,sans-Serif" font-size="10.00">/engines/taint/taintEngine.cpp</text>
</a>
</g>
</g>
<!-- Node1&#45;&gt;Node2 -->
<g id="edge1" class="edge">
<title>Node1&#45;&gt;Node2</title>
<path fill="none" stroke="#63b8ff" d="M461.33,-328.61C381.44,-318.95 259.76,-302.81 155,-283 152.12,-282.46 149.2,-281.88 146.25,-281.28"/>
<polygon fill="#63b8ff" stroke="#63b8ff" points="460.47,-332.04 470.81,-329.75 461.3,-325.09 460.47,-332.04"/>
</g>
<!-- Node3 -->
<g id="node3" class="node">
<title>Node3</title>
<g id="a_node3"><a xlink:href="aarch64Semantics_8hpp.html" target="_top" xlink:title=" ">
<polygon fill="white" stroke="#666666" points="347.5,-283 164.5,-283 164.5,-242 347.5,-242 347.5,-283"/>
<text text-anchor="start" x="172.5" y="-271" font-family="Helvetica,sans-Serif" font-size="10.00">/Users/jonathan/Works</text>
<text text-anchor="start" x="172.5" y="-260" font-family="Helvetica,sans-Serif" font-size="10.00">/Tools/Triton/src/libtriton</text>
<text text-anchor="middle" x="256" y="-249" font-family="Helvetica,sans-Serif" font-size="10.00">/includes/triton/aarch64Semantics.hpp</text>
</a>
</g>
</g>
<!-- Node1&#45;&gt;Node3 -->
<g id="edge2" class="edge">
<title>Node1&#45;&gt;Node3</title>
<path fill="none" stroke="#63b8ff" d="M461.13,-316.19C420.73,-305.81 373.07,-293.57 333.86,-283.5"/>
<polygon fill="#63b8ff" stroke="#63b8ff" points="460.02,-319.52 470.58,-318.61 461.76,-312.74 460.02,-319.52"/>
</g>
<!-- Node6 -->
<g id="node6" class="node">
<title>Node6</title>
<g id="a_node6"><a xlink:href="arm32Semantics_8hpp.html" target="_top" xlink:title=" ">
<polygon fill="white" stroke="#666666" points="542,-283 366,-283 366,-242 542,-242 542,-283"/>
<text text-anchor="start" x="374" y="-271" font-family="Helvetica,sans-Serif" font-size="10.00">/Users/jonathan/Works</text>
<text text-anchor="start" x="374" y="-260" font-family="Helvetica,sans-Serif" font-size="10.00">/Tools/Triton/src/libtriton</text>
<text text-anchor="middle" x="454" y="-249" font-family="Helvetica,sans-Serif" font-size="10.00">/includes/triton/arm32Semantics.hpp</text>
</a>
</g>
</g>
<!-- Node1&#45;&gt;Node6 -->
<g id="edge5" class="edge">
<title>Node1&#45;&gt;Node6</title>
<path fill="none" stroke="#63b8ff" d="M514.6,-311.85C502.82,-302.45 489.8,-292.07 478.86,-283.33"/>
<polygon fill="#63b8ff" stroke="#63b8ff" points="512.12,-314.35 522.12,-317.85 516.49,-308.88 512.12,-314.35"/>
</g>
<!-- Node8 -->
<g id="node8" class="node">
<title>Node8</title>
<g id="a_node8"><a xlink:href="context_8hpp.html" target="_top" xlink:title=" ">
<polygon fill="white" stroke="#666666" points="975,-206 841,-206 841,-165 975,-165 975,-206"/>
<text text-anchor="start" x="849" y="-194" font-family="Helvetica,sans-Serif" font-size="10.00">/Users/jonathan/Works</text>
<text text-anchor="start" x="849" y="-183" font-family="Helvetica,sans-Serif" font-size="10.00">/Tools/Triton/src/libtriton</text>
<text text-anchor="middle" x="908" y="-172" font-family="Helvetica,sans-Serif" font-size="10.00">/includes/triton/context.hpp</text>
</a>
</g>
</g>
<!-- Node1&#45;&gt;Node8 -->
<g id="edge8" class="edge">
<title>Node1&#45;&gt;Node8</title>
<path fill="none" stroke="#63b8ff" d="M635.06,-335.38C723.93,-330.33 853.69,-317.16 889,-283 909.49,-263.17 911.34,-228.15 910.14,-206.19"/>
<polygon fill="#63b8ff" stroke="#63b8ff" points="634.93,-331.88 625.14,-335.92 635.31,-338.87 634.93,-331.88"/>
</g>
<!-- Node16 -->
<g id="node16" class="node">
<title>Node16</title>
<g id="a_node16"><a xlink:href="irBuilder_8hpp.html" target="_top" xlink:title=" ">
<polygon fill="white" stroke="#666666" points="879.5,-283 742.5,-283 742.5,-242 879.5,-242 879.5,-283"/>
<text text-anchor="start" x="750.5" y="-271" font-family="Helvetica,sans-Serif" font-size="10.00">/Users/jonathan/Works</text>
<text text-anchor="start" x="750.5" y="-260" font-family="Helvetica,sans-Serif" font-size="10.00">/Tools/Triton/src/libtriton</text>
<text text-anchor="middle" x="811" y="-249" font-family="Helvetica,sans-Serif" font-size="10.00">/includes/triton/irBuilder.hpp</text>
</a>
</g>
</g>
<!-- Node1&#45;&gt;Node16 -->
<g id="edge16" class="edge">
<title>Node1&#45;&gt;Node16</title>
<path fill="none" stroke="#63b8ff" d="M628.84,-315.45C665.14,-305.1 707.51,-293.01 742.25,-283.1"/>
<polygon fill="#63b8ff" stroke="#63b8ff" points="627.9,-312.07 619.24,-318.18 629.82,-318.81 627.9,-312.07"/>
</g>
<!-- Node17 -->
<g id="node17" class="node">
<title>Node17</title>
<g id="a_node17"><a xlink:href="x86Semantics_8hpp.html" target="_top" xlink:title=" ">
<polygon fill="white" stroke="#666666" points="724,-283 560,-283 560,-242 724,-242 724,-283"/>
<text text-anchor="start" x="568" y="-271" font-family="Helvetica,sans-Serif" font-size="10.00">/Users/jonathan/Works</text>
<text text-anchor="start" x="568" y="-260" font-family="Helvetica,sans-Serif" font-size="10.00">/Tools/Triton/src/libtriton</text>
<text text-anchor="middle" x="642" y="-249" font-family="Helvetica,sans-Serif" font-size="10.00">/includes/triton/x86Semantics.hpp</text>
</a>
</g>
</g>
<!-- Node1&#45;&gt;Node17 -->
<g id="edge19" class="edge">
<title>Node1&#45;&gt;Node17</title>
<path fill="none" stroke="#63b8ff" d="M581.4,-311.85C593.18,-302.45 606.2,-292.07 617.14,-283.33"/>
<polygon fill="#63b8ff" stroke="#63b8ff" points="579.51,-308.88 573.88,-317.85 583.88,-314.35 579.51,-308.88"/>
</g>
<!-- Node4 -->
<g id="node4" class="node">
<title>Node4</title>
<g id="a_node4"><a xlink:href="aarch64Semantics_8cpp.html" target="_top" xlink:title=" ">
<polygon fill="white" stroke="#666666" points="321,-206 123,-206 123,-165 321,-165 321,-206"/>
<text text-anchor="start" x="131" y="-194" font-family="Helvetica,sans-Serif" font-size="10.00">/Users/jonathan/Works</text>
<text text-anchor="start" x="131" y="-183" font-family="Helvetica,sans-Serif" font-size="10.00">/Tools/Triton/src/libtriton</text>
<text text-anchor="middle" x="222" y="-172" font-family="Helvetica,sans-Serif" font-size="10.00">/arch/arm/aarch64/aarch64Semantics.cpp</text>
</a>
</g>
</g>
<!-- Node3&#45;&gt;Node4 -->
<g id="edge3" class="edge">
<title>Node3&#45;&gt;Node4</title>
<path fill="none" stroke="#63b8ff" d="M242.4,-231.5C238.56,-223.03 234.48,-214.04 230.99,-206.33"/>
<polygon fill="#63b8ff" stroke="#63b8ff" points="239.13,-232.75 246.44,-240.42 245.5,-229.86 239.13,-232.75"/>
</g>
<!-- Node5 -->
<g id="node5" class="node">
<title>Node5</title>
<g id="a_node5"><a xlink:href="irBuilder_8cpp.html" target="_top" xlink:title=" ">
<polygon fill="white" stroke="#666666" points="663,-206 541,-206 541,-165 663,-165 663,-206"/>
<text text-anchor="start" x="549" y="-194" font-family="Helvetica,sans-Serif" font-size="10.00">/Users/jonathan/Works</text>
<text text-anchor="start" x="549" y="-183" font-family="Helvetica,sans-Serif" font-size="10.00">/Tools/Triton/src/libtriton</text>
<text text-anchor="middle" x="602" y="-172" font-family="Helvetica,sans-Serif" font-size="10.00">/arch/irBuilder.cpp</text>
</a>
</g>
</g>
<!-- Node3&#45;&gt;Node5 -->
<g id="edge4" class="edge">
<title>Node3&#45;&gt;Node5</title>
<path fill="none" stroke="#63b8ff" d="M358.88,-241.5C422.78,-228.93 498.69,-213.69 531,-206 534.23,-205.23 537.54,-204.42 540.88,-203.57"/>
<polygon fill="#63b8ff" stroke="#63b8ff" points="358.54,-238 349.41,-243.36 359.89,-244.87 358.54,-238"/>
</g>
<!-- Node6&#45;&gt;Node5 -->
<g id="edge7" class="edge">
<title>Node6&#45;&gt;Node5</title>
<path fill="none" stroke="#63b8ff" d="M503.37,-236.48C522.62,-226.73 544.37,-215.7 562.54,-206.49"/>
<polygon fill="#63b8ff" stroke="#63b8ff" points="501.96,-233.27 494.62,-240.91 505.12,-239.52 501.96,-233.27"/>
</g>
<!-- Node7 -->
<g id="node7" class="node">
<title>Node7</title>
<g id="a_node7"><a xlink:href="arm32Semantics_8cpp.html" target="_top" xlink:title=" ">
<polygon fill="white" stroke="#666666" points="522.5,-206 339.5,-206 339.5,-165 522.5,-165 522.5,-206"/>
<text text-anchor="start" x="347.5" y="-194" font-family="Helvetica,sans-Serif" font-size="10.00">/Users/jonathan/Works</text>
<text text-anchor="start" x="347.5" y="-183" font-family="Helvetica,sans-Serif" font-size="10.00">/Tools/Triton/src/libtriton</text>
<text text-anchor="middle" x="431" y="-172" font-family="Helvetica,sans-Serif" font-size="10.00">/arch/arm/arm32/arm32Semantics.cpp</text>
</a>
</g>
</g>
<!-- Node6&#45;&gt;Node7 -->
<g id="edge6" class="edge">
<title>Node6&#45;&gt;Node7</title>
<path fill="none" stroke="#63b8ff" d="M444.63,-230.93C442.08,-222.63 439.39,-213.87 437.08,-206.33"/>
<polygon fill="#63b8ff" stroke="#63b8ff" points="441.24,-231.81 447.51,-240.35 447.93,-229.76 441.24,-231.81"/>
</g>
<!-- Node9 -->
<g id="node9" class="node">
<title>Node9</title>
<g id="a_node9"><a xlink:href="pyTritonContext_8cpp.html" target="_top" xlink:title=" ">
<polygon fill="white" stroke="#666666" points="687,-129 565,-129 565,-77 687,-77 687,-129"/>
<text text-anchor="start" x="573" y="-117" font-family="Helvetica,sans-Serif" font-size="10.00">/Users/jonathan/Works</text>
<text text-anchor="start" x="573" y="-106" font-family="Helvetica,sans-Serif" font-size="10.00">/Tools/Triton/src/libtriton</text>
<text text-anchor="start" x="573" y="-95" font-family="Helvetica,sans-Serif" font-size="10.00">/bindings/python/objects</text>
<text text-anchor="middle" x="626" y="-84" font-family="Helvetica,sans-Serif" font-size="10.00">/pyTritonContext.cpp</text>
</a>
</g>
</g>
<!-- Node8&#45;&gt;Node9 -->
<g id="edge9" class="edge">
<title>Node8&#45;&gt;Node9</title>
<path fill="none" stroke="#63b8ff" d="M829.37,-164.27C774.6,-150.11 709.09,-133.04 696,-129 693.16,-128.12 690.27,-127.2 687.36,-126.25"/>
<polygon fill="#63b8ff" stroke="#63b8ff" points="828.5,-167.66 839.05,-166.77 830.25,-160.88 828.5,-167.66"/>
</g>
<!-- Node10 -->
<g id="node10" class="node">
<title>Node10</title>
<g id="a_node10"><a xlink:href="callbacks_8cpp.html" target="_top" xlink:title=" ">
<polygon fill="white" stroke="#666666" points="829,-123.5 705,-123.5 705,-82.5 829,-82.5 829,-123.5"/>
<text text-anchor="start" x="713" y="-111.5" font-family="Helvetica,sans-Serif" font-size="10.00">/Users/jonathan/Works</text>
<text text-anchor="start" x="713" y="-100.5" font-family="Helvetica,sans-Serif" font-size="10.00">/Tools/Triton/src/libtriton</text>
<text text-anchor="middle" x="767" y="-89.5" font-family="Helvetica,sans-Serif" font-size="10.00">/callbacks/callbacks.cpp</text>
</a>
</g>
</g>
<!-- Node8&#45;&gt;Node10 -->
<g id="edge10" class="edge">
<title>Node8&#45;&gt;Node10</title>
<path fill="none" stroke="#63b8ff" d="M863.39,-159.03C843.54,-147.7 820.51,-134.55 801.94,-123.95"/>
<polygon fill="#63b8ff" stroke="#63b8ff" points="861.41,-161.93 871.83,-163.85 864.88,-155.85 861.41,-161.93"/>
</g>
<!-- Node11 -->
<g id="node11" class="node">
<title>Node11</title>
<g id="a_node11"><a xlink:href="context_8cpp.html" target="_top" xlink:title=" ">
<polygon fill="white" stroke="#666666" points="969,-123.5 847,-123.5 847,-82.5 969,-82.5 969,-123.5"/>
<text text-anchor="start" x="855" y="-111.5" font-family="Helvetica,sans-Serif" font-size="10.00">/Users/jonathan/Works</text>
<text text-anchor="start" x="855" y="-100.5" font-family="Helvetica,sans-Serif" font-size="10.00">/Tools/Triton/src/libtriton</text>
<text text-anchor="middle" x="908" y="-89.5" font-family="Helvetica,sans-Serif" font-size="10.00">/context/context.cpp</text>
</a>
</g>
</g>
<!-- Node8&#45;&gt;Node11 -->
<g id="edge11" class="edge">
<title>Node8&#45;&gt;Node11</title>
<path fill="none" stroke="#63b8ff" d="M908,-153.16C908,-143.33 908,-132.76 908,-123.95"/>
<polygon fill="#63b8ff" stroke="#63b8ff" points="904.5,-153.09 908,-163.09 911.5,-153.09 904.5,-153.09"/>
</g>
<!-- Node12 -->
<g id="node12" class="node">
<title>Node12</title>
<g id="a_node12"><a xlink:href="symbolicSimplification_8cpp.html" target="_top" xlink:title=" ">
<polygon fill="white" stroke="#666666" points="1202.5,-123.5 987.5,-123.5 987.5,-82.5 1202.5,-82.5 1202.5,-123.5"/>
<text text-anchor="start" x="995.5" y="-111.5" font-family="Helvetica,sans-Serif" font-size="10.00">/Users/jonathan/Works</text>
<text text-anchor="start" x="995.5" y="-100.5" font-family="Helvetica,sans-Serif" font-size="10.00">/Tools/Triton/src/libtriton</text>
<text text-anchor="middle" x="1095" y="-89.5" font-family="Helvetica,sans-Serif" font-size="10.00">/engines/symbolic/symbolicSimplification.cpp</text>
</a>
</g>
</g>
<!-- Node8&#45;&gt;Node12 -->
<g id="edge12" class="edge">
<title>Node8&#45;&gt;Node12</title>
<path fill="none" stroke="#63b8ff" d="M964.65,-160.11C991.53,-148.54 1023.24,-134.89 1048.66,-123.95"/>
<polygon fill="#63b8ff" stroke="#63b8ff" points="963.42,-156.83 955.61,-164 966.18,-163.26 963.42,-156.83"/>
</g>
<!-- Node13 -->
<g id="node13" class="node">
<title>Node13</title>
<g id="a_node13"><a xlink:href="llvmToTriton_8hpp.html" target="_top" xlink:title=" ">
<polygon fill="white" stroke="#666666" points="1375.5,-123.5 1220.5,-123.5 1220.5,-82.5 1375.5,-82.5 1375.5,-123.5"/>
<text text-anchor="start" x="1228.5" y="-111.5" font-family="Helvetica,sans-Serif" font-size="10.00">/Users/jonathan/Works</text>
<text text-anchor="start" x="1228.5" y="-100.5" font-family="Helvetica,sans-Serif" font-size="10.00">/Tools/Triton/src/libtriton</text>
<text text-anchor="middle" x="1298" y="-89.5" font-family="Helvetica,sans-Serif" font-size="10.00">/includes/triton/llvmToTriton.hpp</text>
</a>
</g>
</g>
<!-- Node8&#45;&gt;Node13 -->
<g id="edge13" class="edge">
<title>Node8&#45;&gt;Node13</title>
<path fill="none" stroke="#63b8ff" d="M986.62,-172.42C1048.27,-162.39 1136.05,-146.92 1212,-129 1218.51,-127.46 1225.25,-125.74 1231.98,-123.93"/>
<polygon fill="#63b8ff" stroke="#63b8ff" points="986.23,-168.93 976.92,-173.98 987.35,-175.84 986.23,-168.93"/>
</g>
<!-- Node14 -->
<g id="node14" class="node">
<title>Node14</title>
<g id="a_node14"><a xlink:href="llvmToTriton_8cpp.html" target="_top" xlink:title=" ">
<polygon fill="white" stroke="#666666" points="1280.5,-41 1151.5,-41 1151.5,0 1280.5,0 1280.5,-41"/>
<text text-anchor="start" x="1159.5" y="-29" font-family="Helvetica,sans-Serif" font-size="10.00">/Users/jonathan/Works</text>
<text text-anchor="start" x="1159.5" y="-18" font-family="Helvetica,sans-Serif" font-size="10.00">/Tools/Triton/src/libtriton</text>
<text text-anchor="middle" x="1216" y="-7" font-family="Helvetica,sans-Serif" font-size="10.00">/ast/llvm/llvmToTriton.cpp</text>
</a>
</g>
</g>
<!-- Node13&#45;&gt;Node14 -->
<g id="edge14" class="edge">
<title>Node13&#45;&gt;Node14</title>
<path fill="none" stroke="#63b8ff" d="M1269.66,-74.18C1258.69,-63.41 1246.38,-51.33 1236.32,-41.45"/>
<polygon fill="#63b8ff" stroke="#63b8ff" points="1267.06,-76.53 1276.65,-81.04 1271.97,-71.54 1267.06,-76.53"/>
</g>
<!-- Node15 -->
<g id="node15" class="node">
<title>Node15</title>
<g id="a_node15"><a xlink:href="liftingToLLVM_8cpp.html" target="_top" xlink:title=" ">
<polygon fill="white" stroke="#666666" points="1459.5,-41 1298.5,-41 1298.5,0 1459.5,0 1459.5,-41"/>
<text text-anchor="start" x="1306.5" y="-29" font-family="Helvetica,sans-Serif" font-size="10.00">/Users/jonathan/Works</text>
<text text-anchor="start" x="1306.5" y="-18" font-family="Helvetica,sans-Serif" font-size="10.00">/Tools/Triton/src/libtriton</text>
<text text-anchor="middle" x="1379" y="-7" font-family="Helvetica,sans-Serif" font-size="10.00">/engines/lifters/liftingToLLVM.cpp</text>
</a>
</g>
</g>
<!-- Node13&#45;&gt;Node15 -->
<g id="edge15" class="edge">
<title>Node13&#45;&gt;Node15</title>
<path fill="none" stroke="#63b8ff" d="M1325.99,-74.18C1336.83,-63.41 1348.99,-51.33 1358.93,-41.45"/>
<polygon fill="#63b8ff" stroke="#63b8ff" points="1323.72,-71.5 1319.1,-81.03 1328.66,-76.47 1323.72,-71.5"/>
</g>
<!-- Node16&#45;&gt;Node5 -->
<g id="edge17" class="edge">
<title>Node16&#45;&gt;Node5</title>
<path fill="none" stroke="#63b8ff" d="M745.01,-237.82C716.94,-227.75 684.56,-216.13 657.72,-206.49"/>
<polygon fill="#63b8ff" stroke="#63b8ff" points="743.52,-241 754.12,-241.09 745.89,-234.42 743.52,-241"/>
</g>
<!-- Node16&#45;&gt;Node8 -->
<g id="edge18" class="edge">
<title>Node16&#45;&gt;Node8</title>
<path fill="none" stroke="#63b8ff" d="M845.64,-234.71C857.67,-225.41 870.94,-215.15 882.14,-206.49"/>
<polygon fill="#63b8ff" stroke="#63b8ff" points="843.71,-231.79 837.94,-240.67 847.99,-237.32 843.71,-231.79"/>
</g>
<!-- Node17&#45;&gt;Node5 -->
<g id="edge20" class="edge">
<title>Node17&#45;&gt;Node5</title>
<path fill="none" stroke="#63b8ff" d="M626.15,-231.78C621.59,-223.23 616.73,-214.12 612.58,-206.33"/>
<polygon fill="#63b8ff" stroke="#63b8ff" points="622.98,-233.28 630.78,-240.46 629.16,-229.99 622.98,-233.28"/>
</g>
<!-- Node18 -->
<g id="node18" class="node">
<title>Node18</title>
<g id="a_node18"><a xlink:href="x86Semantics_8cpp.html" target="_top" xlink:title=" ">
<polygon fill="white" stroke="#666666" points="822.5,-206 681.5,-206 681.5,-165 822.5,-165 822.5,-206"/>
<text text-anchor="start" x="689.5" y="-194" font-family="Helvetica,sans-Serif" font-size="10.00">/Users/jonathan/Works</text>
<text text-anchor="start" x="689.5" y="-183" font-family="Helvetica,sans-Serif" font-size="10.00">/Tools/Triton/src/libtriton</text>
<text text-anchor="middle" x="752" y="-172" font-family="Helvetica,sans-Serif" font-size="10.00">/arch/x86/x86Semantics.cpp</text>
</a>
</g>
</g>
<!-- Node17&#45;&gt;Node18 -->
<g id="edge21" class="edge">
<title>Node17&#45;&gt;Node18</title>
<path fill="none" stroke="#63b8ff" d="M680.48,-235.26C694.34,-225.82 709.73,-215.32 722.67,-206.49"/>
<polygon fill="#63b8ff" stroke="#63b8ff" points="678.73,-232.22 672.44,-240.75 682.67,-238 678.73,-232.22"/>
</g>
</g>
</svg>
