<?xml version="1.0" encoding="UTF-8" standalone="no"?>
<!DOCTYPE svg PUBLIC "-//W3C//DTD SVG 1.1//EN"
 "http://www.w3.org/Graphics/SVG/1.1/DTD/svg11.dtd">
<!-- Generated by graphviz version 2.49.0 (20210828.1703)
 -->
<!-- Title: /home/jonathan/Works/Tools/Triton/src/libtriton/includes/triton/taintEngine.hpp Pages: 1 -->
<svg width="1429pt" height="373pt"
 viewBox="0.00 0.00 1429.00 373.00" xmlns="http://www.w3.org/2000/svg" xmlns:xlink="http://www.w3.org/1999/xlink">
<g id="graph0" class="graph" transform="scale(1 1) rotate(0) translate(4 369)">
<title>/home/jonathan/Works/Tools/Triton/src/libtriton/includes/triton/taintEngine.hpp</title>
<polygon fill="white" stroke="transparent" points="-4,4 -4,-369 1425,-369 1425,4 -4,4"/>
<!-- Node1 -->
<g id="node1" class="node">
<title>Node1</title>
<g id="a_node1"><a xlink:title=" ">
<polygon fill="#bfbfbf" stroke="black" points="517.5,-323.5 517.5,-364.5 686.5,-364.5 686.5,-323.5 517.5,-323.5"/>
<text text-anchor="start" x="525.5" y="-352.5" font-family="Helvetica,sans-Serif" font-size="10.00">/home/jonathan/Works</text>
<text text-anchor="start" x="525.5" y="-341.5" font-family="Helvetica,sans-Serif" font-size="10.00">/Tools/Triton/src/libtriton</text>
<text text-anchor="middle" x="602" y="-330.5" font-family="Helvetica,sans-Serif" font-size="10.00">/includes/triton/taintEngine.hpp</text>
</a>
</g>
</g>
<!-- Node2 -->
<g id="node2" class="node">
<title>Node2</title>
<g id="a_node2"><a xlink:href="taintEngine_8cpp.html" target="_top" xlink:title=" ">
<polygon fill="white" stroke="black" points="0,-245.5 0,-286.5 162,-286.5 162,-245.5 0,-245.5"/>
<text text-anchor="start" x="8" y="-274.5" font-family="Helvetica,sans-Serif" font-size="10.00">/home/jonathan/Works</text>
<text text-anchor="start" x="8" y="-263.5" font-family="Helvetica,sans-Serif" font-size="10.00">/Tools/Triton/src/libtriton</text>
<text text-anchor="middle" x="81" y="-252.5" font-family="Helvetica,sans-Serif" font-size="10.00">/engines/taint/taintEngine.cpp</text>
</a>
</g>
</g>
<!-- Node1&#45;&gt;Node2 -->
<g id="edge1" class="edge">
<title>Node1&#45;&gt;Node2</title>
<path fill="none" stroke="midnightblue" d="M507.24,-333.15C419.67,-323.47 286.09,-307.22 171,-287 168.16,-286.5 165.28,-285.97 162.37,-285.42"/>
<polygon fill="midnightblue" stroke="midnightblue" points="507.1,-336.66 517.42,-334.27 507.86,-329.7 507.1,-336.66"/>
</g>
<!-- Node3 -->
<g id="node3" class="node">
<title>Node3</title>
<g id="a_node3"><a xlink:href="aarch64Semantics_8hpp.html" target="_top" xlink:title=" ">
<polygon fill="white" stroke="black" points="180.5,-245.5 180.5,-286.5 383.5,-286.5 383.5,-245.5 180.5,-245.5"/>
<text text-anchor="start" x="188.5" y="-274.5" font-family="Helvetica,sans-Serif" font-size="10.00">/home/jonathan/Works</text>
<text text-anchor="start" x="188.5" y="-263.5" font-family="Helvetica,sans-Serif" font-size="10.00">/Tools/Triton/src/libtriton</text>
<text text-anchor="middle" x="282" y="-252.5" font-family="Helvetica,sans-Serif" font-size="10.00">/includes/triton/aarch64Semantics.hpp</text>
</a>
</g>
</g>
<!-- Node1&#45;&gt;Node3 -->
<g id="edge2" class="edge">
<title>Node1&#45;&gt;Node3</title>
<path fill="none" stroke="midnightblue" d="M509.63,-321.06C463.67,-310.15 408.6,-297.07 364.13,-286.51"/>
<polygon fill="midnightblue" stroke="midnightblue" points="509.05,-324.52 519.59,-323.43 510.67,-317.71 509.05,-324.52"/>
</g>
<!-- Node6 -->
<g id="node6" class="node">
<title>Node6</title>
<g id="a_node6"><a xlink:href="api_8hpp.html" target="_top" xlink:title=" ">
<polygon fill="white" stroke="black" points="930.5,-167.5 930.5,-208.5 1063.5,-208.5 1063.5,-167.5 930.5,-167.5"/>
<text text-anchor="start" x="938.5" y="-196.5" font-family="Helvetica,sans-Serif" font-size="10.00">/home/jonathan/Works</text>
<text text-anchor="start" x="938.5" y="-185.5" font-family="Helvetica,sans-Serif" font-size="10.00">/Tools/Triton/src/libtriton</text>
<text text-anchor="middle" x="997" y="-174.5" font-family="Helvetica,sans-Serif" font-size="10.00">/includes/triton/api.hpp</text>
</a>
</g>
</g>
<!-- Node1&#45;&gt;Node6 -->
<g id="edge5" class="edge">
<title>Node1&#45;&gt;Node6</title>
<path fill="none" stroke="midnightblue" d="M696.86,-341.03C794.84,-336.95 938.8,-324.52 978,-287 999.03,-266.87 1000.64,-230.95 999.26,-208.64"/>
<polygon fill="midnightblue" stroke="midnightblue" points="696.49,-337.54 686.64,-341.44 696.77,-344.54 696.49,-337.54"/>
</g>
<!-- Node13 -->
<g id="node13" class="node">
<title>Node13</title>
<g id="a_node13"><a xlink:href="arm32Semantics_8hpp.html" target="_top" xlink:title=" ">
<polygon fill="white" stroke="black" points="401,-245.5 401,-286.5 597,-286.5 597,-245.5 401,-245.5"/>
<text text-anchor="start" x="409" y="-274.5" font-family="Helvetica,sans-Serif" font-size="10.00">/home/jonathan/Works</text>
<text text-anchor="start" x="409" y="-263.5" font-family="Helvetica,sans-Serif" font-size="10.00">/Tools/Triton/src/libtriton</text>
<text text-anchor="middle" x="499" y="-252.5" font-family="Helvetica,sans-Serif" font-size="10.00">/includes/triton/arm32Semantics.hpp</text>
</a>
</g>
</g>
<!-- Node1&#45;&gt;Node13 -->
<g id="edge12" class="edge">
<title>Node1&#45;&gt;Node13</title>
<path fill="none" stroke="midnightblue" d="M567.24,-317.35C553.58,-307.27 538.16,-295.89 525.44,-286.51"/>
<polygon fill="midnightblue" stroke="midnightblue" points="565.35,-320.31 575.47,-323.43 569.51,-314.67 565.35,-320.31"/>
</g>
<!-- Node15 -->
<g id="node15" class="node">
<title>Node15</title>
<g id="a_node15"><a xlink:href="irBuilder_8hpp.html" target="_top" xlink:title=" ">
<polygon fill="white" stroke="black" points="815,-245.5 815,-286.5 969,-286.5 969,-245.5 815,-245.5"/>
<text text-anchor="start" x="823" y="-274.5" font-family="Helvetica,sans-Serif" font-size="10.00">/home/jonathan/Works</text>
<text text-anchor="start" x="823" y="-263.5" font-family="Helvetica,sans-Serif" font-size="10.00">/Tools/Triton/src/libtriton</text>
<text text-anchor="middle" x="892" y="-252.5" font-family="Helvetica,sans-Serif" font-size="10.00">/includes/triton/irBuilder.hpp</text>
</a>
</g>
</g>
<!-- Node1&#45;&gt;Node15 -->
<g id="edge15" class="edge">
<title>Node1&#45;&gt;Node15</title>
<path fill="none" stroke="midnightblue" d="M686.5,-320.86C727.98,-309.98 777.53,-297 817.57,-286.51"/>
<polygon fill="midnightblue" stroke="midnightblue" points="685.47,-317.51 676.68,-323.43 687.24,-324.28 685.47,-317.51"/>
</g>
<!-- Node16 -->
<g id="node16" class="node">
<title>Node16</title>
<g id="a_node16"><a xlink:href="x86Semantics_8hpp.html" target="_top" xlink:title=" ">
<polygon fill="white" stroke="black" points="615,-245.5 615,-286.5 797,-286.5 797,-245.5 615,-245.5"/>
<text text-anchor="start" x="623" y="-274.5" font-family="Helvetica,sans-Serif" font-size="10.00">/home/jonathan/Works</text>
<text text-anchor="start" x="623" y="-263.5" font-family="Helvetica,sans-Serif" font-size="10.00">/Tools/Triton/src/libtriton</text>
<text text-anchor="middle" x="706" y="-252.5" font-family="Helvetica,sans-Serif" font-size="10.00">/includes/triton/x86Semantics.hpp</text>
</a>
</g>
</g>
<!-- Node1&#45;&gt;Node16 -->
<g id="edge18" class="edge">
<title>Node1&#45;&gt;Node16</title>
<path fill="none" stroke="midnightblue" d="M637.1,-317.35C650.89,-307.27 666.46,-295.89 679.31,-286.51"/>
<polygon fill="midnightblue" stroke="midnightblue" points="634.79,-314.7 628.78,-323.43 638.92,-320.35 634.79,-314.7"/>
</g>
<!-- Node4 -->
<g id="node4" class="node">
<title>Node4</title>
<g id="a_node4"><a xlink:href="aarch64Semantics_8cpp.html" target="_top" xlink:title=" ">
<polygon fill="white" stroke="black" points="149,-167.5 149,-208.5 367,-208.5 367,-167.5 149,-167.5"/>
<text text-anchor="start" x="157" y="-196.5" font-family="Helvetica,sans-Serif" font-size="10.00">/home/jonathan/Works</text>
<text text-anchor="start" x="157" y="-185.5" font-family="Helvetica,sans-Serif" font-size="10.00">/Tools/Triton/src/libtriton</text>
<text text-anchor="middle" x="258" y="-174.5" font-family="Helvetica,sans-Serif" font-size="10.00">/arch/arm/aarch64/aarch64Semantics.cpp</text>
</a>
</g>
</g>
<!-- Node3&#45;&gt;Node4 -->
<g id="edge3" class="edge">
<title>Node3&#45;&gt;Node4</title>
<path fill="none" stroke="midnightblue" d="M272.8,-235.88C269.91,-226.72 266.79,-216.83 264.16,-208.51"/>
<polygon fill="midnightblue" stroke="midnightblue" points="269.47,-236.95 275.82,-245.43 276.15,-234.84 269.47,-236.95"/>
</g>
<!-- Node5 -->
<g id="node5" class="node">
<title>Node5</title>
<g id="a_node5"><a xlink:href="irBuilder_8cpp.html" target="_top" xlink:title=" ">
<polygon fill="white" stroke="black" points="606.5,-167.5 606.5,-208.5 739.5,-208.5 739.5,-167.5 606.5,-167.5"/>
<text text-anchor="start" x="614.5" y="-196.5" font-family="Helvetica,sans-Serif" font-size="10.00">/home/jonathan/Works</text>
<text text-anchor="start" x="614.5" y="-185.5" font-family="Helvetica,sans-Serif" font-size="10.00">/Tools/Triton/src/libtriton</text>
<text text-anchor="middle" x="673" y="-174.5" font-family="Helvetica,sans-Serif" font-size="10.00">/arch/irBuilder.cpp</text>
</a>
</g>
</g>
<!-- Node3&#45;&gt;Node5 -->
<g id="edge4" class="edge">
<title>Node3&#45;&gt;Node5</title>
<path fill="none" stroke="midnightblue" d="M393.52,-244.74C484.75,-228.71 509.72,-228.11 597,-209 600.07,-208.33 603.19,-207.62 606.35,-206.88"/>
<polygon fill="midnightblue" stroke="midnightblue" points="392.82,-241.32 383.58,-246.51 394.04,-248.21 392.82,-241.32"/>
</g>
<!-- Node7 -->
<g id="node7" class="node">
<title>Node7</title>
<g id="a_node7"><a xlink:href="api_8cpp.html" target="_top" xlink:title=" ">
<polygon fill="white" stroke="black" points="700.5,-84 700.5,-125 833.5,-125 833.5,-84 700.5,-84"/>
<text text-anchor="start" x="708.5" y="-113" font-family="Helvetica,sans-Serif" font-size="10.00">/home/jonathan/Works</text>
<text text-anchor="start" x="708.5" y="-102" font-family="Helvetica,sans-Serif" font-size="10.00">/Tools/Triton/src/libtriton</text>
<text text-anchor="middle" x="767" y="-91" font-family="Helvetica,sans-Serif" font-size="10.00">/api/api.cpp</text>
</a>
</g>
</g>
<!-- Node6&#45;&gt;Node7 -->
<g id="edge6" class="edge">
<title>Node6&#45;&gt;Node7</title>
<path fill="none" stroke="midnightblue" d="M932.33,-164.08C897.58,-151.77 855.19,-136.75 822.04,-125"/>
<polygon fill="midnightblue" stroke="midnightblue" points="931.31,-167.44 941.91,-167.48 933.65,-160.84 931.31,-167.44"/>
</g>
<!-- Node8 -->
<g id="node8" class="node">
<title>Node8</title>
<g id="a_node8"><a xlink:href="pyTritonContext_8cpp.html" target="_top" xlink:title=" ">
<polygon fill="white" stroke="black" points="852,-78.5 852,-130.5 988,-130.5 988,-78.5 852,-78.5"/>
<text text-anchor="start" x="860" y="-118.5" font-family="Helvetica,sans-Serif" font-size="10.00">/home/jonathan/Works</text>
<text text-anchor="start" x="860" y="-107.5" font-family="Helvetica,sans-Serif" font-size="10.00">/Tools/Triton/src/libtriton</text>
<text text-anchor="start" x="860" y="-96.5" font-family="Helvetica,sans-Serif" font-size="10.00">/bindings/python/objects</text>
<text text-anchor="middle" x="920" y="-85.5" font-family="Helvetica,sans-Serif" font-size="10.00">/pyTritonContext.cpp</text>
</a>
</g>
</g>
<!-- Node6&#45;&gt;Node8 -->
<g id="edge7" class="edge">
<title>Node6&#45;&gt;Node8</title>
<path fill="none" stroke="midnightblue" d="M971.46,-159.96C962.51,-150.5 952.51,-139.91 943.72,-130.61"/>
<polygon fill="midnightblue" stroke="midnightblue" points="968.95,-162.41 978.36,-167.27 974.04,-157.6 968.95,-162.41"/>
</g>
<!-- Node9 -->
<g id="node9" class="node">
<title>Node9</title>
<g id="a_node9"><a xlink:href="callbacks_8cpp.html" target="_top" xlink:title=" ">
<polygon fill="white" stroke="black" points="1006,-84 1006,-125 1140,-125 1140,-84 1006,-84"/>
<text text-anchor="start" x="1014" y="-113" font-family="Helvetica,sans-Serif" font-size="10.00">/home/jonathan/Works</text>
<text text-anchor="start" x="1014" y="-102" font-family="Helvetica,sans-Serif" font-size="10.00">/Tools/Triton/src/libtriton</text>
<text text-anchor="middle" x="1073" y="-91" font-family="Helvetica,sans-Serif" font-size="10.00">/callbacks/callbacks.cpp</text>
</a>
</g>
</g>
<!-- Node6&#45;&gt;Node9 -->
<g id="edge8" class="edge">
<title>Node6&#45;&gt;Node9</title>
<path fill="none" stroke="midnightblue" d="M1022.45,-159.71C1033.04,-148.36 1045.09,-135.43 1054.77,-125.05"/>
<polygon fill="midnightblue" stroke="midnightblue" points="1019.66,-157.57 1015.4,-167.27 1024.78,-162.34 1019.66,-157.57"/>
</g>
<!-- Node10 -->
<g id="node10" class="node">
<title>Node10</title>
<g id="a_node10"><a xlink:href="llvmToTriton_8hpp.html" target="_top" xlink:title=" ">
<polygon fill="white" stroke="black" points="1158.5,-84 1158.5,-125 1331.5,-125 1331.5,-84 1158.5,-84"/>
<text text-anchor="start" x="1166.5" y="-113" font-family="Helvetica,sans-Serif" font-size="10.00">/home/jonathan/Works</text>
<text text-anchor="start" x="1166.5" y="-102" font-family="Helvetica,sans-Serif" font-size="10.00">/Tools/Triton/src/libtriton</text>
<text text-anchor="middle" x="1245" y="-91" font-family="Helvetica,sans-Serif" font-size="10.00">/includes/triton/llvmToTriton.hpp</text>
</a>
</g>
</g>
<!-- Node6&#45;&gt;Node10 -->
<g id="edge9" class="edge">
<title>Node6&#45;&gt;Node10</title>
<path fill="none" stroke="midnightblue" d="M1066.26,-164.24C1103.81,-151.9 1149.75,-136.8 1185.65,-125"/>
<polygon fill="midnightblue" stroke="midnightblue" points="1064.81,-161.03 1056.4,-167.48 1067,-167.68 1064.81,-161.03"/>
</g>
<!-- Node11 -->
<g id="node11" class="node">
<title>Node11</title>
<g id="a_node11"><a xlink:href="llvmToTriton_8cpp.html" target="_top" xlink:title=" ">
<polygon fill="white" stroke="black" points="1085,-0.5 1085,-41.5 1227,-41.5 1227,-0.5 1085,-0.5"/>
<text text-anchor="start" x="1093" y="-29.5" font-family="Helvetica,sans-Serif" font-size="10.00">/home/jonathan/Works</text>
<text text-anchor="start" x="1093" y="-18.5" font-family="Helvetica,sans-Serif" font-size="10.00">/Tools/Triton/src/libtriton</text>
<text text-anchor="middle" x="1156" y="-7.5" font-family="Helvetica,sans-Serif" font-size="10.00">/ast/llvm/llvmToTriton.cpp</text>
</a>
</g>
</g>
<!-- Node10&#45;&gt;Node11 -->
<g id="edge10" class="edge">
<title>Node10&#45;&gt;Node11</title>
<path fill="none" stroke="midnightblue" d="M1215.91,-76.86C1203.34,-65.35 1188.9,-52.13 1177.35,-41.55"/>
<polygon fill="midnightblue" stroke="midnightblue" points="1213.72,-79.6 1223.46,-83.77 1218.44,-74.44 1213.72,-79.6"/>
</g>
<!-- Node12 -->
<g id="node12" class="node">
<title>Node12</title>
<g id="a_node12"><a xlink:href="liftingToLLVM_8cpp.html" target="_top" xlink:title=" ">
<polygon fill="white" stroke="black" points="1245,-0.5 1245,-41.5 1421,-41.5 1421,-0.5 1245,-0.5"/>
<text text-anchor="start" x="1253" y="-29.5" font-family="Helvetica,sans-Serif" font-size="10.00">/home/jonathan/Works</text>
<text text-anchor="start" x="1253" y="-18.5" font-family="Helvetica,sans-Serif" font-size="10.00">/Tools/Triton/src/libtriton</text>
<text text-anchor="middle" x="1333" y="-7.5" font-family="Helvetica,sans-Serif" font-size="10.00">/engines/lifters/liftingToLLVM.cpp</text>
</a>
</g>
</g>
<!-- Node10&#45;&gt;Node12 -->
<g id="edge11" class="edge">
<title>Node10&#45;&gt;Node12</title>
<path fill="none" stroke="midnightblue" d="M1273.76,-76.86C1286.19,-65.35 1300.47,-52.13 1311.89,-41.55"/>
<polygon fill="midnightblue" stroke="midnightblue" points="1271.26,-74.41 1266.3,-83.77 1276.02,-79.54 1271.26,-74.41"/>
</g>
<!-- Node13&#45;&gt;Node5 -->
<g id="edge14" class="edge">
<title>Node13&#45;&gt;Node5</title>
<path fill="none" stroke="midnightblue" d="M553.19,-241.33C577.34,-230.78 605.43,-218.51 628.34,-208.51"/>
<polygon fill="midnightblue" stroke="midnightblue" points="551.57,-238.22 543.81,-245.43 554.37,-244.63 551.57,-238.22"/>
</g>
<!-- Node14 -->
<g id="node14" class="node">
<title>Node14</title>
<g id="a_node14"><a xlink:href="arm32Semantics_8cpp.html" target="_top" xlink:title=" ">
<polygon fill="white" stroke="black" points="385.5,-167.5 385.5,-208.5 588.5,-208.5 588.5,-167.5 385.5,-167.5"/>
<text text-anchor="start" x="393.5" y="-196.5" font-family="Helvetica,sans-Serif" font-size="10.00">/home/jonathan/Works</text>
<text text-anchor="start" x="393.5" y="-185.5" font-family="Helvetica,sans-Serif" font-size="10.00">/Tools/Triton/src/libtriton</text>
<text text-anchor="middle" x="487" y="-174.5" font-family="Helvetica,sans-Serif" font-size="10.00">/arch/arm/arm32/arm32Semantics.cpp</text>
</a>
</g>
</g>
<!-- Node13&#45;&gt;Node14 -->
<g id="edge13" class="edge">
<title>Node13&#45;&gt;Node14</title>
<path fill="none" stroke="midnightblue" d="M494.31,-235.3C492.89,-226.3 491.37,-216.65 490.08,-208.51"/>
<polygon fill="midnightblue" stroke="midnightblue" points="490.89,-236.1 495.91,-245.43 497.81,-235 490.89,-236.1"/>
</g>
<!-- Node15&#45;&gt;Node5 -->
<g id="edge16" class="edge">
<title>Node15&#45;&gt;Node5</title>
<path fill="none" stroke="midnightblue" d="M825.8,-242.03C794.97,-231.33 758.68,-218.73 729.21,-208.51"/>
<polygon fill="midnightblue" stroke="midnightblue" points="825.01,-245.46 835.6,-245.43 827.3,-238.84 825.01,-245.46"/>
</g>
<!-- Node15&#45;&gt;Node6 -->
<g id="edge17" class="edge">
<title>Node15&#45;&gt;Node6</title>
<path fill="none" stroke="midnightblue" d="M927.44,-239.35C941.36,-229.27 957.08,-217.89 970.05,-208.51"/>
<polygon fill="midnightblue" stroke="midnightblue" points="925.09,-236.73 919.04,-245.43 929.19,-242.4 925.09,-236.73"/>
</g>
<!-- Node16&#45;&gt;Node5 -->
<g id="edge19" class="edge">
<title>Node16&#45;&gt;Node5</title>
<path fill="none" stroke="midnightblue" d="M693.48,-236.17C689.47,-226.93 685.12,-216.92 681.47,-208.51"/>
<polygon fill="midnightblue" stroke="midnightblue" points="690.31,-237.65 697.5,-245.43 696.73,-234.86 690.31,-237.65"/>
</g>
<!-- Node17 -->
<g id="node17" class="node">
<title>Node17</title>
<g id="a_node17"><a xlink:href="x86Semantics_8cpp.html" target="_top" xlink:title=" ">
<polygon fill="white" stroke="black" points="758,-167.5 758,-208.5 912,-208.5 912,-167.5 758,-167.5"/>
<text text-anchor="start" x="766" y="-196.5" font-family="Helvetica,sans-Serif" font-size="10.00">/home/jonathan/Works</text>
<text text-anchor="start" x="766" y="-185.5" font-family="Helvetica,sans-Serif" font-size="10.00">/Tools/Triton/src/libtriton</text>
<text text-anchor="middle" x="835" y="-174.5" font-family="Helvetica,sans-Serif" font-size="10.00">/arch/x86/x86Semantics.cpp</text>
</a>
</g>
</g>
<!-- Node16&#45;&gt;Node17 -->
<g id="edge20" class="edge">
<title>Node16&#45;&gt;Node17</title>
<path fill="none" stroke="midnightblue" d="M748.09,-240.2C765.55,-229.92 785.51,-218.16 801.89,-208.51"/>
<polygon fill="midnightblue" stroke="midnightblue" points="746.06,-237.34 739.22,-245.43 749.61,-243.37 746.06,-237.34"/>
</g>
</g>
</svg>
