<?xml version="1.0" encoding="UTF-8" standalone="no"?>
<!DOCTYPE svg PUBLIC "-//W3C//DTD SVG 1.1//EN"
 "http://www.w3.org/Graphics/SVG/1.1/DTD/svg11.dtd">
<!-- Generated by graphviz version 11.0.0 (20240428.1522)
 -->
<!-- Title: /Users/jonathan/Works/Tools/Triton/src/libtriton/includes/triton/taintEngine.hpp Pages: 1 -->
<svg width="1448pt" height="372pt"
 viewBox="0.00 0.00 1447.50 372.00" xmlns="http://www.w3.org/2000/svg" xmlns:xlink="http://www.w3.org/1999/xlink">
<g id="graph0" class="graph" transform="scale(1 1) rotate(0) translate(4 368)">
<title>/Users/jonathan/Works/Tools/Triton/src/libtriton/includes/triton/taintEngine.hpp</title>
<!-- Node1 -->
<g id="Node000001" class="node">
<title>Node1</title>
<g id="a_Node000001"><a xlink:title=" ">
<polygon fill="#999999" stroke="#666666" points="713.62,-364 563.38,-364 563.38,-322.25 713.62,-322.25 713.62,-364"/>
<text text-anchor="start" x="571.38" y="-350.5" font-family="Helvetica,sans-Serif" font-size="10.00">/Users/jonathan/Works</text>
<text text-anchor="start" x="571.38" y="-339.25" font-family="Helvetica,sans-Serif" font-size="10.00">/Tools/Triton/src/libtriton</text>
<text text-anchor="middle" x="638.5" y="-328" font-family="Helvetica,sans-Serif" font-size="10.00">/includes/triton/taintEngine.hpp</text>
</a>
</g>
</g>
<!-- Node2 -->
<g id="Node000002" class="node">
<title>Node2</title>
<g id="a_Node000002"><a xlink:href="taintEngine_8cpp.html" target="_top" xlink:title=" ">
<polygon fill="white" stroke="#666666" points="145,-286.25 0,-286.25 0,-244.5 145,-244.5 145,-286.25"/>
<text text-anchor="start" x="8" y="-272.75" font-family="Helvetica,sans-Serif" font-size="10.00">/Users/jonathan/Works</text>
<text text-anchor="start" x="8" y="-261.5" font-family="Helvetica,sans-Serif" font-size="10.00">/Tools/Triton/src/libtriton</text>
<text text-anchor="middle" x="72.5" y="-250.25" font-family="Helvetica,sans-Serif" font-size="10.00">/engines/taint/taintEngine.cpp</text>
</a>
</g>
</g>
<!-- Node1&#45;&gt;Node2 -->
<g id="edge1_Node000001_Node000002" class="edge">
<title>Node1&#45;&gt;Node2</title>
<g id="a_edge1_Node000001_Node000002"><a xlink:title=" ">
<path fill="none" stroke="#63b8ff" d="M551.81,-335.35C454.6,-327.01 292.48,-310.84 154.5,-286.25 151.47,-285.71 148.39,-285.13 145.28,-284.51"/>
<polygon fill="#63b8ff" stroke="#63b8ff" points="551.28,-338.82 561.54,-336.18 551.87,-331.84 551.28,-338.82"/>
</a>
</g>
</g>
<!-- Node3 -->
<g id="Node000003" class="node">
<title>Node3</title>
<g id="a_Node000003"><a xlink:href="aarch64Semantics_8hpp.html" target="_top" xlink:title=" ">
<polygon fill="white" stroke="#666666" points="345.75,-286.25 163.25,-286.25 163.25,-244.5 345.75,-244.5 345.75,-286.25"/>
<text text-anchor="start" x="171.25" y="-272.75" font-family="Helvetica,sans-Serif" font-size="10.00">/Users/jonathan/Works</text>
<text text-anchor="start" x="171.25" y="-261.5" font-family="Helvetica,sans-Serif" font-size="10.00">/Tools/Triton/src/libtriton</text>
<text text-anchor="middle" x="254.5" y="-250.25" font-family="Helvetica,sans-Serif" font-size="10.00">/includes/triton/aarch64Semantics.hpp</text>
</a>
</g>
</g>
<!-- Node1&#45;&gt;Node3 -->
<g id="edge2_Node000001_Node000003" class="edge">
<title>Node1&#45;&gt;Node3</title>
<g id="a_edge2_Node000001_Node000003"><a xlink:title=" ">
<path fill="none" stroke="#63b8ff" d="M551.89,-325.04C490.54,-312.94 408.39,-296.73 345.98,-284.42"/>
<polygon fill="#63b8ff" stroke="#63b8ff" points="551.12,-328.46 561.61,-326.96 552.47,-321.59 551.12,-328.46"/>
</a>
</g>
</g>
<!-- Node6 -->
<g id="Node000006" class="node">
<title>Node6</title>
<g id="a_Node000006"><a xlink:href="arm32Semantics_8hpp.html" target="_top" xlink:title=" ">
<polygon fill="white" stroke="#666666" points="539,-286.25 364,-286.25 364,-244.5 539,-244.5 539,-286.25"/>
<text text-anchor="start" x="372" y="-272.75" font-family="Helvetica,sans-Serif" font-size="10.00">/Users/jonathan/Works</text>
<text text-anchor="start" x="372" y="-261.5" font-family="Helvetica,sans-Serif" font-size="10.00">/Tools/Triton/src/libtriton</text>
<text text-anchor="middle" x="451.5" y="-250.25" font-family="Helvetica,sans-Serif" font-size="10.00">/includes/triton/arm32Semantics.hpp</text>
</a>
</g>
</g>
<!-- Node1&#45;&gt;Node6 -->
<g id="edge5_Node000001_Node000006" class="edge">
<title>Node1&#45;&gt;Node6</title>
<g id="a_edge5_Node000001_Node000006"><a xlink:title=" ">
<path fill="none" stroke="#63b8ff" d="M577.73,-317.51C553.16,-307.56 525.14,-296.21 501.75,-286.73"/>
<polygon fill="#63b8ff" stroke="#63b8ff" points="576.4,-320.75 586.98,-321.26 579.03,-314.26 576.4,-320.75"/>
</a>
</g>
</g>
<!-- Node8 -->
<g id="Node000008" class="node">
<title>Node8</title>
<g id="a_Node000008"><a xlink:href="context_8hpp.html" target="_top" xlink:title=" ">
<polygon fill="white" stroke="#666666" points="957.38,-208.5 823.62,-208.5 823.62,-166.75 957.38,-166.75 957.38,-208.5"/>
<text text-anchor="start" x="831.62" y="-195" font-family="Helvetica,sans-Serif" font-size="10.00">/Users/jonathan/Works</text>
<text text-anchor="start" x="831.62" y="-183.75" font-family="Helvetica,sans-Serif" font-size="10.00">/Tools/Triton/src/libtriton</text>
<text text-anchor="middle" x="890.5" y="-172.5" font-family="Helvetica,sans-Serif" font-size="10.00">/includes/triton/context.hpp</text>
</a>
</g>
</g>
<!-- Node1&#45;&gt;Node8 -->
<g id="edge8_Node000001_Node000008" class="edge">
<title>Node1&#45;&gt;Node8</title>
<g id="a_edge8_Node000001_Node000008"><a xlink:title=" ">
<path fill="none" stroke="#63b8ff" d="M725.46,-333.22C787.31,-324.94 862.94,-310.21 883.5,-286.25 901.76,-264.97 899.39,-230.57 895.4,-208.8"/>
<polygon fill="#63b8ff" stroke="#63b8ff" points="725.05,-329.74 715.58,-334.49 725.95,-336.68 725.05,-329.74"/>
</a>
</g>
</g>
<!-- Node16 -->
<g id="Node000016" class="node">
<title>Node16</title>
<g id="a_Node000016"><a xlink:href="irBuilder_8hpp.html" target="_top" xlink:title=" ">
<polygon fill="white" stroke="#666666" points="874.5,-286.25 738.5,-286.25 738.5,-244.5 874.5,-244.5 874.5,-286.25"/>
<text text-anchor="start" x="746.5" y="-272.75" font-family="Helvetica,sans-Serif" font-size="10.00">/Users/jonathan/Works</text>
<text text-anchor="start" x="746.5" y="-261.5" font-family="Helvetica,sans-Serif" font-size="10.00">/Tools/Triton/src/libtriton</text>
<text text-anchor="middle" x="806.5" y="-250.25" font-family="Helvetica,sans-Serif" font-size="10.00">/includes/triton/irBuilder.hpp</text>
</a>
</g>
</g>
<!-- Node1&#45;&gt;Node16 -->
<g id="edge16_Node000001_Node000016" class="edge">
<title>Node1&#45;&gt;Node16</title>
<g id="a_edge16_Node000001_Node000016"><a xlink:title=" ">
<path fill="none" stroke="#63b8ff" d="M693.99,-317.11C715.84,-307.25 740.62,-296.08 761.35,-286.73"/>
<polygon fill="#63b8ff" stroke="#63b8ff" points="692.58,-313.9 684.9,-321.2 695.46,-320.28 692.58,-313.9"/>
</a>
</g>
</g>
<!-- Node17 -->
<g id="Node000017" class="node">
<title>Node17</title>
<g id="a_Node000017"><a xlink:href="riscvSemantics_8hpp.html" target="_top" xlink:title=" ">
<polygon fill="white" stroke="#666666" points="1123,-286.25 954,-286.25 954,-244.5 1123,-244.5 1123,-286.25"/>
<text text-anchor="start" x="962" y="-272.75" font-family="Helvetica,sans-Serif" font-size="10.00">/Users/jonathan/Works</text>
<text text-anchor="start" x="962" y="-261.5" font-family="Helvetica,sans-Serif" font-size="10.00">/Tools/Triton/src/libtriton</text>
<text text-anchor="middle" x="1038.5" y="-250.25" font-family="Helvetica,sans-Serif" font-size="10.00">/includes/triton/riscvSemantics.hpp</text>
</a>
</g>
</g>
<!-- Node1&#45;&gt;Node17 -->
<g id="edge19_Node000001_Node000017" class="edge">
<title>Node1&#45;&gt;Node17</title>
<g id="a_edge19_Node000001_Node000017"><a xlink:title=" ">
<path fill="none" stroke="#63b8ff" d="M724.79,-325.78C792.49,-312.96 886.21,-295.22 953.55,-282.46"/>
<polygon fill="#63b8ff" stroke="#63b8ff" points="724.4,-322.3 715.22,-327.6 725.7,-329.17 724.4,-322.3"/>
</a>
</g>
</g>
<!-- Node19 -->
<g id="Node000019" class="node">
<title>Node19</title>
<g id="a_Node000019"><a xlink:href="x86Semantics_8hpp.html" target="_top" xlink:title=" ">
<polygon fill="white" stroke="#666666" points="720.38,-286.25 556.62,-286.25 556.62,-244.5 720.38,-244.5 720.38,-286.25"/>
<text text-anchor="start" x="564.62" y="-272.75" font-family="Helvetica,sans-Serif" font-size="10.00">/Users/jonathan/Works</text>
<text text-anchor="start" x="564.62" y="-261.5" font-family="Helvetica,sans-Serif" font-size="10.00">/Tools/Triton/src/libtriton</text>
<text text-anchor="middle" x="638.5" y="-250.25" font-family="Helvetica,sans-Serif" font-size="10.00">/includes/triton/x86Semantics.hpp</text>
</a>
</g>
</g>
<!-- Node1&#45;&gt;Node19 -->
<g id="edge21_Node000001_Node000019" class="edge">
<title>Node1&#45;&gt;Node19</title>
<g id="a_edge21_Node000001_Node000019"><a xlink:title=" ">
<path fill="none" stroke="#63b8ff" d="M638.5,-310.5C638.5,-302.46 638.5,-294.04 638.5,-286.73"/>
<polygon fill="#63b8ff" stroke="#63b8ff" points="635,-310.31 638.5,-320.31 642,-310.31 635,-310.31"/>
</a>
</g>
</g>
<!-- Node4 -->
<g id="Node000004" class="node">
<title>Node4</title>
<g id="a_Node000004"><a xlink:href="aarch64Semantics_8cpp.html" target="_top" xlink:title=" ">
<polygon fill="white" stroke="#666666" points="307.25,-208.5 109.75,-208.5 109.75,-166.75 307.25,-166.75 307.25,-208.5"/>
<text text-anchor="start" x="117.75" y="-195" font-family="Helvetica,sans-Serif" font-size="10.00">/Users/jonathan/Works</text>
<text text-anchor="start" x="117.75" y="-183.75" font-family="Helvetica,sans-Serif" font-size="10.00">/Tools/Triton/src/libtriton</text>
<text text-anchor="middle" x="208.5" y="-172.5" font-family="Helvetica,sans-Serif" font-size="10.00">/arch/arm/aarch64/aarch64Semantics.cpp</text>
</a>
</g>
</g>
<!-- Node3&#45;&gt;Node4 -->
<g id="edge3_Node000003_Node000004" class="edge">
<title>Node3&#45;&gt;Node4</title>
<g id="a_edge3_Node000003_Node000004"><a xlink:title=" ">
<path fill="none" stroke="#63b8ff" d="M236.31,-234.43C231.13,-225.89 225.61,-216.8 220.86,-208.98"/>
<polygon fill="#63b8ff" stroke="#63b8ff" points="233.21,-236.05 241.39,-242.78 239.19,-232.42 233.21,-236.05"/>
</a>
</g>
</g>
<!-- Node5 -->
<g id="Node000005" class="node">
<title>Node5</title>
<g id="a_Node000005"><a xlink:href="irBuilder_8cpp.html" target="_top" xlink:title=" ">
<polygon fill="white" stroke="#666666" points="647,-208.5 526,-208.5 526,-166.75 647,-166.75 647,-208.5"/>
<text text-anchor="start" x="534" y="-195" font-family="Helvetica,sans-Serif" font-size="10.00">/Users/jonathan/Works</text>
<text text-anchor="start" x="534" y="-183.75" font-family="Helvetica,sans-Serif" font-size="10.00">/Tools/Triton/src/libtriton</text>
<text text-anchor="middle" x="586.5" y="-172.5" font-family="Helvetica,sans-Serif" font-size="10.00">/arch/irBuilder.cpp</text>
</a>
</g>
</g>
<!-- Node3&#45;&gt;Node5 -->
<g id="edge4_Node000003_Node000005" class="edge">
<title>Node3&#45;&gt;Node5</title>
<g id="a_edge4_Node000003_Node000005"><a xlink:title=" ">
<path fill="none" stroke="#63b8ff" d="M357.22,-244.12C405.7,-234.13 464.26,-221.47 516.5,-208.5 519.57,-207.74 522.7,-206.94 525.86,-206.11"/>
<polygon fill="#63b8ff" stroke="#63b8ff" points="356.66,-240.66 347.57,-246.1 358.07,-247.52 356.66,-240.66"/>
</a>
</g>
</g>
<!-- Node6&#45;&gt;Node5 -->
<g id="edge7_Node000006_Node000005" class="edge">
<title>Node6&#45;&gt;Node5</title>
<g id="a_edge7_Node000006_Node000005"><a xlink:title=" ">
<path fill="none" stroke="#63b8ff" d="M497.53,-238.55C514.73,-228.89 534.02,-218.07 550.22,-208.98"/>
<polygon fill="#63b8ff" stroke="#63b8ff" points="496.01,-235.39 489,-243.33 499.43,-241.49 496.01,-235.39"/>
</a>
</g>
</g>
<!-- Node7 -->
<g id="Node000007" class="node">
<title>Node7</title>
<g id="a_Node000007"><a xlink:href="arm32Semantics_8cpp.html" target="_top" xlink:title=" ">
<polygon fill="white" stroke="#666666" points="507.75,-208.5 325.25,-208.5 325.25,-166.75 507.75,-166.75 507.75,-208.5"/>
<text text-anchor="start" x="333.25" y="-195" font-family="Helvetica,sans-Serif" font-size="10.00">/Users/jonathan/Works</text>
<text text-anchor="start" x="333.25" y="-183.75" font-family="Helvetica,sans-Serif" font-size="10.00">/Tools/Triton/src/libtriton</text>
<text text-anchor="middle" x="416.5" y="-172.5" font-family="Helvetica,sans-Serif" font-size="10.00">/arch/arm/arm32/arm32Semantics.cpp</text>
</a>
</g>
</g>
<!-- Node6&#45;&gt;Node7 -->
<g id="edge6_Node000006_Node000007" class="edge">
<title>Node6&#45;&gt;Node7</title>
<g id="a_edge6_Node000006_Node000007"><a xlink:title=" ">
<path fill="none" stroke="#63b8ff" d="M437.4,-233.87C433.54,-225.5 429.44,-216.63 425.91,-208.98"/>
<polygon fill="#63b8ff" stroke="#63b8ff" points="434.11,-235.09 441.49,-242.7 440.47,-232.16 434.11,-235.09"/>
</a>
</g>
</g>
<!-- Node9 -->
<g id="Node000009" class="node">
<title>Node9</title>
<g id="a_Node000009"><a xlink:href="pyTritonContext_8cpp.html" target="_top" xlink:title=" ">
<polygon fill="white" stroke="#666666" points="670.38,-130.75 548.62,-130.75 548.62,-77.75 670.38,-77.75 670.38,-130.75"/>
<text text-anchor="start" x="556.62" y="-117.25" font-family="Helvetica,sans-Serif" font-size="10.00">/Users/jonathan/Works</text>
<text text-anchor="start" x="556.62" y="-106" font-family="Helvetica,sans-Serif" font-size="10.00">/Tools/Triton/src/libtriton</text>
<text text-anchor="start" x="556.62" y="-94.75" font-family="Helvetica,sans-Serif" font-size="10.00">/bindings/python/objects</text>
<text text-anchor="middle" x="609.5" y="-83.5" font-family="Helvetica,sans-Serif" font-size="10.00">/pyTritonContext.cpp</text>
</a>
</g>
</g>
<!-- Node8&#45;&gt;Node9 -->
<g id="edge9_Node000008_Node000009" class="edge">
<title>Node8&#45;&gt;Node9</title>
<g id="a_edge9_Node000008_Node000009"><a xlink:title=" ">
<path fill="none" stroke="#63b8ff" d="M812.23,-166.08C754.97,-151.01 686.16,-132.84 679.5,-130.75 676.66,-129.86 673.77,-128.92 670.85,-127.96"/>
<polygon fill="#63b8ff" stroke="#63b8ff" points="811.12,-169.4 821.68,-168.56 812.9,-162.63 811.12,-169.4"/>
</a>
</g>
</g>
<!-- Node10 -->
<g id="Node000010" class="node">
<title>Node10</title>
<g id="a_Node000010"><a xlink:href="callbacks_8cpp.html" target="_top" xlink:title=" ">
<polygon fill="white" stroke="#666666" points="812.12,-125.12 688.88,-125.12 688.88,-83.38 812.12,-83.38 812.12,-125.12"/>
<text text-anchor="start" x="696.88" y="-111.62" font-family="Helvetica,sans-Serif" font-size="10.00">/Users/jonathan/Works</text>
<text text-anchor="start" x="696.88" y="-100.38" font-family="Helvetica,sans-Serif" font-size="10.00">/Tools/Triton/src/libtriton</text>
<text text-anchor="middle" x="750.5" y="-89.12" font-family="Helvetica,sans-Serif" font-size="10.00">/callbacks/callbacks.cpp</text>
</a>
</g>
</g>
<!-- Node8&#45;&gt;Node10 -->
<g id="edge10_Node000008_Node000010" class="edge">
<title>Node8&#45;&gt;Node10</title>
<g id="a_edge10_Node000008_Node000010"><a xlink:title=" ">
<path fill="none" stroke="#63b8ff" d="M845.66,-160.56C826.19,-149.24 803.72,-136.18 785.51,-125.6"/>
<polygon fill="#63b8ff" stroke="#63b8ff" points="843.82,-163.54 854.22,-165.54 847.34,-157.49 843.82,-163.54"/>
</a>
</g>
</g>
<!-- Node11 -->
<g id="Node000011" class="node">
<title>Node11</title>
<g id="a_Node000011"><a xlink:href="context_8cpp.html" target="_top" xlink:title=" ">
<polygon fill="white" stroke="#666666" points="951,-125.12 830,-125.12 830,-83.38 951,-83.38 951,-125.12"/>
<text text-anchor="start" x="838" y="-111.62" font-family="Helvetica,sans-Serif" font-size="10.00">/Users/jonathan/Works</text>
<text text-anchor="start" x="838" y="-100.38" font-family="Helvetica,sans-Serif" font-size="10.00">/Tools/Triton/src/libtriton</text>
<text text-anchor="middle" x="890.5" y="-89.12" font-family="Helvetica,sans-Serif" font-size="10.00">/context/context.cpp</text>
</a>
</g>
</g>
<!-- Node8&#45;&gt;Node11 -->
<g id="edge11_Node000008_Node000011" class="edge">
<title>Node8&#45;&gt;Node11</title>
<g id="a_edge11_Node000008_Node000011"><a xlink:title=" ">
<path fill="none" stroke="#63b8ff" d="M890.5,-155.27C890.5,-145.24 890.5,-134.42 890.5,-125.42"/>
<polygon fill="#63b8ff" stroke="#63b8ff" points="887,-155 890.5,-165 894,-155 887,-155"/>
</a>
</g>
</g>
<!-- Node12 -->
<g id="Node000012" class="node">
<title>Node12</title>
<g id="a_Node000012"><a xlink:href="symbolicSimplification_8cpp.html" target="_top" xlink:title=" ">
<polygon fill="white" stroke="#666666" points="1183.5,-125.12 969.5,-125.12 969.5,-83.38 1183.5,-83.38 1183.5,-125.12"/>
<text text-anchor="start" x="977.5" y="-111.62" font-family="Helvetica,sans-Serif" font-size="10.00">/Users/jonathan/Works</text>
<text text-anchor="start" x="977.5" y="-100.38" font-family="Helvetica,sans-Serif" font-size="10.00">/Tools/Triton/src/libtriton</text>
<text text-anchor="middle" x="1076.5" y="-89.12" font-family="Helvetica,sans-Serif" font-size="10.00">/engines/symbolic/symbolicSimplification.cpp</text>
</a>
</g>
</g>
<!-- Node8&#45;&gt;Node12 -->
<g id="edge12_Node000008_Node000012" class="edge">
<title>Node8&#45;&gt;Node12</title>
<g id="a_edge12_Node000008_Node000012"><a xlink:title=" ">
<path fill="none" stroke="#63b8ff" d="M947.24,-161.8C973.74,-150.21 1004.91,-136.57 1029.99,-125.6"/>
<polygon fill="#63b8ff" stroke="#63b8ff" points="946.1,-158.48 938.34,-165.69 948.91,-164.89 946.1,-158.48"/>
</a>
</g>
</g>
<!-- Node13 -->
<g id="Node000013" class="node">
<title>Node13</title>
<g id="a_Node000013"><a xlink:href="llvmToTriton_8hpp.html" target="_top" xlink:title=" ">
<polygon fill="white" stroke="#666666" points="1355.88,-125.12 1201.12,-125.12 1201.12,-83.38 1355.88,-83.38 1355.88,-125.12"/>
<text text-anchor="start" x="1209.12" y="-111.62" font-family="Helvetica,sans-Serif" font-size="10.00">/Users/jonathan/Works</text>
<text text-anchor="start" x="1209.12" y="-100.38" font-family="Helvetica,sans-Serif" font-size="10.00">/Tools/Triton/src/libtriton</text>
<text text-anchor="middle" x="1278.5" y="-89.12" font-family="Helvetica,sans-Serif" font-size="10.00">/includes/triton/llvmToTriton.hpp</text>
</a>
</g>
</g>
<!-- Node8&#45;&gt;Node13 -->
<g id="edge13_Node000008_Node000013" class="edge">
<title>Node8&#45;&gt;Node13</title>
<g id="a_edge13_Node000008_Node000013"><a xlink:title=" ">
<path fill="none" stroke="#63b8ff" d="M968.7,-166.41C1068.05,-146.34 1096.8,-152.46 1192.5,-130.75 1199.33,-129.2 1206.42,-127.41 1213.47,-125.5"/>
<polygon fill="#63b8ff" stroke="#63b8ff" points="968.12,-162.95 959.03,-168.4 969.54,-169.81 968.12,-162.95"/>
</a>
</g>
</g>
<!-- Node14 -->
<g id="Node000014" class="node">
<title>Node14</title>
<g id="a_Node000014"><a xlink:href="llvmToTriton_8cpp.html" target="_top" xlink:title=" ">
<polygon fill="white" stroke="#666666" points="1261.75,-41.75 1133.25,-41.75 1133.25,0 1261.75,0 1261.75,-41.75"/>
<text text-anchor="start" x="1141.25" y="-28.25" font-family="Helvetica,sans-Serif" font-size="10.00">/Users/jonathan/Works</text>
<text text-anchor="start" x="1141.25" y="-17" font-family="Helvetica,sans-Serif" font-size="10.00">/Tools/Triton/src/libtriton</text>
<text text-anchor="middle" x="1197.5" y="-5.75" font-family="Helvetica,sans-Serif" font-size="10.00">/ast/llvm/llvmToTriton.cpp</text>
</a>
</g>
</g>
<!-- Node13&#45;&gt;Node14 -->
<g id="edge14_Node000013_Node000014" class="edge">
<title>Node13&#45;&gt;Node14</title>
<g id="a_edge14_Node000013_Node000014"><a xlink:title=" ">
<path fill="none" stroke="#63b8ff" d="M1250.51,-75.13C1239.67,-64.24 1227.51,-52.02 1217.57,-42.04"/>
<polygon fill="#63b8ff" stroke="#63b8ff" points="1247.87,-77.44 1257.41,-82.06 1252.84,-72.51 1247.87,-77.44"/>
</a>
</g>
</g>
<!-- Node15 -->
<g id="Node000015" class="node">
<title>Node15</title>
<g id="a_Node000015"><a xlink:href="liftingToLLVM_8cpp.html" target="_top" xlink:title=" ">
<polygon fill="white" stroke="#666666" points="1439.5,-41.75 1279.5,-41.75 1279.5,0 1439.5,0 1439.5,-41.75"/>
<text text-anchor="start" x="1287.5" y="-28.25" font-family="Helvetica,sans-Serif" font-size="10.00">/Users/jonathan/Works</text>
<text text-anchor="start" x="1287.5" y="-17" font-family="Helvetica,sans-Serif" font-size="10.00">/Tools/Triton/src/libtriton</text>
<text text-anchor="middle" x="1359.5" y="-5.75" font-family="Helvetica,sans-Serif" font-size="10.00">/engines/lifters/liftingToLLVM.cpp</text>
</a>
</g>
</g>
<!-- Node13&#45;&gt;Node15 -->
<g id="edge15_Node000013_Node000015" class="edge">
<title>Node13&#45;&gt;Node15</title>
<g id="a_edge15_Node000013_Node000015"><a xlink:title=" ">
<path fill="none" stroke="#63b8ff" d="M1306.49,-75.13C1317.33,-64.24 1329.49,-52.02 1339.43,-42.04"/>
<polygon fill="#63b8ff" stroke="#63b8ff" points="1304.16,-72.51 1299.59,-82.06 1309.13,-77.44 1304.16,-72.51"/>
</a>
</g>
</g>
<!-- Node16&#45;&gt;Node5 -->
<g id="edge17_Node000016_Node000005" class="edge">
<title>Node16&#45;&gt;Node5</title>
<g id="a_edge17_Node000016_Node000005"><a xlink:title=" ">
<path fill="none" stroke="#63b8ff" d="M736.95,-240.43C707.58,-230.32 673.75,-218.67 645.62,-208.98"/>
<polygon fill="#63b8ff" stroke="#63b8ff" points="735.52,-243.64 746.11,-243.58 737.8,-237.02 735.52,-243.64"/>
</a>
</g>
</g>
<!-- Node16&#45;&gt;Node8 -->
<g id="edge18_Node000016_Node000008" class="edge">
<title>Node16&#45;&gt;Node8</title>
<g id="a_edge18_Node000016_Node000008"><a xlink:title=" ">
<path fill="none" stroke="#63b8ff" d="M837.26,-236.64C847.41,-227.48 858.5,-217.48 867.93,-208.98"/>
<polygon fill="#63b8ff" stroke="#63b8ff" points="835.22,-233.77 830.13,-243.06 839.9,-238.96 835.22,-233.77"/>
</a>
</g>
</g>
<!-- Node18 -->
<g id="Node000018" class="node">
<title>Node18</title>
<g id="a_Node000018"><a xlink:href="riscvSemantics_8cpp.html" target="_top" xlink:title=" ">
<polygon fill="white" stroke="#666666" points="1126,-208.5 975,-208.5 975,-166.75 1126,-166.75 1126,-208.5"/>
<text text-anchor="start" x="983" y="-195" font-family="Helvetica,sans-Serif" font-size="10.00">/Users/jonathan/Works</text>
<text text-anchor="start" x="983" y="-183.75" font-family="Helvetica,sans-Serif" font-size="10.00">/Tools/Triton/src/libtriton</text>
<text text-anchor="middle" x="1050.5" y="-172.5" font-family="Helvetica,sans-Serif" font-size="10.00">/arch/riscv/riscvSemantics.cpp</text>
</a>
</g>
</g>
<!-- Node17&#45;&gt;Node18 -->
<g id="edge20_Node000017_Node000018" class="edge">
<title>Node17&#45;&gt;Node18</title>
<g id="a_edge20_Node000017_Node000018"><a xlink:title=" ">
<path fill="none" stroke="#63b8ff" d="M1043.51,-232.75C1044.78,-224.71 1046.12,-216.29 1047.28,-208.98"/>
<polygon fill="#63b8ff" stroke="#63b8ff" points="1040.06,-232.16 1041.95,-242.58 1046.97,-233.25 1040.06,-232.16"/>
</a>
</g>
</g>
<!-- Node19&#45;&gt;Node5 -->
<g id="edge22_Node000019_Node000005" class="edge">
<title>Node19&#45;&gt;Node5</title>
<g id="a_edge22_Node000019_Node000005"><a xlink:title=" ">
<path fill="none" stroke="#63b8ff" d="M618.13,-234.7C612.22,-226.09 605.9,-216.88 600.47,-208.98"/>
<polygon fill="#63b8ff" stroke="#63b8ff" points="615.16,-236.56 623.71,-242.83 620.93,-232.6 615.16,-236.56"/>
</a>
</g>
</g>
<!-- Node20 -->
<g id="Node000020" class="node">
<title>Node20</title>
<g id="a_Node000020"><a xlink:href="x86Semantics_8cpp.html" target="_top" xlink:title=" ">
<polygon fill="white" stroke="#666666" points="805.75,-208.5 665.25,-208.5 665.25,-166.75 805.75,-166.75 805.75,-208.5"/>
<text text-anchor="start" x="673.25" y="-195" font-family="Helvetica,sans-Serif" font-size="10.00">/Users/jonathan/Works</text>
<text text-anchor="start" x="673.25" y="-183.75" font-family="Helvetica,sans-Serif" font-size="10.00">/Tools/Triton/src/libtriton</text>
<text text-anchor="middle" x="735.5" y="-172.5" font-family="Helvetica,sans-Serif" font-size="10.00">/arch/x86/x86Semantics.cpp</text>
</a>
</g>
</g>
<!-- Node19&#45;&gt;Node20 -->
<g id="edge23_Node000019_Node000020" class="edge">
<title>Node19&#45;&gt;Node20</title>
<g id="a_edge23_Node000019_Node000020"><a xlink:title=" ">
<path fill="none" stroke="#63b8ff" d="M673.32,-237.19C685.23,-227.89 698.33,-217.65 709.43,-208.98"/>
<polygon fill="#63b8ff" stroke="#63b8ff" points="671.41,-234.23 665.69,-243.14 675.72,-239.75 671.41,-234.23"/>
</a>
</g>
</g>
</g>
</svg>
