<?xml version="1.0" encoding="UTF-8" standalone="no"?>
<!DOCTYPE svg PUBLIC "-//W3C//DTD SVG 1.1//EN"
 "http://www.w3.org/Graphics/SVG/1.1/DTD/svg11.dtd">
<!-- Generated by graphviz version 2.50.0 (20211204.2007)
 -->
<!-- Title: /home/jonathan/Works/Tools/Triton/src/libtriton/includes/triton/taintEngine.hpp Pages: 1 -->
<svg width="1609pt" height="373pt"
 viewBox="0.00 0.00 1609.00 373.00" xmlns="http://www.w3.org/2000/svg" xmlns:xlink="http://www.w3.org/1999/xlink">
<g id="graph0" class="graph" transform="scale(1 1) rotate(0) translate(4 369)">
<title>/home/jonathan/Works/Tools/Triton/src/libtriton/includes/triton/taintEngine.hpp</title>
<polygon fill="white" stroke="transparent" points="-4,4 -4,-369 1605,-369 1605,4 -4,4"/>
<!-- Node1 -->
<g id="node1" class="node">
<title>Node1</title>
<g id="a_node1"><a xlink:title=" ">
<polygon fill="#bfbfbf" stroke="black" points="517.5,-323.5 517.5,-364.5 686.5,-364.5 686.5,-323.5 517.5,-323.5"/>
<text text-anchor="start" x="525.5" y="-352.5" font-family="Helvetica,sans-Serif" font-size="10.00">/home/jonathan/Works</text>
<text text-anchor="start" x="525.5" y="-341.5" font-family="Helvetica,sans-Serif" font-size="10.00">/Tools/Triton/src/libtriton</text>
<text text-anchor="middle" x="602" y="-330.5" font-family="Helvetica,sans-Serif" font-size="10.00">/includes/triton/taintEngine.hpp</text>
</a>
</g>
</g>
<!-- Node2 -->
<g id="node2" class="node">
<title>Node2</title>
<g id="a_node2"><a xlink:href="taintEngine_8cpp.html" target="_top" xlink:title=" ">
<polygon fill="white" stroke="black" points="0,-245.5 0,-286.5 162,-286.5 162,-245.5 0,-245.5"/>
<text text-anchor="start" x="8" y="-274.5" font-family="Helvetica,sans-Serif" font-size="10.00">/home/jonathan/Works</text>
<text text-anchor="start" x="8" y="-263.5" font-family="Helvetica,sans-Serif" font-size="10.00">/Tools/Triton/src/libtriton</text>
<text text-anchor="middle" x="81" y="-252.5" font-family="Helvetica,sans-Serif" font-size="10.00">/engines/taint/taintEngine.cpp</text>
</a>
</g>
</g>
<!-- Node1&#45;&gt;Node2 -->
<g id="edge1" class="edge">
<title>Node1&#45;&gt;Node2</title>
<path fill="none" stroke="midnightblue" d="M507.24,-333.15C419.67,-323.47 286.09,-307.22 171,-287 168.16,-286.5 165.28,-285.97 162.37,-285.42"/>
<polygon fill="midnightblue" stroke="midnightblue" points="507.1,-336.66 517.42,-334.27 507.86,-329.7 507.1,-336.66"/>
</g>
<!-- Node3 -->
<g id="node3" class="node">
<title>Node3</title>
<g id="a_node3"><a xlink:href="aarch64Semantics_8hpp.html" target="_top" xlink:title=" ">
<polygon fill="white" stroke="black" points="180.5,-245.5 180.5,-286.5 383.5,-286.5 383.5,-245.5 180.5,-245.5"/>
<text text-anchor="start" x="188.5" y="-274.5" font-family="Helvetica,sans-Serif" font-size="10.00">/home/jonathan/Works</text>
<text text-anchor="start" x="188.5" y="-263.5" font-family="Helvetica,sans-Serif" font-size="10.00">/Tools/Triton/src/libtriton</text>
<text text-anchor="middle" x="282" y="-252.5" font-family="Helvetica,sans-Serif" font-size="10.00">/includes/triton/aarch64Semantics.hpp</text>
</a>
</g>
</g>
<!-- Node1&#45;&gt;Node3 -->
<g id="edge2" class="edge">
<title>Node1&#45;&gt;Node3</title>
<path fill="none" stroke="midnightblue" d="M509.63,-321.06C463.67,-310.15 408.6,-297.07 364.13,-286.51"/>
<polygon fill="midnightblue" stroke="midnightblue" points="509.05,-324.52 519.59,-323.43 510.67,-317.71 509.05,-324.52"/>
</g>
<!-- Node6 -->
<g id="node6" class="node">
<title>Node6</title>
<g id="a_node6"><a xlink:href="arm32Semantics_8hpp.html" target="_top" xlink:title=" ">
<polygon fill="white" stroke="black" points="401,-245.5 401,-286.5 597,-286.5 597,-245.5 401,-245.5"/>
<text text-anchor="start" x="409" y="-274.5" font-family="Helvetica,sans-Serif" font-size="10.00">/home/jonathan/Works</text>
<text text-anchor="start" x="409" y="-263.5" font-family="Helvetica,sans-Serif" font-size="10.00">/Tools/Triton/src/libtriton</text>
<text text-anchor="middle" x="499" y="-252.5" font-family="Helvetica,sans-Serif" font-size="10.00">/includes/triton/arm32Semantics.hpp</text>
</a>
</g>
</g>
<!-- Node1&#45;&gt;Node6 -->
<g id="edge5" class="edge">
<title>Node1&#45;&gt;Node6</title>
<path fill="none" stroke="midnightblue" d="M567.24,-317.35C553.58,-307.27 538.16,-295.89 525.44,-286.51"/>
<polygon fill="midnightblue" stroke="midnightblue" points="565.35,-320.31 575.47,-323.43 569.51,-314.67 565.35,-320.31"/>
</g>
<!-- Node8 -->
<g id="node8" class="node">
<title>Node8</title>
<g id="a_node8"><a xlink:href="context_8hpp.html" target="_top" xlink:title=" ">
<polygon fill="white" stroke="black" points="922,-167.5 922,-208.5 1072,-208.5 1072,-167.5 922,-167.5"/>
<text text-anchor="start" x="930" y="-196.5" font-family="Helvetica,sans-Serif" font-size="10.00">/home/jonathan/Works</text>
<text text-anchor="start" x="930" y="-185.5" font-family="Helvetica,sans-Serif" font-size="10.00">/Tools/Triton/src/libtriton</text>
<text text-anchor="middle" x="997" y="-174.5" font-family="Helvetica,sans-Serif" font-size="10.00">/includes/triton/context.hpp</text>
</a>
</g>
</g>
<!-- Node1&#45;&gt;Node8 -->
<g id="edge8" class="edge">
<title>Node1&#45;&gt;Node8</title>
<path fill="none" stroke="midnightblue" d="M696.86,-341.03C794.84,-336.95 938.8,-324.52 978,-287 999.03,-266.87 1000.64,-230.95 999.26,-208.64"/>
<polygon fill="midnightblue" stroke="midnightblue" points="696.49,-337.54 686.64,-341.44 696.77,-344.54 696.49,-337.54"/>
</g>
<!-- Node16 -->
<g id="node16" class="node">
<title>Node16</title>
<g id="a_node16"><a xlink:href="irBuilder_8hpp.html" target="_top" xlink:title=" ">
<polygon fill="white" stroke="black" points="815,-245.5 815,-286.5 969,-286.5 969,-245.5 815,-245.5"/>
<text text-anchor="start" x="823" y="-274.5" font-family="Helvetica,sans-Serif" font-size="10.00">/home/jonathan/Works</text>
<text text-anchor="start" x="823" y="-263.5" font-family="Helvetica,sans-Serif" font-size="10.00">/Tools/Triton/src/libtriton</text>
<text text-anchor="middle" x="892" y="-252.5" font-family="Helvetica,sans-Serif" font-size="10.00">/includes/triton/irBuilder.hpp</text>
</a>
</g>
</g>
<!-- Node1&#45;&gt;Node16 -->
<g id="edge16" class="edge">
<title>Node1&#45;&gt;Node16</title>
<path fill="none" stroke="midnightblue" d="M686.5,-320.86C727.98,-309.98 777.53,-297 817.57,-286.51"/>
<polygon fill="midnightblue" stroke="midnightblue" points="685.47,-317.51 676.68,-323.43 687.24,-324.28 685.47,-317.51"/>
</g>
<!-- Node17 -->
<g id="node17" class="node">
<title>Node17</title>
<g id="a_node17"><a xlink:href="x86Semantics_8hpp.html" target="_top" xlink:title=" ">
<polygon fill="white" stroke="black" points="615,-245.5 615,-286.5 797,-286.5 797,-245.5 615,-245.5"/>
<text text-anchor="start" x="623" y="-274.5" font-family="Helvetica,sans-Serif" font-size="10.00">/home/jonathan/Works</text>
<text text-anchor="start" x="623" y="-263.5" font-family="Helvetica,sans-Serif" font-size="10.00">/Tools/Triton/src/libtriton</text>
<text text-anchor="middle" x="706" y="-252.5" font-family="Helvetica,sans-Serif" font-size="10.00">/includes/triton/x86Semantics.hpp</text>
</a>
</g>
</g>
<!-- Node1&#45;&gt;Node17 -->
<g id="edge19" class="edge">
<title>Node1&#45;&gt;Node17</title>
<path fill="none" stroke="midnightblue" d="M637.1,-317.35C650.89,-307.27 666.46,-295.89 679.31,-286.51"/>
<polygon fill="midnightblue" stroke="midnightblue" points="634.79,-314.7 628.78,-323.43 638.92,-320.35 634.79,-314.7"/>
</g>
<!-- Node4 -->
<g id="node4" class="node">
<title>Node4</title>
<g id="a_node4"><a xlink:href="aarch64Semantics_8cpp.html" target="_top" xlink:title=" ">
<polygon fill="white" stroke="black" points="141,-167.5 141,-208.5 359,-208.5 359,-167.5 141,-167.5"/>
<text text-anchor="start" x="149" y="-196.5" font-family="Helvetica,sans-Serif" font-size="10.00">/home/jonathan/Works</text>
<text text-anchor="start" x="149" y="-185.5" font-family="Helvetica,sans-Serif" font-size="10.00">/Tools/Triton/src/libtriton</text>
<text text-anchor="middle" x="250" y="-174.5" font-family="Helvetica,sans-Serif" font-size="10.00">/arch/arm/aarch64/aarch64Semantics.cpp</text>
</a>
</g>
</g>
<!-- Node3&#45;&gt;Node4 -->
<g id="edge3" class="edge">
<title>Node3&#45;&gt;Node4</title>
<path fill="none" stroke="midnightblue" d="M269.86,-236.17C265.97,-226.93 261.76,-216.92 258.21,-208.51"/>
<polygon fill="midnightblue" stroke="midnightblue" points="266.65,-237.57 273.76,-245.43 273.1,-234.85 266.65,-237.57"/>
</g>
<!-- Node5 -->
<g id="node5" class="node">
<title>Node5</title>
<g id="a_node5"><a xlink:href="irBuilder_8cpp.html" target="_top" xlink:title=" ">
<polygon fill="white" stroke="black" points="598.5,-167.5 598.5,-208.5 731.5,-208.5 731.5,-167.5 598.5,-167.5"/>
<text text-anchor="start" x="606.5" y="-196.5" font-family="Helvetica,sans-Serif" font-size="10.00">/home/jonathan/Works</text>
<text text-anchor="start" x="606.5" y="-185.5" font-family="Helvetica,sans-Serif" font-size="10.00">/Tools/Triton/src/libtriton</text>
<text text-anchor="middle" x="665" y="-174.5" font-family="Helvetica,sans-Serif" font-size="10.00">/arch/irBuilder.cpp</text>
</a>
</g>
</g>
<!-- Node3&#45;&gt;Node5 -->
<g id="edge4" class="edge">
<title>Node3&#45;&gt;Node5</title>
<path fill="none" stroke="midnightblue" d="M393.84,-244.65C480.58,-228.86 586.51,-209.55 589,-209 592.06,-208.32 595.19,-207.6 598.34,-206.85"/>
<polygon fill="midnightblue" stroke="midnightblue" points="393.12,-241.22 383.91,-246.46 394.37,-248.11 393.12,-241.22"/>
</g>
<!-- Node6&#45;&gt;Node5 -->
<g id="edge7" class="edge">
<title>Node6&#45;&gt;Node5</title>
<path fill="none" stroke="midnightblue" d="M551.01,-241.19C573.97,-230.67 600.63,-218.47 622.4,-208.51"/>
<polygon fill="midnightblue" stroke="midnightblue" points="549.38,-238.08 541.75,-245.43 552.3,-244.45 549.38,-238.08"/>
</g>
<!-- Node7 -->
<g id="node7" class="node">
<title>Node7</title>
<g id="a_node7"><a xlink:href="arm32Semantics_8cpp.html" target="_top" xlink:title=" ">
<polygon fill="white" stroke="black" points="377.5,-167.5 377.5,-208.5 580.5,-208.5 580.5,-167.5 377.5,-167.5"/>
<text text-anchor="start" x="385.5" y="-196.5" font-family="Helvetica,sans-Serif" font-size="10.00">/home/jonathan/Works</text>
<text text-anchor="start" x="385.5" y="-185.5" font-family="Helvetica,sans-Serif" font-size="10.00">/Tools/Triton/src/libtriton</text>
<text text-anchor="middle" x="479" y="-174.5" font-family="Helvetica,sans-Serif" font-size="10.00">/arch/arm/arm32/arm32Semantics.cpp</text>
</a>
</g>
</g>
<!-- Node6&#45;&gt;Node7 -->
<g id="edge6" class="edge">
<title>Node6&#45;&gt;Node7</title>
<path fill="none" stroke="midnightblue" d="M491.26,-235.59C488.87,-226.51 486.3,-216.74 484.13,-208.51"/>
<polygon fill="midnightblue" stroke="midnightblue" points="487.92,-236.65 493.85,-245.43 494.69,-234.87 487.92,-236.65"/>
</g>
<!-- Node9 -->
<g id="node9" class="node">
<title>Node9</title>
<g id="a_node9"><a xlink:href="pyTritonContext_8cpp.html" target="_top" xlink:title=" ">
<polygon fill="white" stroke="black" points="624,-78.5 624,-130.5 760,-130.5 760,-78.5 624,-78.5"/>
<text text-anchor="start" x="632" y="-118.5" font-family="Helvetica,sans-Serif" font-size="10.00">/home/jonathan/Works</text>
<text text-anchor="start" x="632" y="-107.5" font-family="Helvetica,sans-Serif" font-size="10.00">/Tools/Triton/src/libtriton</text>
<text text-anchor="start" x="632" y="-96.5" font-family="Helvetica,sans-Serif" font-size="10.00">/bindings/python/objects</text>
<text text-anchor="middle" x="692" y="-85.5" font-family="Helvetica,sans-Serif" font-size="10.00">/pyTritonContext.cpp</text>
</a>
</g>
</g>
<!-- Node8&#45;&gt;Node9 -->
<g id="edge9" class="edge">
<title>Node8&#45;&gt;Node9</title>
<path fill="none" stroke="midnightblue" d="M911.69,-166.39C852.94,-152.14 783.05,-135.04 769,-131 766.16,-130.18 763.26,-129.33 760.35,-128.45"/>
<polygon fill="midnightblue" stroke="midnightblue" points="911.21,-169.88 921.76,-168.83 912.86,-163.07 911.21,-169.88"/>
</g>
<!-- Node10 -->
<g id="node10" class="node">
<title>Node10</title>
<g id="a_node10"><a xlink:href="callbacks_8cpp.html" target="_top" xlink:title=" ">
<polygon fill="white" stroke="black" points="778,-84 778,-125 912,-125 912,-84 778,-84"/>
<text text-anchor="start" x="786" y="-113" font-family="Helvetica,sans-Serif" font-size="10.00">/home/jonathan/Works</text>
<text text-anchor="start" x="786" y="-102" font-family="Helvetica,sans-Serif" font-size="10.00">/Tools/Triton/src/libtriton</text>
<text text-anchor="middle" x="845" y="-91" font-family="Helvetica,sans-Serif" font-size="10.00">/callbacks/callbacks.cpp</text>
</a>
</g>
</g>
<!-- Node8&#45;&gt;Node10 -->
<g id="edge10" class="edge">
<title>Node8&#45;&gt;Node10</title>
<path fill="none" stroke="midnightblue" d="M951.59,-162.65C929.15,-150.62 902.44,-136.3 881.37,-125"/>
<polygon fill="midnightblue" stroke="midnightblue" points="950.13,-165.84 960.59,-167.48 953.43,-159.67 950.13,-165.84"/>
</g>
<!-- Node11 -->
<g id="node11" class="node">
<title>Node11</title>
<g id="a_node11"><a xlink:href="context_8cpp.html" target="_top" xlink:title=" ">
<polygon fill="white" stroke="black" points="930.5,-84 930.5,-125 1063.5,-125 1063.5,-84 930.5,-84"/>
<text text-anchor="start" x="938.5" y="-113" font-family="Helvetica,sans-Serif" font-size="10.00">/home/jonathan/Works</text>
<text text-anchor="start" x="938.5" y="-102" font-family="Helvetica,sans-Serif" font-size="10.00">/Tools/Triton/src/libtriton</text>
<text text-anchor="middle" x="997" y="-91" font-family="Helvetica,sans-Serif" font-size="10.00">/context/context.cpp</text>
</a>
</g>
</g>
<!-- Node8&#45;&gt;Node11 -->
<g id="edge11" class="edge">
<title>Node8&#45;&gt;Node11</title>
<path fill="none" stroke="midnightblue" d="M997,-157.06C997,-146.38 997,-134.63 997,-125.05"/>
<polygon fill="midnightblue" stroke="midnightblue" points="993.5,-157.27 997,-167.27 1000.5,-157.27 993.5,-157.27"/>
</g>
<!-- Node12 -->
<g id="node12" class="node">
<title>Node12</title>
<g id="a_node12"><a xlink:href="symbolicSimplification_8cpp.html" target="_top" xlink:title=" ">
<polygon fill="white" stroke="black" points="1081.5,-84 1081.5,-125 1320.5,-125 1320.5,-84 1081.5,-84"/>
<text text-anchor="start" x="1089.5" y="-113" font-family="Helvetica,sans-Serif" font-size="10.00">/home/jonathan/Works</text>
<text text-anchor="start" x="1089.5" y="-102" font-family="Helvetica,sans-Serif" font-size="10.00">/Tools/Triton/src/libtriton</text>
<text text-anchor="middle" x="1201" y="-91" font-family="Helvetica,sans-Serif" font-size="10.00">/engines/symbolic/symbolicSimplification.cpp</text>
</a>
</g>
</g>
<!-- Node8&#45;&gt;Node12 -->
<g id="edge12" class="edge">
<title>Node8&#45;&gt;Node12</title>
<path fill="none" stroke="midnightblue" d="M1055.16,-163.77C1085.83,-151.51 1123.03,-136.65 1152.18,-125"/>
<polygon fill="midnightblue" stroke="midnightblue" points="1053.85,-160.52 1045.86,-167.48 1056.45,-167.02 1053.85,-160.52"/>
</g>
<!-- Node13 -->
<g id="node13" class="node">
<title>Node13</title>
<g id="a_node13"><a xlink:href="llvmToTriton_8hpp.html" target="_top" xlink:title=" ">
<polygon fill="white" stroke="black" points="1338.5,-84 1338.5,-125 1511.5,-125 1511.5,-84 1338.5,-84"/>
<text text-anchor="start" x="1346.5" y="-113" font-family="Helvetica,sans-Serif" font-size="10.00">/home/jonathan/Works</text>
<text text-anchor="start" x="1346.5" y="-102" font-family="Helvetica,sans-Serif" font-size="10.00">/Tools/Triton/src/libtriton</text>
<text text-anchor="middle" x="1425" y="-91" font-family="Helvetica,sans-Serif" font-size="10.00">/includes/triton/llvmToTriton.hpp</text>
</a>
</g>
</g>
<!-- Node8&#45;&gt;Node13 -->
<g id="edge13" class="edge">
<title>Node8&#45;&gt;Node13</title>
<path fill="none" stroke="midnightblue" d="M1082.28,-174.96C1149.81,-164.87 1246.37,-149.21 1330,-131 1338.18,-129.22 1346.7,-127.19 1355.15,-125.06"/>
<polygon fill="midnightblue" stroke="midnightblue" points="1081.49,-171.53 1072.12,-176.47 1082.52,-178.46 1081.49,-171.53"/>
</g>
<!-- Node14 -->
<g id="node14" class="node">
<title>Node14</title>
<g id="a_node14"><a xlink:href="llvmToTriton_8cpp.html" target="_top" xlink:title=" ">
<polygon fill="white" stroke="black" points="1265,-0.5 1265,-41.5 1407,-41.5 1407,-0.5 1265,-0.5"/>
<text text-anchor="start" x="1273" y="-29.5" font-family="Helvetica,sans-Serif" font-size="10.00">/home/jonathan/Works</text>
<text text-anchor="start" x="1273" y="-18.5" font-family="Helvetica,sans-Serif" font-size="10.00">/Tools/Triton/src/libtriton</text>
<text text-anchor="middle" x="1336" y="-7.5" font-family="Helvetica,sans-Serif" font-size="10.00">/ast/llvm/llvmToTriton.cpp</text>
</a>
</g>
</g>
<!-- Node13&#45;&gt;Node14 -->
<g id="edge14" class="edge">
<title>Node13&#45;&gt;Node14</title>
<path fill="none" stroke="midnightblue" d="M1395.91,-76.86C1383.34,-65.35 1368.9,-52.13 1357.35,-41.55"/>
<polygon fill="midnightblue" stroke="midnightblue" points="1393.72,-79.6 1403.46,-83.77 1398.44,-74.44 1393.72,-79.6"/>
</g>
<!-- Node15 -->
<g id="node15" class="node">
<title>Node15</title>
<g id="a_node15"><a xlink:href="liftingToLLVM_8cpp.html" target="_top" xlink:title=" ">
<polygon fill="white" stroke="black" points="1425,-0.5 1425,-41.5 1601,-41.5 1601,-0.5 1425,-0.5"/>
<text text-anchor="start" x="1433" y="-29.5" font-family="Helvetica,sans-Serif" font-size="10.00">/home/jonathan/Works</text>
<text text-anchor="start" x="1433" y="-18.5" font-family="Helvetica,sans-Serif" font-size="10.00">/Tools/Triton/src/libtriton</text>
<text text-anchor="middle" x="1513" y="-7.5" font-family="Helvetica,sans-Serif" font-size="10.00">/engines/lifters/liftingToLLVM.cpp</text>
</a>
</g>
</g>
<!-- Node13&#45;&gt;Node15 -->
<g id="edge15" class="edge">
<title>Node13&#45;&gt;Node15</title>
<path fill="none" stroke="midnightblue" d="M1453.76,-76.86C1466.19,-65.35 1480.47,-52.13 1491.89,-41.55"/>
<polygon fill="midnightblue" stroke="midnightblue" points="1451.26,-74.41 1446.3,-83.77 1456.02,-79.54 1451.26,-74.41"/>
</g>
<!-- Node16&#45;&gt;Node5 -->
<g id="edge17" class="edge">
<title>Node16&#45;&gt;Node5</title>
<path fill="none" stroke="midnightblue" d="M823.8,-242.17C791.75,-231.44 753.94,-218.78 723.26,-208.51"/>
<polygon fill="midnightblue" stroke="midnightblue" points="822.95,-245.57 833.54,-245.43 825.17,-238.93 822.95,-245.57"/>
</g>
<!-- Node16&#45;&gt;Node8 -->
<g id="edge18" class="edge">
<title>Node16&#45;&gt;Node8</title>
<path fill="none" stroke="midnightblue" d="M927.44,-239.35C941.36,-229.27 957.08,-217.89 970.05,-208.51"/>
<polygon fill="midnightblue" stroke="midnightblue" points="925.09,-236.73 919.04,-245.43 929.19,-242.4 925.09,-236.73"/>
</g>
<!-- Node17&#45;&gt;Node5 -->
<g id="edge20" class="edge">
<title>Node17&#45;&gt;Node5</title>
<path fill="none" stroke="midnightblue" d="M690.61,-236.47C685.58,-227.14 680.11,-217.01 675.52,-208.51"/>
<polygon fill="midnightblue" stroke="midnightblue" points="687.61,-238.29 695.44,-245.43 693.77,-234.97 687.61,-238.29"/>
</g>
<!-- Node18 -->
<g id="node18" class="node">
<title>Node18</title>
<g id="a_node18"><a xlink:href="x86Semantics_8cpp.html" target="_top" xlink:title=" ">
<polygon fill="white" stroke="black" points="750,-167.5 750,-208.5 904,-208.5 904,-167.5 750,-167.5"/>
<text text-anchor="start" x="758" y="-196.5" font-family="Helvetica,sans-Serif" font-size="10.00">/home/jonathan/Works</text>
<text text-anchor="start" x="758" y="-185.5" font-family="Helvetica,sans-Serif" font-size="10.00">/Tools/Triton/src/libtriton</text>
<text text-anchor="middle" x="827" y="-174.5" font-family="Helvetica,sans-Serif" font-size="10.00">/arch/x86/x86Semantics.cpp</text>
</a>
</g>
</g>
<!-- Node17&#45;&gt;Node18 -->
<g id="edge21" class="edge">
<title>Node17&#45;&gt;Node18</title>
<path fill="none" stroke="midnightblue" d="M745.93,-239.92C762.2,-229.7 780.72,-218.07 795.95,-208.51"/>
<polygon fill="midnightblue" stroke="midnightblue" points="743.77,-237.15 737.16,-245.43 747.49,-243.07 743.77,-237.15"/>
</g>
</g>
</svg>
