<?xml version="1.0" encoding="UTF-8" standalone="no"?>
<!DOCTYPE svg PUBLIC "-//W3C//DTD SVG 1.1//EN"
 "http://www.w3.org/Graphics/SVG/1.1/DTD/svg11.dtd">
<!-- Generated by graphviz version 2.49.0 (20210828.1703)
 -->
<!-- Title: /home/jonathan/Works/Tools/Triton/src/libtriton/includes/triton/tritonToBitwuzla.hpp Pages: 1 -->
<svg width="342pt" height="139pt"
 viewBox="0.00 0.00 342.00 139.00" xmlns="http://www.w3.org/2000/svg" xmlns:xlink="http://www.w3.org/1999/xlink">
<g id="graph0" class="graph" transform="scale(1 1) rotate(0) translate(4 135)">
<title>/home/jonathan/Works/Tools/Triton/src/libtriton/includes/triton/tritonToBitwuzla.hpp</title>
<polygon fill="white" stroke="transparent" points="-4,4 -4,-135 338,-135 338,4 -4,4"/>
<!-- Node1 -->
<g id="node1" class="node">
<title>Node1</title>
<g id="a_node1"><a xlink:title=" ">
<polygon fill="#bfbfbf" stroke="black" points="82.5,-89.5 82.5,-130.5 274.5,-130.5 274.5,-89.5 82.5,-89.5"/>
<text text-anchor="start" x="90.5" y="-118.5" font-family="Helvetica,sans-Serif" font-size="10.00">/home/jonathan/Works</text>
<text text-anchor="start" x="90.5" y="-107.5" font-family="Helvetica,sans-Serif" font-size="10.00">/Tools/Triton/src/libtriton</text>
<text text-anchor="middle" x="178.5" y="-96.5" font-family="Helvetica,sans-Serif" font-size="10.00">/includes/triton/tritonToBitwuzla.hpp</text>
</a>
</g>
</g>
<!-- Node2 -->
<g id="node2" class="node">
<title>Node2</title>
<g id="a_node2"><a xlink:href="tritonToBitwuzla_8cpp.html" target="_top" xlink:title=" ">
<polygon fill="white" stroke="black" points="0,-6 0,-47 181,-47 181,-6 0,-6"/>
<text text-anchor="start" x="8" y="-35" font-family="Helvetica,sans-Serif" font-size="10.00">/home/jonathan/Works</text>
<text text-anchor="start" x="8" y="-24" font-family="Helvetica,sans-Serif" font-size="10.00">/Tools/Triton/src/libtriton</text>
<text text-anchor="middle" x="90.5" y="-13" font-family="Helvetica,sans-Serif" font-size="10.00">/ast/bitwuzla/tritonToBitwuzla.cpp</text>
</a>
</g>
</g>
<!-- Node1&#45;&gt;Node2 -->
<g id="edge1" class="edge">
<title>Node1&#45;&gt;Node2</title>
<path fill="none" stroke="midnightblue" d="M149.74,-82.36C137.31,-70.85 123.03,-57.63 111.61,-47.05"/>
<polygon fill="midnightblue" stroke="midnightblue" points="147.48,-85.04 157.2,-89.27 152.24,-79.91 147.48,-85.04"/>
</g>
<!-- Node3 -->
<g id="node3" class="node">
<title>Node3</title>
<g id="a_node3"><a xlink:href="bitwuzlaSolver_8cpp.html" target="_top" xlink:title=" ">
<polygon fill="white" stroke="black" points="199,-0.5 199,-52.5 334,-52.5 334,-0.5 199,-0.5"/>
<text text-anchor="start" x="207" y="-40.5" font-family="Helvetica,sans-Serif" font-size="10.00">/home/jonathan/Works</text>
<text text-anchor="start" x="207" y="-29.5" font-family="Helvetica,sans-Serif" font-size="10.00">/Tools/Triton/src/libtriton</text>
<text text-anchor="start" x="207" y="-18.5" font-family="Helvetica,sans-Serif" font-size="10.00">/engines/solver/bitwuzla</text>
<text text-anchor="middle" x="266.5" y="-7.5" font-family="Helvetica,sans-Serif" font-size="10.00">/bitwuzlaSolver.cpp</text>
</a>
</g>
</g>
<!-- Node1&#45;&gt;Node3 -->
<g id="edge2" class="edge">
<title>Node1&#45;&gt;Node3</title>
<path fill="none" stroke="midnightblue" d="M207.39,-82.24C217.69,-72.71 229.25,-62 239.39,-52.61"/>
<polygon fill="midnightblue" stroke="midnightblue" points="204.76,-79.91 199.8,-89.27 209.52,-85.04 204.76,-79.91"/>
</g>
</g>
</svg>
