<?xml version="1.0" encoding="UTF-8" standalone="no"?>
<!DOCTYPE svg PUBLIC "-//W3C//DTD SVG 1.1//EN"
 "http://www.w3.org/Graphics/SVG/1.1/DTD/svg11.dtd">
<!-- Generated by graphviz version 2.50.0 (20211204.2007)
 -->
<!-- Title: /home/jonathan/Works/Tools/Triton/src/libtriton/includes/triton/x86Specifications.hpp Pages: 1 -->
<svg width="1114pt" height="217pt"
 viewBox="0.00 0.00 1113.50 217.00" xmlns="http://www.w3.org/2000/svg" xmlns:xlink="http://www.w3.org/1999/xlink">
<g id="graph0" class="graph" transform="scale(1 1) rotate(0) translate(4 213)">
<title>/home/jonathan/Works/Tools/Triton/src/libtriton/includes/triton/x86Specifications.hpp</title>
<polygon fill="white" stroke="transparent" points="-4,4 -4,-213 1109.5,-213 1109.5,4 -4,4"/>
<!-- Node1 -->
<g id="node1" class="node">
<title>Node1</title>
<g id="a_node1"><a xlink:title=" ">
<polygon fill="#bfbfbf" stroke="black" points="431.5,-167.5 431.5,-208.5 630.5,-208.5 630.5,-167.5 431.5,-167.5"/>
<text text-anchor="start" x="439.5" y="-196.5" font-family="Helvetica,sans-Serif" font-size="10.00">/home/jonathan/Works</text>
<text text-anchor="start" x="439.5" y="-185.5" font-family="Helvetica,sans-Serif" font-size="10.00">/Tools/Triton/src/libtriton</text>
<text text-anchor="middle" x="531" y="-174.5" font-family="Helvetica,sans-Serif" font-size="10.00">/includes/triton/x86Specifications.hpp</text>
</a>
</g>
</g>
<!-- Node2 -->
<g id="node2" class="node">
<title>Node2</title>
<g id="a_node2"><a xlink:href="x86Semantics_8cpp.html" target="_top" xlink:title=" ">
<polygon fill="white" stroke="black" points="0,-84 0,-125 154,-125 154,-84 0,-84"/>
<text text-anchor="start" x="8" y="-113" font-family="Helvetica,sans-Serif" font-size="10.00">/home/jonathan/Works</text>
<text text-anchor="start" x="8" y="-102" font-family="Helvetica,sans-Serif" font-size="10.00">/Tools/Triton/src/libtriton</text>
<text text-anchor="middle" x="77" y="-91" font-family="Helvetica,sans-Serif" font-size="10.00">/arch/x86/x86Semantics.cpp</text>
</a>
</g>
</g>
<!-- Node1&#45;&gt;Node2 -->
<g id="edge1" class="edge">
<title>Node1&#45;&gt;Node2</title>
<path fill="none" stroke="midnightblue" d="M420.93,-174.26C347.42,-164.78 248.84,-150.16 163,-131 155.25,-129.27 147.17,-127.22 139.21,-125.04"/>
<polygon fill="midnightblue" stroke="midnightblue" points="420.77,-177.77 431.13,-175.57 421.66,-170.83 420.77,-177.77"/>
</g>
<!-- Node3 -->
<g id="node3" class="node">
<title>Node3</title>
<g id="a_node3"><a xlink:href="x86Specifications_8cpp.html" target="_top" xlink:title=" ">
<polygon fill="white" stroke="black" points="172,-84 172,-125 342,-125 342,-84 172,-84"/>
<text text-anchor="start" x="180" y="-113" font-family="Helvetica,sans-Serif" font-size="10.00">/home/jonathan/Works</text>
<text text-anchor="start" x="180" y="-102" font-family="Helvetica,sans-Serif" font-size="10.00">/Tools/Triton/src/libtriton</text>
<text text-anchor="middle" x="257" y="-91" font-family="Helvetica,sans-Serif" font-size="10.00">/arch/x86/x86Specifications.cpp</text>
</a>
</g>
</g>
<!-- Node1&#45;&gt;Node3 -->
<g id="edge2" class="edge">
<title>Node1&#45;&gt;Node3</title>
<path fill="none" stroke="midnightblue" d="M455.54,-164.55C413.85,-152.16 362.57,-136.9 322.57,-125"/>
<polygon fill="midnightblue" stroke="midnightblue" points="454.79,-167.98 465.37,-167.48 456.78,-161.27 454.79,-167.98"/>
</g>
<!-- Node4 -->
<g id="node4" class="node">
<title>Node4</title>
<g id="a_node4"><a xlink:href="initOpcodesNamespace_8cpp.html" target="_top" xlink:title=" ">
<polygon fill="white" stroke="black" points="360,-78.5 360,-130.5 522,-130.5 522,-78.5 360,-78.5"/>
<text text-anchor="start" x="368" y="-118.5" font-family="Helvetica,sans-Serif" font-size="10.00">/home/jonathan/Works</text>
<text text-anchor="start" x="368" y="-107.5" font-family="Helvetica,sans-Serif" font-size="10.00">/Tools/Triton/src/libtriton</text>
<text text-anchor="start" x="368" y="-96.5" font-family="Helvetica,sans-Serif" font-size="10.00">/bindings/python/namespaces</text>
<text text-anchor="middle" x="441" y="-85.5" font-family="Helvetica,sans-Serif" font-size="10.00">/initOpcodesNamespace.cpp</text>
</a>
</g>
</g>
<!-- Node1&#45;&gt;Node4 -->
<g id="edge3" class="edge">
<title>Node1&#45;&gt;Node4</title>
<path fill="none" stroke="midnightblue" d="M501.76,-160.52C491.15,-150.92 479.2,-140.09 468.73,-130.61"/>
<polygon fill="midnightblue" stroke="midnightblue" points="499.45,-163.15 509.21,-167.27 504.15,-157.96 499.45,-163.15"/>
</g>
<!-- Node5 -->
<g id="node5" class="node">
<title>Node5</title>
<g id="a_node5"><a xlink:href="initPrefixesNamespace_8cpp.html" target="_top" xlink:title=" ">
<polygon fill="white" stroke="black" points="540,-78.5 540,-130.5 702,-130.5 702,-78.5 540,-78.5"/>
<text text-anchor="start" x="548" y="-118.5" font-family="Helvetica,sans-Serif" font-size="10.00">/home/jonathan/Works</text>
<text text-anchor="start" x="548" y="-107.5" font-family="Helvetica,sans-Serif" font-size="10.00">/Tools/Triton/src/libtriton</text>
<text text-anchor="start" x="548" y="-96.5" font-family="Helvetica,sans-Serif" font-size="10.00">/bindings/python/namespaces</text>
<text text-anchor="middle" x="621" y="-85.5" font-family="Helvetica,sans-Serif" font-size="10.00">/initPrefixesNamespace.cpp</text>
</a>
</g>
</g>
<!-- Node1&#45;&gt;Node5 -->
<g id="edge4" class="edge">
<title>Node1&#45;&gt;Node5</title>
<path fill="none" stroke="midnightblue" d="M560.24,-160.52C570.85,-150.92 582.8,-140.09 593.27,-130.61"/>
<polygon fill="midnightblue" stroke="midnightblue" points="557.85,-157.96 552.79,-167.27 562.55,-163.15 557.85,-157.96"/>
</g>
<!-- Node6 -->
<g id="node6" class="node">
<title>Node6</title>
<g id="a_node6"><a xlink:href="x8664Cpu_8hpp.html" target="_top" xlink:title=" ">
<polygon fill="white" stroke="black" points="720,-84 720,-125 882,-125 882,-84 720,-84"/>
<text text-anchor="start" x="728" y="-113" font-family="Helvetica,sans-Serif" font-size="10.00">/home/jonathan/Works</text>
<text text-anchor="start" x="728" y="-102" font-family="Helvetica,sans-Serif" font-size="10.00">/Tools/Triton/src/libtriton</text>
<text text-anchor="middle" x="801" y="-91" font-family="Helvetica,sans-Serif" font-size="10.00">/includes/triton/x8664Cpu.hpp</text>
</a>
</g>
</g>
<!-- Node1&#45;&gt;Node6 -->
<g id="edge5" class="edge">
<title>Node1&#45;&gt;Node6</title>
<path fill="none" stroke="midnightblue" d="M605.36,-164.55C646.44,-152.16 696.97,-136.9 736.39,-125"/>
<polygon fill="midnightblue" stroke="midnightblue" points="604.23,-161.24 595.67,-167.48 606.26,-167.94 604.23,-161.24"/>
</g>
<!-- Node9 -->
<g id="node9" class="node">
<title>Node9</title>
<g id="a_node9"><a xlink:href="x86Cpu_8hpp.html" target="_top" xlink:title=" ">
<polygon fill="white" stroke="black" points="900,-84 900,-125 1050,-125 1050,-84 900,-84"/>
<text text-anchor="start" x="908" y="-113" font-family="Helvetica,sans-Serif" font-size="10.00">/home/jonathan/Works</text>
<text text-anchor="start" x="908" y="-102" font-family="Helvetica,sans-Serif" font-size="10.00">/Tools/Triton/src/libtriton</text>
<text text-anchor="middle" x="975" y="-91" font-family="Helvetica,sans-Serif" font-size="10.00">/includes/triton/x86Cpu.hpp</text>
</a>
</g>
</g>
<!-- Node1&#45;&gt;Node9 -->
<g id="edge8" class="edge">
<title>Node1&#45;&gt;Node9</title>
<path fill="none" stroke="midnightblue" d="M640.61,-174.02C712.33,-164.52 807.81,-150 891,-131 898.58,-129.27 906.47,-127.22 914.25,-125.04"/>
<polygon fill="midnightblue" stroke="midnightblue" points="640.11,-170.55 630.65,-175.32 641.02,-177.49 640.11,-170.55"/>
</g>
<!-- Node7 -->
<g id="node7" class="node">
<title>Node7</title>
<g id="a_node7"><a xlink:href="architecture_8cpp.html" target="_top" xlink:title=" ">
<polygon fill="white" stroke="black" points="821.5,-0.5 821.5,-41.5 954.5,-41.5 954.5,-0.5 821.5,-0.5"/>
<text text-anchor="start" x="829.5" y="-29.5" font-family="Helvetica,sans-Serif" font-size="10.00">/home/jonathan/Works</text>
<text text-anchor="start" x="829.5" y="-18.5" font-family="Helvetica,sans-Serif" font-size="10.00">/Tools/Triton/src/libtriton</text>
<text text-anchor="middle" x="888" y="-7.5" font-family="Helvetica,sans-Serif" font-size="10.00">/arch/architecture.cpp</text>
</a>
</g>
</g>
<!-- Node6&#45;&gt;Node7 -->
<g id="edge6" class="edge">
<title>Node6&#45;&gt;Node7</title>
<path fill="none" stroke="midnightblue" d="M829.43,-76.86C841.72,-65.35 855.84,-52.13 867.13,-41.55"/>
<polygon fill="midnightblue" stroke="midnightblue" points="826.97,-74.38 822.06,-83.77 831.75,-79.49 826.97,-74.38"/>
</g>
<!-- Node8 -->
<g id="node8" class="node">
<title>Node8</title>
<g id="a_node8"><a xlink:href="x8664Cpu_8cpp.html" target="_top" xlink:title=" ">
<polygon fill="white" stroke="black" points="669,-0.5 669,-41.5 803,-41.5 803,-0.5 669,-0.5"/>
<text text-anchor="start" x="677" y="-29.5" font-family="Helvetica,sans-Serif" font-size="10.00">/home/jonathan/Works</text>
<text text-anchor="start" x="677" y="-18.5" font-family="Helvetica,sans-Serif" font-size="10.00">/Tools/Triton/src/libtriton</text>
<text text-anchor="middle" x="736" y="-7.5" font-family="Helvetica,sans-Serif" font-size="10.00">/arch/x86/x8664Cpu.cpp</text>
</a>
</g>
</g>
<!-- Node6&#45;&gt;Node8 -->
<g id="edge7" class="edge">
<title>Node6&#45;&gt;Node8</title>
<path fill="none" stroke="midnightblue" d="M778.97,-75.88C769.98,-64.61 759.79,-51.83 751.59,-41.55"/>
<polygon fill="midnightblue" stroke="midnightblue" points="776.29,-78.14 785.27,-83.77 781.77,-73.77 776.29,-78.14"/>
</g>
<!-- Node9&#45;&gt;Node7 -->
<g id="edge9" class="edge">
<title>Node9&#45;&gt;Node7</title>
<path fill="none" stroke="midnightblue" d="M946.57,-76.86C934.28,-65.35 920.16,-52.13 908.87,-41.55"/>
<polygon fill="midnightblue" stroke="midnightblue" points="944.25,-79.49 953.94,-83.77 949.03,-74.38 944.25,-79.49"/>
</g>
<!-- Node10 -->
<g id="node10" class="node">
<title>Node10</title>
<g id="a_node10"><a xlink:href="x86Cpu_8cpp.html" target="_top" xlink:title=" ">
<polygon fill="white" stroke="black" points="972.5,-0.5 972.5,-41.5 1105.5,-41.5 1105.5,-0.5 972.5,-0.5"/>
<text text-anchor="start" x="980.5" y="-29.5" font-family="Helvetica,sans-Serif" font-size="10.00">/home/jonathan/Works</text>
<text text-anchor="start" x="980.5" y="-18.5" font-family="Helvetica,sans-Serif" font-size="10.00">/Tools/Triton/src/libtriton</text>
<text text-anchor="middle" x="1039" y="-7.5" font-family="Helvetica,sans-Serif" font-size="10.00">/arch/x86/x86Cpu.cpp</text>
</a>
</g>
</g>
<!-- Node9&#45;&gt;Node10 -->
<g id="edge10" class="edge">
<title>Node9&#45;&gt;Node10</title>
<path fill="none" stroke="midnightblue" d="M996.69,-75.88C1005.54,-64.61 1015.58,-51.83 1023.65,-41.55"/>
<polygon fill="midnightblue" stroke="midnightblue" points="993.92,-73.74 990.49,-83.77 999.42,-78.07 993.92,-73.74"/>
</g>
</g>
</svg>
