<?xml version="1.0" encoding="UTF-8" standalone="no"?>
<!DOCTYPE svg PUBLIC "-//W3C//DTD SVG 1.1//EN"
 "http://www.w3.org/Graphics/SVG/1.1/DTD/svg11.dtd">
<!-- Generated by graphviz version 2.50.0 (20211204.2007)
 -->
<!-- Title: /home/jonathan/Works/Tools/Triton/src/libtriton/includes/triton/x86Specifications.hpp Pages: 1 -->
<svg width="1234pt" height="217pt"
 viewBox="0.00 0.00 1234.00 217.00" xmlns="http://www.w3.org/2000/svg" xmlns:xlink="http://www.w3.org/1999/xlink">
<g id="graph0" class="graph" transform="scale(1 1) rotate(0) translate(4 213)">
<title>/home/jonathan/Works/Tools/Triton/src/libtriton/includes/triton/x86Specifications.hpp</title>
<polygon fill="white" stroke="transparent" points="-4,4 -4,-213 1230,-213 1230,4 -4,4"/>
<!-- Node1 -->
<g id="node1" class="node">
<title>Node1</title>
<g id="a_node1"><a xlink:title=" ">
<polygon fill="#bfbfbf" stroke="black" points="501.5,-167.5 501.5,-208.5 700.5,-208.5 700.5,-167.5 501.5,-167.5"/>
<text text-anchor="start" x="509.5" y="-196.5" font-family="Helvetica,sans-Serif" font-size="10.00">/home/jonathan/Works</text>
<text text-anchor="start" x="509.5" y="-185.5" font-family="Helvetica,sans-Serif" font-size="10.00">/Tools/Triton/src/libtriton</text>
<text text-anchor="middle" x="601" y="-174.5" font-family="Helvetica,sans-Serif" font-size="10.00">/includes/triton/x86Specifications.hpp</text>
</a>
</g>
</g>
<!-- Node2 -->
<g id="node2" class="node">
<title>Node2</title>
<g id="a_node2"><a xlink:href="architecture_8cpp.html" target="_top" xlink:title=" ">
<polygon fill="white" stroke="black" points="303.5,-0.5 303.5,-41.5 436.5,-41.5 436.5,-0.5 303.5,-0.5"/>
<text text-anchor="start" x="311.5" y="-29.5" font-family="Helvetica,sans-Serif" font-size="10.00">/home/jonathan/Works</text>
<text text-anchor="start" x="311.5" y="-18.5" font-family="Helvetica,sans-Serif" font-size="10.00">/Tools/Triton/src/libtriton</text>
<text text-anchor="middle" x="370" y="-7.5" font-family="Helvetica,sans-Serif" font-size="10.00">/arch/architecture.cpp</text>
</a>
</g>
</g>
<!-- Node1&#45;&gt;Node2 -->
<g id="edge1" class="edge">
<title>Node1&#45;&gt;Node2</title>
<path fill="none" stroke="midnightblue" d="M491.33,-176.42C431.32,-168.12 365.49,-154.01 347,-131 326.28,-105.22 343.51,-65.25 357.23,-41.54"/>
<polygon fill="midnightblue" stroke="midnightblue" points="490.92,-179.9 501.29,-177.76 491.85,-172.96 490.92,-179.9"/>
</g>
<!-- Node3 -->
<g id="node3" class="node">
<title>Node3</title>
<g id="a_node3"><a xlink:href="x86Semantics_8cpp.html" target="_top" xlink:title=" ">
<polygon fill="white" stroke="black" points="524,-84 524,-125 678,-125 678,-84 524,-84"/>
<text text-anchor="start" x="532" y="-113" font-family="Helvetica,sans-Serif" font-size="10.00">/home/jonathan/Works</text>
<text text-anchor="start" x="532" y="-102" font-family="Helvetica,sans-Serif" font-size="10.00">/Tools/Triton/src/libtriton</text>
<text text-anchor="middle" x="601" y="-91" font-family="Helvetica,sans-Serif" font-size="10.00">/arch/x86/x86Semantics.cpp</text>
</a>
</g>
</g>
<!-- Node1&#45;&gt;Node3 -->
<g id="edge2" class="edge">
<title>Node1&#45;&gt;Node3</title>
<path fill="none" stroke="midnightblue" d="M601,-157.06C601,-146.38 601,-134.63 601,-125.05"/>
<polygon fill="midnightblue" stroke="midnightblue" points="597.5,-157.27 601,-167.27 604.5,-157.27 597.5,-157.27"/>
</g>
<!-- Node4 -->
<g id="node4" class="node">
<title>Node4</title>
<g id="a_node4"><a xlink:href="x86Specifications_8cpp.html" target="_top" xlink:title=" ">
<polygon fill="white" stroke="black" points="696,-84 696,-125 866,-125 866,-84 696,-84"/>
<text text-anchor="start" x="704" y="-113" font-family="Helvetica,sans-Serif" font-size="10.00">/home/jonathan/Works</text>
<text text-anchor="start" x="704" y="-102" font-family="Helvetica,sans-Serif" font-size="10.00">/Tools/Triton/src/libtriton</text>
<text text-anchor="middle" x="781" y="-91" font-family="Helvetica,sans-Serif" font-size="10.00">/arch/x86/x86Specifications.cpp</text>
</a>
</g>
</g>
<!-- Node1&#45;&gt;Node4 -->
<g id="edge3" class="edge">
<title>Node1&#45;&gt;Node4</title>
<path fill="none" stroke="midnightblue" d="M653.37,-163.29C680.22,-151.13 712.53,-136.5 737.93,-125"/>
<polygon fill="midnightblue" stroke="midnightblue" points="651.78,-160.17 644.11,-167.48 654.67,-166.54 651.78,-160.17"/>
</g>
<!-- Node5 -->
<g id="node5" class="node">
<title>Node5</title>
<g id="a_node5"><a xlink:href="initOpcodesNamespace_8cpp.html" target="_top" xlink:title=" ">
<polygon fill="white" stroke="black" points="884,-78.5 884,-130.5 1046,-130.5 1046,-78.5 884,-78.5"/>
<text text-anchor="start" x="892" y="-118.5" font-family="Helvetica,sans-Serif" font-size="10.00">/home/jonathan/Works</text>
<text text-anchor="start" x="892" y="-107.5" font-family="Helvetica,sans-Serif" font-size="10.00">/Tools/Triton/src/libtriton</text>
<text text-anchor="start" x="892" y="-96.5" font-family="Helvetica,sans-Serif" font-size="10.00">/bindings/python/namespaces</text>
<text text-anchor="middle" x="965" y="-85.5" font-family="Helvetica,sans-Serif" font-size="10.00">/initOpcodesNamespace.cpp</text>
</a>
</g>
</g>
<!-- Node1&#45;&gt;Node5 -->
<g id="edge4" class="edge">
<title>Node1&#45;&gt;Node5</title>
<path fill="none" stroke="midnightblue" d="M710.56,-166.55C760.86,-156.66 821.15,-144.11 875,-131 877.84,-130.31 880.73,-129.59 883.64,-128.85"/>
<polygon fill="midnightblue" stroke="midnightblue" points="709.78,-163.13 700.64,-168.49 711.13,-170 709.78,-163.13"/>
</g>
<!-- Node6 -->
<g id="node6" class="node">
<title>Node6</title>
<g id="a_node6"><a xlink:href="initPrefixesNamespace_8cpp.html" target="_top" xlink:title=" ">
<polygon fill="white" stroke="black" points="1064,-78.5 1064,-130.5 1226,-130.5 1226,-78.5 1064,-78.5"/>
<text text-anchor="start" x="1072" y="-118.5" font-family="Helvetica,sans-Serif" font-size="10.00">/home/jonathan/Works</text>
<text text-anchor="start" x="1072" y="-107.5" font-family="Helvetica,sans-Serif" font-size="10.00">/Tools/Triton/src/libtriton</text>
<text text-anchor="start" x="1072" y="-96.5" font-family="Helvetica,sans-Serif" font-size="10.00">/bindings/python/namespaces</text>
<text text-anchor="middle" x="1145" y="-85.5" font-family="Helvetica,sans-Serif" font-size="10.00">/initPrefixesNamespace.cpp</text>
</a>
</g>
</g>
<!-- Node1&#45;&gt;Node6 -->
<g id="edge5" class="edge">
<title>Node1&#45;&gt;Node6</title>
<path fill="none" stroke="midnightblue" d="M711.11,-178.18C803.52,-169.65 938.7,-154.5 1055,-131 1057.87,-130.42 1060.77,-129.8 1063.7,-129.14"/>
<polygon fill="midnightblue" stroke="midnightblue" points="710.54,-174.72 700.9,-179.11 711.18,-181.69 710.54,-174.72"/>
</g>
<!-- Node7 -->
<g id="node7" class="node">
<title>Node7</title>
<g id="a_node7"><a xlink:href="x8664Cpu_8hpp.html" target="_top" xlink:title=" ">
<polygon fill="white" stroke="black" points="138,-84 138,-125 300,-125 300,-84 138,-84"/>
<text text-anchor="start" x="146" y="-113" font-family="Helvetica,sans-Serif" font-size="10.00">/home/jonathan/Works</text>
<text text-anchor="start" x="146" y="-102" font-family="Helvetica,sans-Serif" font-size="10.00">/Tools/Triton/src/libtriton</text>
<text text-anchor="middle" x="219" y="-91" font-family="Helvetica,sans-Serif" font-size="10.00">/includes/triton/x8664Cpu.hpp</text>
</a>
</g>
</g>
<!-- Node1&#45;&gt;Node7 -->
<g id="edge6" class="edge">
<title>Node1&#45;&gt;Node7</title>
<path fill="none" stroke="midnightblue" d="M491.47,-167.48C437.8,-157.44 372.32,-144.5 314,-131 306.1,-129.17 297.86,-127.14 289.68,-125.05"/>
<polygon fill="midnightblue" stroke="midnightblue" points="490.88,-170.93 501.35,-169.32 492.16,-164.05 490.88,-170.93"/>
</g>
<!-- Node10 -->
<g id="node10" class="node">
<title>Node10</title>
<g id="a_node10"><a xlink:href="x86Cpu_8hpp.html" target="_top" xlink:title=" ">
<polygon fill="white" stroke="black" points="356,-84 356,-125 506,-125 506,-84 356,-84"/>
<text text-anchor="start" x="364" y="-113" font-family="Helvetica,sans-Serif" font-size="10.00">/home/jonathan/Works</text>
<text text-anchor="start" x="364" y="-102" font-family="Helvetica,sans-Serif" font-size="10.00">/Tools/Triton/src/libtriton</text>
<text text-anchor="middle" x="431" y="-91" font-family="Helvetica,sans-Serif" font-size="10.00">/includes/triton/x86Cpu.hpp</text>
</a>
</g>
</g>
<!-- Node1&#45;&gt;Node10 -->
<g id="edge10" class="edge">
<title>Node1&#45;&gt;Node10</title>
<path fill="none" stroke="midnightblue" d="M551.21,-163.13C525.91,-151 495.56,-136.45 471.68,-125"/>
<polygon fill="midnightblue" stroke="midnightblue" points="549.75,-166.31 560.28,-167.48 552.78,-160 549.75,-166.31"/>
</g>
<!-- Node7&#45;&gt;Node2 -->
<g id="edge7" class="edge">
<title>Node7&#45;&gt;Node2</title>
<path fill="none" stroke="midnightblue" d="M264.11,-79.15C286.4,-67.12 312.94,-52.8 333.87,-41.5"/>
<polygon fill="midnightblue" stroke="midnightblue" points="262.31,-76.15 255.17,-83.98 265.63,-82.31 262.31,-76.15"/>
</g>
<!-- Node8 -->
<g id="node8" class="node">
<title>Node8</title>
<g id="a_node8"><a xlink:href="x8664Cpu_8cpp.html" target="_top" xlink:title=" ">
<polygon fill="white" stroke="black" points="0,-0.5 0,-41.5 134,-41.5 134,-0.5 0,-0.5"/>
<text text-anchor="start" x="8" y="-29.5" font-family="Helvetica,sans-Serif" font-size="10.00">/home/jonathan/Works</text>
<text text-anchor="start" x="8" y="-18.5" font-family="Helvetica,sans-Serif" font-size="10.00">/Tools/Triton/src/libtriton</text>
<text text-anchor="middle" x="67" y="-7.5" font-family="Helvetica,sans-Serif" font-size="10.00">/arch/x86/x8664Cpu.cpp</text>
</a>
</g>
</g>
<!-- Node7&#45;&gt;Node8 -->
<g id="edge8" class="edge">
<title>Node7&#45;&gt;Node8</title>
<path fill="none" stroke="midnightblue" d="M173.59,-79.15C151.15,-67.12 124.44,-52.8 103.37,-41.5"/>
<polygon fill="midnightblue" stroke="midnightblue" points="172.13,-82.34 182.59,-83.98 175.43,-76.17 172.13,-82.34"/>
</g>
<!-- Node9 -->
<g id="node9" class="node">
<title>Node9</title>
<g id="a_node9"><a xlink:href="context_8cpp.html" target="_top" xlink:title=" ">
<polygon fill="white" stroke="black" points="152.5,-0.5 152.5,-41.5 285.5,-41.5 285.5,-0.5 152.5,-0.5"/>
<text text-anchor="start" x="160.5" y="-29.5" font-family="Helvetica,sans-Serif" font-size="10.00">/home/jonathan/Works</text>
<text text-anchor="start" x="160.5" y="-18.5" font-family="Helvetica,sans-Serif" font-size="10.00">/Tools/Triton/src/libtriton</text>
<text text-anchor="middle" x="219" y="-7.5" font-family="Helvetica,sans-Serif" font-size="10.00">/context/context.cpp</text>
</a>
</g>
</g>
<!-- Node7&#45;&gt;Node9 -->
<g id="edge9" class="edge">
<title>Node7&#45;&gt;Node9</title>
<path fill="none" stroke="midnightblue" d="M219,-73.56C219,-62.88 219,-51.13 219,-41.55"/>
<polygon fill="midnightblue" stroke="midnightblue" points="215.5,-73.77 219,-83.77 222.5,-73.77 215.5,-73.77"/>
</g>
<!-- Node10&#45;&gt;Node2 -->
<g id="edge11" class="edge">
<title>Node10&#45;&gt;Node2</title>
<path fill="none" stroke="midnightblue" d="M410.08,-75.55C401.7,-64.36 392.25,-51.73 384.63,-41.55"/>
<polygon fill="midnightblue" stroke="midnightblue" points="407.44,-77.86 416.23,-83.77 413.04,-73.67 407.44,-77.86"/>
</g>
<!-- Node10&#45;&gt;Node9 -->
<g id="edge13" class="edge">
<title>Node10&#45;&gt;Node9</title>
<path fill="none" stroke="midnightblue" d="M370.56,-80.27C338.69,-68.01 300.03,-53.15 269.73,-41.5"/>
<polygon fill="midnightblue" stroke="midnightblue" points="369.63,-83.66 380.22,-83.98 372.14,-77.12 369.63,-83.66"/>
</g>
<!-- Node11 -->
<g id="node11" class="node">
<title>Node11</title>
<g id="a_node11"><a xlink:href="x86Cpu_8cpp.html" target="_top" xlink:title=" ">
<polygon fill="white" stroke="black" points="454.5,-0.5 454.5,-41.5 587.5,-41.5 587.5,-0.5 454.5,-0.5"/>
<text text-anchor="start" x="462.5" y="-29.5" font-family="Helvetica,sans-Serif" font-size="10.00">/home/jonathan/Works</text>
<text text-anchor="start" x="462.5" y="-18.5" font-family="Helvetica,sans-Serif" font-size="10.00">/Tools/Triton/src/libtriton</text>
<text text-anchor="middle" x="521" y="-7.5" font-family="Helvetica,sans-Serif" font-size="10.00">/arch/x86/x86Cpu.cpp</text>
</a>
</g>
</g>
<!-- Node10&#45;&gt;Node11 -->
<g id="edge12" class="edge">
<title>Node10&#45;&gt;Node11</title>
<path fill="none" stroke="midnightblue" d="M460.41,-76.86C473.12,-65.35 487.73,-52.13 499.41,-41.55"/>
<polygon fill="midnightblue" stroke="midnightblue" points="457.85,-74.46 452.79,-83.77 462.55,-79.65 457.85,-74.46"/>
</g>
</g>
</svg>
