<?xml version="1.0" encoding="UTF-8" standalone="no"?>
<!DOCTYPE svg PUBLIC "-//W3C//DTD SVG 1.1//EN"
 "http://www.w3.org/Graphics/SVG/1.1/DTD/svg11.dtd">
<!-- Generated by graphviz version 7.0.0 (20221023.0053)
 -->
<!-- Title: /Users/jonathan/Works/Tools/Triton/src/libtriton/includes/triton/x86Specifications.hpp Pages: 1 -->
<svg width="1138pt" height="214pt"
 viewBox="0.00 0.00 1137.50 214.00" xmlns="http://www.w3.org/2000/svg" xmlns:xlink="http://www.w3.org/1999/xlink">
<g id="graph0" class="graph" transform="scale(1 1) rotate(0) translate(4 210)">
<title>/Users/jonathan/Works/Tools/Triton/src/libtriton/includes/triton/x86Specifications.hpp</title>
<!-- Node1 -->
<g id="node1" class="node">
<title>Node1</title>
<g id="a_node1"><a xlink:title=" ">
<polygon fill="#999999" stroke="#666666" points="646,-206 467,-206 467,-165 646,-165 646,-206"/>
<text text-anchor="start" x="475" y="-194" font-family="Helvetica,sans-Serif" font-size="10.00">/Users/jonathan/Works</text>
<text text-anchor="start" x="475" y="-183" font-family="Helvetica,sans-Serif" font-size="10.00">/Tools/Triton/src/libtriton</text>
<text text-anchor="middle" x="556.5" y="-172" font-family="Helvetica,sans-Serif" font-size="10.00">/includes/triton/x86Specifications.hpp</text>
</a>
</g>
</g>
<!-- Node2 -->
<g id="node2" class="node">
<title>Node2</title>
<g id="a_node2"><a xlink:href="architecture_8cpp.html" target="_top" xlink:title=" ">
<polygon fill="white" stroke="#666666" points="403.5,-41 281.5,-41 281.5,0 403.5,0 403.5,-41"/>
<text text-anchor="start" x="289.5" y="-29" font-family="Helvetica,sans-Serif" font-size="10.00">/Users/jonathan/Works</text>
<text text-anchor="start" x="289.5" y="-18" font-family="Helvetica,sans-Serif" font-size="10.00">/Tools/Triton/src/libtriton</text>
<text text-anchor="middle" x="342.5" y="-7" font-family="Helvetica,sans-Serif" font-size="10.00">/arch/architecture.cpp</text>
</a>
</g>
</g>
<!-- Node1&#45;&gt;Node2 -->
<g id="edge1" class="edge">
<title>Node1&#45;&gt;Node2</title>
<path fill="none" stroke="#63b8ff" d="M455.42,-173.02C400.1,-164.43 339.43,-150.41 322.5,-129 302.49,-103.68 317.87,-64.59 330.47,-41.17"/>
<polygon fill="#63b8ff" stroke="#63b8ff" points="454.85,-176.47 465.26,-174.49 455.89,-169.55 454.85,-176.47"/>
</g>
<!-- Node3 -->
<g id="node3" class="node">
<title>Node3</title>
<g id="a_node3"><a xlink:href="x86Semantics_8cpp.html" target="_top" xlink:title=" ">
<polygon fill="white" stroke="#666666" points="627,-123.5 486,-123.5 486,-82.5 627,-82.5 627,-123.5"/>
<text text-anchor="start" x="494" y="-111.5" font-family="Helvetica,sans-Serif" font-size="10.00">/Users/jonathan/Works</text>
<text text-anchor="start" x="494" y="-100.5" font-family="Helvetica,sans-Serif" font-size="10.00">/Tools/Triton/src/libtriton</text>
<text text-anchor="middle" x="556.5" y="-89.5" font-family="Helvetica,sans-Serif" font-size="10.00">/arch/x86/x86Semantics.cpp</text>
</a>
</g>
</g>
<!-- Node1&#45;&gt;Node3 -->
<g id="edge2" class="edge">
<title>Node1&#45;&gt;Node3</title>
<path fill="none" stroke="#63b8ff" d="M556.5,-153.16C556.5,-143.33 556.5,-132.76 556.5,-123.95"/>
<polygon fill="#63b8ff" stroke="#63b8ff" points="553,-153.09 556.5,-163.09 560,-153.09 553,-153.09"/>
</g>
<!-- Node4 -->
<g id="node4" class="node">
<title>Node4</title>
<g id="a_node4"><a xlink:href="x86Specifications_8cpp.html" target="_top" xlink:title=" ">
<polygon fill="white" stroke="#666666" points="801.5,-123.5 645.5,-123.5 645.5,-82.5 801.5,-82.5 801.5,-123.5"/>
<text text-anchor="start" x="653.5" y="-111.5" font-family="Helvetica,sans-Serif" font-size="10.00">/Users/jonathan/Works</text>
<text text-anchor="start" x="653.5" y="-100.5" font-family="Helvetica,sans-Serif" font-size="10.00">/Tools/Triton/src/libtriton</text>
<text text-anchor="middle" x="723.5" y="-89.5" font-family="Helvetica,sans-Serif" font-size="10.00">/arch/x86/x86Specifications.cpp</text>
</a>
</g>
</g>
<!-- Node1&#45;&gt;Node4 -->
<g id="edge3" class="edge">
<title>Node1&#45;&gt;Node4</title>
<path fill="none" stroke="#63b8ff" d="M608.05,-159.65C631.84,-148.18 659.72,-134.75 682.12,-123.95"/>
<polygon fill="#63b8ff" stroke="#63b8ff" points="606.63,-156.45 599.14,-163.94 609.67,-162.75 606.63,-156.45"/>
</g>
<!-- Node5 -->
<g id="node5" class="node">
<title>Node5</title>
<g id="a_node5"><a xlink:href="initOpcodesNamespace_8cpp.html" target="_top" xlink:title=" ">
<polygon fill="white" stroke="#666666" points="965.5,-129 819.5,-129 819.5,-77 965.5,-77 965.5,-129"/>
<text text-anchor="start" x="827.5" y="-117" font-family="Helvetica,sans-Serif" font-size="10.00">/Users/jonathan/Works</text>
<text text-anchor="start" x="827.5" y="-106" font-family="Helvetica,sans-Serif" font-size="10.00">/Tools/Triton/src/libtriton</text>
<text text-anchor="start" x="827.5" y="-95" font-family="Helvetica,sans-Serif" font-size="10.00">/bindings/python/namespaces</text>
<text text-anchor="middle" x="892.5" y="-84" font-family="Helvetica,sans-Serif" font-size="10.00">/initOpcodesNamespace.cpp</text>
</a>
</g>
</g>
<!-- Node1&#45;&gt;Node5 -->
<g id="edge4" class="edge">
<title>Node1&#45;&gt;Node5</title>
<path fill="none" stroke="#63b8ff" d="M657.32,-164.43C704.12,-154.61 760.37,-142.1 810.5,-129 813.38,-128.25 816.31,-127.46 819.27,-126.65"/>
<polygon fill="#63b8ff" stroke="#63b8ff" points="656.81,-160.96 647.74,-166.42 658.24,-167.81 656.81,-160.96"/>
</g>
<!-- Node6 -->
<g id="node6" class="node">
<title>Node6</title>
<g id="a_node6"><a xlink:href="initPrefixesNamespace_8cpp.html" target="_top" xlink:title=" ">
<polygon fill="white" stroke="#666666" points="1129.5,-129 983.5,-129 983.5,-77 1129.5,-77 1129.5,-129"/>
<text text-anchor="start" x="991.5" y="-117" font-family="Helvetica,sans-Serif" font-size="10.00">/Users/jonathan/Works</text>
<text text-anchor="start" x="991.5" y="-106" font-family="Helvetica,sans-Serif" font-size="10.00">/Tools/Triton/src/libtriton</text>
<text text-anchor="start" x="991.5" y="-95" font-family="Helvetica,sans-Serif" font-size="10.00">/bindings/python/namespaces</text>
<text text-anchor="middle" x="1056.5" y="-84" font-family="Helvetica,sans-Serif" font-size="10.00">/initPrefixesNamespace.cpp</text>
</a>
</g>
</g>
<!-- Node1&#45;&gt;Node6 -->
<g id="edge5" class="edge">
<title>Node1&#45;&gt;Node6</title>
<path fill="none" stroke="#63b8ff" d="M657.34,-175.79C742.5,-167.32 867.36,-152.28 974.5,-129 977.41,-128.37 980.36,-127.68 983.34,-126.95"/>
<polygon fill="#63b8ff" stroke="#63b8ff" points="657.23,-172.28 647.62,-176.74 657.91,-179.25 657.23,-172.28"/>
</g>
<!-- Node7 -->
<g id="node7" class="node">
<title>Node7</title>
<g id="a_node7"><a xlink:href="x8664Cpu_8hpp.html" target="_top" xlink:title=" ">
<polygon fill="white" stroke="#666666" points="275.5,-123.5 129.5,-123.5 129.5,-82.5 275.5,-82.5 275.5,-123.5"/>
<text text-anchor="start" x="137.5" y="-111.5" font-family="Helvetica,sans-Serif" font-size="10.00">/Users/jonathan/Works</text>
<text text-anchor="start" x="137.5" y="-100.5" font-family="Helvetica,sans-Serif" font-size="10.00">/Tools/Triton/src/libtriton</text>
<text text-anchor="middle" x="202.5" y="-89.5" font-family="Helvetica,sans-Serif" font-size="10.00">/includes/triton/x8664Cpu.hpp</text>
</a>
</g>
</g>
<!-- Node1&#45;&gt;Node7 -->
<g id="edge6" class="edge">
<title>Node1&#45;&gt;Node7</title>
<path fill="none" stroke="#63b8ff" d="M455.35,-165.33C405.25,-155.36 343.98,-142.47 289.5,-129 283.09,-127.42 276.45,-125.68 269.81,-123.88"/>
<polygon fill="#63b8ff" stroke="#63b8ff" points="454.54,-168.74 465.03,-167.25 455.9,-161.87 454.54,-168.74"/>
</g>
<!-- Node10 -->
<g id="node10" class="node">
<title>Node10</title>
<g id="a_node10"><a xlink:href="x86Cpu_8hpp.html" target="_top" xlink:title=" ">
<polygon fill="white" stroke="#666666" points="467.5,-123.5 331.5,-123.5 331.5,-82.5 467.5,-82.5 467.5,-123.5"/>
<text text-anchor="start" x="339.5" y="-111.5" font-family="Helvetica,sans-Serif" font-size="10.00">/Users/jonathan/Works</text>
<text text-anchor="start" x="339.5" y="-100.5" font-family="Helvetica,sans-Serif" font-size="10.00">/Tools/Triton/src/libtriton</text>
<text text-anchor="middle" x="399.5" y="-89.5" font-family="Helvetica,sans-Serif" font-size="10.00">/includes/triton/x86Cpu.hpp</text>
</a>
</g>
</g>
<!-- Node1&#45;&gt;Node10 -->
<g id="edge10" class="edge">
<title>Node1&#45;&gt;Node10</title>
<path fill="none" stroke="#63b8ff" d="M507.74,-159.5C485.43,-148.06 459.37,-134.7 438.41,-123.95"/>
<polygon fill="#63b8ff" stroke="#63b8ff" points="505.85,-162.46 516.34,-163.91 509.04,-156.23 505.85,-162.46"/>
</g>
<!-- Node7&#45;&gt;Node2 -->
<g id="edge7" class="edge">
<title>Node7&#45;&gt;Node2</title>
<path fill="none" stroke="#63b8ff" d="M247.06,-76.38C266.71,-65.08 289.45,-52 307.81,-41.45"/>
<polygon fill="#63b8ff" stroke="#63b8ff" points="245.34,-73.33 238.42,-81.35 248.83,-79.4 245.34,-73.33"/>
</g>
<!-- Node8 -->
<g id="node8" class="node">
<title>Node8</title>
<g id="a_node8"><a xlink:href="x8664Cpu_8cpp.html" target="_top" xlink:title=" ">
<polygon fill="white" stroke="#666666" points="123,-41 0,-41 0,0 123,0 123,-41"/>
<text text-anchor="start" x="8" y="-29" font-family="Helvetica,sans-Serif" font-size="10.00">/Users/jonathan/Works</text>
<text text-anchor="start" x="8" y="-18" font-family="Helvetica,sans-Serif" font-size="10.00">/Tools/Triton/src/libtriton</text>
<text text-anchor="middle" x="61.5" y="-7" font-family="Helvetica,sans-Serif" font-size="10.00">/arch/x86/x8664Cpu.cpp</text>
</a>
</g>
</g>
<!-- Node7&#45;&gt;Node8 -->
<g id="edge8" class="edge">
<title>Node7&#45;&gt;Node8</title>
<path fill="none" stroke="#63b8ff" d="M157.89,-76.53C138.04,-65.2 115.01,-52.05 96.44,-41.45"/>
<polygon fill="#63b8ff" stroke="#63b8ff" points="155.91,-79.43 166.33,-81.35 159.38,-73.35 155.91,-79.43"/>
</g>
<!-- Node9 -->
<g id="node9" class="node">
<title>Node9</title>
<g id="a_node9"><a xlink:href="context_8cpp.html" target="_top" xlink:title=" ">
<polygon fill="white" stroke="#666666" points="263.5,-41 141.5,-41 141.5,0 263.5,0 263.5,-41"/>
<text text-anchor="start" x="149.5" y="-29" font-family="Helvetica,sans-Serif" font-size="10.00">/Users/jonathan/Works</text>
<text text-anchor="start" x="149.5" y="-18" font-family="Helvetica,sans-Serif" font-size="10.00">/Tools/Triton/src/libtriton</text>
<text text-anchor="middle" x="202.5" y="-7" font-family="Helvetica,sans-Serif" font-size="10.00">/context/context.cpp</text>
</a>
</g>
</g>
<!-- Node7&#45;&gt;Node9 -->
<g id="edge9" class="edge">
<title>Node7&#45;&gt;Node9</title>
<path fill="none" stroke="#63b8ff" d="M202.5,-70.66C202.5,-60.83 202.5,-50.26 202.5,-41.45"/>
<polygon fill="#63b8ff" stroke="#63b8ff" points="199,-70.59 202.5,-80.59 206,-70.59 199,-70.59"/>
</g>
<!-- Node10&#45;&gt;Node2 -->
<g id="edge11" class="edge">
<title>Node10&#45;&gt;Node2</title>
<path fill="none" stroke="#63b8ff" d="M378.9,-72.91C371.51,-62.47 363.34,-50.94 356.63,-41.45"/>
<polygon fill="#63b8ff" stroke="#63b8ff" points="375.9,-74.73 384.54,-80.87 381.61,-70.68 375.9,-74.73"/>
</g>
<!-- Node10&#45;&gt;Node9 -->
<g id="edge13" class="edge">
<title>Node10&#45;&gt;Node9</title>
<path fill="none" stroke="#63b8ff" d="M340.2,-77.77C311.8,-66.16 278.21,-52.44 251.32,-41.45"/>
<polygon fill="#63b8ff" stroke="#63b8ff" points="338.82,-80.99 349.4,-81.53 341.47,-74.51 338.82,-80.99"/>
</g>
<!-- Node11 -->
<g id="node11" class="node">
<title>Node11</title>
<g id="a_node11"><a xlink:href="x86Cpu_8cpp.html" target="_top" xlink:title=" ">
<polygon fill="white" stroke="#666666" points="543.5,-41 421.5,-41 421.5,0 543.5,0 543.5,-41"/>
<text text-anchor="start" x="429.5" y="-29" font-family="Helvetica,sans-Serif" font-size="10.00">/Users/jonathan/Works</text>
<text text-anchor="start" x="429.5" y="-18" font-family="Helvetica,sans-Serif" font-size="10.00">/Tools/Triton/src/libtriton</text>
<text text-anchor="middle" x="482.5" y="-7" font-family="Helvetica,sans-Serif" font-size="10.00">/arch/x86/x86Cpu.cpp</text>
</a>
</g>
</g>
<!-- Node10&#45;&gt;Node11 -->
<g id="edge12" class="edge">
<title>Node10&#45;&gt;Node11</title>
<path fill="none" stroke="#63b8ff" d="M428.18,-74.18C439.29,-63.41 451.75,-51.33 461.93,-41.45"/>
<polygon fill="#63b8ff" stroke="#63b8ff" points="425.84,-71.57 421.1,-81.05 430.72,-76.6 425.84,-71.57"/>
</g>
</g>
</svg>
