<?xml version="1.0" encoding="UTF-8" standalone="no"?>
<!DOCTYPE svg PUBLIC "-//W3C//DTD SVG 1.1//EN"
 "http://www.w3.org/Graphics/SVG/1.1/DTD/svg11.dtd">
<!-- Generated by graphviz version 2.50.0 (20211204.2007)
 -->
<!-- Title: /home/jonathan/Works/Tools/Triton/src/libtriton/includes/triton/x86Specifications.hpp Pages: 1 -->
<svg width="1112pt" height="217pt"
 viewBox="0.00 0.00 1111.50 217.00" xmlns="http://www.w3.org/2000/svg" xmlns:xlink="http://www.w3.org/1999/xlink">
<g id="graph0" class="graph" transform="scale(1 1) rotate(0) translate(4 213)">
<title>/home/jonathan/Works/Tools/Triton/src/libtriton/includes/triton/x86Specifications.hpp</title>
<polygon fill="white" stroke="transparent" points="-4,4 -4,-213 1107.5,-213 1107.5,4 -4,4"/>
<!-- Node1 -->
<g id="node1" class="node">
<title>Node1</title>
<g id="a_node1"><a xlink:title=" ">
<polygon fill="#bfbfbf" stroke="black" points="521.5,-167.5 521.5,-208.5 720.5,-208.5 720.5,-167.5 521.5,-167.5"/>
<text text-anchor="start" x="529.5" y="-196.5" font-family="Helvetica,sans-Serif" font-size="10.00">/home/jonathan/Works</text>
<text text-anchor="start" x="529.5" y="-185.5" font-family="Helvetica,sans-Serif" font-size="10.00">/Tools/Triton/src/libtriton</text>
<text text-anchor="middle" x="621" y="-174.5" font-family="Helvetica,sans-Serif" font-size="10.00">/includes/triton/x86Specifications.hpp</text>
</a>
</g>
</g>
<!-- Node2 -->
<g id="node2" class="node">
<title>Node2</title>
<g id="a_node2"><a xlink:href="architecture_8cpp.html" target="_top" xlink:title=" ">
<polygon fill="white" stroke="black" points="819.5,-0.5 819.5,-41.5 952.5,-41.5 952.5,-0.5 819.5,-0.5"/>
<text text-anchor="start" x="827.5" y="-29.5" font-family="Helvetica,sans-Serif" font-size="10.00">/home/jonathan/Works</text>
<text text-anchor="start" x="827.5" y="-18.5" font-family="Helvetica,sans-Serif" font-size="10.00">/Tools/Triton/src/libtriton</text>
<text text-anchor="middle" x="886" y="-7.5" font-family="Helvetica,sans-Serif" font-size="10.00">/arch/architecture.cpp</text>
</a>
</g>
</g>
<!-- Node1&#45;&gt;Node2 -->
<g id="edge1" class="edge">
<title>Node1&#45;&gt;Node2</title>
<path fill="none" stroke="midnightblue" d="M730.82,-178.14C796.3,-170.33 870.56,-156.12 891,-131 911.45,-105.88 902.35,-65.68 894.05,-41.76"/>
<polygon fill="midnightblue" stroke="midnightblue" points="730.35,-174.68 720.82,-179.3 731.15,-181.63 730.35,-174.68"/>
</g>
<!-- Node3 -->
<g id="node3" class="node">
<title>Node3</title>
<g id="a_node3"><a xlink:href="x86Semantics_8cpp.html" target="_top" xlink:title=" ">
<polygon fill="white" stroke="black" points="180,-84 180,-125 334,-125 334,-84 180,-84"/>
<text text-anchor="start" x="188" y="-113" font-family="Helvetica,sans-Serif" font-size="10.00">/home/jonathan/Works</text>
<text text-anchor="start" x="188" y="-102" font-family="Helvetica,sans-Serif" font-size="10.00">/Tools/Triton/src/libtriton</text>
<text text-anchor="middle" x="257" y="-91" font-family="Helvetica,sans-Serif" font-size="10.00">/arch/x86/x86Semantics.cpp</text>
</a>
</g>
</g>
<!-- Node1&#45;&gt;Node3 -->
<g id="edge2" class="edge">
<title>Node1&#45;&gt;Node3</title>
<path fill="none" stroke="midnightblue" d="M511.32,-167.25C459.96,-157.41 398.1,-144.69 343,-131 335.75,-129.2 328.19,-127.17 320.7,-125.08"/>
<polygon fill="midnightblue" stroke="midnightblue" points="510.97,-170.75 521.45,-169.18 512.28,-163.87 510.97,-170.75"/>
</g>
<!-- Node4 -->
<g id="node4" class="node">
<title>Node4</title>
<g id="a_node4"><a xlink:href="x86Specifications_8cpp.html" target="_top" xlink:title=" ">
<polygon fill="white" stroke="black" points="352,-84 352,-125 522,-125 522,-84 352,-84"/>
<text text-anchor="start" x="360" y="-113" font-family="Helvetica,sans-Serif" font-size="10.00">/home/jonathan/Works</text>
<text text-anchor="start" x="360" y="-102" font-family="Helvetica,sans-Serif" font-size="10.00">/Tools/Triton/src/libtriton</text>
<text text-anchor="middle" x="437" y="-91" font-family="Helvetica,sans-Serif" font-size="10.00">/arch/x86/x86Specifications.cpp</text>
</a>
</g>
</g>
<!-- Node1&#45;&gt;Node4 -->
<g id="edge3" class="edge">
<title>Node1&#45;&gt;Node4</title>
<path fill="none" stroke="midnightblue" d="M567.47,-163.29C540.02,-151.13 506.99,-136.5 481.03,-125"/>
<polygon fill="midnightblue" stroke="midnightblue" points="566.37,-166.63 576.93,-167.48 569.2,-160.23 566.37,-166.63"/>
</g>
<!-- Node5 -->
<g id="node5" class="node">
<title>Node5</title>
<g id="a_node5"><a xlink:href="initOpcodesNamespace_8cpp.html" target="_top" xlink:title=" ">
<polygon fill="white" stroke="black" points="540,-78.5 540,-130.5 702,-130.5 702,-78.5 540,-78.5"/>
<text text-anchor="start" x="548" y="-118.5" font-family="Helvetica,sans-Serif" font-size="10.00">/home/jonathan/Works</text>
<text text-anchor="start" x="548" y="-107.5" font-family="Helvetica,sans-Serif" font-size="10.00">/Tools/Triton/src/libtriton</text>
<text text-anchor="start" x="548" y="-96.5" font-family="Helvetica,sans-Serif" font-size="10.00">/bindings/python/namespaces</text>
<text text-anchor="middle" x="621" y="-85.5" font-family="Helvetica,sans-Serif" font-size="10.00">/initOpcodesNamespace.cpp</text>
</a>
</g>
</g>
<!-- Node1&#45;&gt;Node5 -->
<g id="edge4" class="edge">
<title>Node1&#45;&gt;Node5</title>
<path fill="none" stroke="midnightblue" d="M621,-157.12C621,-148.41 621,-138.99 621,-130.61"/>
<polygon fill="midnightblue" stroke="midnightblue" points="617.5,-157.27 621,-167.27 624.5,-157.27 617.5,-157.27"/>
</g>
<!-- Node6 -->
<g id="node6" class="node">
<title>Node6</title>
<g id="a_node6"><a xlink:href="initPrefixesNamespace_8cpp.html" target="_top" xlink:title=" ">
<polygon fill="white" stroke="black" points="720,-78.5 720,-130.5 882,-130.5 882,-78.5 720,-78.5"/>
<text text-anchor="start" x="728" y="-118.5" font-family="Helvetica,sans-Serif" font-size="10.00">/home/jonathan/Works</text>
<text text-anchor="start" x="728" y="-107.5" font-family="Helvetica,sans-Serif" font-size="10.00">/Tools/Triton/src/libtriton</text>
<text text-anchor="start" x="728" y="-96.5" font-family="Helvetica,sans-Serif" font-size="10.00">/bindings/python/namespaces</text>
<text text-anchor="middle" x="801" y="-85.5" font-family="Helvetica,sans-Serif" font-size="10.00">/initPrefixesNamespace.cpp</text>
</a>
</g>
</g>
<!-- Node1&#45;&gt;Node6 -->
<g id="edge5" class="edge">
<title>Node1&#45;&gt;Node6</title>
<path fill="none" stroke="midnightblue" d="M673.26,-163.34C695.96,-153.06 722.57,-141.01 745.62,-130.58"/>
<polygon fill="midnightblue" stroke="midnightblue" points="671.78,-160.17 664.11,-167.48 674.67,-166.54 671.78,-160.17"/>
</g>
<!-- Node7 -->
<g id="node7" class="node">
<title>Node7</title>
<g id="a_node7"><a xlink:href="x8664Cpu_8hpp.html" target="_top" xlink:title=" ">
<polygon fill="white" stroke="black" points="0,-84 0,-125 162,-125 162,-84 0,-84"/>
<text text-anchor="start" x="8" y="-113" font-family="Helvetica,sans-Serif" font-size="10.00">/home/jonathan/Works</text>
<text text-anchor="start" x="8" y="-102" font-family="Helvetica,sans-Serif" font-size="10.00">/Tools/Triton/src/libtriton</text>
<text text-anchor="middle" x="81" y="-91" font-family="Helvetica,sans-Serif" font-size="10.00">/includes/triton/x8664Cpu.hpp</text>
</a>
</g>
</g>
<!-- Node1&#45;&gt;Node7 -->
<g id="edge6" class="edge">
<title>Node1&#45;&gt;Node7</title>
<path fill="none" stroke="midnightblue" d="M510.98,-178.03C419.4,-169.43 285.9,-154.29 171,-131 162.72,-129.32 154.1,-127.27 145.6,-125.08"/>
<polygon fill="midnightblue" stroke="midnightblue" points="510.81,-181.53 521.09,-178.96 511.46,-174.56 510.81,-181.53"/>
</g>
<!-- Node9 -->
<g id="node9" class="node">
<title>Node9</title>
<g id="a_node9"><a xlink:href="x86Cpu_8hpp.html" target="_top" xlink:title=" ">
<polygon fill="white" stroke="black" points="938,-84 938,-125 1088,-125 1088,-84 938,-84"/>
<text text-anchor="start" x="946" y="-113" font-family="Helvetica,sans-Serif" font-size="10.00">/home/jonathan/Works</text>
<text text-anchor="start" x="946" y="-102" font-family="Helvetica,sans-Serif" font-size="10.00">/Tools/Triton/src/libtriton</text>
<text text-anchor="middle" x="1013" y="-91" font-family="Helvetica,sans-Serif" font-size="10.00">/includes/triton/x86Cpu.hpp</text>
</a>
</g>
</g>
<!-- Node1&#45;&gt;Node9 -->
<g id="edge9" class="edge">
<title>Node1&#45;&gt;Node9</title>
<path fill="none" stroke="midnightblue" d="M730.67,-169.35C788.46,-159.39 860.37,-145.96 924,-131 931.67,-129.2 939.66,-127.15 947.57,-125.02"/>
<polygon fill="midnightblue" stroke="midnightblue" points="730.05,-165.91 720.78,-171.05 731.23,-172.81 730.05,-165.91"/>
</g>
<!-- Node7&#45;&gt;Node2 -->
<g id="edge7" class="edge">
<title>Node7&#45;&gt;Node2</title>
<path fill="none" stroke="midnightblue" d="M153.79,-81.57C159.58,-80.22 165.37,-79.01 171,-78 406.94,-35.77 692.33,-25.38 819.4,-22.83"/>
<polygon fill="midnightblue" stroke="midnightblue" points="152.95,-78.17 144.06,-83.94 154.61,-84.97 152.95,-78.17"/>
</g>
<!-- Node8 -->
<g id="node8" class="node">
<title>Node8</title>
<g id="a_node8"><a xlink:href="x8664Cpu_8cpp.html" target="_top" xlink:title=" ">
<polygon fill="white" stroke="black" points="14,-0.5 14,-41.5 148,-41.5 148,-0.5 14,-0.5"/>
<text text-anchor="start" x="22" y="-29.5" font-family="Helvetica,sans-Serif" font-size="10.00">/home/jonathan/Works</text>
<text text-anchor="start" x="22" y="-18.5" font-family="Helvetica,sans-Serif" font-size="10.00">/Tools/Triton/src/libtriton</text>
<text text-anchor="middle" x="81" y="-7.5" font-family="Helvetica,sans-Serif" font-size="10.00">/arch/x86/x8664Cpu.cpp</text>
</a>
</g>
</g>
<!-- Node7&#45;&gt;Node8 -->
<g id="edge8" class="edge">
<title>Node7&#45;&gt;Node8</title>
<path fill="none" stroke="midnightblue" d="M81,-73.56C81,-62.88 81,-51.13 81,-41.55"/>
<polygon fill="midnightblue" stroke="midnightblue" points="77.5,-73.77 81,-83.77 84.5,-73.77 77.5,-73.77"/>
</g>
<!-- Node9&#45;&gt;Node2 -->
<g id="edge10" class="edge">
<title>Node9&#45;&gt;Node2</title>
<path fill="none" stroke="midnightblue" d="M974.09,-78.53C955.62,-66.68 933.88,-52.72 916.61,-41.64"/>
<polygon fill="midnightblue" stroke="midnightblue" points="972.27,-81.52 982.58,-83.98 976.05,-75.63 972.27,-81.52"/>
</g>
<!-- Node10 -->
<g id="node10" class="node">
<title>Node10</title>
<g id="a_node10"><a xlink:href="x86Cpu_8cpp.html" target="_top" xlink:title=" ">
<polygon fill="white" stroke="black" points="970.5,-0.5 970.5,-41.5 1103.5,-41.5 1103.5,-0.5 970.5,-0.5"/>
<text text-anchor="start" x="978.5" y="-29.5" font-family="Helvetica,sans-Serif" font-size="10.00">/home/jonathan/Works</text>
<text text-anchor="start" x="978.5" y="-18.5" font-family="Helvetica,sans-Serif" font-size="10.00">/Tools/Triton/src/libtriton</text>
<text text-anchor="middle" x="1037" y="-7.5" font-family="Helvetica,sans-Serif" font-size="10.00">/arch/x86/x86Cpu.cpp</text>
</a>
</g>
</g>
<!-- Node9&#45;&gt;Node10 -->
<g id="edge11" class="edge">
<title>Node9&#45;&gt;Node10</title>
<path fill="none" stroke="midnightblue" d="M1021.72,-73.9C1024.89,-63.13 1028.39,-51.23 1031.24,-41.55"/>
<polygon fill="midnightblue" stroke="midnightblue" points="1018.28,-73.19 1018.81,-83.77 1024.99,-75.17 1018.28,-73.19"/>
</g>
</g>
</svg>
