<?xml version="1.0" encoding="utf-8"?>
<!-- Generator: Adobe Illustrator 19.0.0, SVG Export Plug-In . SVG Version: 6.00 Build 0)  -->
<svg version="1.1" id="Calque_1" xmlns="http://www.w3.org/2000/svg" xmlns:xlink="http://www.w3.org/1999/xlink" x="0px" y="0px"
	 viewBox="0 0 270 60" style="enable-background:new 0 0 270 60;" xml:space="preserve">
<style type="text/css">
	.st0{fill:#AA3C3C;}
	.st1{fill:#282828;}
	.st2{fill:none;}
	.st3{font-family:'Arial-BoldMT';}
	.st4{font-size:9px;}
	.st5{fill:#1D1D1B;}
	.st6{fill:none;stroke:#000000;stroke-miterlimit:10;}
</style>
<path class="st0" d="M31.7,9.7H21.3v29.7h-8.2V9.7H2.7V3h28.9V9.7z"/>
<path class="st1" d="M83,39.4h-9.4l-5.7-9.4c-0.4-0.7-0.8-1.3-1.2-1.9c-0.4-0.6-0.8-1-1.2-1.4c-0.4-0.4-0.8-0.7-1.2-0.9
	c-0.4-0.2-0.9-0.3-1.4-0.3h-2.2v13.9h-8.2V3h13c8.8,0,13.3,3.3,13.3,9.9c0,1.3-0.2,2.4-0.6,3.5c-0.4,1.1-0.9,2-1.7,2.9
	c-0.7,0.9-1.6,1.6-2.6,2.2c-1,0.6-2.1,1.1-3.4,1.5v0.1c0.5,0.2,1.1,0.4,1.6,0.8c0.5,0.4,1,0.8,1.5,1.3c0.5,0.5,0.9,1.1,1.4,1.6
	c0.4,0.6,0.8,1.2,1.2,1.7L83,39.4z M60.7,9.2v10.1h3.6c1.8,0,3.2-0.5,4.2-1.5c1.1-1,1.6-2.3,1.6-3.8c0-3.2-1.9-4.8-5.7-4.8H60.7z"/>
<path class="st0" d="M131.3,32.8h10.4V3h8.2v29.7h10.3v6.7h-28.9V32.8z"/>
<path class="st1" d="M194.5,40.1c-5.2,0-9.5-1.7-12.7-5.1c-3.3-3.4-4.9-7.8-4.9-13.3c0-5.8,1.7-10.4,5-14c3.3-3.6,7.8-5.3,13.3-5.3
	c5.2,0,9.4,1.7,12.6,5.1c3.2,3.4,4.8,7.9,4.8,13.5c0,5.7-1.7,10.3-5,13.8C204.2,38.3,199.9,40.1,194.5,40.1z M194.9,9.5
	c-2.9,0-5.2,1.1-6.9,3.2c-1.7,2.2-2.5,5-2.5,8.6c0,3.6,0.8,6.5,2.5,8.6c1.7,2.1,3.9,3.1,6.7,3.1c2.8,0,5.1-1,6.7-3.1
	c1.7-2,2.5-4.9,2.5-8.5c0-3.8-0.8-6.7-2.4-8.8C199.9,10.5,197.7,9.5,194.9,9.5z"/>
<path class="st1" d="M267.2,39.4H259l-15-22.9c-0.9-1.3-1.5-2.3-1.8-3H242c0.1,1.3,0.2,3.2,0.2,5.9v20h-7.7V3h8.8l14.4,22.2
	c0.7,1,1.3,2,1.8,3h0.1c-0.1-0.8-0.2-2.5-0.2-5V3h7.7V39.4z"/>
<rect x="103" y="3" class="st1" width="8" height="37"/>
<rect x="160.3" y="50.5" class="st2" width="108" height="9.5"/>
<text transform="matrix(1 0 0 1 160.2759 56.9443)"><tspan x="0" y="0" class="st0 st3 st4">D</tspan><tspan x="6.5" y="0" class="st5 st3 st4">ynamic</tspan><tspan x="37.5" y="0" class="st0 st3 st4"> B</tspan><tspan x="46.5" y="0" class="st5 st3 st4">inary</tspan><tspan x="68" y="0" class="st0 st3 st4"> A</tspan><tspan x="77" y="0" class="st5 st3 st4">nalysis</tspan></text>
<line class="st6" x1="3" y1="47.5" x2="267" y2="47.5"/>
</svg>
