<?xml version="1.0" encoding="UTF-8"?>

<svg version="1.2" baseProfile="tiny" width="95.25mm" height="21.17mm" viewBox="0 0 9525 2117" preserveAspectRatio="xMidYMid" fill-rule="evenodd" stroke-width="28.222" stroke-linejoin="round" xmlns="http://www.w3.org/2000/svg" xmlns:ooo="http://xml.openoffice.org/svg/export" xmlns:xlink="http://www.w3.org/1999/xlink" xml:space="preserve">
 <defs class="ClipPathGroup">
  <clipPath id="presentation_clip_path" clipPathUnits="userSpaceOnUse">
   <rect x="0" y="0" width="9525" height="2117"/>
  </clipPath>
 </defs>
 <defs class="TextShapeIndex">
  <g ooo:slide="id1" ooo:id-list="id3 id4 id5 id6 id7 id8"/>
 </defs>
 <defs class="EmbeddedBulletChars">
  <g id="bullet-char-template(57356)" transform="scale(0.00048828125,-0.00048828125)">
   <path d="M 580,1141 L 1163,571 580,0 -4,571 580,1141 Z"/>
  </g>
  <g id="bullet-char-template(57354)" transform="scale(0.00048828125,-0.00048828125)">
   <path d="M 8,1128 L 1137,1128 1137,0 8,0 8,1128 Z"/>
  </g>
  <g id="bullet-char-template(10146)" transform="scale(0.00048828125,-0.00048828125)">
   <path d="M 174,0 L 602,739 174,1481 1456,739 174,0 Z M 1358,739 L 309,1346 659,739 1358,739 Z"/>
  </g>
  <g id="bullet-char-template(10132)" transform="scale(0.00048828125,-0.00048828125)">
   <path d="M 2015,739 L 1276,0 717,0 1260,543 174,543 174,936 1260,936 717,1481 1274,1481 2015,739 Z"/>
  </g>
  <g id="bullet-char-template(10007)" transform="scale(0.00048828125,-0.00048828125)">
   <path d="M 0,-2 C -7,14 -16,27 -25,37 L 356,567 C 262,823 215,952 215,954 215,979 228,992 255,992 264,992 276,990 289,987 310,991 331,999 354,1012 L 381,999 492,748 772,1049 836,1024 860,1049 C 881,1039 901,1025 922,1006 886,937 835,863 770,784 769,783 710,716 594,584 L 774,223 C 774,196 753,168 711,139 L 727,119 C 717,90 699,76 672,76 641,76 570,178 457,381 L 164,-76 C 142,-110 111,-127 72,-127 30,-127 9,-110 8,-76 1,-67 -2,-52 -2,-32 -2,-23 -1,-13 0,-2 Z"/>
  </g>
  <g id="bullet-char-template(10004)" transform="scale(0.00048828125,-0.00048828125)">
   <path d="M 285,-33 C 182,-33 111,30 74,156 52,228 41,333 41,471 41,549 55,616 82,672 116,743 169,778 240,778 293,778 328,747 346,684 L 369,508 C 377,444 397,411 428,410 L 1163,1116 C 1174,1127 1196,1133 1229,1133 1271,1133 1292,1118 1292,1087 L 1292,965 C 1292,929 1282,901 1262,881 L 442,47 C 390,-6 338,-33 285,-33 Z"/>
  </g>
  <g id="bullet-char-template(9679)" transform="scale(0.00048828125,-0.00048828125)">
   <path d="M 813,0 C 632,0 489,54 383,161 276,268 223,411 223,592 223,773 276,916 383,1023 489,1130 632,1184 813,1184 992,1184 1136,1130 1245,1023 1353,916 1407,772 1407,592 1407,412 1353,268 1245,161 1136,54 992,0 813,0 Z"/>
  </g>
  <g id="bullet-char-template(8226)" transform="scale(0.00048828125,-0.00048828125)">
   <path d="M 346,457 C 273,457 209,483 155,535 101,586 74,649 74,723 74,796 101,859 155,911 209,963 273,989 346,989 419,989 480,963 531,910 582,859 608,796 608,723 608,648 583,586 532,535 482,483 420,457 346,457 Z"/>
  </g>
  <g id="bullet-char-template(8211)" transform="scale(0.00048828125,-0.00048828125)">
   <path d="M -4,459 L 1135,459 1135,606 -4,606 -4,459 Z"/>
  </g>
 </defs>
 <defs class="TextEmbeddedBitmaps"/>
 <g>
  <g id="id2" class="Master_Slide">
   <g id="bg-id2" class="Background"/>
   <g id="bo-id2" class="BackgroundObjects"/>
  </g>
 </g>
 <g class="SlideGroup">
  <g>
   <g id="id1" class="Slide" clip-path="url(#presentation_clip_path)">
    <g class="Page">
     <g class="com.sun.star.drawing.PolyPolygonShape">
      <g id="id3">
       <path fill="rgb(170,60,60)" stroke="none" d="M 1118,643 L 751,643 751,1692 461,1692 461,643 96,643 96,407 1118,407 1118,643 Z"/>
      </g>
     </g>
     <g class="com.sun.star.drawing.ClosedBezierShape">
      <g id="id4">
       <path fill="rgb(40,40,40)" stroke="none" d="M 2929,1692 L 2597,1692 2397,1362 C 2382,1337 2368,1314 2354,1294 2340,1275 2326,1258 2312,1244 2298,1230 2284,1219 2268,1211 2253,1204 2236,1200 2219,1200 L 2141,1200 2141,1692 1851,1692 1851,407 2310,407 C 2622,407 2778,524 2778,757 2778,801 2771,843 2757,881 2744,919 2724,953 2699,983 2674,1014 2644,1040 2608,1062 2572,1084 2533,1102 2489,1114 L 2489,1118 C 2508,1124 2527,1133 2545,1147 2563,1160 2580,1176 2597,1194 2614,1212 2630,1231 2645,1252 2660,1272 2674,1293 2686,1312 L 2929,1692 Z M 2141,624 L 2141,982 2266,982 C 2328,982 2378,964 2416,928 2454,891 2473,846 2473,792 2473,680 2406,624 2271,624 L 2141,624 Z"/>
      </g>
     </g>
     <g class="com.sun.star.drawing.PolyPolygonShape">
      <g id="id5">
       <path fill="rgb(170,60,60)" stroke="none" d="M 4633,1457 L 5000,1457 5000,407 5290,407 5290,1457 5655,1457 5655,1692 4633,1692 4633,1457 Z"/>
      </g>
     </g>
     <g class="com.sun.star.drawing.ClosedBezierShape">
      <g id="id6">
       <path fill="rgb(40,40,40)" stroke="none" d="M 6864,1714 C 6680,1714 6530,1654 6414,1534 6298,1415 6240,1259 6240,1066 6240,863 6299,699 6417,573 6534,448 6690,385 6885,385 7068,385 7216,445 7330,565 7443,685 7499,844 7499,1040 7499,1242 7441,1405 7323,1529 7206,1652 7053,1714 6864,1714 Z M 6876,634 C 6775,634 6694,672 6634,748 6575,825 6545,925 6545,1051 6545,1178 6575,1279 6634,1353 6694,1427 6772,1464 6869,1464 6969,1464 7048,1428 7107,1356 7165,1284 7195,1184 7195,1056 7195,923 7166,819 7110,745 7053,671 6975,634 6876,634 Z"/>
      </g>
     </g>
     <g class="com.sun.star.drawing.ClosedBezierShape">
      <g id="id7">
       <path fill="rgb(40,40,40)" stroke="none" d="M 9428,1692 L 9136,1692 8606,885 C 8575,838 8554,802 8542,778 L 8538,778 C 8543,824 8545,893 8545,986 L 8545,1692 8272,1692 8272,407 8584,407 9094,1190 C 9117,1225 9139,1260 9158,1294 L 9162,1294 C 9157,1264 9155,1206 9155,1118 L 9155,407 9428,407 9428,1692 Z"/>
      </g>
     </g>
     <g class="com.sun.star.drawing.PolyPolygonShape">
      <g id="id8">
       <path fill="rgb(40,40,40)" stroke="none" d="M 3776,1712 L 3634,1712 3634,406 3917,406 3917,1712 3776,1712 Z"/>
      </g>
     </g>
    </g>
   </g>
  </g>
 </g>
</svg>